<?xml version="1.0" encoding="UTF-8" standalone="no"?>
<!DOCTYPE svg PUBLIC "-//W3C//DTD SVG 1.1//EN"
 "http://www.w3.org/Graphics/SVG/1.1/DTD/svg11.dtd">
<!-- Generated by graphviz version 2.36.0 (20140111.2315)
 -->
<!-- Title: /home/travis/build/AliceO2Group/AliceO2/Detectors/MUON/MCH/PreClustering/src/DumpDigits.cxx Pages: 1 -->
<svg width="844pt" height="342pt"
 viewBox="0.00 0.00 844.00 342.00" xmlns="http://www.w3.org/2000/svg" xmlns:xlink="http://www.w3.org/1999/xlink">
<g id="graph0" class="graph" transform="scale(1 1) rotate(0) translate(4 338)">
<title>/home/travis/build/AliceO2Group/AliceO2/Detectors/MUON/MCH/PreClustering/src/DumpDigits.cxx</title>
<!-- Node1 -->
<g id="node1" class="node"><title>Node1</title>
<polygon fill="#bfbfbf" stroke="black" points="468.5,-281 468.5,-333 653.5,-333 653.5,-281 468.5,-281"/>
<text text-anchor="start" x="476.5" y="-321" font-family="Helvetica,sans-Serif" font-size="10.00">/home/travis/build</text>
<text text-anchor="start" x="476.5" y="-310" font-family="Helvetica,sans-Serif" font-size="10.00">/AliceO2Group/AliceO2</text>
<text text-anchor="start" x="476.5" y="-299" font-family="Helvetica,sans-Serif" font-size="10.00">/Detectors/MUON/MCH/PreClustering</text>
<text text-anchor="middle" x="561" y="-288" font-family="Helvetica,sans-Serif" font-size="10.00">/src/DumpDigits.cxx</text>
</g>
<!-- Node2 -->
<g id="node2" class="node"><title>Node2</title>
<g id="a_node2"><a xlink:href="../../dc/d54/DumpDigits_8h.html" target="_top" xlink:title="DumpDigits.h">
<polygon fill="none" stroke="black" points="423.5,-224.5 423.5,-243.5 500.5,-243.5 500.5,-224.5 423.5,-224.5"/>
<text text-anchor="middle" x="462" y="-231.5" font-family="Helvetica,sans-Serif" font-size="10.00">DumpDigits.h</text>
</a>
</g>
</g>
<!-- Node1&#45;&gt;Node2 -->
<g id="edge1" class="edge"><title>Node1&#45;&gt;Node2</title>
<path fill="none" stroke="midnightblue" d="M526.096,-280.968C511.582,-270.559 495.23,-258.831 482.674,-249.827"/>
<polygon fill="midnightblue" stroke="midnightblue" points="484.45,-246.793 474.284,-243.81 480.37,-252.482 484.45,-246.793"/>
</g>
<!-- Node5 -->
<g id="node5" class="node"><title>Node5</title>
<g id="a_node5"><a xlink:href="../../d6/d34/AliHLTDataTypes_8h.html" target="_top" xlink:title="Data type declaration for the HLT module. ">
<polygon fill="none" stroke="black" points="444.5,-56.5 444.5,-75.5 547.5,-75.5 547.5,-56.5 444.5,-56.5"/>
<text text-anchor="middle" x="496" y="-63.5" font-family="Helvetica,sans-Serif" font-size="10.00">AliHLTDataTypes.h</text>
</a>
</g>
</g>
<!-- Node1&#45;&gt;Node5 -->
<g id="edge27" class="edge"><title>Node1&#45;&gt;Node5</title>
<path fill="none" stroke="midnightblue" d="M554.167,-280.875C541.061,-232.687 512.669,-128.289 501.08,-85.6802"/>
<polygon fill="midnightblue" stroke="midnightblue" points="504.401,-84.5529 498.399,-75.822 497.646,-86.39 504.401,-84.5529"/>
</g>
<!-- Node7 -->
<g id="node7" class="node"><title>Node7</title>
<polygon fill="none" stroke="#bfbfbf" points="0,-56.5 0,-75.5 44,-75.5 44,-56.5 0,-56.5"/>
<text text-anchor="middle" x="22" y="-63.5" font-family="Helvetica,sans-Serif" font-size="10.00">vector</text>
</g>
<!-- Node1&#45;&gt;Node7 -->
<g id="edge22" class="edge"><title>Node1&#45;&gt;Node7</title>
<path fill="none" stroke="midnightblue" d="M468.402,-301.466C351.102,-290.6 150.701,-254.076 38,-132 26.5545,-119.602 22.945,-100.36 21.9648,-86.0245"/>
<polygon fill="midnightblue" stroke="midnightblue" points="25.456,-85.689 21.6428,-75.8042 18.4595,-85.9094 25.456,-85.689"/>
</g>
<!-- Node8 -->
<g id="node8" class="node"><title>Node8</title>
<polygon fill="none" stroke="#bfbfbf" points="572,-0.5 572,-19.5 618,-19.5 618,-0.5 572,-0.5"/>
<text text-anchor="middle" x="595" y="-7.5" font-family="Helvetica,sans-Serif" font-size="10.00">cstdint</text>
</g>
<!-- Node1&#45;&gt;Node8 -->
<g id="edge21" class="edge"><title>Node1&#45;&gt;Node8</title>
<path fill="none" stroke="midnightblue" d="M563.899,-280.848C570.587,-222.816 586.975,-80.6289 592.856,-29.6056"/>
<polygon fill="midnightblue" stroke="midnightblue" points="596.333,-30.004 594.001,-19.669 589.379,-29.2025 596.333,-30.004"/>
</g>
<!-- Node18 -->
<g id="node18" class="node"><title>Node18</title>
<polygon fill="none" stroke="#bfbfbf" points="613,-224.5 613,-243.5 699,-243.5 699,-224.5 613,-224.5"/>
<text text-anchor="middle" x="656" y="-231.5" font-family="Helvetica,sans-Serif" font-size="10.00">FairMQLogger.h</text>
</g>
<!-- Node1&#45;&gt;Node18 -->
<g id="edge23" class="edge"><title>Node1&#45;&gt;Node18</title>
<path fill="none" stroke="midnightblue" d="M594.493,-280.968C608.421,-270.559 624.113,-258.831 636.161,-249.827"/>
<polygon fill="midnightblue" stroke="midnightblue" points="638.298,-252.6 644.213,-243.81 634.107,-246.993 638.298,-252.6"/>
</g>
<!-- Node19 -->
<g id="node19" class="node"><title>Node19</title>
<g id="a_node19"><a xlink:href="../../db/df0/DigitBlock_8h.html" target="_top" xlink:title="MCHBase/DigitBlock.h">
<polygon fill="none" stroke="black" points="717.5,-224.5 717.5,-243.5 836.5,-243.5 836.5,-224.5 717.5,-224.5"/>
<text text-anchor="middle" x="777" y="-231.5" font-family="Helvetica,sans-Serif" font-size="10.00">MCHBase/DigitBlock.h</text>
</a>
</g>
</g>
<!-- Node1&#45;&gt;Node19 -->
<g id="edge24" class="edge"><title>Node1&#45;&gt;Node19</title>
<path fill="none" stroke="midnightblue" d="M637.154,-280.968C672.527,-269.341 712.906,-256.068 741.151,-246.784"/>
<polygon fill="midnightblue" stroke="midnightblue" points="742.569,-250.002 750.976,-243.554 740.383,-243.352 742.569,-250.002"/>
</g>
<!-- Node3 -->
<g id="node3" class="node"><title>Node3</title>
<polygon fill="none" stroke="#bfbfbf" points="418,-168.5 418,-187.5 506,-187.5 506,-168.5 418,-168.5"/>
<text text-anchor="middle" x="462" y="-175.5" font-family="Helvetica,sans-Serif" font-size="10.00">FairMQDevice.h</text>
</g>
<!-- Node2&#45;&gt;Node3 -->
<g id="edge2" class="edge"><title>Node2&#45;&gt;Node3</title>
<path fill="none" stroke="midnightblue" d="M462,-224.083C462,-217.006 462,-206.861 462,-197.986"/>
<polygon fill="midnightblue" stroke="midnightblue" points="465.5,-197.751 462,-187.751 458.5,-197.751 465.5,-197.751"/>
</g>
<!-- Node4 -->
<g id="node4" class="node"><title>Node4</title>
<g id="a_node4"><a xlink:href="../../d2/dda/MessageFormat_8h.html" target="_top" xlink:title="aliceHLTwrapper/MessageFormat.h">
<polygon fill="none" stroke="black" points="225,-168.5 225,-187.5 397,-187.5 397,-168.5 225,-168.5"/>
<text text-anchor="middle" x="311" y="-175.5" font-family="Helvetica,sans-Serif" font-size="10.00">aliceHLTwrapper/MessageFormat.h</text>
</a>
</g>
</g>
<!-- Node2&#45;&gt;Node4 -->
<g id="edge3" class="edge"><title>Node2&#45;&gt;Node4</title>
<path fill="none" stroke="midnightblue" d="M438.074,-224.444C412.781,-215.399 372.698,-201.064 344.32,-190.916"/>
<polygon fill="midnightblue" stroke="midnightblue" points="345.409,-187.588 334.814,-187.516 343.052,-194.179 345.409,-187.588"/>
</g>
<!-- Node4&#45;&gt;Node5 -->
<g id="edge4" class="edge"><title>Node4&#45;&gt;Node5</title>
<path fill="none" stroke="midnightblue" d="M366.588,-168.449C409.506,-160.741 464.157,-148.145 480,-132 491.818,-119.957 495.377,-100.667 496.245,-86.2238"/>
<polygon fill="midnightblue" stroke="midnightblue" points="499.751,-85.9846 496.469,-75.9108 492.752,-85.8321 499.751,-85.9846"/>
</g>
<!-- Node6 -->
<g id="node6" class="node"><title>Node6</title>
<g id="a_node6"><a xlink:href="../../d2/de6/HOMERFactory_8h.html" target="_top" xlink:title="HOMERFactory.h">
<polygon fill="none" stroke="black" points="376.5,-112.5 376.5,-131.5 471.5,-131.5 471.5,-112.5 376.5,-112.5"/>
<text text-anchor="middle" x="424" y="-119.5" font-family="Helvetica,sans-Serif" font-size="10.00">HOMERFactory.h</text>
</a>
</g>
</g>
<!-- Node4&#45;&gt;Node6 -->
<g id="edge5" class="edge"><title>Node4&#45;&gt;Node6</title>
<path fill="none" stroke="midnightblue" d="M328.905,-168.444C347.254,-159.675 376.005,-145.935 397.094,-135.858"/>
<polygon fill="midnightblue" stroke="midnightblue" points="398.665,-138.986 406.179,-131.516 395.647,-132.67 398.665,-138.986"/>
</g>
<!-- Node4&#45;&gt;Node7 -->
<g id="edge7" class="edge"><title>Node4&#45;&gt;Node7</title>
<path fill="none" stroke="midnightblue" d="M224.797,-169.441C162.667,-162.558 85.3167,-150.59 59,-132 43.1263,-120.787 33.1665,-100.467 27.6314,-85.5217"/>
<polygon fill="midnightblue" stroke="midnightblue" points="30.866,-84.1596 24.3616,-75.7964 24.2309,-86.3904 30.866,-84.1596"/>
</g>
<!-- Node4&#45;&gt;Node8 -->
<g id="edge8" class="edge"><title>Node4&#45;&gt;Node8</title>
<path fill="none" stroke="midnightblue" d="M388.105,-168.469C423.836,-162.115 465.844,-151.086 500,-132 542.794,-108.087 573.06,-56.2609 586.763,-28.8423"/>
<polygon fill="midnightblue" stroke="midnightblue" points="590.01,-30.1662 591.195,-19.6379 583.703,-27.1291 590.01,-30.1662"/>
</g>
<!-- Node9 -->
<g id="node9" class="node"><title>Node9</title>
<polygon fill="none" stroke="#bfbfbf" points="260,-112.5 260,-131.5 358,-131.5 358,-112.5 260,-112.5"/>
<text text-anchor="middle" x="309" y="-119.5" font-family="Helvetica,sans-Serif" font-size="10.00">boost/signals2.hpp</text>
</g>
<!-- Node4&#45;&gt;Node9 -->
<g id="edge9" class="edge"><title>Node4&#45;&gt;Node9</title>
<path fill="none" stroke="midnightblue" d="M310.67,-168.083C310.408,-161.006 310.032,-150.861 309.703,-141.986"/>
<polygon fill="midnightblue" stroke="midnightblue" points="313.192,-141.615 309.324,-131.751 306.197,-141.874 313.192,-141.615"/>
</g>
<!-- Node10 -->
<g id="node10" class="node"><title>Node10</title>
<g id="a_node10"><a xlink:href="../../dc/dcd/DataHeader_8h.html" target="_top" xlink:title="Headers/DataHeader.h">
<polygon fill="none" stroke="black" points="192.5,-56.5 192.5,-75.5 309.5,-75.5 309.5,-56.5 192.5,-56.5"/>
<text text-anchor="middle" x="251" y="-63.5" font-family="Helvetica,sans-Serif" font-size="10.00">Headers/DataHeader.h</text>
</a>
</g>
</g>
<!-- Node4&#45;&gt;Node10 -->
<g id="edge10" class="edge"><title>Node4&#45;&gt;Node10</title>
<path fill="none" stroke="midnightblue" d="M291.704,-168.48C277.571,-161.081 259.443,-148.887 251,-132 243.824,-117.649 244.62,-99.1873 246.745,-85.6089"/>
<polygon fill="midnightblue" stroke="midnightblue" points="250.228,-86.0326 248.698,-75.5489 243.356,-84.6988 250.228,-86.0326"/>
</g>
<!-- Node15 -->
<g id="node15" class="node"><title>Node15</title>
<g id="a_node15"><a xlink:href="../../d2/d09/HeartbeatFrame_8h.html" target="_top" xlink:title="Headers/HeartbeatFrame.h">
<polygon fill="none" stroke="black" points="68.5,-112.5 68.5,-131.5 203.5,-131.5 203.5,-112.5 68.5,-112.5"/>
<text text-anchor="middle" x="136" y="-119.5" font-family="Helvetica,sans-Serif" font-size="10.00">Headers/HeartbeatFrame.h</text>
</a>
</g>
</g>
<!-- Node4&#45;&gt;Node15 -->
<g id="edge16" class="edge"><title>Node4&#45;&gt;Node15</title>
<path fill="none" stroke="midnightblue" d="M283.271,-168.444C253.574,-159.28 206.284,-144.688 173.331,-134.519"/>
<polygon fill="midnightblue" stroke="midnightblue" points="174.187,-131.121 163.6,-131.516 172.123,-137.809 174.187,-131.121"/>
</g>
<!-- Node6&#45;&gt;Node5 -->
<g id="edge6" class="edge"><title>Node6&#45;&gt;Node5</title>
<path fill="none" stroke="midnightblue" d="M435.568,-112.324C446.42,-104.185 462.881,-91.8395 475.883,-82.0874"/>
<polygon fill="midnightblue" stroke="midnightblue" points="478.321,-84.6339 484.221,-75.8339 474.121,-79.0339 478.321,-84.6339"/>
</g>
<!-- Node10&#45;&gt;Node8 -->
<g id="edge11" class="edge"><title>Node10&#45;&gt;Node8</title>
<path fill="none" stroke="midnightblue" d="M305.508,-56.4435C377.532,-45.1374 502.207,-25.5664 561.633,-16.2378"/>
<polygon fill="midnightblue" stroke="midnightblue" points="562.27,-19.6808 571.606,-14.6723 561.184,-12.7655 562.27,-19.6808"/>
</g>
<!-- Node11 -->
<g id="node11" class="node"><title>Node11</title>
<polygon fill="none" stroke="#bfbfbf" points="261,-0.5 261,-19.5 313,-19.5 313,-0.5 261,-0.5"/>
<text text-anchor="middle" x="287" y="-7.5" font-family="Helvetica,sans-Serif" font-size="10.00">memory</text>
</g>
<!-- Node10&#45;&gt;Node11 -->
<g id="edge12" class="edge"><title>Node10&#45;&gt;Node11</title>
<path fill="none" stroke="midnightblue" d="M256.945,-56.083C261.977,-48.5341 269.337,-37.4948 275.513,-28.2298"/>
<polygon fill="midnightblue" stroke="midnightblue" points="278.531,-30.0131 281.166,-19.7511 272.707,-26.1301 278.531,-30.0131"/>
</g>
<!-- Node12 -->
<g id="node12" class="node"><title>Node12</title>
<polygon fill="none" stroke="#bfbfbf" points="331.5,-0.5 331.5,-19.5 380.5,-19.5 380.5,-0.5 331.5,-0.5"/>
<text text-anchor="middle" x="356" y="-7.5" font-family="Helvetica,sans-Serif" font-size="10.00">cassert</text>
</g>
<!-- Node10&#45;&gt;Node12 -->
<g id="edge13" class="edge"><title>Node10&#45;&gt;Node12</title>
<path fill="none" stroke="midnightblue" d="M267.87,-56.324C284.709,-47.6641 310.807,-34.2424 330.238,-24.249"/>
<polygon fill="midnightblue" stroke="midnightblue" points="331.88,-27.3405 339.172,-19.6545 328.678,-21.1155 331.88,-27.3405"/>
</g>
<!-- Node13 -->
<g id="node13" class="node"><title>Node13</title>
<polygon fill="none" stroke="#bfbfbf" points="123,-0.5 123,-19.5 169,-19.5 169,-0.5 123,-0.5"/>
<text text-anchor="middle" x="146" y="-7.5" font-family="Helvetica,sans-Serif" font-size="10.00">cstring</text>
</g>
<!-- Node10&#45;&gt;Node13 -->
<g id="edge14" class="edge"><title>Node10&#45;&gt;Node13</title>
<path fill="none" stroke="midnightblue" d="M234.13,-56.324C217.291,-47.6641 191.193,-34.2424 171.762,-24.249"/>
<polygon fill="midnightblue" stroke="midnightblue" points="173.322,-21.1155 162.828,-19.6545 170.12,-27.3405 173.322,-21.1155"/>
</g>
<!-- Node14 -->
<g id="node14" class="node"><title>Node14</title>
<polygon fill="none" stroke="#bfbfbf" points="187,-0.5 187,-19.5 243,-19.5 243,-0.5 187,-0.5"/>
<text text-anchor="middle" x="215" y="-7.5" font-family="Helvetica,sans-Serif" font-size="10.00">algorithm</text>
</g>
<!-- Node10&#45;&gt;Node14 -->
<g id="edge15" class="edge"><title>Node10&#45;&gt;Node14</title>
<path fill="none" stroke="midnightblue" d="M245.055,-56.083C240.023,-48.5341 232.663,-37.4948 226.487,-28.2298"/>
<polygon fill="midnightblue" stroke="midnightblue" points="229.293,-26.1301 220.834,-19.7511 223.469,-30.0131 229.293,-26.1301"/>
</g>
<!-- Node15&#45;&gt;Node7 -->
<g id="edge20" class="edge"><title>Node15&#45;&gt;Node7</title>
<path fill="none" stroke="midnightblue" d="M117.936,-112.444C99.4252,-103.675 70.4193,-89.9355 49.1445,-79.8579"/>
<polygon fill="midnightblue" stroke="midnightblue" points="50.5148,-76.6343 39.9791,-75.5164 47.5182,-82.9604 50.5148,-76.6343"/>
</g>
<!-- Node15&#45;&gt;Node10 -->
<g id="edge17" class="edge"><title>Node15&#45;&gt;Node10</title>
<path fill="none" stroke="midnightblue" d="M154.222,-112.444C172.896,-103.675 202.156,-89.9355 223.617,-79.8579"/>
<polygon fill="midnightblue" stroke="midnightblue" points="225.299,-82.935 232.863,-75.5164 222.324,-76.5988 225.299,-82.935"/>
</g>
<!-- Node16 -->
<g id="node16" class="node"><title>Node16</title>
<polygon fill="none" stroke="#bfbfbf" points="62.5,-56.5 62.5,-75.5 121.5,-75.5 121.5,-56.5 62.5,-56.5"/>
<text text-anchor="middle" x="92" y="-63.5" font-family="Helvetica,sans-Serif" font-size="10.00">functional</text>
</g>
<!-- Node15&#45;&gt;Node16 -->
<g id="edge18" class="edge"><title>Node15&#45;&gt;Node16</title>
<path fill="none" stroke="midnightblue" d="M128.734,-112.083C122.455,-104.377 113.212,-93.0333 105.569,-83.6531"/>
<polygon fill="midnightblue" stroke="midnightblue" points="108.161,-81.2926 99.1305,-75.7511 102.734,-85.7143 108.161,-81.2926"/>
</g>
<!-- Node17 -->
<g id="node17" class="node"><title>Node17</title>
<polygon fill="none" stroke="#bfbfbf" points="139.5,-56.5 139.5,-75.5 174.5,-75.5 174.5,-56.5 139.5,-56.5"/>
<text text-anchor="middle" x="157" y="-63.5" font-family="Helvetica,sans-Serif" font-size="10.00">map</text>
</g>
<!-- Node15&#45;&gt;Node17 -->
<g id="edge19" class="edge"><title>Node15&#45;&gt;Node17</title>
<path fill="none" stroke="midnightblue" d="M139.468,-112.083C142.312,-104.77 146.429,-94.1814 149.96,-85.1034"/>
<polygon fill="midnightblue" stroke="midnightblue" points="153.234,-86.3397 153.597,-75.7511 146.71,-83.8025 153.234,-86.3397"/>
</g>
<!-- Node19&#45;&gt;Node8 -->
<g id="edge25" class="edge"><title>Node19&#45;&gt;Node8</title>
<path fill="none" stroke="midnightblue" d="M775.932,-224.435C774.009,-211.436 769.079,-186.306 758,-168 720.089,-105.362 651.002,-50.7257 616.214,-25.6317"/>
<polygon fill="midnightblue" stroke="midnightblue" points="617.936,-22.5623 607.756,-19.6275 613.884,-28.2703 617.936,-22.5623"/>
</g>
<!-- Node20 -->
<g id="node20" class="node"><title>Node20</title>
<polygon fill="none" stroke="#bfbfbf" points="697,-168.5 697,-187.5 749,-187.5 749,-168.5 697,-168.5"/>
<text text-anchor="middle" x="723" y="-175.5" font-family="Helvetica,sans-Serif" font-size="10.00">ostream</text>
</g>
<!-- Node19&#45;&gt;Node20 -->
<g id="edge26" class="edge"><title>Node19&#45;&gt;Node20</title>
<path fill="none" stroke="midnightblue" d="M768.083,-224.083C760.22,-216.22 748.569,-204.569 739.081,-195.081"/>
<polygon fill="midnightblue" stroke="midnightblue" points="741.297,-192.347 731.751,-187.751 736.347,-197.297 741.297,-192.347"/>
</g>
</g>
</svg>
