<?xml version="1.0" encoding="UTF-8" standalone="no"?>
<!DOCTYPE svg PUBLIC "-//W3C//DTD SVG 1.1//EN"
 "http://www.w3.org/Graphics/SVG/1.1/DTD/svg11.dtd">
<!-- Generated by graphviz version 2.36.0 (20140111.2315)
 -->
<!-- Title: /home/travis/build/AliceO2Group/AliceO2/Framework/Core/include/Framework/ErrorContext.h Pages: 1 -->
<!--zoomable 342 -->
<svg id="main" version="1.1" xmlns="http://www.w3.org/2000/svg" xmlns:xlink="http://www.w3.org/1999/xlink" xml:space="preserve" onload="init(evt)">
<style type="text/css"><![CDATA[
.edge:hover path { stroke: red; }
.edge:hover polygon { stroke: red; fill: red; }
]]></style>
<script type="text/javascript"><![CDATA[
var edges = document.getElementsByTagName('g');
if (edges && edges.length) {
  for (var i=0;i<edges.length;i++) {
    if (edges[i].id.substr(0,4)=='edge') {
      edges[i].setAttribute('class','edge');
    }
  }
}
]]></script>
        <defs>
                <circle id="rim" cx="0" cy="0" r="7"/>
                <circle id="rim2" cx="0" cy="0" r="3.5"/>
                <g id="zoomPlus">
                        <use xlink:href="#rim" fill="#404040">
                                <set attributeName="fill" to="#808080" begin="zoomplus.mouseover" end="zoomplus.mouseout"/>
                        </use>
                        <path d="M-4,0h8M0,-4v8" fill="none" stroke="white" stroke-width="1.5" pointer-events="none"/>
                </g>
                <g id="zoomMin">
                        <use xlink:href="#rim" fill="#404040">
                                <set attributeName="fill" to="#808080" begin="zoomminus.mouseover" end="zoomminus.mouseout"/>
                        </use>
                        <path d="M-4,0h8" fill="none" stroke="white" stroke-width="1.5" pointer-events="none"/>
                </g>
                <g id="dirArrow">
                        <path fill="none" stroke="white" stroke-width="1.5" d="M0,-3.0v7 M-2.5,-0.5L0,-3.0L2.5,-0.5"/>
                </g>
               <g id="resetDef">
                       <use xlink:href="#rim2" fill="#404040">
                               <set attributeName="fill" to="#808080" begin="reset.mouseover" end="reset.mouseout"/>
                       </use>
               </g>
        </defs>

<script type="text/javascript">
var viewWidth = 2037;
var viewHeight = 342;
var sectionId = 'dynsection-0';
</script>
<script xlink:href="../../svgpan.js"/>
<svg id="graph" class="graph">
<g id="viewport">
<title>/home/travis/build/AliceO2Group/AliceO2/Framework/Core/include/Framework/ErrorContext.h</title>
<!-- Node1 -->
<g id="node1" class="node"><title>Node1</title>
<polygon fill="#bfbfbf" stroke="black" points="1624.73,-281 1624.73,-333 1759.73,-333 1759.73,-281 1624.73,-281"/>
<text text-anchor="start" x="1632.73" y="-321" font-family="Helvetica,sans-Serif" font-size="10.00">/home/travis/build</text>
<text text-anchor="start" x="1632.73" y="-310" font-family="Helvetica,sans-Serif" font-size="10.00">/AliceO2Group/AliceO2</text>
<text text-anchor="start" x="1632.73" y="-299" font-family="Helvetica,sans-Serif" font-size="10.00">/Framework/Core/include</text>
<text text-anchor="middle" x="1692.23" y="-288" font-family="Helvetica,sans-Serif" font-size="10.00">/Framework/ErrorContext.h</text>
</g>
<!-- Node2 -->
<g id="node2" class="node"><title>Node2</title>
<g id="a_node2"><a xlink:href="../../d6/d5c/InputRecord_8h.html" target="_top" xlink:title="Framework/InputRecord.h">
<polygon fill="none" stroke="black" points="808.23,-224.5 808.23,-243.5 938.23,-243.5 938.23,-224.5 808.23,-224.5"/>
<text text-anchor="middle" x="873.23" y="-231.5" font-family="Helvetica,sans-Serif" font-size="10.00">Framework/InputRecord.h</text>
</a>
</g>
</g>
<!-- Node1&#45;&gt;Node2 -->
<g id="edge1" class="edge"><title>Node1&#45;&gt;Node2</title>
<path fill="none" stroke="midnightblue" d="M1624.51,-300.129C1472.91,-286.987 1107.13,-255.277 948.599,-241.534"/>
<polygon fill="midnightblue" stroke="midnightblue" points="948.726,-238.032 938.461,-240.655 948.121,-245.006 948.726,-238.032"/>
</g>
<!-- Node33 -->
<g id="node33" class="node"><title>Node33</title>
<polygon fill="none" stroke="#bfbfbf" points="1684.73,-168.5 1684.73,-187.5 1743.73,-187.5 1743.73,-168.5 1684.73,-168.5"/>
<text text-anchor="middle" x="1714.23" y="-175.5" font-family="Helvetica,sans-Serif" font-size="10.00">exception</text>
</g>
<!-- Node1&#45;&gt;Node33 -->
<g id="edge56" class="edge"><title>Node1&#45;&gt;Node33</title>
<path fill="none" stroke="midnightblue" d="M1696.58,-280.909C1700.82,-256.409 1707.18,-219.69 1711,-197.664"/>
<polygon fill="midnightblue" stroke="midnightblue" points="1714.48,-198.079 1712.74,-187.628 1707.58,-196.884 1714.48,-198.079"/>
</g>
<!-- Node34 -->
<g id="node34" class="node"><title>Node34</title>
<g id="a_node34"><a xlink:href="../../d8/d17/ServiceRegistry_8h.html" target="_top" xlink:title="Framework/ServiceRegistry.h">
<polygon fill="none" stroke="black" points="1720.23,-224.5 1720.23,-243.5 1866.23,-243.5 1866.23,-224.5 1720.23,-224.5"/>
<text text-anchor="middle" x="1793.23" y="-231.5" font-family="Helvetica,sans-Serif" font-size="10.00">Framework/ServiceRegistry.h</text>
</a>
</g>
</g>
<!-- Node1&#45;&gt;Node34 -->
<g id="edge49" class="edge"><title>Node1&#45;&gt;Node34</title>
<path fill="none" stroke="midnightblue" d="M1727.84,-280.968C1742.79,-270.458 1759.65,-258.603 1772.51,-249.565"/>
<polygon fill="midnightblue" stroke="midnightblue" points="1774.53,-252.424 1780.7,-243.81 1770.5,-246.697 1774.53,-252.424"/>
</g>
<!-- Node3 -->
<g id="node3" class="node"><title>Node3</title>
<g id="a_node3"><a xlink:href="../../d5/dfb/DataRef_8h.html" target="_top" xlink:title="Framework/DataRef.h">
<polygon fill="none" stroke="black" points="816.73,-112.5 816.73,-131.5 929.73,-131.5 929.73,-112.5 816.73,-112.5"/>
<text text-anchor="middle" x="873.23" y="-119.5" font-family="Helvetica,sans-Serif" font-size="10.00">Framework/DataRef.h</text>
</a>
</g>
</g>
<!-- Node2&#45;&gt;Node3 -->
<g id="edge2" class="edge"><title>Node2&#45;&gt;Node3</title>
<path fill="none" stroke="midnightblue" d="M873.23,-224.368C873.23,-206.617 873.23,-165.666 873.23,-141.597"/>
<polygon fill="midnightblue" stroke="midnightblue" points="876.73,-141.591 873.23,-131.591 869.73,-141.591 876.73,-141.591"/>
</g>
<!-- Node4 -->
<g id="node4" class="node"><title>Node4</title>
<g id="a_node4"><a xlink:href="../../d5/db8/DataRefUtils_8h.html" target="_top" xlink:title="Framework/DataRefUtils.h">
<polygon fill="none" stroke="black" points="1061.23,-168.5 1061.23,-187.5 1195.23,-187.5 1195.23,-168.5 1061.23,-168.5"/>
<text text-anchor="middle" x="1128.23" y="-175.5" font-family="Helvetica,sans-Serif" font-size="10.00">Framework/DataRefUtils.h</text>
</a>
</g>
</g>
<!-- Node2&#45;&gt;Node4 -->
<g id="edge3" class="edge"><title>Node2&#45;&gt;Node4</title>
<path fill="none" stroke="midnightblue" d="M913.636,-224.444C958.213,-215.004 1030,-199.802 1078.12,-189.611"/>
<polygon fill="midnightblue" stroke="midnightblue" points="1078.96,-193.012 1088.01,-187.516 1077.51,-186.164 1078.96,-193.012"/>
</g>
<!-- Node7 -->
<g id="node7" class="node"><title>Node7</title>
<polygon fill="none" stroke="#bfbfbf" points="151.23,-0.5 151.23,-19.5 203.23,-19.5 203.23,-0.5 151.23,-0.5"/>
<text text-anchor="middle" x="177.23" y="-7.5" font-family="Helvetica,sans-Serif" font-size="10.00">memory</text>
</g>
<!-- Node2&#45;&gt;Node7 -->
<g id="edge47" class="edge"><title>Node2&#45;&gt;Node7</title>
<path fill="none" stroke="midnightblue" d="M808.213,-231.875C624.54,-227.142 108.832,-202.612 12.2303,-76 -22.8447,-30.0288 82.3511,-16.5254 140.881,-12.5935"/>
<polygon fill="midnightblue" stroke="midnightblue" points="141.453,-16.0652 151.222,-11.965 141.028,-9.07814 141.453,-16.0652"/>
</g>
<!-- Node8 -->
<g id="node8" class="node"><title>Node8</title>
<polygon fill="none" stroke="#bfbfbf" points="1284.73,-0.5 1284.73,-19.5 1333.73,-19.5 1333.73,-0.5 1284.73,-0.5"/>
<text text-anchor="middle" x="1309.23" y="-7.5" font-family="Helvetica,sans-Serif" font-size="10.00">cassert</text>
</g>
<!-- Node2&#45;&gt;Node8 -->
<g id="edge45" class="edge"><title>Node2&#45;&gt;Node8</title>
<path fill="none" stroke="midnightblue" d="M938.438,-232.561C1076.49,-230.938 1393.9,-223.355 1495.23,-188 1536.9,-173.462 1556.62,-171.026 1577.23,-132 1625.81,-39.9901 1427.16,-17.7911 1344.15,-12.564"/>
<polygon fill="midnightblue" stroke="midnightblue" points="1344.12,-9.05637 1333.94,-11.9701 1343.72,-16.0446 1344.12,-9.05637"/>
</g>
<!-- Node9 -->
<g id="node9" class="node"><title>Node9</title>
<polygon fill="none" stroke="#bfbfbf" points="10.2303,-0.5 10.2303,-19.5 56.2303,-19.5 56.2303,-0.5 10.2303,-0.5"/>
<text text-anchor="middle" x="33.2303" y="-7.5" font-family="Helvetica,sans-Serif" font-size="10.00">cstring</text>
</g>
<!-- Node2&#45;&gt;Node9 -->
<g id="edge44" class="edge"><title>Node2&#45;&gt;Node9</title>
<path fill="none" stroke="midnightblue" d="M808.144,-230.873C664.298,-225.8 323.155,-211.622 210.23,-188 107.46,-166.502 40.6076,-173.729 2.23029,-76 -4.44241,-59.0077 6.58186,-40.2532 17.2861,-27.2746"/>
<polygon fill="midnightblue" stroke="midnightblue" points="20.0377,-29.4479 24.0849,-19.6566 14.8151,-24.787 20.0377,-29.4479"/>
</g>
<!-- Node11 -->
<g id="node11" class="node"><title>Node11</title>
<g id="a_node11"><a xlink:href="../../d8/d3c/TMessageSerializer_8h.html" target="_top" xlink:title="Framework/TMessageSerializer.h">
<polygon fill="none" stroke="black" points="380.73,-112.5 380.73,-131.5 543.73,-131.5 543.73,-112.5 380.73,-112.5"/>
<text text-anchor="middle" x="462.23" y="-119.5" font-family="Helvetica,sans-Serif" font-size="10.00">Framework/TMessageSerializer.h</text>
</a>
</g>
</g>
<!-- Node2&#45;&gt;Node11 -->
<g id="edge39" class="edge"><title>Node2&#45;&gt;Node11</title>
<path fill="none" stroke="midnightblue" d="M807.927,-228.249C725.681,-221.552 589.515,-207.891 543.23,-188 516.992,-176.724 492.214,-154.519 477.134,-139.225"/>
<polygon fill="midnightblue" stroke="midnightblue" points="479.618,-136.758 470.176,-131.952 474.56,-141.597 479.618,-136.758"/>
</g>
<!-- Node12 -->
<g id="node12" class="node"><title>Node12</title>
<polygon fill="none" stroke="#bfbfbf" points="21.7303,-56.5 21.7303,-75.5 148.73,-75.5 148.73,-56.5 21.7303,-56.5"/>
<text text-anchor="middle" x="85.2303" y="-63.5" font-family="Helvetica,sans-Serif" font-size="10.00">fairmq/FairMQMessage.h</text>
</g>
<!-- Node2&#45;&gt;Node12 -->
<g id="edge38" class="edge"><title>Node2&#45;&gt;Node12</title>
<path fill="none" stroke="midnightblue" d="M808.164,-227.851C734.808,-221.382 612.203,-208.567 508.23,-188 415.997,-169.755 394.636,-157.822 304.23,-132 240.548,-113.811 166.76,-91.6933 123.148,-78.5123"/>
<polygon fill="midnightblue" stroke="midnightblue" points="124.11,-75.1468 113.525,-75.6009 122.083,-81.8468 124.11,-75.1468"/>
</g>
<!-- Node21 -->
<g id="node21" class="node"><title>Node21</title>
<g id="a_node21"><a xlink:href="../../d0/d95/TypeTraits_8h.html" target="_top" xlink:title="Framework/TypeTraits.h">
<polygon fill="none" stroke="black" points="1295.73,-56.5 1295.73,-75.5 1418.73,-75.5 1418.73,-56.5 1295.73,-56.5"/>
<text text-anchor="middle" x="1357.23" y="-63.5" font-family="Helvetica,sans-Serif" font-size="10.00">Framework/TypeTraits.h</text>
</a>
</g>
</g>
<!-- Node2&#45;&gt;Node21 -->
<g id="edge37" class="edge"><title>Node2&#45;&gt;Node21</title>
<path fill="none" stroke="midnightblue" d="M938.503,-233.943C1094.59,-234.634 1482.26,-226.594 1560.23,-132 1565.88,-125.141 1565.79,-118.932 1560.23,-112 1543.81,-91.5454 1480.63,-79.813 1429.06,-73.4913"/>
<polygon fill="midnightblue" stroke="midnightblue" points="1429.25,-69.9906 1418.91,-72.2981 1428.44,-76.9426 1429.25,-69.9906"/>
</g>
<!-- Node22 -->
<g id="node22" class="node"><title>Node22</title>
<polygon fill="none" stroke="#bfbfbf" points="1572.23,-0.5 1572.23,-19.5 1634.23,-19.5 1634.23,-0.5 1572.23,-0.5"/>
<text text-anchor="middle" x="1603.23" y="-7.5" font-family="Helvetica,sans-Serif" font-size="10.00">type_traits</text>
</g>
<!-- Node2&#45;&gt;Node22 -->
<g id="edge48" class="edge"><title>Node2&#45;&gt;Node22</title>
<path fill="none" stroke="midnightblue" d="M938.265,-231.051C1094.39,-226.022 1481.43,-211.343 1535.23,-188 1568.69,-173.48 1579.6,-164.957 1595.23,-132 1610.97,-98.8305 1608.98,-54.7048 1606.11,-29.9402"/>
<polygon fill="midnightblue" stroke="midnightblue" points="1609.54,-29.1996 1604.75,-19.7514 1602.6,-30.127 1609.54,-29.1996"/>
</g>
<!-- Node23 -->
<g id="node23" class="node"><title>Node23</title>
<polygon fill="none" stroke="#bfbfbf" points="1085.23,-0.5 1085.23,-19.5 1129.23,-19.5 1129.23,-0.5 1085.23,-0.5"/>
<text text-anchor="middle" x="1107.23" y="-7.5" font-family="Helvetica,sans-Serif" font-size="10.00">vector</text>
</g>
<!-- Node2&#45;&gt;Node23 -->
<g id="edge43" class="edge"><title>Node2&#45;&gt;Node23</title>
<path fill="none" stroke="midnightblue" d="M868.454,-224.413C861.359,-211.807 847.448,-187.658 834.23,-168 823.071,-151.403 813.555,-150.974 807.23,-132 804.419,-123.567 801.76,-119.006 807.23,-112 847.829,-60.0023 888.607,-96.7447 951.23,-76 997.473,-60.6815 1049.35,-37.892 1080.1,-23.7657"/>
<polygon fill="midnightblue" stroke="midnightblue" points="1081.71,-26.8804 1089.31,-19.5041 1078.77,-20.5277 1081.71,-26.8804"/>
</g>
<!-- Node24 -->
<g id="node24" class="node"><title>Node24</title>
<polygon fill="none" stroke="#bfbfbf" points="1496.23,-112.5 1496.23,-131.5 1552.23,-131.5 1552.23,-112.5 1496.23,-112.5"/>
<text text-anchor="middle" x="1524.23" y="-119.5" font-family="Helvetica,sans-Serif" font-size="10.00">TClass.h</text>
</g>
<!-- Node2&#45;&gt;Node24 -->
<g id="edge40" class="edge"><title>Node2&#45;&gt;Node24</title>
<path fill="none" stroke="midnightblue" d="M938.42,-225.381C1005.31,-217.271 1112.3,-203.492 1204.23,-188 1328.52,-167.056 1358.83,-157.649 1482.23,-132 1483.5,-131.735 1484.8,-131.465 1486.11,-131.191"/>
<polygon fill="midnightblue" stroke="midnightblue" points="1487.17,-134.544 1496.23,-129.051 1485.72,-127.695 1487.17,-134.544"/>
</g>
<!-- Node28 -->
<g id="node28" class="node"><title>Node28</title>
<g id="a_node28"><a xlink:href="../../d5/d19/InputRoute_8h.html" target="_top" xlink:title="Framework/InputRoute.h">
<polygon fill="none" stroke="black" points="552.73,-168.5 552.73,-187.5 677.73,-187.5 677.73,-168.5 552.73,-168.5"/>
<text text-anchor="middle" x="615.23" y="-175.5" font-family="Helvetica,sans-Serif" font-size="10.00">Framework/InputRoute.h</text>
</a>
</g>
</g>
<!-- Node2&#45;&gt;Node28 -->
<g id="edge31" class="edge"><title>Node2&#45;&gt;Node28</title>
<path fill="none" stroke="midnightblue" d="M832.349,-224.444C787.248,-215.004 714.618,-199.802 665.928,-189.611"/>
<polygon fill="midnightblue" stroke="midnightblue" points="666.425,-186.139 655.92,-187.516 664.991,-192.991 666.425,-186.139"/>
</g>
<!-- Node30 -->
<g id="node30" class="node"><title>Node30</title>
<polygon fill="none" stroke="#bfbfbf" points="766.73,-56.5 766.73,-75.5 807.73,-75.5 807.73,-56.5 766.73,-56.5"/>
<text text-anchor="middle" x="787.23" y="-63.5" font-family="Helvetica,sans-Serif" font-size="10.00">string</text>
</g>
<!-- Node2&#45;&gt;Node30 -->
<g id="edge42" class="edge"><title>Node2&#45;&gt;Node30</title>
<path fill="none" stroke="midnightblue" d="M825.181,-224.458C804.288,-218.101 781.76,-207.074 769.23,-188 748.426,-156.329 765.364,-110.031 777.541,-84.877"/>
<polygon fill="midnightblue" stroke="midnightblue" points="780.757,-86.2752 782.191,-75.778 774.524,-83.0893 780.757,-86.2752"/>
</g>
<!-- Node32 -->
<g id="node32" class="node"><title>Node32</title>
<polygon fill="none" stroke="#bfbfbf" points="778.73,-168.5 778.73,-187.5 825.73,-187.5 825.73,-168.5 778.73,-168.5"/>
<text text-anchor="middle" x="802.23" y="-175.5" font-family="Helvetica,sans-Serif" font-size="10.00">iterator</text>
</g>
<!-- Node2&#45;&gt;Node32 -->
<g id="edge41" class="edge"><title>Node2&#45;&gt;Node32</title>
<path fill="none" stroke="midnightblue" d="M861.823,-224.324C851.121,-216.185 834.89,-203.839 822.067,-194.087"/>
<polygon fill="midnightblue" stroke="midnightblue" points="823.924,-191.102 813.845,-187.834 819.686,-196.673 823.924,-191.102"/>
</g>
<!-- Node2&#45;&gt;Node33 -->
<g id="edge46" class="edge"><title>Node2&#45;&gt;Node33</title>
<path fill="none" stroke="midnightblue" d="M938.352,-232.522C1074.71,-230.818 1400,-223.077 1670.23,-188 1671.68,-187.812 1673.15,-187.603 1674.64,-187.377"/>
<polygon fill="midnightblue" stroke="midnightblue" points="1675.24,-190.826 1684.51,-185.69 1674.06,-183.926 1675.24,-190.826"/>
</g>
<!-- Node4&#45;&gt;Node3 -->
<g id="edge4" class="edge"><title>Node4&#45;&gt;Node3</title>
<path fill="none" stroke="midnightblue" d="M1087.82,-168.444C1043.25,-159.004 971.462,-143.802 923.338,-133.611"/>
<polygon fill="midnightblue" stroke="midnightblue" points="923.955,-130.164 913.447,-131.516 922.505,-137.012 923.955,-130.164"/>
</g>
<!-- Node5 -->
<g id="node5" class="node"><title>Node5</title>
<g id="a_node5"><a xlink:href="../../dc/dcd/DataHeader_8h.html" target="_top" xlink:title="Headers/DataHeader.h">
<polygon fill="none" stroke="black" points="825.73,-56.5 825.73,-75.5 942.73,-75.5 942.73,-56.5 825.73,-56.5"/>
<text text-anchor="middle" x="884.23" y="-63.5" font-family="Helvetica,sans-Serif" font-size="10.00">Headers/DataHeader.h</text>
</a>
</g>
</g>
<!-- Node4&#45;&gt;Node5 -->
<g id="edge5" class="edge"><title>Node4&#45;&gt;Node5</title>
<path fill="none" stroke="midnightblue" d="M1105.06,-168.408C1082.06,-159.729 1045.89,-145.684 1015.23,-132 977.856,-115.319 935.607,-93.8724 909.441,-80.2761"/>
<polygon fill="midnightblue" stroke="midnightblue" points="911.053,-77.1691 900.568,-75.6455 907.814,-83.3749 911.053,-77.1691"/>
</g>
<!-- Node4&#45;&gt;Node11 -->
<g id="edge11" class="edge"><title>Node4&#45;&gt;Node11</title>
<path fill="none" stroke="midnightblue" d="M1061.01,-171.55C940.989,-161.818 689.689,-141.443 553.932,-130.435"/>
<polygon fill="midnightblue" stroke="midnightblue" points="554.211,-126.947 543.961,-129.627 553.645,-133.924 554.211,-126.947"/>
</g>
<!-- Node20 -->
<g id="node20" class="node"><title>Node20</title>
<g id="a_node20"><a xlink:href="../../d1/d53/SerializationMethods_8h.html" target="_top" xlink:title="Type wrappers for enfording a specific serialization method. ">
<polygon fill="none" stroke="black" points="1273.73,-112.5 1273.73,-131.5 1440.73,-131.5 1440.73,-112.5 1273.73,-112.5"/>
<text text-anchor="middle" x="1357.23" y="-119.5" font-family="Helvetica,sans-Serif" font-size="10.00">Framework/SerializationMethods.h</text>
</a>
</g>
</g>
<!-- Node4&#45;&gt;Node20 -->
<g id="edge21" class="edge"><title>Node4&#45;&gt;Node20</title>
<path fill="none" stroke="midnightblue" d="M1164.52,-168.444C1204.21,-159.083 1267.94,-144.056 1311.14,-133.868"/>
<polygon fill="midnightblue" stroke="midnightblue" points="1312.18,-137.218 1321.11,-131.516 1310.58,-130.405 1312.18,-137.218"/>
</g>
<!-- Node4&#45;&gt;Node21 -->
<g id="edge25" class="edge"><title>Node4&#45;&gt;Node21</title>
<path fill="none" stroke="midnightblue" d="M1147.9,-168.343C1167.79,-159.501 1199.36,-145.231 1226.23,-132 1243.35,-123.57 1247.19,-120.602 1264.23,-112 1286.18,-100.916 1311.3,-88.7976 1329.89,-79.9315"/>
<polygon fill="midnightblue" stroke="midnightblue" points="1331.44,-83.0703 1338.96,-75.6144 1328.43,-76.7489 1331.44,-83.0703"/>
</g>
<!-- Node4&#45;&gt;Node22 -->
<g id="edge29" class="edge"><title>Node4&#45;&gt;Node22</title>
<path fill="none" stroke="midnightblue" d="M1195.5,-168.477C1286.17,-156.857 1437.68,-136.92 1449.23,-132 1507.91,-107.007 1563.29,-53.6687 1588.69,-26.9481"/>
<polygon fill="midnightblue" stroke="midnightblue" points="1591.31,-29.2676 1595.58,-19.5708 1586.2,-24.489 1591.31,-29.2676"/>
</g>
<!-- Node4&#45;&gt;Node24 -->
<g id="edge26" class="edge"><title>Node4&#45;&gt;Node24</title>
<path fill="none" stroke="midnightblue" d="M1195.36,-170.179C1266.74,-162.526 1382.83,-148.936 1482.23,-132 1483.47,-131.789 1484.73,-131.566 1486,-131.335"/>
<polygon fill="midnightblue" stroke="midnightblue" points="1486.68,-134.769 1495.83,-129.427 1485.34,-127.897 1486.68,-134.769"/>
</g>
<!-- Node25 -->
<g id="node25" class="node"><title>Node25</title>
<polygon fill="none" stroke="#bfbfbf" points="1024.73,-112.5 1024.73,-131.5 1083.73,-131.5 1083.73,-112.5 1024.73,-112.5"/>
<text text-anchor="middle" x="1054.23" y="-119.5" font-family="Helvetica,sans-Serif" font-size="10.00">stdexcept</text>
</g>
<!-- Node4&#45;&gt;Node25 -->
<g id="edge27" class="edge"><title>Node4&#45;&gt;Node25</title>
<path fill="none" stroke="midnightblue" d="M1116.34,-168.324C1105.08,-160.107 1087.94,-147.602 1074.52,-137.807"/>
<polygon fill="midnightblue" stroke="midnightblue" points="1076.48,-134.901 1066.34,-131.834 1072.35,-140.556 1076.48,-134.901"/>
</g>
<!-- Node26 -->
<g id="node26" class="node"><title>Node26</title>
<polygon fill="none" stroke="#bfbfbf" points="1102.23,-112.5 1102.23,-131.5 1154.23,-131.5 1154.23,-112.5 1102.23,-112.5"/>
<text text-anchor="middle" x="1128.23" y="-119.5" font-family="Helvetica,sans-Serif" font-size="10.00">sstream</text>
</g>
<!-- Node4&#45;&gt;Node26 -->
<g id="edge28" class="edge"><title>Node4&#45;&gt;Node26</title>
<path fill="none" stroke="midnightblue" d="M1128.23,-168.083C1128.23,-161.006 1128.23,-150.861 1128.23,-141.986"/>
<polygon fill="midnightblue" stroke="midnightblue" points="1131.73,-141.751 1128.23,-131.751 1124.73,-141.751 1131.73,-141.751"/>
</g>
<!-- Node27 -->
<g id="node27" class="node"><title>Node27</title>
<polygon fill="none" stroke="#bfbfbf" points="1172.73,-112.5 1172.73,-131.5 1217.73,-131.5 1217.73,-112.5 1172.73,-112.5"/>
<text text-anchor="middle" x="1195.23" y="-119.5" font-family="Helvetica,sans-Serif" font-size="10.00">gsl/gsl</text>
</g>
<!-- Node4&#45;&gt;Node27 -->
<g id="edge30" class="edge"><title>Node4&#45;&gt;Node27</title>
<path fill="none" stroke="midnightblue" d="M1138.99,-168.324C1149,-160.263 1164.12,-148.077 1176.16,-138.369"/>
<polygon fill="midnightblue" stroke="midnightblue" points="1178.68,-140.834 1184.27,-131.834 1174.29,-135.384 1178.68,-140.834"/>
</g>
<!-- Node6 -->
<g id="node6" class="node"><title>Node6</title>
<polygon fill="none" stroke="#bfbfbf" points="895.23,-0.5 895.23,-19.5 941.23,-19.5 941.23,-0.5 895.23,-0.5"/>
<text text-anchor="middle" x="918.23" y="-7.5" font-family="Helvetica,sans-Serif" font-size="10.00">cstdint</text>
</g>
<!-- Node5&#45;&gt;Node6 -->
<g id="edge6" class="edge"><title>Node5&#45;&gt;Node6</title>
<path fill="none" stroke="midnightblue" d="M889.845,-56.083C894.598,-48.5341 901.548,-37.4948 907.382,-28.2298"/>
<polygon fill="midnightblue" stroke="midnightblue" points="910.354,-30.0783 912.72,-19.7511 904.43,-26.3486 910.354,-30.0783"/>
</g>
<!-- Node5&#45;&gt;Node7 -->
<g id="edge7" class="edge"><title>Node5&#45;&gt;Node7</title>
<path fill="none" stroke="midnightblue" d="M825.652,-57.0152C822.467,-56.6535 819.311,-56.312 816.23,-56 587.47,-32.8285 311.427,-17.7334 213.682,-12.7829"/>
<polygon fill="midnightblue" stroke="midnightblue" points="213.615,-9.27525 203.452,-12.269 213.264,-16.2664 213.615,-9.27525"/>
</g>
<!-- Node5&#45;&gt;Node8 -->
<g id="edge8" class="edge"><title>Node5&#45;&gt;Node8</title>
<path fill="none" stroke="midnightblue" d="M942.879,-57.5482C1032.73,-46.1315 1201.69,-24.6643 1274.45,-15.4194"/>
<polygon fill="midnightblue" stroke="midnightblue" points="1274.99,-18.8794 1284.46,-14.1467 1274.1,-11.9352 1274.99,-18.8794"/>
</g>
<!-- Node5&#45;&gt;Node9 -->
<g id="edge9" class="edge"><title>Node5&#45;&gt;Node9</title>
<path fill="none" stroke="midnightblue" d="M825.658,-56.952C822.471,-56.6066 819.313,-56.2859 816.23,-56 517.529,-28.2987 441.522,-40.3447 142.23,-20 116.833,-18.2736 88.1436,-15.8872 66.575,-14.0055"/>
<polygon fill="midnightblue" stroke="midnightblue" points="66.8729,-10.5183 56.6044,-13.1274 66.2587,-17.4913 66.8729,-10.5183"/>
</g>
<!-- Node10 -->
<g id="node10" class="node"><title>Node10</title>
<polygon fill="none" stroke="#bfbfbf" points="821.23,-0.5 821.23,-19.5 877.23,-19.5 877.23,-0.5 821.23,-0.5"/>
<text text-anchor="middle" x="849.23" y="-7.5" font-family="Helvetica,sans-Serif" font-size="10.00">algorithm</text>
</g>
<!-- Node5&#45;&gt;Node10 -->
<g id="edge10" class="edge"><title>Node5&#45;&gt;Node10</title>
<path fill="none" stroke="midnightblue" d="M878.451,-56.083C873.558,-48.5341 866.403,-37.4948 860.398,-28.2298"/>
<polygon fill="midnightblue" stroke="midnightblue" points="863.278,-26.239 854.902,-19.7511 857.404,-30.0463 863.278,-26.239"/>
</g>
<!-- Node11&#45;&gt;Node7 -->
<g id="edge19" class="edge"><title>Node11&#45;&gt;Node7</title>
<path fill="none" stroke="midnightblue" d="M387.729,-112.479C314.112,-103.415 210.469,-88.6657 196.23,-76 183.21,-64.4182 178.898,-44.4585 177.574,-29.7046"/>
<polygon fill="midnightblue" stroke="midnightblue" points="181.067,-29.4659 177.05,-19.6619 174.076,-29.8308 181.067,-29.4659"/>
</g>
<!-- Node11&#45;&gt;Node12 -->
<g id="edge12" class="edge"><title>Node11&#45;&gt;Node12</title>
<path fill="none" stroke="midnightblue" d="M402.494,-112.444C335.21,-102.806 226.001,-87.1635 154.893,-76.9782"/>
<polygon fill="midnightblue" stroke="midnightblue" points="155.083,-73.4698 144.688,-75.5164 154.09,-80.399 155.083,-73.4698"/>
</g>
<!-- Node13 -->
<g id="node13" class="node"><title>Node13</title>
<polygon fill="none" stroke="#bfbfbf" points="701.73,-56.5 701.73,-75.5 748.73,-75.5 748.73,-56.5 701.73,-56.5"/>
<text text-anchor="middle" x="725.23" y="-63.5" font-family="Helvetica,sans-Serif" font-size="10.00">TList.h</text>
</g>
<!-- Node11&#45;&gt;Node13 -->
<g id="edge13" class="edge"><title>Node11&#45;&gt;Node13</title>
<path fill="none" stroke="midnightblue" d="M510.672,-112.422C557.156,-103.969 629.242,-90.2792 691.23,-76 691.334,-75.976 691.439,-75.9519 691.543,-75.9278"/>
<polygon fill="midnightblue" stroke="midnightblue" points="692.619,-79.2678 701.501,-73.491 690.955,-72.4684 692.619,-79.2678"/>
</g>
<!-- Node14 -->
<g id="node14" class="node"><title>Node14</title>
<polygon fill="none" stroke="#bfbfbf" points="205.73,-56.5 205.73,-75.5 276.73,-75.5 276.73,-56.5 205.73,-56.5"/>
<text text-anchor="middle" x="241.23" y="-63.5" font-family="Helvetica,sans-Serif" font-size="10.00">TMessage.h</text>
</g>
<!-- Node11&#45;&gt;Node14 -->
<g id="edge14" class="edge"><title>Node11&#45;&gt;Node14</title>
<path fill="none" stroke="midnightblue" d="M427.212,-112.444C388.983,-103.102 327.664,-88.1194 285.973,-77.9326"/>
<polygon fill="midnightblue" stroke="midnightblue" points="286.63,-74.4901 276.085,-75.5164 284.968,-81.2901 286.63,-74.4901"/>
</g>
<!-- Node15 -->
<g id="node15" class="node"><title>Node15</title>
<polygon fill="none" stroke="#bfbfbf" points="294.73,-56.5 294.73,-75.5 363.73,-75.5 363.73,-56.5 294.73,-56.5"/>
<text text-anchor="middle" x="329.23" y="-63.5" font-family="Helvetica,sans-Serif" font-size="10.00">TObjArray.h</text>
</g>
<!-- Node11&#45;&gt;Node15 -->
<g id="edge15" class="edge"><title>Node11&#45;&gt;Node15</title>
<path fill="none" stroke="midnightblue" d="M441.156,-112.444C419.171,-103.517 384.496,-89.4387 359.566,-79.3168"/>
<polygon fill="midnightblue" stroke="midnightblue" points="360.788,-76.0355 350.206,-75.5164 358.155,-82.5213 360.788,-76.0355"/>
</g>
<!-- Node16 -->
<g id="node16" class="node"><title>Node16</title>
<polygon fill="none" stroke="#bfbfbf" points="381.73,-56.5 381.73,-75.5 468.73,-75.5 468.73,-56.5 381.73,-56.5"/>
<text text-anchor="middle" x="425.23" y="-63.5" font-family="Helvetica,sans-Serif" font-size="10.00">TStreamerInfo.h</text>
</g>
<!-- Node11&#45;&gt;Node16 -->
<g id="edge16" class="edge"><title>Node11&#45;&gt;Node16</title>
<path fill="none" stroke="midnightblue" d="M456.12,-112.083C450.948,-104.534 443.384,-93.4948 437.036,-84.2298"/>
<polygon fill="midnightblue" stroke="midnightblue" points="439.766,-82.0221 431.226,-75.7511 433.991,-85.9787 439.766,-82.0221"/>
</g>
<!-- Node17 -->
<g id="node17" class="node"><title>Node17</title>
<polygon fill="none" stroke="#bfbfbf" points="486.73,-56.5 486.73,-75.5 549.73,-75.5 549.73,-56.5 486.73,-56.5"/>
<text text-anchor="middle" x="518.23" y="-63.5" font-family="Helvetica,sans-Serif" font-size="10.00">gsl/gsl_util</text>
</g>
<!-- Node11&#45;&gt;Node17 -->
<g id="edge17" class="edge"><title>Node11&#45;&gt;Node17</title>
<path fill="none" stroke="midnightblue" d="M471.228,-112.324C479.425,-104.42 491.736,-92.5482 501.702,-82.9377"/>
<polygon fill="midnightblue" stroke="midnightblue" points="504.3,-85.2947 509.069,-75.8339 499.441,-80.2558 504.3,-85.2947"/>
</g>
<!-- Node18 -->
<g id="node18" class="node"><title>Node18</title>
<polygon fill="none" stroke="#bfbfbf" points="567.73,-56.5 567.73,-75.5 620.73,-75.5 620.73,-56.5 567.73,-56.5"/>
<text text-anchor="middle" x="594.23" y="-63.5" font-family="Helvetica,sans-Serif" font-size="10.00">gsl/span</text>
</g>
<!-- Node11&#45;&gt;Node18 -->
<g id="edge18" class="edge"><title>Node11&#45;&gt;Node18</title>
<path fill="none" stroke="midnightblue" d="M483.146,-112.444C504.966,-103.517 539.38,-89.4387 564.123,-79.3168"/>
<polygon fill="midnightblue" stroke="midnightblue" points="565.482,-82.5422 573.412,-75.5164 562.832,-76.0634 565.482,-82.5422"/>
</g>
<!-- Node19 -->
<g id="node19" class="node"><title>Node19</title>
<polygon fill="none" stroke="#bfbfbf" points="639.23,-56.5 639.23,-75.5 683.23,-75.5 683.23,-56.5 639.23,-56.5"/>
<text text-anchor="middle" x="661.23" y="-63.5" font-family="Helvetica,sans-Serif" font-size="10.00">mutex</text>
</g>
<!-- Node11&#45;&gt;Node19 -->
<g id="edge20" class="edge"><title>Node11&#45;&gt;Node19</title>
<path fill="none" stroke="midnightblue" d="M494.274,-112.477C527.914,-103.504 582.332,-88.9134 629.23,-76 629.331,-75.9722 629.432,-75.9444 629.533,-75.9165"/>
<polygon fill="midnightblue" stroke="midnightblue" points="630.507,-79.2785 639.205,-73.2287 628.633,-72.5341 630.507,-79.2785"/>
</g>
<!-- Node20&#45;&gt;Node21 -->
<g id="edge22" class="edge"><title>Node20&#45;&gt;Node21</title>
<path fill="none" stroke="midnightblue" d="M1357.23,-112.083C1357.23,-105.006 1357.23,-94.8611 1357.23,-85.9865"/>
<polygon fill="midnightblue" stroke="midnightblue" points="1360.73,-85.751 1357.23,-75.7511 1353.73,-85.7511 1360.73,-85.751"/>
</g>
<!-- Node21&#45;&gt;Node22 -->
<g id="edge23" class="edge"><title>Node21&#45;&gt;Node22</title>
<path fill="none" stroke="midnightblue" d="M1396.21,-56.4435C1441.55,-46.4902 1516.08,-30.1313 1562.26,-19.9944"/>
<polygon fill="midnightblue" stroke="midnightblue" points="1563.21,-23.3694 1572.22,-17.8067 1561.7,-16.5322 1563.21,-23.3694"/>
</g>
<!-- Node21&#45;&gt;Node23 -->
<g id="edge24" class="edge"><title>Node21&#45;&gt;Node23</title>
<path fill="none" stroke="midnightblue" d="M1317.62,-56.4435C1268.31,-45.7937 1185.06,-27.8106 1139.46,-17.9623"/>
<polygon fill="midnightblue" stroke="midnightblue" points="1140.04,-14.5065 1129.53,-15.8162 1138.56,-21.3487 1140.04,-14.5065"/>
</g>
<!-- Node29 -->
<g id="node29" class="node"><title>Node29</title>
<g id="a_node29"><a xlink:href="../../d5/d3f/InputSpec_8h.html" target="_top" xlink:title="Framework/InputSpec.h">
<polygon fill="none" stroke="black" points="600.73,-112.5 600.73,-131.5 721.73,-131.5 721.73,-112.5 600.73,-112.5"/>
<text text-anchor="middle" x="661.23" y="-119.5" font-family="Helvetica,sans-Serif" font-size="10.00">Framework/InputSpec.h</text>
</a>
</g>
</g>
<!-- Node28&#45;&gt;Node29 -->
<g id="edge32" class="edge"><title>Node28&#45;&gt;Node29</title>
<path fill="none" stroke="midnightblue" d="M622.826,-168.083C629.458,-160.298 639.251,-148.801 647.288,-139.367"/>
<polygon fill="midnightblue" stroke="midnightblue" points="649.955,-141.633 653.776,-131.751 644.627,-137.094 649.955,-141.633"/>
</g>
<!-- Node28&#45;&gt;Node30 -->
<g id="edge36" class="edge"><title>Node28&#45;&gt;Node30</title>
<path fill="none" stroke="midnightblue" d="M606.929,-168.118C595.416,-154.706 577.487,-129.043 591.23,-112 636.675,-55.6437 680.395,-91.6148 756.665,-75.7418"/>
<polygon fill="midnightblue" stroke="midnightblue" points="757.693,-79.0959 766.633,-73.4094 756.098,-72.28 757.693,-79.0959"/>
</g>
<!-- Node31 -->
<g id="node31" class="node"><title>Node31</title>
<polygon fill="none" stroke="#bfbfbf" points="313.73,-112.5 313.73,-131.5 362.73,-131.5 362.73,-112.5 313.73,-112.5"/>
<text text-anchor="middle" x="338.23" y="-119.5" font-family="Helvetica,sans-Serif" font-size="10.00">cstddef</text>
</g>
<!-- Node28&#45;&gt;Node31 -->
<g id="edge35" class="edge"><title>Node28&#45;&gt;Node31</title>
<path fill="none" stroke="midnightblue" d="M561.656,-168.449C514.271,-160.585 443.075,-148.042 372.929,-132.255"/>
<polygon fill="midnightblue" stroke="midnightblue" points="373.568,-128.811 363.04,-130.006 372.015,-135.637 373.568,-128.811"/>
</g>
<!-- Node29&#45;&gt;Node5 -->
<g id="edge34" class="edge"><title>Node29&#45;&gt;Node5</title>
<path fill="none" stroke="midnightblue" d="M696.565,-112.444C735.141,-103.102 797.015,-88.1194 839.083,-77.9326"/>
<polygon fill="midnightblue" stroke="midnightblue" points="840.165,-81.2717 849.061,-75.5164 838.518,-74.4683 840.165,-81.2717"/>
</g>
<!-- Node29&#45;&gt;Node30 -->
<g id="edge33" class="edge"><title>Node29&#45;&gt;Node30</title>
<path fill="none" stroke="midnightblue" d="M681.195,-112.444C701.839,-103.596 734.293,-89.6875 757.862,-79.5865"/>
<polygon fill="midnightblue" stroke="midnightblue" points="759.546,-82.6727 767.359,-75.5164 756.788,-76.2387 759.546,-82.6727"/>
</g>
<!-- Node34&#45;&gt;Node22 -->
<g id="edge53" class="edge"><title>Node34&#45;&gt;Node22</title>
<path fill="none" stroke="midnightblue" d="M1788.85,-224.369C1774.69,-197.079 1727.72,-111.206 1670.23,-56 1657.58,-43.8564 1641.29,-32.8333 1627.94,-24.7365"/>
<polygon fill="midnightblue" stroke="midnightblue" points="1629.64,-21.6765 1619.25,-19.6207 1626.09,-27.7093 1629.64,-21.6765"/>
</g>
<!-- Node34&#45;&gt;Node30 -->
<g id="edge52" class="edge"><title>Node34&#45;&gt;Node30</title>
<path fill="none" stroke="midnightblue" d="M1720.21,-233.378C1558.43,-233.44 1174.47,-229.097 1052.23,-188 994.511,-168.595 993.389,-137.798 938.23,-112 889.821,-89.3593 872.267,-91.9897 817.674,-76.3359"/>
<polygon fill="midnightblue" stroke="midnightblue" points="818.396,-72.8998 807.814,-73.4271 816.415,-79.6137 818.396,-72.8998"/>
</g>
<!-- Node34&#45;&gt;Node33 -->
<g id="edge50" class="edge"><title>Node34&#45;&gt;Node33</title>
<path fill="none" stroke="midnightblue" d="M1780.54,-224.324C1768.33,-215.979 1749.65,-203.212 1735.23,-193.352"/>
<polygon fill="midnightblue" stroke="midnightblue" points="1737.12,-190.408 1726.89,-187.655 1733.17,-196.187 1737.12,-190.408"/>
</g>
<!-- Node35 -->
<g id="node35" class="node"><title>Node35</title>
<polygon fill="none" stroke="#bfbfbf" points="1800.73,-168.5 1800.73,-187.5 1859.73,-187.5 1859.73,-168.5 1800.73,-168.5"/>
<text text-anchor="middle" x="1830.23" y="-175.5" font-family="Helvetica,sans-Serif" font-size="10.00">functional</text>
</g>
<!-- Node34&#45;&gt;Node35 -->
<g id="edge51" class="edge"><title>Node34&#45;&gt;Node35</title>
<path fill="none" stroke="midnightblue" d="M1799.34,-224.083C1804.51,-216.534 1812.08,-205.495 1818.42,-196.23"/>
<polygon fill="midnightblue" stroke="midnightblue" points="1821.47,-197.979 1824.23,-187.751 1815.69,-194.022 1821.47,-197.979"/>
</g>
<!-- Node36 -->
<g id="node36" class="node"><title>Node36</title>
<polygon fill="none" stroke="#bfbfbf" points="1877.73,-168.5 1877.73,-187.5 1928.73,-187.5 1928.73,-168.5 1877.73,-168.5"/>
<text text-anchor="middle" x="1903.23" y="-175.5" font-family="Helvetica,sans-Serif" font-size="10.00">typeinfo</text>
</g>
<!-- Node34&#45;&gt;Node36 -->
<g id="edge54" class="edge"><title>Node34&#45;&gt;Node36</title>
<path fill="none" stroke="midnightblue" d="M1810.9,-224.324C1828.62,-215.625 1856.13,-202.12 1876.52,-192.113"/>
<polygon fill="midnightblue" stroke="midnightblue" points="1878.17,-195.203 1885.6,-187.655 1875.08,-188.919 1878.17,-195.203"/>
</g>
<!-- Node37 -->
<g id="node37" class="node"><title>Node37</title>
<polygon fill="none" stroke="#bfbfbf" points="1946.73,-168.5 1946.73,-187.5 2029.73,-187.5 2029.73,-168.5 1946.73,-168.5"/>
<text text-anchor="middle" x="1988.23" y="-175.5" font-family="Helvetica,sans-Serif" font-size="10.00">unordered_map</text>
</g>
<!-- Node34&#45;&gt;Node37 -->
<g id="edge55" class="edge"><title>Node34&#45;&gt;Node37</title>
<path fill="none" stroke="midnightblue" d="M1824.13,-224.444C1857.5,-215.201 1910.82,-200.436 1947.58,-190.257"/>
<polygon fill="midnightblue" stroke="midnightblue" points="1948.77,-193.558 1957.48,-187.516 1946.91,-186.812 1948.77,-193.558"/>
</g>
</g>
</svg>
        <g id="navigator" transform="translate(0 0)" fill="#404254">
                <rect fill="#f2f5e9" fill-opacity="0.5" stroke="#606060" stroke-width=".5" x="0" y="0" width="60" height="60"/>
                <use id="zoomplus" xlink:href="#zoomPlus" x="17" y="9" onmousedown="handleZoom(evt,'in')"/>
                <use id="zoomminus" xlink:href="#zoomMin" x="42" y="9" onmousedown="handleZoom(evt,'out')"/>
                <use id="reset" xlink:href="#resetDef" x="30" y="36" onmousedown="handleReset()"/>
                <g id="arrowUp" xlink:href="#dirArrow" transform="translate(30 24)" onmousedown="handlePan(0,-1)">
                  <use xlink:href="#rim" fill="#404040">
                        <set attributeName="fill" to="#808080" begin="arrowUp.mouseover" end="arrowUp.mouseout"/>
                  </use>
                  <path fill="none" stroke="white" stroke-width="1.5" d="M0,-3.0v7 M-2.5,-0.5L0,-3.0L2.5,-0.5"/>
                </g>
                <g id="arrowRight" xlink:href="#dirArrow" transform="rotate(90) translate(36 -43)" onmousedown="handlePan(1,0)">
                  <use xlink:href="#rim" fill="#404040">
                        <set attributeName="fill" to="#808080" begin="arrowRight.mouseover" end="arrowRight.mouseout"/>
                  </use>
                  <path fill="none" stroke="white" stroke-width="1.5" d="M0,-3.0v7 M-2.5,-0.5L0,-3.0L2.5,-0.5"/>
                </g>
                <g id="arrowDown" xlink:href="#dirArrow" transform="rotate(180) translate(-30 -48)" onmousedown="handlePan(0,1)">
                  <use xlink:href="#rim" fill="#404040">
                        <set attributeName="fill" to="#808080" begin="arrowDown.mouseover" end="arrowDown.mouseout"/>
                  </use>
                  <path fill="none" stroke="white" stroke-width="1.5" d="M0,-3.0v7 M-2.5,-0.5L0,-3.0L2.5,-0.5"/>
                </g>
                <g id="arrowLeft" xlink:href="#dirArrow" transform="rotate(270) translate(-36 17)" onmousedown="handlePan(-1,0)">
                  <use xlink:href="#rim" fill="#404040">
                        <set attributeName="fill" to="#808080" begin="arrowLeft.mouseover" end="arrowLeft.mouseout"/>
                  </use>
                  <path fill="none" stroke="white" stroke-width="1.5" d="M0,-3.0v7 M-2.5,-0.5L0,-3.0L2.5,-0.5"/>
                </g>
        </g>
        <svg viewBox="0 0 15 15" width="100%" height="30px" preserveAspectRatio="xMaxYMin meet">
         <g id="arrow_out" transform="scale(0.3 0.3)">
          <a xlink:href="ErrorContext_8h__incl_org.svg" target="_base">
           <rect id="button" ry="5" rx="5" y="6" x="6" height="38" width="38"
                fill="#f2f5e9" fill-opacity="0.5" stroke="#606060" stroke-width="1.0"/>
           <path id="arrow"
             d="M 11.500037,31.436501 C 11.940474,20.09759 22.043105,11.32322 32.158766,21.979434 L 37.068811,17.246167 C 37.068811,17.246167 37.088388,32 37.088388,32 L 22.160133,31.978069 C 22.160133,31.978069 26.997745,27.140456 26.997745,27.140456 C 18.528582,18.264221 13.291696,25.230495 11.500037,31.436501 z"
             style="fill:#404040;"/>
          </a>
         </g>
        </svg>
</svg>
