<?xml version="1.0" encoding="UTF-8" standalone="no"?>
<!DOCTYPE svg PUBLIC "-//W3C//DTD SVG 1.1//EN"
 "http://www.w3.org/Graphics/SVG/1.1/DTD/svg11.dtd">
<!-- Generated by graphviz version 2.36.0 (20140111.2315)
 -->
<!-- Title: /home/travis/build/AliceO2Group/AliceO2/Detectors/MUON/MCH/Contour/include/MCHContour/Edge.h Pages: 1 -->
<!--zoomable 522 -->
<svg id="main" version="1.1" xmlns="http://www.w3.org/2000/svg" xmlns:xlink="http://www.w3.org/1999/xlink" xml:space="preserve" onload="init(evt)">
<style type="text/css"><![CDATA[
.edge:hover path { stroke: red; }
.edge:hover polygon { stroke: red; fill: red; }
]]></style>
<script type="text/javascript"><![CDATA[
var edges = document.getElementsByTagName('g');
if (edges && edges.length) {
  for (var i=0;i<edges.length;i++) {
    if (edges[i].id.substr(0,4)=='edge') {
      edges[i].setAttribute('class','edge');
    }
  }
}
]]></script>
        <defs>
                <circle id="rim" cx="0" cy="0" r="7"/>
                <circle id="rim2" cx="0" cy="0" r="3.5"/>
                <g id="zoomPlus">
                        <use xlink:href="#rim" fill="#404040">
                                <set attributeName="fill" to="#808080" begin="zoomplus.mouseover" end="zoomplus.mouseout"/>
                        </use>
                        <path d="M-4,0h8M0,-4v8" fill="none" stroke="white" stroke-width="1.5" pointer-events="none"/>
                </g>
                <g id="zoomMin">
                        <use xlink:href="#rim" fill="#404040">
                                <set attributeName="fill" to="#808080" begin="zoomminus.mouseover" end="zoomminus.mouseout"/>
                        </use>
                        <path d="M-4,0h8" fill="none" stroke="white" stroke-width="1.5" pointer-events="none"/>
                </g>
                <g id="dirArrow">
                        <path fill="none" stroke="white" stroke-width="1.5" d="M0,-3.0v7 M-2.5,-0.5L0,-3.0L2.5,-0.5"/>
                </g>
               <g id="resetDef">
                       <use xlink:href="#rim2" fill="#404040">
                               <set attributeName="fill" to="#808080" begin="reset.mouseover" end="reset.mouseout"/>
                       </use>
               </g>
        </defs>

<script type="text/javascript">
var viewWidth = 852;
var viewHeight = 522;
var sectionId = 'dynsection-1';
</script>
<script xlink:href="../../svgpan.js"/>
<svg id="graph" class="graph">
<g id="viewport">
<title>/home/travis/build/AliceO2Group/AliceO2/Detectors/MUON/MCH/Contour/include/MCHContour/Edge.h</title>
<!-- Node1 -->
<g id="node1" class="node"><title>Node1</title>
<polygon fill="#bfbfbf" stroke="black" points="554,-461 554,-513 714,-513 714,-461 554,-461"/>
<text text-anchor="start" x="562" y="-501" font-family="Helvetica,sans-Serif" font-size="10.00">/home/travis/build</text>
<text text-anchor="start" x="562" y="-490" font-family="Helvetica,sans-Serif" font-size="10.00">/AliceO2Group/AliceO2</text>
<text text-anchor="start" x="562" y="-479" font-family="Helvetica,sans-Serif" font-size="10.00">/Detectors/MUON/MCH/Contour</text>
<text text-anchor="middle" x="634" y="-468" font-family="Helvetica,sans-Serif" font-size="10.00">/include/MCHContour/Edge.h</text>
</g>
<!-- Node2 -->
<g id="node2" class="node"><title>Node2</title>
<g id="a_node2"><a xlink:href="../../dc/d15/ContourCreator_8inl.html" target="_top" xlink:title="/home/travis/build\l/AliceO2Group/AliceO2\l/Detectors/MUON/MCH/Contour\l/include/MCHContour/ContourCreator.inl">
<polygon fill="none" stroke="black" points="440,-371 440,-423 634,-423 634,-371 440,-371"/>
<text text-anchor="start" x="448" y="-411" font-family="Helvetica,sans-Serif" font-size="10.00">/home/travis/build</text>
<text text-anchor="start" x="448" y="-400" font-family="Helvetica,sans-Serif" font-size="10.00">/AliceO2Group/AliceO2</text>
<text text-anchor="start" x="448" y="-389" font-family="Helvetica,sans-Serif" font-size="10.00">/Detectors/MUON/MCH/Contour</text>
<text text-anchor="middle" x="537" y="-378" font-family="Helvetica,sans-Serif" font-size="10.00">/include/MCHContour/ContourCreator.inl</text>
</a>
</g>
</g>
<!-- Node1&#45;&gt;Node2 -->
<g id="edge1" class="edge"><title>Node1&#45;&gt;Node2</title>
<path fill="none" stroke="midnightblue" d="M598.673,-453.951C587.516,-443.829 575.354,-432.795 564.8,-423.221"/>
<polygon fill="midnightblue" stroke="midnightblue" points="596.446,-456.656 606.204,-460.783 601.149,-451.471 596.446,-456.656"/>
</g>
<!-- Node11 -->
<g id="node11" class="node"><title>Node11</title>
<g id="a_node11"><a xlink:href="../../d6/d3f/Edge_8cxx.html" target="_top" xlink:title="/home/travis/build\l/AliceO2Group/AliceO2\l/Detectors/MUON/MCH/Contour\l/test/Edge.cxx">
<polygon fill="none" stroke="black" points="652,-371 652,-423 812,-423 812,-371 652,-371"/>
<text text-anchor="start" x="660" y="-411" font-family="Helvetica,sans-Serif" font-size="10.00">/home/travis/build</text>
<text text-anchor="start" x="660" y="-400" font-family="Helvetica,sans-Serif" font-size="10.00">/AliceO2Group/AliceO2</text>
<text text-anchor="start" x="660" y="-389" font-family="Helvetica,sans-Serif" font-size="10.00">/Detectors/MUON/MCH/Contour</text>
<text text-anchor="middle" x="732" y="-378" font-family="Helvetica,sans-Serif" font-size="10.00">/test/Edge.cxx</text>
</a>
</g>
</g>
<!-- Node1&#45;&gt;Node11 -->
<g id="edge13" class="edge"><title>Node1&#45;&gt;Node11</title>
<path fill="none" stroke="midnightblue" d="M669.691,-453.951C680.963,-443.829 693.251,-432.795 703.913,-423.221"/>
<polygon fill="midnightblue" stroke="midnightblue" points="667.185,-451.497 662.083,-460.783 671.862,-456.706 667.185,-451.497"/>
</g>
<!-- Node3 -->
<g id="node3" class="node"><title>Node3</title>
<g id="a_node3"><a xlink:href="../../d4/d84/ContourCreator_8h.html" target="_top" xlink:title="/home/travis/build\l/AliceO2Group/AliceO2\l/Detectors/MUON/MCH/Contour\l/include/MCHContour/ContourCreator.h">
<polygon fill="none" stroke="black" points="442.5,-281 442.5,-333 631.5,-333 631.5,-281 442.5,-281"/>
<text text-anchor="start" x="450.5" y="-321" font-family="Helvetica,sans-Serif" font-size="10.00">/home/travis/build</text>
<text text-anchor="start" x="450.5" y="-310" font-family="Helvetica,sans-Serif" font-size="10.00">/AliceO2Group/AliceO2</text>
<text text-anchor="start" x="450.5" y="-299" font-family="Helvetica,sans-Serif" font-size="10.00">/Detectors/MUON/MCH/Contour</text>
<text text-anchor="middle" x="537" y="-288" font-family="Helvetica,sans-Serif" font-size="10.00">/include/MCHContour/ContourCreator.h</text>
</a>
</g>
</g>
<!-- Node2&#45;&gt;Node3 -->
<g id="edge2" class="edge"><title>Node2&#45;&gt;Node3</title>
<path fill="none" stroke="midnightblue" d="M537,-360.489C537,-351.309 537,-341.616 537,-333.092"/>
<polygon fill="midnightblue" stroke="midnightblue" points="533.5,-360.547 537,-370.547 540.5,-360.547 533.5,-360.547"/>
</g>
<!-- Node4 -->
<g id="node4" class="node"><title>Node4</title>
<g id="a_node4"><a xlink:href="../../de/d51/SVGWriter_8h.html" target="_top" xlink:title="/home/travis/build\l/AliceO2Group/AliceO2\l/Detectors/MUON/MCH/Contour\l/include/MCHContour/SVGWriter.h">
<polygon fill="none" stroke="black" points="269,-191 269,-243 439,-243 439,-191 269,-191"/>
<text text-anchor="start" x="277" y="-231" font-family="Helvetica,sans-Serif" font-size="10.00">/home/travis/build</text>
<text text-anchor="start" x="277" y="-220" font-family="Helvetica,sans-Serif" font-size="10.00">/AliceO2Group/AliceO2</text>
<text text-anchor="start" x="277" y="-209" font-family="Helvetica,sans-Serif" font-size="10.00">/Detectors/MUON/MCH/Contour</text>
<text text-anchor="middle" x="354" y="-198" font-family="Helvetica,sans-Serif" font-size="10.00">/include/MCHContour/SVGWriter.h</text>
</a>
</g>
</g>
<!-- Node3&#45;&gt;Node4 -->
<g id="edge3" class="edge"><title>Node3&#45;&gt;Node4</title>
<path fill="none" stroke="midnightblue" d="M475.432,-276.394C452.935,-265.576 427.726,-253.453 406.132,-243.069"/>
<polygon fill="midnightblue" stroke="midnightblue" points="474.031,-279.603 484.56,-280.783 477.064,-273.295 474.031,-279.603"/>
</g>
<!-- Node9 -->
<g id="node9" class="node"><title>Node9</title>
<g id="a_node9"><a xlink:href="../../d3/d4a/ContourCreator_8cxx.html" target="_top" xlink:title="/home/travis/build\l/AliceO2Group/AliceO2\l/Detectors/MUON/MCH/Contour\l/test/ContourCreator.cxx">
<polygon fill="none" stroke="black" points="457,-191 457,-243 617,-243 617,-191 457,-191"/>
<text text-anchor="start" x="465" y="-231" font-family="Helvetica,sans-Serif" font-size="10.00">/home/travis/build</text>
<text text-anchor="start" x="465" y="-220" font-family="Helvetica,sans-Serif" font-size="10.00">/AliceO2Group/AliceO2</text>
<text text-anchor="start" x="465" y="-209" font-family="Helvetica,sans-Serif" font-size="10.00">/Detectors/MUON/MCH/Contour</text>
<text text-anchor="middle" x="537" y="-198" font-family="Helvetica,sans-Serif" font-size="10.00">/test/ContourCreator.cxx</text>
</a>
</g>
</g>
<!-- Node3&#45;&gt;Node9 -->
<g id="edge11" class="edge"><title>Node3&#45;&gt;Node9</title>
<path fill="none" stroke="midnightblue" d="M537,-270.489C537,-261.309 537,-251.616 537,-243.092"/>
<polygon fill="midnightblue" stroke="midnightblue" points="533.5,-270.547 537,-280.547 540.5,-270.547 533.5,-270.547"/>
</g>
<!-- Node10 -->
<g id="node10" class="node"><title>Node10</title>
<g id="a_node10"><a xlink:href="../../de/de2/SegmentationContours_8cxx.html" target="_top" xlink:title="/home/travis/build\l/AliceO2Group/AliceO2\l/Detectors/MUON/MCH/Mapping\l/SegContour/src/SegmentationContours.cxx">
<polygon fill="none" stroke="black" points="635.5,-191 635.5,-243 844.5,-243 844.5,-191 635.5,-191"/>
<text text-anchor="start" x="643.5" y="-231" font-family="Helvetica,sans-Serif" font-size="10.00">/home/travis/build</text>
<text text-anchor="start" x="643.5" y="-220" font-family="Helvetica,sans-Serif" font-size="10.00">/AliceO2Group/AliceO2</text>
<text text-anchor="start" x="643.5" y="-209" font-family="Helvetica,sans-Serif" font-size="10.00">/Detectors/MUON/MCH/Mapping</text>
<text text-anchor="middle" x="740" y="-198" font-family="Helvetica,sans-Serif" font-size="10.00">/SegContour/src/SegmentationContours.cxx</text>
</a>
</g>
</g>
<!-- Node3&#45;&gt;Node10 -->
<g id="edge12" class="edge"><title>Node3&#45;&gt;Node10</title>
<path fill="none" stroke="midnightblue" d="M604.365,-276.798C629.503,-265.9 657.802,-253.632 682.023,-243.133"/>
<polygon fill="midnightblue" stroke="midnightblue" points="602.683,-273.712 594.9,-280.901 605.467,-280.134 602.683,-273.712"/>
</g>
<!-- Node5 -->
<g id="node5" class="node"><title>Node5</title>
<g id="a_node5"><a xlink:href="../../d5/d3f/SegmentationSVGWriter_8h.html" target="_top" xlink:title="/home/travis/build\l/AliceO2Group/AliceO2\l/Detectors/MUON/MCH/Mapping\l/SegContour/include/MCHMappingSegContour\l/SegmentationSVGWriter.h">
<polygon fill="none" stroke="black" points="175,-90.5 175,-153.5 395,-153.5 395,-90.5 175,-90.5"/>
<text text-anchor="start" x="183" y="-141.5" font-family="Helvetica,sans-Serif" font-size="10.00">/home/travis/build</text>
<text text-anchor="start" x="183" y="-130.5" font-family="Helvetica,sans-Serif" font-size="10.00">/AliceO2Group/AliceO2</text>
<text text-anchor="start" x="183" y="-119.5" font-family="Helvetica,sans-Serif" font-size="10.00">/Detectors/MUON/MCH/Mapping</text>
<text text-anchor="start" x="183" y="-108.5" font-family="Helvetica,sans-Serif" font-size="10.00">/SegContour/include/MCHMappingSegContour</text>
<text text-anchor="middle" x="285" y="-97.5" font-family="Helvetica,sans-Serif" font-size="10.00">/SegmentationSVGWriter.h</text>
</a>
</g>
</g>
<!-- Node4&#45;&gt;Node5 -->
<g id="edge4" class="edge"><title>Node4&#45;&gt;Node5</title>
<path fill="none" stroke="midnightblue" d="M329.183,-182.551C322.192,-173.129 314.624,-162.929 307.76,-153.677"/>
<polygon fill="midnightblue" stroke="midnightblue" points="326.376,-184.642 335.145,-190.587 331.998,-180.471 326.376,-184.642"/>
</g>
<!-- Node6 -->
<g id="node6" class="node"><title>Node6</title>
<g id="a_node6"><a xlink:href="../../de/d56/SegmentationSVGWriter_8cxx.html" target="_top" xlink:title="/home/travis/build\l/AliceO2Group/AliceO2\l/Detectors/MUON/MCH/Mapping\l/SegContour/src/SegmentationSVGWriter.cxx">
<polygon fill="none" stroke="black" points="-0.5,-1 -0.5,-53 216.5,-53 216.5,-1 -0.5,-1"/>
<text text-anchor="start" x="7.5" y="-41" font-family="Helvetica,sans-Serif" font-size="10.00">/home/travis/build</text>
<text text-anchor="start" x="7.5" y="-30" font-family="Helvetica,sans-Serif" font-size="10.00">/AliceO2Group/AliceO2</text>
<text text-anchor="start" x="7.5" y="-19" font-family="Helvetica,sans-Serif" font-size="10.00">/Detectors/MUON/MCH/Mapping</text>
<text text-anchor="middle" x="108" y="-8" font-family="Helvetica,sans-Serif" font-size="10.00">/SegContour/src/SegmentationSVGWriter.cxx</text>
</a>
</g>
</g>
<!-- Node4&#45;&gt;Node6 -->
<g id="edge8" class="edge"><title>Node4&#45;&gt;Node6</title>
<path fill="none" stroke="midnightblue" d="M258.779,-200.655C226.335,-191.532 191.786,-177.029 166,-154 135.915,-127.132 120.369,-81.482 113.216,-53.1305"/>
<polygon fill="midnightblue" stroke="midnightblue" points="258.204,-204.124 268.768,-203.317 260.007,-197.36 258.204,-204.124"/>
</g>
<!-- Node7 -->
<g id="node7" class="node"><title>Node7</title>
<g id="a_node7"><a xlink:href="../../d2/d0f/SVGSegmentation_8cxx.html" target="_top" xlink:title="/home/travis/build\l/AliceO2Group/AliceO2\l/Detectors/MUON/MCH/Mapping\l/SegContour/src/SVGSegmentation.cxx">
<polygon fill="none" stroke="black" points="234.5,-1 234.5,-53 425.5,-53 425.5,-1 234.5,-1"/>
<text text-anchor="start" x="242.5" y="-41" font-family="Helvetica,sans-Serif" font-size="10.00">/home/travis/build</text>
<text text-anchor="start" x="242.5" y="-30" font-family="Helvetica,sans-Serif" font-size="10.00">/AliceO2Group/AliceO2</text>
<text text-anchor="start" x="242.5" y="-19" font-family="Helvetica,sans-Serif" font-size="10.00">/Detectors/MUON/MCH/Mapping</text>
<text text-anchor="middle" x="330" y="-8" font-family="Helvetica,sans-Serif" font-size="10.00">/SegContour/src/SVGSegmentation.cxx</text>
</a>
</g>
</g>
<!-- Node4&#45;&gt;Node7 -->
<g id="edge9" class="edge"><title>Node4&#45;&gt;Node7</title>
<path fill="none" stroke="midnightblue" d="M387.488,-182.78C394.24,-174.102 400.372,-164.277 404,-154 413.468,-127.178 416.031,-115.775 404,-90 397.195,-75.42 385.087,-63.0563 372.611,-53.2969"/>
<polygon fill="midnightblue" stroke="midnightblue" points="384.585,-180.797 380.886,-190.726 389.969,-185.271 384.585,-180.797"/>
</g>
<!-- Node8 -->
<g id="node8" class="node"><title>Node8</title>
<g id="a_node8"><a xlink:href="../../d5/d2d/MUON_2MCH_2Mapping_2test_2src_2Segmentation_8cxx.html" target="_top" xlink:title="/home/travis/build\l/AliceO2Group/AliceO2\l/Detectors/MUON/MCH/Mapping\l/test/src/Segmentation.cxx">
<polygon fill="none" stroke="black" points="444,-1 444,-53 606,-53 606,-1 444,-1"/>
<text text-anchor="start" x="452" y="-41" font-family="Helvetica,sans-Serif" font-size="10.00">/home/travis/build</text>
<text text-anchor="start" x="452" y="-30" font-family="Helvetica,sans-Serif" font-size="10.00">/AliceO2Group/AliceO2</text>
<text text-anchor="start" x="452" y="-19" font-family="Helvetica,sans-Serif" font-size="10.00">/Detectors/MUON/MCH/Mapping</text>
<text text-anchor="middle" x="525" y="-8" font-family="Helvetica,sans-Serif" font-size="10.00">/test/src/Segmentation.cxx</text>
</a>
</g>
</g>
<!-- Node4&#45;&gt;Node8 -->
<g id="edge10" class="edge"><title>Node4&#45;&gt;Node8</title>
<path fill="none" stroke="midnightblue" d="M391.944,-183.852C402.327,-174.54 413.367,-164.143 423,-154 454.399,-120.941 486.905,-79.2654 506.543,-53.1171"/>
<polygon fill="midnightblue" stroke="midnightblue" points="389.333,-181.489 384.167,-190.739 393.974,-186.73 389.333,-181.489"/>
</g>
<!-- Node5&#45;&gt;Node6 -->
<g id="edge5" class="edge"><title>Node5&#45;&gt;Node6</title>
<path fill="none" stroke="midnightblue" d="M217.537,-85.5536C196.956,-74.7396 174.763,-63.0791 155.771,-53.1001"/>
<polygon fill="midnightblue" stroke="midnightblue" points="216.073,-88.7376 226.553,-90.2906 219.329,-82.5409 216.073,-88.7376"/>
</g>
<!-- Node5&#45;&gt;Node7 -->
<g id="edge6" class="edge"><title>Node5&#45;&gt;Node7</title>
<path fill="none" stroke="midnightblue" d="M304.354,-81.0014C308.937,-71.5302 313.697,-61.6919 317.855,-53.1001"/>
<polygon fill="midnightblue" stroke="midnightblue" points="301.065,-79.7645 299.859,-90.2906 307.366,-82.8135 301.065,-79.7645"/>
</g>
<!-- Node5&#45;&gt;Node8 -->
<g id="edge7" class="edge"><title>Node5&#45;&gt;Node8</title>
<path fill="none" stroke="midnightblue" d="M373.571,-86.6789C402.36,-75.5231 433.745,-63.3612 460.44,-53.0171"/>
<polygon fill="midnightblue" stroke="midnightblue" points="371.977,-83.5427 363.917,-90.4195 374.506,-90.0698 371.977,-83.5427"/>
</g>
</g>
</svg>
        <g id="navigator" transform="translate(0 0)" fill="#404254">
                <rect fill="#f2f5e9" fill-opacity="0.5" stroke="#606060" stroke-width=".5" x="0" y="0" width="60" height="60"/>
                <use id="zoomplus" xlink:href="#zoomPlus" x="17" y="9" onmousedown="handleZoom(evt,'in')"/>
                <use id="zoomminus" xlink:href="#zoomMin" x="42" y="9" onmousedown="handleZoom(evt,'out')"/>
                <use id="reset" xlink:href="#resetDef" x="30" y="36" onmousedown="handleReset()"/>
                <g id="arrowUp" xlink:href="#dirArrow" transform="translate(30 24)" onmousedown="handlePan(0,-1)">
                  <use xlink:href="#rim" fill="#404040">
                        <set attributeName="fill" to="#808080" begin="arrowUp.mouseover" end="arrowUp.mouseout"/>
                  </use>
                  <path fill="none" stroke="white" stroke-width="1.5" d="M0,-3.0v7 M-2.5,-0.5L0,-3.0L2.5,-0.5"/>
                </g>
                <g id="arrowRight" xlink:href="#dirArrow" transform="rotate(90) translate(36 -43)" onmousedown="handlePan(1,0)">
                  <use xlink:href="#rim" fill="#404040">
                        <set attributeName="fill" to="#808080" begin="arrowRight.mouseover" end="arrowRight.mouseout"/>
                  </use>
                  <path fill="none" stroke="white" stroke-width="1.5" d="M0,-3.0v7 M-2.5,-0.5L0,-3.0L2.5,-0.5"/>
                </g>
                <g id="arrowDown" xlink:href="#dirArrow" transform="rotate(180) translate(-30 -48)" onmousedown="handlePan(0,1)">
                  <use xlink:href="#rim" fill="#404040">
                        <set attributeName="fill" to="#808080" begin="arrowDown.mouseover" end="arrowDown.mouseout"/>
                  </use>
                  <path fill="none" stroke="white" stroke-width="1.5" d="M0,-3.0v7 M-2.5,-0.5L0,-3.0L2.5,-0.5"/>
                </g>
                <g id="arrowLeft" xlink:href="#dirArrow" transform="rotate(270) translate(-36 17)" onmousedown="handlePan(-1,0)">
                  <use xlink:href="#rim" fill="#404040">
                        <set attributeName="fill" to="#808080" begin="arrowLeft.mouseover" end="arrowLeft.mouseout"/>
                  </use>
                  <path fill="none" stroke="white" stroke-width="1.5" d="M0,-3.0v7 M-2.5,-0.5L0,-3.0L2.5,-0.5"/>
                </g>
        </g>
        <svg viewBox="0 0 15 15" width="100%" height="30px" preserveAspectRatio="xMaxYMin meet">
         <g id="arrow_out" transform="scale(0.3 0.3)">
          <a xlink:href="Edge_8h__dep__incl_org.svg" target="_base">
           <rect id="button" ry="5" rx="5" y="6" x="6" height="38" width="38"
                fill="#f2f5e9" fill-opacity="0.5" stroke="#606060" stroke-width="1.0"/>
           <path id="arrow"
             d="M 11.500037,31.436501 C 11.940474,20.09759 22.043105,11.32322 32.158766,21.979434 L 37.068811,17.246167 C 37.068811,17.246167 37.088388,32 37.088388,32 L 22.160133,31.978069 C 22.160133,31.978069 26.997745,27.140456 26.997745,27.140456 C 18.528582,18.264221 13.291696,25.230495 11.500037,31.436501 z"
             style="fill:#404040;"/>
          </a>
         </g>
        </svg>
</svg>
