<?xml version="1.0" encoding="UTF-8" standalone="no"?>
<!DOCTYPE svg PUBLIC "-//W3C//DTD SVG 1.1//EN"
 "http://www.w3.org/Graphics/SVG/1.1/DTD/svg11.dtd">
<!-- Generated by graphviz version 2.36.0 (20140111.2315)
 -->
<!-- Title: /home/travis/build/AliceO2Group/AliceO2/Detectors/TPC/simulation/include/TPCSimulation/DigitMCMetaData.h Pages: 1 -->
<svg width="1686pt" height="790pt"
 viewBox="0.00 0.00 1686.00 790.00" xmlns="http://www.w3.org/2000/svg" xmlns:xlink="http://www.w3.org/1999/xlink">
<g id="graph0" class="graph" transform="scale(1 1) rotate(0) translate(4 786)">
<title>/home/travis/build/AliceO2Group/AliceO2/Detectors/TPC/simulation/include/TPCSimulation/DigitMCMetaData.h</title>
<!-- Node1 -->
<g id="node1" class="node"><title>Node1</title>
<polygon fill="#bfbfbf" stroke="black" points="1163,-718.5 1163,-781.5 1343,-781.5 1343,-718.5 1163,-718.5"/>
<text text-anchor="start" x="1171" y="-769.5" font-family="Helvetica,sans-Serif" font-size="10.00">/home/travis/build</text>
<text text-anchor="start" x="1171" y="-758.5" font-family="Helvetica,sans-Serif" font-size="10.00">/AliceO2Group/AliceO2</text>
<text text-anchor="start" x="1171" y="-747.5" font-family="Helvetica,sans-Serif" font-size="10.00">/Detectors/TPC/simulation</text>
<text text-anchor="start" x="1171" y="-736.5" font-family="Helvetica,sans-Serif" font-size="10.00">/include/TPCSimulation/DigitMCMeta</text>
<text text-anchor="middle" x="1253" y="-725.5" font-family="Helvetica,sans-Serif" font-size="10.00">Data.h</text>
</g>
<!-- Node2 -->
<g id="node2" class="node"><title>Node2</title>
<g id="a_node2"><a xlink:href="../../de/dc8/DigitRow_8h.html" target="_top" xlink:title="Definition of the Row container. ">
<polygon fill="none" stroke="black" points="920.5,-629 920.5,-681 1091.5,-681 1091.5,-629 920.5,-629"/>
<text text-anchor="start" x="928.5" y="-669" font-family="Helvetica,sans-Serif" font-size="10.00">/home/travis/build</text>
<text text-anchor="start" x="928.5" y="-658" font-family="Helvetica,sans-Serif" font-size="10.00">/AliceO2Group/AliceO2</text>
<text text-anchor="start" x="928.5" y="-647" font-family="Helvetica,sans-Serif" font-size="10.00">/Detectors/TPC/simulation</text>
<text text-anchor="middle" x="1006" y="-636" font-family="Helvetica,sans-Serif" font-size="10.00">/include/TPCSimulation/DigitRow.h</text>
</a>
</g>
</g>
<!-- Node1&#45;&gt;Node2 -->
<g id="edge1" class="edge"><title>Node1&#45;&gt;Node2</title>
<path fill="none" stroke="midnightblue" d="M1162.23,-714.824C1132.5,-703.629 1100.04,-691.406 1072.44,-681.017"/>
<polygon fill="midnightblue" stroke="midnightblue" points="1161.19,-718.171 1171.78,-718.42 1163.66,-711.62 1161.19,-718.171"/>
</g>
<!-- Node9 -->
<g id="node9" class="node"><title>Node9</title>
<g id="a_node9"><a xlink:href="../../df/d46/TPC_2simulation_2src_2DigitizerTask_8cxx.html" target="_top" xlink:title="/home/travis/build\l/AliceO2Group/AliceO2\l/Detectors/TPC/simulation\l/src/DigitizerTask.cxx">
<polygon fill="none" stroke="black" points="906.5,-79 906.5,-131 1039.5,-131 1039.5,-79 906.5,-79"/>
<text text-anchor="start" x="914.5" y="-119" font-family="Helvetica,sans-Serif" font-size="10.00">/home/travis/build</text>
<text text-anchor="start" x="914.5" y="-108" font-family="Helvetica,sans-Serif" font-size="10.00">/AliceO2Group/AliceO2</text>
<text text-anchor="start" x="914.5" y="-97" font-family="Helvetica,sans-Serif" font-size="10.00">/Detectors/TPC/simulation</text>
<text text-anchor="middle" x="973" y="-86" font-family="Helvetica,sans-Serif" font-size="10.00">/src/DigitizerTask.cxx</text>
</a>
</g>
</g>
<!-- Node1&#45;&gt;Node9 -->
<g id="edge25" class="edge"><title>Node1&#45;&gt;Node9</title>
<path fill="none" stroke="midnightblue" d="M1234.48,-708.956C1230.94,-700.207 1227.55,-690.9 1225,-682 1210.61,-631.779 1206,-618.243 1206,-566 1206,-566 1206,-566 1206,-294 1206,-207.978 1108.62,-154.607 1039.77,-127.622"/>
<polygon fill="midnightblue" stroke="midnightblue" points="1231.26,-710.313 1238.35,-718.184 1237.71,-707.608 1231.26,-710.313"/>
</g>
<!-- Node18 -->
<g id="node18" class="node"><title>Node18</title>
<g id="a_node18"><a xlink:href="../../dd/d5e/testTPCDigitContainer_8cxx.html" target="_top" xlink:title="This task tests the DigitContainer of the TPC digitization. ">
<polygon fill="none" stroke="black" points="1020.5,-269 1020.5,-321 1177.5,-321 1177.5,-269 1020.5,-269"/>
<text text-anchor="start" x="1028.5" y="-309" font-family="Helvetica,sans-Serif" font-size="10.00">/home/travis/build</text>
<text text-anchor="start" x="1028.5" y="-298" font-family="Helvetica,sans-Serif" font-size="10.00">/AliceO2Group/AliceO2</text>
<text text-anchor="start" x="1028.5" y="-287" font-family="Helvetica,sans-Serif" font-size="10.00">/Detectors/TPC/simulation</text>
<text text-anchor="middle" x="1099" y="-276" font-family="Helvetica,sans-Serif" font-size="10.00">/test/testTPCDigitContainer.cxx</text>
</a>
</g>
</g>
<!-- Node1&#45;&gt;Node18 -->
<g id="edge28" class="edge"><title>Node1&#45;&gt;Node18</title>
<path fill="none" stroke="midnightblue" d="M1211.95,-710.814C1204.36,-701.996 1197.19,-692.19 1192,-682 1168.1,-635.092 1168,-618.647 1168,-566 1168,-566 1168,-566 1168,-474 1168,-416.165 1135.94,-354.47 1115.53,-321.05"/>
<polygon fill="midnightblue" stroke="midnightblue" points="1209.4,-713.213 1218.7,-718.294 1214.6,-708.524 1209.4,-713.213"/>
</g>
<!-- Node22 -->
<g id="node22" class="node"><title>Node22</title>
<g id="a_node22"><a xlink:href="../../d7/d68/DigitMCMetaData_8cxx.html" target="_top" xlink:title="Implementation of the Meta Data object of the Monte Carlo Digit. ">
<polygon fill="none" stroke="black" points="1234,-629 1234,-681 1368,-681 1368,-629 1234,-629"/>
<text text-anchor="start" x="1242" y="-669" font-family="Helvetica,sans-Serif" font-size="10.00">/home/travis/build</text>
<text text-anchor="start" x="1242" y="-658" font-family="Helvetica,sans-Serif" font-size="10.00">/AliceO2Group/AliceO2</text>
<text text-anchor="start" x="1242" y="-647" font-family="Helvetica,sans-Serif" font-size="10.00">/Detectors/TPC/simulation</text>
<text text-anchor="middle" x="1301" y="-636" font-family="Helvetica,sans-Serif" font-size="10.00">/src/DigitMCMetaData.cxx</text>
</a>
</g>
</g>
<!-- Node1&#45;&gt;Node22 -->
<g id="edge26" class="edge"><title>Node1&#45;&gt;Node22</title>
<path fill="none" stroke="midnightblue" d="M1273.49,-709.297C1278.43,-699.735 1283.56,-689.781 1288.05,-681.1"/>
<polygon fill="midnightblue" stroke="midnightblue" points="1270.33,-707.799 1268.85,-718.291 1276.55,-711.01 1270.33,-707.799"/>
</g>
<!-- Node23 -->
<g id="node23" class="node"><title>Node23</title>
<g id="a_node23"><a xlink:href="../../db/d73/DigitPad_8cxx.html" target="_top" xlink:title="Implementation of the Pad container. ">
<polygon fill="none" stroke="black" points="1386.5,-629 1386.5,-681 1519.5,-681 1519.5,-629 1386.5,-629"/>
<text text-anchor="start" x="1394.5" y="-669" font-family="Helvetica,sans-Serif" font-size="10.00">/home/travis/build</text>
<text text-anchor="start" x="1394.5" y="-658" font-family="Helvetica,sans-Serif" font-size="10.00">/AliceO2Group/AliceO2</text>
<text text-anchor="start" x="1394.5" y="-647" font-family="Helvetica,sans-Serif" font-size="10.00">/Detectors/TPC/simulation</text>
<text text-anchor="middle" x="1453" y="-636" font-family="Helvetica,sans-Serif" font-size="10.00">/src/DigitPad.cxx</text>
</a>
</g>
</g>
<!-- Node1&#45;&gt;Node23 -->
<g id="edge27" class="edge"><title>Node1&#45;&gt;Node23</title>
<path fill="none" stroke="midnightblue" d="M1328.06,-714.096C1351.71,-703.101 1377.34,-691.181 1399.2,-681.017"/>
<polygon fill="midnightblue" stroke="midnightblue" points="1326.36,-711.029 1318.76,-718.42 1329.31,-717.377 1326.36,-711.029"/>
</g>
<!-- Node24 -->
<g id="node24" class="node"><title>Node24</title>
<g id="a_node24"><a xlink:href="../../dd/dd7/testTPCSimulation_8cxx.html" target="_top" xlink:title="This task tests several small components of the TPC simulation. ">
<polygon fill="none" stroke="black" points="1538,-629 1538,-681 1678,-681 1678,-629 1538,-629"/>
<text text-anchor="start" x="1546" y="-669" font-family="Helvetica,sans-Serif" font-size="10.00">/home/travis/build</text>
<text text-anchor="start" x="1546" y="-658" font-family="Helvetica,sans-Serif" font-size="10.00">/AliceO2Group/AliceO2</text>
<text text-anchor="start" x="1546" y="-647" font-family="Helvetica,sans-Serif" font-size="10.00">/Detectors/TPC/simulation</text>
<text text-anchor="middle" x="1608" y="-636" font-family="Helvetica,sans-Serif" font-size="10.00">/test/testTPCSimulation.cxx</text>
</a>
</g>
</g>
<!-- Node1&#45;&gt;Node24 -->
<g id="edge29" class="edge"><title>Node1&#45;&gt;Node24</title>
<path fill="none" stroke="midnightblue" d="M1353.2,-726.501C1405.53,-714.267 1470.49,-698.326 1528,-682 1531.23,-681.083 1534.53,-680.12 1537.85,-679.128"/>
<polygon fill="midnightblue" stroke="midnightblue" points="1352.19,-723.142 1343.24,-728.819 1353.77,-729.96 1352.19,-723.142"/>
</g>
<!-- Node3 -->
<g id="node3" class="node"><title>Node3</title>
<g id="a_node3"><a xlink:href="../../d0/d60/DigitTime_8h.html" target="_top" xlink:title="Definition of the Time Bin container. ">
<polygon fill="none" stroke="black" points="871.5,-539 871.5,-591 1044.5,-591 1044.5,-539 871.5,-539"/>
<text text-anchor="start" x="879.5" y="-579" font-family="Helvetica,sans-Serif" font-size="10.00">/home/travis/build</text>
<text text-anchor="start" x="879.5" y="-568" font-family="Helvetica,sans-Serif" font-size="10.00">/AliceO2Group/AliceO2</text>
<text text-anchor="start" x="879.5" y="-557" font-family="Helvetica,sans-Serif" font-size="10.00">/Detectors/TPC/simulation</text>
<text text-anchor="middle" x="958" y="-546" font-family="Helvetica,sans-Serif" font-size="10.00">/include/TPCSimulation/DigitTime.h</text>
</a>
</g>
</g>
<!-- Node2&#45;&gt;Node3 -->
<g id="edge2" class="edge"><title>Node2&#45;&gt;Node3</title>
<path fill="none" stroke="midnightblue" d="M987.275,-619.671C982.079,-610.145 976.536,-599.983 971.687,-591.092"/>
<polygon fill="midnightblue" stroke="midnightblue" points="984.255,-621.444 992.116,-628.547 990.4,-618.092 984.255,-621.444"/>
</g>
<!-- Node20 -->
<g id="node20" class="node"><title>Node20</title>
<g id="a_node20"><a xlink:href="../../dd/dcd/DigitTime_8cxx.html" target="_top" xlink:title="Implementation of the Time Bin container. ">
<polygon fill="none" stroke="black" points="1006.5,-449 1006.5,-501 1139.5,-501 1139.5,-449 1006.5,-449"/>
<text text-anchor="start" x="1014.5" y="-489" font-family="Helvetica,sans-Serif" font-size="10.00">/home/travis/build</text>
<text text-anchor="start" x="1014.5" y="-478" font-family="Helvetica,sans-Serif" font-size="10.00">/AliceO2Group/AliceO2</text>
<text text-anchor="start" x="1014.5" y="-467" font-family="Helvetica,sans-Serif" font-size="10.00">/Detectors/TPC/simulation</text>
<text text-anchor="middle" x="1073" y="-456" font-family="Helvetica,sans-Serif" font-size="10.00">/src/DigitTime.cxx</text>
</a>
</g>
</g>
<!-- Node2&#45;&gt;Node20 -->
<g id="edge24" class="edge"><title>Node2&#45;&gt;Node20</title>
<path fill="none" stroke="midnightblue" d="M1035.73,-620.79C1042.32,-611.948 1048.64,-602.046 1053,-592 1065.78,-562.571 1070.41,-525.609 1072.07,-501.423"/>
<polygon fill="midnightblue" stroke="midnightblue" points="1032.78,-618.878 1029.38,-628.912 1038.3,-623.19 1032.78,-618.878"/>
</g>
<!-- Node21 -->
<g id="node21" class="node"><title>Node21</title>
<g id="a_node21"><a xlink:href="../../d2/daa/DigitRow_8cxx.html" target="_top" xlink:title="Implementation of the Row container. ">
<polygon fill="none" stroke="black" points="720.5,-539 720.5,-591 853.5,-591 853.5,-539 720.5,-539"/>
<text text-anchor="start" x="728.5" y="-579" font-family="Helvetica,sans-Serif" font-size="10.00">/home/travis/build</text>
<text text-anchor="start" x="728.5" y="-568" font-family="Helvetica,sans-Serif" font-size="10.00">/AliceO2Group/AliceO2</text>
<text text-anchor="start" x="728.5" y="-557" font-family="Helvetica,sans-Serif" font-size="10.00">/Detectors/TPC/simulation</text>
<text text-anchor="middle" x="787" y="-546" font-family="Helvetica,sans-Serif" font-size="10.00">/src/DigitRow.cxx</text>
</a>
</g>
</g>
<!-- Node2&#45;&gt;Node21 -->
<g id="edge23" class="edge"><title>Node2&#45;&gt;Node21</title>
<path fill="none" stroke="midnightblue" d="M934.042,-625.085C906.745,-614.117 875.906,-601.725 849.546,-591.133"/>
<polygon fill="midnightblue" stroke="midnightblue" points="932.953,-628.42 943.536,-628.901 935.563,-621.924 932.953,-628.42"/>
</g>
<!-- Node4 -->
<g id="node4" class="node"><title>Node4</title>
<g id="a_node4"><a xlink:href="../../d6/d95/DigitCRU_8h.html" target="_top" xlink:title="Definition of the CRU container. ">
<polygon fill="none" stroke="black" points="815.5,-449 815.5,-501 988.5,-501 988.5,-449 815.5,-449"/>
<text text-anchor="start" x="823.5" y="-489" font-family="Helvetica,sans-Serif" font-size="10.00">/home/travis/build</text>
<text text-anchor="start" x="823.5" y="-478" font-family="Helvetica,sans-Serif" font-size="10.00">/AliceO2Group/AliceO2</text>
<text text-anchor="start" x="823.5" y="-467" font-family="Helvetica,sans-Serif" font-size="10.00">/Detectors/TPC/simulation</text>
<text text-anchor="middle" x="902" y="-456" font-family="Helvetica,sans-Serif" font-size="10.00">/include/TPCSimulation/DigitCRU.h</text>
</a>
</g>
</g>
<!-- Node3&#45;&gt;Node4 -->
<g id="edge3" class="edge"><title>Node3&#45;&gt;Node4</title>
<path fill="none" stroke="midnightblue" d="M936.342,-529.965C930.226,-520.354 923.684,-510.074 917.968,-501.092"/>
<polygon fill="midnightblue" stroke="midnightblue" points="933.481,-531.989 941.802,-538.547 939.386,-528.231 933.481,-531.989"/>
</g>
<!-- Node19 -->
<g id="node19" class="node"><title>Node19</title>
<g id="a_node19"><a xlink:href="../../da/dc3/DigitCRU_8cxx.html" target="_top" xlink:title="Implementation of the CRU container. ">
<polygon fill="none" stroke="black" points="720.5,-359 720.5,-411 853.5,-411 853.5,-359 720.5,-359"/>
<text text-anchor="start" x="728.5" y="-399" font-family="Helvetica,sans-Serif" font-size="10.00">/home/travis/build</text>
<text text-anchor="start" x="728.5" y="-388" font-family="Helvetica,sans-Serif" font-size="10.00">/AliceO2Group/AliceO2</text>
<text text-anchor="start" x="728.5" y="-377" font-family="Helvetica,sans-Serif" font-size="10.00">/Detectors/TPC/simulation</text>
<text text-anchor="middle" x="787" y="-366" font-family="Helvetica,sans-Serif" font-size="10.00">/src/DigitCRU.cxx</text>
</a>
</g>
</g>
<!-- Node3&#45;&gt;Node19 -->
<g id="edge21" class="edge"><title>Node3&#45;&gt;Node19</title>
<path fill="none" stroke="midnightblue" d="M867.142,-535.323C839.887,-524.98 814.859,-513.114 806,-502 785.522,-476.307 783.286,-437.05 784.447,-411.453"/>
<polygon fill="midnightblue" stroke="midnightblue" points="866.258,-538.729 876.852,-538.915 868.687,-532.163 866.258,-538.729"/>
</g>
<!-- Node3&#45;&gt;Node20 -->
<g id="edge22" class="edge"><title>Node3&#45;&gt;Node20</title>
<path fill="none" stroke="midnightblue" d="M999.121,-532.534C1012.55,-522.254 1027.29,-510.979 1040.04,-501.221"/>
<polygon fill="midnightblue" stroke="midnightblue" points="996.769,-529.926 990.954,-538.783 1001.02,-535.485 996.769,-529.926"/>
</g>
<!-- Node5 -->
<g id="node5" class="node"><title>Node5</title>
<g id="a_node5"><a xlink:href="../../dd/d94/DigitContainer_8h.html" target="_top" xlink:title="Definition of the Digit Container. ">
<polygon fill="none" stroke="black" points="871.5,-359 871.5,-411 1064.5,-411 1064.5,-359 871.5,-359"/>
<text text-anchor="start" x="879.5" y="-399" font-family="Helvetica,sans-Serif" font-size="10.00">/home/travis/build</text>
<text text-anchor="start" x="879.5" y="-388" font-family="Helvetica,sans-Serif" font-size="10.00">/AliceO2Group/AliceO2</text>
<text text-anchor="start" x="879.5" y="-377" font-family="Helvetica,sans-Serif" font-size="10.00">/Detectors/TPC/simulation</text>
<text text-anchor="middle" x="968" y="-366" font-family="Helvetica,sans-Serif" font-size="10.00">/include/TPCSimulation/DigitContainer.h</text>
</a>
</g>
</g>
<!-- Node4&#45;&gt;Node5 -->
<g id="edge4" class="edge"><title>Node4&#45;&gt;Node5</title>
<path fill="none" stroke="midnightblue" d="M927.306,-440.259C934.577,-430.564 942.376,-420.166 949.181,-411.092"/>
<polygon fill="midnightblue" stroke="midnightblue" points="924.29,-438.447 921.09,-448.547 929.89,-442.647 924.29,-438.447"/>
</g>
<!-- Node4&#45;&gt;Node19 -->
<g id="edge20" class="edge"><title>Node4&#45;&gt;Node19</title>
<path fill="none" stroke="midnightblue" d="M860.879,-442.534C847.446,-432.254 832.711,-420.979 819.959,-411.221"/>
<polygon fill="midnightblue" stroke="midnightblue" points="858.977,-445.485 869.046,-448.783 863.231,-439.926 858.977,-445.485"/>
</g>
<!-- Node6 -->
<g id="node6" class="node"><title>Node6</title>
<g id="a_node6"><a xlink:href="../../de/d92/TPC_2simulation_2include_2TPCSimulation_2Digitizer_8h.html" target="_top" xlink:title="/home/travis/build\l/AliceO2Group/AliceO2\l/Detectors/TPC/simulation\l/include/TPCSimulation/Digitizer.h">
<polygon fill="none" stroke="black" points="685.5,-269 685.5,-321 852.5,-321 852.5,-269 685.5,-269"/>
<text text-anchor="start" x="693.5" y="-309" font-family="Helvetica,sans-Serif" font-size="10.00">/home/travis/build</text>
<text text-anchor="start" x="693.5" y="-298" font-family="Helvetica,sans-Serif" font-size="10.00">/AliceO2Group/AliceO2</text>
<text text-anchor="start" x="693.5" y="-287" font-family="Helvetica,sans-Serif" font-size="10.00">/Detectors/TPC/simulation</text>
<text text-anchor="middle" x="769" y="-276" font-family="Helvetica,sans-Serif" font-size="10.00">/include/TPCSimulation/Digitizer.h</text>
</a>
</g>
</g>
<!-- Node5&#45;&gt;Node6 -->
<g id="edge5" class="edge"><title>Node5&#45;&gt;Node6</title>
<path fill="none" stroke="midnightblue" d="M901.963,-354.798C877.32,-343.9 849.578,-331.632 825.834,-321.133"/>
<polygon fill="midnightblue" stroke="midnightblue" points="900.68,-358.057 911.241,-358.901 903.511,-351.655 900.68,-358.057"/>
</g>
<!-- Node5&#45;&gt;Node9 -->
<g id="edge18" class="edge"><title>Node5&#45;&gt;Node9</title>
<path fill="none" stroke="midnightblue" d="M968.638,-348.521C969.663,-291.545 971.651,-181.019 972.545,-131.304"/>
<polygon fill="midnightblue" stroke="midnightblue" points="965.133,-348.778 968.453,-358.839 972.132,-348.904 965.133,-348.778"/>
</g>
<!-- Node17 -->
<g id="node17" class="node"><title>Node17</title>
<g id="a_node17"><a xlink:href="../../df/d53/DigitContainer_8cxx.html" target="_top" xlink:title="Implementation of the Digit Container. ">
<polygon fill="none" stroke="black" points="534.5,-269 534.5,-321 667.5,-321 667.5,-269 534.5,-269"/>
<text text-anchor="start" x="542.5" y="-309" font-family="Helvetica,sans-Serif" font-size="10.00">/home/travis/build</text>
<text text-anchor="start" x="542.5" y="-298" font-family="Helvetica,sans-Serif" font-size="10.00">/AliceO2Group/AliceO2</text>
<text text-anchor="start" x="542.5" y="-287" font-family="Helvetica,sans-Serif" font-size="10.00">/Detectors/TPC/simulation</text>
<text text-anchor="middle" x="601" y="-276" font-family="Helvetica,sans-Serif" font-size="10.00">/src/DigitContainer.cxx</text>
</a>
</g>
</g>
<!-- Node5&#45;&gt;Node17 -->
<g id="edge17" class="edge"><title>Node5&#45;&gt;Node17</title>
<path fill="none" stroke="midnightblue" d="M861.372,-357.927C778.007,-340.218 754.3,-343.034 676,-322 673.205,-321.249 670.364,-320.447 667.503,-319.606"/>
<polygon fill="midnightblue" stroke="midnightblue" points="860.769,-361.377 871.283,-360.068 862.248,-354.535 860.769,-361.377"/>
</g>
<!-- Node5&#45;&gt;Node18 -->
<g id="edge19" class="edge"><title>Node5&#45;&gt;Node18</title>
<path fill="none" stroke="midnightblue" d="M1013.98,-353.114C1029.51,-342.68 1046.65,-331.163 1061.46,-321.221"/>
<polygon fill="midnightblue" stroke="midnightblue" points="1011.89,-350.301 1005.54,-358.783 1015.79,-356.112 1011.89,-350.301"/>
</g>
<!-- Node7 -->
<g id="node7" class="node"><title>Node7</title>
<g id="a_node7"><a xlink:href="../../db/d60/testTracks_8C.html" target="_top" xlink:title="/home/travis/build\l/AliceO2Group/AliceO2\l/Detectors/TPC/reconstruction\l/macro/testTracks.C">
<polygon fill="none" stroke="black" points="776,-174 776,-226 926,-226 926,-174 776,-174"/>
<text text-anchor="start" x="784" y="-214" font-family="Helvetica,sans-Serif" font-size="10.00">/home/travis/build</text>
<text text-anchor="start" x="784" y="-203" font-family="Helvetica,sans-Serif" font-size="10.00">/AliceO2Group/AliceO2</text>
<text text-anchor="start" x="784" y="-192" font-family="Helvetica,sans-Serif" font-size="10.00">/Detectors/TPC/reconstruction</text>
<text text-anchor="middle" x="851" y="-181" font-family="Helvetica,sans-Serif" font-size="10.00">/macro/testTracks.C</text>
</a>
</g>
</g>
<!-- Node6&#45;&gt;Node7 -->
<g id="edge6" class="edge"><title>Node6&#45;&gt;Node7</title>
<path fill="none" stroke="midnightblue" d="M798.203,-260.879C808.311,-249.416 819.463,-236.767 828.904,-226.06"/>
<polygon fill="midnightblue" stroke="midnightblue" points="795.395,-258.772 791.407,-268.587 800.646,-263.401 795.395,-258.772"/>
</g>
<!-- Node8 -->
<g id="node8" class="node"><title>Node8</title>
<g id="a_node8"><a xlink:href="../../dd/d4b/TPC_2simulation_2include_2TPCSimulation_2DigitizerTask_8h.html" target="_top" xlink:title="/home/travis/build\l/AliceO2Group/AliceO2\l/Detectors/TPC/simulation\l/include/TPCSimulation/Digitizer\lTask.h">
<polygon fill="none" stroke="black" points="116,-168.5 116,-231.5 274,-231.5 274,-168.5 116,-168.5"/>
<text text-anchor="start" x="124" y="-219.5" font-family="Helvetica,sans-Serif" font-size="10.00">/home/travis/build</text>
<text text-anchor="start" x="124" y="-208.5" font-family="Helvetica,sans-Serif" font-size="10.00">/AliceO2Group/AliceO2</text>
<text text-anchor="start" x="124" y="-197.5" font-family="Helvetica,sans-Serif" font-size="10.00">/Detectors/TPC/simulation</text>
<text text-anchor="start" x="124" y="-186.5" font-family="Helvetica,sans-Serif" font-size="10.00">/include/TPCSimulation/Digitizer</text>
<text text-anchor="middle" x="195" y="-175.5" font-family="Helvetica,sans-Serif" font-size="10.00">Task.h</text>
</a>
</g>
</g>
<!-- Node6&#45;&gt;Node8 -->
<g id="edge7" class="edge"><title>Node6&#45;&gt;Node8</title>
<path fill="none" stroke="midnightblue" d="M675.281,-268.036C501.633,-237.464 451.179,-268.73 283,-232 280.151,-231.378 277.269,-230.69 274.37,-229.949"/>
<polygon fill="midnightblue" stroke="midnightblue" points="674.8,-271.506 685.263,-269.837 676.043,-264.617 674.8,-271.506"/>
</g>
<!-- Node6&#45;&gt;Node9 -->
<g id="edge15" class="edge"><title>Node6&#45;&gt;Node9</title>
<path fill="none" stroke="midnightblue" d="M862.225,-275.277C888.364,-266.045 914.84,-252.33 934,-232 960.228,-204.17 968.833,-159.03 971.646,-131.007"/>
<polygon fill="midnightblue" stroke="midnightblue" points="861.002,-271.995 852.624,-278.48 863.218,-278.636 861.002,-271.995"/>
</g>
<!-- Node14 -->
<g id="node14" class="node"><title>Node14</title>
<g id="a_node14"><a xlink:href="../../d9/d59/testHitsDigitsClusters_8C.html" target="_top" xlink:title="/home/travis/build\l/AliceO2Group/AliceO2\l/Detectors/TPC/simulation\l/macro/testHitsDigitsClusters.C">
<polygon fill="none" stroke="black" points="292.5,-174 292.5,-226 449.5,-226 449.5,-174 292.5,-174"/>
<text text-anchor="start" x="300.5" y="-214" font-family="Helvetica,sans-Serif" font-size="10.00">/home/travis/build</text>
<text text-anchor="start" x="300.5" y="-203" font-family="Helvetica,sans-Serif" font-size="10.00">/AliceO2Group/AliceO2</text>
<text text-anchor="start" x="300.5" y="-192" font-family="Helvetica,sans-Serif" font-size="10.00">/Detectors/TPC/simulation</text>
<text text-anchor="middle" x="371" y="-181" font-family="Helvetica,sans-Serif" font-size="10.00">/macro/testHitsDigitsClusters.C</text>
</a>
</g>
</g>
<!-- Node6&#45;&gt;Node14 -->
<g id="edge13" class="edge"><title>Node6&#45;&gt;Node14</title>
<path fill="none" stroke="midnightblue" d="M675.513,-268.017C578.312,-247.346 550.012,-255.787 458,-232 451.325,-230.274 444.437,-228.254 437.597,-226.086"/>
<polygon fill="midnightblue" stroke="midnightblue" points="674.941,-271.474 685.457,-270.181 676.43,-264.634 674.941,-271.474"/>
</g>
<!-- Node15 -->
<g id="node15" class="node"><title>Node15</title>
<g id="a_node15"><a xlink:href="../../d7/d0a/TPC_2simulation_2src_2Digitizer_8cxx.html" target="_top" xlink:title="/home/travis/build\l/AliceO2Group/AliceO2\l/Detectors/TPC/simulation\l/src/Digitizer.cxx">
<polygon fill="none" stroke="black" points="467.5,-174 467.5,-226 600.5,-226 600.5,-174 467.5,-174"/>
<text text-anchor="start" x="475.5" y="-214" font-family="Helvetica,sans-Serif" font-size="10.00">/home/travis/build</text>
<text text-anchor="start" x="475.5" y="-203" font-family="Helvetica,sans-Serif" font-size="10.00">/AliceO2Group/AliceO2</text>
<text text-anchor="start" x="475.5" y="-192" font-family="Helvetica,sans-Serif" font-size="10.00">/Detectors/TPC/simulation</text>
<text text-anchor="middle" x="534" y="-181" font-family="Helvetica,sans-Serif" font-size="10.00">/src/Digitizer.cxx</text>
</a>
</g>
</g>
<!-- Node6&#45;&gt;Node15 -->
<g id="edge14" class="edge"><title>Node6&#45;&gt;Node15</title>
<path fill="none" stroke="midnightblue" d="M694.129,-265.384C667.234,-255 636.708,-243.093 609,-232 604.291,-230.115 599.424,-228.147 594.535,-226.156"/>
<polygon fill="midnightblue" stroke="midnightblue" points="692.891,-268.657 703.48,-268.989 695.409,-262.126 692.891,-268.657"/>
</g>
<!-- Node16 -->
<g id="node16" class="node"><title>Node16</title>
<g id="a_node16"><a xlink:href="../../d1/dd8/SAMPAProcessing_8cxx.html" target="_top" xlink:title="Implementation of the SAMPA response. ">
<polygon fill="none" stroke="black" points="618.5,-174 618.5,-226 757.5,-226 757.5,-174 618.5,-174"/>
<text text-anchor="start" x="626.5" y="-214" font-family="Helvetica,sans-Serif" font-size="10.00">/home/travis/build</text>
<text text-anchor="start" x="626.5" y="-203" font-family="Helvetica,sans-Serif" font-size="10.00">/AliceO2Group/AliceO2</text>
<text text-anchor="start" x="626.5" y="-192" font-family="Helvetica,sans-Serif" font-size="10.00">/Detectors/TPC/simulation</text>
<text text-anchor="middle" x="688" y="-181" font-family="Helvetica,sans-Serif" font-size="10.00">/src/SAMPAProcessing.cxx</text>
</a>
</g>
</g>
<!-- Node6&#45;&gt;Node16 -->
<g id="edge16" class="edge"><title>Node6&#45;&gt;Node16</title>
<path fill="none" stroke="midnightblue" d="M740.153,-260.879C730.169,-249.416 719.152,-236.767 709.826,-226.06"/>
<polygon fill="midnightblue" stroke="midnightblue" points="737.659,-263.345 746.866,-268.587 742.938,-258.748 737.659,-263.345"/>
</g>
<!-- Node8&#45;&gt;Node9 -->
<g id="edge8" class="edge"><title>Node8&#45;&gt;Node9</title>
<path fill="none" stroke="midnightblue" d="M284.307,-167.906C515.501,-118.82 783.56,-108.637 906.042,-106.511"/>
<polygon fill="midnightblue" stroke="midnightblue" points="283.408,-164.519 274.369,-170.045 284.881,-171.362 283.408,-164.519"/>
</g>
<!-- Node10 -->
<g id="node10" class="node"><title>Node10</title>
<g id="a_node10"><a xlink:href="../../d7/d11/macro_2run__digi_8C.html" target="_top" xlink:title="/home/travis/build\l/AliceO2Group/AliceO2\l/macro/run_digi.C">
<polygon fill="none" stroke="black" points="272,-84.5 272,-125.5 390,-125.5 390,-84.5 272,-84.5"/>
<text text-anchor="start" x="280" y="-113.5" font-family="Helvetica,sans-Serif" font-size="10.00">/home/travis/build</text>
<text text-anchor="start" x="280" y="-102.5" font-family="Helvetica,sans-Serif" font-size="10.00">/AliceO2Group/AliceO2</text>
<text text-anchor="middle" x="331" y="-91.5" font-family="Helvetica,sans-Serif" font-size="10.00">/macro/run_digi.C</text>
</a>
</g>
</g>
<!-- Node8&#45;&gt;Node10 -->
<g id="edge9" class="edge"><title>Node8&#45;&gt;Node10</title>
<path fill="none" stroke="midnightblue" d="M248.257,-162.582C266.706,-149.966 286.676,-136.31 302.375,-125.575"/>
<polygon fill="midnightblue" stroke="midnightblue" points="246.187,-159.757 239.908,-168.291 250.139,-165.535 246.187,-159.757"/>
</g>
<!-- Node11 -->
<g id="node11" class="node"><title>Node11</title>
<g id="a_node11"><a xlink:href="../../d9/de3/run__digi__all_8C.html" target="_top" xlink:title="/home/travis/build\l/AliceO2Group/AliceO2\l/macro/run_digi_all.C">
<polygon fill="none" stroke="black" points="0,-84.5 0,-125.5 118,-125.5 118,-84.5 0,-84.5"/>
<text text-anchor="start" x="8" y="-113.5" font-family="Helvetica,sans-Serif" font-size="10.00">/home/travis/build</text>
<text text-anchor="start" x="8" y="-102.5" font-family="Helvetica,sans-Serif" font-size="10.00">/AliceO2Group/AliceO2</text>
<text text-anchor="middle" x="59" y="-91.5" font-family="Helvetica,sans-Serif" font-size="10.00">/macro/run_digi_all.C</text>
</a>
</g>
</g>
<!-- Node8&#45;&gt;Node11 -->
<g id="edge10" class="edge"><title>Node8&#45;&gt;Node11</title>
<path fill="none" stroke="midnightblue" d="M141.743,-162.582C123.294,-149.966 103.324,-136.31 87.6254,-125.575"/>
<polygon fill="midnightblue" stroke="midnightblue" points="139.861,-165.535 150.092,-168.291 143.813,-159.757 139.861,-165.535"/>
</g>
<!-- Node12 -->
<g id="node12" class="node"><title>Node12</title>
<g id="a_node12"><a xlink:href="../../d3/db7/run__digi__tpc_8C.html" target="_top" xlink:title="/home/travis/build\l/AliceO2Group/AliceO2\l/macro/run_digi_tpc.C">
<polygon fill="none" stroke="black" points="136,-84.5 136,-125.5 254,-125.5 254,-84.5 136,-84.5"/>
<text text-anchor="start" x="144" y="-113.5" font-family="Helvetica,sans-Serif" font-size="10.00">/home/travis/build</text>
<text text-anchor="start" x="144" y="-102.5" font-family="Helvetica,sans-Serif" font-size="10.00">/AliceO2Group/AliceO2</text>
<text text-anchor="middle" x="195" y="-91.5" font-family="Helvetica,sans-Serif" font-size="10.00">/macro/run_digi_tpc.C</text>
</a>
</g>
</g>
<!-- Node8&#45;&gt;Node12 -->
<g id="edge11" class="edge"><title>Node8&#45;&gt;Node12</title>
<path fill="none" stroke="midnightblue" d="M195,-158.112C195,-146.807 195,-135.052 195,-125.575"/>
<polygon fill="midnightblue" stroke="midnightblue" points="191.5,-158.291 195,-168.291 198.5,-158.291 191.5,-158.291"/>
</g>
<!-- Node13 -->
<g id="node13" class="node"><title>Node13</title>
<g id="a_node13"><a xlink:href="../../d3/d56/runTPC_8cxx.html" target="_top" xlink:title="/home/travis/build\l/AliceO2Group/AliceO2\l/run/runTPC.cxx">
<polygon fill="none" stroke="black" points="136,-0.5 136,-41.5 254,-41.5 254,-0.5 136,-0.5"/>
<text text-anchor="start" x="144" y="-29.5" font-family="Helvetica,sans-Serif" font-size="10.00">/home/travis/build</text>
<text text-anchor="start" x="144" y="-18.5" font-family="Helvetica,sans-Serif" font-size="10.00">/AliceO2Group/AliceO2</text>
<text text-anchor="middle" x="195" y="-7.5" font-family="Helvetica,sans-Serif" font-size="10.00">/run/runTPC.cxx</text>
</a>
</g>
</g>
<!-- Node12&#45;&gt;Node13 -->
<g id="edge12" class="edge"><title>Node12&#45;&gt;Node13</title>
<path fill="none" stroke="midnightblue" d="M195,-73.881C195,-63.1328 195,-51.309 195,-41.6671"/>
<polygon fill="midnightblue" stroke="midnightblue" points="191.5,-74.1501 195,-84.1501 198.5,-74.1501 191.5,-74.1501"/>
</g>
</g>
</svg>
