<?xml version="1.0" encoding="UTF-8" standalone="no"?>
<!DOCTYPE svg PUBLIC "-//W3C//DTD SVG 1.1//EN"
 "http://www.w3.org/Graphics/SVG/1.1/DTD/svg11.dtd">
<!-- Generated by graphviz version 2.36.0 (20140111.2315)
 -->
<!-- Title: o2::header::DataIdentifier Pages: 1 -->
<!--zoomable 738 -->
<svg id="main" version="1.1" xmlns="http://www.w3.org/2000/svg" xmlns:xlink="http://www.w3.org/1999/xlink" xml:space="preserve" onload="init(evt)">
<style type="text/css"><![CDATA[
.edge:hover path { stroke: red; }
.edge:hover polygon { stroke: red; fill: red; }
]]></style>
<script type="text/javascript"><![CDATA[
var edges = document.getElementsByTagName('g');
if (edges && edges.length) {
  for (var i=0;i<edges.length;i++) {
    if (edges[i].id.substr(0,4)=='edge') {
      edges[i].setAttribute('class','edge');
    }
  }
}
]]></script>
        <defs>
                <circle id="rim" cx="0" cy="0" r="7"/>
                <circle id="rim2" cx="0" cy="0" r="3.5"/>
                <g id="zoomPlus">
                        <use xlink:href="#rim" fill="#404040">
                                <set attributeName="fill" to="#808080" begin="zoomplus.mouseover" end="zoomplus.mouseout"/>
                        </use>
                        <path d="M-4,0h8M0,-4v8" fill="none" stroke="white" stroke-width="1.5" pointer-events="none"/>
                </g>
                <g id="zoomMin">
                        <use xlink:href="#rim" fill="#404040">
                                <set attributeName="fill" to="#808080" begin="zoomminus.mouseover" end="zoomminus.mouseout"/>
                        </use>
                        <path d="M-4,0h8" fill="none" stroke="white" stroke-width="1.5" pointer-events="none"/>
                </g>
                <g id="dirArrow">
                        <path fill="none" stroke="white" stroke-width="1.5" d="M0,-3.0v7 M-2.5,-0.5L0,-3.0L2.5,-0.5"/>
                </g>
               <g id="resetDef">
                       <use xlink:href="#rim2" fill="#404040">
                               <set attributeName="fill" to="#808080" begin="reset.mouseover" end="reset.mouseout"/>
                       </use>
               </g>
        </defs>

<script type="text/javascript">
var viewWidth = 614;
var viewHeight = 738;
var sectionId = 'dynsection-0';
</script>
<script xlink:href="../../svgpan.js"/>
<svg id="graph" class="graph">
<g id="viewport">
<title>o2::header::DataIdentifier</title>
<!-- Node1 -->
<g id="node1" class="node"><title>Node1</title>
<polygon fill="#bfbfbf" stroke="black" points="185.495,-0.5 185.495,-101.5 312.495,-101.5 312.495,-0.5 185.495,-0.5"/>
<text text-anchor="middle" x="248.995" y="-89.5" font-family="Helvetica,sans-Serif" font-size="10.00">o2::header::DataIdentifier</text>
<polyline fill="none" stroke="black" points="185.495,-82.5 312.495,-82.5 "/>
<text text-anchor="middle" x="248.995" y="-70.5" font-family="Helvetica,sans-Serif" font-size="10.00"> </text>
<polyline fill="none" stroke="black" points="185.495,-63.5 312.495,-63.5 "/>
<text text-anchor="start" x="193.495" y="-51.5" font-family="Helvetica,sans-Serif" font-size="10.00">+ DataIdentifier()</text>
<text text-anchor="start" x="193.495" y="-40.5" font-family="Helvetica,sans-Serif" font-size="10.00">+ DataIdentifier()</text>
<text text-anchor="start" x="193.495" y="-29.5" font-family="Helvetica,sans-Serif" font-size="10.00">+ DataIdentifier()</text>
<text text-anchor="start" x="193.495" y="-18.5" font-family="Helvetica,sans-Serif" font-size="10.00">+ operator==()</text>
<text text-anchor="start" x="193.495" y="-7.5" font-family="Helvetica,sans-Serif" font-size="10.00">+ print()</text>
</g>
<!-- Node2 -->
<g id="node2" class="node"><title>Node2</title>
<g id="a_node2"><a xlink:href="../../d9/db3/structo2_1_1header_1_1Descriptor.html" target="_top" xlink:title="{o2::header::Descriptor\l\&lt; gSizeDataOriginString,\l printDataOrigin \&gt;\n||+ Descriptor()\l+ Descriptor()\l+ Descriptor()\l+ Descriptor()\l+ operator=()\l+ operator ItgType()\l+ runtimeInit()\l+ operator==()\l+ operator==()\l+ operator!=()\l+ operator!=()\l+ print()\l}">
<polygon fill="none" stroke="black" points="54.4953,-151 54.4953,-351 179.495,-351 179.495,-151 54.4953,-151"/>
<text text-anchor="start" x="62.4953" y="-339" font-family="Helvetica,sans-Serif" font-size="10.00">o2::header::Descriptor</text>
<text text-anchor="start" x="62.4953" y="-328" font-family="Helvetica,sans-Serif" font-size="10.00">&lt; gSizeDataOriginString,</text>
<text text-anchor="middle" x="116.995" y="-317" font-family="Helvetica,sans-Serif" font-size="10.00"> printDataOrigin &gt;</text>
<polyline fill="none" stroke="black" points="54.4953,-310 179.495,-310 "/>
<text text-anchor="middle" x="116.995" y="-298" font-family="Helvetica,sans-Serif" font-size="10.00"> </text>
<polyline fill="none" stroke="black" points="54.4953,-291 179.495,-291 "/>
<text text-anchor="start" x="62.4953" y="-279" font-family="Helvetica,sans-Serif" font-size="10.00">+ Descriptor()</text>
<text text-anchor="start" x="62.4953" y="-268" font-family="Helvetica,sans-Serif" font-size="10.00">+ Descriptor()</text>
<text text-anchor="start" x="62.4953" y="-257" font-family="Helvetica,sans-Serif" font-size="10.00">+ Descriptor()</text>
<text text-anchor="start" x="62.4953" y="-246" font-family="Helvetica,sans-Serif" font-size="10.00">+ Descriptor()</text>
<text text-anchor="start" x="62.4953" y="-235" font-family="Helvetica,sans-Serif" font-size="10.00">+ operator=()</text>
<text text-anchor="start" x="62.4953" y="-224" font-family="Helvetica,sans-Serif" font-size="10.00">+ operator ItgType()</text>
<text text-anchor="start" x="62.4953" y="-213" font-family="Helvetica,sans-Serif" font-size="10.00">+ runtimeInit()</text>
<text text-anchor="start" x="62.4953" y="-202" font-family="Helvetica,sans-Serif" font-size="10.00">+ operator==()</text>
<text text-anchor="start" x="62.4953" y="-191" font-family="Helvetica,sans-Serif" font-size="10.00">+ operator==()</text>
<text text-anchor="start" x="62.4953" y="-180" font-family="Helvetica,sans-Serif" font-size="10.00">+ operator!=()</text>
<text text-anchor="start" x="62.4953" y="-169" font-family="Helvetica,sans-Serif" font-size="10.00">+ operator!=()</text>
<text text-anchor="start" x="62.4953" y="-158" font-family="Helvetica,sans-Serif" font-size="10.00">+ print()</text>
</a>
</g>
</g>
<!-- Node2&#45;&gt;Node1 -->
<g id="edge1" class="edge"><title>Node2&#45;&gt;Node1</title>
<path fill="none" stroke="#404040" d="M179.516,-156.219C189.651,-141.017 199.895,-125.651 209.289,-111.559"/>
<polygon fill="none" stroke="#404040" points="209.31,-111.528 209.31,-104.317 215.966,-101.544 215.966,-108.755 209.31,-111.528"/>
<text text-anchor="middle" x="229.995" y="-123.5" font-family="Helvetica,sans-Serif" font-size="10.00"> +dataOrigin</text>
</g>
<!-- Node3 -->
<g id="node3" class="node"><title>Node3</title>
<polygon fill="none" stroke="#bfbfbf" points="69.4953,-671 69.4953,-729 98.4953,-729 98.4953,-671 69.4953,-671"/>
<polyline fill="none" stroke="#bfbfbf" points="69.4953,-709 98.4953,-709 "/>
<text text-anchor="middle" x="83.9953" y="-697" font-family="Helvetica,sans-Serif" font-size="10.00"> </text>
<polyline fill="none" stroke="#bfbfbf" points="69.4953,-690 98.4953,-690 "/>
<text text-anchor="middle" x="83.9953" y="-678" font-family="Helvetica,sans-Serif" font-size="10.00"> </text>
</g>
<!-- Node3&#45;&gt;Node2 -->
<g id="edge2" class="edge"><title>Node3&#45;&gt;Node2</title>
<path fill="none" stroke="#404040" d="M69.2353,-683.395C53.0325,-665.087 27.9919,-633.017 17.9953,-600 -6.47537,-519.179 -5.33071,-491.159 17.9953,-410 24.6119,-386.978 35.6752,-364.065 48.0615,-343.12"/>
<polygon fill="none" stroke="#404040" points="48.1823,-342.922 47.8965,-335.716 54.4378,-332.681 54.7235,-339.887 48.1823,-342.922"/>
<text text-anchor="middle" x="30.4953" y="-502.5" font-family="Helvetica,sans-Serif" font-size="10.00"> +@6</text>
</g>
<!-- Node7 -->
<g id="node7" class="node"><title>Node7</title>
<g id="a_node7"><a xlink:href="../../d9/db3/structo2_1_1header_1_1Descriptor.html" target="_top" xlink:title="{o2::header::Descriptor\l\&lt; N, PrinterPolicy \&gt;\n||+ Descriptor()\l+ Descriptor()\l+ Descriptor()\l+ operator=()\l+ operator ItgType()\l+ Descriptor()\l+ runtimeInit()\l+ operator==()\l+ operator!=()\l+ operator==()\l+ operator!=()\l+ print()\l}">
<polygon fill="none" stroke="black" points="220.495,-410.5 220.495,-599.5 333.495,-599.5 333.495,-410.5 220.495,-410.5"/>
<text text-anchor="start" x="228.495" y="-587.5" font-family="Helvetica,sans-Serif" font-size="10.00">o2::header::Descriptor</text>
<text text-anchor="middle" x="276.995" y="-576.5" font-family="Helvetica,sans-Serif" font-size="10.00">&lt; N, PrinterPolicy &gt;</text>
<polyline fill="none" stroke="black" points="220.495,-569.5 333.495,-569.5 "/>
<text text-anchor="middle" x="276.995" y="-557.5" font-family="Helvetica,sans-Serif" font-size="10.00"> </text>
<polyline fill="none" stroke="black" points="220.495,-550.5 333.495,-550.5 "/>
<text text-anchor="start" x="228.495" y="-538.5" font-family="Helvetica,sans-Serif" font-size="10.00">+ Descriptor()</text>
<text text-anchor="start" x="228.495" y="-527.5" font-family="Helvetica,sans-Serif" font-size="10.00">+ Descriptor()</text>
<text text-anchor="start" x="228.495" y="-516.5" font-family="Helvetica,sans-Serif" font-size="10.00">+ Descriptor()</text>
<text text-anchor="start" x="228.495" y="-505.5" font-family="Helvetica,sans-Serif" font-size="10.00">+ operator=()</text>
<text text-anchor="start" x="228.495" y="-494.5" font-family="Helvetica,sans-Serif" font-size="10.00">+ operator ItgType()</text>
<text text-anchor="start" x="228.495" y="-483.5" font-family="Helvetica,sans-Serif" font-size="10.00">+ Descriptor()</text>
<text text-anchor="start" x="228.495" y="-472.5" font-family="Helvetica,sans-Serif" font-size="10.00">+ runtimeInit()</text>
<text text-anchor="start" x="228.495" y="-461.5" font-family="Helvetica,sans-Serif" font-size="10.00">+ operator==()</text>
<text text-anchor="start" x="228.495" y="-450.5" font-family="Helvetica,sans-Serif" font-size="10.00">+ operator!=()</text>
<text text-anchor="start" x="228.495" y="-439.5" font-family="Helvetica,sans-Serif" font-size="10.00">+ operator==()</text>
<text text-anchor="start" x="228.495" y="-428.5" font-family="Helvetica,sans-Serif" font-size="10.00">+ operator!=()</text>
<text text-anchor="start" x="228.495" y="-417.5" font-family="Helvetica,sans-Serif" font-size="10.00">+ print()</text>
</a>
</g>
</g>
<!-- Node3&#45;&gt;Node7 -->
<g id="edge7" class="edge"><title>Node3&#45;&gt;Node7</title>
<path fill="none" stroke="#404040" d="M98.6796,-685.53C116.97,-668.977 149.423,-640.342 178.995,-618 190.503,-609.306 195.501,-609.893 205.995,-600 207.99,-598.119 209.971,-596.178 211.934,-594.187"/>
<polygon fill="none" stroke="#404040" points="212.187,-593.918 213.385,-586.807 220.409,-585.178 219.211,-592.289 212.187,-593.918"/>
<text text-anchor="middle" x="191.495" y="-632.5" font-family="Helvetica,sans-Serif" font-size="10.00"> +@6</text>
</g>
<!-- Node8 -->
<g id="node8" class="node"><title>Node8</title>
<g id="a_node8"><a xlink:href="../../d9/db3/structo2_1_1header_1_1Descriptor.html" target="_top" xlink:title="{o2::header::Descriptor\l\&lt; gSizeDataDescriptionString,\l printDataDescription \&gt;\n||+ Descriptor()\l+ Descriptor()\l+ Descriptor()\l+ Descriptor()\l+ operator=()\l+ operator ItgType()\l+ runtimeInit()\l+ operator==()\l+ operator==()\l+ operator!=()\l+ operator!=()\l+ print()\l}">
<polygon fill="none" stroke="black" points="251.495,-151 251.495,-351 400.495,-351 400.495,-151 251.495,-151"/>
<text text-anchor="start" x="259.495" y="-339" font-family="Helvetica,sans-Serif" font-size="10.00">o2::header::Descriptor</text>
<text text-anchor="start" x="259.495" y="-328" font-family="Helvetica,sans-Serif" font-size="10.00">&lt; gSizeDataDescriptionString,</text>
<text text-anchor="middle" x="325.995" y="-317" font-family="Helvetica,sans-Serif" font-size="10.00"> printDataDescription &gt;</text>
<polyline fill="none" stroke="black" points="251.495,-310 400.495,-310 "/>
<text text-anchor="middle" x="325.995" y="-298" font-family="Helvetica,sans-Serif" font-size="10.00"> </text>
<polyline fill="none" stroke="black" points="251.495,-291 400.495,-291 "/>
<text text-anchor="start" x="259.495" y="-279" font-family="Helvetica,sans-Serif" font-size="10.00">+ Descriptor()</text>
<text text-anchor="start" x="259.495" y="-268" font-family="Helvetica,sans-Serif" font-size="10.00">+ Descriptor()</text>
<text text-anchor="start" x="259.495" y="-257" font-family="Helvetica,sans-Serif" font-size="10.00">+ Descriptor()</text>
<text text-anchor="start" x="259.495" y="-246" font-family="Helvetica,sans-Serif" font-size="10.00">+ Descriptor()</text>
<text text-anchor="start" x="259.495" y="-235" font-family="Helvetica,sans-Serif" font-size="10.00">+ operator=()</text>
<text text-anchor="start" x="259.495" y="-224" font-family="Helvetica,sans-Serif" font-size="10.00">+ operator ItgType()</text>
<text text-anchor="start" x="259.495" y="-213" font-family="Helvetica,sans-Serif" font-size="10.00">+ runtimeInit()</text>
<text text-anchor="start" x="259.495" y="-202" font-family="Helvetica,sans-Serif" font-size="10.00">+ operator==()</text>
<text text-anchor="start" x="259.495" y="-191" font-family="Helvetica,sans-Serif" font-size="10.00">+ operator==()</text>
<text text-anchor="start" x="259.495" y="-180" font-family="Helvetica,sans-Serif" font-size="10.00">+ operator!=()</text>
<text text-anchor="start" x="259.495" y="-169" font-family="Helvetica,sans-Serif" font-size="10.00">+ operator!=()</text>
<text text-anchor="start" x="259.495" y="-158" font-family="Helvetica,sans-Serif" font-size="10.00">+ print()</text>
</a>
</g>
</g>
<!-- Node3&#45;&gt;Node8 -->
<g id="edge12" class="edge"><title>Node3&#45;&gt;Node8</title>
<path fill="none" stroke="#404040" d="M88.923,-670.815C101.414,-600 133.965,-419.564 142.995,-410 164.458,-387.269 184.691,-408.896 210.995,-392 219.543,-386.51 231.098,-374.877 243.6,-360.551"/>
<polygon fill="none" stroke="#404040" points="243.695,-360.44 244.549,-353.279 251.488,-351.314 250.633,-358.474 243.695,-360.44"/>
<text text-anchor="middle" x="155.495" y="-502.5" font-family="Helvetica,sans-Serif" font-size="10.00"> +@6</text>
</g>
<!-- Node4 -->
<g id="node4" class="node"><title>Node4</title>
<polygon fill="none" stroke="#bfbfbf" points="162.995,-671.5 162.995,-728.5 200.995,-728.5 200.995,-671.5 162.995,-671.5"/>
<text text-anchor="middle" x="181.995" y="-716.5" font-family="Helvetica,sans-Serif" font-size="10.00">Type</text>
<polyline fill="none" stroke="#bfbfbf" points="162.995,-709.5 200.995,-709.5 "/>
<text text-anchor="middle" x="181.995" y="-697.5" font-family="Helvetica,sans-Serif" font-size="10.00"> </text>
<polyline fill="none" stroke="#bfbfbf" points="162.995,-690.5 200.995,-690.5 "/>
<text text-anchor="middle" x="181.995" y="-678.5" font-family="Helvetica,sans-Serif" font-size="10.00"> </text>
</g>
<!-- Node4&#45;&gt;Node2 -->
<g id="edge3" class="edge"><title>Node4&#45;&gt;Node2</title>
<path fill="none" stroke="#404040" d="M175.04,-671.286C169.246,-653.651 159.256,-631.644 142.995,-618 120.36,-599.007 96.8377,-623.553 78.9953,-600 28.3097,-533.093 43.3738,-437.09 67.9964,-362.86"/>
<polygon fill="none" stroke="#404040" points="68.1233,-362.49 66.2894,-355.516 72.0216,-351.141 73.8555,-358.115 68.1233,-362.49"/>
<text text-anchor="middle" x="88.9953" y="-502.5" font-family="Helvetica,sans-Serif" font-size="10.00"> +itg</text>
</g>
<!-- Node4&#45;&gt;Node7 -->
<g id="edge8" class="edge"><title>Node4&#45;&gt;Node7</title>
<path fill="none" stroke="#404040" d="M195.606,-671.348C203.631,-655.045 214.348,-633.273 225.363,-610.894"/>
<polygon fill="none" stroke="#404040" points="225.485,-610.647 224.546,-603.497 230.785,-599.881 231.724,-607.03 225.485,-610.647"/>
<text text-anchor="middle" x="230.995" y="-632.5" font-family="Helvetica,sans-Serif" font-size="10.00"> +itg</text>
</g>
<!-- Node4&#45;&gt;Node8 -->
<g id="edge13" class="edge"><title>Node4&#45;&gt;Node8</title>
<path fill="none" stroke="#404040" d="M179.087,-671.35C172.936,-607.325 161.472,-451.217 190.995,-410 204.263,-391.478 221.376,-406.446 238.995,-392 249.887,-383.07 259.806,-372.398 268.725,-360.986"/>
<polygon fill="none" stroke="#404040" points="268.811,-360.869 269.188,-353.668 275.98,-351.246 275.604,-358.448 268.811,-360.869"/>
<text text-anchor="middle" x="200.995" y="-502.5" font-family="Helvetica,sans-Serif" font-size="10.00"> +itg</text>
</g>
<!-- Node5 -->
<g id="node5" class="node"><title>Node5</title>
<polygon fill="none" stroke="#bfbfbf" points="352.495,-671.5 352.495,-728.5 387.495,-728.5 387.495,-671.5 352.495,-671.5"/>
<text text-anchor="middle" x="369.995" y="-716.5" font-family="Helvetica,sans-Serif" font-size="10.00">char</text>
<polyline fill="none" stroke="#bfbfbf" points="352.495,-709.5 387.495,-709.5 "/>
<text text-anchor="middle" x="369.995" y="-697.5" font-family="Helvetica,sans-Serif" font-size="10.00"> </text>
<polyline fill="none" stroke="#bfbfbf" points="352.495,-690.5 387.495,-690.5 "/>
<text text-anchor="middle" x="369.995" y="-678.5" font-family="Helvetica,sans-Serif" font-size="10.00"> </text>
</g>
<!-- Node5&#45;&gt;Node2 -->
<g id="edge4" class="edge"><title>Node5&#45;&gt;Node2</title>
<path fill="none" stroke="#404040" d="M375.097,-671.26C383.614,-616.46 394.977,-492.496 341.995,-410 335.054,-399.192 252.595,-359.254 241.995,-352 224.453,-339.994 206.234,-326.236 189.31,-312.844"/>
<polygon fill="none" stroke="#404040" points="188.886,-312.505 181.702,-311.887 179.509,-305.017 186.694,-305.635 188.886,-312.505"/>
<text text-anchor="middle" x="393.495" y="-502.5" font-family="Helvetica,sans-Serif" font-size="10.00"> +str</text>
</g>
<!-- Node5&#45;&gt;Node7 -->
<g id="edge9" class="edge"><title>Node5&#45;&gt;Node7</title>
<path fill="none" stroke="#404040" d="M352.269,-697.226C326.987,-693.637 281.381,-682.99 260.995,-652 253.058,-639.934 249.416,-626.06 248.558,-611.769"/>
<polygon fill="none" stroke="#404040" points="248.557,-611.696 244.508,-605.73 248.458,-599.697 252.508,-605.663 248.557,-611.696"/>
<text text-anchor="middle" x="271.495" y="-632.5" font-family="Helvetica,sans-Serif" font-size="10.00"> +str</text>
</g>
<!-- Node5&#45;&gt;Node8 -->
<g id="edge14" class="edge"><title>Node5&#45;&gt;Node8</title>
<path fill="none" stroke="#404040" d="M387.928,-683.23C419.488,-655.467 481.677,-600.706 481.995,-600 516.695,-523.015 511.129,-489.26 481.995,-410 467.954,-371.801 438.961,-338.236 409.737,-311.98"/>
<polygon fill="none" stroke="#404040" points="409.716,-311.961 402.566,-311.028 400.677,-304.069 407.827,-305.002 409.716,-311.961"/>
<text text-anchor="middle" x="515.495" y="-502.5" font-family="Helvetica,sans-Serif" font-size="10.00"> +str</text>
</g>
<!-- Node6 -->
<g id="node6" class="node"><title>Node6</title>
<polygon fill="none" stroke="#bfbfbf" points="412.495,-671.5 412.495,-728.5 441.495,-728.5 441.495,-671.5 412.495,-671.5"/>
<text text-anchor="middle" x="426.995" y="-716.5" font-family="Helvetica,sans-Serif" font-size="10.00">int</text>
<polyline fill="none" stroke="#bfbfbf" points="412.495,-709.5 441.495,-709.5 "/>
<text text-anchor="middle" x="426.995" y="-697.5" font-family="Helvetica,sans-Serif" font-size="10.00"> </text>
<polyline fill="none" stroke="#bfbfbf" points="412.495,-690.5 441.495,-690.5 "/>
<text text-anchor="middle" x="426.995" y="-678.5" font-family="Helvetica,sans-Serif" font-size="10.00"> </text>
</g>
<!-- Node6&#45;&gt;Node2 -->
<g id="edge5" class="edge"><title>Node6&#45;&gt;Node2</title>
<path fill="none" stroke="#404040" d="M426.65,-671.298C425.552,-602.889 421.189,-430.029 404.995,-410 387.223,-388.019 369.682,-403.8 343.995,-392 327.64,-384.487 326.455,-377.282 309.995,-370 281.405,-357.351 269.914,-366.068 241.995,-352 223.738,-342.8 205.652,-330.631 189.146,-317.957"/>
<polygon fill="none" stroke="#404040" points="189.048,-317.88 181.86,-317.311 179.621,-310.456 186.81,-311.026 189.048,-317.88"/>
<text text-anchor="middle" x="450.495" y="-513.5" font-family="Helvetica,sans-Serif" font-size="10.00"> +arraySize</text>
<text text-anchor="middle" x="450.495" y="-502.5" font-family="Helvetica,sans-Serif" font-size="10.00">+size</text>
<text text-anchor="middle" x="450.495" y="-491.5" font-family="Helvetica,sans-Serif" font-size="10.00">+bitcount</text>
</g>
<!-- Node6&#45;&gt;Node7 -->
<g id="edge10" class="edge"><title>Node6&#45;&gt;Node7</title>
<path fill="none" stroke="#404040" d="M412.241,-683.691C407.313,-679.001 401.636,-674.022 395.995,-670 382.074,-660.073 374.327,-663.844 361.995,-652 349.277,-639.784 337.844,-625.253 327.794,-610.168"/>
<polygon fill="none" stroke="#404040" points="327.534,-609.761 320.928,-606.868 321.059,-599.658 327.664,-602.551 327.534,-609.761"/>
<text text-anchor="middle" x="387.495" y="-643.5" font-family="Helvetica,sans-Serif" font-size="10.00"> +arraySize</text>
<text text-anchor="middle" x="387.495" y="-632.5" font-family="Helvetica,sans-Serif" font-size="10.00">+size</text>
<text text-anchor="middle" x="387.495" y="-621.5" font-family="Helvetica,sans-Serif" font-size="10.00">+bitcount</text>
</g>
<!-- Node6&#45;&gt;Node8 -->
<g id="edge15" class="edge"><title>Node6&#45;&gt;Node8</title>
<path fill="none" stroke="#404040" d="M441.833,-690.362C465.737,-675.473 511.92,-642.445 529.995,-600 563.082,-522.307 565.416,-486.657 529.995,-410 506.163,-358.423 455.872,-319.17 411.19,-292.689"/>
<polygon fill="none" stroke="#404040" points="410.964,-292.559 403.769,-293.029 400.568,-286.567 407.764,-286.098 410.964,-292.559"/>
<text text-anchor="middle" x="580.495" y="-513.5" font-family="Helvetica,sans-Serif" font-size="10.00"> +arraySize</text>
<text text-anchor="middle" x="580.495" y="-502.5" font-family="Helvetica,sans-Serif" font-size="10.00">+size</text>
<text text-anchor="middle" x="580.495" y="-491.5" font-family="Helvetica,sans-Serif" font-size="10.00">+bitcount</text>
</g>
<!-- Node7&#45;&gt;Node2 -->
<g id="edge6" class="edge"><title>Node7&#45;&gt;Node2</title>
<path fill="none" stroke="orange" d="M212.332,-414.601C210.259,-412.988 208.147,-411.45 205.995,-410 180.429,-392.764 159.606,-414.933 138.995,-392 128.634,-380.471 122.04,-366.138 117.987,-351.079"/>
<polygon fill="orange" stroke="orange" points="210.22,-417.398 220.122,-421.166 214.731,-412.045 210.22,-417.398"/>
<text text-anchor="start" x="138.995" y="-384" font-family="Helvetica,sans-Serif" font-size="10.00"> &lt; gSizeDataOriginString,</text>
<text text-anchor="middle" x="194.995" y="-373" font-family="Helvetica,sans-Serif" font-size="10.00"> printDataOrigin &gt;</text>
</g>
<!-- Node7&#45;&gt;Node8 -->
<g id="edge16" class="edge"><title>Node7&#45;&gt;Node8</title>
<path fill="none" stroke="orange" d="M302.261,-400.51C302.858,-397.645 303.438,-394.805 303.995,-392 306.609,-378.848 309.108,-364.951 311.421,-351.222"/>
<polygon fill="orange" stroke="orange" points="298.832,-399.808 300.168,-410.318 305.678,-401.269 298.832,-399.808"/>
<text text-anchor="start" x="307.995" y="-384" font-family="Helvetica,sans-Serif" font-size="10.00"> &lt; gSizeDataDescriptionString,</text>
<text text-anchor="middle" x="375.995" y="-373" font-family="Helvetica,sans-Serif" font-size="10.00"> printDataDescription &gt;</text>
</g>
<!-- Node8&#45;&gt;Node1 -->
<g id="edge11" class="edge"><title>Node8&#45;&gt;Node1</title>
<path fill="none" stroke="#404040" d="M287.382,-150.71C282.349,-137.767 277.319,-124.831 272.635,-112.787"/>
<polygon fill="none" stroke="#404040" points="272.611,-112.725 266.708,-108.583 268.261,-101.541 274.164,-105.683 272.611,-112.725"/>
<text text-anchor="middle" x="317.995" y="-123.5" font-family="Helvetica,sans-Serif" font-size="10.00"> +dataDescription</text>
</g>
</g>
</svg>
        <g id="navigator" transform="translate(0 0)" fill="#404254">
                <rect fill="#f2f5e9" fill-opacity="0.5" stroke="#606060" stroke-width=".5" x="0" y="0" width="60" height="60"/>
                <use id="zoomplus" xlink:href="#zoomPlus" x="17" y="9" onmousedown="handleZoom(evt,'in')"/>
                <use id="zoomminus" xlink:href="#zoomMin" x="42" y="9" onmousedown="handleZoom(evt,'out')"/>
                <use id="reset" xlink:href="#resetDef" x="30" y="36" onmousedown="handleReset()"/>
                <g id="arrowUp" xlink:href="#dirArrow" transform="translate(30 24)" onmousedown="handlePan(0,-1)">
                  <use xlink:href="#rim" fill="#404040">
                        <set attributeName="fill" to="#808080" begin="arrowUp.mouseover" end="arrowUp.mouseout"/>
                  </use>
                  <path fill="none" stroke="white" stroke-width="1.5" d="M0,-3.0v7 M-2.5,-0.5L0,-3.0L2.5,-0.5"/>
                </g>
                <g id="arrowRight" xlink:href="#dirArrow" transform="rotate(90) translate(36 -43)" onmousedown="handlePan(1,0)">
                  <use xlink:href="#rim" fill="#404040">
                        <set attributeName="fill" to="#808080" begin="arrowRight.mouseover" end="arrowRight.mouseout"/>
                  </use>
                  <path fill="none" stroke="white" stroke-width="1.5" d="M0,-3.0v7 M-2.5,-0.5L0,-3.0L2.5,-0.5"/>
                </g>
                <g id="arrowDown" xlink:href="#dirArrow" transform="rotate(180) translate(-30 -48)" onmousedown="handlePan(0,1)">
                  <use xlink:href="#rim" fill="#404040">
                        <set attributeName="fill" to="#808080" begin="arrowDown.mouseover" end="arrowDown.mouseout"/>
                  </use>
                  <path fill="none" stroke="white" stroke-width="1.5" d="M0,-3.0v7 M-2.5,-0.5L0,-3.0L2.5,-0.5"/>
                </g>
                <g id="arrowLeft" xlink:href="#dirArrow" transform="rotate(270) translate(-36 17)" onmousedown="handlePan(-1,0)">
                  <use xlink:href="#rim" fill="#404040">
                        <set attributeName="fill" to="#808080" begin="arrowLeft.mouseover" end="arrowLeft.mouseout"/>
                  </use>
                  <path fill="none" stroke="white" stroke-width="1.5" d="M0,-3.0v7 M-2.5,-0.5L0,-3.0L2.5,-0.5"/>
                </g>
        </g>
        <svg viewBox="0 0 15 15" width="100%" height="30px" preserveAspectRatio="xMaxYMin meet">
         <g id="arrow_out" transform="scale(0.3 0.3)">
          <a xlink:href="structo2_1_1header_1_1DataIdentifier__coll__graph_org.svg" target="_base">
           <rect id="button" ry="5" rx="5" y="6" x="6" height="38" width="38"
                fill="#f2f5e9" fill-opacity="0.5" stroke="#606060" stroke-width="1.0"/>
           <path id="arrow"
             d="M 11.500037,31.436501 C 11.940474,20.09759 22.043105,11.32322 32.158766,21.979434 L 37.068811,17.246167 C 37.068811,17.246167 37.088388,32 37.088388,32 L 22.160133,31.978069 C 22.160133,31.978069 26.997745,27.140456 26.997745,27.140456 C 18.528582,18.264221 13.291696,25.230495 11.500037,31.436501 z"
             style="fill:#404040;"/>
          </a>
         </g>
        </svg>
</svg>
