<?xml version="1.0" encoding="UTF-8" standalone="no"?>
<!DOCTYPE svg PUBLIC "-//W3C//DTD SVG 1.1//EN"
 "http://www.w3.org/Graphics/SVG/1.1/DTD/svg11.dtd">
<!-- Generated by graphviz version 2.36.0 (20140111.2315)
 -->
<!-- Title: /home/travis/build/AliceO2Group/AliceO2/Detectors/EMCAL/simulation/include/EMCALSimulation/Detector.h Pages: 1 -->
<svg width="1887pt" height="378pt"
 viewBox="0.00 0.00 1887.00 378.00" xmlns="http://www.w3.org/2000/svg" xmlns:xlink="http://www.w3.org/1999/xlink">
<g id="graph0" class="graph" transform="scale(1 1) rotate(0) translate(4 374)">
<title>/home/travis/build/AliceO2Group/AliceO2/Detectors/EMCAL/simulation/include/EMCALSimulation/Detector.h</title>
<!-- Node1 -->
<g id="node1" class="node"><title>Node1</title>
<polygon fill="#bfbfbf" stroke="black" points="848,-317 848,-369 1030,-369 1030,-317 848,-317"/>
<text text-anchor="start" x="856" y="-357" font-family="Helvetica,sans-Serif" font-size="10.00">/home/travis/build</text>
<text text-anchor="start" x="856" y="-346" font-family="Helvetica,sans-Serif" font-size="10.00">/AliceO2Group/AliceO2</text>
<text text-anchor="start" x="856" y="-335" font-family="Helvetica,sans-Serif" font-size="10.00">/Detectors/EMCAL/simulation</text>
<text text-anchor="middle" x="939" y="-324" font-family="Helvetica,sans-Serif" font-size="10.00">/include/EMCALSimulation/Detector.h</text>
</g>
<!-- Node2 -->
<g id="node2" class="node"><title>Node2</title>
<g id="a_node2"><a xlink:href="../../d1/d3a/Base_2include_2DetectorsBase_2Detector_8h.html" target="_top" xlink:title="DetectorsBase/Detector.h">
<polygon fill="none" stroke="black" points="459.5,-260.5 459.5,-279.5 590.5,-279.5 590.5,-260.5 459.5,-260.5"/>
<text text-anchor="middle" x="525" y="-267.5" font-family="Helvetica,sans-Serif" font-size="10.00">DetectorsBase/Detector.h</text>
</a>
</g>
</g>
<!-- Node1&#45;&gt;Node2 -->
<g id="edge1" class="edge"><title>Node1&#45;&gt;Node2</title>
<path fill="none" stroke="midnightblue" d="M847.89,-326.375C767.954,-312.666 653.998,-293.123 585.02,-281.293"/>
<polygon fill="midnightblue" stroke="midnightblue" points="585.211,-277.775 574.763,-279.534 584.028,-284.674 585.211,-277.775"/>
</g>
<!-- Node4 -->
<g id="node4" class="node"><title>Node4</title>
<polygon fill="none" stroke="#bfbfbf" points="0,-198.5 0,-217.5 44,-217.5 44,-198.5 0,-198.5"/>
<text text-anchor="middle" x="22" y="-205.5" font-family="Helvetica,sans-Serif" font-size="10.00">vector</text>
</g>
<!-- Node1&#45;&gt;Node4 -->
<g id="edge32" class="edge"><title>Node1&#45;&gt;Node4</title>
<path fill="none" stroke="midnightblue" d="M847.801,-333.701C689.858,-318.397 355.676,-281.898 78,-224 70.1899,-222.372 61.8475,-220.313 54.0512,-218.248"/>
<polygon fill="midnightblue" stroke="midnightblue" points="54.776,-214.818 44.2075,-215.564 52.9345,-221.571 54.776,-214.818"/>
</g>
<!-- Node9 -->
<g id="node9" class="node"><title>Node9</title>
<polygon fill="none" stroke="#bfbfbf" points="514,-74.5 514,-93.5 570,-93.5 570,-74.5 514,-74.5"/>
<text text-anchor="middle" x="542" y="-81.5" font-family="Helvetica,sans-Serif" font-size="10.00">Rtypes.h</text>
</g>
<!-- Node1&#45;&gt;Node9 -->
<g id="edge31" class="edge"><title>Node1&#45;&gt;Node9</title>
<path fill="none" stroke="midnightblue" d="M931.845,-316.915C920.553,-278.94 897.935,-209.426 879,-192 776.382,-97.5588 710.415,-146.688 579,-100 576.6,-99.1472 574.126,-98.2302 571.65,-97.2849"/>
<polygon fill="midnightblue" stroke="midnightblue" points="572.82,-93.9844 562.233,-93.5752 570.254,-100.497 572.82,-93.9844"/>
</g>
<!-- Node14 -->
<g id="node14" class="node"><title>Node14</title>
<g id="a_node14"><a xlink:href="../../d5/d8b/EMCAL_2base_2include_2EMCALBase_2Hit_8h.html" target="_top" xlink:title="EMCALBase/Hit.h">
<polygon fill="none" stroke="black" points="931,-260.5 931,-279.5 1029,-279.5 1029,-260.5 931,-260.5"/>
<text text-anchor="middle" x="980" y="-267.5" font-family="Helvetica,sans-Serif" font-size="10.00">EMCALBase/Hit.h</text>
</a>
</g>
</g>
<!-- Node1&#45;&gt;Node14 -->
<g id="edge15" class="edge"><title>Node1&#45;&gt;Node14</title>
<path fill="none" stroke="midnightblue" d="M953.571,-316.768C958.989,-307.385 965.012,-296.955 969.938,-288.425"/>
<polygon fill="midnightblue" stroke="midnightblue" points="972.973,-290.167 974.943,-279.757 966.911,-286.667 972.973,-290.167"/>
</g>
<!-- Node16 -->
<g id="node16" class="node"><title>Node16</title>
<g id="a_node16"><a xlink:href="../../dd/d76/Cartesian3D_8h.html" target="_top" xlink:title="MathUtils/Cartesian3D.h">
<polygon fill="none" stroke="black" points="1006.5,-136.5 1006.5,-155.5 1131.5,-155.5 1131.5,-136.5 1006.5,-136.5"/>
<text text-anchor="middle" x="1069" y="-143.5" font-family="Helvetica,sans-Serif" font-size="10.00">MathUtils/Cartesian3D.h</text>
</a>
</g>
</g>
<!-- Node1&#45;&gt;Node16 -->
<g id="edge29" class="edge"><title>Node1&#45;&gt;Node16</title>
<path fill="none" stroke="midnightblue" d="M994.595,-316.963C1010.36,-307.435 1026.16,-295.141 1037,-280 1061.92,-245.195 1067.61,-193.466 1068.8,-165.901"/>
<polygon fill="midnightblue" stroke="midnightblue" points="1072.3,-165.777 1069.07,-155.687 1065.31,-165.589 1072.3,-165.777"/>
</g>
<!-- Node27 -->
<g id="node27" class="node"><title>Node27</title>
<polygon fill="none" stroke="#bfbfbf" points="1097,-260.5 1097,-279.5 1177,-279.5 1177,-260.5 1097,-260.5"/>
<text text-anchor="middle" x="1137" y="-267.5" font-family="Helvetica,sans-Serif" font-size="10.00">RStringView.h</text>
</g>
<!-- Node1&#45;&gt;Node27 -->
<g id="edge30" class="edge"><title>Node1&#45;&gt;Node27</title>
<path fill="none" stroke="midnightblue" d="M1008.81,-316.968C1040.85,-305.478 1077.37,-292.381 1103.22,-283.114"/>
<polygon fill="midnightblue" stroke="midnightblue" points="1104.68,-286.309 1112.91,-279.639 1102.31,-279.72 1104.68,-286.309"/>
</g>
<!-- Node3 -->
<g id="node3" class="node"><title>Node3</title>
<polygon fill="none" stroke="#bfbfbf" points="266.5,-136.5 266.5,-155.5 301.5,-155.5 301.5,-136.5 266.5,-136.5"/>
<text text-anchor="middle" x="284" y="-143.5" font-family="Helvetica,sans-Serif" font-size="10.00">map</text>
</g>
<!-- Node2&#45;&gt;Node3 -->
<g id="edge2" class="edge"><title>Node2&#45;&gt;Node3</title>
<path fill="none" stroke="midnightblue" d="M459.049,-266.932C343.688,-262.629 115.159,-250.793 91,-224 42.0153,-169.674 191.712,-153.1 256.083,-148.556"/>
<polygon fill="midnightblue" stroke="midnightblue" points="256.594,-152.031 266.343,-147.884 256.136,-145.046 256.594,-152.031"/>
</g>
<!-- Node2&#45;&gt;Node4 -->
<g id="edge3" class="edge"><title>Node2&#45;&gt;Node4</title>
<path fill="none" stroke="midnightblue" d="M459.371,-268.803C368.039,-267.154 198.047,-259.079 58,-224 55.0095,-223.251 51.944,-222.294 48.9248,-221.226"/>
<polygon fill="midnightblue" stroke="midnightblue" points="50.1736,-217.957 39.5862,-217.56 47.6155,-224.473 50.1736,-217.957"/>
</g>
<!-- Node5 -->
<g id="node5" class="node"><title>Node5</title>
<polygon fill="none" stroke="#bfbfbf" points="100,-198.5 100,-217.5 152,-217.5 152,-198.5 100,-198.5"/>
<text text-anchor="middle" x="126" y="-205.5" font-family="Helvetica,sans-Serif" font-size="10.00">memory</text>
</g>
<!-- Node2&#45;&gt;Node5 -->
<g id="edge4" class="edge"><title>Node2&#45;&gt;Node5</title>
<path fill="none" stroke="midnightblue" d="M459.168,-266.432C385.429,-262.279 262.887,-251.535 161,-224 158.34,-223.281 155.617,-222.398 152.924,-221.425"/>
<polygon fill="midnightblue" stroke="midnightblue" points="154.043,-218.102 143.459,-217.627 151.437,-224.599 154.043,-218.102"/>
</g>
<!-- Node6 -->
<g id="node6" class="node"><title>Node6</title>
<polygon fill="none" stroke="#bfbfbf" points="170.5,-198.5 170.5,-217.5 249.5,-217.5 249.5,-198.5 170.5,-198.5"/>
<text text-anchor="middle" x="210" y="-205.5" font-family="Helvetica,sans-Serif" font-size="10.00">FairDetector.h</text>
</g>
<!-- Node2&#45;&gt;Node6 -->
<g id="edge5" class="edge"><title>Node2&#45;&gt;Node6</title>
<path fill="none" stroke="midnightblue" d="M460.573,-260.486C406.41,-252.76 327.14,-240.122 259,-224 254.595,-222.958 250.006,-221.738 245.48,-220.451"/>
<polygon fill="midnightblue" stroke="midnightblue" points="246.35,-217.058 235.767,-217.572 244.36,-223.77 246.35,-217.058"/>
</g>
<!-- Node7 -->
<g id="node7" class="node"><title>Node7</title>
<polygon fill="none" stroke="#bfbfbf" points="268,-198.5 268,-217.5 368,-217.5 368,-198.5 268,-198.5"/>
<text text-anchor="middle" x="318" y="-205.5" font-family="Helvetica,sans-Serif" font-size="10.00">FairRootManager.h</text>
</g>
<!-- Node2&#45;&gt;Node7 -->
<g id="edge6" class="edge"><title>Node2&#45;&gt;Node7</title>
<path fill="none" stroke="midnightblue" d="M495.342,-260.403C459.066,-249.889 397.536,-232.054 357.336,-220.402"/>
<polygon fill="midnightblue" stroke="midnightblue" points="358.182,-217.003 347.603,-217.581 356.233,-223.726 358.182,-217.003"/>
</g>
<!-- Node8 -->
<g id="node8" class="node"><title>Node8</title>
<g id="a_node8"><a xlink:href="../../d0/d9a/MaterialManager_8h.html" target="_top" xlink:title="DetectorsBase/MaterialManager.h">
<polygon fill="none" stroke="black" points="386.5,-198.5 386.5,-217.5 551.5,-217.5 551.5,-198.5 386.5,-198.5"/>
<text text-anchor="middle" x="469" y="-205.5" font-family="Helvetica,sans-Serif" font-size="10.00">DetectorsBase/MaterialManager.h</text>
</a>
</g>
</g>
<!-- Node2&#45;&gt;Node8 -->
<g id="edge7" class="edge"><title>Node2&#45;&gt;Node8</title>
<path fill="none" stroke="midnightblue" d="M516.977,-260.403C508.41,-251.225 494.639,-236.47 484.043,-225.117"/>
<polygon fill="midnightblue" stroke="midnightblue" points="486.39,-222.503 477.009,-217.581 481.273,-227.279 486.39,-222.503"/>
</g>
<!-- Node2&#45;&gt;Node9 -->
<g id="edge10" class="edge"><title>Node2&#45;&gt;Node9</title>
<path fill="none" stroke="midnightblue" d="M534.556,-260.45C543.088,-252.12 554.989,-238.604 560,-224 574.292,-182.346 559.381,-130.118 549.414,-103.084"/>
<polygon fill="midnightblue" stroke="midnightblue" points="552.666,-101.791 545.786,-93.734 546.14,-104.323 552.666,-101.791"/>
</g>
<!-- Node10 -->
<g id="node10" class="node"><title>Node10</title>
<polygon fill="none" stroke="#bfbfbf" points="608.5,-198.5 608.5,-217.5 661.5,-217.5 661.5,-198.5 608.5,-198.5"/>
<text text-anchor="middle" x="635" y="-205.5" font-family="Helvetica,sans-Serif" font-size="10.00">cxxabi.h</text>
</g>
<!-- Node2&#45;&gt;Node10 -->
<g id="edge11" class="edge"><title>Node2&#45;&gt;Node10</title>
<path fill="none" stroke="midnightblue" d="M540.76,-260.403C558.976,-250.468 589.173,-233.997 610.468,-222.381"/>
<polygon fill="midnightblue" stroke="midnightblue" points="612.166,-225.442 619.269,-217.581 608.814,-219.297 612.166,-225.442"/>
</g>
<!-- Node11 -->
<g id="node11" class="node"><title>Node11</title>
<polygon fill="none" stroke="#bfbfbf" points="679.5,-198.5 679.5,-217.5 730.5,-217.5 730.5,-198.5 679.5,-198.5"/>
<text text-anchor="middle" x="705" y="-205.5" font-family="Helvetica,sans-Serif" font-size="10.00">typeinfo</text>
</g>
<!-- Node2&#45;&gt;Node11 -->
<g id="edge12" class="edge"><title>Node2&#45;&gt;Node11</title>
<path fill="none" stroke="midnightblue" d="M555.861,-260.433C585.429,-251.987 631.168,-238.303 670,-224 672.117,-223.22 674.291,-222.382 676.47,-221.514"/>
<polygon fill="midnightblue" stroke="midnightblue" points="677.988,-224.674 685.889,-217.616 675.311,-218.207 677.988,-224.674"/>
</g>
<!-- Node12 -->
<g id="node12" class="node"><title>Node12</title>
<polygon fill="none" stroke="#bfbfbf" points="749,-198.5 749,-217.5 811,-217.5 811,-198.5 749,-198.5"/>
<text text-anchor="middle" x="780" y="-205.5" font-family="Helvetica,sans-Serif" font-size="10.00">type_traits</text>
</g>
<!-- Node2&#45;&gt;Node12 -->
<g id="edge13" class="edge"><title>Node2&#45;&gt;Node12</title>
<path fill="none" stroke="midnightblue" d="M575.657,-260.467C619.338,-252.607 683.889,-239.787 739,-224 742.206,-223.082 745.521,-222.036 748.813,-220.933"/>
<polygon fill="midnightblue" stroke="midnightblue" points="750.217,-224.15 758.488,-217.528 747.893,-217.547 750.217,-224.15"/>
</g>
<!-- Node13 -->
<g id="node13" class="node"><title>Node13</title>
<polygon fill="none" stroke="#bfbfbf" points="829.5,-198.5 829.5,-217.5 870.5,-217.5 870.5,-198.5 829.5,-198.5"/>
<text text-anchor="middle" x="850" y="-205.5" font-family="Helvetica,sans-Serif" font-size="10.00">string</text>
</g>
<!-- Node2&#45;&gt;Node13 -->
<g id="edge14" class="edge"><title>Node2&#45;&gt;Node13</title>
<path fill="none" stroke="midnightblue" d="M590.78,-264.578C651.209,-259.199 742.692,-247.711 819,-224 821.134,-223.337 823.306,-222.548 825.458,-221.683"/>
<polygon fill="midnightblue" stroke="midnightblue" points="826.917,-224.865 834.601,-217.571 824.045,-218.481 826.917,-224.865"/>
</g>
<!-- Node8&#45;&gt;Node3 -->
<g id="edge9" class="edge"><title>Node8&#45;&gt;Node3</title>
<path fill="none" stroke="midnightblue" d="M442.494,-198.403C407.575,-187.078 346.476,-167.262 311.21,-155.825"/>
<polygon fill="midnightblue" stroke="midnightblue" points="312.163,-152.455 301.571,-152.699 310.004,-159.113 312.163,-152.455"/>
</g>
<!-- Node8&#45;&gt;Node9 -->
<g id="edge8" class="edge"><title>Node8&#45;&gt;Node9</title>
<path fill="none" stroke="midnightblue" d="M474.25,-198.226C486.246,-178.178 515.845,-128.71 531.655,-102.289"/>
<polygon fill="midnightblue" stroke="midnightblue" points="534.666,-104.073 536.798,-93.6944 528.66,-100.478 534.666,-104.073"/>
</g>
<!-- Node15 -->
<g id="node15" class="node"><title>Node15</title>
<g id="a_node15"><a xlink:href="../../d4/d25/BaseHits_8h.html" target="_top" xlink:title="SimulationDataFormat\l/BaseHits.h">
<polygon fill="none" stroke="black" points="927,-193 927,-223 1041,-223 1041,-193 927,-193"/>
<text text-anchor="start" x="935" y="-211" font-family="Helvetica,sans-Serif" font-size="10.00">SimulationDataFormat</text>
<text text-anchor="middle" x="984" y="-200" font-family="Helvetica,sans-Serif" font-size="10.00">/BaseHits.h</text>
</a>
</g>
</g>
<!-- Node14&#45;&gt;Node15 -->
<g id="edge16" class="edge"><title>Node14&#45;&gt;Node15</title>
<path fill="none" stroke="midnightblue" d="M980.573,-260.403C981.044,-253.341 981.735,-242.975 982.373,-233.399"/>
<polygon fill="midnightblue" stroke="midnightblue" points="985.884,-233.352 983.057,-223.141 978.9,-232.886 985.884,-233.352"/>
</g>
<!-- Node15&#45;&gt;Node16 -->
<g id="edge17" class="edge"><title>Node15&#45;&gt;Node16</title>
<path fill="none" stroke="midnightblue" d="M1004.14,-192.781C1017.59,-183.286 1035.22,-170.843 1048.7,-161.327"/>
<polygon fill="midnightblue" stroke="midnightblue" points="1050.73,-164.182 1056.88,-155.556 1046.69,-158.463 1050.73,-164.182"/>
</g>
<!-- Node16&#45;&gt;Node9 -->
<g id="edge23" class="edge"><title>Node16&#45;&gt;Node9</title>
<path fill="none" stroke="midnightblue" d="M1006.5,-141.548C893.244,-134.913 658.484,-119.314 579,-100 575.933,-99.2548 572.787,-98.3002 569.687,-97.2343"/>
<polygon fill="midnightblue" stroke="midnightblue" points="570.682,-93.868 560.092,-93.5698 568.185,-100.407 570.682,-93.868"/>
</g>
<!-- Node17 -->
<g id="node17" class="node"><title>Node17</title>
<polygon fill="none" stroke="#bfbfbf" points="588.5,-69 588.5,-99 739.5,-99 739.5,-69 588.5,-69"/>
<text text-anchor="start" x="596.5" y="-87" font-family="Helvetica,sans-Serif" font-size="10.00">Math/GenVector/Displacement</text>
<text text-anchor="middle" x="664" y="-76" font-family="Helvetica,sans-Serif" font-size="10.00">Vector3D.h</text>
</g>
<!-- Node16&#45;&gt;Node17 -->
<g id="edge18" class="edge"><title>Node16&#45;&gt;Node17</title>
<path fill="none" stroke="midnightblue" d="M1006.36,-136.85C943.986,-128.585 845.245,-115.101 749.656,-100.07"/>
<polygon fill="midnightblue" stroke="midnightblue" points="749.945,-96.5721 739.521,-98.4684 748.852,-103.486 749.945,-96.5721"/>
</g>
<!-- Node18 -->
<g id="node18" class="node"><title>Node18</title>
<polygon fill="none" stroke="#bfbfbf" points="758,-74.5 758,-93.5 934,-93.5 934,-74.5 758,-74.5"/>
<text text-anchor="middle" x="846" y="-81.5" font-family="Helvetica,sans-Serif" font-size="10.00">Math/GenVector/PositionVector3D.h</text>
</g>
<!-- Node16&#45;&gt;Node18 -->
<g id="edge19" class="edge"><title>Node16&#45;&gt;Node18</title>
<path fill="none" stroke="midnightblue" d="M1037.05,-136.403C997.721,-125.822 930.84,-107.827 887.553,-96.1802"/>
<polygon fill="midnightblue" stroke="midnightblue" points="888.457,-92.799 877.891,-93.5806 886.638,-99.5586 888.457,-92.799"/>
</g>
<!-- Node19 -->
<g id="node19" class="node"><title>Node19</title>
<polygon fill="none" stroke="#bfbfbf" points="951.5,-74.5 951.5,-93.5 1100.5,-93.5 1100.5,-74.5 951.5,-74.5"/>
<text text-anchor="middle" x="1026" y="-81.5" font-family="Helvetica,sans-Serif" font-size="10.00">Math/GenVector/Rotation3D.h</text>
</g>
<!-- Node16&#45;&gt;Node19 -->
<g id="edge20" class="edge"><title>Node16&#45;&gt;Node19</title>
<path fill="none" stroke="midnightblue" d="M1062.84,-136.403C1056.39,-127.403 1046.1,-113.041 1038.03,-101.782"/>
<polygon fill="midnightblue" stroke="midnightblue" points="1040.82,-99.6699 1032.15,-93.5806 1035.13,-103.748 1040.82,-99.6699"/>
</g>
<!-- Node20 -->
<g id="node20" class="node"><title>Node20</title>
<polygon fill="none" stroke="#bfbfbf" points="1119,-74.5 1119,-93.5 1275,-93.5 1275,-74.5 1119,-74.5"/>
<text text-anchor="middle" x="1197" y="-81.5" font-family="Helvetica,sans-Serif" font-size="10.00">Math/GenVector/Transform3D.h</text>
</g>
<!-- Node16&#45;&gt;Node20 -->
<g id="edge21" class="edge"><title>Node16&#45;&gt;Node20</title>
<path fill="none" stroke="midnightblue" d="M1087.34,-136.403C1108.82,-126.334 1144.62,-109.552 1169.45,-97.9151"/>
<polygon fill="midnightblue" stroke="midnightblue" points="1171.13,-100.994 1178.69,-93.5806 1168.15,-94.6559 1171.13,-100.994"/>
</g>
<!-- Node21 -->
<g id="node21" class="node"><title>Node21</title>
<polygon fill="none" stroke="#bfbfbf" points="1293,-74.5 1293,-93.5 1453,-93.5 1453,-74.5 1293,-74.5"/>
<text text-anchor="middle" x="1373" y="-81.5" font-family="Helvetica,sans-Serif" font-size="10.00">Math/GenVector/Translation3D.h</text>
</g>
<!-- Node16&#45;&gt;Node21 -->
<g id="edge22" class="edge"><title>Node16&#45;&gt;Node21</title>
<path fill="none" stroke="midnightblue" d="M1112.23,-136.467C1166.93,-125.671 1261.1,-107.086 1320.05,-95.4501"/>
<polygon fill="midnightblue" stroke="midnightblue" points="1320.78,-98.8736 1329.92,-93.5034 1319.43,-92.006 1320.78,-98.8736"/>
</g>
<!-- Node22 -->
<g id="node22" class="node"><title>Node22</title>
<polygon fill="none" stroke="#bfbfbf" points="1471,-74.5 1471,-93.5 1547,-93.5 1547,-74.5 1471,-74.5"/>
<text text-anchor="middle" x="1509" y="-81.5" font-family="Helvetica,sans-Serif" font-size="10.00">TGeoMatrix.h</text>
</g>
<!-- Node16&#45;&gt;Node22 -->
<g id="edge24" class="edge"><title>Node16&#45;&gt;Node22</title>
<path fill="none" stroke="midnightblue" d="M1131.55,-141.608C1209.6,-136.516 1346.85,-124.721 1462,-100 1466.45,-99.0438 1471.09,-97.8374 1475.63,-96.5261"/>
<polygon fill="midnightblue" stroke="midnightblue" points="1476.8,-99.8275 1485.33,-93.5443 1474.75,-93.1363 1476.8,-99.8275"/>
</g>
<!-- Node23 -->
<g id="node23" class="node"><title>Node23</title>
<polygon fill="none" stroke="#bfbfbf" points="1565,-74.5 1565,-93.5 1619,-93.5 1619,-74.5 1565,-74.5"/>
<text text-anchor="middle" x="1592" y="-81.5" font-family="Helvetica,sans-Serif" font-size="10.00">iostream</text>
</g>
<!-- Node16&#45;&gt;Node23 -->
<g id="edge25" class="edge"><title>Node16&#45;&gt;Node23</title>
<path fill="none" stroke="midnightblue" d="M1131.5,-145.216C1225.16,-144.203 1406.85,-137.048 1556,-100 1558.99,-99.2568 1562.06,-98.3035 1565.08,-97.2383"/>
<polygon fill="midnightblue" stroke="midnightblue" points="1566.39,-100.485 1574.42,-93.5748 1563.83,-93.9684 1566.39,-100.485"/>
</g>
<!-- Node24 -->
<g id="node24" class="node"><title>Node24</title>
<g id="a_node24"><a xlink:href="../../d2/dd0/Cartesian2D_8h.html" target="_top" xlink:title="MathUtils/Cartesian2D.h">
<polygon fill="none" stroke="black" points="1637.5,-74.5 1637.5,-93.5 1762.5,-93.5 1762.5,-74.5 1637.5,-74.5"/>
<text text-anchor="middle" x="1700" y="-81.5" font-family="Helvetica,sans-Serif" font-size="10.00">MathUtils/Cartesian2D.h</text>
</a>
</g>
</g>
<!-- Node16&#45;&gt;Node24 -->
<g id="edge26" class="edge"><title>Node16&#45;&gt;Node24</title>
<path fill="none" stroke="midnightblue" d="M1131.74,-142.511C1235.46,-137.823 1448.99,-125.749 1628,-100 1636.36,-98.7979 1645.2,-97.216 1653.72,-95.5308"/>
<polygon fill="midnightblue" stroke="midnightblue" points="1654.43,-98.9575 1663.53,-93.5215 1653.03,-92.1 1654.43,-98.9575"/>
</g>
<!-- Node25 -->
<g id="node25" class="node"><title>Node25</title>
<polygon fill="none" stroke="#bfbfbf" points="1533.5,-1 1533.5,-31 1684.5,-31 1684.5,-1 1533.5,-1"/>
<text text-anchor="start" x="1541.5" y="-19" font-family="Helvetica,sans-Serif" font-size="10.00">Math/GenVector/Displacement</text>
<text text-anchor="middle" x="1609" y="-8" font-family="Helvetica,sans-Serif" font-size="10.00">Vector2D.h</text>
</g>
<!-- Node24&#45;&gt;Node25 -->
<g id="edge27" class="edge"><title>Node24&#45;&gt;Node25</title>
<path fill="none" stroke="midnightblue" d="M1688.1,-74.3717C1675.22,-65.0286 1654.22,-49.7966 1637.09,-37.375"/>
<polygon fill="midnightblue" stroke="midnightblue" points="1638.7,-34.2194 1628.55,-31.1815 1634.59,-39.8859 1638.7,-34.2194"/>
</g>
<!-- Node26 -->
<g id="node26" class="node"><title>Node26</title>
<polygon fill="none" stroke="#bfbfbf" points="1703,-6.5 1703,-25.5 1879,-25.5 1879,-6.5 1703,-6.5"/>
<text text-anchor="middle" x="1791" y="-13.5" font-family="Helvetica,sans-Serif" font-size="10.00">Math/GenVector/PositionVector2D.h</text>
</g>
<!-- Node24&#45;&gt;Node26 -->
<g id="edge28" class="edge"><title>Node24&#45;&gt;Node26</title>
<path fill="none" stroke="midnightblue" d="M1711.9,-74.3717C1726.88,-63.5015 1752.86,-44.6602 1770.94,-31.5474"/>
<polygon fill="midnightblue" stroke="midnightblue" points="1773.06,-34.3349 1779.1,-25.6305 1768.95,-28.6684 1773.06,-34.3349"/>
</g>
</g>
</svg>
