<?xml version="1.0" encoding="UTF-8" standalone="no"?>
<!DOCTYPE svg PUBLIC "-//W3C//DTD SVG 1.1//EN"
 "http://www.w3.org/Graphics/SVG/1.1/DTD/svg11.dtd">
<!-- Generated by graphviz version 2.36.0 (20140111.2315)
 -->
<!-- Title: /home/travis/build/AliceO2Group/AliceO2/Detectors/ITSMFT/ITS/reconstruction/include/ITSReconstruction/CA/Label.h Pages: 1 -->
<svg width="429pt" height="272pt"
 viewBox="0.00 0.00 429.00 272.00" xmlns="http://www.w3.org/2000/svg" xmlns:xlink="http://www.w3.org/1999/xlink">
<g id="graph0" class="graph" transform="scale(1 1) rotate(0) translate(4 268)">
<title>/home/travis/build/AliceO2Group/AliceO2/Detectors/ITSMFT/ITS/reconstruction/include/ITSReconstruction/CA/Label.h</title>
<!-- Node1 -->
<g id="node1" class="node"><title>Node1</title>
<polygon fill="#bfbfbf" stroke="black" points="204.5,-200.5 204.5,-263.5 357.5,-263.5 357.5,-200.5 204.5,-200.5"/>
<text text-anchor="start" x="212.5" y="-251.5" font-family="Helvetica,sans-Serif" font-size="10.00">/home/travis/build</text>
<text text-anchor="start" x="212.5" y="-240.5" font-family="Helvetica,sans-Serif" font-size="10.00">/AliceO2Group/AliceO2</text>
<text text-anchor="start" x="212.5" y="-229.5" font-family="Helvetica,sans-Serif" font-size="10.00">/Detectors/ITSMFT/ITS</text>
<text text-anchor="start" x="212.5" y="-218.5" font-family="Helvetica,sans-Serif" font-size="10.00">/reconstruction/include</text>
<text text-anchor="middle" x="281" y="-207.5" font-family="Helvetica,sans-Serif" font-size="10.00">/ITSReconstruction/CA/Label.h</text>
</g>
<!-- Node2 -->
<g id="node2" class="node"><title>Node2</title>
<g id="a_node2"><a xlink:href="../../d7/dba/IOUtils_8h.html" target="_top" xlink:title="/home/travis/build\l/AliceO2Group/AliceO2\l/Detectors/ITSMFT/ITS\l/reconstruction/include\l/ITSReconstruction/CA/IOUtils.h">
<polygon fill="none" stroke="black" points="121.5,-100.5 121.5,-163.5 282.5,-163.5 282.5,-100.5 121.5,-100.5"/>
<text text-anchor="start" x="129.5" y="-151.5" font-family="Helvetica,sans-Serif" font-size="10.00">/home/travis/build</text>
<text text-anchor="start" x="129.5" y="-140.5" font-family="Helvetica,sans-Serif" font-size="10.00">/AliceO2Group/AliceO2</text>
<text text-anchor="start" x="129.5" y="-129.5" font-family="Helvetica,sans-Serif" font-size="10.00">/Detectors/ITSMFT/ITS</text>
<text text-anchor="start" x="129.5" y="-118.5" font-family="Helvetica,sans-Serif" font-size="10.00">/reconstruction/include</text>
<text text-anchor="middle" x="202" y="-107.5" font-family="Helvetica,sans-Serif" font-size="10.00">/ITSReconstruction/CA/IOUtils.h</text>
</a>
</g>
</g>
<!-- Node1&#45;&gt;Node2 -->
<g id="edge1" class="edge"><title>Node1&#45;&gt;Node2</title>
<path fill="none" stroke="midnightblue" d="M249.885,-192.401C242.184,-182.849 234.038,-172.744 226.691,-163.63"/>
<polygon fill="midnightblue" stroke="midnightblue" points="247.22,-194.672 256.221,-200.261 252.67,-190.279 247.22,-194.672"/>
</g>
<!-- Node6 -->
<g id="node6" class="node"><title>Node6</title>
<g id="a_node6"><a xlink:href="../../d5/d9f/Label_8cxx.html" target="_top" xlink:title="/home/travis/build\l/AliceO2Group/AliceO2\l/Detectors/ITSMFT/ITS\l/reconstruction/src/CA\l/Label.cxx">
<polygon fill="none" stroke="black" points="301,-100.5 301,-163.5 421,-163.5 421,-100.5 301,-100.5"/>
<text text-anchor="start" x="309" y="-151.5" font-family="Helvetica,sans-Serif" font-size="10.00">/home/travis/build</text>
<text text-anchor="start" x="309" y="-140.5" font-family="Helvetica,sans-Serif" font-size="10.00">/AliceO2Group/AliceO2</text>
<text text-anchor="start" x="309" y="-129.5" font-family="Helvetica,sans-Serif" font-size="10.00">/Detectors/ITSMFT/ITS</text>
<text text-anchor="start" x="309" y="-118.5" font-family="Helvetica,sans-Serif" font-size="10.00">/reconstruction/src/CA</text>
<text text-anchor="middle" x="361" y="-107.5" font-family="Helvetica,sans-Serif" font-size="10.00">/Label.cxx</text>
</a>
</g>
</g>
<!-- Node1&#45;&gt;Node6 -->
<g id="edge5" class="edge"><title>Node1&#45;&gt;Node6</title>
<path fill="none" stroke="midnightblue" d="M312.509,-192.401C320.307,-182.849 328.556,-172.744 335.996,-163.63"/>
<polygon fill="midnightblue" stroke="midnightblue" points="309.705,-190.301 306.093,-200.261 315.128,-194.728 309.705,-190.301"/>
</g>
<!-- Node3 -->
<g id="node3" class="node"><title>Node3</title>
<g id="a_node3"><a xlink:href="../../d5/d1a/IOUtils_8cxx.html" target="_top" xlink:title="/home/travis/build\l/AliceO2Group/AliceO2\l/Detectors/ITSMFT/ITS\l/reconstruction/src/CA\l/IOUtils.cxx">
<polygon fill="none" stroke="black" points="0,-0.5 0,-63.5 120,-63.5 120,-0.5 0,-0.5"/>
<text text-anchor="start" x="8" y="-51.5" font-family="Helvetica,sans-Serif" font-size="10.00">/home/travis/build</text>
<text text-anchor="start" x="8" y="-40.5" font-family="Helvetica,sans-Serif" font-size="10.00">/AliceO2Group/AliceO2</text>
<text text-anchor="start" x="8" y="-29.5" font-family="Helvetica,sans-Serif" font-size="10.00">/Detectors/ITSMFT/ITS</text>
<text text-anchor="start" x="8" y="-18.5" font-family="Helvetica,sans-Serif" font-size="10.00">/reconstruction/src/CA</text>
<text text-anchor="middle" x="60" y="-7.5" font-family="Helvetica,sans-Serif" font-size="10.00">/IOUtils.cxx</text>
</a>
</g>
</g>
<!-- Node2&#45;&gt;Node3 -->
<g id="edge2" class="edge"><title>Node2&#45;&gt;Node3</title>
<path fill="none" stroke="midnightblue" d="M148.965,-94.3984C134.287,-84.2683 118.512,-73.3816 104.382,-63.6299"/>
<polygon fill="midnightblue" stroke="midnightblue" points="147.242,-97.4616 157.46,-100.261 151.218,-91.7004 147.242,-97.4616"/>
</g>
<!-- Node4 -->
<g id="node4" class="node"><title>Node4</title>
<g id="a_node4"><a xlink:href="../../d6/db2/run__trac__ca__its_8C.html" target="_top" xlink:title="/home/travis/build\l/AliceO2Group/AliceO2\l/macro/run_trac_ca_its.C">
<polygon fill="none" stroke="black" points="138.5,-11.5 138.5,-52.5 265.5,-52.5 265.5,-11.5 138.5,-11.5"/>
<text text-anchor="start" x="146.5" y="-40.5" font-family="Helvetica,sans-Serif" font-size="10.00">/home/travis/build</text>
<text text-anchor="start" x="146.5" y="-29.5" font-family="Helvetica,sans-Serif" font-size="10.00">/AliceO2Group/AliceO2</text>
<text text-anchor="middle" x="202" y="-18.5" font-family="Helvetica,sans-Serif" font-size="10.00">/macro/run_trac_ca_its.C</text>
</a>
</g>
</g>
<!-- Node2&#45;&gt;Node4 -->
<g id="edge3" class="edge"><title>Node2&#45;&gt;Node4</title>
<path fill="none" stroke="midnightblue" d="M202,-90.0737C202,-77.0719 202,-63.2903 202,-52.5274"/>
<polygon fill="midnightblue" stroke="midnightblue" points="198.5,-90.261 202,-100.261 205.5,-90.2611 198.5,-90.261"/>
</g>
<!-- Node5 -->
<g id="node5" class="node"><title>Node5</title>
<g id="a_node5"><a xlink:href="../../d4/da9/run__vert__ca__its_8C.html" target="_top" xlink:title="/home/travis/build\l/AliceO2Group/AliceO2\l/macro/run_vert_ca_its.C">
<polygon fill="none" stroke="black" points="283.5,-11.5 283.5,-52.5 410.5,-52.5 410.5,-11.5 283.5,-11.5"/>
<text text-anchor="start" x="291.5" y="-40.5" font-family="Helvetica,sans-Serif" font-size="10.00">/home/travis/build</text>
<text text-anchor="start" x="291.5" y="-29.5" font-family="Helvetica,sans-Serif" font-size="10.00">/AliceO2Group/AliceO2</text>
<text text-anchor="middle" x="347" y="-18.5" font-family="Helvetica,sans-Serif" font-size="10.00">/macro/run_vert_ca_its.C</text>
</a>
</g>
</g>
<!-- Node2&#45;&gt;Node5 -->
<g id="edge4" class="edge"><title>Node2&#45;&gt;Node5</title>
<path fill="none" stroke="midnightblue" d="M256.036,-94.4789C277.09,-80.2495 300.369,-64.5158 318.107,-52.5274"/>
<polygon fill="midnightblue" stroke="midnightblue" points="253.806,-91.7616 247.481,-100.261 257.726,-97.5612 253.806,-91.7616"/>
</g>
</g>
</svg>
