<?xml version="1.0" encoding="UTF-8" standalone="no"?>
<!DOCTYPE svg PUBLIC "-//W3C//DTD SVG 1.1//EN"
 "http://www.w3.org/Graphics/SVG/1.1/DTD/svg11.dtd">
<!-- Generated by graphviz version 2.36.0 (20140111.2315)
 -->
<!-- Title: /home/travis/build/AliceO2Group/AliceO2/Detectors/TPC/simulation/include/TPCSimulation/PadResponse.h Pages: 1 -->
<svg width="1359pt" height="590pt"
 viewBox="0.00 0.00 1359.00 590.00" xmlns="http://www.w3.org/2000/svg" xmlns:xlink="http://www.w3.org/1999/xlink">
<g id="graph0" class="graph" transform="scale(1 1) rotate(0) translate(4 586)">
<title>/home/travis/build/AliceO2Group/AliceO2/Detectors/TPC/simulation/include/TPCSimulation/PadResponse.h</title>
<!-- Node1 -->
<g id="node1" class="node"><title>Node1</title>
<polygon fill="#bfbfbf" stroke="black" points="440,-529 440,-581 632,-581 632,-529 440,-529"/>
<text text-anchor="start" x="448" y="-569" font-family="Helvetica,sans-Serif" font-size="10.00">/home/travis/build</text>
<text text-anchor="start" x="448" y="-558" font-family="Helvetica,sans-Serif" font-size="10.00">/AliceO2Group/AliceO2</text>
<text text-anchor="start" x="448" y="-547" font-family="Helvetica,sans-Serif" font-size="10.00">/Detectors/TPC/simulation</text>
<text text-anchor="middle" x="536" y="-536" font-family="Helvetica,sans-Serif" font-size="10.00">/include/TPCSimulation/PadResponse.h</text>
</g>
<!-- Node2 -->
<g id="node2" class="node"><title>Node2</title>
<polygon fill="none" stroke="#bfbfbf" points="449,-472.5 449,-491.5 519,-491.5 519,-472.5 449,-472.5"/>
<text text-anchor="middle" x="484" y="-479.5" font-family="Helvetica,sans-Serif" font-size="10.00">TGraph2D.h</text>
</g>
<!-- Node1&#45;&gt;Node2 -->
<g id="edge1" class="edge"><title>Node1&#45;&gt;Node2</title>
<path fill="none" stroke="midnightblue" d="M517.52,-528.768C510.501,-519.183 502.681,-508.506 496.361,-499.877"/>
<polygon fill="midnightblue" stroke="midnightblue" points="499.146,-497.757 490.414,-491.757 493.499,-501.893 499.146,-497.757"/>
</g>
<!-- Node3 -->
<g id="node3" class="node"><title>Node3</title>
<g id="a_node3"><a xlink:href="../../d7/d2c/Mapper_8h.html" target="_top" xlink:title="TPCBase/Mapper.h">
<polygon fill="none" stroke="black" points="537.5,-472.5 537.5,-491.5 640.5,-491.5 640.5,-472.5 537.5,-472.5"/>
<text text-anchor="middle" x="589" y="-479.5" font-family="Helvetica,sans-Serif" font-size="10.00">TPCBase/Mapper.h</text>
</a>
</g>
</g>
<!-- Node1&#45;&gt;Node3 -->
<g id="edge2" class="edge"><title>Node1&#45;&gt;Node3</title>
<path fill="none" stroke="midnightblue" d="M554.835,-528.768C561.99,-519.183 569.96,-508.506 576.402,-499.877"/>
<polygon fill="midnightblue" stroke="midnightblue" points="579.286,-501.864 582.463,-491.757 573.676,-497.677 579.286,-501.864"/>
</g>
<!-- Node4 -->
<g id="node4" class="node"><title>Node4</title>
<polygon fill="none" stroke="#bfbfbf" points="189.5,-416.5 189.5,-435.5 224.5,-435.5 224.5,-416.5 189.5,-416.5"/>
<text text-anchor="middle" x="207" y="-423.5" font-family="Helvetica,sans-Serif" font-size="10.00">map</text>
</g>
<!-- Node3&#45;&gt;Node4 -->
<g id="edge3" class="edge"><title>Node3&#45;&gt;Node4</title>
<path fill="none" stroke="midnightblue" d="M537.427,-473.307C534.238,-472.858 531.076,-472.418 528,-472 399.744,-454.553 365.881,-461.594 239,-436 237.55,-435.708 236.07,-435.384 234.58,-435.037"/>
<polygon fill="midnightblue" stroke="midnightblue" points="235.382,-431.629 224.825,-432.524 233.636,-438.408 235.382,-431.629"/>
</g>
<!-- Node5 -->
<g id="node5" class="node"><title>Node5</title>
<polygon fill="none" stroke="#bfbfbf" points="427,-360.5 427,-379.5 471,-379.5 471,-360.5 427,-360.5"/>
<text text-anchor="middle" x="449" y="-367.5" font-family="Helvetica,sans-Serif" font-size="10.00">vector</text>
</g>
<!-- Node3&#45;&gt;Node5 -->
<g id="edge4" class="edge"><title>Node3&#45;&gt;Node5</title>
<path fill="none" stroke="midnightblue" d="M537.464,-474.216C511.946,-468.249 482.681,-457.043 464,-436 452.837,-423.426 449.511,-404.207 448.724,-389.925"/>
<polygon fill="midnightblue" stroke="midnightblue" points="452.22,-389.684 448.535,-379.751 445.221,-389.814 452.22,-389.684"/>
</g>
<!-- Node6 -->
<g id="node6" class="node"><title>Node6</title>
<polygon fill="none" stroke="#bfbfbf" points="281,-416.5 281,-435.5 319,-435.5 319,-416.5 281,-416.5"/>
<text text-anchor="middle" x="300" y="-423.5" font-family="Helvetica,sans-Serif" font-size="10.00">array</text>
</g>
<!-- Node3&#45;&gt;Node6 -->
<g id="edge5" class="edge"><title>Node3&#45;&gt;Node6</title>
<path fill="none" stroke="midnightblue" d="M537.499,-473C477.304,-463.506 380.329,-447.732 329.09,-435.934"/>
<polygon fill="midnightblue" stroke="midnightblue" points="329.719,-432.486 319.178,-433.556 328.085,-439.292 329.719,-432.486"/>
</g>
<!-- Node7 -->
<g id="node7" class="node"><title>Node7</title>
<polygon fill="none" stroke="#bfbfbf" points="337.5,-416.5 337.5,-435.5 378.5,-435.5 378.5,-416.5 337.5,-416.5"/>
<text text-anchor="middle" x="358" y="-423.5" font-family="Helvetica,sans-Serif" font-size="10.00">string</text>
</g>
<!-- Node3&#45;&gt;Node7 -->
<g id="edge6" class="edge"><title>Node3&#45;&gt;Node7</title>
<path fill="none" stroke="midnightblue" d="M550.623,-472.499C511.058,-463.662 447.617,-449.289 393,-436 391.552,-435.648 390.072,-435.283 388.577,-434.912"/>
<polygon fill="midnightblue" stroke="midnightblue" points="389.258,-431.474 378.706,-432.419 387.544,-438.261 389.258,-431.474"/>
</g>
<!-- Node8 -->
<g id="node8" class="node"><title>Node8</title>
<polygon fill="none" stroke="#bfbfbf" points="473,-136.5 473,-155.5 517,-155.5 517,-136.5 473,-136.5"/>
<text text-anchor="middle" x="495" y="-143.5" font-family="Helvetica,sans-Serif" font-size="10.00">cmath</text>
</g>
<!-- Node3&#45;&gt;Node8 -->
<g id="edge7" class="edge"><title>Node3&#45;&gt;Node8</title>
<path fill="none" stroke="midnightblue" d="M537.419,-473.365C534.232,-472.901 531.073,-472.443 528,-472 471.139,-463.807 315.452,-473.58 272,-436 249.235,-416.311 253,-401.098 253,-371 253,-371 253,-371 253,-257 253,-166.069 396.353,-149.948 462.394,-147.347"/>
<polygon fill="midnightblue" stroke="midnightblue" points="462.781,-150.836 472.667,-147.027 462.563,-143.84 462.781,-150.836"/>
</g>
<!-- Node9 -->
<g id="node9" class="node"><title>Node9</title>
<g id="a_node9"><a xlink:href="../../d1/d73/Defs_8h.html" target="_top" xlink:title="Common definitions for 2D coordinates. ">
<polygon fill="none" stroke="black" points="798,-192.5 798,-211.5 924,-211.5 924,-192.5 798,-192.5"/>
<text text-anchor="middle" x="861" y="-199.5" font-family="Helvetica,sans-Serif" font-size="10.00">DataFormatsTPC/Defs.h</text>
</a>
</g>
</g>
<!-- Node3&#45;&gt;Node9 -->
<g id="edge8" class="edge"><title>Node3&#45;&gt;Node9</title>
<path fill="none" stroke="midnightblue" d="M640.885,-480.438C768.436,-477.659 1087,-461.645 1087,-371 1087,-371 1087,-371 1087,-313 1087,-243.788 1000.25,-218.114 934.241,-208.597"/>
<polygon fill="midnightblue" stroke="midnightblue" points="934.631,-205.118 924.254,-207.255 933.699,-212.055 934.631,-205.118"/>
</g>
<!-- Node22 -->
<g id="node22" class="node"><title>Node22</title>
<g id="a_node22"><a xlink:href="../../de/d41/PadPos_8h.html" target="_top" xlink:title="TPCBase/PadPos.h">
<polygon fill="none" stroke="black" points="654.5,-304.5 654.5,-323.5 759.5,-323.5 759.5,-304.5 654.5,-304.5"/>
<text text-anchor="middle" x="707" y="-311.5" font-family="Helvetica,sans-Serif" font-size="10.00">TPCBase/PadPos.h</text>
</a>
</g>
</g>
<!-- Node3&#45;&gt;Node22 -->
<g id="edge23" class="edge"><title>Node3&#45;&gt;Node22</title>
<path fill="none" stroke="midnightblue" d="M602.845,-472.372C626.266,-456.97 673.359,-422.352 696,-380 703.672,-365.648 706.215,-347.187 706.96,-333.609"/>
<polygon fill="midnightblue" stroke="midnightblue" points="710.46,-333.641 707.236,-323.549 703.463,-333.449 710.46,-333.641"/>
</g>
<!-- Node23 -->
<g id="node23" class="node"><title>Node23</title>
<g id="a_node23"><a xlink:href="../../dd/d0b/PadSecPos_8h.html" target="_top" xlink:title="TPCBase/PadSecPos.h">
<polygon fill="none" stroke="black" points="565,-360.5 565,-379.5 687,-379.5 687,-360.5 565,-360.5"/>
<text text-anchor="middle" x="626" y="-367.5" font-family="Helvetica,sans-Serif" font-size="10.00">TPCBase/PadSecPos.h</text>
</a>
</g>
</g>
<!-- Node3&#45;&gt;Node23 -->
<g id="edge24" class="edge"><title>Node3&#45;&gt;Node23</title>
<path fill="none" stroke="midnightblue" d="M595.994,-472.276C602.548,-463.608 612.055,-449.671 617,-436 622.395,-421.085 624.584,-403.169 625.458,-389.927"/>
<polygon fill="midnightblue" stroke="midnightblue" points="628.966,-389.838 625.936,-379.686 621.974,-389.512 628.966,-389.838"/>
</g>
<!-- Node24 -->
<g id="node24" class="node"><title>Node24</title>
<g id="a_node24"><a xlink:href="../../d3/dd6/Sector_8h.html" target="_top" xlink:title="TPCBase/Sector.h">
<polygon fill="none" stroke="black" points="688.5,-248.5 688.5,-267.5 787.5,-267.5 787.5,-248.5 688.5,-248.5"/>
<text text-anchor="middle" x="738" y="-255.5" font-family="Helvetica,sans-Serif" font-size="10.00">TPCBase/Sector.h</text>
</a>
</g>
</g>
<!-- Node3&#45;&gt;Node24 -->
<g id="edge50" class="edge"><title>Node3&#45;&gt;Node24</title>
<path fill="none" stroke="midnightblue" d="M537.395,-473.639C509.134,-467.46 474.902,-456.235 450,-436 421.557,-412.887 396.333,-389.559 418,-360 449.027,-317.671 594.892,-284.895 678.577,-269.192"/>
<polygon fill="midnightblue" stroke="midnightblue" points="679.266,-272.624 688.462,-267.363 677.992,-265.741 679.266,-272.624"/>
</g>
<!-- Node26 -->
<g id="node26" class="node"><title>Node26</title>
<g id="a_node26"><a xlink:href="../../da/d61/PadROCPos_8h.html" target="_top" xlink:title="TPCBase/PadROCPos.h">
<polygon fill="none" stroke="black" points="893,-360.5 893,-379.5 1021,-379.5 1021,-360.5 893,-360.5"/>
<text text-anchor="middle" x="957" y="-367.5" font-family="Helvetica,sans-Serif" font-size="10.00">TPCBase/PadROCPos.h</text>
</a>
</g>
</g>
<!-- Node3&#45;&gt;Node26 -->
<g id="edge29" class="edge"><title>Node3&#45;&gt;Node26</title>
<path fill="none" stroke="midnightblue" d="M640.672,-478.911C696.521,-475.188 787.29,-464.828 860,-436 890.421,-423.939 921.048,-401.241 939.524,-386.119"/>
<polygon fill="midnightblue" stroke="midnightblue" points="941.918,-388.679 947.338,-379.576 937.424,-383.312 941.918,-388.679"/>
</g>
<!-- Node28 -->
<g id="node28" class="node"><title>Node28</title>
<g id="a_node28"><a xlink:href="../../d3/d54/DigitPos_8h.html" target="_top" xlink:title="TPCBase/DigitPos.h">
<polygon fill="none" stroke="black" points="743,-416.5 743,-435.5 851,-435.5 851,-416.5 743,-416.5"/>
<text text-anchor="middle" x="797" y="-423.5" font-family="Helvetica,sans-Serif" font-size="10.00">TPCBase/DigitPos.h</text>
</a>
</g>
</g>
<!-- Node3&#45;&gt;Node28 -->
<g id="edge35" class="edge"><title>Node3&#45;&gt;Node28</title>
<path fill="none" stroke="midnightblue" d="M621.958,-472.444C657.787,-463.142 715.163,-448.246 754.391,-438.062"/>
<polygon fill="midnightblue" stroke="midnightblue" points="755.396,-441.417 764.196,-435.516 753.637,-434.642 755.396,-441.417"/>
</g>
<!-- Node30 -->
<g id="node30" class="node"><title>Node30</title>
<g id="a_node30"><a xlink:href="../../d1/d1f/FECInfo_8h.html" target="_top" xlink:title="TPCBase/FECInfo.h">
<polygon fill="none" stroke="black" points="1203.5,-248.5 1203.5,-267.5 1310.5,-267.5 1310.5,-248.5 1203.5,-248.5"/>
<text text-anchor="middle" x="1257" y="-255.5" font-family="Helvetica,sans-Serif" font-size="10.00">TPCBase/FECInfo.h</text>
</a>
</g>
</g>
<!-- Node3&#45;&gt;Node30 -->
<g id="edge43" class="edge"><title>Node3&#45;&gt;Node30</title>
<path fill="none" stroke="midnightblue" d="M640.775,-481.26C754.328,-481.065 1021.46,-476.204 1101,-436 1173.18,-399.517 1226.81,-314.027 1247.58,-276.822"/>
<polygon fill="midnightblue" stroke="midnightblue" points="1250.84,-278.146 1252.55,-267.69 1244.69,-274.799 1250.84,-278.146"/>
</g>
<!-- Node31 -->
<g id="node31" class="node"><title>Node31</title>
<g id="a_node31"><a xlink:href="../../da/d9d/PadRegionInfo_8h.html" target="_top" xlink:title="TPCBase/PadRegionInfo.h">
<polygon fill="none" stroke="black" points="473.5,-416.5 473.5,-435.5 608.5,-435.5 608.5,-416.5 473.5,-416.5"/>
<text text-anchor="middle" x="541" y="-423.5" font-family="Helvetica,sans-Serif" font-size="10.00">TPCBase/PadRegionInfo.h</text>
</a>
</g>
</g>
<!-- Node3&#45;&gt;Node31 -->
<g id="edge45" class="edge"><title>Node3&#45;&gt;Node31</title>
<path fill="none" stroke="midnightblue" d="M581.074,-472.083C574.154,-464.298 563.935,-452.801 555.548,-443.367"/>
<polygon fill="midnightblue" stroke="midnightblue" points="558.038,-440.9 548.779,-435.751 552.806,-445.55 558.038,-440.9"/>
</g>
<!-- Node32 -->
<g id="node32" class="node"><title>Node32</title>
<g id="a_node32"><a xlink:href="../../d6/d42/PartitionInfo_8h.html" target="_top" xlink:title="TPCBase/PartitionInfo.h">
<polygon fill="none" stroke="black" points="1153.5,-416.5 1153.5,-435.5 1276.5,-435.5 1276.5,-416.5 1153.5,-416.5"/>
<text text-anchor="middle" x="1215" y="-423.5" font-family="Helvetica,sans-Serif" font-size="10.00">TPCBase/PartitionInfo.h</text>
</a>
</g>
</g>
<!-- Node3&#45;&gt;Node32 -->
<g id="edge49" class="edge"><title>Node3&#45;&gt;Node32</title>
<path fill="none" stroke="midnightblue" d="M640.619,-477.404C738.109,-470.472 955.969,-454.319 1139,-436 1140.3,-435.87 1141.62,-435.736 1142.94,-435.6"/>
<polygon fill="midnightblue" stroke="midnightblue" points="1143.65,-439.044 1153.22,-434.506 1142.9,-432.084 1143.65,-439.044"/>
</g>
<!-- Node9&#45;&gt;Node8 -->
<g id="edge9" class="edge"><title>Node9&#45;&gt;Node8</title>
<path fill="none" stroke="midnightblue" d="M803.006,-192.444C725.074,-180.945 589.204,-160.899 527.339,-151.771"/>
<polygon fill="midnightblue" stroke="midnightblue" points="527.775,-148.298 517.371,-150.301 526.753,-155.223 527.775,-148.298"/>
</g>
<!-- Node10 -->
<g id="node10" class="node"><title>Node10</title>
<g id="a_node10"><a xlink:href="../../d2/dd0/Cartesian2D_8h.html" target="_top" xlink:title="MathUtils/Cartesian2D.h">
<polygon fill="none" stroke="black" points="103.5,-74.5 103.5,-93.5 228.5,-93.5 228.5,-74.5 103.5,-74.5"/>
<text text-anchor="middle" x="166" y="-81.5" font-family="Helvetica,sans-Serif" font-size="10.00">MathUtils/Cartesian2D.h</text>
</a>
</g>
</g>
<!-- Node9&#45;&gt;Node10 -->
<g id="edge10" class="edge"><title>Node9&#45;&gt;Node10</title>
<path fill="none" stroke="midnightblue" d="M821.582,-192.488C758.966,-179.167 632.82,-153.148 525,-136 397.605,-115.739 364.217,-121.351 237,-100 229.312,-98.7098 221.193,-97.1669 213.3,-95.569"/>
<polygon fill="midnightblue" stroke="midnightblue" points="213.975,-92.1346 203.473,-93.5304 212.553,-98.9887 213.975,-92.1346"/>
</g>
<!-- Node13 -->
<g id="node13" class="node"><title>Node13</title>
<g id="a_node13"><a xlink:href="../../dd/d76/Cartesian3D_8h.html" target="_top" xlink:title="MathUtils/Cartesian3D.h">
<polygon fill="none" stroke="black" points="798.5,-136.5 798.5,-155.5 923.5,-155.5 923.5,-136.5 798.5,-136.5"/>
<text text-anchor="middle" x="861" y="-143.5" font-family="Helvetica,sans-Serif" font-size="10.00">MathUtils/Cartesian3D.h</text>
</a>
</g>
</g>
<!-- Node9&#45;&gt;Node13 -->
<g id="edge13" class="edge"><title>Node9&#45;&gt;Node13</title>
<path fill="none" stroke="midnightblue" d="M861,-192.083C861,-185.006 861,-174.861 861,-165.986"/>
<polygon fill="midnightblue" stroke="midnightblue" points="864.5,-165.751 861,-155.751 857.5,-165.751 864.5,-165.751"/>
</g>
<!-- Node11 -->
<g id="node11" class="node"><title>Node11</title>
<polygon fill="none" stroke="#bfbfbf" points="-0.5,-1 -0.5,-31 150.5,-31 150.5,-1 -0.5,-1"/>
<text text-anchor="start" x="7.5" y="-19" font-family="Helvetica,sans-Serif" font-size="10.00">Math/GenVector/Displacement</text>
<text text-anchor="middle" x="75" y="-8" font-family="Helvetica,sans-Serif" font-size="10.00">Vector2D.h</text>
</g>
<!-- Node10&#45;&gt;Node11 -->
<g id="edge11" class="edge"><title>Node10&#45;&gt;Node11</title>
<path fill="none" stroke="midnightblue" d="M154.103,-74.3717C141.221,-65.0286 120.22,-49.7966 103.093,-37.375"/>
<polygon fill="midnightblue" stroke="midnightblue" points="104.703,-34.2194 94.5532,-31.1815 100.593,-39.8859 104.703,-34.2194"/>
</g>
<!-- Node12 -->
<g id="node12" class="node"><title>Node12</title>
<polygon fill="none" stroke="#bfbfbf" points="169,-6.5 169,-25.5 345,-25.5 345,-6.5 169,-6.5"/>
<text text-anchor="middle" x="257" y="-13.5" font-family="Helvetica,sans-Serif" font-size="10.00">Math/GenVector/PositionVector2D.h</text>
</g>
<!-- Node10&#45;&gt;Node12 -->
<g id="edge12" class="edge"><title>Node10&#45;&gt;Node12</title>
<path fill="none" stroke="midnightblue" d="M177.897,-74.3717C192.884,-63.5015 218.862,-44.6602 236.942,-31.5474"/>
<polygon fill="midnightblue" stroke="midnightblue" points="239.06,-34.3349 245.1,-25.6305 234.95,-28.6684 239.06,-34.3349"/>
</g>
<!-- Node13&#45;&gt;Node10 -->
<g id="edge22" class="edge"><title>Node13&#45;&gt;Node10</title>
<path fill="none" stroke="midnightblue" d="M798.398,-141.574C662.513,-133.959 344.147,-115.11 237,-100 228.752,-98.8368 220.028,-97.2739 211.625,-95.5954"/>
<polygon fill="midnightblue" stroke="midnightblue" points="212.09,-92.1173 201.587,-93.5096 210.666,-98.9709 212.09,-92.1173"/>
</g>
<!-- Node14 -->
<g id="node14" class="node"><title>Node14</title>
<polygon fill="none" stroke="#bfbfbf" points="1127.5,-69 1127.5,-99 1278.5,-99 1278.5,-69 1127.5,-69"/>
<text text-anchor="start" x="1135.5" y="-87" font-family="Helvetica,sans-Serif" font-size="10.00">Math/GenVector/Displacement</text>
<text text-anchor="middle" x="1203" y="-76" font-family="Helvetica,sans-Serif" font-size="10.00">Vector3D.h</text>
</g>
<!-- Node13&#45;&gt;Node14 -->
<g id="edge14" class="edge"><title>Node13&#45;&gt;Node14</title>
<path fill="none" stroke="midnightblue" d="M909.794,-136.476C959.371,-127.811 1038.67,-113.94 1117.37,-100.11"/>
<polygon fill="midnightblue" stroke="midnightblue" points="1118.21,-103.515 1127.46,-98.3365 1117,-96.6205 1118.21,-103.515"/>
</g>
<!-- Node15 -->
<g id="node15" class="node"><title>Node15</title>
<polygon fill="none" stroke="#bfbfbf" points="246,-74.5 246,-93.5 422,-93.5 422,-74.5 246,-74.5"/>
<text text-anchor="middle" x="334" y="-81.5" font-family="Helvetica,sans-Serif" font-size="10.00">Math/GenVector/PositionVector3D.h</text>
</g>
<!-- Node13&#45;&gt;Node15 -->
<g id="edge15" class="edge"><title>Node13&#45;&gt;Node15</title>
<path fill="none" stroke="midnightblue" d="M798.43,-139.475C714.462,-131.831 560.742,-117.028 430,-100 418.744,-98.534 406.773,-96.8023 395.24,-95.046"/>
<polygon fill="midnightblue" stroke="midnightblue" points="395.664,-91.57 385.247,-93.5022 394.595,-98.488 395.664,-91.57"/>
</g>
<!-- Node16 -->
<g id="node16" class="node"><title>Node16</title>
<polygon fill="none" stroke="#bfbfbf" points="439.5,-74.5 439.5,-93.5 588.5,-93.5 588.5,-74.5 439.5,-74.5"/>
<text text-anchor="middle" x="514" y="-81.5" font-family="Helvetica,sans-Serif" font-size="10.00">Math/GenVector/Rotation3D.h</text>
</g>
<!-- Node13&#45;&gt;Node16 -->
<g id="edge16" class="edge"><title>Node13&#45;&gt;Node16</title>
<path fill="none" stroke="midnightblue" d="M810.562,-136.482C757.606,-127.512 671.922,-112.924 598,-100 589.412,-98.4985 580.333,-96.8946 571.443,-95.3148"/>
<polygon fill="midnightblue" stroke="midnightblue" points="571.981,-91.8557 561.523,-93.5481 570.754,-98.7472 571.981,-91.8557"/>
</g>
<!-- Node17 -->
<g id="node17" class="node"><title>Node17</title>
<polygon fill="none" stroke="#bfbfbf" points="607,-74.5 607,-93.5 763,-93.5 763,-74.5 607,-74.5"/>
<text text-anchor="middle" x="685" y="-81.5" font-family="Helvetica,sans-Serif" font-size="10.00">Math/GenVector/Transform3D.h</text>
</g>
<!-- Node13&#45;&gt;Node17 -->
<g id="edge17" class="edge"><title>Node13&#45;&gt;Node17</title>
<path fill="none" stroke="midnightblue" d="M835.783,-136.403C805.332,-126.022 753.951,-108.506 719.757,-96.849"/>
<polygon fill="midnightblue" stroke="midnightblue" points="720.764,-93.4946 710.17,-93.5806 718.505,-100.12 720.764,-93.4946"/>
</g>
<!-- Node18 -->
<g id="node18" class="node"><title>Node18</title>
<polygon fill="none" stroke="#bfbfbf" points="781,-74.5 781,-93.5 941,-93.5 941,-74.5 781,-74.5"/>
<text text-anchor="middle" x="861" y="-81.5" font-family="Helvetica,sans-Serif" font-size="10.00">Math/GenVector/Translation3D.h</text>
</g>
<!-- Node13&#45;&gt;Node18 -->
<g id="edge18" class="edge"><title>Node13&#45;&gt;Node18</title>
<path fill="none" stroke="midnightblue" d="M861,-136.403C861,-127.938 861,-114.728 861,-103.82"/>
<polygon fill="midnightblue" stroke="midnightblue" points="864.5,-103.581 861,-93.5806 857.5,-103.581 864.5,-103.581"/>
</g>
<!-- Node19 -->
<g id="node19" class="node"><title>Node19</title>
<polygon fill="none" stroke="#bfbfbf" points="959,-74.5 959,-93.5 1015,-93.5 1015,-74.5 959,-74.5"/>
<text text-anchor="middle" x="987" y="-81.5" font-family="Helvetica,sans-Serif" font-size="10.00">Rtypes.h</text>
</g>
<!-- Node13&#45;&gt;Node19 -->
<g id="edge19" class="edge"><title>Node13&#45;&gt;Node19</title>
<path fill="none" stroke="midnightblue" d="M879.053,-136.403C900.198,-126.334 935.44,-109.552 959.878,-97.9151"/>
<polygon fill="midnightblue" stroke="midnightblue" points="961.457,-101.04 968.981,-93.5806 958.447,-94.72 961.457,-101.04"/>
</g>
<!-- Node20 -->
<g id="node20" class="node"><title>Node20</title>
<polygon fill="none" stroke="#bfbfbf" points="1033,-74.5 1033,-93.5 1109,-93.5 1109,-74.5 1033,-74.5"/>
<text text-anchor="middle" x="1071" y="-81.5" font-family="Helvetica,sans-Serif" font-size="10.00">TGeoMatrix.h</text>
</g>
<!-- Node13&#45;&gt;Node20 -->
<g id="edge20" class="edge"><title>Node13&#45;&gt;Node20</title>
<path fill="none" stroke="midnightblue" d="M893.053,-136.42C925.797,-127.58 978.065,-113.258 1023,-100 1026.76,-98.892 1030.67,-97.7119 1034.57,-96.519"/>
<polygon fill="midnightblue" stroke="midnightblue" points="1035.62,-99.8583 1044.14,-93.561 1033.55,-93.1705 1035.62,-99.8583"/>
</g>
<!-- Node21 -->
<g id="node21" class="node"><title>Node21</title>
<polygon fill="none" stroke="#bfbfbf" points="1297,-74.5 1297,-93.5 1351,-93.5 1351,-74.5 1297,-74.5"/>
<text text-anchor="middle" x="1324" y="-81.5" font-family="Helvetica,sans-Serif" font-size="10.00">iostream</text>
</g>
<!-- Node13&#45;&gt;Node21 -->
<g id="edge21" class="edge"><title>Node13&#45;&gt;Node21</title>
<path fill="none" stroke="midnightblue" d="M923.677,-143.836C1007.6,-141.048 1160.57,-131.638 1287,-100 1290.06,-99.2339 1293.2,-98.2658 1296.3,-97.1918"/>
<polygon fill="midnightblue" stroke="midnightblue" points="1297.81,-100.363 1305.9,-93.5179 1295.31,-93.8261 1297.81,-100.363"/>
</g>
<!-- Node23&#45;&gt;Node22 -->
<g id="edge28" class="edge"><title>Node23&#45;&gt;Node22</title>
<path fill="none" stroke="midnightblue" d="M639.014,-360.324C651.532,-351.979 670.682,-339.212 685.471,-329.352"/>
<polygon fill="midnightblue" stroke="midnightblue" points="687.639,-332.114 694.018,-323.655 683.756,-326.289 687.639,-332.114"/>
</g>
<!-- Node23&#45;&gt;Node24 -->
<g id="edge25" class="edge"><title>Node23&#45;&gt;Node24</title>
<path fill="none" stroke="midnightblue" d="M626.347,-360.386C627.324,-346.868 631.026,-320.514 645,-304 658.002,-288.634 677.475,-278.093 695.248,-271.099"/>
<polygon fill="midnightblue" stroke="midnightblue" points="696.706,-274.293 704.895,-267.57 694.301,-267.719 696.706,-274.293"/>
</g>
<!-- Node24&#45;&gt;Node9 -->
<g id="edge27" class="edge"><title>Node24&#45;&gt;Node9</title>
<path fill="none" stroke="midnightblue" d="M757.49,-248.444C777.642,-239.596 809.323,-225.687 832.331,-215.586"/>
<polygon fill="midnightblue" stroke="midnightblue" points="833.852,-218.741 841.601,-211.516 831.038,-212.332 833.852,-218.741"/>
</g>
<!-- Node25 -->
<g id="node25" class="node"><title>Node25</title>
<g id="a_node25"><a xlink:href="../../d0/dda/DataFormats_2Detectors_2TPC_2include_2DataFormatsTPC_2Constants_8h.html" target="_top" xlink:title="DataFormatsTPC/Constants.h">
<polygon fill="none" stroke="black" points="630,-192.5 630,-211.5 780,-211.5 780,-192.5 630,-192.5"/>
<text text-anchor="middle" x="705" y="-199.5" font-family="Helvetica,sans-Serif" font-size="10.00">DataFormatsTPC/Constants.h</text>
</a>
</g>
</g>
<!-- Node24&#45;&gt;Node25 -->
<g id="edge26" class="edge"><title>Node24&#45;&gt;Node25</title>
<path fill="none" stroke="midnightblue" d="M732.551,-248.083C727.986,-240.613 721.332,-229.724 715.707,-220.52"/>
<polygon fill="midnightblue" stroke="midnightblue" points="718.549,-218.459 710.348,-211.751 712.576,-222.109 718.549,-218.459"/>
</g>
<!-- Node26&#45;&gt;Node9 -->
<g id="edge30" class="edge"><title>Node26&#45;&gt;Node9</title>
<path fill="none" stroke="midnightblue" d="M958.806,-360.193C961.025,-347.314 963.631,-322.827 956,-304 940.926,-266.809 905.2,-235.226 882.11,-217.718"/>
<polygon fill="midnightblue" stroke="midnightblue" points="884.079,-214.821 873.949,-211.715 879.931,-220.46 884.079,-214.821"/>
</g>
<!-- Node26&#45;&gt;Node22 -->
<g id="edge34" class="edge"><title>Node26&#45;&gt;Node22</title>
<path fill="none" stroke="midnightblue" d="M917.387,-360.444C873.775,-351.023 803.6,-335.866 756.422,-325.675"/>
<polygon fill="midnightblue" stroke="midnightblue" points="756.941,-322.207 746.428,-323.516 755.464,-329.049 756.941,-322.207"/>
</g>
<!-- Node27 -->
<g id="node27" class="node"><title>Node27</title>
<g id="a_node27"><a xlink:href="../../dc/d14/ROC_8h.html" target="_top" xlink:title="TPCBase/ROC.h">
<polygon fill="none" stroke="black" points="854.5,-304.5 854.5,-323.5 947.5,-323.5 947.5,-304.5 854.5,-304.5"/>
<text text-anchor="middle" x="901" y="-311.5" font-family="Helvetica,sans-Serif" font-size="10.00">TPCBase/ROC.h</text>
</a>
</g>
</g>
<!-- Node26&#45;&gt;Node27 -->
<g id="edge31" class="edge"><title>Node26&#45;&gt;Node27</title>
<path fill="none" stroke="midnightblue" d="M948.003,-360.324C939.806,-352.42 927.494,-340.548 917.528,-330.938"/>
<polygon fill="midnightblue" stroke="midnightblue" points="919.789,-328.256 910.161,-323.834 914.93,-333.295 919.789,-328.256"/>
</g>
<!-- Node27&#45;&gt;Node9 -->
<g id="edge32" class="edge"><title>Node27&#45;&gt;Node9</title>
<path fill="none" stroke="midnightblue" d="M897.861,-304.368C891.377,-286.537 876.38,-245.295 867.644,-221.272"/>
<polygon fill="midnightblue" stroke="midnightblue" points="870.831,-219.793 864.124,-211.591 864.252,-222.185 870.831,-219.793"/>
</g>
<!-- Node27&#45;&gt;Node24 -->
<g id="edge33" class="edge"><title>Node27&#45;&gt;Node24</title>
<path fill="none" stroke="midnightblue" d="M875.172,-304.444C847.751,-295.359 804.223,-280.939 773.568,-270.783"/>
<polygon fill="midnightblue" stroke="midnightblue" points="774.3,-267.339 763.707,-267.516 772.099,-273.984 774.3,-267.339"/>
</g>
<!-- Node28&#45;&gt;Node9 -->
<g id="edge36" class="edge"><title>Node28&#45;&gt;Node9</title>
<path fill="none" stroke="midnightblue" d="M851.216,-422.282C912.836,-417.925 1007.77,-406.929 1030,-380 1083.78,-314.838 952.03,-244.106 890.537,-215.778"/>
<polygon fill="midnightblue" stroke="midnightblue" points="891.864,-212.537 881.31,-211.603 888.978,-218.914 891.864,-212.537"/>
</g>
<!-- Node28&#45;&gt;Node22 -->
<g id="edge41" class="edge"><title>Node28&#45;&gt;Node22</title>
<path fill="none" stroke="midnightblue" d="M789.938,-416.368C774.954,-398.055 739.767,-355.049 720.387,-331.362"/>
<polygon fill="midnightblue" stroke="midnightblue" points="723.071,-329.115 714.029,-323.591 717.653,-333.547 723.071,-329.115"/>
</g>
<!-- Node28&#45;&gt;Node23 -->
<g id="edge42" class="edge"><title>Node28&#45;&gt;Node23</title>
<path fill="none" stroke="midnightblue" d="M769.905,-416.444C741.012,-407.32 695.075,-392.813 662.895,-382.651"/>
<polygon fill="midnightblue" stroke="midnightblue" points="663.559,-379.19 652.969,-379.516 661.451,-385.865 663.559,-379.19"/>
</g>
<!-- Node29 -->
<g id="node29" class="node"><title>Node29</title>
<g id="a_node29"><a xlink:href="../../df/d26/CRU_8h.html" target="_top" xlink:title="TPCBase/CRU.h">
<polygon fill="none" stroke="black" points="781.5,-360.5 781.5,-379.5 874.5,-379.5 874.5,-360.5 781.5,-360.5"/>
<text text-anchor="middle" x="828" y="-367.5" font-family="Helvetica,sans-Serif" font-size="10.00">TPCBase/CRU.h</text>
</a>
</g>
</g>
<!-- Node28&#45;&gt;Node29 -->
<g id="edge37" class="edge"><title>Node28&#45;&gt;Node29</title>
<path fill="none" stroke="midnightblue" d="M802.119,-416.083C806.408,-408.613 812.658,-397.724 817.942,-388.52"/>
<polygon fill="midnightblue" stroke="midnightblue" points="821.033,-390.166 822.976,-379.751 814.962,-386.681 821.033,-390.166"/>
</g>
<!-- Node29&#45;&gt;Node9 -->
<g id="edge38" class="edge"><title>Node29&#45;&gt;Node9</title>
<path fill="none" stroke="midnightblue" d="M829.774,-360.075C834.969,-333.945 850.223,-257.211 857.307,-221.577"/>
<polygon fill="midnightblue" stroke="midnightblue" points="860.78,-222.059 859.297,-211.568 853.914,-220.694 860.78,-222.059"/>
</g>
<!-- Node29&#45;&gt;Node24 -->
<g id="edge39" class="edge"><title>Node29&#45;&gt;Node24</title>
<path fill="none" stroke="midnightblue" d="M820.938,-360.368C805.954,-342.055 770.767,-299.049 751.387,-275.362"/>
<polygon fill="midnightblue" stroke="midnightblue" points="754.071,-273.115 745.029,-267.591 748.653,-277.547 754.071,-273.115"/>
</g>
<!-- Node29&#45;&gt;Node27 -->
<g id="edge40" class="edge"><title>Node29&#45;&gt;Node27</title>
<path fill="none" stroke="midnightblue" d="M839.729,-360.324C850.837,-352.107 867.742,-339.602 880.983,-329.807"/>
<polygon fill="midnightblue" stroke="midnightblue" points="883.1,-332.595 889.058,-323.834 878.937,-326.967 883.1,-332.595"/>
</g>
<!-- Node30&#45;&gt;Node21 -->
<g id="edge44" class="edge"><title>Node30&#45;&gt;Node21</title>
<path fill="none" stroke="midnightblue" d="M1260.41,-248.234C1270.9,-221.317 1302.78,-139.476 1317.01,-102.942"/>
<polygon fill="midnightblue" stroke="midnightblue" points="1320.3,-104.133 1320.67,-93.5442 1313.78,-101.592 1320.3,-104.133"/>
</g>
<!-- Node31&#45;&gt;Node5 -->
<g id="edge46" class="edge"><title>Node31&#45;&gt;Node5</title>
<path fill="none" stroke="midnightblue" d="M526.219,-416.324C511.733,-407.822 489.427,-394.729 472.507,-384.797"/>
<polygon fill="midnightblue" stroke="midnightblue" points="474.141,-381.698 463.745,-379.655 470.597,-387.735 474.141,-381.698"/>
</g>
<!-- Node31&#45;&gt;Node9 -->
<g id="edge47" class="edge"><title>Node31&#45;&gt;Node9</title>
<path fill="none" stroke="midnightblue" d="M538.961,-416.482C536.325,-403.544 533.058,-378.492 542,-360 576.239,-289.197 608.664,-283.187 679,-248 712.912,-231.035 753.651,-220.191 787.979,-213.411"/>
<polygon fill="midnightblue" stroke="midnightblue" points="788.773,-216.823 797.945,-211.52 787.468,-209.946 788.773,-216.823"/>
</g>
<!-- Node31&#45;&gt;Node22 -->
<g id="edge48" class="edge"><title>Node31&#45;&gt;Node22</title>
<path fill="none" stroke="midnightblue" d="M540.43,-416.154C540.046,-402.317 541.413,-375.534 556,-360 578.628,-335.904 613.538,-324.529 644.094,-319.235"/>
<polygon fill="midnightblue" stroke="midnightblue" points="644.917,-322.65 654.266,-317.664 643.848,-315.732 644.917,-322.65"/>
</g>
</g>
</svg>
