<?xml version="1.0" encoding="UTF-8" standalone="no"?>
<!DOCTYPE svg PUBLIC "-//W3C//DTD SVG 1.1//EN"
 "http://www.w3.org/Graphics/SVG/1.1/DTD/svg11.dtd">
<!-- Generated by graphviz version 2.36.0 (20140111.2315)
 -->
<!-- Title: o2::framework::DataSamplingConfig::InfrastructureConfig Pages: 1 -->
<svg width="232pt" height="206pt"
 viewBox="0.00 0.00 232.00 206.00" xmlns="http://www.w3.org/2000/svg" xmlns:xlink="http://www.w3.org/1999/xlink">
<g id="graph0" class="graph" transform="scale(1 1) rotate(0) translate(4 202)">
<title>o2::framework::DataSamplingConfig::InfrastructureConfig</title>
<!-- Node1 -->
<g id="node1" class="node"><title>Node1</title>
<polygon fill="#bfbfbf" stroke="black" points="0,-1 0,-69 146,-69 146,-1 0,-1"/>
<text text-anchor="start" x="8" y="-57" font-family="Helvetica,sans-Serif" font-size="10.00">o2::framework::DataSampling</text>
<text text-anchor="middle" x="73" y="-46" font-family="Helvetica,sans-Serif" font-size="10.00">Config::InfrastructureConfig</text>
<polyline fill="none" stroke="black" points="0,-39 146,-39 "/>
<text text-anchor="middle" x="73" y="-27" font-family="Helvetica,sans-Serif" font-size="10.00"> </text>
<polyline fill="none" stroke="black" points="0,-20 146,-20 "/>
<text text-anchor="start" x="8" y="-8" font-family="Helvetica,sans-Serif" font-size="10.00">+ InfrastructureConfig()</text>
</g>
<!-- Node2 -->
<g id="node2" class="node"><title>Node2</title>
<polygon fill="none" stroke="#bfbfbf" points="55.5,-140.5 55.5,-197.5 90.5,-197.5 90.5,-140.5 55.5,-140.5"/>
<text text-anchor="middle" x="73" y="-185.5" font-family="Helvetica,sans-Serif" font-size="10.00">bool</text>
<polyline fill="none" stroke="#bfbfbf" points="55.5,-178.5 90.5,-178.5 "/>
<text text-anchor="middle" x="73" y="-166.5" font-family="Helvetica,sans-Serif" font-size="10.00"> </text>
<polyline fill="none" stroke="#bfbfbf" points="55.5,-159.5 90.5,-159.5 "/>
<text text-anchor="middle" x="73" y="-147.5" font-family="Helvetica,sans-Serif" font-size="10.00"> </text>
</g>
<!-- Node2&#45;&gt;Node1 -->
<g id="edge1" class="edge"><title>Node2&#45;&gt;Node1</title>
<path fill="none" stroke="#404040" d="M73,-140.328C73,-123.256 73,-100.946 73,-81.3412"/>
<polygon fill="none" stroke="#404040" points="73.0001,-81.2439 69,-75.244 73,-69.2439 77,-75.2439 73.0001,-81.2439"/>
<text text-anchor="middle" x="148.5" y="-113.5" font-family="Helvetica,sans-Serif" font-size="10.00"> +enableParallelDispatchers</text>
<text text-anchor="middle" x="148.5" y="-102.5" font-family="Helvetica,sans-Serif" font-size="10.00">+enableTimePipeliningDispatchers</text>
<text text-anchor="middle" x="148.5" y="-91.5" font-family="Helvetica,sans-Serif" font-size="10.00">+enableProxy</text>
</g>
</g>
</svg>
