<?xml version="1.0" encoding="UTF-8" standalone="no"?>
<!DOCTYPE svg PUBLIC "-//W3C//DTD SVG 1.1//EN"
 "http://www.w3.org/Graphics/SVG/1.1/DTD/svg11.dtd">
<!-- Generated by graphviz version 2.36.0 (20140111.2315)
 -->
<!-- Title: /home/travis/build/AliceO2Group/AliceO2/Detectors/MUON/MCH/Contour/include/MCHContour/Helper.h Pages: 1 -->
<svg width="168pt" height="118pt"
 viewBox="0.00 0.00 168.00 118.00" xmlns="http://www.w3.org/2000/svg" xmlns:xlink="http://www.w3.org/1999/xlink">
<g id="graph0" class="graph" transform="scale(1 1) rotate(0) translate(4 114)">
<title>/home/travis/build/AliceO2Group/AliceO2/Detectors/MUON/MCH/Contour/include/MCHContour/Helper.h</title>
<!-- Node1 -->
<g id="node1" class="node"><title>Node1</title>
<polygon fill="#bfbfbf" stroke="black" points="0,-57 0,-109 160,-109 160,-57 0,-57"/>
<text text-anchor="start" x="8" y="-97" font-family="Helvetica,sans-Serif" font-size="10.00">/home/travis/build</text>
<text text-anchor="start" x="8" y="-86" font-family="Helvetica,sans-Serif" font-size="10.00">/AliceO2Group/AliceO2</text>
<text text-anchor="start" x="8" y="-75" font-family="Helvetica,sans-Serif" font-size="10.00">/Detectors/MUON/MCH/Contour</text>
<text text-anchor="middle" x="80" y="-64" font-family="Helvetica,sans-Serif" font-size="10.00">/include/MCHContour/Helper.h</text>
</g>
<!-- Node2 -->
<g id="node2" class="node"><title>Node2</title>
<polygon fill="none" stroke="#bfbfbf" points="28,-0.5 28,-19.5 72,-19.5 72,-0.5 28,-0.5"/>
<text text-anchor="middle" x="50" y="-7.5" font-family="Helvetica,sans-Serif" font-size="10.00">cmath</text>
</g>
<!-- Node1&#45;&gt;Node2 -->
<g id="edge1" class="edge"><title>Node1&#45;&gt;Node2</title>
<path fill="none" stroke="midnightblue" d="M69.3387,-56.7681C65.4593,-47.587 61.1564,-37.4034 57.5961,-28.9775"/>
<polygon fill="midnightblue" stroke="midnightblue" points="60.8164,-27.6063 53.7002,-19.7572 54.3684,-30.3309 60.8164,-27.6063"/>
</g>
<!-- Node3 -->
<g id="node3" class="node"><title>Node3</title>
<polygon fill="none" stroke="#bfbfbf" points="90,-0.5 90,-19.5 130,-19.5 130,-0.5 90,-0.5"/>
<text text-anchor="middle" x="110" y="-7.5" font-family="Helvetica,sans-Serif" font-size="10.00">limits</text>
</g>
<!-- Node1&#45;&gt;Node3 -->
<g id="edge2" class="edge"><title>Node1&#45;&gt;Node3</title>
<path fill="none" stroke="midnightblue" d="M90.6613,-56.7681C94.5407,-47.587 98.8436,-37.4034 102.404,-28.9775"/>
<polygon fill="midnightblue" stroke="midnightblue" points="105.632,-30.3309 106.3,-19.7572 99.1836,-27.6063 105.632,-30.3309"/>
</g>
</g>
</svg>
