<?xml version="1.0" encoding="UTF-8" standalone="no"?>
<!DOCTYPE svg PUBLIC "-//W3C//DTD SVG 1.1//EN"
 "http://www.w3.org/Graphics/SVG/1.1/DTD/svg11.dtd">
<!-- Generated by graphviz version 2.36.0 (20140111.2315)
 -->
<!-- Title: /home/travis/build/AliceO2Group/AliceO2/Detectors/TOF/base/include/TOFBase/Geo.h Pages: 1 -->
<svg width="829pt" height="432pt"
 viewBox="0.00 0.00 829.00 432.00" xmlns="http://www.w3.org/2000/svg" xmlns:xlink="http://www.w3.org/1999/xlink">
<g id="graph0" class="graph" transform="scale(1 1) rotate(0) translate(4 428)">
<title>/home/travis/build/AliceO2Group/AliceO2/Detectors/TOF/base/include/TOFBase/Geo.h</title>
<!-- Node1 -->
<g id="node1" class="node"><title>Node1</title>
<polygon fill="#bfbfbf" stroke="black" points="181.5,-371 181.5,-423 324.5,-423 324.5,-371 181.5,-371"/>
<text text-anchor="start" x="189.5" y="-411" font-family="Helvetica,sans-Serif" font-size="10.00">/home/travis/build</text>
<text text-anchor="start" x="189.5" y="-400" font-family="Helvetica,sans-Serif" font-size="10.00">/AliceO2Group/AliceO2</text>
<text text-anchor="start" x="189.5" y="-389" font-family="Helvetica,sans-Serif" font-size="10.00">/Detectors/TOF/base/include</text>
<text text-anchor="middle" x="253" y="-378" font-family="Helvetica,sans-Serif" font-size="10.00">/TOFBase/Geo.h</text>
</g>
<!-- Node2 -->
<g id="node2" class="node"><title>Node2</title>
<g id="a_node2"><a xlink:href="../../da/d39/Geo_8cxx.html" target="_top" xlink:title="/home/travis/build\l/AliceO2Group/AliceO2\l/Detectors/TOF/base/src\l/Geo.cxx">
<polygon fill="none" stroke="black" points="-0.5,-281 -0.5,-333 124.5,-333 124.5,-281 -0.5,-281"/>
<text text-anchor="start" x="7.5" y="-321" font-family="Helvetica,sans-Serif" font-size="10.00">/home/travis/build</text>
<text text-anchor="start" x="7.5" y="-310" font-family="Helvetica,sans-Serif" font-size="10.00">/AliceO2Group/AliceO2</text>
<text text-anchor="start" x="7.5" y="-299" font-family="Helvetica,sans-Serif" font-size="10.00">/Detectors/TOF/base/src</text>
<text text-anchor="middle" x="62" y="-288" font-family="Helvetica,sans-Serif" font-size="10.00">/Geo.cxx</text>
</a>
</g>
</g>
<!-- Node1&#45;&gt;Node2 -->
<g id="edge1" class="edge"><title>Node1&#45;&gt;Node2</title>
<path fill="none" stroke="midnightblue" d="M189.305,-366.654C165.731,-355.792 139.238,-343.586 116.55,-333.133"/>
<polygon fill="midnightblue" stroke="midnightblue" points="187.976,-369.895 198.523,-370.901 190.905,-363.537 187.976,-369.895"/>
</g>
<!-- Node3 -->
<g id="node3" class="node"><title>Node3</title>
<g id="a_node3"><a xlink:href="../../d3/d5a/testTOFIndex_8cxx.html" target="_top" xlink:title="/home/travis/build\l/AliceO2Group/AliceO2\l/Detectors/TOF/base/test\l/testTOFIndex.cxx">
<polygon fill="none" stroke="black" points="143,-281 143,-333 271,-333 271,-281 143,-281"/>
<text text-anchor="start" x="151" y="-321" font-family="Helvetica,sans-Serif" font-size="10.00">/home/travis/build</text>
<text text-anchor="start" x="151" y="-310" font-family="Helvetica,sans-Serif" font-size="10.00">/AliceO2Group/AliceO2</text>
<text text-anchor="start" x="151" y="-299" font-family="Helvetica,sans-Serif" font-size="10.00">/Detectors/TOF/base/test</text>
<text text-anchor="middle" x="207" y="-288" font-family="Helvetica,sans-Serif" font-size="10.00">/testTOFIndex.cxx</text>
</a>
</g>
</g>
<!-- Node1&#45;&gt;Node3 -->
<g id="edge2" class="edge"><title>Node1&#45;&gt;Node3</title>
<path fill="none" stroke="midnightblue" d="M235.055,-361.671C230.076,-352.145 224.764,-341.983 220.116,-333.092"/>
<polygon fill="midnightblue" stroke="midnightblue" points="231.961,-363.306 239.695,-370.547 238.164,-360.063 231.961,-363.306"/>
</g>
<!-- Node4 -->
<g id="node4" class="node"><title>Node4</title>
<g id="a_node4"><a xlink:href="../../d5/d3c/TOF_2simulation_2include_2TOFSimulation_2Detector_8h.html" target="_top" xlink:title="/home/travis/build\l/AliceO2Group/AliceO2\l/Detectors/TOF/simulation\l/include/TOFSimulation/Detector.h">
<polygon fill="none" stroke="black" points="403.5,-281 403.5,-333 570.5,-333 570.5,-281 403.5,-281"/>
<text text-anchor="start" x="411.5" y="-321" font-family="Helvetica,sans-Serif" font-size="10.00">/home/travis/build</text>
<text text-anchor="start" x="411.5" y="-310" font-family="Helvetica,sans-Serif" font-size="10.00">/AliceO2Group/AliceO2</text>
<text text-anchor="start" x="411.5" y="-299" font-family="Helvetica,sans-Serif" font-size="10.00">/Detectors/TOF/simulation</text>
<text text-anchor="middle" x="487" y="-288" font-family="Helvetica,sans-Serif" font-size="10.00">/include/TOFSimulation/Detector.h</text>
</a>
</g>
</g>
<!-- Node1&#45;&gt;Node4 -->
<g id="edge3" class="edge"><title>Node1&#45;&gt;Node4</title>
<path fill="none" stroke="midnightblue" d="M329.123,-367.372C358.478,-356.333 391.758,-343.817 420.17,-333.133"/>
<polygon fill="midnightblue" stroke="midnightblue" points="327.87,-364.104 319.742,-370.901 330.334,-370.656 327.87,-364.104"/>
</g>
<!-- Node6 -->
<g id="node6" class="node"><title>Node6</title>
<g id="a_node6"><a xlink:href="../../d0/d85/TOF_2simulation_2include_2TOFSimulation_2Digitizer_8h.html" target="_top" xlink:title="/home/travis/build\l/AliceO2Group/AliceO2\l/Detectors/TOF/simulation\l/include/TOFSimulation/Digitizer.h">
<polygon fill="none" stroke="black" points="177,-191 177,-243 343,-243 343,-191 177,-191"/>
<text text-anchor="start" x="185" y="-231" font-family="Helvetica,sans-Serif" font-size="10.00">/home/travis/build</text>
<text text-anchor="start" x="185" y="-220" font-family="Helvetica,sans-Serif" font-size="10.00">/AliceO2Group/AliceO2</text>
<text text-anchor="start" x="185" y="-209" font-family="Helvetica,sans-Serif" font-size="10.00">/Detectors/TOF/simulation</text>
<text text-anchor="middle" x="260" y="-198" font-family="Helvetica,sans-Serif" font-size="10.00">/include/TOFSimulation/Digitizer.h</text>
</a>
</g>
</g>
<!-- Node1&#45;&gt;Node6 -->
<g id="edge13" class="edge"><title>Node1&#45;&gt;Node6</title>
<path fill="none" stroke="midnightblue" d="M270.913,-361.673C274.664,-352.883 278.066,-343.285 280,-334 284.894,-310.504 283.729,-303.708 280,-280 278.049,-267.598 274.03,-254.295 270.103,-243.203"/>
<polygon fill="midnightblue" stroke="midnightblue" points="267.699,-360.288 266.759,-370.841 274.075,-363.177 267.699,-360.288"/>
</g>
<!-- Node5 -->
<g id="node5" class="node"><title>Node5</title>
<g id="a_node5"><a xlink:href="../../de/d69/drawTOFgeometry_8C.html" target="_top" xlink:title="/home/travis/build\l/AliceO2Group/AliceO2\l/Detectors/TOF/prototyping\l/drawTOFgeometry.C">
<polygon fill="none" stroke="black" points="361,-191 361,-243 497,-243 497,-191 361,-191"/>
<text text-anchor="start" x="369" y="-231" font-family="Helvetica,sans-Serif" font-size="10.00">/home/travis/build</text>
<text text-anchor="start" x="369" y="-220" font-family="Helvetica,sans-Serif" font-size="10.00">/AliceO2Group/AliceO2</text>
<text text-anchor="start" x="369" y="-209" font-family="Helvetica,sans-Serif" font-size="10.00">/Detectors/TOF/prototyping</text>
<text text-anchor="middle" x="429" y="-198" font-family="Helvetica,sans-Serif" font-size="10.00">/drawTOFgeometry.C</text>
</a>
</g>
</g>
<!-- Node4&#45;&gt;Node5 -->
<g id="edge4" class="edge"><title>Node4&#45;&gt;Node5</title>
<path fill="none" stroke="midnightblue" d="M464.568,-271.965C458.234,-262.354 451.458,-252.074 445.538,-243.092"/>
<polygon fill="midnightblue" stroke="midnightblue" points="461.798,-274.123 470.224,-280.547 467.643,-270.271 461.798,-274.123"/>
</g>
<!-- Node4&#45;&gt;Node6 -->
<g id="edge5" class="edge"><title>Node4&#45;&gt;Node6</title>
<path fill="none" stroke="midnightblue" d="M412.784,-277.229C384.398,-266.225 352.274,-253.771 324.831,-243.133"/>
<polygon fill="midnightblue" stroke="midnightblue" points="411.666,-280.549 422.255,-280.901 414.196,-274.023 411.666,-280.549"/>
</g>
<!-- Node7 -->
<g id="node7" class="node"><title>Node7</title>
<g id="a_node7"><a xlink:href="../../d8/dc6/TOF_2simulation_2include_2TOFSimulation_2DigitizerTask_8h.html" target="_top" xlink:title="/home/travis/build\l/AliceO2Group/AliceO2\l/Detectors/TOF/simulation\l/include/TOFSimulation/Digitizer\lTask.h">
<polygon fill="none" stroke="black" points="395,-90.5 395,-153.5 553,-153.5 553,-90.5 395,-90.5"/>
<text text-anchor="start" x="403" y="-141.5" font-family="Helvetica,sans-Serif" font-size="10.00">/home/travis/build</text>
<text text-anchor="start" x="403" y="-130.5" font-family="Helvetica,sans-Serif" font-size="10.00">/AliceO2Group/AliceO2</text>
<text text-anchor="start" x="403" y="-119.5" font-family="Helvetica,sans-Serif" font-size="10.00">/Detectors/TOF/simulation</text>
<text text-anchor="start" x="403" y="-108.5" font-family="Helvetica,sans-Serif" font-size="10.00">/include/TOFSimulation/Digitizer</text>
<text text-anchor="middle" x="474" y="-97.5" font-family="Helvetica,sans-Serif" font-size="10.00">Task.h</text>
</a>
</g>
</g>
<!-- Node4&#45;&gt;Node7 -->
<g id="edge10" class="edge"><title>Node4&#45;&gt;Node7</title>
<path fill="none" stroke="midnightblue" d="M499.638,-271.221C502.272,-262.454 504.655,-252.979 506,-244 509.555,-220.265 511.303,-213.407 506,-190 503.18,-177.554 497.756,-164.714 492.163,-153.646"/>
<polygon fill="midnightblue" stroke="midnightblue" points="496.301,-270.164 496.6,-280.755 502.971,-272.29 496.301,-270.164"/>
</g>
<!-- Node11 -->
<g id="node11" class="node"><title>Node11</title>
<g id="a_node11"><a xlink:href="../../d4/d59/TOF_2simulation_2src_2Detector_8cxx.html" target="_top" xlink:title="/home/travis/build\l/AliceO2Group/AliceO2\l/Detectors/TOF/simulation\l/src/Detector.cxx">
<polygon fill="none" stroke="black" points="553,-191 553,-243 685,-243 685,-191 553,-191"/>
<text text-anchor="start" x="561" y="-231" font-family="Helvetica,sans-Serif" font-size="10.00">/home/travis/build</text>
<text text-anchor="start" x="561" y="-220" font-family="Helvetica,sans-Serif" font-size="10.00">/AliceO2Group/AliceO2</text>
<text text-anchor="start" x="561" y="-209" font-family="Helvetica,sans-Serif" font-size="10.00">/Detectors/TOF/simulation</text>
<text text-anchor="middle" x="619" y="-198" font-family="Helvetica,sans-Serif" font-size="10.00">/src/Detector.cxx</text>
</a>
</g>
</g>
<!-- Node4&#45;&gt;Node11 -->
<g id="edge11" class="edge"><title>Node4&#45;&gt;Node11</title>
<path fill="none" stroke="midnightblue" d="M533.329,-275.114C548.98,-264.68 566.255,-253.163 581.169,-243.221"/>
<polygon fill="midnightblue" stroke="midnightblue" points="531.205,-272.324 524.826,-280.783 535.088,-278.148 531.205,-272.324"/>
</g>
<!-- Node12 -->
<g id="node12" class="node"><title>Node12</title>
<g id="a_node12"><a xlink:href="../../dc/d6a/run__sim__tof_8C.html" target="_top" xlink:title="/home/travis/build\l/AliceO2Group/AliceO2\l/macro/run_sim_tof.C">
<polygon fill="none" stroke="black" points="703,-196.5 703,-237.5 821,-237.5 821,-196.5 703,-196.5"/>
<text text-anchor="start" x="711" y="-225.5" font-family="Helvetica,sans-Serif" font-size="10.00">/home/travis/build</text>
<text text-anchor="start" x="711" y="-214.5" font-family="Helvetica,sans-Serif" font-size="10.00">/AliceO2Group/AliceO2</text>
<text text-anchor="middle" x="762" y="-203.5" font-family="Helvetica,sans-Serif" font-size="10.00">/macro/run_sim_tof.C</text>
</a>
</g>
</g>
<!-- Node4&#45;&gt;Node12 -->
<g id="edge12" class="edge"><title>Node4&#45;&gt;Node12</title>
<path fill="none" stroke="midnightblue" d="M580.468,-279.604C616.178,-269.101 657.156,-256.542 694,-244 699.863,-242.004 705.972,-239.82 712.02,-237.592"/>
<polygon fill="midnightblue" stroke="midnightblue" points="579.157,-276.34 570.544,-282.51 581.124,-283.058 579.157,-276.34"/>
</g>
<!-- Node6&#45;&gt;Node7 -->
<g id="edge6" class="edge"><title>Node6&#45;&gt;Node7</title>
<path fill="none" stroke="midnightblue" d="M326.819,-186.962C351.247,-176.346 378.945,-164.309 403.67,-153.564"/>
<polygon fill="midnightblue" stroke="midnightblue" points="325.406,-183.76 317.63,-190.955 328.196,-190.18 325.406,-183.76"/>
</g>
<!-- Node10 -->
<g id="node10" class="node"><title>Node10</title>
<g id="a_node10"><a xlink:href="../../d4/df3/TOF_2simulation_2src_2Digitizer_8cxx.html" target="_top" xlink:title="/home/travis/build\l/AliceO2Group/AliceO2\l/Detectors/TOF/simulation\l/src/Digitizer.cxx">
<polygon fill="none" stroke="black" points="194,-96 194,-148 326,-148 326,-96 194,-96"/>
<text text-anchor="start" x="202" y="-136" font-family="Helvetica,sans-Serif" font-size="10.00">/home/travis/build</text>
<text text-anchor="start" x="202" y="-125" font-family="Helvetica,sans-Serif" font-size="10.00">/AliceO2Group/AliceO2</text>
<text text-anchor="start" x="202" y="-114" font-family="Helvetica,sans-Serif" font-size="10.00">/Detectors/TOF/simulation</text>
<text text-anchor="middle" x="260" y="-103" font-family="Helvetica,sans-Serif" font-size="10.00">/src/Digitizer.cxx</text>
</a>
</g>
</g>
<!-- Node6&#45;&gt;Node10 -->
<g id="edge9" class="edge"><title>Node6&#45;&gt;Node10</title>
<path fill="none" stroke="midnightblue" d="M260,-180.549C260,-169.722 260,-158.046 260,-148.06"/>
<polygon fill="midnightblue" stroke="midnightblue" points="256.5,-180.587 260,-190.587 263.5,-180.587 256.5,-180.587"/>
</g>
<!-- Node8 -->
<g id="node8" class="node"><title>Node8</title>
<g id="a_node8"><a xlink:href="../../dd/df3/TOF_2simulation_2src_2DigitizerTask_8cxx.html" target="_top" xlink:title="/home/travis/build\l/AliceO2Group/AliceO2\l/Detectors/TOF/simulation\l/src/DigitizerTask.cxx">
<polygon fill="none" stroke="black" points="337,-1 337,-53 469,-53 469,-1 337,-1"/>
<text text-anchor="start" x="345" y="-41" font-family="Helvetica,sans-Serif" font-size="10.00">/home/travis/build</text>
<text text-anchor="start" x="345" y="-30" font-family="Helvetica,sans-Serif" font-size="10.00">/AliceO2Group/AliceO2</text>
<text text-anchor="start" x="345" y="-19" font-family="Helvetica,sans-Serif" font-size="10.00">/Detectors/TOF/simulation</text>
<text text-anchor="middle" x="403" y="-8" font-family="Helvetica,sans-Serif" font-size="10.00">/src/DigitizerTask.cxx</text>
</a>
</g>
</g>
<!-- Node7&#45;&gt;Node8 -->
<g id="edge7" class="edge"><title>Node7&#45;&gt;Node8</title>
<path fill="none" stroke="midnightblue" d="M444.366,-82.1833C436.86,-72.3522 428.995,-62.0498 422.162,-53.1001"/>
<polygon fill="midnightblue" stroke="midnightblue" points="441.705,-84.466 450.555,-90.2906 447.269,-80.2183 441.705,-84.466"/>
</g>
<!-- Node9 -->
<g id="node9" class="node"><title>Node9</title>
<g id="a_node9"><a xlink:href="../../db/d79/run__digi__tof_8C.html" target="_top" xlink:title="/home/travis/build\l/AliceO2Group/AliceO2\l/macro/run_digi_tof.C">
<polygon fill="none" stroke="black" points="487,-6.5 487,-47.5 605,-47.5 605,-6.5 487,-6.5"/>
<text text-anchor="start" x="495" y="-35.5" font-family="Helvetica,sans-Serif" font-size="10.00">/home/travis/build</text>
<text text-anchor="start" x="495" y="-24.5" font-family="Helvetica,sans-Serif" font-size="10.00">/AliceO2Group/AliceO2</text>
<text text-anchor="middle" x="546" y="-13.5" font-family="Helvetica,sans-Serif" font-size="10.00">/macro/run_digi_tof.C</text>
</a>
</g>
</g>
<!-- Node7&#45;&gt;Node9 -->
<g id="edge8" class="edge"><title>Node7&#45;&gt;Node9</title>
<path fill="none" stroke="midnightblue" d="M504.052,-82.1833C513.287,-70.2549 523.059,-57.6327 530.845,-47.5747"/>
<polygon fill="midnightblue" stroke="midnightblue" points="501.129,-80.2407 497.775,-90.2906 506.664,-84.5259 501.129,-80.2407"/>
</g>
</g>
</svg>
