<?xml version="1.0" encoding="UTF-8" standalone="no"?>
<!DOCTYPE svg PUBLIC "-//W3C//DTD SVG 1.1//EN"
 "http://www.w3.org/Graphics/SVG/1.1/DTD/svg11.dtd">
<!-- Generated by graphviz version 2.36.0 (20140111.2315)
 -->
<!-- Title: /home/travis/build/AliceO2Group/AliceO2/Detectors/EMCAL/testsimulation/PutEmcalInTop.C Pages: 1 -->
<svg width="1700pt" height="434pt"
 viewBox="0.00 0.00 1700.00 434.00" xmlns="http://www.w3.org/2000/svg" xmlns:xlink="http://www.w3.org/1999/xlink">
<g id="graph0" class="graph" transform="scale(1 1) rotate(0) translate(4 430)">
<title>/home/travis/build/AliceO2Group/AliceO2/Detectors/EMCAL/testsimulation/PutEmcalInTop.C</title>
<!-- Node1 -->
<g id="node1" class="node"><title>Node1</title>
<polygon fill="#bfbfbf" stroke="black" points="656,-373 656,-425 820,-425 820,-373 656,-373"/>
<text text-anchor="start" x="664" y="-413" font-family="Helvetica,sans-Serif" font-size="10.00">/home/travis/build</text>
<text text-anchor="start" x="664" y="-402" font-family="Helvetica,sans-Serif" font-size="10.00">/AliceO2Group/AliceO2</text>
<text text-anchor="start" x="664" y="-391" font-family="Helvetica,sans-Serif" font-size="10.00">/Detectors/EMCAL/testsimulation</text>
<text text-anchor="middle" x="738" y="-380" font-family="Helvetica,sans-Serif" font-size="10.00">/PutEmcalInTop.C</text>
</g>
<!-- Node2 -->
<g id="node2" class="node"><title>Node2</title>
<polygon fill="none" stroke="#bfbfbf" points="416,-316.5 416,-335.5 502,-335.5 502,-316.5 416,-316.5"/>
<text text-anchor="middle" x="459" y="-323.5" font-family="Helvetica,sans-Serif" font-size="10.00">TGeoManager.h</text>
</g>
<!-- Node1&#45;&gt;Node2 -->
<g id="edge1" class="edge"><title>Node1&#45;&gt;Node2</title>
<path fill="none" stroke="midnightblue" d="M655.8,-377.082C605.567,-364.298 543.335,-348.462 502.468,-338.062"/>
<polygon fill="midnightblue" stroke="midnightblue" points="503.113,-334.614 492.559,-335.54 501.386,-341.398 503.113,-334.614"/>
</g>
<!-- Node3 -->
<g id="node3" class="node"><title>Node3</title>
<polygon fill="none" stroke="#bfbfbf" points="520,-316.5 520,-335.5 576,-335.5 576,-316.5 520,-316.5"/>
<text text-anchor="middle" x="548" y="-323.5" font-family="Helvetica,sans-Serif" font-size="10.00">TString.h</text>
</g>
<!-- Node1&#45;&gt;Node3 -->
<g id="edge2" class="edge"><title>Node1&#45;&gt;Node3</title>
<path fill="none" stroke="midnightblue" d="M671.013,-372.968C640.401,-361.529 605.527,-348.497 580.748,-339.237"/>
<polygon fill="midnightblue" stroke="midnightblue" points="581.711,-335.861 571.118,-335.639 579.26,-342.418 581.711,-335.861"/>
</g>
<!-- Node4 -->
<g id="node4" class="node"><title>Node4</title>
<polygon fill="none" stroke="#bfbfbf" points="594.5,-316.5 594.5,-335.5 659.5,-335.5 659.5,-316.5 594.5,-316.5"/>
<text text-anchor="middle" x="627" y="-323.5" font-family="Helvetica,sans-Serif" font-size="10.00">TSystem.h</text>
</g>
<!-- Node1&#45;&gt;Node4 -->
<g id="edge3" class="edge"><title>Node1&#45;&gt;Node4</title>
<path fill="none" stroke="midnightblue" d="M698.866,-372.968C682.174,-362.291 663.313,-350.227 649.103,-341.138"/>
<polygon fill="midnightblue" stroke="midnightblue" points="650.816,-338.079 640.506,-335.639 647.044,-343.976 650.816,-338.079"/>
</g>
<!-- Node5 -->
<g id="node5" class="node"><title>Node5</title>
<g id="a_node5"><a xlink:href="../../d9/d6d/Cave_8h.html" target="_top" xlink:title="DetectorsPassive/Cave.h">
<polygon fill="none" stroke="black" points="72.5,-260.5 72.5,-279.5 201.5,-279.5 201.5,-260.5 72.5,-260.5"/>
<text text-anchor="middle" x="137" y="-267.5" font-family="Helvetica,sans-Serif" font-size="10.00">DetectorsPassive/Cave.h</text>
</a>
</g>
</g>
<!-- Node1&#45;&gt;Node5 -->
<g id="edge4" class="edge"><title>Node1&#45;&gt;Node5</title>
<path fill="none" stroke="midnightblue" d="M724.048,-372.897C711.925,-353.74 692.477,-328.568 668,-316 648.052,-305.757 353.701,-285.215 212.063,-275.851"/>
<polygon fill="midnightblue" stroke="midnightblue" points="211.932,-272.335 201.723,-275.17 211.471,-279.32 211.932,-272.335"/>
</g>
<!-- Node10 -->
<g id="node10" class="node"><title>Node10</title>
<g id="a_node10"><a xlink:href="../../d2/d69/FrameStructure_8h.html" target="_top" xlink:title="DetectorsPassive/FrameStructure.h">
<polygon fill="none" stroke="black" points="880.5,-316.5 880.5,-335.5 1053.5,-335.5 1053.5,-316.5 880.5,-316.5"/>
<text text-anchor="middle" x="967" y="-323.5" font-family="Helvetica,sans-Serif" font-size="10.00">DetectorsPassive/FrameStructure.h</text>
</a>
</g>
</g>
<!-- Node1&#45;&gt;Node10 -->
<g id="edge9" class="edge"><title>Node1&#45;&gt;Node10</title>
<path fill="none" stroke="midnightblue" d="M818.737,-372.968C856.568,-361.239 899.8,-347.835 929.779,-338.54"/>
<polygon fill="midnightblue" stroke="midnightblue" points="930.895,-341.859 939.41,-335.554 928.822,-335.172 930.895,-341.859"/>
</g>
<!-- Node12 -->
<g id="node12" class="node"><title>Node12</title>
<g id="a_node12"><a xlink:href="../../d8/d3d/EMCAL_2simulation_2include_2EMCALSimulation_2Detector_8h.html" target="_top" xlink:title="EMCALSimulation/Detector.h">
<polygon fill="none" stroke="black" points="716,-316.5 716,-335.5 862,-335.5 862,-316.5 716,-316.5"/>
<text text-anchor="middle" x="789" y="-323.5" font-family="Helvetica,sans-Serif" font-size="10.00">EMCALSimulation/Detector.h</text>
</a>
</g>
</g>
<!-- Node1&#45;&gt;Node12 -->
<g id="edge11" class="edge"><title>Node1&#45;&gt;Node12</title>
<path fill="none" stroke="midnightblue" d="M756.124,-372.768C762.937,-363.284 770.517,-352.731 776.681,-344.15"/>
<polygon fill="midnightblue" stroke="midnightblue" points="779.718,-345.921 782.71,-335.757 774.033,-341.837 779.718,-345.921"/>
</g>
<!-- Node36 -->
<g id="node36" class="node"><title>Node36</title>
<polygon fill="none" stroke="#bfbfbf" points="1071.5,-316.5 1071.5,-335.5 1142.5,-335.5 1142.5,-316.5 1071.5,-316.5"/>
<text text-anchor="middle" x="1107" y="-323.5" font-family="Helvetica,sans-Serif" font-size="10.00">FairLogger.h</text>
</g>
<!-- Node1&#45;&gt;Node36 -->
<g id="edge44" class="edge"><title>Node1&#45;&gt;Node36</title>
<path fill="none" stroke="midnightblue" d="M820.265,-382.454C883.409,-370.475 973.043,-353.374 1061.23,-336.138"/>
<polygon fill="midnightblue" stroke="midnightblue" points="1062,-339.554 1071.14,-334.199 1060.66,-332.684 1062,-339.554"/>
</g>
<!-- Node37 -->
<g id="node37" class="node"><title>Node37</title>
<polygon fill="none" stroke="#bfbfbf" points="1160.5,-316.5 1160.5,-335.5 1237.5,-335.5 1237.5,-316.5 1160.5,-316.5"/>
<text text-anchor="middle" x="1199" y="-323.5" font-family="Helvetica,sans-Serif" font-size="10.00">FairRunSim.h</text>
</g>
<!-- Node1&#45;&gt;Node37 -->
<g id="edge45" class="edge"><title>Node1&#45;&gt;Node37</title>
<path fill="none" stroke="midnightblue" d="M820.026,-386.582C901.183,-375.08 1029.2,-356.39 1150.07,-336.105"/>
<polygon fill="midnightblue" stroke="midnightblue" points="1150.97,-339.504 1160.25,-334.391 1149.81,-332.601 1150.97,-339.504"/>
</g>
<!-- Node6 -->
<g id="node6" class="node"><title>Node6</title>
<polygon fill="none" stroke="#bfbfbf" points="176.5,-198.5 176.5,-217.5 255.5,-217.5 255.5,-198.5 176.5,-198.5"/>
<text text-anchor="middle" x="216" y="-205.5" font-family="Helvetica,sans-Serif" font-size="10.00">FairDetector.h</text>
</g>
<!-- Node5&#45;&gt;Node6 -->
<g id="edge5" class="edge"><title>Node5&#45;&gt;Node6</title>
<path fill="none" stroke="midnightblue" d="M148.319,-260.403C160.873,-250.869 181.351,-235.315 196.499,-223.811"/>
<polygon fill="midnightblue" stroke="midnightblue" points="198.856,-226.416 204.702,-217.581 194.622,-220.842 198.856,-226.416"/>
</g>
<!-- Node7 -->
<g id="node7" class="node"><title>Node7</title>
<polygon fill="none" stroke="#bfbfbf" points="445,-74.5 445,-93.5 501,-93.5 501,-74.5 445,-74.5"/>
<text text-anchor="middle" x="473" y="-81.5" font-family="Helvetica,sans-Serif" font-size="10.00">Rtypes.h</text>
</g>
<!-- Node5&#45;&gt;Node7 -->
<g id="edge6" class="edge"><title>Node5&#45;&gt;Node7</title>
<path fill="none" stroke="midnightblue" d="M128.159,-260.175C114.082,-245.04 89.7435,-213.673 106,-192 145.997,-138.676 349.183,-103.156 434.837,-90.3304"/>
<polygon fill="midnightblue" stroke="midnightblue" points="435.538,-93.7649 444.921,-88.8444 434.518,-86.8397 435.538,-93.7649"/>
</g>
<!-- Node8 -->
<g id="node8" class="node"><title>Node8</title>
<polygon fill="none" stroke="#bfbfbf" points="-0.5,-198.5 -0.5,-217.5 58.5,-217.5 58.5,-198.5 -0.5,-198.5"/>
<text text-anchor="middle" x="29" y="-205.5" font-family="Helvetica,sans-Serif" font-size="10.00">functional</text>
</g>
<!-- Node5&#45;&gt;Node8 -->
<g id="edge7" class="edge"><title>Node5&#45;&gt;Node8</title>
<path fill="none" stroke="midnightblue" d="M121.526,-260.403C103.722,-250.512 74.2595,-234.144 53.368,-222.538"/>
<polygon fill="midnightblue" stroke="midnightblue" points="54.8864,-219.378 44.4451,-217.581 51.4869,-225.497 54.8864,-219.378"/>
</g>
<!-- Node9 -->
<g id="node9" class="node"><title>Node9</title>
<polygon fill="none" stroke="#bfbfbf" points="115,-198.5 115,-217.5 159,-217.5 159,-198.5 115,-198.5"/>
<text text-anchor="middle" x="137" y="-205.5" font-family="Helvetica,sans-Serif" font-size="10.00">vector</text>
</g>
<!-- Node5&#45;&gt;Node9 -->
<g id="edge8" class="edge"><title>Node5&#45;&gt;Node9</title>
<path fill="none" stroke="midnightblue" d="M137,-260.403C137,-251.938 137,-238.728 137,-227.82"/>
<polygon fill="midnightblue" stroke="midnightblue" points="140.5,-227.581 137,-217.581 133.5,-227.581 140.5,-227.581"/>
</g>
<!-- Node11 -->
<g id="node11" class="node"><title>Node11</title>
<polygon fill="none" stroke="#bfbfbf" points="1194.5,-260.5 1194.5,-279.5 1267.5,-279.5 1267.5,-260.5 1194.5,-260.5"/>
<text text-anchor="middle" x="1231" y="-267.5" font-family="Helvetica,sans-Serif" font-size="10.00">FairModule.h</text>
</g>
<!-- Node10&#45;&gt;Node11 -->
<g id="edge10" class="edge"><title>Node10&#45;&gt;Node11</title>
<path fill="none" stroke="midnightblue" d="M1008.83,-316.444C1056.71,-306.65 1134.91,-290.655 1184.62,-280.488"/>
<polygon fill="midnightblue" stroke="midnightblue" points="1185.37,-283.906 1194.47,-278.473 1183.97,-277.048 1185.37,-283.906"/>
</g>
<!-- Node12&#45;&gt;Node7 -->
<g id="edge42" class="edge"><title>Node12&#45;&gt;Node7</title>
<path fill="none" stroke="midnightblue" d="M828.121,-316.458C900.657,-298.887 1044.1,-254.984 992,-192 852.993,-23.9516 719.177,-161.711 510,-100 507.195,-99.1726 504.31,-98.2105 501.447,-97.1806"/>
<polygon fill="midnightblue" stroke="midnightblue" points="502.538,-93.8501 491.949,-93.5151 500.018,-100.381 502.538,-93.8501"/>
</g>
<!-- Node12&#45;&gt;Node9 -->
<g id="edge43" class="edge"><title>Node12&#45;&gt;Node9</title>
<path fill="none" stroke="midnightblue" d="M715.762,-317.86C618.599,-308.186 452.328,-290.878 392,-280 290.585,-261.713 263.668,-259.703 167,-224 165.348,-223.39 163.667,-222.714 161.987,-221.997"/>
<polygon fill="midnightblue" stroke="midnightblue" points="163.133,-218.67 152.592,-217.607 160.17,-225.012 163.133,-218.67"/>
</g>
<!-- Node13 -->
<g id="node13" class="node"><title>Node13</title>
<g id="a_node13"><a xlink:href="../../d1/d3a/Base_2include_2DetectorsBase_2Detector_8h.html" target="_top" xlink:title="DetectorsBase/Detector.h">
<polygon fill="none" stroke="black" points="499.5,-260.5 499.5,-279.5 630.5,-279.5 630.5,-260.5 499.5,-260.5"/>
<text text-anchor="middle" x="565" y="-267.5" font-family="Helvetica,sans-Serif" font-size="10.00">DetectorsBase/Detector.h</text>
</a>
</g>
</g>
<!-- Node12&#45;&gt;Node13 -->
<g id="edge12" class="edge"><title>Node12&#45;&gt;Node13</title>
<path fill="none" stroke="midnightblue" d="M753.507,-316.444C714.676,-307.083 652.344,-292.056 610.082,-281.868"/>
<polygon fill="midnightblue" stroke="midnightblue" points="610.869,-278.458 600.327,-279.516 609.229,-285.263 610.869,-278.458"/>
</g>
<!-- Node22 -->
<g id="node22" class="node"><title>Node22</title>
<g id="a_node22"><a xlink:href="../../d5/d8b/EMCAL_2base_2include_2EMCALBase_2Hit_8h.html" target="_top" xlink:title="EMCALBase/Hit.h">
<polygon fill="none" stroke="black" points="1078,-260.5 1078,-279.5 1176,-279.5 1176,-260.5 1078,-260.5"/>
<text text-anchor="middle" x="1127" y="-267.5" font-family="Helvetica,sans-Serif" font-size="10.00">EMCALBase/Hit.h</text>
</a>
</g>
</g>
<!-- Node12&#45;&gt;Node22 -->
<g id="edge26" class="edge"><title>Node12&#45;&gt;Node22</title>
<path fill="none" stroke="midnightblue" d="M842.557,-316.444C903.958,-306.634 1004.3,-290.602 1067.93,-280.437"/>
<polygon fill="midnightblue" stroke="midnightblue" points="1068.49,-283.892 1077.81,-278.858 1067.39,-276.98 1068.49,-283.892"/>
</g>
<!-- Node24 -->
<g id="node24" class="node"><title>Node24</title>
<g id="a_node24"><a xlink:href="../../dd/d76/Cartesian3D_8h.html" target="_top" xlink:title="MathUtils/Cartesian3D.h">
<polygon fill="none" stroke="black" points="1071.5,-136.5 1071.5,-155.5 1196.5,-155.5 1196.5,-136.5 1071.5,-136.5"/>
<text text-anchor="middle" x="1134" y="-143.5" font-family="Helvetica,sans-Serif" font-size="10.00">MathUtils/Cartesian3D.h</text>
</a>
</g>
</g>
<!-- Node12&#45;&gt;Node24 -->
<g id="edge40" class="edge"><title>Node12&#45;&gt;Node24</title>
<path fill="none" stroke="midnightblue" d="M848.805,-316.487C914.32,-306.717 1012.02,-290.673 1026,-280 1060.6,-253.588 1040.63,-225.015 1069,-192 1079.87,-179.351 1095.06,-168.572 1108.03,-160.737"/>
<polygon fill="midnightblue" stroke="midnightblue" points="1110.07,-163.599 1116.98,-155.568 1106.57,-157.537 1110.07,-163.599"/>
</g>
<!-- Node35 -->
<g id="node35" class="node"><title>Node35</title>
<polygon fill="none" stroke="#bfbfbf" points="401,-260.5 401,-279.5 481,-279.5 481,-260.5 401,-260.5"/>
<text text-anchor="middle" x="441" y="-267.5" font-family="Helvetica,sans-Serif" font-size="10.00">RStringView.h</text>
</g>
<!-- Node12&#45;&gt;Node35 -->
<g id="edge41" class="edge"><title>Node12&#45;&gt;Node35</title>
<path fill="none" stroke="midnightblue" d="M728.492,-316.478C670.213,-308.137 579.316,-294.782 491.011,-280.126"/>
<polygon fill="midnightblue" stroke="midnightblue" points="491.532,-276.665 481.093,-278.473 490.381,-283.57 491.532,-276.665"/>
</g>
<!-- Node13&#45;&gt;Node6 -->
<g id="edge16" class="edge"><title>Node13&#45;&gt;Node6</title>
<path fill="none" stroke="midnightblue" d="M500.631,-260.484C426.28,-250.446 308.594,-233.885 265,-224 260.486,-222.976 255.782,-221.749 251.153,-220.444"/>
<polygon fill="midnightblue" stroke="midnightblue" points="251.822,-216.991 241.24,-217.508 249.834,-223.703 251.822,-216.991"/>
</g>
<!-- Node13&#45;&gt;Node7 -->
<g id="edge21" class="edge"><title>Node13&#45;&gt;Node7</title>
<path fill="none" stroke="midnightblue" d="M554.481,-260.34C544.86,-251.932 530.822,-238.364 522,-224 497.754,-184.524 483.294,-131.359 476.906,-103.614"/>
<polygon fill="midnightblue" stroke="midnightblue" points="480.29,-102.709 474.72,-93.6959 473.454,-104.215 480.29,-102.709"/>
</g>
<!-- Node13&#45;&gt;Node9 -->
<g id="edge14" class="edge"><title>Node13&#45;&gt;Node9</title>
<path fill="none" stroke="midnightblue" d="M499.154,-261.067C496.06,-260.704 492.996,-260.347 490,-260 346.513,-243.395 305.523,-264.933 167,-224 165.032,-223.418 163.036,-222.712 161.059,-221.928"/>
<polygon fill="midnightblue" stroke="midnightblue" points="162.078,-218.544 151.53,-217.554 159.159,-224.906 162.078,-218.544"/>
</g>
<!-- Node14 -->
<g id="node14" class="node"><title>Node14</title>
<polygon fill="none" stroke="#bfbfbf" points="585.5,-136.5 585.5,-155.5 620.5,-155.5 620.5,-136.5 585.5,-136.5"/>
<text text-anchor="middle" x="603" y="-143.5" font-family="Helvetica,sans-Serif" font-size="10.00">map</text>
</g>
<!-- Node13&#45;&gt;Node14 -->
<g id="edge13" class="edge"><title>Node13&#45;&gt;Node14</title>
<path fill="none" stroke="midnightblue" d="M555.38,-260.244C540.647,-245.732 515.547,-215.925 529,-192 538.98,-174.251 559.109,-162.688 575.856,-155.732"/>
<polygon fill="midnightblue" stroke="midnightblue" points="577.129,-158.993 585.224,-152.158 574.634,-152.453 577.129,-158.993"/>
</g>
<!-- Node15 -->
<g id="node15" class="node"><title>Node15</title>
<polygon fill="none" stroke="#bfbfbf" points="274,-198.5 274,-217.5 326,-217.5 326,-198.5 274,-198.5"/>
<text text-anchor="middle" x="300" y="-205.5" font-family="Helvetica,sans-Serif" font-size="10.00">memory</text>
</g>
<!-- Node13&#45;&gt;Node15 -->
<g id="edge15" class="edge"><title>Node13&#45;&gt;Node15</title>
<path fill="none" stroke="midnightblue" d="M502.622,-260.457C455.851,-253.174 390.601,-241.142 335,-224 332.512,-223.233 329.962,-222.347 327.427,-221.397"/>
<polygon fill="midnightblue" stroke="midnightblue" points="328.474,-218.045 317.892,-217.531 325.844,-224.532 328.474,-218.045"/>
</g>
<!-- Node16 -->
<g id="node16" class="node"><title>Node16</title>
<polygon fill="none" stroke="#bfbfbf" points="344,-198.5 344,-217.5 444,-217.5 444,-198.5 344,-198.5"/>
<text text-anchor="middle" x="394" y="-205.5" font-family="Helvetica,sans-Serif" font-size="10.00">FairRootManager.h</text>
</g>
<!-- Node13&#45;&gt;Node16 -->
<g id="edge17" class="edge"><title>Node13&#45;&gt;Node16</title>
<path fill="none" stroke="midnightblue" d="M540.5,-260.403C511.04,-250.067 461.421,-232.656 428.198,-220.999"/>
<polygon fill="midnightblue" stroke="midnightblue" points="429.05,-217.589 418.455,-217.581 426.732,-224.194 429.05,-217.589"/>
</g>
<!-- Node17 -->
<g id="node17" class="node"><title>Node17</title>
<g id="a_node17"><a xlink:href="../../d0/d9a/MaterialManager_8h.html" target="_top" xlink:title="DetectorsBase/MaterialManager.h">
<polygon fill="none" stroke="black" points="818.5,-198.5 818.5,-217.5 983.5,-217.5 983.5,-198.5 818.5,-198.5"/>
<text text-anchor="middle" x="901" y="-205.5" font-family="Helvetica,sans-Serif" font-size="10.00">DetectorsBase/MaterialManager.h</text>
</a>
</g>
</g>
<!-- Node13&#45;&gt;Node17 -->
<g id="edge18" class="edge"><title>Node13&#45;&gt;Node17</title>
<path fill="none" stroke="midnightblue" d="M612.784,-260.467C673.492,-249.626 778.182,-230.932 843.285,-219.306"/>
<polygon fill="midnightblue" stroke="midnightblue" points="844.152,-222.707 853.381,-217.503 842.921,-215.816 844.152,-222.707"/>
</g>
<!-- Node18 -->
<g id="node18" class="node"><title>Node18</title>
<polygon fill="none" stroke="#bfbfbf" points="538.5,-198.5 538.5,-217.5 591.5,-217.5 591.5,-198.5 538.5,-198.5"/>
<text text-anchor="middle" x="565" y="-205.5" font-family="Helvetica,sans-Serif" font-size="10.00">cxxabi.h</text>
</g>
<!-- Node13&#45;&gt;Node18 -->
<g id="edge22" class="edge"><title>Node13&#45;&gt;Node18</title>
<path fill="none" stroke="midnightblue" d="M565,-260.403C565,-251.938 565,-238.728 565,-227.82"/>
<polygon fill="midnightblue" stroke="midnightblue" points="568.5,-227.581 565,-217.581 561.5,-227.581 568.5,-227.581"/>
</g>
<!-- Node19 -->
<g id="node19" class="node"><title>Node19</title>
<polygon fill="none" stroke="#bfbfbf" points="609.5,-198.5 609.5,-217.5 660.5,-217.5 660.5,-198.5 609.5,-198.5"/>
<text text-anchor="middle" x="635" y="-205.5" font-family="Helvetica,sans-Serif" font-size="10.00">typeinfo</text>
</g>
<!-- Node13&#45;&gt;Node19 -->
<g id="edge23" class="edge"><title>Node13&#45;&gt;Node19</title>
<path fill="none" stroke="midnightblue" d="M575.029,-260.403C586.049,-250.958 603.96,-235.606 617.343,-224.134"/>
<polygon fill="midnightblue" stroke="midnightblue" points="619.675,-226.746 624.989,-217.581 615.119,-221.431 619.675,-226.746"/>
</g>
<!-- Node20 -->
<g id="node20" class="node"><title>Node20</title>
<polygon fill="none" stroke="#bfbfbf" points="679,-198.5 679,-217.5 741,-217.5 741,-198.5 679,-198.5"/>
<text text-anchor="middle" x="710" y="-205.5" font-family="Helvetica,sans-Serif" font-size="10.00">type_traits</text>
</g>
<!-- Node13&#45;&gt;Node20 -->
<g id="edge24" class="edge"><title>Node13&#45;&gt;Node20</title>
<path fill="none" stroke="midnightblue" d="M585.775,-260.403C610.432,-250.2 651.745,-233.105 679.902,-221.454"/>
<polygon fill="midnightblue" stroke="midnightblue" points="681.362,-224.638 689.264,-217.581 678.685,-218.17 681.362,-224.638"/>
</g>
<!-- Node21 -->
<g id="node21" class="node"><title>Node21</title>
<polygon fill="none" stroke="#bfbfbf" points="759.5,-198.5 759.5,-217.5 800.5,-217.5 800.5,-198.5 759.5,-198.5"/>
<text text-anchor="middle" x="780" y="-205.5" font-family="Helvetica,sans-Serif" font-size="10.00">string</text>
</g>
<!-- Node13&#45;&gt;Node21 -->
<g id="edge25" class="edge"><title>Node13&#45;&gt;Node21</title>
<path fill="none" stroke="midnightblue" d="M611.542,-260.449C649.226,-252.854 703.356,-240.417 749,-224 750.857,-223.332 752.75,-222.587 754.639,-221.796"/>
<polygon fill="midnightblue" stroke="midnightblue" points="756.213,-224.926 763.867,-217.601 753.316,-218.553 756.213,-224.926"/>
</g>
<!-- Node17&#45;&gt;Node7 -->
<g id="edge19" class="edge"><title>Node17&#45;&gt;Node7</title>
<path fill="none" stroke="midnightblue" d="M867.873,-198.473C786.424,-177.423 578.085,-123.027 510,-100 507.441,-99.1346 504.804,-98.1851 502.172,-97.1972"/>
<polygon fill="midnightblue" stroke="midnightblue" points="503.396,-93.9178 492.808,-93.5323 500.845,-100.436 503.396,-93.9178"/>
</g>
<!-- Node17&#45;&gt;Node14 -->
<g id="edge20" class="edge"><title>Node17&#45;&gt;Node14</title>
<path fill="none" stroke="midnightblue" d="M858.62,-198.467C796.533,-185.966 682.579,-163.023 630.4,-152.517"/>
<polygon fill="midnightblue" stroke="midnightblue" points="631.026,-149.073 620.532,-150.53 629.644,-155.935 631.026,-149.073"/>
</g>
<!-- Node23 -->
<g id="node23" class="node"><title>Node23</title>
<g id="a_node23"><a xlink:href="../../d4/d25/BaseHits_8h.html" target="_top" xlink:title="SimulationDataFormat\l/BaseHits.h">
<polygon fill="none" stroke="black" points="1078,-193 1078,-223 1192,-223 1192,-193 1078,-193"/>
<text text-anchor="start" x="1086" y="-211" font-family="Helvetica,sans-Serif" font-size="10.00">SimulationDataFormat</text>
<text text-anchor="middle" x="1135" y="-200" font-family="Helvetica,sans-Serif" font-size="10.00">/BaseHits.h</text>
</a>
</g>
</g>
<!-- Node22&#45;&gt;Node23 -->
<g id="edge27" class="edge"><title>Node22&#45;&gt;Node23</title>
<path fill="none" stroke="midnightblue" d="M1128.15,-260.403C1129.1,-253.265 1130.5,-242.752 1131.79,-233.09"/>
<polygon fill="midnightblue" stroke="midnightblue" points="1135.26,-233.516 1133.11,-223.141 1128.32,-232.59 1135.26,-233.516"/>
</g>
<!-- Node23&#45;&gt;Node24 -->
<g id="edge28" class="edge"><title>Node23&#45;&gt;Node24</title>
<path fill="none" stroke="midnightblue" d="M1134.76,-192.781C1134.63,-184.781 1134.46,-174.689 1134.32,-166.017"/>
<polygon fill="midnightblue" stroke="midnightblue" points="1137.81,-165.671 1134.15,-155.731 1130.81,-165.788 1137.81,-165.671"/>
</g>
<!-- Node24&#45;&gt;Node7 -->
<g id="edge34" class="edge"><title>Node24&#45;&gt;Node7</title>
<path fill="none" stroke="midnightblue" d="M1071.48,-139.646C1056.58,-138.409 1040.73,-137.127 1026,-136 796.78,-118.454 733.972,-151.829 510,-100 506.925,-99.2885 503.774,-98.3556 500.67,-97.3025"/>
<polygon fill="midnightblue" stroke="midnightblue" points="501.663,-93.9355 491.072,-93.6533 499.175,-100.479 501.663,-93.9355"/>
</g>
<!-- Node25 -->
<g id="node25" class="node"><title>Node25</title>
<polygon fill="none" stroke="#bfbfbf" points="1541.5,-69 1541.5,-99 1692.5,-99 1692.5,-69 1541.5,-69"/>
<text text-anchor="start" x="1549.5" y="-87" font-family="Helvetica,sans-Serif" font-size="10.00">Math/GenVector/Displacement</text>
<text text-anchor="middle" x="1617" y="-76" font-family="Helvetica,sans-Serif" font-size="10.00">Vector3D.h</text>
</g>
<!-- Node24&#45;&gt;Node25 -->
<g id="edge29" class="edge"><title>Node24&#45;&gt;Node25</title>
<path fill="none" stroke="midnightblue" d="M1196.54,-139.141C1272.99,-131.708 1406.52,-117.85 1531.37,-100.031"/>
<polygon fill="midnightblue" stroke="midnightblue" points="1532.1,-103.463 1541.5,-98.5751 1531.1,-96.5348 1532.1,-103.463"/>
</g>
<!-- Node26 -->
<g id="node26" class="node"><title>Node26</title>
<polygon fill="none" stroke="#bfbfbf" points="519,-74.5 519,-93.5 695,-93.5 695,-74.5 519,-74.5"/>
<text text-anchor="middle" x="607" y="-81.5" font-family="Helvetica,sans-Serif" font-size="10.00">Math/GenVector/PositionVector3D.h</text>
</g>
<!-- Node24&#45;&gt;Node26 -->
<g id="edge30" class="edge"><title>Node24&#45;&gt;Node26</title>
<path fill="none" stroke="midnightblue" d="M1071.43,-139.475C987.462,-131.831 833.742,-117.028 703,-100 691.744,-98.534 679.773,-96.8023 668.24,-95.046"/>
<polygon fill="midnightblue" stroke="midnightblue" points="668.664,-91.57 658.247,-93.5022 667.595,-98.488 668.664,-91.57"/>
</g>
<!-- Node27 -->
<g id="node27" class="node"><title>Node27</title>
<polygon fill="none" stroke="#bfbfbf" points="712.5,-74.5 712.5,-93.5 861.5,-93.5 861.5,-74.5 712.5,-74.5"/>
<text text-anchor="middle" x="787" y="-81.5" font-family="Helvetica,sans-Serif" font-size="10.00">Math/GenVector/Rotation3D.h</text>
</g>
<!-- Node24&#45;&gt;Node27 -->
<g id="edge31" class="edge"><title>Node24&#45;&gt;Node27</title>
<path fill="none" stroke="midnightblue" d="M1083.56,-136.482C1030.61,-127.512 944.922,-112.924 871,-100 862.412,-98.4985 853.333,-96.8946 844.443,-95.3148"/>
<polygon fill="midnightblue" stroke="midnightblue" points="844.981,-91.8557 834.523,-93.5481 843.754,-98.7472 844.981,-91.8557"/>
</g>
<!-- Node28 -->
<g id="node28" class="node"><title>Node28</title>
<polygon fill="none" stroke="#bfbfbf" points="880,-74.5 880,-93.5 1036,-93.5 1036,-74.5 880,-74.5"/>
<text text-anchor="middle" x="958" y="-81.5" font-family="Helvetica,sans-Serif" font-size="10.00">Math/GenVector/Transform3D.h</text>
</g>
<!-- Node24&#45;&gt;Node28 -->
<g id="edge32" class="edge"><title>Node24&#45;&gt;Node28</title>
<path fill="none" stroke="midnightblue" d="M1108.78,-136.403C1078.33,-126.022 1026.95,-108.506 992.757,-96.849"/>
<polygon fill="midnightblue" stroke="midnightblue" points="993.764,-93.4946 983.17,-93.5806 991.505,-100.12 993.764,-93.4946"/>
</g>
<!-- Node29 -->
<g id="node29" class="node"><title>Node29</title>
<polygon fill="none" stroke="#bfbfbf" points="1054,-74.5 1054,-93.5 1214,-93.5 1214,-74.5 1054,-74.5"/>
<text text-anchor="middle" x="1134" y="-81.5" font-family="Helvetica,sans-Serif" font-size="10.00">Math/GenVector/Translation3D.h</text>
</g>
<!-- Node24&#45;&gt;Node29 -->
<g id="edge33" class="edge"><title>Node24&#45;&gt;Node29</title>
<path fill="none" stroke="midnightblue" d="M1134,-136.403C1134,-127.938 1134,-114.728 1134,-103.82"/>
<polygon fill="midnightblue" stroke="midnightblue" points="1137.5,-103.581 1134,-93.5806 1130.5,-103.581 1137.5,-103.581"/>
</g>
<!-- Node30 -->
<g id="node30" class="node"><title>Node30</title>
<polygon fill="none" stroke="#bfbfbf" points="1232,-74.5 1232,-93.5 1308,-93.5 1308,-74.5 1232,-74.5"/>
<text text-anchor="middle" x="1270" y="-81.5" font-family="Helvetica,sans-Serif" font-size="10.00">TGeoMatrix.h</text>
</g>
<!-- Node24&#45;&gt;Node30 -->
<g id="edge35" class="edge"><title>Node24&#45;&gt;Node30</title>
<path fill="none" stroke="midnightblue" d="M1153.49,-136.403C1176.41,-126.29 1214.69,-109.404 1241.08,-97.761"/>
<polygon fill="midnightblue" stroke="midnightblue" points="1242.81,-100.819 1250.55,-93.5806 1239.99,-94.4148 1242.81,-100.819"/>
</g>
<!-- Node31 -->
<g id="node31" class="node"><title>Node31</title>
<polygon fill="none" stroke="#bfbfbf" points="1326,-74.5 1326,-93.5 1380,-93.5 1380,-74.5 1326,-74.5"/>
<text text-anchor="middle" x="1353" y="-81.5" font-family="Helvetica,sans-Serif" font-size="10.00">iostream</text>
</g>
<!-- Node24&#45;&gt;Node31 -->
<g id="edge36" class="edge"><title>Node24&#45;&gt;Node31</title>
<path fill="none" stroke="midnightblue" d="M1176.68,-136.451C1214.1,-128.496 1269.76,-115.547 1317,-100 1319.42,-99.2036 1321.91,-98.3173 1324.39,-97.3846"/>
<polygon fill="midnightblue" stroke="midnightblue" points="1325.78,-100.598 1333.78,-93.6507 1323.19,-94.0939 1325.78,-100.598"/>
</g>
<!-- Node32 -->
<g id="node32" class="node"><title>Node32</title>
<g id="a_node32"><a xlink:href="../../d2/dd0/Cartesian2D_8h.html" target="_top" xlink:title="MathUtils/Cartesian2D.h">
<polygon fill="none" stroke="black" points="1398.5,-74.5 1398.5,-93.5 1523.5,-93.5 1523.5,-74.5 1398.5,-74.5"/>
<text text-anchor="middle" x="1461" y="-81.5" font-family="Helvetica,sans-Serif" font-size="10.00">MathUtils/Cartesian2D.h</text>
</a>
</g>
</g>
<!-- Node24&#45;&gt;Node32 -->
<g id="edge37" class="edge"><title>Node24&#45;&gt;Node32</title>
<path fill="none" stroke="midnightblue" d="M1184.89,-136.494C1236.42,-127.768 1318.37,-113.587 1389,-100 1396.15,-98.6237 1403.7,-97.1157 1411.1,-95.6031"/>
<polygon fill="midnightblue" stroke="midnightblue" points="1411.97,-98.9975 1421.06,-93.5495 1410.55,-92.1418 1411.97,-98.9975"/>
</g>
<!-- Node33 -->
<g id="node33" class="node"><title>Node33</title>
<polygon fill="none" stroke="#bfbfbf" points="1294.5,-1 1294.5,-31 1445.5,-31 1445.5,-1 1294.5,-1"/>
<text text-anchor="start" x="1302.5" y="-19" font-family="Helvetica,sans-Serif" font-size="10.00">Math/GenVector/Displacement</text>
<text text-anchor="middle" x="1370" y="-8" font-family="Helvetica,sans-Serif" font-size="10.00">Vector2D.h</text>
</g>
<!-- Node32&#45;&gt;Node33 -->
<g id="edge38" class="edge"><title>Node32&#45;&gt;Node33</title>
<path fill="none" stroke="midnightblue" d="M1449.1,-74.3717C1436.22,-65.0286 1415.22,-49.7966 1398.09,-37.375"/>
<polygon fill="midnightblue" stroke="midnightblue" points="1399.7,-34.2194 1389.55,-31.1815 1395.59,-39.8859 1399.7,-34.2194"/>
</g>
<!-- Node34 -->
<g id="node34" class="node"><title>Node34</title>
<polygon fill="none" stroke="#bfbfbf" points="1464,-6.5 1464,-25.5 1640,-25.5 1640,-6.5 1464,-6.5"/>
<text text-anchor="middle" x="1552" y="-13.5" font-family="Helvetica,sans-Serif" font-size="10.00">Math/GenVector/PositionVector2D.h</text>
</g>
<!-- Node32&#45;&gt;Node34 -->
<g id="edge39" class="edge"><title>Node32&#45;&gt;Node34</title>
<path fill="none" stroke="midnightblue" d="M1472.9,-74.3717C1487.88,-63.5015 1513.86,-44.6602 1531.94,-31.5474"/>
<polygon fill="midnightblue" stroke="midnightblue" points="1534.06,-34.3349 1540.1,-25.6305 1529.95,-28.6684 1534.06,-34.3349"/>
</g>
</g>
</svg>
