<?xml version="1.0" encoding="UTF-8" standalone="no"?>
<!DOCTYPE svg PUBLIC "-//W3C//DTD SVG 1.1//EN"
 "http://www.w3.org/Graphics/SVG/1.1/DTD/svg11.dtd">
<!-- Generated by graphviz version 2.36.0 (20140111.2315)
 -->
<!-- Title: /home/travis/build/AliceO2Group/AliceO2/Utilities/DataFlow/src/TimeframeWriterDevice.cxx Pages: 1 -->
<!--zoomable 298 -->
<svg id="main" version="1.1" xmlns="http://www.w3.org/2000/svg" xmlns:xlink="http://www.w3.org/1999/xlink" xml:space="preserve" onload="init(evt)">
<style type="text/css"><![CDATA[
.edge:hover path { stroke: red; }
.edge:hover polygon { stroke: red; fill: red; }
]]></style>
<script type="text/javascript"><![CDATA[
var edges = document.getElementsByTagName('g');
if (edges && edges.length) {
  for (var i=0;i<edges.length;i++) {
    if (edges[i].id.substr(0,4)=='edge') {
      edges[i].setAttribute('class','edge');
    }
  }
}
]]></script>
        <defs>
                <circle id="rim" cx="0" cy="0" r="7"/>
                <circle id="rim2" cx="0" cy="0" r="3.5"/>
                <g id="zoomPlus">
                        <use xlink:href="#rim" fill="#404040">
                                <set attributeName="fill" to="#808080" begin="zoomplus.mouseover" end="zoomplus.mouseout"/>
                        </use>
                        <path d="M-4,0h8M0,-4v8" fill="none" stroke="white" stroke-width="1.5" pointer-events="none"/>
                </g>
                <g id="zoomMin">
                        <use xlink:href="#rim" fill="#404040">
                                <set attributeName="fill" to="#808080" begin="zoomminus.mouseover" end="zoomminus.mouseout"/>
                        </use>
                        <path d="M-4,0h8" fill="none" stroke="white" stroke-width="1.5" pointer-events="none"/>
                </g>
                <g id="dirArrow">
                        <path fill="none" stroke="white" stroke-width="1.5" d="M0,-3.0v7 M-2.5,-0.5L0,-3.0L2.5,-0.5"/>
                </g>
               <g id="resetDef">
                       <use xlink:href="#rim2" fill="#404040">
                               <set attributeName="fill" to="#808080" begin="reset.mouseover" end="reset.mouseout"/>
                       </use>
               </g>
        </defs>

<script type="text/javascript">
var viewWidth = 1048;
var viewHeight = 298;
var sectionId = 'dynsection-0';
</script>
<script xlink:href="../../svgpan.js"/>
<svg id="graph" class="graph">
<g id="viewport">
<title>/home/travis/build/AliceO2Group/AliceO2/Utilities/DataFlow/src/TimeframeWriterDevice.cxx</title>
<!-- Node1 -->
<g id="node1" class="node"><title>Node1</title>
<polygon fill="#bfbfbf" stroke="black" points="297,-237 297,-289 439,-289 439,-237 297,-237"/>
<text text-anchor="start" x="305" y="-277" font-family="Helvetica,sans-Serif" font-size="10.00">/home/travis/build</text>
<text text-anchor="start" x="305" y="-266" font-family="Helvetica,sans-Serif" font-size="10.00">/AliceO2Group/AliceO2</text>
<text text-anchor="start" x="305" y="-255" font-family="Helvetica,sans-Serif" font-size="10.00">/Utilities/DataFlow/src</text>
<text text-anchor="middle" x="368" y="-244" font-family="Helvetica,sans-Serif" font-size="10.00">/TimeframeWriterDevice.cxx</text>
</g>
<!-- Node2 -->
<g id="node2" class="node"><title>Node2</title>
<polygon fill="none" stroke="#bfbfbf" points="5,-174.5 5,-193.5 49,-193.5 49,-174.5 5,-174.5"/>
<text text-anchor="middle" x="27" y="-181.5" font-family="Helvetica,sans-Serif" font-size="10.00">thread</text>
</g>
<!-- Node1&#45;&gt;Node2 -->
<g id="edge1" class="edge"><title>Node1&#45;&gt;Node2</title>
<path fill="none" stroke="midnightblue" d="M296.804,-252.996C233.098,-243.716 137.735,-226.78 58,-200 56.0871,-199.358 54.1398,-198.624 52.2004,-197.834"/>
<polygon fill="midnightblue" stroke="midnightblue" points="53.3201,-194.499 42.7651,-193.581 50.4433,-200.881 53.3201,-194.499"/>
</g>
<!-- Node3 -->
<g id="node3" class="node"><title>Node3</title>
<polygon fill="none" stroke="#bfbfbf" points="428,-56.5 428,-75.5 474,-75.5 474,-56.5 428,-56.5"/>
<text text-anchor="middle" x="451" y="-63.5" font-family="Helvetica,sans-Serif" font-size="10.00">chrono</text>
</g>
<!-- Node1&#45;&gt;Node3 -->
<g id="edge2" class="edge"><title>Node1&#45;&gt;Node3</title>
<path fill="none" stroke="midnightblue" d="M320.599,-236.87C307.251,-227.249 294.372,-214.926 287,-200 269.681,-164.933 263.284,-143.1 287,-112 302.795,-91.287 374.73,-77.7487 417.91,-71.3349"/>
<polygon fill="midnightblue" stroke="midnightblue" points="418.556,-74.7783 427.957,-69.8937 417.562,-67.8492 418.556,-74.7783"/>
</g>
<!-- Node4 -->
<g id="node4" class="node"><title>Node4</title>
<g id="a_node4"><a xlink:href="../../dd/dcc/TimeframeWriterDevice_8h.html" target="_top" xlink:title="DataFlow/TimeframeWriter\lDevice.h">
<polygon fill="none" stroke="black" points="67,-169 67,-199 201,-199 201,-169 67,-169"/>
<text text-anchor="start" x="75" y="-187" font-family="Helvetica,sans-Serif" font-size="10.00">DataFlow/TimeframeWriter</text>
<text text-anchor="middle" x="134" y="-176" font-family="Helvetica,sans-Serif" font-size="10.00">Device.h</text>
</a>
</g>
</g>
<!-- Node1&#45;&gt;Node4 -->
<g id="edge3" class="edge"><title>Node1&#45;&gt;Node4</title>
<path fill="none" stroke="midnightblue" d="M296.839,-238.584C261.257,-226.875 218.957,-212.956 186.388,-202.239"/>
<polygon fill="midnightblue" stroke="midnightblue" points="187.204,-198.823 176.611,-199.022 185.016,-205.472 187.204,-198.823"/>
</g>
<!-- Node7 -->
<g id="node7" class="node"><title>Node7</title>
<g id="a_node7"><a xlink:href="../../dc/dcd/DataHeader_8h.html" target="_top" xlink:title="Headers/DataHeader.h">
<polygon fill="none" stroke="black" points="221.5,-56.5 221.5,-75.5 338.5,-75.5 338.5,-56.5 221.5,-56.5"/>
<text text-anchor="middle" x="280" y="-63.5" font-family="Helvetica,sans-Serif" font-size="10.00">Headers/DataHeader.h</text>
</a>
</g>
</g>
<!-- Node1&#45;&gt;Node7 -->
<g id="edge27" class="edge"><title>Node1&#45;&gt;Node7</title>
<path fill="none" stroke="midnightblue" d="M307.82,-236.993C292.797,-227.696 278.546,-215.519 270,-200 249.875,-163.454 263.032,-112.469 272.591,-85.4733"/>
<polygon fill="midnightblue" stroke="midnightblue" points="275.992,-86.3735 276.241,-75.7816 269.441,-83.9064 275.992,-86.3735"/>
</g>
<!-- Node15 -->
<g id="node15" class="node"><title>Node15</title>
<g id="a_node15"><a xlink:href="../../dd/ddb/TimeframeParser_8h.html" target="_top" xlink:title="DataFlow/TimeframeParser.h">
<polygon fill="none" stroke="black" points="295.5,-174.5 295.5,-193.5 440.5,-193.5 440.5,-174.5 295.5,-174.5"/>
<text text-anchor="middle" x="368" y="-181.5" font-family="Helvetica,sans-Serif" font-size="10.00">DataFlow/TimeframeParser.h</text>
</a>
</g>
</g>
<!-- Node1&#45;&gt;Node15 -->
<g id="edge14" class="edge"><title>Node1&#45;&gt;Node15</title>
<path fill="none" stroke="midnightblue" d="M368,-236.787C368,-226.069 368,-213.785 368,-203.871"/>
<polygon fill="midnightblue" stroke="midnightblue" points="371.5,-203.558 368,-193.558 364.5,-203.558 371.5,-203.558"/>
</g>
<!-- Node18 -->
<g id="node18" class="node"><title>Node18</title>
<g id="a_node18"><a xlink:href="../../de/dfa/TimeFrame_8h.html" target="_top" xlink:title="TimeFrame/TimeFrame.h">
<polygon fill="none" stroke="black" points="458.5,-174.5 458.5,-193.5 585.5,-193.5 585.5,-174.5 458.5,-174.5"/>
<text text-anchor="middle" x="522" y="-181.5" font-family="Helvetica,sans-Serif" font-size="10.00">TimeFrame/TimeFrame.h</text>
</a>
</g>
</g>
<!-- Node1&#45;&gt;Node18 -->
<g id="edge17" class="edge"><title>Node1&#45;&gt;Node18</title>
<path fill="none" stroke="midnightblue" d="M418.425,-236.787C444.289,-223.855 474.712,-208.644 495.867,-198.067"/>
<polygon fill="midnightblue" stroke="midnightblue" points="497.506,-201.16 504.885,-193.558 494.375,-194.899 497.506,-201.16"/>
</g>
<!-- Node23 -->
<g id="node23" class="node"><title>Node23</title>
<g id="a_node23"><a xlink:href="../../d2/d1b/SubframeMetadata_8h.html" target="_top" xlink:title="Headers/SubframeMetadata.h">
<polygon fill="none" stroke="black" points="603.5,-174.5 603.5,-193.5 750.5,-193.5 750.5,-174.5 603.5,-174.5"/>
<text text-anchor="middle" x="677" y="-181.5" font-family="Helvetica,sans-Serif" font-size="10.00">Headers/SubframeMetadata.h</text>
</a>
</g>
</g>
<!-- Node1&#45;&gt;Node23 -->
<g id="edge25" class="edge"><title>Node1&#45;&gt;Node23</title>
<path fill="none" stroke="midnightblue" d="M439.279,-244.238C498.974,-229.363 582.294,-208.6 632.786,-196.018"/>
<polygon fill="midnightblue" stroke="midnightblue" points="633.879,-199.352 642.736,-193.538 632.186,-192.56 633.879,-199.352"/>
</g>
<!-- Node25 -->
<g id="node25" class="node"><title>Node25</title>
<polygon fill="none" stroke="#bfbfbf" points="769,-174.5 769,-193.5 915,-193.5 915,-174.5 769,-174.5"/>
<text text-anchor="middle" x="842" y="-181.5" font-family="Helvetica,sans-Serif" font-size="10.00">options/FairMQProgOptions.h</text>
</g>
<!-- Node1&#45;&gt;Node25 -->
<g id="edge28" class="edge"><title>Node1&#45;&gt;Node25</title>
<path fill="none" stroke="midnightblue" d="M439.067,-251.202C517.477,-239.178 647.362,-218.937 759,-200 767.706,-198.523 776.916,-196.91 785.91,-195.306"/>
<polygon fill="midnightblue" stroke="midnightblue" points="786.709,-198.719 795.934,-193.507 785.473,-191.829 786.709,-198.719"/>
</g>
<!-- Node26 -->
<g id="node26" class="node"><title>Node26</title>
<polygon fill="none" stroke="#bfbfbf" points="933.5,-174.5 933.5,-193.5 1040.5,-193.5 1040.5,-174.5 933.5,-174.5"/>
<text text-anchor="middle" x="987" y="-181.5" font-family="Helvetica,sans-Serif" font-size="10.00">boost/filesystem.hpp</text>
</g>
<!-- Node1&#45;&gt;Node26 -->
<g id="edge29" class="edge"><title>Node1&#45;&gt;Node26</title>
<path fill="none" stroke="midnightblue" d="M439.048,-256.885C545.149,-248.613 751.047,-230.116 924,-200 930.698,-198.834 937.747,-197.382 944.607,-195.844"/>
<polygon fill="midnightblue" stroke="midnightblue" points="945.512,-199.226 954.46,-193.552 943.927,-192.408 945.512,-199.226"/>
</g>
<!-- Node5 -->
<g id="node5" class="node"><title>Node5</title>
<g id="a_node5"><a xlink:href="../../d2/dee/O2Device_8h.html" target="_top" xlink:title="O2Device/O2Device.h">
<polygon fill="none" stroke="black" points="17.5,-112.5 17.5,-131.5 132.5,-131.5 132.5,-112.5 17.5,-112.5"/>
<text text-anchor="middle" x="75" y="-119.5" font-family="Helvetica,sans-Serif" font-size="10.00">O2Device/O2Device.h</text>
</a>
</g>
</g>
<!-- Node4&#45;&gt;Node5 -->
<g id="edge4" class="edge"><title>Node4&#45;&gt;Node5</title>
<path fill="none" stroke="midnightblue" d="M120.018,-168.781C111.179,-159.792 99.7426,-148.162 90.6085,-138.873"/>
<polygon fill="midnightblue" stroke="midnightblue" points="93.092,-136.407 83.585,-131.731 88.1009,-141.315 93.092,-136.407"/>
</g>
<!-- Node14 -->
<g id="node14" class="node"><title>Node14</title>
<polygon fill="none" stroke="#bfbfbf" points="151,-112.5 151,-131.5 201,-131.5 201,-112.5 151,-112.5"/>
<text text-anchor="middle" x="176" y="-119.5" font-family="Helvetica,sans-Serif" font-size="10.00">fstream</text>
</g>
<!-- Node4&#45;&gt;Node14 -->
<g id="edge13" class="edge"><title>Node4&#45;&gt;Node14</title>
<path fill="none" stroke="midnightblue" d="M143.953,-168.781C149.994,-160.152 157.738,-149.088 164.101,-139.999"/>
<polygon fill="midnightblue" stroke="midnightblue" points="167.021,-141.93 169.889,-131.731 161.287,-137.916 167.021,-141.93"/>
</g>
<!-- Node6 -->
<g id="node6" class="node"><title>Node6</title>
<polygon fill="none" stroke="#bfbfbf" points="77,-56.5 77,-75.5 165,-75.5 165,-56.5 77,-56.5"/>
<text text-anchor="middle" x="121" y="-63.5" font-family="Helvetica,sans-Serif" font-size="10.00">FairMQDevice.h</text>
</g>
<!-- Node5&#45;&gt;Node6 -->
<g id="edge5" class="edge"><title>Node5&#45;&gt;Node6</title>
<path fill="none" stroke="midnightblue" d="M82.596,-112.083C89.2275,-104.298 99.021,-92.8015 107.058,-83.3665"/>
<polygon fill="midnightblue" stroke="midnightblue" points="109.725,-85.6332 113.545,-75.7511 104.396,-81.0939 109.725,-85.6332"/>
</g>
<!-- Node5&#45;&gt;Node7 -->
<g id="edge6" class="edge"><title>Node5&#45;&gt;Node7</title>
<path fill="none" stroke="midnightblue" d="M107.483,-112.444C142.72,-103.162 199.104,-88.3093 237.759,-78.127"/>
<polygon fill="midnightblue" stroke="midnightblue" points="238.891,-81.4483 247.669,-75.5164 237.107,-74.6792 238.891,-81.4483"/>
</g>
<!-- Node13 -->
<g id="node13" class="node"><title>Node13</title>
<polygon fill="none" stroke="#bfbfbf" points="-0.5,-56.5 -0.5,-75.5 58.5,-75.5 58.5,-56.5 -0.5,-56.5"/>
<text text-anchor="middle" x="29" y="-63.5" font-family="Helvetica,sans-Serif" font-size="10.00">stdexcept</text>
</g>
<!-- Node5&#45;&gt;Node13 -->
<g id="edge12" class="edge"><title>Node5&#45;&gt;Node13</title>
<path fill="none" stroke="midnightblue" d="M67.404,-112.083C60.7725,-104.298 50.979,-92.8015 42.9419,-83.3665"/>
<polygon fill="midnightblue" stroke="midnightblue" points="45.6037,-81.0939 36.4546,-75.7511 40.275,-85.6332 45.6037,-81.0939"/>
</g>
<!-- Node8 -->
<g id="node8" class="node"><title>Node8</title>
<polygon fill="none" stroke="#bfbfbf" points="224,-0.5 224,-19.5 270,-19.5 270,-0.5 224,-0.5"/>
<text text-anchor="middle" x="247" y="-7.5" font-family="Helvetica,sans-Serif" font-size="10.00">cstdint</text>
</g>
<!-- Node7&#45;&gt;Node8 -->
<g id="edge7" class="edge"><title>Node7&#45;&gt;Node8</title>
<path fill="none" stroke="midnightblue" d="M274.551,-56.083C269.986,-48.6127 263.332,-37.7244 257.707,-28.5199"/>
<polygon fill="midnightblue" stroke="midnightblue" points="260.549,-26.4588 252.348,-19.7511 254.576,-30.109 260.549,-26.4588"/>
</g>
<!-- Node9 -->
<g id="node9" class="node"><title>Node9</title>
<polygon fill="none" stroke="#bfbfbf" points="288,-0.5 288,-19.5 340,-19.5 340,-0.5 288,-0.5"/>
<text text-anchor="middle" x="314" y="-7.5" font-family="Helvetica,sans-Serif" font-size="10.00">memory</text>
</g>
<!-- Node7&#45;&gt;Node9 -->
<g id="edge8" class="edge"><title>Node7&#45;&gt;Node9</title>
<path fill="none" stroke="midnightblue" d="M285.614,-56.083C290.367,-48.5341 297.318,-37.4948 303.152,-28.2298"/>
<polygon fill="midnightblue" stroke="midnightblue" points="306.124,-30.0783 308.49,-19.7511 300.2,-26.3486 306.124,-30.0783"/>
</g>
<!-- Node10 -->
<g id="node10" class="node"><title>Node10</title>
<polygon fill="none" stroke="#bfbfbf" points="459.5,-0.5 459.5,-19.5 508.5,-19.5 508.5,-0.5 459.5,-0.5"/>
<text text-anchor="middle" x="484" y="-7.5" font-family="Helvetica,sans-Serif" font-size="10.00">cassert</text>
</g>
<!-- Node7&#45;&gt;Node10 -->
<g id="edge9" class="edge"><title>Node7&#45;&gt;Node10</title>
<path fill="none" stroke="midnightblue" d="M312.324,-56.4435C349.761,-46.5337 411.186,-30.2743 449.517,-20.1278"/>
<polygon fill="midnightblue" stroke="midnightblue" points="450.435,-23.5055 459.206,-17.5631 448.644,-16.7386 450.435,-23.5055"/>
</g>
<!-- Node11 -->
<g id="node11" class="node"><title>Node11</title>
<polygon fill="none" stroke="#bfbfbf" points="358,-0.5 358,-19.5 404,-19.5 404,-0.5 358,-0.5"/>
<text text-anchor="middle" x="381" y="-7.5" font-family="Helvetica,sans-Serif" font-size="10.00">cstring</text>
</g>
<!-- Node7&#45;&gt;Node11 -->
<g id="edge10" class="edge"><title>Node7&#45;&gt;Node11</title>
<path fill="none" stroke="midnightblue" d="M296.227,-56.324C312.351,-47.7034 337.3,-34.3643 355.964,-24.3855"/>
<polygon fill="midnightblue" stroke="midnightblue" points="357.644,-27.456 364.813,-19.6545 354.344,-21.283 357.644,-27.456"/>
</g>
<!-- Node12 -->
<g id="node12" class="node"><title>Node12</title>
<polygon fill="none" stroke="#bfbfbf" points="150,-0.5 150,-19.5 206,-19.5 206,-0.5 150,-0.5"/>
<text text-anchor="middle" x="178" y="-7.5" font-family="Helvetica,sans-Serif" font-size="10.00">algorithm</text>
</g>
<!-- Node7&#45;&gt;Node12 -->
<g id="edge11" class="edge"><title>Node7&#45;&gt;Node12</title>
<path fill="none" stroke="midnightblue" d="M263.612,-56.324C247.329,-47.7034 222.133,-34.3643 203.284,-24.3855"/>
<polygon fill="midnightblue" stroke="midnightblue" points="204.823,-21.2402 194.347,-19.6545 201.548,-27.4267 204.823,-21.2402"/>
</g>
<!-- Node16 -->
<g id="node16" class="node"><title>Node16</title>
<polygon fill="none" stroke="#bfbfbf" points="295.5,-112.5 295.5,-131.5 340.5,-131.5 340.5,-112.5 295.5,-112.5"/>
<text text-anchor="middle" x="318" y="-119.5" font-family="Helvetica,sans-Serif" font-size="10.00">iosfwd</text>
</g>
<!-- Node15&#45;&gt;Node16 -->
<g id="edge15" class="edge"><title>Node15&#45;&gt;Node16</title>
<path fill="none" stroke="midnightblue" d="M360.836,-174.403C353.262,-165.314 341.13,-150.756 331.707,-139.449"/>
<polygon fill="midnightblue" stroke="midnightblue" points="334.241,-137.022 325.15,-131.581 328.864,-141.503 334.241,-137.022"/>
</g>
<!-- Node17 -->
<g id="node17" class="node"><title>Node17</title>
<polygon fill="none" stroke="#bfbfbf" points="358.5,-112.5 358.5,-131.5 417.5,-131.5 417.5,-112.5 358.5,-112.5"/>
<text text-anchor="middle" x="388" y="-119.5" font-family="Helvetica,sans-Serif" font-size="10.00">functional</text>
</g>
<!-- Node15&#45;&gt;Node17 -->
<g id="edge16" class="edge"><title>Node15&#45;&gt;Node17</title>
<path fill="none" stroke="midnightblue" d="M370.866,-174.403C373.747,-165.76 378.277,-152.17 381.955,-141.134"/>
<polygon fill="midnightblue" stroke="midnightblue" points="385.298,-142.174 385.14,-131.581 378.657,-139.961 385.298,-142.174"/>
</g>
<!-- Node19 -->
<g id="node19" class="node"><title>Node19</title>
<polygon fill="none" stroke="#bfbfbf" points="436,-112.5 436,-131.5 516,-131.5 516,-112.5 436,-112.5"/>
<text text-anchor="middle" x="476" y="-119.5" font-family="Helvetica,sans-Serif" font-size="10.00">FairMQParts.h</text>
</g>
<!-- Node18&#45;&gt;Node19 -->
<g id="edge18" class="edge"><title>Node18&#45;&gt;Node19</title>
<path fill="none" stroke="midnightblue" d="M515.409,-174.403C508.509,-165.403 497.498,-151.041 488.866,-139.782"/>
<polygon fill="midnightblue" stroke="midnightblue" points="491.44,-137.387 482.578,-131.581 485.885,-141.646 491.44,-137.387"/>
</g>
<!-- Node20 -->
<g id="node20" class="node"><title>Node20</title>
<polygon fill="none" stroke="#bfbfbf" points="534.5,-112.5 534.5,-131.5 593.5,-131.5 593.5,-112.5 534.5,-112.5"/>
<text text-anchor="middle" x="564" y="-119.5" font-family="Helvetica,sans-Serif" font-size="10.00">TObject.h</text>
</g>
<!-- Node18&#45;&gt;Node20 -->
<g id="edge19" class="edge"><title>Node18&#45;&gt;Node20</title>
<path fill="none" stroke="midnightblue" d="M528.018,-174.403C534.318,-165.403 544.371,-151.041 552.252,-139.782"/>
<polygon fill="midnightblue" stroke="midnightblue" points="555.126,-141.78 557.994,-131.581 549.392,-137.766 555.126,-141.78"/>
</g>
<!-- Node21 -->
<g id="node21" class="node"><title>Node21</title>
<g id="a_node21"><a xlink:href="../../d6/d90/Headers_2include_2Headers_2TimeStamp_8h.html" target="_top" xlink:title="Headers/TimeStamp.h">
<polygon fill="none" stroke="black" points="611.5,-112.5 611.5,-131.5 726.5,-131.5 726.5,-112.5 611.5,-112.5"/>
<text text-anchor="middle" x="669" y="-119.5" font-family="Helvetica,sans-Serif" font-size="10.00">Headers/TimeStamp.h</text>
</a>
</g>
</g>
<!-- Node18&#45;&gt;Node21 -->
<g id="edge20" class="edge"><title>Node18&#45;&gt;Node21</title>
<path fill="none" stroke="midnightblue" d="M543.062,-174.403C568.059,-164.2 609.942,-147.105 638.487,-135.454"/>
<polygon fill="midnightblue" stroke="midnightblue" points="640.042,-138.6 647.978,-131.581 637.396,-132.119 640.042,-138.6"/>
</g>
<!-- Node21&#45;&gt;Node3 -->
<g id="edge22" class="edge"><title>Node21&#45;&gt;Node3</title>
<path fill="none" stroke="midnightblue" d="M634.457,-112.444C593.151,-102.212 524.518,-85.2109 483.936,-75.1585"/>
<polygon fill="midnightblue" stroke="midnightblue" points="484.561,-71.7075 474.012,-72.7003 482.878,-78.5021 484.561,-71.7075"/>
</g>
<!-- Node21&#45;&gt;Node7 -->
<g id="edge21" class="edge"><title>Node21&#45;&gt;Node7</title>
<path fill="none" stroke="midnightblue" d="M611.183,-112.974C541.243,-103.265 423.623,-86.9374 349.006,-76.5792"/>
<polygon fill="midnightblue" stroke="midnightblue" points="349.158,-73.0669 338.772,-75.1586 348.196,-80.0004 349.158,-73.0669"/>
</g>
<!-- Node21&#45;&gt;Node10 -->
<g id="edge23" class="edge"><title>Node21&#45;&gt;Node10</title>
<path fill="none" stroke="midnightblue" d="M654.483,-112.368C622.602,-93.4121 546.228,-48.0006 507.449,-24.9424"/>
<polygon fill="midnightblue" stroke="midnightblue" points="508.833,-21.6938 498.449,-19.5914 505.256,-27.7106 508.833,-21.6938"/>
</g>
<!-- Node22 -->
<g id="node22" class="node"><title>Node22</title>
<polygon fill="none" stroke="#bfbfbf" points="638,-56.5 638,-75.5 700,-75.5 700,-56.5 638,-56.5"/>
<text text-anchor="middle" x="669" y="-63.5" font-family="Helvetica,sans-Serif" font-size="10.00">type_traits</text>
</g>
<!-- Node21&#45;&gt;Node22 -->
<g id="edge24" class="edge"><title>Node21&#45;&gt;Node22</title>
<path fill="none" stroke="midnightblue" d="M669,-112.083C669,-105.006 669,-94.8611 669,-85.9865"/>
<polygon fill="midnightblue" stroke="midnightblue" points="672.5,-85.751 669,-75.7511 665.5,-85.7511 672.5,-85.751"/>
</g>
<!-- Node24 -->
<g id="node24" class="node"><title>Node24</title>
<polygon fill="none" stroke="#bfbfbf" points="744,-112.5 744,-131.5 788,-131.5 788,-112.5 744,-112.5"/>
<text text-anchor="middle" x="766" y="-119.5" font-family="Helvetica,sans-Serif" font-size="10.00">vector</text>
</g>
<!-- Node23&#45;&gt;Node24 -->
<g id="edge26" class="edge"><title>Node23&#45;&gt;Node24</title>
<path fill="none" stroke="midnightblue" d="M689.752,-174.403C704.027,-164.78 727.397,-149.024 744.508,-137.489"/>
<polygon fill="midnightblue" stroke="midnightblue" points="746.937,-140.073 753.272,-131.581 743.024,-134.268 746.937,-140.073"/>
</g>
</g>
</svg>
        <g id="navigator" transform="translate(0 0)" fill="#404254">
                <rect fill="#f2f5e9" fill-opacity="0.5" stroke="#606060" stroke-width=".5" x="0" y="0" width="60" height="60"/>
                <use id="zoomplus" xlink:href="#zoomPlus" x="17" y="9" onmousedown="handleZoom(evt,'in')"/>
                <use id="zoomminus" xlink:href="#zoomMin" x="42" y="9" onmousedown="handleZoom(evt,'out')"/>
                <use id="reset" xlink:href="#resetDef" x="30" y="36" onmousedown="handleReset()"/>
                <g id="arrowUp" xlink:href="#dirArrow" transform="translate(30 24)" onmousedown="handlePan(0,-1)">
                  <use xlink:href="#rim" fill="#404040">
                        <set attributeName="fill" to="#808080" begin="arrowUp.mouseover" end="arrowUp.mouseout"/>
                  </use>
                  <path fill="none" stroke="white" stroke-width="1.5" d="M0,-3.0v7 M-2.5,-0.5L0,-3.0L2.5,-0.5"/>
                </g>
                <g id="arrowRight" xlink:href="#dirArrow" transform="rotate(90) translate(36 -43)" onmousedown="handlePan(1,0)">
                  <use xlink:href="#rim" fill="#404040">
                        <set attributeName="fill" to="#808080" begin="arrowRight.mouseover" end="arrowRight.mouseout"/>
                  </use>
                  <path fill="none" stroke="white" stroke-width="1.5" d="M0,-3.0v7 M-2.5,-0.5L0,-3.0L2.5,-0.5"/>
                </g>
                <g id="arrowDown" xlink:href="#dirArrow" transform="rotate(180) translate(-30 -48)" onmousedown="handlePan(0,1)">
                  <use xlink:href="#rim" fill="#404040">
                        <set attributeName="fill" to="#808080" begin="arrowDown.mouseover" end="arrowDown.mouseout"/>
                  </use>
                  <path fill="none" stroke="white" stroke-width="1.5" d="M0,-3.0v7 M-2.5,-0.5L0,-3.0L2.5,-0.5"/>
                </g>
                <g id="arrowLeft" xlink:href="#dirArrow" transform="rotate(270) translate(-36 17)" onmousedown="handlePan(-1,0)">
                  <use xlink:href="#rim" fill="#404040">
                        <set attributeName="fill" to="#808080" begin="arrowLeft.mouseover" end="arrowLeft.mouseout"/>
                  </use>
                  <path fill="none" stroke="white" stroke-width="1.5" d="M0,-3.0v7 M-2.5,-0.5L0,-3.0L2.5,-0.5"/>
                </g>
        </g>
        <svg viewBox="0 0 15 15" width="100%" height="30px" preserveAspectRatio="xMaxYMin meet">
         <g id="arrow_out" transform="scale(0.3 0.3)">
          <a xlink:href="TimeframeWriterDevice_8cxx__incl_org.svg" target="_base">
           <rect id="button" ry="5" rx="5" y="6" x="6" height="38" width="38"
                fill="#f2f5e9" fill-opacity="0.5" stroke="#606060" stroke-width="1.0"/>
           <path id="arrow"
             d="M 11.500037,31.436501 C 11.940474,20.09759 22.043105,11.32322 32.158766,21.979434 L 37.068811,17.246167 C 37.068811,17.246167 37.088388,32 37.088388,32 L 22.160133,31.978069 C 22.160133,31.978069 26.997745,27.140456 26.997745,27.140456 C 18.528582,18.264221 13.291696,25.230495 11.500037,31.436501 z"
             style="fill:#404040;"/>
          </a>
         </g>
        </svg>
</svg>
