<?xml version="1.0" encoding="UTF-8" standalone="no"?>
<!DOCTYPE svg PUBLIC "-//W3C//DTD SVG 1.1//EN"
 "http://www.w3.org/Graphics/SVG/1.1/DTD/svg11.dtd">
<!-- Generated by graphviz version 2.36.0 (20140111.2315)
 -->
<!-- Title: /home/travis/build/AliceO2Group/AliceO2/Framework/Core/include/Framework/DataProcessingHeader.h Pages: 1 -->
<svg width="1597pt" height="152pt"
 viewBox="0.00 0.00 1597.00 152.00" xmlns="http://www.w3.org/2000/svg" xmlns:xlink="http://www.w3.org/1999/xlink">
<g id="graph0" class="graph" transform="scale(1 1) rotate(0) translate(4 148)">
<title>/home/travis/build/AliceO2Group/AliceO2/Framework/Core/include/Framework/DataProcessingHeader.h</title>
<!-- Node1 -->
<g id="node1" class="node"><title>Node1</title>
<polygon fill="#bfbfbf" stroke="black" points="803.5,-91 803.5,-143 984.5,-143 984.5,-91 803.5,-91"/>
<text text-anchor="start" x="811.5" y="-131" font-family="Helvetica,sans-Serif" font-size="10.00">/home/travis/build</text>
<text text-anchor="start" x="811.5" y="-120" font-family="Helvetica,sans-Serif" font-size="10.00">/AliceO2Group/AliceO2</text>
<text text-anchor="start" x="811.5" y="-109" font-family="Helvetica,sans-Serif" font-size="10.00">/Framework/Core/include</text>
<text text-anchor="middle" x="894" y="-98" font-family="Helvetica,sans-Serif" font-size="10.00">/Framework/DataProcessingHeader.h</text>
</g>
<!-- Node2 -->
<g id="node2" class="node"><title>Node2</title>
<g id="a_node2"><a xlink:href="../../db/d9d/DataAllocator_8cxx.html" target="_top" xlink:title="/home/travis/build\l/AliceO2Group/AliceO2\l/Framework/Core/src/DataAllocator.cxx">
<polygon fill="none" stroke="black" points="0,-6.5 0,-47.5 190,-47.5 190,-6.5 0,-6.5"/>
<text text-anchor="start" x="8" y="-35.5" font-family="Helvetica,sans-Serif" font-size="10.00">/home/travis/build</text>
<text text-anchor="start" x="8" y="-24.5" font-family="Helvetica,sans-Serif" font-size="10.00">/AliceO2Group/AliceO2</text>
<text text-anchor="middle" x="95" y="-13.5" font-family="Helvetica,sans-Serif" font-size="10.00">/Framework/Core/src/DataAllocator.cxx</text>
</a>
</g>
</g>
<!-- Node1&#45;&gt;Node2 -->
<g id="edge1" class="edge"><title>Node1&#45;&gt;Node2</title>
<path fill="none" stroke="midnightblue" d="M793.079,-111.937C657.278,-105.347 408.558,-89.32 199,-54 188.539,-52.2369 177.581,-49.9699 166.865,-47.5109"/>
<polygon fill="midnightblue" stroke="midnightblue" points="793.304,-115.452 803.46,-112.433 793.638,-108.46 793.304,-115.452"/>
</g>
<!-- Node3 -->
<g id="node3" class="node"><title>Node3</title>
<g id="a_node3"><a xlink:href="../../db/dac/DataProcessingDevice_8cxx.html" target="_top" xlink:title="/home/travis/build\l/AliceO2Group/AliceO2\l/Framework/Core/src/DataProcessing\lDevice.cxx">
<polygon fill="none" stroke="black" points="208,-1 208,-53 390,-53 390,-1 208,-1"/>
<text text-anchor="start" x="216" y="-41" font-family="Helvetica,sans-Serif" font-size="10.00">/home/travis/build</text>
<text text-anchor="start" x="216" y="-30" font-family="Helvetica,sans-Serif" font-size="10.00">/AliceO2Group/AliceO2</text>
<text text-anchor="start" x="216" y="-19" font-family="Helvetica,sans-Serif" font-size="10.00">/Framework/Core/src/DataProcessing</text>
<text text-anchor="middle" x="299" y="-8" font-family="Helvetica,sans-Serif" font-size="10.00">Device.cxx</text>
</a>
</g>
</g>
<!-- Node1&#45;&gt;Node3 -->
<g id="edge2" class="edge"><title>Node1&#45;&gt;Node3</title>
<path fill="none" stroke="midnightblue" d="M792.977,-107.22C692.515,-97.5815 534.276,-79.9441 399,-54 396.093,-53.4425 393.146,-52.8489 390.175,-52.2261"/>
<polygon fill="midnightblue" stroke="midnightblue" points="792.833,-110.722 803.12,-108.185 793.496,-103.754 792.833,-110.722"/>
</g>
<!-- Node4 -->
<g id="node4" class="node"><title>Node4</title>
<g id="a_node4"><a xlink:href="../../d8/d4b/DataProcessingHeader_8cxx.html" target="_top" xlink:title="/home/travis/build\l/AliceO2Group/AliceO2\l/Framework/Core/src/DataProcessing\lHeader.cxx">
<polygon fill="none" stroke="black" points="408,-1 408,-53 590,-53 590,-1 408,-1"/>
<text text-anchor="start" x="416" y="-41" font-family="Helvetica,sans-Serif" font-size="10.00">/home/travis/build</text>
<text text-anchor="start" x="416" y="-30" font-family="Helvetica,sans-Serif" font-size="10.00">/AliceO2Group/AliceO2</text>
<text text-anchor="start" x="416" y="-19" font-family="Helvetica,sans-Serif" font-size="10.00">/Framework/Core/src/DataProcessing</text>
<text text-anchor="middle" x="499" y="-8" font-family="Helvetica,sans-Serif" font-size="10.00">Header.cxx</text>
</a>
</g>
</g>
<!-- Node1&#45;&gt;Node4 -->
<g id="edge3" class="edge"><title>Node1&#45;&gt;Node4</title>
<path fill="none" stroke="midnightblue" d="M793.261,-96.0544C736.131,-84.4363 663.402,-69.131 599,-54 596.119,-53.323 593.193,-52.6253 590.242,-51.9124"/>
<polygon fill="midnightblue" stroke="midnightblue" points="792.881,-99.5486 803.378,-98.1064 794.273,-92.6883 792.881,-99.5486"/>
</g>
<!-- Node5 -->
<g id="node5" class="node"><title>Node5</title>
<g id="a_node5"><a xlink:href="../../d1/d57/DataRelayer_8cxx.html" target="_top" xlink:title="/home/travis/build\l/AliceO2Group/AliceO2\l/Framework/Core/src/DataRelayer.cxx">
<polygon fill="none" stroke="black" points="608.5,-6.5 608.5,-47.5 793.5,-47.5 793.5,-6.5 608.5,-6.5"/>
<text text-anchor="start" x="616.5" y="-35.5" font-family="Helvetica,sans-Serif" font-size="10.00">/home/travis/build</text>
<text text-anchor="start" x="616.5" y="-24.5" font-family="Helvetica,sans-Serif" font-size="10.00">/AliceO2Group/AliceO2</text>
<text text-anchor="middle" x="701" y="-13.5" font-family="Helvetica,sans-Serif" font-size="10.00">/Framework/Core/src/DataRelayer.cxx</text>
</a>
</g>
</g>
<!-- Node1&#45;&gt;Node5 -->
<g id="edge4" class="edge"><title>Node1&#45;&gt;Node5</title>
<path fill="none" stroke="midnightblue" d="M829.562,-86.6189C801.358,-73.7593 769.033,-59.0201 743.851,-47.5384"/>
<polygon fill="midnightblue" stroke="midnightblue" points="828.401,-89.9363 838.952,-90.9005 831.305,-83.5672 828.401,-89.9363"/>
</g>
<!-- Node6 -->
<g id="node6" class="node"><title>Node6</title>
<g id="a_node6"><a xlink:href="../../d0/d9f/DataSourceDevice_8cxx.html" target="_top" xlink:title="/home/travis/build\l/AliceO2Group/AliceO2\l/Framework/Core/src/DataSource\lDevice.cxx">
<polygon fill="none" stroke="black" points="812,-1 812,-53 976,-53 976,-1 812,-1"/>
<text text-anchor="start" x="820" y="-41" font-family="Helvetica,sans-Serif" font-size="10.00">/home/travis/build</text>
<text text-anchor="start" x="820" y="-30" font-family="Helvetica,sans-Serif" font-size="10.00">/AliceO2Group/AliceO2</text>
<text text-anchor="start" x="820" y="-19" font-family="Helvetica,sans-Serif" font-size="10.00">/Framework/Core/src/DataSource</text>
<text text-anchor="middle" x="894" y="-8" font-family="Helvetica,sans-Serif" font-size="10.00">Device.cxx</text>
</a>
</g>
</g>
<!-- Node1&#45;&gt;Node6 -->
<g id="edge5" class="edge"><title>Node1&#45;&gt;Node6</title>
<path fill="none" stroke="midnightblue" d="M894,-80.4892C894,-71.3088 894,-61.616 894,-53.0921"/>
<polygon fill="midnightblue" stroke="midnightblue" points="890.5,-80.5467 894,-90.5468 897.5,-80.5468 890.5,-80.5467"/>
</g>
<!-- Node7 -->
<g id="node7" class="node"><title>Node7</title>
<g id="a_node7"><a xlink:href="../../dc/df3/ExternalFairMQDeviceProxy_8cxx.html" target="_top" xlink:title="/home/travis/build\l/AliceO2Group/AliceO2\l/Framework/Core/src/External\lFairMQDeviceProxy.cxx">
<polygon fill="none" stroke="black" points="994,-1 994,-53 1142,-53 1142,-1 994,-1"/>
<text text-anchor="start" x="1002" y="-41" font-family="Helvetica,sans-Serif" font-size="10.00">/home/travis/build</text>
<text text-anchor="start" x="1002" y="-30" font-family="Helvetica,sans-Serif" font-size="10.00">/AliceO2Group/AliceO2</text>
<text text-anchor="start" x="1002" y="-19" font-family="Helvetica,sans-Serif" font-size="10.00">/Framework/Core/src/External</text>
<text text-anchor="middle" x="1068" y="-8" font-family="Helvetica,sans-Serif" font-size="10.00">FairMQDeviceProxy.cxx</text>
</a>
</g>
</g>
<!-- Node1&#45;&gt;Node7 -->
<g id="edge6" class="edge"><title>Node1&#45;&gt;Node7</title>
<path fill="none" stroke="midnightblue" d="M952.825,-86.2492C974.143,-75.4678 997.991,-63.4068 1018.43,-53.0687"/>
<polygon fill="midnightblue" stroke="midnightblue" points="951.205,-83.1463 943.861,-90.7827 954.365,-89.3928 951.205,-83.1463"/>
</g>
<!-- Node8 -->
<g id="node8" class="node"><title>Node8</title>
<g id="a_node8"><a xlink:href="../../dc/d6d/test__DataRelayer_8cxx.html" target="_top" xlink:title="/home/travis/build\l/AliceO2Group/AliceO2\l/Framework/Core/test/test\l_DataRelayer.cxx">
<polygon fill="none" stroke="black" points="1160.5,-1 1160.5,-53 1291.5,-53 1291.5,-1 1160.5,-1"/>
<text text-anchor="start" x="1168.5" y="-41" font-family="Helvetica,sans-Serif" font-size="10.00">/home/travis/build</text>
<text text-anchor="start" x="1168.5" y="-30" font-family="Helvetica,sans-Serif" font-size="10.00">/AliceO2Group/AliceO2</text>
<text text-anchor="start" x="1168.5" y="-19" font-family="Helvetica,sans-Serif" font-size="10.00">/Framework/Core/test/test</text>
<text text-anchor="middle" x="1226" y="-8" font-family="Helvetica,sans-Serif" font-size="10.00">_DataRelayer.cxx</text>
</a>
</g>
</g>
<!-- Node1&#45;&gt;Node8 -->
<g id="edge7" class="edge"><title>Node1&#45;&gt;Node8</title>
<path fill="none" stroke="midnightblue" d="M994.679,-94.0936C1042.35,-83.1143 1099.91,-68.98 1151,-54 1154.04,-53.1082 1157.14,-52.1668 1160.27,-51.1918"/>
<polygon fill="midnightblue" stroke="midnightblue" points="993.628,-90.7435 984.662,-96.3877 995.191,-97.5669 993.628,-90.7435"/>
</g>
<!-- Node9 -->
<g id="node9" class="node"><title>Node9</title>
<g id="a_node9"><a xlink:href="../../d1/de8/test__DataSampling_8cxx.html" target="_top" xlink:title="/home/travis/build\l/AliceO2Group/AliceO2\l/Framework/Core/test/test\l_DataSampling.cxx">
<polygon fill="none" stroke="black" points="1309.5,-1 1309.5,-53 1440.5,-53 1440.5,-1 1309.5,-1"/>
<text text-anchor="start" x="1317.5" y="-41" font-family="Helvetica,sans-Serif" font-size="10.00">/home/travis/build</text>
<text text-anchor="start" x="1317.5" y="-30" font-family="Helvetica,sans-Serif" font-size="10.00">/AliceO2Group/AliceO2</text>
<text text-anchor="start" x="1317.5" y="-19" font-family="Helvetica,sans-Serif" font-size="10.00">/Framework/Core/test/test</text>
<text text-anchor="middle" x="1375" y="-8" font-family="Helvetica,sans-Serif" font-size="10.00">_DataSampling.cxx</text>
</a>
</g>
</g>
<!-- Node1&#45;&gt;Node9 -->
<g id="edge8" class="edge"><title>Node1&#45;&gt;Node9</title>
<path fill="none" stroke="midnightblue" d="M994.99,-105.758C1077.75,-96.1305 1197.51,-79.3657 1300,-54 1303.08,-53.2385 1306.21,-52.404 1309.35,-51.5157"/>
<polygon fill="midnightblue" stroke="midnightblue" points="994.366,-102.306 984.831,-106.925 995.165,-109.261 994.366,-102.306"/>
</g>
<!-- Node10 -->
<g id="node10" class="node"><title>Node10</title>
<g id="a_node10"><a xlink:href="../../df/dc1/test__InputRecord_8cxx.html" target="_top" xlink:title="/home/travis/build\l/AliceO2Group/AliceO2\l/Framework/Core/test/test\l_InputRecord.cxx">
<polygon fill="none" stroke="black" points="1458.5,-1 1458.5,-53 1589.5,-53 1589.5,-1 1458.5,-1"/>
<text text-anchor="start" x="1466.5" y="-41" font-family="Helvetica,sans-Serif" font-size="10.00">/home/travis/build</text>
<text text-anchor="start" x="1466.5" y="-30" font-family="Helvetica,sans-Serif" font-size="10.00">/AliceO2Group/AliceO2</text>
<text text-anchor="start" x="1466.5" y="-19" font-family="Helvetica,sans-Serif" font-size="10.00">/Framework/Core/test/test</text>
<text text-anchor="middle" x="1524" y="-8" font-family="Helvetica,sans-Serif" font-size="10.00">_InputRecord.cxx</text>
</a>
</g>
</g>
<!-- Node1&#45;&gt;Node10 -->
<g id="edge9" class="edge"><title>Node1&#45;&gt;Node10</title>
<path fill="none" stroke="midnightblue" d="M995.186,-111.459C1107.3,-104.868 1292.88,-89.3179 1449,-54 1452.09,-53.3006 1455.23,-52.5171 1458.39,-51.6701"/>
<polygon fill="midnightblue" stroke="midnightblue" points="994.687,-107.982 984.904,-112.05 995.089,-114.97 994.687,-107.982"/>
</g>
</g>
</svg>
