<?xml version="1.0" encoding="UTF-8" standalone="no"?>
<!DOCTYPE svg PUBLIC "-//W3C//DTD SVG 1.1//EN"
 "http://www.w3.org/Graphics/SVG/1.1/DTD/svg11.dtd">
<!-- Generated by graphviz version 2.36.0 (20140111.2315)
 -->
<!-- Title: /home/travis/build/AliceO2Group/AliceO2/DataFormats/Detectors/TPC/include/DataFormatsTPC/Cluster.h Pages: 1 -->
<svg width="2260pt" height="440pt"
 viewBox="0.00 0.00 2260.25 440.00" xmlns="http://www.w3.org/2000/svg" xmlns:xlink="http://www.w3.org/1999/xlink">
<g id="graph0" class="graph" transform="scale(1 1) rotate(0) translate(4 436)">
<title>/home/travis/build/AliceO2Group/AliceO2/DataFormats/Detectors/TPC/include/DataFormatsTPC/Cluster.h</title>
<!-- Node1 -->
<g id="node1" class="node"><title>Node1</title>
<polygon fill="#bfbfbf" stroke="black" points="1252.25,-368.5 1252.25,-431.5 1406.25,-431.5 1406.25,-368.5 1252.25,-368.5"/>
<text text-anchor="start" x="1260.25" y="-419.5" font-family="Helvetica,sans-Serif" font-size="10.00">/home/travis/build</text>
<text text-anchor="start" x="1260.25" y="-408.5" font-family="Helvetica,sans-Serif" font-size="10.00">/AliceO2Group/AliceO2</text>
<text text-anchor="start" x="1260.25" y="-397.5" font-family="Helvetica,sans-Serif" font-size="10.00">/DataFormats/Detectors</text>
<text text-anchor="start" x="1260.25" y="-386.5" font-family="Helvetica,sans-Serif" font-size="10.00">/TPC/include/DataFormatsTPC</text>
<text text-anchor="middle" x="1329.25" y="-375.5" font-family="Helvetica,sans-Serif" font-size="10.00">/Cluster.h</text>
</g>
<!-- Node2 -->
<g id="node2" class="node"><title>Node2</title>
<g id="a_node2"><a xlink:href="../../d5/dc9/TrackTPC_8h.html" target="_top" xlink:title="/home/travis/build\l/AliceO2Group/AliceO2\l/DataFormats/Detectors\l/TPC/include/DataFormatsTPC\l/TrackTPC.h">
<polygon fill="none" stroke="black" points="1128.25,-268.5 1128.25,-331.5 1282.25,-331.5 1282.25,-268.5 1128.25,-268.5"/>
<text text-anchor="start" x="1136.25" y="-319.5" font-family="Helvetica,sans-Serif" font-size="10.00">/home/travis/build</text>
<text text-anchor="start" x="1136.25" y="-308.5" font-family="Helvetica,sans-Serif" font-size="10.00">/AliceO2Group/AliceO2</text>
<text text-anchor="start" x="1136.25" y="-297.5" font-family="Helvetica,sans-Serif" font-size="10.00">/DataFormats/Detectors</text>
<text text-anchor="start" x="1136.25" y="-286.5" font-family="Helvetica,sans-Serif" font-size="10.00">/TPC/include/DataFormatsTPC</text>
<text text-anchor="middle" x="1205.25" y="-275.5" font-family="Helvetica,sans-Serif" font-size="10.00">/TrackTPC.h</text>
</a>
</g>
</g>
<!-- Node1&#45;&gt;Node2 -->
<g id="edge1" class="edge"><title>Node1&#45;&gt;Node2</title>
<path fill="none" stroke="midnightblue" d="M1282.22,-361.83C1269.6,-351.862 1256.11,-341.199 1244,-331.63"/>
<polygon fill="midnightblue" stroke="midnightblue" points="1280.34,-364.806 1290.35,-368.261 1284.68,-359.315 1280.34,-364.806"/>
</g>
<!-- Node7 -->
<g id="node7" class="node"><title>Node7</title>
<g id="a_node7"><a xlink:href="../../df/d30/TPCCATracking_8h.html" target="_top" xlink:title="Decoder to convert TPC ClusterHardware to ClusterNative. ">
<polygon fill="none" stroke="black" points="937.248,-168.5 937.248,-231.5 1087.25,-231.5 1087.25,-168.5 937.248,-168.5"/>
<text text-anchor="start" x="945.248" y="-219.5" font-family="Helvetica,sans-Serif" font-size="10.00">/home/travis/build</text>
<text text-anchor="start" x="945.248" y="-208.5" font-family="Helvetica,sans-Serif" font-size="10.00">/AliceO2Group/AliceO2</text>
<text text-anchor="start" x="945.248" y="-197.5" font-family="Helvetica,sans-Serif" font-size="10.00">/Detectors/TPC/reconstruction</text>
<text text-anchor="start" x="945.248" y="-186.5" font-family="Helvetica,sans-Serif" font-size="10.00">/include/TPCReconstruction</text>
<text text-anchor="middle" x="1012.25" y="-175.5" font-family="Helvetica,sans-Serif" font-size="10.00">/TPCCATracking.h</text>
</a>
</g>
</g>
<!-- Node1&#45;&gt;Node7 -->
<g id="edge34" class="edge"><title>Node1&#45;&gt;Node7</title>
<path fill="none" stroke="midnightblue" d="M1242.4,-383.19C1202.46,-373.05 1155.93,-356.956 1119.25,-332 1080.52,-305.655 1048.52,-261.286 1029.89,-231.579"/>
<polygon fill="midnightblue" stroke="midnightblue" points="1241.58,-386.594 1252.13,-385.578 1243.25,-379.796 1241.58,-386.594"/>
</g>
<!-- Node8 -->
<g id="node8" class="node"><title>Node8</title>
<g id="a_node8"><a xlink:href="../../d1/d27/runCATracking_8C.html" target="_top" xlink:title="/home/travis/build\l/AliceO2Group/AliceO2\l/Detectors/TPC/reconstruction\l/macro/runCATracking.C">
<polygon fill="none" stroke="black" points="701.248,-79 701.248,-131 851.248,-131 851.248,-79 701.248,-79"/>
<text text-anchor="start" x="709.248" y="-119" font-family="Helvetica,sans-Serif" font-size="10.00">/home/travis/build</text>
<text text-anchor="start" x="709.248" y="-108" font-family="Helvetica,sans-Serif" font-size="10.00">/AliceO2Group/AliceO2</text>
<text text-anchor="start" x="709.248" y="-97" font-family="Helvetica,sans-Serif" font-size="10.00">/Detectors/TPC/reconstruction</text>
<text text-anchor="middle" x="776.248" y="-86" font-family="Helvetica,sans-Serif" font-size="10.00">/macro/runCATracking.C</text>
</a>
</g>
</g>
<!-- Node1&#45;&gt;Node8 -->
<g id="edge39" class="edge"><title>Node1&#45;&gt;Node8</title>
<path fill="none" stroke="midnightblue" d="M1242.19,-388.9C1142.59,-372.817 980.933,-332.189 885.248,-232 863.002,-208.707 871.605,-192.96 851.248,-168 840.143,-154.385 825.683,-141.599 812.426,-131.217"/>
<polygon fill="midnightblue" stroke="midnightblue" points="1241.81,-392.382 1252.23,-390.471 1242.89,-385.466 1241.81,-392.382"/>
</g>
<!-- Node13 -->
<g id="node13" class="node"><title>Node13</title>
<g id="a_node13"><a xlink:href="../../d9/d90/convertTracks_8C.html" target="_top" xlink:title="/home/travis/build\l/AliceO2Group/AliceO2\l/Detectors/TPC/reconstruction\l/macro/convertTracks.C">
<polygon fill="none" stroke="black" points="1535.25,-174 1535.25,-226 1685.25,-226 1685.25,-174 1535.25,-174"/>
<text text-anchor="start" x="1543.25" y="-214" font-family="Helvetica,sans-Serif" font-size="10.00">/home/travis/build</text>
<text text-anchor="start" x="1543.25" y="-203" font-family="Helvetica,sans-Serif" font-size="10.00">/AliceO2Group/AliceO2</text>
<text text-anchor="start" x="1543.25" y="-192" font-family="Helvetica,sans-Serif" font-size="10.00">/Detectors/TPC/reconstruction</text>
<text text-anchor="middle" x="1610.25" y="-181" font-family="Helvetica,sans-Serif" font-size="10.00">/macro/convertTracks.C</text>
</a>
</g>
</g>
<!-- Node1&#45;&gt;Node13 -->
<g id="edge35" class="edge"><title>Node1&#45;&gt;Node13</title>
<path fill="none" stroke="midnightblue" d="M1318.7,-358.26C1313.91,-329.667 1313.27,-292.337 1334.25,-268 1390.64,-202.565 1441.95,-254.875 1525.25,-232 1531.61,-230.253 1538.17,-228.245 1544.7,-226.108"/>
<polygon fill="midnightblue" stroke="midnightblue" points="1315.32,-359.19 1320.62,-368.359 1322.19,-357.881 1315.32,-359.19"/>
</g>
<!-- Node14 -->
<g id="node14" class="node"><title>Node14</title>
<g id="a_node14"><a xlink:href="../../d6/dee/dEdxRes_8C.html" target="_top" xlink:title="/home/travis/build\l/AliceO2Group/AliceO2\l/Detectors/TPC/reconstruction\l/macro/dEdxRes.C">
<polygon fill="none" stroke="black" points="1703.25,-174 1703.25,-226 1853.25,-226 1853.25,-174 1703.25,-174"/>
<text text-anchor="start" x="1711.25" y="-214" font-family="Helvetica,sans-Serif" font-size="10.00">/home/travis/build</text>
<text text-anchor="start" x="1711.25" y="-203" font-family="Helvetica,sans-Serif" font-size="10.00">/AliceO2Group/AliceO2</text>
<text text-anchor="start" x="1711.25" y="-192" font-family="Helvetica,sans-Serif" font-size="10.00">/Detectors/TPC/reconstruction</text>
<text text-anchor="middle" x="1778.25" y="-181" font-family="Helvetica,sans-Serif" font-size="10.00">/macro/dEdxRes.C</text>
</a>
</g>
</g>
<!-- Node1&#45;&gt;Node14 -->
<g id="edge36" class="edge"><title>Node1&#45;&gt;Node14</title>
<path fill="none" stroke="midnightblue" d="M1331.38,-358.216C1335.24,-328.487 1345.5,-289.748 1372.25,-268 1427.94,-222.717 1623.37,-248.413 1693.25,-232 1700.28,-230.348 1707.53,-228.288 1714.69,-226.022"/>
<polygon fill="midnightblue" stroke="midnightblue" points="1327.88,-357.989 1330.26,-368.313 1334.84,-358.757 1327.88,-357.989"/>
</g>
<!-- Node15 -->
<g id="node15" class="node"><title>Node15</title>
<g id="a_node15"><a xlink:href="../../d5/db8/RawClusterFinder_8C.html" target="_top" xlink:title="/home/travis/build\l/AliceO2Group/AliceO2\l/Detectors/TPC/reconstruction\l/macro/RawClusterFinder.C">
<polygon fill="none" stroke="black" points="693.248,-174 693.248,-226 843.248,-226 843.248,-174 693.248,-174"/>
<text text-anchor="start" x="701.248" y="-214" font-family="Helvetica,sans-Serif" font-size="10.00">/home/travis/build</text>
<text text-anchor="start" x="701.248" y="-203" font-family="Helvetica,sans-Serif" font-size="10.00">/AliceO2Group/AliceO2</text>
<text text-anchor="start" x="701.248" y="-192" font-family="Helvetica,sans-Serif" font-size="10.00">/Detectors/TPC/reconstruction</text>
<text text-anchor="middle" x="768.248" y="-181" font-family="Helvetica,sans-Serif" font-size="10.00">/macro/RawClusterFinder.C</text>
</a>
</g>
</g>
<!-- Node1&#45;&gt;Node15 -->
<g id="edge37" class="edge"><title>Node1&#45;&gt;Node15</title>
<path fill="none" stroke="midnightblue" d="M1242.02,-394.992C1123.67,-388.153 919.776,-370.986 857.248,-332 817.234,-307.051 790.889,-256.738 777.858,-226.241"/>
<polygon fill="midnightblue" stroke="midnightblue" points="1241.97,-398.494 1252.15,-395.564 1242.36,-391.505 1241.97,-398.494"/>
</g>
<!-- Node17 -->
<g id="node17" class="node"><title>Node17</title>
<g id="a_node17"><a xlink:href="../../db/d60/testTracks_8C.html" target="_top" xlink:title="/home/travis/build\l/AliceO2Group/AliceO2\l/Detectors/TPC/reconstruction\l/macro/testTracks.C">
<polygon fill="none" stroke="black" points="1871.25,-174 1871.25,-226 2021.25,-226 2021.25,-174 1871.25,-174"/>
<text text-anchor="start" x="1879.25" y="-214" font-family="Helvetica,sans-Serif" font-size="10.00">/home/travis/build</text>
<text text-anchor="start" x="1879.25" y="-203" font-family="Helvetica,sans-Serif" font-size="10.00">/AliceO2Group/AliceO2</text>
<text text-anchor="start" x="1879.25" y="-192" font-family="Helvetica,sans-Serif" font-size="10.00">/Detectors/TPC/reconstruction</text>
<text text-anchor="middle" x="1946.25" y="-181" font-family="Helvetica,sans-Serif" font-size="10.00">/macro/testTracks.C</text>
</a>
</g>
</g>
<!-- Node1&#45;&gt;Node17 -->
<g id="edge40" class="edge"><title>Node1&#45;&gt;Node17</title>
<path fill="none" stroke="midnightblue" d="M1353.05,-359.563C1376.11,-321.503 1407.94,-269.411 1410.25,-268 1496.05,-215.591 1763.01,-253.419 1861.25,-232 1868.46,-230.427 1875.89,-228.387 1883.21,-226.104"/>
<polygon fill="midnightblue" stroke="midnightblue" points="1349.88,-358.045 1347.69,-368.413 1355.87,-361.67 1349.88,-358.045"/>
</g>
<!-- Node18 -->
<g id="node18" class="node"><title>Node18</title>
<g id="a_node18"><a xlink:href="../../d9/d59/testHitsDigitsClusters_8C.html" target="_top" xlink:title="/home/travis/build\l/AliceO2Group/AliceO2\l/Detectors/TPC/simulation\l/macro/testHitsDigitsClusters.C">
<polygon fill="none" stroke="black" points="2039.75,-174 2039.75,-226 2196.75,-226 2196.75,-174 2039.75,-174"/>
<text text-anchor="start" x="2047.75" y="-214" font-family="Helvetica,sans-Serif" font-size="10.00">/home/travis/build</text>
<text text-anchor="start" x="2047.75" y="-203" font-family="Helvetica,sans-Serif" font-size="10.00">/AliceO2Group/AliceO2</text>
<text text-anchor="start" x="2047.75" y="-192" font-family="Helvetica,sans-Serif" font-size="10.00">/Detectors/TPC/simulation</text>
<text text-anchor="middle" x="2118.25" y="-181" font-family="Helvetica,sans-Serif" font-size="10.00">/macro/testHitsDigitsClusters.C</text>
</a>
</g>
</g>
<!-- Node1&#45;&gt;Node18 -->
<g id="edge44" class="edge"><title>Node1&#45;&gt;Node18</title>
<path fill="none" stroke="midnightblue" d="M1376.28,-361.654C1386.42,-352.512 1396.66,-342.361 1405.25,-332 1426.36,-306.53 1415.01,-285.239 1443.25,-268 1554.6,-200.01 1901.34,-257.698 2029.25,-232 2036.95,-230.453 2044.89,-228.396 2052.71,-226.076"/>
<polygon fill="midnightblue" stroke="midnightblue" points="1373.77,-359.201 1368.57,-368.435 1378.39,-364.456 1373.77,-359.201"/>
</g>
<!-- Node19 -->
<g id="node19" class="node"><title>Node19</title>
<g id="a_node19"><a xlink:href="../../d2/db9/DataFormats_2Detectors_2TPC_2src_2Cluster_8cxx.html" target="_top" xlink:title="/home/travis/build\l/AliceO2Group/AliceO2\l/DataFormats/Detectors\l/TPC/src/Cluster.cxx">
<polygon fill="none" stroke="black" points="1452.25,-274 1452.25,-326 1574.25,-326 1574.25,-274 1452.25,-274"/>
<text text-anchor="start" x="1460.25" y="-314" font-family="Helvetica,sans-Serif" font-size="10.00">/home/travis/build</text>
<text text-anchor="start" x="1460.25" y="-303" font-family="Helvetica,sans-Serif" font-size="10.00">/AliceO2Group/AliceO2</text>
<text text-anchor="start" x="1460.25" y="-292" font-family="Helvetica,sans-Serif" font-size="10.00">/DataFormats/Detectors</text>
<text text-anchor="middle" x="1513.25" y="-281" font-family="Helvetica,sans-Serif" font-size="10.00">/TPC/src/Cluster.cxx</text>
</a>
</g>
</g>
<!-- Node1&#45;&gt;Node19 -->
<g id="edge21" class="edge"><title>Node1&#45;&gt;Node19</title>
<path fill="none" stroke="midnightblue" d="M1395.84,-363.534C1419.1,-351.141 1444.73,-337.495 1466.08,-326.121"/>
<polygon fill="midnightblue" stroke="midnightblue" points="1393.89,-360.605 1386.71,-368.395 1397.18,-366.784 1393.89,-360.605"/>
</g>
<!-- Node20 -->
<g id="node20" class="node"><title>Node20</title>
<g id="a_node20"><a xlink:href="../../d2/df8/BoxClusterer_8h.html" target="_top" xlink:title="Class for TPC cluster finding. ">
<polygon fill="none" stroke="black" points="557.248,-268.5 557.248,-331.5 707.248,-331.5 707.248,-268.5 557.248,-268.5"/>
<text text-anchor="start" x="565.248" y="-319.5" font-family="Helvetica,sans-Serif" font-size="10.00">/home/travis/build</text>
<text text-anchor="start" x="565.248" y="-308.5" font-family="Helvetica,sans-Serif" font-size="10.00">/AliceO2Group/AliceO2</text>
<text text-anchor="start" x="565.248" y="-297.5" font-family="Helvetica,sans-Serif" font-size="10.00">/Detectors/TPC/reconstruction</text>
<text text-anchor="start" x="565.248" y="-286.5" font-family="Helvetica,sans-Serif" font-size="10.00">/include/TPCReconstruction</text>
<text text-anchor="middle" x="632.248" y="-275.5" font-family="Helvetica,sans-Serif" font-size="10.00">/BoxClusterer.h</text>
</a>
</g>
</g>
<!-- Node1&#45;&gt;Node20 -->
<g id="edge22" class="edge"><title>Node1&#45;&gt;Node20</title>
<path fill="none" stroke="midnightblue" d="M1241.95,-390.291C1134.43,-379.09 946.339,-357.951 786.248,-332 760.538,-327.832 732.579,-322.46 707.627,-317.362"/>
<polygon fill="midnightblue" stroke="midnightblue" points="1241.8,-393.794 1252.1,-391.344 1242.52,-386.831 1241.8,-393.794"/>
</g>
<!-- Node22 -->
<g id="node22" class="node"><title>Node22</title>
<g id="a_node22"><a xlink:href="../../d8/d0f/TPC_2reconstruction_2src_2ClustererTask_8cxx.html" target="_top" xlink:title="/home/travis/build\l/AliceO2Group/AliceO2\l/Detectors/TPC/reconstruction\l/src/ClustererTask.cxx">
<polygon fill="none" stroke="black" points="73.2476,-79 73.2476,-131 223.248,-131 223.248,-79 73.2476,-79"/>
<text text-anchor="start" x="81.2476" y="-119" font-family="Helvetica,sans-Serif" font-size="10.00">/home/travis/build</text>
<text text-anchor="start" x="81.2476" y="-108" font-family="Helvetica,sans-Serif" font-size="10.00">/AliceO2Group/AliceO2</text>
<text text-anchor="start" x="81.2476" y="-97" font-family="Helvetica,sans-Serif" font-size="10.00">/Detectors/TPC/reconstruction</text>
<text text-anchor="middle" x="148.248" y="-86" font-family="Helvetica,sans-Serif" font-size="10.00">/src/ClustererTask.cxx</text>
</a>
</g>
</g>
<!-- Node1&#45;&gt;Node22 -->
<g id="edge42" class="edge"><title>Node1&#45;&gt;Node22</title>
<path fill="none" stroke="midnightblue" d="M1242.2,-399.475C1070.02,-399.006 674.371,-390.917 348.248,-332 194.923,-304.3 105.39,-356.901 12.2476,-232 -4.75673,-209.198 -3.13862,-191.924 12.2476,-168 26.1435,-146.393 49.6308,-132.226 73.2129,-122.975"/>
<polygon fill="midnightblue" stroke="midnightblue" points="1242.21,-402.975 1252.22,-399.494 1242.23,-395.975 1242.21,-402.975"/>
</g>
<!-- Node25 -->
<g id="node25" class="node"><title>Node25</title>
<g id="a_node25"><a xlink:href="../../de/df6/HwClusterer_8h.html" target="_top" xlink:title="Class for TPC HW cluster finding. ">
<polygon fill="none" stroke="black" points="357.248,-268.5 357.248,-331.5 507.248,-331.5 507.248,-268.5 357.248,-268.5"/>
<text text-anchor="start" x="365.248" y="-319.5" font-family="Helvetica,sans-Serif" font-size="10.00">/home/travis/build</text>
<text text-anchor="start" x="365.248" y="-308.5" font-family="Helvetica,sans-Serif" font-size="10.00">/AliceO2Group/AliceO2</text>
<text text-anchor="start" x="365.248" y="-297.5" font-family="Helvetica,sans-Serif" font-size="10.00">/Detectors/TPC/reconstruction</text>
<text text-anchor="start" x="365.248" y="-286.5" font-family="Helvetica,sans-Serif" font-size="10.00">/include/TPCReconstruction</text>
<text text-anchor="middle" x="432.248" y="-275.5" font-family="Helvetica,sans-Serif" font-size="10.00">/HwClusterer.h</text>
</a>
</g>
</g>
<!-- Node1&#45;&gt;Node25 -->
<g id="edge29" class="edge"><title>Node1&#45;&gt;Node25</title>
<path fill="none" stroke="midnightblue" d="M1242.01,-396.508C1097,-391.252 797.625,-375.67 548.248,-332 534.901,-329.663 520.854,-326.514 507.322,-323.116"/>
<polygon fill="midnightblue" stroke="midnightblue" points="1242.06,-400.012 1252.18,-396.868 1242.31,-393.016 1242.06,-400.012"/>
</g>
<!-- Node28 -->
<g id="node28" class="node"><title>Node28</title>
<g id="a_node28"><a xlink:href="../../d4/d0e/readClusterMCtruth_8C.html" target="_top" xlink:title="/home/travis/build\l/AliceO2Group/AliceO2\l/Detectors/TPC/reconstruction\l/macro/readClusterMCtruth.C">
<polygon fill="none" stroke="black" points="1592.25,-274 1592.25,-326 1742.25,-326 1742.25,-274 1592.25,-274"/>
<text text-anchor="start" x="1600.25" y="-314" font-family="Helvetica,sans-Serif" font-size="10.00">/home/travis/build</text>
<text text-anchor="start" x="1600.25" y="-303" font-family="Helvetica,sans-Serif" font-size="10.00">/AliceO2Group/AliceO2</text>
<text text-anchor="start" x="1600.25" y="-292" font-family="Helvetica,sans-Serif" font-size="10.00">/Detectors/TPC/reconstruction</text>
<text text-anchor="middle" x="1667.25" y="-281" font-family="Helvetica,sans-Serif" font-size="10.00">/macro/readClusterMCtruth.C</text>
</a>
</g>
</g>
<!-- Node1&#45;&gt;Node28 -->
<g id="edge38" class="edge"><title>Node1&#45;&gt;Node28</title>
<path fill="none" stroke="midnightblue" d="M1416.48,-378.182C1465.77,-365.875 1528.32,-349.336 1583.25,-332 1589.03,-330.175 1595,-328.187 1600.96,-326.128"/>
<polygon fill="midnightblue" stroke="midnightblue" points="1415.35,-374.857 1406.49,-380.665 1417.04,-381.65 1415.35,-374.857"/>
</g>
<!-- Node29 -->
<g id="node29" class="node"><title>Node29</title>
<g id="a_node29"><a xlink:href="../../dc/dab/ClusterContainer_8cxx.html" target="_top" xlink:title="/home/travis/build\l/AliceO2Group/AliceO2\l/Detectors/TPC/reconstruction\l/src/ClusterContainer.cxx">
<polygon fill="none" stroke="black" points="1760.25,-274 1760.25,-326 1910.25,-326 1910.25,-274 1760.25,-274"/>
<text text-anchor="start" x="1768.25" y="-314" font-family="Helvetica,sans-Serif" font-size="10.00">/home/travis/build</text>
<text text-anchor="start" x="1768.25" y="-303" font-family="Helvetica,sans-Serif" font-size="10.00">/AliceO2Group/AliceO2</text>
<text text-anchor="start" x="1768.25" y="-292" font-family="Helvetica,sans-Serif" font-size="10.00">/Detectors/TPC/reconstruction</text>
<text text-anchor="middle" x="1835.25" y="-281" font-family="Helvetica,sans-Serif" font-size="10.00">/src/ClusterContainer.cxx</text>
</a>
</g>
</g>
<!-- Node1&#45;&gt;Node29 -->
<g id="edge41" class="edge"><title>Node1&#45;&gt;Node29</title>
<path fill="none" stroke="midnightblue" d="M1416.56,-390.058C1502.41,-380.11 1636.72,-361.445 1750.25,-332 1756.79,-330.304 1763.53,-328.304 1770.21,-326.148"/>
<polygon fill="midnightblue" stroke="midnightblue" points="1416.13,-386.584 1406.6,-391.199 1416.93,-393.539 1416.13,-386.584"/>
</g>
<!-- Node30 -->
<g id="node30" class="node"><title>Node30</title>
<g id="a_node30"><a xlink:href="../../d6/dc6/HwClusterFinder_8cxx.html" target="_top" xlink:title="/home/travis/build\l/AliceO2Group/AliceO2\l/Detectors/TPC/reconstruction\l/src/HwClusterFinder.cxx">
<polygon fill="none" stroke="black" points="1928.25,-274 1928.25,-326 2078.25,-326 2078.25,-274 1928.25,-274"/>
<text text-anchor="start" x="1936.25" y="-314" font-family="Helvetica,sans-Serif" font-size="10.00">/home/travis/build</text>
<text text-anchor="start" x="1936.25" y="-303" font-family="Helvetica,sans-Serif" font-size="10.00">/AliceO2Group/AliceO2</text>
<text text-anchor="start" x="1936.25" y="-292" font-family="Helvetica,sans-Serif" font-size="10.00">/Detectors/TPC/reconstruction</text>
<text text-anchor="middle" x="2003.25" y="-281" font-family="Helvetica,sans-Serif" font-size="10.00">/src/HwClusterFinder.cxx</text>
</a>
</g>
</g>
<!-- Node1&#45;&gt;Node30 -->
<g id="edge43" class="edge"><title>Node1&#45;&gt;Node30</title>
<path fill="none" stroke="midnightblue" d="M1416.73,-395.504C1532.73,-389.407 1743.22,-373.256 1918.25,-332 1925.28,-330.342 1932.53,-328.279 1939.69,-326.01"/>
<polygon fill="midnightblue" stroke="midnightblue" points="1416.29,-392.021 1406.49,-396.029 1416.65,-399.012 1416.29,-392.021"/>
</g>
<!-- Node31 -->
<g id="node31" class="node"><title>Node31</title>
<g id="a_node31"><a xlink:href="../../d7/d3d/convertClusterToClusterHardware_8C.html" target="_top" xlink:title="/home/travis/build\l/AliceO2Group/AliceO2\l/macro/convertClusterToCluster\lHardware.C">
<polygon fill="none" stroke="black" points="2096.25,-274 2096.25,-326 2252.25,-326 2252.25,-274 2096.25,-274"/>
<text text-anchor="start" x="2104.25" y="-314" font-family="Helvetica,sans-Serif" font-size="10.00">/home/travis/build</text>
<text text-anchor="start" x="2104.25" y="-303" font-family="Helvetica,sans-Serif" font-size="10.00">/AliceO2Group/AliceO2</text>
<text text-anchor="start" x="2104.25" y="-292" font-family="Helvetica,sans-Serif" font-size="10.00">/macro/convertClusterToCluster</text>
<text text-anchor="middle" x="2174.25" y="-281" font-family="Helvetica,sans-Serif" font-size="10.00">Hardware.C</text>
</a>
</g>
</g>
<!-- Node1&#45;&gt;Node31 -->
<g id="edge45" class="edge"><title>Node1&#45;&gt;Node31</title>
<path fill="none" stroke="midnightblue" d="M1416.88,-398.326C1559,-395.658 1847.87,-383.679 2086.25,-332 2093.69,-330.387 2101.36,-328.321 2108.93,-326.024"/>
<polygon fill="midnightblue" stroke="midnightblue" points="1416.43,-394.833 1406.49,-398.509 1416.55,-401.832 1416.43,-394.833"/>
</g>
<!-- Node3 -->
<g id="node3" class="node"><title>Node3</title>
<g id="a_node3"><a xlink:href="../../d6/da8/TrackTPC_8cxx.html" target="_top" xlink:title="Implementation of the TPC track. ">
<polygon fill="none" stroke="black" points="1143.75,-174 1143.75,-226 1266.75,-226 1266.75,-174 1143.75,-174"/>
<text text-anchor="start" x="1151.75" y="-214" font-family="Helvetica,sans-Serif" font-size="10.00">/home/travis/build</text>
<text text-anchor="start" x="1151.75" y="-203" font-family="Helvetica,sans-Serif" font-size="10.00">/AliceO2Group/AliceO2</text>
<text text-anchor="start" x="1151.75" y="-192" font-family="Helvetica,sans-Serif" font-size="10.00">/DataFormats/Detectors</text>
<text text-anchor="middle" x="1205.25" y="-181" font-family="Helvetica,sans-Serif" font-size="10.00">/TPC/src/TrackTPC.cxx</text>
</a>
</g>
</g>
<!-- Node2&#45;&gt;Node3 -->
<g id="edge2" class="edge"><title>Node2&#45;&gt;Node3</title>
<path fill="none" stroke="midnightblue" d="M1205.25,-258.079C1205.25,-247.21 1205.25,-235.794 1205.25,-226.054"/>
<polygon fill="midnightblue" stroke="midnightblue" points="1201.75,-258.261 1205.25,-268.261 1208.75,-258.261 1201.75,-258.261"/>
</g>
<!-- Node4 -->
<g id="node4" class="node"><title>Node4</title>
<g id="a_node4"><a xlink:href="../../d3/dac/MatchTPCITS_8h.html" target="_top" xlink:title="Class to perform TPC ITS matching. ">
<polygon fill="none" stroke="black" points="1323.75,-174 1323.75,-226 1516.75,-226 1516.75,-174 1323.75,-174"/>
<text text-anchor="start" x="1331.75" y="-214" font-family="Helvetica,sans-Serif" font-size="10.00">/home/travis/build</text>
<text text-anchor="start" x="1331.75" y="-203" font-family="Helvetica,sans-Serif" font-size="10.00">/AliceO2Group/AliceO2</text>
<text text-anchor="start" x="1331.75" y="-192" font-family="Helvetica,sans-Serif" font-size="10.00">/Detectors/GlobalTracking</text>
<text text-anchor="middle" x="1420.25" y="-181" font-family="Helvetica,sans-Serif" font-size="10.00">/include/GlobalTracking/MatchTPCITS.h</text>
</a>
</g>
</g>
<!-- Node2&#45;&gt;Node4 -->
<g id="edge3" class="edge"><title>Node2&#45;&gt;Node4</title>
<path fill="none" stroke="midnightblue" d="M1281.61,-264.191C1309.18,-251.625 1339.74,-237.696 1365.14,-226.121"/>
<polygon fill="midnightblue" stroke="midnightblue" points="1280.04,-261.063 1272.39,-268.395 1282.94,-267.432 1280.04,-261.063"/>
</g>
<!-- Node2&#45;&gt;Node7 -->
<g id="edge6" class="edge"><title>Node2&#45;&gt;Node7</title>
<path fill="none" stroke="midnightblue" d="M1135.89,-263.781C1115.12,-253.234 1092.52,-241.76 1072.39,-231.541"/>
<polygon fill="midnightblue" stroke="midnightblue" points="1134.47,-266.988 1144.98,-268.395 1137.64,-260.747 1134.47,-266.988"/>
</g>
<!-- Node2&#45;&gt;Node8 -->
<g id="edge16" class="edge"><title>Node2&#45;&gt;Node8</title>
<path fill="none" stroke="midnightblue" d="M1117.72,-294.176C1059.58,-287.261 983.979,-270.807 928.248,-232 900.125,-212.418 910.364,-191.313 885.248,-168 869.61,-153.485 849.972,-140.998 831.687,-131.112"/>
<polygon fill="midnightblue" stroke="midnightblue" points="1117.67,-297.692 1127.99,-295.321 1118.44,-290.735 1117.67,-297.692"/>
</g>
<!-- Node11 -->
<g id="node11" class="node"><title>Node11</title>
<g id="a_node11"><a xlink:href="../../d7/d83/testTPCCATracking_8cxx.html" target="_top" xlink:title="This task tests the TPC CA Tracking library. ">
<polygon fill="none" stroke="black" points="1037.25,-79 1037.25,-131 1187.25,-131 1187.25,-79 1037.25,-79"/>
<text text-anchor="start" x="1045.25" y="-119" font-family="Helvetica,sans-Serif" font-size="10.00">/home/travis/build</text>
<text text-anchor="start" x="1045.25" y="-108" font-family="Helvetica,sans-Serif" font-size="10.00">/AliceO2Group/AliceO2</text>
<text text-anchor="start" x="1045.25" y="-97" font-family="Helvetica,sans-Serif" font-size="10.00">/Detectors/TPC/reconstruction</text>
<text text-anchor="middle" x="1112.25" y="-86" font-family="Helvetica,sans-Serif" font-size="10.00">/test/testTPCCATracking.cxx</text>
</a>
</g>
</g>
<!-- Node2&#45;&gt;Node11 -->
<g id="edge18" class="edge"><title>Node2&#45;&gt;Node11</title>
<path fill="none" stroke="midnightblue" d="M1156.57,-261.239C1147.97,-252.495 1139.96,-242.611 1134.25,-232 1117.1,-200.125 1112.87,-157.759 1112.06,-131.184"/>
<polygon fill="midnightblue" stroke="midnightblue" points="1154.26,-263.879 1163.89,-268.306 1159.13,-258.843 1154.26,-263.879"/>
</g>
<!-- Node12 -->
<g id="node12" class="node"><title>Node12</title>
<g id="a_node12"><a xlink:href="../../d1/df0/runCATrackingClusterNative_8C.html" target="_top" xlink:title="/home/travis/build\l/AliceO2Group/AliceO2\l/macro/runCATrackingClusterNative.C">
<polygon fill="none" stroke="black" points="1204.75,-84.5 1204.75,-125.5 1389.75,-125.5 1389.75,-84.5 1204.75,-84.5"/>
<text text-anchor="start" x="1212.75" y="-113.5" font-family="Helvetica,sans-Serif" font-size="10.00">/home/travis/build</text>
<text text-anchor="start" x="1212.75" y="-102.5" font-family="Helvetica,sans-Serif" font-size="10.00">/AliceO2Group/AliceO2</text>
<text text-anchor="middle" x="1297.25" y="-91.5" font-family="Helvetica,sans-Serif" font-size="10.00">/macro/runCATrackingClusterNative.C</text>
</a>
</g>
</g>
<!-- Node2&#45;&gt;Node12 -->
<g id="edge20" class="edge"><title>Node2&#45;&gt;Node12</title>
<path fill="none" stroke="midnightblue" d="M1253.24,-261.147C1261.72,-252.41 1269.62,-242.552 1275.25,-232 1293.54,-197.714 1297.1,-151.423 1297.53,-125.563"/>
<polygon fill="midnightblue" stroke="midnightblue" points="1250.72,-258.716 1246.02,-268.212 1255.62,-263.719 1250.72,-258.716"/>
</g>
<!-- Node2&#45;&gt;Node13 -->
<g id="edge12" class="edge"><title>Node2&#45;&gt;Node13</title>
<path fill="none" stroke="midnightblue" d="M1292.4,-268.974C1293.69,-268.64 1294.97,-268.315 1296.25,-268 1396.27,-243.297 1425.5,-257.771 1525.25,-232 1531.94,-230.271 1538.84,-228.221 1545.68,-226.011"/>
<polygon fill="midnightblue" stroke="midnightblue" points="1291.15,-265.687 1282.42,-271.698 1292.99,-272.44 1291.15,-265.687"/>
</g>
<!-- Node2&#45;&gt;Node14 -->
<g id="edge13" class="edge"><title>Node2&#45;&gt;Node14</title>
<path fill="none" stroke="midnightblue" d="M1292.38,-276.364C1306.32,-273.234 1320.63,-270.307 1334.25,-268 1492.35,-241.204 1536.93,-267.75 1693.25,-232 1700.29,-230.389 1707.55,-228.356 1714.71,-226.105"/>
<polygon fill="midnightblue" stroke="midnightblue" points="1291.28,-273.025 1282.32,-278.672 1292.85,-279.848 1291.28,-273.025"/>
</g>
<!-- Node2&#45;&gt;Node15 -->
<g id="edge14" class="edge"><title>Node2&#45;&gt;Node15</title>
<path fill="none" stroke="midnightblue" d="M1117.88,-280.765C1055.7,-267.628 970.223,-249.249 895.248,-232 878.438,-228.133 860.416,-223.829 843.383,-219.69"/>
<polygon fill="midnightblue" stroke="midnightblue" points="1117.54,-284.269 1128.05,-282.909 1118.98,-277.42 1117.54,-284.269"/>
</g>
<!-- Node2&#45;&gt;Node17 -->
<g id="edge17" class="edge"><title>Node2&#45;&gt;Node17</title>
<path fill="none" stroke="midnightblue" d="M1292.36,-280.956C1318,-276.153 1346.17,-271.37 1372.25,-268 1588.37,-240.071 1648.19,-277.769 1861.25,-232 1868.62,-230.416 1876.21,-228.337 1883.69,-226.003"/>
<polygon fill="midnightblue" stroke="midnightblue" points="1291.46,-277.563 1282.29,-282.866 1292.77,-284.44 1291.46,-277.563"/>
</g>
<!-- Node2&#45;&gt;Node18 -->
<g id="edge19" class="edge"><title>Node2&#45;&gt;Node18</title>
<path fill="none" stroke="midnightblue" d="M1292.49,-283.997C1328.81,-278.224 1371.47,-272.051 1410.25,-268 1684.33,-239.368 1758.98,-285.839 2029.25,-232 2036.95,-230.466 2044.89,-228.417 2052.72,-226.1"/>
<polygon fill="midnightblue" stroke="midnightblue" points="1291.74,-280.572 1282.42,-285.613 1292.85,-287.484 1291.74,-280.572"/>
</g>
<!-- Node5 -->
<g id="node5" class="node"><title>Node5</title>
<g id="a_node5"><a xlink:href="../../dc/d59/MatchTPCITS_8cxx.html" target="_top" xlink:title="/home/travis/build\l/AliceO2Group/AliceO2\l/Detectors/GlobalTracking\l/src/MatchTPCITS.cxx">
<polygon fill="none" stroke="black" points="1572.75,-79 1572.75,-131 1703.75,-131 1703.75,-79 1572.75,-79"/>
<text text-anchor="start" x="1580.75" y="-119" font-family="Helvetica,sans-Serif" font-size="10.00">/home/travis/build</text>
<text text-anchor="start" x="1580.75" y="-108" font-family="Helvetica,sans-Serif" font-size="10.00">/AliceO2Group/AliceO2</text>
<text text-anchor="start" x="1580.75" y="-97" font-family="Helvetica,sans-Serif" font-size="10.00">/Detectors/GlobalTracking</text>
<text text-anchor="middle" x="1638.25" y="-86" font-family="Helvetica,sans-Serif" font-size="10.00">/src/MatchTPCITS.cxx</text>
</a>
</g>
</g>
<!-- Node4&#45;&gt;Node5 -->
<g id="edge4" class="edge"><title>Node4&#45;&gt;Node5</title>
<path fill="none" stroke="midnightblue" d="M1488.27,-169.982C1517.49,-157.515 1551.31,-143.086 1579.44,-131.089"/>
<polygon fill="midnightblue" stroke="midnightblue" points="1486.78,-166.812 1478.95,-173.955 1489.53,-173.251 1486.78,-166.812"/>
</g>
<!-- Node6 -->
<g id="node6" class="node"><title>Node6</title>
<g id="a_node6"><a xlink:href="../../d9/d84/run__match__TPCITS_8C.html" target="_top" xlink:title="/home/travis/build\l/AliceO2Group/AliceO2\l/macro/run_match_TPCITS.C">
<polygon fill="none" stroke="black" points="1407.75,-84.5 1407.75,-125.5 1554.75,-125.5 1554.75,-84.5 1407.75,-84.5"/>
<text text-anchor="start" x="1415.75" y="-113.5" font-family="Helvetica,sans-Serif" font-size="10.00">/home/travis/build</text>
<text text-anchor="start" x="1415.75" y="-102.5" font-family="Helvetica,sans-Serif" font-size="10.00">/AliceO2Group/AliceO2</text>
<text text-anchor="middle" x="1481.25" y="-91.5" font-family="Helvetica,sans-Serif" font-size="10.00">/macro/run_match_TPCITS.C</text>
</a>
</g>
</g>
<!-- Node4&#45;&gt;Node6 -->
<g id="edge5" class="edge"><title>Node4&#45;&gt;Node6</title>
<path fill="none" stroke="midnightblue" d="M1442.45,-165.157C1451.12,-151.929 1460.77,-137.221 1468.27,-125.78"/>
<polygon fill="midnightblue" stroke="midnightblue" points="1439.47,-163.306 1436.92,-173.587 1445.33,-167.145 1439.47,-163.306"/>
</g>
<!-- Node7&#45;&gt;Node8 -->
<g id="edge7" class="edge"><title>Node7&#45;&gt;Node8</title>
<path fill="none" stroke="midnightblue" d="M927.259,-165.509C898.395,-154.135 866.666,-141.631 839.773,-131.033"/>
<polygon fill="midnightblue" stroke="midnightblue" points="926.34,-168.908 936.927,-169.319 928.906,-162.396 926.34,-168.908"/>
</g>
<!-- Node10 -->
<g id="node10" class="node"><title>Node10</title>
<g id="a_node10"><a xlink:href="../../d8/ded/TPCCATracking_8cxx.html" target="_top" xlink:title="/home/travis/build\l/AliceO2Group/AliceO2\l/Detectors/TPC/reconstruction\l/src/TPCCATracking.cxx">
<polygon fill="none" stroke="black" points="869.248,-79 869.248,-131 1019.25,-131 1019.25,-79 869.248,-79"/>
<text text-anchor="start" x="877.248" y="-119" font-family="Helvetica,sans-Serif" font-size="10.00">/home/travis/build</text>
<text text-anchor="start" x="877.248" y="-108" font-family="Helvetica,sans-Serif" font-size="10.00">/AliceO2Group/AliceO2</text>
<text text-anchor="start" x="877.248" y="-97" font-family="Helvetica,sans-Serif" font-size="10.00">/Detectors/TPC/reconstruction</text>
<text text-anchor="middle" x="944.248" y="-86" font-family="Helvetica,sans-Serif" font-size="10.00">/src/TPCCATracking.cxx</text>
</a>
</g>
</g>
<!-- Node7&#45;&gt;Node10 -->
<g id="edge9" class="edge"><title>Node7&#45;&gt;Node10</title>
<path fill="none" stroke="midnightblue" d="M983.865,-160.183C976.677,-150.352 969.144,-140.05 962.6,-131.1"/>
<polygon fill="midnightblue" stroke="midnightblue" points="981.066,-162.284 989.793,-168.291 986.716,-158.152 981.066,-162.284"/>
</g>
<!-- Node7&#45;&gt;Node11 -->
<g id="edge10" class="edge"><title>Node7&#45;&gt;Node11</title>
<path fill="none" stroke="midnightblue" d="M1052.72,-161.361C1063.67,-151.179 1075.25,-140.408 1085.26,-131.1"/>
<polygon fill="midnightblue" stroke="midnightblue" points="1050.21,-158.917 1045.27,-168.291 1054.97,-164.043 1050.21,-158.917"/>
</g>
<!-- Node7&#45;&gt;Node12 -->
<g id="edge11" class="edge"><title>Node7&#45;&gt;Node12</title>
<path fill="none" stroke="midnightblue" d="M1097.27,-171.255C1142.39,-156.534 1196.73,-138.8 1237.37,-125.537"/>
<polygon fill="midnightblue" stroke="midnightblue" points="1095.92,-168.014 1087.5,-174.444 1098.09,-174.669 1095.92,-168.014"/>
</g>
<!-- Node9 -->
<g id="node9" class="node"><title>Node9</title>
<g id="a_node9"><a xlink:href="../../d3/d56/runTPC_8cxx.html" target="_top" xlink:title="/home/travis/build\l/AliceO2Group/AliceO2\l/run/runTPC.cxx">
<polygon fill="none" stroke="black" points="556.248,-0.5 556.248,-41.5 674.248,-41.5 674.248,-0.5 556.248,-0.5"/>
<text text-anchor="start" x="564.248" y="-29.5" font-family="Helvetica,sans-Serif" font-size="10.00">/home/travis/build</text>
<text text-anchor="start" x="564.248" y="-18.5" font-family="Helvetica,sans-Serif" font-size="10.00">/AliceO2Group/AliceO2</text>
<text text-anchor="middle" x="615.248" y="-7.5" font-family="Helvetica,sans-Serif" font-size="10.00">/run/runTPC.cxx</text>
</a>
</g>
</g>
<!-- Node8&#45;&gt;Node9 -->
<g id="edge8" class="edge"><title>Node8&#45;&gt;Node9</title>
<path fill="none" stroke="midnightblue" d="M718.045,-74.3565C696.62,-63.4444 672.908,-51.3673 653.661,-41.5645"/>
<polygon fill="midnightblue" stroke="midnightblue" points="716.568,-77.532 727.067,-78.9517 719.745,-71.2945 716.568,-77.532"/>
</g>
<!-- Node16 -->
<g id="node16" class="node"><title>Node16</title>
<g id="a_node16"><a xlink:href="../../df/da0/runRawClusterFinder_8C.html" target="_top" xlink:title="/home/travis/build\l/AliceO2Group/AliceO2\l/Detectors/TPC/reconstruction\l/macro/runRawClusterFinder.C">
<polygon fill="none" stroke="black" points="531.248,-79 531.248,-131 683.248,-131 683.248,-79 531.248,-79"/>
<text text-anchor="start" x="539.248" y="-119" font-family="Helvetica,sans-Serif" font-size="10.00">/home/travis/build</text>
<text text-anchor="start" x="539.248" y="-108" font-family="Helvetica,sans-Serif" font-size="10.00">/AliceO2Group/AliceO2</text>
<text text-anchor="start" x="539.248" y="-97" font-family="Helvetica,sans-Serif" font-size="10.00">/Detectors/TPC/reconstruction</text>
<text text-anchor="middle" x="607.248" y="-86" font-family="Helvetica,sans-Serif" font-size="10.00">/macro/runRawClusterFinder.C</text>
</a>
</g>
</g>
<!-- Node15&#45;&gt;Node16 -->
<g id="edge15" class="edge"><title>Node15&#45;&gt;Node16</title>
<path fill="none" stroke="midnightblue" d="M715.832,-168.723C694.723,-156.529 670.667,-142.634 650.572,-131.026"/>
<polygon fill="midnightblue" stroke="midnightblue" points="714.269,-171.862 724.679,-173.833 717.77,-165.8 714.269,-171.862"/>
</g>
<!-- Node20&#45;&gt;Node15 -->
<g id="edge27" class="edge"><title>Node20&#45;&gt;Node15</title>
<path fill="none" stroke="midnightblue" d="M683.019,-262.415C699.832,-250.299 718.15,-237.1 733.479,-226.054"/>
<polygon fill="midnightblue" stroke="midnightblue" points="680.973,-259.575 674.906,-268.261 685.065,-265.254 680.973,-259.575"/>
</g>
<!-- Node21 -->
<g id="node21" class="node"><title>Node21</title>
<g id="a_node21"><a xlink:href="../../de/d64/TPC_2reconstruction_2include_2TPCReconstruction_2ClustererTask_8h.html" target="_top" xlink:title="/home/travis/build\l/AliceO2Group/AliceO2\l/Detectors/TPC/reconstruction\l/include/TPCReconstruction\l/ClustererTask.h">
<polygon fill="none" stroke="black" points="357.248,-168.5 357.248,-231.5 507.248,-231.5 507.248,-168.5 357.248,-168.5"/>
<text text-anchor="start" x="365.248" y="-219.5" font-family="Helvetica,sans-Serif" font-size="10.00">/home/travis/build</text>
<text text-anchor="start" x="365.248" y="-208.5" font-family="Helvetica,sans-Serif" font-size="10.00">/AliceO2Group/AliceO2</text>
<text text-anchor="start" x="365.248" y="-197.5" font-family="Helvetica,sans-Serif" font-size="10.00">/Detectors/TPC/reconstruction</text>
<text text-anchor="start" x="365.248" y="-186.5" font-family="Helvetica,sans-Serif" font-size="10.00">/include/TPCReconstruction</text>
<text text-anchor="middle" x="432.248" y="-175.5" font-family="Helvetica,sans-Serif" font-size="10.00">/ClustererTask.h</text>
</a>
</g>
</g>
<!-- Node20&#45;&gt;Node21 -->
<g id="edge23" class="edge"><title>Node20&#45;&gt;Node21</title>
<path fill="none" stroke="midnightblue" d="M560.662,-263.923C539.058,-253.337 515.526,-241.806 494.576,-231.541"/>
<polygon fill="midnightblue" stroke="midnightblue" points="559.269,-267.138 569.789,-268.395 562.349,-260.852 559.269,-267.138"/>
</g>
<!-- Node24 -->
<g id="node24" class="node"><title>Node24</title>
<g id="a_node24"><a xlink:href="../../da/d67/BoxClusterer_8cxx.html" target="_top" xlink:title="/home/travis/build\l/AliceO2Group/AliceO2\l/Detectors/TPC/reconstruction\l/src/BoxClusterer.cxx">
<polygon fill="none" stroke="black" points="525.248,-174 525.248,-226 675.248,-226 675.248,-174 525.248,-174"/>
<text text-anchor="start" x="533.248" y="-214" font-family="Helvetica,sans-Serif" font-size="10.00">/home/travis/build</text>
<text text-anchor="start" x="533.248" y="-203" font-family="Helvetica,sans-Serif" font-size="10.00">/AliceO2Group/AliceO2</text>
<text text-anchor="start" x="533.248" y="-192" font-family="Helvetica,sans-Serif" font-size="10.00">/Detectors/TPC/reconstruction</text>
<text text-anchor="middle" x="600.248" y="-181" font-family="Helvetica,sans-Serif" font-size="10.00">/src/BoxClusterer.cxx</text>
</a>
</g>
</g>
<!-- Node20&#45;&gt;Node24 -->
<g id="edge28" class="edge"><title>Node20&#45;&gt;Node24</title>
<path fill="none" stroke="midnightblue" d="M619.105,-258.751C615.49,-247.681 611.675,-235.995 608.428,-226.054"/>
<polygon fill="midnightblue" stroke="midnightblue" points="615.779,-259.841 622.21,-268.261 622.433,-257.669 615.779,-259.841"/>
</g>
<!-- Node21&#45;&gt;Node22 -->
<g id="edge24" class="edge"><title>Node21&#45;&gt;Node22</title>
<path fill="none" stroke="midnightblue" d="M347.555,-168.104C347.452,-168.069 347.35,-168.035 347.248,-168 306.623,-154.272 260.969,-139.969 223.646,-128.564"/>
<polygon fill="midnightblue" stroke="midnightblue" points="346.634,-171.488 357.229,-171.42 348.904,-164.867 346.634,-171.488"/>
</g>
<!-- Node23 -->
<g id="node23" class="node"><title>Node23</title>
<g id="a_node23"><a xlink:href="../../df/d9b/run__clus__tpc_8C.html" target="_top" xlink:title="/home/travis/build\l/AliceO2Group/AliceO2\l/macro/run_clus_tpc.C">
<polygon fill="none" stroke="black" points="384.248,-84.5 384.248,-125.5 502.248,-125.5 502.248,-84.5 384.248,-84.5"/>
<text text-anchor="start" x="392.248" y="-113.5" font-family="Helvetica,sans-Serif" font-size="10.00">/home/travis/build</text>
<text text-anchor="start" x="392.248" y="-102.5" font-family="Helvetica,sans-Serif" font-size="10.00">/AliceO2Group/AliceO2</text>
<text text-anchor="middle" x="443.248" y="-91.5" font-family="Helvetica,sans-Serif" font-size="10.00">/macro/run_clus_tpc.C</text>
</a>
</g>
</g>
<!-- Node21&#45;&gt;Node23 -->
<g id="edge25" class="edge"><title>Node21&#45;&gt;Node23</title>
<path fill="none" stroke="midnightblue" d="M437.084,-158.112C438.421,-146.807 439.811,-135.052 440.932,-125.575"/>
<polygon fill="midnightblue" stroke="midnightblue" points="433.579,-157.949 435.88,-168.291 440.53,-158.771 433.579,-157.949"/>
</g>
<!-- Node23&#45;&gt;Node9 -->
<g id="edge26" class="edge"><title>Node23&#45;&gt;Node9</title>
<path fill="none" stroke="midnightblue" d="M493.623,-79.9838C519.22,-67.7808 549.93,-53.1396 574.088,-41.6227"/>
<polygon fill="midnightblue" stroke="midnightblue" points="491.966,-76.8962 484.446,-84.359 494.979,-83.2148 491.966,-76.8962"/>
</g>
<!-- Node25&#45;&gt;Node15 -->
<g id="edge31" class="edge"><title>Node25&#45;&gt;Node15</title>
<path fill="none" stroke="midnightblue" d="M517.367,-276.247C527.769,-273.468 538.251,-270.669 548.248,-268 608.243,-251.984 624.02,-250.657 683.248,-232 689.091,-230.159 695.126,-228.16 701.16,-226.093"/>
<polygon fill="midnightblue" stroke="midnightblue" points="516.195,-272.937 507.437,-278.9 518.002,-279.7 516.195,-272.937"/>
</g>
<!-- Node25&#45;&gt;Node21 -->
<g id="edge30" class="edge"><title>Node25&#45;&gt;Node21</title>
<path fill="none" stroke="midnightblue" d="M432.248,-258.099C432.248,-249.238 432.248,-240.015 432.248,-231.63"/>
<polygon fill="midnightblue" stroke="midnightblue" points="428.748,-258.261 432.248,-268.261 435.748,-258.261 428.748,-258.261"/>
</g>
<!-- Node26 -->
<g id="node26" class="node"><title>Node26</title>
<g id="a_node26"><a xlink:href="../../dc/dc3/testClustererData_8C.html" target="_top" xlink:title="/home/travis/build\l/AliceO2Group/AliceO2\l/Detectors/TPC/reconstruction\l/macro/testClustererData.C">
<polygon fill="none" stroke="black" points="21.2476,-174 21.2476,-226 171.248,-226 171.248,-174 21.2476,-174"/>
<text text-anchor="start" x="29.2476" y="-214" font-family="Helvetica,sans-Serif" font-size="10.00">/home/travis/build</text>
<text text-anchor="start" x="29.2476" y="-203" font-family="Helvetica,sans-Serif" font-size="10.00">/AliceO2Group/AliceO2</text>
<text text-anchor="start" x="29.2476" y="-192" font-family="Helvetica,sans-Serif" font-size="10.00">/Detectors/TPC/reconstruction</text>
<text text-anchor="middle" x="96.2476" y="-181" font-family="Helvetica,sans-Serif" font-size="10.00">/macro/testClustererData.C</text>
</a>
</g>
</g>
<!-- Node25&#45;&gt;Node26 -->
<g id="edge32" class="edge"><title>Node25&#45;&gt;Node26</title>
<path fill="none" stroke="midnightblue" d="M347.065,-278.467C297.966,-266.105 235.26,-249.422 180.248,-232 174.468,-230.17 168.5,-228.178 162.535,-226.115"/>
<polygon fill="midnightblue" stroke="midnightblue" points="346.461,-281.923 357.012,-280.959 348.162,-275.133 346.461,-281.923"/>
</g>
<!-- Node27 -->
<g id="node27" class="node"><title>Node27</title>
<g id="a_node27"><a xlink:href="../../d4/d6c/HwClusterer_8cxx.html" target="_top" xlink:title="/home/travis/build\l/AliceO2Group/AliceO2\l/Detectors/TPC/reconstruction\l/src/HwClusterer.cxx">
<polygon fill="none" stroke="black" points="189.248,-174 189.248,-226 339.248,-226 339.248,-174 189.248,-174"/>
<text text-anchor="start" x="197.248" y="-214" font-family="Helvetica,sans-Serif" font-size="10.00">/home/travis/build</text>
<text text-anchor="start" x="197.248" y="-203" font-family="Helvetica,sans-Serif" font-size="10.00">/AliceO2Group/AliceO2</text>
<text text-anchor="start" x="197.248" y="-192" font-family="Helvetica,sans-Serif" font-size="10.00">/Detectors/TPC/reconstruction</text>
<text text-anchor="middle" x="264.248" y="-181" font-family="Helvetica,sans-Serif" font-size="10.00">/src/HwClusterer.cxx</text>
</a>
</g>
</g>
<!-- Node25&#45;&gt;Node27 -->
<g id="edge33" class="edge"><title>Node25&#45;&gt;Node27</title>
<path fill="none" stroke="midnightblue" d="M370.661,-263.075C349.585,-250.78 326.478,-237.301 307.197,-226.054"/>
<polygon fill="midnightblue" stroke="midnightblue" points="369.151,-266.246 379.552,-268.261 372.678,-260.199 369.151,-266.246"/>
</g>
</g>
</svg>
