<?xml version="1.0" encoding="UTF-8" standalone="no"?>
<!DOCTYPE svg PUBLIC "-//W3C//DTD SVG 1.1//EN"
 "http://www.w3.org/Graphics/SVG/1.1/DTD/svg11.dtd">
<!-- Generated by graphviz version 2.36.0 (20140111.2315)
 -->
<!-- Title: /home/travis/build/AliceO2Group/AliceO2/Detectors/MUON/MCH/Mapping/SegContour/src/SVGSegmentation.cxx Pages: 1 -->
<!--zoomable 602 -->
<svg id="main" version="1.1" xmlns="http://www.w3.org/2000/svg" xmlns:xlink="http://www.w3.org/1999/xlink" xml:space="preserve" onload="init(evt)">
<style type="text/css"><![CDATA[
.edge:hover path { stroke: red; }
.edge:hover polygon { stroke: red; fill: red; }
]]></style>
<script type="text/javascript"><![CDATA[
var edges = document.getElementsByTagName('g');
if (edges && edges.length) {
  for (var i=0;i<edges.length;i++) {
    if (edges[i].id.substr(0,4)=='edge') {
      edges[i].setAttribute('class','edge');
    }
  }
}
]]></script>
        <defs>
                <circle id="rim" cx="0" cy="0" r="7"/>
                <circle id="rim2" cx="0" cy="0" r="3.5"/>
                <g id="zoomPlus">
                        <use xlink:href="#rim" fill="#404040">
                                <set attributeName="fill" to="#808080" begin="zoomplus.mouseover" end="zoomplus.mouseout"/>
                        </use>
                        <path d="M-4,0h8M0,-4v8" fill="none" stroke="white" stroke-width="1.5" pointer-events="none"/>
                </g>
                <g id="zoomMin">
                        <use xlink:href="#rim" fill="#404040">
                                <set attributeName="fill" to="#808080" begin="zoomminus.mouseover" end="zoomminus.mouseout"/>
                        </use>
                        <path d="M-4,0h8" fill="none" stroke="white" stroke-width="1.5" pointer-events="none"/>
                </g>
                <g id="dirArrow">
                        <path fill="none" stroke="white" stroke-width="1.5" d="M0,-3.0v7 M-2.5,-0.5L0,-3.0L2.5,-0.5"/>
                </g>
               <g id="resetDef">
                       <use xlink:href="#rim2" fill="#404040">
                               <set attributeName="fill" to="#808080" begin="reset.mouseover" end="reset.mouseout"/>
                       </use>
               </g>
        </defs>

<script type="text/javascript">
var viewWidth = 1523;
var viewHeight = 602;
var sectionId = 'dynsection-0';
</script>
<script xlink:href="../../svgpan.js"/>
<svg id="graph" class="graph">
<g id="viewport">
<title>/home/travis/build/AliceO2Group/AliceO2/Detectors/MUON/MCH/Mapping/SegContour/src/SVGSegmentation.cxx</title>
<!-- Node1 -->
<g id="node1" class="node"><title>Node1</title>
<polygon fill="#bfbfbf" stroke="black" points="554.347,-541 554.347,-593 745.347,-593 745.347,-541 554.347,-541"/>
<text text-anchor="start" x="562.347" y="-581" font-family="Helvetica,sans-Serif" font-size="10.00">/home/travis/build</text>
<text text-anchor="start" x="562.347" y="-570" font-family="Helvetica,sans-Serif" font-size="10.00">/AliceO2Group/AliceO2</text>
<text text-anchor="start" x="562.347" y="-559" font-family="Helvetica,sans-Serif" font-size="10.00">/Detectors/MUON/MCH/Mapping</text>
<text text-anchor="middle" x="649.847" y="-548" font-family="Helvetica,sans-Serif" font-size="10.00">/SegContour/src/SVGSegmentation.cxx</text>
</g>
<!-- Node2 -->
<g id="node2" class="node"><title>Node2</title>
<polygon fill="none" stroke="#bfbfbf" points="133.847,-478.5 133.847,-497.5 267.847,-497.5 267.847,-478.5 133.847,-478.5"/>
<text text-anchor="middle" x="200.847" y="-485.5" font-family="Helvetica,sans-Serif" font-size="10.00">boost/program_options.hpp</text>
</g>
<!-- Node1&#45;&gt;Node2 -->
<g id="edge1" class="edge"><title>Node1&#45;&gt;Node2</title>
<path fill="none" stroke="midnightblue" d="M554.08,-550.302C479.766,-538.015 374.197,-520.329 281.847,-504 273.547,-502.532 264.775,-500.945 256.189,-499.372"/>
<polygon fill="midnightblue" stroke="midnightblue" points="256.703,-495.908 246.235,-497.539 255.435,-502.792 256.703,-495.908"/>
</g>
<!-- Node3 -->
<g id="node3" class="node"><title>Node3</title>
<g id="a_node3"><a xlink:href="../../d6/d1f/MUON_2MCH_2Mapping_2Interface_2include_2MCHMappingInterface_2Segmentation_8h.html" target="_top" xlink:title="MCHMappingInterface\l/Segmentation.h">
<polygon fill="none" stroke="black" points="237.347,-225 237.347,-255 352.347,-255 352.347,-225 237.347,-225"/>
<text text-anchor="start" x="245.347" y="-243" font-family="Helvetica,sans-Serif" font-size="10.00">MCHMappingInterface</text>
<text text-anchor="middle" x="294.847" y="-232" font-family="Helvetica,sans-Serif" font-size="10.00">/Segmentation.h</text>
</a>
</g>
</g>
<!-- Node1&#45;&gt;Node3 -->
<g id="edge2" class="edge"><title>Node1&#45;&gt;Node3</title>
<path fill="none" stroke="midnightblue" d="M554.05,-547.881C449.211,-525.246 295.847,-482.627 295.847,-427 295.847,-427 295.847,-427 295.847,-369 295.847,-332.994 295.447,-291.292 295.153,-265.527"/>
<polygon fill="midnightblue" stroke="midnightblue" points="298.649,-265.164 295.031,-255.206 291.649,-265.246 298.649,-265.164"/>
</g>
<!-- Node7 -->
<g id="node7" class="node"><title>Node7</title>
<polygon fill="none" stroke="#bfbfbf" points="1289.85,-56.5 1289.85,-75.5 1343.85,-75.5 1343.85,-56.5 1289.85,-56.5"/>
<text text-anchor="middle" x="1316.85" y="-63.5" font-family="Helvetica,sans-Serif" font-size="10.00">iostream</text>
</g>
<!-- Node1&#45;&gt;Node7 -->
<g id="edge70" class="edge"><title>Node1&#45;&gt;Node7</title>
<path fill="none" stroke="midnightblue" d="M745.562,-558.977C955.299,-542.304 1436.85,-496.46 1436.85,-427 1436.85,-427 1436.85,-427 1436.85,-177 1436.85,-129.08 1384.2,-96.3821 1348.65,-79.7644"/>
<polygon fill="midnightblue" stroke="midnightblue" points="1349.69,-76.3959 1339.14,-75.5045 1346.83,-82.7849 1349.69,-76.3959"/>
</g>
<!-- Node10 -->
<g id="node10" class="node"><title>Node10</title>
<g id="a_node10"><a xlink:href="../../dd/d1c/SegmentationContours_8h.html" target="_top" xlink:title="MCHMappingSegContour\l/SegmentationContours.h">
<polygon fill="none" stroke="black" points="449.847,-293 449.847,-323 577.847,-323 577.847,-293 449.847,-293"/>
<text text-anchor="start" x="457.847" y="-311" font-family="Helvetica,sans-Serif" font-size="10.00">MCHMappingSegContour</text>
<text text-anchor="middle" x="513.847" y="-300" font-family="Helvetica,sans-Serif" font-size="10.00">/SegmentationContours.h</text>
</a>
</g>
</g>
<!-- Node1&#45;&gt;Node10 -->
<g id="edge9" class="edge"><title>Node1&#45;&gt;Node10</title>
<path fill="none" stroke="midnightblue" d="M636.559,-540.89C610.172,-491.025 551.516,-380.182 526.045,-332.05"/>
<polygon fill="midnightblue" stroke="midnightblue" points="529.046,-330.237 521.275,-323.036 522.859,-333.512 529.046,-330.237"/>
</g>
<!-- Node25 -->
<g id="node25" class="node"><title>Node25</title>
<g id="a_node25"><a xlink:href="../../d5/d3f/SegmentationSVGWriter_8h.html" target="_top" xlink:title="MCHMappingSegContour\l/SegmentationSVGWriter.h">
<polygon fill="none" stroke="black" points="678.347,-473 678.347,-503 813.347,-503 813.347,-473 678.347,-473"/>
<text text-anchor="start" x="686.347" y="-491" font-family="Helvetica,sans-Serif" font-size="10.00">MCHMappingSegContour</text>
<text text-anchor="middle" x="745.847" y="-480" font-family="Helvetica,sans-Serif" font-size="10.00">/SegmentationSVGWriter.h</text>
</a>
</g>
</g>
<!-- Node1&#45;&gt;Node25 -->
<g id="edge35" class="edge"><title>Node1&#45;&gt;Node25</title>
<path fill="none" stroke="midnightblue" d="M681.281,-540.787C693.988,-530.595 708.461,-518.987 720.479,-509.348"/>
<polygon fill="midnightblue" stroke="midnightblue" points="722.744,-512.018 728.355,-503.031 718.364,-506.557 722.744,-512.018"/>
</g>
<!-- Node27 -->
<g id="node27" class="node"><title>Node27</title>
<g id="a_node27"><a xlink:href="../../de/d51/SVGWriter_8h.html" target="_top" xlink:title="MCHContour/SVGWriter.h">
<polygon fill="none" stroke="black" points="631.347,-416.5 631.347,-435.5 764.347,-435.5 764.347,-416.5 631.347,-416.5"/>
<text text-anchor="middle" x="697.847" y="-423.5" font-family="Helvetica,sans-Serif" font-size="10.00">MCHContour/SVGWriter.h</text>
</a>
</g>
</g>
<!-- Node1&#45;&gt;Node27 -->
<g id="edge68" class="edge"><title>Node1&#45;&gt;Node27</title>
<path fill="none" stroke="midnightblue" d="M652.766,-540.964C655.588,-521.615 660.804,-494.439 669.847,-472 673.796,-462.203 679.834,-452.143 685.293,-444.027"/>
<polygon fill="midnightblue" stroke="midnightblue" points="688.183,-446.001 691.068,-435.807 682.456,-441.977 688.183,-446.001"/>
</g>
<!-- Node33 -->
<g id="node33" class="node"><title>Node33</title>
<polygon fill="none" stroke="#bfbfbf" points="1464.85,-478.5 1464.85,-497.5 1514.85,-497.5 1514.85,-478.5 1464.85,-478.5"/>
<text text-anchor="middle" x="1489.85" y="-485.5" font-family="Helvetica,sans-Serif" font-size="10.00">fstream</text>
</g>
<!-- Node1&#45;&gt;Node33 -->
<g id="edge69" class="edge"><title>Node1&#45;&gt;Node33</title>
<path fill="none" stroke="midnightblue" d="M745.521,-562.067C927.937,-553.996 1319.05,-533.779 1450.85,-504 1454.28,-503.225 1457.81,-502.206 1461.27,-501.063"/>
<polygon fill="midnightblue" stroke="midnightblue" points="1462.55,-504.322 1470.75,-497.613 1460.16,-497.745 1462.55,-504.322"/>
</g>
<!-- Node4 -->
<g id="node4" class="node"><title>Node4</title>
<g id="a_node4"><a xlink:href="../../d0/d85/SegmentationCInterface_8h.html" target="_top" xlink:title="SegmentationCInterface.h">
<polygon fill="none" stroke="black" points="134.347,-168.5 134.347,-187.5 265.347,-187.5 265.347,-168.5 134.347,-168.5"/>
<text text-anchor="middle" x="199.847" y="-175.5" font-family="Helvetica,sans-Serif" font-size="10.00">SegmentationCInterface.h</text>
</a>
</g>
</g>
<!-- Node3&#45;&gt;Node4 -->
<g id="edge3" class="edge"><title>Node3&#45;&gt;Node4</title>
<path fill="none" stroke="midnightblue" d="M272.334,-224.781C257.157,-215.196 237.224,-202.606 222.102,-193.056"/>
<polygon fill="midnightblue" stroke="midnightblue" points="223.718,-189.936 213.394,-187.556 219.98,-195.855 223.718,-189.936"/>
</g>
<!-- Node5 -->
<g id="node5" class="node"><title>Node5</title>
<polygon fill="none" stroke="#bfbfbf" points="305.347,-56.5 305.347,-75.5 364.347,-75.5 364.347,-56.5 305.347,-56.5"/>
<text text-anchor="middle" x="334.847" y="-63.5" font-family="Helvetica,sans-Serif" font-size="10.00">stdexcept</text>
</g>
<!-- Node3&#45;&gt;Node5 -->
<g id="edge4" class="edge"><title>Node3&#45;&gt;Node5</title>
<path fill="none" stroke="midnightblue" d="M237.185,-235.619C177.424,-229.656 96.4179,-213.22 124.847,-168 162.238,-108.526 245.527,-83.2652 295.243,-73.1673"/>
<polygon fill="midnightblue" stroke="midnightblue" points="296.152,-76.5569 305.314,-71.2359 294.833,-69.6822 296.152,-76.5569"/>
</g>
<!-- Node6 -->
<g id="node6" class="node"><title>Node6</title>
<polygon fill="none" stroke="#bfbfbf" points="25.8474,-168.5 25.8474,-187.5 77.8474,-187.5 77.8474,-168.5 25.8474,-168.5"/>
<text text-anchor="middle" x="51.8474" y="-175.5" font-family="Helvetica,sans-Serif" font-size="10.00">memory</text>
</g>
<!-- Node3&#45;&gt;Node6 -->
<g id="edge5" class="edge"><title>Node3&#45;&gt;Node6</title>
<path fill="none" stroke="midnightblue" d="M237.875,-224.933C191.418,-213.462 127.23,-197.613 87.6852,-187.849"/>
<polygon fill="midnightblue" stroke="midnightblue" points="88.4938,-184.443 77.9463,-185.444 86.8157,-191.239 88.4938,-184.443"/>
</g>
<!-- Node3&#45;&gt;Node7 -->
<g id="edge6" class="edge"><title>Node3&#45;&gt;Node7</title>
<path fill="none" stroke="midnightblue" d="M302.449,-224.902C311.796,-208.862 329.126,-182.959 350.847,-168 419.5,-120.721 447.776,-126.588 529.847,-112 854.044,-54.3761 942.894,-115.06 1269.85,-76 1273.06,-75.6156 1276.39,-75.1395 1279.72,-74.6085"/>
<polygon fill="midnightblue" stroke="midnightblue" points="1280.36,-78.0504 1289.61,-72.8877 1279.16,-71.1541 1280.36,-78.0504"/>
</g>
<!-- Node8 -->
<g id="node8" class="node"><title>Node8</title>
<polygon fill="none" stroke="#bfbfbf" points="764.847,-56.5 764.847,-75.5 808.847,-75.5 808.847,-56.5 764.847,-56.5"/>
<text text-anchor="middle" x="786.847" y="-63.5" font-family="Helvetica,sans-Serif" font-size="10.00">vector</text>
</g>
<!-- Node3&#45;&gt;Node8 -->
<g id="edge7" class="edge"><title>Node3&#45;&gt;Node8</title>
<path fill="none" stroke="midnightblue" d="M296.294,-224.99C298.538,-209.508 304.14,-184.575 317.847,-168 350.806,-128.147 370.629,-127.877 419.847,-112 539.061,-73.5431 689.771,-67.5677 754.694,-66.9001"/>
<polygon fill="midnightblue" stroke="midnightblue" points="754.742,-70.3999 764.719,-66.8332 754.696,-63.4001 754.742,-70.3999"/>
</g>
<!-- Node9 -->
<g id="node9" class="node"><title>Node9</title>
<polygon fill="none" stroke="#bfbfbf" points="359.847,-168.5 359.847,-187.5 449.847,-187.5 449.847,-168.5 359.847,-168.5"/>
<text text-anchor="middle" x="404.847" y="-175.5" font-family="Helvetica,sans-Serif" font-size="10.00">boost/format.hpp</text>
</g>
<!-- Node3&#45;&gt;Node9 -->
<g id="edge8" class="edge"><title>Node3&#45;&gt;Node9</title>
<path fill="none" stroke="midnightblue" d="M320.637,-224.933C338.533,-215.171 362.24,-202.24 379.94,-192.586"/>
<polygon fill="midnightblue" stroke="midnightblue" points="381.978,-195.461 389.081,-187.6 378.626,-189.316 381.978,-195.461"/>
</g>
<!-- Node10&#45;&gt;Node3 -->
<g id="edge34" class="edge"><title>Node10&#45;&gt;Node3</title>
<path fill="none" stroke="midnightblue" d="M467.135,-292.922C433.261,-282.714 387.28,-268.857 351.34,-258.025"/>
<polygon fill="midnightblue" stroke="midnightblue" points="352.073,-254.591 341.488,-255.056 350.053,-261.293 352.073,-254.591"/>
</g>
<!-- Node10&#45;&gt;Node8 -->
<g id="edge10" class="edge"><title>Node10&#45;&gt;Node8</title>
<path fill="none" stroke="midnightblue" d="M508.77,-292.861C497.076,-257.513 472.565,-164.388 517.847,-112 548.205,-76.8786 689.876,-69.1591 754.528,-67.4695"/>
<polygon fill="midnightblue" stroke="midnightblue" points="754.66,-70.9675 764.577,-67.2397 754.499,-63.9694 754.66,-70.9675"/>
</g>
<!-- Node11 -->
<g id="node11" class="node"><title>Node11</title>
<g id="a_node11"><a xlink:href="../../db/d08/Contour_8h.html" target="_top" xlink:title="MCHContour/Contour.h">
<polygon fill="none" stroke="black" points="549.847,-230.5 549.847,-249.5 669.847,-249.5 669.847,-230.5 549.847,-230.5"/>
<text text-anchor="middle" x="609.847" y="-237.5" font-family="Helvetica,sans-Serif" font-size="10.00">MCHContour/Contour.h</text>
</a>
</g>
</g>
<!-- Node10&#45;&gt;Node11 -->
<g id="edge11" class="edge"><title>Node10&#45;&gt;Node11</title>
<path fill="none" stroke="midnightblue" d="M534.678,-292.679C550.628,-281.713 572.546,-266.645 588.599,-255.609"/>
<polygon fill="midnightblue" stroke="midnightblue" points="591.026,-258.187 597.283,-249.638 587.06,-252.419 591.026,-258.187"/>
</g>
<!-- Node12 -->
<g id="node12" class="node"><title>Node12</title>
<g id="a_node12"><a xlink:href="../../dc/ddd/Polygon_8h.html" target="_top" xlink:title="Polygon.h">
<polygon fill="none" stroke="black" points="725.847,-168.5 725.847,-187.5 785.847,-187.5 785.847,-168.5 725.847,-168.5"/>
<text text-anchor="middle" x="755.847" y="-175.5" font-family="Helvetica,sans-Serif" font-size="10.00">Polygon.h</text>
</a>
</g>
</g>
<!-- Node10&#45;&gt;Node12 -->
<g id="edge32" class="edge"><title>Node10&#45;&gt;Node12</title>
<path fill="none" stroke="midnightblue" d="M577.94,-294.594C609.525,-286.656 647.29,-274.326 677.847,-256 704.528,-239.999 728.945,-213.028 743.106,-195.627"/>
<polygon fill="midnightblue" stroke="midnightblue" points="746.071,-197.521 749.535,-187.508 740.583,-193.175 746.071,-197.521"/>
</g>
<!-- Node17 -->
<g id="node17" class="node"><title>Node17</title>
<g id="a_node17"><a xlink:href="../../d0/ddc/BBox_8h.html" target="_top" xlink:title="BBox.h">
<polygon fill="none" stroke="black" points="538.347,-112.5 538.347,-131.5 587.347,-131.5 587.347,-112.5 538.347,-112.5"/>
<text text-anchor="middle" x="562.847" y="-119.5" font-family="Helvetica,sans-Serif" font-size="10.00">BBox.h</text>
</a>
</g>
</g>
<!-- Node10&#45;&gt;Node17 -->
<g id="edge33" class="edge"><title>Node10&#45;&gt;Node17</title>
<path fill="none" stroke="midnightblue" d="M517.611,-292.867C526.344,-260.074 547.988,-178.798 557.831,-141.836"/>
<polygon fill="midnightblue" stroke="midnightblue" points="561.288,-142.455 560.48,-131.891 554.524,-140.654 561.288,-142.455"/>
</g>
<!-- Node11&#45;&gt;Node8 -->
<g id="edge29" class="edge"><title>Node11&#45;&gt;Node8</title>
<path fill="none" stroke="midnightblue" d="M597.053,-230.447C566.757,-209.181 495.653,-152.702 529.847,-112 558.217,-78.2311 692.136,-69.7983 754.609,-67.6961"/>
<polygon fill="midnightblue" stroke="midnightblue" points="754.81,-71.1917 764.7,-67.3912 754.599,-64.1949 754.81,-71.1917"/>
</g>
<!-- Node11&#45;&gt;Node12 -->
<g id="edge12" class="edge"><title>Node11&#45;&gt;Node12</title>
<path fill="none" stroke="midnightblue" d="M630.766,-230.403C655.593,-220.2 697.191,-203.105 725.542,-191.454"/>
<polygon fill="midnightblue" stroke="midnightblue" points="727.049,-194.619 734.968,-187.581 724.388,-188.144 727.049,-194.619"/>
</g>
<!-- Node14 -->
<g id="node14" class="node"><title>Node14</title>
<polygon fill="none" stroke="#bfbfbf" points="605.347,-112.5 605.347,-131.5 678.347,-131.5 678.347,-112.5 605.347,-112.5"/>
<text text-anchor="middle" x="641.847" y="-119.5" font-family="Helvetica,sans-Serif" font-size="10.00">initializer_list</text>
</g>
<!-- Node11&#45;&gt;Node14 -->
<g id="edge31" class="edge"><title>Node11&#45;&gt;Node14</title>
<path fill="none" stroke="midnightblue" d="M608.6,-230.441C606.944,-216.841 604.967,-189.621 611.847,-168 615.151,-157.618 621.623,-147.403 627.712,-139.336"/>
<polygon fill="midnightblue" stroke="midnightblue" points="630.46,-141.505 634.002,-131.52 625.006,-137.116 630.46,-141.505"/>
</g>
<!-- Node24 -->
<g id="node24" class="node"><title>Node24</title>
<polygon fill="none" stroke="#bfbfbf" points="620.347,-168.5 620.347,-187.5 669.347,-187.5 669.347,-168.5 620.347,-168.5"/>
<text text-anchor="middle" x="644.847" y="-175.5" font-family="Helvetica,sans-Serif" font-size="10.00">cassert</text>
</g>
<!-- Node11&#45;&gt;Node24 -->
<g id="edge30" class="edge"><title>Node11&#45;&gt;Node24</title>
<path fill="none" stroke="midnightblue" d="M614.862,-230.403C620.008,-221.582 628.16,-207.608 634.665,-196.455"/>
<polygon fill="midnightblue" stroke="midnightblue" points="637.826,-197.982 639.842,-187.581 631.78,-194.455 637.826,-197.982"/>
</g>
<!-- Node12&#45;&gt;Node7 -->
<g id="edge13" class="edge"><title>Node12&#45;&gt;Node7</title>
<path fill="none" stroke="midnightblue" d="M753.875,-168.345C751.239,-154.278 748.514,-126.564 763.847,-112 804.715,-73.1824 1213.96,-83.313 1269.85,-76 1273.06,-75.5796 1276.38,-75.0784 1279.71,-74.5308"/>
<polygon fill="midnightblue" stroke="midnightblue" points="1280.36,-77.9708 1289.6,-72.7832 1279.14,-71.0777 1280.36,-77.9708"/>
</g>
<!-- Node12&#45;&gt;Node8 -->
<g id="edge15" class="edge"><title>Node12&#45;&gt;Node8</title>
<path fill="none" stroke="midnightblue" d="M748.058,-168.404C737.622,-155.788 721.441,-131.625 730.847,-112 737.1,-98.9542 749.183,-88.4921 760.529,-80.9506"/>
<polygon fill="midnightblue" stroke="midnightblue" points="762.657,-83.7515 769.346,-75.5351 758.993,-77.7869 762.657,-83.7515"/>
</g>
<!-- Node13 -->
<g id="node13" class="node"><title>Node13</title>
<polygon fill="none" stroke="#bfbfbf" points="842.847,-112.5 842.847,-131.5 882.847,-131.5 882.847,-112.5 842.847,-112.5"/>
<text text-anchor="middle" x="862.847" y="-119.5" font-family="Helvetica,sans-Serif" font-size="10.00">utility</text>
</g>
<!-- Node12&#45;&gt;Node13 -->
<g id="edge14" class="edge"><title>Node12&#45;&gt;Node13</title>
<path fill="none" stroke="midnightblue" d="M773.039,-168.324C790.198,-159.664 816.793,-146.242 836.595,-136.249"/>
<polygon fill="midnightblue" stroke="midnightblue" points="838.348,-139.285 845.699,-131.655 835.194,-133.035 838.348,-139.285"/>
</g>
<!-- Node12&#45;&gt;Node14 -->
<g id="edge16" class="edge"><title>Node12&#45;&gt;Node14</title>
<path fill="none" stroke="midnightblue" d="M737.784,-168.444C719.273,-159.675 690.267,-145.935 668.992,-135.858"/>
<polygon fill="midnightblue" stroke="midnightblue" points="670.362,-132.634 659.826,-131.516 667.366,-138.96 670.362,-132.634"/>
</g>
<!-- Node15 -->
<g id="node15" class="node"><title>Node15</title>
<polygon fill="none" stroke="#bfbfbf" points="772.847,-112.5 772.847,-131.5 824.847,-131.5 824.847,-112.5 772.847,-112.5"/>
<text text-anchor="middle" x="798.847" y="-119.5" font-family="Helvetica,sans-Serif" font-size="10.00">sstream</text>
</g>
<!-- Node12&#45;&gt;Node15 -->
<g id="edge17" class="edge"><title>Node12&#45;&gt;Node15</title>
<path fill="none" stroke="midnightblue" d="M762.948,-168.083C769.084,-160.377 778.117,-149.033 785.587,-139.653"/>
<polygon fill="midnightblue" stroke="midnightblue" points="788.388,-141.754 791.879,-131.751 782.912,-137.394 788.388,-141.754"/>
</g>
<!-- Node16 -->
<g id="node16" class="node"><title>Node16</title>
<polygon fill="none" stroke="#bfbfbf" points="938.847,-112.5 938.847,-131.5 994.847,-131.5 994.847,-112.5 938.847,-112.5"/>
<text text-anchor="middle" x="966.847" y="-119.5" font-family="Helvetica,sans-Serif" font-size="10.00">algorithm</text>
</g>
<!-- Node12&#45;&gt;Node16 -->
<g id="edge18" class="edge"><title>Node12&#45;&gt;Node16</title>
<path fill="none" stroke="midnightblue" d="M786.079,-169.263C823.686,-159.638 887.92,-143.199 928.828,-132.73"/>
<polygon fill="midnightblue" stroke="midnightblue" points="929.875,-136.075 938.695,-130.205 928.14,-129.293 929.875,-136.075"/>
</g>
<!-- Node12&#45;&gt;Node17 -->
<g id="edge19" class="edge"><title>Node12&#45;&gt;Node17</title>
<path fill="none" stroke="midnightblue" d="M725.691,-168.562C690.901,-158.829 633.815,-142.856 597.302,-132.64"/>
<polygon fill="midnightblue" stroke="midnightblue" points="598.158,-129.245 587.585,-129.921 596.272,-135.987 598.158,-129.245"/>
</g>
<!-- Node22 -->
<g id="node22" class="node"><title>Node22</title>
<g id="a_node22"><a xlink:href="../../dd/dbc/Detectors_2MUON_2MCH_2Contour_2include_2MCHContour_2Vertex_8h.html" target="_top" xlink:title="Vertex.h">
<polygon fill="none" stroke="black" points="1203.35,-112.5 1203.35,-131.5 1256.35,-131.5 1256.35,-112.5 1203.35,-112.5"/>
<text text-anchor="middle" x="1229.85" y="-119.5" font-family="Helvetica,sans-Serif" font-size="10.00">Vertex.h</text>
</a>
</g>
</g>
<!-- Node12&#45;&gt;Node22 -->
<g id="edge25" class="edge"><title>Node12&#45;&gt;Node22</title>
<path fill="none" stroke="midnightblue" d="M785.887,-173.686C852.385,-166.334 1017.05,-148.038 1154.85,-132 1167.24,-130.558 1180.78,-128.944 1192.9,-127.487"/>
<polygon fill="midnightblue" stroke="midnightblue" points="1193.62,-130.926 1203.13,-126.254 1192.78,-123.976 1193.62,-130.926"/>
</g>
<!-- Node17&#45;&gt;Node5 -->
<g id="edge23" class="edge"><title>Node17&#45;&gt;Node5</title>
<path fill="none" stroke="midnightblue" d="M538.013,-115.118C498.659,-105.797 421.613,-87.5499 374.534,-76.3996"/>
<polygon fill="midnightblue" stroke="midnightblue" points="375.219,-72.965 364.682,-74.0661 373.606,-79.7766 375.219,-72.965"/>
</g>
<!-- Node18 -->
<g id="node18" class="node"><title>Node18</title>
<g id="a_node18"><a xlink:href="../../d2/dc4/Helper_8h.html" target="_top" xlink:title="Helper.h">
<polygon fill="none" stroke="black" points="963.347,-56.5 963.347,-75.5 1016.35,-75.5 1016.35,-56.5 963.347,-56.5"/>
<text text-anchor="middle" x="989.847" y="-63.5" font-family="Helvetica,sans-Serif" font-size="10.00">Helper.h</text>
</a>
</g>
</g>
<!-- Node17&#45;&gt;Node18 -->
<g id="edge20" class="edge"><title>Node17&#45;&gt;Node18</title>
<path fill="none" stroke="midnightblue" d="M587.635,-113.995C590.722,-113.254 593.847,-112.566 596.847,-112 726.512,-87.5481 882.919,-74.4516 952.885,-69.4391"/>
<polygon fill="midnightblue" stroke="midnightblue" points="953.232,-72.9234 962.962,-68.7306 952.741,-65.9407 953.232,-72.9234"/>
</g>
<!-- Node21 -->
<g id="node21" class="node"><title>Node21</title>
<polygon fill="none" stroke="#bfbfbf" points="1115.85,-56.5 1115.85,-75.5 1167.85,-75.5 1167.85,-56.5 1115.85,-56.5"/>
<text text-anchor="middle" x="1141.85" y="-63.5" font-family="Helvetica,sans-Serif" font-size="10.00">ostream</text>
</g>
<!-- Node17&#45;&gt;Node21 -->
<g id="edge24" class="edge"><title>Node17&#45;&gt;Node21</title>
<path fill="none" stroke="midnightblue" d="M587.618,-113.903C590.708,-113.177 593.839,-112.518 596.847,-112 621.937,-107.678 987.69,-78.9995 1105.54,-69.8204"/>
<polygon fill="midnightblue" stroke="midnightblue" points="1105.82,-73.3093 1115.52,-69.0438 1105.28,-66.3305 1105.82,-73.3093"/>
</g>
<!-- Node19 -->
<g id="node19" class="node"><title>Node19</title>
<polygon fill="none" stroke="#bfbfbf" points="441.847,-0.5 441.847,-19.5 485.847,-19.5 485.847,-0.5 441.847,-0.5"/>
<text text-anchor="middle" x="463.847" y="-7.5" font-family="Helvetica,sans-Serif" font-size="10.00">cmath</text>
</g>
<!-- Node18&#45;&gt;Node19 -->
<g id="edge21" class="edge"><title>Node18&#45;&gt;Node19</title>
<path fill="none" stroke="midnightblue" d="M963.04,-62.2479C874.556,-53.164 591.984,-24.1547 496.061,-14.3071"/>
<polygon fill="midnightblue" stroke="midnightblue" points="496.385,-10.8221 486.08,-13.2825 495.671,-17.7855 496.385,-10.8221"/>
</g>
<!-- Node20 -->
<g id="node20" class="node"><title>Node20</title>
<polygon fill="none" stroke="#bfbfbf" points="969.847,-0.5 969.847,-19.5 1009.85,-19.5 1009.85,-0.5 969.847,-0.5"/>
<text text-anchor="middle" x="989.847" y="-7.5" font-family="Helvetica,sans-Serif" font-size="10.00">limits</text>
</g>
<!-- Node18&#45;&gt;Node20 -->
<g id="edge22" class="edge"><title>Node18&#45;&gt;Node20</title>
<path fill="none" stroke="midnightblue" d="M989.847,-56.083C989.847,-49.0059 989.847,-38.8611 989.847,-29.9865"/>
<polygon fill="midnightblue" stroke="midnightblue" points="993.347,-29.751 989.847,-19.7511 986.347,-29.7511 993.347,-29.751"/>
</g>
<!-- Node22&#45;&gt;Node7 -->
<g id="edge26" class="edge"><title>Node22&#45;&gt;Node7</title>
<path fill="none" stroke="midnightblue" d="M1243.83,-112.324C1257.4,-103.9 1278.23,-90.9709 1294.17,-81.0741"/>
<polygon fill="midnightblue" stroke="midnightblue" points="1296.25,-83.9019 1302.9,-75.6545 1292.56,-77.9544 1296.25,-83.9019"/>
</g>
<!-- Node22&#45;&gt;Node18 -->
<g id="edge28" class="edge"><title>Node22&#45;&gt;Node18</title>
<path fill="none" stroke="midnightblue" d="M1203.25,-115.015C1160.18,-105.324 1075.1,-86.1816 1026.38,-75.2205"/>
<polygon fill="midnightblue" stroke="midnightblue" points="1027.09,-71.7926 1016.57,-73.0121 1025.56,-78.6219 1027.09,-71.7926"/>
</g>
<!-- Node23 -->
<g id="node23" class="node"><title>Node23</title>
<polygon fill="none" stroke="#bfbfbf" points="1210.85,-56.5 1210.85,-75.5 1260.85,-75.5 1260.85,-56.5 1210.85,-56.5"/>
<text text-anchor="middle" x="1235.85" y="-63.5" font-family="Helvetica,sans-Serif" font-size="10.00">iomanip</text>
</g>
<!-- Node22&#45;&gt;Node23 -->
<g id="edge27" class="edge"><title>Node22&#45;&gt;Node23</title>
<path fill="none" stroke="midnightblue" d="M1230.84,-112.083C1231.63,-104.927 1232.78,-94.6353 1233.77,-85.6911"/>
<polygon fill="midnightblue" stroke="midnightblue" points="1237.25,-86.0765 1234.88,-75.7511 1230.29,-85.3034 1237.25,-86.0765"/>
</g>
<!-- Node26 -->
<g id="node26" class="node"><title>Node26</title>
<polygon fill="none" stroke="#bfbfbf" points="782.347,-416.5 782.347,-435.5 823.347,-435.5 823.347,-416.5 782.347,-416.5"/>
<text text-anchor="middle" x="802.847" y="-423.5" font-family="Helvetica,sans-Serif" font-size="10.00">string</text>
</g>
<!-- Node25&#45;&gt;Node26 -->
<g id="edge36" class="edge"><title>Node25&#45;&gt;Node26</title>
<path fill="none" stroke="midnightblue" d="M759.356,-472.781C767.809,-463.882 778.723,-452.394 787.503,-443.152"/>
<polygon fill="midnightblue" stroke="midnightblue" points="790.203,-445.391 794.553,-435.731 785.128,-440.57 790.203,-445.391"/>
</g>
<!-- Node25&#45;&gt;Node27 -->
<g id="edge37" class="edge"><title>Node25&#45;&gt;Node27</title>
<path fill="none" stroke="midnightblue" d="M734.472,-472.781C727.497,-464.062 718.533,-452.857 711.22,-443.715"/>
<polygon fill="midnightblue" stroke="midnightblue" points="713.812,-441.353 704.832,-435.731 708.346,-445.726 713.812,-441.353"/>
</g>
<!-- Node27&#45;&gt;Node9 -->
<g id="edge66" class="edge"><title>Node27&#45;&gt;Node9</title>
<path fill="none" stroke="midnightblue" d="M633.127,-416.494C574.529,-405.356 490.073,-380.142 440.847,-324 409.157,-287.857 404.483,-228.054 404.318,-197.788"/>
<polygon fill="midnightblue" stroke="midnightblue" points="407.818,-197.784 404.428,-187.746 400.818,-197.707 407.818,-197.784"/>
</g>
<!-- Node27&#45;&gt;Node11 -->
<g id="edge38" class="edge"><title>Node27&#45;&gt;Node11</title>
<path fill="none" stroke="midnightblue" d="M693.603,-416.125C679.925,-387.526 636.821,-297.4 618.367,-258.815"/>
<polygon fill="midnightblue" stroke="midnightblue" points="621.521,-257.297 614.049,-249.786 615.206,-260.317 621.521,-257.297"/>
</g>
<!-- Node27&#45;&gt;Node13 -->
<g id="edge65" class="edge"><title>Node27&#45;&gt;Node13</title>
<path fill="none" stroke="midnightblue" d="M730.131,-416.448C775.289,-402.305 851.847,-369.417 851.847,-309 851.847,-309 851.847,-309 851.847,-239 851.847,-204.562 856.712,-164.629 859.971,-141.738"/>
<polygon fill="midnightblue" stroke="midnightblue" points="863.454,-142.109 861.454,-131.704 856.529,-141.085 863.454,-142.109"/>
</g>
<!-- Node27&#45;&gt;Node15 -->
<g id="edge41" class="edge"><title>Node27&#45;&gt;Node15</title>
<path fill="none" stroke="midnightblue" d="M717.525,-416.383C750.62,-400.403 813.847,-362.829 813.847,-309 813.847,-309 813.847,-309 813.847,-239 813.847,-204.43 807.214,-164.541 802.77,-141.694"/>
<polygon fill="midnightblue" stroke="midnightblue" points="806.158,-140.79 800.747,-131.681 799.297,-142.176 806.158,-140.79"/>
</g>
<!-- Node27&#45;&gt;Node17 -->
<g id="edge39" class="edge"><title>Node27&#45;&gt;Node17</title>
<path fill="none" stroke="midnightblue" d="M697.847,-416.269C697.847,-396.941 697.847,-349.076 697.847,-309 697.847,-309 697.847,-309 697.847,-239 697.847,-206.216 699.861,-192.294 677.847,-168 666.66,-155.653 626.665,-141.711 596.967,-132.662"/>
<polygon fill="midnightblue" stroke="midnightblue" points="597.931,-129.297 587.347,-129.79 595.928,-136.004 597.931,-129.297"/>
</g>
<!-- Node27&#45;&gt;Node19 -->
<g id="edge67" class="edge"><title>Node27&#45;&gt;Node19</title>
<path fill="none" stroke="midnightblue" d="M631.113,-425.768C488.319,-423.295 154.939,-394.588 16.8474,-188 -84.4698,-36.4271 312.539,-14.6511 431.246,-11.524"/>
<polygon fill="midnightblue" stroke="midnightblue" points="431.611,-15.0165 441.526,-11.2823 431.447,-8.0184 431.611,-15.0165"/>
</g>
<!-- Node27&#45;&gt;Node21 -->
<g id="edge40" class="edge"><title>Node27&#45;&gt;Node21</title>
<path fill="none" stroke="midnightblue" d="M764.454,-416.82C932.582,-395.729 1360.85,-339.053 1360.85,-309 1360.85,-309 1360.85,-309 1360.85,-177 1360.85,-136.595 1240.31,-95.5974 1178.08,-77.1258"/>
<polygon fill="midnightblue" stroke="midnightblue" points="1178.84,-73.702 1168.26,-74.2543 1176.88,-80.4206 1178.84,-73.702"/>
</g>
<!-- Node28 -->
<g id="node28" class="node"><title>Node28</title>
<g id="a_node28"><a xlink:href="../../d4/d84/ContourCreator_8h.html" target="_top" xlink:title="ContourCreator.h">
<polygon fill="none" stroke="black" points="880.847,-360.5 880.847,-379.5 972.847,-379.5 972.847,-360.5 880.847,-360.5"/>
<text text-anchor="middle" x="926.847" y="-367.5" font-family="Helvetica,sans-Serif" font-size="10.00">ContourCreator.h</text>
</a>
</g>
</g>
<!-- Node27&#45;&gt;Node28 -->
<g id="edge42" class="edge"><title>Node27&#45;&gt;Node28</title>
<path fill="none" stroke="midnightblue" d="M734.133,-416.444C773.83,-407.083 837.554,-392.056 880.759,-381.868"/>
<polygon fill="midnightblue" stroke="midnightblue" points="881.802,-385.218 890.731,-379.516 880.195,-378.405 881.802,-385.218"/>
</g>
<!-- Node29 -->
<g id="node29" class="node"><title>Node29</title>
<g id="a_node29"><a xlink:href="../../dc/d15/ContourCreator_8inl.html" target="_top" xlink:title="ContourCreator.inl">
<polygon fill="none" stroke="black" points="879.847,-298.5 879.847,-317.5 975.847,-317.5 975.847,-298.5 879.847,-298.5"/>
<text text-anchor="middle" x="927.847" y="-305.5" font-family="Helvetica,sans-Serif" font-size="10.00">ContourCreator.inl</text>
</a>
</g>
</g>
<!-- Node28&#45;&gt;Node29 -->
<g id="edge43" class="edge"><title>Node28&#45;&gt;Node29</title>
<path fill="none" stroke="midnightblue" d="M926.991,-360.403C927.132,-351.938 927.352,-338.728 927.534,-327.82"/>
<polygon fill="midnightblue" stroke="midnightblue" points="931.037,-327.638 927.704,-317.581 924.038,-327.521 931.037,-327.638"/>
</g>
<!-- Node29&#45;&gt;Node7 -->
<g id="edge46" class="edge"><title>Node29&#45;&gt;Node7</title>
<path fill="none" stroke="midnightblue" d="M976.082,-298.815C1056.97,-282.429 1219.31,-237.674 1302.85,-132 1313.24,-118.853 1316.35,-99.711 1317.09,-85.6031"/>
<polygon fill="midnightblue" stroke="midnightblue" points="1320.59,-85.6408 1317.27,-75.5787 1313.59,-85.5132 1320.59,-85.6408"/>
</g>
<!-- Node29&#45;&gt;Node8 -->
<g id="edge45" class="edge"><title>Node29&#45;&gt;Node8</title>
<path fill="none" stroke="midnightblue" d="M928.91,-298.441C932.087,-268.893 938.601,-169.824 891.847,-112 873.816,-89.6992 842.654,-78.2341 818.948,-72.4788"/>
<polygon fill="midnightblue" stroke="midnightblue" points="819.499,-69.0164 808.98,-70.2823 817.993,-75.8524 819.499,-69.0164"/>
</g>
<!-- Node29&#45;&gt;Node11 -->
<g id="edge58" class="edge"><title>Node29&#45;&gt;Node11</title>
<path fill="none" stroke="midnightblue" d="M886.6,-298.439C828.814,-286.446 723.819,-264.654 661.089,-251.635"/>
<polygon fill="midnightblue" stroke="midnightblue" points="661.524,-248.151 651.021,-249.546 660.101,-255.005 661.524,-248.151"/>
</g>
<!-- Node29&#45;&gt;Node12 -->
<g id="edge57" class="edge"><title>Node29&#45;&gt;Node12</title>
<path fill="none" stroke="midnightblue" d="M916.295,-298.403C887.409,-276.906 811.779,-220.623 775.635,-193.726"/>
<polygon fill="midnightblue" stroke="midnightblue" points="777.461,-190.722 767.35,-187.56 773.282,-196.338 777.461,-190.722"/>
</g>
<!-- Node29&#45;&gt;Node13 -->
<g id="edge44" class="edge"><title>Node29&#45;&gt;Node13</title>
<path fill="none" stroke="midnightblue" d="M924.712,-298.125C914.652,-269.647 883.042,-180.166 869.316,-141.31"/>
<polygon fill="midnightblue" stroke="midnightblue" points="872.582,-140.049 865.951,-131.786 865.982,-142.38 872.582,-140.049"/>
</g>
<!-- Node29&#45;&gt;Node16 -->
<g id="edge64" class="edge"><title>Node29&#45;&gt;Node16</title>
<path fill="none" stroke="midnightblue" d="M930.443,-298.392C933.433,-288.297 938.378,-271.03 941.847,-256 951.192,-215.518 959.555,-167.503 963.834,-141.677"/>
<polygon fill="midnightblue" stroke="midnightblue" points="967.295,-142.2 965.456,-131.766 960.387,-141.07 967.295,-142.2"/>
</g>
<!-- Node30 -->
<g id="node30" class="node"><title>Node30</title>
<g id="a_node30"><a xlink:href="../../d5/de0/Edge_8h.html" target="_top" xlink:title="Edge.h">
<polygon fill="none" stroke="black" points="1095.35,-168.5 1095.35,-187.5 1142.35,-187.5 1142.35,-168.5 1095.35,-168.5"/>
<text text-anchor="middle" x="1118.85" y="-175.5" font-family="Helvetica,sans-Serif" font-size="10.00">Edge.h</text>
</a>
</g>
</g>
<!-- Node29&#45;&gt;Node30 -->
<g id="edge47" class="edge"><title>Node29&#45;&gt;Node30</title>
<path fill="none" stroke="midnightblue" d="M941.147,-298.414C956.713,-288.339 983.24,-271.091 1005.85,-256 1038.13,-234.453 1075.26,-209.026 1097.88,-193.46"/>
<polygon fill="midnightblue" stroke="midnightblue" points="1100.11,-196.178 1106.36,-187.624 1096.14,-190.413 1100.11,-196.178"/>
</g>
<!-- Node32 -->
<g id="node32" class="node"><title>Node32</title>
<g id="a_node32"><a xlink:href="../../dc/ded/SegmentTree_8h.html" target="_top" xlink:title="SegmentTree.h">
<polygon fill="none" stroke="black" points="994.347,-168.5 994.347,-187.5 1077.35,-187.5 1077.35,-168.5 994.347,-168.5"/>
<text text-anchor="middle" x="1035.85" y="-175.5" font-family="Helvetica,sans-Serif" font-size="10.00">SegmentTree.h</text>
</a>
</g>
</g>
<!-- Node29&#45;&gt;Node32 -->
<g id="edge59" class="edge"><title>Node29&#45;&gt;Node32</title>
<path fill="none" stroke="midnightblue" d="M937.525,-298.414C948.341,-288.618 966.134,-271.892 979.847,-256 996.638,-236.542 1013.69,-212.316 1024.49,-196.291"/>
<polygon fill="midnightblue" stroke="midnightblue" points="1027.45,-198.165 1030.08,-187.902 1021.62,-194.284 1027.45,-198.165"/>
</g>
<!-- Node30&#45;&gt;Node7 -->
<g id="edge50" class="edge"><title>Node30&#45;&gt;Node7</title>
<path fill="none" stroke="midnightblue" d="M1142.58,-176.041C1176.62,-173.52 1239.71,-164.454 1280.85,-132 1296.01,-120.041 1305.74,-99.8473 1311.22,-85.1357"/>
<polygon fill="midnightblue" stroke="midnightblue" points="1314.56,-86.1829 1314.47,-75.5885 1307.93,-83.9272 1314.56,-86.1829"/>
</g>
<!-- Node30&#45;&gt;Node8 -->
<g id="edge49" class="edge"><title>Node30&#45;&gt;Node8</title>
<path fill="none" stroke="midnightblue" d="M1109.5,-168.498C1093.46,-154.397 1059.08,-126.309 1024.85,-112 955.198,-82.8862 866.198,-72.4758 819.234,-68.8539"/>
<polygon fill="midnightblue" stroke="midnightblue" points="819.278,-65.3482 809.054,-68.1255 818.779,-72.3304 819.278,-65.3482"/>
</g>
<!-- Node30&#45;&gt;Node13 -->
<g id="edge48" class="edge"><title>Node30&#45;&gt;Node13</title>
<path fill="none" stroke="midnightblue" d="M1095.1,-170.32C1092,-169.506 1088.85,-168.712 1085.85,-168 1017.29,-151.754 936.001,-136.299 893.009,-128.421"/>
<polygon fill="midnightblue" stroke="midnightblue" points="893.401,-124.935 882.935,-126.586 892.146,-131.822 893.401,-124.935"/>
</g>
<!-- Node30&#45;&gt;Node22 -->
<g id="edge56" class="edge"><title>Node30&#45;&gt;Node22</title>
<path fill="none" stroke="midnightblue" d="M1136.68,-168.324C1154.56,-159.625 1182.32,-146.12 1202.89,-136.113"/>
<polygon fill="midnightblue" stroke="midnightblue" points="1204.6,-139.177 1212.06,-131.655 1201.53,-132.882 1204.6,-139.177"/>
</g>
<!-- Node30&#45;&gt;Node23 -->
<g id="edge51" class="edge"><title>Node30&#45;&gt;Node23</title>
<path fill="none" stroke="midnightblue" d="M1142.59,-177.608C1176.17,-177.017 1236.57,-170.304 1264.85,-132 1275.91,-117.016 1263.89,-97.1453 1252.14,-83.3356"/>
<polygon fill="midnightblue" stroke="midnightblue" points="1254.4,-80.6238 1245.06,-75.6182 1249.24,-85.3544 1254.4,-80.6238"/>
</g>
<!-- Node31 -->
<g id="node31" class="node"><title>Node31</title>
<g id="a_node31"><a xlink:href="../../d1/d55/Interval_8h.html" target="_top" xlink:title="Interval.h">
<polygon fill="none" stroke="black" points="1089.35,-112.5 1089.35,-131.5 1146.35,-131.5 1146.35,-112.5 1089.35,-112.5"/>
<text text-anchor="middle" x="1117.85" y="-119.5" font-family="Helvetica,sans-Serif" font-size="10.00">Interval.h</text>
</a>
</g>
</g>
<!-- Node30&#45;&gt;Node31 -->
<g id="edge52" class="edge"><title>Node30&#45;&gt;Node31</title>
<path fill="none" stroke="midnightblue" d="M1118.68,-168.083C1118.55,-161.006 1118.36,-150.861 1118.2,-141.986"/>
<polygon fill="midnightblue" stroke="midnightblue" points="1121.69,-141.685 1118.01,-131.751 1114.7,-141.814 1121.69,-141.685"/>
</g>
<!-- Node31&#45;&gt;Node8 -->
<g id="edge53" class="edge"><title>Node31&#45;&gt;Node8</title>
<path fill="none" stroke="midnightblue" d="M1089.21,-114.792C1084.42,-113.816 1079.5,-112.85 1074.85,-112 982.397,-95.1138 872.523,-79.0464 819.154,-71.4958"/>
<polygon fill="midnightblue" stroke="midnightblue" points="819.343,-67.988 808.953,-70.0591 818.367,-74.9196 819.343,-67.988"/>
</g>
<!-- Node31&#45;&gt;Node18 -->
<g id="edge55" class="edge"><title>Node31&#45;&gt;Node18</title>
<path fill="none" stroke="midnightblue" d="M1097.57,-112.444C1076.5,-103.557 1043.33,-89.5632 1019.36,-79.4514"/>
<polygon fill="midnightblue" stroke="midnightblue" points="1020.61,-76.1787 1010.03,-75.5164 1017.89,-82.6283 1020.61,-76.1787"/>
</g>
<!-- Node31&#45;&gt;Node21 -->
<g id="edge54" class="edge"><title>Node31&#45;&gt;Node21</title>
<path fill="none" stroke="midnightblue" d="M1121.81,-112.083C1125.06,-104.77 1129.77,-94.1814 1133.8,-85.1034"/>
<polygon fill="midnightblue" stroke="midnightblue" points="1137.09,-86.3107 1137.96,-75.7511 1130.7,-83.4677 1137.09,-86.3107"/>
</g>
<!-- Node32&#45;&gt;Node8 -->
<g id="edge60" class="edge"><title>Node32&#45;&gt;Node8</title>
<path fill="none" stroke="midnightblue" d="M1033.99,-168.287C1030.49,-154.137 1021.54,-126.306 1002.85,-112 974.388,-90.2211 872.141,-76.239 819.172,-70.2909"/>
<polygon fill="midnightblue" stroke="midnightblue" points="819.287,-66.7827 808.966,-69.176 818.527,-73.7414 819.287,-66.7827"/>
</g>
<!-- Node32&#45;&gt;Node16 -->
<g id="edge62" class="edge"><title>Node32&#45;&gt;Node16</title>
<path fill="none" stroke="midnightblue" d="M1024.76,-168.324C1014.36,-160.185 998.587,-147.839 986.126,-138.087"/>
<polygon fill="midnightblue" stroke="midnightblue" points="988.167,-135.241 978.135,-131.834 983.853,-140.753 988.167,-135.241"/>
</g>
<!-- Node32&#45;&gt;Node21 -->
<g id="edge61" class="edge"><title>Node32&#45;&gt;Node21</title>
<path fill="none" stroke="midnightblue" d="M1070.75,-168.496C1102.2,-160.045 1144.96,-146.31 1154.85,-132 1164.43,-118.134 1158.79,-98.8598 1152.21,-84.9035"/>
<polygon fill="midnightblue" stroke="midnightblue" points="1155.2,-83.0676 1147.46,-75.8342 1149,-86.3164 1155.2,-83.0676"/>
</g>
<!-- Node32&#45;&gt;Node31 -->
<g id="edge63" class="edge"><title>Node32&#45;&gt;Node31</title>
<path fill="none" stroke="midnightblue" d="M1049.02,-168.324C1061.69,-159.979 1081.08,-147.212 1096.05,-137.352"/>
<polygon fill="midnightblue" stroke="midnightblue" points="1098.28,-140.078 1104.71,-131.655 1094.43,-134.231 1098.28,-140.078"/>
</g>
</g>
</svg>
        <g id="navigator" transform="translate(0 0)" fill="#404254">
                <rect fill="#f2f5e9" fill-opacity="0.5" stroke="#606060" stroke-width=".5" x="0" y="0" width="60" height="60"/>
                <use id="zoomplus" xlink:href="#zoomPlus" x="17" y="9" onmousedown="handleZoom(evt,'in')"/>
                <use id="zoomminus" xlink:href="#zoomMin" x="42" y="9" onmousedown="handleZoom(evt,'out')"/>
                <use id="reset" xlink:href="#resetDef" x="30" y="36" onmousedown="handleReset()"/>
                <g id="arrowUp" xlink:href="#dirArrow" transform="translate(30 24)" onmousedown="handlePan(0,-1)">
                  <use xlink:href="#rim" fill="#404040">
                        <set attributeName="fill" to="#808080" begin="arrowUp.mouseover" end="arrowUp.mouseout"/>
                  </use>
                  <path fill="none" stroke="white" stroke-width="1.5" d="M0,-3.0v7 M-2.5,-0.5L0,-3.0L2.5,-0.5"/>
                </g>
                <g id="arrowRight" xlink:href="#dirArrow" transform="rotate(90) translate(36 -43)" onmousedown="handlePan(1,0)">
                  <use xlink:href="#rim" fill="#404040">
                        <set attributeName="fill" to="#808080" begin="arrowRight.mouseover" end="arrowRight.mouseout"/>
                  </use>
                  <path fill="none" stroke="white" stroke-width="1.5" d="M0,-3.0v7 M-2.5,-0.5L0,-3.0L2.5,-0.5"/>
                </g>
                <g id="arrowDown" xlink:href="#dirArrow" transform="rotate(180) translate(-30 -48)" onmousedown="handlePan(0,1)">
                  <use xlink:href="#rim" fill="#404040">
                        <set attributeName="fill" to="#808080" begin="arrowDown.mouseover" end="arrowDown.mouseout"/>
                  </use>
                  <path fill="none" stroke="white" stroke-width="1.5" d="M0,-3.0v7 M-2.5,-0.5L0,-3.0L2.5,-0.5"/>
                </g>
                <g id="arrowLeft" xlink:href="#dirArrow" transform="rotate(270) translate(-36 17)" onmousedown="handlePan(-1,0)">
                  <use xlink:href="#rim" fill="#404040">
                        <set attributeName="fill" to="#808080" begin="arrowLeft.mouseover" end="arrowLeft.mouseout"/>
                  </use>
                  <path fill="none" stroke="white" stroke-width="1.5" d="M0,-3.0v7 M-2.5,-0.5L0,-3.0L2.5,-0.5"/>
                </g>
        </g>
        <svg viewBox="0 0 15 15" width="100%" height="30px" preserveAspectRatio="xMaxYMin meet">
         <g id="arrow_out" transform="scale(0.3 0.3)">
          <a xlink:href="SVGSegmentation_8cxx__incl_org.svg" target="_base">
           <rect id="button" ry="5" rx="5" y="6" x="6" height="38" width="38"
                fill="#f2f5e9" fill-opacity="0.5" stroke="#606060" stroke-width="1.0"/>
           <path id="arrow"
             d="M 11.500037,31.436501 C 11.940474,20.09759 22.043105,11.32322 32.158766,21.979434 L 37.068811,17.246167 C 37.068811,17.246167 37.088388,32 37.088388,32 L 22.160133,31.978069 C 22.160133,31.978069 26.997745,27.140456 26.997745,27.140456 C 18.528582,18.264221 13.291696,25.230495 11.500037,31.436501 z"
             style="fill:#404040;"/>
          </a>
         </g>
        </svg>
</svg>
