<?xml version="1.0" encoding="UTF-8" standalone="no"?>
<!DOCTYPE svg PUBLIC "-//W3C//DTD SVG 1.1//EN"
 "http://www.w3.org/Graphics/SVG/1.1/DTD/svg11.dtd">
<!-- Generated by graphviz version 2.36.0 (20140111.2315)
 -->
<!-- Title: /home/travis/build/AliceO2Group/AliceO2/run/o2sim.cxx Pages: 1 -->
<!--zoomable 354 -->
<svg id="main" version="1.1" xmlns="http://www.w3.org/2000/svg" xmlns:xlink="http://www.w3.org/1999/xlink" xml:space="preserve" onload="init(evt)">
<style type="text/css"><![CDATA[
.edge:hover path { stroke: red; }
.edge:hover polygon { stroke: red; fill: red; }
]]></style>
<script type="text/javascript"><![CDATA[
var edges = document.getElementsByTagName('g');
if (edges && edges.length) {
  for (var i=0;i<edges.length;i++) {
    if (edges[i].id.substr(0,4)=='edge') {
      edges[i].setAttribute('class','edge');
    }
  }
}
]]></script>
        <defs>
                <circle id="rim" cx="0" cy="0" r="7"/>
                <circle id="rim2" cx="0" cy="0" r="3.5"/>
                <g id="zoomPlus">
                        <use xlink:href="#rim" fill="#404040">
                                <set attributeName="fill" to="#808080" begin="zoomplus.mouseover" end="zoomplus.mouseout"/>
                        </use>
                        <path d="M-4,0h8M0,-4v8" fill="none" stroke="white" stroke-width="1.5" pointer-events="none"/>
                </g>
                <g id="zoomMin">
                        <use xlink:href="#rim" fill="#404040">
                                <set attributeName="fill" to="#808080" begin="zoomminus.mouseover" end="zoomminus.mouseout"/>
                        </use>
                        <path d="M-4,0h8" fill="none" stroke="white" stroke-width="1.5" pointer-events="none"/>
                </g>
                <g id="dirArrow">
                        <path fill="none" stroke="white" stroke-width="1.5" d="M0,-3.0v7 M-2.5,-0.5L0,-3.0L2.5,-0.5"/>
                </g>
               <g id="resetDef">
                       <use xlink:href="#rim2" fill="#404040">
                               <set attributeName="fill" to="#808080" begin="reset.mouseover" end="reset.mouseout"/>
                       </use>
               </g>
        </defs>

<script type="text/javascript">
var viewWidth = 1456;
var viewHeight = 354;
var sectionId = 'dynsection-0';
</script>
<script xlink:href="../../svgpan.js"/>
<svg id="graph" class="graph">
<g id="viewport">
<title>/home/travis/build/AliceO2Group/AliceO2/run/o2sim.cxx</title>
<!-- Node1 -->
<g id="node1" class="node"><title>Node1</title>
<polygon fill="#bfbfbf" stroke="black" points="502,-304.5 502,-345.5 620,-345.5 620,-304.5 502,-304.5"/>
<text text-anchor="start" x="510" y="-333.5" font-family="Helvetica,sans-Serif" font-size="10.00">/home/travis/build</text>
<text text-anchor="start" x="510" y="-322.5" font-family="Helvetica,sans-Serif" font-size="10.00">/AliceO2Group/AliceO2</text>
<text text-anchor="middle" x="561" y="-311.5" font-family="Helvetica,sans-Serif" font-size="10.00">/run/o2sim.cxx</text>
</g>
<!-- Node2 -->
<g id="node2" class="node"><title>Node2</title>
<g id="a_node2"><a xlink:href="../../dc/d6b/o2sim_8C.html" target="_top" xlink:title="../macro/o2sim.C">
<polygon fill="none" stroke="black" points="707,-248.5 707,-267.5 799,-267.5 799,-248.5 707,-248.5"/>
<text text-anchor="middle" x="753" y="-255.5" font-family="Helvetica,sans-Serif" font-size="10.00">../macro/o2sim.C</text>
</a>
</g>
</g>
<!-- Node1&#45;&gt;Node2 -->
<g id="edge1" class="edge"><title>Node1&#45;&gt;Node2</title>
<path fill="none" stroke="midnightblue" d="M618.606,-304.498C650.874,-293.574 690.07,-280.304 717.785,-270.922"/>
<polygon fill="midnightblue" stroke="midnightblue" points="719.092,-274.174 727.442,-267.652 716.848,-267.544 719.092,-274.174"/>
</g>
<!-- Node15 -->
<g id="node15" class="node"><title>Node15</title>
<g id="a_node15"><a xlink:href="../../d4/dee/SimConfig_8h.html" target="_top" xlink:title="SimConfig/SimConfig.h">
<polygon fill="none" stroke="black" points="-0.5,-186.5 -0.5,-205.5 118.5,-205.5 118.5,-186.5 -0.5,-186.5"/>
<text text-anchor="middle" x="59" y="-193.5" font-family="Helvetica,sans-Serif" font-size="10.00">SimConfig/SimConfig.h</text>
</a>
</g>
</g>
<!-- Node1&#45;&gt;Node15 -->
<g id="edge39" class="edge"><title>Node1&#45;&gt;Node15</title>
<path fill="none" stroke="midnightblue" d="M501.938,-309.058C399.868,-283.235 192.757,-230.839 102.587,-208.027"/>
<polygon fill="midnightblue" stroke="midnightblue" points="103.248,-204.584 92.6949,-205.524 101.531,-211.37 103.248,-204.584"/>
</g>
<!-- Node3 -->
<g id="node3" class="node"><title>Node3</title>
<polygon fill="none" stroke="#bfbfbf" points="1344.5,-186.5 1344.5,-205.5 1437.5,-205.5 1437.5,-186.5 1344.5,-186.5"/>
<text text-anchor="middle" x="1391" y="-193.5" font-family="Helvetica,sans-Serif" font-size="10.00">build_geometry.C</text>
</g>
<!-- Node2&#45;&gt;Node3 -->
<g id="edge2" class="edge"><title>Node2&#45;&gt;Node3</title>
<path fill="none" stroke="midnightblue" d="M799.003,-256.32C897.829,-254.23 1137.46,-245.795 1335,-212 1340.97,-210.978 1347.24,-209.607 1353.32,-208.107"/>
<polygon fill="midnightblue" stroke="midnightblue" points="1354.52,-211.412 1363.31,-205.501 1352.75,-204.639 1354.52,-211.412"/>
</g>
<!-- Node4 -->
<g id="node4" class="node"><title>Node4</title>
<polygon fill="none" stroke="#bfbfbf" points="136.5,-186.5 136.5,-205.5 237.5,-205.5 237.5,-186.5 136.5,-186.5"/>
<text text-anchor="middle" x="187" y="-193.5" font-family="Helvetica,sans-Serif" font-size="10.00">FairBoxGenerator.h</text>
</g>
<!-- Node2&#45;&gt;Node4 -->
<g id="edge3" class="edge"><title>Node2&#45;&gt;Node4</title>
<path fill="none" stroke="midnightblue" d="M706.993,-255.316C617.736,-251.518 415.068,-240.303 247,-212 240.607,-210.923 233.893,-209.52 227.364,-208.005"/>
<polygon fill="midnightblue" stroke="midnightblue" points="227.873,-204.527 217.329,-205.561 226.217,-211.328 227.873,-204.527"/>
</g>
<!-- Node5 -->
<g id="node5" class="node"><title>Node5</title>
<polygon fill="none" stroke="#bfbfbf" points="256,-186.5 256,-205.5 374,-205.5 374,-186.5 256,-186.5"/>
<text text-anchor="middle" x="315" y="-193.5" font-family="Helvetica,sans-Serif" font-size="10.00">FairPrimaryGenerator.h</text>
</g>
<!-- Node2&#45;&gt;Node5 -->
<g id="edge4" class="edge"><title>Node2&#45;&gt;Node5</title>
<path fill="none" stroke="midnightblue" d="M706.937,-252.834C636.746,-246.161 498.933,-231.79 383,-212 375.708,-210.755 368.018,-209.249 360.535,-207.676"/>
<polygon fill="midnightblue" stroke="midnightblue" points="361.032,-204.203 350.518,-205.51 359.552,-211.045 361.032,-204.203"/>
</g>
<!-- Node6 -->
<g id="node6" class="node"><title>Node6</title>
<g id="a_node6"><a xlink:href="../../de/daf/GeneratorFromFile_8h.html" target="_top" xlink:title="Generators/GeneratorFrom\lFile.h">
<polygon fill="none" stroke="black" points="392.5,-181 392.5,-211 525.5,-211 525.5,-181 392.5,-181"/>
<text text-anchor="start" x="400.5" y="-199" font-family="Helvetica,sans-Serif" font-size="10.00">Generators/GeneratorFrom</text>
<text text-anchor="middle" x="459" y="-188" font-family="Helvetica,sans-Serif" font-size="10.00">File.h</text>
</a>
</g>
</g>
<!-- Node2&#45;&gt;Node6 -->
<g id="edge5" class="edge"><title>Node2&#45;&gt;Node6</title>
<path fill="none" stroke="midnightblue" d="M711.189,-248.467C665.576,-239.158 591.587,-224.059 535.519,-212.616"/>
<polygon fill="midnightblue" stroke="midnightblue" points="536.121,-209.167 525.623,-210.597 534.722,-216.026 536.121,-209.167"/>
</g>
<!-- Node8 -->
<g id="node8" class="node"><title>Node8</title>
<g id="a_node8"><a xlink:href="../../d6/df5/Pythia8Generator_8h.html" target="_top" xlink:title="Generators/Pythia8Generator.h">
<polygon fill="none" stroke="black" points="544,-186.5 544,-205.5 696,-205.5 696,-186.5 544,-186.5"/>
<text text-anchor="middle" x="620" y="-193.5" font-family="Helvetica,sans-Serif" font-size="10.00">Generators/Pythia8Generator.h</text>
</a>
</g>
</g>
<!-- Node2&#45;&gt;Node8 -->
<g id="edge7" class="edge"><title>Node2&#45;&gt;Node8</title>
<path fill="none" stroke="midnightblue" d="M733.944,-248.403C711.525,-238.29 674.095,-221.404 648.287,-209.761"/>
<polygon fill="midnightblue" stroke="midnightblue" points="649.575,-206.502 639.02,-205.581 646.696,-212.883 649.575,-206.502"/>
</g>
<!-- Node2&#45;&gt;Node15 -->
<g id="edge15" class="edge"><title>Node2&#45;&gt;Node15</title>
<path fill="none" stroke="midnightblue" d="M706.808,-255.974C602.776,-253.164 342.383,-243.327 127,-212 119.177,-210.862 110.914,-209.327 102.946,-207.672"/>
<polygon fill="midnightblue" stroke="midnightblue" points="103.58,-204.228 93.0659,-205.531 102.098,-211.069 103.58,-204.228"/>
</g>
<!-- Node16 -->
<g id="node16" class="node"><title>Node16</title>
<polygon fill="none" stroke="#bfbfbf" points="714.5,-186.5 714.5,-205.5 791.5,-205.5 791.5,-186.5 714.5,-186.5"/>
<text text-anchor="middle" x="753" y="-193.5" font-family="Helvetica,sans-Serif" font-size="10.00">TStopwatch.h</text>
</g>
<!-- Node2&#45;&gt;Node16 -->
<g id="edge17" class="edge"><title>Node2&#45;&gt;Node16</title>
<path fill="none" stroke="midnightblue" d="M753,-248.403C753,-239.938 753,-226.728 753,-215.82"/>
<polygon fill="midnightblue" stroke="midnightblue" points="756.5,-215.581 753,-205.581 749.5,-215.581 756.5,-215.581"/>
</g>
<!-- Node17 -->
<g id="node17" class="node"><title>Node17</title>
<polygon fill="none" stroke="#bfbfbf" points="810,-186.5 810,-205.5 862,-205.5 862,-186.5 810,-186.5"/>
<text text-anchor="middle" x="836" y="-193.5" font-family="Helvetica,sans-Serif" font-size="10.00">memory</text>
</g>
<!-- Node2&#45;&gt;Node17 -->
<g id="edge18" class="edge"><title>Node2&#45;&gt;Node17</title>
<path fill="none" stroke="midnightblue" d="M764.892,-248.403C778.205,-238.78 800,-223.024 815.957,-211.489"/>
<polygon fill="midnightblue" stroke="midnightblue" points="818.076,-214.276 824.13,-205.581 813.975,-208.603 818.076,-214.276"/>
</g>
<!-- Node18 -->
<g id="node18" class="node"><title>Node18</title>
<g id="a_node18"><a xlink:href="../../de/d28/GRPObject_8h.html" target="_top" xlink:title="Header of the General Run Parameters object. ">
<polygon fill="none" stroke="black" points="880,-181 880,-211 1004,-211 1004,-181 880,-181"/>
<text text-anchor="start" x="888" y="-199" font-family="Helvetica,sans-Serif" font-size="10.00">DataFormatsParameters</text>
<text text-anchor="middle" x="942" y="-188" font-family="Helvetica,sans-Serif" font-size="10.00">/GRPObject.h</text>
</a>
</g>
</g>
<!-- Node2&#45;&gt;Node18 -->
<g id="edge19" class="edge"><title>Node2&#45;&gt;Node18</title>
<path fill="none" stroke="midnightblue" d="M780.079,-248.403C808.162,-239.488 852.82,-225.311 888.13,-214.101"/>
<polygon fill="midnightblue" stroke="midnightblue" points="889.348,-217.387 897.82,-211.025 887.23,-210.715 889.348,-217.387"/>
</g>
<!-- Node31 -->
<g id="node31" class="node"><title>Node31</title>
<polygon fill="none" stroke="#bfbfbf" points="1022.5,-186.5 1022.5,-205.5 1123.5,-205.5 1123.5,-186.5 1022.5,-186.5"/>
<text text-anchor="middle" x="1073" y="-193.5" font-family="Helvetica,sans-Serif" font-size="10.00">FairParRootFileIo.h</text>
</g>
<!-- Node2&#45;&gt;Node31 -->
<g id="edge36" class="edge"><title>Node2&#45;&gt;Node31</title>
<path fill="none" stroke="midnightblue" d="M799.032,-249.987C850.961,-241.847 937.85,-227.539 1012,-212 1017.88,-210.768 1024.06,-209.371 1030.13,-207.938"/>
<polygon fill="midnightblue" stroke="midnightblue" points="1031.27,-211.262 1040.17,-205.514 1029.63,-204.457 1031.27,-211.262"/>
</g>
<!-- Node32 -->
<g id="node32" class="node"><title>Node32</title>
<polygon fill="none" stroke="#bfbfbf" points="1142,-186.5 1142,-205.5 1234,-205.5 1234,-186.5 1142,-186.5"/>
<text text-anchor="middle" x="1188" y="-193.5" font-family="Helvetica,sans-Serif" font-size="10.00">FairSystemInfo.h</text>
</g>
<!-- Node2&#45;&gt;Node32 -->
<g id="edge37" class="edge"><title>Node2&#45;&gt;Node32</title>
<path fill="none" stroke="midnightblue" d="M799.124,-253.671C870.809,-248.016 1013.09,-234.863 1132,-212 1137.76,-210.892 1143.8,-209.511 1149.7,-208.039"/>
<polygon fill="midnightblue" stroke="midnightblue" points="1150.61,-211.417 1159.41,-205.506 1148.85,-204.644 1150.61,-211.417"/>
</g>
<!-- Node33 -->
<g id="node33" class="node"><title>Node33</title>
<polygon fill="none" stroke="#bfbfbf" points="1252,-186.5 1252,-205.5 1326,-205.5 1326,-186.5 1252,-186.5"/>
<text text-anchor="middle" x="1289" y="-193.5" font-family="Helvetica,sans-Serif" font-size="10.00">TVirtualMC.h</text>
</g>
<!-- Node2&#45;&gt;Node33 -->
<g id="edge38" class="edge"><title>Node2&#45;&gt;Node33</title>
<path fill="none" stroke="midnightblue" d="M799.101,-256.19C886.547,-253.901 1082.15,-245.175 1243,-212 1247.47,-211.078 1252.12,-209.871 1256.66,-208.543"/>
<polygon fill="midnightblue" stroke="midnightblue" points="1257.85,-211.838 1266.34,-205.502 1255.75,-205.159 1257.85,-211.838"/>
</g>
<!-- Node7 -->
<g id="node7" class="node"><title>Node7</title>
<polygon fill="none" stroke="#bfbfbf" points="170,-118.5 170,-137.5 254,-137.5 254,-118.5 170,-118.5"/>
<text text-anchor="middle" x="212" y="-125.5" font-family="Helvetica,sans-Serif" font-size="10.00">FairGenerator.h</text>
</g>
<!-- Node6&#45;&gt;Node7 -->
<g id="edge6" class="edge"><title>Node6&#45;&gt;Node7</title>
<path fill="none" stroke="midnightblue" d="M406.301,-180.94C367.944,-170.704 314.75,-156.503 268,-144 263.381,-142.765 258.549,-141.472 253.741,-140.184"/>
<polygon fill="midnightblue" stroke="midnightblue" points="254.547,-136.777 243.982,-137.571 252.736,-143.539 254.547,-136.777"/>
</g>
<!-- Node8&#45;&gt;Node7 -->
<g id="edge9" class="edge"><title>Node8&#45;&gt;Node7</title>
<path fill="none" stroke="midnightblue" d="M572.739,-186.423C560.165,-184.232 546.581,-181.948 534,-180 416.105,-161.747 384.966,-167.481 268,-144 262.511,-142.898 256.763,-141.567 251.129,-140.158"/>
<polygon fill="midnightblue" stroke="midnightblue" points="251.748,-136.702 241.189,-137.571 249.985,-143.477 251.748,-136.702"/>
</g>
<!-- Node9 -->
<g id="node9" class="node"><title>Node9</title>
<polygon fill="none" stroke="#bfbfbf" points="578.5,-118.5 578.5,-137.5 669.5,-137.5 669.5,-118.5 578.5,-118.5"/>
<text text-anchor="middle" x="624" y="-125.5" font-family="Helvetica,sans-Serif" font-size="10.00">Pythia8/Basics.h</text>
</g>
<!-- Node8&#45;&gt;Node9 -->
<g id="edge8" class="edge"><title>Node8&#45;&gt;Node9</title>
<path fill="none" stroke="midnightblue" d="M620.523,-186.372C621.113,-176.643 622.089,-160.528 622.858,-147.85"/>
<polygon fill="midnightblue" stroke="midnightblue" points="626.353,-148.035 623.464,-137.841 619.366,-147.611 626.353,-148.035"/>
</g>
<!-- Node10 -->
<g id="node10" class="node"><title>Node10</title>
<polygon fill="none" stroke="#bfbfbf" points="687.5,-118.5 687.5,-137.5 776.5,-137.5 776.5,-118.5 687.5,-118.5"/>
<text text-anchor="middle" x="732" y="-125.5" font-family="Helvetica,sans-Serif" font-size="10.00">Pythia8/Pythia.h</text>
</g>
<!-- Node8&#45;&gt;Node10 -->
<g id="edge10" class="edge"><title>Node8&#45;&gt;Node10</title>
<path fill="none" stroke="midnightblue" d="M634.642,-186.372C653.424,-175.304 686.229,-155.972 708.517,-142.838"/>
<polygon fill="midnightblue" stroke="midnightblue" points="710.516,-145.723 717.354,-137.63 706.962,-139.692 710.516,-145.723"/>
</g>
<!-- Node11 -->
<g id="node11" class="node"><title>Node11</title>
<polygon fill="none" stroke="#bfbfbf" points="614,-56.5 614,-75.5 670,-75.5 670,-56.5 614,-56.5"/>
<text text-anchor="middle" x="642" y="-63.5" font-family="Helvetica,sans-Serif" font-size="10.00">Rtypes.h</text>
</g>
<!-- Node8&#45;&gt;Node11 -->
<g id="edge11" class="edge"><title>Node8&#45;&gt;Node11</title>
<path fill="none" stroke="midnightblue" d="M571.814,-186.426C559.494,-184.28 546.263,-182.017 534,-180 427.554,-162.495 229.885,-193.116 301,-112 320.745,-89.4781 518.988,-74.6182 603.817,-69.2439"/>
<polygon fill="midnightblue" stroke="midnightblue" points="604.055,-72.7359 613.818,-68.621 603.62,-65.7495 604.055,-72.7359"/>
</g>
<!-- Node12 -->
<g id="node12" class="node"><title>Node12</title>
<polygon fill="none" stroke="#bfbfbf" points="310,-118.5 310,-137.5 378,-137.5 378,-118.5 310,-118.5"/>
<text text-anchor="middle" x="344" y="-125.5" font-family="Helvetica,sans-Serif" font-size="10.00">TRandom.h</text>
</g>
<!-- Node8&#45;&gt;Node12 -->
<g id="edge12" class="edge"><title>Node8&#45;&gt;Node12</title>
<path fill="none" stroke="midnightblue" d="M573.174,-186.468C525.832,-177.442 450.755,-162.027 387,-144 383.626,-143.046 380.131,-141.973 376.658,-140.849"/>
<polygon fill="midnightblue" stroke="midnightblue" points="377.64,-137.487 367.046,-137.611 375.405,-144.121 377.64,-137.487"/>
</g>
<!-- Node13 -->
<g id="node13" class="node"><title>Node13</title>
<polygon fill="none" stroke="#bfbfbf" points="396.5,-118.5 396.5,-137.5 469.5,-137.5 469.5,-118.5 396.5,-118.5"/>
<text text-anchor="middle" x="433" y="-125.5" font-family="Helvetica,sans-Serif" font-size="10.00">TRandom1.h</text>
</g>
<!-- Node8&#45;&gt;Node13 -->
<g id="edge13" class="edge"><title>Node8&#45;&gt;Node13</title>
<path fill="none" stroke="midnightblue" d="M595.553,-186.372C562.704,-174.778 504.163,-154.116 467.025,-141.009"/>
<polygon fill="midnightblue" stroke="midnightblue" points="467.751,-137.554 457.157,-137.526 465.422,-144.155 467.751,-137.554"/>
</g>
<!-- Node14 -->
<g id="node14" class="node"><title>Node14</title>
<polygon fill="none" stroke="#bfbfbf" points="487.5,-118.5 487.5,-137.5 560.5,-137.5 560.5,-118.5 487.5,-118.5"/>
<text text-anchor="middle" x="524" y="-125.5" font-family="Helvetica,sans-Serif" font-size="10.00">TRandom3.h</text>
</g>
<!-- Node8&#45;&gt;Node14 -->
<g id="edge14" class="edge"><title>Node8&#45;&gt;Node14</title>
<path fill="none" stroke="midnightblue" d="M607.45,-186.372C591.567,-175.452 563.984,-156.489 544.9,-143.369"/>
<polygon fill="midnightblue" stroke="midnightblue" points="546.777,-140.412 536.553,-137.63 542.811,-146.18 546.777,-140.412"/>
</g>
<!-- Node15&#45;&gt;Node11 -->
<g id="edge16" class="edge"><title>Node15&#45;&gt;Node11</title>
<path fill="none" stroke="midnightblue" d="M66.3571,-186.25C81.7946,-168.592 119.582,-128.937 161,-112 241.052,-79.2654 504.293,-70.0681 603.613,-67.7294"/>
<polygon fill="midnightblue" stroke="midnightblue" points="603.881,-71.2243 613.8,-67.5002 603.724,-64.2261 603.881,-71.2243"/>
</g>
<!-- Node18&#45;&gt;Node11 -->
<g id="edge20" class="edge"><title>Node18&#45;&gt;Node11</title>
<path fill="none" stroke="midnightblue" d="M1004.16,-181.695C1073.25,-166.872 1175.31,-144.856 1176,-144 1184.92,-132.924 1185.63,-122.47 1176,-112 1142.57,-75.6351 797.113,-68.6363 680.332,-67.3069"/>
<polygon fill="midnightblue" stroke="midnightblue" points="680.116,-63.8045 670.08,-67.1983 680.042,-70.8041 680.116,-63.8045"/>
</g>
<!-- Node19 -->
<g id="node19" class="node"><title>Node19</title>
<polygon fill="none" stroke="#bfbfbf" points="1402,-56.5 1402,-75.5 1448,-75.5 1448,-56.5 1402,-56.5"/>
<text text-anchor="middle" x="1425" y="-63.5" font-family="Helvetica,sans-Serif" font-size="10.00">cstdint</text>
</g>
<!-- Node18&#45;&gt;Node19 -->
<g id="edge21" class="edge"><title>Node18&#45;&gt;Node19</title>
<path fill="none" stroke="midnightblue" d="M1004.27,-181.432C1007.21,-180.92 1010.14,-180.439 1013,-180 1095.75,-167.328 1319.35,-191.909 1388,-144 1407.34,-130.505 1416.93,-104.07 1421.42,-85.9746"/>
<polygon fill="midnightblue" stroke="midnightblue" points="1424.89,-86.4916 1423.6,-75.9757 1418.05,-85.0013 1424.89,-86.4916"/>
</g>
<!-- Node20 -->
<g id="node20" class="node"><title>Node20</title>
<polygon fill="none" stroke="#bfbfbf" points="794.5,-118.5 794.5,-137.5 835.5,-137.5 835.5,-118.5 794.5,-118.5"/>
<text text-anchor="middle" x="815" y="-125.5" font-family="Helvetica,sans-Serif" font-size="10.00">ctime</text>
</g>
<!-- Node18&#45;&gt;Node20 -->
<g id="edge22" class="edge"><title>Node18&#45;&gt;Node20</title>
<path fill="none" stroke="midnightblue" d="M914.755,-180.841C892.788,-169.425 862.115,-153.485 840.599,-142.303"/>
<polygon fill="midnightblue" stroke="midnightblue" points="842.193,-139.188 831.706,-137.682 838.965,-145.399 842.193,-139.188"/>
</g>
<!-- Node21 -->
<g id="node21" class="node"><title>Node21</title>
<g id="a_node21"><a xlink:href="../../d4/dc6/LHCConstants_8h.html" target="_top" xlink:title="Header to collect LHC related constants. ">
<polygon fill="none" stroke="black" points="853,-118.5 853,-137.5 1031,-137.5 1031,-118.5 853,-118.5"/>
<text text-anchor="middle" x="942" y="-125.5" font-family="Helvetica,sans-Serif" font-size="10.00">CommonConstants/LHCConstants.h</text>
</a>
</g>
</g>
<!-- Node18&#45;&gt;Node21 -->
<g id="edge23" class="edge"><title>Node18&#45;&gt;Node21</title>
<path fill="none" stroke="midnightblue" d="M942,-180.679C942,-171.101 942,-158.394 942,-147.977"/>
<polygon fill="midnightblue" stroke="midnightblue" points="945.5,-147.828 942,-137.828 938.5,-147.828 945.5,-147.828"/>
</g>
<!-- Node22 -->
<g id="node22" class="node"><title>Node22</title>
<g id="a_node22"><a xlink:href="../../da/d58/Units_8h.html" target="_top" xlink:title="Header to collect definitions for different units. ">
<polygon fill="none" stroke="black" points="1049,-118.5 1049,-137.5 1167,-137.5 1167,-118.5 1049,-118.5"/>
<text text-anchor="middle" x="1108" y="-125.5" font-family="Helvetica,sans-Serif" font-size="10.00">CommonTypes/Units.h</text>
</a>
</g>
</g>
<!-- Node18&#45;&gt;Node22 -->
<g id="edge24" class="edge"><title>Node18&#45;&gt;Node22</title>
<path fill="none" stroke="midnightblue" d="M977.611,-180.841C1007.1,-169.118 1048.58,-152.624 1076.78,-141.411"/>
<polygon fill="midnightblue" stroke="midnightblue" points="1078.16,-144.629 1086.16,-137.682 1075.58,-138.124 1078.16,-144.629"/>
</g>
<!-- Node23 -->
<g id="node23" class="node"><title>Node23</title>
<g id="a_node23"><a xlink:href="../../d6/d31/DetID_8h.html" target="_top" xlink:title="DetectorsCommonDataFormats\l/DetID.h">
<polygon fill="none" stroke="black" points="1223,-113 1223,-143 1379,-143 1379,-113 1223,-113"/>
<text text-anchor="start" x="1231" y="-131" font-family="Helvetica,sans-Serif" font-size="10.00">DetectorsCommonDataFormats</text>
<text text-anchor="middle" x="1301" y="-120" font-family="Helvetica,sans-Serif" font-size="10.00">/DetID.h</text>
</a>
</g>
</g>
<!-- Node18&#45;&gt;Node23 -->
<g id="edge25" class="edge"><title>Node18&#45;&gt;Node23</title>
<path fill="none" stroke="midnightblue" d="M1004.31,-181.714C1007.25,-181.126 1010.16,-180.552 1013,-180 1079.89,-167.015 1155.79,-153.63 1212.87,-143.832"/>
<polygon fill="midnightblue" stroke="midnightblue" points="1213.68,-147.244 1222.95,-142.106 1212.5,-140.345 1213.68,-147.244"/>
</g>
<!-- Node23&#45;&gt;Node11 -->
<g id="edge26" class="edge"><title>Node23&#45;&gt;Node11</title>
<path fill="none" stroke="midnightblue" d="M1222.77,-113.794C1218.11,-113.149 1213.5,-112.544 1209,-112 1010.74,-88.0111 771.86,-73.84 680.279,-68.9461"/>
<polygon fill="midnightblue" stroke="midnightblue" points="680.276,-65.4412 670.105,-68.4084 679.907,-72.4314 680.276,-65.4412"/>
</g>
<!-- Node23&#45;&gt;Node19 -->
<g id="edge30" class="edge"><title>Node23&#45;&gt;Node19</title>
<path fill="none" stroke="midnightblue" d="M1330.07,-112.933C1350.62,-102.991 1377.96,-89.7601 1398.02,-80.0526"/>
<polygon fill="midnightblue" stroke="midnightblue" points="1399.75,-83.1063 1407.23,-75.6 1396.7,-76.8051 1399.75,-83.1063"/>
</g>
<!-- Node24 -->
<g id="node24" class="node"><title>Node24</title>
<polygon fill="none" stroke="#bfbfbf" points="1382,-0.5 1382,-19.5 1420,-19.5 1420,-0.5 1382,-0.5"/>
<text text-anchor="middle" x="1401" y="-7.5" font-family="Helvetica,sans-Serif" font-size="10.00">array</text>
</g>
<!-- Node23&#45;&gt;Node24 -->
<g id="edge27" class="edge"><title>Node23&#45;&gt;Node24</title>
<path fill="none" stroke="midnightblue" d="M1317.89,-112.617C1328.98,-102.809 1343.5,-89.2434 1355,-76 1368.13,-60.8787 1381.13,-42.0604 1389.94,-28.5693"/>
<polygon fill="midnightblue" stroke="midnightblue" points="1393.1,-30.1222 1395.56,-19.8163 1387.21,-26.3404 1393.1,-30.1222"/>
</g>
<!-- Node25 -->
<g id="node25" class="node"><title>Node25</title>
<polygon fill="none" stroke="#bfbfbf" points="1049.5,-56.5 1049.5,-75.5 1090.5,-75.5 1090.5,-56.5 1049.5,-56.5"/>
<text text-anchor="middle" x="1070" y="-63.5" font-family="Helvetica,sans-Serif" font-size="10.00">bitset</text>
</g>
<!-- Node23&#45;&gt;Node25 -->
<g id="edge28" class="edge"><title>Node23&#45;&gt;Node25</title>
<path fill="none" stroke="midnightblue" d="M1242,-112.987C1203.97,-103.751 1153.24,-91.0562 1100.44,-76.306"/>
<polygon fill="midnightblue" stroke="midnightblue" points="1101.13,-72.8651 1090.55,-73.5283 1099.23,-79.6039 1101.13,-72.8651"/>
</g>
<!-- Node26 -->
<g id="node26" class="node"><title>Node26</title>
<polygon fill="none" stroke="#bfbfbf" points="1108.5,-56.5 1108.5,-75.5 1157.5,-75.5 1157.5,-56.5 1108.5,-56.5"/>
<text text-anchor="middle" x="1133" y="-63.5" font-family="Helvetica,sans-Serif" font-size="10.00">cassert</text>
</g>
<!-- Node23&#45;&gt;Node26 -->
<g id="edge29" class="edge"><title>Node23&#45;&gt;Node26</title>
<path fill="none" stroke="midnightblue" d="M1261.61,-112.933C1232.76,-102.629 1194.02,-88.7935 1166.62,-79.0079"/>
<polygon fill="midnightblue" stroke="midnightblue" points="1167.67,-75.6674 1157.08,-75.6 1165.32,-82.2596 1167.67,-75.6674"/>
</g>
<!-- Node27 -->
<g id="node27" class="node"><title>Node27</title>
<polygon fill="none" stroke="#bfbfbf" points="1176,-56.5 1176,-75.5 1238,-75.5 1238,-56.5 1176,-56.5"/>
<text text-anchor="middle" x="1207" y="-63.5" font-family="Helvetica,sans-Serif" font-size="10.00">type_traits</text>
</g>
<!-- Node23&#45;&gt;Node27 -->
<g id="edge31" class="edge"><title>Node23&#45;&gt;Node27</title>
<path fill="none" stroke="midnightblue" d="M1278.72,-112.781C1263.71,-103.196 1243.98,-90.6062 1229.02,-81.0555"/>
<polygon fill="midnightblue" stroke="midnightblue" points="1230.72,-77.9859 1220.4,-75.5557 1226.95,-83.8863 1230.72,-77.9859"/>
</g>
<!-- Node28 -->
<g id="node28" class="node"><title>Node28</title>
<g id="a_node28"><a xlink:href="../../d9/d52/Common_2MathUtils_2include_2MathUtils_2Utils_8h.html" target="_top" xlink:title="MathUtils/Utils.h">
<polygon fill="none" stroke="black" points="1256,-56.5 1256,-75.5 1346,-75.5 1346,-56.5 1256,-56.5"/>
<text text-anchor="middle" x="1301" y="-63.5" font-family="Helvetica,sans-Serif" font-size="10.00">MathUtils/Utils.h</text>
</a>
</g>
</g>
<!-- Node23&#45;&gt;Node28 -->
<g id="edge32" class="edge"><title>Node23&#45;&gt;Node28</title>
<path fill="none" stroke="midnightblue" d="M1301,-112.781C1301,-104.781 1301,-94.6887 1301,-86.0168"/>
<polygon fill="midnightblue" stroke="midnightblue" points="1304.5,-85.7305 1301,-75.7305 1297.5,-85.7306 1304.5,-85.7305"/>
</g>
<!-- Node28&#45;&gt;Node24 -->
<g id="edge33" class="edge"><title>Node28&#45;&gt;Node24</title>
<path fill="none" stroke="midnightblue" d="M1317.07,-56.324C1332.96,-47.7428 1357.51,-34.486 1375.96,-24.5224"/>
<polygon fill="midnightblue" stroke="midnightblue" points="1377.84,-27.4857 1384.97,-19.6545 1374.51,-21.3264 1377.84,-27.4857"/>
</g>
<!-- Node29 -->
<g id="node29" class="node"><title>Node29</title>
<polygon fill="none" stroke="#bfbfbf" points="1122,-0.5 1122,-19.5 1166,-19.5 1166,-0.5 1122,-0.5"/>
<text text-anchor="middle" x="1144" y="-7.5" font-family="Helvetica,sans-Serif" font-size="10.00">cmath</text>
</g>
<!-- Node28&#45;&gt;Node29 -->
<g id="edge34" class="edge"><title>Node28&#45;&gt;Node29</title>
<path fill="none" stroke="midnightblue" d="M1276.12,-56.4435C1248.93,-47.0919 1205.31,-32.0859 1175.69,-21.8984"/>
<polygon fill="midnightblue" stroke="midnightblue" points="1176.82,-18.5862 1166.22,-18.6433 1174.54,-25.2056 1176.82,-18.5862"/>
</g>
<!-- Node30 -->
<g id="node30" class="node"><title>Node30</title>
<g id="a_node30"><a xlink:href="../../d6/d84/MathConstants_8h.html" target="_top" xlink:title="useful math constants ">
<polygon fill="none" stroke="black" points="1184.5,-0.5 1184.5,-19.5 1363.5,-19.5 1363.5,-0.5 1184.5,-0.5"/>
<text text-anchor="middle" x="1274" y="-7.5" font-family="Helvetica,sans-Serif" font-size="10.00">CommonConstants/MathConstants.h</text>
</a>
</g>
</g>
<!-- Node28&#45;&gt;Node30 -->
<g id="edge35" class="edge"><title>Node28&#45;&gt;Node30</title>
<path fill="none" stroke="midnightblue" d="M1296.54,-56.083C1292.85,-48.6913 1287.48,-37.9533 1282.91,-28.8111"/>
<polygon fill="midnightblue" stroke="midnightblue" points="1285.98,-27.1301 1278.38,-19.7511 1279.72,-30.2606 1285.98,-27.1301"/>
</g>
</g>
</svg>
        <g id="navigator" transform="translate(0 0)" fill="#404254">
                <rect fill="#f2f5e9" fill-opacity="0.5" stroke="#606060" stroke-width=".5" x="0" y="0" width="60" height="60"/>
                <use id="zoomplus" xlink:href="#zoomPlus" x="17" y="9" onmousedown="handleZoom(evt,'in')"/>
                <use id="zoomminus" xlink:href="#zoomMin" x="42" y="9" onmousedown="handleZoom(evt,'out')"/>
                <use id="reset" xlink:href="#resetDef" x="30" y="36" onmousedown="handleReset()"/>
                <g id="arrowUp" xlink:href="#dirArrow" transform="translate(30 24)" onmousedown="handlePan(0,-1)">
                  <use xlink:href="#rim" fill="#404040">
                        <set attributeName="fill" to="#808080" begin="arrowUp.mouseover" end="arrowUp.mouseout"/>
                  </use>
                  <path fill="none" stroke="white" stroke-width="1.5" d="M0,-3.0v7 M-2.5,-0.5L0,-3.0L2.5,-0.5"/>
                </g>
                <g id="arrowRight" xlink:href="#dirArrow" transform="rotate(90) translate(36 -43)" onmousedown="handlePan(1,0)">
                  <use xlink:href="#rim" fill="#404040">
                        <set attributeName="fill" to="#808080" begin="arrowRight.mouseover" end="arrowRight.mouseout"/>
                  </use>
                  <path fill="none" stroke="white" stroke-width="1.5" d="M0,-3.0v7 M-2.5,-0.5L0,-3.0L2.5,-0.5"/>
                </g>
                <g id="arrowDown" xlink:href="#dirArrow" transform="rotate(180) translate(-30 -48)" onmousedown="handlePan(0,1)">
                  <use xlink:href="#rim" fill="#404040">
                        <set attributeName="fill" to="#808080" begin="arrowDown.mouseover" end="arrowDown.mouseout"/>
                  </use>
                  <path fill="none" stroke="white" stroke-width="1.5" d="M0,-3.0v7 M-2.5,-0.5L0,-3.0L2.5,-0.5"/>
                </g>
                <g id="arrowLeft" xlink:href="#dirArrow" transform="rotate(270) translate(-36 17)" onmousedown="handlePan(-1,0)">
                  <use xlink:href="#rim" fill="#404040">
                        <set attributeName="fill" to="#808080" begin="arrowLeft.mouseover" end="arrowLeft.mouseout"/>
                  </use>
                  <path fill="none" stroke="white" stroke-width="1.5" d="M0,-3.0v7 M-2.5,-0.5L0,-3.0L2.5,-0.5"/>
                </g>
        </g>
        <svg viewBox="0 0 15 15" width="100%" height="30px" preserveAspectRatio="xMaxYMin meet">
         <g id="arrow_out" transform="scale(0.3 0.3)">
          <a xlink:href="o2sim_8cxx__incl_org.svg" target="_base">
           <rect id="button" ry="5" rx="5" y="6" x="6" height="38" width="38"
                fill="#f2f5e9" fill-opacity="0.5" stroke="#606060" stroke-width="1.0"/>
           <path id="arrow"
             d="M 11.500037,31.436501 C 11.940474,20.09759 22.043105,11.32322 32.158766,21.979434 L 37.068811,17.246167 C 37.068811,17.246167 37.088388,32 37.088388,32 L 22.160133,31.978069 C 22.160133,31.978069 26.997745,27.140456 26.997745,27.140456 C 18.528582,18.264221 13.291696,25.230495 11.500037,31.436501 z"
             style="fill:#404040;"/>
          </a>
         </g>
        </svg>
</svg>
