<?xml version="1.0" encoding="UTF-8" standalone="no"?>
<!DOCTYPE svg PUBLIC "-//W3C//DTD SVG 1.1//EN"
 "http://www.w3.org/Graphics/SVG/1.1/DTD/svg11.dtd">
<!-- Generated by graphviz version 2.36.0 (20140111.2315)
 -->
<!-- Title: o2::ITSMFT::TopologyInfo Pages: 1 -->
<svg width="151pt" height="226pt"
 viewBox="0.00 0.00 151.00 226.00" xmlns="http://www.w3.org/2000/svg" xmlns:xlink="http://www.w3.org/1999/xlink">
<g id="graph0" class="graph" transform="scale(1 1) rotate(0) translate(4 222)">
<title>o2::ITSMFT::TopologyInfo</title>
<!-- Node1 -->
<g id="node1" class="node"><title>Node1</title>
<polygon fill="#bfbfbf" stroke="black" points="-0.5,-0.5 -0.5,-57.5 130.5,-57.5 130.5,-0.5 -0.5,-0.5"/>
<text text-anchor="middle" x="65" y="-45.5" font-family="Helvetica,sans-Serif" font-size="10.00">o2::ITSMFT::TopologyInfo</text>
<polyline fill="none" stroke="black" points="-0.5,-38.5 130.5,-38.5 "/>
<text text-anchor="middle" x="65" y="-26.5" font-family="Helvetica,sans-Serif" font-size="10.00"> </text>
<polyline fill="none" stroke="black" points="-0.5,-19.5 130.5,-19.5 "/>
<text text-anchor="middle" x="65" y="-7.5" font-family="Helvetica,sans-Serif" font-size="10.00"> </text>
</g>
<!-- Node2 -->
<g id="node2" class="node"><title>Node2</title>
<g id="a_node2"><a xlink:href="../../d4/dc3/classfloat.html" target="_top" xlink:title="{float\n||}">
<polygon fill="none" stroke="black" points="9.5,-160.5 9.5,-217.5 44.5,-217.5 44.5,-160.5 9.5,-160.5"/>
<text text-anchor="middle" x="27" y="-205.5" font-family="Helvetica,sans-Serif" font-size="10.00">float</text>
<polyline fill="none" stroke="black" points="9.5,-198.5 44.5,-198.5 "/>
<text text-anchor="middle" x="27" y="-186.5" font-family="Helvetica,sans-Serif" font-size="10.00"> </text>
<polyline fill="none" stroke="black" points="9.5,-179.5 44.5,-179.5 "/>
<text text-anchor="middle" x="27" y="-167.5" font-family="Helvetica,sans-Serif" font-size="10.00"> </text>
</a>
</g>
</g>
<!-- Node2&#45;&gt;Node1 -->
<g id="edge1" class="edge"><title>Node2&#45;&gt;Node1</title>
<path fill="none" stroke="#404040" d="M22.3247,-160.423C19.5296,-137.198 18.1861,-103.467 28,-76 28.9747,-73.272 30.1852,-70.5856 31.5676,-67.9649"/>
<polygon fill="none" stroke="#404040" points="31.6781,-67.7887 31.4777,-60.5804 38.0545,-57.623 38.2549,-64.8313 31.6781,-67.7887"/>
<text text-anchor="middle" x="54.5" y="-134" font-family="Helvetica,sans-Serif" font-size="10.00"> +mZmean</text>
<text text-anchor="middle" x="54.5" y="-123" font-family="Helvetica,sans-Serif" font-size="10.00">+mXsigma2</text>
<text text-anchor="middle" x="54.5" y="-112" font-family="Helvetica,sans-Serif" font-size="10.00">+mZsigma2</text>
<text text-anchor="middle" x="54.5" y="-101" font-family="Helvetica,sans-Serif" font-size="10.00">+mCOGx</text>
<text text-anchor="middle" x="54.5" y="-90" font-family="Helvetica,sans-Serif" font-size="10.00">+mCOGz</text>
<text text-anchor="middle" x="54.5" y="-79" font-family="Helvetica,sans-Serif" font-size="10.00">+mXmean</text>
</g>
<!-- Node3 -->
<g id="node3" class="node"><title>Node3</title>
<polygon fill="none" stroke="#bfbfbf" points="88.5,-160.5 88.5,-217.5 117.5,-217.5 117.5,-160.5 88.5,-160.5"/>
<text text-anchor="middle" x="103" y="-205.5" font-family="Helvetica,sans-Serif" font-size="10.00">int</text>
<polyline fill="none" stroke="#bfbfbf" points="88.5,-198.5 117.5,-198.5 "/>
<text text-anchor="middle" x="103" y="-186.5" font-family="Helvetica,sans-Serif" font-size="10.00"> </text>
<polyline fill="none" stroke="#bfbfbf" points="88.5,-179.5 117.5,-179.5 "/>
<text text-anchor="middle" x="103" y="-167.5" font-family="Helvetica,sans-Serif" font-size="10.00"> </text>
</g>
<!-- Node3&#45;&gt;Node1 -->
<g id="edge2" class="edge"><title>Node3&#45;&gt;Node1</title>
<path fill="none" stroke="#404040" d="M98.6486,-160.133C94.8185,-137.319 88.6627,-104.309 81,-76 80.3869,-73.7351 79.7188,-71.4208 79.0147,-69.0942"/>
<polygon fill="none" stroke="#404040" points="78.9692,-68.9532 73.3196,-64.4719 75.2833,-57.5333 80.9329,-62.0146 78.9692,-68.9532"/>
<text text-anchor="middle" x="119" y="-117.5" font-family="Helvetica,sans-Serif" font-size="10.00"> +mSizeX</text>
<text text-anchor="middle" x="119" y="-106.5" font-family="Helvetica,sans-Serif" font-size="10.00">+mSizeZ</text>
<text text-anchor="middle" x="119" y="-95.5" font-family="Helvetica,sans-Serif" font-size="10.00">+mNpixels</text>
</g>
</g>
</svg>
