<?xml version="1.0" encoding="UTF-8" standalone="no"?>
<!DOCTYPE svg PUBLIC "-//W3C//DTD SVG 1.1//EN"
 "http://www.w3.org/Graphics/SVG/1.1/DTD/svg11.dtd">
<!-- Generated by graphviz version 2.36.0 (20140111.2315)
 -->
<!-- Title: /home/travis/build/AliceO2Group/AliceO2/Detectors/MUON/MCH/PreClustering/src/PreClusterFinderDevice.h Pages: 1 -->
<!--zoomable 298 -->
<svg id="main" version="1.1" xmlns="http://www.w3.org/2000/svg" xmlns:xlink="http://www.w3.org/1999/xlink" xml:space="preserve" onload="init(evt)">
<style type="text/css"><![CDATA[
.edge:hover path { stroke: red; }
.edge:hover polygon { stroke: red; fill: red; }
]]></style>
<script type="text/javascript"><![CDATA[
var edges = document.getElementsByTagName('g');
if (edges && edges.length) {
  for (var i=0;i<edges.length;i++) {
    if (edges[i].id.substr(0,4)=='edge') {
      edges[i].setAttribute('class','edge');
    }
  }
}
]]></script>
        <defs>
                <circle id="rim" cx="0" cy="0" r="7"/>
                <circle id="rim2" cx="0" cy="0" r="3.5"/>
                <g id="zoomPlus">
                        <use xlink:href="#rim" fill="#404040">
                                <set attributeName="fill" to="#808080" begin="zoomplus.mouseover" end="zoomplus.mouseout"/>
                        </use>
                        <path d="M-4,0h8M0,-4v8" fill="none" stroke="white" stroke-width="1.5" pointer-events="none"/>
                </g>
                <g id="zoomMin">
                        <use xlink:href="#rim" fill="#404040">
                                <set attributeName="fill" to="#808080" begin="zoomminus.mouseover" end="zoomminus.mouseout"/>
                        </use>
                        <path d="M-4,0h8" fill="none" stroke="white" stroke-width="1.5" pointer-events="none"/>
                </g>
                <g id="dirArrow">
                        <path fill="none" stroke="white" stroke-width="1.5" d="M0,-3.0v7 M-2.5,-0.5L0,-3.0L2.5,-0.5"/>
                </g>
               <g id="resetDef">
                       <use xlink:href="#rim2" fill="#404040">
                               <set attributeName="fill" to="#808080" begin="reset.mouseover" end="reset.mouseout"/>
                       </use>
               </g>
        </defs>

<script type="text/javascript">
var viewWidth = 1115;
var viewHeight = 298;
var sectionId = 'dynsection-0';
</script>
<script xlink:href="../../svgpan.js"/>
<svg id="graph" class="graph">
<g id="viewport">
<title>/home/travis/build/AliceO2Group/AliceO2/Detectors/MUON/MCH/PreClustering/src/PreClusterFinderDevice.h</title>
<!-- Node1 -->
<g id="node1" class="node"><title>Node1</title>
<polygon fill="#bfbfbf" stroke="black" points="172.5,-237 172.5,-289 357.5,-289 357.5,-237 172.5,-237"/>
<text text-anchor="start" x="180.5" y="-277" font-family="Helvetica,sans-Serif" font-size="10.00">/home/travis/build</text>
<text text-anchor="start" x="180.5" y="-266" font-family="Helvetica,sans-Serif" font-size="10.00">/AliceO2Group/AliceO2</text>
<text text-anchor="start" x="180.5" y="-255" font-family="Helvetica,sans-Serif" font-size="10.00">/Detectors/MUON/MCH/PreClustering</text>
<text text-anchor="middle" x="265" y="-244" font-family="Helvetica,sans-Serif" font-size="10.00">/src/PreClusterFinderDevice.h</text>
</g>
<!-- Node2 -->
<g id="node2" class="node"><title>Node2</title>
<polygon fill="none" stroke="#bfbfbf" points="19,-180.5 19,-199.5 107,-199.5 107,-180.5 19,-180.5"/>
<text text-anchor="middle" x="63" y="-187.5" font-family="Helvetica,sans-Serif" font-size="10.00">FairMQDevice.h</text>
</g>
<!-- Node1&#45;&gt;Node2 -->
<g id="edge1" class="edge"><title>Node1&#45;&gt;Node2</title>
<path fill="none" stroke="midnightblue" d="M193.782,-236.968C160.947,-225.427 123.501,-212.265 97.1161,-202.991"/>
<polygon fill="midnightblue" stroke="midnightblue" points="98.1731,-199.653 87.5782,-199.639 95.8518,-206.257 98.1731,-199.653"/>
</g>
<!-- Node3 -->
<g id="node3" class="node"><title>Node3</title>
<polygon fill="none" stroke="#bfbfbf" points="188,-0.5 188,-19.5 234,-19.5 234,-0.5 188,-0.5"/>
<text text-anchor="middle" x="211" y="-7.5" font-family="Helvetica,sans-Serif" font-size="10.00">cstdint</text>
</g>
<!-- Node1&#45;&gt;Node3 -->
<g id="edge2" class="edge"><title>Node1&#45;&gt;Node3</title>
<path fill="none" stroke="midnightblue" d="M258.804,-236.722C250.609,-202.932 235.931,-141.131 225,-88 220.902,-68.081 216.81,-45.1332 214.118,-29.5069"/>
<polygon fill="midnightblue" stroke="midnightblue" points="217.555,-28.8407 212.425,-19.5706 210.655,-30.0164 217.555,-28.8407"/>
</g>
<!-- Node4 -->
<g id="node4" class="node"><title>Node4</title>
<g id="a_node4"><a xlink:href="../../db/da1/PreClusterBlock_8h.html" target="_top" xlink:title="MCHBase/PreClusterBlock.h">
<polygon fill="none" stroke="black" points="-0.5,-124.5 -0.5,-143.5 144.5,-143.5 144.5,-124.5 -0.5,-124.5"/>
<text text-anchor="middle" x="72" y="-131.5" font-family="Helvetica,sans-Serif" font-size="10.00">MCHBase/PreClusterBlock.h</text>
</a>
</g>
</g>
<!-- Node1&#45;&gt;Node4 -->
<g id="edge3" class="edge"><title>Node1&#45;&gt;Node4</title>
<path fill="none" stroke="midnightblue" d="M219.706,-237C200.663,-226.108 178.457,-212.9 159,-200 134.779,-183.942 108.186,-163.658 90.8582,-150.057"/>
<polygon fill="midnightblue" stroke="midnightblue" points="92.7186,-147.067 82.7027,-143.612 88.3784,-152.559 92.7186,-147.067"/>
</g>
<!-- Node8 -->
<g id="node8" class="node"><title>Node8</title>
<g id="a_node8"><a xlink:href="../../db/dad/PreClusterFinder_8h.html" target="_top" xlink:title="PreClusterFinder.h">
<polygon fill="none" stroke="black" points="308,-124.5 308,-143.5 406,-143.5 406,-124.5 308,-124.5"/>
<text text-anchor="middle" x="357" y="-131.5" font-family="Helvetica,sans-Serif" font-size="10.00">PreClusterFinder.h</text>
</a>
</g>
</g>
<!-- Node1&#45;&gt;Node8 -->
<g id="edge10" class="edge"><title>Node1&#45;&gt;Node8</title>
<path fill="none" stroke="midnightblue" d="M283.176,-236.909C301.413,-211.734 328.995,-173.659 344.773,-151.879"/>
<polygon fill="midnightblue" stroke="midnightblue" points="347.718,-153.78 350.75,-143.628 342.049,-149.673 347.718,-153.78"/>
</g>
<!-- Node14 -->
<g id="node14" class="node"><title>Node14</title>
<g id="a_node14"><a xlink:href="../../d6/d34/AliHLTDataTypes_8h.html" target="_top" xlink:title="Data type declaration for the HLT module. ">
<polygon fill="none" stroke="black" points="963,-57 963,-87 1107,-87 1107,-57 963,-57"/>
<text text-anchor="start" x="971" y="-75" font-family="Helvetica,sans-Serif" font-size="10.00">aliceHLTwrapper/AliHLTData</text>
<text text-anchor="middle" x="1035" y="-64" font-family="Helvetica,sans-Serif" font-size="10.00">Types.h</text>
</a>
</g>
</g>
<!-- Node1&#45;&gt;Node14 -->
<g id="edge21" class="edge"><title>Node1&#45;&gt;Node14</title>
<path fill="none" stroke="midnightblue" d="M357.635,-257.429C530.663,-247.234 894.461,-217.48 994,-144 1009.88,-132.28 1020.58,-112.432 1027.06,-96.6967"/>
<polygon fill="midnightblue" stroke="midnightblue" points="1030.43,-97.6676 1030.72,-87.0766 1023.89,-95.1791 1030.43,-97.6676"/>
</g>
<!-- Node15 -->
<g id="node15" class="node"><title>Node15</title>
<g id="a_node15"><a xlink:href="../../d2/dda/MessageFormat_8h.html" target="_top" xlink:title="aliceHLTwrapper/MessageFormat.h">
<polygon fill="none" stroke="black" points="568,-180.5 568,-199.5 740,-199.5 740,-180.5 568,-180.5"/>
<text text-anchor="middle" x="654" y="-187.5" font-family="Helvetica,sans-Serif" font-size="10.00">aliceHLTwrapper/MessageFormat.h</text>
</a>
</g>
</g>
<!-- Node1&#45;&gt;Node15 -->
<g id="edge22" class="edge"><title>Node1&#45;&gt;Node15</title>
<path fill="none" stroke="midnightblue" d="M357.681,-245.084C432.186,-231.485 534.451,-212.82 597.284,-201.352"/>
<polygon fill="midnightblue" stroke="midnightblue" points="598.19,-204.744 607.399,-199.506 596.933,-197.858 598.19,-204.744"/>
</g>
<!-- Node4&#45;&gt;Node3 -->
<g id="edge4" class="edge"><title>Node4&#45;&gt;Node3</title>
<path fill="none" stroke="midnightblue" d="M81.6246,-124.419C97.634,-110.16 130.768,-80.7077 159,-56 170.371,-46.0488 183.208,-34.9383 193.283,-26.247"/>
<polygon fill="midnightblue" stroke="midnightblue" points="195.712,-28.7735 201.003,-19.5939 191.143,-23.4708 195.712,-28.7735"/>
</g>
<!-- Node5 -->
<g id="node5" class="node"><title>Node5</title>
<polygon fill="none" stroke="#bfbfbf" points="15,-0.5 15,-19.5 67,-19.5 67,-0.5 15,-0.5"/>
<text text-anchor="middle" x="41" y="-7.5" font-family="Helvetica,sans-Serif" font-size="10.00">ostream</text>
</g>
<!-- Node4&#45;&gt;Node5 -->
<g id="edge5" class="edge"><title>Node4&#45;&gt;Node5</title>
<path fill="none" stroke="midnightblue" d="M59.2191,-124.369C48.6056,-116.36 34.2694,-103.379 28,-88 20.1915,-68.845 26.3088,-45.1707 32.5259,-29.1685"/>
<polygon fill="midnightblue" stroke="midnightblue" points="35.7813,-30.457 36.4805,-19.8853 29.3413,-27.7136 35.7813,-30.457"/>
</g>
<!-- Node6 -->
<g id="node6" class="node"><title>Node6</title>
<polygon fill="none" stroke="#bfbfbf" points="533,-0.5 533,-19.5 577,-19.5 577,-0.5 533,-0.5"/>
<text text-anchor="middle" x="555" y="-7.5" font-family="Helvetica,sans-Serif" font-size="10.00">vector</text>
</g>
<!-- Node4&#45;&gt;Node6 -->
<g id="edge6" class="edge"><title>Node4&#45;&gt;Node6</title>
<path fill="none" stroke="midnightblue" d="M94.2726,-124.474C135.508,-108.959 226.77,-75.8824 306,-56 395.723,-33.4843 420.121,-37.2705 511,-20 514.744,-19.2885 518.662,-18.5207 522.551,-17.7439"/>
<polygon fill="midnightblue" stroke="midnightblue" points="523.534,-21.1159 532.64,-15.6995 522.144,-14.2554 523.534,-21.1159"/>
</g>
<!-- Node7 -->
<g id="node7" class="node"><title>Node7</title>
<g id="a_node7"><a xlink:href="../../db/df0/DigitBlock_8h.html" target="_top" xlink:title="DigitBlock.h">
<polygon fill="none" stroke="black" points="37,-62.5 37,-81.5 107,-81.5 107,-62.5 37,-62.5"/>
<text text-anchor="middle" x="72" y="-69.5" font-family="Helvetica,sans-Serif" font-size="10.00">DigitBlock.h</text>
</a>
</g>
</g>
<!-- Node4&#45;&gt;Node7 -->
<g id="edge7" class="edge"><title>Node4&#45;&gt;Node7</title>
<path fill="none" stroke="midnightblue" d="M72,-124.403C72,-115.938 72,-102.728 72,-91.8199"/>
<polygon fill="midnightblue" stroke="midnightblue" points="75.5001,-91.5806 72,-81.5806 68.5001,-91.5806 75.5001,-91.5806"/>
</g>
<!-- Node7&#45;&gt;Node3 -->
<g id="edge8" class="edge"><title>Node7&#45;&gt;Node3</title>
<path fill="none" stroke="midnightblue" d="M91.9153,-62.4035C115.449,-52.245 154.81,-35.2547 181.793,-23.6074"/>
<polygon fill="midnightblue" stroke="midnightblue" points="183.328,-26.7572 191.122,-19.5806 180.553,-20.3303 183.328,-26.7572"/>
</g>
<!-- Node7&#45;&gt;Node5 -->
<g id="edge9" class="edge"><title>Node7&#45;&gt;Node5</title>
<path fill="none" stroke="midnightblue" d="M67.5585,-62.4035C63.0466,-53.6707 55.9261,-39.8893 50.1934,-28.7936"/>
<polygon fill="midnightblue" stroke="midnightblue" points="53.1331,-26.8583 45.4333,-19.5806 46.9141,-30.0714 53.1331,-26.8583"/>
</g>
<!-- Node8&#45;&gt;Node3 -->
<g id="edge12" class="edge"><title>Node8&#45;&gt;Node3</title>
<path fill="none" stroke="midnightblue" d="M346.5,-124.226C321.877,-103.651 260.169,-52.0865 229.252,-26.2517"/>
<polygon fill="midnightblue" stroke="midnightblue" points="231.323,-23.4209 221.405,-19.6944 226.834,-28.7924 231.323,-23.4209"/>
</g>
<!-- Node8&#45;&gt;Node6 -->
<g id="edge14" class="edge"><title>Node8&#45;&gt;Node6</title>
<path fill="none" stroke="midnightblue" d="M406.006,-126.426C452.513,-119.203 517.913,-106.166 536,-88 551.301,-72.6321 554.966,-47.0284 555.522,-29.6007"/>
<polygon fill="midnightblue" stroke="midnightblue" points="559.022,-29.521 555.529,-19.5186 552.022,-29.5161 559.022,-29.521"/>
</g>
<!-- Node8&#45;&gt;Node7 -->
<g id="edge15" class="edge"><title>Node8&#45;&gt;Node7</title>
<path fill="none" stroke="midnightblue" d="M316.469,-124.467C263.663,-113.35 171.626,-93.9739 116.799,-82.4315"/>
<polygon fill="midnightblue" stroke="midnightblue" points="117.52,-79.0064 107.013,-80.3711 116.077,-85.8563 117.52,-79.0064"/>
</g>
<!-- Node9 -->
<g id="node9" class="node"><title>Node9</title>
<polygon fill="none" stroke="#bfbfbf" points="745.5,-0.5 745.5,-19.5 794.5,-19.5 794.5,-0.5 745.5,-0.5"/>
<text text-anchor="middle" x="770" y="-7.5" font-family="Helvetica,sans-Serif" font-size="10.00">cassert</text>
</g>
<!-- Node8&#45;&gt;Node9 -->
<g id="edge11" class="edge"><title>Node8&#45;&gt;Node9</title>
<path fill="none" stroke="midnightblue" d="M403.568,-124.424C444.795,-116.406 506.411,-103.382 559,-88 624.694,-68.7851 699.497,-39.7204 740.034,-23.3464"/>
<polygon fill="midnightblue" stroke="midnightblue" points="741.389,-26.5734 749.337,-19.5676 738.755,-20.0879 741.389,-26.5734"/>
</g>
<!-- Node10 -->
<g id="node10" class="node"><title>Node10</title>
<polygon fill="none" stroke="#bfbfbf" points="315.5,-62.5 315.5,-81.5 398.5,-81.5 398.5,-62.5 315.5,-62.5"/>
<text text-anchor="middle" x="357" y="-69.5" font-family="Helvetica,sans-Serif" font-size="10.00">unordered_map</text>
</g>
<!-- Node8&#45;&gt;Node10 -->
<g id="edge13" class="edge"><title>Node8&#45;&gt;Node10</title>
<path fill="none" stroke="midnightblue" d="M357,-124.403C357,-115.938 357,-102.728 357,-91.8199"/>
<polygon fill="midnightblue" stroke="midnightblue" points="360.5,-91.5806 357,-81.5806 353.5,-91.5806 360.5,-91.5806"/>
</g>
<!-- Node11 -->
<g id="node11" class="node"><title>Node11</title>
<g id="a_node11"><a xlink:href="../../d9/d9d/MCH_2Base_2include_2MCHBase_2Mapping_8h.html" target="_top" xlink:title="MCHBase/Mapping.h">
<polygon fill="none" stroke="black" points="417,-62.5 417,-81.5 527,-81.5 527,-62.5 417,-62.5"/>
<text text-anchor="middle" x="472" y="-69.5" font-family="Helvetica,sans-Serif" font-size="10.00">MCHBase/Mapping.h</text>
</a>
</g>
</g>
<!-- Node8&#45;&gt;Node11 -->
<g id="edge16" class="edge"><title>Node8&#45;&gt;Node11</title>
<path fill="none" stroke="midnightblue" d="M373.477,-124.403C392.605,-114.423 424.373,-97.8487 446.652,-86.2253"/>
<polygon fill="midnightblue" stroke="midnightblue" points="448.307,-89.3094 455.554,-81.5806 445.069,-83.1033 448.307,-89.3094"/>
</g>
<!-- Node11&#45;&gt;Node3 -->
<g id="edge17" class="edge"><title>Node11&#45;&gt;Node3</title>
<path fill="none" stroke="midnightblue" d="M434.878,-62.4259C425.762,-60.3225 416.029,-58.0783 407,-56 349.689,-42.808 282.938,-27.4934 243.984,-18.5611"/>
<polygon fill="midnightblue" stroke="midnightblue" points="244.763,-15.1489 234.234,-16.3255 243.199,-21.9719 244.763,-15.1489"/>
</g>
<!-- Node11&#45;&gt;Node6 -->
<g id="edge19" class="edge"><title>Node11&#45;&gt;Node6</title>
<path fill="none" stroke="midnightblue" d="M483.892,-62.4035C497.205,-52.7797 519,-37.0242 534.957,-25.4891"/>
<polygon fill="midnightblue" stroke="midnightblue" points="537.076,-28.2756 543.13,-19.5806 532.975,-22.6026 537.076,-28.2756"/>
</g>
<!-- Node12 -->
<g id="node12" class="node"><title>Node12</title>
<polygon fill="none" stroke="#bfbfbf" points="645,-0.5 645,-19.5 697,-19.5 697,-0.5 645,-0.5"/>
<text text-anchor="middle" x="671" y="-7.5" font-family="Helvetica,sans-Serif" font-size="10.00">memory</text>
</g>
<!-- Node11&#45;&gt;Node12 -->
<g id="edge18" class="edge"><title>Node11&#45;&gt;Node12</title>
<path fill="none" stroke="midnightblue" d="M500.512,-62.4035C535.929,-51.7249 596.385,-33.497 634.974,-21.8621"/>
<polygon fill="midnightblue" stroke="midnightblue" points="636.198,-25.1487 644.762,-18.911 634.177,-18.4467 636.198,-25.1487"/>
</g>
<!-- Node13 -->
<g id="node13" class="node"><title>Node13</title>
<polygon fill="none" stroke="#bfbfbf" points="441,-0.5 441,-19.5 503,-19.5 503,-0.5 441,-0.5"/>
<text text-anchor="middle" x="472" y="-7.5" font-family="Helvetica,sans-Serif" font-size="10.00">TExMap.h</text>
</g>
<!-- Node11&#45;&gt;Node13 -->
<g id="edge20" class="edge"><title>Node11&#45;&gt;Node13</title>
<path fill="none" stroke="midnightblue" d="M472,-62.4035C472,-53.9381 472,-40.7283 472,-29.8199"/>
<polygon fill="midnightblue" stroke="midnightblue" points="475.5,-29.5806 472,-19.5806 468.5,-29.5806 475.5,-29.5806"/>
</g>
<!-- Node15&#45;&gt;Node3 -->
<g id="edge27" class="edge"><title>Node15&#45;&gt;Node3</title>
<path fill="none" stroke="midnightblue" d="M567.82,-186.241C477.42,-181.931 342.528,-171.059 299,-144 255.231,-116.791 228.587,-58.8342 217.305,-29.2287"/>
<polygon fill="midnightblue" stroke="midnightblue" points="220.55,-27.9125 213.84,-19.7136 213.973,-30.3076 220.55,-27.9125"/>
</g>
<!-- Node15&#45;&gt;Node6 -->
<g id="edge26" class="edge"><title>Node15&#45;&gt;Node6</title>
<path fill="none" stroke="midnightblue" d="M649.225,-180.415C633.908,-152.875 585.792,-66.3634 564.874,-28.7528"/>
<polygon fill="midnightblue" stroke="midnightblue" points="567.88,-26.9565 559.96,-19.9185 561.762,-30.359 567.88,-26.9565"/>
</g>
<!-- Node15&#45;&gt;Node14 -->
<g id="edge23" class="edge"><title>Node15&#45;&gt;Node14</title>
<path fill="none" stroke="midnightblue" d="M740.211,-183.038C819.17,-176.435 929.439,-163.995 968,-144 989.581,-132.809 1008.01,-111.869 1020.05,-95.6184"/>
<polygon fill="midnightblue" stroke="midnightblue" points="1023.12,-97.343 1026.06,-87.1641 1017.41,-93.288 1023.12,-97.343"/>
</g>
<!-- Node16 -->
<g id="node16" class="node"><title>Node16</title>
<g id="a_node16"><a xlink:href="../../d2/de6/HOMERFactory_8h.html" target="_top" xlink:title="HOMERFactory.h">
<polygon fill="none" stroke="black" points="864.5,-124.5 864.5,-143.5 959.5,-143.5 959.5,-124.5 864.5,-124.5"/>
<text text-anchor="middle" x="912" y="-131.5" font-family="Helvetica,sans-Serif" font-size="10.00">HOMERFactory.h</text>
</a>
</g>
</g>
<!-- Node15&#45;&gt;Node16 -->
<g id="edge24" class="edge"><title>Node15&#45;&gt;Node16</title>
<path fill="none" stroke="midnightblue" d="M694.881,-180.444C739.983,-171.004 812.612,-155.802 861.302,-145.611"/>
<polygon fill="midnightblue" stroke="midnightblue" points="862.24,-148.991 871.31,-143.516 860.805,-142.139 862.24,-148.991"/>
</g>
<!-- Node17 -->
<g id="node17" class="node"><title>Node17</title>
<polygon fill="none" stroke="#bfbfbf" points="467,-124.5 467,-143.5 565,-143.5 565,-124.5 467,-124.5"/>
<text text-anchor="middle" x="516" y="-131.5" font-family="Helvetica,sans-Serif" font-size="10.00">boost/signals2.hpp</text>
</g>
<!-- Node15&#45;&gt;Node17 -->
<g id="edge28" class="edge"><title>Node15&#45;&gt;Node17</title>
<path fill="none" stroke="midnightblue" d="M632.133,-180.444C609.221,-171.478 573.025,-157.314 547.134,-147.183"/>
<polygon fill="midnightblue" stroke="midnightblue" points="548.352,-143.901 537.764,-143.516 545.801,-150.42 548.352,-143.901"/>
</g>
<!-- Node18 -->
<g id="node18" class="node"><title>Node18</title>
<g id="a_node18"><a xlink:href="../../dc/dcd/DataHeader_8h.html" target="_top" xlink:title="Headers/DataHeader.h">
<polygon fill="none" stroke="black" points="827.5,-62.5 827.5,-81.5 944.5,-81.5 944.5,-62.5 827.5,-62.5"/>
<text text-anchor="middle" x="886" y="-69.5" font-family="Helvetica,sans-Serif" font-size="10.00">Headers/DataHeader.h</text>
</a>
</g>
</g>
<!-- Node15&#45;&gt;Node18 -->
<g id="edge29" class="edge"><title>Node15&#45;&gt;Node18</title>
<path fill="none" stroke="midnightblue" d="M690.477,-180.48C718.846,-173.046 758.684,-160.807 791,-144 820.513,-128.65 850.612,-104.397 868.803,-88.591"/>
<polygon fill="midnightblue" stroke="midnightblue" points="871.55,-90.8336 876.722,-81.5866 866.912,-85.5905 871.55,-90.8336"/>
</g>
<!-- Node21 -->
<g id="node21" class="node"><title>Node21</title>
<g id="a_node21"><a xlink:href="../../d2/d09/HeartbeatFrame_8h.html" target="_top" xlink:title="Headers/HeartbeatFrame.h">
<polygon fill="none" stroke="black" points="647.5,-124.5 647.5,-143.5 782.5,-143.5 782.5,-124.5 647.5,-124.5"/>
<text text-anchor="middle" x="715" y="-131.5" font-family="Helvetica,sans-Serif" font-size="10.00">Headers/HeartbeatFrame.h</text>
</a>
</g>
</g>
<!-- Node15&#45;&gt;Node21 -->
<g id="edge35" class="edge"><title>Node15&#45;&gt;Node21</title>
<path fill="none" stroke="midnightblue" d="M663.801,-180.324C672.818,-172.341 686.406,-160.313 697.318,-150.653"/>
<polygon fill="midnightblue" stroke="midnightblue" points="699.853,-153.083 705.021,-143.834 695.213,-147.842 699.853,-153.083"/>
</g>
<!-- Node16&#45;&gt;Node14 -->
<g id="edge25" class="edge"><title>Node16&#45;&gt;Node14</title>
<path fill="none" stroke="midnightblue" d="M929.623,-124.403C947.06,-115.898 974.316,-102.602 996.74,-91.6635"/>
<polygon fill="midnightblue" stroke="midnightblue" points="998.558,-94.6708 1006.01,-87.1408 995.489,-88.3794 998.558,-94.6708"/>
</g>
<!-- Node18&#45;&gt;Node3 -->
<g id="edge30" class="edge"><title>Node18&#45;&gt;Node3</title>
<path fill="none" stroke="midnightblue" d="M851.932,-62.4838C841.14,-60.0562 829.124,-57.6307 818,-56 705.685,-39.5356 354.363,-19.0117 244.309,-12.8385"/>
<polygon fill="midnightblue" stroke="midnightblue" points="244.315,-9.33342 234.136,-12.2702 243.925,-16.3225 244.315,-9.33342"/>
</g>
<!-- Node18&#45;&gt;Node9 -->
<g id="edge32" class="edge"><title>Node18&#45;&gt;Node9</title>
<path fill="none" stroke="midnightblue" d="M869.38,-62.4035C850.085,-52.4232 818.041,-35.8487 795.569,-24.2253"/>
<polygon fill="midnightblue" stroke="midnightblue" points="797.079,-21.0661 786.589,-19.5806 793.863,-27.2836 797.079,-21.0661"/>
</g>
<!-- Node18&#45;&gt;Node12 -->
<g id="edge31" class="edge"><title>Node18&#45;&gt;Node12</title>
<path fill="none" stroke="midnightblue" d="M855.196,-62.4035C815.936,-51.4472 748.199,-32.5438 706.719,-20.968"/>
<polygon fill="midnightblue" stroke="midnightblue" points="707.597,-17.5795 697.024,-18.2626 705.715,-24.3219 707.597,-17.5795"/>
</g>
<!-- Node19 -->
<g id="node19" class="node"><title>Node19</title>
<polygon fill="none" stroke="#bfbfbf" points="828,-0.5 828,-19.5 874,-19.5 874,-0.5 828,-0.5"/>
<text text-anchor="middle" x="851" y="-7.5" font-family="Helvetica,sans-Serif" font-size="10.00">cstring</text>
</g>
<!-- Node18&#45;&gt;Node19 -->
<g id="edge33" class="edge"><title>Node18&#45;&gt;Node19</title>
<path fill="none" stroke="midnightblue" d="M880.985,-62.4035C875.839,-53.5816 867.688,-39.6075 861.182,-28.4548"/>
<polygon fill="midnightblue" stroke="midnightblue" points="864.067,-26.4548 856.005,-19.5806 858.021,-29.982 864.067,-26.4548"/>
</g>
<!-- Node20 -->
<g id="node20" class="node"><title>Node20</title>
<polygon fill="none" stroke="#bfbfbf" points="892,-0.5 892,-19.5 948,-19.5 948,-0.5 892,-0.5"/>
<text text-anchor="middle" x="920" y="-7.5" font-family="Helvetica,sans-Serif" font-size="10.00">algorithm</text>
</g>
<!-- Node18&#45;&gt;Node20 -->
<g id="edge34" class="edge"><title>Node18&#45;&gt;Node20</title>
<path fill="none" stroke="midnightblue" d="M890.871,-62.4035C895.87,-53.5816 903.789,-39.6075 910.109,-28.4548"/>
<polygon fill="midnightblue" stroke="midnightblue" points="913.253,-30.0064 915.138,-19.5806 907.162,-26.5553 913.253,-30.0064"/>
</g>
<!-- Node21&#45;&gt;Node6 -->
<g id="edge39" class="edge"><title>Node21&#45;&gt;Node6</title>
<path fill="none" stroke="midnightblue" d="M703.749,-124.421C676.847,-103.908 608.525,-51.8125 574.653,-25.9858"/>
<polygon fill="midnightblue" stroke="midnightblue" points="576.527,-23.0129 566.453,-19.7326 572.282,-28.5793 576.527,-23.0129"/>
</g>
<!-- Node21&#45;&gt;Node18 -->
<g id="edge36" class="edge"><title>Node21&#45;&gt;Node18</title>
<path fill="none" stroke="midnightblue" d="M739.5,-124.403C768.96,-114.067 818.579,-96.6564 851.802,-84.9994"/>
<polygon fill="midnightblue" stroke="midnightblue" points="853.268,-88.1941 861.545,-81.5806 850.95,-81.5889 853.268,-88.1941"/>
</g>
<!-- Node22 -->
<g id="node22" class="node"><title>Node22</title>
<polygon fill="none" stroke="#bfbfbf" points="750.5,-62.5 750.5,-81.5 809.5,-81.5 809.5,-62.5 750.5,-62.5"/>
<text text-anchor="middle" x="780" y="-69.5" font-family="Helvetica,sans-Serif" font-size="10.00">functional</text>
</g>
<!-- Node21&#45;&gt;Node22 -->
<g id="edge37" class="edge"><title>Node21&#45;&gt;Node22</title>
<path fill="none" stroke="midnightblue" d="M724.313,-124.403C734.449,-115.047 750.864,-99.8948 763.252,-88.4599"/>
<polygon fill="midnightblue" stroke="midnightblue" points="765.73,-90.9352 770.704,-81.5806 760.982,-85.7916 765.73,-90.9352"/>
</g>
<!-- Node23 -->
<g id="node23" class="node"><title>Node23</title>
<polygon fill="none" stroke="#bfbfbf" points="697.5,-62.5 697.5,-81.5 732.5,-81.5 732.5,-62.5 697.5,-62.5"/>
<text text-anchor="middle" x="715" y="-69.5" font-family="Helvetica,sans-Serif" font-size="10.00">map</text>
</g>
<!-- Node21&#45;&gt;Node23 -->
<g id="edge38" class="edge"><title>Node21&#45;&gt;Node23</title>
<path fill="none" stroke="midnightblue" d="M715,-124.403C715,-115.938 715,-102.728 715,-91.8199"/>
<polygon fill="midnightblue" stroke="midnightblue" points="718.5,-91.5806 715,-81.5806 711.5,-91.5806 718.5,-91.5806"/>
</g>
</g>
</svg>
        <g id="navigator" transform="translate(0 0)" fill="#404254">
                <rect fill="#f2f5e9" fill-opacity="0.5" stroke="#606060" stroke-width=".5" x="0" y="0" width="60" height="60"/>
                <use id="zoomplus" xlink:href="#zoomPlus" x="17" y="9" onmousedown="handleZoom(evt,'in')"/>
                <use id="zoomminus" xlink:href="#zoomMin" x="42" y="9" onmousedown="handleZoom(evt,'out')"/>
                <use id="reset" xlink:href="#resetDef" x="30" y="36" onmousedown="handleReset()"/>
                <g id="arrowUp" xlink:href="#dirArrow" transform="translate(30 24)" onmousedown="handlePan(0,-1)">
                  <use xlink:href="#rim" fill="#404040">
                        <set attributeName="fill" to="#808080" begin="arrowUp.mouseover" end="arrowUp.mouseout"/>
                  </use>
                  <path fill="none" stroke="white" stroke-width="1.5" d="M0,-3.0v7 M-2.5,-0.5L0,-3.0L2.5,-0.5"/>
                </g>
                <g id="arrowRight" xlink:href="#dirArrow" transform="rotate(90) translate(36 -43)" onmousedown="handlePan(1,0)">
                  <use xlink:href="#rim" fill="#404040">
                        <set attributeName="fill" to="#808080" begin="arrowRight.mouseover" end="arrowRight.mouseout"/>
                  </use>
                  <path fill="none" stroke="white" stroke-width="1.5" d="M0,-3.0v7 M-2.5,-0.5L0,-3.0L2.5,-0.5"/>
                </g>
                <g id="arrowDown" xlink:href="#dirArrow" transform="rotate(180) translate(-30 -48)" onmousedown="handlePan(0,1)">
                  <use xlink:href="#rim" fill="#404040">
                        <set attributeName="fill" to="#808080" begin="arrowDown.mouseover" end="arrowDown.mouseout"/>
                  </use>
                  <path fill="none" stroke="white" stroke-width="1.5" d="M0,-3.0v7 M-2.5,-0.5L0,-3.0L2.5,-0.5"/>
                </g>
                <g id="arrowLeft" xlink:href="#dirArrow" transform="rotate(270) translate(-36 17)" onmousedown="handlePan(-1,0)">
                  <use xlink:href="#rim" fill="#404040">
                        <set attributeName="fill" to="#808080" begin="arrowLeft.mouseover" end="arrowLeft.mouseout"/>
                  </use>
                  <path fill="none" stroke="white" stroke-width="1.5" d="M0,-3.0v7 M-2.5,-0.5L0,-3.0L2.5,-0.5"/>
                </g>
        </g>
        <svg viewBox="0 0 15 15" width="100%" height="30px" preserveAspectRatio="xMaxYMin meet">
         <g id="arrow_out" transform="scale(0.3 0.3)">
          <a xlink:href="PreClusterFinderDevice_8h__incl_org.svg" target="_base">
           <rect id="button" ry="5" rx="5" y="6" x="6" height="38" width="38"
                fill="#f2f5e9" fill-opacity="0.5" stroke="#606060" stroke-width="1.0"/>
           <path id="arrow"
             d="M 11.500037,31.436501 C 11.940474,20.09759 22.043105,11.32322 32.158766,21.979434 L 37.068811,17.246167 C 37.068811,17.246167 37.088388,32 37.088388,32 L 22.160133,31.978069 C 22.160133,31.978069 26.997745,27.140456 26.997745,27.140456 C 18.528582,18.264221 13.291696,25.230495 11.500037,31.436501 z"
             style="fill:#404040;"/>
          </a>
         </g>
        </svg>
</svg>
