<?xml version="1.0" encoding="UTF-8" standalone="no"?>
<!DOCTYPE svg PUBLIC "-//W3C//DTD SVG 1.1//EN"
 "http://www.w3.org/Graphics/SVG/1.1/DTD/svg11.dtd">
<!-- Generated by graphviz version 2.36.0 (20140111.2315)
 -->
<!-- Title: /home/travis/build/AliceO2Group/AliceO2/Detectors/ITSMFT/MFT/simulation/include/MFTSimulation/DigitizerTask.h Pages: 1 -->
<svg width="2331pt" height="468pt"
 viewBox="0.00 0.00 2331.00 468.00" xmlns="http://www.w3.org/2000/svg" xmlns:xlink="http://www.w3.org/1999/xlink">
<g id="graph0" class="graph" transform="scale(1 1) rotate(0) translate(4 464)">
<title>/home/travis/build/AliceO2Group/AliceO2/Detectors/ITSMFT/MFT/simulation/include/MFTSimulation/DigitizerTask.h</title>
<!-- Node1 -->
<g id="node1" class="node"><title>Node1</title>
<polygon fill="#bfbfbf" stroke="black" points="1710.5,-396.5 1710.5,-459.5 1877.5,-459.5 1877.5,-396.5 1710.5,-396.5"/>
<text text-anchor="start" x="1718.5" y="-447.5" font-family="Helvetica,sans-Serif" font-size="10.00">/home/travis/build</text>
<text text-anchor="start" x="1718.5" y="-436.5" font-family="Helvetica,sans-Serif" font-size="10.00">/AliceO2Group/AliceO2</text>
<text text-anchor="start" x="1718.5" y="-425.5" font-family="Helvetica,sans-Serif" font-size="10.00">/Detectors/ITSMFT/MFT</text>
<text text-anchor="start" x="1718.5" y="-414.5" font-family="Helvetica,sans-Serif" font-size="10.00">/simulation/include/MFTSimulation</text>
<text text-anchor="middle" x="1794" y="-403.5" font-family="Helvetica,sans-Serif" font-size="10.00">/DigitizerTask.h</text>
</g>
<!-- Node2 -->
<g id="node2" class="node"><title>Node2</title>
<polygon fill="none" stroke="#bfbfbf" points="1578.5,-340.5 1578.5,-359.5 1621.5,-359.5 1621.5,-340.5 1578.5,-340.5"/>
<text text-anchor="middle" x="1600" y="-347.5" font-family="Helvetica,sans-Serif" font-size="10.00">cstdio</text>
</g>
<!-- Node1&#45;&gt;Node2 -->
<g id="edge1" class="edge"><title>Node1&#45;&gt;Node2</title>
<path fill="none" stroke="midnightblue" d="M1715.93,-396.416C1686.22,-384.775 1654.03,-372.168 1631.13,-363.197"/>
<polygon fill="midnightblue" stroke="midnightblue" points="1632.2,-359.857 1621.62,-359.468 1629.65,-366.374 1632.2,-359.857"/>
</g>
<!-- Node3 -->
<g id="node3" class="node"><title>Node3</title>
<polygon fill="none" stroke="#bfbfbf" points="1639.5,-340.5 1639.5,-359.5 1702.5,-359.5 1702.5,-340.5 1639.5,-340.5"/>
<text text-anchor="middle" x="1671" y="-347.5" font-family="Helvetica,sans-Serif" font-size="10.00">FairTask.h</text>
</g>
<!-- Node1&#45;&gt;Node3 -->
<g id="edge2" class="edge"><title>Node1&#45;&gt;Node3</title>
<path fill="none" stroke="midnightblue" d="M1744.33,-396.307C1726.71,-385.425 1707.76,-373.713 1693.53,-364.923"/>
<polygon fill="midnightblue" stroke="midnightblue" points="1695.28,-361.886 1684.93,-359.607 1691.6,-367.841 1695.28,-361.886"/>
</g>
<!-- Node4 -->
<g id="node4" class="node"><title>Node4</title>
<polygon fill="none" stroke="#bfbfbf" points="1903,-6.5 1903,-25.5 1959,-25.5 1959,-6.5 1903,-6.5"/>
<text text-anchor="middle" x="1931" y="-13.5" font-family="Helvetica,sans-Serif" font-size="10.00">Rtypes.h</text>
</g>
<!-- Node1&#45;&gt;Node4 -->
<g id="edge3" class="edge"><title>Node1&#45;&gt;Node4</title>
<path fill="none" stroke="midnightblue" d="M1877.53,-422.461C2026.6,-412.058 2323,-379.939 2323,-289 2323,-289 2323,-289 2323,-151 2323,-110.791 2318.96,-92.3956 2287,-68 2237.78,-30.4324 2051.13,-20.4635 1969.55,-17.8788"/>
<polygon fill="midnightblue" stroke="midnightblue" points="1969.32,-14.3705 1959.22,-17.5734 1969.11,-21.3674 1969.32,-14.3705"/>
</g>
<!-- Node5 -->
<g id="node5" class="node"><title>Node5</title>
<g id="a_node5"><a xlink:href="../../df/d29/DigiParams_8h.html" target="_top" xlink:title="Simulation parameters for the ALIPIDE chip. ">
<polygon fill="none" stroke="black" points="2016.5,-278.5 2016.5,-297.5 2177.5,-297.5 2177.5,-278.5 2016.5,-278.5"/>
<text text-anchor="middle" x="2097" y="-285.5" font-family="Helvetica,sans-Serif" font-size="10.00">ITSMFTSimulation/DigiParams.h</text>
</a>
</g>
</g>
<!-- Node1&#45;&gt;Node5 -->
<g id="edge4" class="edge"><title>Node1&#45;&gt;Node5</title>
<path fill="none" stroke="midnightblue" d="M1861.25,-396.373C1926.35,-366.72 2021.9,-323.203 2068.85,-301.82"/>
<polygon fill="midnightblue" stroke="midnightblue" points="2070.45,-304.937 2078.1,-297.606 2067.55,-298.566 2070.45,-304.937"/>
</g>
<!-- Node6 -->
<g id="node6" class="node"><title>Node6</title>
<g id="a_node6"><a xlink:href="../../d7/d9c/ITSMFT_2common_2simulation_2include_2ITSMFTSimulation_2Digitizer_8h.html" target="_top" xlink:title="ITSMFTSimulation/Digitizer.h">
<polygon fill="none" stroke="black" points="1721,-340.5 1721,-359.5 1867,-359.5 1867,-340.5 1721,-340.5"/>
<text text-anchor="middle" x="1794" y="-347.5" font-family="Helvetica,sans-Serif" font-size="10.00">ITSMFTSimulation/Digitizer.h</text>
</a>
</g>
</g>
<!-- Node1&#45;&gt;Node6 -->
<g id="edge6" class="edge"><title>Node1&#45;&gt;Node6</title>
<path fill="none" stroke="midnightblue" d="M1794,-396.088C1794,-387.15 1794,-377.669 1794,-369.719"/>
<polygon fill="midnightblue" stroke="midnightblue" points="1797.5,-369.718 1794,-359.718 1790.5,-369.718 1797.5,-369.718"/>
</g>
<!-- Node5&#45;&gt;Node4 -->
<g id="edge5" class="edge"><title>Node5&#45;&gt;Node4</title>
<path fill="none" stroke="midnightblue" d="M2113.04,-278.393C2166.81,-248.496 2333.61,-146.678 2266,-68 2228.07,-23.8563 2048.64,-17.484 1969.11,-16.8662"/>
<polygon fill="midnightblue" stroke="midnightblue" points="1969.04,-13.366 1959.02,-16.8149 1969.01,-20.3659 1969.04,-13.366"/>
</g>
<!-- Node6&#45;&gt;Node4 -->
<g id="edge9" class="edge"><title>Node6&#45;&gt;Node4</title>
<path fill="none" stroke="midnightblue" d="M1788.22,-340.27C1768.41,-309.15 1707.03,-201.986 1755,-136 1785.5,-94.0501 1823.49,-129.712 1866,-100 1890.67,-82.7574 1910.47,-53.4184 1921.47,-34.6384"/>
<polygon fill="midnightblue" stroke="midnightblue" points="1924.67,-36.0973 1926.53,-25.6676 1918.57,-32.6588 1924.67,-36.0973"/>
</g>
<!-- Node6&#45;&gt;Node5 -->
<g id="edge44" class="edge"><title>Node6&#45;&gt;Node5</title>
<path fill="none" stroke="midnightblue" d="M1837.09,-340.467C1891.61,-329.671 1985.47,-311.086 2044.23,-299.45"/>
<polygon fill="midnightblue" stroke="midnightblue" points="2044.93,-302.879 2054.06,-297.503 2043.57,-296.013 2044.93,-302.879"/>
</g>
<!-- Node7 -->
<g id="node7" class="node"><title>Node7</title>
<polygon fill="none" stroke="#bfbfbf" points="1095,-142.5 1095,-161.5 1139,-161.5 1139,-142.5 1095,-142.5"/>
<text text-anchor="middle" x="1117" y="-149.5" font-family="Helvetica,sans-Serif" font-size="10.00">vector</text>
</g>
<!-- Node6&#45;&gt;Node7 -->
<g id="edge7" class="edge"><title>Node6&#45;&gt;Node7</title>
<path fill="none" stroke="midnightblue" d="M1779.44,-340.373C1764.73,-331.554 1741.48,-317.301 1722,-304 1702.33,-290.565 1700.71,-281.805 1679,-272 1654.27,-260.829 1265.17,-182.598 1149.31,-159.442"/>
<polygon fill="midnightblue" stroke="midnightblue" points="1149.77,-155.965 1139.27,-157.439 1148.4,-162.83 1149.77,-155.965"/>
</g>
<!-- Node8 -->
<g id="node8" class="node"><title>Node8</title>
<polygon fill="none" stroke="#bfbfbf" points="1618,-278.5 1618,-297.5 1670,-297.5 1670,-278.5 1618,-278.5"/>
<text text-anchor="middle" x="1644" y="-285.5" font-family="Helvetica,sans-Serif" font-size="10.00">memory</text>
</g>
<!-- Node6&#45;&gt;Node8 -->
<g id="edge8" class="edge"><title>Node6&#45;&gt;Node8</title>
<path fill="none" stroke="midnightblue" d="M1772.51,-340.403C1746.89,-330.156 1703.89,-312.956 1674.76,-301.302"/>
<polygon fill="midnightblue" stroke="midnightblue" points="1676.04,-298.045 1665.45,-297.581 1673.44,-304.544 1676.04,-298.045"/>
</g>
<!-- Node9 -->
<g id="node9" class="node"><title>Node9</title>
<polygon fill="none" stroke="#bfbfbf" points="2128.5,-142.5 2128.5,-161.5 2187.5,-161.5 2187.5,-142.5 2128.5,-142.5"/>
<text text-anchor="middle" x="2158" y="-149.5" font-family="Helvetica,sans-Serif" font-size="10.00">TObject.h</text>
</g>
<!-- Node6&#45;&gt;Node9 -->
<g id="edge10" class="edge"><title>Node6&#45;&gt;Node9</title>
<path fill="none" stroke="midnightblue" d="M1829.31,-340.487C1858.05,-332.877 1899.23,-320.399 1933,-304 2015.27,-264.047 2102.35,-197.69 2139.48,-168.075"/>
<polygon fill="midnightblue" stroke="midnightblue" points="2141.82,-170.687 2147.42,-161.694 2137.44,-165.23 2141.82,-170.687"/>
</g>
<!-- Node10 -->
<g id="node10" class="node"><title>Node10</title>
<g id="a_node10"><a xlink:href="../../d7/d9e/SimulationAlpide_8h.html" target="_top" xlink:title="Simulation of the ALIPIDE chip response. ">
<polygon fill="none" stroke="black" points="1777.5,-273 1777.5,-303 1924.5,-303 1924.5,-273 1777.5,-273"/>
<text text-anchor="start" x="1785.5" y="-291" font-family="Helvetica,sans-Serif" font-size="10.00">ITSMFTSimulation/Simulation</text>
<text text-anchor="middle" x="1851" y="-280" font-family="Helvetica,sans-Serif" font-size="10.00">Alpide.h</text>
</a>
</g>
</g>
<!-- Node6&#45;&gt;Node10 -->
<g id="edge11" class="edge"><title>Node6&#45;&gt;Node10</title>
<path fill="none" stroke="midnightblue" d="M1802.17,-340.403C1809.53,-332.657 1820.66,-320.938 1830.44,-310.645"/>
<polygon fill="midnightblue" stroke="midnightblue" points="1833.22,-312.801 1837.57,-303.141 1828.14,-307.98 1833.22,-312.801"/>
</g>
<!-- Node11 -->
<g id="node11" class="node"><title>Node11</title>
<g id="a_node11"><a xlink:href="../../dc/d1a/AlpideSimResponse_8h.html" target="_top" xlink:title="Definition of the ITSMFT Alpide simulated response parametrization. ">
<polygon fill="none" stroke="black" points="970,-205 970,-235 1116,-235 1116,-205 970,-205"/>
<text text-anchor="start" x="978" y="-223" font-family="Helvetica,sans-Serif" font-size="10.00">ITSMFTSimulation/AlpideSim</text>
<text text-anchor="middle" x="1043" y="-212" font-family="Helvetica,sans-Serif" font-size="10.00">Response.h</text>
</a>
</g>
</g>
<!-- Node6&#45;&gt;Node11 -->
<g id="edge43" class="edge"><title>Node6&#45;&gt;Node11</title>
<path fill="none" stroke="midnightblue" d="M1743.85,-340.453C1617.06,-318.843 1282.68,-261.851 1126.1,-235.163"/>
<polygon fill="midnightblue" stroke="midnightblue" points="1126.49,-231.68 1116.04,-233.45 1125.31,-238.58 1126.49,-231.68"/>
</g>
<!-- Node32 -->
<g id="node32" class="node"><title>Node32</title>
<g id="a_node32"><a xlink:href="../../d0/d2d/common_2base_2include_2ITSMFTBase_2GeometryTGeo_8h.html" target="_top" xlink:title="ITSMFTBase/GeometryTGeo.h">
<polygon fill="none" stroke="black" points="660.5,-278.5 660.5,-297.5 813.5,-297.5 813.5,-278.5 660.5,-278.5"/>
<text text-anchor="middle" x="737" y="-285.5" font-family="Helvetica,sans-Serif" font-size="10.00">ITSMFTBase/GeometryTGeo.h</text>
</a>
</g>
</g>
<!-- Node6&#45;&gt;Node32 -->
<g id="edge45" class="edge"><title>Node6&#45;&gt;Node32</title>
<path fill="none" stroke="midnightblue" d="M1720.7,-340.828C1717.42,-340.533 1714.18,-340.255 1711,-340 1384.12,-313.74 994.38,-298.024 823.972,-291.928"/>
<polygon fill="midnightblue" stroke="midnightblue" points="823.923,-288.424 813.805,-291.566 823.674,-295.419 823.923,-288.424"/>
</g>
<!-- Node10&#45;&gt;Node9 -->
<g id="edge12" class="edge"><title>Node10&#45;&gt;Node9</title>
<path fill="none" stroke="midnightblue" d="M1874.05,-272.923C1890.19,-262.915 1912.15,-248.996 1931,-236 1950.61,-222.477 1952.46,-214.181 1974,-204 2034.03,-175.623 2055.67,-187.957 2119,-168 2121.79,-167.121 2124.67,-166.147 2127.54,-165.13"/>
<polygon fill="midnightblue" stroke="midnightblue" points="2128.96,-168.335 2137.12,-161.578 2126.53,-161.772 2128.96,-168.335"/>
</g>
<!-- Node10&#45;&gt;Node11 -->
<g id="edge13" class="edge"><title>Node10&#45;&gt;Node11</title>
<path fill="none" stroke="midnightblue" d="M1777.35,-280.464C1746.91,-277.792 1711.26,-274.7 1679,-272 1480.91,-255.42 1248.01,-237.024 1126.45,-227.505"/>
<polygon fill="midnightblue" stroke="midnightblue" points="1126.71,-224.015 1116.46,-226.724 1126.16,-230.993 1126.71,-224.015"/>
</g>
<!-- Node14 -->
<g id="node14" class="node"><title>Node14</title>
<g id="a_node14"><a xlink:href="../../d9/d55/Chip_8h.html" target="_top" xlink:title="ITSMFTSimulation/Chip.h">
<polygon fill="none" stroke="black" points="1792,-210.5 1792,-229.5 1922,-229.5 1922,-210.5 1792,-210.5"/>
<text text-anchor="middle" x="1857" y="-217.5" font-family="Helvetica,sans-Serif" font-size="10.00">ITSMFTSimulation/Chip.h</text>
</a>
</g>
</g>
<!-- Node10&#45;&gt;Node14 -->
<g id="edge18" class="edge"><title>Node10&#45;&gt;Node14</title>
<path fill="none" stroke="midnightblue" d="M1852.3,-272.679C1853.17,-263.101 1854.33,-250.394 1855.27,-239.977"/>
<polygon fill="midnightblue" stroke="midnightblue" points="1858.78,-240.104 1856.2,-229.828 1851.81,-239.47 1858.78,-240.104"/>
</g>
<!-- Node11&#45;&gt;Node4 -->
<g id="edge17" class="edge"><title>Node11&#45;&gt;Node4</title>
<path fill="none" stroke="midnightblue" d="M971.355,-204.969C874.024,-182.982 719.15,-135.797 784,-68 823.171,-27.0485 1698.09,-18.6073 1892.82,-17.2336"/>
<polygon fill="midnightblue" stroke="midnightblue" points="1892.89,-20.7332 1902.87,-17.1648 1892.85,-13.7334 1892.89,-20.7332"/>
</g>
<!-- Node11&#45;&gt;Node7 -->
<g id="edge16" class="edge"><title>Node11&#45;&gt;Node7</title>
<path fill="none" stroke="midnightblue" d="M1059.06,-204.679C1070.94,-194.082 1087.11,-179.655 1099.36,-168.736"/>
<polygon fill="midnightblue" stroke="midnightblue" points="1101.97,-171.097 1107.1,-161.828 1097.31,-165.872 1101.97,-171.097"/>
</g>
<!-- Node12 -->
<g id="node12" class="node"><title>Node12</title>
<polygon fill="none" stroke="#bfbfbf" points="425,-6.5 425,-25.5 463,-25.5 463,-6.5 425,-6.5"/>
<text text-anchor="middle" x="444" y="-13.5" font-family="Helvetica,sans-Serif" font-size="10.00">array</text>
</g>
<!-- Node11&#45;&gt;Node12 -->
<g id="edge14" class="edge"><title>Node11&#45;&gt;Node12</title>
<path fill="none" stroke="midnightblue" d="M969.913,-215.426C909.228,-210.33 821.718,-197.97 751,-168 728.736,-158.565 729.152,-145.695 707,-136 631.862,-103.113 598.218,-138.882 526,-100 521.932,-97.8096 481.997,-56.5675 459.396,-33.0611"/>
<polygon fill="midnightblue" stroke="midnightblue" points="461.663,-30.3684 452.212,-25.5794 456.614,-35.2167 461.663,-30.3684"/>
</g>
<!-- Node13 -->
<g id="node13" class="node"><title>Node13</title>
<polygon fill="none" stroke="#bfbfbf" points="657.5,-142.5 657.5,-161.5 698.5,-161.5 698.5,-142.5 657.5,-142.5"/>
<text text-anchor="middle" x="678" y="-149.5" font-family="Helvetica,sans-Serif" font-size="10.00">string</text>
</g>
<!-- Node11&#45;&gt;Node13 -->
<g id="edge15" class="edge"><title>Node11&#45;&gt;Node13</title>
<path fill="none" stroke="midnightblue" d="M969.769,-213.009C902.134,-206.23 799.379,-192.756 713,-168 710.351,-167.241 707.636,-166.331 704.948,-165.34"/>
<polygon fill="midnightblue" stroke="midnightblue" points="706.073,-162.02 695.49,-161.518 703.45,-168.51 706.073,-162.02"/>
</g>
<!-- Node14&#45;&gt;Node7 -->
<g id="edge29" class="edge"><title>Node14&#45;&gt;Node7</title>
<path fill="none" stroke="midnightblue" d="M1791.72,-211.775C1766.79,-209.14 1738.1,-206.256 1712,-204 1482.08,-184.124 1422.8,-198.121 1194,-168 1179.15,-166.045 1162.85,-163.002 1149.09,-160.166"/>
<polygon fill="midnightblue" stroke="midnightblue" points="1149.63,-156.703 1139.12,-158.059 1148.18,-163.552 1149.63,-156.703"/>
</g>
<!-- Node14&#45;&gt;Node9 -->
<g id="edge25" class="edge"><title>Node14&#45;&gt;Node9</title>
<path fill="none" stroke="midnightblue" d="M1901.86,-210.479C1973.95,-196.756 2108.6,-170.986 2119,-168 2121.97,-167.146 2125.04,-166.161 2128.08,-165.112"/>
<polygon fill="midnightblue" stroke="midnightblue" points="2129.4,-168.354 2137.58,-161.624 2126.99,-161.782 2129.4,-168.354"/>
</g>
<!-- Node15 -->
<g id="node15" class="node"><title>Node15</title>
<g id="a_node15"><a xlink:href="../../d0/d06/ITSMFT_2common_2base_2include_2ITSMFTBase_2Digit_8h.html" target="_top" xlink:title="ITSMFTBase/Digit.h">
<polygon fill="none" stroke="black" points="2003.5,-142.5 2003.5,-161.5 2110.5,-161.5 2110.5,-142.5 2003.5,-142.5"/>
<text text-anchor="middle" x="2057" y="-149.5" font-family="Helvetica,sans-Serif" font-size="10.00">ITSMFTBase/Digit.h</text>
</a>
</g>
</g>
<!-- Node14&#45;&gt;Node15 -->
<g id="edge19" class="edge"><title>Node14&#45;&gt;Node15</title>
<path fill="none" stroke="midnightblue" d="M1883.15,-210.372C1918.58,-198.679 1981.96,-177.762 2021.62,-164.674"/>
<polygon fill="midnightblue" stroke="midnightblue" points="2022.76,-167.983 2031.16,-161.526 2020.57,-161.336 2022.76,-167.983"/>
</g>
<!-- Node16 -->
<g id="node16" class="node"><title>Node16</title>
<g id="a_node16"><a xlink:href="../../d7/dcd/MCCompLabel_8h.html" target="_top" xlink:title="SimulationDataFormat\l/MCCompLabel.h">
<polygon fill="none" stroke="black" points="1917,-69 1917,-99 2031,-99 2031,-69 1917,-69"/>
<text text-anchor="start" x="1925" y="-87" font-family="Helvetica,sans-Serif" font-size="10.00">SimulationDataFormat</text>
<text text-anchor="middle" x="1974" y="-76" font-family="Helvetica,sans-Serif" font-size="10.00">/MCCompLabel.h</text>
</a>
</g>
</g>
<!-- Node14&#45;&gt;Node16 -->
<g id="edge42" class="edge"><title>Node14&#45;&gt;Node16</title>
<path fill="none" stroke="midnightblue" d="M1888.08,-210.487C1910.01,-202.884 1938.34,-189.549 1955,-168 1967.95,-151.243 1972.36,-127.247 1973.73,-109.363"/>
<polygon fill="midnightblue" stroke="midnightblue" points="1977.23,-109.298 1974.24,-99.1359 1970.24,-108.949 1977.23,-109.298"/>
</g>
<!-- Node18 -->
<g id="node18" class="node"><title>Node18</title>
<polygon fill="none" stroke="#bfbfbf" points="1834.5,-142.5 1834.5,-161.5 1893.5,-161.5 1893.5,-142.5 1834.5,-142.5"/>
<text text-anchor="middle" x="1864" y="-149.5" font-family="Helvetica,sans-Serif" font-size="10.00">exception</text>
</g>
<!-- Node14&#45;&gt;Node18 -->
<g id="edge26" class="edge"><title>Node14&#45;&gt;Node18</title>
<path fill="none" stroke="midnightblue" d="M1857.92,-210.372C1858.95,-200.643 1860.66,-184.528 1862,-171.85"/>
<polygon fill="midnightblue" stroke="midnightblue" points="1865.49,-172.155 1863.06,-161.841 1858.53,-171.416 1865.49,-172.155"/>
</g>
<!-- Node19 -->
<g id="node19" class="node"><title>Node19</title>
<polygon fill="none" stroke="#bfbfbf" points="1911.5,-142.5 1911.5,-161.5 1946.5,-161.5 1946.5,-142.5 1911.5,-142.5"/>
<text text-anchor="middle" x="1929" y="-149.5" font-family="Helvetica,sans-Serif" font-size="10.00">map</text>
</g>
<!-- Node14&#45;&gt;Node19 -->
<g id="edge27" class="edge"><title>Node14&#45;&gt;Node19</title>
<path fill="none" stroke="midnightblue" d="M1866.41,-210.372C1877.88,-199.856 1897.49,-181.882 1911.71,-168.85"/>
<polygon fill="midnightblue" stroke="midnightblue" points="1914.35,-171.178 1919.36,-161.841 1909.62,-166.018 1914.35,-171.178"/>
</g>
<!-- Node20 -->
<g id="node20" class="node"><title>Node20</title>
<polygon fill="none" stroke="#bfbfbf" points="1764,-142.5 1764,-161.5 1816,-161.5 1816,-142.5 1764,-142.5"/>
<text text-anchor="middle" x="1790" y="-149.5" font-family="Helvetica,sans-Serif" font-size="10.00">sstream</text>
</g>
<!-- Node14&#45;&gt;Node20 -->
<g id="edge28" class="edge"><title>Node14&#45;&gt;Node20</title>
<path fill="none" stroke="midnightblue" d="M1848.24,-210.372C1837.67,-199.955 1819.66,-182.217 1806.46,-169.216"/>
<polygon fill="midnightblue" stroke="midnightblue" points="1808.56,-166.365 1798.98,-161.841 1803.64,-171.352 1808.56,-166.365"/>
</g>
<!-- Node21 -->
<g id="node21" class="node"><title>Node21</title>
<g id="a_node21"><a xlink:href="../../dd/d76/Cartesian3D_8h.html" target="_top" xlink:title="MathUtils/Cartesian3D.h">
<polygon fill="none" stroke="black" points="1203.5,-142.5 1203.5,-161.5 1328.5,-161.5 1328.5,-142.5 1203.5,-142.5"/>
<text text-anchor="middle" x="1266" y="-149.5" font-family="Helvetica,sans-Serif" font-size="10.00">MathUtils/Cartesian3D.h</text>
</a>
</g>
</g>
<!-- Node14&#45;&gt;Node21 -->
<g id="edge30" class="edge"><title>Node14&#45;&gt;Node21</title>
<path fill="none" stroke="midnightblue" d="M1791.78,-211.716C1680.61,-199.302 1455.2,-174.129 1338.96,-161.148"/>
<polygon fill="midnightblue" stroke="midnightblue" points="1339.07,-157.638 1328.74,-160.006 1338.29,-164.595 1339.07,-157.638"/>
</g>
<!-- Node15&#45;&gt;Node4 -->
<g id="edge20" class="edge"><title>Node15&#45;&gt;Node4</title>
<path fill="none" stroke="midnightblue" d="M2057.62,-142.19C2058.3,-125.777 2057.48,-90.178 2040,-68 2022.46,-45.7477 1992.91,-32.759 1969,-25.4641"/>
<polygon fill="midnightblue" stroke="midnightblue" points="1969.72,-22.0318 1959.15,-22.6759 1967.82,-28.7672 1969.72,-22.0318"/>
</g>
<!-- Node15&#45;&gt;Node16 -->
<g id="edge21" class="edge"><title>Node15&#45;&gt;Node16</title>
<path fill="none" stroke="midnightblue" d="M2046.15,-142.372C2034.51,-133.114 2015.6,-118.076 2000.05,-105.718"/>
<polygon fill="midnightblue" stroke="midnightblue" points="2001.84,-102.666 1991.83,-99.1815 1997.48,-108.145 2001.84,-102.666"/>
</g>
<!-- Node17 -->
<g id="node17" class="node"><title>Node17</title>
<g id="a_node17"><a xlink:href="../../df/d5d/common_2include_2CommonDataFormat_2TimeStamp_8h.html" target="_top" xlink:title="CommonDataFormat/TimeStamp.h">
<polygon fill="none" stroke="black" points="2087,-74.5 2087,-93.5 2257,-93.5 2257,-74.5 2087,-74.5"/>
<text text-anchor="middle" x="2172" y="-81.5" font-family="Helvetica,sans-Serif" font-size="10.00">CommonDataFormat/TimeStamp.h</text>
</a>
</g>
</g>
<!-- Node15&#45;&gt;Node17 -->
<g id="edge23" class="edge"><title>Node15&#45;&gt;Node17</title>
<path fill="none" stroke="midnightblue" d="M2072.03,-142.372C2091.41,-131.254 2125.3,-111.8 2148.19,-98.6624"/>
<polygon fill="midnightblue" stroke="midnightblue" points="2150.03,-101.644 2156.96,-93.6305 2146.55,-95.5725 2150.03,-101.644"/>
</g>
<!-- Node16&#45;&gt;Node4 -->
<g id="edge22" class="edge"><title>Node16&#45;&gt;Node4</title>
<path fill="none" stroke="midnightblue" d="M1964.67,-68.679C1958.1,-58.5919 1949.26,-45.033 1942.29,-34.3345"/>
<polygon fill="midnightblue" stroke="midnightblue" points="1945.14,-32.2963 1936.75,-25.8283 1939.28,-36.1175 1945.14,-32.2963"/>
</g>
<!-- Node17&#45;&gt;Node4 -->
<g id="edge24" class="edge"><title>Node17&#45;&gt;Node4</title>
<path fill="none" stroke="midnightblue" d="M2140.49,-74.3717C2096.39,-62.2945 2016.36,-40.3775 1969.01,-27.4098"/>
<polygon fill="midnightblue" stroke="midnightblue" points="1969.71,-23.973 1959.14,-24.7073 1967.86,-30.7244 1969.71,-23.973"/>
</g>
<!-- Node21&#45;&gt;Node4 -->
<g id="edge36" class="edge"><title>Node21&#45;&gt;Node4</title>
<path fill="none" stroke="midnightblue" d="M1328.52,-150.053C1456.19,-147.363 1742.37,-137.24 1832,-100 1841.48,-96.0591 1888.08,-55.2632 1913.83,-32.3718"/>
<polygon fill="midnightblue" stroke="midnightblue" points="1916.24,-34.9055 1921.38,-25.638 1911.59,-29.6807 1916.24,-34.9055"/>
</g>
<!-- Node22 -->
<g id="node22" class="node"><title>Node22</title>
<polygon fill="none" stroke="#bfbfbf" points="1311.5,-69 1311.5,-99 1462.5,-99 1462.5,-69 1311.5,-69"/>
<text text-anchor="start" x="1319.5" y="-87" font-family="Helvetica,sans-Serif" font-size="10.00">Math/GenVector/Displacement</text>
<text text-anchor="middle" x="1387" y="-76" font-family="Helvetica,sans-Serif" font-size="10.00">Vector3D.h</text>
</g>
<!-- Node21&#45;&gt;Node22 -->
<g id="edge31" class="edge"><title>Node21&#45;&gt;Node22</title>
<path fill="none" stroke="midnightblue" d="M1281.82,-142.372C1299.58,-132.686 1328.94,-116.671 1352.13,-104.019"/>
<polygon fill="midnightblue" stroke="midnightblue" points="1353.9,-107.043 1361,-99.1815 1350.55,-100.897 1353.9,-107.043"/>
</g>
<!-- Node23 -->
<g id="node23" class="node"><title>Node23</title>
<polygon fill="none" stroke="#bfbfbf" points="1481,-74.5 1481,-93.5 1657,-93.5 1657,-74.5 1481,-74.5"/>
<text text-anchor="middle" x="1569" y="-81.5" font-family="Helvetica,sans-Serif" font-size="10.00">Math/GenVector/PositionVector3D.h</text>
</g>
<!-- Node21&#45;&gt;Node23 -->
<g id="edge32" class="edge"><title>Node21&#45;&gt;Node23</title>
<path fill="none" stroke="midnightblue" d="M1305.3,-142.439C1360.25,-130.471 1459.99,-108.744 1519.8,-95.7158"/>
<polygon fill="midnightblue" stroke="midnightblue" points="1520.74,-99.0937 1529.77,-93.5455 1519.25,-92.2541 1520.74,-99.0937"/>
</g>
<!-- Node24 -->
<g id="node24" class="node"><title>Node24</title>
<polygon fill="none" stroke="#bfbfbf" points="1674.5,-74.5 1674.5,-93.5 1823.5,-93.5 1823.5,-74.5 1674.5,-74.5"/>
<text text-anchor="middle" x="1749" y="-81.5" font-family="Helvetica,sans-Serif" font-size="10.00">Math/GenVector/Rotation3D.h</text>
</g>
<!-- Node21&#45;&gt;Node24 -->
<g id="edge33" class="edge"><title>Node21&#45;&gt;Node24</title>
<path fill="none" stroke="midnightblue" d="M1328.68,-143.962C1407.37,-134.903 1546.44,-118.151 1665,-100 1674.35,-98.569 1684.25,-96.9192 1693.86,-95.2485"/>
<polygon fill="midnightblue" stroke="midnightblue" points="1694.49,-98.6919 1703.73,-93.5083 1693.27,-91.7983 1694.49,-98.6919"/>
</g>
<!-- Node25 -->
<g id="node25" class="node"><title>Node25</title>
<polygon fill="none" stroke="#bfbfbf" points="793,-74.5 793,-93.5 949,-93.5 949,-74.5 793,-74.5"/>
<text text-anchor="middle" x="871" y="-81.5" font-family="Helvetica,sans-Serif" font-size="10.00">Math/GenVector/Transform3D.h</text>
</g>
<!-- Node21&#45;&gt;Node25 -->
<g id="edge34" class="edge"><title>Node21&#45;&gt;Node25</title>
<path fill="none" stroke="midnightblue" d="M1213.94,-142.488C1152.68,-132.447 1047.92,-115.196 958,-100 949.01,-98.4808 939.501,-96.8577 930.199,-95.261"/>
<polygon fill="midnightblue" stroke="midnightblue" points="930.67,-91.7907 920.221,-93.545 929.483,-98.6894 930.67,-91.7907"/>
</g>
<!-- Node26 -->
<g id="node26" class="node"><title>Node26</title>
<polygon fill="none" stroke="#bfbfbf" points="967,-74.5 967,-93.5 1127,-93.5 1127,-74.5 967,-74.5"/>
<text text-anchor="middle" x="1047" y="-81.5" font-family="Helvetica,sans-Serif" font-size="10.00">Math/GenVector/Translation3D.h</text>
</g>
<!-- Node21&#45;&gt;Node26 -->
<g id="edge35" class="edge"><title>Node21&#45;&gt;Node26</title>
<path fill="none" stroke="midnightblue" d="M1237.37,-142.372C1198.32,-130.604 1128.28,-109.496 1084.91,-96.4257"/>
<polygon fill="midnightblue" stroke="midnightblue" points="1085.88,-93.0603 1075.29,-93.5259 1083.86,-99.7626 1085.88,-93.0603"/>
</g>
<!-- Node27 -->
<g id="node27" class="node"><title>Node27</title>
<polygon fill="none" stroke="#bfbfbf" points="1145,-74.5 1145,-93.5 1221,-93.5 1221,-74.5 1145,-74.5"/>
<text text-anchor="middle" x="1183" y="-81.5" font-family="Helvetica,sans-Serif" font-size="10.00">TGeoMatrix.h</text>
</g>
<!-- Node21&#45;&gt;Node27 -->
<g id="edge37" class="edge"><title>Node21&#45;&gt;Node27</title>
<path fill="none" stroke="midnightblue" d="M1255.15,-142.372C1241.6,-131.6 1218.21,-113.002 1201.75,-99.9065"/>
<polygon fill="midnightblue" stroke="midnightblue" points="1203.86,-97.1149 1193.85,-93.6305 1199.5,-102.594 1203.86,-97.1149"/>
</g>
<!-- Node28 -->
<g id="node28" class="node"><title>Node28</title>
<polygon fill="none" stroke="#bfbfbf" points="1239,-74.5 1239,-93.5 1293,-93.5 1293,-74.5 1239,-74.5"/>
<text text-anchor="middle" x="1266" y="-81.5" font-family="Helvetica,sans-Serif" font-size="10.00">iostream</text>
</g>
<!-- Node21&#45;&gt;Node28 -->
<g id="edge38" class="edge"><title>Node21&#45;&gt;Node28</title>
<path fill="none" stroke="midnightblue" d="M1266,-142.372C1266,-132.643 1266,-116.528 1266,-103.85"/>
<polygon fill="midnightblue" stroke="midnightblue" points="1269.5,-103.841 1266,-93.8411 1262.5,-103.841 1269.5,-103.841"/>
</g>
<!-- Node29 -->
<g id="node29" class="node"><title>Node29</title>
<g id="a_node29"><a xlink:href="../../d2/dd0/Cartesian2D_8h.html" target="_top" xlink:title="MathUtils/Cartesian2D.h">
<polygon fill="none" stroke="black" points="535.5,-74.5 535.5,-93.5 660.5,-93.5 660.5,-74.5 535.5,-74.5"/>
<text text-anchor="middle" x="598" y="-81.5" font-family="Helvetica,sans-Serif" font-size="10.00">MathUtils/Cartesian2D.h</text>
</a>
</g>
</g>
<!-- Node21&#45;&gt;Node29 -->
<g id="edge39" class="edge"><title>Node21&#45;&gt;Node29</title>
<path fill="none" stroke="midnightblue" d="M1203.36,-142.713C1185.19,-140.416 1165.32,-138.005 1147,-136 976.637,-117.355 776.043,-99.8445 670.83,-91.0012"/>
<polygon fill="midnightblue" stroke="midnightblue" points="670.898,-87.4948 660.641,-90.1469 670.313,-94.4703 670.898,-87.4948"/>
</g>
<!-- Node30 -->
<g id="node30" class="node"><title>Node30</title>
<polygon fill="none" stroke="#bfbfbf" points="495.5,-1 495.5,-31 646.5,-31 646.5,-1 495.5,-1"/>
<text text-anchor="start" x="503.5" y="-19" font-family="Helvetica,sans-Serif" font-size="10.00">Math/GenVector/Displacement</text>
<text text-anchor="middle" x="571" y="-8" font-family="Helvetica,sans-Serif" font-size="10.00">Vector2D.h</text>
</g>
<!-- Node29&#45;&gt;Node30 -->
<g id="edge40" class="edge"><title>Node29&#45;&gt;Node30</title>
<path fill="none" stroke="midnightblue" d="M594.47,-74.3717C590.964,-65.8 585.429,-52.2719 580.615,-40.5045"/>
<polygon fill="midnightblue" stroke="midnightblue" points="583.827,-39.1117 576.802,-31.1815 577.348,-41.7622 583.827,-39.1117"/>
</g>
<!-- Node31 -->
<g id="node31" class="node"><title>Node31</title>
<polygon fill="none" stroke="#bfbfbf" points="665,-6.5 665,-25.5 841,-25.5 841,-6.5 665,-6.5"/>
<text text-anchor="middle" x="753" y="-13.5" font-family="Helvetica,sans-Serif" font-size="10.00">Math/GenVector/PositionVector2D.h</text>
</g>
<!-- Node29&#45;&gt;Node31 -->
<g id="edge41" class="edge"><title>Node29&#45;&gt;Node31</title>
<path fill="none" stroke="midnightblue" d="M618.264,-74.3717C645.068,-62.958 692.512,-42.7562 723.35,-29.6252"/>
<polygon fill="midnightblue" stroke="midnightblue" points="724.902,-32.7684 732.731,-25.6305 722.16,-26.328 724.902,-32.7684"/>
</g>
<!-- Node32&#45;&gt;Node13 -->
<g id="edge47" class="edge"><title>Node32&#45;&gt;Node13</title>
<path fill="none" stroke="midnightblue" d="M733.129,-278.208C723.585,-256.532 698.774,-200.181 685.943,-171.041"/>
<polygon fill="midnightblue" stroke="midnightblue" points="689.042,-169.392 681.809,-161.65 682.635,-172.213 689.042,-169.392"/>
</g>
<!-- Node33 -->
<g id="node33" class="node"><title>Node33</title>
<polygon fill="none" stroke="#bfbfbf" points="734.5,-210.5 734.5,-229.5 803.5,-229.5 803.5,-210.5 734.5,-210.5"/>
<text text-anchor="middle" x="769" y="-217.5" font-family="Helvetica,sans-Serif" font-size="10.00">TObjArray.h</text>
</g>
<!-- Node32&#45;&gt;Node33 -->
<g id="edge46" class="edge"><title>Node32&#45;&gt;Node33</title>
<path fill="none" stroke="midnightblue" d="M741.183,-278.372C745.996,-268.446 754.031,-251.874 760.231,-239.086"/>
<polygon fill="midnightblue" stroke="midnightblue" points="763.5,-240.366 764.713,-229.841 757.201,-237.312 763.5,-240.366"/>
</g>
<!-- Node34 -->
<g id="node34" class="node"><title>Node34</title>
<g id="a_node34"><a xlink:href="../../d4/d20/DetMatrixCache_8h.html" target="_top" xlink:title="DetectorsCommonDataFormats\l/DetMatrixCache.h">
<polygon fill="none" stroke="black" points="522,-205 522,-235 678,-235 678,-205 522,-205"/>
<text text-anchor="start" x="530" y="-223" font-family="Helvetica,sans-Serif" font-size="10.00">DetectorsCommonDataFormats</text>
<text text-anchor="middle" x="600" y="-212" font-family="Helvetica,sans-Serif" font-size="10.00">/DetMatrixCache.h</text>
</a>
</g>
</g>
<!-- Node32&#45;&gt;Node34 -->
<g id="edge48" class="edge"><title>Node32&#45;&gt;Node34</title>
<path fill="none" stroke="midnightblue" d="M719.09,-278.372C698.742,-268.569 664.937,-252.283 638.532,-239.563"/>
<polygon fill="midnightblue" stroke="midnightblue" points="639.705,-236.243 629.177,-235.056 636.667,-242.55 639.705,-236.243"/>
</g>
<!-- Node34&#45;&gt;Node4 -->
<g id="edge64" class="edge"><title>Node34&#45;&gt;Node4</title>
<path fill="none" stroke="midnightblue" d="M605.451,-204.912C612.89,-187.123 627.659,-156.385 648,-136 653.31,-130.678 757.785,-70.1145 765,-68 875.149,-35.7177 1703.8,-20.6275 1892.73,-17.5864"/>
<polygon fill="midnightblue" stroke="midnightblue" points="1892.81,-21.0857 1902.75,-17.4268 1892.7,-14.0866 1892.81,-21.0857"/>
</g>
<!-- Node34&#45;&gt;Node7 -->
<g id="edge51" class="edge"><title>Node34&#45;&gt;Node7</title>
<path fill="none" stroke="midnightblue" d="M678.24,-209.012C793.731,-194.268 1004.81,-167.322 1084.97,-157.089"/>
<polygon fill="midnightblue" stroke="midnightblue" points="1085.48,-160.553 1094.95,-155.815 1084.59,-153.609 1085.48,-160.553"/>
</g>
<!-- Node34&#45;&gt;Node12 -->
<g id="edge50" class="edge"><title>Node34&#45;&gt;Node12</title>
<path fill="none" stroke="midnightblue" d="M585.488,-204.784C563.915,-183.247 522.741,-140.55 493,-100 477.281,-78.5691 462.206,-51.7819 453.026,-34.534"/>
<polygon fill="midnightblue" stroke="midnightblue" points="456.083,-32.8273 448.342,-25.5937 449.883,-36.0759 456.083,-32.8273"/>
</g>
<!-- Node34&#45;&gt;Node21 -->
<g id="edge63" class="edge"><title>Node34&#45;&gt;Node21</title>
<path fill="none" stroke="midnightblue" d="M678.303,-209.186C693.769,-207.365 709.889,-205.551 725,-204 912.253,-184.783 959.805,-187.775 1147,-168 1162.03,-166.412 1178.11,-164.518 1193.43,-162.62"/>
<polygon fill="midnightblue" stroke="midnightblue" points="1193.88,-166.091 1203.37,-161.375 1193.01,-159.145 1193.88,-166.091"/>
</g>
<!-- Node35 -->
<g id="node35" class="node"><title>Node35</title>
<polygon fill="none" stroke="#bfbfbf" points="195.5,-142.5 195.5,-161.5 266.5,-161.5 266.5,-142.5 195.5,-142.5"/>
<text text-anchor="middle" x="231" y="-149.5" font-family="Helvetica,sans-Serif" font-size="10.00">FairLogger.h</text>
</g>
<!-- Node34&#45;&gt;Node35 -->
<g id="edge49" class="edge"><title>Node34&#45;&gt;Node35</title>
<path fill="none" stroke="midnightblue" d="M521.708,-210.366C455.637,-202.203 358.849,-188.181 276,-168 272.062,-167.041 267.975,-165.896 263.941,-164.672"/>
<polygon fill="midnightblue" stroke="midnightblue" points="264.733,-161.25 254.142,-161.529 262.595,-167.916 264.733,-161.25"/>
</g>
<!-- Node36 -->
<g id="node36" class="node"><title>Node36</title>
<g id="a_node36"><a xlink:href="../../d6/d31/DetID_8h.html" target="_top" xlink:title="DetectorsCommonDataFormats\l/DetID.h">
<polygon fill="none" stroke="black" points="285,-137 285,-167 441,-167 441,-137 285,-137"/>
<text text-anchor="start" x="293" y="-155" font-family="Helvetica,sans-Serif" font-size="10.00">DetectorsCommonDataFormats</text>
<text text-anchor="middle" x="363" y="-144" font-family="Helvetica,sans-Serif" font-size="10.00">/DetID.h</text>
</a>
</g>
</g>
<!-- Node34&#45;&gt;Node36 -->
<g id="edge52" class="edge"><title>Node34&#45;&gt;Node36</title>
<path fill="none" stroke="midnightblue" d="M549.448,-204.922C512.477,-194.627 462.179,-180.619 423.141,-169.748"/>
<polygon fill="midnightblue" stroke="midnightblue" points="424.046,-166.367 413.474,-167.056 422.169,-173.111 424.046,-166.367"/>
</g>
<!-- Node36&#45;&gt;Node4 -->
<g id="edge53" class="edge"><title>Node36&#45;&gt;Node4</title>
<path fill="none" stroke="midnightblue" d="M441.182,-147.883C504.701,-143.048 595.489,-130.818 669,-100 691.3,-90.6512 690.166,-75.9571 713,-68 826.577,-28.4205 1698.81,-18.9189 1892.83,-17.2866"/>
<polygon fill="midnightblue" stroke="midnightblue" points="1892.88,-20.7865 1902.85,-17.2044 1892.82,-13.7867 1892.88,-20.7865"/>
</g>
<!-- Node36&#45;&gt;Node12 -->
<g id="edge54" class="edge"><title>Node36&#45;&gt;Node12</title>
<path fill="none" stroke="midnightblue" d="M379.76,-136.75C390.156,-127.204 403.167,-113.881 412,-100 424.99,-79.5855 434.066,-53.0693 439.153,-35.5672"/>
<polygon fill="midnightblue" stroke="midnightblue" points="442.639,-36.0928 441.921,-25.5222 435.89,-34.2331 442.639,-36.0928"/>
</g>
<!-- Node37 -->
<g id="node37" class="node"><title>Node37</title>
<polygon fill="none" stroke="#bfbfbf" points="230.5,-74.5 230.5,-93.5 271.5,-93.5 271.5,-74.5 230.5,-74.5"/>
<text text-anchor="middle" x="251" y="-81.5" font-family="Helvetica,sans-Serif" font-size="10.00">bitset</text>
</g>
<!-- Node36&#45;&gt;Node37 -->
<g id="edge55" class="edge"><title>Node36&#45;&gt;Node37</title>
<path fill="none" stroke="midnightblue" d="M338.973,-136.841C319.948,-125.63 293.519,-110.056 274.604,-98.9096"/>
<polygon fill="midnightblue" stroke="midnightblue" points="276.125,-95.7435 265.733,-93.6819 272.571,-101.774 276.125,-95.7435"/>
</g>
<!-- Node38 -->
<g id="node38" class="node"><title>Node38</title>
<polygon fill="none" stroke="#bfbfbf" points="289.5,-74.5 289.5,-93.5 338.5,-93.5 338.5,-74.5 289.5,-74.5"/>
<text text-anchor="middle" x="314" y="-81.5" font-family="Helvetica,sans-Serif" font-size="10.00">cassert</text>
</g>
<!-- Node36&#45;&gt;Node38 -->
<g id="edge56" class="edge"><title>Node36&#45;&gt;Node38</title>
<path fill="none" stroke="midnightblue" d="M352.368,-136.679C344.803,-126.49 334.609,-112.759 326.63,-102.011"/>
<polygon fill="midnightblue" stroke="midnightblue" points="329.326,-99.7711 320.554,-93.8283 323.705,-103.944 329.326,-99.7711"/>
</g>
<!-- Node39 -->
<g id="node39" class="node"><title>Node39</title>
<polygon fill="none" stroke="#bfbfbf" points="357,-74.5 357,-93.5 403,-93.5 403,-74.5 357,-74.5"/>
<text text-anchor="middle" x="380" y="-81.5" font-family="Helvetica,sans-Serif" font-size="10.00">cstdint</text>
</g>
<!-- Node36&#45;&gt;Node39 -->
<g id="edge57" class="edge"><title>Node36&#45;&gt;Node39</title>
<path fill="none" stroke="midnightblue" d="M366.689,-136.679C369.182,-126.999 372.499,-114.123 375.198,-103.645"/>
<polygon fill="midnightblue" stroke="midnightblue" points="378.621,-104.385 377.726,-93.8283 371.842,-102.639 378.621,-104.385"/>
</g>
<!-- Node40 -->
<g id="node40" class="node"><title>Node40</title>
<polygon fill="none" stroke="#bfbfbf" points="150,-74.5 150,-93.5 212,-93.5 212,-74.5 150,-74.5"/>
<text text-anchor="middle" x="181" y="-81.5" font-family="Helvetica,sans-Serif" font-size="10.00">type_traits</text>
</g>
<!-- Node36&#45;&gt;Node40 -->
<g id="edge58" class="edge"><title>Node36&#45;&gt;Node40</title>
<path fill="none" stroke="midnightblue" d="M323.466,-136.968C294.948,-126.805 255.549,-112.682 221,-100 218.476,-99.0736 215.865,-98.1088 213.242,-97.135"/>
<polygon fill="midnightblue" stroke="midnightblue" points="214.417,-93.8379 203.825,-93.622 211.971,-100.396 214.417,-93.8379"/>
</g>
<!-- Node41 -->
<g id="node41" class="node"><title>Node41</title>
<g id="a_node41"><a xlink:href="../../d9/d52/Common_2MathUtils_2include_2MathUtils_2Utils_8h.html" target="_top" xlink:title="MathUtils/Utils.h">
<polygon fill="none" stroke="black" points="42,-74.5 42,-93.5 132,-93.5 132,-74.5 42,-74.5"/>
<text text-anchor="middle" x="87" y="-81.5" font-family="Helvetica,sans-Serif" font-size="10.00">MathUtils/Utils.h</text>
</a>
</g>
</g>
<!-- Node36&#45;&gt;Node41 -->
<g id="edge59" class="edge"><title>Node36&#45;&gt;Node41</title>
<path fill="none" stroke="midnightblue" d="M298.215,-136.926C253.839,-127.088 193.707,-113.367 141,-100 136.352,-98.8212 131.493,-97.5404 126.675,-96.2405"/>
<polygon fill="midnightblue" stroke="midnightblue" points="127.496,-92.8366 116.927,-93.5722 125.648,-99.5882 127.496,-92.8366"/>
</g>
<!-- Node41&#45;&gt;Node12 -->
<g id="edge60" class="edge"><title>Node41&#45;&gt;Node12</title>
<path fill="none" stroke="midnightblue" d="M115.726,-74.4225C123.853,-72.1589 132.737,-69.8378 141,-68 240.587,-45.8506 360.486,-28.3317 414.767,-20.8866"/>
<polygon fill="midnightblue" stroke="midnightblue" points="415.285,-24.3484 424.722,-19.5335 414.342,-17.4122 415.285,-24.3484"/>
</g>
<!-- Node42 -->
<g id="node42" class="node"><title>Node42</title>
<polygon fill="none" stroke="#bfbfbf" points="0,-6.5 0,-25.5 44,-25.5 44,-6.5 0,-6.5"/>
<text text-anchor="middle" x="22" y="-13.5" font-family="Helvetica,sans-Serif" font-size="10.00">cmath</text>
</g>
<!-- Node41&#45;&gt;Node42 -->
<g id="edge61" class="edge"><title>Node41&#45;&gt;Node42</title>
<path fill="none" stroke="midnightblue" d="M78.5024,-74.3717C68.2433,-63.9547 50.7746,-46.2173 37.9705,-33.2162"/>
<polygon fill="midnightblue" stroke="midnightblue" points="40.2178,-30.5101 30.7072,-25.8411 35.2304,-35.4219 40.2178,-30.5101"/>
</g>
<!-- Node43 -->
<g id="node43" class="node"><title>Node43</title>
<g id="a_node43"><a xlink:href="../../d6/d84/MathConstants_8h.html" target="_top" xlink:title="useful math constants ">
<polygon fill="none" stroke="black" points="62.5,-6.5 62.5,-25.5 241.5,-25.5 241.5,-6.5 62.5,-6.5"/>
<text text-anchor="middle" x="152" y="-13.5" font-family="Helvetica,sans-Serif" font-size="10.00">CommonConstants/MathConstants.h</text>
</a>
</g>
</g>
<!-- Node41&#45;&gt;Node43 -->
<g id="edge62" class="edge"><title>Node41&#45;&gt;Node43</title>
<path fill="none" stroke="midnightblue" d="M95.4976,-74.3717C105.757,-63.9547 123.225,-46.2173 136.029,-33.2162"/>
<polygon fill="midnightblue" stroke="midnightblue" points="138.77,-35.4219 143.293,-25.8411 133.782,-30.5101 138.77,-35.4219"/>
</g>
</g>
</svg>
