<?xml version="1.0" encoding="UTF-8" standalone="no"?>
<!DOCTYPE svg PUBLIC "-//W3C//DTD SVG 1.1//EN"
 "http://www.w3.org/Graphics/SVG/1.1/DTD/svg11.dtd">
<!-- Generated by graphviz version 2.36.0 (20140111.2315)
 -->
<!-- Title: /home/travis/build/AliceO2Group/AliceO2/Detectors/ITSMFT Pages: 1 -->
<svg width="442pt" height="447pt"
 viewBox="0.00 0.00 442.00 447.00" xmlns="http://www.w3.org/2000/svg" xmlns:xlink="http://www.w3.org/1999/xlink">
<g id="graph0" class="graph" transform="scale(1 1) rotate(0) translate(4 443)">
<title>/home/travis/build/AliceO2Group/AliceO2/Detectors/ITSMFT</title>
<g id="clust1" class="cluster"><title>clusterdir_051dca18e802f8e9474f2e30d29c04e0</title>
<g id="a_clust1"><a xlink:href="dir_051dca18e802f8e9474f2e30d29c04e0.html" target="_top" xlink:title="Detectors">
<polygon fill="#ddddee" stroke="black" points="248,-200 248,-431 426,-431 426,-200 248,-200"/>
<text text-anchor="middle" x="337" y="-419" font-family="Helvetica,sans-Serif" font-size="10.00">Detectors</text>
</a>
</g>
</g>
<g id="clust2" class="cluster"><title>clusterdir_1306292b77b40360479b729ac9ee7efe</title>
<g id="a_clust2"><a xlink:href="dir_1306292b77b40360479b729ac9ee7efe.html" target="_top">
<polygon fill="#eeeeff" stroke="black" points="256,-208 256,-404 418,-404 418,-208 256,-208"/>
</a>
</g>
</g>
<!-- dir_1306292b77b40360479b729ac9ee7efe -->
<g id="node1" class="node"><title>dir_1306292b77b40360479b729ac9ee7efe</title>
<text text-anchor="middle" x="383" y="-375.5" font-family="Helvetica,sans-Serif" font-size="10.00">ITSMFT</text>
</g>
<!-- dir_85bf31a2e8d306e7598ffcb73f8df6bf -->
<g id="node2" class="node"><title>dir_85bf31a2e8d306e7598ffcb73f8df6bf</title>
<g id="a_node2"><a xlink:href="dir_85bf31a2e8d306e7598ffcb73f8df6bf.html" target="_top" xlink:title="common">
<polygon fill="white" stroke="red" points="350,-252 296,-252 296,-216 350,-216 350,-252"/>
<text text-anchor="middle" x="323" y="-231.5" font-family="Helvetica,sans-Serif" font-size="10.00">common</text>
</a>
</g>
</g>
<!-- dir_4ab6b4cc6a7edbff49100e9123df213f -->
<g id="node6" class="node"><title>dir_4ab6b4cc6a7edbff49100e9123df213f</title>
<g id="a_node6"><a xlink:href="dir_4ab6b4cc6a7edbff49100e9123df213f.html" target="_top" xlink:title="Common">
<polygon fill="none" stroke="red" points="163.5,-180 108.5,-180 108.5,-144 163.5,-144 163.5,-180"/>
<text text-anchor="middle" x="136" y="-159.5" font-family="Helvetica,sans-Serif" font-size="10.00">Common</text>
</a>
</g>
</g>
<!-- dir_85bf31a2e8d306e7598ffcb73f8df6bf&#45;&gt;dir_4ab6b4cc6a7edbff49100e9123df213f -->
<g id="edge17" class="edge"><title>dir_85bf31a2e8d306e7598ffcb73f8df6bf&#45;&gt;dir_4ab6b4cc6a7edbff49100e9123df213f</title>
<path fill="none" stroke="black" d="M295.871,-220.096C281.994,-213.702 264.75,-206.072 249,-200 224.112,-190.406 195.561,-181.07 173.384,-174.177"/>
<polygon fill="black" stroke="black" points="174.267,-170.787 163.679,-171.19 172.207,-177.477 174.267,-170.787"/>
<g id="a_edge17&#45;headlabel"><a xlink:href="dir_000180_000016.html" target="_top" xlink:title="2">
<text text-anchor="middle" x="178.537" y="-166.631" font-family="Helvetica,sans-Serif" font-size="10.00">2</text>
</a>
</g>
</g>
<!-- dir_37c90836491b695b472bf98d1be8336b -->
<g id="node8" class="node"><title>dir_37c90836491b695b472bf98d1be8336b</title>
<g id="a_node8"><a xlink:href="dir_37c90836491b695b472bf98d1be8336b.html" target="_top" xlink:title="Base">
<polygon fill="none" stroke="red" points="289,-36 235,-36 235,-0 289,-0 289,-36"/>
<text text-anchor="middle" x="262" y="-15.5" font-family="Helvetica,sans-Serif" font-size="10.00">Base</text>
</a>
</g>
</g>
<!-- dir_85bf31a2e8d306e7598ffcb73f8df6bf&#45;&gt;dir_37c90836491b695b472bf98d1be8336b -->
<g id="edge18" class="edge"><title>dir_85bf31a2e8d306e7598ffcb73f8df6bf&#45;&gt;dir_37c90836491b695b472bf98d1be8336b</title>
<path fill="none" stroke="black" d="M324.74,-215.714C327.089,-185.292 328.85,-120.789 308,-72 303.574,-61.6419 296.345,-51.8528 288.915,-43.5727"/>
<polygon fill="black" stroke="black" points="291.249,-40.9487 281.815,-36.127 286.183,-45.7795 291.249,-40.9487"/>
<g id="a_edge18&#45;headlabel"><a xlink:href="dir_000180_000139.html" target="_top" xlink:title="2">
<text text-anchor="middle" x="295.784" y="-39.0907" font-family="Helvetica,sans-Serif" font-size="10.00">2</text>
</a>
</g>
</g>
<!-- dir_2171f7ec022c5423887b07c69b2f5b48 -->
<g id="node10" class="node"><title>dir_2171f7ec022c5423887b07c69b2f5b48</title>
<g id="a_node10"><a xlink:href="dir_2171f7ec022c5423887b07c69b2f5b48.html" target="_top" xlink:title="DataFormats">
<polygon fill="none" stroke="red" points="299,-108 225,-108 225,-72 299,-72 299,-108"/>
<text text-anchor="middle" x="262" y="-87.5" font-family="Helvetica,sans-Serif" font-size="10.00">DataFormats</text>
</a>
</g>
</g>
<!-- dir_85bf31a2e8d306e7598ffcb73f8df6bf&#45;&gt;dir_2171f7ec022c5423887b07c69b2f5b48 -->
<g id="edge19" class="edge"><title>dir_85bf31a2e8d306e7598ffcb73f8df6bf&#45;&gt;dir_2171f7ec022c5423887b07c69b2f5b48</title>
<path fill="none" stroke="black" d="M315.642,-215.871C305.154,-191.457 285.81,-146.426 273.442,-117.635"/>
<polygon fill="black" stroke="black" points="276.547,-115.996 269.384,-108.189 270.115,-118.759 276.547,-115.996"/>
<g id="a_edge19&#45;headlabel"><a xlink:href="dir_000180_000052.html" target="_top" xlink:title="17">
<text text-anchor="middle" x="280.575" y="-115.678" font-family="Helvetica,sans-Serif" font-size="10.00">17</text>
</a>
</g>
</g>
<!-- dir_871aad07cbf94d6cd423c3d8d5bdf4e9 -->
<g id="node3" class="node"><title>dir_871aad07cbf94d6cd423c3d8d5bdf4e9</title>
<g id="a_node3"><a xlink:href="dir_871aad07cbf94d6cd423c3d8d5bdf4e9.html" target="_top" xlink:title="ITS">
<polygon fill="white" stroke="red" points="390,-324 336,-324 336,-288 390,-288 390,-324"/>
<text text-anchor="middle" x="363" y="-303.5" font-family="Helvetica,sans-Serif" font-size="10.00">ITS</text>
</a>
</g>
</g>
<!-- dir_871aad07cbf94d6cd423c3d8d5bdf4e9&#45;&gt;dir_85bf31a2e8d306e7598ffcb73f8df6bf -->
<g id="edge4" class="edge"><title>dir_871aad07cbf94d6cd423c3d8d5bdf4e9&#45;&gt;dir_85bf31a2e8d306e7598ffcb73f8df6bf</title>
<path fill="none" stroke="black" d="M353.112,-287.697C348.511,-279.644 342.94,-269.894 337.847,-260.982"/>
<polygon fill="black" stroke="black" points="340.774,-259.05 332.774,-252.104 334.696,-262.523 340.774,-259.05"/>
<g id="a_edge4&#45;headlabel"><a xlink:href="dir_000030_000180.html" target="_top" xlink:title="26">
<text text-anchor="middle" x="345.023" y="-258.263" font-family="Helvetica,sans-Serif" font-size="10.00">26</text>
</a>
</g>
</g>
<!-- dir_871aad07cbf94d6cd423c3d8d5bdf4e9&#45;&gt;dir_4ab6b4cc6a7edbff49100e9123df213f -->
<g id="edge1" class="edge"><title>dir_871aad07cbf94d6cd423c3d8d5bdf4e9&#45;&gt;dir_4ab6b4cc6a7edbff49100e9123df213f</title>
<path fill="none" stroke="black" d="M335.727,-291.411C332.815,-290.174 329.869,-289.01 327,-288 262.328,-265.242 229.993,-295.499 177,-252 157.964,-236.374 147.346,-209.961 141.714,-189.957"/>
<polygon fill="black" stroke="black" points="145.079,-188.988 139.204,-180.171 138.298,-190.727 145.079,-188.988"/>
<g id="a_edge1&#45;headlabel"><a xlink:href="dir_000030_000016.html" target="_top" xlink:title="23">
<text text-anchor="middle" x="148.722" y="-189.265" font-family="Helvetica,sans-Serif" font-size="10.00">23</text>
</a>
</g>
</g>
<!-- dir_a597e8e061b11201a1dff411feb10d0b -->
<g id="node7" class="node"><title>dir_a597e8e061b11201a1dff411feb10d0b</title>
<g id="a_node7"><a xlink:href="dir_a597e8e061b11201a1dff411feb10d0b.html" target="_top" xlink:title="TPC">
<polygon fill="none" stroke="red" points="240,-252 186,-252 186,-216 240,-216 240,-252"/>
<text text-anchor="middle" x="213" y="-231.5" font-family="Helvetica,sans-Serif" font-size="10.00">TPC</text>
</a>
</g>
</g>
<!-- dir_871aad07cbf94d6cd423c3d8d5bdf4e9&#45;&gt;dir_a597e8e061b11201a1dff411feb10d0b -->
<g id="edge2" class="edge"><title>dir_871aad07cbf94d6cd423c3d8d5bdf4e9&#45;&gt;dir_a597e8e061b11201a1dff411feb10d0b</title>
<path fill="none" stroke="black" d="M335.881,-292.173C332.886,-290.762 329.879,-289.349 327,-288 301.06,-275.845 271.753,-262.223 249.35,-251.832"/>
<polygon fill="black" stroke="black" points="250.746,-248.621 240.201,-247.591 247.801,-254.972 250.746,-248.621"/>
<g id="a_edge2&#45;headlabel"><a xlink:href="dir_000030_000163.html" target="_top" xlink:title="1">
<text text-anchor="middle" x="255.201" y="-245.057" font-family="Helvetica,sans-Serif" font-size="10.00">1</text>
</a>
</g>
</g>
<!-- dir_871aad07cbf94d6cd423c3d8d5bdf4e9&#45;&gt;dir_37c90836491b695b472bf98d1be8336b -->
<g id="edge3" class="edge"><title>dir_871aad07cbf94d6cd423c3d8d5bdf4e9&#45;&gt;dir_37c90836491b695b472bf98d1be8336b</title>
<path fill="none" stroke="black" d="M368.026,-287.95C379.185,-246.309 401.333,-138.013 352,-72 338.597,-54.0649 317.185,-41.1011 298.609,-32.4853"/>
<polygon fill="black" stroke="black" points="299.775,-29.1752 289.211,-28.3729 296.969,-35.5881 299.775,-29.1752"/>
<g id="a_edge3&#45;headlabel"><a xlink:href="dir_000030_000139.html" target="_top" xlink:title="5">
<text text-anchor="middle" x="304.206" y="-25.515" font-family="Helvetica,sans-Serif" font-size="10.00">5</text>
</a>
</g>
</g>
<!-- dir_871aad07cbf94d6cd423c3d8d5bdf4e9&#45;&gt;dir_2171f7ec022c5423887b07c69b2f5b48 -->
<g id="edge5" class="edge"><title>dir_871aad07cbf94d6cd423c3d8d5bdf4e9&#45;&gt;dir_2171f7ec022c5423887b07c69b2f5b48</title>
<path fill="none" stroke="black" d="M365.775,-287.906C368.494,-266.501 370.715,-229.108 359,-200 345.124,-165.525 315.297,-134.767 292.358,-114.788"/>
<polygon fill="black" stroke="black" points="294.459,-111.98 284.569,-108.182 289.931,-117.319 294.459,-111.98"/>
<g id="a_edge5&#45;headlabel"><a xlink:href="dir_000030_000052.html" target="_top" xlink:title="50">
<text text-anchor="middle" x="299.037" y="-109.64" font-family="Helvetica,sans-Serif" font-size="10.00">50</text>
</a>
</g>
</g>
<!-- dir_f39d1cd569ca2d16022b762a0e4a53c8 -->
<g id="node4" class="node"><title>dir_f39d1cd569ca2d16022b762a0e4a53c8</title>
<g id="a_node4"><a xlink:href="dir_f39d1cd569ca2d16022b762a0e4a53c8.html" target="_top" xlink:title="MFT">
<polygon fill="white" stroke="red" points="318,-324 264,-324 264,-288 318,-288 318,-324"/>
<text text-anchor="middle" x="291" y="-303.5" font-family="Helvetica,sans-Serif" font-size="10.00">MFT</text>
</a>
</g>
</g>
<!-- dir_f39d1cd569ca2d16022b762a0e4a53c8&#45;&gt;dir_85bf31a2e8d306e7598ffcb73f8df6bf -->
<g id="edge8" class="edge"><title>dir_f39d1cd569ca2d16022b762a0e4a53c8&#45;&gt;dir_85bf31a2e8d306e7598ffcb73f8df6bf</title>
<path fill="none" stroke="black" d="M298.91,-287.697C302.553,-279.728 306.954,-270.1 310.994,-261.264"/>
<polygon fill="black" stroke="black" points="314.206,-262.654 315.181,-252.104 307.84,-259.744 314.206,-262.654"/>
<g id="a_edge8&#45;headlabel"><a xlink:href="dir_000091_000180.html" target="_top" xlink:title="18">
<text text-anchor="middle" x="315.294" y="-264.604" font-family="Helvetica,sans-Serif" font-size="10.00">18</text>
</a>
</g>
</g>
<!-- dir_f39d1cd569ca2d16022b762a0e4a53c8&#45;&gt;dir_4ab6b4cc6a7edbff49100e9123df213f -->
<g id="edge6" class="edge"><title>dir_f39d1cd569ca2d16022b762a0e4a53c8&#45;&gt;dir_4ab6b4cc6a7edbff49100e9123df213f</title>
<path fill="none" stroke="black" d="M263.999,-303.645C230.054,-300.362 172.754,-289.264 144,-252 130.566,-234.59 129.556,-209.173 131.331,-189.954"/>
<polygon fill="black" stroke="black" points="134.808,-190.355 132.542,-180.005 127.859,-189.509 134.808,-190.355"/>
<g id="a_edge6&#45;headlabel"><a xlink:href="dir_000091_000016.html" target="_top" xlink:title="8">
<text text-anchor="middle" x="137.192" y="-191.766" font-family="Helvetica,sans-Serif" font-size="10.00">8</text>
</a>
</g>
</g>
<!-- dir_f39d1cd569ca2d16022b762a0e4a53c8&#45;&gt;dir_37c90836491b695b472bf98d1be8336b -->
<g id="edge7" class="edge"><title>dir_f39d1cd569ca2d16022b762a0e4a53c8&#45;&gt;dir_37c90836491b695b472bf98d1be8336b</title>
<path fill="none" stroke="black" d="M318.345,-291.62C333.325,-282.672 350.526,-269.349 359,-252 369.143,-231.234 361.739,-222.948 359,-200 352.062,-141.879 359.385,-121.408 328,-72 320.201,-59.7224 308.567,-49.0161 297.229,-40.5013"/>
<polygon fill="black" stroke="black" points="299.26,-37.6505 289.085,-34.6973 295.197,-43.3511 299.26,-37.6505"/>
<g id="a_edge7&#45;headlabel"><a xlink:href="dir_000091_000139.html" target="_top" xlink:title="3">
<text text-anchor="middle" x="303.835" y="-34.9244" font-family="Helvetica,sans-Serif" font-size="10.00">3</text>
</a>
</g>
</g>
<!-- dir_f01815b857f9009bea48e2cb39492245 -->
<g id="node9" class="node"><title>dir_f01815b857f9009bea48e2cb39492245</title>
<g id="a_node9"><a xlink:href="dir_f01815b857f9009bea48e2cb39492245.html" target="_top" xlink:title="Passive">
<polygon fill="none" stroke="red" points="54,-252 0,-252 0,-216 54,-216 54,-252"/>
<text text-anchor="middle" x="27" y="-231.5" font-family="Helvetica,sans-Serif" font-size="10.00">Passive</text>
</a>
</g>
</g>
<!-- dir_f39d1cd569ca2d16022b762a0e4a53c8&#45;&gt;dir_f01815b857f9009bea48e2cb39492245 -->
<g id="edge9" class="edge"><title>dir_f39d1cd569ca2d16022b762a0e4a53c8&#45;&gt;dir_f01815b857f9009bea48e2cb39492245</title>
<path fill="none" stroke="black" d="M263.742,-297.772C216.092,-285.138 117.622,-259.028 63.9114,-244.787"/>
<polygon fill="black" stroke="black" points="64.6731,-241.368 54.11,-242.188 62.8789,-248.134 64.6731,-241.368"/>
<g id="a_edge9&#45;headlabel"><a xlink:href="dir_000091_000260.html" target="_top" xlink:title="1">
<text text-anchor="middle" x="68.8753" y="-237.045" font-family="Helvetica,sans-Serif" font-size="10.00">1</text>
</a>
</g>
</g>
<!-- dir_f39d1cd569ca2d16022b762a0e4a53c8&#45;&gt;dir_2171f7ec022c5423887b07c69b2f5b48 -->
<g id="edge10" class="edge"><title>dir_f39d1cd569ca2d16022b762a0e4a53c8&#45;&gt;dir_2171f7ec022c5423887b07c69b2f5b48</title>
<path fill="none" stroke="black" d="M288.676,-287.849C283.659,-250.832 271.782,-163.181 265.711,-118.386"/>
<polygon fill="black" stroke="black" points="269.146,-117.672 264.335,-108.232 262.21,-118.612 269.146,-117.672"/>
<g id="a_edge10&#45;headlabel"><a xlink:href="dir_000091_000052.html" target="_top" xlink:title="8">
<text text-anchor="middle" x="272.443" y="-118.353" font-family="Helvetica,sans-Serif" font-size="10.00">8</text>
</a>
</g>
</g>
<!-- dir_8a13aabf51651f1b5f53d57129f566b6 -->
<g id="node5" class="node"><title>dir_8a13aabf51651f1b5f53d57129f566b6</title>
<g id="a_node5"><a xlink:href="dir_8a13aabf51651f1b5f53d57129f566b6.html" target="_top" xlink:title="test">
<polygon fill="white" stroke="red" points="338,-396 284,-396 284,-360 338,-360 338,-396"/>
<text text-anchor="middle" x="311" y="-375.5" font-family="Helvetica,sans-Serif" font-size="10.00">test</text>
</a>
</g>
</g>
<!-- dir_8a13aabf51651f1b5f53d57129f566b6&#45;&gt;dir_85bf31a2e8d306e7598ffcb73f8df6bf -->
<g id="edge22" class="edge"><title>dir_8a13aabf51651f1b5f53d57129f566b6&#45;&gt;dir_85bf31a2e8d306e7598ffcb73f8df6bf</title>
<path fill="none" stroke="black" d="M338.109,-364.38C361.374,-352.925 392.2,-336.033 399,-324 406.872,-310.07 406.402,-302.185 399,-288 390.496,-271.702 374.439,-259.393 359.267,-250.76"/>
<polygon fill="black" stroke="black" points="360.486,-247.445 350.011,-245.857 357.209,-253.63 360.486,-247.445"/>
<g id="a_edge22&#45;headlabel"><a xlink:href="dir_000239_000180.html" target="_top" xlink:title="4">
<text text-anchor="middle" x="364.991" y="-244.118" font-family="Helvetica,sans-Serif" font-size="10.00">4</text>
</a>
</g>
</g>
<!-- dir_8a13aabf51651f1b5f53d57129f566b6&#45;&gt;dir_871aad07cbf94d6cd423c3d8d5bdf4e9 -->
<g id="edge20" class="edge"><title>dir_8a13aabf51651f1b5f53d57129f566b6&#45;&gt;dir_871aad07cbf94d6cd423c3d8d5bdf4e9</title>
<path fill="none" stroke="black" d="M323.854,-359.697C330.025,-351.389 337.537,-341.277 344.324,-332.141"/>
<polygon fill="black" stroke="black" points="347.14,-334.219 350.294,-324.104 341.521,-330.045 347.14,-334.219"/>
<g id="a_edge20&#45;headlabel"><a xlink:href="dir_000239_000030.html" target="_top" xlink:title="1">
<text text-anchor="middle" x="347.276" y="-336.298" font-family="Helvetica,sans-Serif" font-size="10.00">1</text>
</a>
</g>
</g>
<!-- dir_8a13aabf51651f1b5f53d57129f566b6&#45;&gt;dir_4ab6b4cc6a7edbff49100e9123df213f -->
<g id="edge21" class="edge"><title>dir_8a13aabf51651f1b5f53d57129f566b6&#45;&gt;dir_4ab6b4cc6a7edbff49100e9123df213f</title>
<path fill="none" stroke="black" d="M283.762,-367.93C241.199,-352.099 160.346,-314.967 127,-252 116.881,-232.893 120.43,-208.246 125.773,-189.736"/>
<polygon fill="black" stroke="black" points="129.124,-190.75 128.851,-180.158 122.459,-188.608 129.124,-190.75"/>
<g id="a_edge21&#45;headlabel"><a xlink:href="dir_000239_000016.html" target="_top" xlink:title="2">
<text text-anchor="middle" x="130.727" y="-192.54" font-family="Helvetica,sans-Serif" font-size="10.00">2</text>
</a>
</g>
</g>
<!-- dir_4ab6b4cc6a7edbff49100e9123df213f&#45;&gt;dir_2171f7ec022c5423887b07c69b2f5b48 -->
<g id="edge11" class="edge"><title>dir_4ab6b4cc6a7edbff49100e9123df213f&#45;&gt;dir_2171f7ec022c5423887b07c69b2f5b48</title>
<path fill="none" stroke="black" d="M160.926,-143.876C176.73,-134.554 197.534,-122.919 216.196,-112.939"/>
<polygon fill="black" stroke="black" points="217.959,-115.966 225.154,-108.19 214.68,-109.781 217.959,-115.966"/>
<g id="a_edge11&#45;headlabel"><a xlink:href="dir_000016_000052.html" target="_top" xlink:title="1">
<text text-anchor="middle" x="216.113" y="-117.658" font-family="Helvetica,sans-Serif" font-size="10.00">1</text>
</a>
</g>
</g>
<!-- dir_a597e8e061b11201a1dff411feb10d0b&#45;&gt;dir_4ab6b4cc6a7edbff49100e9123df213f -->
<g id="edge12" class="edge"><title>dir_a597e8e061b11201a1dff411feb10d0b&#45;&gt;dir_4ab6b4cc6a7edbff49100e9123df213f</title>
<path fill="none" stroke="black" d="M193.966,-215.697C184.455,-207.05 172.793,-196.449 162.43,-187.027"/>
<polygon fill="black" stroke="black" points="164.569,-184.241 154.815,-180.104 159.86,-189.421 164.569,-184.241"/>
<g id="a_edge12&#45;headlabel"><a xlink:href="dir_000163_000016.html" target="_top" xlink:title="4">
<text text-anchor="middle" x="169.138" y="-182.058" font-family="Helvetica,sans-Serif" font-size="10.00">4</text>
</a>
</g>
</g>
<!-- dir_a597e8e061b11201a1dff411feb10d0b&#45;&gt;dir_37c90836491b695b472bf98d1be8336b -->
<g id="edge13" class="edge"><title>dir_a597e8e061b11201a1dff411feb10d0b&#45;&gt;dir_37c90836491b695b472bf98d1be8336b</title>
<path fill="none" stroke="black" d="M209.616,-215.824C204.448,-185.573 197.055,-121.324 216,-72 219.973,-61.6571 226.927,-51.9745 234.244,-43.7883"/>
<polygon fill="black" stroke="black" points="236.904,-46.0717 241.285,-36.4254 231.844,-41.2339 236.904,-46.0717"/>
<g id="a_edge13&#45;headlabel"><a xlink:href="dir_000163_000139.html" target="_top" xlink:title="1">
<text text-anchor="middle" x="236.471" y="-48.132" font-family="Helvetica,sans-Serif" font-size="10.00">1</text>
</a>
</g>
</g>
<!-- dir_a597e8e061b11201a1dff411feb10d0b&#45;&gt;dir_2171f7ec022c5423887b07c69b2f5b48 -->
<g id="edge14" class="edge"><title>dir_a597e8e061b11201a1dff411feb10d0b&#45;&gt;dir_2171f7ec022c5423887b07c69b2f5b48</title>
<path fill="none" stroke="black" d="M218.911,-215.871C227.298,-191.564 242.739,-146.819 252.679,-118.013"/>
<polygon fill="black" stroke="black" points="256.115,-118.784 256.068,-108.189 249.498,-116.501 256.115,-118.784"/>
<g id="a_edge14&#45;headlabel"><a xlink:href="dir_000163_000052.html" target="_top" xlink:title="77">
<text text-anchor="middle" x="257.627" y="-120.608" font-family="Helvetica,sans-Serif" font-size="10.00">77</text>
</a>
</g>
</g>
<!-- dir_37c90836491b695b472bf98d1be8336b&#45;&gt;dir_4ab6b4cc6a7edbff49100e9123df213f -->
<g id="edge15" class="edge"><title>dir_37c90836491b695b472bf98d1be8336b&#45;&gt;dir_4ab6b4cc6a7edbff49100e9123df213f</title>
<path fill="none" stroke="black" d="M234.963,-31.0423C216.947,-40.1706 193.77,-54.1796 178,-72 161.972,-90.1124 150.827,-115.407 144.066,-134.403"/>
<polygon fill="black" stroke="black" points="140.724,-133.362 140.843,-143.956 147.357,-135.6 140.724,-133.362"/>
<g id="a_edge15&#45;headlabel"><a xlink:href="dir_000139_000016.html" target="_top" xlink:title="5">
<text text-anchor="middle" x="139.183" y="-126.548" font-family="Helvetica,sans-Serif" font-size="10.00">5</text>
</a>
</g>
</g>
<!-- dir_37c90836491b695b472bf98d1be8336b&#45;&gt;dir_2171f7ec022c5423887b07c69b2f5b48 -->
<g id="edge16" class="edge"><title>dir_37c90836491b695b472bf98d1be8336b&#45;&gt;dir_2171f7ec022c5423887b07c69b2f5b48</title>
<path fill="none" stroke="black" d="M267.895,-36.1043C268.701,-43.7913 268.937,-53.0537 268.604,-61.6651"/>
<polygon fill="black" stroke="black" points="265.109,-61.4805 267.916,-71.6966 272.092,-61.9597 265.109,-61.4805"/>
<g id="a_edge16&#45;headlabel"><a xlink:href="dir_000139_000052.html" target="_top" xlink:title="5">
<text text-anchor="middle" x="262.522" y="-55.2" font-family="Helvetica,sans-Serif" font-size="10.00">5</text>
</a>
</g>
</g>
<!-- dir_f01815b857f9009bea48e2cb39492245&#45;&gt;dir_4ab6b4cc6a7edbff49100e9123df213f -->
<g id="edge23" class="edge"><title>dir_f01815b857f9009bea48e2cb39492245&#45;&gt;dir_4ab6b4cc6a7edbff49100e9123df213f</title>
<path fill="none" stroke="black" d="M46.8904,-215.804C53.4273,-210.479 60.8535,-204.764 68,-200 77.86,-193.427 88.9946,-186.992 99.3561,-181.38"/>
<polygon fill="black" stroke="black" points="101.021,-184.459 108.211,-176.678 97.7377,-178.277 101.021,-184.459"/>
<g id="a_edge23&#45;headlabel"><a xlink:href="dir_000260_000016.html" target="_top" xlink:title="1">
<text text-anchor="middle" x="99.1776" y="-186.153" font-family="Helvetica,sans-Serif" font-size="10.00">1</text>
</a>
</g>
</g>
<!-- dir_f01815b857f9009bea48e2cb39492245&#45;&gt;dir_37c90836491b695b472bf98d1be8336b -->
<g id="edge24" class="edge"><title>dir_f01815b857f9009bea48e2cb39492245&#45;&gt;dir_37c90836491b695b472bf98d1be8336b</title>
<path fill="none" stroke="black" d="M36.7492,-215.875C55.6229,-183.979 99.9958,-114.833 153,-72 174.67,-54.4885 203.082,-40.9133 225.466,-31.8872"/>
<polygon fill="black" stroke="black" points="226.921,-35.0763 234.965,-28.1809 224.377,-28.555 226.921,-35.0763"/>
<g id="a_edge24&#45;headlabel"><a xlink:href="dir_000260_000139.html" target="_top" xlink:title="16">
<text text-anchor="middle" x="224.605" y="-36.5278" font-family="Helvetica,sans-Serif" font-size="10.00">16</text>
</a>
</g>
</g>
<!-- dir_2171f7ec022c5423887b07c69b2f5b48&#45;&gt;dir_4ab6b4cc6a7edbff49100e9123df213f -->
<g id="edge25" class="edge"><title>dir_2171f7ec022c5423887b07c69b2f5b48&#45;&gt;dir_4ab6b4cc6a7edbff49100e9123df213f</title>
<path fill="none" stroke="black" d="M236.914,-108.218C218.482,-119.085 193.312,-133.066 172.659,-143.908"/>
<polygon fill="black" stroke="black" points="170.792,-140.934 163.528,-148.647 174.016,-147.147 170.792,-140.934"/>
<g id="a_edge25&#45;headlabel"><a xlink:href="dir_000052_000016.html" target="_top" xlink:title="15">
<text text-anchor="middle" x="172.675" y="-134.258" font-family="Helvetica,sans-Serif" font-size="10.00">15</text>
</a>
</g>
</g>
<!-- dir_2171f7ec022c5423887b07c69b2f5b48&#45;&gt;dir_37c90836491b695b472bf98d1be8336b -->
<g id="edge26" class="edge"><title>dir_2171f7ec022c5423887b07c69b2f5b48&#45;&gt;dir_37c90836491b695b472bf98d1be8336b</title>
<path fill="none" stroke="black" d="M256.084,-71.6966C255.289,-63.9827 255.062,-54.7125 255.405,-46.1124"/>
<polygon fill="black" stroke="black" points="258.898,-46.3243 256.105,-36.1043 251.915,-45.8356 258.898,-46.3243"/>
<g id="a_edge26&#45;headlabel"><a xlink:href="dir_000052_000139.html" target="_top" xlink:title="1">
<text text-anchor="middle" x="261.48" y="-47.6083" font-family="Helvetica,sans-Serif" font-size="10.00">1</text>
</a>
</g>
</g>
</g>
</svg>
