<?xml version="1.0" encoding="UTF-8" standalone="no"?>
<!DOCTYPE svg PUBLIC "-//W3C//DTD SVG 1.1//EN"
 "http://www.w3.org/Graphics/SVG/1.1/DTD/svg11.dtd">
<!-- Generated by graphviz version 2.36.0 (20140111.2315)
 -->
<!-- Title: /home/travis/build/AliceO2Group/AliceO2/DataFormats Pages: 1 -->
<svg width="464pt" height="320pt"
 viewBox="0.00 0.00 464.23 320.05" xmlns="http://www.w3.org/2000/svg" xmlns:xlink="http://www.w3.org/1999/xlink">
<g id="graph0" class="graph" transform="scale(1 1) rotate(0) translate(4 316.055)">
<title>/home/travis/build/AliceO2Group/AliceO2/DataFormats</title>
<g id="clust1" class="cluster"><title>clusterdir_2171f7ec022c5423887b07c69b2f5b48</title>
<g id="a_clust1"><a xlink:href="dir_2171f7ec022c5423887b07c69b2f5b48.html" target="_top">
<polygon fill="#eeeeff" stroke="black" points="8,-8 8,-276 340,-276 340,-8 8,-8"/>
</a>
</g>
</g>
<!-- dir_2171f7ec022c5423887b07c69b2f5b48 -->
<g id="node1" class="node"><title>dir_2171f7ec022c5423887b07c69b2f5b48</title>
<text text-anchor="middle" x="295" y="-247.5" font-family="Helvetica,sans-Serif" font-size="10.00">DataFormats</text>
</g>
<!-- dir_7924ba4398ae4560cd37376e44666c6d -->
<g id="node2" class="node"><title>dir_7924ba4398ae4560cd37376e44666c6d</title>
<g id="a_node2"><a xlink:href="dir_7924ba4398ae4560cd37376e44666c6d.html" target="_top" xlink:title="common">
<polygon fill="white" stroke="red" points="229,-52 175,-52 175,-16 229,-16 229,-52"/>
<text text-anchor="middle" x="202" y="-31.5" font-family="Helvetica,sans-Serif" font-size="10.00">common</text>
</a>
</g>
</g>
<!-- dir_2801adc79bf3c286b1b479858d2cade4 -->
<g id="node3" class="node"><title>dir_2801adc79bf3c286b1b479858d2cade4</title>
<g id="a_node3"><a xlink:href="dir_2801adc79bf3c286b1b479858d2cade4.html" target="_top" xlink:title="Detectors">
<polygon fill="white" stroke="red" points="238.25,-196 179.75,-196 179.75,-160 238.25,-160 238.25,-196"/>
<text text-anchor="middle" x="209" y="-175.5" font-family="Helvetica,sans-Serif" font-size="10.00">Detectors</text>
</a>
</g>
</g>
<!-- dir_2801adc79bf3c286b1b479858d2cade4&#45;&gt;dir_7924ba4398ae4560cd37376e44666c6d -->
<g id="edge8" class="edge"><title>dir_2801adc79bf3c286b1b479858d2cade4&#45;&gt;dir_7924ba4398ae4560cd37376e44666c6d</title>
<path fill="none" stroke="black" d="M181.66,-159.775C169.89,-150.718 157.383,-138.478 151,-124 144.546,-109.359 145.019,-102.84 151,-88 155.349,-77.209 163.062,-67.3859 171.194,-59.2085"/>
<polygon fill="black" stroke="black" points="173.79,-61.572 178.695,-52.1808 169.004,-56.4636 173.79,-61.572"/>
<g id="a_edge8&#45;headlabel"><a xlink:href="dir_000062_000053.html" target="_top" xlink:title="1">
<text text-anchor="middle" x="173.108" y="-63.6016" font-family="Helvetica,sans-Serif" font-size="10.00">1</text>
</a>
</g>
</g>
<!-- dir_d269712cc31e133b892a3b3f6424741a -->
<g id="node7" class="node"><title>dir_d269712cc31e133b892a3b3f6424741a</title>
<g id="a_node7"><a xlink:href="dir_d269712cc31e133b892a3b3f6424741a.html" target="_top" xlink:title="Reconstruction">
<polygon fill="white" stroke="red" points="243.25,-124 160.75,-124 160.75,-88 243.25,-88 243.25,-124"/>
<text text-anchor="middle" x="202" y="-103.5" font-family="Helvetica,sans-Serif" font-size="10.00">Reconstruction</text>
</a>
</g>
</g>
<!-- dir_2801adc79bf3c286b1b479858d2cade4&#45;&gt;dir_d269712cc31e133b892a3b3f6424741a -->
<g id="edge5" class="edge"><title>dir_2801adc79bf3c286b1b479858d2cade4&#45;&gt;dir_d269712cc31e133b892a3b3f6424741a</title>
<path fill="none" stroke="black" d="M201.354,-159.697C199.787,-151.983 198.633,-142.712 198.116,-134.112"/>
<polygon fill="black" stroke="black" points="201.614,-133.995 197.815,-124.104 194.617,-134.205 201.614,-133.995"/>
<g id="a_edge5&#45;headlabel"><a xlink:href="dir_000062_000110.html" target="_top" xlink:title="3">
<text text-anchor="middle" x="204.56" y="-135.003" font-family="Helvetica,sans-Serif" font-size="10.00">3</text>
</a>
</g>
</g>
<!-- dir_047746f9f311f49446db9474b7431d0d -->
<g id="node8" class="node"><title>dir_047746f9f311f49446db9474b7431d0d</title>
<g id="a_node8"><a xlink:href="dir_047746f9f311f49446db9474b7431d0d.html" target="_top" xlink:title="simulation">
<polygon fill="white" stroke="red" points="322.25,-124 261.75,-124 261.75,-88 322.25,-88 322.25,-124"/>
<text text-anchor="middle" x="292" y="-103.5" font-family="Helvetica,sans-Serif" font-size="10.00">simulation</text>
</a>
</g>
</g>
<!-- dir_2801adc79bf3c286b1b479858d2cade4&#45;&gt;dir_047746f9f311f49446db9474b7431d0d -->
<g id="edge7" class="edge"><title>dir_2801adc79bf3c286b1b479858d2cade4&#45;&gt;dir_047746f9f311f49446db9474b7431d0d</title>
<path fill="none" stroke="black" d="M223.601,-159.697C233.145,-150.881 245.842,-140.032 257.753,-130.474"/>
<polygon fill="black" stroke="black" points="260.142,-133.047 265.824,-124.104 255.806,-127.552 260.142,-133.047"/>
<g id="a_edge7&#45;headlabel"><a xlink:href="dir_000062_000129.html" target="_top" xlink:title="2">
<text text-anchor="middle" x="259.08" y="-135.003" font-family="Helvetica,sans-Serif" font-size="10.00">2</text>
</a>
</g>
</g>
<!-- dir_4ab6b4cc6a7edbff49100e9123df213f -->
<g id="node10" class="node"><title>dir_4ab6b4cc6a7edbff49100e9123df213f</title>
<g id="a_node10"><a xlink:href="dir_4ab6b4cc6a7edbff49100e9123df213f.html" target="_top" xlink:title="Common">
<polygon fill="none" stroke="red" points="403.5,-52 348.5,-52 348.5,-16 403.5,-16 403.5,-52"/>
<text text-anchor="middle" x="376" y="-31.5" font-family="Helvetica,sans-Serif" font-size="10.00">Common</text>
</a>
</g>
</g>
<!-- dir_2801adc79bf3c286b1b479858d2cade4&#45;&gt;dir_4ab6b4cc6a7edbff49100e9123df213f -->
<g id="edge6" class="edge"><title>dir_2801adc79bf3c286b1b479858d2cade4&#45;&gt;dir_4ab6b4cc6a7edbff49100e9123df213f</title>
<path fill="none" stroke="black" d="M238.464,-166.831C269.899,-155.533 317.058,-137.152 331,-124 349.018,-107.003 360.951,-81.2083 367.974,-61.7573"/>
<polygon fill="black" stroke="black" points="371.303,-62.8384 371.204,-52.244 364.674,-60.5874 371.303,-62.8384"/>
<g id="a_edge6&#45;headlabel"><a xlink:href="dir_000062_000016.html" target="_top" xlink:title="6">
<text text-anchor="middle" x="372.835" y="-64.6551" font-family="Helvetica,sans-Serif" font-size="10.00">6</text>
</a>
</g>
</g>
<!-- dir_183e7c4434404fe9096e1bd8673e1fcf -->
<g id="node4" class="node"><title>dir_183e7c4434404fe9096e1bd8673e1fcf</title>
<g id="a_node4"><a xlink:href="dir_183e7c4434404fe9096e1bd8673e1fcf.html" target="_top" xlink:title="Headers">
<polygon fill="white" stroke="red" points="76,-196 22,-196 22,-160 76,-160 76,-196"/>
<text text-anchor="middle" x="49" y="-175.5" font-family="Helvetica,sans-Serif" font-size="10.00">Headers</text>
</a>
</g>
</g>
<!-- dir_dfa95816b29f32ea9733fcc47ad2b363 -->
<g id="node5" class="node"><title>dir_dfa95816b29f32ea9733fcc47ad2b363</title>
<g id="a_node5"><a xlink:href="dir_dfa95816b29f32ea9733fcc47ad2b363.html" target="_top" xlink:title="Legacy">
<polygon fill="white" stroke="red" points="240,-268 186,-268 186,-232 240,-232 240,-268"/>
<text text-anchor="middle" x="213" y="-247.5" font-family="Helvetica,sans-Serif" font-size="10.00">Legacy</text>
</a>
</g>
</g>
<!-- dir_d462256f2f72f303235b8fb5b5a9f479 -->
<g id="node6" class="node"><title>dir_d462256f2f72f303235b8fb5b5a9f479</title>
<g id="a_node6"><a xlink:href="dir_d462256f2f72f303235b8fb5b5a9f479.html" target="_top" xlink:title="Parameters">
<polygon fill="white" stroke="red" points="167.25,-268 100.75,-268 100.75,-232 167.25,-232 167.25,-268"/>
<text text-anchor="middle" x="134" y="-247.5" font-family="Helvetica,sans-Serif" font-size="10.00">Parameters</text>
</a>
</g>
</g>
<!-- dir_d462256f2f72f303235b8fb5b5a9f479&#45;&gt;dir_2801adc79bf3c286b1b479858d2cade4 -->
<g id="edge19" class="edge"><title>dir_d462256f2f72f303235b8fb5b5a9f479&#45;&gt;dir_2801adc79bf3c286b1b479858d2cade4</title>
<path fill="none" stroke="black" d="M152.539,-231.697C161.803,-223.05 173.162,-212.449 183.257,-203.027"/>
<polygon fill="black" stroke="black" points="185.751,-205.486 190.674,-196.104 180.975,-200.369 185.751,-205.486"/>
<g id="a_edge19&#45;headlabel"><a xlink:href="dir_000106_000062.html" target="_top" xlink:title="1">
<text text-anchor="middle" x="185.061" y="-207.515" font-family="Helvetica,sans-Serif" font-size="10.00">1</text>
</a>
</g>
</g>
<!-- dir_d462256f2f72f303235b8fb5b5a9f479&#45;&gt;dir_4ab6b4cc6a7edbff49100e9123df213f -->
<g id="edge18" class="edge"><title>dir_d462256f2f72f303235b8fb5b5a9f479&#45;&gt;dir_4ab6b4cc6a7edbff49100e9123df213f</title>
<path fill="none" stroke="black" d="M167.582,-234.75C224.1,-210.072 334.388,-158.702 358,-124 370.363,-105.83 374.599,-81.0549 375.893,-62.2579"/>
<polygon fill="black" stroke="black" points="379.391,-62.3923 376.348,-52.2436 372.398,-62.0743 379.391,-62.3923"/>
<g id="a_edge18&#45;headlabel"><a xlink:href="dir_000106_000016.html" target="_top" xlink:title="3">
<text text-anchor="middle" x="382.064" y="-63.6121" font-family="Helvetica,sans-Serif" font-size="10.00">3</text>
</a>
</g>
</g>
<!-- dir_d269712cc31e133b892a3b3f6424741a&#45;&gt;dir_7924ba4398ae4560cd37376e44666c6d -->
<g id="edge3" class="edge"><title>dir_d269712cc31e133b892a3b3f6424741a&#45;&gt;dir_7924ba4398ae4560cd37376e44666c6d</title>
<path fill="none" stroke="black" d="M202,-87.6966C202,-79.9827 202,-70.7125 202,-62.1124"/>
<polygon fill="black" stroke="black" points="205.5,-62.1043 202,-52.1043 198.5,-62.1044 205.5,-62.1043"/>
<g id="a_edge3&#45;headlabel"><a xlink:href="dir_000110_000053.html" target="_top" xlink:title="4">
<text text-anchor="middle" x="208.339" y="-63.199" font-family="Helvetica,sans-Serif" font-size="10.00">4</text>
</a>
</g>
</g>
<!-- dir_d269712cc31e133b892a3b3f6424741a&#45;&gt;dir_2801adc79bf3c286b1b479858d2cade4 -->
<g id="edge2" class="edge"><title>dir_d269712cc31e133b892a3b3f6424741a&#45;&gt;dir_2801adc79bf3c286b1b479858d2cade4</title>
<path fill="none" stroke="black" d="M209.605,-124.104C211.18,-131.791 212.342,-141.054 212.871,-149.665"/>
<polygon fill="black" stroke="black" points="209.373,-149.811 213.185,-159.697 216.37,-149.592 209.373,-149.811"/>
<g id="a_edge2&#45;headlabel"><a xlink:href="dir_000110_000062.html" target="_top" xlink:title="1">
<text text-anchor="middle" x="206.423" y="-143.808" font-family="Helvetica,sans-Serif" font-size="10.00">1</text>
</a>
</g>
</g>
<!-- dir_d269712cc31e133b892a3b3f6424741a&#45;&gt;dir_4ab6b4cc6a7edbff49100e9123df213f -->
<g id="edge1" class="edge"><title>dir_d269712cc31e133b892a3b3f6424741a&#45;&gt;dir_4ab6b4cc6a7edbff49100e9123df213f</title>
<path fill="none" stroke="black" d="M242.437,-87.9066C274.952,-75.5714 317.722,-59.7735 335,-52 336.363,-51.387 337.748,-50.7414 339.147,-50.0745"/>
<polygon fill="black" stroke="black" points="341.056,-53.036 348.489,-45.4853 337.97,-46.7532 341.056,-53.036"/>
<g id="a_edge1&#45;headlabel"><a xlink:href="dir_000110_000016.html" target="_top" xlink:title="5">
<text text-anchor="middle" x="339.082" y="-54.6693" font-family="Helvetica,sans-Serif" font-size="10.00">5</text>
</a>
</g>
</g>
<!-- dir_047746f9f311f49446db9474b7431d0d&#45;&gt;dir_2801adc79bf3c286b1b479858d2cade4 -->
<g id="edge16" class="edge"><title>dir_047746f9f311f49446db9474b7431d0d&#45;&gt;dir_2801adc79bf3c286b1b479858d2cade4</title>
<path fill="none" stroke="black" d="M277.614,-124.104C268.118,-132.889 255.439,-143.732 243.517,-153.309"/>
<polygon fill="black" stroke="black" points="241.109,-150.751 235.433,-159.697 245.449,-156.243 241.109,-150.751"/>
<g id="a_edge16&#45;headlabel"><a xlink:href="dir_000129_000062.html" target="_top" xlink:title="4">
<text text-anchor="middle" x="242.17" y="-143.795" font-family="Helvetica,sans-Serif" font-size="10.00">4</text>
</a>
</g>
</g>
<!-- dir_047746f9f311f49446db9474b7431d0d&#45;&gt;dir_4ab6b4cc6a7edbff49100e9123df213f -->
<g id="edge15" class="edge"><title>dir_047746f9f311f49446db9474b7431d0d&#45;&gt;dir_4ab6b4cc6a7edbff49100e9123df213f</title>
<path fill="none" stroke="black" d="M312.764,-87.6966C323.241,-78.9655 336.111,-68.2405 347.5,-58.7503"/>
<polygon fill="black" stroke="black" points="350.033,-61.195 355.475,-52.1043 345.552,-55.8174 350.033,-61.195"/>
<g id="a_edge15&#45;headlabel"><a xlink:href="dir_000129_000016.html" target="_top" xlink:title="1">
<text text-anchor="middle" x="349.089" y="-63.1774" font-family="Helvetica,sans-Serif" font-size="10.00">1</text>
</a>
</g>
</g>
<!-- dir_051dca18e802f8e9474f2e30d29c04e0 -->
<g id="node11" class="node"><title>dir_051dca18e802f8e9474f2e30d29c04e0</title>
<g id="a_node11"><a xlink:href="dir_051dca18e802f8e9474f2e30d29c04e0.html" target="_top" xlink:title="Detectors">
<polygon fill="none" stroke="red" points="409.25,-268 350.75,-268 350.75,-232 409.25,-232 409.25,-268"/>
<text text-anchor="middle" x="380" y="-247.5" font-family="Helvetica,sans-Serif" font-size="10.00">Detectors</text>
</a>
</g>
</g>
<!-- dir_047746f9f311f49446db9474b7431d0d&#45;&gt;dir_051dca18e802f8e9474f2e30d29c04e0 -->
<g id="edge17" class="edge"><title>dir_047746f9f311f49446db9474b7431d0d&#45;&gt;dir_051dca18e802f8e9474f2e30d29c04e0</title>
<path fill="none" stroke="black" d="M303.553,-124.055C310.475,-134.38 319.381,-147.858 327,-160 340.186,-181.015 354.551,-205.225 364.996,-223.085"/>
<polygon fill="black" stroke="black" points="362.013,-224.919 370.073,-231.795 368.061,-221.393 362.013,-224.919"/>
<g id="a_edge17&#45;headlabel"><a xlink:href="dir_000129_000028.html" target="_top" xlink:title="1">
<text text-anchor="middle" x="357.75" y="-220.743" font-family="Helvetica,sans-Serif" font-size="10.00">1</text>
</a>
</g>
</g>
<!-- dir_938f0f489a9afdd9521c88acbea7d897 -->
<g id="node9" class="node"><title>dir_938f0f489a9afdd9521c88acbea7d897</title>
<g id="a_node9"><a xlink:href="dir_938f0f489a9afdd9521c88acbea7d897.html" target="_top" xlink:title="TimeFrame">
<polygon fill="white" stroke="red" points="82,-268 16,-268 16,-232 82,-232 82,-268"/>
<text text-anchor="middle" x="49" y="-247.5" font-family="Helvetica,sans-Serif" font-size="10.00">TimeFrame</text>
</a>
</g>
</g>
<!-- dir_938f0f489a9afdd9521c88acbea7d897&#45;&gt;dir_183e7c4434404fe9096e1bd8673e1fcf -->
<g id="edge20" class="edge"><title>dir_938f0f489a9afdd9521c88acbea7d897&#45;&gt;dir_183e7c4434404fe9096e1bd8673e1fcf</title>
<path fill="none" stroke="black" d="M49,-231.697C49,-223.983 49,-214.712 49,-206.112"/>
<polygon fill="black" stroke="black" points="52.5001,-206.104 49,-196.104 45.5001,-206.104 52.5001,-206.104"/>
<g id="a_edge20&#45;headlabel"><a xlink:href="dir_000134_000056.html" target="_top" xlink:title="2">
<text text-anchor="middle" x="55.3393" y="-207.199" font-family="Helvetica,sans-Serif" font-size="10.00">2</text>
</a>
</g>
</g>
<!-- dir_4ab6b4cc6a7edbff49100e9123df213f&#45;&gt;dir_d269712cc31e133b892a3b3f6424741a -->
<g id="edge4" class="edge"><title>dir_4ab6b4cc6a7edbff49100e9123df213f&#45;&gt;dir_d269712cc31e133b892a3b3f6424741a</title>
<path fill="none" stroke="black" d="M352.536,-52.2081C334.338,-60.3331 289.579,-76.8076 253.465,-89.2041"/>
<polygon fill="black" stroke="black" points="251.878,-86.0472 243.538,-92.582 254.133,-92.674 251.878,-86.0472"/>
<g id="a_edge4&#45;headlabel"><a xlink:href="dir_000016_000110.html" target="_top" xlink:title="1">
<text text-anchor="middle" x="254.366" y="-79.7014" font-family="Helvetica,sans-Serif" font-size="10.00">1</text>
</a>
</g>
</g>
<!-- dir_051dca18e802f8e9474f2e30d29c04e0&#45;&gt;dir_7924ba4398ae4560cd37376e44666c6d -->
<g id="edge14" class="edge"><title>dir_051dca18e802f8e9474f2e30d29c04e0&#45;&gt;dir_7924ba4398ae4560cd37376e44666c6d</title>
<path fill="none" stroke="black" d="M384.658,-231.772C388.769,-213.469 392.977,-183.931 385,-160 372.351,-122.053 362.635,-112.479 331,-88 303.457,-66.6871 266.141,-52.5926 238.729,-44.3332"/>
<polygon fill="black" stroke="black" points="239.693,-40.9687 229.115,-41.5517 237.748,-47.6929 239.693,-40.9687"/>
<g id="a_edge14&#45;headlabel"><a xlink:href="dir_000028_000053.html" target="_top" xlink:title="5">
<text text-anchor="middle" x="243.935" y="-36.7401" font-family="Helvetica,sans-Serif" font-size="10.00">5</text>
</a>
</g>
</g>
<!-- dir_051dca18e802f8e9474f2e30d29c04e0&#45;&gt;dir_2801adc79bf3c286b1b479858d2cade4 -->
<g id="edge11" class="edge"><title>dir_051dca18e802f8e9474f2e30d29c04e0&#45;&gt;dir_2801adc79bf3c286b1b479858d2cade4</title>
<path fill="none" stroke="black" d="M350.604,-234.922C348.377,-233.916 346.157,-232.932 344,-232 311.986,-218.176 275.101,-203.798 247.984,-193.511"/>
<polygon fill="black" stroke="black" points="249.054,-190.174 238.462,-189.915 246.581,-196.722 249.054,-190.174"/>
<g id="a_edge11&#45;headlabel"><a xlink:href="dir_000028_000062.html" target="_top" xlink:title="92">
<text text-anchor="middle" x="253.42" y="-186.288" font-family="Helvetica,sans-Serif" font-size="10.00">92</text>
</a>
</g>
</g>
<!-- dir_051dca18e802f8e9474f2e30d29c04e0&#45;&gt;dir_d462256f2f72f303235b8fb5b5a9f479 -->
<g id="edge13" class="edge"><title>dir_051dca18e802f8e9474f2e30d29c04e0&#45;&gt;dir_d462256f2f72f303235b8fb5b5a9f479</title>
<path fill="none" stroke="black" d="M367.213,-268.04C359.201,-277.721 347.951,-288.721 335,-294 273.677,-318.998 248.182,-316.778 186,-294 175.118,-290.014 164.947,-282.631 156.537,-275.037"/>
<polygon fill="black" stroke="black" points="158.967,-272.518 149.34,-268.095 154.108,-277.557 158.967,-272.518"/>
<g id="a_edge13&#45;headlabel"><a xlink:href="dir_000028_000106.html" target="_top" xlink:title="2">
<text text-anchor="middle" x="163.525" y="-270.47" font-family="Helvetica,sans-Serif" font-size="10.00">2</text>
</a>
</g>
</g>
<!-- dir_051dca18e802f8e9474f2e30d29c04e0&#45;&gt;dir_d269712cc31e133b892a3b3f6424741a -->
<g id="edge9" class="edge"><title>dir_051dca18e802f8e9474f2e30d29c04e0&#45;&gt;dir_d269712cc31e133b892a3b3f6424741a</title>
<path fill="none" stroke="black" d="M358.529,-231.871C326.856,-206.604 267.502,-159.254 231.682,-130.679"/>
<polygon fill="black" stroke="black" points="233.547,-127.689 223.547,-124.189 229.182,-133.162 233.547,-127.689"/>
<g id="a_edge9&#45;headlabel"><a xlink:href="dir_000028_000110.html" target="_top" xlink:title="9">
<text text-anchor="middle" x="238.128" y="-125.212" font-family="Helvetica,sans-Serif" font-size="10.00">9</text>
</a>
</g>
</g>
<!-- dir_051dca18e802f8e9474f2e30d29c04e0&#45;&gt;dir_047746f9f311f49446db9474b7431d0d -->
<g id="edge12" class="edge"><title>dir_051dca18e802f8e9474f2e30d29c04e0&#45;&gt;dir_047746f9f311f49446db9474b7431d0d</title>
<path fill="none" stroke="black" d="M380.823,-231.932C380.943,-212.967 378.704,-182.108 365,-160 356.754,-146.697 343.821,-135.703 331.117,-127.243"/>
<polygon fill="black" stroke="black" points="332.752,-124.137 322.419,-121.794 329.035,-130.069 332.752,-124.137"/>
<g id="a_edge12&#45;headlabel"><a xlink:href="dir_000028_000129.html" target="_top" xlink:title="79">
<text text-anchor="middle" x="337.305" y="-121.139" font-family="Helvetica,sans-Serif" font-size="10.00">79</text>
</a>
</g>
</g>
<!-- dir_051dca18e802f8e9474f2e30d29c04e0&#45;&gt;dir_4ab6b4cc6a7edbff49100e9123df213f -->
<g id="edge10" class="edge"><title>dir_051dca18e802f8e9474f2e30d29c04e0&#45;&gt;dir_4ab6b4cc6a7edbff49100e9123df213f</title>
<path fill="none" stroke="black" d="M409.04,-231.837C421.318,-222.866 434.308,-210.68 441,-196 460.911,-152.324 461.591,-131.359 441,-88 434.717,-74.7702 423.337,-63.7546 411.834,-55.2555"/>
<polygon fill="black" stroke="black" points="413.729,-52.3102 403.509,-49.516 409.755,-58.0734 413.729,-52.3102"/>
<g id="a_edge10&#45;headlabel"><a xlink:href="dir_000028_000016.html" target="_top" xlink:title="60">
<text text-anchor="middle" x="418.299" y="-49.5127" font-family="Helvetica,sans-Serif" font-size="10.00">60</text>
</a>
</g>
</g>
</g>
</svg>
