<?xml version="1.0" encoding="UTF-8" standalone="no"?>
<!DOCTYPE svg PUBLIC "-//W3C//DTD SVG 1.1//EN"
 "http://www.w3.org/Graphics/SVG/1.1/DTD/svg11.dtd">
<!-- Generated by graphviz version 2.36.0 (20140111.2315)
 -->
<!-- Title: /home/travis/build/AliceO2Group/AliceO2/DataFormats/Detectors/Common Pages: 1 -->
<svg width="256pt" height="231pt"
 viewBox="0.00 0.00 256.00 231.00" xmlns="http://www.w3.org/2000/svg" xmlns:xlink="http://www.w3.org/1999/xlink">
<g id="graph0" class="graph" transform="scale(1 1) rotate(0) translate(4 227)">
<title>/home/travis/build/AliceO2Group/AliceO2/DataFormats/Detectors/Common</title>
<g id="clust1" class="cluster"><title>clusterdir_2801adc79bf3c286b1b479858d2cade4</title>
<g id="a_clust1"><a xlink:href="dir_2801adc79bf3c286b1b479858d2cade4.html" target="_top" xlink:title="Detectors">
<polygon fill="#ddddee" stroke="black" points="8,-56 8,-215 240,-215 240,-56 8,-56"/>
<text text-anchor="middle" x="124" y="-203" font-family="Helvetica,sans-Serif" font-size="10.00">Detectors</text>
</a>
</g>
</g>
<g id="clust2" class="cluster"><title>clusterdir_74593c7a91e03746ae2a516888bf9494</title>
<g id="a_clust2"><a xlink:href="dir_74593c7a91e03746ae2a516888bf9494.html" target="_top">
<polygon fill="#eeeeff" stroke="black" points="16,-64 16,-188 232,-188 232,-64 16,-64"/>
</a>
</g>
</g>
<!-- dir_74593c7a91e03746ae2a516888bf9494 -->
<g id="node1" class="node"><title>dir_74593c7a91e03746ae2a516888bf9494</title>
<text text-anchor="middle" x="196" y="-159.5" font-family="Helvetica,sans-Serif" font-size="10.00">Common</text>
</g>
<!-- dir_67c58cc5aaf29270141b8a8cdbb7295e -->
<g id="node2" class="node"><title>dir_67c58cc5aaf29270141b8a8cdbb7295e</title>
<g id="a_node2"><a xlink:href="dir_67c58cc5aaf29270141b8a8cdbb7295e.html" target="_top" xlink:title="include">
<polygon fill="white" stroke="red" points="95,-108 41,-108 41,-72 95,-72 95,-108"/>
<text text-anchor="middle" x="68" y="-87.5" font-family="Helvetica,sans-Serif" font-size="10.00">include</text>
</a>
</g>
</g>
<!-- dir_4ab6b4cc6a7edbff49100e9123df213f -->
<g id="node5" class="node"><title>dir_4ab6b4cc6a7edbff49100e9123df213f</title>
<g id="a_node5"><a xlink:href="dir_4ab6b4cc6a7edbff49100e9123df213f.html" target="_top" xlink:title="Common">
<polygon fill="none" stroke="red" points="122.5,-36 67.5,-36 67.5,-0 122.5,-0 122.5,-36"/>
<text text-anchor="middle" x="95" y="-15.5" font-family="Helvetica,sans-Serif" font-size="10.00">Common</text>
</a>
</g>
</g>
<!-- dir_67c58cc5aaf29270141b8a8cdbb7295e&#45;&gt;dir_4ab6b4cc6a7edbff49100e9123df213f -->
<g id="edge4" class="edge"><title>dir_67c58cc5aaf29270141b8a8cdbb7295e&#45;&gt;dir_4ab6b4cc6a7edbff49100e9123df213f</title>
<path fill="none" stroke="black" d="M74.6742,-71.6966C77.7149,-63.8132 81.3827,-54.3042 84.7607,-45.5464"/>
<polygon fill="black" stroke="black" points="88.0693,-46.6939 88.4026,-36.1043 81.5383,-44.1748 88.0693,-46.6939"/>
<g id="a_edge4&#45;headlabel"><a xlink:href="dir_000064_000016.html" target="_top" xlink:title="2">
<text text-anchor="middle" x="89.4248" y="-48.5695" font-family="Helvetica,sans-Serif" font-size="10.00">2</text>
</a>
</g>
</g>
<!-- dir_a1a3c162225ac110882cbbbd21e122c3 -->
<g id="node3" class="node"><title>dir_a1a3c162225ac110882cbbbd21e122c3</title>
<g id="a_node3"><a xlink:href="dir_a1a3c162225ac110882cbbbd21e122c3.html" target="_top" xlink:title="src">
<polygon fill="white" stroke="black" points="150,-180 96,-180 96,-144 150,-144 150,-180"/>
<text text-anchor="middle" x="123" y="-159.5" font-family="Helvetica,sans-Serif" font-size="10.00">src</text>
</a>
</g>
</g>
<!-- dir_a1a3c162225ac110882cbbbd21e122c3&#45;&gt;dir_67c58cc5aaf29270141b8a8cdbb7295e -->
<g id="edge3" class="edge"><title>dir_a1a3c162225ac110882cbbbd21e122c3&#45;&gt;dir_67c58cc5aaf29270141b8a8cdbb7295e</title>
<path fill="none" stroke="black" d="M109.404,-143.697C102.877,-135.389 94.932,-125.277 87.7534,-116.141"/>
<polygon fill="black" stroke="black" points="90.3695,-113.805 81.4391,-108.104 84.8653,-118.13 90.3695,-113.805"/>
<g id="a_edge3&#45;headlabel"><a xlink:href="dir_000066_000064.html" target="_top" xlink:title="3">
<text text-anchor="middle" x="94.8229" y="-112.377" font-family="Helvetica,sans-Serif" font-size="10.00">3</text>
</a>
</g>
</g>
<!-- dir_a1a3c162225ac110882cbbbd21e122c3&#45;&gt;dir_4ab6b4cc6a7edbff49100e9123df213f -->
<g id="edge2" class="edge"><title>dir_a1a3c162225ac110882cbbbd21e122c3&#45;&gt;dir_4ab6b4cc6a7edbff49100e9123df213f</title>
<path fill="none" stroke="black" d="M120.218,-143.843C116.765,-123.002 110.528,-86.8088 104,-56 103.315,-52.7663 102.554,-49.3844 101.773,-46.0354"/>
<polygon fill="black" stroke="black" points="105.166,-45.1743 99.4263,-36.2688 98.3596,-46.8098 105.166,-45.1743"/>
<g id="a_edge2&#45;headlabel"><a xlink:href="dir_000066_000016.html" target="_top" xlink:title="1">
<text text-anchor="middle" x="108.766" y="-45.5062" font-family="Helvetica,sans-Serif" font-size="10.00">1</text>
</a>
</g>
</g>
<!-- dir_17d4af6a6efb09ff388f1619e5705c95 -->
<g id="node4" class="node"><title>dir_17d4af6a6efb09ff388f1619e5705c95</title>
<g id="a_node4"><a xlink:href="dir_17d4af6a6efb09ff388f1619e5705c95.html" target="_top" xlink:title="test">
<polygon fill="white" stroke="black" points="78,-180 24,-180 24,-144 78,-144 78,-180"/>
<text text-anchor="middle" x="51" y="-159.5" font-family="Helvetica,sans-Serif" font-size="10.00">test</text>
</a>
</g>
</g>
<!-- dir_17d4af6a6efb09ff388f1619e5705c95&#45;&gt;dir_67c58cc5aaf29270141b8a8cdbb7295e -->
<g id="edge1" class="edge"><title>dir_17d4af6a6efb09ff388f1619e5705c95&#45;&gt;dir_67c58cc5aaf29270141b8a8cdbb7295e</title>
<path fill="none" stroke="black" d="M55.2022,-143.697C57.0962,-135.898 59.3765,-126.509 61.4843,-117.829"/>
<polygon fill="black" stroke="black" points="64.8872,-118.648 63.8461,-108.104 58.0849,-116.996 64.8872,-118.648"/>
<g id="a_edge1&#45;headlabel"><a xlink:href="dir_000067_000064.html" target="_top" xlink:title="1">
<text text-anchor="middle" x="66.798" y="-120.311" font-family="Helvetica,sans-Serif" font-size="10.00">1</text>
</a>
</g>
</g>
</g>
</svg>
