<?xml version="1.0" encoding="UTF-8" standalone="no"?>
<!DOCTYPE svg PUBLIC "-//W3C//DTD SVG 1.1//EN"
 "http://www.w3.org/Graphics/SVG/1.1/DTD/svg11.dtd">
<!-- Generated by graphviz version 2.36.0 (20140111.2315)
 -->
<!-- Title: /home/travis/build/AliceO2Group/AliceO2/Detectors/ITSMFT/common/simulation Pages: 1 -->
<svg width="291pt" height="375pt"
 viewBox="0.00 0.00 291.00 375.00" xmlns="http://www.w3.org/2000/svg" xmlns:xlink="http://www.w3.org/1999/xlink">
<g id="graph0" class="graph" transform="scale(1 1) rotate(0) translate(4 371)">
<title>/home/travis/build/AliceO2Group/AliceO2/Detectors/ITSMFT/common/simulation</title>
<g id="clust1" class="cluster"><title>clusterdir_85bf31a2e8d306e7598ffcb73f8df6bf</title>
<g id="a_clust1"><a xlink:href="dir_85bf31a2e8d306e7598ffcb73f8df6bf.html" target="_top" xlink:title="common">
<polygon fill="#ddddee" stroke="black" points="37,-200 37,-359 275,-359 275,-200 37,-200"/>
<text text-anchor="middle" x="156" y="-347" font-family="Helvetica,sans-Serif" font-size="10.00">common</text>
</a>
</g>
</g>
<g id="clust2" class="cluster"><title>clusterdir_948e043a2a9c0d8c3d26178da976c005</title>
<g id="a_clust2"><a xlink:href="dir_948e043a2a9c0d8c3d26178da976c005.html" target="_top">
<polygon fill="#eeeeff" stroke="black" points="45,-208 45,-332 267,-332 267,-208 45,-208"/>
</a>
</g>
</g>
<!-- dir_948e043a2a9c0d8c3d26178da976c005 -->
<g id="node1" class="node"><title>dir_948e043a2a9c0d8c3d26178da976c005</title>
<text text-anchor="middle" x="228" y="-303.5" font-family="Helvetica,sans-Serif" font-size="10.00">simulation</text>
</g>
<!-- dir_aece0de4a924a7db153b75165d0988be -->
<g id="node2" class="node"><title>dir_aece0de4a924a7db153b75165d0988be</title>
<g id="a_node2"><a xlink:href="dir_aece0de4a924a7db153b75165d0988be.html" target="_top" xlink:title="include">
<polygon fill="white" stroke="red" points="111,-252 57,-252 57,-216 111,-216 111,-252"/>
<text text-anchor="middle" x="84" y="-231.5" font-family="Helvetica,sans-Serif" font-size="10.00">include</text>
</a>
</g>
</g>
<!-- dir_4ab6b4cc6a7edbff49100e9123df213f -->
<g id="node5" class="node"><title>dir_4ab6b4cc6a7edbff49100e9123df213f</title>
<g id="a_node5"><a xlink:href="dir_4ab6b4cc6a7edbff49100e9123df213f.html" target="_top" xlink:title="Common">
<polygon fill="none" stroke="red" points="55.5,-180 0.5,-180 0.5,-144 55.5,-144 55.5,-180"/>
<text text-anchor="middle" x="28" y="-159.5" font-family="Helvetica,sans-Serif" font-size="10.00">Common</text>
</a>
</g>
</g>
<!-- dir_aece0de4a924a7db153b75165d0988be&#45;&gt;dir_4ab6b4cc6a7edbff49100e9123df213f -->
<g id="edge8" class="edge"><title>dir_aece0de4a924a7db153b75165d0988be&#45;&gt;dir_4ab6b4cc6a7edbff49100e9123df213f</title>
<path fill="none" stroke="black" d="M70.1573,-215.697C63.5115,-207.389 55.4216,-197.277 48.1126,-188.141"/>
<polygon fill="black" stroke="black" points="50.6635,-185.727 41.6835,-180.104 45.1974,-190.099 50.6635,-185.727"/>
<g id="a_edge8&#45;headlabel"><a xlink:href="dir_000197_000016.html" target="_top" xlink:title="1">
<text text-anchor="middle" x="55.1261" y="-184.26" font-family="Helvetica,sans-Serif" font-size="10.00">1</text>
</a>
</g>
</g>
<!-- dir_7c9998090bca7c4aa89c05dd66fe73f5 -->
<g id="node7" class="node"><title>dir_7c9998090bca7c4aa89c05dd66fe73f5</title>
<g id="a_node7"><a xlink:href="dir_7c9998090bca7c4aa89c05dd66fe73f5.html" target="_top" xlink:title="base">
<polygon fill="none" stroke="red" points="166,-180 112,-180 112,-144 166,-144 166,-180"/>
<text text-anchor="middle" x="139" y="-159.5" font-family="Helvetica,sans-Serif" font-size="10.00">base</text>
</a>
</g>
</g>
<!-- dir_aece0de4a924a7db153b75165d0988be&#45;&gt;dir_7c9998090bca7c4aa89c05dd66fe73f5 -->
<g id="edge9" class="edge"><title>dir_aece0de4a924a7db153b75165d0988be&#45;&gt;dir_7c9998090bca7c4aa89c05dd66fe73f5</title>
<path fill="none" stroke="black" d="M97.5955,-215.697C104.123,-207.389 112.068,-197.277 119.247,-188.141"/>
<polygon fill="black" stroke="black" points="122.135,-190.13 125.561,-180.104 116.631,-185.805 122.135,-190.13"/>
<g id="a_edge9&#45;headlabel"><a xlink:href="dir_000197_000181.html" target="_top" xlink:title="2">
<text text-anchor="middle" x="122.147" y="-192.211" font-family="Helvetica,sans-Serif" font-size="10.00">2</text>
</a>
</g>
</g>
<!-- dir_2171f7ec022c5423887b07c69b2f5b48 -->
<g id="node8" class="node"><title>dir_2171f7ec022c5423887b07c69b2f5b48</title>
<g id="a_node8"><a xlink:href="dir_2171f7ec022c5423887b07c69b2f5b48.html" target="_top" xlink:title="DataFormats">
<polygon fill="none" stroke="red" points="130,-108 56,-108 56,-72 130,-72 130,-108"/>
<text text-anchor="middle" x="93" y="-87.5" font-family="Helvetica,sans-Serif" font-size="10.00">DataFormats</text>
</a>
</g>
</g>
<!-- dir_aece0de4a924a7db153b75165d0988be&#45;&gt;dir_2171f7ec022c5423887b07c69b2f5b48 -->
<g id="edge10" class="edge"><title>dir_aece0de4a924a7db153b75165d0988be&#45;&gt;dir_2171f7ec022c5423887b07c69b2f5b48</title>
<path fill="none" stroke="black" d="M85.0856,-215.871C86.6195,-191.67 89.4373,-147.211 91.2638,-118.393"/>
<polygon fill="black" stroke="black" points="94.7709,-118.391 91.9105,-108.189 87.7849,-117.948 94.7709,-118.391"/>
<g id="a_edge10&#45;headlabel"><a xlink:href="dir_000197_000052.html" target="_top" xlink:title="3">
<text text-anchor="middle" x="97.3772" y="-119.658" font-family="Helvetica,sans-Serif" font-size="10.00">3</text>
</a>
</g>
</g>
<!-- dir_36f9785b6e7879c93ce113c7573e321a -->
<g id="node3" class="node"><title>dir_36f9785b6e7879c93ce113c7573e321a</title>
<g id="a_node3"><a xlink:href="dir_36f9785b6e7879c93ce113c7573e321a.html" target="_top" xlink:title="src">
<polygon fill="white" stroke="black" points="179,-324 125,-324 125,-288 179,-288 179,-324"/>
<text text-anchor="middle" x="152" y="-303.5" font-family="Helvetica,sans-Serif" font-size="10.00">src</text>
</a>
</g>
</g>
<!-- dir_36f9785b6e7879c93ce113c7573e321a&#45;&gt;dir_aece0de4a924a7db153b75165d0988be -->
<g id="edge2" class="edge"><title>dir_36f9785b6e7879c93ce113c7573e321a&#45;&gt;dir_aece0de4a924a7db153b75165d0988be</title>
<path fill="none" stroke="black" d="M135.191,-287.697C126.874,-279.135 116.695,-268.656 107.61,-259.304"/>
<polygon fill="black" stroke="black" points="110.094,-256.838 100.616,-252.104 105.073,-261.716 110.094,-256.838"/>
<g id="a_edge2&#45;headlabel"><a xlink:href="dir_000206_000197.html" target="_top" xlink:title="16">
<text text-anchor="middle" x="114.635" y="-254.938" font-family="Helvetica,sans-Serif" font-size="10.00">16</text>
</a>
</g>
</g>
<!-- dir_36f9785b6e7879c93ce113c7573e321a&#45;&gt;dir_4ab6b4cc6a7edbff49100e9123df213f -->
<g id="edge1" class="edge"><title>dir_36f9785b6e7879c93ce113c7573e321a&#45;&gt;dir_4ab6b4cc6a7edbff49100e9123df213f</title>
<path fill="none" stroke="black" d="M124.774,-291.839C94.8456,-277.266 50.6179,-255.371 48,-252 34.377,-234.457 29.678,-209.422 28.2138,-190.37"/>
<polygon fill="black" stroke="black" points="31.7006,-190.023 27.6895,-180.217 24.7099,-190.384 31.7006,-190.023"/>
<g id="a_edge1&#45;headlabel"><a xlink:href="dir_000206_000016.html" target="_top" xlink:title="1">
<text text-anchor="middle" x="34.7214" y="-190.967" font-family="Helvetica,sans-Serif" font-size="10.00">1</text>
</a>
</g>
</g>
<!-- dir_37c90836491b695b472bf98d1be8336b -->
<g id="node6" class="node"><title>dir_37c90836491b695b472bf98d1be8336b</title>
<g id="a_node6"><a xlink:href="dir_37c90836491b695b472bf98d1be8336b.html" target="_top" xlink:title="Base">
<polygon fill="none" stroke="red" points="120,-36 66,-36 66,-0 120,-0 120,-36"/>
<text text-anchor="middle" x="93" y="-15.5" font-family="Helvetica,sans-Serif" font-size="10.00">Base</text>
</a>
</g>
</g>
<!-- dir_36f9785b6e7879c93ce113c7573e321a&#45;&gt;dir_37c90836491b695b472bf98d1be8336b -->
<g id="edge3" class="edge"><title>dir_36f9785b6e7879c93ce113c7573e321a&#45;&gt;dir_37c90836491b695b472bf98d1be8336b</title>
<path fill="none" stroke="black" d="M171.039,-287.837C180.176,-278.3 190.168,-265.624 195,-252 211.044,-206.761 210.578,-189.402 195,-144 180.974,-103.12 146.8,-66.1085 121.862,-43.1532"/>
<polygon fill="black" stroke="black" points="123.905,-40.2844 114.127,-36.2071 119.228,-45.4927 123.905,-40.2844"/>
<g id="a_edge3&#45;headlabel"><a xlink:href="dir_000206_000139.html" target="_top" xlink:title="2">
<text text-anchor="middle" x="128.477" y="-38.0736" font-family="Helvetica,sans-Serif" font-size="10.00">2</text>
</a>
</g>
</g>
<!-- dir_36f9785b6e7879c93ce113c7573e321a&#45;&gt;dir_7c9998090bca7c4aa89c05dd66fe73f5 -->
<g id="edge4" class="edge"><title>dir_36f9785b6e7879c93ce113c7573e321a&#45;&gt;dir_7c9998090bca7c4aa89c05dd66fe73f5</title>
<path fill="none" stroke="black" d="M150.432,-287.871C148.216,-263.67 144.146,-219.211 141.508,-190.393"/>
<polygon fill="black" stroke="black" points="144.971,-189.829 140.574,-180.189 138,-190.467 144.971,-189.829"/>
<g id="a_edge4&#45;headlabel"><a xlink:href="dir_000206_000181.html" target="_top" xlink:title="5">
<text text-anchor="middle" x="148.126" y="-190.649" font-family="Helvetica,sans-Serif" font-size="10.00">5</text>
</a>
</g>
</g>
<!-- dir_36f9785b6e7879c93ce113c7573e321a&#45;&gt;dir_2171f7ec022c5423887b07c69b2f5b48 -->
<g id="edge5" class="edge"><title>dir_36f9785b6e7879c93ce113c7573e321a&#45;&gt;dir_2171f7ec022c5423887b07c69b2f5b48</title>
<path fill="none" stroke="black" d="M160.912,-287.81C175.556,-256.981 200.649,-191.118 175,-144 167.013,-129.328 153.024,-118.099 138.838,-109.835"/>
<polygon fill="black" stroke="black" points="140.492,-106.75 130.031,-105.069 137.16,-112.906 140.492,-106.75"/>
<g id="a_edge5&#45;headlabel"><a xlink:href="dir_000206_000052.html" target="_top" xlink:title="1">
<text text-anchor="middle" x="145.004" y="-103.464" font-family="Helvetica,sans-Serif" font-size="10.00">1</text>
</a>
</g>
</g>
<!-- dir_74a2cd511ae2b2930045e15d010bedac -->
<g id="node4" class="node"><title>dir_74a2cd511ae2b2930045e15d010bedac</title>
<g id="a_node4"><a xlink:href="dir_74a2cd511ae2b2930045e15d010bedac.html" target="_top" xlink:title="test">
<polygon fill="white" stroke="black" points="107,-324 53,-324 53,-288 107,-288 107,-324"/>
<text text-anchor="middle" x="80" y="-303.5" font-family="Helvetica,sans-Serif" font-size="10.00">test</text>
</a>
</g>
</g>
<!-- dir_74a2cd511ae2b2930045e15d010bedac&#45;&gt;dir_aece0de4a924a7db153b75165d0988be -->
<g id="edge7" class="edge"><title>dir_74a2cd511ae2b2930045e15d010bedac&#45;&gt;dir_aece0de4a924a7db153b75165d0988be</title>
<path fill="none" stroke="black" d="M80.9888,-287.697C81.4296,-279.983 81.9593,-270.712 82.4507,-262.112"/>
<polygon fill="black" stroke="black" points="85.9463,-262.288 83.0226,-252.104 78.9577,-261.888 85.9463,-262.288"/>
<g id="a_edge7&#45;headlabel"><a xlink:href="dir_000225_000197.html" target="_top" xlink:title="1">
<text text-anchor="middle" x="88.576" y="-263.538" font-family="Helvetica,sans-Serif" font-size="10.00">1</text>
</a>
</g>
</g>
<!-- dir_4ab6b4cc6a7edbff49100e9123df213f&#45;&gt;dir_2171f7ec022c5423887b07c69b2f5b48 -->
<g id="edge6" class="edge"><title>dir_4ab6b4cc6a7edbff49100e9123df213f&#45;&gt;dir_2171f7ec022c5423887b07c69b2f5b48</title>
<path fill="none" stroke="black" d="M38.1517,-143.697C45.2186,-135.135 54.7669,-124.656 63.9699,-115.304"/>
<polygon fill="black" stroke="black" points="66.5916,-117.634 71.2224,-108.104 61.6598,-112.666 66.5916,-117.634"/>
<g id="a_edge6&#45;headlabel"><a xlink:href="dir_000016_000052.html" target="_top" xlink:title="1">
<text text-anchor="middle" x="66.041" y="-119.681" font-family="Helvetica,sans-Serif" font-size="10.00">1</text>
</a>
</g>
</g>
<!-- dir_37c90836491b695b472bf98d1be8336b&#45;&gt;dir_4ab6b4cc6a7edbff49100e9123df213f -->
<g id="edge11" class="edge"><title>dir_37c90836491b695b472bf98d1be8336b&#45;&gt;dir_4ab6b4cc6a7edbff49100e9123df213f</title>
<path fill="none" stroke="black" d="M73.8361,-36.4281C64.3912,-46.0375 53.6331,-58.6979 47,-72 37.3342,-91.3839 32.572,-115.531 30.2334,-133.78"/>
<polygon fill="black" stroke="black" points="26.7502,-133.436 29.1178,-143.763 33.7069,-134.213 26.7502,-133.436"/>
<g id="a_edge11&#45;headlabel"><a xlink:href="dir_000139_000016.html" target="_top" xlink:title="5">
<text text-anchor="middle" x="24.3276" y="-127.048" font-family="Helvetica,sans-Serif" font-size="10.00">5</text>
</a>
</g>
</g>
<!-- dir_37c90836491b695b472bf98d1be8336b&#45;&gt;dir_2171f7ec022c5423887b07c69b2f5b48 -->
<g id="edge12" class="edge"><title>dir_37c90836491b695b472bf98d1be8336b&#45;&gt;dir_2171f7ec022c5423887b07c69b2f5b48</title>
<path fill="none" stroke="black" d="M98.895,-36.1043C99.7005,-43.7913 99.9369,-53.0537 99.604,-61.6651"/>
<polygon fill="black" stroke="black" points="96.1085,-61.4805 98.9157,-71.6966 103.092,-61.9597 96.1085,-61.4805"/>
<g id="a_edge12&#45;headlabel"><a xlink:href="dir_000139_000052.html" target="_top" xlink:title="5">
<text text-anchor="middle" x="93.5219" y="-55.2" font-family="Helvetica,sans-Serif" font-size="10.00">5</text>
</a>
</g>
</g>
<!-- dir_7c9998090bca7c4aa89c05dd66fe73f5&#45;&gt;dir_2171f7ec022c5423887b07c69b2f5b48 -->
<g id="edge13" class="edge"><title>dir_7c9998090bca7c4aa89c05dd66fe73f5&#45;&gt;dir_2171f7ec022c5423887b07c69b2f5b48</title>
<path fill="none" stroke="black" d="M127.629,-143.697C122.282,-135.559 115.796,-125.689 109.889,-116.701"/>
<polygon fill="black" stroke="black" points="112.657,-114.539 104.24,-108.104 106.807,-118.384 112.657,-114.539"/>
<g id="a_edge13&#45;headlabel"><a xlink:href="dir_000181_000052.html" target="_top" xlink:title="3">
<text text-anchor="middle" x="117.004" y="-113.484" font-family="Helvetica,sans-Serif" font-size="10.00">3</text>
</a>
</g>
</g>
<!-- dir_2171f7ec022c5423887b07c69b2f5b48&#45;&gt;dir_4ab6b4cc6a7edbff49100e9123df213f -->
<g id="edge14" class="edge"><title>dir_2171f7ec022c5423887b07c69b2f5b48&#45;&gt;dir_4ab6b4cc6a7edbff49100e9123df213f</title>
<path fill="none" stroke="black" d="M83.0124,-108.104C75.9842,-116.636 66.4527,-127.108 57.2445,-136.478"/>
<polygon fill="black" stroke="black" points="54.6072,-134.164 49.9831,-143.697 59.5425,-139.128 54.6072,-134.164"/>
<g id="a_edge14&#45;headlabel"><a xlink:href="dir_000052_000016.html" target="_top" xlink:title="15">
<text text-anchor="middle" x="55.1546" y="-127.116" font-family="Helvetica,sans-Serif" font-size="10.00">15</text>
</a>
</g>
</g>
<!-- dir_2171f7ec022c5423887b07c69b2f5b48&#45;&gt;dir_37c90836491b695b472bf98d1be8336b -->
<g id="edge15" class="edge"><title>dir_2171f7ec022c5423887b07c69b2f5b48&#45;&gt;dir_37c90836491b695b472bf98d1be8336b</title>
<path fill="none" stroke="black" d="M87.0843,-71.6966C86.2886,-63.9827 86.0621,-54.7125 86.4047,-46.1124"/>
<polygon fill="black" stroke="black" points="89.8984,-46.3243 87.105,-36.1043 82.9154,-45.8356 89.8984,-46.3243"/>
<g id="a_edge15&#45;headlabel"><a xlink:href="dir_000052_000139.html" target="_top" xlink:title="1">
<text text-anchor="middle" x="92.4799" y="-47.6083" font-family="Helvetica,sans-Serif" font-size="10.00">1</text>
</a>
</g>
</g>
</g>
</svg>
