<?xml version="1.0" encoding="UTF-8" standalone="no"?>
<!DOCTYPE svg PUBLIC "-//W3C//DTD SVG 1.1//EN"
 "http://www.w3.org/Graphics/SVG/1.1/DTD/svg11.dtd">
<!-- Generated by graphviz version 2.36.0 (20140111.2315)
 -->
<!-- Title: /home/travis/build/AliceO2Group/AliceO2/Detectors/TPC/simulation Pages: 1 -->
<svg width="359pt" height="447pt"
 viewBox="0.00 0.00 359.00 447.00" xmlns="http://www.w3.org/2000/svg" xmlns:xlink="http://www.w3.org/1999/xlink">
<g id="graph0" class="graph" transform="scale(1 1) rotate(0) translate(4 443)">
<title>/home/travis/build/AliceO2Group/AliceO2/Detectors/TPC/simulation</title>
<g id="clust1" class="cluster"><title>clusterdir_a597e8e061b11201a1dff411feb10d0b</title>
<g id="a_clust1"><a xlink:href="dir_a597e8e061b11201a1dff411feb10d0b.html" target="_top" xlink:title="TPC">
<polygon fill="#ddddee" stroke="black" points="33,-272 33,-431 343,-431 343,-272 33,-272"/>
<text text-anchor="middle" x="188" y="-419" font-family="Helvetica,sans-Serif" font-size="10.00">TPC</text>
</a>
</g>
</g>
<g id="clust2" class="cluster"><title>clusterdir_7f309bec8670bb3fb666e7e061b24659</title>
<g id="a_clust2"><a xlink:href="dir_7f309bec8670bb3fb666e7e061b24659.html" target="_top">
<polygon fill="#eeeeff" stroke="black" points="41,-280 41,-404 335,-404 335,-280 41,-280"/>
</a>
</g>
</g>
<!-- dir_7f309bec8670bb3fb666e7e061b24659 -->
<g id="node1" class="node"><title>dir_7f309bec8670bb3fb666e7e061b24659</title>
<text text-anchor="middle" x="296" y="-375.5" font-family="Helvetica,sans-Serif" font-size="10.00">simulation</text>
</g>
<!-- dir_a3959ed40b1558172144f5e1a56e443f -->
<g id="node2" class="node"><title>dir_a3959ed40b1558172144f5e1a56e443f</title>
<g id="a_node2"><a xlink:href="dir_a3959ed40b1558172144f5e1a56e443f.html" target="_top" xlink:title="include">
<polygon fill="white" stroke="red" points="272,-324 218,-324 218,-288 272,-288 272,-324"/>
<text text-anchor="middle" x="245" y="-303.5" font-family="Helvetica,sans-Serif" font-size="10.00">include</text>
</a>
</g>
</g>
<!-- dir_677b030cc750909e4cd27413873678d8 -->
<g id="node6" class="node"><title>dir_677b030cc750909e4cd27413873678d8</title>
<g id="a_node6"><a xlink:href="dir_677b030cc750909e4cd27413873678d8.html" target="_top" xlink:title="base">
<polygon fill="none" stroke="red" points="196,-252 142,-252 142,-216 196,-216 196,-252"/>
<text text-anchor="middle" x="169" y="-231.5" font-family="Helvetica,sans-Serif" font-size="10.00">base</text>
</a>
</g>
</g>
<!-- dir_a3959ed40b1558172144f5e1a56e443f&#45;&gt;dir_677b030cc750909e4cd27413873678d8 -->
<g id="edge9" class="edge"><title>dir_a3959ed40b1558172144f5e1a56e443f&#45;&gt;dir_677b030cc750909e4cd27413873678d8</title>
<path fill="none" stroke="black" d="M226.213,-287.697C216.826,-279.05 205.316,-268.449 195.087,-259.027"/>
<polygon fill="black" stroke="black" points="197.297,-256.305 187.57,-252.104 192.555,-261.454 197.297,-256.305"/>
<g id="a_edge9&#45;headlabel"><a xlink:href="dir_000165_000187.html" target="_top" xlink:title="19">
<text text-anchor="middle" x="201.865" y="-254.152" font-family="Helvetica,sans-Serif" font-size="10.00">19</text>
</a>
</g>
</g>
<!-- dir_37c90836491b695b472bf98d1be8336b -->
<g id="node8" class="node"><title>dir_37c90836491b695b472bf98d1be8336b</title>
<g id="a_node8"><a xlink:href="dir_37c90836491b695b472bf98d1be8336b.html" target="_top" xlink:title="Base">
<polygon fill="none" stroke="red" points="200,-108 146,-108 146,-72 200,-72 200,-108"/>
<text text-anchor="middle" x="173" y="-87.5" font-family="Helvetica,sans-Serif" font-size="10.00">Base</text>
</a>
</g>
</g>
<!-- dir_a3959ed40b1558172144f5e1a56e443f&#45;&gt;dir_37c90836491b695b472bf98d1be8336b -->
<g id="edge10" class="edge"><title>dir_a3959ed40b1558172144f5e1a56e443f&#45;&gt;dir_37c90836491b695b472bf98d1be8336b</title>
<path fill="none" stroke="black" d="M243.463,-287.965C241.519,-269.824 237.484,-240.42 230,-216 219.14,-180.568 200.466,-142.1 187.463,-117.333"/>
<polygon fill="black" stroke="black" points="190.407,-115.414 182.616,-108.233 184.228,-118.705 190.407,-115.414"/>
<g id="a_edge10&#45;headlabel"><a xlink:href="dir_000165_000139.html" target="_top" xlink:title="1">
<text text-anchor="middle" x="194.602" y="-114.752" font-family="Helvetica,sans-Serif" font-size="10.00">1</text>
</a>
</g>
</g>
<!-- dir_2171f7ec022c5423887b07c69b2f5b48 -->
<g id="node9" class="node"><title>dir_2171f7ec022c5423887b07c69b2f5b48</title>
<g id="a_node9"><a xlink:href="dir_2171f7ec022c5423887b07c69b2f5b48.html" target="_top" xlink:title="DataFormats">
<polygon fill="none" stroke="red" points="178,-180 104,-180 104,-144 178,-144 178,-180"/>
<text text-anchor="middle" x="141" y="-159.5" font-family="Helvetica,sans-Serif" font-size="10.00">DataFormats</text>
</a>
</g>
</g>
<!-- dir_a3959ed40b1558172144f5e1a56e443f&#45;&gt;dir_2171f7ec022c5423887b07c69b2f5b48 -->
<g id="edge11" class="edge"><title>dir_a3959ed40b1558172144f5e1a56e443f&#45;&gt;dir_2171f7ec022c5423887b07c69b2f5b48</title>
<path fill="none" stroke="black" d="M239.849,-287.688C233.655,-268.783 221.933,-238.239 205,-216 196.573,-204.933 185.415,-194.684 174.778,-186.206"/>
<polygon fill="black" stroke="black" points="176.865,-183.395 166.8,-180.085 172.603,-188.949 176.865,-183.395"/>
<g id="a_edge11&#45;headlabel"><a xlink:href="dir_000165_000052.html" target="_top" xlink:title="4">
<text text-anchor="middle" x="181.445" y="-180.831" font-family="Helvetica,sans-Serif" font-size="10.00">4</text>
</a>
</g>
</g>
<!-- dir_8bfcd60464e4f3a200807f6c373e63aa -->
<g id="node3" class="node"><title>dir_8bfcd60464e4f3a200807f6c373e63aa</title>
<g id="a_node3"><a xlink:href="dir_8bfcd60464e4f3a200807f6c373e63aa.html" target="_top" xlink:title="macro">
<polygon fill="white" stroke="black" points="175,-396 121,-396 121,-360 175,-360 175,-396"/>
<text text-anchor="middle" x="148" y="-375.5" font-family="Helvetica,sans-Serif" font-size="10.00">macro</text>
</a>
</g>
</g>
<!-- dir_8bfcd60464e4f3a200807f6c373e63aa&#45;&gt;dir_a3959ed40b1558172144f5e1a56e443f -->
<g id="edge15" class="edge"><title>dir_8bfcd60464e4f3a200807f6c373e63aa&#45;&gt;dir_a3959ed40b1558172144f5e1a56e443f</title>
<path fill="none" stroke="black" d="M171.978,-359.697C184.311,-350.796 199.516,-339.823 212.853,-330.199"/>
<polygon fill="black" stroke="black" points="215.237,-332.794 221.298,-324.104 211.141,-327.118 215.237,-332.794"/>
<g id="a_edge15&#45;headlabel"><a xlink:href="dir_000283_000165.html" target="_top" xlink:title="2">
<text text-anchor="middle" x="213.984" y="-334.7" font-family="Helvetica,sans-Serif" font-size="10.00">2</text>
</a>
</g>
</g>
<!-- dir_8bfcd60464e4f3a200807f6c373e63aa&#45;&gt;dir_677b030cc750909e4cd27413873678d8 -->
<g id="edge14" class="edge"><title>dir_8bfcd60464e4f3a200807f6c373e63aa&#45;&gt;dir_677b030cc750909e4cd27413873678d8</title>
<path fill="none" stroke="black" d="M150.533,-359.871C154.112,-335.67 160.687,-291.211 164.949,-262.393"/>
<polygon fill="black" stroke="black" points="168.457,-262.594 166.458,-252.189 161.533,-261.57 168.457,-262.594"/>
<g id="a_edge14&#45;headlabel"><a xlink:href="dir_000283_000187.html" target="_top" xlink:title="2">
<text text-anchor="middle" x="170.74" y="-264.065" font-family="Helvetica,sans-Serif" font-size="10.00">2</text>
</a>
</g>
</g>
<!-- dir_8bfcd60464e4f3a200807f6c373e63aa&#45;&gt;dir_2171f7ec022c5423887b07c69b2f5b48 -->
<g id="edge16" class="edge"><title>dir_8bfcd60464e4f3a200807f6c373e63aa&#45;&gt;dir_2171f7ec022c5423887b07c69b2f5b48</title>
<path fill="none" stroke="black" d="M144.462,-359.625C138.886,-330.126 129.071,-268.348 133,-216 133.637,-207.518 134.838,-198.336 136.121,-190.036"/>
<polygon fill="black" stroke="black" points="139.584,-190.547 137.752,-180.112 132.676,-189.412 139.584,-190.547"/>
<g id="a_edge16&#45;headlabel"><a xlink:href="dir_000283_000052.html" target="_top" xlink:title="3">
<text text-anchor="middle" x="141.802" y="-192.055" font-family="Helvetica,sans-Serif" font-size="10.00">3</text>
</a>
</g>
</g>
<!-- dir_72815adbd439f00f784a5a4eca496fde -->
<g id="node4" class="node"><title>dir_72815adbd439f00f784a5a4eca496fde</title>
<g id="a_node4"><a xlink:href="dir_72815adbd439f00f784a5a4eca496fde.html" target="_top" xlink:title="src">
<polygon fill="white" stroke="black" points="103,-396 49,-396 49,-360 103,-360 103,-396"/>
<text text-anchor="middle" x="76" y="-375.5" font-family="Helvetica,sans-Serif" font-size="10.00">src</text>
</a>
</g>
</g>
<!-- dir_72815adbd439f00f784a5a4eca496fde&#45;&gt;dir_a3959ed40b1558172144f5e1a56e443f -->
<g id="edge3" class="edge"><title>dir_72815adbd439f00f784a5a4eca496fde&#45;&gt;dir_a3959ed40b1558172144f5e1a56e443f</title>
<path fill="none" stroke="black" d="M103.045,-364.009C106.054,-362.629 109.084,-361.268 112,-360 144.279,-345.963 181.543,-331.238 208.4,-320.882"/>
<polygon fill="black" stroke="black" points="209.716,-324.126 217.796,-317.273 207.206,-317.591 209.716,-324.126"/>
<g id="a_edge3&#45;headlabel"><a xlink:href="dir_000178_000165.html" target="_top" xlink:title="32">
<text text-anchor="middle" x="207.378" y="-325.565" font-family="Helvetica,sans-Serif" font-size="10.00">32</text>
</a>
</g>
</g>
<!-- dir_72815adbd439f00f784a5a4eca496fde&#45;&gt;dir_677b030cc750909e4cd27413873678d8 -->
<g id="edge1" class="edge"><title>dir_72815adbd439f00f784a5a4eca496fde&#45;&gt;dir_677b030cc750909e4cd27413873678d8</title>
<path fill="none" stroke="black" d="M87.218,-359.871C103.347,-335.244 133.216,-289.638 152.047,-260.885"/>
<polygon fill="black" stroke="black" points="155.191,-262.472 157.742,-252.189 149.335,-258.637 155.191,-262.472"/>
<g id="a_edge1&#45;headlabel"><a xlink:href="dir_000178_000187.html" target="_top" xlink:title="16">
<text text-anchor="middle" x="155.597" y="-264.535" font-family="Helvetica,sans-Serif" font-size="10.00">16</text>
</a>
</g>
</g>
<!-- dir_4ab6b4cc6a7edbff49100e9123df213f -->
<g id="node7" class="node"><title>dir_4ab6b4cc6a7edbff49100e9123df213f</title>
<g id="a_node7"><a xlink:href="dir_4ab6b4cc6a7edbff49100e9123df213f.html" target="_top" xlink:title="Common">
<polygon fill="none" stroke="red" points="136.5,-36 81.5,-36 81.5,-0 136.5,-0 136.5,-36"/>
<text text-anchor="middle" x="109" y="-15.5" font-family="Helvetica,sans-Serif" font-size="10.00">Common</text>
</a>
</g>
</g>
<!-- dir_72815adbd439f00f784a5a4eca496fde&#45;&gt;dir_4ab6b4cc6a7edbff49100e9123df213f -->
<g id="edge2" class="edge"><title>dir_72815adbd439f00f784a5a4eca496fde&#45;&gt;dir_4ab6b4cc6a7edbff49100e9123df213f</title>
<path fill="none" stroke="black" d="M59.5091,-359.772C37.1569,-334.534 0,-285.051 0,-235 0,-235 0,-235 0,-161 0,-110.932 43.1675,-67.6439 75.1709,-42.4312"/>
<polygon fill="black" stroke="black" points="77.621,-44.964 83.4443,-36.1131 73.3725,-39.4007 77.621,-44.964"/>
<g id="a_edge2&#45;headlabel"><a xlink:href="dir_000178_000016.html" target="_top" xlink:title="1">
<text text-anchor="middle" x="76.4874" y="-46.9022" font-family="Helvetica,sans-Serif" font-size="10.00">1</text>
</a>
</g>
</g>
<!-- dir_72815adbd439f00f784a5a4eca496fde&#45;&gt;dir_2171f7ec022c5423887b07c69b2f5b48 -->
<g id="edge4" class="edge"><title>dir_72815adbd439f00f784a5a4eca496fde&#45;&gt;dir_2171f7ec022c5423887b07c69b2f5b48</title>
<path fill="none" stroke="black" d="M81.2093,-359.849C92.5005,-322.675 119.301,-234.439 132.854,-189.82"/>
<polygon fill="black" stroke="black" points="136.208,-190.818 135.766,-180.232 129.511,-188.784 136.208,-190.818"/>
<g id="a_edge4&#45;headlabel"><a xlink:href="dir_000178_000052.html" target="_top" xlink:title="2">
<text text-anchor="middle" x="137.881" y="-192.583" font-family="Helvetica,sans-Serif" font-size="10.00">2</text>
</a>
</g>
</g>
<!-- dir_ac3b77a1b17a4594b18b160ef67742fa -->
<g id="node5" class="node"><title>dir_ac3b77a1b17a4594b18b160ef67742fa</title>
<g id="a_node5"><a xlink:href="dir_ac3b77a1b17a4594b18b160ef67742fa.html" target="_top" xlink:title="test">
<polygon fill="white" stroke="black" points="247,-396 193,-396 193,-360 247,-360 247,-396"/>
<text text-anchor="middle" x="220" y="-375.5" font-family="Helvetica,sans-Serif" font-size="10.00">test</text>
</a>
</g>
</g>
<!-- dir_ac3b77a1b17a4594b18b160ef67742fa&#45;&gt;dir_a3959ed40b1558172144f5e1a56e443f -->
<g id="edge13" class="edge"><title>dir_ac3b77a1b17a4594b18b160ef67742fa&#45;&gt;dir_a3959ed40b1558172144f5e1a56e443f</title>
<path fill="none" stroke="black" d="M226.18,-359.697C228.995,-351.813 232.391,-342.304 235.519,-333.546"/>
<polygon fill="black" stroke="black" points="238.824,-334.699 238.891,-324.104 232.232,-332.345 238.824,-334.699"/>
<g id="a_edge13&#45;headlabel"><a xlink:href="dir_000284_000165.html" target="_top" xlink:title="9">
<text text-anchor="middle" x="240.289" y="-336.539" font-family="Helvetica,sans-Serif" font-size="10.00">9</text>
</a>
</g>
</g>
<!-- dir_ac3b77a1b17a4594b18b160ef67742fa&#45;&gt;dir_677b030cc750909e4cd27413873678d8 -->
<g id="edge12" class="edge"><title>dir_ac3b77a1b17a4594b18b160ef67742fa&#45;&gt;dir_677b030cc750909e4cd27413873678d8</title>
<path fill="none" stroke="black" d="M213.848,-359.871C205.08,-335.457 188.906,-290.426 178.566,-261.635"/>
<polygon fill="black" stroke="black" points="181.848,-260.418 175.174,-252.189 175.26,-262.784 181.848,-260.418"/>
<g id="a_edge12&#45;headlabel"><a xlink:href="dir_000284_000187.html" target="_top" xlink:title="7">
<text text-anchor="middle" x="185.735" y="-260.341" font-family="Helvetica,sans-Serif" font-size="10.00">7</text>
</a>
</g>
</g>
<!-- dir_677b030cc750909e4cd27413873678d8&#45;&gt;dir_2171f7ec022c5423887b07c69b2f5b48 -->
<g id="edge5" class="edge"><title>dir_677b030cc750909e4cd27413873678d8&#45;&gt;dir_2171f7ec022c5423887b07c69b2f5b48</title>
<path fill="none" stroke="black" d="M162.079,-215.697C158.925,-207.813 155.122,-198.304 151.619,-189.546"/>
<polygon fill="black" stroke="black" points="154.805,-188.089 147.842,-180.104 148.306,-190.689 154.805,-188.089"/>
<g id="a_edge5&#45;headlabel"><a xlink:href="dir_000187_000052.html" target="_top" xlink:title="13">
<text text-anchor="middle" x="158.777" y="-187.872" font-family="Helvetica,sans-Serif" font-size="10.00">13</text>
</a>
</g>
</g>
<!-- dir_4ab6b4cc6a7edbff49100e9123df213f&#45;&gt;dir_2171f7ec022c5423887b07c69b2f5b48 -->
<g id="edge6" class="edge"><title>dir_4ab6b4cc6a7edbff49100e9123df213f&#45;&gt;dir_2171f7ec022c5423887b07c69b2f5b48</title>
<path fill="none" stroke="black" d="M117.465,-36.1893C125.481,-60.4244 135.788,-104.888 140.297,-133.679"/>
<polygon fill="black" stroke="black" points="136.871,-134.454 141.725,-143.871 143.804,-133.483 136.871,-134.454"/>
<g id="a_edge6&#45;headlabel"><a xlink:href="dir_000016_000052.html" target="_top" xlink:title="1">
<text text-anchor="middle" x="133.561" y="-128.787" font-family="Helvetica,sans-Serif" font-size="10.00">1</text>
</a>
</g>
</g>
<!-- dir_37c90836491b695b472bf98d1be8336b&#45;&gt;dir_4ab6b4cc6a7edbff49100e9123df213f -->
<g id="edge7" class="edge"><title>dir_37c90836491b695b472bf98d1be8336b&#45;&gt;dir_4ab6b4cc6a7edbff49100e9123df213f</title>
<path fill="none" stroke="black" d="M157.18,-71.6966C149.43,-63.2198 139.961,-52.8636 131.476,-43.5826"/>
<polygon fill="black" stroke="black" points="133.969,-41.1229 124.638,-36.1043 128.803,-45.8464 133.969,-41.1229"/>
<g id="a_edge7&#45;headlabel"><a xlink:href="dir_000139_000016.html" target="_top" xlink:title="5">
<text text-anchor="middle" x="138.49" y="-39.36" font-family="Helvetica,sans-Serif" font-size="10.00">5</text>
</a>
</g>
</g>
<!-- dir_37c90836491b695b472bf98d1be8336b&#45;&gt;dir_2171f7ec022c5423887b07c69b2f5b48 -->
<g id="edge8" class="edge"><title>dir_37c90836491b695b472bf98d1be8336b&#45;&gt;dir_2171f7ec022c5423887b07c69b2f5b48</title>
<path fill="none" stroke="black" d="M171.076,-108.104C168.248,-116.129 164.015,-125.871 159.535,-134.797"/>
<polygon fill="black" stroke="black" points="156.41,-133.221 154.826,-143.697 162.597,-136.495 156.41,-133.221"/>
<g id="a_edge8&#45;headlabel"><a xlink:href="dir_000139_000052.html" target="_top" xlink:title="5">
<text text-anchor="middle" x="155.581" y="-126.216" font-family="Helvetica,sans-Serif" font-size="10.00">5</text>
</a>
</g>
</g>
<!-- dir_2171f7ec022c5423887b07c69b2f5b48&#45;&gt;dir_4ab6b4cc6a7edbff49100e9123df213f -->
<g id="edge17" class="edge"><title>dir_2171f7ec022c5423887b07c69b2f5b48&#45;&gt;dir_4ab6b4cc6a7edbff49100e9123df213f</title>
<path fill="none" stroke="black" d="M132.556,-143.871C124.543,-119.67 114.233,-75.2108 109.714,-46.3932"/>
<polygon fill="black" stroke="black" points="113.138,-45.6061 108.283,-36.1893 106.206,-46.5785 113.138,-45.6061"/>
<g id="a_edge17&#45;headlabel"><a xlink:href="dir_000052_000016.html" target="_top" xlink:title="15">
<text text-anchor="middle" x="116.449" y="-46.2714" font-family="Helvetica,sans-Serif" font-size="10.00">15</text>
</a>
</g>
</g>
<!-- dir_2171f7ec022c5423887b07c69b2f5b48&#45;&gt;dir_37c90836491b695b472bf98d1be8336b -->
<g id="edge18" class="edge"><title>dir_2171f7ec022c5423887b07c69b2f5b48&#45;&gt;dir_37c90836491b695b472bf98d1be8336b</title>
<path fill="none" stroke="black" d="M142.994,-143.697C145.845,-135.644 150.091,-125.894 154.576,-116.982"/>
<polygon fill="black" stroke="black" points="157.691,-118.578 159.286,-108.104 151.507,-115.298 157.691,-118.578"/>
<g id="a_edge18&#45;headlabel"><a xlink:href="dir_000052_000139.html" target="_top" xlink:title="1">
<text text-anchor="middle" x="158.514" y="-120.584" font-family="Helvetica,sans-Serif" font-size="10.00">1</text>
</a>
</g>
</g>
</g>
</svg>
