<?xml version="1.0" encoding="UTF-8" standalone="no"?>
<!DOCTYPE svg PUBLIC "-//W3C//DTD SVG 1.1//EN"
 "http://www.w3.org/Graphics/SVG/1.1/DTD/svg11.dtd">
<!-- Generated by graphviz version 2.36.0 (20140111.2315)
 -->
<!-- Title: /home/travis/build/AliceO2Group/AliceO2/Detectors/TPC/reconstruction Pages: 1 -->
<svg width="628pt" height="303pt"
 viewBox="0.00 0.00 627.60 303.00" xmlns="http://www.w3.org/2000/svg" xmlns:xlink="http://www.w3.org/1999/xlink">
<g id="graph0" class="graph" transform="scale(1 1) rotate(0) translate(4 299)">
<title>/home/travis/build/AliceO2Group/AliceO2/Detectors/TPC/reconstruction</title>
<g id="clust1" class="cluster"><title>clusterdir_a597e8e061b11201a1dff411feb10d0b</title>
<g id="a_clust1"><a xlink:href="dir_a597e8e061b11201a1dff411feb10d0b.html" target="_top" xlink:title="TPC">
<polygon fill="#ddddee" stroke="black" points="8,-128 8,-287 406,-287 406,-128 8,-128"/>
<text text-anchor="middle" x="207" y="-275" font-family="Helvetica,sans-Serif" font-size="10.00">TPC</text>
</a>
</g>
</g>
<g id="clust2" class="cluster"><title>clusterdir_a5de047958dd458e809773c6ffaa8478</title>
<g id="a_clust2"><a xlink:href="dir_a5de047958dd458e809773c6ffaa8478.html" target="_top">
<polygon fill="#eeeeff" stroke="black" points="16,-136 16,-260 398,-260 398,-136 16,-136"/>
</a>
</g>
</g>
<!-- dir_a5de047958dd458e809773c6ffaa8478 -->
<g id="node1" class="node"><title>dir_a5de047958dd458e809773c6ffaa8478</title>
<text text-anchor="middle" x="351" y="-231.5" font-family="Helvetica,sans-Serif" font-size="10.00">reconstruction</text>
</g>
<!-- dir_396d171119822f66a36fe1ebf998d1a3 -->
<g id="node2" class="node"><title>dir_396d171119822f66a36fe1ebf998d1a3</title>
<g id="a_node2"><a xlink:href="dir_396d171119822f66a36fe1ebf998d1a3.html" target="_top" xlink:title="include">
<polygon fill="white" stroke="red" points="233,-180 179,-180 179,-144 233,-144 233,-180"/>
<text text-anchor="middle" x="206" y="-159.5" font-family="Helvetica,sans-Serif" font-size="10.00">include</text>
</a>
</g>
</g>
<!-- dir_677b030cc750909e4cd27413873678d8 -->
<g id="node9" class="node"><title>dir_677b030cc750909e4cd27413873678d8</title>
<g id="a_node9"><a xlink:href="dir_677b030cc750909e4cd27413873678d8.html" target="_top" xlink:title="base">
<polygon fill="none" stroke="red" points="402,-108 348,-108 348,-72 402,-72 402,-108"/>
<text text-anchor="middle" x="375" y="-87.5" font-family="Helvetica,sans-Serif" font-size="10.00">base</text>
</a>
</g>
</g>
<!-- dir_396d171119822f66a36fe1ebf998d1a3&#45;&gt;dir_677b030cc750909e4cd27413873678d8 -->
<g id="edge14" class="edge"><title>dir_396d171119822f66a36fe1ebf998d1a3&#45;&gt;dir_677b030cc750909e4cd27413873678d8</title>
<path fill="none" stroke="black" d="M233.041,-149.66C248.29,-143.276 267.698,-135.17 285,-128 302.448,-120.769 321.821,-112.798 338.11,-106.111"/>
<polygon fill="black" stroke="black" points="339.885,-109.166 347.809,-102.132 337.228,-102.69 339.885,-109.166"/>
<g id="a_edge14&#45;headlabel"><a xlink:href="dir_000222_000187.html" target="_top" xlink:title="7">
<text text-anchor="middle" x="337.637" y="-110.657" font-family="Helvetica,sans-Serif" font-size="10.00">7</text>
</a>
</g>
</g>
<!-- dir_2171f7ec022c5423887b07c69b2f5b48 -->
<g id="node10" class="node"><title>dir_2171f7ec022c5423887b07c69b2f5b48</title>
<g id="a_node10"><a xlink:href="dir_2171f7ec022c5423887b07c69b2f5b48.html" target="_top" xlink:title="DataFormats">
<polygon fill="none" stroke="red" points="482,-36 408,-36 408,-0 482,-0 482,-36"/>
<text text-anchor="middle" x="445" y="-15.5" font-family="Helvetica,sans-Serif" font-size="10.00">DataFormats</text>
</a>
</g>
</g>
<!-- dir_396d171119822f66a36fe1ebf998d1a3&#45;&gt;dir_2171f7ec022c5423887b07c69b2f5b48 -->
<g id="edge15" class="edge"><title>dir_396d171119822f66a36fe1ebf998d1a3&#45;&gt;dir_2171f7ec022c5423887b07c69b2f5b48</title>
<path fill="none" stroke="black" d="M209.285,-143.927C214.062,-123.77 224.886,-90.6383 247,-72 289.571,-36.1191 354.063,-24.2997 397.781,-20.5332"/>
<polygon fill="black" stroke="black" points="398.163,-24.0144 407.872,-19.7743 397.638,-17.0341 398.163,-24.0144"/>
<g id="a_edge15&#45;headlabel"><a xlink:href="dir_000222_000052.html" target="_top" xlink:title="16">
<text text-anchor="middle" x="394.791" y="-24.6151" font-family="Helvetica,sans-Serif" font-size="10.00">16</text>
</a>
</g>
</g>
<!-- dir_4cbbc7f21c16d130545e15f2205651b3 -->
<g id="node3" class="node"><title>dir_4cbbc7f21c16d130545e15f2205651b3</title>
<g id="a_node3"><a xlink:href="dir_4cbbc7f21c16d130545e15f2205651b3.html" target="_top" xlink:title="macro">
<polygon fill="white" stroke="black" points="222,-252 168,-252 168,-216 222,-216 222,-252"/>
<text text-anchor="middle" x="195" y="-231.5" font-family="Helvetica,sans-Serif" font-size="10.00">macro</text>
</a>
</g>
</g>
<!-- dir_4cbbc7f21c16d130545e15f2205651b3&#45;&gt;dir_396d171119822f66a36fe1ebf998d1a3 -->
<g id="edge12" class="edge"><title>dir_4cbbc7f21c16d130545e15f2205651b3&#45;&gt;dir_396d171119822f66a36fe1ebf998d1a3</title>
<path fill="none" stroke="black" d="M197.719,-215.697C198.931,-207.983 200.388,-198.712 201.739,-190.112"/>
<polygon fill="black" stroke="black" points="205.217,-190.526 203.312,-180.104 198.302,-189.44 205.217,-190.526"/>
<g id="a_edge12&#45;headlabel"><a xlink:href="dir_000280_000222.html" target="_top" xlink:title="9">
<text text-anchor="middle" x="207.464" y="-192.018" font-family="Helvetica,sans-Serif" font-size="10.00">9</text>
</a>
</g>
</g>
<!-- dir_7f309bec8670bb3fb666e7e061b24659 -->
<g id="node7" class="node"><title>dir_7f309bec8670bb3fb666e7e061b24659</title>
<g id="a_node7"><a xlink:href="dir_7f309bec8670bb3fb666e7e061b24659.html" target="_top" xlink:title="simulation">
<polygon fill="none" stroke="red" points="475.25,-180 414.75,-180 414.75,-144 475.25,-144 475.25,-180"/>
<text text-anchor="middle" x="445" y="-159.5" font-family="Helvetica,sans-Serif" font-size="10.00">simulation</text>
</a>
</g>
</g>
<!-- dir_4cbbc7f21c16d130545e15f2205651b3&#45;&gt;dir_7f309bec8670bb3fb666e7e061b24659 -->
<g id="edge9" class="edge"><title>dir_4cbbc7f21c16d130545e15f2205651b3&#45;&gt;dir_7f309bec8670bb3fb666e7e061b24659</title>
<path fill="none" stroke="black" d="M222.244,-219.328C225.162,-218.107 228.117,-216.969 231,-216 304.617,-191.249 327.621,-202.357 402,-180 403.038,-179.688 404.086,-179.362 405.14,-179.023"/>
<polygon fill="black" stroke="black" points="406.382,-182.297 414.687,-175.719 404.092,-175.682 406.382,-182.297"/>
<g id="a_edge9&#45;headlabel"><a xlink:href="dir_000280_000164.html" target="_top" xlink:title="1">
<text text-anchor="middle" x="403.913" y="-183.656" font-family="Helvetica,sans-Serif" font-size="10.00">1</text>
</a>
</g>
</g>
<!-- dir_4995562033b321477cfe3c34a14a5189 -->
<g id="node8" class="node"><title>dir_4995562033b321477cfe3c34a14a5189</title>
<g id="a_node8"><a xlink:href="dir_4995562033b321477cfe3c34a14a5189.html" target="_top" xlink:title="calibration">
<polygon fill="none" stroke="red" points="554.25,-180 493.75,-180 493.75,-144 554.25,-144 554.25,-180"/>
<text text-anchor="middle" x="524" y="-159.5" font-family="Helvetica,sans-Serif" font-size="10.00">calibration</text>
</a>
</g>
</g>
<!-- dir_4cbbc7f21c16d130545e15f2205651b3&#45;&gt;dir_4995562033b321477cfe3c34a14a5189 -->
<g id="edge10" class="edge"><title>dir_4cbbc7f21c16d130545e15f2205651b3&#45;&gt;dir_4995562033b321477cfe3c34a14a5189</title>
<path fill="none" stroke="black" d="M222.182,-219.131C225.112,-217.949 228.087,-216.873 231,-216 339.793,-183.385 374.587,-210.47 484,-180 484.1,-179.972 484.2,-179.944 484.3,-179.916"/>
<polygon fill="black" stroke="black" points="485.304,-183.27 493.719,-176.834 483.126,-176.617 485.304,-183.27"/>
<g id="a_edge10&#45;headlabel"><a xlink:href="dir_000280_000269.html" target="_top" xlink:title="1">
<text text-anchor="middle" x="482.77" y="-184.587" font-family="Helvetica,sans-Serif" font-size="10.00">1</text>
</a>
</g>
</g>
<!-- dir_4cbbc7f21c16d130545e15f2205651b3&#45;&gt;dir_677b030cc750909e4cd27413873678d8 -->
<g id="edge11" class="edge"><title>dir_4cbbc7f21c16d130545e15f2205651b3&#45;&gt;dir_677b030cc750909e4cd27413873678d8</title>
<path fill="none" stroke="black" d="M222.333,-219.575C225.234,-218.306 228.161,-217.089 231,-216 282.987,-196.056 312.183,-219.921 351,-180 366.908,-163.639 372.54,-137.892 374.409,-118.29"/>
<polygon fill="black" stroke="black" points="377.913,-118.347 375.101,-108.132 370.929,-117.871 377.913,-118.347"/>
<g id="a_edge11&#45;headlabel"><a xlink:href="dir_000280_000187.html" target="_top" xlink:title="9">
<text text-anchor="middle" x="380.502" y="-119.626" font-family="Helvetica,sans-Serif" font-size="10.00">9</text>
</a>
</g>
</g>
<!-- dir_4cbbc7f21c16d130545e15f2205651b3&#45;&gt;dir_2171f7ec022c5423887b07c69b2f5b48 -->
<g id="edge13" class="edge"><title>dir_4cbbc7f21c16d130545e15f2205651b3&#45;&gt;dir_2171f7ec022c5423887b07c69b2f5b48</title>
<path fill="none" stroke="black" d="M222.153,-219.031C225.088,-217.868 228.073,-216.825 231,-216 302.43,-195.877 513.434,-235.231 563,-180 604.378,-133.893 530.426,-73.6708 482.039,-41.5302"/>
<polygon fill="black" stroke="black" points="483.919,-38.5783 473.63,-36.0537 480.099,-44.444 483.919,-38.5783"/>
<g id="a_edge13&#45;headlabel"><a xlink:href="dir_000280_000052.html" target="_top" xlink:title="20">
<text text-anchor="middle" x="488.481" y="-35.6609" font-family="Helvetica,sans-Serif" font-size="10.00">20</text>
</a>
</g>
</g>
<!-- dir_f9c1a6d4eb662f0614520771b81d0fc2 -->
<g id="node4" class="node"><title>dir_f9c1a6d4eb662f0614520771b81d0fc2</title>
<g id="a_node4"><a xlink:href="dir_f9c1a6d4eb662f0614520771b81d0fc2.html" target="_top" xlink:title="run">
<polygon fill="white" stroke="black" points="78,-252 24,-252 24,-216 78,-216 78,-252"/>
<text text-anchor="middle" x="51" y="-231.5" font-family="Helvetica,sans-Serif" font-size="10.00">run</text>
</a>
</g>
</g>
<!-- dir_f9c1a6d4eb662f0614520771b81d0fc2&#45;&gt;dir_396d171119822f66a36fe1ebf998d1a3 -->
<g id="edge2" class="edge"><title>dir_f9c1a6d4eb662f0614520771b81d0fc2&#45;&gt;dir_396d171119822f66a36fe1ebf998d1a3</title>
<path fill="none" stroke="black" d="M78.0968,-220.126C81.0964,-218.724 84.1101,-217.326 87,-216 114.643,-203.319 146.08,-189.337 169.698,-178.919"/>
<polygon fill="black" stroke="black" points="171.243,-182.062 178.984,-174.828 168.422,-175.656 171.243,-182.062"/>
<g id="a_edge2&#45;headlabel"><a xlink:href="dir_000281_000222.html" target="_top" xlink:title="4">
<text text-anchor="middle" x="169.098" y="-183.61" font-family="Helvetica,sans-Serif" font-size="10.00">4</text>
</a>
</g>
</g>
<!-- dir_f9c1a6d4eb662f0614520771b81d0fc2&#45;&gt;dir_677b030cc750909e4cd27413873678d8 -->
<g id="edge1" class="edge"><title>dir_f9c1a6d4eb662f0614520771b81d0fc2&#45;&gt;dir_677b030cc750909e4cd27413873678d8</title>
<path fill="none" stroke="black" d="M78.2655,-219.389C81.179,-218.157 84.1276,-216.999 87,-216 153.798,-192.769 177.721,-209.493 242,-180 277.55,-163.688 280.392,-149.601 313,-128 321.299,-122.502 330.415,-116.855 339.043,-111.68"/>
<polygon fill="black" stroke="black" points="340.988,-114.596 347.803,-106.484 337.417,-108.575 340.988,-114.596"/>
<g id="a_edge1&#45;headlabel"><a xlink:href="dir_000281_000187.html" target="_top" xlink:title="2">
<text text-anchor="middle" x="339.345" y="-116.372" font-family="Helvetica,sans-Serif" font-size="10.00">2</text>
</a>
</g>
</g>
<!-- dir_0c8c50542de1d83a040084fab225b0f7 -->
<g id="node5" class="node"><title>dir_0c8c50542de1d83a040084fab225b0f7</title>
<g id="a_node5"><a xlink:href="dir_0c8c50542de1d83a040084fab225b0f7.html" target="_top" xlink:title="src">
<polygon fill="white" stroke="black" points="150,-252 96,-252 96,-216 150,-216 150,-252"/>
<text text-anchor="middle" x="123" y="-231.5" font-family="Helvetica,sans-Serif" font-size="10.00">src</text>
</a>
</g>
</g>
<!-- dir_0c8c50542de1d83a040084fab225b0f7&#45;&gt;dir_396d171119822f66a36fe1ebf998d1a3 -->
<g id="edge19" class="edge"><title>dir_0c8c50542de1d83a040084fab225b0f7&#45;&gt;dir_396d171119822f66a36fe1ebf998d1a3</title>
<path fill="none" stroke="black" d="M143.517,-215.697C153.869,-206.965 166.586,-196.24 177.839,-186.75"/>
<polygon fill="black" stroke="black" points="180.331,-189.227 185.719,-180.104 175.818,-183.876 180.331,-189.227"/>
<g id="a_edge19&#45;headlabel"><a xlink:href="dir_000231_000222.html" target="_top" xlink:title="22">
<text text-anchor="middle" x="179.414" y="-191.215" font-family="Helvetica,sans-Serif" font-size="10.00">22</text>
</a>
</g>
</g>
<!-- dir_0c8c50542de1d83a040084fab225b0f7&#45;&gt;dir_677b030cc750909e4cd27413873678d8 -->
<g id="edge18" class="edge"><title>dir_0c8c50542de1d83a040084fab225b0f7&#45;&gt;dir_677b030cc750909e4cd27413873678d8</title>
<path fill="none" stroke="black" d="M150.267,-219.393C153.18,-218.16 156.128,-217.001 159,-216 225.373,-192.864 254.829,-219.456 313,-180 316.172,-177.849 340.384,-142.439 357.593,-116.942"/>
<polygon fill="black" stroke="black" points="360.658,-118.657 363.342,-108.408 354.852,-114.746 360.658,-118.657"/>
<g id="a_edge18&#45;headlabel"><a xlink:href="dir_000231_000187.html" target="_top" xlink:title="20">
<text text-anchor="middle" x="361.005" y="-120.724" font-family="Helvetica,sans-Serif" font-size="10.00">20</text>
</a>
</g>
</g>
<!-- dir_0c8c50542de1d83a040084fab225b0f7&#45;&gt;dir_2171f7ec022c5423887b07c69b2f5b48 -->
<g id="edge20" class="edge"><title>dir_0c8c50542de1d83a040084fab225b0f7&#45;&gt;dir_2171f7ec022c5423887b07c69b2f5b48</title>
<path fill="none" stroke="black" d="M150.084,-220.097C153.086,-218.701 156.104,-217.312 159,-216 195.629,-199.413 209.371,-203.498 242,-180 294.355,-142.296 287.69,-111.113 339,-72 356.999,-58.2793 379.101,-46.5643 398.457,-37.6647"/>
<polygon fill="black" stroke="black" points="400.01,-40.8044 407.708,-33.5256 397.151,-34.4148 400.01,-40.8044"/>
<g id="a_edge20&#45;headlabel"><a xlink:href="dir_000231_000052.html" target="_top" xlink:title="11">
<text text-anchor="middle" x="397.888" y="-42.3641" font-family="Helvetica,sans-Serif" font-size="10.00">11</text>
</a>
</g>
</g>
<!-- dir_064d7f478c030df51e47c94b08ab25b1 -->
<g id="node6" class="node"><title>dir_064d7f478c030df51e47c94b08ab25b1</title>
<g id="a_node6"><a xlink:href="dir_064d7f478c030df51e47c94b08ab25b1.html" target="_top" xlink:title="test">
<polygon fill="white" stroke="black" points="294,-252 240,-252 240,-216 294,-216 294,-252"/>
<text text-anchor="middle" x="267" y="-231.5" font-family="Helvetica,sans-Serif" font-size="10.00">test</text>
</a>
</g>
</g>
<!-- dir_064d7f478c030df51e47c94b08ab25b1&#45;&gt;dir_396d171119822f66a36fe1ebf998d1a3 -->
<g id="edge16" class="edge"><title>dir_064d7f478c030df51e47c94b08ab25b1&#45;&gt;dir_396d171119822f66a36fe1ebf998d1a3</title>
<path fill="none" stroke="black" d="M251.921,-215.697C244.608,-207.305 235.69,-197.07 227.665,-187.861"/>
<polygon fill="black" stroke="black" points="230.114,-185.344 220.905,-180.104 224.836,-189.943 230.114,-185.344"/>
<g id="a_edge16&#45;headlabel"><a xlink:href="dir_000282_000222.html" target="_top" xlink:title="3">
<text text-anchor="middle" x="234.616" y="-183.689" font-family="Helvetica,sans-Serif" font-size="10.00">3</text>
</a>
</g>
</g>
<!-- dir_064d7f478c030df51e47c94b08ab25b1&#45;&gt;dir_2171f7ec022c5423887b07c69b2f5b48 -->
<g id="edge17" class="edge"><title>dir_064d7f478c030df51e47c94b08ab25b1&#45;&gt;dir_2171f7ec022c5423887b07c69b2f5b48</title>
<path fill="none" stroke="black" d="M294.165,-219.072C297.098,-217.902 300.079,-216.845 303,-216 366.23,-197.714 553.377,-229.29 597,-180 628.812,-144.055 624.798,-111.132 597,-72 573.431,-38.8213 527.491,-26.2397 492.258,-21.5582"/>
<polygon fill="black" stroke="black" points="492.505,-18.0635 482.169,-20.3906 491.7,-25.0171 492.505,-18.0635"/>
<g id="a_edge17&#45;headlabel"><a xlink:href="dir_000282_000052.html" target="_top" xlink:title="4">
<text text-anchor="middle" x="496.402" y="-13.1562" font-family="Helvetica,sans-Serif" font-size="10.00">4</text>
</a>
</g>
</g>
<!-- dir_7f309bec8670bb3fb666e7e061b24659&#45;&gt;dir_677b030cc750909e4cd27413873678d8 -->
<g id="edge3" class="edge"><title>dir_7f309bec8670bb3fb666e7e061b24659&#45;&gt;dir_677b030cc750909e4cd27413873678d8</title>
<path fill="none" stroke="black" d="M427.697,-143.697C419.135,-135.135 408.656,-124.656 399.304,-115.304"/>
<polygon fill="black" stroke="black" points="401.65,-112.701 392.104,-108.104 396.701,-117.65 401.65,-112.701"/>
<g id="a_edge3&#45;headlabel"><a xlink:href="dir_000164_000187.html" target="_top" xlink:title="44">
<text text-anchor="middle" x="406.2" y="-110.735" font-family="Helvetica,sans-Serif" font-size="10.00">44</text>
</a>
</g>
</g>
<!-- dir_7f309bec8670bb3fb666e7e061b24659&#45;&gt;dir_2171f7ec022c5423887b07c69b2f5b48 -->
<g id="edge4" class="edge"><title>dir_7f309bec8670bb3fb666e7e061b24659&#45;&gt;dir_2171f7ec022c5423887b07c69b2f5b48</title>
<path fill="none" stroke="black" d="M445,-143.871C445,-119.67 445,-75.2108 445,-46.3932"/>
<polygon fill="black" stroke="black" points="448.5,-46.1892 445,-36.1893 441.5,-46.1893 448.5,-46.1892"/>
<g id="a_edge4&#45;headlabel"><a xlink:href="dir_000164_000052.html" target="_top" xlink:title="9">
<text text-anchor="middle" x="451.339" y="-47.2839" font-family="Helvetica,sans-Serif" font-size="10.00">9</text>
</a>
</g>
</g>
<!-- dir_4995562033b321477cfe3c34a14a5189&#45;&gt;dir_396d171119822f66a36fe1ebf998d1a3 -->
<g id="edge6" class="edge"><title>dir_4995562033b321477cfe3c34a14a5189&#45;&gt;dir_396d171119822f66a36fe1ebf998d1a3</title>
<path fill="none" stroke="black" d="M505.133,-180.242C496.632,-187.227 486.034,-194.382 475,-198 394.872,-224.271 295.311,-196.217 242.648,-176.954"/>
<polygon fill="black" stroke="black" points="243.66,-173.595 233.067,-173.356 241.198,-180.148 243.66,-173.595"/>
<g id="a_edge6&#45;headlabel"><a xlink:href="dir_000269_000222.html" target="_top" xlink:title="3">
<text text-anchor="middle" x="248.023" y="-169.701" font-family="Helvetica,sans-Serif" font-size="10.00">3</text>
</a>
</g>
</g>
<!-- dir_4995562033b321477cfe3c34a14a5189&#45;&gt;dir_677b030cc750909e4cd27413873678d8 -->
<g id="edge5" class="edge"><title>dir_4995562033b321477cfe3c34a14a5189&#45;&gt;dir_677b030cc750909e4cd27413873678d8</title>
<path fill="none" stroke="black" d="M505.904,-143.714C499.374,-138.138 491.706,-132.296 484,-128 461.397,-115.4 433.771,-106.08 411.987,-99.9458"/>
<polygon fill="black" stroke="black" points="412.688,-96.5095 402.12,-97.2706 410.856,-103.266 412.688,-96.5095"/>
<g id="a_edge5&#45;headlabel"><a xlink:href="dir_000269_000187.html" target="_top" xlink:title="10">
<text text-anchor="middle" x="416.9" y="-92.2097" font-family="Helvetica,sans-Serif" font-size="10.00">10</text>
</a>
</g>
</g>
<!-- dir_4995562033b321477cfe3c34a14a5189&#45;&gt;dir_2171f7ec022c5423887b07c69b2f5b48 -->
<g id="edge7" class="edge"><title>dir_4995562033b321477cfe3c34a14a5189&#45;&gt;dir_2171f7ec022c5423887b07c69b2f5b48</title>
<path fill="none" stroke="black" d="M514.471,-143.871C500.829,-119.35 475.616,-74.0321 459.609,-45.2589"/>
<polygon fill="black" stroke="black" points="462.483,-43.2263 454.563,-36.1893 456.366,-46.6295 462.483,-43.2263"/>
<g id="a_edge7&#45;headlabel"><a xlink:href="dir_000269_000052.html" target="_top" xlink:title="3">
<text text-anchor="middle" x="466.712" y="-42.4872" font-family="Helvetica,sans-Serif" font-size="10.00">3</text>
</a>
</g>
</g>
<!-- dir_677b030cc750909e4cd27413873678d8&#45;&gt;dir_2171f7ec022c5423887b07c69b2f5b48 -->
<g id="edge8" class="edge"><title>dir_677b030cc750909e4cd27413873678d8&#45;&gt;dir_2171f7ec022c5423887b07c69b2f5b48</title>
<path fill="none" stroke="black" d="M392.303,-71.6966C400.865,-63.135 411.344,-52.6562 420.696,-43.3045"/>
<polygon fill="black" stroke="black" points="423.299,-45.6503 427.896,-36.1043 418.35,-40.7005 423.299,-45.6503"/>
<g id="a_edge8&#45;headlabel"><a xlink:href="dir_000187_000052.html" target="_top" xlink:title="13">
<text text-anchor="middle" x="422.765" y="-47.6997" font-family="Helvetica,sans-Serif" font-size="10.00">13</text>
</a>
</g>
</g>
</g>
</svg>
