<?xml version="1.0" encoding="UTF-8" standalone="no"?>
<!DOCTYPE svg PUBLIC "-//W3C//DTD SVG 1.1//EN"
 "http://www.w3.org/Graphics/SVG/1.1/DTD/svg11.dtd">
<!-- Generated by graphviz version 2.36.0 (20140111.2315)
 -->
<!-- Title: /home/travis/build/AliceO2Group/AliceO2/DataFormats/Detectors Pages: 1 -->
<svg width="467pt" height="329pt"
 viewBox="0.00 0.00 467.00 328.72" xmlns="http://www.w3.org/2000/svg" xmlns:xlink="http://www.w3.org/1999/xlink">
<g id="graph0" class="graph" transform="scale(1 1) rotate(0) translate(4 324.725)">
<title>/home/travis/build/AliceO2Group/AliceO2/DataFormats/Detectors</title>
<g id="clust1" class="cluster"><title>clusterdir_2171f7ec022c5423887b07c69b2f5b48</title>
<g id="a_clust1"><a xlink:href="dir_2171f7ec022c5423887b07c69b2f5b48.html" target="_top" xlink:title="DataFormats">
<polygon fill="#ddddee" stroke="black" points="69,-200 69,-287 451,-287 451,-200 69,-200"/>
<text text-anchor="middle" x="260" y="-275" font-family="Helvetica,sans-Serif" font-size="10.00">DataFormats</text>
</a>
</g>
</g>
<g id="clust2" class="cluster"><title>clusterdir_2801adc79bf3c286b1b479858d2cade4</title>
<g id="a_clust2"><a xlink:href="dir_2801adc79bf3c286b1b479858d2cade4.html" target="_top">
<polygon fill="#eeeeff" stroke="black" points="77,-208 77,-260 443,-260 443,-208 77,-208"/>
</a>
</g>
</g>
<!-- dir_2801adc79bf3c286b1b479858d2cade4 -->
<g id="node1" class="node"><title>dir_2801adc79bf3c286b1b479858d2cade4</title>
<text text-anchor="middle" x="405" y="-231.5" font-family="Helvetica,sans-Serif" font-size="10.00">Detectors</text>
</g>
<!-- dir_74593c7a91e03746ae2a516888bf9494 -->
<g id="node2" class="node"><title>dir_74593c7a91e03746ae2a516888bf9494</title>
<g id="a_node2"><a xlink:href="dir_74593c7a91e03746ae2a516888bf9494.html" target="_top" xlink:title="Common">
<polygon fill="white" stroke="red" points="284.5,-252 229.5,-252 229.5,-216 284.5,-216 284.5,-252"/>
<text text-anchor="middle" x="257" y="-231.5" font-family="Helvetica,sans-Serif" font-size="10.00">Common</text>
</a>
</g>
</g>
<!-- dir_4ab6b4cc6a7edbff49100e9123df213f -->
<g id="node7" class="node"><title>dir_4ab6b4cc6a7edbff49100e9123df213f</title>
<g id="a_node7"><a xlink:href="dir_4ab6b4cc6a7edbff49100e9123df213f.html" target="_top" xlink:title="Common">
<polygon fill="none" stroke="red" points="226.5,-180 171.5,-180 171.5,-144 226.5,-144 226.5,-180"/>
<text text-anchor="middle" x="199" y="-159.5" font-family="Helvetica,sans-Serif" font-size="10.00">Common</text>
</a>
</g>
</g>
<!-- dir_74593c7a91e03746ae2a516888bf9494&#45;&gt;dir_4ab6b4cc6a7edbff49100e9123df213f -->
<g id="edge13" class="edge"><title>dir_74593c7a91e03746ae2a516888bf9494&#45;&gt;dir_4ab6b4cc6a7edbff49100e9123df213f</title>
<path fill="none" stroke="black" d="M242.663,-215.697C235.709,-207.305 227.23,-197.07 219.599,-187.861"/>
<polygon fill="black" stroke="black" points="222.247,-185.571 213.172,-180.104 216.857,-190.038 222.247,-185.571"/>
<g id="a_edge13&#45;headlabel"><a xlink:href="dir_000063_000016.html" target="_top" xlink:title="3">
<text text-anchor="middle" x="226.727" y="-184.028" font-family="Helvetica,sans-Serif" font-size="10.00">3</text>
</a>
</g>
</g>
<!-- dir_ff53c4a4c37940dfaa1ef75e68c4ec2e -->
<g id="node3" class="node"><title>dir_ff53c4a4c37940dfaa1ef75e68c4ec2e</title>
<g id="a_node3"><a xlink:href="dir_ff53c4a4c37940dfaa1ef75e68c4ec2e.html" target="_top" xlink:title="ITSMFT">
<polygon fill="white" stroke="red" points="139,-252 85,-252 85,-216 139,-216 139,-252"/>
<text text-anchor="middle" x="112" y="-231.5" font-family="Helvetica,sans-Serif" font-size="10.00">ITSMFT</text>
</a>
</g>
</g>
<!-- dir_d269712cc31e133b892a3b3f6424741a -->
<g id="node6" class="node"><title>dir_d269712cc31e133b892a3b3f6424741a</title>
<g id="a_node6"><a xlink:href="dir_d269712cc31e133b892a3b3f6424741a.html" target="_top" xlink:title="Reconstruction">
<polygon fill="none" stroke="red" points="268.25,-108 185.75,-108 185.75,-72 268.25,-72 268.25,-108"/>
<text text-anchor="middle" x="227" y="-87.5" font-family="Helvetica,sans-Serif" font-size="10.00">Reconstruction</text>
</a>
</g>
</g>
<!-- dir_ff53c4a4c37940dfaa1ef75e68c4ec2e&#45;&gt;dir_d269712cc31e133b892a3b3f6424741a -->
<g id="edge5" class="edge"><title>dir_ff53c4a4c37940dfaa1ef75e68c4ec2e&#45;&gt;dir_d269712cc31e133b892a3b3f6424741a</title>
<path fill="none" stroke="black" d="M119.327,-215.741C127.847,-196.883 143.177,-166.379 162,-144 171.112,-133.167 182.677,-122.918 193.518,-114.372"/>
<polygon fill="black" stroke="black" points="195.793,-117.039 201.615,-108.188 191.544,-111.476 195.793,-117.039"/>
<g id="a_edge5&#45;headlabel"><a xlink:href="dir_000068_000110.html" target="_top" xlink:title="2">
<text text-anchor="middle" x="194.66" y="-118.978" font-family="Helvetica,sans-Serif" font-size="10.00">2</text>
</a>
</g>
</g>
<!-- dir_ff53c4a4c37940dfaa1ef75e68c4ec2e&#45;&gt;dir_4ab6b4cc6a7edbff49100e9123df213f -->
<g id="edge6" class="edge"><title>dir_ff53c4a4c37940dfaa1ef75e68c4ec2e&#45;&gt;dir_4ab6b4cc6a7edbff49100e9123df213f</title>
<path fill="none" stroke="black" d="M129.955,-215.797C135.61,-210.583 141.958,-204.934 148,-200 153.709,-195.338 159.945,-190.568 166.036,-186.068"/>
<polygon fill="black" stroke="black" points="168.161,-188.85 174.188,-180.136 164.043,-183.19 168.161,-188.85"/>
<g id="a_edge6&#45;headlabel"><a xlink:href="dir_000068_000016.html" target="_top" xlink:title="1">
<text text-anchor="middle" x="166.925" y="-190.761" font-family="Helvetica,sans-Serif" font-size="10.00">1</text>
</a>
</g>
</g>
<!-- dir_39a68910f3cfdc380c901647ab1550b8 -->
<g id="node4" class="node"><title>dir_39a68910f3cfdc380c901647ab1550b8</title>
<g id="a_node4"><a xlink:href="dir_39a68910f3cfdc380c901647ab1550b8.html" target="_top" xlink:title="MUON">
<polygon fill="white" stroke="red" points="211,-252 157,-252 157,-216 211,-216 211,-252"/>
<text text-anchor="middle" x="184" y="-231.5" font-family="Helvetica,sans-Serif" font-size="10.00">MUON</text>
</a>
</g>
</g>
<!-- dir_87e4e27fa2128902da5e37b3e7ab3f52 -->
<g id="node5" class="node"><title>dir_87e4e27fa2128902da5e37b3e7ab3f52</title>
<g id="a_node5"><a xlink:href="dir_87e4e27fa2128902da5e37b3e7ab3f52.html" target="_top" xlink:title="TPC">
<polygon fill="white" stroke="red" points="357,-252 303,-252 303,-216 357,-216 357,-252"/>
<text text-anchor="middle" x="330" y="-231.5" font-family="Helvetica,sans-Serif" font-size="10.00">TPC</text>
</a>
</g>
</g>
<!-- dir_87e4e27fa2128902da5e37b3e7ab3f52&#45;&gt;dir_d269712cc31e133b892a3b3f6424741a -->
<g id="edge9" class="edge"><title>dir_87e4e27fa2128902da5e37b3e7ab3f52&#45;&gt;dir_d269712cc31e133b892a3b3f6424741a</title>
<path fill="none" stroke="black" d="M317.576,-215.871C299.635,-191.137 266.345,-145.242 245.505,-116.512"/>
<polygon fill="black" stroke="black" points="248.173,-114.229 239.468,-108.189 242.507,-118.339 248.173,-114.229"/>
<g id="a_edge9&#45;headlabel"><a xlink:href="dir_000072_000110.html" target="_top" xlink:title="1">
<text text-anchor="middle" x="252.582" y="-112.972" font-family="Helvetica,sans-Serif" font-size="10.00">1</text>
</a>
</g>
</g>
<!-- dir_87e4e27fa2128902da5e37b3e7ab3f52&#45;&gt;dir_4ab6b4cc6a7edbff49100e9123df213f -->
<g id="edge10" class="edge"><title>dir_87e4e27fa2128902da5e37b3e7ab3f52&#45;&gt;dir_4ab6b4cc6a7edbff49100e9123df213f</title>
<path fill="none" stroke="black" d="M313.325,-215.857C307.29,-210.293 300.184,-204.421 293,-200 275.356,-189.142 253.981,-180.427 236.075,-174.188"/>
<polygon fill="black" stroke="black" points="237.123,-170.849 226.529,-170.98 234.893,-177.484 237.123,-170.849"/>
<g id="a_edge10&#45;headlabel"><a xlink:href="dir_000072_000016.html" target="_top" xlink:title="2">
<text text-anchor="middle" x="241.435" y="-166.803" font-family="Helvetica,sans-Serif" font-size="10.00">2</text>
</a>
</g>
</g>
<!-- dir_047746f9f311f49446db9474b7431d0d -->
<g id="node8" class="node"><title>dir_047746f9f311f49446db9474b7431d0d</title>
<g id="a_node8"><a xlink:href="dir_047746f9f311f49446db9474b7431d0d.html" target="_top" xlink:title="simulation">
<polygon fill="none" stroke="red" points="60.25,-252 -0.25,-252 -0.25,-216 60.25,-216 60.25,-252"/>
<text text-anchor="middle" x="30" y="-231.5" font-family="Helvetica,sans-Serif" font-size="10.00">simulation</text>
</a>
</g>
</g>
<!-- dir_87e4e27fa2128902da5e37b3e7ab3f52&#45;&gt;dir_047746f9f311f49446db9474b7431d0d -->
<g id="edge11" class="edge"><title>dir_87e4e27fa2128902da5e37b3e7ab3f52&#45;&gt;dir_047746f9f311f49446db9474b7431d0d</title>
<path fill="none" stroke="black" d="M324.029,-252.052C317.293,-269.159 304.517,-293.846 284,-305 244.562,-326.44 122.035,-325.303 82,-305 63.8882,-295.815 50.5662,-277.029 41.9426,-261.087"/>
<polygon fill="black" stroke="black" points="45.0451,-259.466 37.4074,-252.123 38.7991,-262.626 45.0451,-259.466"/>
<g id="a_edge11&#45;headlabel"><a xlink:href="dir_000072_000129.html" target="_top" xlink:title="2">
<text text-anchor="middle" x="49.2013" y="-258.892" font-family="Helvetica,sans-Serif" font-size="10.00">2</text>
</a>
</g>
</g>
<!-- dir_7924ba4398ae4560cd37376e44666c6d -->
<g id="node9" class="node"><title>dir_7924ba4398ae4560cd37376e44666c6d</title>
<g id="a_node9"><a xlink:href="dir_7924ba4398ae4560cd37376e44666c6d.html" target="_top" xlink:title="common">
<polygon fill="none" stroke="red" points="306,-36 252,-36 252,-0 306,-0 306,-36"/>
<text text-anchor="middle" x="279" y="-15.5" font-family="Helvetica,sans-Serif" font-size="10.00">common</text>
</a>
</g>
</g>
<!-- dir_87e4e27fa2128902da5e37b3e7ab3f52&#45;&gt;dir_7924ba4398ae4560cd37376e44666c6d -->
<g id="edge12" class="edge"><title>dir_87e4e27fa2128902da5e37b3e7ab3f52&#45;&gt;dir_7924ba4398ae4560cd37376e44666c6d</title>
<path fill="none" stroke="black" d="M325.913,-215.849C317.072,-178.753 296.114,-90.8101 285.459,-46.1027"/>
<polygon fill="black" stroke="black" points="288.83,-45.1486 283.107,-36.2325 282.02,-46.7714 288.83,-45.1486"/>
<g id="a_edge12&#45;headlabel"><a xlink:href="dir_000072_000053.html" target="_top" xlink:title="1">
<text text-anchor="middle" x="292.425" y="-45.4871" font-family="Helvetica,sans-Serif" font-size="10.00">1</text>
</a>
</g>
</g>
<!-- dir_d269712cc31e133b892a3b3f6424741a&#45;&gt;dir_74593c7a91e03746ae2a516888bf9494 -->
<g id="edge2" class="edge"><title>dir_d269712cc31e133b892a3b3f6424741a&#45;&gt;dir_74593c7a91e03746ae2a516888bf9494</title>
<path fill="none" stroke="black" d="M230.632,-108.189C235.774,-132.531 245.228,-177.28 251.308,-206.059"/>
<polygon fill="black" stroke="black" points="247.89,-206.811 253.381,-215.871 254.739,-205.364 247.89,-206.811"/>
<g id="a_edge2&#45;headlabel"><a xlink:href="dir_000110_000063.html" target="_top" xlink:title="1">
<text text-anchor="middle" x="244.369" y="-201.381" font-family="Helvetica,sans-Serif" font-size="10.00">1</text>
</a>
</g>
</g>
<!-- dir_d269712cc31e133b892a3b3f6424741a&#45;&gt;dir_4ab6b4cc6a7edbff49100e9123df213f -->
<g id="edge1" class="edge"><title>dir_d269712cc31e133b892a3b3f6424741a&#45;&gt;dir_4ab6b4cc6a7edbff49100e9123df213f</title>
<path fill="none" stroke="black" d="M226.053,-108.104C223.709,-116.045 220.085,-125.666 216.163,-134.515"/>
<polygon fill="black" stroke="black" points="212.933,-133.159 211.837,-143.697 219.266,-136.142 212.933,-133.159"/>
<g id="a_edge1&#45;headlabel"><a xlink:href="dir_000110_000016.html" target="_top" xlink:title="5">
<text text-anchor="middle" x="211.897" y="-126.197" font-family="Helvetica,sans-Serif" font-size="10.00">5</text>
</a>
</g>
</g>
<!-- dir_d269712cc31e133b892a3b3f6424741a&#45;&gt;dir_7924ba4398ae4560cd37376e44666c6d -->
<g id="edge3" class="edge"><title>dir_d269712cc31e133b892a3b3f6424741a&#45;&gt;dir_7924ba4398ae4560cd37376e44666c6d</title>
<path fill="none" stroke="black" d="M239.854,-71.6966C246.025,-63.3893 253.537,-53.2771 260.324,-44.1407"/>
<polygon fill="black" stroke="black" points="263.14,-46.2189 266.294,-36.1043 257.521,-42.0446 263.14,-46.2189"/>
<g id="a_edge3&#45;headlabel"><a xlink:href="dir_000110_000053.html" target="_top" xlink:title="4">
<text text-anchor="middle" x="263.276" y="-48.2976" font-family="Helvetica,sans-Serif" font-size="10.00">4</text>
</a>
</g>
</g>
<!-- dir_4ab6b4cc6a7edbff49100e9123df213f&#45;&gt;dir_d269712cc31e133b892a3b3f6424741a -->
<g id="edge4" class="edge"><title>dir_4ab6b4cc6a7edbff49100e9123df213f&#45;&gt;dir_d269712cc31e133b892a3b3f6424741a</title>
<path fill="none" stroke="black" d="M200.006,-143.697C202.371,-135.728 206.008,-126.1 209.935,-117.264"/>
<polygon fill="black" stroke="black" points="213.155,-118.641 214.263,-108.104 206.826,-115.65 213.155,-118.641"/>
<g id="a_edge4&#45;headlabel"><a xlink:href="dir_000016_000110.html" target="_top" xlink:title="1">
<text text-anchor="middle" x="214.187" y="-120.604" font-family="Helvetica,sans-Serif" font-size="10.00">1</text>
</a>
</g>
</g>
<!-- dir_047746f9f311f49446db9474b7431d0d&#45;&gt;dir_74593c7a91e03746ae2a516888bf9494 -->
<g id="edge8" class="edge"><title>dir_047746f9f311f49446db9474b7431d0d&#45;&gt;dir_74593c7a91e03746ae2a516888bf9494</title>
<path fill="none" stroke="black" d="M37.4074,-252.123C45.5215,-269.285 60.3335,-294.012 82,-305 107.567,-317.966 185.815,-318.692 211,-305 227.991,-295.763 239.672,-277.245 247.012,-261.437"/>
<polygon fill="black" stroke="black" points="250.312,-262.622 251.029,-252.052 243.876,-259.868 250.312,-262.622"/>
<g id="a_edge8&#45;headlabel"><a xlink:href="dir_000129_000063.html" target="_top" xlink:title="4">
<text text-anchor="middle" x="251.507" y="-264.544" font-family="Helvetica,sans-Serif" font-size="10.00">4</text>
</a>
</g>
</g>
<!-- dir_047746f9f311f49446db9474b7431d0d&#45;&gt;dir_4ab6b4cc6a7edbff49100e9123df213f -->
<g id="edge7" class="edge"><title>dir_047746f9f311f49446db9474b7431d0d&#45;&gt;dir_4ab6b4cc6a7edbff49100e9123df213f</title>
<path fill="none" stroke="black" d="M49.0961,-215.921C56.214,-210.23 64.6105,-204.263 73,-200 101.172,-185.686 135.772,-176.026 161.583,-170.176"/>
<polygon fill="black" stroke="black" points="162.335,-173.595 171.361,-168.046 160.845,-166.755 162.335,-173.595"/>
<g id="a_edge7&#45;headlabel"><a xlink:href="dir_000129_000016.html" target="_top" xlink:title="1">
<text text-anchor="middle" x="159.427" y="-174.634" font-family="Helvetica,sans-Serif" font-size="10.00">1</text>
</a>
</g>
</g>
</g>
</svg>
