<?xml version="1.0" encoding="UTF-8" standalone="no"?>
<!DOCTYPE svg PUBLIC "-//W3C//DTD SVG 1.1//EN"
 "http://www.w3.org/Graphics/SVG/1.1/DTD/svg11.dtd">
<!-- Generated by graphviz version 2.36.0 (20140111.2315)
 -->
<!-- Title: /home/travis/build/AliceO2Group/AliceO2/Detectors/TOF Pages: 1 -->
<svg width="203pt" height="447pt"
 viewBox="0.00 0.00 202.71 447.00" xmlns="http://www.w3.org/2000/svg" xmlns:xlink="http://www.w3.org/1999/xlink">
<g id="graph0" class="graph" transform="scale(1 1) rotate(0) translate(4 443)">
<title>/home/travis/build/AliceO2Group/AliceO2/Detectors/TOF</title>
<g id="clust1" class="cluster"><title>clusterdir_051dca18e802f8e9474f2e30d29c04e0</title>
<g id="a_clust1"><a xlink:href="dir_051dca18e802f8e9474f2e30d29c04e0.html" target="_top" xlink:title="Detectors">
<polygon fill="#ddddee" stroke="black" points="9.7061,-200 9.7061,-431 179.706,-431 179.706,-200 9.7061,-200"/>
<text text-anchor="middle" x="94.7061" y="-419" font-family="Helvetica,sans-Serif" font-size="10.00">Detectors</text>
</a>
</g>
</g>
<g id="clust2" class="cluster"><title>clusterdir_577c839d346a264df4e9e588ca2a45dd</title>
<g id="a_clust2"><a xlink:href="dir_577c839d346a264df4e9e588ca2a45dd.html" target="_top">
<polygon fill="#eeeeff" stroke="black" points="17.7061,-208 17.7061,-404 171.706,-404 171.706,-208 17.7061,-208"/>
</a>
</g>
</g>
<!-- dir_577c839d346a264df4e9e588ca2a45dd -->
<g id="node1" class="node"><title>dir_577c839d346a264df4e9e588ca2a45dd</title>
<text text-anchor="middle" x="136.706" y="-375.5" font-family="Helvetica,sans-Serif" font-size="10.00">TOF</text>
</g>
<!-- dir_0189f3ad6abecd72f822a0c3914f12b2 -->
<g id="node2" class="node"><title>dir_0189f3ad6abecd72f822a0c3914f12b2</title>
<g id="a_node2"><a xlink:href="dir_0189f3ad6abecd72f822a0c3914f12b2.html" target="_top" xlink:title="base">
<polygon fill="white" stroke="red" points="84.7061,-252 30.7061,-252 30.7061,-216 84.7061,-216 84.7061,-252"/>
<text text-anchor="middle" x="57.7061" y="-231.5" font-family="Helvetica,sans-Serif" font-size="10.00">base</text>
</a>
</g>
</g>
<!-- dir_2171f7ec022c5423887b07c69b2f5b48 -->
<g id="node8" class="node"><title>dir_2171f7ec022c5423887b07c69b2f5b48</title>
<g id="a_node8"><a xlink:href="dir_2171f7ec022c5423887b07c69b2f5b48.html" target="_top" xlink:title="DataFormats">
<polygon fill="none" stroke="red" points="84.7061,-180 10.7061,-180 10.7061,-144 84.7061,-144 84.7061,-180"/>
<text text-anchor="middle" x="47.7061" y="-159.5" font-family="Helvetica,sans-Serif" font-size="10.00">DataFormats</text>
</a>
</g>
</g>
<!-- dir_0189f3ad6abecd72f822a0c3914f12b2&#45;&gt;dir_2171f7ec022c5423887b07c69b2f5b48 -->
<g id="edge8" class="edge"><title>dir_0189f3ad6abecd72f822a0c3914f12b2&#45;&gt;dir_2171f7ec022c5423887b07c69b2f5b48</title>
<path fill="none" stroke="black" d="M55.2342,-215.697C54.1322,-207.983 52.8079,-198.712 51.5793,-190.112"/>
<polygon fill="black" stroke="black" points="55.0287,-189.509 50.1496,-180.104 48.0991,-190.499 55.0287,-189.509"/>
<g id="a_edge8&#45;headlabel"><a xlink:href="dir_000184_000052.html" target="_top" xlink:title="1">
<text text-anchor="middle" x="58.3477" y="-190.166" font-family="Helvetica,sans-Serif" font-size="10.00">1</text>
</a>
</g>
</g>
<!-- dir_049fcc021d70cf6aa17690e15cd47498 -->
<g id="node3" class="node"><title>dir_049fcc021d70cf6aa17690e15cd47498</title>
<g id="a_node3"><a xlink:href="dir_049fcc021d70cf6aa17690e15cd47498.html" target="_top" xlink:title="prototyping">
<polygon fill="white" stroke="black" points="90.9561,-396 26.4561,-396 26.4561,-360 90.9561,-360 90.9561,-396"/>
<text text-anchor="middle" x="58.7061" y="-375.5" font-family="Helvetica,sans-Serif" font-size="10.00">prototyping</text>
</a>
</g>
</g>
<!-- dir_827012254b0f6cad75d9a7a2745b1aea -->
<g id="node4" class="node"><title>dir_827012254b0f6cad75d9a7a2745b1aea</title>
<g id="a_node4"><a xlink:href="dir_827012254b0f6cad75d9a7a2745b1aea.html" target="_top" xlink:title="simulation">
<polygon fill="white" stroke="red" points="87.9561,-324 27.4561,-324 27.4561,-288 87.9561,-288 87.9561,-324"/>
<text text-anchor="middle" x="57.7061" y="-303.5" font-family="Helvetica,sans-Serif" font-size="10.00">simulation</text>
</a>
</g>
</g>
<!-- dir_049fcc021d70cf6aa17690e15cd47498&#45;&gt;dir_827012254b0f6cad75d9a7a2745b1aea -->
<g id="edge9" class="edge"><title>dir_049fcc021d70cf6aa17690e15cd47498&#45;&gt;dir_827012254b0f6cad75d9a7a2745b1aea</title>
<path fill="none" stroke="black" d="M58.4589,-359.697C58.3487,-351.983 58.2163,-342.712 58.0934,-334.112"/>
<polygon fill="black" stroke="black" points="61.593,-334.053 57.9505,-324.104 54.5937,-334.153 61.593,-334.053"/>
<g id="a_edge9&#45;headlabel"><a xlink:href="dir_000267_000160.html" target="_top" xlink:title="1">
<text text-anchor="middle" x="64.4833" y="-335.107" font-family="Helvetica,sans-Serif" font-size="10.00">1</text>
</a>
</g>
</g>
<!-- dir_f01815b857f9009bea48e2cb39492245 -->
<g id="node7" class="node"><title>dir_f01815b857f9009bea48e2cb39492245</title>
<g id="a_node7"><a xlink:href="dir_f01815b857f9009bea48e2cb39492245.html" target="_top" xlink:title="Passive">
<polygon fill="none" stroke="red" points="194.706,-180 140.706,-180 140.706,-144 194.706,-144 194.706,-180"/>
<text text-anchor="middle" x="167.706" y="-159.5" font-family="Helvetica,sans-Serif" font-size="10.00">Passive</text>
</a>
</g>
</g>
<!-- dir_049fcc021d70cf6aa17690e15cd47498&#45;&gt;dir_f01815b857f9009bea48e2cb39492245 -->
<g id="edge10" class="edge"><title>dir_049fcc021d70cf6aa17690e15cd47498&#45;&gt;dir_f01815b857f9009bea48e2cb39492245</title>
<path fill="none" stroke="black" d="M72.3178,-359.94C80.0217,-349.836 89.5217,-336.586 96.7061,-324 122.533,-278.754 145.459,-222.34 157.887,-189.719"/>
<polygon fill="black" stroke="black" points="161.295,-190.6 161.544,-180.008 154.744,-188.133 161.295,-190.6"/>
<g id="a_edge10&#45;headlabel"><a xlink:href="dir_000267_000260.html" target="_top" xlink:title="2">
<text text-anchor="middle" x="162.686" y="-192.464" font-family="Helvetica,sans-Serif" font-size="10.00">2</text>
</a>
</g>
</g>
<!-- dir_827012254b0f6cad75d9a7a2745b1aea&#45;&gt;dir_0189f3ad6abecd72f822a0c3914f12b2 -->
<g id="edge3" class="edge"><title>dir_827012254b0f6cad75d9a7a2745b1aea&#45;&gt;dir_0189f3ad6abecd72f822a0c3914f12b2</title>
<path fill="none" stroke="black" d="M57.7061,-287.697C57.7061,-279.983 57.7061,-270.712 57.7061,-262.112"/>
<polygon fill="black" stroke="black" points="61.2062,-262.104 57.7061,-252.104 54.2062,-262.104 61.2062,-262.104"/>
<g id="a_edge3&#45;headlabel"><a xlink:href="dir_000160_000184.html" target="_top" xlink:title="4">
<text text-anchor="middle" x="64.0454" y="-263.199" font-family="Helvetica,sans-Serif" font-size="10.00">4</text>
</a>
</g>
</g>
<!-- dir_4ab6b4cc6a7edbff49100e9123df213f -->
<g id="node5" class="node"><title>dir_4ab6b4cc6a7edbff49100e9123df213f</title>
<g id="a_node5"><a xlink:href="dir_4ab6b4cc6a7edbff49100e9123df213f.html" target="_top" xlink:title="Common">
<polygon fill="none" stroke="red" points="75.2061,-36 20.2061,-36 20.2061,-0 75.2061,-0 75.2061,-36"/>
<text text-anchor="middle" x="47.7061" y="-15.5" font-family="Helvetica,sans-Serif" font-size="10.00">Common</text>
</a>
</g>
</g>
<!-- dir_827012254b0f6cad75d9a7a2745b1aea&#45;&gt;dir_4ab6b4cc6a7edbff49100e9123df213f -->
<g id="edge1" class="edge"><title>dir_827012254b0f6cad75d9a7a2745b1aea&#45;&gt;dir_4ab6b4cc6a7edbff49100e9123df213f</title>
<path fill="none" stroke="black" d="M38.6467,-287.652C29.3216,-278.064 18.8152,-265.399 12.7061,-252 -0.723069,-222.546 4.15759,-212.278 1.7061,-180 0.49442,-164.046 -1.10026,-159.752 1.7061,-144 8.00801,-108.628 23.6052,-70.1467 34.893,-45.3605"/>
<polygon fill="black" stroke="black" points="38.0851,-46.7965 39.1285,-36.2531 31.7379,-43.8446 38.0851,-46.7965"/>
<g id="a_edge1&#45;headlabel"><a xlink:href="dir_000160_000016.html" target="_top" xlink:title="1">
<text text-anchor="middle" x="39.1438" y="-48.7531" font-family="Helvetica,sans-Serif" font-size="10.00">1</text>
</a>
</g>
</g>
<!-- dir_37c90836491b695b472bf98d1be8336b -->
<g id="node6" class="node"><title>dir_37c90836491b695b472bf98d1be8336b</title>
<g id="a_node6"><a xlink:href="dir_37c90836491b695b472bf98d1be8336b.html" target="_top" xlink:title="Base">
<polygon fill="none" stroke="red" points="138.706,-108 84.7061,-108 84.7061,-72 138.706,-72 138.706,-108"/>
<text text-anchor="middle" x="111.706" y="-87.5" font-family="Helvetica,sans-Serif" font-size="10.00">Base</text>
</a>
</g>
</g>
<!-- dir_827012254b0f6cad75d9a7a2745b1aea&#45;&gt;dir_37c90836491b695b472bf98d1be8336b -->
<g id="edge2" class="edge"><title>dir_827012254b0f6cad75d9a7a2745b1aea&#45;&gt;dir_37c90836491b695b472bf98d1be8336b</title>
<path fill="none" stroke="black" d="M72.7359,-287.577C80.3291,-277.777 88.9248,-264.938 93.7061,-252 110.262,-207.203 112.774,-150.999 112.589,-118.23"/>
<polygon fill="black" stroke="black" points="116.086,-118.013 112.439,-108.065 109.087,-118.116 116.086,-118.013"/>
<g id="a_edge2&#45;headlabel"><a xlink:href="dir_000160_000139.html" target="_top" xlink:title="2">
<text text-anchor="middle" x="118.978" y="-119.065" font-family="Helvetica,sans-Serif" font-size="10.00">2</text>
</a>
</g>
</g>
<!-- dir_827012254b0f6cad75d9a7a2745b1aea&#45;&gt;dir_2171f7ec022c5423887b07c69b2f5b48 -->
<g id="edge4" class="edge"><title>dir_827012254b0f6cad75d9a7a2745b1aea&#45;&gt;dir_2171f7ec022c5423887b07c69b2f5b48</title>
<path fill="none" stroke="black" d="M42.0962,-287.774C34.3332,-278.03 25.7602,-265.184 21.7061,-252 14.9132,-229.91 14.738,-222.036 21.7061,-200 22.9229,-196.152 24.6995,-192.357 26.7619,-188.75"/>
<polygon fill="black" stroke="black" points="29.7797,-190.53 32.3213,-180.244 23.9204,-186.7 29.7797,-190.53"/>
<g id="a_edge4&#45;headlabel"><a xlink:href="dir_000160_000052.html" target="_top" xlink:title="5">
<text text-anchor="middle" x="30.1897" y="-192.592" font-family="Helvetica,sans-Serif" font-size="10.00">5</text>
</a>
</g>
</g>
<!-- dir_4ab6b4cc6a7edbff49100e9123df213f&#45;&gt;dir_2171f7ec022c5423887b07c69b2f5b48 -->
<g id="edge5" class="edge"><title>dir_4ab6b4cc6a7edbff49100e9123df213f&#45;&gt;dir_2171f7ec022c5423887b07c69b2f5b48</title>
<path fill="none" stroke="black" d="M52.297,-36.1893C54.8516,-60.4244 55.1393,-104.888 53.1601,-133.679"/>
<polygon fill="black" stroke="black" points="49.6534,-133.61 52.2906,-143.871 56.628,-134.205 49.6534,-133.61"/>
<g id="a_edge5&#45;headlabel"><a xlink:href="dir_000016_000052.html" target="_top" xlink:title="1">
<text text-anchor="middle" x="47.1298" y="-127.287" font-family="Helvetica,sans-Serif" font-size="10.00">1</text>
</a>
</g>
</g>
<!-- dir_37c90836491b695b472bf98d1be8336b&#45;&gt;dir_4ab6b4cc6a7edbff49100e9123df213f -->
<g id="edge6" class="edge"><title>dir_37c90836491b695b472bf98d1be8336b&#45;&gt;dir_4ab6b4cc6a7edbff49100e9123df213f</title>
<path fill="none" stroke="black" d="M95.8859,-71.6966C88.1356,-63.2198 78.6671,-52.8636 70.1816,-43.5826"/>
<polygon fill="black" stroke="black" points="72.6752,-41.1229 63.3444,-36.1043 67.509,-45.8464 72.6752,-41.1229"/>
<g id="a_edge6&#45;headlabel"><a xlink:href="dir_000139_000016.html" target="_top" xlink:title="5">
<text text-anchor="middle" x="77.1961" y="-39.36" font-family="Helvetica,sans-Serif" font-size="10.00">5</text>
</a>
</g>
</g>
<!-- dir_37c90836491b695b472bf98d1be8336b&#45;&gt;dir_2171f7ec022c5423887b07c69b2f5b48 -->
<g id="edge7" class="edge"><title>dir_37c90836491b695b472bf98d1be8336b&#45;&gt;dir_2171f7ec022c5423887b07c69b2f5b48</title>
<path fill="none" stroke="black" d="M101.963,-108.104C95.0565,-116.636 85.6746,-127.108 76.6003,-136.478"/>
<polygon fill="black" stroke="black" points="73.9978,-134.131 69.4421,-143.697 78.9685,-139.06 73.9978,-134.131"/>
<g id="a_edge7&#45;headlabel"><a xlink:href="dir_000139_000052.html" target="_top" xlink:title="5">
<text text-anchor="middle" x="74.5127" y="-127.08" font-family="Helvetica,sans-Serif" font-size="10.00">5</text>
</a>
</g>
</g>
<!-- dir_f01815b857f9009bea48e2cb39492245&#45;&gt;dir_4ab6b4cc6a7edbff49100e9123df213f -->
<g id="edge11" class="edge"><title>dir_f01815b857f9009bea48e2cb39492245&#45;&gt;dir_4ab6b4cc6a7edbff49100e9123df213f</title>
<path fill="none" stroke="black" d="M167.956,-143.83C167.379,-124.488 163.759,-93.0183 147.706,-72 132.089,-51.5524 106.285,-38.1561 84.8008,-29.9475"/>
<polygon fill="black" stroke="black" points="85.8805,-26.6164 75.2859,-26.5342 83.5168,-33.2053 85.8805,-26.6164"/>
<g id="a_edge11&#45;headlabel"><a xlink:href="dir_000260_000016.html" target="_top" xlink:title="1">
<text text-anchor="middle" x="90.2226" y="-22.6576" font-family="Helvetica,sans-Serif" font-size="10.00">1</text>
</a>
</g>
</g>
<!-- dir_f01815b857f9009bea48e2cb39492245&#45;&gt;dir_37c90836491b695b472bf98d1be8336b -->
<g id="edge12" class="edge"><title>dir_f01815b857f9009bea48e2cb39492245&#45;&gt;dir_37c90836491b695b472bf98d1be8336b</title>
<path fill="none" stroke="black" d="M153.863,-143.697C147.218,-135.389 139.128,-125.277 131.819,-116.141"/>
<polygon fill="black" stroke="black" points="134.37,-113.727 125.39,-108.104 128.904,-118.099 134.37,-113.727"/>
<g id="a_edge12&#45;headlabel"><a xlink:href="dir_000260_000139.html" target="_top" xlink:title="16">
<text text-anchor="middle" x="138.832" y="-112.26" font-family="Helvetica,sans-Serif" font-size="10.00">16</text>
</a>
</g>
</g>
<!-- dir_2171f7ec022c5423887b07c69b2f5b48&#45;&gt;dir_4ab6b4cc6a7edbff49100e9123df213f -->
<g id="edge13" class="edge"><title>dir_2171f7ec022c5423887b07c69b2f5b48&#45;&gt;dir_4ab6b4cc6a7edbff49100e9123df213f</title>
<path fill="none" stroke="black" d="M43.1216,-143.871C40.5632,-119.67 40.2718,-75.2108 42.2471,-46.3932"/>
<polygon fill="black" stroke="black" points="45.7548,-46.45 43.1152,-36.1893 38.78,-45.8566 45.7548,-46.45"/>
<g id="a_edge13&#45;headlabel"><a xlink:href="dir_000052_000016.html" target="_top" xlink:title="15">
<text text-anchor="middle" x="48.2793" y="-47.7723" font-family="Helvetica,sans-Serif" font-size="10.00">15</text>
</a>
</g>
</g>
<!-- dir_2171f7ec022c5423887b07c69b2f5b48&#45;&gt;dir_37c90836491b695b472bf98d1be8336b -->
<g id="edge14" class="edge"><title>dir_2171f7ec022c5423887b07c69b2f5b48&#45;&gt;dir_37c90836491b695b472bf98d1be8336b</title>
<path fill="none" stroke="black" d="M57.6106,-143.697C64.5552,-135.135 73.9538,-124.656 83.0232,-115.304"/>
<polygon fill="black" stroke="black" points="85.6102,-117.666 90.1728,-108.104 80.6431,-112.734 85.6102,-117.666"/>
<g id="a_edge14&#45;headlabel"><a xlink:href="dir_000052_000139.html" target="_top" xlink:title="1">
<text text-anchor="middle" x="85.0921" y="-119.718" font-family="Helvetica,sans-Serif" font-size="10.00">1</text>
</a>
</g>
</g>
</g>
</svg>
