<?xml version="1.0" encoding="UTF-8" standalone="no"?>
<!DOCTYPE svg PUBLIC "-//W3C//DTD SVG 1.1//EN"
 "http://www.w3.org/Graphics/SVG/1.1/DTD/svg11.dtd">
<!-- Generated by graphviz version 2.36.0 (20140111.2315)
 -->
<!-- Title: /home/travis/build/AliceO2Group/AliceO2/Detectors/ITSMFT/ITS/macros/test Pages: 1 -->
<svg width="260pt" height="367pt"
 viewBox="0.00 0.00 259.92 367.00" xmlns="http://www.w3.org/2000/svg" xmlns:xlink="http://www.w3.org/1999/xlink">
<g id="graph0" class="graph" transform="scale(1 1) rotate(0) translate(4 363)">
<title>/home/travis/build/AliceO2Group/AliceO2/Detectors/ITSMFT/ITS/macros/test</title>
<g id="clust1" class="cluster"><title>clusterdir_d1915fc52ae3a2d414030e7b83b60b4d</title>
<g id="a_clust1"><a xlink:href="dir_d1915fc52ae3a2d414030e7b83b60b4d.html" target="_top" xlink:title="macros">
<polygon fill="#ddddee" stroke="black" points="123,-280 123,-351 193,-351 193,-280 123,-280"/>
<text text-anchor="middle" x="158" y="-339" font-family="Helvetica,sans-Serif" font-size="10.00">macros</text>
</a>
</g>
</g>
<!-- dir_2182485e2bad8012cf176841f5534402 -->
<g id="node1" class="node"><title>dir_2182485e2bad8012cf176841f5534402</title>
<g id="a_node1"><a xlink:href="dir_2182485e2bad8012cf176841f5534402.html" target="_top" xlink:title="test">
<polygon fill="#eeeeff" stroke="black" points="185,-324 131,-324 131,-288 185,-288 185,-324"/>
<text text-anchor="middle" x="158" y="-303.5" font-family="Helvetica,sans-Serif" font-size="10.00">test</text>
</a>
</g>
</g>
<!-- dir_eedff867f3c4e67d20b227cb6e0f96ab -->
<g id="node2" class="node"><title>dir_eedff867f3c4e67d20b227cb6e0f96ab</title>
<g id="a_node2"><a xlink:href="dir_eedff867f3c4e67d20b227cb6e0f96ab.html" target="_top" xlink:title="base">
<polygon fill="none" stroke="red" points="125,-252 71,-252 71,-216 125,-216 125,-252"/>
<text text-anchor="middle" x="98" y="-231.5" font-family="Helvetica,sans-Serif" font-size="10.00">base</text>
</a>
</g>
</g>
<!-- dir_2182485e2bad8012cf176841f5534402&#45;&gt;dir_eedff867f3c4e67d20b227cb6e0f96ab -->
<g id="edge7" class="edge"><title>dir_2182485e2bad8012cf176841f5534402&#45;&gt;dir_eedff867f3c4e67d20b227cb6e0f96ab</title>
<path fill="none" stroke="black" d="M143.169,-287.697C135.975,-279.305 127.203,-269.07 119.31,-259.861"/>
<polygon fill="black" stroke="black" points="121.826,-257.419 112.661,-252.104 116.511,-261.975 121.826,-257.419"/>
<g id="a_edge7&#45;headlabel"><a xlink:href="dir_000227_000214.html" target="_top" xlink:title="5">
<text text-anchor="middle" x="126.321" y="-255.801" font-family="Helvetica,sans-Serif" font-size="10.00">5</text>
</a>
</g>
</g>
<!-- dir_4ab6b4cc6a7edbff49100e9123df213f -->
<g id="node3" class="node"><title>dir_4ab6b4cc6a7edbff49100e9123df213f</title>
<g id="a_node3"><a xlink:href="dir_4ab6b4cc6a7edbff49100e9123df213f.html" target="_top" xlink:title="Common">
<polygon fill="none" stroke="red" points="174.5,-108 119.5,-108 119.5,-72 174.5,-72 174.5,-108"/>
<text text-anchor="middle" x="147" y="-87.5" font-family="Helvetica,sans-Serif" font-size="10.00">Common</text>
</a>
</g>
</g>
<!-- dir_2182485e2bad8012cf176841f5534402&#45;&gt;dir_4ab6b4cc6a7edbff49100e9123df213f -->
<g id="edge8" class="edge"><title>dir_2182485e2bad8012cf176841f5534402&#45;&gt;dir_4ab6b4cc6a7edbff49100e9123df213f</title>
<path fill="none" stroke="black" d="M157.118,-287.849C155.216,-250.832 150.71,-163.181 148.408,-118.386"/>
<polygon fill="black" stroke="black" points="151.895,-118.04 147.886,-108.232 144.904,-118.399 151.895,-118.04"/>
<g id="a_edge8&#45;headlabel"><a xlink:href="dir_000227_000016.html" target="_top" xlink:title="7">
<text text-anchor="middle" x="154.915" y="-118.984" font-family="Helvetica,sans-Serif" font-size="10.00">7</text>
</a>
</g>
</g>
<!-- dir_a597e8e061b11201a1dff411feb10d0b -->
<g id="node4" class="node"><title>dir_a597e8e061b11201a1dff411feb10d0b</title>
<g id="a_node4"><a xlink:href="dir_a597e8e061b11201a1dff411feb10d0b.html" target="_top" xlink:title="TPC">
<polygon fill="none" stroke="red" points="240,-180 186,-180 186,-144 240,-144 240,-180"/>
<text text-anchor="middle" x="213" y="-159.5" font-family="Helvetica,sans-Serif" font-size="10.00">TPC</text>
</a>
</g>
</g>
<!-- dir_2182485e2bad8012cf176841f5534402&#45;&gt;dir_a597e8e061b11201a1dff411feb10d0b -->
<g id="edge9" class="edge"><title>dir_2182485e2bad8012cf176841f5534402&#45;&gt;dir_a597e8e061b11201a1dff411feb10d0b</title>
<path fill="none" stroke="black" d="M164.634,-287.871C174.091,-263.457 191.532,-218.426 202.684,-189.635"/>
<polygon fill="black" stroke="black" points="205.994,-190.778 206.342,-180.189 199.467,-188.25 205.994,-190.778"/>
<g id="a_edge9&#45;headlabel"><a xlink:href="dir_000227_000163.html" target="_top" xlink:title="1">
<text text-anchor="middle" x="207.343" y="-192.656" font-family="Helvetica,sans-Serif" font-size="10.00">1</text>
</a>
</g>
</g>
<!-- dir_85bf31a2e8d306e7598ffcb73f8df6bf -->
<g id="node5" class="node"><title>dir_85bf31a2e8d306e7598ffcb73f8df6bf</title>
<g id="a_node5"><a xlink:href="dir_85bf31a2e8d306e7598ffcb73f8df6bf.html" target="_top" xlink:title="common">
<polygon fill="none" stroke="red" points="54,-180 0,-180 0,-144 54,-144 54,-180"/>
<text text-anchor="middle" x="27" y="-159.5" font-family="Helvetica,sans-Serif" font-size="10.00">common</text>
</a>
</g>
</g>
<!-- dir_2182485e2bad8012cf176841f5534402&#45;&gt;dir_85bf31a2e8d306e7598ffcb73f8df6bf -->
<g id="edge10" class="edge"><title>dir_2182485e2bad8012cf176841f5534402&#45;&gt;dir_85bf31a2e8d306e7598ffcb73f8df6bf</title>
<path fill="none" stroke="black" d="M130.651,-295.795C109.377,-287.384 80.4643,-273.03 62,-252 46.5646,-234.419 37.5174,-209.229 32.5024,-190.132"/>
<polygon fill="black" stroke="black" points="35.863,-189.137 30.1162,-180.236 29.058,-190.778 35.863,-189.137"/>
<g id="a_edge10&#45;headlabel"><a xlink:href="dir_000227_000180.html" target="_top" xlink:title="10">
<text text-anchor="middle" x="39.4657" y="-189.466" font-family="Helvetica,sans-Serif" font-size="10.00">10</text>
</a>
</g>
</g>
<!-- dir_2171f7ec022c5423887b07c69b2f5b48 -->
<g id="node6" class="node"><title>dir_2171f7ec022c5423887b07c69b2f5b48</title>
<g id="a_node6"><a xlink:href="dir_2171f7ec022c5423887b07c69b2f5b48.html" target="_top" xlink:title="DataFormats">
<polygon fill="none" stroke="red" points="184,-36 110,-36 110,-0 184,-0 184,-36"/>
<text text-anchor="middle" x="147" y="-15.5" font-family="Helvetica,sans-Serif" font-size="10.00">DataFormats</text>
</a>
</g>
</g>
<!-- dir_2182485e2bad8012cf176841f5534402&#45;&gt;dir_2171f7ec022c5423887b07c69b2f5b48 -->
<g id="edge11" class="edge"><title>dir_2182485e2bad8012cf176841f5534402&#45;&gt;dir_2171f7ec022c5423887b07c69b2f5b48</title>
<path fill="none" stroke="black" d="M178.829,-287.912C210.401,-259.795 265.088,-201.178 249,-144 237.312,-102.461 202.751,-65.6473 177.079,-42.9159"/>
<polygon fill="black" stroke="black" points="179.292,-40.2026 169.433,-36.3238 174.721,-45.5043 179.292,-40.2026"/>
<g id="a_edge11&#45;headlabel"><a xlink:href="dir_000227_000052.html" target="_top" xlink:title="17">
<text text-anchor="middle" x="183.869" y="-37.8993" font-family="Helvetica,sans-Serif" font-size="10.00">17</text>
</a>
</g>
</g>
<!-- dir_eedff867f3c4e67d20b227cb6e0f96ab&#45;&gt;dir_4ab6b4cc6a7edbff49100e9123df213f -->
<g id="edge1" class="edge"><title>dir_eedff867f3c4e67d20b227cb6e0f96ab&#45;&gt;dir_4ab6b4cc6a7edbff49100e9123df213f</title>
<path fill="none" stroke="black" d="M103.911,-215.871C112.298,-191.564 127.739,-146.819 137.679,-118.013"/>
<polygon fill="black" stroke="black" points="141.115,-118.784 141.068,-108.189 134.498,-116.501 141.115,-118.784"/>
<g id="a_edge1&#45;headlabel"><a xlink:href="dir_000214_000016.html" target="_top" xlink:title="2">
<text text-anchor="middle" x="142.627" y="-120.608" font-family="Helvetica,sans-Serif" font-size="10.00">2</text>
</a>
</g>
</g>
<!-- dir_eedff867f3c4e67d20b227cb6e0f96ab&#45;&gt;dir_85bf31a2e8d306e7598ffcb73f8df6bf -->
<g id="edge2" class="edge"><title>dir_eedff867f3c4e67d20b227cb6e0f96ab&#45;&gt;dir_85bf31a2e8d306e7598ffcb73f8df6bf</title>
<path fill="none" stroke="black" d="M80.4494,-215.697C71.7655,-207.135 61.137,-196.656 51.6517,-187.304"/>
<polygon fill="black" stroke="black" points="53.927,-184.633 44.3487,-180.104 49.0125,-189.617 53.927,-184.633"/>
<g id="a_edge2&#45;headlabel"><a xlink:href="dir_000214_000180.html" target="_top" xlink:title="2">
<text text-anchor="middle" x="58.4801" y="-182.635" font-family="Helvetica,sans-Serif" font-size="10.00">2</text>
</a>
</g>
</g>
<!-- dir_eedff867f3c4e67d20b227cb6e0f96ab&#45;&gt;dir_2171f7ec022c5423887b07c69b2f5b48 -->
<g id="edge3" class="edge"><title>dir_eedff867f3c4e67d20b227cb6e0f96ab&#45;&gt;dir_2171f7ec022c5423887b07c69b2f5b48</title>
<path fill="none" stroke="black" d="M96.3856,-215.944C94.1617,-185.878 92.2374,-121.908 110,-72 113.463,-62.2703 119.218,-52.6866 125.169,-44.4013"/>
<polygon fill="black" stroke="black" points="128.077,-46.3606 131.355,-36.2856 122.509,-42.1174 128.077,-46.3606"/>
<g id="a_edge3&#45;headlabel"><a xlink:href="dir_000214_000052.html" target="_top" xlink:title="1">
<text text-anchor="middle" x="128.156" y="-48.4406" font-family="Helvetica,sans-Serif" font-size="10.00">1</text>
</a>
</g>
</g>
<!-- dir_4ab6b4cc6a7edbff49100e9123df213f&#45;&gt;dir_2171f7ec022c5423887b07c69b2f5b48 -->
<g id="edge4" class="edge"><title>dir_4ab6b4cc6a7edbff49100e9123df213f&#45;&gt;dir_2171f7ec022c5423887b07c69b2f5b48</title>
<path fill="none" stroke="black" d="M141.084,-71.6966C140.289,-63.9827 140.062,-54.7125 140.405,-46.1124"/>
<polygon fill="black" stroke="black" points="143.898,-46.3243 141.105,-36.1043 136.915,-45.8356 143.898,-46.3243"/>
<g id="a_edge4&#45;headlabel"><a xlink:href="dir_000016_000052.html" target="_top" xlink:title="1">
<text text-anchor="middle" x="146.48" y="-47.6083" font-family="Helvetica,sans-Serif" font-size="10.00">1</text>
</a>
</g>
</g>
<!-- dir_a597e8e061b11201a1dff411feb10d0b&#45;&gt;dir_4ab6b4cc6a7edbff49100e9123df213f -->
<g id="edge5" class="edge"><title>dir_a597e8e061b11201a1dff411feb10d0b&#45;&gt;dir_4ab6b4cc6a7edbff49100e9123df213f</title>
<path fill="none" stroke="black" d="M196.685,-143.697C188.693,-135.22 178.928,-124.864 170.178,-115.583"/>
<polygon fill="black" stroke="black" points="172.534,-112.979 163.127,-108.104 167.441,-117.781 172.534,-112.979"/>
<g id="a_edge5&#45;headlabel"><a xlink:href="dir_000163_000016.html" target="_top" xlink:title="4">
<text text-anchor="middle" x="177.065" y="-111.147" font-family="Helvetica,sans-Serif" font-size="10.00">4</text>
</a>
</g>
</g>
<!-- dir_a597e8e061b11201a1dff411feb10d0b&#45;&gt;dir_2171f7ec022c5423887b07c69b2f5b48 -->
<g id="edge6" class="edge"><title>dir_a597e8e061b11201a1dff411feb10d0b&#45;&gt;dir_2171f7ec022c5423887b07c69b2f5b48</title>
<path fill="none" stroke="black" d="M208.679,-143.722C203.751,-125.377 194.82,-95.8049 183,-72 178.374,-62.6833 172.324,-53.101 166.507,-44.6903"/>
<polygon fill="black" stroke="black" points="169.257,-42.5178 160.6,-36.4098 163.558,-46.5832 169.257,-42.5178"/>
<g id="a_edge6&#45;headlabel"><a xlink:href="dir_000163_000052.html" target="_top" xlink:title="77">
<text text-anchor="middle" x="173.656" y="-41.2952" font-family="Helvetica,sans-Serif" font-size="10.00">77</text>
</a>
</g>
</g>
<!-- dir_85bf31a2e8d306e7598ffcb73f8df6bf&#45;&gt;dir_4ab6b4cc6a7edbff49100e9123df213f -->
<g id="edge12" class="edge"><title>dir_85bf31a2e8d306e7598ffcb73f8df6bf&#45;&gt;dir_4ab6b4cc6a7edbff49100e9123df213f</title>
<path fill="none" stroke="black" d="M54.2299,-145.116C70.8357,-135.429 92.2724,-122.924 110.355,-112.376"/>
<polygon fill="black" stroke="black" points="112.588,-115.126 119.463,-107.064 109.061,-109.079 112.588,-115.126"/>
<g id="a_edge12&#45;headlabel"><a xlink:href="dir_000180_000016.html" target="_top" xlink:title="2">
<text text-anchor="middle" x="110.914" y="-116.889" font-family="Helvetica,sans-Serif" font-size="10.00">2</text>
</a>
</g>
</g>
<!-- dir_85bf31a2e8d306e7598ffcb73f8df6bf&#45;&gt;dir_2171f7ec022c5423887b07c69b2f5b48 -->
<g id="edge13" class="edge"><title>dir_85bf31a2e8d306e7598ffcb73f8df6bf&#45;&gt;dir_2171f7ec022c5423887b07c69b2f5b48</title>
<path fill="none" stroke="black" d="M31.8474,-143.704C37.8812,-124.535 49.6825,-93.4936 68,-72 78.0968,-60.1525 91.467,-49.8448 104.332,-41.5489"/>
<polygon fill="black" stroke="black" points="106.438,-44.3621 113.111,-36.1329 102.763,-38.4046 106.438,-44.3621"/>
<g id="a_edge13&#45;headlabel"><a xlink:href="dir_000180_000052.html" target="_top" xlink:title="17">
<text text-anchor="middle" x="104.869" y="-46.1658" font-family="Helvetica,sans-Serif" font-size="10.00">17</text>
</a>
</g>
</g>
<!-- dir_2171f7ec022c5423887b07c69b2f5b48&#45;&gt;dir_4ab6b4cc6a7edbff49100e9123df213f -->
<g id="edge14" class="edge"><title>dir_2171f7ec022c5423887b07c69b2f5b48&#45;&gt;dir_4ab6b4cc6a7edbff49100e9123df213f</title>
<path fill="none" stroke="black" d="M152.895,-36.1043C153.701,-43.7913 153.937,-53.0537 153.604,-61.6651"/>
<polygon fill="black" stroke="black" points="150.109,-61.4805 152.916,-71.6966 157.092,-61.9597 150.109,-61.4805"/>
<g id="a_edge14&#45;headlabel"><a xlink:href="dir_000052_000016.html" target="_top" xlink:title="15">
<text text-anchor="middle" x="147.522" y="-55.2" font-family="Helvetica,sans-Serif" font-size="10.00">15</text>
</a>
</g>
</g>
</g>
</svg>
