<?xml version="1.0" encoding="UTF-8" standalone="no"?>
<!DOCTYPE svg PUBLIC "-//W3C//DTD SVG 1.1//EN"
 "http://www.w3.org/Graphics/SVG/1.1/DTD/svg11.dtd">
<!-- Generated by graphviz version 2.36.0 (20140111.2315)
 -->
<!-- Title: /home/travis/build/AliceO2Group/AliceO2/Framework/TestWorkflows Pages: 1 -->
<svg width="419pt" height="303pt"
 viewBox="0.00 0.00 419.00 303.00" xmlns="http://www.w3.org/2000/svg" xmlns:xlink="http://www.w3.org/1999/xlink">
<g id="graph0" class="graph" transform="scale(1 1) rotate(0) translate(4 299)">
<title>/home/travis/build/AliceO2Group/AliceO2/Framework/TestWorkflows</title>
<g id="clust1" class="cluster"><title>clusterdir_bcbb2cf9a3d3d83e5515c82071a07177</title>
<g id="a_clust1"><a xlink:href="dir_bcbb2cf9a3d3d83e5515c82071a07177.html" target="_top" xlink:title="Framework">
<polygon fill="#ddddee" stroke="black" points="143,-200 143,-287 403,-287 403,-200 143,-200"/>
<text text-anchor="middle" x="273" y="-275" font-family="Helvetica,sans-Serif" font-size="10.00">Framework</text>
</a>
</g>
</g>
<g id="clust2" class="cluster"><title>clusterdir_a8f73827fca2a0188d35dc47dc5b0ea3</title>
<g id="a_clust2"><a xlink:href="dir_a8f73827fca2a0188d35dc47dc5b0ea3.html" target="_top">
<polygon fill="#eeeeff" stroke="black" points="151,-208 151,-260 395,-260 395,-208 151,-208"/>
</a>
</g>
</g>
<!-- dir_a8f73827fca2a0188d35dc47dc5b0ea3 -->
<g id="node1" class="node"><title>dir_a8f73827fca2a0188d35dc47dc5b0ea3</title>
<text text-anchor="middle" x="345" y="-231.5" font-family="Helvetica,sans-Serif" font-size="10.00">TestWorkflows</text>
</g>
<!-- dir_80c3b7d4c168c9aa75dd1ba81b9fa387 -->
<g id="node2" class="node"><title>dir_80c3b7d4c168c9aa75dd1ba81b9fa387</title>
<g id="a_node2"><a xlink:href="dir_80c3b7d4c168c9aa75dd1ba81b9fa387.html" target="_top" xlink:title="src">
<polygon fill="white" stroke="black" points="213,-252 159,-252 159,-216 213,-216 213,-252"/>
<text text-anchor="middle" x="186" y="-231.5" font-family="Helvetica,sans-Serif" font-size="10.00">src</text>
</a>
</g>
</g>
<!-- dir_0b342c6c6b7d2278121a0bb9c4985063 -->
<g id="node4" class="node"><title>dir_0b342c6c6b7d2278121a0bb9c4985063</title>
<g id="a_node4"><a xlink:href="dir_0b342c6c6b7d2278121a0bb9c4985063.html" target="_top" xlink:title="Generators">
<polygon fill="none" stroke="red" points="64.25,-108 -0.25,-108 -0.25,-72 64.25,-72 64.25,-108"/>
<text text-anchor="middle" x="32" y="-87.5" font-family="Helvetica,sans-Serif" font-size="10.00">Generators</text>
</a>
</g>
</g>
<!-- dir_80c3b7d4c168c9aa75dd1ba81b9fa387&#45;&gt;dir_0b342c6c6b7d2278121a0bb9c4985063 -->
<g id="edge1" class="edge"><title>dir_80c3b7d4c168c9aa75dd1ba81b9fa387&#45;&gt;dir_0b342c6c6b7d2278121a0bb9c4985063</title>
<path fill="none" stroke="black" d="M158.808,-227.963C131.103,-221.473 88.6642,-207.573 63,-180 47.1983,-163.023 39.3913,-137.56 35.5702,-118.213"/>
<polygon fill="black" stroke="black" points="38.9888,-117.442 33.832,-108.187 32.0917,-118.638 38.9888,-117.442"/>
<g id="a_edge1&#45;headlabel"><a xlink:href="dir_000327_000341.html" target="_top" xlink:title="1">
<text text-anchor="middle" x="42.4003" y="-117.999" font-family="Helvetica,sans-Serif" font-size="10.00">1</text>
</a>
</g>
</g>
<!-- dir_4ab6b4cc6a7edbff49100e9123df213f -->
<g id="node5" class="node"><title>dir_4ab6b4cc6a7edbff49100e9123df213f</title>
<g id="a_node5"><a xlink:href="dir_4ab6b4cc6a7edbff49100e9123df213f.html" target="_top" xlink:title="Common">
<polygon fill="none" stroke="red" points="194.5,-108 139.5,-108 139.5,-72 194.5,-72 194.5,-108"/>
<text text-anchor="middle" x="167" y="-87.5" font-family="Helvetica,sans-Serif" font-size="10.00">Common</text>
</a>
</g>
</g>
<!-- dir_80c3b7d4c168c9aa75dd1ba81b9fa387&#45;&gt;dir_4ab6b4cc6a7edbff49100e9123df213f -->
<g id="edge2" class="edge"><title>dir_80c3b7d4c168c9aa75dd1ba81b9fa387&#45;&gt;dir_4ab6b4cc6a7edbff49100e9123df213f</title>
<path fill="none" stroke="black" d="M183.708,-215.871C180.47,-191.67 174.521,-147.211 170.665,-118.393"/>
<polygon fill="black" stroke="black" points="174.095,-117.637 169.3,-108.189 167.157,-118.565 174.095,-117.637"/>
<g id="a_edge2&#45;headlabel"><a xlink:href="dir_000327_000016.html" target="_top" xlink:title="2">
<text text-anchor="middle" x="177.386" y="-118.323" font-family="Helvetica,sans-Serif" font-size="10.00">2</text>
</a>
</g>
</g>
<!-- dir_9f165b2481dacfe69aa54d326bd5cd47 -->
<g id="node6" class="node"><title>dir_9f165b2481dacfe69aa54d326bd5cd47</title>
<g id="a_node6"><a xlink:href="dir_9f165b2481dacfe69aa54d326bd5cd47.html" target="_top" xlink:title="Core">
<polygon fill="none" stroke="red" points="300,-180 246,-180 246,-144 300,-144 300,-180"/>
<text text-anchor="middle" x="273" y="-159.5" font-family="Helvetica,sans-Serif" font-size="10.00">Core</text>
</a>
</g>
</g>
<!-- dir_80c3b7d4c168c9aa75dd1ba81b9fa387&#45;&gt;dir_9f165b2481dacfe69aa54d326bd5cd47 -->
<g id="edge3" class="edge"><title>dir_80c3b7d4c168c9aa75dd1ba81b9fa387&#45;&gt;dir_9f165b2481dacfe69aa54d326bd5cd47</title>
<path fill="none" stroke="black" d="M203.955,-215.797C209.61,-210.583 215.958,-204.934 222,-200 227.709,-195.338 233.945,-190.568 240.036,-186.068"/>
<polygon fill="black" stroke="black" points="242.161,-188.85 248.188,-180.136 238.043,-183.19 242.161,-188.85"/>
<g id="a_edge3&#45;headlabel"><a xlink:href="dir_000327_000329.html" target="_top" xlink:title="55">
<text text-anchor="middle" x="240.925" y="-190.761" font-family="Helvetica,sans-Serif" font-size="10.00">55</text>
</a>
</g>
</g>
<!-- dir_051dca18e802f8e9474f2e30d29c04e0 -->
<g id="node7" class="node"><title>dir_051dca18e802f8e9474f2e30d29c04e0</title>
<g id="a_node7"><a xlink:href="dir_051dca18e802f8e9474f2e30d29c04e0.html" target="_top" xlink:title="Detectors">
<polygon fill="none" stroke="red" points="131.25,-180 72.75,-180 72.75,-144 131.25,-144 131.25,-180"/>
<text text-anchor="middle" x="102" y="-159.5" font-family="Helvetica,sans-Serif" font-size="10.00">Detectors</text>
</a>
</g>
</g>
<!-- dir_80c3b7d4c168c9aa75dd1ba81b9fa387&#45;&gt;dir_051dca18e802f8e9474f2e30d29c04e0 -->
<g id="edge4" class="edge"><title>dir_80c3b7d4c168c9aa75dd1ba81b9fa387&#45;&gt;dir_051dca18e802f8e9474f2e30d29c04e0</title>
<path fill="none" stroke="black" d="M165.236,-215.697C154.759,-206.965 141.889,-196.24 130.5,-186.75"/>
<polygon fill="black" stroke="black" points="132.448,-183.817 122.525,-180.104 127.967,-189.195 132.448,-183.817"/>
<g id="a_edge4&#45;headlabel"><a xlink:href="dir_000327_000028.html" target="_top" xlink:title="4">
<text text-anchor="middle" x="137.027" y="-181.437" font-family="Helvetica,sans-Serif" font-size="10.00">4</text>
</a>
</g>
</g>
<!-- dir_2171f7ec022c5423887b07c69b2f5b48 -->
<g id="node8" class="node"><title>dir_2171f7ec022c5423887b07c69b2f5b48</title>
<g id="a_node8"><a xlink:href="dir_2171f7ec022c5423887b07c69b2f5b48.html" target="_top" xlink:title="DataFormats">
<polygon fill="none" stroke="red" points="204,-36 130,-36 130,-0 204,-0 204,-36"/>
<text text-anchor="middle" x="167" y="-15.5" font-family="Helvetica,sans-Serif" font-size="10.00">DataFormats</text>
</a>
</g>
</g>
<!-- dir_80c3b7d4c168c9aa75dd1ba81b9fa387&#45;&gt;dir_2171f7ec022c5423887b07c69b2f5b48 -->
<g id="edge5" class="edge"><title>dir_80c3b7d4c168c9aa75dd1ba81b9fa387&#45;&gt;dir_2171f7ec022c5423887b07c69b2f5b48</title>
<path fill="none" stroke="black" d="M192.249,-215.647C202.083,-185.66 218.531,-122.507 203,-72 199.991,-62.2153 194.493,-52.6161 188.684,-44.3336"/>
<polygon fill="black" stroke="black" points="191.407,-42.1306 182.61,-36.2264 185.805,-46.3279 191.407,-42.1306"/>
<g id="a_edge5&#45;headlabel"><a xlink:href="dir_000327_000052.html" target="_top" xlink:title="2">
<text text-anchor="middle" x="195.835" y="-40.8048" font-family="Helvetica,sans-Serif" font-size="10.00">2</text>
</a>
</g>
</g>
<!-- dir_b6abd220a8a509af9882e60b4042c567 -->
<g id="node3" class="node"><title>dir_b6abd220a8a509af9882e60b4042c567</title>
<g id="a_node3"><a xlink:href="dir_b6abd220a8a509af9882e60b4042c567.html" target="_top" xlink:title="test">
<polygon fill="white" stroke="black" points="285,-252 231,-252 231,-216 285,-216 285,-252"/>
<text text-anchor="middle" x="258" y="-231.5" font-family="Helvetica,sans-Serif" font-size="10.00">test</text>
</a>
</g>
</g>
<!-- dir_b6abd220a8a509af9882e60b4042c567&#45;&gt;dir_9f165b2481dacfe69aa54d326bd5cd47 -->
<g id="edge11" class="edge"><title>dir_b6abd220a8a509af9882e60b4042c567&#45;&gt;dir_9f165b2481dacfe69aa54d326bd5cd47</title>
<path fill="none" stroke="black" d="M261.708,-215.697C263.361,-207.983 265.347,-198.712 267.19,-190.112"/>
<polygon fill="black" stroke="black" points="270.662,-190.616 269.335,-180.104 263.817,-189.149 270.662,-190.616"/>
<g id="a_edge11&#45;headlabel"><a xlink:href="dir_000340_000329.html" target="_top" xlink:title="3">
<text text-anchor="middle" x="272.685" y="-192.225" font-family="Helvetica,sans-Serif" font-size="10.00">3</text>
</a>
</g>
</g>
<!-- dir_4ab6b4cc6a7edbff49100e9123df213f&#45;&gt;dir_2171f7ec022c5423887b07c69b2f5b48 -->
<g id="edge6" class="edge"><title>dir_4ab6b4cc6a7edbff49100e9123df213f&#45;&gt;dir_2171f7ec022c5423887b07c69b2f5b48</title>
<path fill="none" stroke="black" d="M161.084,-71.6966C160.289,-63.9827 160.062,-54.7125 160.405,-46.1124"/>
<polygon fill="black" stroke="black" points="163.898,-46.3243 161.105,-36.1043 156.915,-45.8356 163.898,-46.3243"/>
<g id="a_edge6&#45;headlabel"><a xlink:href="dir_000016_000052.html" target="_top" xlink:title="1">
<text text-anchor="middle" x="166.48" y="-47.6083" font-family="Helvetica,sans-Serif" font-size="10.00">1</text>
</a>
</g>
</g>
<!-- dir_9f165b2481dacfe69aa54d326bd5cd47&#45;&gt;dir_2171f7ec022c5423887b07c69b2f5b48 -->
<g id="edge7" class="edge"><title>dir_9f165b2481dacfe69aa54d326bd5cd47&#45;&gt;dir_2171f7ec022c5423887b07c69b2f5b48</title>
<path fill="none" stroke="black" d="M269.018,-143.879C263.965,-124.867 253.823,-93.9665 237,-72 228.2,-60.5088 216.297,-50.2505 204.805,-41.8915"/>
<polygon fill="black" stroke="black" points="206.766,-38.992 196.559,-36.15 202.766,-44.7366 206.766,-38.992"/>
<g id="a_edge7&#45;headlabel"><a xlink:href="dir_000329_000052.html" target="_top" xlink:title="16">
<text text-anchor="middle" x="211.338" y="-36.216" font-family="Helvetica,sans-Serif" font-size="10.00">16</text>
</a>
</g>
</g>
<!-- dir_051dca18e802f8e9474f2e30d29c04e0&#45;&gt;dir_0b342c6c6b7d2278121a0bb9c4985063 -->
<g id="edge8" class="edge"><title>dir_051dca18e802f8e9474f2e30d29c04e0&#45;&gt;dir_0b342c6c6b7d2278121a0bb9c4985063</title>
<path fill="none" stroke="black" d="M84.6966,-143.697C76.135,-135.135 65.6562,-124.656 56.3045,-115.304"/>
<polygon fill="black" stroke="black" points="58.6503,-112.701 49.1043,-108.104 53.7005,-117.65 58.6503,-112.701"/>
<g id="a_edge8&#45;headlabel"><a xlink:href="dir_000028_000341.html" target="_top" xlink:title="1">
<text text-anchor="middle" x="63.1997" y="-110.735" font-family="Helvetica,sans-Serif" font-size="10.00">1</text>
</a>
</g>
</g>
<!-- dir_051dca18e802f8e9474f2e30d29c04e0&#45;&gt;dir_4ab6b4cc6a7edbff49100e9123df213f -->
<g id="edge9" class="edge"><title>dir_051dca18e802f8e9474f2e30d29c04e0&#45;&gt;dir_4ab6b4cc6a7edbff49100e9123df213f</title>
<path fill="none" stroke="black" d="M118.067,-143.697C125.939,-135.22 135.555,-124.864 144.173,-115.583"/>
<polygon fill="black" stroke="black" points="146.878,-117.814 151.117,-108.104 141.748,-113.051 146.878,-117.814"/>
<g id="a_edge9&#45;headlabel"><a xlink:href="dir_000028_000016.html" target="_top" xlink:title="60">
<text text-anchor="middle" x="146.512" y="-119.88" font-family="Helvetica,sans-Serif" font-size="10.00">60</text>
</a>
</g>
</g>
<!-- dir_051dca18e802f8e9474f2e30d29c04e0&#45;&gt;dir_2171f7ec022c5423887b07c69b2f5b48 -->
<g id="edge10" class="edge"><title>dir_051dca18e802f8e9474f2e30d29c04e0&#45;&gt;dir_2171f7ec022c5423887b07c69b2f5b48</title>
<path fill="none" stroke="black" d="M99.1103,-143.677C101.181,-125.295 109.346,-95.6918 121,-72 125.681,-62.4843 131.947,-52.7718 138.444,-44.3045"/>
<polygon fill="black" stroke="black" points="141.36,-46.2673 144.968,-36.3056 135.935,-41.8433 141.36,-46.2673"/>
<g id="a_edge10&#45;headlabel"><a xlink:href="dir_000028_000052.html" target="_top" xlink:title="187">
<text text-anchor="middle" x="141.288" y="-48.3474" font-family="Helvetica,sans-Serif" font-size="10.00">187</text>
</a>
</g>
</g>
<!-- dir_2171f7ec022c5423887b07c69b2f5b48&#45;&gt;dir_4ab6b4cc6a7edbff49100e9123df213f -->
<g id="edge12" class="edge"><title>dir_2171f7ec022c5423887b07c69b2f5b48&#45;&gt;dir_4ab6b4cc6a7edbff49100e9123df213f</title>
<path fill="none" stroke="black" d="M172.895,-36.1043C173.701,-43.7913 173.937,-53.0537 173.604,-61.6651"/>
<polygon fill="black" stroke="black" points="170.109,-61.4805 172.916,-71.6966 177.092,-61.9597 170.109,-61.4805"/>
<g id="a_edge12&#45;headlabel"><a xlink:href="dir_000052_000016.html" target="_top" xlink:title="15">
<text text-anchor="middle" x="167.522" y="-55.2" font-family="Helvetica,sans-Serif" font-size="10.00">15</text>
</a>
</g>
</g>
<!-- dir_2171f7ec022c5423887b07c69b2f5b48&#45;&gt;dir_051dca18e802f8e9474f2e30d29c04e0 -->
<g id="edge13" class="edge"><title>dir_2171f7ec022c5423887b07c69b2f5b48&#45;&gt;dir_051dca18e802f8e9474f2e30d29c04e0</title>
<path fill="none" stroke="black" d="M160.821,-36.3056C154.302,-46.2749 145.241,-59.3124 139,-72 129.213,-91.8974 121.886,-115.964 115.811,-134.052"/>
<polygon fill="black" stroke="black" points="112.443,-133.082 112.464,-143.677 119.055,-135.382 112.443,-133.082"/>
<g id="a_edge13&#45;headlabel"><a xlink:href="dir_000052_000028.html" target="_top" xlink:title="1">
<text text-anchor="middle" x="110.942" y="-126.255" font-family="Helvetica,sans-Serif" font-size="10.00">1</text>
</a>
</g>
</g>
</g>
</svg>
