<?xml version="1.0" encoding="UTF-8" standalone="no"?>
<!DOCTYPE svg PUBLIC "-//W3C//DTD SVG 1.1//EN"
 "http://www.w3.org/Graphics/SVG/1.1/DTD/svg11.dtd">
<!-- Generated by graphviz version 2.36.0 (20140111.2315)
 -->
<!-- Title: /home/travis/build/AliceO2Group/AliceO2/Detectors Pages: 1 -->
<!--zoomable 348 -->
<svg id="main" version="1.1" xmlns="http://www.w3.org/2000/svg" xmlns:xlink="http://www.w3.org/1999/xlink" xml:space="preserve" onload="init(evt)">
<style type="text/css"><![CDATA[
.edge:hover path { stroke: red; }
.edge:hover polygon { stroke: red; fill: red; }
]]></style>
<script type="text/javascript"><![CDATA[
var edges = document.getElementsByTagName('g');
if (edges && edges.length) {
  for (var i=0;i<edges.length;i++) {
    if (edges[i].id.substr(0,4)=='edge') {
      edges[i].setAttribute('class','edge');
    }
  }
}
]]></script>
        <defs>
                <circle id="rim" cx="0" cy="0" r="7"/>
                <circle id="rim2" cx="0" cy="0" r="3.5"/>
                <g id="zoomPlus">
                        <use xlink:href="#rim" fill="#404040">
                                <set attributeName="fill" to="#808080" begin="zoomplus.mouseover" end="zoomplus.mouseout"/>
                        </use>
                        <path d="M-4,0h8M0,-4v8" fill="none" stroke="white" stroke-width="1.5" pointer-events="none"/>
                </g>
                <g id="zoomMin">
                        <use xlink:href="#rim" fill="#404040">
                                <set attributeName="fill" to="#808080" begin="zoomminus.mouseover" end="zoomminus.mouseout"/>
                        </use>
                        <path d="M-4,0h8" fill="none" stroke="white" stroke-width="1.5" pointer-events="none"/>
                </g>
                <g id="dirArrow">
                        <path fill="none" stroke="white" stroke-width="1.5" d="M0,-3.0v7 M-2.5,-0.5L0,-3.0L2.5,-0.5"/>
                </g>
               <g id="resetDef">
                       <use xlink:href="#rim2" fill="#404040">
                               <set attributeName="fill" to="#808080" begin="reset.mouseover" end="reset.mouseout"/>
                       </use>
               </g>
        </defs>

<script type="text/javascript">
var viewWidth = 917;
var viewHeight = 348;
var sectionId = 'dynsection-0';
</script>
<script xlink:href="svgpan.js"/>
<svg id="graph" class="graph">
<g id="viewport">
<title>/home/travis/build/AliceO2Group/AliceO2/Detectors</title>
<g id="clust1" class="cluster"><title>clusterdir_051dca18e802f8e9474f2e30d29c04e0</title>
<g id="a_clust1"><a xlink:href="dir_051dca18e802f8e9474f2e30d29c04e0.html" target="_top">
<polygon fill="#eeeeff" stroke="black" points="109.402,-64 109.402,-332 495.402,-332 495.402,-64 109.402,-64"/>
</a>
</g>
</g>
<!-- dir_051dca18e802f8e9474f2e30d29c04e0 -->
<g id="node1" class="node"><title>dir_051dca18e802f8e9474f2e30d29c04e0</title>
<text text-anchor="middle" x="457.402" y="-303.5" font-family="Helvetica,sans-Serif" font-size="10.00">Detectors</text>
</g>
<!-- dir_37c90836491b695b472bf98d1be8336b -->
<g id="node2" class="node"><title>dir_37c90836491b695b472bf98d1be8336b</title>
<g id="a_node2"><a xlink:href="dir_37c90836491b695b472bf98d1be8336b.html" target="_top" xlink:title="Base">
<polygon fill="white" stroke="red" points="260.402,-108 206.402,-108 206.402,-72 260.402,-72 260.402,-108"/>
<text text-anchor="middle" x="233.402" y="-87.5" font-family="Helvetica,sans-Serif" font-size="10.00">Base</text>
</a>
</g>
</g>
<!-- dir_4ab6b4cc6a7edbff49100e9123df213f -->
<g id="node15" class="node"><title>dir_4ab6b4cc6a7edbff49100e9123df213f</title>
<g id="a_node15"><a xlink:href="dir_4ab6b4cc6a7edbff49100e9123df213f.html" target="_top" xlink:title="Common">
<polygon fill="none" stroke="red" points="558.902,-108 503.902,-108 503.902,-72 558.902,-72 558.902,-108"/>
<text text-anchor="middle" x="531.402" y="-87.5" font-family="Helvetica,sans-Serif" font-size="10.00">Common</text>
</a>
</g>
</g>
<!-- dir_37c90836491b695b472bf98d1be8336b&#45;&gt;dir_4ab6b4cc6a7edbff49100e9123df213f -->
<g id="edge18" class="edge"><title>dir_37c90836491b695b472bf98d1be8336b&#45;&gt;dir_4ab6b4cc6a7edbff49100e9123df213f</title>
<path fill="none" stroke="black" d="M260.467,-90C338.12,-90 415.773,-90 493.426,-90"/>
<polygon fill="black" stroke="black" points="493.886,-93.5001 503.886,-90 493.886,-86.5001 493.886,-93.5001"/>
<g id="a_edge18&#45;headlabel"><a xlink:href="dir_000139_000016.html" target="_top" xlink:title="5">
<text text-anchor="middle" x="490.291" y="-93.8393" font-family="Helvetica,sans-Serif" font-size="10.00">5</text>
</a>
</g>
</g>
<!-- dir_2171f7ec022c5423887b07c69b2f5b48 -->
<g id="node17" class="node"><title>dir_2171f7ec022c5423887b07c69b2f5b48</title>
<g id="a_node17"><a xlink:href="dir_2171f7ec022c5423887b07c69b2f5b48.html" target="_top" xlink:title="DataFormats">
<polygon fill="none" stroke="red" points="363.402,-36 289.402,-36 289.402,-0 363.402,-0 363.402,-36"/>
<text text-anchor="middle" x="326.402" y="-15.5" font-family="Helvetica,sans-Serif" font-size="10.00">DataFormats</text>
</a>
</g>
</g>
<!-- dir_37c90836491b695b472bf98d1be8336b&#45;&gt;dir_2171f7ec022c5423887b07c69b2f5b48 -->
<g id="edge19" class="edge"><title>dir_37c90836491b695b472bf98d1be8336b&#45;&gt;dir_2171f7ec022c5423887b07c69b2f5b48</title>
<path fill="none" stroke="black" d="M250.476,-71.6966C261.486,-62.7112 276.075,-51.614 289.567,-41.9243"/>
<polygon fill="black" stroke="black" points="291.646,-44.7406 297.783,-36.1043 287.6,-39.0283 291.646,-44.7406"/>
<g id="a_edge19&#45;headlabel"><a xlink:href="dir_000139_000052.html" target="_top" xlink:title="5">
<text text-anchor="middle" x="290.354" y="-46.6352" font-family="Helvetica,sans-Serif" font-size="10.00">5</text>
</a>
</g>
</g>
<!-- dir_088378b58cb1ba39db48039cbd66d10f -->
<g id="node3" class="node"><title>dir_088378b58cb1ba39db48039cbd66d10f</title>
<g id="a_node3"><a xlink:href="dir_088378b58cb1ba39db48039cbd66d10f.html" target="_top" xlink:title="EMCAL">
<polygon fill="white" stroke="red" points="421.402,-252 367.402,-252 367.402,-216 421.402,-216 421.402,-252"/>
<text text-anchor="middle" x="394.402" y="-231.5" font-family="Helvetica,sans-Serif" font-size="10.00">EMCAL</text>
</a>
</g>
</g>
<!-- dir_088378b58cb1ba39db48039cbd66d10f&#45;&gt;dir_37c90836491b695b472bf98d1be8336b -->
<g id="edge6" class="edge"><title>dir_088378b58cb1ba39db48039cbd66d10f&#45;&gt;dir_37c90836491b695b472bf98d1be8336b</title>
<path fill="none" stroke="black" d="M367.299,-221.668C362.068,-219.657 356.598,-217.673 351.402,-216 289.019,-195.91 248.693,-231.691 208.402,-180 194.178,-161.751 203.903,-135.83 215.115,-116.666"/>
<polygon fill="black" stroke="black" points="218.121,-118.459 220.464,-108.126 212.189,-114.743 218.121,-118.459"/>
<g id="a_edge6&#45;headlabel"><a xlink:href="dir_000087_000139.html" target="_top" xlink:title="1">
<text text-anchor="middle" x="218.619" y="-120.513" font-family="Helvetica,sans-Serif" font-size="10.00">1</text>
</a>
</g>
</g>
<!-- dir_f01815b857f9009bea48e2cb39492245 -->
<g id="node9" class="node"><title>dir_f01815b857f9009bea48e2cb39492245</title>
<g id="a_node9"><a xlink:href="dir_f01815b857f9009bea48e2cb39492245.html" target="_top" xlink:title="Passive">
<polygon fill="white" stroke="red" points="415.402,-180 361.402,-180 361.402,-144 415.402,-144 415.402,-180"/>
<text text-anchor="middle" x="388.402" y="-159.5" font-family="Helvetica,sans-Serif" font-size="10.00">Passive</text>
</a>
</g>
</g>
<!-- dir_088378b58cb1ba39db48039cbd66d10f&#45;&gt;dir_f01815b857f9009bea48e2cb39492245 -->
<g id="edge7" class="edge"><title>dir_088378b58cb1ba39db48039cbd66d10f&#45;&gt;dir_f01815b857f9009bea48e2cb39492245</title>
<path fill="none" stroke="black" d="M392.919,-215.697C392.258,-207.983 391.464,-198.712 390.726,-190.112"/>
<polygon fill="black" stroke="black" points="394.21,-189.769 389.869,-180.104 387.235,-190.367 394.21,-189.769"/>
<g id="a_edge7&#45;headlabel"><a xlink:href="dir_000087_000260.html" target="_top" xlink:title="5">
<text text-anchor="middle" x="397.346" y="-190.608" font-family="Helvetica,sans-Serif" font-size="10.00">5</text>
</a>
</g>
</g>
<!-- dir_a597e8e061b11201a1dff411feb10d0b -->
<g id="node12" class="node"><title>dir_a597e8e061b11201a1dff411feb10d0b</title>
<g id="a_node12"><a xlink:href="dir_a597e8e061b11201a1dff411feb10d0b.html" target="_top" xlink:title="TPC">
<polygon fill="white" stroke="red" points="487.402,-180 433.402,-180 433.402,-144 487.402,-144 487.402,-180"/>
<text text-anchor="middle" x="460.402" y="-159.5" font-family="Helvetica,sans-Serif" font-size="10.00">TPC</text>
</a>
</g>
</g>
<!-- dir_088378b58cb1ba39db48039cbd66d10f&#45;&gt;dir_a597e8e061b11201a1dff411feb10d0b -->
<g id="edge5" class="edge"><title>dir_088378b58cb1ba39db48039cbd66d10f&#45;&gt;dir_a597e8e061b11201a1dff411feb10d0b</title>
<path fill="none" stroke="black" d="M410.717,-215.697C418.71,-207.22 428.474,-196.864 437.225,-187.583"/>
<polygon fill="black" stroke="black" points="439.962,-189.781 444.276,-180.104 434.869,-184.979 439.962,-189.781"/>
<g id="a_edge5&#45;headlabel"><a xlink:href="dir_000087_000163.html" target="_top" xlink:title="1">
<text text-anchor="middle" x="439.562" y="-191.844" font-family="Helvetica,sans-Serif" font-size="10.00">1</text>
</a>
</g>
</g>
<!-- dir_0b342c6c6b7d2278121a0bb9c4985063 -->
<g id="node14" class="node"><title>dir_0b342c6c6b7d2278121a0bb9c4985063</title>
<g id="a_node14"><a xlink:href="dir_0b342c6c6b7d2278121a0bb9c4985063.html" target="_top" xlink:title="Generators">
<polygon fill="none" stroke="red" points="684.652,-180 620.152,-180 620.152,-144 684.652,-144 684.652,-180"/>
<text text-anchor="middle" x="652.402" y="-159.5" font-family="Helvetica,sans-Serif" font-size="10.00">Generators</text>
</a>
</g>
</g>
<!-- dir_088378b58cb1ba39db48039cbd66d10f&#45;&gt;dir_0b342c6c6b7d2278121a0bb9c4985063 -->
<g id="edge3" class="edge"><title>dir_088378b58cb1ba39db48039cbd66d10f&#45;&gt;dir_0b342c6c6b7d2278121a0bb9c4985063</title>
<path fill="none" stroke="black" d="M421.622,-227.088C462.05,-218.1 540.204,-199.924 605.402,-180 607.028,-179.503 608.681,-178.983 610.346,-178.445"/>
<polygon fill="black" stroke="black" points="611.564,-181.728 619.93,-175.227 609.336,-175.093 611.564,-181.728"/>
<g id="a_edge3&#45;headlabel"><a xlink:href="dir_000087_000341.html" target="_top" xlink:title="1">
<text text-anchor="middle" x="609.061" y="-183.064" font-family="Helvetica,sans-Serif" font-size="10.00">1</text>
</a>
</g>
</g>
<!-- dir_088378b58cb1ba39db48039cbd66d10f&#45;&gt;dir_4ab6b4cc6a7edbff49100e9123df213f -->
<g id="edge4" class="edge"><title>dir_088378b58cb1ba39db48039cbd66d10f&#45;&gt;dir_4ab6b4cc6a7edbff49100e9123df213f</title>
<path fill="none" stroke="black" d="M421.631,-232.444C488.669,-230.441 658.772,-221.309 693.402,-180 731.813,-134.183 628.507,-107.915 569.418,-97.009"/>
<polygon fill="black" stroke="black" points="569.752,-93.5135 559.293,-95.2099 568.527,-100.406 569.752,-93.5135"/>
<g id="a_edge4&#45;headlabel"><a xlink:href="dir_000087_000016.html" target="_top" xlink:title="4">
<text text-anchor="middle" x="573.787" y="-88.8469" font-family="Helvetica,sans-Serif" font-size="10.00">4</text>
</a>
</g>
</g>
<!-- dir_088378b58cb1ba39db48039cbd66d10f&#45;&gt;dir_2171f7ec022c5423887b07c69b2f5b48 -->
<g id="edge8" class="edge"><title>dir_088378b58cb1ba39db48039cbd66d10f&#45;&gt;dir_2171f7ec022c5423887b07c69b2f5b48</title>
<path fill="none" stroke="black" d="M367.322,-221.597C362.089,-219.592 356.612,-217.629 351.402,-216 284.316,-195.022 241.083,-235.069 197.402,-180 165.364,-139.608 167.549,-106.032 197.402,-64 215.813,-38.0795 250.309,-26.9659 278.999,-22.2596"/>
<polygon fill="black" stroke="black" points="279.858,-25.6728 289.266,-20.8001 278.873,-18.7425 279.858,-25.6728"/>
<g id="a_edge8&#45;headlabel"><a xlink:href="dir_000087_000052.html" target="_top" xlink:title="4">
<text text-anchor="middle" x="276.699" y="-26.4896" font-family="Helvetica,sans-Serif" font-size="10.00">4</text>
</a>
</g>
</g>
<!-- dir_d14e88a79bca429480864605ee348cef -->
<g id="node4" class="node"><title>dir_d14e88a79bca429480864605ee348cef</title>
<g id="a_node4"><a xlink:href="dir_d14e88a79bca429480864605ee348cef.html" target="_top" xlink:title="FIT">
<polygon fill="white" stroke="red" points="271.402,-180 217.402,-180 217.402,-144 271.402,-144 271.402,-180"/>
<text text-anchor="middle" x="244.402" y="-159.5" font-family="Helvetica,sans-Serif" font-size="10.00">FIT</text>
</a>
</g>
</g>
<!-- dir_d14e88a79bca429480864605ee348cef&#45;&gt;dir_37c90836491b695b472bf98d1be8336b -->
<g id="edge12" class="edge"><title>dir_d14e88a79bca429480864605ee348cef&#45;&gt;dir_37c90836491b695b472bf98d1be8336b</title>
<path fill="none" stroke="black" d="M241.683,-143.697C240.471,-135.983 239.014,-126.712 237.663,-118.112"/>
<polygon fill="black" stroke="black" points="241.1,-117.44 236.09,-108.104 234.185,-118.526 241.1,-117.44"/>
<g id="a_edge12&#45;headlabel"><a xlink:href="dir_000145_000139.html" target="_top" xlink:title="1">
<text text-anchor="middle" x="244.463" y="-118.05" font-family="Helvetica,sans-Serif" font-size="10.00">1</text>
</a>
</g>
</g>
<!-- dir_d14e88a79bca429480864605ee348cef&#45;&gt;dir_2171f7ec022c5423887b07c69b2f5b48 -->
<g id="edge13" class="edge"><title>dir_d14e88a79bca429480864605ee348cef&#45;&gt;dir_2171f7ec022c5423887b07c69b2f5b48</title>
<path fill="none" stroke="black" d="M254.294,-143.871C268.515,-119.244 294.851,-73.6377 311.455,-44.8845"/>
<polygon fill="black" stroke="black" points="314.506,-46.5994 316.476,-36.1893 308.445,-43.0988 314.506,-46.5994"/>
<g id="a_edge13&#45;headlabel"><a xlink:href="dir_000145_000052.html" target="_top" xlink:title="1">
<text text-anchor="middle" x="315.168" y="-48.6321" font-family="Helvetica,sans-Serif" font-size="10.00">1</text>
</a>
</g>
</g>
<!-- dir_fda58d415f46ed5554e220ec8997f6b0 -->
<g id="node5" class="node"><title>dir_fda58d415f46ed5554e220ec8997f6b0</title>
<g id="a_node5"><a xlink:href="dir_fda58d415f46ed5554e220ec8997f6b0.html" target="_top" xlink:title="gconfig">
<polygon fill="white" stroke="black" points="409.402,-324 355.402,-324 355.402,-288 409.402,-288 409.402,-324"/>
<text text-anchor="middle" x="382.402" y="-303.5" font-family="Helvetica,sans-Serif" font-size="10.00">gconfig</text>
</a>
</g>
</g>
<!-- dir_18e0e8b4b629c3c13e7ad1457bcd5f89 -->
<g id="node6" class="node"><title>dir_18e0e8b4b629c3c13e7ad1457bcd5f89</title>
<g id="a_node6"><a xlink:href="dir_18e0e8b4b629c3c13e7ad1457bcd5f89.html" target="_top" xlink:title="GlobalTracking">
<polygon fill="white" stroke="red" points="265.402,-324 183.402,-324 183.402,-288 265.402,-288 265.402,-324"/>
<text text-anchor="middle" x="224.402" y="-303.5" font-family="Helvetica,sans-Serif" font-size="10.00">GlobalTracking</text>
</a>
</g>
</g>
<!-- dir_18e0e8b4b629c3c13e7ad1457bcd5f89&#45;&gt;dir_37c90836491b695b472bf98d1be8336b -->
<g id="edge31" class="edge"><title>dir_18e0e8b4b629c3c13e7ad1457bcd5f89&#45;&gt;dir_37c90836491b695b472bf98d1be8336b</title>
<path fill="none" stroke="black" d="M183.155,-292.97C163.192,-284.837 141.07,-271.869 129.402,-252 121.301,-238.203 126.84,-231.793 129.402,-216 134.806,-182.705 132.889,-170.777 153.402,-144 164.921,-128.964 181.986,-116.831 197.4,-107.987"/>
<polygon fill="black" stroke="black" points="199.133,-111.028 206.231,-103.162 195.777,-104.885 199.133,-111.028"/>
<g id="a_edge31&#45;headlabel"><a xlink:href="dir_000210_000139.html" target="_top" xlink:title="2">
<text text-anchor="middle" x="197.34" y="-112.743" font-family="Helvetica,sans-Serif" font-size="10.00">2</text>
</a>
</g>
</g>
<!-- dir_1306292b77b40360479b729ac9ee7efe -->
<g id="node7" class="node"><title>dir_1306292b77b40360479b729ac9ee7efe</title>
<g id="a_node7"><a xlink:href="dir_1306292b77b40360479b729ac9ee7efe.html" target="_top" xlink:title="ITSMFT">
<polygon fill="white" stroke="red" points="342.402,-252 288.402,-252 288.402,-216 342.402,-216 342.402,-252"/>
<text text-anchor="middle" x="315.402" y="-231.5" font-family="Helvetica,sans-Serif" font-size="10.00">ITSMFT</text>
</a>
</g>
</g>
<!-- dir_18e0e8b4b629c3c13e7ad1457bcd5f89&#45;&gt;dir_1306292b77b40360479b729ac9ee7efe -->
<g id="edge32" class="edge"><title>dir_18e0e8b4b629c3c13e7ad1457bcd5f89&#45;&gt;dir_1306292b77b40360479b729ac9ee7efe</title>
<path fill="none" stroke="black" d="M246.897,-287.697C258.358,-278.881 272.461,-268.032 284.886,-258.474"/>
<polygon fill="black" stroke="black" points="287.375,-260.976 293.167,-252.104 283.107,-255.427 287.375,-260.976"/>
<g id="a_edge32&#45;headlabel"><a xlink:href="dir_000210_000029.html" target="_top" xlink:title="1">
<text text-anchor="middle" x="286.257" y="-262.918" font-family="Helvetica,sans-Serif" font-size="10.00">1</text>
</a>
</g>
</g>
<!-- dir_18e0e8b4b629c3c13e7ad1457bcd5f89&#45;&gt;dir_a597e8e061b11201a1dff411feb10d0b -->
<g id="edge30" class="edge"><title>dir_18e0e8b4b629c3c13e7ad1457bcd5f89&#45;&gt;dir_a597e8e061b11201a1dff411feb10d0b</title>
<path fill="none" stroke="black" d="M265.5,-290.66C268.502,-289.725 271.492,-288.828 274.402,-288 342.84,-268.523 377.676,-299.781 430.402,-252 447.813,-236.222 455.129,-210.007 458.197,-190.104"/>
<polygon fill="black" stroke="black" points="461.682,-190.444 459.474,-180.082 454.739,-189.559 461.682,-190.444"/>
<g id="a_edge30&#45;headlabel"><a xlink:href="dir_000210_000163.html" target="_top" xlink:title="3">
<text text-anchor="middle" x="464.045" y="-191.869" font-family="Helvetica,sans-Serif" font-size="10.00">3</text>
</a>
</g>
</g>
<!-- dir_18e0e8b4b629c3c13e7ad1457bcd5f89&#45;&gt;dir_4ab6b4cc6a7edbff49100e9123df213f -->
<g id="edge29" class="edge"><title>dir_18e0e8b4b629c3c13e7ad1457bcd5f89&#45;&gt;dir_4ab6b4cc6a7edbff49100e9123df213f</title>
<path fill="none" stroke="black" d="M265.481,-290.592C268.487,-289.673 271.484,-288.798 274.402,-288 467.378,-235.209 589.888,-338.935 711.402,-180 751.617,-127.401 633.086,-103.861 569.222,-95.2142"/>
<polygon fill="black" stroke="black" points="569.467,-91.7168 559.101,-93.906 568.57,-98.6591 569.467,-91.7168"/>
<g id="a_edge29&#45;headlabel"><a xlink:href="dir_000210_000016.html" target="_top" xlink:title="8">
<text text-anchor="middle" x="573.396" y="-86.8617" font-family="Helvetica,sans-Serif" font-size="10.00">8</text>
</a>
</g>
</g>
<!-- dir_18e0e8b4b629c3c13e7ad1457bcd5f89&#45;&gt;dir_2171f7ec022c5423887b07c69b2f5b48 -->
<g id="edge33" class="edge"><title>dir_18e0e8b4b629c3c13e7ad1457bcd5f89&#45;&gt;dir_2171f7ec022c5423887b07c69b2f5b48</title>
<path fill="none" stroke="black" d="M265.662,-290.131C268.599,-289.333 271.533,-288.61 274.402,-288 360.402,-269.721 590.398,-292.562 668.402,-252 705.613,-232.651 714.964,-219.377 729.402,-180 782.651,-34.7744 491.302,-18.9338 373.821,-18.3551"/>
<polygon fill="black" stroke="black" points="373.678,-14.855 363.673,-18.3413 373.668,-21.855 373.678,-14.855"/>
<g id="a_edge33&#45;headlabel"><a xlink:href="dir_000210_000052.html" target="_top" xlink:title="10">
<text text-anchor="middle" x="377.276" y="-9.52057" font-family="Helvetica,sans-Serif" font-size="10.00">10</text>
</a>
</g>
</g>
<!-- dir_1306292b77b40360479b729ac9ee7efe&#45;&gt;dir_37c90836491b695b472bf98d1be8336b -->
<g id="edge22" class="edge"><title>dir_1306292b77b40360479b729ac9ee7efe&#45;&gt;dir_37c90836491b695b472bf98d1be8336b</title>
<path fill="none" stroke="black" d="M288.221,-221.408C252.484,-206.136 194.105,-181.071 193.402,-180 180.13,-159.763 194.127,-134.397 209.092,-115.928"/>
<polygon fill="black" stroke="black" points="211.852,-118.086 215.714,-108.221 206.543,-113.525 211.852,-118.086"/>
<g id="a_edge22&#45;headlabel"><a xlink:href="dir_000029_000139.html" target="_top" xlink:title="10">
<text text-anchor="middle" x="211.663" y="-120.163" font-family="Helvetica,sans-Serif" font-size="10.00">10</text>
</a>
</g>
</g>
<!-- dir_1306292b77b40360479b729ac9ee7efe&#45;&gt;dir_f01815b857f9009bea48e2cb39492245 -->
<g id="edge23" class="edge"><title>dir_1306292b77b40360479b729ac9ee7efe&#45;&gt;dir_f01815b857f9009bea48e2cb39492245</title>
<path fill="none" stroke="black" d="M333.447,-215.697C342.464,-207.05 353.52,-196.449 363.346,-187.027"/>
<polygon fill="black" stroke="black" points="365.77,-189.552 370.565,-180.104 360.925,-184.499 365.77,-189.552"/>
<g id="a_edge23&#45;headlabel"><a xlink:href="dir_000029_000260.html" target="_top" xlink:title="1">
<text text-anchor="middle" x="365.14" y="-191.589" font-family="Helvetica,sans-Serif" font-size="10.00">1</text>
</a>
</g>
</g>
<!-- dir_1306292b77b40360479b729ac9ee7efe&#45;&gt;dir_a597e8e061b11201a1dff411feb10d0b -->
<g id="edge21" class="edge"><title>dir_1306292b77b40360479b729ac9ee7efe&#45;&gt;dir_a597e8e061b11201a1dff411feb10d0b</title>
<path fill="none" stroke="black" d="M342.676,-219.834C365.663,-208.736 398.749,-192.764 423.996,-180.575"/>
<polygon fill="black" stroke="black" points="425.767,-183.607 433.251,-176.107 422.724,-177.303 425.767,-183.607"/>
<g id="a_edge21&#45;headlabel"><a xlink:href="dir_000029_000163.html" target="_top" xlink:title="1">
<text text-anchor="middle" x="423.765" y="-185.227" font-family="Helvetica,sans-Serif" font-size="10.00">1</text>
</a>
</g>
</g>
<!-- dir_1306292b77b40360479b729ac9ee7efe&#45;&gt;dir_4ab6b4cc6a7edbff49100e9123df213f -->
<g id="edge20" class="edge"><title>dir_1306292b77b40360479b729ac9ee7efe&#45;&gt;dir_4ab6b4cc6a7edbff49100e9123df213f</title>
<path fill="none" stroke="black" d="M342.409,-221.347C347.649,-219.365 353.147,-217.475 358.402,-216 403.779,-203.269 537.038,-216.042 567.402,-180 583.095,-161.374 569.143,-135.014 554.277,-115.818"/>
<polygon fill="black" stroke="black" points="556.978,-113.591 547.933,-108.073 551.562,-118.027 556.978,-113.591"/>
<g id="a_edge20&#45;headlabel"><a xlink:href="dir_000029_000016.html" target="_top" xlink:title="35">
<text text-anchor="middle" x="561.452" y="-112.073" font-family="Helvetica,sans-Serif" font-size="10.00">35</text>
</a>
</g>
</g>
<!-- dir_1306292b77b40360479b729ac9ee7efe&#45;&gt;dir_2171f7ec022c5423887b07c69b2f5b48 -->
<g id="edge24" class="edge"><title>dir_1306292b77b40360479b729ac9ee7efe&#45;&gt;dir_2171f7ec022c5423887b07c69b2f5b48</title>
<path fill="none" stroke="black" d="M288.158,-220.468C283.943,-218.808 279.596,-217.251 275.402,-216 188.856,-190.175 133.334,-249.29 75.4025,-180 42.3336,-140.447 42.3198,-103.541 75.4025,-64 100.885,-33.5425 213.92,-23.6738 279.28,-20.495"/>
<polygon fill="black" stroke="black" points="279.509,-23.9883 289.34,-20.0401 279.192,-16.9955 279.509,-23.9883"/>
<g id="a_edge24&#45;headlabel"><a xlink:href="dir_000029_000052.html" target="_top" xlink:title="75">
<text text-anchor="middle" x="276.046" y="-24.487" font-family="Helvetica,sans-Serif" font-size="10.00">75</text>
</a>
</g>
</g>
<!-- dir_1cc233fd3b1202b9dad36810b41b97af -->
<g id="node8" class="node"><title>dir_1cc233fd3b1202b9dad36810b41b97af</title>
<g id="a_node8"><a xlink:href="dir_1cc233fd3b1202b9dad36810b41b97af.html" target="_top" xlink:title="MUON">
<polygon fill="white" stroke="red" points="337.402,-324 283.402,-324 283.402,-288 337.402,-288 337.402,-324"/>
<text text-anchor="middle" x="310.402" y="-303.5" font-family="Helvetica,sans-Serif" font-size="10.00">MUON</text>
</a>
</g>
</g>
<!-- dir_b05a5fa85f84bfc9013183c9d87f9a36 -->
<g id="node16" class="node"><title>dir_b05a5fa85f84bfc9013183c9d87f9a36</title>
<g id="a_node16"><a xlink:href="dir_b05a5fa85f84bfc9013183c9d87f9a36.html" target="_top" xlink:title="Utilities">
<polygon fill="none" stroke="red" points="871.402,-252 817.402,-252 817.402,-216 871.402,-216 871.402,-252"/>
<text text-anchor="middle" x="844.402" y="-231.5" font-family="Helvetica,sans-Serif" font-size="10.00">Utilities</text>
</a>
</g>
</g>
<!-- dir_1cc233fd3b1202b9dad36810b41b97af&#45;&gt;dir_b05a5fa85f84bfc9013183c9d87f9a36 -->
<g id="edge10" class="edge"><title>dir_1cc233fd3b1202b9dad36810b41b97af&#45;&gt;dir_b05a5fa85f84bfc9013183c9d87f9a36</title>
<path fill="none" stroke="black" d="M337.531,-290.942C340.471,-289.797 343.463,-288.782 346.402,-288 543.301,-235.643 605.302,-299.605 803.402,-252 804.667,-251.696 805.943,-251.359 807.223,-250.993"/>
<polygon fill="black" stroke="black" points="808.625,-254.215 817.009,-247.736 806.415,-247.573 808.625,-254.215"/>
<g id="a_edge10&#45;headlabel"><a xlink:href="dir_000095_000315.html" target="_top" xlink:title="4">
<text text-anchor="middle" x="806.111" y="-255.544" font-family="Helvetica,sans-Serif" font-size="10.00">4</text>
</a>
</g>
</g>
<!-- dir_1cc233fd3b1202b9dad36810b41b97af&#45;&gt;dir_2171f7ec022c5423887b07c69b2f5b48 -->
<g id="edge11" class="edge"><title>dir_1cc233fd3b1202b9dad36810b41b97af&#45;&gt;dir_2171f7ec022c5423887b07c69b2f5b48</title>
<path fill="none" stroke="black" d="M337.522,-290.908C340.464,-289.769 343.459,-288.765 346.402,-288 403.959,-273.043 839.791,-295.441 880.402,-252 939.37,-188.923 899.239,-117.423 831.402,-64 795.91,-36.0486 492.553,-23.9876 373.796,-20.3068"/>
<polygon fill="black" stroke="black" points="373.662,-16.8012 363.561,-19.9962 373.45,-23.798 373.662,-16.8012"/>
<g id="a_edge11&#45;headlabel"><a xlink:href="dir_000095_000052.html" target="_top" xlink:title="5">
<text text-anchor="middle" x="377.341" y="-11.5722" font-family="Helvetica,sans-Serif" font-size="10.00">5</text>
</a>
</g>
</g>
<!-- dir_f01815b857f9009bea48e2cb39492245&#45;&gt;dir_37c90836491b695b472bf98d1be8336b -->
<g id="edge39" class="edge"><title>dir_f01815b857f9009bea48e2cb39492245&#45;&gt;dir_37c90836491b695b472bf98d1be8336b</title>
<path fill="none" stroke="black" d="M361.306,-148.126C358.306,-146.724 355.292,-145.326 352.402,-144 324.76,-131.319 293.323,-117.337 269.705,-106.919"/>
<polygon fill="black" stroke="black" points="270.981,-103.656 260.418,-102.828 268.159,-110.062 270.981,-103.656"/>
<g id="a_edge39&#45;headlabel"><a xlink:href="dir_000260_000139.html" target="_top" xlink:title="16">
<text text-anchor="middle" x="275.415" y="-100.007" font-family="Helvetica,sans-Serif" font-size="10.00">16</text>
</a>
</g>
</g>
<!-- dir_f01815b857f9009bea48e2cb39492245&#45;&gt;dir_4ab6b4cc6a7edbff49100e9123df213f -->
<g id="edge38" class="edge"><title>dir_f01815b857f9009bea48e2cb39492245&#45;&gt;dir_4ab6b4cc6a7edbff49100e9123df213f</title>
<path fill="none" stroke="black" d="M415.625,-148.077C440.632,-136.195 476.166,-119.285 494.737,-110.233"/>
<polygon fill="black" stroke="black" points="496.446,-113.292 503.863,-105.727 493.346,-107.016 496.446,-113.292"/>
<g id="a_edge38&#45;headlabel"><a xlink:href="dir_000260_000016.html" target="_top" xlink:title="1">
<text text-anchor="middle" x="494.48" y="-114.93" font-family="Helvetica,sans-Serif" font-size="10.00">1</text>
</a>
</g>
</g>
<!-- dir_cd3c152a7db0580c86a4c50ad0325149 -->
<g id="node10" class="node"><title>dir_cd3c152a7db0580c86a4c50ad0325149</title>
<g id="a_node10"><a xlink:href="dir_cd3c152a7db0580c86a4c50ad0325149.html" target="_top" xlink:title="PHOS">
<polygon fill="white" stroke="red" points="266.402,-252 212.402,-252 212.402,-216 266.402,-216 266.402,-252"/>
<text text-anchor="middle" x="239.402" y="-231.5" font-family="Helvetica,sans-Serif" font-size="10.00">PHOS</text>
</a>
</g>
</g>
<!-- dir_cd3c152a7db0580c86a4c50ad0325149&#45;&gt;dir_37c90836491b695b472bf98d1be8336b -->
<g id="edge35" class="edge"><title>dir_cd3c152a7db0580c86a4c50ad0325149&#45;&gt;dir_37c90836491b695b472bf98d1be8336b</title>
<path fill="none" stroke="black" d="M212.163,-219.009C197.778,-210.004 181.472,-196.829 173.402,-180 166.485,-165.573 166.825,-158.586 173.402,-144 178.812,-132.003 188.429,-121.63 198.4,-113.321"/>
<polygon fill="black" stroke="black" points="200.648,-116.007 206.399,-107.108 196.354,-110.478 200.648,-116.007"/>
<g id="a_edge35&#45;headlabel"><a xlink:href="dir_000155_000139.html" target="_top" xlink:title="1">
<text text-anchor="middle" x="199.551" y="-117.954" font-family="Helvetica,sans-Serif" font-size="10.00">1</text>
</a>
</g>
</g>
<!-- dir_cd3c152a7db0580c86a4c50ad0325149&#45;&gt;dir_f01815b857f9009bea48e2cb39492245 -->
<g id="edge36" class="edge"><title>dir_cd3c152a7db0580c86a4c50ad0325149&#45;&gt;dir_f01815b857f9009bea48e2cb39492245</title>
<path fill="none" stroke="black" d="M266.813,-220.168C287.825,-210.327 317.767,-196.29 352.002,-180.184"/>
<polygon fill="black" stroke="black" points="353.722,-183.243 361.279,-175.817 350.741,-176.909 353.722,-183.243"/>
<g id="a_edge36&#45;headlabel"><a xlink:href="dir_000155_000260.html" target="_top" xlink:title="4">
<text text-anchor="middle" x="351.678" y="-184.842" font-family="Helvetica,sans-Serif" font-size="10.00">4</text>
</a>
</g>
</g>
<!-- dir_cd3c152a7db0580c86a4c50ad0325149&#45;&gt;dir_4ab6b4cc6a7edbff49100e9123df213f -->
<g id="edge34" class="edge"><title>dir_cd3c152a7db0580c86a4c50ad0325149&#45;&gt;dir_4ab6b4cc6a7edbff49100e9123df213f</title>
<path fill="none" stroke="black" d="M266.609,-220.336C270.829,-218.694 275.187,-217.178 279.402,-216 333.461,-200.897 492.176,-222.008 529.402,-180 544.087,-163.43 542.963,-137.535 539.125,-117.941"/>
<polygon fill="black" stroke="black" points="542.511,-117.045 536.869,-108.077 535.687,-118.606 542.511,-117.045"/>
<g id="a_edge34&#45;headlabel"><a xlink:href="dir_000155_000016.html" target="_top" xlink:title="2">
<text text-anchor="middle" x="546.08" y="-117.416" font-family="Helvetica,sans-Serif" font-size="10.00">2</text>
</a>
</g>
</g>
<!-- dir_cd3c152a7db0580c86a4c50ad0325149&#45;&gt;dir_2171f7ec022c5423887b07c69b2f5b48 -->
<g id="edge37" class="edge"><title>dir_cd3c152a7db0580c86a4c50ad0325149&#45;&gt;dir_2171f7ec022c5423887b07c69b2f5b48</title>
<path fill="none" stroke="black" d="M212.247,-220.126C208.64,-218.632 204.96,-217.211 201.402,-216 136.5,-193.907 94.9612,-232.944 51.4025,-180 18.6363,-140.174 14.9753,-103.273 48.4025,-64 77.474,-29.8442 207.673,-21.5327 279.11,-19.5647"/>
<polygon fill="black" stroke="black" points="279.293,-23.0614 289.204,-19.318 279.122,-16.0635 279.293,-23.0614"/>
<g id="a_edge37&#45;headlabel"><a xlink:href="dir_000155_000052.html" target="_top" xlink:title="2">
<text text-anchor="middle" x="275.768" y="-23.4875" font-family="Helvetica,sans-Serif" font-size="10.00">2</text>
</a>
</g>
</g>
<!-- dir_577c839d346a264df4e9e588ca2a45dd -->
<g id="node11" class="node"><title>dir_577c839d346a264df4e9e588ca2a45dd</title>
<g id="a_node11"><a xlink:href="dir_577c839d346a264df4e9e588ca2a45dd.html" target="_top" xlink:title="TOF">
<polygon fill="white" stroke="red" points="192.402,-252 138.402,-252 138.402,-216 192.402,-216 192.402,-252"/>
<text text-anchor="middle" x="165.402" y="-231.5" font-family="Helvetica,sans-Serif" font-size="10.00">TOF</text>
</a>
</g>
</g>
<!-- dir_577c839d346a264df4e9e588ca2a45dd&#45;&gt;dir_37c90836491b695b472bf98d1be8336b -->
<g id="edge26" class="edge"><title>dir_577c839d346a264df4e9e588ca2a45dd&#45;&gt;dir_37c90836491b695b472bf98d1be8336b</title>
<path fill="none" stroke="black" d="M160.841,-215.927C156.805,-197.231 153.131,-166.87 164.402,-144 171.51,-129.579 184.635,-117.987 197.545,-109.366"/>
<polygon fill="black" stroke="black" points="199.731,-112.128 206.372,-103.873 196.032,-106.185 199.731,-112.128"/>
<g id="a_edge26&#45;headlabel"><a xlink:href="dir_000159_000139.html" target="_top" xlink:title="2">
<text text-anchor="middle" x="198.179" y="-113.938" font-family="Helvetica,sans-Serif" font-size="10.00">2</text>
</a>
</g>
</g>
<!-- dir_577c839d346a264df4e9e588ca2a45dd&#45;&gt;dir_f01815b857f9009bea48e2cb39492245 -->
<g id="edge27" class="edge"><title>dir_577c839d346a264df4e9e588ca2a45dd&#45;&gt;dir_f01815b857f9009bea48e2cb39492245</title>
<path fill="none" stroke="black" d="M192.56,-220.132C196.166,-218.636 199.846,-217.214 203.402,-216 264.983,-194.985 286.244,-201.947 351.604,-179.895"/>
<polygon fill="black" stroke="black" points="352.831,-183.174 361.128,-176.585 350.533,-176.562 352.831,-183.174"/>
<g id="a_edge27&#45;headlabel"><a xlink:href="dir_000159_000260.html" target="_top" xlink:title="2">
<text text-anchor="middle" x="350.368" y="-184.536" font-family="Helvetica,sans-Serif" font-size="10.00">2</text>
</a>
</g>
</g>
<!-- dir_577c839d346a264df4e9e588ca2a45dd&#45;&gt;dir_4ab6b4cc6a7edbff49100e9123df213f -->
<g id="edge25" class="edge"><title>dir_577c839d346a264df4e9e588ca2a45dd&#45;&gt;dir_4ab6b4cc6a7edbff49100e9123df213f</title>
<path fill="none" stroke="black" d="M192.439,-219.739C196.064,-218.307 199.782,-217.008 203.402,-216 266.601,-198.41 444.546,-220.179 496.402,-180 515.514,-165.192 524.208,-138.434 528.152,-118.112"/>
<polygon fill="black" stroke="black" points="531.618,-118.608 529.812,-108.169 524.713,-117.456 531.618,-118.608"/>
<g id="a_edge25&#45;headlabel"><a xlink:href="dir_000159_000016.html" target="_top" xlink:title="1">
<text text-anchor="middle" x="533.827" y="-120.121" font-family="Helvetica,sans-Serif" font-size="10.00">1</text>
</a>
</g>
</g>
<!-- dir_577c839d346a264df4e9e588ca2a45dd&#45;&gt;dir_2171f7ec022c5423887b07c69b2f5b48 -->
<g id="edge28" class="edge"><title>dir_577c839d346a264df4e9e588ca2a45dd&#45;&gt;dir_2171f7ec022c5423887b07c69b2f5b48</title>
<path fill="none" stroke="black" d="M138.224,-231.145C105.724,-227.328 52.4572,-215.659 26.4025,-180 -4.03127,-138.348 -11.2981,-103.056 22.4025,-64 54.9425,-26.2886 201.736,-19.6492 278.807,-18.8175"/>
<polygon fill="black" stroke="black" points="279.228,-22.3144 289.2,-18.7361 279.173,-15.3147 279.228,-22.3144"/>
<g id="a_edge28&#45;headlabel"><a xlink:href="dir_000159_000052.html" target="_top" xlink:title="6">
<text text-anchor="middle" x="275.656" y="-22.6817" font-family="Helvetica,sans-Serif" font-size="10.00">6</text>
</a>
</g>
</g>
<!-- dir_a597e8e061b11201a1dff411feb10d0b&#45;&gt;dir_37c90836491b695b472bf98d1be8336b -->
<g id="edge15" class="edge"><title>dir_a597e8e061b11201a1dff411feb10d0b&#45;&gt;dir_37c90836491b695b472bf98d1be8336b</title>
<path fill="none" stroke="black" d="M433.092,-147.514C430.187,-146.257 427.253,-145.06 424.402,-144 371.993,-124.516 309.17,-108.415 270.265,-99.2508"/>
<polygon fill="black" stroke="black" points="270.966,-95.8203 260.432,-96.9628 269.379,-102.638 270.966,-95.8203"/>
<g id="a_edge15&#45;headlabel"><a xlink:href="dir_000163_000139.html" target="_top" xlink:title="1">
<text text-anchor="middle" x="275.11" y="-91.3696" font-family="Helvetica,sans-Serif" font-size="10.00">1</text>
</a>
</g>
</g>
<!-- dir_a597e8e061b11201a1dff411feb10d0b&#45;&gt;dir_4ab6b4cc6a7edbff49100e9123df213f -->
<g id="edge14" class="edge"><title>dir_a597e8e061b11201a1dff411feb10d0b&#45;&gt;dir_4ab6b4cc6a7edbff49100e9123df213f</title>
<path fill="none" stroke="black" d="M477.953,-143.697C486.637,-135.135 497.265,-124.656 506.751,-115.304"/>
<polygon fill="black" stroke="black" points="509.39,-117.617 514.054,-108.104 504.475,-112.633 509.39,-117.617"/>
<g id="a_edge14&#45;headlabel"><a xlink:href="dir_000163_000016.html" target="_top" xlink:title="4">
<text text-anchor="middle" x="508.824" y="-119.663" font-family="Helvetica,sans-Serif" font-size="10.00">4</text>
</a>
</g>
</g>
<!-- dir_a597e8e061b11201a1dff411feb10d0b&#45;&gt;dir_2171f7ec022c5423887b07c69b2f5b48 -->
<g id="edge16" class="edge"><title>dir_a597e8e061b11201a1dff411feb10d0b&#45;&gt;dir_2171f7ec022c5423887b07c69b2f5b48</title>
<path fill="none" stroke="black" d="M444.239,-143.871C420.697,-118.924 376.841,-72.4495 349.78,-43.7729"/>
<polygon fill="black" stroke="black" points="352.032,-41.0601 342.623,-36.1893 346.941,-45.8644 352.032,-41.0601"/>
<g id="a_edge16&#45;headlabel"><a xlink:href="dir_000163_000052.html" target="_top" xlink:title="77">
<text text-anchor="middle" x="356.564" y="-39.2258" font-family="Helvetica,sans-Serif" font-size="10.00">77</text>
</a>
</g>
</g>
<!-- dir_69dd0583e11051991bf4c0cf23c50933 -->
<g id="node13" class="node"><title>dir_69dd0583e11051991bf4c0cf23c50933</title>
<g id="a_node13"><a xlink:href="dir_69dd0583e11051991bf4c0cf23c50933.html" target="_top" xlink:title="TRD">
<polygon fill="white" stroke="red" points="343.402,-180 289.402,-180 289.402,-144 343.402,-144 343.402,-180"/>
<text text-anchor="middle" x="316.402" y="-159.5" font-family="Helvetica,sans-Serif" font-size="10.00">TRD</text>
</a>
</g>
</g>
<!-- dir_69dd0583e11051991bf4c0cf23c50933&#45;&gt;dir_37c90836491b695b472bf98d1be8336b -->
<g id="edge1" class="edge"><title>dir_69dd0583e11051991bf4c0cf23c50933&#45;&gt;dir_37c90836491b695b472bf98d1be8336b</title>
<path fill="none" stroke="black" d="M295.886,-143.697C285.533,-134.965 272.816,-124.24 261.564,-114.75"/>
<polygon fill="black" stroke="black" points="263.584,-111.876 253.683,-108.104 259.071,-117.227 263.584,-111.876"/>
<g id="a_edge1&#45;headlabel"><a xlink:href="dir_000167_000139.html" target="_top" xlink:title="1">
<text text-anchor="middle" x="268.162" y="-109.523" font-family="Helvetica,sans-Serif" font-size="10.00">1</text>
</a>
</g>
</g>
<!-- dir_69dd0583e11051991bf4c0cf23c50933&#45;&gt;dir_2171f7ec022c5423887b07c69b2f5b48 -->
<g id="edge2" class="edge"><title>dir_69dd0583e11051991bf4c0cf23c50933&#45;&gt;dir_2171f7ec022c5423887b07c69b2f5b48</title>
<path fill="none" stroke="black" d="M317.609,-143.871C319.313,-119.67 322.444,-75.2108 324.473,-46.3932"/>
<polygon fill="black" stroke="black" points="327.981,-46.4105 325.192,-36.1893 320.998,-45.9187 327.981,-46.4105"/>
<g id="a_edge2&#45;headlabel"><a xlink:href="dir_000167_000052.html" target="_top" xlink:title="2">
<text text-anchor="middle" x="330.561" y="-47.6956" font-family="Helvetica,sans-Serif" font-size="10.00">2</text>
</a>
</g>
</g>
<!-- dir_4ab6b4cc6a7edbff49100e9123df213f&#45;&gt;dir_2171f7ec022c5423887b07c69b2f5b48 -->
<g id="edge9" class="edge"><title>dir_4ab6b4cc6a7edbff49100e9123df213f&#45;&gt;dir_2171f7ec022c5423887b07c69b2f5b48</title>
<path fill="none" stroke="black" d="M503.826,-72.3045C499.476,-69.2093 494.953,-66.2482 490.402,-64 453.083,-45.5641 407.381,-34.0939 373.618,-27.351"/>
<polygon fill="black" stroke="black" points="374.028,-23.8655 363.546,-25.4076 372.702,-30.7388 374.028,-23.8655"/>
<g id="a_edge9&#45;headlabel"><a xlink:href="dir_000016_000052.html" target="_top" xlink:title="1">
<text text-anchor="middle" x="378.095" y="-19.2586" font-family="Helvetica,sans-Serif" font-size="10.00">1</text>
</a>
</g>
</g>
<!-- dir_b05a5fa85f84bfc9013183c9d87f9a36&#45;&gt;dir_2171f7ec022c5423887b07c69b2f5b48 -->
<g id="edge17" class="edge"><title>dir_b05a5fa85f84bfc9013183c9d87f9a36&#45;&gt;dir_2171f7ec022c5423887b07c69b2f5b48</title>
<path fill="none" stroke="black" d="M846.075,-215.883C848.41,-181.217 848.146,-102.726 803.402,-64 771.344,-36.2536 487.792,-24.1598 373.672,-20.3858"/>
<polygon fill="black" stroke="black" points="373.601,-16.8817 363.493,-20.0564 373.374,-23.8781 373.601,-16.8817"/>
<g id="a_edge17&#45;headlabel"><a xlink:href="dir_000315_000052.html" target="_top" xlink:title="45">
<text text-anchor="middle" x="377.285" y="-11.6601" font-family="Helvetica,sans-Serif" font-size="10.00">45</text>
</a>
</g>
</g>
<!-- dir_2171f7ec022c5423887b07c69b2f5b48&#45;&gt;dir_37c90836491b695b472bf98d1be8336b -->
<g id="edge41" class="edge"><title>dir_2171f7ec022c5423887b07c69b2f5b48&#45;&gt;dir_37c90836491b695b472bf98d1be8336b</title>
<path fill="none" stroke="black" d="M309.446,-36.208C298.071,-45.4965 282.842,-57.0625 268.95,-66.9991"/>
<polygon fill="black" stroke="black" points="266.677,-64.319 260.519,-72.9406 270.71,-70.0409 266.677,-64.319"/>
<g id="a_edge41&#45;headlabel"><a xlink:href="dir_000052_000139.html" target="_top" xlink:title="1">
<text text-anchor="middle" x="267.98" y="-57.4275" font-family="Helvetica,sans-Serif" font-size="10.00">1</text>
</a>
</g>
</g>
<!-- dir_2171f7ec022c5423887b07c69b2f5b48&#45;&gt;dir_4ab6b4cc6a7edbff49100e9123df213f -->
<g id="edge40" class="edge"><title>dir_2171f7ec022c5423887b07c69b2f5b48&#45;&gt;dir_4ab6b4cc6a7edbff49100e9123df213f</title>
<path fill="none" stroke="black" d="M363.561,-23.1105C401.761,-28.7443 461.658,-40.9079 508.402,-64 509.746,-64.6635 511.086,-65.3892 512.41,-66.162"/>
<polygon fill="black" stroke="black" points="510.513,-69.1039 520.762,-71.79 514.425,-63.299 510.513,-69.1039"/>
<g id="a_edge40&#45;headlabel"><a xlink:href="dir_000052_000016.html" target="_top" xlink:title="15">
<text text-anchor="middle" x="505.946" y="-66.9496" font-family="Helvetica,sans-Serif" font-size="10.00">15</text>
</a>
</g>
</g>
</g>
</svg>
        <g id="navigator" transform="translate(0 0)" fill="#404254">
                <rect fill="#f2f5e9" fill-opacity="0.5" stroke="#606060" stroke-width=".5" x="0" y="0" width="60" height="60"/>
                <use id="zoomplus" xlink:href="#zoomPlus" x="17" y="9" onmousedown="handleZoom(evt,'in')"/>
                <use id="zoomminus" xlink:href="#zoomMin" x="42" y="9" onmousedown="handleZoom(evt,'out')"/>
                <use id="reset" xlink:href="#resetDef" x="30" y="36" onmousedown="handleReset()"/>
                <g id="arrowUp" xlink:href="#dirArrow" transform="translate(30 24)" onmousedown="handlePan(0,-1)">
                  <use xlink:href="#rim" fill="#404040">
                        <set attributeName="fill" to="#808080" begin="arrowUp.mouseover" end="arrowUp.mouseout"/>
                  </use>
                  <path fill="none" stroke="white" stroke-width="1.5" d="M0,-3.0v7 M-2.5,-0.5L0,-3.0L2.5,-0.5"/>
                </g>
                <g id="arrowRight" xlink:href="#dirArrow" transform="rotate(90) translate(36 -43)" onmousedown="handlePan(1,0)">
                  <use xlink:href="#rim" fill="#404040">
                        <set attributeName="fill" to="#808080" begin="arrowRight.mouseover" end="arrowRight.mouseout"/>
                  </use>
                  <path fill="none" stroke="white" stroke-width="1.5" d="M0,-3.0v7 M-2.5,-0.5L0,-3.0L2.5,-0.5"/>
                </g>
                <g id="arrowDown" xlink:href="#dirArrow" transform="rotate(180) translate(-30 -48)" onmousedown="handlePan(0,1)">
                  <use xlink:href="#rim" fill="#404040">
                        <set attributeName="fill" to="#808080" begin="arrowDown.mouseover" end="arrowDown.mouseout"/>
                  </use>
                  <path fill="none" stroke="white" stroke-width="1.5" d="M0,-3.0v7 M-2.5,-0.5L0,-3.0L2.5,-0.5"/>
                </g>
                <g id="arrowLeft" xlink:href="#dirArrow" transform="rotate(270) translate(-36 17)" onmousedown="handlePan(-1,0)">
                  <use xlink:href="#rim" fill="#404040">
                        <set attributeName="fill" to="#808080" begin="arrowLeft.mouseover" end="arrowLeft.mouseout"/>
                  </use>
                  <path fill="none" stroke="white" stroke-width="1.5" d="M0,-3.0v7 M-2.5,-0.5L0,-3.0L2.5,-0.5"/>
                </g>
        </g>
        <svg viewBox="0 0 15 15" width="100%" height="30px" preserveAspectRatio="xMaxYMin meet">
         <g id="arrow_out" transform="scale(0.3 0.3)">
          <a xlink:href="dir_051dca18e802f8e9474f2e30d29c04e0_dep_org.svg" target="_base">
           <rect id="button" ry="5" rx="5" y="6" x="6" height="38" width="38"
                fill="#f2f5e9" fill-opacity="0.5" stroke="#606060" stroke-width="1.0"/>
           <path id="arrow"
             d="M 11.500037,31.436501 C 11.940474,20.09759 22.043105,11.32322 32.158766,21.979434 L 37.068811,17.246167 C 37.068811,17.246167 37.088388,32 37.088388,32 L 22.160133,31.978069 C 22.160133,31.978069 26.997745,27.140456 26.997745,27.140456 C 18.528582,18.264221 13.291696,25.230495 11.500037,31.436501 z"
             style="fill:#404040;"/>
          </a>
         </g>
        </svg>
</svg>
