<?xml version="1.0" encoding="UTF-8" standalone="no"?>
<!DOCTYPE svg PUBLIC "-//W3C//DTD SVG 1.1//EN"
 "http://www.w3.org/Graphics/SVG/1.1/DTD/svg11.dtd">
<!-- Generated by graphviz version 2.36.0 (20140111.2315)
 -->
<!-- Title: /home/travis/build/AliceO2Group/AliceO2/Detectors/ITSMFT/MFT Pages: 1 -->
<svg width="424pt" height="519pt"
 viewBox="0.00 0.00 424.00 519.00" xmlns="http://www.w3.org/2000/svg" xmlns:xlink="http://www.w3.org/1999/xlink">
<g id="graph0" class="graph" transform="scale(1 1) rotate(0) translate(4 515)">
<title>/home/travis/build/AliceO2Group/AliceO2/Detectors/ITSMFT/MFT</title>
<g id="clust1" class="cluster"><title>clusterdir_1306292b77b40360479b729ac9ee7efe</title>
<g id="a_clust1"><a xlink:href="dir_1306292b77b40360479b729ac9ee7efe.html" target="_top" xlink:title="ITSMFT">
<polygon fill="#ddddee" stroke="black" points="127,-200 127,-503 285,-503 285,-200 127,-200"/>
<text text-anchor="middle" x="206" y="-491" font-family="Helvetica,sans-Serif" font-size="10.00">ITSMFT</text>
</a>
</g>
</g>
<g id="clust2" class="cluster"><title>clusterdir_f39d1cd569ca2d16022b762a0e4a53c8</title>
<g id="a_clust2"><a xlink:href="dir_f39d1cd569ca2d16022b762a0e4a53c8.html" target="_top">
<polygon fill="#eeeeff" stroke="black" points="135,-208 135,-476 277,-476 277,-208 135,-208"/>
</a>
</g>
</g>
<!-- dir_f39d1cd569ca2d16022b762a0e4a53c8 -->
<g id="node1" class="node"><title>dir_f39d1cd569ca2d16022b762a0e4a53c8</title>
<text text-anchor="middle" x="242" y="-447.5" font-family="Helvetica,sans-Serif" font-size="10.00">MFT</text>
</g>
<!-- dir_7e732ae97f4f941436b6909b27d4da36 -->
<g id="node2" class="node"><title>dir_7e732ae97f4f941436b6909b27d4da36</title>
<g id="a_node2"><a xlink:href="dir_7e732ae97f4f941436b6909b27d4da36.html" target="_top" xlink:title="base">
<polygon fill="white" stroke="red" points="268,-252 214,-252 214,-216 268,-216 268,-252"/>
<text text-anchor="middle" x="241" y="-231.5" font-family="Helvetica,sans-Serif" font-size="10.00">base</text>
</a>
</g>
</g>
<!-- dir_4ab6b4cc6a7edbff49100e9123df213f -->
<g id="node6" class="node"><title>dir_4ab6b4cc6a7edbff49100e9123df213f</title>
<g id="a_node6"><a xlink:href="dir_4ab6b4cc6a7edbff49100e9123df213f.html" target="_top" xlink:title="Common">
<polygon fill="none" stroke="red" points="290.5,-180 235.5,-180 235.5,-144 290.5,-144 290.5,-180"/>
<text text-anchor="middle" x="263" y="-159.5" font-family="Helvetica,sans-Serif" font-size="10.00">Common</text>
</a>
</g>
</g>
<!-- dir_7e732ae97f4f941436b6909b27d4da36&#45;&gt;dir_4ab6b4cc6a7edbff49100e9123df213f -->
<g id="edge16" class="edge"><title>dir_7e732ae97f4f941436b6909b27d4da36&#45;&gt;dir_4ab6b4cc6a7edbff49100e9123df213f</title>
<path fill="none" stroke="black" d="M246.438,-215.697C248.889,-207.898 251.84,-198.509 254.568,-189.829"/>
<polygon fill="black" stroke="black" points="257.965,-190.694 257.624,-180.104 251.287,-188.595 257.965,-190.694"/>
<g id="a_edge16&#45;headlabel"><a xlink:href="dir_000092_000016.html" target="_top" xlink:title="2">
<text text-anchor="middle" x="259.596" y="-192.474" font-family="Helvetica,sans-Serif" font-size="10.00">2</text>
</a>
</g>
</g>
<!-- dir_37c90836491b695b472bf98d1be8336b -->
<g id="node7" class="node"><title>dir_37c90836491b695b472bf98d1be8336b</title>
<g id="a_node7"><a xlink:href="dir_37c90836491b695b472bf98d1be8336b.html" target="_top" xlink:title="Base">
<polygon fill="none" stroke="red" points="229,-36 175,-36 175,-0 229,-0 229,-36"/>
<text text-anchor="middle" x="202" y="-15.5" font-family="Helvetica,sans-Serif" font-size="10.00">Base</text>
</a>
</g>
</g>
<!-- dir_7e732ae97f4f941436b6909b27d4da36&#45;&gt;dir_37c90836491b695b472bf98d1be8336b -->
<g id="edge17" class="edge"><title>dir_7e732ae97f4f941436b6909b27d4da36&#45;&gt;dir_37c90836491b695b472bf98d1be8336b</title>
<path fill="none" stroke="black" d="M268.035,-216.008C279.894,-206.929 292.562,-194.603 299,-180 305.454,-165.359 302.23,-159.671 299,-144 291.966,-109.877 289.095,-99.7274 268,-72 259.491,-60.8162 248.13,-50.5925 237.235,-42.1721"/>
<polygon fill="black" stroke="black" points="239.166,-39.2463 229.049,-36.0984 234.994,-44.8679 239.166,-39.2463"/>
<g id="a_edge17&#45;headlabel"><a xlink:href="dir_000092_000139.html" target="_top" xlink:title="2">
<text text-anchor="middle" x="243.744" y="-36.608" font-family="Helvetica,sans-Serif" font-size="10.00">2</text>
</a>
</g>
</g>
<!-- dir_85bf31a2e8d306e7598ffcb73f8df6bf -->
<g id="node8" class="node"><title>dir_85bf31a2e8d306e7598ffcb73f8df6bf</title>
<g id="a_node8"><a xlink:href="dir_85bf31a2e8d306e7598ffcb73f8df6bf.html" target="_top" xlink:title="common">
<polygon fill="none" stroke="red" points="82,-252 28,-252 28,-216 82,-216 82,-252"/>
<text text-anchor="middle" x="55" y="-231.5" font-family="Helvetica,sans-Serif" font-size="10.00">common</text>
</a>
</g>
</g>
<!-- dir_7e732ae97f4f941436b6909b27d4da36&#45;&gt;dir_85bf31a2e8d306e7598ffcb73f8df6bf -->
<g id="edge18" class="edge"><title>dir_7e732ae97f4f941436b6909b27d4da36&#45;&gt;dir_85bf31a2e8d306e7598ffcb73f8df6bf</title>
<path fill="none" stroke="black" d="M213.714,-234C173.23,-234 132.745,-234 92.2603,-234"/>
<polygon fill="black" stroke="black" points="92.2461,-230.5 82.2461,-234 92.2461,-237.5 92.2461,-230.5"/>
<g id="a_edge18&#45;headlabel"><a xlink:href="dir_000092_000180.html" target="_top" xlink:title="7">
<text text-anchor="middle" x="95.8407" y="-225.161" font-family="Helvetica,sans-Serif" font-size="10.00">7</text>
</a>
</g>
</g>
<!-- dir_2171f7ec022c5423887b07c69b2f5b48 -->
<g id="node10" class="node"><title>dir_2171f7ec022c5423887b07c69b2f5b48</title>
<g id="a_node10"><a xlink:href="dir_2171f7ec022c5423887b07c69b2f5b48.html" target="_top" xlink:title="DataFormats">
<polygon fill="none" stroke="red" points="239,-108 165,-108 165,-72 239,-72 239,-108"/>
<text text-anchor="middle" x="202" y="-87.5" font-family="Helvetica,sans-Serif" font-size="10.00">DataFormats</text>
</a>
</g>
</g>
<!-- dir_7e732ae97f4f941436b6909b27d4da36&#45;&gt;dir_2171f7ec022c5423887b07c69b2f5b48 -->
<g id="edge19" class="edge"><title>dir_7e732ae97f4f941436b6909b27d4da36&#45;&gt;dir_2171f7ec022c5423887b07c69b2f5b48</title>
<path fill="none" stroke="black" d="M236.082,-215.829C233.128,-205.463 229.311,-191.983 226,-180 220.282,-159.306 213.966,-135.86 209.249,-118.229"/>
<polygon fill="black" stroke="black" points="212.5,-116.837 206.538,-108.079 205.737,-118.644 212.5,-116.837"/>
<g id="a_edge19&#45;headlabel"><a xlink:href="dir_000092_000052.html" target="_top" xlink:title="1">
<text text-anchor="middle" x="216.171" y="-117.078" font-family="Helvetica,sans-Serif" font-size="10.00">1</text>
</a>
</g>
</g>
<!-- dir_5b6015b386f827cc0d1582f414a67114 -->
<g id="node3" class="node"><title>dir_5b6015b386f827cc0d1582f414a67114</title>
<g id="a_node3"><a xlink:href="dir_5b6015b386f827cc0d1582f414a67114.html" target="_top" xlink:title="macros">
<polygon fill="white" stroke="black" points="197,-468 143,-468 143,-432 197,-432 197,-468"/>
<text text-anchor="middle" x="170" y="-447.5" font-family="Helvetica,sans-Serif" font-size="10.00">macros</text>
</a>
</g>
</g>
<!-- dir_3d8e691f27a9a1a3f5b37028248bc44b -->
<g id="node4" class="node"><title>dir_3d8e691f27a9a1a3f5b37028248bc44b</title>
<g id="a_node4"><a xlink:href="dir_3d8e691f27a9a1a3f5b37028248bc44b.html" target="_top" xlink:title="reconstruction">
<polygon fill="white" stroke="red" points="267,-396 189,-396 189,-360 267,-360 267,-396"/>
<text text-anchor="middle" x="228" y="-375.5" font-family="Helvetica,sans-Serif" font-size="10.00">reconstruction</text>
</a>
</g>
</g>
<!-- dir_5b6015b386f827cc0d1582f414a67114&#45;&gt;dir_3d8e691f27a9a1a3f5b37028248bc44b -->
<g id="edge22" class="edge"><title>dir_5b6015b386f827cc0d1582f414a67114&#45;&gt;dir_3d8e691f27a9a1a3f5b37028248bc44b</title>
<path fill="none" stroke="black" d="M184.337,-431.697C191.291,-423.305 199.77,-413.07 207.401,-403.861"/>
<polygon fill="black" stroke="black" points="210.143,-406.038 213.828,-396.104 204.753,-401.571 210.143,-406.038"/>
<g id="a_edge22&#45;headlabel"><a xlink:href="dir_000228_000113.html" target="_top" xlink:title="1">
<text text-anchor="middle" x="210.036" y="-408.117" font-family="Helvetica,sans-Serif" font-size="10.00">1</text>
</a>
</g>
</g>
<!-- dir_a336bf94aab96007822cb34c9e2cb8a5 -->
<g id="node5" class="node"><title>dir_a336bf94aab96007822cb34c9e2cb8a5</title>
<g id="a_node5"><a xlink:href="dir_a336bf94aab96007822cb34c9e2cb8a5.html" target="_top" xlink:title="simulation">
<polygon fill="white" stroke="red" points="204.25,-324 143.75,-324 143.75,-288 204.25,-288 204.25,-324"/>
<text text-anchor="middle" x="174" y="-303.5" font-family="Helvetica,sans-Serif" font-size="10.00">simulation</text>
</a>
</g>
</g>
<!-- dir_5b6015b386f827cc0d1582f414a67114&#45;&gt;dir_a336bf94aab96007822cb34c9e2cb8a5 -->
<g id="edge24" class="edge"><title>dir_5b6015b386f827cc0d1582f414a67114&#45;&gt;dir_a336bf94aab96007822cb34c9e2cb8a5</title>
<path fill="none" stroke="black" d="M170.482,-431.871C171.164,-407.67 172.417,-363.211 173.228,-334.393"/>
<polygon fill="black" stroke="black" points="176.733,-334.284 173.516,-324.189 169.736,-334.087 176.733,-334.284"/>
<g id="a_edge24&#45;headlabel"><a xlink:href="dir_000228_000152.html" target="_top" xlink:title="2">
<text text-anchor="middle" x="179.47" y="-335.457" font-family="Helvetica,sans-Serif" font-size="10.00">2</text>
</a>
</g>
</g>
<!-- dir_5b6015b386f827cc0d1582f414a67114&#45;&gt;dir_4ab6b4cc6a7edbff49100e9123df213f -->
<g id="edge23" class="edge"><title>dir_5b6015b386f827cc0d1582f414a67114&#45;&gt;dir_4ab6b4cc6a7edbff49100e9123df213f</title>
<path fill="none" stroke="black" d="M197.186,-435.836C228.207,-420.753 274.841,-397.861 276,-396 316.324,-331.258 290.309,-235.73 273.719,-189.708"/>
<polygon fill="black" stroke="black" points="276.927,-188.294 270.149,-180.151 270.369,-190.743 276.927,-188.294"/>
<g id="a_edge23&#45;headlabel"><a xlink:href="dir_000228_000016.html" target="_top" xlink:title="4">
<text text-anchor="middle" x="280.844" y="-188.168" font-family="Helvetica,sans-Serif" font-size="10.00">4</text>
</a>
</g>
</g>
<!-- dir_5b6015b386f827cc0d1582f414a67114&#45;&gt;dir_85bf31a2e8d306e7598ffcb73f8df6bf -->
<g id="edge25" class="edge"><title>dir_5b6015b386f827cc0d1582f414a67114&#45;&gt;dir_85bf31a2e8d306e7598ffcb73f8df6bf</title>
<path fill="none" stroke="black" d="M158.907,-431.979C143.654,-408.26 115.741,-363.704 95,-324 84.2124,-303.35 73.471,-279.201 65.8396,-261.272"/>
<polygon fill="black" stroke="black" points="69.0471,-259.87 61.9394,-252.013 62.5961,-262.588 69.0471,-259.87"/>
<g id="a_edge25&#45;headlabel"><a xlink:href="dir_000228_000180.html" target="_top" xlink:title="4">
<text text-anchor="middle" x="73.0591" y="-259.58" font-family="Helvetica,sans-Serif" font-size="10.00">4</text>
</a>
</g>
</g>
<!-- dir_f01815b857f9009bea48e2cb39492245 -->
<g id="node9" class="node"><title>dir_f01815b857f9009bea48e2cb39492245</title>
<g id="a_node9"><a xlink:href="dir_f01815b857f9009bea48e2cb39492245.html" target="_top" xlink:title="Passive">
<polygon fill="none" stroke="red" points="416,-252 362,-252 362,-216 416,-216 416,-252"/>
<text text-anchor="middle" x="389" y="-231.5" font-family="Helvetica,sans-Serif" font-size="10.00">Passive</text>
</a>
</g>
</g>
<!-- dir_5b6015b386f827cc0d1582f414a67114&#45;&gt;dir_f01815b857f9009bea48e2cb39492245 -->
<g id="edge26" class="edge"><title>dir_5b6015b386f827cc0d1582f414a67114&#45;&gt;dir_f01815b857f9009bea48e2cb39492245</title>
<path fill="none" stroke="black" d="M197.381,-435.697C200.272,-434.404 203.184,-433.148 206,-432 251.292,-413.53 273.354,-428.397 310,-396 350.975,-359.775 372.914,-297.459 382.649,-261.914"/>
<polygon fill="black" stroke="black" points="386.039,-262.781 385.181,-252.221 379.267,-261.012 386.039,-262.781"/>
<g id="a_edge26&#45;headlabel"><a xlink:href="dir_000228_000260.html" target="_top" xlink:title="1">
<text text-anchor="middle" x="387.878" y="-264.477" font-family="Helvetica,sans-Serif" font-size="10.00">1</text>
</a>
</g>
</g>
<!-- dir_5b6015b386f827cc0d1582f414a67114&#45;&gt;dir_2171f7ec022c5423887b07c69b2f5b48 -->
<g id="edge27" class="edge"><title>dir_5b6015b386f827cc0d1582f414a67114&#45;&gt;dir_2171f7ec022c5423887b07c69b2f5b48</title>
<path fill="none" stroke="black" d="M142.687,-440.391C94.6315,-423.344 0,-380.45 0,-307 0,-307 0,-307 0,-233 0,-157.627 95.2902,-118.804 154.974,-101.881"/>
<polygon fill="black" stroke="black" points="156.223,-105.168 164.95,-99.1604 154.382,-98.4145 156.223,-105.168"/>
<g id="a_edge27&#45;headlabel"><a xlink:href="dir_000228_000052.html" target="_top" xlink:title="3">
<text text-anchor="middle" x="153.502" y="-106.353" font-family="Helvetica,sans-Serif" font-size="10.00">3</text>
</a>
</g>
</g>
<!-- dir_3d8e691f27a9a1a3f5b37028248bc44b&#45;&gt;dir_7e732ae97f4f941436b6909b27d4da36 -->
<g id="edge3" class="edge"><title>dir_3d8e691f27a9a1a3f5b37028248bc44b&#45;&gt;dir_7e732ae97f4f941436b6909b27d4da36</title>
<path fill="none" stroke="black" d="M229.568,-359.871C231.784,-335.67 235.854,-291.211 238.492,-262.393"/>
<polygon fill="black" stroke="black" points="242,-262.467 239.426,-252.189 235.029,-261.829 242,-262.467"/>
<g id="a_edge3&#45;headlabel"><a xlink:href="dir_000113_000092.html" target="_top" xlink:title="2">
<text text-anchor="middle" x="244.5" y="-263.805" font-family="Helvetica,sans-Serif" font-size="10.00">2</text>
</a>
</g>
</g>
<!-- dir_3d8e691f27a9a1a3f5b37028248bc44b&#45;&gt;dir_a336bf94aab96007822cb34c9e2cb8a5 -->
<g id="edge1" class="edge"><title>dir_3d8e691f27a9a1a3f5b37028248bc44b&#45;&gt;dir_a336bf94aab96007822cb34c9e2cb8a5</title>
<path fill="none" stroke="black" d="M214.652,-359.697C208.243,-351.389 200.442,-341.277 193.394,-332.141"/>
<polygon fill="black" stroke="black" points="196.074,-329.884 187.195,-324.104 190.532,-334.16 196.074,-329.884"/>
<g id="a_edge1&#45;headlabel"><a xlink:href="dir_000113_000152.html" target="_top" xlink:title="1">
<text text-anchor="middle" x="200.518" y="-328.496" font-family="Helvetica,sans-Serif" font-size="10.00">1</text>
</a>
</g>
</g>
<!-- dir_3d8e691f27a9a1a3f5b37028248bc44b&#45;&gt;dir_85bf31a2e8d306e7598ffcb73f8df6bf -->
<g id="edge2" class="edge"><title>dir_3d8e691f27a9a1a3f5b37028248bc44b&#45;&gt;dir_85bf31a2e8d306e7598ffcb73f8df6bf</title>
<path fill="none" stroke="black" d="M191.411,-359.975C173.241,-350.649 151.493,-338.121 134,-324 110.753,-305.235 88.563,-279.273 73.6527,-260.231"/>
<polygon fill="black" stroke="black" points="76.4046,-258.068 67.5318,-252.278 70.8573,-262.338 76.4046,-258.068"/>
<g id="a_edge2&#45;headlabel"><a xlink:href="dir_000113_000180.html" target="_top" xlink:title="2">
<text text-anchor="middle" x="80.847" y="-256.685" font-family="Helvetica,sans-Serif" font-size="10.00">2</text>
</a>
</g>
</g>
<!-- dir_3d8e691f27a9a1a3f5b37028248bc44b&#45;&gt;dir_2171f7ec022c5423887b07c69b2f5b48 -->
<g id="edge4" class="edge"><title>dir_3d8e691f27a9a1a3f5b37028248bc44b&#45;&gt;dir_2171f7ec022c5423887b07c69b2f5b48</title>
<path fill="none" stroke="black" d="M242.194,-359.781C273.521,-319.558 342.47,-217.288 299,-144 287.945,-125.362 267.769,-112.854 248.671,-104.695"/>
<polygon fill="black" stroke="black" points="249.718,-101.346 239.132,-100.923 247.144,-107.855 249.718,-101.346"/>
<g id="a_edge4&#45;headlabel"><a xlink:href="dir_000113_000052.html" target="_top" xlink:title="2">
<text text-anchor="middle" x="254.105" y="-97.5271" font-family="Helvetica,sans-Serif" font-size="10.00">2</text>
</a>
</g>
</g>
<!-- dir_a336bf94aab96007822cb34c9e2cb8a5&#45;&gt;dir_7e732ae97f4f941436b6909b27d4da36 -->
<g id="edge9" class="edge"><title>dir_a336bf94aab96007822cb34c9e2cb8a5&#45;&gt;dir_7e732ae97f4f941436b6909b27d4da36</title>
<path fill="none" stroke="black" d="M190.562,-287.697C198.675,-279.22 208.588,-268.864 217.471,-259.583"/>
<polygon fill="black" stroke="black" points="220.243,-261.749 224.629,-252.104 215.186,-256.908 220.243,-261.749"/>
<g id="a_edge9&#45;headlabel"><a xlink:href="dir_000152_000092.html" target="_top" xlink:title="1">
<text text-anchor="middle" x="219.808" y="-263.809" font-family="Helvetica,sans-Serif" font-size="10.00">1</text>
</a>
</g>
</g>
<!-- dir_a336bf94aab96007822cb34c9e2cb8a5&#45;&gt;dir_4ab6b4cc6a7edbff49100e9123df213f -->
<g id="edge6" class="edge"><title>dir_a336bf94aab96007822cb34c9e2cb8a5&#45;&gt;dir_4ab6b4cc6a7edbff49100e9123df213f</title>
<path fill="none" stroke="black" d="M175.384,-287.717C177.941,-265.438 185.117,-226.428 205,-200 210.748,-192.36 218.572,-185.88 226.612,-180.582"/>
<polygon fill="black" stroke="black" points="228.594,-183.474 235.333,-175.298 224.967,-177.487 228.594,-183.474"/>
<g id="a_edge6&#45;headlabel"><a xlink:href="dir_000152_000016.html" target="_top" xlink:title="2">
<text text-anchor="middle" x="226.991" y="-185.265" font-family="Helvetica,sans-Serif" font-size="10.00">2</text>
</a>
</g>
</g>
<!-- dir_a336bf94aab96007822cb34c9e2cb8a5&#45;&gt;dir_37c90836491b695b472bf98d1be8336b -->
<g id="edge7" class="edge"><title>dir_a336bf94aab96007822cb34c9e2cb8a5&#45;&gt;dir_37c90836491b695b472bf98d1be8336b</title>
<path fill="none" stroke="black" d="M167.914,-287.936C154.838,-248.464 127.47,-148.396 156,-72 159.876,-61.6206 166.803,-51.9274 174.124,-43.7427"/>
<polygon fill="black" stroke="black" points="176.784,-46.0256 181.177,-36.3845 171.731,-41.1816 176.784,-46.0256"/>
<g id="a_edge7&#45;headlabel"><a xlink:href="dir_000152_000139.html" target="_top" xlink:title="1">
<text text-anchor="middle" x="176.346" y="-48.0853" font-family="Helvetica,sans-Serif" font-size="10.00">1</text>
</a>
</g>
</g>
<!-- dir_a336bf94aab96007822cb34c9e2cb8a5&#45;&gt;dir_85bf31a2e8d306e7598ffcb73f8df6bf -->
<g id="edge8" class="edge"><title>dir_a336bf94aab96007822cb34c9e2cb8a5&#45;&gt;dir_85bf31a2e8d306e7598ffcb73f8df6bf</title>
<path fill="none" stroke="black" d="M144.889,-287.876C128.6,-278.294 108.157,-266.269 90.8837,-256.108"/>
<polygon fill="black" stroke="black" points="92.5726,-253.041 82.1786,-250.987 89.0234,-259.074 92.5726,-253.041"/>
<g id="a_edge8&#45;headlabel"><a xlink:href="dir_000152_000180.html" target="_top" xlink:title="5">
<text text-anchor="middle" x="97.1104" y="-249.916" font-family="Helvetica,sans-Serif" font-size="10.00">5</text>
</a>
</g>
</g>
<!-- dir_a336bf94aab96007822cb34c9e2cb8a5&#45;&gt;dir_2171f7ec022c5423887b07c69b2f5b48 -->
<g id="edge10" class="edge"><title>dir_a336bf94aab96007822cb34c9e2cb8a5&#45;&gt;dir_2171f7ec022c5423887b07c69b2f5b48</title>
<path fill="none" stroke="black" d="M173.975,-287.831C174.139,-266.978 175.047,-230.772 179,-200 182.622,-171.81 189.664,-140.067 195.007,-118.139"/>
<polygon fill="black" stroke="black" points="198.456,-118.77 197.471,-108.221 191.663,-117.083 198.456,-118.77"/>
<g id="a_edge10&#45;headlabel"><a xlink:href="dir_000152_000052.html" target="_top" xlink:title="2">
<text text-anchor="middle" x="200.345" y="-120.443" font-family="Helvetica,sans-Serif" font-size="10.00">2</text>
</a>
</g>
</g>
<!-- dir_4ab6b4cc6a7edbff49100e9123df213f&#45;&gt;dir_2171f7ec022c5423887b07c69b2f5b48 -->
<g id="edge5" class="edge"><title>dir_4ab6b4cc6a7edbff49100e9123df213f&#45;&gt;dir_2171f7ec022c5423887b07c69b2f5b48</title>
<path fill="none" stroke="black" d="M242.006,-143.697C233.91,-135.389 224.901,-125.277 217.402,-116.141"/>
<polygon fill="black" stroke="black" points="219.974,-113.752 211.01,-108.104 214.496,-118.109 219.974,-113.752"/>
<g id="a_edge5&#45;headlabel"><a xlink:href="dir_000016_000052.html" target="_top" xlink:title="1">
<text text-anchor="middle" x="224.434" y="-112.298" font-family="Helvetica,sans-Serif" font-size="10.00">1</text>
</a>
</g>
</g>
<!-- dir_37c90836491b695b472bf98d1be8336b&#45;&gt;dir_4ab6b4cc6a7edbff49100e9123df213f -->
<g id="edge11" class="edge"><title>dir_37c90836491b695b472bf98d1be8336b&#45;&gt;dir_4ab6b4cc6a7edbff49100e9123df213f</title>
<path fill="none" stroke="black" d="M221.402,-36.3125C230.912,-45.8902 241.657,-58.5573 248,-72 257.124,-91.3366 260.783,-115.345 262.211,-133.552"/>
<polygon fill="black" stroke="black" points="258.732,-134.012 262.83,-143.783 265.72,-133.59 258.732,-134.012"/>
<g id="a_edge11&#45;headlabel"><a xlink:href="dir_000139_000016.html" target="_top" xlink:title="5">
<text text-anchor="middle" x="255.682" y="-128.096" font-family="Helvetica,sans-Serif" font-size="10.00">5</text>
</a>
</g>
</g>
<!-- dir_37c90836491b695b472bf98d1be8336b&#45;&gt;dir_2171f7ec022c5423887b07c69b2f5b48 -->
<g id="edge12" class="edge"><title>dir_37c90836491b695b472bf98d1be8336b&#45;&gt;dir_2171f7ec022c5423887b07c69b2f5b48</title>
<path fill="none" stroke="black" d="M207.895,-36.1043C208.701,-43.7913 208.937,-53.0537 208.604,-61.6651"/>
<polygon fill="black" stroke="black" points="205.109,-61.4805 207.916,-71.6966 212.092,-61.9597 205.109,-61.4805"/>
<g id="a_edge12&#45;headlabel"><a xlink:href="dir_000139_000052.html" target="_top" xlink:title="5">
<text text-anchor="middle" x="202.522" y="-55.2" font-family="Helvetica,sans-Serif" font-size="10.00">5</text>
</a>
</g>
</g>
<!-- dir_85bf31a2e8d306e7598ffcb73f8df6bf&#45;&gt;dir_4ab6b4cc6a7edbff49100e9123df213f -->
<g id="edge13" class="edge"><title>dir_85bf31a2e8d306e7598ffcb73f8df6bf&#45;&gt;dir_4ab6b4cc6a7edbff49100e9123df213f</title>
<path fill="none" stroke="black" d="M82.078,-220.171C96.4284,-213.647 114.464,-205.877 131,-200 162.419,-188.834 198.983,-178.808 225.651,-172.018"/>
<polygon fill="black" stroke="black" points="226.511,-175.411 235.356,-169.579 224.804,-168.622 226.511,-175.411"/>
<g id="a_edge13&#45;headlabel"><a xlink:href="dir_000180_000016.html" target="_top" xlink:title="2">
<text text-anchor="middle" x="223.717" y="-176.541" font-family="Helvetica,sans-Serif" font-size="10.00">2</text>
</a>
</g>
</g>
<!-- dir_85bf31a2e8d306e7598ffcb73f8df6bf&#45;&gt;dir_37c90836491b695b472bf98d1be8336b -->
<g id="edge14" class="edge"><title>dir_85bf31a2e8d306e7598ffcb73f8df6bf&#45;&gt;dir_37c90836491b695b472bf98d1be8336b</title>
<path fill="none" stroke="black" d="M52.5449,-215.906C48.9529,-184.062 45.9059,-114.999 79,-72 99.7146,-45.0858 136.832,-31.6304 164.892,-25.0373"/>
<polygon fill="black" stroke="black" points="165.735,-28.436 174.773,-22.9065 164.26,-21.5933 165.735,-28.436"/>
<g id="a_edge14&#45;headlabel"><a xlink:href="dir_000180_000139.html" target="_top" xlink:title="2">
<text text-anchor="middle" x="162.82" y="-29.4691" font-family="Helvetica,sans-Serif" font-size="10.00">2</text>
</a>
</g>
</g>
<!-- dir_85bf31a2e8d306e7598ffcb73f8df6bf&#45;&gt;dir_2171f7ec022c5423887b07c69b2f5b48 -->
<g id="edge15" class="edge"><title>dir_85bf31a2e8d306e7598ffcb73f8df6bf&#45;&gt;dir_2171f7ec022c5423887b07c69b2f5b48</title>
<path fill="none" stroke="black" d="M72.7316,-215.871C98.668,-190.817 147.08,-144.052 176.734,-115.406"/>
<polygon fill="black" stroke="black" points="179.445,-117.654 184.205,-108.189 174.581,-112.62 179.445,-117.654"/>
<g id="a_edge15&#45;headlabel"><a xlink:href="dir_000180_000052.html" target="_top" xlink:title="17">
<text text-anchor="middle" x="178.832" y="-119.694" font-family="Helvetica,sans-Serif" font-size="10.00">17</text>
</a>
</g>
</g>
<!-- dir_f01815b857f9009bea48e2cb39492245&#45;&gt;dir_4ab6b4cc6a7edbff49100e9123df213f -->
<g id="edge20" class="edge"><title>dir_f01815b857f9009bea48e2cb39492245&#45;&gt;dir_4ab6b4cc6a7edbff49100e9123df213f</title>
<path fill="none" stroke="black" d="M361.97,-217.983C343.785,-207.88 319.587,-194.437 299.67,-183.372"/>
<polygon fill="black" stroke="black" points="301.299,-180.273 290.857,-178.476 297.899,-186.392 301.299,-180.273"/>
<g id="a_edge20&#45;headlabel"><a xlink:href="dir_000260_000016.html" target="_top" xlink:title="1">
<text text-anchor="middle" x="305.82" y="-177.037" font-family="Helvetica,sans-Serif" font-size="10.00">1</text>
</a>
</g>
</g>
<!-- dir_f01815b857f9009bea48e2cb39492245&#45;&gt;dir_37c90836491b695b472bf98d1be8336b -->
<g id="edge21" class="edge"><title>dir_f01815b857f9009bea48e2cb39492245&#45;&gt;dir_37c90836491b695b472bf98d1be8336b</title>
<path fill="none" stroke="black" d="M382.224,-215.838C369.039,-184.183 337.293,-115.84 293,-72 277.287,-56.4479 256.115,-43.7628 238.146,-34.7061"/>
<polygon fill="black" stroke="black" points="239.612,-31.527 229.088,-30.3048 236.553,-37.8232 239.612,-31.527"/>
<g id="a_edge21&#45;headlabel"><a xlink:href="dir_000260_000139.html" target="_top" xlink:title="16">
<text text-anchor="middle" x="244.086" y="-28.0441" font-family="Helvetica,sans-Serif" font-size="10.00">16</text>
</a>
</g>
</g>
<!-- dir_2171f7ec022c5423887b07c69b2f5b48&#45;&gt;dir_4ab6b4cc6a7edbff49100e9123df213f -->
<g id="edge28" class="edge"><title>dir_2171f7ec022c5423887b07c69b2f5b48&#45;&gt;dir_4ab6b4cc6a7edbff49100e9123df213f</title>
<path fill="none" stroke="black" d="M222.8,-108.104C230.882,-116.383 239.895,-126.488 247.418,-135.64"/>
<polygon fill="black" stroke="black" points="244.868,-138.057 253.837,-143.697 250.343,-133.695 244.868,-138.057"/>
<g id="a_edge28&#45;headlabel"><a xlink:href="dir_000052_000016.html" target="_top" xlink:title="15">
<text text-anchor="middle" x="240.408" y="-134.515" font-family="Helvetica,sans-Serif" font-size="10.00">15</text>
</a>
</g>
</g>
<!-- dir_2171f7ec022c5423887b07c69b2f5b48&#45;&gt;dir_37c90836491b695b472bf98d1be8336b -->
<g id="edge29" class="edge"><title>dir_2171f7ec022c5423887b07c69b2f5b48&#45;&gt;dir_37c90836491b695b472bf98d1be8336b</title>
<path fill="none" stroke="black" d="M196.084,-71.6966C195.289,-63.9827 195.062,-54.7125 195.405,-46.1124"/>
<polygon fill="black" stroke="black" points="198.898,-46.3243 196.105,-36.1043 191.915,-45.8356 198.898,-46.3243"/>
<g id="a_edge29&#45;headlabel"><a xlink:href="dir_000052_000139.html" target="_top" xlink:title="1">
<text text-anchor="middle" x="201.48" y="-47.6083" font-family="Helvetica,sans-Serif" font-size="10.00">1</text>
</a>
</g>
</g>
</g>
</svg>
