<?xml version="1.0" encoding="UTF-8" standalone="no"?>
<!DOCTYPE svg PUBLIC "-//W3C//DTD SVG 1.1//EN"
 "http://www.w3.org/Graphics/SVG/1.1/DTD/svg11.dtd">
<!-- Generated by graphviz version 2.36.0 (20140111.2315)
 -->
<!-- Title: /home/travis/build/AliceO2Group/AliceO2/Detectors/ITSMFT/MFT/reconstruction Pages: 1 -->
<svg width="293pt" height="375pt"
 viewBox="0.00 0.00 293.42 375.00" xmlns="http://www.w3.org/2000/svg" xmlns:xlink="http://www.w3.org/1999/xlink">
<g id="graph0" class="graph" transform="scale(1 1) rotate(0) translate(4 371)">
<title>/home/travis/build/AliceO2Group/AliceO2/Detectors/ITSMFT/MFT/reconstruction</title>
<g id="clust1" class="cluster"><title>clusterdir_f39d1cd569ca2d16022b762a0e4a53c8</title>
<g id="a_clust1"><a xlink:href="dir_f39d1cd569ca2d16022b762a0e4a53c8.html" target="_top" xlink:title="MFT">
<polygon fill="#ddddee" stroke="black" points="95.4201,-200 95.4201,-359 277.42,-359 277.42,-200 95.4201,-200"/>
<text text-anchor="middle" x="186.42" y="-347" font-family="Helvetica,sans-Serif" font-size="10.00">MFT</text>
</a>
</g>
</g>
<g id="clust2" class="cluster"><title>clusterdir_3d8e691f27a9a1a3f5b37028248bc44b</title>
<g id="a_clust2"><a xlink:href="dir_3d8e691f27a9a1a3f5b37028248bc44b.html" target="_top">
<polygon fill="#eeeeff" stroke="black" points="103.42,-208 103.42,-332 269.42,-332 269.42,-208 103.42,-208"/>
</a>
</g>
</g>
<!-- dir_3d8e691f27a9a1a3f5b37028248bc44b -->
<g id="node1" class="node"><title>dir_3d8e691f27a9a1a3f5b37028248bc44b</title>
<text text-anchor="middle" x="222.42" y="-303.5" font-family="Helvetica,sans-Serif" font-size="10.00">reconstruction</text>
</g>
<!-- dir_a5377c1b7cc3cb8f35997e73e566fda2 -->
<g id="node2" class="node"><title>dir_a5377c1b7cc3cb8f35997e73e566fda2</title>
<g id="a_node2"><a xlink:href="dir_a5377c1b7cc3cb8f35997e73e566fda2.html" target="_top" xlink:title="include">
<polygon fill="white" stroke="red" points="165.42,-252 111.42,-252 111.42,-216 165.42,-216 165.42,-252"/>
<text text-anchor="middle" x="138.42" y="-231.5" font-family="Helvetica,sans-Serif" font-size="10.00">include</text>
</a>
</g>
</g>
<!-- dir_85bf31a2e8d306e7598ffcb73f8df6bf -->
<g id="node5" class="node"><title>dir_85bf31a2e8d306e7598ffcb73f8df6bf</title>
<g id="a_node5"><a xlink:href="dir_85bf31a2e8d306e7598ffcb73f8df6bf.html" target="_top" xlink:title="common">
<polygon fill="none" stroke="red" points="137.42,-108 83.4201,-108 83.4201,-72 137.42,-72 137.42,-108"/>
<text text-anchor="middle" x="110.42" y="-87.5" font-family="Helvetica,sans-Serif" font-size="10.00">common</text>
</a>
</g>
</g>
<!-- dir_a5377c1b7cc3cb8f35997e73e566fda2&#45;&gt;dir_85bf31a2e8d306e7598ffcb73f8df6bf -->
<g id="edge1" class="edge"><title>dir_a5377c1b7cc3cb8f35997e73e566fda2&#45;&gt;dir_85bf31a2e8d306e7598ffcb73f8df6bf</title>
<path fill="none" stroke="black" d="M135.043,-215.871C130.25,-191.564 121.427,-146.819 115.747,-118.013"/>
<polygon fill="black" stroke="black" points="119.178,-117.323 113.809,-108.189 112.31,-118.677 119.178,-117.323"/>
<g id="a_edge1&#45;headlabel"><a xlink:href="dir_000114_000180.html" target="_top" xlink:title="2">
<text text-anchor="middle" x="122.659" y="-117.801" font-family="Helvetica,sans-Serif" font-size="10.00">2</text>
</a>
</g>
</g>
<!-- dir_483c4f61a36a1bf308f0df7141e48e27 -->
<g id="node3" class="node"><title>dir_483c4f61a36a1bf308f0df7141e48e27</title>
<g id="a_node3"><a xlink:href="dir_483c4f61a36a1bf308f0df7141e48e27.html" target="_top" xlink:title="src">
<polygon fill="white" stroke="black" points="165.42,-324 111.42,-324 111.42,-288 165.42,-288 165.42,-324"/>
<text text-anchor="middle" x="138.42" y="-303.5" font-family="Helvetica,sans-Serif" font-size="10.00">src</text>
</a>
</g>
</g>
<!-- dir_483c4f61a36a1bf308f0df7141e48e27&#45;&gt;dir_a5377c1b7cc3cb8f35997e73e566fda2 -->
<g id="edge5" class="edge"><title>dir_483c4f61a36a1bf308f0df7141e48e27&#45;&gt;dir_a5377c1b7cc3cb8f35997e73e566fda2</title>
<path fill="none" stroke="black" d="M138.42,-287.697C138.42,-279.983 138.42,-270.712 138.42,-262.112"/>
<polygon fill="black" stroke="black" points="141.92,-262.104 138.42,-252.104 134.92,-262.104 141.92,-262.104"/>
<g id="a_edge5&#45;headlabel"><a xlink:href="dir_000125_000114.html" target="_top" xlink:title="2">
<text text-anchor="middle" x="144.759" y="-263.199" font-family="Helvetica,sans-Serif" font-size="10.00">2</text>
</a>
</g>
</g>
<!-- dir_a336bf94aab96007822cb34c9e2cb8a5 -->
<g id="node4" class="node"><title>dir_a336bf94aab96007822cb34c9e2cb8a5</title>
<g id="a_node4"><a xlink:href="dir_a336bf94aab96007822cb34c9e2cb8a5.html" target="_top" xlink:title="simulation">
<polygon fill="none" stroke="red" points="86.6701,-252 26.1701,-252 26.1701,-216 86.6701,-216 86.6701,-252"/>
<text text-anchor="middle" x="56.4201" y="-231.5" font-family="Helvetica,sans-Serif" font-size="10.00">simulation</text>
</a>
</g>
</g>
<!-- dir_483c4f61a36a1bf308f0df7141e48e27&#45;&gt;dir_a336bf94aab96007822cb34c9e2cb8a5 -->
<g id="edge6" class="edge"><title>dir_483c4f61a36a1bf308f0df7141e48e27&#45;&gt;dir_a336bf94aab96007822cb34c9e2cb8a5</title>
<path fill="none" stroke="black" d="M118.15,-287.697C107.922,-278.965 95.3589,-268.24 84.2418,-258.75"/>
<polygon fill="black" stroke="black" points="86.3347,-255.935 76.4566,-252.104 81.7898,-261.259 86.3347,-255.935"/>
<g id="a_edge6&#45;headlabel"><a xlink:href="dir_000125_000152.html" target="_top" xlink:title="1">
<text text-anchor="middle" x="90.912" y="-253.609" font-family="Helvetica,sans-Serif" font-size="10.00">1</text>
</a>
</g>
</g>
<!-- dir_7e732ae97f4f941436b6909b27d4da36 -->
<g id="node6" class="node"><title>dir_7e732ae97f4f941436b6909b27d4da36</title>
<g id="a_node6"><a xlink:href="dir_7e732ae97f4f941436b6909b27d4da36.html" target="_top" xlink:title="base">
<polygon fill="none" stroke="red" points="203.42,-180 149.42,-180 149.42,-144 203.42,-144 203.42,-180"/>
<text text-anchor="middle" x="176.42" y="-159.5" font-family="Helvetica,sans-Serif" font-size="10.00">base</text>
</a>
</g>
</g>
<!-- dir_483c4f61a36a1bf308f0df7141e48e27&#45;&gt;dir_7e732ae97f4f941436b6909b27d4da36 -->
<g id="edge7" class="edge"><title>dir_483c4f61a36a1bf308f0df7141e48e27&#45;&gt;dir_7e732ae97f4f941436b6909b27d4da36</title>
<path fill="none" stroke="black" d="M153.912,-287.737C161.641,-277.983 170.218,-265.137 174.42,-252 180.806,-232.036 180.987,-208.246 179.745,-190.287"/>
<polygon fill="black" stroke="black" points="183.221,-189.858 178.859,-180.203 176.248,-190.471 183.221,-189.858"/>
<g id="a_edge7&#45;headlabel"><a xlink:href="dir_000125_000092.html" target="_top" xlink:title="2">
<text text-anchor="middle" x="186.364" y="-190.69" font-family="Helvetica,sans-Serif" font-size="10.00">2</text>
</a>
</g>
</g>
<!-- dir_2171f7ec022c5423887b07c69b2f5b48 -->
<g id="node7" class="node"><title>dir_2171f7ec022c5423887b07c69b2f5b48</title>
<g id="a_node7"><a xlink:href="dir_2171f7ec022c5423887b07c69b2f5b48.html" target="_top" xlink:title="DataFormats">
<polygon fill="none" stroke="red" points="114.42,-36 40.4201,-36 40.4201,-0 114.42,-0 114.42,-36"/>
<text text-anchor="middle" x="77.4201" y="-15.5" font-family="Helvetica,sans-Serif" font-size="10.00">DataFormats</text>
</a>
</g>
</g>
<!-- dir_483c4f61a36a1bf308f0df7141e48e27&#45;&gt;dir_2171f7ec022c5423887b07c69b2f5b48 -->
<g id="edge8" class="edge"><title>dir_483c4f61a36a1bf308f0df7141e48e27&#45;&gt;dir_2171f7ec022c5423887b07c69b2f5b48</title>
<path fill="none" stroke="black" d="M111.318,-301.794C82.2286,-296.747 37.3803,-283.958 16.4201,-252 -27.0082,-185.784 27.196,-90.031 58.3512,-44.6755"/>
<polygon fill="black" stroke="black" points="61.3513,-46.4938 64.2392,-36.3001 55.6247,-42.468 61.3513,-46.4938"/>
<g id="a_edge8&#45;headlabel"><a xlink:href="dir_000125_000052.html" target="_top" xlink:title="2">
<text text-anchor="middle" x="61.6068" y="-48.5673" font-family="Helvetica,sans-Serif" font-size="10.00">2</text>
</a>
</g>
</g>
<!-- dir_a336bf94aab96007822cb34c9e2cb8a5&#45;&gt;dir_85bf31a2e8d306e7598ffcb73f8df6bf -->
<g id="edge2" class="edge"><title>dir_a336bf94aab96007822cb34c9e2cb8a5&#45;&gt;dir_85bf31a2e8d306e7598ffcb73f8df6bf</title>
<path fill="none" stroke="black" d="M62.9337,-215.871C72.2181,-191.457 89.3426,-146.426 100.291,-117.635"/>
<polygon fill="black" stroke="black" points="103.6,-118.78 103.883,-108.189 97.0573,-116.292 103.6,-118.78"/>
<g id="a_edge2&#45;headlabel"><a xlink:href="dir_000152_000180.html" target="_top" xlink:title="5">
<text text-anchor="middle" x="104.976" y="-120.649" font-family="Helvetica,sans-Serif" font-size="10.00">5</text>
</a>
</g>
</g>
<!-- dir_a336bf94aab96007822cb34c9e2cb8a5&#45;&gt;dir_7e732ae97f4f941436b6909b27d4da36 -->
<g id="edge3" class="edge"><title>dir_a336bf94aab96007822cb34c9e2cb8a5&#45;&gt;dir_7e732ae97f4f941436b6909b27d4da36</title>
<path fill="none" stroke="black" d="M76.7962,-215.986C83.7536,-210.555 91.7244,-204.732 99.4201,-200 112.23,-192.124 126.971,-184.683 140.105,-178.567"/>
<polygon fill="black" stroke="black" points="141.685,-181.694 149.333,-174.362 138.782,-175.324 141.685,-181.694"/>
<g id="a_edge3&#45;headlabel"><a xlink:href="dir_000152_000092.html" target="_top" xlink:title="1">
<text text-anchor="middle" x="139.592" y="-183.268" font-family="Helvetica,sans-Serif" font-size="10.00">1</text>
</a>
</g>
</g>
<!-- dir_a336bf94aab96007822cb34c9e2cb8a5&#45;&gt;dir_2171f7ec022c5423887b07c69b2f5b48 -->
<g id="edge4" class="edge"><title>dir_a336bf94aab96007822cb34c9e2cb8a5&#45;&gt;dir_2171f7ec022c5423887b07c69b2f5b48</title>
<path fill="none" stroke="black" d="M58.1031,-215.849C61.7356,-178.832 70.3369,-91.1809 74.7326,-46.3863"/>
<polygon fill="black" stroke="black" points="78.2356,-46.5265 75.729,-36.2325 71.2691,-45.8428 78.2356,-46.5265"/>
<g id="a_edge4&#45;headlabel"><a xlink:href="dir_000152_000052.html" target="_top" xlink:title="2">
<text text-anchor="middle" x="80.7103" y="-47.8812" font-family="Helvetica,sans-Serif" font-size="10.00">2</text>
</a>
</g>
</g>
<!-- dir_85bf31a2e8d306e7598ffcb73f8df6bf&#45;&gt;dir_2171f7ec022c5423887b07c69b2f5b48 -->
<g id="edge9" class="edge"><title>dir_85bf31a2e8d306e7598ffcb73f8df6bf&#45;&gt;dir_2171f7ec022c5423887b07c69b2f5b48</title>
<path fill="none" stroke="black" d="M102.263,-71.6966C98.5063,-63.7284 93.967,-54.0995 89.8017,-45.2641"/>
<polygon fill="black" stroke="black" points="92.9136,-43.6571 85.4835,-36.1043 86.5819,-46.6421 92.9136,-43.6571"/>
<g id="a_edge9&#45;headlabel"><a xlink:href="dir_000180_000052.html" target="_top" xlink:title="17">
<text text-anchor="middle" x="97.0146" y="-43.1978" font-family="Helvetica,sans-Serif" font-size="10.00">17</text>
</a>
</g>
</g>
<!-- dir_7e732ae97f4f941436b6909b27d4da36&#45;&gt;dir_85bf31a2e8d306e7598ffcb73f8df6bf -->
<g id="edge10" class="edge"><title>dir_7e732ae97f4f941436b6909b27d4da36&#45;&gt;dir_85bf31a2e8d306e7598ffcb73f8df6bf</title>
<path fill="none" stroke="black" d="M160.105,-143.697C152.113,-135.22 142.349,-124.864 133.598,-115.583"/>
<polygon fill="black" stroke="black" points="135.954,-112.979 126.547,-108.104 130.861,-117.781 135.954,-112.979"/>
<g id="a_edge10&#45;headlabel"><a xlink:href="dir_000092_000180.html" target="_top" xlink:title="7">
<text text-anchor="middle" x="140.485" y="-111.147" font-family="Helvetica,sans-Serif" font-size="10.00">7</text>
</a>
</g>
</g>
<!-- dir_7e732ae97f4f941436b6909b27d4da36&#45;&gt;dir_2171f7ec022c5423887b07c69b2f5b48 -->
<g id="edge11" class="edge"><title>dir_7e732ae97f4f941436b6909b27d4da36&#45;&gt;dir_2171f7ec022c5423887b07c69b2f5b48</title>
<path fill="none" stroke="black" d="M173.739,-143.9C170.099,-124.906 162.157,-94.0222 146.42,-72 138.232,-60.5417 126.856,-50.3997 115.7,-42.135"/>
<polygon fill="black" stroke="black" points="117.458,-39.0921 107.268,-36.1902 113.424,-44.8131 117.458,-39.0921"/>
<g id="a_edge11&#45;headlabel"><a xlink:href="dir_000092_000052.html" target="_top" xlink:title="1">
<text text-anchor="middle" x="122.032" y="-36.343" font-family="Helvetica,sans-Serif" font-size="10.00">1</text>
</a>
</g>
</g>
</g>
</svg>
