<?xml version="1.0" encoding="UTF-8" standalone="no"?>
<!DOCTYPE svg PUBLIC "-//W3C//DTD SVG 1.1//EN"
 "http://www.w3.org/Graphics/SVG/1.1/DTD/svg11.dtd">
<!-- Generated by graphviz version 2.36.0 (20140111.2315)
 -->
<!-- Title: /home/travis/build/AliceO2Group/AliceO2/Detectors/TPC Pages: 1 -->
<!--zoomable 591 -->
<svg id="main" version="1.1" xmlns="http://www.w3.org/2000/svg" xmlns:xlink="http://www.w3.org/1999/xlink" xml:space="preserve" onload="init(evt)">
<style type="text/css"><![CDATA[
.edge:hover path { stroke: red; }
.edge:hover polygon { stroke: red; fill: red; }
]]></style>
<script type="text/javascript"><![CDATA[
var edges = document.getElementsByTagName('g');
if (edges && edges.length) {
  for (var i=0;i<edges.length;i++) {
    if (edges[i].id.substr(0,4)=='edge') {
      edges[i].setAttribute('class','edge');
    }
  }
}
]]></script>
        <defs>
                <circle id="rim" cx="0" cy="0" r="7"/>
                <circle id="rim2" cx="0" cy="0" r="3.5"/>
                <g id="zoomPlus">
                        <use xlink:href="#rim" fill="#404040">
                                <set attributeName="fill" to="#808080" begin="zoomplus.mouseover" end="zoomplus.mouseout"/>
                        </use>
                        <path d="M-4,0h8M0,-4v8" fill="none" stroke="white" stroke-width="1.5" pointer-events="none"/>
                </g>
                <g id="zoomMin">
                        <use xlink:href="#rim" fill="#404040">
                                <set attributeName="fill" to="#808080" begin="zoomminus.mouseover" end="zoomminus.mouseout"/>
                        </use>
                        <path d="M-4,0h8" fill="none" stroke="white" stroke-width="1.5" pointer-events="none"/>
                </g>
                <g id="dirArrow">
                        <path fill="none" stroke="white" stroke-width="1.5" d="M0,-3.0v7 M-2.5,-0.5L0,-3.0L2.5,-0.5"/>
                </g>
               <g id="resetDef">
                       <use xlink:href="#rim2" fill="#404040">
                               <set attributeName="fill" to="#808080" begin="reset.mouseover" end="reset.mouseout"/>
                       </use>
               </g>
        </defs>

<script type="text/javascript">
var viewWidth = 296;
var viewHeight = 591;
var sectionId = 'dynsection-0';
</script>
<script xlink:href="svgpan.js"/>
<svg id="graph" class="graph">
<g id="viewport">
<title>/home/travis/build/AliceO2Group/AliceO2/Detectors/TPC</title>
<g id="clust1" class="cluster"><title>clusterdir_051dca18e802f8e9474f2e30d29c04e0</title>
<g id="a_clust1"><a xlink:href="dir_051dca18e802f8e9474f2e30d29c04e0.html" target="_top" xlink:title="Detectors">
<polygon fill="#ddddee" stroke="black" points="8,-200 8,-575 166,-575 166,-200 8,-200"/>
<text text-anchor="middle" x="87" y="-563" font-family="Helvetica,sans-Serif" font-size="10.00">Detectors</text>
</a>
</g>
</g>
<g id="clust2" class="cluster"><title>clusterdir_a597e8e061b11201a1dff411feb10d0b</title>
<g id="a_clust2"><a xlink:href="dir_a597e8e061b11201a1dff411feb10d0b.html" target="_top">
<polygon fill="#eeeeff" stroke="black" points="16,-208 16,-548 158,-548 158,-208 16,-208"/>
</a>
</g>
</g>
<!-- dir_a597e8e061b11201a1dff411feb10d0b -->
<g id="node1" class="node"><title>dir_a597e8e061b11201a1dff411feb10d0b</title>
<text text-anchor="middle" x="123" y="-519.5" font-family="Helvetica,sans-Serif" font-size="10.00">TPC</text>
</g>
<!-- dir_677b030cc750909e4cd27413873678d8 -->
<g id="node2" class="node"><title>dir_677b030cc750909e4cd27413873678d8</title>
<g id="a_node2"><a xlink:href="dir_677b030cc750909e4cd27413873678d8.html" target="_top" xlink:title="base">
<polygon fill="white" stroke="red" points="108,-252 54,-252 54,-216 108,-216 108,-252"/>
<text text-anchor="middle" x="81" y="-231.5" font-family="Helvetica,sans-Serif" font-size="10.00">base</text>
</a>
</g>
</g>
<!-- dir_2171f7ec022c5423887b07c69b2f5b48 -->
<g id="node9" class="node"><title>dir_2171f7ec022c5423887b07c69b2f5b48</title>
<g id="a_node9"><a xlink:href="dir_2171f7ec022c5423887b07c69b2f5b48.html" target="_top" xlink:title="DataFormats">
<polygon fill="none" stroke="red" points="192,-180 118,-180 118,-144 192,-144 192,-180"/>
<text text-anchor="middle" x="155" y="-159.5" font-family="Helvetica,sans-Serif" font-size="10.00">DataFormats</text>
</a>
</g>
</g>
<!-- dir_677b030cc750909e4cd27413873678d8&#45;&gt;dir_2171f7ec022c5423887b07c69b2f5b48 -->
<g id="edge9" class="edge"><title>dir_677b030cc750909e4cd27413873678d8&#45;&gt;dir_2171f7ec022c5423887b07c69b2f5b48</title>
<path fill="none" stroke="black" d="M99.2921,-215.697C108.433,-207.05 119.64,-196.449 129.6,-187.027"/>
<polygon fill="black" stroke="black" points="132.059,-189.519 136.918,-180.104 127.248,-184.434 132.059,-189.519"/>
<g id="a_edge9&#45;headlabel"><a xlink:href="dir_000187_000052.html" target="_top" xlink:title="13">
<text text-anchor="middle" x="131.399" y="-191.552" font-family="Helvetica,sans-Serif" font-size="10.00">13</text>
</a>
</g>
</g>
<!-- dir_4995562033b321477cfe3c34a14a5189 -->
<g id="node3" class="node"><title>dir_4995562033b321477cfe3c34a14a5189</title>
<g id="a_node3"><a xlink:href="dir_4995562033b321477cfe3c34a14a5189.html" target="_top" xlink:title="calibration">
<polygon fill="white" stroke="red" points="140.25,-468 79.75,-468 79.75,-432 140.25,-432 140.25,-468"/>
<text text-anchor="middle" x="110" y="-447.5" font-family="Helvetica,sans-Serif" font-size="10.00">calibration</text>
</a>
</g>
</g>
<!-- dir_4995562033b321477cfe3c34a14a5189&#45;&gt;dir_677b030cc750909e4cd27413873678d8 -->
<g id="edge5" class="edge"><title>dir_4995562033b321477cfe3c34a14a5189&#45;&gt;dir_677b030cc750909e4cd27413873678d8</title>
<path fill="none" stroke="black" d="M120.625,-431.556C126.098,-421.543 132.198,-408.509 135,-396 138.498,-380.387 136.534,-375.926 135,-360 131.874,-327.551 134.271,-317.776 121,-288 116.635,-278.208 110.163,-268.536 103.69,-260.189"/>
<polygon fill="black" stroke="black" points="106.321,-257.876 97.2956,-252.328 100.891,-262.294 106.321,-257.876"/>
<g id="a_edge5&#45;headlabel"><a xlink:href="dir_000269_000187.html" target="_top" xlink:title="10">
<text text-anchor="middle" x="110.792" y="-256.373" font-family="Helvetica,sans-Serif" font-size="10.00">10</text>
</a>
</g>
</g>
<!-- dir_a5de047958dd458e809773c6ffaa8478 -->
<g id="node5" class="node"><title>dir_a5de047958dd458e809773c6ffaa8478</title>
<g id="a_node5"><a xlink:href="dir_a5de047958dd458e809773c6ffaa8478.html" target="_top" xlink:title="reconstruction">
<polygon fill="white" stroke="red" points="126,-396 48,-396 48,-360 126,-360 126,-396"/>
<text text-anchor="middle" x="87" y="-375.5" font-family="Helvetica,sans-Serif" font-size="10.00">reconstruction</text>
</a>
</g>
</g>
<!-- dir_4995562033b321477cfe3c34a14a5189&#45;&gt;dir_a5de047958dd458e809773c6ffaa8478 -->
<g id="edge7" class="edge"><title>dir_4995562033b321477cfe3c34a14a5189&#45;&gt;dir_a5de047958dd458e809773c6ffaa8478</title>
<path fill="none" stroke="black" d="M98.3989,-431.697C95.032,-423.898 91.7242,-414.509 89.2315,-405.829"/>
<polygon fill="black" stroke="black" points="92.6102,-404.914 86.725,-396.104 85.8317,-406.661 92.6102,-404.914"/>
<g id="a_edge7&#45;headlabel"><a xlink:href="dir_000269_000221.html" target="_top" xlink:title="3">
<text text-anchor="middle" x="96.2567" y="-405.186" font-family="Helvetica,sans-Serif" font-size="10.00">3</text>
</a>
</g>
</g>
<!-- dir_4ab6b4cc6a7edbff49100e9123df213f -->
<g id="node7" class="node"><title>dir_4ab6b4cc6a7edbff49100e9123df213f</title>
<g id="a_node7"><a xlink:href="dir_4ab6b4cc6a7edbff49100e9123df213f.html" target="_top" xlink:title="Common">
<polygon fill="none" stroke="red" points="182.5,-36 127.5,-36 127.5,-0 182.5,-0 182.5,-36"/>
<text text-anchor="middle" x="155" y="-15.5" font-family="Helvetica,sans-Serif" font-size="10.00">Common</text>
</a>
</g>
</g>
<!-- dir_4995562033b321477cfe3c34a14a5189&#45;&gt;dir_4ab6b4cc6a7edbff49100e9123df213f -->
<g id="edge6" class="edge"><title>dir_4995562033b321477cfe3c34a14a5189&#45;&gt;dir_4ab6b4cc6a7edbff49100e9123df213f</title>
<path fill="none" stroke="black" d="M140.378,-435.007C181.553,-413.703 250,-368.969 250,-307 250,-307 250,-307 250,-161 250,-113.012 212.056,-68.9633 184.129,-43.0419"/>
<polygon fill="black" stroke="black" points="186.33,-40.3144 176.557,-36.2232 181.646,-45.516 186.33,-40.3144"/>
<g id="a_edge6&#45;headlabel"><a xlink:href="dir_000269_000016.html" target="_top" xlink:title="3">
<text text-anchor="middle" x="190.901" y="-38.1101" font-family="Helvetica,sans-Serif" font-size="10.00">3</text>
</a>
</g>
</g>
<!-- dir_4995562033b321477cfe3c34a14a5189&#45;&gt;dir_2171f7ec022c5423887b07c69b2f5b48 -->
<g id="edge8" class="edge"><title>dir_4995562033b321477cfe3c34a14a5189&#45;&gt;dir_2171f7ec022c5423887b07c69b2f5b48</title>
<path fill="none" stroke="black" d="M122.427,-431.685C128.979,-421.713 136.558,-408.676 141,-396 169.971,-313.319 170.179,-287.227 162,-200 161.704,-196.847 161.27,-193.563 160.76,-190.31"/>
<polygon fill="black" stroke="black" points="164.161,-189.447 158.95,-180.222 157.271,-190.683 164.161,-189.447"/>
<g id="a_edge8&#45;headlabel"><a xlink:href="dir_000269_000052.html" target="_top" xlink:title="3">
<text text-anchor="middle" x="167.591" y="-189.984" font-family="Helvetica,sans-Serif" font-size="10.00">3</text>
</a>
</g>
</g>
<!-- dir_c8aedc994017b243e124cedd663b3bbb -->
<g id="node4" class="node"><title>dir_c8aedc994017b243e124cedd663b3bbb</title>
<g id="a_node4"><a xlink:href="dir_c8aedc994017b243e124cedd663b3bbb.html" target="_top" xlink:title="monitor">
<polygon fill="white" stroke="red" points="78,-540 24,-540 24,-504 78,-504 78,-540"/>
<text text-anchor="middle" x="51" y="-519.5" font-family="Helvetica,sans-Serif" font-size="10.00">monitor</text>
</a>
</g>
</g>
<!-- dir_c8aedc994017b243e124cedd663b3bbb&#45;&gt;dir_677b030cc750909e4cd27413873678d8 -->
<g id="edge18" class="edge"><title>dir_c8aedc994017b243e124cedd663b3bbb&#45;&gt;dir_677b030cc750909e4cd27413873678d8</title>
<path fill="none" stroke="black" d="M45.1536,-503.929C32.6123,-464.444 6.48817,-364.349 35,-288 38.8761,-277.621 45.8029,-267.927 53.124,-259.743"/>
<polygon fill="black" stroke="black" points="55.784,-262.026 60.1772,-252.385 50.7306,-257.182 55.784,-262.026"/>
<g id="a_edge18&#45;headlabel"><a xlink:href="dir_000274_000187.html" target="_top" xlink:title="11">
<text text-anchor="middle" x="55.3463" y="-264.085" font-family="Helvetica,sans-Serif" font-size="10.00">11</text>
</a>
</g>
</g>
<!-- dir_c8aedc994017b243e124cedd663b3bbb&#45;&gt;dir_4995562033b321477cfe3c34a14a5189 -->
<g id="edge17" class="edge"><title>dir_c8aedc994017b243e124cedd663b3bbb&#45;&gt;dir_4995562033b321477cfe3c34a14a5189</title>
<path fill="none" stroke="black" d="M65.5843,-503.697C72.6576,-495.305 81.2834,-485.07 89.0454,-475.861"/>
<polygon fill="black" stroke="black" points="91.8149,-478.006 95.5835,-468.104 86.4625,-473.495 91.8149,-478.006"/>
<g id="a_edge17&#45;headlabel"><a xlink:href="dir_000274_000269.html" target="_top" xlink:title="1">
<text text-anchor="middle" x="91.6693" y="-480.085" font-family="Helvetica,sans-Serif" font-size="10.00">1</text>
</a>
</g>
</g>
<!-- dir_c8aedc994017b243e124cedd663b3bbb&#45;&gt;dir_a5de047958dd458e809773c6ffaa8478 -->
<g id="edge19" class="edge"><title>dir_c8aedc994017b243e124cedd663b3bbb&#45;&gt;dir_a5de047958dd458e809773c6ffaa8478</title>
<path fill="none" stroke="black" d="M54.1388,-503.817C57.5527,-485.803 63.4111,-456.733 70,-432 72.299,-423.37 75.1538,-414.064 77.8634,-405.694"/>
<polygon fill="black" stroke="black" points="81.2333,-406.65 81.0493,-396.057 74.5871,-404.453 81.2333,-406.65"/>
<g id="a_edge19&#45;headlabel"><a xlink:href="dir_000274_000221.html" target="_top" xlink:title="2">
<text text-anchor="middle" x="82.8008" y="-408.455" font-family="Helvetica,sans-Serif" font-size="10.00">2</text>
</a>
</g>
</g>
<!-- dir_c8aedc994017b243e124cedd663b3bbb&#45;&gt;dir_2171f7ec022c5423887b07c69b2f5b48 -->
<g id="edge20" class="edge"><title>dir_c8aedc994017b243e124cedd663b3bbb&#45;&gt;dir_2171f7ec022c5423887b07c69b2f5b48</title>
<path fill="none" stroke="black" d="M78.1869,-507.944C140.439,-477.631 288,-403.223 288,-379 288,-379 288,-379 288,-305 288,-251.215 236.543,-209.4 197.642,-185.474"/>
<polygon fill="black" stroke="black" points="198.944,-182.176 188.562,-180.067 195.363,-188.19 198.944,-182.176"/>
<g id="a_edge20&#45;headlabel"><a xlink:href="dir_000274_000052.html" target="_top" xlink:title="1">
<text text-anchor="middle" x="203.486" y="-179.075" font-family="Helvetica,sans-Serif" font-size="10.00">1</text>
</a>
</g>
</g>
<!-- dir_a5de047958dd458e809773c6ffaa8478&#45;&gt;dir_677b030cc750909e4cd27413873678d8 -->
<g id="edge13" class="edge"><title>dir_a5de047958dd458e809773c6ffaa8478&#45;&gt;dir_677b030cc750909e4cd27413873678d8</title>
<path fill="none" stroke="black" d="M98.4669,-359.667C104.375,-349.689 110.963,-336.652 114,-324 117.735,-308.442 118.398,-303.384 114,-288 111.287,-278.51 106.328,-269.065 101.065,-260.834"/>
<polygon fill="black" stroke="black" points="103.858,-258.717 95.3265,-252.434 98.0779,-262.666 103.858,-258.717"/>
<g id="a_edge13&#45;headlabel"><a xlink:href="dir_000221_000187.html" target="_top" xlink:title="38">
<text text-anchor="middle" x="108.23" y="-257.583" font-family="Helvetica,sans-Serif" font-size="10.00">38</text>
</a>
</g>
</g>
<!-- dir_a5de047958dd458e809773c6ffaa8478&#45;&gt;dir_4995562033b321477cfe3c34a14a5189 -->
<g id="edge12" class="edge"><title>dir_a5de047958dd458e809773c6ffaa8478&#45;&gt;dir_4995562033b321477cfe3c34a14a5189</title>
<path fill="none" stroke="black" d="M98.515,-396.104C101.883,-403.876 105.198,-413.257 107.705,-421.949"/>
<polygon fill="black" stroke="black" points="104.334,-422.894 110.23,-431.697 111.11,-421.138 104.334,-422.894"/>
<g id="a_edge12&#45;headlabel"><a xlink:href="dir_000221_000269.html" target="_top" xlink:title="1">
<text text-anchor="middle" x="100.684" y="-417.627" font-family="Helvetica,sans-Serif" font-size="10.00">1</text>
</a>
</g>
</g>
<!-- dir_7f309bec8670bb3fb666e7e061b24659 -->
<g id="node6" class="node"><title>dir_7f309bec8670bb3fb666e7e061b24659</title>
<g id="a_node6"><a xlink:href="dir_7f309bec8670bb3fb666e7e061b24659.html" target="_top" xlink:title="simulation">
<polygon fill="white" stroke="red" points="105.25,-324 44.75,-324 44.75,-288 105.25,-288 105.25,-324"/>
<text text-anchor="middle" x="75" y="-303.5" font-family="Helvetica,sans-Serif" font-size="10.00">simulation</text>
</a>
</g>
</g>
<!-- dir_a5de047958dd458e809773c6ffaa8478&#45;&gt;dir_7f309bec8670bb3fb666e7e061b24659 -->
<g id="edge11" class="edge"><title>dir_a5de047958dd458e809773c6ffaa8478&#45;&gt;dir_7f309bec8670bb3fb666e7e061b24659</title>
<path fill="none" stroke="black" d="M84.0337,-359.697C82.7113,-351.983 81.1221,-342.712 79.6478,-334.112"/>
<polygon fill="black" stroke="black" points="83.0716,-333.369 77.9322,-324.104 76.1722,-334.552 83.0716,-333.369"/>
<g id="a_edge11&#45;headlabel"><a xlink:href="dir_000221_000164.html" target="_top" xlink:title="1">
<text text-anchor="middle" x="86.4773" y="-333.932" font-family="Helvetica,sans-Serif" font-size="10.00">1</text>
</a>
</g>
</g>
<!-- dir_a5de047958dd458e809773c6ffaa8478&#45;&gt;dir_2171f7ec022c5423887b07c69b2f5b48 -->
<g id="edge14" class="edge"><title>dir_a5de047958dd458e809773c6ffaa8478&#45;&gt;dir_2171f7ec022c5423887b07c69b2f5b48</title>
<path fill="none" stroke="black" d="M99.5319,-359.996C106.542,-349.911 115.042,-336.661 121,-324 135.302,-293.604 136.797,-284.812 144,-252 148.478,-231.599 151.284,-208.138 152.94,-190.428"/>
<polygon fill="black" stroke="black" points="156.448,-190.488 153.827,-180.222 149.474,-189.881 156.448,-190.488"/>
<g id="a_edge14&#45;headlabel"><a xlink:href="dir_000221_000052.html" target="_top" xlink:title="51">
<text text-anchor="middle" x="158.965" y="-191.815" font-family="Helvetica,sans-Serif" font-size="10.00">51</text>
</a>
</g>
</g>
<!-- dir_7f309bec8670bb3fb666e7e061b24659&#45;&gt;dir_677b030cc750909e4cd27413873678d8 -->
<g id="edge1" class="edge"><title>dir_7f309bec8670bb3fb666e7e061b24659&#45;&gt;dir_677b030cc750909e4cd27413873678d8</title>
<path fill="none" stroke="black" d="M76.4831,-287.697C77.1443,-279.983 77.9389,-270.712 78.6761,-262.112"/>
<polygon fill="black" stroke="black" points="82.167,-262.367 79.5339,-252.104 75.1926,-261.769 82.167,-262.367"/>
<g id="a_edge1&#45;headlabel"><a xlink:href="dir_000164_000187.html" target="_top" xlink:title="44">
<text text-anchor="middle" x="84.689" y="-263.691" font-family="Helvetica,sans-Serif" font-size="10.00">44</text>
</a>
</g>
</g>
<!-- dir_7f309bec8670bb3fb666e7e061b24659&#45;&gt;dir_4ab6b4cc6a7edbff49100e9123df213f -->
<g id="edge2" class="edge"><title>dir_7f309bec8670bb3fb666e7e061b24659&#45;&gt;dir_4ab6b4cc6a7edbff49100e9123df213f</title>
<path fill="none" stroke="black" d="M58.9631,-287.846C50.9864,-278.124 42.175,-265.274 38,-252 24.214,-208.169 46.4767,-84.2539 55,-72 69.789,-50.738 95.8599,-37.3202 117.674,-29.3057"/>
<polygon fill="black" stroke="black" points="119.015,-32.5461 127.341,-25.9948 116.747,-25.9237 119.015,-32.5461"/>
<g id="a_edge2&#45;headlabel"><a xlink:href="dir_000164_000016.html" target="_top" xlink:title="1">
<text text-anchor="middle" x="116.534" y="-33.8968" font-family="Helvetica,sans-Serif" font-size="10.00">1</text>
</a>
</g>
</g>
<!-- dir_37c90836491b695b472bf98d1be8336b -->
<g id="node8" class="node"><title>dir_37c90836491b695b472bf98d1be8336b</title>
<g id="a_node8"><a xlink:href="dir_37c90836491b695b472bf98d1be8336b.html" target="_top" xlink:title="Base">
<polygon fill="none" stroke="red" points="118,-108 64,-108 64,-72 118,-72 118,-108"/>
<text text-anchor="middle" x="91" y="-87.5" font-family="Helvetica,sans-Serif" font-size="10.00">Base</text>
</a>
</g>
</g>
<!-- dir_7f309bec8670bb3fb666e7e061b24659&#45;&gt;dir_37c90836491b695b472bf98d1be8336b -->
<g id="edge3" class="edge"><title>dir_7f309bec8670bb3fb666e7e061b24659&#45;&gt;dir_37c90836491b695b472bf98d1be8336b</title>
<path fill="none" stroke="black" d="M62.2735,-287.845C55.7136,-277.923 48.3932,-264.883 45,-252 39.1136,-229.651 40.416,-222.652 45,-200 51.006,-170.322 65.3493,-138.678 76.4359,-117.174"/>
<polygon fill="black" stroke="black" points="79.6793,-118.528 81.2589,-108.052 73.4908,-115.256 79.6793,-118.528"/>
<g id="a_edge3&#45;headlabel"><a xlink:href="dir_000164_000139.html" target="_top" xlink:title="1">
<text text-anchor="middle" x="80.5094" y="-120.533" font-family="Helvetica,sans-Serif" font-size="10.00">1</text>
</a>
</g>
</g>
<!-- dir_7f309bec8670bb3fb666e7e061b24659&#45;&gt;dir_2171f7ec022c5423887b07c69b2f5b48 -->
<g id="edge4" class="edge"><title>dir_7f309bec8670bb3fb666e7e061b24659&#45;&gt;dir_2171f7ec022c5423887b07c69b2f5b48</title>
<path fill="none" stroke="black" d="M90.6396,-287.713C99.1422,-277.75 109.435,-264.712 117,-252 128.889,-232.022 139.028,-207.638 145.835,-189.448"/>
<polygon fill="black" stroke="black" points="149.125,-190.642 149.264,-180.048 142.549,-188.243 149.125,-190.642"/>
<g id="a_edge4&#45;headlabel"><a xlink:href="dir_000164_000052.html" target="_top" xlink:title="9">
<text text-anchor="middle" x="150.561" y="-192.491" font-family="Helvetica,sans-Serif" font-size="10.00">9</text>
</a>
</g>
</g>
<!-- dir_4ab6b4cc6a7edbff49100e9123df213f&#45;&gt;dir_2171f7ec022c5423887b07c69b2f5b48 -->
<g id="edge10" class="edge"><title>dir_4ab6b4cc6a7edbff49100e9123df213f&#45;&gt;dir_2171f7ec022c5423887b07c69b2f5b48</title>
<path fill="none" stroke="black" d="M159.591,-36.1893C162.145,-60.4244 162.433,-104.888 160.454,-133.679"/>
<polygon fill="black" stroke="black" points="156.947,-133.61 159.584,-143.871 163.922,-134.205 156.947,-133.61"/>
<g id="a_edge10&#45;headlabel"><a xlink:href="dir_000016_000052.html" target="_top" xlink:title="1">
<text text-anchor="middle" x="154.424" y="-127.287" font-family="Helvetica,sans-Serif" font-size="10.00">1</text>
</a>
</g>
</g>
<!-- dir_37c90836491b695b472bf98d1be8336b&#45;&gt;dir_4ab6b4cc6a7edbff49100e9123df213f -->
<g id="edge15" class="edge"><title>dir_37c90836491b695b472bf98d1be8336b&#45;&gt;dir_4ab6b4cc6a7edbff49100e9123df213f</title>
<path fill="none" stroke="black" d="M106.82,-71.6966C114.57,-63.2198 124.039,-52.8636 132.524,-43.5826"/>
<polygon fill="black" stroke="black" points="135.197,-45.8464 139.362,-36.1043 130.031,-41.1229 135.197,-45.8464"/>
<g id="a_edge15&#45;headlabel"><a xlink:href="dir_000139_000016.html" target="_top" xlink:title="5">
<text text-anchor="middle" x="134.867" y="-47.9151" font-family="Helvetica,sans-Serif" font-size="10.00">5</text>
</a>
</g>
</g>
<!-- dir_37c90836491b695b472bf98d1be8336b&#45;&gt;dir_2171f7ec022c5423887b07c69b2f5b48 -->
<g id="edge16" class="edge"><title>dir_37c90836491b695b472bf98d1be8336b&#45;&gt;dir_2171f7ec022c5423887b07c69b2f5b48</title>
<path fill="none" stroke="black" d="M112.533,-108.104C121.055,-116.467 130.609,-126.694 138.572,-135.92"/>
<polygon fill="black" stroke="black" points="135.987,-138.284 145.095,-143.697 141.351,-133.786 135.987,-138.284"/>
<g id="a_edge16&#45;headlabel"><a xlink:href="dir_000139_000052.html" target="_top" xlink:title="5">
<text text-anchor="middle" x="131.502" y="-134.855" font-family="Helvetica,sans-Serif" font-size="10.00">5</text>
</a>
</g>
</g>
<!-- dir_2171f7ec022c5423887b07c69b2f5b48&#45;&gt;dir_4ab6b4cc6a7edbff49100e9123df213f -->
<g id="edge21" class="edge"><title>dir_2171f7ec022c5423887b07c69b2f5b48&#45;&gt;dir_4ab6b4cc6a7edbff49100e9123df213f</title>
<path fill="none" stroke="black" d="M150.416,-143.871C147.857,-119.67 147.566,-75.2108 149.541,-46.3932"/>
<polygon fill="black" stroke="black" points="153.049,-46.45 150.409,-36.1893 146.074,-45.8566 153.049,-46.45"/>
<g id="a_edge21&#45;headlabel"><a xlink:href="dir_000052_000016.html" target="_top" xlink:title="15">
<text text-anchor="middle" x="155.573" y="-47.7723" font-family="Helvetica,sans-Serif" font-size="10.00">15</text>
</a>
</g>
</g>
<!-- dir_2171f7ec022c5423887b07c69b2f5b48&#45;&gt;dir_37c90836491b695b472bf98d1be8336b -->
<g id="edge22" class="edge"><title>dir_2171f7ec022c5423887b07c69b2f5b48&#45;&gt;dir_37c90836491b695b472bf98d1be8336b</title>
<path fill="none" stroke="black" d="M133.264,-143.697C124.726,-135.305 115.177,-125.07 107.239,-115.861"/>
<polygon fill="black" stroke="black" points="109.847,-113.524 100.743,-108.104 104.48,-118.018 109.847,-113.524"/>
<g id="a_edge22&#45;headlabel"><a xlink:href="dir_000052_000139.html" target="_top" xlink:title="1">
<text text-anchor="middle" x="114.331" y="-111.957" font-family="Helvetica,sans-Serif" font-size="10.00">1</text>
</a>
</g>
</g>
</g>
</svg>
        <g id="navigator" transform="translate(0 0)" fill="#404254">
                <rect fill="#f2f5e9" fill-opacity="0.5" stroke="#606060" stroke-width=".5" x="0" y="0" width="60" height="60"/>
                <use id="zoomplus" xlink:href="#zoomPlus" x="17" y="9" onmousedown="handleZoom(evt,'in')"/>
                <use id="zoomminus" xlink:href="#zoomMin" x="42" y="9" onmousedown="handleZoom(evt,'out')"/>
                <use id="reset" xlink:href="#resetDef" x="30" y="36" onmousedown="handleReset()"/>
                <g id="arrowUp" xlink:href="#dirArrow" transform="translate(30 24)" onmousedown="handlePan(0,-1)">
                  <use xlink:href="#rim" fill="#404040">
                        <set attributeName="fill" to="#808080" begin="arrowUp.mouseover" end="arrowUp.mouseout"/>
                  </use>
                  <path fill="none" stroke="white" stroke-width="1.5" d="M0,-3.0v7 M-2.5,-0.5L0,-3.0L2.5,-0.5"/>
                </g>
                <g id="arrowRight" xlink:href="#dirArrow" transform="rotate(90) translate(36 -43)" onmousedown="handlePan(1,0)">
                  <use xlink:href="#rim" fill="#404040">
                        <set attributeName="fill" to="#808080" begin="arrowRight.mouseover" end="arrowRight.mouseout"/>
                  </use>
                  <path fill="none" stroke="white" stroke-width="1.5" d="M0,-3.0v7 M-2.5,-0.5L0,-3.0L2.5,-0.5"/>
                </g>
                <g id="arrowDown" xlink:href="#dirArrow" transform="rotate(180) translate(-30 -48)" onmousedown="handlePan(0,1)">
                  <use xlink:href="#rim" fill="#404040">
                        <set attributeName="fill" to="#808080" begin="arrowDown.mouseover" end="arrowDown.mouseout"/>
                  </use>
                  <path fill="none" stroke="white" stroke-width="1.5" d="M0,-3.0v7 M-2.5,-0.5L0,-3.0L2.5,-0.5"/>
                </g>
                <g id="arrowLeft" xlink:href="#dirArrow" transform="rotate(270) translate(-36 17)" onmousedown="handlePan(-1,0)">
                  <use xlink:href="#rim" fill="#404040">
                        <set attributeName="fill" to="#808080" begin="arrowLeft.mouseover" end="arrowLeft.mouseout"/>
                  </use>
                  <path fill="none" stroke="white" stroke-width="1.5" d="M0,-3.0v7 M-2.5,-0.5L0,-3.0L2.5,-0.5"/>
                </g>
        </g>
        <svg viewBox="0 0 15 15" width="100%" height="30px" preserveAspectRatio="xMaxYMin meet">
         <g id="arrow_out" transform="scale(0.3 0.3)">
          <a xlink:href="dir_a597e8e061b11201a1dff411feb10d0b_dep_org.svg" target="_base">
           <rect id="button" ry="5" rx="5" y="6" x="6" height="38" width="38"
                fill="#f2f5e9" fill-opacity="0.5" stroke="#606060" stroke-width="1.0"/>
           <path id="arrow"
             d="M 11.500037,31.436501 C 11.940474,20.09759 22.043105,11.32322 32.158766,21.979434 L 37.068811,17.246167 C 37.068811,17.246167 37.088388,32 37.088388,32 L 22.160133,31.978069 C 22.160133,31.978069 26.997745,27.140456 26.997745,27.140456 C 18.528582,18.264221 13.291696,25.230495 11.500037,31.436501 z"
             style="fill:#404040;"/>
          </a>
         </g>
        </svg>
</svg>
