<?xml version="1.0" encoding="UTF-8" standalone="no"?>
<!DOCTYPE svg PUBLIC "-//W3C//DTD SVG 1.1//EN"
 "http://www.w3.org/Graphics/SVG/1.1/DTD/svg11.dtd">
<!-- Generated by graphviz version 2.36.0 (20140111.2315)
 -->
<!-- Title: /home/travis/build/AliceO2Group/AliceO2/macro Pages: 1 -->
<svg width="148pt" height="332pt"
 viewBox="0.00 0.00 148.05 332.00" xmlns="http://www.w3.org/2000/svg" xmlns:xlink="http://www.w3.org/1999/xlink">
<g id="graph0" class="graph" transform="scale(1 1) rotate(0) translate(4 328)">
<title>/home/travis/build/AliceO2Group/AliceO2/macro</title>
<!-- dir_3b579af105d68949fc87077585f616df -->
<g id="node1" class="node"><title>dir_3b579af105d68949fc87077585f616df</title>
<g id="a_node1"><a xlink:href="dir_3b579af105d68949fc87077585f616df.html" target="_top" xlink:title="macro">
<polygon fill="#eeeeff" stroke="black" points="107.416,-324 53.4165,-324 53.4165,-288 107.416,-288 107.416,-324"/>
<text text-anchor="middle" x="80.4165" y="-303.5" font-family="Helvetica,sans-Serif" font-size="10.00">macro</text>
</a>
</g>
</g>
<!-- dir_0b342c6c6b7d2278121a0bb9c4985063 -->
<g id="node2" class="node"><title>dir_0b342c6c6b7d2278121a0bb9c4985063</title>
<g id="a_node2"><a xlink:href="dir_0b342c6c6b7d2278121a0bb9c4985063.html" target="_top" xlink:title="Generators">
<polygon fill="none" stroke="red" points="70.6665,-36 6.16646,-36 6.16646,-0 70.6665,-0 70.6665,-36"/>
<text text-anchor="middle" x="38.4165" y="-15.5" font-family="Helvetica,sans-Serif" font-size="10.00">Generators</text>
</a>
</g>
</g>
<!-- dir_3b579af105d68949fc87077585f616df&#45;&gt;dir_0b342c6c6b7d2278121a0bb9c4985063 -->
<g id="edge5" class="edge"><title>dir_3b579af105d68949fc87077585f616df&#45;&gt;dir_0b342c6c6b7d2278121a0bb9c4985063</title>
<path fill="none" stroke="black" d="M53.2435,-290.7C39.1559,-281.671 23.2868,-268.572 15.4165,-252 -17.2496,-183.216 10.2082,-90.3324 27.2888,-45.4523"/>
<polygon fill="black" stroke="black" points="30.5544,-46.7116 30.9556,-36.1244 24.0397,-44.1506 30.5544,-46.7116"/>
<g id="a_edge5&#45;headlabel"><a xlink:href="dir_000208_000341.html" target="_top" xlink:title="5">
<text text-anchor="middle" x="31.8818" y="-48.5957" font-family="Helvetica,sans-Serif" font-size="10.00">5</text>
</a>
</g>
</g>
<!-- dir_4ab6b4cc6a7edbff49100e9123df213f -->
<g id="node3" class="node"><title>dir_4ab6b4cc6a7edbff49100e9123df213f</title>
<g id="a_node3"><a xlink:href="dir_4ab6b4cc6a7edbff49100e9123df213f.html" target="_top" xlink:title="Common">
<polygon fill="none" stroke="red" points="79.9165,-252 24.9165,-252 24.9165,-216 79.9165,-216 79.9165,-252"/>
<text text-anchor="middle" x="52.4165" y="-231.5" font-family="Helvetica,sans-Serif" font-size="10.00">Common</text>
</a>
</g>
</g>
<!-- dir_3b579af105d68949fc87077585f616df&#45;&gt;dir_4ab6b4cc6a7edbff49100e9123df213f -->
<g id="edge6" class="edge"><title>dir_3b579af105d68949fc87077585f616df&#45;&gt;dir_4ab6b4cc6a7edbff49100e9123df213f</title>
<path fill="none" stroke="black" d="M73.4951,-287.697C70.3417,-279.813 66.5381,-270.304 63.035,-261.546"/>
<polygon fill="black" stroke="black" points="66.2218,-260.089 59.2582,-252.104 59.7225,-262.689 66.2218,-260.089"/>
<g id="a_edge6&#45;headlabel"><a xlink:href="dir_000208_000016.html" target="_top" xlink:title="19">
<text text-anchor="middle" x="70.193" y="-259.872" font-family="Helvetica,sans-Serif" font-size="10.00">19</text>
</a>
</g>
</g>
<!-- dir_051dca18e802f8e9474f2e30d29c04e0 -->
<g id="node4" class="node"><title>dir_051dca18e802f8e9474f2e30d29c04e0</title>
<g id="a_node4"><a xlink:href="dir_051dca18e802f8e9474f2e30d29c04e0.html" target="_top" xlink:title="Detectors">
<polygon fill="none" stroke="red" points="119.666,-108 61.1665,-108 61.1665,-72 119.666,-72 119.666,-108"/>
<text text-anchor="middle" x="90.4165" y="-87.5" font-family="Helvetica,sans-Serif" font-size="10.00">Detectors</text>
</a>
</g>
</g>
<!-- dir_3b579af105d68949fc87077585f616df&#45;&gt;dir_051dca18e802f8e9474f2e30d29c04e0 -->
<g id="edge7" class="edge"><title>dir_3b579af105d68949fc87077585f616df&#45;&gt;dir_051dca18e802f8e9474f2e30d29c04e0</title>
<path fill="none" stroke="black" d="M90.8416,-287.999C104.48,-264.662 127.668,-220.928 136.416,-180 139.761,-164.353 142.014,-158.989 136.416,-144 132.54,-133.621 125.614,-123.927 118.292,-115.743"/>
<polygon fill="black" stroke="black" points="120.686,-113.182 111.239,-108.385 115.632,-118.026 120.686,-113.182"/>
<g id="a_edge7&#45;headlabel"><a xlink:href="dir_000208_000028.html" target="_top" xlink:title="55">
<text text-anchor="middle" x="125.223" y="-111.312" font-family="Helvetica,sans-Serif" font-size="10.00">55</text>
</a>
</g>
</g>
<!-- dir_2171f7ec022c5423887b07c69b2f5b48 -->
<g id="node5" class="node"><title>dir_2171f7ec022c5423887b07c69b2f5b48</title>
<g id="a_node5"><a xlink:href="dir_2171f7ec022c5423887b07c69b2f5b48.html" target="_top" xlink:title="DataFormats">
<polygon fill="none" stroke="red" points="127.416,-180 53.4165,-180 53.4165,-144 127.416,-144 127.416,-180"/>
<text text-anchor="middle" x="90.4165" y="-159.5" font-family="Helvetica,sans-Serif" font-size="10.00">DataFormats</text>
</a>
</g>
</g>
<!-- dir_3b579af105d68949fc87077585f616df&#45;&gt;dir_2171f7ec022c5423887b07c69b2f5b48 -->
<g id="edge8" class="edge"><title>dir_3b579af105d68949fc87077585f616df&#45;&gt;dir_2171f7ec022c5423887b07c69b2f5b48</title>
<path fill="none" stroke="black" d="M83.5663,-287.88C85.329,-277.531 87.3757,-264.052 88.4165,-252 90.2003,-231.343 90.6638,-207.894 90.7008,-190.254"/>
<polygon fill="black" stroke="black" points="94.2005,-190.089 90.6768,-180.097 87.2006,-190.105 94.2005,-190.089"/>
<g id="a_edge8&#45;headlabel"><a xlink:href="dir_000208_000052.html" target="_top" xlink:title="34">
<text text-anchor="middle" x="97.0482" y="-191.176" font-family="Helvetica,sans-Serif" font-size="10.00">34</text>
</a>
</g>
</g>
<!-- dir_4ab6b4cc6a7edbff49100e9123df213f&#45;&gt;dir_2171f7ec022c5423887b07c69b2f5b48 -->
<g id="edge1" class="edge"><title>dir_4ab6b4cc6a7edbff49100e9123df213f&#45;&gt;dir_2171f7ec022c5423887b07c69b2f5b48</title>
<path fill="none" stroke="black" d="M55.894,-215.697C59.4722,-207.559 64.6241,-197.689 69.9307,-188.701"/>
<polygon fill="black" stroke="black" points="72.9628,-190.452 75.2362,-180.104 67.0059,-186.776 72.9628,-190.452"/>
<g id="a_edge1&#45;headlabel"><a xlink:href="dir_000016_000052.html" target="_top" xlink:title="1">
<text text-anchor="middle" x="73.4912" y="-192.502" font-family="Helvetica,sans-Serif" font-size="10.00">1</text>
</a>
</g>
</g>
<!-- dir_051dca18e802f8e9474f2e30d29c04e0&#45;&gt;dir_0b342c6c6b7d2278121a0bb9c4985063 -->
<g id="edge2" class="edge"><title>dir_051dca18e802f8e9474f2e30d29c04e0&#45;&gt;dir_0b342c6c6b7d2278121a0bb9c4985063</title>
<path fill="none" stroke="black" d="M77.5625,-71.6966C71.3914,-63.3893 63.8794,-53.2771 57.0924,-44.1407"/>
<polygon fill="black" stroke="black" points="59.8954,-42.0446 51.1225,-36.1043 54.2762,-46.2189 59.8954,-42.0446"/>
<g id="a_edge2&#45;headlabel"><a xlink:href="dir_000028_000341.html" target="_top" xlink:title="1">
<text text-anchor="middle" x="64.3181" y="-40.7371" font-family="Helvetica,sans-Serif" font-size="10.00">1</text>
</a>
</g>
</g>
<!-- dir_051dca18e802f8e9474f2e30d29c04e0&#45;&gt;dir_4ab6b4cc6a7edbff49100e9123df213f -->
<g id="edge3" class="edge"><title>dir_051dca18e802f8e9474f2e30d29c04e0&#45;&gt;dir_4ab6b4cc6a7edbff49100e9123df213f</title>
<path fill="none" stroke="black" d="M69.5937,-108.385C59.9584,-117.802 49.5313,-130.303 44.4165,-144 37.0212,-163.803 39.7647,-187.739 43.9492,-205.798"/>
<polygon fill="black" stroke="black" points="40.6131,-206.877 46.5136,-215.676 47.3885,-205.117 40.6131,-206.877"/>
<g id="a_edge3&#45;headlabel"><a xlink:href="dir_000028_000016.html" target="_top" xlink:title="60">
<text text-anchor="middle" x="36.9617" y="-201.611" font-family="Helvetica,sans-Serif" font-size="10.00">60</text>
</a>
</g>
</g>
<!-- dir_051dca18e802f8e9474f2e30d29c04e0&#45;&gt;dir_2171f7ec022c5423887b07c69b2f5b48 -->
<g id="edge4" class="edge"><title>dir_051dca18e802f8e9474f2e30d29c04e0&#45;&gt;dir_2171f7ec022c5423887b07c69b2f5b48</title>
<path fill="none" stroke="black" d="M96.3115,-108.104C97.117,-115.791 97.3533,-125.054 97.0205,-133.665"/>
<polygon fill="black" stroke="black" points="93.525,-133.48 96.3322,-143.697 100.509,-133.96 93.525,-133.48"/>
<g id="a_edge4&#45;headlabel"><a xlink:href="dir_000028_000052.html" target="_top" xlink:title="187">
<text text-anchor="middle" x="90.9384" y="-127.2" font-family="Helvetica,sans-Serif" font-size="10.00">187</text>
</a>
</g>
</g>
<!-- dir_2171f7ec022c5423887b07c69b2f5b48&#45;&gt;dir_4ab6b4cc6a7edbff49100e9123df213f -->
<g id="edge9" class="edge"><title>dir_2171f7ec022c5423887b07c69b2f5b48&#45;&gt;dir_4ab6b4cc6a7edbff49100e9123df213f</title>
<path fill="none" stroke="black" d="M87.0263,-180.104C83.4739,-188.214 78.3361,-198.076 73.0322,-207.078"/>
<polygon fill="black" stroke="black" points="69.9884,-205.346 67.7254,-215.697 75.9491,-209.017 69.9884,-205.346"/>
<g id="a_edge9&#45;headlabel"><a xlink:href="dir_000052_000016.html" target="_top" xlink:title="15">
<text text-anchor="middle" x="69.4555" y="-198.297" font-family="Helvetica,sans-Serif" font-size="10.00">15</text>
</a>
</g>
</g>
<!-- dir_2171f7ec022c5423887b07c69b2f5b48&#45;&gt;dir_051dca18e802f8e9474f2e30d29c04e0 -->
<g id="edge10" class="edge"><title>dir_2171f7ec022c5423887b07c69b2f5b48&#45;&gt;dir_051dca18e802f8e9474f2e30d29c04e0</title>
<path fill="none" stroke="black" d="M84.5007,-143.697C83.705,-135.983 83.4785,-126.712 83.8212,-118.112"/>
<polygon fill="black" stroke="black" points="87.3148,-118.324 84.5214,-108.104 80.3319,-117.836 87.3148,-118.324"/>
<g id="a_edge10&#45;headlabel"><a xlink:href="dir_000052_000028.html" target="_top" xlink:title="1">
<text text-anchor="middle" x="89.8964" y="-119.608" font-family="Helvetica,sans-Serif" font-size="10.00">1</text>
</a>
</g>
</g>
</g>
</svg>
