<?xml version="1.0" encoding="UTF-8" standalone="no"?>
<!DOCTYPE svg PUBLIC "-//W3C//DTD SVG 1.1//EN"
 "http://www.w3.org/Graphics/SVG/1.1/DTD/svg11.dtd">
<!-- Generated by graphviz version 2.36.0 (20140111.2315)
 -->
<!-- Title: /home/travis/build/AliceO2Group/AliceO2/DataFormats/Reconstruction/include Pages: 1 -->
<svg width="327pt" height="177pt"
 viewBox="0.00 0.00 327.00 176.69" xmlns="http://www.w3.org/2000/svg" xmlns:xlink="http://www.w3.org/1999/xlink">
<g id="graph0" class="graph" transform="scale(1 1) rotate(0) translate(4 172.694)">
<title>/home/travis/build/AliceO2Group/AliceO2/DataFormats/Reconstruction/include</title>
<g id="clust1" class="cluster"><title>clusterdir_d269712cc31e133b892a3b3f6424741a</title>
<g id="a_clust1"><a xlink:href="dir_d269712cc31e133b892a3b3f6424741a.html" target="_top" xlink:title="Reconstruction">
<polygon fill="#ddddee" stroke="black" points="8,-56 8,-143 252,-143 252,-56 8,-56"/>
<text text-anchor="middle" x="130" y="-131" font-family="Helvetica,sans-Serif" font-size="10.00">Reconstruction</text>
</a>
</g>
</g>
<g id="clust2" class="cluster"><title>clusterdir_99c43ad88135ecdb15d6d5c818628268</title>
<g id="a_clust2"><a xlink:href="dir_99c43ad88135ecdb15d6d5c818628268.html" target="_top">
<polygon fill="#eeeeff" stroke="black" points="16,-64 16,-116 244,-116 244,-64 16,-64"/>
</a>
</g>
</g>
<!-- dir_99c43ad88135ecdb15d6d5c818628268 -->
<g id="node1" class="node"><title>dir_99c43ad88135ecdb15d6d5c818628268</title>
<text text-anchor="middle" x="209" y="-87.5" font-family="Helvetica,sans-Serif" font-size="10.00">include</text>
</g>
<!-- dir_7a3b9cdde049e7a84ed69a884a751cf5 -->
<g id="node2" class="node"><title>dir_7a3b9cdde049e7a84ed69a884a751cf5</title>
<g id="a_node2"><a xlink:href="dir_7a3b9cdde049e7a84ed69a884a751cf5.html" target="_top" xlink:title="ReconstructionDataFormats">
<polygon fill="white" stroke="black" points="164,-108 24,-108 24,-72 164,-72 164,-108"/>
<text text-anchor="middle" x="94" y="-87.5" font-family="Helvetica,sans-Serif" font-size="10.00">ReconstructionDataFormats</text>
</a>
</g>
</g>
<!-- dir_4ab6b4cc6a7edbff49100e9123df213f -->
<g id="node3" class="node"><title>dir_4ab6b4cc6a7edbff49100e9123df213f</title>
<g id="a_node3"><a xlink:href="dir_4ab6b4cc6a7edbff49100e9123df213f.html" target="_top" xlink:title="Common">
<polygon fill="none" stroke="red" points="182.5,-36 127.5,-36 127.5,-0 182.5,-0 182.5,-36"/>
<text text-anchor="middle" x="155" y="-15.5" font-family="Helvetica,sans-Serif" font-size="10.00">Common</text>
</a>
</g>
</g>
<!-- dir_7a3b9cdde049e7a84ed69a884a751cf5&#45;&gt;dir_4ab6b4cc6a7edbff49100e9123df213f -->
<g id="edge5" class="edge"><title>dir_7a3b9cdde049e7a84ed69a884a751cf5&#45;&gt;dir_4ab6b4cc6a7edbff49100e9123df213f</title>
<path fill="none" stroke="black" d="M103.163,-71.6966C109.675,-63.2198 118.513,-52.8636 127.101,-43.5826"/>
<polygon fill="black" stroke="black" points="129.854,-45.7667 134.2,-36.1043 124.777,-40.9475 129.854,-45.7667"/>
<g id="a_edge5&#45;headlabel"><a xlink:href="dir_000112_000016.html" target="_top" xlink:title="5">
<text text-anchor="middle" x="129.438" y="-47.8285" font-family="Helvetica,sans-Serif" font-size="10.00">5</text>
</a>
</g>
</g>
<!-- dir_2801adc79bf3c286b1b479858d2cade4 -->
<g id="node4" class="node"><title>dir_2801adc79bf3c286b1b479858d2cade4</title>
<g id="a_node4"><a xlink:href="dir_2801adc79bf3c286b1b479858d2cade4.html" target="_top" xlink:title="Detectors">
<polygon fill="none" stroke="red" points="319.25,-108 260.75,-108 260.75,-72 319.25,-72 319.25,-108"/>
<text text-anchor="middle" x="290" y="-87.5" font-family="Helvetica,sans-Serif" font-size="10.00">Detectors</text>
</a>
</g>
</g>
<!-- dir_7a3b9cdde049e7a84ed69a884a751cf5&#45;&gt;dir_2801adc79bf3c286b1b479858d2cade4 -->
<g id="edge6" class="edge"><title>dir_7a3b9cdde049e7a84ed69a884a751cf5&#45;&gt;dir_2801adc79bf3c286b1b479858d2cade4</title>
<path fill="none" stroke="black" d="M109.349,-108.053C125.413,-125.422 152.384,-150.542 182,-161 205.888,-169.435 216.459,-172.562 239,-161 256.781,-151.88 269.763,-133.358 278.179,-117.519"/>
<polygon fill="black" stroke="black" points="281.535,-118.627 282.83,-108.112 275.26,-115.525 281.535,-118.627"/>
<g id="a_edge6&#45;headlabel"><a xlink:href="dir_000112_000062.html" target="_top" xlink:title="1">
<text text-anchor="middle" x="282.487" y="-120.608" font-family="Helvetica,sans-Serif" font-size="10.00">1</text>
</a>
</g>
</g>
<!-- dir_7924ba4398ae4560cd37376e44666c6d -->
<g id="node5" class="node"><title>dir_7924ba4398ae4560cd37376e44666c6d</title>
<g id="a_node5"><a xlink:href="dir_7924ba4398ae4560cd37376e44666c6d.html" target="_top" xlink:title="common">
<polygon fill="none" stroke="red" points="286,-36 232,-36 232,-0 286,-0 286,-36"/>
<text text-anchor="middle" x="259" y="-15.5" font-family="Helvetica,sans-Serif" font-size="10.00">common</text>
</a>
</g>
</g>
<!-- dir_7a3b9cdde049e7a84ed69a884a751cf5&#45;&gt;dir_7924ba4398ae4560cd37376e44666c6d -->
<g id="edge7" class="edge"><title>dir_7a3b9cdde049e7a84ed69a884a751cf5&#45;&gt;dir_7924ba4398ae4560cd37376e44666c6d</title>
<path fill="none" stroke="black" d="M134.364,-71.8761C161.266,-60.463 196.34,-45.5832 222.424,-34.517"/>
<polygon fill="black" stroke="black" points="224.107,-37.6052 231.946,-30.4776 221.373,-31.1612 224.107,-37.6052"/>
<g id="a_edge7&#45;headlabel"><a xlink:href="dir_000112_000053.html" target="_top" xlink:title="3">
<text text-anchor="middle" x="221.906" y="-39.1228" font-family="Helvetica,sans-Serif" font-size="10.00">3</text>
</a>
</g>
</g>
<!-- dir_4ab6b4cc6a7edbff49100e9123df213f&#45;&gt;dir_7a3b9cdde049e7a84ed69a884a751cf5 -->
<g id="edge1" class="edge"><title>dir_4ab6b4cc6a7edbff49100e9123df213f&#45;&gt;dir_7a3b9cdde049e7a84ed69a884a751cf5</title>
<path fill="none" stroke="black" d="M145.99,-36.1043C139.514,-44.5515 130.693,-54.9013 122.101,-64.1989"/>
<polygon fill="black" stroke="black" points="119.333,-62.031 114.994,-71.6966 124.414,-66.8465 119.333,-62.031"/>
<g id="a_edge1&#45;headlabel"><a xlink:href="dir_000016_000112.html" target="_top" xlink:title="1">
<text text-anchor="middle" x="119.745" y="-54.9689" font-family="Helvetica,sans-Serif" font-size="10.00">1</text>
</a>
</g>
</g>
<!-- dir_2801adc79bf3c286b1b479858d2cade4&#45;&gt;dir_7a3b9cdde049e7a84ed69a884a751cf5 -->
<g id="edge4" class="edge"><title>dir_2801adc79bf3c286b1b479858d2cade4&#45;&gt;dir_7a3b9cdde049e7a84ed69a884a751cf5</title>
<path fill="none" stroke="black" d="M282.83,-108.112C274.945,-125.265 260.471,-149.987 239,-161 216.459,-172.562 205.888,-169.435 182,-161 156.317,-151.931 132.624,-131.836 116.307,-115.331"/>
<polygon fill="black" stroke="black" points="118.79,-112.863 109.349,-108.053 113.73,-117.7 118.79,-112.863"/>
<g id="a_edge4&#45;headlabel"><a xlink:href="dir_000062_000112.html" target="_top" xlink:title="3">
<text text-anchor="middle" x="123.326" y="-110.999" font-family="Helvetica,sans-Serif" font-size="10.00">3</text>
</a>
</g>
</g>
<!-- dir_2801adc79bf3c286b1b479858d2cade4&#45;&gt;dir_4ab6b4cc6a7edbff49100e9123df213f -->
<g id="edge2" class="edge"><title>dir_2801adc79bf3c286b1b479858d2cade4&#45;&gt;dir_4ab6b4cc6a7edbff49100e9123df213f</title>
<path fill="none" stroke="black" d="M270.753,-71.9864C263.877,-66.4323 255.876,-60.5337 248,-56 230.627,-45.9995 210.027,-37.4987 192.635,-31.1767"/>
<polygon fill="black" stroke="black" points="193.41,-27.7385 182.815,-27.7112 191.081,-34.3396 193.41,-27.7385"/>
<g id="a_edge2&#45;headlabel"><a xlink:href="dir_000062_000016.html" target="_top" xlink:title="6">
<text text-anchor="middle" x="197.745" y="-23.7572" font-family="Helvetica,sans-Serif" font-size="10.00">6</text>
</a>
</g>
</g>
<!-- dir_2801adc79bf3c286b1b479858d2cade4&#45;&gt;dir_7924ba4398ae4560cd37376e44666c6d -->
<g id="edge3" class="edge"><title>dir_2801adc79bf3c286b1b479858d2cade4&#45;&gt;dir_7924ba4398ae4560cd37376e44666c6d</title>
<path fill="none" stroke="black" d="M282.337,-71.6966C278.808,-63.7284 274.544,-54.0995 270.631,-45.2641"/>
<polygon fill="black" stroke="black" points="273.824,-43.8306 266.575,-36.1043 267.424,-46.6651 273.824,-43.8306"/>
<g id="a_edge3&#45;headlabel"><a xlink:href="dir_000062_000053.html" target="_top" xlink:title="1">
<text text-anchor="middle" x="277.876" y="-43.4676" font-family="Helvetica,sans-Serif" font-size="10.00">1</text>
</a>
</g>
</g>
</g>
</svg>
