<?xml version="1.0" encoding="UTF-8" standalone="no"?>
<!DOCTYPE svg PUBLIC "-//W3C//DTD SVG 1.1//EN"
 "http://www.w3.org/Graphics/SVG/1.1/DTD/svg11.dtd">
<!-- Generated by graphviz version 2.36.0 (20140111.2315)
 -->
<!-- Title: Graphical Class Hierarchy Pages: 1 -->
<svg width="454pt" height="203pt"
 viewBox="0.00 0.00 454.00 203.00" xmlns="http://www.w3.org/2000/svg" xmlns:xlink="http://www.w3.org/1999/xlink">
<g id="graph0" class="graph" transform="scale(1 1) rotate(0) translate(4 199)">
<title>Graphical Class Hierarchy</title>
<!-- Node1 -->
<g id="node1" class="node"><title>Node1</title>
<g id="a_node1"><a xlink:href="dd/de2/classo2_1_1track_1_1TrackPar.html" target="_top" xlink:title="o2::track::TrackPar">
<polygon fill="none" stroke="black" points="0.5,-82.5 0.5,-101.5 101.5,-101.5 101.5,-82.5 0.5,-82.5"/>
<text text-anchor="middle" x="51" y="-89.5" font-family="Helvetica,sans-Serif" font-size="10.00">o2::track::TrackPar</text>
</a>
</g>
</g>
<!-- Node2 -->
<g id="node2" class="node"><title>Node2</title>
<g id="a_node2"><a xlink:href="de/dea/classo2_1_1track_1_1TrackParCov.html" target="_top" xlink:title="o2::track::TrackParCov">
<polygon fill="none" stroke="black" points="138.5,-82.5 138.5,-101.5 257.5,-101.5 257.5,-82.5 138.5,-82.5"/>
<text text-anchor="middle" x="198" y="-89.5" font-family="Helvetica,sans-Serif" font-size="10.00">o2::track::TrackParCov</text>
</a>
</g>
</g>
<!-- Node1&#45;&gt;Node2 -->
<g id="edge1" class="edge"><title>Node1&#45;&gt;Node2</title>
<path fill="none" stroke="midnightblue" d="M111.961,-92C120.655,-92 129.597,-92 138.266,-92"/>
<polygon fill="midnightblue" stroke="midnightblue" points="111.901,-88.5001 101.901,-92 111.901,-95.5001 111.901,-88.5001"/>
</g>
<!-- Node3 -->
<g id="node3" class="node"><title>Node3</title>
<g id="a_node3"><a xlink:href="d6/d67/classo2_1_1dataformats_1_1TrackTPCITS.html" target="_top" xlink:title="o2::dataformats::TrackTPCITS">
<polygon fill="none" stroke="black" points="294,-175.5 294,-194.5 446,-194.5 446,-175.5 294,-175.5"/>
<text text-anchor="middle" x="370" y="-182.5" font-family="Helvetica,sans-Serif" font-size="10.00">o2::dataformats::TrackTPCITS</text>
</a>
</g>
</g>
<!-- Node2&#45;&gt;Node3 -->
<g id="edge2" class="edge"><title>Node2&#45;&gt;Node3</title>
<path fill="none" stroke="midnightblue" d="M216.029,-108.49C234.021,-125.047 263.906,-150.169 294,-165 302.582,-169.23 312.173,-172.651 321.553,-175.388"/>
<polygon fill="midnightblue" stroke="midnightblue" points="218.326,-105.847 208.641,-101.553 213.535,-110.95 218.326,-105.847"/>
</g>
<!-- Node4 -->
<g id="node4" class="node"><title>Node4</title>
<g id="a_node4"><a xlink:href="d8/d71/structo2_1_1globaltracking_1_1TrackLocITS.html" target="_top" xlink:title="o2::globaltracking\l::TrackLocITS">
<polygon fill="none" stroke="black" points="323.5,-126 323.5,-156 416.5,-156 416.5,-126 323.5,-126"/>
<text text-anchor="start" x="331.5" y="-144" font-family="Helvetica,sans-Serif" font-size="10.00">o2::globaltracking</text>
<text text-anchor="middle" x="370" y="-133" font-family="Helvetica,sans-Serif" font-size="10.00">::TrackLocITS</text>
</a>
</g>
</g>
<!-- Node2&#45;&gt;Node4 -->
<g id="edge3" class="edge"><title>Node2&#45;&gt;Node4</title>
<path fill="none" stroke="midnightblue" d="M242.052,-104.409C266.888,-111.568 298.101,-120.564 323.362,-127.845"/>
<polygon fill="midnightblue" stroke="midnightblue" points="242.759,-100.971 232.181,-101.564 240.821,-107.697 242.759,-100.971"/>
</g>
<!-- Node5 -->
<g id="node5" class="node"><title>Node5</title>
<g id="a_node5"><a xlink:href="db/dea/structo2_1_1globaltracking_1_1TrackLocTPC.html" target="_top" xlink:title="o2::globaltracking\l::TrackLocTPC">
<polygon fill="none" stroke="black" points="323.5,-77 323.5,-107 416.5,-107 416.5,-77 323.5,-77"/>
<text text-anchor="start" x="331.5" y="-95" font-family="Helvetica,sans-Serif" font-size="10.00">o2::globaltracking</text>
<text text-anchor="middle" x="370" y="-84" font-family="Helvetica,sans-Serif" font-size="10.00">::TrackLocTPC</text>
</a>
</g>
</g>
<!-- Node2&#45;&gt;Node5 -->
<g id="edge4" class="edge"><title>Node2&#45;&gt;Node5</title>
<path fill="none" stroke="midnightblue" d="M267.749,-92C286.435,-92 306.209,-92 323.275,-92"/>
<polygon fill="midnightblue" stroke="midnightblue" points="267.504,-88.5001 257.504,-92 267.504,-95.5001 267.504,-88.5001"/>
</g>
<!-- Node6 -->
<g id="node6" class="node"><title>Node6</title>
<g id="a_node6"><a xlink:href="dd/d41/classo2_1_1ITS_1_1TrackITS.html" target="_top" xlink:title="o2::ITS::TrackITS">
<polygon fill="none" stroke="black" points="322.5,-38.5 322.5,-57.5 417.5,-57.5 417.5,-38.5 322.5,-38.5"/>
<text text-anchor="middle" x="370" y="-45.5" font-family="Helvetica,sans-Serif" font-size="10.00">o2::ITS::TrackITS</text>
</a>
</g>
</g>
<!-- Node2&#45;&gt;Node6 -->
<g id="edge5" class="edge"><title>Node2&#45;&gt;Node6</title>
<path fill="none" stroke="midnightblue" d="M245.602,-79.9383C272.867,-72.8815 306.805,-64.0976 332.185,-57.5287"/>
<polygon fill="midnightblue" stroke="midnightblue" points="244.691,-76.5586 235.887,-82.4527 246.445,-83.3353 244.691,-76.5586"/>
</g>
<!-- Node7 -->
<g id="node7" class="node"><title>Node7</title>
<g id="a_node7"><a xlink:href="d9/d6e/classo2_1_1TPC_1_1TrackTPC.html" target="_top" xlink:title="o2::TPC::TrackTPC">
<polygon fill="none" stroke="black" points="318,-0.5 318,-19.5 422,-19.5 422,-0.5 318,-0.5"/>
<text text-anchor="middle" x="370" y="-7.5" font-family="Helvetica,sans-Serif" font-size="10.00">o2::TPC::TrackTPC</text>
</a>
</g>
</g>
<!-- Node2&#45;&gt;Node7 -->
<g id="edge6" class="edge"><title>Node2&#45;&gt;Node7</title>
<path fill="none" stroke="midnightblue" d="M218.457,-76.2258C236.896,-61.9983 265.881,-41.4507 294,-29 302.475,-25.2475 311.829,-22.1376 320.974,-19.5964"/>
<polygon fill="midnightblue" stroke="midnightblue" points="216.234,-73.5212 210.535,-82.4527 220.56,-79.0246 216.234,-73.5212"/>
</g>
</g>
</svg>
