<?xml version="1.0" encoding="UTF-8" standalone="no"?>
<!DOCTYPE svg PUBLIC "-//W3C//DTD SVG 1.1//EN"
 "http://www.w3.org/Graphics/SVG/1.1/DTD/svg11.dtd">
<!-- Generated by graphviz version 2.36.0 (20140111.2315)
 -->
<!-- Title: Graphical Class Hierarchy Pages: 1 -->
<svg width="482pt" height="849pt"
 viewBox="0.00 0.00 482.00 849.00" xmlns="http://www.w3.org/2000/svg" xmlns:xlink="http://www.w3.org/1999/xlink">
<g id="graph0" class="graph" transform="scale(1 1) rotate(0) translate(4 845)">
<title>Graphical Class Hierarchy</title>
<!-- Node1 -->
<g id="node1" class="node"><title>Node1</title>
<g id="a_node1"><a xlink:href="db/dfe/classFairMQDevice.html" target="_top" xlink:title="FairMQDevice">
<polygon fill="none" stroke="black" points="0,-371.5 0,-390.5 80,-390.5 80,-371.5 0,-371.5"/>
<text text-anchor="middle" x="40" y="-378.5" font-family="Helvetica,sans-Serif" font-size="10.00">FairMQDevice</text>
</a>
</g>
</g>
<!-- Node2 -->
<g id="node2" class="node"><title>Node2</title>
<g id="a_node2"><a xlink:href="d7/dd9/classo2_1_1alice__hlt_1_1EventSampler.html" target="_top" xlink:title="o2::alice_hlt::EventSampler">
<polygon fill="none" stroke="black" points="125.5,-731.5 125.5,-750.5 262.5,-750.5 262.5,-731.5 125.5,-731.5"/>
<text text-anchor="middle" x="194" y="-738.5" font-family="Helvetica,sans-Serif" font-size="10.00">o2::alice_hlt::EventSampler</text>
</a>
</g>
</g>
<!-- Node1&#45;&gt;Node2 -->
<g id="edge1" class="edge"><title>Node1&#45;&gt;Node2</title>
<path fill="none" stroke="midnightblue" d="M42.6478,-400.769C48.5119,-466.368 70.4944,-675.322 116,-722 119.749,-725.845 124.142,-728.96 128.897,-731.477"/>
<polygon fill="midnightblue" stroke="midnightblue" points="46.1143,-400.23 41.7642,-390.57 39.1404,-400.835 46.1143,-400.23"/>
</g>
<!-- Node3 -->
<g id="node3" class="node"><title>Node3</title>
<g id="a_node3"><a xlink:href="d5/df3/classo2_1_1alice__hlt_1_1WrapperDevice.html" target="_top" xlink:title="o2::alice_hlt::WrapperDevice">
<polygon fill="none" stroke="black" points="122.5,-693.5 122.5,-712.5 265.5,-712.5 265.5,-693.5 122.5,-693.5"/>
<text text-anchor="middle" x="194" y="-700.5" font-family="Helvetica,sans-Serif" font-size="10.00">o2::alice_hlt::WrapperDevice</text>
</a>
</g>
</g>
<!-- Node1&#45;&gt;Node3 -->
<g id="edge2" class="edge"><title>Node1&#45;&gt;Node3</title>
<path fill="none" stroke="midnightblue" d="M43.2515,-400.905C50.5241,-461.707 75.3061,-643.336 116,-684 119.798,-687.796 124.227,-690.876 129.005,-693.37"/>
<polygon fill="midnightblue" stroke="midnightblue" points="46.6991,-400.252 42.0639,-390.725 39.7462,-401.063 46.6991,-400.252"/>
</g>
<!-- Node4 -->
<g id="node4" class="node"><title>Node4</title>
<g id="a_node4"><a xlink:href="da/df6/classo2_1_1Base_1_1O2Device.html" target="_top" xlink:title="o2::Base::O2Device">
<polygon fill="none" stroke="black" points="141.5,-655.5 141.5,-674.5 246.5,-674.5 246.5,-655.5 141.5,-655.5"/>
<text text-anchor="middle" x="194" y="-662.5" font-family="Helvetica,sans-Serif" font-size="10.00">o2::Base::O2Device</text>
</a>
</g>
</g>
<!-- Node1&#45;&gt;Node4 -->
<g id="edge3" class="edge"><title>Node1&#45;&gt;Node4</title>
<path fill="none" stroke="midnightblue" d="M40.3466,-400.871C39.876,-450.012 45.8234,-578.162 116,-646 123.029,-652.795 132.082,-657.282 141.495,-660.219"/>
<polygon fill="midnightblue" stroke="midnightblue" points="43.8503,-400.716 40.5537,-390.647 36.8518,-400.574 43.8503,-400.716"/>
</g>
<!-- Node13 -->
<g id="node13" class="node"><title>Node13</title>
<g id="a_node13"><a xlink:href="d1/d6f/classo2_1_1CDB_1_1ConditionsMQClient.html" target="_top" xlink:title="o2::CDB::ConditionsMQClient">
<polygon fill="none" stroke="black" points="119.5,-617.5 119.5,-636.5 268.5,-636.5 268.5,-617.5 119.5,-617.5"/>
<text text-anchor="middle" x="194" y="-624.5" font-family="Helvetica,sans-Serif" font-size="10.00">o2::CDB::ConditionsMQClient</text>
</a>
</g>
</g>
<!-- Node1&#45;&gt;Node13 -->
<g id="edge12" class="edge"><title>Node1&#45;&gt;Node13</title>
<path fill="none" stroke="midnightblue" d="M41.4635,-400.989C43.6156,-445.183 55.1968,-551.718 116,-608 120.143,-611.835 124.934,-614.929 130.059,-617.421"/>
<polygon fill="midnightblue" stroke="midnightblue" points="44.9591,-400.803 41.0896,-390.94 37.9639,-401.063 44.9591,-400.803"/>
</g>
<!-- Node14 -->
<g id="node14" class="node"><title>Node14</title>
<g id="a_node14"><a xlink:href="df/d95/classo2_1_1Devices_1_1EPNReceiver.html" target="_top" xlink:title="Receives sub&#45;timeframes from the flpSenders and merges these into full timeframes. ">
<polygon fill="none" stroke="black" points="126.5,-579.5 126.5,-598.5 261.5,-598.5 261.5,-579.5 126.5,-579.5"/>
<text text-anchor="middle" x="194" y="-586.5" font-family="Helvetica,sans-Serif" font-size="10.00">o2::Devices::EPNReceiver</text>
</a>
</g>
</g>
<!-- Node1&#45;&gt;Node14 -->
<g id="edge13" class="edge"><title>Node1&#45;&gt;Node14</title>
<path fill="none" stroke="midnightblue" d="M43.074,-400.843C48.1726,-439.25 64.8843,-523.926 116,-569 120.869,-573.293 126.545,-576.684 132.569,-579.36"/>
<polygon fill="midnightblue" stroke="midnightblue" points="46.5005,-400.019 41.8393,-390.504 39.5499,-400.849 46.5005,-400.019"/>
</g>
<!-- Node15 -->
<g id="node15" class="node"><title>Node15</title>
<g id="a_node15"><a xlink:href="d5/d70/classo2_1_1Devices_1_1EPNReceiverDevice.html" target="_top" xlink:title="Receives sub&#45;timeframes from the flpSenders and merges these into full timeframes. ">
<polygon fill="none" stroke="black" points="126.5,-530 126.5,-560 261.5,-560 261.5,-530 126.5,-530"/>
<text text-anchor="start" x="134.5" y="-548" font-family="Helvetica,sans-Serif" font-size="10.00">o2::Devices::EPNReceiver</text>
<text text-anchor="middle" x="194" y="-537" font-family="Helvetica,sans-Serif" font-size="10.00">Device</text>
</a>
</g>
</g>
<!-- Node1&#45;&gt;Node15 -->
<g id="edge14" class="edge"><title>Node1&#45;&gt;Node15</title>
<path fill="none" stroke="midnightblue" d="M46.3446,-400.393C55.5826,-430.352 77.3594,-487.785 116,-520 120.642,-523.87 125.897,-527.145 131.428,-529.917"/>
<polygon fill="midnightblue" stroke="midnightblue" points="49.6735,-399.307 43.5004,-390.696 42.9565,-401.277 49.6735,-399.307"/>
</g>
<!-- Node16 -->
<g id="node16" class="node"><title>Node16</title>
<g id="a_node16"><a xlink:href="da/d8b/classo2_1_1Devices_1_1FLPSender.html" target="_top" xlink:title="o2::Devices::FLPSender">
<polygon fill="none" stroke="black" points="132,-491.5 132,-510.5 256,-510.5 256,-491.5 132,-491.5"/>
<text text-anchor="middle" x="194" y="-498.5" font-family="Helvetica,sans-Serif" font-size="10.00">o2::Devices::FLPSender</text>
</a>
</g>
</g>
<!-- Node1&#45;&gt;Node16 -->
<g id="edge15" class="edge"><title>Node1&#45;&gt;Node16</title>
<path fill="none" stroke="midnightblue" d="M49.7253,-399.576C61.4899,-422.54 84.6358,-461.136 116,-482 121.847,-485.889 128.42,-488.983 135.198,-491.444"/>
<polygon fill="midnightblue" stroke="midnightblue" points="52.8205,-397.938 45.2604,-390.516 46.5416,-401.033 52.8205,-397.938"/>
</g>
<!-- Node17 -->
<g id="node17" class="node"><title>Node17</title>
<g id="a_node17"><a xlink:href="d3/db6/classo2_1_1Devices_1_1FLPSenderDevice.html" target="_top" xlink:title="o2::Devices::FLPSenderDevice">
<polygon fill="none" stroke="black" points="116.5,-453.5 116.5,-472.5 271.5,-472.5 271.5,-453.5 116.5,-453.5"/>
<text text-anchor="middle" x="194" y="-460.5" font-family="Helvetica,sans-Serif" font-size="10.00">o2::Devices::FLPSenderDevice</text>
</a>
</g>
</g>
<!-- Node1&#45;&gt;Node17 -->
<g id="edge16" class="edge"><title>Node1&#45;&gt;Node17</title>
<path fill="none" stroke="midnightblue" d="M56.7034,-397.981C70.8747,-412.306 92.9774,-432.297 116,-444 123.61,-447.868 132.05,-450.977 140.472,-453.468"/>
<polygon fill="midnightblue" stroke="midnightblue" points="59.1469,-395.472 49.691,-390.693 54.1029,-400.326 59.1469,-395.472"/>
</g>
<!-- Node18 -->
<g id="node18" class="node"><title>Node18</title>
<g id="a_node18"><a xlink:href="d9/dbe/classo2_1_1Devices_1_1FLPSyncSampler.html" target="_top" xlink:title="Publishes timeframes IDs for flpSenders (used only in test mode) ">
<polygon fill="none" stroke="black" points="118,-415.5 118,-434.5 270,-434.5 270,-415.5 118,-415.5"/>
<text text-anchor="middle" x="194" y="-422.5" font-family="Helvetica,sans-Serif" font-size="10.00">o2::Devices::FLPSyncSampler</text>
</a>
</g>
</g>
<!-- Node1&#45;&gt;Node18 -->
<g id="edge17" class="edge"><title>Node1&#45;&gt;Node18</title>
<path fill="none" stroke="midnightblue" d="M79.2577,-393.695C91.0037,-397.47 103.997,-401.524 116,-405 128.47,-408.612 142.165,-412.268 154.502,-415.448"/>
<polygon fill="midnightblue" stroke="midnightblue" points="80.3255,-390.361 69.7335,-390.607 78.1671,-397.02 80.3255,-390.361"/>
</g>
<!-- Node19 -->
<g id="node19" class="node"><title>Node19</title>
<g id="a_node19"><a xlink:href="d4/d56/classo2_1_1framework_1_1DataProcessingDevice.html" target="_top" xlink:title="o2::framework::DataProcessing\lDevice">
<polygon fill="none" stroke="black" points="116.5,-366 116.5,-396 271.5,-396 271.5,-366 116.5,-366"/>
<text text-anchor="start" x="124.5" y="-384" font-family="Helvetica,sans-Serif" font-size="10.00">o2::framework::DataProcessing</text>
<text text-anchor="middle" x="194" y="-373" font-family="Helvetica,sans-Serif" font-size="10.00">Device</text>
</a>
</g>
</g>
<!-- Node1&#45;&gt;Node19 -->
<g id="edge18" class="edge"><title>Node1&#45;&gt;Node19</title>
<path fill="none" stroke="midnightblue" d="M90.1493,-381C98.5853,-381 107.528,-381 116.48,-381"/>
<polygon fill="midnightblue" stroke="midnightblue" points="90.1438,-377.5 80.1438,-381 90.1437,-384.5 90.1438,-377.5"/>
</g>
<!-- Node20 -->
<g id="node20" class="node"><title>Node20</title>
<g id="a_node20"><a xlink:href="de/d58/classo2_1_1framework_1_1DataSourceDevice.html" target="_top" xlink:title="o2::framework::DataSource\lDevice">
<polygon fill="none" stroke="black" points="125.5,-317 125.5,-347 262.5,-347 262.5,-317 125.5,-317"/>
<text text-anchor="start" x="133.5" y="-335" font-family="Helvetica,sans-Serif" font-size="10.00">o2::framework::DataSource</text>
<text text-anchor="middle" x="194" y="-324" font-family="Helvetica,sans-Serif" font-size="10.00">Device</text>
</a>
</g>
</g>
<!-- Node1&#45;&gt;Node20 -->
<g id="edge19" class="edge"><title>Node1&#45;&gt;Node20</title>
<path fill="none" stroke="midnightblue" d="M80.4587,-368.28C100.612,-361.783 125.265,-353.836 146.355,-347.037"/>
<polygon fill="midnightblue" stroke="midnightblue" points="79.1118,-365.037 70.668,-371.436 81.2595,-371.699 79.1118,-365.037"/>
</g>
<!-- Node21 -->
<g id="node21" class="node"><title>Node21</title>
<g id="a_node21"><a xlink:href="d3/d75/classo2_1_1mch_1_1DumpDigits.html" target="_top" xlink:title="o2::mch::DumpDigits">
<polygon fill="none" stroke="black" points="139,-278.5 139,-297.5 249,-297.5 249,-278.5 139,-278.5"/>
<text text-anchor="middle" x="194" y="-285.5" font-family="Helvetica,sans-Serif" font-size="10.00">o2::mch::DumpDigits</text>
</a>
</g>
</g>
<!-- Node1&#45;&gt;Node21 -->
<g id="edge20" class="edge"><title>Node1&#45;&gt;Node21</title>
<path fill="none" stroke="midnightblue" d="M54.4593,-363.415C68.1677,-346.716 90.9246,-322.125 116,-308 123.702,-303.662 132.365,-300.242 141.028,-297.554"/>
<polygon fill="midnightblue" stroke="midnightblue" points="51.6462,-361.33 48.1512,-371.331 57.1206,-365.692 51.6462,-361.33"/>
</g>
<!-- Node22 -->
<g id="node22" class="node"><title>Node22</title>
<g id="a_node22"><a xlink:href="d7/dc2/classo2_1_1mch_1_1PreClusterFinderDevice.html" target="_top" xlink:title="o2::mch::PreClusterFinder\lDevice">
<polygon fill="none" stroke="black" points="128.5,-229 128.5,-259 259.5,-259 259.5,-229 128.5,-229"/>
<text text-anchor="start" x="136.5" y="-247" font-family="Helvetica,sans-Serif" font-size="10.00">o2::mch::PreClusterFinder</text>
<text text-anchor="middle" x="194" y="-236" font-family="Helvetica,sans-Serif" font-size="10.00">Device</text>
</a>
</g>
</g>
<!-- Node1&#45;&gt;Node22 -->
<g id="edge21" class="edge"><title>Node1&#45;&gt;Node22</title>
<path fill="none" stroke="midnightblue" d="M48.9626,-361.875C60.28,-336.966 83.3324,-293.697 116,-269 121.045,-265.186 126.696,-261.94 132.583,-259.181"/>
<polygon fill="midnightblue" stroke="midnightblue" points="45.6332,-360.754 44.837,-371.318 52.0477,-363.556 45.6332,-360.754"/>
</g>
<!-- Node23 -->
<g id="node23" class="node"><title>Node23</title>
<g id="a_node23"><a xlink:href="da/df0/classo2_1_1mid_1_1ClusterizerDevice.html" target="_top" xlink:title="Clusterizing device for MID. ">
<polygon fill="none" stroke="black" points="127.5,-190.5 127.5,-209.5 260.5,-209.5 260.5,-190.5 127.5,-190.5"/>
<text text-anchor="middle" x="194" y="-197.5" font-family="Helvetica,sans-Serif" font-size="10.00">o2::mid::ClusterizerDevice</text>
</a>
</g>
</g>
<!-- Node1&#45;&gt;Node23 -->
<g id="edge22" class="edge"><title>Node1&#45;&gt;Node23</title>
<path fill="none" stroke="midnightblue" d="M44.5582,-361.175C51.7487,-327.035 71.2973,-257.233 116,-220 121.2,-215.669 127.231,-212.263 133.583,-209.587"/>
<polygon fill="midnightblue" stroke="midnightblue" points="41.065,-360.801 42.5749,-371.287 47.9341,-362.148 41.065,-360.801"/>
</g>
<!-- Node24 -->
<g id="node24" class="node"><title>Node24</title>
<g id="a_node24"><a xlink:href="df/d14/classo2_1_1qc_1_1MergerDevice.html" target="_top" xlink:title="o2::qc::MergerDevice">
<polygon fill="none" stroke="black" points="139,-152.5 139,-171.5 249,-171.5 249,-152.5 139,-152.5"/>
<text text-anchor="middle" x="194" y="-159.5" font-family="Helvetica,sans-Serif" font-size="10.00">o2::qc::MergerDevice</text>
</a>
</g>
</g>
<!-- Node1&#45;&gt;Node24 -->
<g id="edge23" class="edge"><title>Node1&#45;&gt;Node24</title>
<path fill="none" stroke="midnightblue" d="M42.4722,-361.215C46.5634,-320.977 61.6631,-229.332 116,-181 122.481,-175.235 130.436,-171.157 138.746,-168.284"/>
<polygon fill="midnightblue" stroke="midnightblue" points="38.9723,-361.059 41.5709,-371.331 45.9447,-361.681 38.9723,-361.059"/>
</g>
<!-- Node25 -->
<g id="node25" class="node"><title>Node25</title>
<g id="a_node25"><a xlink:href="d1/d14/classo2_1_1qc_1_1ProducerDevice.html" target="_top" xlink:title="o2::qc::ProducerDevice">
<polygon fill="none" stroke="black" points="134.5,-114.5 134.5,-133.5 253.5,-133.5 253.5,-114.5 134.5,-114.5"/>
<text text-anchor="middle" x="194" y="-121.5" font-family="Helvetica,sans-Serif" font-size="10.00">o2::qc::ProducerDevice</text>
</a>
</g>
</g>
<!-- Node1&#45;&gt;Node25 -->
<g id="edge24" class="edge"><title>Node1&#45;&gt;Node25</title>
<path fill="none" stroke="midnightblue" d="M41.1066,-360.994C42.4857,-315.291 52.517,-202.583 116,-143 121.221,-138.1 127.497,-134.407 134.186,-131.632"/>
<polygon fill="midnightblue" stroke="midnightblue" points="37.6053,-361.032 40.9151,-371.097 44.6041,-361.165 37.6053,-361.032"/>
</g>
<!-- Node26 -->
<g id="node26" class="node"><title>Node26</title>
<g id="a_node26"><a xlink:href="d9/dd9/classo2_1_1qc_1_1ViewerDevice.html" target="_top" xlink:title="o2::qc::ViewerDevice">
<polygon fill="none" stroke="black" points="139,-76.5 139,-95.5 249,-95.5 249,-76.5 139,-76.5"/>
<text text-anchor="middle" x="194" y="-83.5" font-family="Helvetica,sans-Serif" font-size="10.00">o2::qc::ViewerDevice</text>
</a>
</g>
</g>
<!-- Node1&#45;&gt;Node26 -->
<g id="edge25" class="edge"><title>Node1&#45;&gt;Node26</title>
<path fill="none" stroke="midnightblue" d="M43.7783,-361.022C52.1208,-303.864 78.6992,-141.438 116,-105 122.304,-98.8422 130.268,-94.5758 138.669,-91.64"/>
<polygon fill="midnightblue" stroke="midnightblue" points="40.2651,-360.867 42.3162,-371.261 47.1948,-361.856 40.2651,-360.867"/>
</g>
<!-- Node27 -->
<g id="node27" class="node"><title>Node27</title>
<g id="a_node27"><a xlink:href="d3/d79/classO2EPNex.html" target="_top" xlink:title="O2EPNex">
<polygon fill="none" stroke="black" points="163.5,-38.5 163.5,-57.5 224.5,-57.5 224.5,-38.5 163.5,-38.5"/>
<text text-anchor="middle" x="194" y="-45.5" font-family="Helvetica,sans-Serif" font-size="10.00">O2EPNex</text>
</a>
</g>
</g>
<!-- Node1&#45;&gt;Node27 -->
<g id="edge26" class="edge"><title>Node1&#45;&gt;Node27</title>
<path fill="none" stroke="midnightblue" d="M43.056,-361.185C49.9017,-299.013 73.9051,-109.41 116,-67 128.319,-54.589 147.365,-49.816 163.433,-48.1571"/>
<polygon fill="midnightblue" stroke="midnightblue" points="39.5633,-360.931 41.9769,-371.247 46.5234,-361.677 39.5633,-360.931"/>
</g>
<!-- Node28 -->
<g id="node28" class="node"><title>Node28</title>
<g id="a_node28"><a xlink:href="d4/d82/classO2FLPex.html" target="_top" xlink:title="O2FLPex">
<polygon fill="none" stroke="black" points="165,-0.5 165,-19.5 223,-19.5 223,-0.5 165,-0.5"/>
<text text-anchor="middle" x="194" y="-7.5" font-family="Helvetica,sans-Serif" font-size="10.00">O2FLPex</text>
</a>
</g>
</g>
<!-- Node1&#45;&gt;Node28 -->
<g id="edge27" class="edge"><title>Node1&#45;&gt;Node28</title>
<path fill="none" stroke="midnightblue" d="M42.4821,-361.458C47.9347,-294.75 69.0519,-77.4746 116,-29 128.549,-16.0433 148.418,-11.3717 164.829,-9.89869"/>
<polygon fill="midnightblue" stroke="midnightblue" points="38.9903,-361.217 41.6911,-371.462 45.9686,-361.769 38.9903,-361.217"/>
</g>
<!-- Node5 -->
<g id="node5" class="node"><title>Node5</title>
<g id="a_node5"><a xlink:href="d2/d4c/classo2_1_1DataFlow_1_1FakeTimeframeGeneratorDevice.html" target="_top" xlink:title="A device which writes to file the timeframes. ">
<polygon fill="none" stroke="black" points="316.5,-811 316.5,-841 465.5,-841 465.5,-811 316.5,-811"/>
<text text-anchor="start" x="324.5" y="-829" font-family="Helvetica,sans-Serif" font-size="10.00">o2::DataFlow::FakeTimeframe</text>
<text text-anchor="middle" x="391" y="-818" font-family="Helvetica,sans-Serif" font-size="10.00">GeneratorDevice</text>
</a>
</g>
</g>
<!-- Node4&#45;&gt;Node5 -->
<g id="edge4" class="edge"><title>Node4&#45;&gt;Node5</title>
<path fill="none" stroke="midnightblue" d="M256.165,-673.609C261.976,-676.259 267.403,-679.656 272,-684 311.544,-721.367 269.48,-762.579 308,-801 311.899,-804.889 316.384,-808.176 321.203,-810.954"/>
<polygon fill="midnightblue" stroke="midnightblue" points="257.374,-670.324 246.783,-670.031 254.88,-676.865 257.374,-670.324"/>
</g>
<!-- Node6 -->
<g id="node6" class="node"><title>Node6</title>
<g id="a_node6"><a xlink:href="d3/d5a/classo2_1_1DataFlow_1_1HeartbeatSampler.html" target="_top" xlink:title="A sampler for heartbeat triggers. ">
<polygon fill="none" stroke="black" points="311,-772.5 311,-791.5 471,-791.5 471,-772.5 311,-772.5"/>
<text text-anchor="middle" x="391" y="-779.5" font-family="Helvetica,sans-Serif" font-size="10.00">o2::DataFlow::HeartbeatSampler</text>
</a>
</g>
</g>
<!-- Node4&#45;&gt;Node6 -->
<g id="edge5" class="edge"><title>Node4&#45;&gt;Node6</title>
<path fill="none" stroke="midnightblue" d="M256.268,-674.539C261.938,-677.022 267.307,-680.125 272,-684 301.443,-708.308 278.524,-737.732 308,-762 313.204,-766.284 319.185,-769.675 325.496,-772.354"/>
<polygon fill="midnightblue" stroke="midnightblue" points="257.099,-671.115 246.506,-670.921 254.666,-677.678 257.099,-671.115"/>
</g>
<!-- Node7 -->
<g id="node7" class="node"><title>Node7</title>
<g id="a_node7"><a xlink:href="db/ded/classo2_1_1DataFlow_1_1SubframeBuilderDevice.html" target="_top" xlink:title="o2::DataFlow::SubframeBuilder\lDevice">
<polygon fill="none" stroke="black" points="314.5,-723 314.5,-753 467.5,-753 467.5,-723 314.5,-723"/>
<text text-anchor="start" x="322.5" y="-741" font-family="Helvetica,sans-Serif" font-size="10.00">o2::DataFlow::SubframeBuilder</text>
<text text-anchor="middle" x="391" y="-730" font-family="Helvetica,sans-Serif" font-size="10.00">Device</text>
</a>
</g>
</g>
<!-- Node4&#45;&gt;Node7 -->
<g id="edge6" class="edge"><title>Node4&#45;&gt;Node7</title>
<path fill="none" stroke="midnightblue" d="M256.408,-677.531C261.792,-679.41 267.065,-681.555 272,-684 290.41,-693.122 289.843,-703.385 308,-713 315.102,-716.761 322.857,-720.048 330.673,-722.893"/>
<polygon fill="midnightblue" stroke="midnightblue" points="257.234,-674.121 246.644,-674.429 255.115,-680.793 257.234,-674.121"/>
</g>
<!-- Node8 -->
<g id="node8" class="node"><title>Node8</title>
<g id="a_node8"><a xlink:href="d4/dea/classo2_1_1DataFlow_1_1TimeframeReaderDevice.html" target="_top" xlink:title="A device which writes to file the timeframes. ">
<polygon fill="none" stroke="black" points="311.5,-674 311.5,-704 470.5,-704 470.5,-674 311.5,-674"/>
<text text-anchor="start" x="319.5" y="-692" font-family="Helvetica,sans-Serif" font-size="10.00">o2::DataFlow::TimeframeReader</text>
<text text-anchor="middle" x="391" y="-681" font-family="Helvetica,sans-Serif" font-size="10.00">Device</text>
</a>
</g>
</g>
<!-- Node4&#45;&gt;Node8 -->
<g id="edge7" class="edge"><title>Node4&#45;&gt;Node8</title>
<path fill="none" stroke="midnightblue" d="M256.704,-672.594C273.997,-674.723 293.034,-677.066 311.175,-679.298"/>
<polygon fill="midnightblue" stroke="midnightblue" points="257.097,-669.116 246.744,-671.369 256.242,-676.064 257.097,-669.116"/>
</g>
<!-- Node9 -->
<g id="node9" class="node"><title>Node9</title>
<g id="a_node9"><a xlink:href="d8/d54/classo2_1_1DataFlow_1_1TimeframeValidatorDevice.html" target="_top" xlink:title="A validating device for time frame data (coming from EPN) ">
<polygon fill="none" stroke="black" points="308,-625 308,-655 474,-655 474,-625 308,-625"/>
<text text-anchor="start" x="316" y="-643" font-family="Helvetica,sans-Serif" font-size="10.00">o2::DataFlow::TimeframeValidator</text>
<text text-anchor="middle" x="391" y="-632" font-family="Helvetica,sans-Serif" font-size="10.00">Device</text>
</a>
</g>
</g>
<!-- Node4&#45;&gt;Node9 -->
<g id="edge8" class="edge"><title>Node4&#45;&gt;Node9</title>
<path fill="none" stroke="midnightblue" d="M257.101,-657.038C273.222,-654.972 290.837,-652.713 307.817,-650.536"/>
<polygon fill="midnightblue" stroke="midnightblue" points="256.218,-653.623 246.744,-658.366 257.108,-660.566 256.218,-653.623"/>
</g>
<!-- Node10 -->
<g id="node10" class="node"><title>Node10</title>
<g id="a_node10"><a xlink:href="d0/d3e/classo2_1_1DataFlow_1_1TimeframeWriterDevice.html" target="_top" xlink:title="A device which writes to file the timeframes. ">
<polygon fill="none" stroke="black" points="314,-576 314,-606 468,-606 468,-576 314,-576"/>
<text text-anchor="start" x="322" y="-594" font-family="Helvetica,sans-Serif" font-size="10.00">o2::DataFlow::TimeframeWriter</text>
<text text-anchor="middle" x="391" y="-583" font-family="Helvetica,sans-Serif" font-size="10.00">Device</text>
</a>
</g>
</g>
<!-- Node4&#45;&gt;Node10 -->
<g id="edge9" class="edge"><title>Node4&#45;&gt;Node10</title>
<path fill="none" stroke="midnightblue" d="M256.452,-652.556C261.827,-650.659 267.085,-648.486 272,-646 290.585,-636.599 289.676,-625.9 308,-616 314.94,-612.251 322.521,-608.982 330.18,-606.156"/>
<polygon fill="midnightblue" stroke="midnightblue" points="255.154,-649.297 246.699,-655.681 257.291,-655.963 255.154,-649.297"/>
</g>
<!-- Node11 -->
<g id="node11" class="node"><title>Node11</title>
<g id="a_node11"><a xlink:href="d7/dd8/classo2_1_1utilities_1_1DataPublisherDevice.html" target="_top" xlink:title="o2::utilities::DataPublisher\lDevice">
<polygon fill="none" stroke="black" points="325.5,-527 325.5,-557 456.5,-557 456.5,-527 325.5,-527"/>
<text text-anchor="start" x="333.5" y="-545" font-family="Helvetica,sans-Serif" font-size="10.00">o2::utilities::DataPublisher</text>
<text text-anchor="middle" x="391" y="-534" font-family="Helvetica,sans-Serif" font-size="10.00">Device</text>
</a>
</g>
</g>
<!-- Node4&#45;&gt;Node11 -->
<g id="edge10" class="edge"><title>Node4&#45;&gt;Node11</title>
<path fill="none" stroke="midnightblue" d="M256.287,-655.484C261.954,-652.997 267.316,-649.886 272,-646 301.695,-621.363 278.981,-592.43 308,-567 313.149,-562.488 319.095,-558.79 325.386,-555.76"/>
<polygon fill="midnightblue" stroke="midnightblue" points="254.686,-652.345 246.53,-659.107 257.123,-658.907 254.686,-652.345"/>
</g>
<!-- Node12 -->
<g id="node12" class="node"><title>Node12</title>
<g id="a_node12"><a xlink:href="de/d01/classO2MessageMonitor.html" target="_top" xlink:title="O2MessageMonitor">
<polygon fill="none" stroke="black" points="340.5,-488.5 340.5,-507.5 441.5,-507.5 441.5,-488.5 340.5,-488.5"/>
<text text-anchor="middle" x="391" y="-495.5" font-family="Helvetica,sans-Serif" font-size="10.00">O2MessageMonitor</text>
</a>
</g>
</g>
<!-- Node4&#45;&gt;Node12 -->
<g id="edge11" class="edge"><title>Node4&#45;&gt;Node12</title>
<path fill="none" stroke="midnightblue" d="M256.024,-656.617C261.909,-653.93 267.391,-650.463 272,-646 314.456,-604.892 265.489,-559.051 308,-518 316.749,-509.551 328.444,-504.479 340.256,-501.481"/>
<polygon fill="midnightblue" stroke="midnightblue" points="254.62,-653.406 246.514,-660.228 257.105,-659.951 254.62,-653.406"/>
</g>
</g>
</svg>
