<?xml version="1.0" encoding="UTF-8" standalone="no"?>
<!DOCTYPE svg PUBLIC "-//W3C//DTD SVG 1.1//EN"
 "http://www.w3.org/Graphics/SVG/1.1/DTD/svg11.dtd">
<!-- Generated by graphviz version 2.36.0 (20140111.2315)
 -->
<!-- Title: o2::ITS::CA::ClusterLines Pages: 1 -->
<svg width="404pt" height="250pt"
 viewBox="0.00 0.00 404.00 250.00" xmlns="http://www.w3.org/2000/svg" xmlns:xlink="http://www.w3.org/1999/xlink">
<g id="graph0" class="graph" transform="scale(1 1) rotate(0) translate(4 246)">
<title>o2::ITS::CA::ClusterLines</title>
<!-- Node1 -->
<g id="node1" class="node"><title>Node1</title>
<polygon fill="#bfbfbf" stroke="black" points="127.5,-1 127.5,-113 264.5,-113 264.5,-1 127.5,-1"/>
<text text-anchor="middle" x="196" y="-101" font-family="Helvetica,sans-Serif" font-size="10.00">o2::ITS::CA::ClusterLines</text>
<polyline fill="none" stroke="black" points="127.5,-94 264.5,-94 "/>
<text text-anchor="middle" x="196" y="-82" font-family="Helvetica,sans-Serif" font-size="10.00"> </text>
<polyline fill="none" stroke="black" points="127.5,-75 264.5,-75 "/>
<text text-anchor="start" x="135.5" y="-63" font-family="Helvetica,sans-Serif" font-size="10.00">+ ClusterLines()</text>
<text text-anchor="start" x="135.5" y="-52" font-family="Helvetica,sans-Serif" font-size="10.00">+ add()</text>
<text text-anchor="start" x="135.5" y="-41" font-family="Helvetica,sans-Serif" font-size="10.00">+ computeClusterCentroid()</text>
<text text-anchor="start" x="135.5" y="-30" font-family="Helvetica,sans-Serif" font-size="10.00">+ getLabels()</text>
<text text-anchor="start" x="135.5" y="-19" font-family="Helvetica,sans-Serif" font-size="10.00">+ getSize()</text>
<text text-anchor="start" x="135.5" y="-8" font-family="Helvetica,sans-Serif" font-size="10.00">+ getVertex()</text>
</g>
<!-- Node2 -->
<g id="node2" class="node"><title>Node2</title>
<polygon fill="none" stroke="#bfbfbf" points="0,-184.5 0,-241.5 86,-241.5 86,-184.5 0,-184.5"/>
<text text-anchor="middle" x="43" y="-229.5" font-family="Helvetica,sans-Serif" font-size="10.00">array&lt; float, 6 &gt;</text>
<polyline fill="none" stroke="#bfbfbf" points="0,-222.5 86,-222.5 "/>
<text text-anchor="middle" x="43" y="-210.5" font-family="Helvetica,sans-Serif" font-size="10.00"> </text>
<polyline fill="none" stroke="#bfbfbf" points="0,-203.5 86,-203.5 "/>
<text text-anchor="middle" x="43" y="-191.5" font-family="Helvetica,sans-Serif" font-size="10.00"> </text>
</g>
<!-- Node2&#45;&gt;Node1 -->
<g id="edge1" class="edge"><title>Node2&#45;&gt;Node1</title>
<path fill="none" stroke="#404040" d="M54.6276,-184.42C62.4518,-167.986 73.905,-147.398 88,-132 96.7536,-122.437 106.968,-113.462 117.558,-105.287"/>
<polygon fill="none" stroke="#404040" points="117.723,-105.165 120.155,-98.3763 127.357,-98.011 124.924,-104.799 117.723,-105.165"/>
<text text-anchor="middle" x="113.5" y="-146.5" font-family="Helvetica,sans-Serif" font-size="10.00"> #mAMatrix</text>
</g>
<!-- Node3 -->
<g id="node3" class="node"><title>Node3</title>
<polygon fill="none" stroke="#bfbfbf" points="104,-184.5 104,-241.5 190,-241.5 190,-184.5 104,-184.5"/>
<text text-anchor="middle" x="147" y="-229.5" font-family="Helvetica,sans-Serif" font-size="10.00">array&lt; float, 9 &gt;</text>
<polyline fill="none" stroke="#bfbfbf" points="104,-222.5 190,-222.5 "/>
<text text-anchor="middle" x="147" y="-210.5" font-family="Helvetica,sans-Serif" font-size="10.00"> </text>
<polyline fill="none" stroke="#bfbfbf" points="104,-203.5 190,-203.5 "/>
<text text-anchor="middle" x="147" y="-191.5" font-family="Helvetica,sans-Serif" font-size="10.00"> </text>
</g>
<!-- Node3&#45;&gt;Node1 -->
<g id="edge2" class="edge"><title>Node3&#45;&gt;Node1</title>
<path fill="none" stroke="#404040" d="M143.612,-184.393C142.603,-168.704 142.889,-148.884 148,-132 148.775,-129.44 149.668,-126.884 150.659,-124.345"/>
<polygon fill="none" stroke="#404040" points="150.676,-124.306 149.471,-117.196 155.57,-113.349 156.775,-120.459 150.676,-124.306"/>
<text text-anchor="middle" x="185.5" y="-146.5" font-family="Helvetica,sans-Serif" font-size="10.00"> #mWeightMatrix</text>
</g>
<!-- Node4 -->
<g id="node4" class="node"><title>Node4</title>
<polygon fill="none" stroke="#bfbfbf" points="209,-184.5 209,-241.5 281,-241.5 281,-184.5 209,-184.5"/>
<text text-anchor="middle" x="245" y="-229.5" font-family="Helvetica,sans-Serif" font-size="10.00">vector&lt; int &gt;</text>
<polyline fill="none" stroke="#bfbfbf" points="209,-222.5 281,-222.5 "/>
<text text-anchor="middle" x="245" y="-210.5" font-family="Helvetica,sans-Serif" font-size="10.00"> </text>
<polyline fill="none" stroke="#bfbfbf" points="209,-203.5 281,-203.5 "/>
<text text-anchor="middle" x="245" y="-191.5" font-family="Helvetica,sans-Serif" font-size="10.00"> </text>
</g>
<!-- Node4&#45;&gt;Node1 -->
<g id="edge3" class="edge"><title>Node4&#45;&gt;Node1</title>
<path fill="none" stroke="#404040" d="M238.014,-184.438C233.937,-168.939 228.521,-149.289 223,-132 222.236,-129.608 221.443,-127.179 220.629,-124.73"/>
<polygon fill="none" stroke="#404040" points="220.567,-124.548 214.844,-120.16 216.694,-113.19 222.416,-117.578 220.567,-124.548"/>
<text text-anchor="middle" x="255" y="-146.5" font-family="Helvetica,sans-Serif" font-size="10.00"> #mLabels</text>
</g>
<!-- Node5 -->
<g id="node5" class="node"><title>Node5</title>
<polygon fill="none" stroke="#bfbfbf" points="299,-184.5 299,-241.5 385,-241.5 385,-184.5 299,-184.5"/>
<text text-anchor="middle" x="342" y="-229.5" font-family="Helvetica,sans-Serif" font-size="10.00">array&lt; float, 3 &gt;</text>
<polyline fill="none" stroke="#bfbfbf" points="299,-222.5 385,-222.5 "/>
<text text-anchor="middle" x="342" y="-210.5" font-family="Helvetica,sans-Serif" font-size="10.00"> </text>
<polyline fill="none" stroke="#bfbfbf" points="299,-203.5 385,-203.5 "/>
<text text-anchor="middle" x="342" y="-191.5" font-family="Helvetica,sans-Serif" font-size="10.00"> </text>
</g>
<!-- Node5&#45;&gt;Node1 -->
<g id="edge4" class="edge"><title>Node5&#45;&gt;Node1</title>
<path fill="none" stroke="#404040" d="M323.384,-184.173C312.178,-168.231 297.178,-148.231 282,-132 278.763,-128.538 275.374,-125.073 271.892,-121.637"/>
<polygon fill="none" stroke="#404040" points="271.729,-121.481 264.631,-120.211 263.073,-113.17 270.172,-114.44 271.729,-121.481"/>
<text text-anchor="middle" x="352.5" y="-157.5" font-family="Helvetica,sans-Serif" font-size="10.00"> #mVertex</text>
<text text-anchor="middle" x="352.5" y="-146.5" font-family="Helvetica,sans-Serif" font-size="10.00">#mVertexCandidate</text>
<text text-anchor="middle" x="352.5" y="-135.5" font-family="Helvetica,sans-Serif" font-size="10.00">#mBMatrix</text>
</g>
</g>
</svg>
