<?xml version="1.0" encoding="UTF-8" standalone="no"?>
<!DOCTYPE svg PUBLIC "-//W3C//DTD SVG 1.1//EN"
 "http://www.w3.org/Graphics/SVG/1.1/DTD/svg11.dtd">
<!-- Generated by graphviz version 2.36.0 (20140111.2315)
 -->
<!-- Title: /home/travis/build/AliceO2Group/AliceO2/Detectors/ITSMFT/common/reconstruction/include/ITSMFTReconstruction/BuildTopologyDictionary.h Pages: 1 -->
<!--zoomable 548 -->
<svg id="main" version="1.1" xmlns="http://www.w3.org/2000/svg" xmlns:xlink="http://www.w3.org/1999/xlink" xml:space="preserve" onload="init(evt)">
<style type="text/css"><![CDATA[
.edge:hover path { stroke: red; }
.edge:hover polygon { stroke: red; fill: red; }
]]></style>
<script type="text/javascript"><![CDATA[
var edges = document.getElementsByTagName('g');
if (edges && edges.length) {
  for (var i=0;i<edges.length;i++) {
    if (edges[i].id.substr(0,4)=='edge') {
      edges[i].setAttribute('class','edge');
    }
  }
}
]]></script>
        <defs>
                <circle id="rim" cx="0" cy="0" r="7"/>
                <circle id="rim2" cx="0" cy="0" r="3.5"/>
                <g id="zoomPlus">
                        <use xlink:href="#rim" fill="#404040">
                                <set attributeName="fill" to="#808080" begin="zoomplus.mouseover" end="zoomplus.mouseout"/>
                        </use>
                        <path d="M-4,0h8M0,-4v8" fill="none" stroke="white" stroke-width="1.5" pointer-events="none"/>
                </g>
                <g id="zoomMin">
                        <use xlink:href="#rim" fill="#404040">
                                <set attributeName="fill" to="#808080" begin="zoomminus.mouseover" end="zoomminus.mouseout"/>
                        </use>
                        <path d="M-4,0h8" fill="none" stroke="white" stroke-width="1.5" pointer-events="none"/>
                </g>
                <g id="dirArrow">
                        <path fill="none" stroke="white" stroke-width="1.5" d="M0,-3.0v7 M-2.5,-0.5L0,-3.0L2.5,-0.5"/>
                </g>
               <g id="resetDef">
                       <use xlink:href="#rim2" fill="#404040">
                               <set attributeName="fill" to="#808080" begin="reset.mouseover" end="reset.mouseout"/>
                       </use>
               </g>
        </defs>

<script type="text/javascript">
var viewWidth = 1861;
var viewHeight = 548;
var sectionId = 'dynsection-0';
</script>
<script xlink:href="../../svgpan.js"/>
<svg id="graph" class="graph">
<g id="viewport">
<title>/home/travis/build/AliceO2Group/AliceO2/Detectors/ITSMFT/common/reconstruction/include/ITSMFTReconstruction/BuildTopologyDictionary.h</title>
<!-- Node1 -->
<g id="node1" class="node"><title>Node1</title>
<polygon fill="#bfbfbf" stroke="black" points="430,-465 430,-539 616,-539 616,-465 430,-465"/>
<text text-anchor="start" x="438" y="-527" font-family="Helvetica,sans-Serif" font-size="10.00">/home/travis/build</text>
<text text-anchor="start" x="438" y="-516" font-family="Helvetica,sans-Serif" font-size="10.00">/AliceO2Group/AliceO2</text>
<text text-anchor="start" x="438" y="-505" font-family="Helvetica,sans-Serif" font-size="10.00">/Detectors/ITSMFT/common</text>
<text text-anchor="start" x="438" y="-494" font-family="Helvetica,sans-Serif" font-size="10.00">/reconstruction/include</text>
<text text-anchor="start" x="438" y="-483" font-family="Helvetica,sans-Serif" font-size="10.00">/ITSMFTReconstruction/BuildTopology</text>
<text text-anchor="middle" x="523" y="-472" font-family="Helvetica,sans-Serif" font-size="10.00">Dictionary.h</text>
</g>
<!-- Node2 -->
<g id="node2" class="node"><title>Node2</title>
<polygon fill="none" stroke="#bfbfbf" points="0,-402.5 0,-421.5 56,-421.5 56,-402.5 0,-402.5"/>
<text text-anchor="middle" x="28" y="-409.5" font-family="Helvetica,sans-Serif" font-size="10.00">algorithm</text>
</g>
<!-- Node1&#45;&gt;Node2 -->
<g id="edge1" class="edge"><title>Node1&#45;&gt;Node2</title>
<path fill="none" stroke="midnightblue" d="M429.578,-491.019C337.259,-479.973 192.486,-459.458 70,-428 66.4144,-427.079 62.7031,-425.979 59.0381,-424.799"/>
<polygon fill="midnightblue" stroke="midnightblue" points="60.1576,-421.483 49.563,-421.555 57.8905,-428.105 60.1576,-421.483"/>
</g>
<!-- Node3 -->
<g id="node3" class="node"><title>Node3</title>
<polygon fill="none" stroke="#bfbfbf" points="141,-6.5 141,-25.5 179,-25.5 179,-6.5 141,-6.5"/>
<text text-anchor="middle" x="160" y="-13.5" font-family="Helvetica,sans-Serif" font-size="10.00">array</text>
</g>
<!-- Node1&#45;&gt;Node3 -->
<g id="edge2" class="edge"><title>Node1&#45;&gt;Node3</title>
<path fill="none" stroke="midnightblue" d="M429.899,-488.355C301.035,-468.197 84,-423.487 84,-351 84,-351 84,-351 84,-151 84,-103.151 121.118,-56.7361 143.474,-33.1198"/>
<polygon fill="midnightblue" stroke="midnightblue" points="146.19,-35.3483 150.681,-25.7523 141.186,-30.4534 146.19,-35.3483"/>
</g>
<!-- Node4 -->
<g id="node4" class="node"><title>Node4</title>
<polygon fill="none" stroke="#bfbfbf" points="262.5,-402.5 262.5,-421.5 297.5,-421.5 297.5,-402.5 262.5,-402.5"/>
<text text-anchor="middle" x="280" y="-409.5" font-family="Helvetica,sans-Serif" font-size="10.00">map</text>
</g>
<!-- Node1&#45;&gt;Node4 -->
<g id="edge3" class="edge"><title>Node1&#45;&gt;Node4</title>
<path fill="none" stroke="midnightblue" d="M429.779,-471.104C392.788,-458.631 350.069,-443.458 312,-428 310.358,-427.333 308.68,-426.626 306.994,-425.897"/>
<polygon fill="midnightblue" stroke="midnightblue" points="308.012,-422.516 297.458,-421.589 305.131,-428.895 308.012,-422.516"/>
</g>
<!-- Node5 -->
<g id="node5" class="node"><title>Node5</title>
<polygon fill="none" stroke="#bfbfbf" points="955.5,-340.5 955.5,-359.5 1038.5,-359.5 1038.5,-340.5 955.5,-340.5"/>
<text text-anchor="middle" x="997" y="-347.5" font-family="Helvetica,sans-Serif" font-size="10.00">unordered_map</text>
</g>
<!-- Node1&#45;&gt;Node5 -->
<g id="edge4" class="edge"><title>Node1&#45;&gt;Node5</title>
<path fill="none" stroke="midnightblue" d="M616.082,-471.544C721.142,-438.297 886.927,-385.833 960.149,-362.662"/>
<polygon fill="midnightblue" stroke="midnightblue" points="961.373,-365.946 969.851,-359.591 959.261,-359.272 961.373,-365.946"/>
</g>
<!-- Node6 -->
<g id="node6" class="node"><title>Node6</title>
<g id="a_node6"><a xlink:href="../../d3/dba/SegmentationAlpide_8h.html" target="_top" xlink:title="Definition of the SegmentationAlpide class. ">
<polygon fill="none" stroke="black" points="313.5,-278.5 313.5,-297.5 486.5,-297.5 486.5,-278.5 313.5,-278.5"/>
<text text-anchor="middle" x="400" y="-285.5" font-family="Helvetica,sans-Serif" font-size="10.00">ITSMFTBase/SegmentationAlpide.h</text>
</a>
</g>
</g>
<!-- Node1&#45;&gt;Node6 -->
<g id="edge5" class="edge"><title>Node1&#45;&gt;Node6</title>
<path fill="none" stroke="midnightblue" d="M501.856,-464.556C475.099,-418.439 430.096,-340.873 410.1,-306.409"/>
<polygon fill="midnightblue" stroke="midnightblue" points="412.997,-304.427 404.951,-297.534 406.942,-307.94 412.997,-304.427"/>
</g>
<!-- Node8 -->
<g id="node8" class="node"><title>Node8</title>
<g id="a_node8"><a xlink:href="../../d8/ddb/ClusterTopology_8h.html" target="_top" xlink:title="Definition of the ClusterTopology class. ">
<polygon fill="none" stroke="black" points="526,-397 526,-427 670,-427 670,-397 526,-397"/>
<text text-anchor="start" x="534" y="-415" font-family="Helvetica,sans-Serif" font-size="10.00">DataFormatsITSMFT/Cluster</text>
<text text-anchor="middle" x="598" y="-404" font-family="Helvetica,sans-Serif" font-size="10.00">Topology.h</text>
</a>
</g>
</g>
<!-- Node1&#45;&gt;Node8 -->
<g id="edge7" class="edge"><title>Node1&#45;&gt;Node8</title>
<path fill="none" stroke="midnightblue" d="M553.722,-464.953C562.394,-454.778 571.567,-444.015 579.3,-434.941"/>
<polygon fill="midnightblue" stroke="midnightblue" points="582.119,-437.029 585.942,-427.148 576.792,-432.488 582.119,-437.029"/>
</g>
<!-- Node37 -->
<g id="node37" class="node"><title>Node37</title>
<g id="a_node37"><a xlink:href="../../d1/d08/TopologyDictionary_8h.html" target="_top" xlink:title="Definition of the ClusterTopology class. ">
<polygon fill="none" stroke="black" points="956,-397 956,-427 1108,-427 1108,-397 956,-397"/>
<text text-anchor="start" x="964" y="-415" font-family="Helvetica,sans-Serif" font-size="10.00">DataFormatsITSMFT/Topology</text>
<text text-anchor="middle" x="1032" y="-404" font-family="Helvetica,sans-Serif" font-size="10.00">Dictionary.h</text>
</a>
</g>
</g>
<!-- Node1&#45;&gt;Node37 -->
<g id="edge48" class="edge"><title>Node1&#45;&gt;Node37</title>
<path fill="none" stroke="midnightblue" d="M616.062,-484.911C710.075,-468.657 854.143,-443.749 945.673,-427.925"/>
<polygon fill="midnightblue" stroke="midnightblue" points="946.482,-431.337 955.74,-426.185 945.289,-424.439 946.482,-431.337"/>
</g>
<!-- Node39 -->
<g id="node39" class="node"><title>Node39</title>
<polygon fill="none" stroke="#bfbfbf" points="1126,-402.5 1126,-421.5 1176,-421.5 1176,-402.5 1126,-402.5"/>
<text text-anchor="middle" x="1151" y="-409.5" font-family="Helvetica,sans-Serif" font-size="10.00">TH1F.h</text>
</g>
<!-- Node1&#45;&gt;Node39 -->
<g id="edge55" class="edge"><title>Node1&#45;&gt;Node39</title>
<path fill="none" stroke="midnightblue" d="M616.211,-497.964C734.58,-492.206 944.211,-475.614 1117,-428 1119.5,-427.31 1122.06,-426.466 1124.59,-425.534"/>
<polygon fill="midnightblue" stroke="midnightblue" points="1126.15,-428.68 1134.06,-421.639 1123.48,-422.206 1126.15,-428.68"/>
</g>
<!-- Node7 -->
<g id="node7" class="node"><title>Node7</title>
<polygon fill="none" stroke="#bfbfbf" points="606,-74.5 606,-93.5 662,-93.5 662,-74.5 606,-74.5"/>
<text text-anchor="middle" x="634" y="-81.5" font-family="Helvetica,sans-Serif" font-size="10.00">Rtypes.h</text>
</g>
<!-- Node6&#45;&gt;Node7 -->
<g id="edge6" class="edge"><title>Node6&#45;&gt;Node7</title>
<path fill="none" stroke="midnightblue" d="M404.454,-278.238C417.75,-252.867 459.634,-178.456 514,-136 517.786,-133.044 569.309,-111.586 603.6,-97.4611"/>
<polygon fill="midnightblue" stroke="midnightblue" points="605.271,-100.558 613.189,-93.5175 602.609,-94.0843 605.271,-100.558"/>
</g>
<!-- Node8&#45;&gt;Node3 -->
<g id="edge9" class="edge"><title>Node8&#45;&gt;Node3</title>
<path fill="none" stroke="midnightblue" d="M525.774,-397.712C462.247,-383.183 369.885,-354.874 304,-304 216.764,-236.64 197.718,-204.605 163,-100 155.988,-78.8736 156.342,-53.0445 157.728,-35.8669"/>
<polygon fill="midnightblue" stroke="midnightblue" points="161.25,-35.8225 158.775,-25.521 154.286,-35.1179 161.25,-35.8225"/>
</g>
<!-- Node8&#45;&gt;Node7 -->
<g id="edge8" class="edge"><title>Node8&#45;&gt;Node7</title>
<path fill="none" stroke="midnightblue" d="M583.155,-396.749C562.607,-375.413 528,-332.955 528,-289 528,-289 528,-289 528,-219 528,-165.815 579.998,-121.397 611.157,-99.5552"/>
<polygon fill="midnightblue" stroke="midnightblue" points="613.391,-102.269 619.704,-93.7603 609.463,-96.4747 613.391,-102.269"/>
</g>
<!-- Node9 -->
<g id="node9" class="node"><title>Node9</title>
<polygon fill="none" stroke="#bfbfbf" points="1799,-74.5 1799,-93.5 1853,-93.5 1853,-74.5 1799,-74.5"/>
<text text-anchor="middle" x="1826" y="-81.5" font-family="Helvetica,sans-Serif" font-size="10.00">iostream</text>
</g>
<!-- Node8&#45;&gt;Node9 -->
<g id="edge10" class="edge"><title>Node8&#45;&gt;Node9</title>
<path fill="none" stroke="midnightblue" d="M644.623,-396.995C675.407,-387.397 716.469,-373.925 752,-360 807.924,-338.082 821.436,-331.18 875,-304 1010.93,-235.025 1027.73,-178.878 1174,-136 1437.17,-58.8561 1522.76,-161.609 1790,-100 1793.07,-99.2927 1796.21,-98.3475 1799.3,-97.274"/>
<polygon fill="midnightblue" stroke="midnightblue" points="1800.78,-100.451 1808.81,-93.5427 1798.23,-93.9343 1800.78,-100.451"/>
</g>
<!-- Node10 -->
<g id="node10" class="node"><title>Node10</title>
<polygon fill="none" stroke="#bfbfbf" points="896.5,-340.5 896.5,-359.5 937.5,-359.5 937.5,-340.5 896.5,-340.5"/>
<text text-anchor="middle" x="917" y="-347.5" font-family="Helvetica,sans-Serif" font-size="10.00">string</text>
</g>
<!-- Node8&#45;&gt;Node10 -->
<g id="edge11" class="edge"><title>Node8&#45;&gt;Node10</title>
<path fill="none" stroke="midnightblue" d="M670.073,-399.571C727.653,-390.077 810.297,-375.635 882,-360 883.456,-359.683 884.943,-359.347 886.443,-358.998"/>
<polygon fill="midnightblue" stroke="midnightblue" points="887.447,-362.356 896.332,-356.585 885.788,-355.555 887.447,-362.356"/>
</g>
<!-- Node11 -->
<g id="node11" class="node"><title>Node11</title>
<g id="a_node11"><a xlink:href="../../d1/d62/DataFormats_2Detectors_2ITSMFT_2common_2include_2DataFormatsITSMFT_2Cluster_8h.html" target="_top" xlink:title="DataFormatsITSMFT/Cluster.h">
<polygon fill="none" stroke="black" points="591,-340.5 591,-359.5 743,-359.5 743,-340.5 591,-340.5"/>
<text text-anchor="middle" x="667" y="-347.5" font-family="Helvetica,sans-Serif" font-size="10.00">DataFormatsITSMFT/Cluster.h</text>
</a>
</g>
</g>
<!-- Node8&#45;&gt;Node11 -->
<g id="edge12" class="edge"><title>Node8&#45;&gt;Node11</title>
<path fill="none" stroke="midnightblue" d="M614.352,-396.781C624.895,-387.613 638.6,-375.696 649.384,-366.319"/>
<polygon fill="midnightblue" stroke="midnightblue" points="651.71,-368.933 656.96,-359.731 647.117,-363.651 651.71,-368.933"/>
</g>
<!-- Node12 -->
<g id="node12" class="node"><title>Node12</title>
<g id="a_node12"><a xlink:href="../../d4/de2/BaseCluster_8h.html" target="_top" xlink:title="ReconstructionDataFormats\l/BaseCluster.h">
<polygon fill="none" stroke="black" points="726,-273 726,-303 866,-303 866,-273 726,-273"/>
<text text-anchor="start" x="734" y="-291" font-family="Helvetica,sans-Serif" font-size="10.00">ReconstructionDataFormats</text>
<text text-anchor="middle" x="796" y="-280" font-family="Helvetica,sans-Serif" font-size="10.00">/BaseCluster.h</text>
</a>
</g>
</g>
<!-- Node11&#45;&gt;Node12 -->
<g id="edge13" class="edge"><title>Node11&#45;&gt;Node12</title>
<path fill="none" stroke="midnightblue" d="M685.483,-340.403C703.934,-331.822 732.867,-318.364 756.502,-307.371"/>
<polygon fill="midnightblue" stroke="midnightblue" points="758.006,-310.532 765.597,-303.141 755.054,-304.185 758.006,-310.532"/>
</g>
<!-- Node12&#45;&gt;Node9 -->
<g id="edge18" class="edge"><title>Node12&#45;&gt;Node9</title>
<path fill="none" stroke="midnightblue" d="M847.888,-272.974C874.934,-264.446 907.925,-252.078 935,-236 963.975,-218.794 1017.76,-148.634 1049,-136 1201.84,-74.1908 1629.17,-136.246 1790,-100 1793.07,-99.3078 1796.21,-98.3722 1799.3,-97.3044"/>
<polygon fill="midnightblue" stroke="midnightblue" points="1800.78,-100.483 1808.82,-93.5792 1798.23,-93.9643 1800.78,-100.483"/>
</g>
<!-- Node13 -->
<g id="node13" class="node"><title>Node13</title>
<polygon fill="none" stroke="#bfbfbf" points="730.5,-210.5 730.5,-229.5 789.5,-229.5 789.5,-210.5 730.5,-210.5"/>
<text text-anchor="middle" x="760" y="-217.5" font-family="Helvetica,sans-Serif" font-size="10.00">TObject.h</text>
</g>
<!-- Node12&#45;&gt;Node13 -->
<g id="edge14" class="edge"><title>Node12&#45;&gt;Node13</title>
<path fill="none" stroke="midnightblue" d="M788.189,-272.679C782.742,-262.694 775.44,-249.307 769.633,-238.66"/>
<polygon fill="midnightblue" stroke="midnightblue" points="772.677,-236.931 764.815,-229.828 766.531,-240.283 772.677,-236.931"/>
</g>
<!-- Node14 -->
<g id="node14" class="node"><title>Node14</title>
<polygon fill="none" stroke="#bfbfbf" points="188.5,-74.5 188.5,-93.5 229.5,-93.5 229.5,-74.5 188.5,-74.5"/>
<text text-anchor="middle" x="209" y="-81.5" font-family="Helvetica,sans-Serif" font-size="10.00">bitset</text>
</g>
<!-- Node12&#45;&gt;Node14 -->
<g id="edge15" class="edge"><title>Node12&#45;&gt;Node14</title>
<path fill="none" stroke="midnightblue" d="M725.958,-287.372C617.883,-284.645 408.12,-265.903 266,-168 242.315,-151.684 225.53,-122.056 216.559,-102.967"/>
<polygon fill="midnightblue" stroke="midnightblue" points="219.652,-101.308 212.385,-93.598 213.258,-104.157 219.652,-101.308"/>
</g>
<!-- Node15 -->
<g id="node15" class="node"><title>Node15</title>
<polygon fill="none" stroke="#bfbfbf" points="808,-210.5 808,-229.5 858,-229.5 858,-210.5 808,-210.5"/>
<text text-anchor="middle" x="833" y="-217.5" font-family="Helvetica,sans-Serif" font-size="10.00">iomanip</text>
</g>
<!-- Node12&#45;&gt;Node15 -->
<g id="edge16" class="edge"><title>Node12&#45;&gt;Node15</title>
<path fill="none" stroke="midnightblue" d="M804.028,-272.679C809.626,-262.694 817.131,-249.307 823.1,-238.66"/>
<polygon fill="midnightblue" stroke="midnightblue" points="826.214,-240.263 828.051,-229.828 820.108,-236.84 826.214,-240.263"/>
</g>
<!-- Node16 -->
<g id="node16" class="node"><title>Node16</title>
<polygon fill="none" stroke="#bfbfbf" points="876.5,-210.5 876.5,-229.5 905.5,-229.5 905.5,-210.5 876.5,-210.5"/>
<text text-anchor="middle" x="891" y="-217.5" font-family="Helvetica,sans-Serif" font-size="10.00">ios</text>
</g>
<!-- Node12&#45;&gt;Node16 -->
<g id="edge17" class="edge"><title>Node12&#45;&gt;Node16</title>
<path fill="none" stroke="midnightblue" d="M816.614,-272.679C832.397,-261.713 854.087,-246.645 869.973,-235.609"/>
<polygon fill="midnightblue" stroke="midnightblue" points="872.351,-238.218 878.567,-229.638 868.357,-232.469 872.351,-238.218"/>
</g>
<!-- Node17 -->
<g id="node17" class="node"><title>Node17</title>
<g id="a_node17"><a xlink:href="../../d4/d20/DetMatrixCache_8h.html" target="_top" xlink:title="DetectorsCommonDataFormats\l/DetMatrixCache.h">
<polygon fill="none" stroke="black" points="556,-205 556,-235 712,-235 712,-205 556,-205"/>
<text text-anchor="start" x="564" y="-223" font-family="Helvetica,sans-Serif" font-size="10.00">DetectorsCommonDataFormats</text>
<text text-anchor="middle" x="634" y="-212" font-family="Helvetica,sans-Serif" font-size="10.00">/DetMatrixCache.h</text>
</a>
</g>
</g>
<!-- Node12&#45;&gt;Node17 -->
<g id="edge19" class="edge"><title>Node12&#45;&gt;Node17</title>
<path fill="none" stroke="midnightblue" d="M761.247,-272.841C736.82,-262.89 703.956,-249.5 677.745,-238.822"/>
<polygon fill="midnightblue" stroke="midnightblue" points="678.999,-235.554 668.417,-235.022 676.358,-242.036 678.999,-235.554"/>
</g>
<!-- Node27 -->
<g id="node27" class="node"><title>Node27</title>
<g id="a_node27"><a xlink:href="../../dd/d76/Cartesian3D_8h.html" target="_top" xlink:title="MathUtils/Cartesian3D.h">
<polygon fill="none" stroke="black" points="871.5,-142.5 871.5,-161.5 996.5,-161.5 996.5,-142.5 871.5,-142.5"/>
<text text-anchor="middle" x="934" y="-149.5" font-family="Helvetica,sans-Serif" font-size="10.00">MathUtils/Cartesian3D.h</text>
</a>
</g>
</g>
<!-- Node12&#45;&gt;Node27 -->
<g id="edge47" class="edge"><title>Node12&#45;&gt;Node27</title>
<path fill="none" stroke="midnightblue" d="M856.203,-272.97C877.204,-265.278 899.197,-253.587 914,-236 929.176,-217.969 933.216,-190.318 934.098,-171.953"/>
<polygon fill="midnightblue" stroke="midnightblue" points="937.599,-171.958 934.311,-161.886 930.6,-171.81 937.599,-171.958"/>
</g>
<!-- Node17&#45;&gt;Node3 -->
<g id="edge21" class="edge"><title>Node17&#45;&gt;Node3</title>
<path fill="none" stroke="midnightblue" d="M555.622,-212.943C463.487,-204.99 316.707,-189.473 266,-168 220.808,-148.863 205.326,-141.418 179,-100 166.576,-80.4533 162.242,-53.7428 160.75,-35.9591"/>
<polygon fill="midnightblue" stroke="midnightblue" points="164.228,-35.4941 160.123,-25.7269 157.241,-35.9222 164.228,-35.4941"/>
</g>
<!-- Node17&#45;&gt;Node7 -->
<g id="edge46" class="edge"><title>Node17&#45;&gt;Node7</title>
<path fill="none" stroke="midnightblue" d="M634,-204.66C634,-180.32 634,-130.933 634,-103.837"/>
<polygon fill="midnightblue" stroke="midnightblue" points="637.5,-103.727 634,-93.7275 630.5,-103.728 637.5,-103.727"/>
</g>
<!-- Node18 -->
<g id="node18" class="node"><title>Node18</title>
<polygon fill="none" stroke="#bfbfbf" points="662.5,-142.5 662.5,-161.5 733.5,-161.5 733.5,-142.5 662.5,-142.5"/>
<text text-anchor="middle" x="698" y="-149.5" font-family="Helvetica,sans-Serif" font-size="10.00">FairLogger.h</text>
</g>
<!-- Node17&#45;&gt;Node18 -->
<g id="edge20" class="edge"><title>Node17&#45;&gt;Node18</title>
<path fill="none" stroke="midnightblue" d="M647.887,-204.679C658.064,-194.184 671.884,-179.932 682.434,-169.052"/>
<polygon fill="midnightblue" stroke="midnightblue" points="684.99,-171.444 689.439,-161.828 679.965,-166.571 684.99,-171.444"/>
</g>
<!-- Node19 -->
<g id="node19" class="node"><title>Node19</title>
<polygon fill="none" stroke="#bfbfbf" points="762,-142.5 762,-161.5 806,-161.5 806,-142.5 762,-142.5"/>
<text text-anchor="middle" x="784" y="-149.5" font-family="Helvetica,sans-Serif" font-size="10.00">vector</text>
</g>
<!-- Node17&#45;&gt;Node19 -->
<g id="edge22" class="edge"><title>Node17&#45;&gt;Node19</title>
<path fill="none" stroke="midnightblue" d="M666.179,-204.841C692.473,-193.272 729.328,-177.055 754.785,-165.855"/>
<polygon fill="midnightblue" stroke="midnightblue" points="756.525,-168.913 764.268,-161.682 753.706,-162.506 756.525,-168.913"/>
</g>
<!-- Node20 -->
<g id="node20" class="node"><title>Node20</title>
<g id="a_node20"><a xlink:href="../../d6/d31/DetID_8h.html" target="_top" xlink:title="DetectorsCommonDataFormats\l/DetID.h">
<polygon fill="none" stroke="black" points="275,-137 275,-167 431,-167 431,-137 275,-137"/>
<text text-anchor="start" x="283" y="-155" font-family="Helvetica,sans-Serif" font-size="10.00">DetectorsCommonDataFormats</text>
<text text-anchor="middle" x="353" y="-144" font-family="Helvetica,sans-Serif" font-size="10.00">/DetID.h</text>
</a>
</g>
</g>
<!-- Node17&#45;&gt;Node20 -->
<g id="edge23" class="edge"><title>Node17&#45;&gt;Node20</title>
<path fill="none" stroke="midnightblue" d="M574.063,-204.922C529.764,-194.518 469.326,-180.322 422.84,-169.404"/>
<polygon fill="midnightblue" stroke="midnightblue" points="423.38,-165.935 412.845,-167.056 421.78,-172.75 423.38,-165.935"/>
</g>
<!-- Node17&#45;&gt;Node27 -->
<g id="edge34" class="edge"><title>Node17&#45;&gt;Node27</title>
<path fill="none" stroke="midnightblue" d="M697.99,-204.922C754.132,-192.571 834.554,-174.878 885.517,-163.666"/>
<polygon fill="midnightblue" stroke="midnightblue" points="886.287,-167.081 895.301,-161.514 884.783,-160.244 886.287,-167.081"/>
</g>
<!-- Node20&#45;&gt;Node3 -->
<g id="edge25" class="edge"><title>Node20&#45;&gt;Node3</title>
<path fill="none" stroke="midnightblue" d="M330.662,-136.819C315.31,-126.877 294.6,-113.079 277,-100 259.004,-86.6267 256.076,-81.2655 238,-68 219.9,-54.7167 198.504,-40.849 182.704,-30.9334"/>
<polygon fill="midnightblue" stroke="midnightblue" points="184.454,-27.9 174.114,-25.5862 180.754,-33.8425 184.454,-27.9"/>
</g>
<!-- Node20&#45;&gt;Node7 -->
<g id="edge24" class="edge"><title>Node20&#45;&gt;Node7</title>
<path fill="none" stroke="midnightblue" d="M431.094,-138.359C479.428,-129.631 542.456,-116.61 597,-100 599.644,-99.1948 602.362,-98.2766 605.067,-97.3"/>
<polygon fill="midnightblue" stroke="midnightblue" points="606.578,-100.469 614.649,-93.6054 604.06,-93.9372 606.578,-100.469"/>
</g>
<!-- Node20&#45;&gt;Node14 -->
<g id="edge26" class="edge"><title>Node20&#45;&gt;Node14</title>
<path fill="none" stroke="midnightblue" d="M322.108,-136.841C296.866,-125.272 261.485,-109.055 237.047,-97.8547"/>
<polygon fill="midnightblue" stroke="midnightblue" points="238.491,-94.6668 227.942,-93.6819 235.575,-101.03 238.491,-94.6668"/>
</g>
<!-- Node21 -->
<g id="node21" class="node"><title>Node21</title>
<polygon fill="none" stroke="#bfbfbf" points="286.5,-74.5 286.5,-93.5 335.5,-93.5 335.5,-74.5 286.5,-74.5"/>
<text text-anchor="middle" x="311" y="-81.5" font-family="Helvetica,sans-Serif" font-size="10.00">cassert</text>
</g>
<!-- Node20&#45;&gt;Node21 -->
<g id="edge27" class="edge"><title>Node20&#45;&gt;Node21</title>
<path fill="none" stroke="midnightblue" d="M343.887,-136.679C337.468,-126.592 328.839,-113.033 322.031,-102.335"/>
<polygon fill="midnightblue" stroke="midnightblue" points="324.94,-100.386 316.618,-93.8283 319.034,-104.144 324.94,-100.386"/>
</g>
<!-- Node22 -->
<g id="node22" class="node"><title>Node22</title>
<polygon fill="none" stroke="#bfbfbf" points="354,-74.5 354,-93.5 400,-93.5 400,-74.5 354,-74.5"/>
<text text-anchor="middle" x="377" y="-81.5" font-family="Helvetica,sans-Serif" font-size="10.00">cstdint</text>
</g>
<!-- Node20&#45;&gt;Node22 -->
<g id="edge28" class="edge"><title>Node20&#45;&gt;Node22</title>
<path fill="none" stroke="midnightblue" d="M358.208,-136.679C361.765,-126.898 366.509,-113.852 370.34,-103.315"/>
<polygon fill="midnightblue" stroke="midnightblue" points="373.661,-104.422 373.79,-93.8283 367.083,-102.03 373.661,-104.422"/>
</g>
<!-- Node23 -->
<g id="node23" class="node"><title>Node23</title>
<polygon fill="none" stroke="#bfbfbf" points="418,-74.5 418,-93.5 480,-93.5 480,-74.5 418,-74.5"/>
<text text-anchor="middle" x="449" y="-81.5" font-family="Helvetica,sans-Serif" font-size="10.00">type_traits</text>
</g>
<!-- Node20&#45;&gt;Node23 -->
<g id="edge29" class="edge"><title>Node20&#45;&gt;Node23</title>
<path fill="none" stroke="midnightblue" d="M373.831,-136.679C389.78,-125.713 411.698,-110.645 427.751,-99.6085"/>
<polygon fill="midnightblue" stroke="midnightblue" points="430.178,-102.187 436.436,-93.6379 426.213,-96.4191 430.178,-102.187"/>
</g>
<!-- Node24 -->
<g id="node24" class="node"><title>Node24</title>
<g id="a_node24"><a xlink:href="../../d9/d52/Common_2MathUtils_2include_2MathUtils_2Utils_8h.html" target="_top" xlink:title="MathUtils/Utils.h">
<polygon fill="none" stroke="black" points="498,-74.5 498,-93.5 588,-93.5 588,-74.5 498,-74.5"/>
<text text-anchor="middle" x="543" y="-81.5" font-family="Helvetica,sans-Serif" font-size="10.00">MathUtils/Utils.h</text>
</a>
</g>
</g>
<!-- Node20&#45;&gt;Node24 -->
<g id="edge30" class="edge"><title>Node20&#45;&gt;Node24</title>
<path fill="none" stroke="midnightblue" d="M393.76,-136.841C428.049,-124.93 476.517,-108.094 508.811,-96.8762"/>
<polygon fill="midnightblue" stroke="midnightblue" points="509.983,-100.174 518.28,-93.5868 507.686,-93.562 509.983,-100.174"/>
</g>
<!-- Node24&#45;&gt;Node3 -->
<g id="edge31" class="edge"><title>Node24&#45;&gt;Node3</title>
<path fill="none" stroke="midnightblue" d="M514.034,-74.4474C505.679,-72.1583 496.518,-69.8178 488,-68 378.929,-44.7235 247.319,-27.4938 189.58,-20.4707"/>
<polygon fill="midnightblue" stroke="midnightblue" points="189.709,-16.961 179.362,-19.2411 188.873,-23.9109 189.709,-16.961"/>
</g>
<!-- Node25 -->
<g id="node25" class="node"><title>Node25</title>
<polygon fill="none" stroke="#bfbfbf" points="586,-6.5 586,-25.5 630,-25.5 630,-6.5 586,-6.5"/>
<text text-anchor="middle" x="608" y="-13.5" font-family="Helvetica,sans-Serif" font-size="10.00">cmath</text>
</g>
<!-- Node24&#45;&gt;Node25 -->
<g id="edge32" class="edge"><title>Node24&#45;&gt;Node25</title>
<path fill="none" stroke="midnightblue" d="M551.498,-74.3717C561.757,-63.9547 579.225,-46.2173 592.029,-33.2162"/>
<polygon fill="midnightblue" stroke="midnightblue" points="594.77,-35.4219 599.293,-25.8411 589.782,-30.5101 594.77,-35.4219"/>
</g>
<!-- Node26 -->
<g id="node26" class="node"><title>Node26</title>
<g id="a_node26"><a xlink:href="../../d6/d84/MathConstants_8h.html" target="_top" xlink:title="useful math constants ">
<polygon fill="none" stroke="black" points="388.5,-6.5 388.5,-25.5 567.5,-25.5 567.5,-6.5 388.5,-6.5"/>
<text text-anchor="middle" x="478" y="-13.5" font-family="Helvetica,sans-Serif" font-size="10.00">CommonConstants/MathConstants.h</text>
</a>
</g>
</g>
<!-- Node24&#45;&gt;Node26 -->
<g id="edge33" class="edge"><title>Node24&#45;&gt;Node26</title>
<path fill="none" stroke="midnightblue" d="M534.502,-74.3717C524.243,-63.9547 506.775,-46.2173 493.971,-33.2162"/>
<polygon fill="midnightblue" stroke="midnightblue" points="496.218,-30.5101 486.707,-25.8411 491.23,-35.4219 496.218,-30.5101"/>
</g>
<!-- Node27&#45;&gt;Node7 -->
<g id="edge40" class="edge"><title>Node27&#45;&gt;Node7</title>
<path fill="none" stroke="midnightblue" d="M890.025,-142.424C879.226,-140.321 867.696,-138.077 857,-136 774.343,-119.95 751.729,-123.93 671,-100 668.196,-99.1689 665.312,-98.2044 662.45,-97.173"/>
<polygon fill="midnightblue" stroke="midnightblue" points="663.541,-93.8427 652.952,-93.5054 661.019,-100.373 663.541,-93.8427"/>
</g>
<!-- Node27&#45;&gt;Node9 -->
<g id="edge42" class="edge"><title>Node27&#45;&gt;Node9</title>
<path fill="none" stroke="midnightblue" d="M971.816,-142.491C984.238,-140.002 998.154,-137.54 1011,-136 1355.13,-94.7538 1451.8,-175.801 1790,-100 1793.07,-99.3114 1796.22,-98.3781 1799.3,-97.3116"/>
<polygon fill="midnightblue" stroke="midnightblue" points="1800.79,-100.491 1808.82,-93.588 1798.24,-93.9715 1800.79,-100.491"/>
</g>
<!-- Node28 -->
<g id="node28" class="node"><title>Node28</title>
<polygon fill="none" stroke="#bfbfbf" points="1269.5,-69 1269.5,-99 1420.5,-99 1420.5,-69 1269.5,-69"/>
<text text-anchor="start" x="1277.5" y="-87" font-family="Helvetica,sans-Serif" font-size="10.00">Math/GenVector/Displacement</text>
<text text-anchor="middle" x="1345" y="-76" font-family="Helvetica,sans-Serif" font-size="10.00">Vector3D.h</text>
</g>
<!-- Node27&#45;&gt;Node28 -->
<g id="edge35" class="edge"><title>Node27&#45;&gt;Node28</title>
<path fill="none" stroke="midnightblue" d="M975.893,-142.454C987.263,-140.239 999.587,-137.936 1011,-136 1118.12,-117.834 1147.92,-117.71 1259.51,-100.043"/>
<polygon fill="midnightblue" stroke="midnightblue" points="1260.15,-103.485 1269.48,-98.4532 1259.05,-96.5723 1260.15,-103.485"/>
</g>
<!-- Node29 -->
<g id="node29" class="node"><title>Node29</title>
<polygon fill="none" stroke="#bfbfbf" points="1439,-74.5 1439,-93.5 1615,-93.5 1615,-74.5 1439,-74.5"/>
<text text-anchor="middle" x="1527" y="-81.5" font-family="Helvetica,sans-Serif" font-size="10.00">Math/GenVector/PositionVector3D.h</text>
</g>
<!-- Node27&#45;&gt;Node29 -->
<g id="edge36" class="edge"><title>Node27&#45;&gt;Node29</title>
<path fill="none" stroke="midnightblue" d="M973.432,-142.481C985.449,-140.111 998.726,-137.719 1011,-136 1195.66,-110.136 1243.85,-122.118 1429,-100 1440.88,-98.5804 1453.54,-96.8254 1465.68,-95.0219"/>
<polygon fill="midnightblue" stroke="midnightblue" points="1466.35,-98.4592 1475.72,-93.5019 1465.31,-91.5381 1466.35,-98.4592"/>
</g>
<!-- Node30 -->
<g id="node30" class="node"><title>Node30</title>
<polygon fill="none" stroke="#bfbfbf" points="1632.5,-74.5 1632.5,-93.5 1781.5,-93.5 1781.5,-74.5 1632.5,-74.5"/>
<text text-anchor="middle" x="1707" y="-81.5" font-family="Helvetica,sans-Serif" font-size="10.00">Math/GenVector/Rotation3D.h</text>
</g>
<!-- Node27&#45;&gt;Node30 -->
<g id="edge37" class="edge"><title>Node27&#45;&gt;Node30</title>
<path fill="none" stroke="midnightblue" d="M972.614,-142.43C984.836,-140 998.434,-137.586 1011,-136 1281.32,-101.874 1352.42,-132.004 1623,-100 1633.37,-98.7737 1644.39,-97.0857 1654.93,-95.2832"/>
<polygon fill="midnightblue" stroke="midnightblue" points="1655.6,-98.7182 1664.84,-93.5313 1654.39,-91.8251 1655.6,-98.7182"/>
</g>
<!-- Node31 -->
<g id="node31" class="node"><title>Node31</title>
<polygon fill="none" stroke="#bfbfbf" points="680,-74.5 680,-93.5 836,-93.5 836,-74.5 680,-74.5"/>
<text text-anchor="middle" x="758" y="-81.5" font-family="Helvetica,sans-Serif" font-size="10.00">Math/GenVector/Transform3D.h</text>
</g>
<!-- Node27&#45;&gt;Node31 -->
<g id="edge38" class="edge"><title>Node27&#45;&gt;Node31</title>
<path fill="none" stroke="midnightblue" d="M910.991,-142.372C880.206,-130.827 825.447,-110.293 790.472,-97.1772"/>
<polygon fill="midnightblue" stroke="midnightblue" points="791.328,-93.76 780.736,-93.5259 788.87,-100.314 791.328,-93.76"/>
</g>
<!-- Node32 -->
<g id="node32" class="node"><title>Node32</title>
<polygon fill="none" stroke="#bfbfbf" points="854,-74.5 854,-93.5 1014,-93.5 1014,-74.5 854,-74.5"/>
<text text-anchor="middle" x="934" y="-81.5" font-family="Helvetica,sans-Serif" font-size="10.00">Math/GenVector/Translation3D.h</text>
</g>
<!-- Node27&#45;&gt;Node32 -->
<g id="edge39" class="edge"><title>Node27&#45;&gt;Node32</title>
<path fill="none" stroke="midnightblue" d="M934,-142.372C934,-132.643 934,-116.528 934,-103.85"/>
<polygon fill="midnightblue" stroke="midnightblue" points="937.5,-103.841 934,-93.8411 930.5,-103.841 937.5,-103.841"/>
</g>
<!-- Node33 -->
<g id="node33" class="node"><title>Node33</title>
<polygon fill="none" stroke="#bfbfbf" points="1032,-74.5 1032,-93.5 1108,-93.5 1108,-74.5 1032,-74.5"/>
<text text-anchor="middle" x="1070" y="-81.5" font-family="Helvetica,sans-Serif" font-size="10.00">TGeoMatrix.h</text>
</g>
<!-- Node27&#45;&gt;Node33 -->
<g id="edge41" class="edge"><title>Node27&#45;&gt;Node33</title>
<path fill="none" stroke="midnightblue" d="M951.78,-142.372C974.993,-131.106 1015.85,-111.279 1042.92,-98.1403"/>
<polygon fill="midnightblue" stroke="midnightblue" points="1044.75,-101.145 1052.22,-93.6305 1041.69,-94.8477 1044.75,-101.145"/>
</g>
<!-- Node34 -->
<g id="node34" class="node"><title>Node34</title>
<g id="a_node34"><a xlink:href="../../d2/dd0/Cartesian2D_8h.html" target="_top" xlink:title="MathUtils/Cartesian2D.h">
<polygon fill="none" stroke="black" points="1126.5,-74.5 1126.5,-93.5 1251.5,-93.5 1251.5,-74.5 1126.5,-74.5"/>
<text text-anchor="middle" x="1189" y="-81.5" font-family="Helvetica,sans-Serif" font-size="10.00">MathUtils/Cartesian2D.h</text>
</a>
</g>
</g>
<!-- Node27&#45;&gt;Node34 -->
<g id="edge43" class="edge"><title>Node27&#45;&gt;Node34</title>
<path fill="none" stroke="midnightblue" d="M967.075,-142.439C1012.84,-130.594 1095.53,-109.192 1146.03,-96.1223"/>
<polygon fill="midnightblue" stroke="midnightblue" points="1147.18,-99.4396 1155.98,-93.5455 1145.43,-92.6629 1147.18,-99.4396"/>
</g>
<!-- Node35 -->
<g id="node35" class="node"><title>Node35</title>
<polygon fill="none" stroke="#bfbfbf" points="1204.5,-1 1204.5,-31 1355.5,-31 1355.5,-1 1204.5,-1"/>
<text text-anchor="start" x="1212.5" y="-19" font-family="Helvetica,sans-Serif" font-size="10.00">Math/GenVector/Displacement</text>
<text text-anchor="middle" x="1280" y="-8" font-family="Helvetica,sans-Serif" font-size="10.00">Vector2D.h</text>
</g>
<!-- Node34&#45;&gt;Node35 -->
<g id="edge44" class="edge"><title>Node34&#45;&gt;Node35</title>
<path fill="none" stroke="midnightblue" d="M1200.9,-74.3717C1213.78,-65.0286 1234.78,-49.7966 1251.91,-37.375"/>
<polygon fill="midnightblue" stroke="midnightblue" points="1254.41,-39.8859 1260.45,-31.1815 1250.3,-34.2194 1254.41,-39.8859"/>
</g>
<!-- Node36 -->
<g id="node36" class="node"><title>Node36</title>
<polygon fill="none" stroke="#bfbfbf" points="1010,-6.5 1010,-25.5 1186,-25.5 1186,-6.5 1010,-6.5"/>
<text text-anchor="middle" x="1098" y="-13.5" font-family="Helvetica,sans-Serif" font-size="10.00">Math/GenVector/PositionVector2D.h</text>
</g>
<!-- Node34&#45;&gt;Node36 -->
<g id="edge45" class="edge"><title>Node34&#45;&gt;Node36</title>
<path fill="none" stroke="midnightblue" d="M1177.1,-74.3717C1162.12,-63.5015 1136.14,-44.6602 1118.06,-31.5474"/>
<polygon fill="midnightblue" stroke="midnightblue" points="1120.05,-28.6684 1109.9,-25.6305 1115.94,-34.3349 1120.05,-28.6684"/>
</g>
<!-- Node37&#45;&gt;Node5 -->
<g id="edge53" class="edge"><title>Node37&#45;&gt;Node5</title>
<path fill="none" stroke="midnightblue" d="M1023.71,-396.781C1018.78,-388.332 1012.49,-377.548 1007.25,-368.569"/>
<polygon fill="midnightblue" stroke="midnightblue" points="1010.15,-366.605 1002.09,-359.731 1004.11,-370.132 1010.15,-366.605"/>
</g>
<!-- Node37&#45;&gt;Node7 -->
<g id="edge49" class="edge"><title>Node37&#45;&gt;Node7</title>
<path fill="none" stroke="midnightblue" d="M1039.7,-396.956C1046.65,-382.311 1054.71,-358.899 1047,-340 1015.08,-261.713 978.833,-258.262 914,-204 908.848,-199.688 820.129,-138.751 814,-136 754.208,-109.162 733.296,-120.36 671,-100 668.433,-99.1609 665.789,-98.2296 663.153,-97.2538"/>
<polygon fill="midnightblue" stroke="midnightblue" points="664.371,-93.9723 653.783,-93.609 661.834,-100.496 664.371,-93.9723"/>
</g>
<!-- Node37&#45;&gt;Node9 -->
<g id="edge51" class="edge"><title>Node37&#45;&gt;Node9</title>
<path fill="none" stroke="midnightblue" d="M1058.59,-396.971C1091.43,-377.501 1143,-338.969 1143,-289 1143,-289 1143,-289 1143,-219 1143,-72.8105 1649.85,-141.571 1790,-100 1792.65,-99.2148 1795.36,-98.2991 1798.06,-97.3145"/>
<polygon fill="midnightblue" stroke="midnightblue" points="1799.57,-100.482 1807.59,-93.5559 1797,-93.9702 1799.57,-100.482"/>
</g>
<!-- Node37&#45;&gt;Node10 -->
<g id="edge52" class="edge"><title>Node37&#45;&gt;Node10</title>
<path fill="none" stroke="midnightblue" d="M1005.04,-396.933C986.155,-387.081 961.084,-374 942.527,-364.318"/>
<polygon fill="midnightblue" stroke="midnightblue" points="943.968,-361.123 933.483,-359.6 940.73,-367.329 943.968,-361.123"/>
</g>
<!-- Node37&#45;&gt;Node19 -->
<g id="edge54" class="edge"><title>Node37&#45;&gt;Node19</title>
<path fill="none" stroke="midnightblue" d="M1039.7,-396.956C1046.65,-382.311 1054.71,-358.899 1047,-340 1015.08,-261.713 984.476,-250.699 914,-204 883.356,-183.694 843.406,-169.551 815.925,-161.394"/>
<polygon fill="midnightblue" stroke="midnightblue" points="816.626,-157.954 806.048,-158.56 814.695,-164.682 816.626,-157.954"/>
</g>
<!-- Node38 -->
<g id="node38" class="node"><title>Node38</title>
<polygon fill="none" stroke="#bfbfbf" points="1171,-340.5 1171,-359.5 1221,-359.5 1221,-340.5 1171,-340.5"/>
<text text-anchor="middle" x="1196" y="-347.5" font-family="Helvetica,sans-Serif" font-size="10.00">fstream</text>
</g>
<!-- Node37&#45;&gt;Node38 -->
<g id="edge50" class="edge"><title>Node37&#45;&gt;Node38</title>
<path fill="none" stroke="midnightblue" d="M1070.45,-396.933C1098.49,-386.674 1136.1,-372.915 1162.83,-363.137"/>
<polygon fill="midnightblue" stroke="midnightblue" points="1164.3,-366.323 1172.49,-359.6 1161.9,-359.749 1164.3,-366.323"/>
</g>
</g>
</svg>
        <g id="navigator" transform="translate(0 0)" fill="#404254">
                <rect fill="#f2f5e9" fill-opacity="0.5" stroke="#606060" stroke-width=".5" x="0" y="0" width="60" height="60"/>
                <use id="zoomplus" xlink:href="#zoomPlus" x="17" y="9" onmousedown="handleZoom(evt,'in')"/>
                <use id="zoomminus" xlink:href="#zoomMin" x="42" y="9" onmousedown="handleZoom(evt,'out')"/>
                <use id="reset" xlink:href="#resetDef" x="30" y="36" onmousedown="handleReset()"/>
                <g id="arrowUp" xlink:href="#dirArrow" transform="translate(30 24)" onmousedown="handlePan(0,-1)">
                  <use xlink:href="#rim" fill="#404040">
                        <set attributeName="fill" to="#808080" begin="arrowUp.mouseover" end="arrowUp.mouseout"/>
                  </use>
                  <path fill="none" stroke="white" stroke-width="1.5" d="M0,-3.0v7 M-2.5,-0.5L0,-3.0L2.5,-0.5"/>
                </g>
                <g id="arrowRight" xlink:href="#dirArrow" transform="rotate(90) translate(36 -43)" onmousedown="handlePan(1,0)">
                  <use xlink:href="#rim" fill="#404040">
                        <set attributeName="fill" to="#808080" begin="arrowRight.mouseover" end="arrowRight.mouseout"/>
                  </use>
                  <path fill="none" stroke="white" stroke-width="1.5" d="M0,-3.0v7 M-2.5,-0.5L0,-3.0L2.5,-0.5"/>
                </g>
                <g id="arrowDown" xlink:href="#dirArrow" transform="rotate(180) translate(-30 -48)" onmousedown="handlePan(0,1)">
                  <use xlink:href="#rim" fill="#404040">
                        <set attributeName="fill" to="#808080" begin="arrowDown.mouseover" end="arrowDown.mouseout"/>
                  </use>
                  <path fill="none" stroke="white" stroke-width="1.5" d="M0,-3.0v7 M-2.5,-0.5L0,-3.0L2.5,-0.5"/>
                </g>
                <g id="arrowLeft" xlink:href="#dirArrow" transform="rotate(270) translate(-36 17)" onmousedown="handlePan(-1,0)">
                  <use xlink:href="#rim" fill="#404040">
                        <set attributeName="fill" to="#808080" begin="arrowLeft.mouseover" end="arrowLeft.mouseout"/>
                  </use>
                  <path fill="none" stroke="white" stroke-width="1.5" d="M0,-3.0v7 M-2.5,-0.5L0,-3.0L2.5,-0.5"/>
                </g>
        </g>
        <svg viewBox="0 0 15 15" width="100%" height="30px" preserveAspectRatio="xMaxYMin meet">
         <g id="arrow_out" transform="scale(0.3 0.3)">
          <a xlink:href="BuildTopologyDictionary_8h__incl_org.svg" target="_base">
           <rect id="button" ry="5" rx="5" y="6" x="6" height="38" width="38"
                fill="#f2f5e9" fill-opacity="0.5" stroke="#606060" stroke-width="1.0"/>
           <path id="arrow"
             d="M 11.500037,31.436501 C 11.940474,20.09759 22.043105,11.32322 32.158766,21.979434 L 37.068811,17.246167 C 37.068811,17.246167 37.088388,32 37.088388,32 L 22.160133,31.978069 C 22.160133,31.978069 26.997745,27.140456 26.997745,27.140456 C 18.528582,18.264221 13.291696,25.230495 11.500037,31.436501 z"
             style="fill:#404040;"/>
          </a>
         </g>
        </svg>
</svg>
