<?xml version="1.0" encoding="UTF-8" standalone="no"?>
<!DOCTYPE svg PUBLIC "-//W3C//DTD SVG 1.1//EN"
 "http://www.w3.org/Graphics/SVG/1.1/DTD/svg11.dtd">
<!-- Generated by graphviz version 2.36.0 (20140111.2315)
 -->
<!-- Title: /home/travis/build/AliceO2Group/AliceO2/Detectors/ITSMFT/ITS/reconstruction/include/ITSReconstruction/CA/MathUtils.h Pages: 1 -->
<svg width="251pt" height="264pt"
 viewBox="0.00 0.00 251.00 264.00" xmlns="http://www.w3.org/2000/svg" xmlns:xlink="http://www.w3.org/1999/xlink">
<g id="graph0" class="graph" transform="scale(1 1) rotate(0) translate(4 260)">
<title>/home/travis/build/AliceO2Group/AliceO2/Detectors/ITSMFT/ITS/reconstruction/include/ITSReconstruction/CA/MathUtils.h</title>
<!-- Node1 -->
<g id="node1" class="node"><title>Node1</title>
<polygon fill="#bfbfbf" stroke="black" points="0,-192.5 0,-255.5 172,-255.5 172,-192.5 0,-192.5"/>
<text text-anchor="start" x="8" y="-243.5" font-family="Helvetica,sans-Serif" font-size="10.00">/home/travis/build</text>
<text text-anchor="start" x="8" y="-232.5" font-family="Helvetica,sans-Serif" font-size="10.00">/AliceO2Group/AliceO2</text>
<text text-anchor="start" x="8" y="-221.5" font-family="Helvetica,sans-Serif" font-size="10.00">/Detectors/ITSMFT/ITS</text>
<text text-anchor="start" x="8" y="-210.5" font-family="Helvetica,sans-Serif" font-size="10.00">/reconstruction/include</text>
<text text-anchor="middle" x="86" y="-199.5" font-family="Helvetica,sans-Serif" font-size="10.00">/ITSReconstruction/CA/MathUtils.h</text>
</g>
<!-- Node2 -->
<g id="node2" class="node"><title>Node2</title>
<polygon fill="none" stroke="#bfbfbf" points="92,-0.5 92,-19.5 130,-19.5 130,-0.5 92,-0.5"/>
<text text-anchor="middle" x="111" y="-7.5" font-family="Helvetica,sans-Serif" font-size="10.00">array</text>
</g>
<!-- Node1&#45;&gt;Node2 -->
<g id="edge1" class="edge"><title>Node1&#45;&gt;Node2</title>
<path fill="none" stroke="midnightblue" d="M68.4005,-192.292C62.982,-181.219 57.7278,-168.392 55,-156 45.4451,-112.595 35.7907,-96.0788 55,-56 61.2527,-42.9542 73.3358,-32.4921 84.6821,-24.9506"/>
<polygon fill="midnightblue" stroke="midnightblue" points="86.8094,-27.7515 93.4983,-19.5351 83.1455,-21.7869 86.8094,-27.7515"/>
</g>
<!-- Node3 -->
<g id="node3" class="node"><title>Node3</title>
<polygon fill="none" stroke="#bfbfbf" points="64,-130.5 64,-149.5 108,-149.5 108,-130.5 64,-130.5"/>
<text text-anchor="middle" x="86" y="-137.5" font-family="Helvetica,sans-Serif" font-size="10.00">cmath</text>
</g>
<!-- Node1&#45;&gt;Node3 -->
<g id="edge2" class="edge"><title>Node1&#45;&gt;Node3</title>
<path fill="none" stroke="midnightblue" d="M86,-192.466C86,-181.47 86,-169.396 86,-159.709"/>
<polygon fill="midnightblue" stroke="midnightblue" points="89.5001,-159.64 86,-149.64 82.5001,-159.64 89.5001,-159.64"/>
</g>
<!-- Node4 -->
<g id="node4" class="node"><title>Node4</title>
<g id="a_node4"><a xlink:href="../../d5/d20/Detectors_2ITSMFT_2ITS_2reconstruction_2include_2ITSReconstruction_2CA_2Constants_8h.html" target="_top" xlink:title="ITSReconstruction/CA\l/Constants.h">
<polygon fill="none" stroke="black" points="126,-125 126,-155 242,-155 242,-125 126,-125"/>
<text text-anchor="start" x="134" y="-143" font-family="Helvetica,sans-Serif" font-size="10.00">ITSReconstruction/CA</text>
<text text-anchor="middle" x="184" y="-132" font-family="Helvetica,sans-Serif" font-size="10.00">/Constants.h</text>
</a>
</g>
</g>
<!-- Node1&#45;&gt;Node4 -->
<g id="edge3" class="edge"><title>Node1&#45;&gt;Node4</title>
<path fill="none" stroke="midnightblue" d="M122.492,-192.466C134.841,-182.133 148.325,-170.85 159.514,-161.489"/>
<polygon fill="midnightblue" stroke="midnightblue" points="161.782,-164.154 167.205,-155.053 157.29,-158.786 161.782,-164.154"/>
</g>
<!-- Node5 -->
<g id="node5" class="node"><title>Node5</title>
<polygon fill="none" stroke="#bfbfbf" points="64.5,-62.5 64.5,-81.5 109.5,-81.5 109.5,-62.5 64.5,-62.5"/>
<text text-anchor="middle" x="87" y="-69.5" font-family="Helvetica,sans-Serif" font-size="10.00">climits</text>
</g>
<!-- Node4&#45;&gt;Node5 -->
<g id="edge4" class="edge"><title>Node4&#45;&gt;Node5</title>
<path fill="none" stroke="midnightblue" d="M162.952,-124.679C146.686,-113.611 124.276,-98.363 108.017,-87.3002"/>
<polygon fill="midnightblue" stroke="midnightblue" points="109.932,-84.3697 99.6951,-81.6379 105.994,-90.157 109.932,-84.3697"/>
</g>
<!-- Node6 -->
<g id="node6" class="node"><title>Node6</title>
<g id="a_node6"><a xlink:href="../../df/d3d/Definitions_8h.html" target="_top" xlink:title="ITSReconstruction/CA\l/Definitions.h">
<polygon fill="none" stroke="black" points="128,-57 128,-87 244,-87 244,-57 128,-57"/>
<text text-anchor="start" x="136" y="-75" font-family="Helvetica,sans-Serif" font-size="10.00">ITSReconstruction/CA</text>
<text text-anchor="middle" x="186" y="-64" font-family="Helvetica,sans-Serif" font-size="10.00">/Definitions.h</text>
</a>
</g>
</g>
<!-- Node4&#45;&gt;Node6 -->
<g id="edge5" class="edge"><title>Node4&#45;&gt;Node6</title>
<path fill="none" stroke="midnightblue" d="M184.434,-124.679C184.675,-116.722 184.982,-106.605 185.26,-97.4356"/>
<polygon fill="midnightblue" stroke="midnightblue" points="188.762,-97.3945 185.567,-87.2931 181.765,-97.1824 188.762,-97.3945"/>
</g>
<!-- Node6&#45;&gt;Node2 -->
<g id="edge6" class="edge"><title>Node6&#45;&gt;Node2</title>
<path fill="none" stroke="midnightblue" d="M168.226,-56.7808C156.654,-47.5228 141.577,-35.4618 129.804,-26.0435"/>
<polygon fill="midnightblue" stroke="midnightblue" points="131.908,-23.2445 121.913,-19.7305 127.535,-28.7106 131.908,-23.2445"/>
</g>
</g>
</svg>
