<?xml version="1.0" encoding="UTF-8" standalone="no"?>
<!DOCTYPE svg PUBLIC "-//W3C//DTD SVG 1.1//EN"
 "http://www.w3.org/Graphics/SVG/1.1/DTD/svg11.dtd">
<!-- Generated by graphviz version 2.36.0 (20140111.2315)
 -->
<!-- Title: /home/travis/build/AliceO2Group/AliceO2/Detectors/TPC/simulation/src/DigitRow.cxx Pages: 1 -->
<svg width="805pt" height="310pt"
 viewBox="0.00 0.00 805.00 310.00" xmlns="http://www.w3.org/2000/svg" xmlns:xlink="http://www.w3.org/1999/xlink">
<g id="graph0" class="graph" transform="scale(1 1) rotate(0) translate(4 306)">
<title>/home/travis/build/AliceO2Group/AliceO2/Detectors/TPC/simulation/src/DigitRow.cxx</title>
<!-- Node1 -->
<g id="node1" class="node"><title>Node1</title>
<polygon fill="#bfbfbf" stroke="black" points="356.5,-249 356.5,-301 489.5,-301 489.5,-249 356.5,-249"/>
<text text-anchor="start" x="364.5" y="-289" font-family="Helvetica,sans-Serif" font-size="10.00">/home/travis/build</text>
<text text-anchor="start" x="364.5" y="-278" font-family="Helvetica,sans-Serif" font-size="10.00">/AliceO2Group/AliceO2</text>
<text text-anchor="start" x="364.5" y="-267" font-family="Helvetica,sans-Serif" font-size="10.00">/Detectors/TPC/simulation</text>
<text text-anchor="middle" x="423" y="-256" font-family="Helvetica,sans-Serif" font-size="10.00">/src/DigitRow.cxx</text>
</g>
<!-- Node2 -->
<g id="node2" class="node"><title>Node2</title>
<g id="a_node2"><a xlink:href="../../de/dc8/DigitRow_8h.html" target="_top" xlink:title="Definition of the Row container. ">
<polygon fill="none" stroke="black" points="453,-192.5 453,-211.5 587,-211.5 587,-192.5 453,-192.5"/>
<text text-anchor="middle" x="520" y="-199.5" font-family="Helvetica,sans-Serif" font-size="10.00">TPCSimulation/DigitRow.h</text>
</a>
</g>
</g>
<!-- Node1&#45;&gt;Node2 -->
<g id="edge1" class="edge"><title>Node1&#45;&gt;Node2</title>
<path fill="none" stroke="midnightblue" d="M457.199,-248.968C471.419,-238.559 487.442,-226.831 499.743,-217.827"/>
<polygon fill="midnightblue" stroke="midnightblue" points="501.962,-220.54 507.964,-211.81 497.828,-214.892 501.962,-220.54"/>
</g>
<!-- Node3 -->
<g id="node3" class="node"><title>Node3</title>
<g id="a_node3"><a xlink:href="../../d3/d5d/DigitPad_8h.html" target="_top" xlink:title="Definition of the Pad container. ">
<polygon fill="none" stroke="black" points="211.5,-130.5 211.5,-149.5 342.5,-149.5 342.5,-130.5 211.5,-130.5"/>
<text text-anchor="middle" x="277" y="-137.5" font-family="Helvetica,sans-Serif" font-size="10.00">TPCSimulation/DigitPad.h</text>
</a>
</g>
</g>
<!-- Node1&#45;&gt;Node3 -->
<g id="edge20" class="edge"><title>Node1&#45;&gt;Node3</title>
<path fill="none" stroke="midnightblue" d="M395.539,-248.984C365.705,-221.806 318.975,-179.238 294.033,-156.516"/>
<polygon fill="midnightblue" stroke="midnightblue" points="296.215,-153.769 286.465,-149.622 291.501,-158.944 296.215,-153.769"/>
</g>
<!-- Node2&#45;&gt;Node3 -->
<g id="edge2" class="edge"><title>Node2&#45;&gt;Node3</title>
<path fill="none" stroke="midnightblue" d="M485.442,-192.467C442.35,-181.827 368.617,-163.622 321.385,-151.959"/>
<polygon fill="midnightblue" stroke="midnightblue" points="321.986,-148.503 311.439,-149.503 320.308,-155.299 321.986,-148.503"/>
</g>
<!-- Node14 -->
<g id="node14" class="node"><title>Node14</title>
<g id="a_node14"><a xlink:href="../../df/db1/TPC_2base_2include_2TPCBase_2Digit_8h.html" target="_top" xlink:title="TPCBase/Digit.h">
<polygon fill="none" stroke="black" points="474.5,-130.5 474.5,-149.5 565.5,-149.5 565.5,-130.5 474.5,-130.5"/>
<text text-anchor="middle" x="520" y="-137.5" font-family="Helvetica,sans-Serif" font-size="10.00">TPCBase/Digit.h</text>
</a>
</g>
</g>
<!-- Node2&#45;&gt;Node14 -->
<g id="edge13" class="edge"><title>Node2&#45;&gt;Node14</title>
<path fill="none" stroke="midnightblue" d="M520,-192.403C520,-183.938 520,-170.728 520,-159.82"/>
<polygon fill="midnightblue" stroke="midnightblue" points="523.5,-159.581 520,-149.581 516.5,-159.581 523.5,-159.581"/>
</g>
<!-- Node17 -->
<g id="node17" class="node"><title>Node17</title>
<g id="a_node17"><a xlink:href="../../dd/df5/DigitMCMetaData_8h.html" target="_top" xlink:title="Definition of the Meta Data object of the Monte Carlo Digit. ">
<polygon fill="none" stroke="black" points="583.5,-125 583.5,-155 726.5,-155 726.5,-125 583.5,-125"/>
<text text-anchor="start" x="591.5" y="-143" font-family="Helvetica,sans-Serif" font-size="10.00">TPCSimulation/DigitMCMeta</text>
<text text-anchor="middle" x="655" y="-132" font-family="Helvetica,sans-Serif" font-size="10.00">Data.h</text>
</a>
</g>
</g>
<!-- Node2&#45;&gt;Node17 -->
<g id="edge17" class="edge"><title>Node2&#45;&gt;Node17</title>
<path fill="none" stroke="midnightblue" d="M539.342,-192.403C558.801,-183.755 589.402,-170.155 614.241,-159.115"/>
<polygon fill="midnightblue" stroke="midnightblue" points="615.726,-162.285 623.443,-155.025 612.883,-155.888 615.726,-162.285"/>
</g>
<!-- Node18 -->
<g id="node18" class="node"><title>Node18</title>
<polygon fill="none" stroke="#bfbfbf" points="745,-130.5 745,-149.5 797,-149.5 797,-130.5 745,-130.5"/>
<text text-anchor="middle" x="771" y="-137.5" font-family="Helvetica,sans-Serif" font-size="10.00">memory</text>
</g>
<!-- Node2&#45;&gt;Node18 -->
<g id="edge19" class="edge"><title>Node2&#45;&gt;Node18</title>
<path fill="none" stroke="midnightblue" d="M574.618,-192.499C618.511,-184.971 681.454,-172.596 735,-156 737.579,-155.201 740.228,-154.286 742.862,-153.313"/>
<polygon fill="midnightblue" stroke="midnightblue" points="744.179,-156.556 752.19,-149.622 741.604,-150.046 744.179,-156.556"/>
</g>
<!-- Node4 -->
<g id="node4" class="node"><title>Node4</title>
<polygon fill="none" stroke="#bfbfbf" points="-0.5,-62.5 -0.5,-81.5 34.5,-81.5 34.5,-62.5 -0.5,-62.5"/>
<text text-anchor="middle" x="17" y="-69.5" font-family="Helvetica,sans-Serif" font-size="10.00">map</text>
</g>
<!-- Node3&#45;&gt;Node4 -->
<g id="edge3" class="edge"><title>Node3&#45;&gt;Node4</title>
<path fill="none" stroke="midnightblue" d="M214.756,-130.44C166.993,-122.674 99.9731,-109.151 44,-88 42.5892,-87.4669 41.1625,-86.8699 39.7405,-86.2294"/>
<polygon fill="midnightblue" stroke="midnightblue" points="41.1391,-83.0139 30.6404,-81.5898 37.9596,-89.2502 41.1391,-83.0139"/>
</g>
<!-- Node5 -->
<g id="node5" class="node"><title>Node5</title>
<polygon fill="none" stroke="#bfbfbf" points="53,-62.5 53,-81.5 153,-81.5 153,-62.5 53,-62.5"/>
<text text-anchor="middle" x="103" y="-69.5" font-family="Helvetica,sans-Serif" font-size="10.00">FairRootManager.h</text>
</g>
<!-- Node3&#45;&gt;Node5 -->
<g id="edge4" class="edge"><title>Node3&#45;&gt;Node5</title>
<path fill="none" stroke="midnightblue" d="M254.253,-130.372C223.818,-118.827 169.681,-98.2926 135.103,-85.1772"/>
<polygon fill="midnightblue" stroke="midnightblue" points="136.069,-81.8 125.477,-81.5259 133.586,-88.345 136.069,-81.8"/>
</g>
<!-- Node6 -->
<g id="node6" class="node"><title>Node6</title>
<g id="a_node6"><a xlink:href="../../db/d14/MCTruthContainer_8h.html" target="_top" xlink:title="Definition of a container to keep Monte Carlo truth external to simulation objects. ">
<polygon fill="none" stroke="black" points="171,-57 171,-87 285,-87 285,-57 171,-57"/>
<text text-anchor="start" x="179" y="-75" font-family="Helvetica,sans-Serif" font-size="10.00">SimulationDataFormat</text>
<text text-anchor="middle" x="228" y="-64" font-family="Helvetica,sans-Serif" font-size="10.00">/MCTruthContainer.h</text>
</a>
</g>
</g>
<!-- Node3&#45;&gt;Node6 -->
<g id="edge5" class="edge"><title>Node3&#45;&gt;Node6</title>
<path fill="none" stroke="midnightblue" d="M270.594,-130.372C264.039,-121.543 253.581,-107.456 244.668,-95.4503"/>
<polygon fill="midnightblue" stroke="midnightblue" points="247.3,-93.1242 238.529,-87.1815 241.68,-97.2969 247.3,-93.1242"/>
</g>
<!-- Node12 -->
<g id="node12" class="node"><title>Node12</title>
<g id="a_node12"><a xlink:href="../../d7/dcd/MCCompLabel_8h.html" target="_top" xlink:title="SimulationDataFormat\l/MCCompLabel.h">
<polygon fill="none" stroke="black" points="303,-57 303,-87 417,-87 417,-57 303,-57"/>
<text text-anchor="start" x="311" y="-75" font-family="Helvetica,sans-Serif" font-size="10.00">SimulationDataFormat</text>
<text text-anchor="middle" x="360" y="-64" font-family="Helvetica,sans-Serif" font-size="10.00">/MCCompLabel.h</text>
</a>
</g>
</g>
<!-- Node3&#45;&gt;Node12 -->
<g id="edge11" class="edge"><title>Node3&#45;&gt;Node12</title>
<path fill="none" stroke="midnightblue" d="M287.851,-130.372C299.493,-121.114 318.405,-106.076 333.946,-93.7175"/>
<polygon fill="midnightblue" stroke="midnightblue" points="336.517,-96.1449 342.166,-87.1815 332.16,-90.6659 336.517,-96.1449"/>
</g>
<!-- Node7 -->
<g id="node7" class="node"><title>Node7</title>
<polygon fill="none" stroke="#bfbfbf" points="51,-0.5 51,-19.5 113,-19.5 113,-0.5 51,-0.5"/>
<text text-anchor="middle" x="82" y="-7.5" font-family="Helvetica,sans-Serif" font-size="10.00">TNamed.h</text>
</g>
<!-- Node6&#45;&gt;Node7 -->
<g id="edge6" class="edge"><title>Node6&#45;&gt;Node7</title>
<path fill="none" stroke="midnightblue" d="M193.769,-56.9327C169.138,-46.81 136.21,-33.2779 112.482,-23.5267"/>
<polygon fill="midnightblue" stroke="midnightblue" points="113.507,-20.1639 102.927,-19.6 110.846,-26.6385 113.507,-20.1639"/>
</g>
<!-- Node8 -->
<g id="node8" class="node"><title>Node8</title>
<polygon fill="none" stroke="#bfbfbf" points="131.5,-0.5 131.5,-19.5 180.5,-19.5 180.5,-0.5 131.5,-0.5"/>
<text text-anchor="middle" x="156" y="-7.5" font-family="Helvetica,sans-Serif" font-size="10.00">cassert</text>
</g>
<!-- Node6&#45;&gt;Node8 -->
<g id="edge7" class="edge"><title>Node6&#45;&gt;Node8</title>
<path fill="none" stroke="midnightblue" d="M210.937,-56.7808C199.935,-47.6127 185.635,-35.6957 174.382,-26.3186"/>
<polygon fill="midnightblue" stroke="midnightblue" points="176.4,-23.4436 166.477,-19.7305 171.918,-28.8212 176.4,-23.4436"/>
</g>
<!-- Node9 -->
<g id="node9" class="node"><title>Node9</title>
<polygon fill="none" stroke="#bfbfbf" points="198.5,-0.5 198.5,-19.5 257.5,-19.5 257.5,-0.5 198.5,-0.5"/>
<text text-anchor="middle" x="228" y="-7.5" font-family="Helvetica,sans-Serif" font-size="10.00">stdexcept</text>
</g>
<!-- Node6&#45;&gt;Node9 -->
<g id="edge8" class="edge"><title>Node6&#45;&gt;Node9</title>
<path fill="none" stroke="midnightblue" d="M228,-56.7808C228,-48.7812 228,-38.6887 228,-30.0168"/>
<polygon fill="midnightblue" stroke="midnightblue" points="231.5,-29.7305 228,-19.7305 224.5,-29.7306 231.5,-29.7305"/>
</g>
<!-- Node10 -->
<g id="node10" class="node"><title>Node10</title>
<polygon fill="none" stroke="#bfbfbf" points="275.5,-0.5 275.5,-19.5 320.5,-19.5 320.5,-0.5 275.5,-0.5"/>
<text text-anchor="middle" x="298" y="-7.5" font-family="Helvetica,sans-Serif" font-size="10.00">gsl/gsl</text>
</g>
<!-- Node6&#45;&gt;Node10 -->
<g id="edge9" class="edge"><title>Node6&#45;&gt;Node10</title>
<path fill="none" stroke="midnightblue" d="M244.589,-56.7808C255.285,-47.6127 269.188,-35.6957 280.128,-26.3186"/>
<polygon fill="midnightblue" stroke="midnightblue" points="282.5,-28.8959 287.814,-19.7305 277.944,-23.5811 282.5,-28.8959"/>
</g>
<!-- Node11 -->
<g id="node11" class="node"><title>Node11</title>
<polygon fill="none" stroke="#bfbfbf" points="339,-0.5 339,-19.5 401,-19.5 401,-0.5 339,-0.5"/>
<text text-anchor="middle" x="370" y="-7.5" font-family="Helvetica,sans-Serif" font-size="10.00">type_traits</text>
</g>
<!-- Node6&#45;&gt;Node11 -->
<g id="edge10" class="edge"><title>Node6&#45;&gt;Node11</title>
<path fill="none" stroke="midnightblue" d="M261.293,-56.9327C285.25,-46.81 317.276,-33.2779 340.354,-23.5267"/>
<polygon fill="midnightblue" stroke="midnightblue" points="341.797,-26.7163 349.647,-19.6 339.073,-20.2682 341.797,-26.7163"/>
</g>
<!-- Node13 -->
<g id="node13" class="node"><title>Node13</title>
<polygon fill="none" stroke="#bfbfbf" points="492,-0.5 492,-19.5 548,-19.5 548,-0.5 492,-0.5"/>
<text text-anchor="middle" x="520" y="-7.5" font-family="Helvetica,sans-Serif" font-size="10.00">Rtypes.h</text>
</g>
<!-- Node12&#45;&gt;Node13 -->
<g id="edge12" class="edge"><title>Node12&#45;&gt;Node13</title>
<path fill="none" stroke="midnightblue" d="M397.513,-56.9327C424.868,-46.6744 461.561,-32.9148 487.635,-23.1369"/>
<polygon fill="midnightblue" stroke="midnightblue" points="488.932,-26.3885 497.067,-19.6 486.474,-19.8342 488.932,-26.3885"/>
</g>
<!-- Node15 -->
<g id="node15" class="node"><title>Node15</title>
<g id="a_node15"><a xlink:href="../../df/d5d/common_2include_2CommonDataFormat_2TimeStamp_8h.html" target="_top" xlink:title="CommonDataFormat/TimeStamp.h">
<polygon fill="none" stroke="black" points="435,-62.5 435,-81.5 605,-81.5 605,-62.5 435,-62.5"/>
<text text-anchor="middle" x="520" y="-69.5" font-family="Helvetica,sans-Serif" font-size="10.00">CommonDataFormat/TimeStamp.h</text>
</a>
</g>
</g>
<!-- Node14&#45;&gt;Node15 -->
<g id="edge14" class="edge"><title>Node14&#45;&gt;Node15</title>
<path fill="none" stroke="midnightblue" d="M520,-130.372C520,-120.643 520,-104.528 520,-91.8504"/>
<polygon fill="midnightblue" stroke="midnightblue" points="523.5,-91.8411 520,-81.8411 516.5,-91.8412 523.5,-91.8411"/>
</g>
<!-- Node16 -->
<g id="node16" class="node"><title>Node16</title>
<polygon fill="none" stroke="#bfbfbf" points="623.5,-62.5 623.5,-81.5 682.5,-81.5 682.5,-62.5 623.5,-62.5"/>
<text text-anchor="middle" x="653" y="-69.5" font-family="Helvetica,sans-Serif" font-size="10.00">TObject.h</text>
</g>
<!-- Node14&#45;&gt;Node16 -->
<g id="edge16" class="edge"><title>Node14&#45;&gt;Node16</title>
<path fill="none" stroke="midnightblue" d="M537.387,-130.372C560.089,-119.106 600.043,-99.2794 626.52,-86.1403"/>
<polygon fill="midnightblue" stroke="midnightblue" points="628.206,-89.2109 635.608,-81.6305 625.095,-82.9405 628.206,-89.2109"/>
</g>
<!-- Node15&#45;&gt;Node13 -->
<g id="edge15" class="edge"><title>Node15&#45;&gt;Node13</title>
<path fill="none" stroke="midnightblue" d="M520,-62.4035C520,-53.9381 520,-40.7283 520,-29.8199"/>
<polygon fill="midnightblue" stroke="midnightblue" points="523.5,-29.5806 520,-19.5806 516.5,-29.5806 523.5,-29.5806"/>
</g>
<!-- Node17&#45;&gt;Node13 -->
<g id="edge18" class="edge"><title>Node17&#45;&gt;Node13</title>
<path fill="none" stroke="midnightblue" d="M669.412,-124.966C685.573,-107.509 707.494,-77.3961 691,-56 674.916,-35.136 603.537,-22.0212 558.236,-15.6429"/>
<polygon fill="midnightblue" stroke="midnightblue" points="558.543,-12.1526 548.163,-14.2746 557.601,-19.0889 558.543,-12.1526"/>
</g>
</g>
</svg>
