<?xml version="1.0" encoding="UTF-8" standalone="no"?>
<!DOCTYPE svg PUBLIC "-//W3C//DTD SVG 1.1//EN"
 "http://www.w3.org/Graphics/SVG/1.1/DTD/svg11.dtd">
<!-- Generated by graphviz version 2.36.0 (20140111.2315)
 -->
<!-- Title: /home/travis/build/AliceO2Group/AliceO2/Detectors/MUON/MCH/Contour/include/MCHContour/BBox.h Pages: 1 -->
<svg width="234pt" height="174pt"
 viewBox="0.00 0.00 234.00 174.00" xmlns="http://www.w3.org/2000/svg" xmlns:xlink="http://www.w3.org/1999/xlink">
<g id="graph0" class="graph" transform="scale(1 1) rotate(0) translate(4 170)">
<title>/home/travis/build/AliceO2Group/AliceO2/Detectors/MUON/MCH/Contour/include/MCHContour/BBox.h</title>
<!-- Node1 -->
<g id="node1" class="node"><title>Node1</title>
<polygon fill="#bfbfbf" stroke="black" points="46,-113 46,-165 206,-165 206,-113 46,-113"/>
<text text-anchor="start" x="54" y="-153" font-family="Helvetica,sans-Serif" font-size="10.00">/home/travis/build</text>
<text text-anchor="start" x="54" y="-142" font-family="Helvetica,sans-Serif" font-size="10.00">/AliceO2Group/AliceO2</text>
<text text-anchor="start" x="54" y="-131" font-family="Helvetica,sans-Serif" font-size="10.00">/Detectors/MUON/MCH/Contour</text>
<text text-anchor="middle" x="126" y="-120" font-family="Helvetica,sans-Serif" font-size="10.00">/include/MCHContour/BBox.h</text>
</g>
<!-- Node2 -->
<g id="node2" class="node"><title>Node2</title>
<g id="a_node2"><a xlink:href="../../d2/dc4/Helper_8h.html" target="_top" xlink:title="Helper.h">
<polygon fill="none" stroke="black" points="25.5,-56.5 25.5,-75.5 78.5,-75.5 78.5,-56.5 25.5,-56.5"/>
<text text-anchor="middle" x="52" y="-63.5" font-family="Helvetica,sans-Serif" font-size="10.00">Helper.h</text>
</a>
</g>
</g>
<!-- Node1&#45;&gt;Node2 -->
<g id="edge1" class="edge"><title>Node1&#45;&gt;Node2</title>
<path fill="none" stroke="midnightblue" d="M99.702,-112.768C89.2917,-102.78 77.6448,-91.6051 68.4655,-82.798"/>
<polygon fill="midnightblue" stroke="midnightblue" points="70.7662,-80.1549 61.1272,-75.7572 65.9199,-85.206 70.7662,-80.1549"/>
</g>
<!-- Node5 -->
<g id="node5" class="node"><title>Node5</title>
<polygon fill="none" stroke="#bfbfbf" points="96.5,-56.5 96.5,-75.5 155.5,-75.5 155.5,-56.5 96.5,-56.5"/>
<text text-anchor="middle" x="126" y="-63.5" font-family="Helvetica,sans-Serif" font-size="10.00">stdexcept</text>
</g>
<!-- Node1&#45;&gt;Node5 -->
<g id="edge4" class="edge"><title>Node1&#45;&gt;Node5</title>
<path fill="none" stroke="midnightblue" d="M126,-112.768C126,-103.89 126,-94.0737 126,-85.8165"/>
<polygon fill="midnightblue" stroke="midnightblue" points="129.5,-85.7571 126,-75.7572 122.5,-85.7572 129.5,-85.7571"/>
</g>
<!-- Node6 -->
<g id="node6" class="node"><title>Node6</title>
<polygon fill="none" stroke="#bfbfbf" points="174,-56.5 174,-75.5 226,-75.5 226,-56.5 174,-56.5"/>
<text text-anchor="middle" x="200" y="-63.5" font-family="Helvetica,sans-Serif" font-size="10.00">ostream</text>
</g>
<!-- Node1&#45;&gt;Node6 -->
<g id="edge5" class="edge"><title>Node1&#45;&gt;Node6</title>
<path fill="none" stroke="midnightblue" d="M152.298,-112.768C162.708,-102.78 174.355,-91.6051 183.535,-82.798"/>
<polygon fill="midnightblue" stroke="midnightblue" points="186.08,-85.206 190.873,-75.7572 181.234,-80.1549 186.08,-85.206"/>
</g>
<!-- Node3 -->
<g id="node3" class="node"><title>Node3</title>
<polygon fill="none" stroke="#bfbfbf" points="0,-0.5 0,-19.5 44,-19.5 44,-0.5 0,-0.5"/>
<text text-anchor="middle" x="22" y="-7.5" font-family="Helvetica,sans-Serif" font-size="10.00">cmath</text>
</g>
<!-- Node2&#45;&gt;Node3 -->
<g id="edge2" class="edge"><title>Node2&#45;&gt;Node3</title>
<path fill="none" stroke="midnightblue" d="M47.0461,-56.083C42.8959,-48.6127 36.8469,-37.7244 31.7333,-28.5199"/>
<polygon fill="midnightblue" stroke="midnightblue" points="34.7777,-26.7929 26.8617,-19.7511 28.6586,-30.1924 34.7777,-26.7929"/>
</g>
<!-- Node4 -->
<g id="node4" class="node"><title>Node4</title>
<polygon fill="none" stroke="#bfbfbf" points="62,-0.5 62,-19.5 102,-19.5 102,-0.5 62,-0.5"/>
<text text-anchor="middle" x="82" y="-7.5" font-family="Helvetica,sans-Serif" font-size="10.00">limits</text>
</g>
<!-- Node2&#45;&gt;Node4 -->
<g id="edge3" class="edge"><title>Node2&#45;&gt;Node4</title>
<path fill="none" stroke="midnightblue" d="M56.9539,-56.083C61.1041,-48.6127 67.1531,-37.7244 72.2667,-28.5199"/>
<polygon fill="midnightblue" stroke="midnightblue" points="75.3414,-30.1924 77.1383,-19.7511 69.2223,-26.7929 75.3414,-30.1924"/>
</g>
</g>
</svg>
