<?xml version="1.0" encoding="UTF-8" standalone="no"?>
<!DOCTYPE svg PUBLIC "-//W3C//DTD SVG 1.1//EN"
 "http://www.w3.org/Graphics/SVG/1.1/DTD/svg11.dtd">
<!-- Generated by graphviz version 2.36.0 (20140111.2315)
 -->
<!-- Title: /home/travis/build/AliceO2Group/AliceO2/Detectors/TPC/reconstruction/include/TPCReconstruction/Clusterer.h Pages: 1 -->
<svg width="435pt" height="196pt"
 viewBox="0.00 0.00 435.00 196.00" xmlns="http://www.w3.org/2000/svg" xmlns:xlink="http://www.w3.org/1999/xlink">
<g id="graph0" class="graph" transform="scale(1 1) rotate(0) translate(4 192)">
<title>/home/travis/build/AliceO2Group/AliceO2/Detectors/TPC/reconstruction/include/TPCReconstruction/Clusterer.h</title>
<!-- Node1 -->
<g id="node1" class="node"><title>Node1</title>
<polygon fill="#bfbfbf" stroke="black" points="86,-124.5 86,-187.5 236,-187.5 236,-124.5 86,-124.5"/>
<text text-anchor="start" x="94" y="-175.5" font-family="Helvetica,sans-Serif" font-size="10.00">/home/travis/build</text>
<text text-anchor="start" x="94" y="-164.5" font-family="Helvetica,sans-Serif" font-size="10.00">/AliceO2Group/AliceO2</text>
<text text-anchor="start" x="94" y="-153.5" font-family="Helvetica,sans-Serif" font-size="10.00">/Detectors/TPC/reconstruction</text>
<text text-anchor="start" x="94" y="-142.5" font-family="Helvetica,sans-Serif" font-size="10.00">/include/TPCReconstruction</text>
<text text-anchor="middle" x="161" y="-131.5" font-family="Helvetica,sans-Serif" font-size="10.00">/Clusterer.h</text>
</g>
<!-- Node2 -->
<g id="node2" class="node"><title>Node2</title>
<polygon fill="none" stroke="#bfbfbf" points="23,-62.5 23,-81.5 67,-81.5 67,-62.5 23,-62.5"/>
<text text-anchor="middle" x="45" y="-69.5" font-family="Helvetica,sans-Serif" font-size="10.00">vector</text>
</g>
<!-- Node1&#45;&gt;Node2 -->
<g id="edge1" class="edge"><title>Node1&#45;&gt;Node2</title>
<path fill="none" stroke="midnightblue" d="M117.806,-124.466C99.8824,-111.796 79.9373,-97.6971 65.4616,-87.4642"/>
<polygon fill="midnightblue" stroke="midnightblue" points="67.4082,-84.5541 57.2221,-81.6398 63.3676,-90.2702 67.4082,-84.5541"/>
</g>
<!-- Node3 -->
<g id="node3" class="node"><title>Node3</title>
<polygon fill="none" stroke="#bfbfbf" points="85,-62.5 85,-81.5 137,-81.5 137,-62.5 85,-62.5"/>
<text text-anchor="middle" x="111" y="-69.5" font-family="Helvetica,sans-Serif" font-size="10.00">memory</text>
</g>
<!-- Node1&#45;&gt;Node3 -->
<g id="edge2" class="edge"><title>Node1&#45;&gt;Node3</title>
<path fill="none" stroke="midnightblue" d="M142.382,-124.466C135.385,-112.991 127.674,-100.345 121.646,-90.4591"/>
<polygon fill="midnightblue" stroke="midnightblue" points="124.463,-88.3556 116.268,-81.6398 118.486,-91.9999 124.463,-88.3556"/>
</g>
<!-- Node4 -->
<g id="node4" class="node"><title>Node4</title>
<g id="a_node4"><a xlink:href="../../db/d14/MCTruthContainer_8h.html" target="_top" xlink:title="Definition of a container to keep Monte Carlo truth external to simulation objects. ">
<polygon fill="none" stroke="black" points="155,-57 155,-87 269,-87 269,-57 155,-57"/>
<text text-anchor="start" x="163" y="-75" font-family="Helvetica,sans-Serif" font-size="10.00">SimulationDataFormat</text>
<text text-anchor="middle" x="212" y="-64" font-family="Helvetica,sans-Serif" font-size="10.00">/MCTruthContainer.h</text>
</a>
</g>
</g>
<!-- Node1&#45;&gt;Node4 -->
<g id="edge3" class="edge"><title>Node1&#45;&gt;Node4</title>
<path fill="none" stroke="midnightblue" d="M179.991,-124.466C185.876,-115.004 192.257,-104.744 197.762,-95.8928"/>
<polygon fill="midnightblue" stroke="midnightblue" points="200.814,-97.6117 203.124,-87.2716 194.87,-93.9147 200.814,-97.6117"/>
</g>
<!-- Node10 -->
<g id="node10" class="node"><title>Node10</title>
<g id="a_node10"><a xlink:href="../../d7/dcd/MCCompLabel_8h.html" target="_top" xlink:title="SimulationDataFormat\l/MCCompLabel.h">
<polygon fill="none" stroke="black" points="313,-57 313,-87 427,-87 427,-57 313,-57"/>
<text text-anchor="start" x="321" y="-75" font-family="Helvetica,sans-Serif" font-size="10.00">SimulationDataFormat</text>
<text text-anchor="middle" x="370" y="-64" font-family="Helvetica,sans-Serif" font-size="10.00">/MCCompLabel.h</text>
</a>
</g>
</g>
<!-- Node1&#45;&gt;Node10 -->
<g id="edge9" class="edge"><title>Node1&#45;&gt;Node10</title>
<path fill="none" stroke="midnightblue" d="M236.159,-125.512C265.733,-113.909 298.72,-100.966 324.545,-90.834"/>
<polygon fill="midnightblue" stroke="midnightblue" points="326.039,-94.0075 334.07,-87.0968 323.483,-87.4911 326.039,-94.0075"/>
</g>
<!-- Node5 -->
<g id="node5" class="node"><title>Node5</title>
<polygon fill="none" stroke="#bfbfbf" points="0,-0.5 0,-19.5 62,-19.5 62,-0.5 0,-0.5"/>
<text text-anchor="middle" x="31" y="-7.5" font-family="Helvetica,sans-Serif" font-size="10.00">TNamed.h</text>
</g>
<!-- Node4&#45;&gt;Node5 -->
<g id="edge4" class="edge"><title>Node4&#45;&gt;Node5</title>
<path fill="none" stroke="midnightblue" d="M169.564,-56.9327C138.115,-46.5077 95.7579,-32.4667 66.1848,-22.6635"/>
<polygon fill="midnightblue" stroke="midnightblue" points="67.2733,-19.3371 56.68,-19.5127 65.0707,-25.9815 67.2733,-19.3371"/>
</g>
<!-- Node6 -->
<g id="node6" class="node"><title>Node6</title>
<polygon fill="none" stroke="#bfbfbf" points="80.5,-0.5 80.5,-19.5 129.5,-19.5 129.5,-0.5 80.5,-0.5"/>
<text text-anchor="middle" x="105" y="-7.5" font-family="Helvetica,sans-Serif" font-size="10.00">cassert</text>
</g>
<!-- Node4&#45;&gt;Node6 -->
<g id="edge5" class="edge"><title>Node4&#45;&gt;Node6</title>
<path fill="none" stroke="midnightblue" d="M186.913,-56.9327C169.506,-47.1715 146.445,-34.2401 129.228,-24.5856"/>
<polygon fill="midnightblue" stroke="midnightblue" points="130.771,-21.4383 120.337,-19.6 127.347,-27.5439 130.771,-21.4383"/>
</g>
<!-- Node7 -->
<g id="node7" class="node"><title>Node7</title>
<polygon fill="none" stroke="#bfbfbf" points="147.5,-0.5 147.5,-19.5 206.5,-19.5 206.5,-0.5 147.5,-0.5"/>
<text text-anchor="middle" x="177" y="-7.5" font-family="Helvetica,sans-Serif" font-size="10.00">stdexcept</text>
</g>
<!-- Node4&#45;&gt;Node7 -->
<g id="edge6" class="edge"><title>Node4&#45;&gt;Node7</title>
<path fill="none" stroke="midnightblue" d="M203.705,-56.7808C198.777,-48.3318 192.486,-37.5481 187.249,-28.5693"/>
<polygon fill="midnightblue" stroke="midnightblue" points="190.155,-26.6048 182.093,-19.7305 184.108,-30.1319 190.155,-26.6048"/>
</g>
<!-- Node8 -->
<g id="node8" class="node"><title>Node8</title>
<polygon fill="none" stroke="#bfbfbf" points="224.5,-0.5 224.5,-19.5 269.5,-19.5 269.5,-0.5 224.5,-0.5"/>
<text text-anchor="middle" x="247" y="-7.5" font-family="Helvetica,sans-Serif" font-size="10.00">gsl/gsl</text>
</g>
<!-- Node4&#45;&gt;Node8 -->
<g id="edge7" class="edge"><title>Node4&#45;&gt;Node8</title>
<path fill="none" stroke="midnightblue" d="M220.295,-56.7808C225.223,-48.3318 231.514,-37.5481 236.751,-28.5693"/>
<polygon fill="midnightblue" stroke="midnightblue" points="239.892,-30.1319 241.907,-19.7305 233.845,-26.6048 239.892,-30.1319"/>
</g>
<!-- Node9 -->
<g id="node9" class="node"><title>Node9</title>
<polygon fill="none" stroke="#bfbfbf" points="288,-0.5 288,-19.5 350,-19.5 350,-0.5 288,-0.5"/>
<text text-anchor="middle" x="319" y="-7.5" font-family="Helvetica,sans-Serif" font-size="10.00">type_traits</text>
</g>
<!-- Node4&#45;&gt;Node9 -->
<g id="edge8" class="edge"><title>Node4&#45;&gt;Node9</title>
<path fill="none" stroke="midnightblue" d="M237.087,-56.9327C254.494,-47.1715 277.555,-34.2401 294.772,-24.5856"/>
<polygon fill="midnightblue" stroke="midnightblue" points="296.653,-27.5439 303.663,-19.6 293.229,-21.4383 296.653,-27.5439"/>
</g>
<!-- Node11 -->
<g id="node11" class="node"><title>Node11</title>
<polygon fill="none" stroke="#bfbfbf" points="368,-0.5 368,-19.5 424,-19.5 424,-0.5 368,-0.5"/>
<text text-anchor="middle" x="396" y="-7.5" font-family="Helvetica,sans-Serif" font-size="10.00">Rtypes.h</text>
</g>
<!-- Node10&#45;&gt;Node11 -->
<g id="edge10" class="edge"><title>Node10&#45;&gt;Node11</title>
<path fill="none" stroke="midnightblue" d="M376.162,-56.7808C379.745,-48.5115 384.297,-38.006 388.137,-29.1448"/>
<polygon fill="midnightblue" stroke="midnightblue" points="391.452,-30.2977 392.217,-19.7305 385.029,-27.5144 391.452,-30.2977"/>
</g>
</g>
</svg>
