<?xml version="1.0" encoding="UTF-8" standalone="no"?>
<!DOCTYPE svg PUBLIC "-//W3C//DTD SVG 1.1//EN"
 "http://www.w3.org/Graphics/SVG/1.1/DTD/svg11.dtd">
<!-- Generated by graphviz version 2.36.0 (20140111.2315)
 -->
<!-- Title: /home/travis/build/AliceO2Group/AliceO2/Detectors/PHOS/testsimulation/run_sim_phos.C Pages: 1 -->
<svg width="2468pt" height="366pt"
 viewBox="0.00 0.00 2468.36 366.00" xmlns="http://www.w3.org/2000/svg" xmlns:xlink="http://www.w3.org/1999/xlink">
<g id="graph0" class="graph" transform="scale(1 1) rotate(0) translate(4 362)">
<title>/home/travis/build/AliceO2Group/AliceO2/Detectors/PHOS/testsimulation/run_sim_phos.C</title>
<!-- Node1 -->
<g id="node1" class="node"><title>Node1</title>
<polygon fill="#bfbfbf" stroke="black" points="1583,-305 1583,-357 1741,-357 1741,-305 1583,-305"/>
<text text-anchor="start" x="1591" y="-345" font-family="Helvetica,sans-Serif" font-size="10.00">/home/travis/build</text>
<text text-anchor="start" x="1591" y="-334" font-family="Helvetica,sans-Serif" font-size="10.00">/AliceO2Group/AliceO2</text>
<text text-anchor="start" x="1591" y="-323" font-family="Helvetica,sans-Serif" font-size="10.00">/Detectors/PHOS/testsimulation</text>
<text text-anchor="middle" x="1662" y="-312" font-family="Helvetica,sans-Serif" font-size="10.00">/run_sim_phos.C</text>
</g>
<!-- Node2 -->
<g id="node2" class="node"><title>Node2</title>
<polygon fill="none" stroke="#bfbfbf" points="336,-74.5 336,-93.5 390,-93.5 390,-74.5 336,-74.5"/>
<text text-anchor="middle" x="363" y="-81.5" font-family="Helvetica,sans-Serif" font-size="10.00">iostream</text>
</g>
<!-- Node1&#45;&gt;Node2 -->
<g id="edge1" class="edge"><title>Node1&#45;&gt;Node2</title>
<path fill="none" stroke="midnightblue" d="M1582.65,-320.23C1494.73,-309.065 1348.88,-289.533 1224,-268 855.25,-204.415 756.717,-209.809 399,-100 396.419,-99.2077 393.769,-98.2983 391.133,-97.3275"/>
<polygon fill="midnightblue" stroke="midnightblue" points="392.39,-94.061 381.804,-93.6421 389.818,-100.571 392.39,-94.061"/>
</g>
<!-- Node3 -->
<g id="node3" class="node"><title>Node3</title>
<polygon fill="none" stroke="#bfbfbf" points="1404,-6.5 1404,-25.5 1460,-25.5 1460,-6.5 1404,-6.5"/>
<text text-anchor="middle" x="1432" y="-13.5" font-family="Helvetica,sans-Serif" font-size="10.00">Rtypes.h</text>
</g>
<!-- Node1&#45;&gt;Node3 -->
<g id="edge2" class="edge"><title>Node1&#45;&gt;Node3</title>
<path fill="none" stroke="midnightblue" d="M1582.92,-326.961C1288.12,-315.119 270,-269.412 270,-203 270,-203 270,-203 270,-145 270,-107.032 275.326,-88.9368 307,-68 353.272,-37.4139 1201.73,-20.9752 1393.64,-17.6392"/>
<polygon fill="midnightblue" stroke="midnightblue" points="1393.87,-21.1358 1403.81,-17.464 1393.75,-14.1369 1393.87,-21.1358"/>
</g>
<!-- Node4 -->
<g id="node4" class="node"><title>Node4</title>
<polygon fill="none" stroke="#bfbfbf" points="1212.5,-192.5 1212.5,-211.5 1277.5,-211.5 1277.5,-192.5 1212.5,-192.5"/>
<text text-anchor="middle" x="1245" y="-199.5" font-family="Helvetica,sans-Serif" font-size="10.00">TSystem.h</text>
</g>
<!-- Node1&#45;&gt;Node4 -->
<g id="edge3" class="edge"><title>Node1&#45;&gt;Node4</title>
<path fill="none" stroke="midnightblue" d="M1582.85,-324.549C1487.29,-316.679 1333.48,-299.499 1286,-268 1269.2,-256.853 1257.95,-236.215 1251.55,-221.176"/>
<polygon fill="midnightblue" stroke="midnightblue" points="1254.79,-219.874 1247.88,-211.845 1248.28,-222.432 1254.79,-219.874"/>
</g>
<!-- Node5 -->
<g id="node5" class="node"><title>Node5</title>
<polygon fill="none" stroke="#bfbfbf" points="1208.5,-136.5 1208.5,-155.5 1261.5,-155.5 1261.5,-136.5 1208.5,-136.5"/>
<text text-anchor="middle" x="1235" y="-143.5" font-family="Helvetica,sans-Serif" font-size="10.00">TMath.h</text>
</g>
<!-- Node1&#45;&gt;Node5 -->
<g id="edge4" class="edge"><title>Node1&#45;&gt;Node5</title>
<path fill="none" stroke="midnightblue" d="M1582.89,-323.44C1482.82,-314.167 1316.92,-295.265 1262,-268 1229.91,-252.066 1218,-244.983 1204,-212 1196.87,-195.196 1207.96,-176.415 1218.8,-163.379"/>
<polygon fill="midnightblue" stroke="midnightblue" points="1221.61,-165.493 1225.7,-155.721 1216.41,-160.809 1221.61,-165.493"/>
</g>
<!-- Node6 -->
<g id="node6" class="node"><title>Node6</title>
<polygon fill="none" stroke="#bfbfbf" points="1959,-74.5 1959,-93.5 2015,-93.5 2015,-74.5 1959,-74.5"/>
<text text-anchor="middle" x="1987" y="-81.5" font-family="Helvetica,sans-Serif" font-size="10.00">TString.h</text>
</g>
<!-- Node1&#45;&gt;Node6 -->
<g id="edge5" class="edge"><title>Node1&#45;&gt;Node6</title>
<path fill="none" stroke="midnightblue" d="M1741.23,-329.607C1929.31,-327.85 2390.48,-318.394 2437,-268 2560.67,-134.042 2154.61,-95.83 2025.27,-87.1828"/>
<polygon fill="midnightblue" stroke="midnightblue" points="2025.24,-83.6737 2015.03,-86.5221 2024.79,-90.6591 2025.24,-83.6737"/>
</g>
<!-- Node7 -->
<g id="node7" class="node"><title>Node7</title>
<polygon fill="none" stroke="#bfbfbf" points="1423.5,-248.5 1423.5,-267.5 1500.5,-267.5 1500.5,-248.5 1423.5,-248.5"/>
<text text-anchor="middle" x="1462" y="-255.5" font-family="Helvetica,sans-Serif" font-size="10.00">TStopwatch.h</text>
</g>
<!-- Node1&#45;&gt;Node7 -->
<g id="edge6" class="edge"><title>Node1&#45;&gt;Node7</title>
<path fill="none" stroke="midnightblue" d="M1591.49,-304.968C1558.98,-293.427 1521.9,-280.265 1495.78,-270.991"/>
<polygon fill="midnightblue" stroke="midnightblue" points="1496.93,-267.686 1486.33,-267.639 1494.59,-274.283 1496.93,-267.686"/>
</g>
<!-- Node8 -->
<g id="node8" class="node"><title>Node8</title>
<polygon fill="none" stroke="#bfbfbf" points="1519,-248.5 1519,-267.5 1605,-267.5 1605,-248.5 1519,-248.5"/>
<text text-anchor="middle" x="1562" y="-255.5" font-family="Helvetica,sans-Serif" font-size="10.00">TGeoManager.h</text>
</g>
<!-- Node1&#45;&gt;Node8 -->
<g id="edge7" class="edge"><title>Node1&#45;&gt;Node8</title>
<path fill="none" stroke="midnightblue" d="M1626.74,-304.968C1612.08,-294.559 1595.57,-282.831 1582.88,-273.827"/>
<polygon fill="midnightblue" stroke="midnightblue" points="1584.59,-270.745 1574.41,-267.81 1580.54,-276.453 1584.59,-270.745"/>
</g>
<!-- Node9 -->
<g id="node9" class="node"><title>Node9</title>
<polygon fill="none" stroke="#bfbfbf" points="1623.5,-248.5 1623.5,-267.5 1700.5,-267.5 1700.5,-248.5 1623.5,-248.5"/>
<text text-anchor="middle" x="1662" y="-255.5" font-family="Helvetica,sans-Serif" font-size="10.00">FairRunSim.h</text>
</g>
<!-- Node1&#45;&gt;Node9 -->
<g id="edge8" class="edge"><title>Node1&#45;&gt;Node9</title>
<path fill="none" stroke="midnightblue" d="M1662,-304.768C1662,-295.89 1662,-286.074 1662,-277.816"/>
<polygon fill="midnightblue" stroke="midnightblue" points="1665.5,-277.757 1662,-267.757 1658.5,-277.757 1665.5,-277.757"/>
</g>
<!-- Node10 -->
<g id="node10" class="node"><title>Node10</title>
<polygon fill="none" stroke="#bfbfbf" points="1718.5,-248.5 1718.5,-267.5 1809.5,-267.5 1809.5,-248.5 1718.5,-248.5"/>
<text text-anchor="middle" x="1764" y="-255.5" font-family="Helvetica,sans-Serif" font-size="10.00">FairRuntimeDb.h</text>
</g>
<!-- Node1&#45;&gt;Node10 -->
<g id="edge9" class="edge"><title>Node1&#45;&gt;Node10</title>
<path fill="none" stroke="midnightblue" d="M1697.96,-304.968C1713.06,-294.458 1730.09,-282.603 1743.07,-273.565"/>
<polygon fill="midnightblue" stroke="midnightblue" points="1745.14,-276.395 1751.34,-267.81 1741.14,-270.65 1745.14,-276.395"/>
</g>
<!-- Node11 -->
<g id="node11" class="node"><title>Node11</title>
<polygon fill="none" stroke="#bfbfbf" points="1828,-248.5 1828,-267.5 1946,-267.5 1946,-248.5 1828,-248.5"/>
<text text-anchor="middle" x="1887" y="-255.5" font-family="Helvetica,sans-Serif" font-size="10.00">FairPrimaryGenerator.h</text>
</g>
<!-- Node1&#45;&gt;Node11 -->
<g id="edge10" class="edge"><title>Node1&#45;&gt;Node11</title>
<path fill="none" stroke="midnightblue" d="M1741.01,-305.068C1778.05,-293.38 1820.42,-280.011 1849.94,-270.696"/>
<polygon fill="midnightblue" stroke="midnightblue" points="1851.33,-273.927 1859.81,-267.58 1849.22,-267.251 1851.33,-273.927"/>
</g>
<!-- Node12 -->
<g id="node12" class="node"><title>Node12</title>
<polygon fill="none" stroke="#bfbfbf" points="1964.5,-248.5 1964.5,-267.5 2065.5,-267.5 2065.5,-248.5 1964.5,-248.5"/>
<text text-anchor="middle" x="2015" y="-255.5" font-family="Helvetica,sans-Serif" font-size="10.00">FairBoxGenerator.h</text>
</g>
<!-- Node1&#45;&gt;Node12 -->
<g id="edge11" class="edge"><title>Node1&#45;&gt;Node12</title>
<path fill="none" stroke="midnightblue" d="M1741.22,-314.066C1808.72,-300.49 1903.82,-281.361 1962.33,-269.593"/>
<polygon fill="midnightblue" stroke="midnightblue" points="1963.35,-272.959 1972.46,-267.555 1961.97,-266.096 1963.35,-272.959"/>
</g>
<!-- Node13 -->
<g id="node13" class="node"><title>Node13</title>
<polygon fill="none" stroke="#bfbfbf" points="2083.5,-248.5 2083.5,-267.5 2184.5,-267.5 2184.5,-248.5 2083.5,-248.5"/>
<text text-anchor="middle" x="2134" y="-255.5" font-family="Helvetica,sans-Serif" font-size="10.00">FairParRootFileIo.h</text>
</g>
<!-- Node1&#45;&gt;Node13 -->
<g id="edge12" class="edge"><title>Node1&#45;&gt;Node13</title>
<path fill="none" stroke="midnightblue" d="M1741,-318.116C1834.69,-304.024 1988.79,-280.844 2073.51,-268.1"/>
<polygon fill="midnightblue" stroke="midnightblue" points="2074.12,-271.547 2083.49,-266.599 2073.08,-264.625 2074.12,-271.547"/>
</g>
<!-- Node14 -->
<g id="node14" class="node"><title>Node14</title>
<polygon fill="none" stroke="#bfbfbf" points="2203,-248.5 2203,-267.5 2295,-267.5 2295,-248.5 2203,-248.5"/>
<text text-anchor="middle" x="2249" y="-255.5" font-family="Helvetica,sans-Serif" font-size="10.00">FairSystemInfo.h</text>
</g>
<!-- Node1&#45;&gt;Node14 -->
<g id="edge13" class="edge"><title>Node1&#45;&gt;Node14</title>
<path fill="none" stroke="midnightblue" d="M1741.3,-321.819C1843.18,-311.067 2025.73,-290.986 2192.91,-267.954"/>
<polygon fill="midnightblue" stroke="midnightblue" points="2193.45,-271.412 2202.88,-266.574 2192.49,-264.478 2193.45,-271.412"/>
</g>
<!-- Node15 -->
<g id="node15" class="node"><title>Node15</title>
<polygon fill="none" stroke="#bfbfbf" points="2313,-248.5 2313,-267.5 2429,-267.5 2429,-248.5 2313,-248.5"/>
<text text-anchor="middle" x="2371" y="-255.5" font-family="Helvetica,sans-Serif" font-size="10.00">TGeoGlobalMagField.h</text>
</g>
<!-- Node1&#45;&gt;Node15 -->
<g id="edge14" class="edge"><title>Node1&#45;&gt;Node15</title>
<path fill="none" stroke="midnightblue" d="M1741.17,-323.31C1860.51,-313.013 2093.87,-292.055 2302.67,-268.116"/>
<polygon fill="midnightblue" stroke="midnightblue" points="2303.38,-271.558 2312.91,-266.938 2302.58,-264.604 2303.38,-271.558"/>
</g>
<!-- Node16 -->
<g id="node16" class="node"><title>Node16</title>
<g id="a_node16"><a xlink:href="../../db/d4b/MagneticField_8h.html" target="_top" xlink:title="Definition of the MagF class. ">
<polygon fill="none" stroke="black" points="1295,-248.5 1295,-267.5 1405,-267.5 1405,-248.5 1295,-248.5"/>
<text text-anchor="middle" x="1350" y="-255.5" font-family="Helvetica,sans-Serif" font-size="10.00">Field/MagneticField.h</text>
</a>
</g>
</g>
<!-- Node1&#45;&gt;Node16 -->
<g id="edge15" class="edge"><title>Node1&#45;&gt;Node16</title>
<path fill="none" stroke="midnightblue" d="M1582.87,-311.992C1524.38,-298.683 1446.68,-281.001 1397.49,-269.808"/>
<polygon fill="midnightblue" stroke="midnightblue" points="1397.97,-266.328 1387.45,-267.522 1396.42,-273.153 1397.97,-266.328"/>
</g>
<!-- Node16&#45;&gt;Node3 -->
<g id="edge52" class="edge"><title>Node16&#45;&gt;Node3</title>
<path fill="none" stroke="midnightblue" d="M1369.76,-248.474C1384.33,-241.072 1403.25,-228.876 1413,-212 1446.01,-154.859 1439.9,-72.3352 1435,-35.7162"/>
<polygon fill="midnightblue" stroke="midnightblue" points="1438.42,-34.9158 1433.51,-25.5303 1431.5,-35.9327 1438.42,-34.9158"/>
</g>
<!-- Node16&#45;&gt;Node4 -->
<g id="edge51" class="edge"><title>Node16&#45;&gt;Node4</title>
<path fill="none" stroke="midnightblue" d="M1333.13,-248.324C1316.29,-239.664 1290.19,-226.242 1270.76,-216.249"/>
<polygon fill="midnightblue" stroke="midnightblue" points="1272.32,-213.116 1261.83,-211.655 1269.12,-219.341 1272.32,-213.116"/>
</g>
<!-- Node17 -->
<g id="node17" class="node"><title>Node17</title>
<polygon fill="none" stroke="#bfbfbf" points="1460,-192.5 1460,-211.5 1522,-211.5 1522,-192.5 1460,-192.5"/>
<text text-anchor="middle" x="1491" y="-199.5" font-family="Helvetica,sans-Serif" font-size="10.00">FairField.h</text>
</g>
<!-- Node16&#45;&gt;Node17 -->
<g id="edge16" class="edge"><title>Node16&#45;&gt;Node17</title>
<path fill="none" stroke="midnightblue" d="M1372.34,-248.444C1395.75,-239.478 1432.74,-225.314 1459.19,-215.183"/>
<polygon fill="midnightblue" stroke="midnightblue" points="1460.68,-218.361 1468.76,-211.516 1458.17,-211.824 1460.68,-218.361"/>
</g>
<!-- Node18 -->
<g id="node18" class="node"><title>Node18</title>
<g id="a_node18"><a xlink:href="../../d3/d91/MagFieldParam_8h.html" target="_top" xlink:title="Definition of the MagFieldParam: container for ALICE mag. field parameters. ">
<polygon fill="none" stroke="black" points="1780.5,-192.5 1780.5,-211.5 1897.5,-211.5 1897.5,-192.5 1780.5,-192.5"/>
<text text-anchor="middle" x="1839" y="-199.5" font-family="Helvetica,sans-Serif" font-size="10.00">Field/MagFieldParam.h</text>
</a>
</g>
</g>
<!-- Node16&#45;&gt;Node18 -->
<g id="edge17" class="edge"><title>Node16&#45;&gt;Node18</title>
<path fill="none" stroke="midnightblue" d="M1405.3,-249.221C1408.58,-248.797 1411.83,-248.387 1415,-248 1540.02,-232.714 1686.16,-217.868 1770.12,-209.63"/>
<polygon fill="midnightblue" stroke="midnightblue" points="1770.68,-213.092 1780.29,-208.634 1770,-206.125 1770.68,-213.092"/>
</g>
<!-- Node20 -->
<g id="node20" class="node"><title>Node20</title>
<g id="a_node20"><a xlink:href="../../dd/dfb/MagneticWrapperChebyshev_8h.html" target="_top" xlink:title="Field/MagneticWrapperChebyshev.h">
<polygon fill="none" stroke="black" points="1540.5,-192.5 1540.5,-211.5 1715.5,-211.5 1715.5,-192.5 1540.5,-192.5"/>
<text text-anchor="middle" x="1628" y="-199.5" font-family="Helvetica,sans-Serif" font-size="10.00">Field/MagneticWrapperChebyshev.h</text>
</a>
</g>
</g>
<!-- Node16&#45;&gt;Node20 -->
<g id="edge20" class="edge"><title>Node16&#45;&gt;Node20</title>
<path fill="none" stroke="midnightblue" d="M1394.05,-248.444C1442.85,-238.964 1521.56,-223.675 1574.03,-213.483"/>
<polygon fill="midnightblue" stroke="midnightblue" points="1575.01,-216.859 1584.16,-211.516 1573.67,-209.988 1575.01,-216.859"/>
</g>
<!-- Node21 -->
<g id="node21" class="node"><title>Node21</title>
<polygon fill="none" stroke="#bfbfbf" points="1786,-6.5 1786,-25.5 1848,-25.5 1848,-6.5 1786,-6.5"/>
<text text-anchor="middle" x="1817" y="-13.5" font-family="Helvetica,sans-Serif" font-size="10.00">TNamed.h</text>
</g>
<!-- Node16&#45;&gt;Node21 -->
<g id="edge53" class="edge"><title>Node16&#45;&gt;Node21</title>
<path fill="none" stroke="midnightblue" d="M1405.29,-249.063C1408.57,-248.679 1411.83,-248.321 1415,-248 1477.25,-241.705 1925.62,-247.714 1977,-212 2032.17,-173.652 2064.41,-120.909 2023,-68 2002.95,-42.3778 1912.51,-27.8348 1858.36,-21.2793"/>
<polygon fill="midnightblue" stroke="midnightblue" points="1858.7,-17.7963 1848.36,-20.1105 1857.89,-24.7489 1858.7,-17.7963"/>
</g>
<!-- Node26 -->
<g id="node26" class="node"><title>Node26</title>
<g id="a_node26"><a xlink:href="../../da/df4/MagFieldFast_8h.html" target="_top" xlink:title="Definition of the fast magnetic field parametrization MagFieldFast. ">
<polygon fill="none" stroke="black" points="1296,-192.5 1296,-211.5 1404,-211.5 1404,-192.5 1296,-192.5"/>
<text text-anchor="middle" x="1350" y="-199.5" font-family="Helvetica,sans-Serif" font-size="10.00">Field/MagFieldFast.h</text>
</a>
</g>
</g>
<!-- Node16&#45;&gt;Node26 -->
<g id="edge36" class="edge"><title>Node16&#45;&gt;Node26</title>
<path fill="none" stroke="midnightblue" d="M1350,-248.083C1350,-241.006 1350,-230.861 1350,-221.986"/>
<polygon fill="midnightblue" stroke="midnightblue" points="1353.5,-221.751 1350,-211.751 1346.5,-221.751 1353.5,-221.751"/>
</g>
<!-- Node38 -->
<g id="node38" class="node"><title>Node38</title>
<polygon fill="none" stroke="#bfbfbf" points="1916,-192.5 1916,-211.5 1968,-211.5 1968,-192.5 1916,-192.5"/>
<text text-anchor="middle" x="1942" y="-199.5" font-family="Helvetica,sans-Serif" font-size="10.00">memory</text>
</g>
<!-- Node16&#45;&gt;Node38 -->
<g id="edge54" class="edge"><title>Node16&#45;&gt;Node38</title>
<path fill="none" stroke="midnightblue" d="M1405.29,-249.098C1408.57,-248.705 1411.83,-248.336 1415,-248 1629.3,-225.331 1688.18,-246.016 1905.62,-211.733"/>
<polygon fill="midnightblue" stroke="midnightblue" points="1906.44,-215.147 1915.76,-210.113 1905.33,-208.235 1906.44,-215.147"/>
</g>
<!-- Node18&#45;&gt;Node6 -->
<g id="edge19" class="edge"><title>Node18&#45;&gt;Node6</title>
<path fill="none" stroke="midnightblue" d="M1886.8,-192.467C1924.58,-184.649 1972.92,-171.889 1985,-156 1996.17,-141.307 1994.96,-119.525 1992.03,-103.966"/>
<polygon fill="midnightblue" stroke="midnightblue" points="1995.38,-102.9 1989.75,-93.9269 1988.55,-104.454 1995.38,-102.9"/>
</g>
<!-- Node19 -->
<g id="node19" class="node"><title>Node19</title>
<polygon fill="none" stroke="#bfbfbf" points="1871.5,-136.5 1871.5,-155.5 1976.5,-155.5 1976.5,-136.5 1871.5,-136.5"/>
<text text-anchor="middle" x="1924" y="-143.5" font-family="Helvetica,sans-Serif" font-size="10.00">FairParGenericSet.h</text>
</g>
<!-- Node18&#45;&gt;Node19 -->
<g id="edge18" class="edge"><title>Node18&#45;&gt;Node19</title>
<path fill="none" stroke="midnightblue" d="M1852.66,-192.324C1865.92,-183.9 1886.27,-170.971 1901.85,-161.074"/>
<polygon fill="midnightblue" stroke="midnightblue" points="1903.81,-163.971 1910.38,-155.655 1900.06,-158.063 1903.81,-163.971"/>
</g>
<!-- Node20&#45;&gt;Node3 -->
<g id="edge35" class="edge"><title>Node20&#45;&gt;Node3</title>
<path fill="none" stroke="midnightblue" d="M1611.74,-192.468C1583.29,-176.96 1523.74,-141.856 1484,-100 1465.12,-80.1145 1449.39,-52.3496 1440.34,-34.5211"/>
<polygon fill="midnightblue" stroke="midnightblue" points="1443.47,-32.9538 1435.91,-25.5292 1437.19,-36.0466 1443.47,-32.9538"/>
</g>
<!-- Node20&#45;&gt;Node5 -->
<g id="edge21" class="edge"><title>Node20&#45;&gt;Node5</title>
<path fill="none" stroke="midnightblue" d="M1565.73,-192.444C1482.93,-181.067 1339.24,-161.323 1271.86,-152.065"/>
<polygon fill="midnightblue" stroke="midnightblue" points="1272.11,-148.566 1261.73,-150.672 1271.16,-155.501 1272.11,-148.566"/>
</g>
<!-- Node20&#45;&gt;Node21 -->
<g id="edge22" class="edge"><title>Node20&#45;&gt;Node21</title>
<path fill="none" stroke="midnightblue" d="M1699.96,-192.44C1734.13,-186.061 1774.51,-175.021 1807,-156 1836.57,-138.688 1847.32,-131.837 1860,-100 1865.26,-86.7867 1864.88,-81.3588 1860,-68 1855.03,-54.4023 1844.66,-41.9242 1835.35,-32.7144"/>
<polygon fill="midnightblue" stroke="midnightblue" points="1837.63,-30.0482 1827.92,-25.7939 1832.86,-35.1707 1837.63,-30.0482"/>
</g>
<!-- Node22 -->
<g id="node22" class="node"><title>Node22</title>
<polygon fill="none" stroke="#bfbfbf" points="1782.5,-74.5 1782.5,-93.5 1851.5,-93.5 1851.5,-74.5 1782.5,-74.5"/>
<text text-anchor="middle" x="1817" y="-81.5" font-family="Helvetica,sans-Serif" font-size="10.00">TObjArray.h</text>
</g>
<!-- Node20&#45;&gt;Node22 -->
<g id="edge23" class="edge"><title>Node20&#45;&gt;Node22</title>
<path fill="none" stroke="midnightblue" d="M1707.37,-192.43C1734.85,-186.07 1764.2,-175.052 1786,-156 1801.47,-142.479 1809.51,-119.816 1813.49,-103.734"/>
<polygon fill="midnightblue" stroke="midnightblue" points="1816.93,-104.359 1815.63,-93.8449 1810.09,-102.877 1816.93,-104.359"/>
</g>
<!-- Node23 -->
<g id="node23" class="node"><title>Node23</title>
<g id="a_node23"><a xlink:href="../../d8/d64/Chebyshev3D_8h.html" target="_top" xlink:title="MathUtils/Chebyshev3D.h">
<polygon fill="none" stroke="black" points="1645,-136.5 1645,-155.5 1777,-155.5 1777,-136.5 1645,-136.5"/>
<text text-anchor="middle" x="1711" y="-143.5" font-family="Helvetica,sans-Serif" font-size="10.00">MathUtils/Chebyshev3D.h</text>
</a>
</g>
</g>
<!-- Node20&#45;&gt;Node23 -->
<g id="edge24" class="edge"><title>Node20&#45;&gt;Node23</title>
<path fill="none" stroke="midnightblue" d="M1641.34,-192.324C1654.16,-183.979 1673.78,-171.212 1688.94,-161.352"/>
<polygon fill="midnightblue" stroke="midnightblue" points="1691.22,-164.042 1697.7,-155.655 1687.41,-158.174 1691.22,-164.042"/>
</g>
<!-- Node25 -->
<g id="node25" class="node"><title>Node25</title>
<g id="a_node25"><a xlink:href="../../d4/d08/Chebyshev3DCalc_8h.html" target="_top" xlink:title="MathUtils/Chebyshev3DCalc.h">
<polygon fill="none" stroke="black" points="1536,-74.5 1536,-93.5 1688,-93.5 1688,-74.5 1536,-74.5"/>
<text text-anchor="middle" x="1612" y="-81.5" font-family="Helvetica,sans-Serif" font-size="10.00">MathUtils/Chebyshev3DCalc.h</text>
</a>
</g>
</g>
<!-- Node20&#45;&gt;Node25 -->
<g id="edge34" class="edge"><title>Node20&#45;&gt;Node25</title>
<path fill="none" stroke="midnightblue" d="M1626.8,-192.281C1624.21,-173.547 1618.08,-129.098 1614.58,-103.682"/>
<polygon fill="midnightblue" stroke="midnightblue" points="1618.01,-102.933 1613.17,-93.5048 1611.07,-103.889 1618.01,-102.933"/>
</g>
<!-- Node23&#45;&gt;Node3 -->
<g id="edge32" class="edge"><title>Node23&#45;&gt;Node3</title>
<path fill="none" stroke="midnightblue" d="M1644.86,-136.669C1608.56,-130.207 1563.63,-119.021 1527,-100 1509.69,-91.0105 1470.47,-54.3473 1448.22,-32.8733"/>
<polygon fill="midnightblue" stroke="midnightblue" points="1450.47,-30.1824 1440.86,-25.7285 1445.6,-35.2051 1450.47,-30.1824"/>
</g>
<!-- Node23&#45;&gt;Node6 -->
<g id="edge33" class="edge"><title>Node23&#45;&gt;Node6</title>
<path fill="none" stroke="midnightblue" d="M1750.25,-136.467C1803.13,-124.972 1896.63,-104.645 1948.91,-93.2804"/>
<polygon fill="midnightblue" stroke="midnightblue" points="1949.76,-96.6767 1958.79,-91.1322 1948.28,-89.8365 1949.76,-96.6767"/>
</g>
<!-- Node23&#45;&gt;Node21 -->
<g id="edge25" class="edge"><title>Node23&#45;&gt;Node21</title>
<path fill="none" stroke="midnightblue" d="M1717.95,-136.42C1729.52,-122.163 1753.47,-92.7137 1774,-68 1783.61,-56.4238 1794.55,-43.4601 1802.98,-33.4998"/>
<polygon fill="midnightblue" stroke="midnightblue" points="1805.86,-35.5206 1809.66,-25.6302 1800.52,-30.9929 1805.86,-35.5206"/>
</g>
<!-- Node23&#45;&gt;Node22 -->
<g id="edge26" class="edge"><title>Node23&#45;&gt;Node22</title>
<path fill="none" stroke="midnightblue" d="M1726.19,-136.403C1743.66,-126.512 1772.58,-110.144 1793.08,-98.5378"/>
<polygon fill="midnightblue" stroke="midnightblue" points="1794.86,-101.553 1801.84,-93.5806 1791.41,-95.4607 1794.86,-101.553"/>
</g>
<!-- Node24 -->
<g id="node24" class="node"><title>Node24</title>
<polygon fill="none" stroke="#bfbfbf" points="1642.5,-6.5 1642.5,-25.5 1685.5,-25.5 1685.5,-6.5 1642.5,-6.5"/>
<text text-anchor="middle" x="1664" y="-13.5" font-family="Helvetica,sans-Serif" font-size="10.00">cstdio</text>
</g>
<!-- Node23&#45;&gt;Node24 -->
<g id="edge27" class="edge"><title>Node23&#45;&gt;Node24</title>
<path fill="none" stroke="midnightblue" d="M1710.52,-136.147C1709.48,-121.498 1706.31,-91.4967 1697,-68 1692.17,-55.814 1684.26,-43.4401 1677.39,-33.9327"/>
<polygon fill="midnightblue" stroke="midnightblue" points="1680.07,-31.6762 1671.26,-25.7955 1674.48,-35.8885 1680.07,-31.6762"/>
</g>
<!-- Node23&#45;&gt;Node25 -->
<g id="edge28" class="edge"><title>Node23&#45;&gt;Node25</title>
<path fill="none" stroke="midnightblue" d="M1696.82,-136.403C1680.64,-126.601 1653.97,-110.439 1634.86,-98.8526"/>
<polygon fill="midnightblue" stroke="midnightblue" points="1636.52,-95.7705 1626.16,-93.5806 1632.9,-101.757 1636.52,-95.7705"/>
</g>
<!-- Node25&#45;&gt;Node3 -->
<g id="edge31" class="edge"><title>Node25&#45;&gt;Node3</title>
<path fill="none" stroke="midnightblue" d="M1588.47,-74.3717C1556.85,-62.7779 1500.5,-42.1162 1464.75,-29.0087"/>
<polygon fill="midnightblue" stroke="midnightblue" points="1465.85,-25.6824 1455.25,-25.5259 1463.44,-32.2546 1465.85,-25.6824"/>
</g>
<!-- Node25&#45;&gt;Node21 -->
<g id="edge29" class="edge"><title>Node25&#45;&gt;Node21</title>
<path fill="none" stroke="midnightblue" d="M1638.8,-74.3717C1675.2,-62.654 1740.36,-41.6737 1781,-28.5912"/>
<polygon fill="midnightblue" stroke="midnightblue" points="1782.07,-31.9221 1790.52,-25.5259 1779.93,-25.259 1782.07,-31.9221"/>
</g>
<!-- Node25&#45;&gt;Node24 -->
<g id="edge30" class="edge"><title>Node25&#45;&gt;Node24</title>
<path fill="none" stroke="midnightblue" d="M1618.8,-74.3717C1626.85,-64.1512 1640.46,-46.884 1650.64,-33.9571"/>
<polygon fill="midnightblue" stroke="midnightblue" points="1653.59,-35.8621 1657.03,-25.8411 1648.1,-31.53 1653.59,-35.8621"/>
</g>
<!-- Node26&#45;&gt;Node3 -->
<g id="edge37" class="edge"><title>Node26&#45;&gt;Node3</title>
<path fill="none" stroke="midnightblue" d="M1295.91,-193.134C1292.56,-192.727 1289.24,-192.345 1286,-192 1072.33,-169.216 178.597,-223.41 327,-68 364.606,-28.618 1203.15,-18.9852 1393.71,-17.3015"/>
<polygon fill="midnightblue" stroke="midnightblue" points="1393.84,-20.8006 1403.81,-17.2144 1393.78,-13.8009 1393.84,-20.8006"/>
</g>
<!-- Node27 -->
<g id="node27" class="node"><title>Node27</title>
<polygon fill="none" stroke="#bfbfbf" points="1329.5,-136.5 1329.5,-155.5 1370.5,-155.5 1370.5,-136.5 1329.5,-136.5"/>
<text text-anchor="middle" x="1350" y="-143.5" font-family="Helvetica,sans-Serif" font-size="10.00">string</text>
</g>
<!-- Node26&#45;&gt;Node27 -->
<g id="edge38" class="edge"><title>Node26&#45;&gt;Node27</title>
<path fill="none" stroke="midnightblue" d="M1350,-192.083C1350,-185.006 1350,-174.861 1350,-165.986"/>
<polygon fill="midnightblue" stroke="midnightblue" points="1353.5,-165.751 1350,-155.751 1346.5,-165.751 1353.5,-165.751"/>
</g>
<!-- Node28 -->
<g id="node28" class="node"><title>Node28</title>
<g id="a_node28"><a xlink:href="../../dd/d76/Cartesian3D_8h.html" target="_top" xlink:title="MathUtils/Cartesian3D.h">
<polygon fill="none" stroke="black" points="801.5,-136.5 801.5,-155.5 926.5,-155.5 926.5,-136.5 801.5,-136.5"/>
<text text-anchor="middle" x="864" y="-143.5" font-family="Helvetica,sans-Serif" font-size="10.00">MathUtils/Cartesian3D.h</text>
</a>
</g>
</g>
<!-- Node26&#45;&gt;Node28 -->
<g id="edge39" class="edge"><title>Node26&#45;&gt;Node28</title>
<path fill="none" stroke="midnightblue" d="M1295.9,-193.262C1292.55,-192.823 1289.23,-192.399 1286,-192 1163.56,-176.867 1020.75,-162.279 936.603,-153.997"/>
<polygon fill="midnightblue" stroke="midnightblue" points="936.931,-150.512 926.636,-153.018 936.247,-157.478 936.931,-150.512"/>
</g>
<!-- Node28&#45;&gt;Node2 -->
<g id="edge47" class="edge"><title>Node28&#45;&gt;Node2</title>
<path fill="none" stroke="midnightblue" d="M801.322,-144.817C711.055,-143.238 539.823,-135.303 399,-100 396.01,-99.2503 392.944,-98.2929 389.925,-97.2252"/>
<polygon fill="midnightblue" stroke="midnightblue" points="391.174,-93.9555 380.587,-93.5587 388.616,-100.471 391.174,-93.9555"/>
</g>
<!-- Node28&#45;&gt;Node3 -->
<g id="edge45" class="edge"><title>Node28&#45;&gt;Node3</title>
<path fill="none" stroke="midnightblue" d="M926.88,-142.455C1054.94,-136.841 1337.12,-122.114 1375,-100 1400.08,-85.3576 1416.61,-54.7624 1425.13,-35.0878"/>
<polygon fill="midnightblue" stroke="midnightblue" points="1428.43,-36.276 1428.95,-25.6941 1421.94,-33.64 1428.43,-36.276"/>
</g>
<!-- Node29 -->
<g id="node29" class="node"><title>Node29</title>
<polygon fill="none" stroke="#bfbfbf" points="854.5,-69 854.5,-99 1005.5,-99 1005.5,-69 854.5,-69"/>
<text text-anchor="start" x="862.5" y="-87" font-family="Helvetica,sans-Serif" font-size="10.00">Math/GenVector/Displacement</text>
<text text-anchor="middle" x="930" y="-76" font-family="Helvetica,sans-Serif" font-size="10.00">Vector3D.h</text>
</g>
<!-- Node28&#45;&gt;Node29 -->
<g id="edge40" class="edge"><title>Node28&#45;&gt;Node29</title>
<path fill="none" stroke="midnightblue" d="M873.456,-136.403C882.144,-128.505 895.376,-116.477 906.855,-106.041"/>
<polygon fill="midnightblue" stroke="midnightblue" points="909.4,-108.457 914.445,-99.1408 904.691,-103.278 909.4,-108.457"/>
</g>
<!-- Node30 -->
<g id="node30" class="node"><title>Node30</title>
<polygon fill="none" stroke="#bfbfbf" points="1024,-74.5 1024,-93.5 1200,-93.5 1200,-74.5 1024,-74.5"/>
<text text-anchor="middle" x="1112" y="-81.5" font-family="Helvetica,sans-Serif" font-size="10.00">Math/GenVector/PositionVector3D.h</text>
</g>
<!-- Node28&#45;&gt;Node30 -->
<g id="edge41" class="edge"><title>Node28&#45;&gt;Node30</title>
<path fill="none" stroke="midnightblue" d="M899.269,-136.467C943.34,-125.805 1018.81,-107.545 1067,-95.886"/>
<polygon fill="midnightblue" stroke="midnightblue" points="1067.96,-99.2568 1076.85,-93.5034 1066.31,-92.4531 1067.96,-99.2568"/>
</g>
<!-- Node31 -->
<g id="node31" class="node"><title>Node31</title>
<polygon fill="none" stroke="#bfbfbf" points="1217.5,-74.5 1217.5,-93.5 1366.5,-93.5 1366.5,-74.5 1217.5,-74.5"/>
<text text-anchor="middle" x="1292" y="-81.5" font-family="Helvetica,sans-Serif" font-size="10.00">Math/GenVector/Rotation3D.h</text>
</g>
<!-- Node28&#45;&gt;Node31 -->
<g id="edge42" class="edge"><title>Node28&#45;&gt;Node31</title>
<path fill="none" stroke="midnightblue" d="M926.583,-137.703C995.618,-129.446 1109.93,-115.162 1208,-100 1217.14,-98.5871 1226.81,-96.9714 1236.22,-95.3358"/>
<polygon fill="midnightblue" stroke="midnightblue" points="1237.05,-98.7444 1246.29,-93.5618 1235.83,-91.8507 1237.05,-98.7444"/>
</g>
<!-- Node32 -->
<g id="node32" class="node"><title>Node32</title>
<polygon fill="none" stroke="#bfbfbf" points="408,-74.5 408,-93.5 564,-93.5 564,-74.5 408,-74.5"/>
<text text-anchor="middle" x="486" y="-81.5" font-family="Helvetica,sans-Serif" font-size="10.00">Math/GenVector/Transform3D.h</text>
</g>
<!-- Node28&#45;&gt;Node32 -->
<g id="edge43" class="edge"><title>Node28&#45;&gt;Node32</title>
<path fill="none" stroke="midnightblue" d="M807.078,-136.495C748.383,-127.656 654.227,-113.282 573,-100 563.891,-98.5106 554.254,-96.8919 544.84,-95.2871"/>
<polygon fill="midnightblue" stroke="midnightblue" points="545.197,-91.7973 534.749,-93.5581 544.015,-98.6968 545.197,-91.7973"/>
</g>
<!-- Node33 -->
<g id="node33" class="node"><title>Node33</title>
<polygon fill="none" stroke="#bfbfbf" points="582,-74.5 582,-93.5 742,-93.5 742,-74.5 582,-74.5"/>
<text text-anchor="middle" x="662" y="-81.5" font-family="Helvetica,sans-Serif" font-size="10.00">Math/GenVector/Translation3D.h</text>
</g>
<!-- Node28&#45;&gt;Node33 -->
<g id="edge44" class="edge"><title>Node28&#45;&gt;Node33</title>
<path fill="none" stroke="midnightblue" d="M835.058,-136.403C799.733,-125.911 739.869,-108.129 700.635,-96.4758"/>
<polygon fill="midnightblue" stroke="midnightblue" points="701.471,-93.0729 690.888,-93.5806 699.477,-99.7831 701.471,-93.0729"/>
</g>
<!-- Node34 -->
<g id="node34" class="node"><title>Node34</title>
<polygon fill="none" stroke="#bfbfbf" points="760,-74.5 760,-93.5 836,-93.5 836,-74.5 760,-74.5"/>
<text text-anchor="middle" x="798" y="-81.5" font-family="Helvetica,sans-Serif" font-size="10.00">TGeoMatrix.h</text>
</g>
<!-- Node28&#45;&gt;Node34 -->
<g id="edge46" class="edge"><title>Node28&#45;&gt;Node34</title>
<path fill="none" stroke="midnightblue" d="M854.544,-136.403C844.252,-127.047 827.584,-111.895 815.006,-100.46"/>
<polygon fill="midnightblue" stroke="midnightblue" points="817.192,-97.7176 807.439,-93.5806 812.484,-102.897 817.192,-97.7176"/>
</g>
<!-- Node35 -->
<g id="node35" class="node"><title>Node35</title>
<g id="a_node35"><a xlink:href="../../d2/dd0/Cartesian2D_8h.html" target="_top" xlink:title="MathUtils/Cartesian2D.h">
<polygon fill="none" stroke="black" points="116.5,-74.5 116.5,-93.5 241.5,-93.5 241.5,-74.5 116.5,-74.5"/>
<text text-anchor="middle" x="179" y="-81.5" font-family="Helvetica,sans-Serif" font-size="10.00">MathUtils/Cartesian2D.h</text>
</a>
</g>
</g>
<!-- Node28&#45;&gt;Node35 -->
<g id="edge48" class="edge"><title>Node28&#45;&gt;Node35</title>
<path fill="none" stroke="midnightblue" d="M801.137,-140.089C700.833,-132.172 498.41,-115.867 327,-100 302.473,-97.7296 275.679,-95.0689 251.712,-92.6239"/>
<polygon fill="midnightblue" stroke="midnightblue" points="251.933,-89.1283 241.628,-91.591 251.219,-96.0918 251.933,-89.1283"/>
</g>
<!-- Node36 -->
<g id="node36" class="node"><title>Node36</title>
<polygon fill="none" stroke="#bfbfbf" points="194.5,-1 194.5,-31 345.5,-31 345.5,-1 194.5,-1"/>
<text text-anchor="start" x="202.5" y="-19" font-family="Helvetica,sans-Serif" font-size="10.00">Math/GenVector/Displacement</text>
<text text-anchor="middle" x="270" y="-8" font-family="Helvetica,sans-Serif" font-size="10.00">Vector2D.h</text>
</g>
<!-- Node35&#45;&gt;Node36 -->
<g id="edge49" class="edge"><title>Node35&#45;&gt;Node36</title>
<path fill="none" stroke="midnightblue" d="M190.897,-74.3717C203.779,-65.0286 224.78,-49.7966 241.907,-37.375"/>
<polygon fill="midnightblue" stroke="midnightblue" points="244.407,-39.8859 250.447,-31.1815 240.297,-34.2194 244.407,-39.8859"/>
</g>
<!-- Node37 -->
<g id="node37" class="node"><title>Node37</title>
<polygon fill="none" stroke="#bfbfbf" points="0,-6.5 0,-25.5 176,-25.5 176,-6.5 0,-6.5"/>
<text text-anchor="middle" x="88" y="-13.5" font-family="Helvetica,sans-Serif" font-size="10.00">Math/GenVector/PositionVector2D.h</text>
</g>
<!-- Node35&#45;&gt;Node37 -->
<g id="edge50" class="edge"><title>Node35&#45;&gt;Node37</title>
<path fill="none" stroke="midnightblue" d="M167.103,-74.3717C152.116,-63.5015 126.138,-44.6602 108.058,-31.5474"/>
<polygon fill="midnightblue" stroke="midnightblue" points="110.05,-28.6684 99.8996,-25.6305 105.94,-34.3349 110.05,-28.6684"/>
</g>
</g>
</svg>
