<?xml version="1.0" encoding="UTF-8" standalone="no"?>
<!DOCTYPE svg PUBLIC "-//W3C//DTD SVG 1.1//EN"
 "http://www.w3.org/Graphics/SVG/1.1/DTD/svg11.dtd">
<!-- Generated by graphviz version 2.36.0 (20140111.2315)
 -->
<!-- Title: /home/travis/build/AliceO2Group/AliceO2/Detectors/ITSMFT/ITS/simulation/include/ITSSimulation/DigitizerTask.h Pages: 1 -->
<svg width="2517pt" height="468pt"
 viewBox="0.00 0.00 2517.00 468.00" xmlns="http://www.w3.org/2000/svg" xmlns:xlink="http://www.w3.org/1999/xlink">
<g id="graph0" class="graph" transform="scale(1 1) rotate(0) translate(4 464)">
<title>/home/travis/build/AliceO2Group/AliceO2/Detectors/ITSMFT/ITS/simulation/include/ITSSimulation/DigitizerTask.h</title>
<!-- Node1 -->
<g id="node1" class="node"><title>Node1</title>
<polygon fill="#bfbfbf" stroke="black" points="511,-396.5 511,-459.5 673,-459.5 673,-396.5 511,-396.5"/>
<text text-anchor="start" x="519" y="-447.5" font-family="Helvetica,sans-Serif" font-size="10.00">/home/travis/build</text>
<text text-anchor="start" x="519" y="-436.5" font-family="Helvetica,sans-Serif" font-size="10.00">/AliceO2Group/AliceO2</text>
<text text-anchor="start" x="519" y="-425.5" font-family="Helvetica,sans-Serif" font-size="10.00">/Detectors/ITSMFT/ITS</text>
<text text-anchor="start" x="519" y="-414.5" font-family="Helvetica,sans-Serif" font-size="10.00">/simulation/include/ITSSimulation</text>
<text text-anchor="middle" x="592" y="-403.5" font-family="Helvetica,sans-Serif" font-size="10.00">/DigitizerTask.h</text>
</g>
<!-- Node2 -->
<g id="node2" class="node"><title>Node2</title>
<polygon fill="none" stroke="#bfbfbf" points="160.5,-340.5 160.5,-359.5 203.5,-359.5 203.5,-340.5 160.5,-340.5"/>
<text text-anchor="middle" x="182" y="-347.5" font-family="Helvetica,sans-Serif" font-size="10.00">cstdio</text>
</g>
<!-- Node1&#45;&gt;Node2 -->
<g id="edge1" class="edge"><title>Node1&#45;&gt;Node2</title>
<path fill="none" stroke="midnightblue" d="M510.637,-415.474C435.649,-404.207 321.191,-385.388 213.603,-360.173"/>
<polygon fill="midnightblue" stroke="midnightblue" points="214.086,-356.691 203.548,-357.793 212.473,-363.503 214.086,-356.691"/>
</g>
<!-- Node3 -->
<g id="node3" class="node"><title>Node3</title>
<polygon fill="none" stroke="#bfbfbf" points="221.5,-340.5 221.5,-359.5 284.5,-359.5 284.5,-340.5 221.5,-340.5"/>
<text text-anchor="middle" x="253" y="-347.5" font-family="Helvetica,sans-Serif" font-size="10.00">FairTask.h</text>
</g>
<!-- Node1&#45;&gt;Node3 -->
<g id="edge2" class="edge"><title>Node1&#45;&gt;Node3</title>
<path fill="none" stroke="midnightblue" d="M510.801,-408.796C442.714,-393.532 348.253,-372.355 294.611,-360.329"/>
<polygon fill="midnightblue" stroke="midnightblue" points="295.29,-356.894 284.766,-358.122 293.758,-363.724 295.29,-356.894"/>
</g>
<!-- Node4 -->
<g id="node4" class="node"><title>Node4</title>
<polygon fill="none" stroke="#bfbfbf" points="875,-6.5 875,-25.5 931,-25.5 931,-6.5 875,-6.5"/>
<text text-anchor="middle" x="903" y="-13.5" font-family="Helvetica,sans-Serif" font-size="10.00">Rtypes.h</text>
</g>
<!-- Node1&#45;&gt;Node4 -->
<g id="edge3" class="edge"><title>Node1&#45;&gt;Node4</title>
<path fill="none" stroke="midnightblue" d="M510.927,-420.834C428.551,-409.622 313,-378.029 313,-289 313,-289 313,-289 313,-151 313,-108.825 323.701,-91.0813 359,-68 401.151,-40.4379 747.742,-23.5077 864.656,-18.5374"/>
<polygon fill="midnightblue" stroke="midnightblue" points="865.073,-22.0231 874.918,-18.1069 864.78,-15.0292 865.073,-22.0231"/>
</g>
<!-- Node5 -->
<g id="node5" class="node"><title>Node5</title>
<g id="a_node5"><a xlink:href="../../df/d29/DigiParams_8h.html" target="_top" xlink:title="Simulation parameters for the ALIPIDE chip. ">
<polygon fill="none" stroke="black" points="2028.5,-278.5 2028.5,-297.5 2189.5,-297.5 2189.5,-278.5 2028.5,-278.5"/>
<text text-anchor="middle" x="2109" y="-285.5" font-family="Helvetica,sans-Serif" font-size="10.00">ITSMFTSimulation/DigiParams.h</text>
</a>
</g>
</g>
<!-- Node1&#45;&gt;Node5 -->
<g id="edge4" class="edge"><title>Node1&#45;&gt;Node5</title>
<path fill="none" stroke="midnightblue" d="M673.119,-420.319C954.814,-397.074 1880.79,-320.257 2014,-304 2025.41,-302.608 2037.55,-300.879 2049.21,-299.097"/>
<polygon fill="midnightblue" stroke="midnightblue" points="2049.95,-302.523 2059.3,-297.523 2048.88,-295.606 2049.95,-302.523"/>
</g>
<!-- Node6 -->
<g id="node6" class="node"><title>Node6</title>
<g id="a_node6"><a xlink:href="../../d7/d9c/ITSMFT_2common_2simulation_2include_2ITSMFTSimulation_2Digitizer_8h.html" target="_top" xlink:title="ITSMFTSimulation/Digitizer.h">
<polygon fill="none" stroke="black" points="789,-340.5 789,-359.5 935,-359.5 935,-340.5 789,-340.5"/>
<text text-anchor="middle" x="862" y="-347.5" font-family="Helvetica,sans-Serif" font-size="10.00">ITSMFTSimulation/Digitizer.h</text>
</a>
</g>
</g>
<!-- Node1&#45;&gt;Node6 -->
<g id="edge6" class="edge"><title>Node1&#45;&gt;Node6</title>
<path fill="none" stroke="midnightblue" d="M673.009,-404.197C722.164,-390.361 782.754,-373.306 821.865,-362.297"/>
<polygon fill="midnightblue" stroke="midnightblue" points="822.891,-365.645 831.569,-359.566 820.994,-358.906 822.891,-365.645"/>
</g>
<!-- Node44 -->
<g id="node44" class="node"><title>Node44</title>
<g id="a_node44"><a xlink:href="../../d0/dae/ITSMFT_2common_2simulation_2include_2ITSMFTSimulation_2Hit_8h.html" target="_top" xlink:title="ITSMFTSimulation/Hit.h">
<polygon fill="none" stroke="black" points="2208,-278.5 2208,-297.5 2330,-297.5 2330,-278.5 2208,-278.5"/>
<text text-anchor="middle" x="2269" y="-285.5" font-family="Helvetica,sans-Serif" font-size="10.00">ITSMFTSimulation/Hit.h</text>
</a>
</g>
</g>
<!-- Node1&#45;&gt;Node44 -->
<g id="edge65" class="edge"><title>Node1&#45;&gt;Node44</title>
<path fill="none" stroke="midnightblue" d="M673.064,-424.722C909.325,-417.242 1617.28,-388.839 2198,-304 2206.15,-302.809 2214.78,-301.247 2223.09,-299.582"/>
<polygon fill="midnightblue" stroke="midnightblue" points="2223.96,-302.977 2233.04,-297.518 2222.54,-296.123 2223.96,-302.977"/>
</g>
<!-- Node5&#45;&gt;Node4 -->
<g id="edge5" class="edge"><title>Node5&#45;&gt;Node4</title>
<path fill="none" stroke="midnightblue" d="M2117.02,-278.093C2145.54,-245.39 2237.13,-130.584 2177,-68 2133.12,-22.3288 1149.2,-17.5567 941.345,-17.0581"/>
<polygon fill="midnightblue" stroke="midnightblue" points="941.224,-13.558 931.216,-17.0358 941.208,-20.5579 941.224,-13.558"/>
</g>
<!-- Node6&#45;&gt;Node4 -->
<g id="edge9" class="edge"><title>Node6&#45;&gt;Node4</title>
<path fill="none" stroke="midnightblue" d="M935.038,-344.978C1231.06,-327.401 2317.6,-249.931 2143,-68 2100.38,-23.5921 1145.64,-17.8274 941.281,-17.1017"/>
<polygon fill="midnightblue" stroke="midnightblue" points="941.053,-13.601 931.042,-17.0674 941.03,-20.6009 941.053,-13.601"/>
</g>
<!-- Node6&#45;&gt;Node5 -->
<g id="edge44" class="edge"><title>Node6&#45;&gt;Node5</title>
<path fill="none" stroke="midnightblue" d="M935.321,-349.12C1117.99,-348.77 1607.89,-343.854 2014,-304 2026.2,-302.802 2039.22,-301.058 2051.59,-299.178"/>
<polygon fill="midnightblue" stroke="midnightblue" points="2052.45,-302.585 2061.79,-297.576 2051.36,-295.67 2052.45,-302.585"/>
</g>
<!-- Node7 -->
<g id="node7" class="node"><title>Node7</title>
<polygon fill="none" stroke="#bfbfbf" points="439,-142.5 439,-161.5 483,-161.5 483,-142.5 439,-142.5"/>
<text text-anchor="middle" x="461" y="-149.5" font-family="Helvetica,sans-Serif" font-size="10.00">vector</text>
</g>
<!-- Node6&#45;&gt;Node7 -->
<g id="edge7" class="edge"><title>Node6&#45;&gt;Node7</title>
<path fill="none" stroke="midnightblue" d="M788.809,-345.261C740.695,-340.387 677.53,-329.265 627,-304 559.475,-270.237 499.062,-201.067 473.684,-169.44"/>
<polygon fill="midnightblue" stroke="midnightblue" points="476.421,-167.258 467.479,-161.575 470.926,-171.594 476.421,-167.258"/>
</g>
<!-- Node8 -->
<g id="node8" class="node"><title>Node8</title>
<polygon fill="none" stroke="#bfbfbf" points="1056,-278.5 1056,-297.5 1108,-297.5 1108,-278.5 1056,-278.5"/>
<text text-anchor="middle" x="1082" y="-285.5" font-family="Helvetica,sans-Serif" font-size="10.00">memory</text>
</g>
<!-- Node6&#45;&gt;Node8 -->
<g id="edge8" class="edge"><title>Node6&#45;&gt;Node8</title>
<path fill="none" stroke="midnightblue" d="M904.915,-340.476C942.546,-332.537 998.509,-319.597 1046,-304 1048.42,-303.205 1050.91,-302.32 1053.39,-301.388"/>
<polygon fill="midnightblue" stroke="midnightblue" points="1054.78,-304.602 1062.78,-297.655 1052.19,-298.097 1054.78,-304.602"/>
</g>
<!-- Node9 -->
<g id="node9" class="node"><title>Node9</title>
<polygon fill="none" stroke="#bfbfbf" points="841.5,-142.5 841.5,-161.5 900.5,-161.5 900.5,-142.5 841.5,-142.5"/>
<text text-anchor="middle" x="871" y="-149.5" font-family="Helvetica,sans-Serif" font-size="10.00">TObject.h</text>
</g>
<!-- Node6&#45;&gt;Node9 -->
<g id="edge10" class="edge"><title>Node6&#45;&gt;Node9</title>
<path fill="none" stroke="midnightblue" d="M862.398,-340.325C863.76,-310.664 868.252,-212.85 870.146,-171.604"/>
<polygon fill="midnightblue" stroke="midnightblue" points="873.644,-171.725 870.606,-161.575 866.651,-171.403 873.644,-171.725"/>
</g>
<!-- Node10 -->
<g id="node10" class="node"><title>Node10</title>
<g id="a_node10"><a xlink:href="../../d7/d9e/SimulationAlpide_8h.html" target="_top" xlink:title="Simulation of the ALIPIDE chip response. ">
<polygon fill="none" stroke="black" points="890.5,-273 890.5,-303 1037.5,-303 1037.5,-273 890.5,-273"/>
<text text-anchor="start" x="898.5" y="-291" font-family="Helvetica,sans-Serif" font-size="10.00">ITSMFTSimulation/Simulation</text>
<text text-anchor="middle" x="964" y="-280" font-family="Helvetica,sans-Serif" font-size="10.00">Alpide.h</text>
</a>
</g>
</g>
<!-- Node6&#45;&gt;Node10 -->
<g id="edge11" class="edge"><title>Node6&#45;&gt;Node10</title>
<path fill="none" stroke="midnightblue" d="M876.614,-340.403C890.816,-332.049 912.872,-319.075 931.272,-308.252"/>
<polygon fill="midnightblue" stroke="midnightblue" points="933.116,-311.228 939.961,-303.141 929.567,-305.194 933.116,-311.228"/>
</g>
<!-- Node11 -->
<g id="node11" class="node"><title>Node11</title>
<g id="a_node11"><a xlink:href="../../dc/d1a/AlpideSimResponse_8h.html" target="_top" xlink:title="Definition of the ITSMFT Alpide simulated response parametrization. ">
<polygon fill="none" stroke="black" points="343,-205 343,-235 489,-235 489,-205 343,-205"/>
<text text-anchor="start" x="351" y="-223" font-family="Helvetica,sans-Serif" font-size="10.00">ITSMFTSimulation/AlpideSim</text>
<text text-anchor="middle" x="416" y="-212" font-family="Helvetica,sans-Serif" font-size="10.00">Response.h</text>
</a>
</g>
</g>
<!-- Node6&#45;&gt;Node11 -->
<g id="edge43" class="edge"><title>Node6&#45;&gt;Node11</title>
<path fill="none" stroke="midnightblue" d="M788.887,-347.229C723.645,-343.641 626.43,-333.294 547,-304 506.83,-289.185 466.017,-260.749 440.86,-241.33"/>
<polygon fill="midnightblue" stroke="midnightblue" points="442.98,-238.544 432.952,-235.123 438.657,-244.051 442.98,-238.544"/>
</g>
<!-- Node32 -->
<g id="node32" class="node"><title>Node32</title>
<g id="a_node32"><a xlink:href="../../d0/d2d/common_2base_2include_2ITSMFTBase_2GeometryTGeo_8h.html" target="_top" xlink:title="ITSMFTBase/GeometryTGeo.h">
<polygon fill="none" stroke="black" points="636.5,-278.5 636.5,-297.5 789.5,-297.5 789.5,-278.5 636.5,-278.5"/>
<text text-anchor="middle" x="713" y="-285.5" font-family="Helvetica,sans-Serif" font-size="10.00">ITSMFTBase/GeometryTGeo.h</text>
</a>
</g>
</g>
<!-- Node6&#45;&gt;Node32 -->
<g id="edge45" class="edge"><title>Node6&#45;&gt;Node32</title>
<path fill="none" stroke="midnightblue" d="M840.652,-340.403C815.314,-330.2 772.862,-313.105 743.929,-301.454"/>
<polygon fill="midnightblue" stroke="midnightblue" points="744.892,-298.069 734.308,-297.581 742.277,-304.563 744.892,-298.069"/>
</g>
<!-- Node10&#45;&gt;Node9 -->
<g id="edge12" class="edge"><title>Node10&#45;&gt;Node9</title>
<path fill="none" stroke="midnightblue" d="M954.047,-272.66C936.778,-247.777 901.34,-196.716 882.838,-170.057"/>
<polygon fill="midnightblue" stroke="midnightblue" points="885.634,-167.947 877.057,-161.728 879.884,-171.938 885.634,-167.947"/>
</g>
<!-- Node10&#45;&gt;Node11 -->
<g id="edge13" class="edge"><title>Node10&#45;&gt;Node11</title>
<path fill="none" stroke="midnightblue" d="M890.379,-278.133C788.72,-265.89 605.873,-243.868 499.323,-231.035"/>
<polygon fill="midnightblue" stroke="midnightblue" points="499.602,-227.544 489.255,-229.823 498.765,-234.493 499.602,-227.544"/>
</g>
<!-- Node14 -->
<g id="node14" class="node"><title>Node14</title>
<g id="a_node14"><a xlink:href="../../d9/d55/Chip_8h.html" target="_top" xlink:title="ITSMFTSimulation/Chip.h">
<polygon fill="none" stroke="black" points="989,-210.5 989,-229.5 1119,-229.5 1119,-210.5 989,-210.5"/>
<text text-anchor="middle" x="1054" y="-217.5" font-family="Helvetica,sans-Serif" font-size="10.00">ITSMFTSimulation/Chip.h</text>
</a>
</g>
</g>
<!-- Node10&#45;&gt;Node14 -->
<g id="edge18" class="edge"><title>Node10&#45;&gt;Node14</title>
<path fill="none" stroke="midnightblue" d="M983.529,-272.679C998.482,-261.713 1019.03,-246.645 1034.08,-235.609"/>
<polygon fill="midnightblue" stroke="midnightblue" points="1036.23,-238.374 1042.22,-229.638 1032.09,-232.729 1036.23,-238.374"/>
</g>
<!-- Node11&#45;&gt;Node4 -->
<g id="edge17" class="edge"><title>Node11&#45;&gt;Node4</title>
<path fill="none" stroke="midnightblue" d="M397.581,-204.613C387.336,-195.394 375.561,-182.469 370,-168 353.852,-125.987 352.132,-97.6454 386,-68 421.867,-36.6044 751.049,-22.2829 864.658,-18.2457"/>
<polygon fill="midnightblue" stroke="midnightblue" points="864.78,-21.7437 874.652,-17.8975 864.537,-14.7479 864.78,-21.7437"/>
</g>
<!-- Node11&#45;&gt;Node7 -->
<g id="edge16" class="edge"><title>Node11&#45;&gt;Node7</title>
<path fill="none" stroke="midnightblue" d="M425.764,-204.679C432.642,-194.592 441.887,-181.033 449.181,-170.335"/>
<polygon fill="midnightblue" stroke="midnightblue" points="452.239,-172.062 454.981,-161.828 446.455,-168.119 452.239,-172.062"/>
</g>
<!-- Node12 -->
<g id="node12" class="node"><title>Node12</title>
<polygon fill="none" stroke="#bfbfbf" points="260,-6.5 260,-25.5 298,-25.5 298,-6.5 260,-6.5"/>
<text text-anchor="middle" x="279" y="-13.5" font-family="Helvetica,sans-Serif" font-size="10.00">array</text>
</g>
<!-- Node11&#45;&gt;Node12 -->
<g id="edge14" class="edge"><title>Node11&#45;&gt;Node12</title>
<path fill="none" stroke="midnightblue" d="M384.828,-204.838C368.696,-196.17 349.762,-183.713 337,-168 304.189,-127.602 288.487,-66.5604 282.319,-35.9351"/>
<polygon fill="midnightblue" stroke="midnightblue" points="285.699,-34.9711 280.405,-25.7933 278.82,-36.2689 285.699,-34.9711"/>
</g>
<!-- Node13 -->
<g id="node13" class="node"><title>Node13</title>
<polygon fill="none" stroke="#bfbfbf" points="379.5,-142.5 379.5,-161.5 420.5,-161.5 420.5,-142.5 379.5,-142.5"/>
<text text-anchor="middle" x="400" y="-149.5" font-family="Helvetica,sans-Serif" font-size="10.00">string</text>
</g>
<!-- Node11&#45;&gt;Node13 -->
<g id="edge15" class="edge"><title>Node11&#45;&gt;Node13</title>
<path fill="none" stroke="midnightblue" d="M412.528,-204.679C410.182,-194.999 407.06,-182.123 404.52,-171.645"/>
<polygon fill="midnightblue" stroke="midnightblue" points="407.898,-170.722 402.14,-161.828 401.095,-172.371 407.898,-170.722"/>
</g>
<!-- Node14&#45;&gt;Node7 -->
<g id="edge29" class="edge"><title>Node14&#45;&gt;Node7</title>
<path fill="none" stroke="midnightblue" d="M988.769,-214.404C850.937,-204.5 538.849,-180.995 492,-168 489.8,-167.39 487.566,-166.628 485.358,-165.773"/>
<polygon fill="midnightblue" stroke="midnightblue" points="486.583,-162.487 476.024,-161.613 483.734,-168.881 486.583,-162.487"/>
</g>
<!-- Node14&#45;&gt;Node9 -->
<g id="edge25" class="edge"><title>Node14&#45;&gt;Node9</title>
<path fill="none" stroke="midnightblue" d="M1029.21,-210.447C1000.46,-200.474 951.673,-183.39 910,-168 907.471,-167.066 904.855,-166.087 902.23,-165.096"/>
<polygon fill="midnightblue" stroke="midnightblue" points="903.416,-161.803 892.825,-161.513 900.924,-168.344 903.416,-161.803"/>
</g>
<!-- Node15 -->
<g id="node15" class="node"><title>Node15</title>
<g id="a_node15"><a xlink:href="../../d0/d06/ITSMFT_2common_2base_2include_2ITSMFTBase_2Digit_8h.html" target="_top" xlink:title="ITSMFTBase/Digit.h">
<polygon fill="none" stroke="black" points="918.5,-142.5 918.5,-161.5 1025.5,-161.5 1025.5,-142.5 918.5,-142.5"/>
<text text-anchor="middle" x="972" y="-149.5" font-family="Helvetica,sans-Serif" font-size="10.00">ITSMFTBase/Digit.h</text>
</a>
</g>
</g>
<!-- Node14&#45;&gt;Node15 -->
<g id="edge19" class="edge"><title>Node14&#45;&gt;Node15</title>
<path fill="none" stroke="midnightblue" d="M1043.28,-210.372C1029.9,-199.6 1006.79,-181.002 990.52,-167.906"/>
<polygon fill="midnightblue" stroke="midnightblue" points="992.707,-165.174 982.723,-161.63 988.318,-170.627 992.707,-165.174"/>
</g>
<!-- Node16 -->
<g id="node16" class="node"><title>Node16</title>
<g id="a_node16"><a xlink:href="../../d7/dcd/MCCompLabel_8h.html" target="_top" xlink:title="SimulationDataFormat\l/MCCompLabel.h">
<polygon fill="none" stroke="black" points="1006,-69 1006,-99 1120,-99 1120,-69 1006,-69"/>
<text text-anchor="start" x="1014" y="-87" font-family="Helvetica,sans-Serif" font-size="10.00">SimulationDataFormat</text>
<text text-anchor="middle" x="1063" y="-76" font-family="Helvetica,sans-Serif" font-size="10.00">/MCCompLabel.h</text>
</a>
</g>
</g>
<!-- Node14&#45;&gt;Node16 -->
<g id="edge42" class="edge"><title>Node14&#45;&gt;Node16</title>
<path fill="none" stroke="midnightblue" d="M1054.59,-210.208C1055.95,-189.984 1059.33,-139.575 1061.37,-109.244"/>
<polygon fill="midnightblue" stroke="midnightblue" points="1064.88,-109.283 1062.05,-99.0713 1057.89,-108.814 1064.88,-109.283"/>
</g>
<!-- Node18 -->
<g id="node18" class="node"><title>Node18</title>
<polygon fill="none" stroke="#bfbfbf" points="1152.5,-142.5 1152.5,-161.5 1211.5,-161.5 1211.5,-142.5 1152.5,-142.5"/>
<text text-anchor="middle" x="1182" y="-149.5" font-family="Helvetica,sans-Serif" font-size="10.00">exception</text>
</g>
<!-- Node14&#45;&gt;Node18 -->
<g id="edge26" class="edge"><title>Node14&#45;&gt;Node18</title>
<path fill="none" stroke="midnightblue" d="M1070.73,-210.372C1092.49,-199.156 1130.7,-179.453 1156.18,-166.314"/>
<polygon fill="midnightblue" stroke="midnightblue" points="1157.98,-169.324 1165.26,-161.63 1154.77,-163.103 1157.98,-169.324"/>
</g>
<!-- Node19 -->
<g id="node19" class="node"><title>Node19</title>
<polygon fill="none" stroke="#bfbfbf" points="1229.5,-142.5 1229.5,-161.5 1264.5,-161.5 1264.5,-142.5 1229.5,-142.5"/>
<text text-anchor="middle" x="1247" y="-149.5" font-family="Helvetica,sans-Serif" font-size="10.00">map</text>
</g>
<!-- Node14&#45;&gt;Node19 -->
<g id="edge27" class="edge"><title>Node14&#45;&gt;Node19</title>
<path fill="none" stroke="midnightblue" d="M1089.41,-210.422C1123.55,-201.621 1176.31,-186.604 1220,-168 1221.36,-167.422 1222.73,-166.796 1224.11,-166.137"/>
<polygon fill="midnightblue" stroke="midnightblue" points="1225.74,-169.237 1232.99,-161.513 1222.5,-163.029 1225.74,-169.237"/>
</g>
<!-- Node20 -->
<g id="node20" class="node"><title>Node20</title>
<polygon fill="none" stroke="#bfbfbf" points="1082,-142.5 1082,-161.5 1134,-161.5 1134,-142.5 1082,-142.5"/>
<text text-anchor="middle" x="1108" y="-149.5" font-family="Helvetica,sans-Serif" font-size="10.00">sstream</text>
</g>
<!-- Node14&#45;&gt;Node20 -->
<g id="edge28" class="edge"><title>Node14&#45;&gt;Node20</title>
<path fill="none" stroke="midnightblue" d="M1061.06,-210.372C1069.5,-200.053 1083.82,-182.551 1094.43,-169.585"/>
<polygon fill="midnightblue" stroke="midnightblue" points="1097.14,-171.797 1100.77,-161.841 1091.73,-167.364 1097.14,-171.797"/>
</g>
<!-- Node21 -->
<g id="node21" class="node"><title>Node21</title>
<g id="a_node21"><a xlink:href="../../dd/d76/Cartesian3D_8h.html" target="_top" xlink:title="MathUtils/Cartesian3D.h">
<polygon fill="none" stroke="black" points="1627.5,-142.5 1627.5,-161.5 1752.5,-161.5 1752.5,-142.5 1627.5,-142.5"/>
<text text-anchor="middle" x="1690" y="-149.5" font-family="Helvetica,sans-Serif" font-size="10.00">MathUtils/Cartesian3D.h</text>
</a>
</g>
</g>
<!-- Node14&#45;&gt;Node21 -->
<g id="edge30" class="edge"><title>Node14&#45;&gt;Node21</title>
<path fill="none" stroke="midnightblue" d="M1119.07,-212.247C1238.55,-199.848 1492.08,-173.538 1617.14,-160.561"/>
<polygon fill="midnightblue" stroke="midnightblue" points="1617.79,-164.013 1627.37,-159.499 1617.07,-157.05 1617.79,-164.013"/>
</g>
<!-- Node15&#45;&gt;Node4 -->
<g id="edge20" class="edge"><title>Node15&#45;&gt;Node4</title>
<path fill="none" stroke="midnightblue" d="M937.233,-142.448C891.717,-130.905 816.77,-110.573 809,-100 800.578,-88.5398 801.726,-80.2215 809,-68 821.214,-47.4775 844.885,-34.7027 865.417,-27.0711"/>
<polygon fill="midnightblue" stroke="midnightblue" points="866.557,-30.3803 874.878,-23.8218 864.283,-23.7599 866.557,-30.3803"/>
</g>
<!-- Node15&#45;&gt;Node16 -->
<g id="edge21" class="edge"><title>Node15&#45;&gt;Node16</title>
<path fill="none" stroke="midnightblue" d="M983.897,-142.372C996.779,-133.029 1017.78,-117.797 1034.91,-105.375"/>
<polygon fill="midnightblue" stroke="midnightblue" points="1037.41,-107.886 1043.45,-99.1815 1033.3,-102.219 1037.41,-107.886"/>
</g>
<!-- Node17 -->
<g id="node17" class="node"><title>Node17</title>
<g id="a_node17"><a xlink:href="../../df/d5d/common_2include_2CommonDataFormat_2TimeStamp_8h.html" target="_top" xlink:title="CommonDataFormat/TimeStamp.h">
<polygon fill="none" stroke="black" points="818,-74.5 818,-93.5 988,-93.5 988,-74.5 818,-74.5"/>
<text text-anchor="middle" x="903" y="-81.5" font-family="Helvetica,sans-Serif" font-size="10.00">CommonDataFormat/TimeStamp.h</text>
</a>
</g>
</g>
<!-- Node15&#45;&gt;Node17 -->
<g id="edge23" class="edge"><title>Node15&#45;&gt;Node17</title>
<path fill="none" stroke="midnightblue" d="M962.979,-142.372C951.986,-131.856 933.195,-113.882 919.57,-100.85"/>
<polygon fill="midnightblue" stroke="midnightblue" points="921.889,-98.2241 912.243,-93.8411 917.05,-103.283 921.889,-98.2241"/>
</g>
<!-- Node16&#45;&gt;Node4 -->
<g id="edge22" class="edge"><title>Node16&#45;&gt;Node4</title>
<path fill="none" stroke="midnightblue" d="M1028.68,-68.8413C1000.38,-57.1693 960.62,-40.7681 933.445,-29.5585"/>
<polygon fill="midnightblue" stroke="midnightblue" points="934.626,-26.2597 924.047,-25.6819 931.957,-32.7308 934.626,-26.2597"/>
</g>
<!-- Node17&#45;&gt;Node4 -->
<g id="edge24" class="edge"><title>Node17&#45;&gt;Node4</title>
<path fill="none" stroke="midnightblue" d="M903,-74.3717C903,-64.6426 903,-48.528 903,-35.8504"/>
<polygon fill="midnightblue" stroke="midnightblue" points="906.5,-35.8411 903,-25.8411 899.5,-35.8412 906.5,-35.8411"/>
</g>
<!-- Node21&#45;&gt;Node4 -->
<g id="edge36" class="edge"><title>Node21&#45;&gt;Node4</title>
<path fill="none" stroke="midnightblue" d="M1627.05,-146.966C1497.26,-138.344 1208.51,-117.481 1167,-100 1146.65,-91.4313 1148.78,-77.8204 1129,-68 1067.67,-37.5443 987.967,-25.0412 941.448,-20.082"/>
<polygon fill="midnightblue" stroke="midnightblue" points="941.505,-16.5703 931.206,-19.0556 940.807,-23.5354 941.505,-16.5703"/>
</g>
<!-- Node22 -->
<g id="node22" class="node"><title>Node22</title>
<polygon fill="none" stroke="#bfbfbf" points="1983.5,-69 1983.5,-99 2134.5,-99 2134.5,-69 1983.5,-69"/>
<text text-anchor="start" x="1991.5" y="-87" font-family="Helvetica,sans-Serif" font-size="10.00">Math/GenVector/Displacement</text>
<text text-anchor="middle" x="2059" y="-76" font-family="Helvetica,sans-Serif" font-size="10.00">Vector3D.h</text>
</g>
<!-- Node21&#45;&gt;Node22 -->
<g id="edge31" class="edge"><title>Node21&#45;&gt;Node22</title>
<path fill="none" stroke="midnightblue" d="M1737.86,-142.439C1797.37,-131.796 1900.01,-113.437 1973.24,-100.339"/>
<polygon fill="midnightblue" stroke="midnightblue" points="1974.14,-103.733 1983.37,-98.5273 1972.91,-96.8427 1974.14,-103.733"/>
</g>
<!-- Node23 -->
<g id="node23" class="node"><title>Node23</title>
<polygon fill="none" stroke="#bfbfbf" points="1176,-74.5 1176,-93.5 1352,-93.5 1352,-74.5 1176,-74.5"/>
<text text-anchor="middle" x="1264" y="-81.5" font-family="Helvetica,sans-Serif" font-size="10.00">Math/GenVector/PositionVector3D.h</text>
</g>
<!-- Node21&#45;&gt;Node23 -->
<g id="edge32" class="edge"><title>Node21&#45;&gt;Node23</title>
<path fill="none" stroke="midnightblue" d="M1634.74,-142.439C1556.22,-130.273 1412.61,-108.023 1329.04,-95.0769"/>
<polygon fill="midnightblue" stroke="midnightblue" points="1329.58,-91.6179 1319.16,-93.5455 1328.5,-98.5354 1329.58,-91.6179"/>
</g>
<!-- Node24 -->
<g id="node24" class="node"><title>Node24</title>
<polygon fill="none" stroke="#bfbfbf" points="1369.5,-74.5 1369.5,-93.5 1518.5,-93.5 1518.5,-74.5 1369.5,-74.5"/>
<text text-anchor="middle" x="1444" y="-81.5" font-family="Helvetica,sans-Serif" font-size="10.00">Math/GenVector/Rotation3D.h</text>
</g>
<!-- Node21&#45;&gt;Node24 -->
<g id="edge33" class="edge"><title>Node21&#45;&gt;Node24</title>
<path fill="none" stroke="midnightblue" d="M1658.09,-142.439C1614.03,-130.619 1534.5,-109.281 1485.76,-96.2043"/>
<polygon fill="midnightblue" stroke="midnightblue" points="1486.42,-92.7564 1475.85,-93.5455 1484.6,-99.5173 1486.42,-92.7564"/>
</g>
<!-- Node25 -->
<g id="node25" class="node"><title>Node25</title>
<polygon fill="none" stroke="#bfbfbf" points="1537,-74.5 1537,-93.5 1693,-93.5 1693,-74.5 1537,-74.5"/>
<text text-anchor="middle" x="1615" y="-81.5" font-family="Helvetica,sans-Serif" font-size="10.00">Math/GenVector/Transform3D.h</text>
</g>
<!-- Node21&#45;&gt;Node25 -->
<g id="edge34" class="edge"><title>Node21&#45;&gt;Node25</title>
<path fill="none" stroke="midnightblue" d="M1680.2,-142.372C1668.13,-131.758 1647.44,-113.545 1632.6,-100.485"/>
<polygon fill="midnightblue" stroke="midnightblue" points="1634.87,-97.8199 1625.05,-93.8411 1630.24,-103.075 1634.87,-97.8199"/>
</g>
<!-- Node26 -->
<g id="node26" class="node"><title>Node26</title>
<polygon fill="none" stroke="#bfbfbf" points="1711,-74.5 1711,-93.5 1871,-93.5 1871,-74.5 1711,-74.5"/>
<text text-anchor="middle" x="1791" y="-81.5" font-family="Helvetica,sans-Serif" font-size="10.00">Math/GenVector/Translation3D.h</text>
</g>
<!-- Node21&#45;&gt;Node26 -->
<g id="edge35" class="edge"><title>Node21&#45;&gt;Node26</title>
<path fill="none" stroke="midnightblue" d="M1703.2,-142.372C1719.99,-131.403 1749.2,-112.317 1769.28,-99.1912"/>
<polygon fill="midnightblue" stroke="midnightblue" points="1771.34,-102.031 1777.79,-93.6305 1767.51,-96.1709 1771.34,-102.031"/>
</g>
<!-- Node27 -->
<g id="node27" class="node"><title>Node27</title>
<polygon fill="none" stroke="#bfbfbf" points="1889,-74.5 1889,-93.5 1965,-93.5 1965,-74.5 1889,-74.5"/>
<text text-anchor="middle" x="1927" y="-81.5" font-family="Helvetica,sans-Serif" font-size="10.00">TGeoMatrix.h</text>
</g>
<!-- Node21&#45;&gt;Node27 -->
<g id="edge37" class="edge"><title>Node21&#45;&gt;Node27</title>
<path fill="none" stroke="midnightblue" d="M1723.77,-142.444C1761.86,-132.674 1825.6,-115.972 1880,-100 1883.58,-98.9488 1887.3,-97.8211 1891.02,-96.6732"/>
<polygon fill="midnightblue" stroke="midnightblue" points="1892.23,-99.962 1900.72,-93.6267 1890.13,-93.2836 1892.23,-99.962"/>
</g>
<!-- Node28 -->
<g id="node28" class="node"><title>Node28</title>
<polygon fill="none" stroke="#bfbfbf" points="2411,-74.5 2411,-93.5 2465,-93.5 2465,-74.5 2411,-74.5"/>
<text text-anchor="middle" x="2438" y="-81.5" font-family="Helvetica,sans-Serif" font-size="10.00">iostream</text>
</g>
<!-- Node21&#45;&gt;Node28 -->
<g id="edge38" class="edge"><title>Node21&#45;&gt;Node28</title>
<path fill="none" stroke="midnightblue" d="M1752.52,-149.023C1902.34,-143.882 2278.5,-128.474 2401,-100 2404.07,-99.2855 2407.22,-98.3506 2410.33,-97.2964"/>
<polygon fill="midnightblue" stroke="midnightblue" points="2411.82,-100.472 2419.93,-93.6458 2409.34,-93.9295 2411.82,-100.472"/>
</g>
<!-- Node29 -->
<g id="node29" class="node"><title>Node29</title>
<g id="a_node29"><a xlink:href="../../d2/dd0/Cartesian2D_8h.html" target="_top" xlink:title="MathUtils/Cartesian2D.h">
<polygon fill="none" stroke="black" points="2267.5,-74.5 2267.5,-93.5 2392.5,-93.5 2392.5,-74.5 2267.5,-74.5"/>
<text text-anchor="middle" x="2330" y="-81.5" font-family="Helvetica,sans-Serif" font-size="10.00">MathUtils/Cartesian2D.h</text>
</a>
</g>
</g>
<!-- Node21&#45;&gt;Node29 -->
<g id="edge39" class="edge"><title>Node21&#45;&gt;Node29</title>
<path fill="none" stroke="midnightblue" d="M1752.53,-144.551C1871.66,-132.267 2130.53,-105.57 2257.22,-92.5055"/>
<polygon fill="midnightblue" stroke="midnightblue" points="2257.63,-95.9821 2267.22,-91.4747 2256.91,-89.0191 2257.63,-95.9821"/>
</g>
<!-- Node30 -->
<g id="node30" class="node"><title>Node30</title>
<polygon fill="none" stroke="#bfbfbf" points="2163.5,-1 2163.5,-31 2314.5,-31 2314.5,-1 2163.5,-1"/>
<text text-anchor="start" x="2171.5" y="-19" font-family="Helvetica,sans-Serif" font-size="10.00">Math/GenVector/Displacement</text>
<text text-anchor="middle" x="2239" y="-8" font-family="Helvetica,sans-Serif" font-size="10.00">Vector2D.h</text>
</g>
<!-- Node29&#45;&gt;Node30 -->
<g id="edge40" class="edge"><title>Node29&#45;&gt;Node30</title>
<path fill="none" stroke="midnightblue" d="M2318.1,-74.3717C2305.22,-65.0286 2284.22,-49.7966 2267.09,-37.375"/>
<polygon fill="midnightblue" stroke="midnightblue" points="2268.7,-34.2194 2258.55,-31.1815 2264.59,-39.8859 2268.7,-34.2194"/>
</g>
<!-- Node31 -->
<g id="node31" class="node"><title>Node31</title>
<polygon fill="none" stroke="#bfbfbf" points="2333,-6.5 2333,-25.5 2509,-25.5 2509,-6.5 2333,-6.5"/>
<text text-anchor="middle" x="2421" y="-13.5" font-family="Helvetica,sans-Serif" font-size="10.00">Math/GenVector/PositionVector2D.h</text>
</g>
<!-- Node29&#45;&gt;Node31 -->
<g id="edge41" class="edge"><title>Node29&#45;&gt;Node31</title>
<path fill="none" stroke="midnightblue" d="M2341.9,-74.3717C2356.88,-63.5015 2382.86,-44.6602 2400.94,-31.5474"/>
<polygon fill="midnightblue" stroke="midnightblue" points="2403.06,-34.3349 2409.1,-25.6305 2398.95,-28.6684 2403.06,-34.3349"/>
</g>
<!-- Node32&#45;&gt;Node13 -->
<g id="edge47" class="edge"><title>Node32&#45;&gt;Node13</title>
<path fill="none" stroke="midnightblue" d="M689.479,-278.354C662.959,-268.503 618.628,-251.728 581,-236 513.091,-207.615 496.485,-199.576 430,-168 428.652,-167.36 427.273,-166.698 425.884,-166.024"/>
<polygon fill="midnightblue" stroke="midnightblue" points="427.277,-162.809 416.76,-161.53 424.184,-169.088 427.277,-162.809"/>
</g>
<!-- Node33 -->
<g id="node33" class="node"><title>Node33</title>
<polygon fill="none" stroke="#bfbfbf" points="764.5,-210.5 764.5,-229.5 833.5,-229.5 833.5,-210.5 764.5,-210.5"/>
<text text-anchor="middle" x="799" y="-217.5" font-family="Helvetica,sans-Serif" font-size="10.00">TObjArray.h</text>
</g>
<!-- Node32&#45;&gt;Node33 -->
<g id="edge46" class="edge"><title>Node32&#45;&gt;Node33</title>
<path fill="none" stroke="midnightblue" d="M724.243,-278.372C738.278,-267.6 762.512,-249.002 779.576,-235.906"/>
<polygon fill="midnightblue" stroke="midnightblue" points="781.952,-238.495 787.754,-229.63 777.69,-232.942 781.952,-238.495"/>
</g>
<!-- Node34 -->
<g id="node34" class="node"><title>Node34</title>
<g id="a_node34"><a xlink:href="../../d4/d20/DetMatrixCache_8h.html" target="_top" xlink:title="DetectorsCommonDataFormats\l/DetMatrixCache.h">
<polygon fill="none" stroke="black" points="590,-205 590,-235 746,-235 746,-205 590,-205"/>
<text text-anchor="start" x="598" y="-223" font-family="Helvetica,sans-Serif" font-size="10.00">DetectorsCommonDataFormats</text>
<text text-anchor="middle" x="668" y="-212" font-family="Helvetica,sans-Serif" font-size="10.00">/DetMatrixCache.h</text>
</a>
</g>
</g>
<!-- Node32&#45;&gt;Node34 -->
<g id="edge48" class="edge"><title>Node32&#45;&gt;Node34</title>
<path fill="none" stroke="midnightblue" d="M707.117,-278.372C701.097,-269.543 691.493,-255.456 683.307,-243.45"/>
<polygon fill="midnightblue" stroke="midnightblue" points="686.194,-241.472 677.669,-235.181 680.411,-245.415 686.194,-241.472"/>
</g>
<!-- Node34&#45;&gt;Node4 -->
<g id="edge64" class="edge"><title>Node34&#45;&gt;Node4</title>
<path fill="none" stroke="midnightblue" d="M739.622,-204.897C760.01,-197.338 780.148,-185.751 793,-168 819.128,-131.912 775.195,-105.01 800,-68 814.806,-45.9087 842.113,-32.9965 864.891,-25.6935"/>
<polygon fill="midnightblue" stroke="midnightblue" points="866.053,-28.9997 874.651,-22.8082 864.069,-22.2869 866.053,-28.9997"/>
</g>
<!-- Node34&#45;&gt;Node7 -->
<g id="edge51" class="edge"><title>Node34&#45;&gt;Node7</title>
<path fill="none" stroke="midnightblue" d="M610.524,-204.969C575.739,-195.834 530.76,-182.871 492,-168 490.35,-167.367 488.667,-166.68 486.982,-165.96"/>
<polygon fill="midnightblue" stroke="midnightblue" points="488.054,-162.601 477.504,-161.622 485.141,-168.966 488.054,-162.601"/>
</g>
<!-- Node34&#45;&gt;Node12 -->
<g id="edge50" class="edge"><title>Node34&#45;&gt;Node12</title>
<path fill="none" stroke="midnightblue" d="M672.134,-204.896C679.958,-174.916 693.031,-104.606 656,-68 607.101,-19.6625 388.367,-16.2166 308.4,-16.6147"/>
<polygon fill="midnightblue" stroke="midnightblue" points="308.043,-13.1172 298.07,-16.6921 308.096,-20.117 308.043,-13.1172"/>
</g>
<!-- Node34&#45;&gt;Node21 -->
<g id="edge63" class="edge"><title>Node34&#45;&gt;Node21</title>
<path fill="none" stroke="midnightblue" d="M746.193,-205.077C749.163,-204.689 752.106,-204.327 755,-204 921.749,-185.142 1427.64,-163.532 1617.22,-155.873"/>
<polygon fill="midnightblue" stroke="midnightblue" points="1617.51,-159.364 1627.36,-155.464 1617.23,-152.37 1617.51,-159.364"/>
</g>
<!-- Node35 -->
<g id="node35" class="node"><title>Node35</title>
<polygon fill="none" stroke="#bfbfbf" points="713.5,-142.5 713.5,-161.5 784.5,-161.5 784.5,-142.5 713.5,-142.5"/>
<text text-anchor="middle" x="749" y="-149.5" font-family="Helvetica,sans-Serif" font-size="10.00">FairLogger.h</text>
</g>
<!-- Node34&#45;&gt;Node35 -->
<g id="edge49" class="edge"><title>Node34&#45;&gt;Node35</title>
<path fill="none" stroke="midnightblue" d="M685.576,-204.679C698.706,-193.981 716.628,-179.377 730.073,-168.422"/>
<polygon fill="midnightblue" stroke="midnightblue" points="732.624,-170.858 738.165,-161.828 728.202,-165.432 732.624,-170.858"/>
</g>
<!-- Node36 -->
<g id="node36" class="node"><title>Node36</title>
<g id="a_node36"><a xlink:href="../../d6/d31/DetID_8h.html" target="_top" xlink:title="DetectorsCommonDataFormats\l/DetID.h">
<polygon fill="none" stroke="black" points="501,-137 501,-167 657,-167 657,-137 501,-137"/>
<text text-anchor="start" x="509" y="-155" font-family="Helvetica,sans-Serif" font-size="10.00">DetectorsCommonDataFormats</text>
<text text-anchor="middle" x="579" y="-144" font-family="Helvetica,sans-Serif" font-size="10.00">/DetID.h</text>
</a>
</g>
</g>
<!-- Node34&#45;&gt;Node36 -->
<g id="edge52" class="edge"><title>Node34&#45;&gt;Node36</title>
<path fill="none" stroke="midnightblue" d="M648.688,-204.679C636.241,-195.449 619.874,-183.311 606.129,-173.118"/>
<polygon fill="midnightblue" stroke="midnightblue" points="608.085,-170.212 597.968,-167.066 603.916,-175.834 608.085,-170.212"/>
</g>
<!-- Node36&#45;&gt;Node4 -->
<g id="edge53" class="edge"><title>Node36&#45;&gt;Node4</title>
<path fill="none" stroke="midnightblue" d="M602.594,-136.949C633.085,-119.199 688.184,-88.5027 738,-68 780.339,-50.5745 830.876,-35.7913 864.767,-26.6983"/>
<polygon fill="midnightblue" stroke="midnightblue" points="865.951,-30.0053 874.723,-24.0623 864.16,-23.2384 865.951,-30.0053"/>
</g>
<!-- Node36&#45;&gt;Node12 -->
<g id="edge54" class="edge"><title>Node36&#45;&gt;Node12</title>
<path fill="none" stroke="midnightblue" d="M500.836,-137.804C464.676,-129.85 421.885,-117.737 386,-100 350.063,-82.238 314.531,-51.3164 294.806,-32.6445"/>
<polygon fill="midnightblue" stroke="midnightblue" points="297.222,-30.1119 287.593,-25.6908 292.363,-35.1513 297.222,-30.1119"/>
</g>
<!-- Node37 -->
<g id="node37" class="node"><title>Node37</title>
<polygon fill="none" stroke="#bfbfbf" points="395.5,-74.5 395.5,-93.5 436.5,-93.5 436.5,-74.5 395.5,-74.5"/>
<text text-anchor="middle" x="416" y="-81.5" font-family="Helvetica,sans-Serif" font-size="10.00">bitset</text>
</g>
<!-- Node36&#45;&gt;Node37 -->
<g id="edge55" class="edge"><title>Node36&#45;&gt;Node37</title>
<path fill="none" stroke="midnightblue" d="M538.644,-136.997C511.791,-127.349 475.904,-113.82 445,-100 443.642,-99.3926 442.257,-98.752 440.866,-98.0915"/>
<polygon fill="midnightblue" stroke="midnightblue" points="442.308,-94.9001 431.796,-93.5826 439.192,-101.168 442.308,-94.9001"/>
</g>
<!-- Node38 -->
<g id="node38" class="node"><title>Node38</title>
<polygon fill="none" stroke="#bfbfbf" points="454.5,-74.5 454.5,-93.5 503.5,-93.5 503.5,-74.5 454.5,-74.5"/>
<text text-anchor="middle" x="479" y="-81.5" font-family="Helvetica,sans-Serif" font-size="10.00">cassert</text>
</g>
<!-- Node36&#45;&gt;Node38 -->
<g id="edge56" class="edge"><title>Node36&#45;&gt;Node38</title>
<path fill="none" stroke="midnightblue" d="M557.301,-136.679C540.532,-125.611 517.429,-110.363 500.667,-99.3002"/>
<polygon fill="midnightblue" stroke="midnightblue" points="502.362,-96.2252 492.088,-93.6379 498.506,-102.067 502.362,-96.2252"/>
</g>
<!-- Node39 -->
<g id="node39" class="node"><title>Node39</title>
<polygon fill="none" stroke="#bfbfbf" points="522,-74.5 522,-93.5 568,-93.5 568,-74.5 522,-74.5"/>
<text text-anchor="middle" x="545" y="-81.5" font-family="Helvetica,sans-Serif" font-size="10.00">cstdint</text>
</g>
<!-- Node36&#45;&gt;Node39 -->
<g id="edge57" class="edge"><title>Node36&#45;&gt;Node39</title>
<path fill="none" stroke="midnightblue" d="M571.623,-136.679C566.531,-126.796 559.723,-113.579 554.266,-102.986"/>
<polygon fill="midnightblue" stroke="midnightblue" points="557.239,-101.115 549.548,-93.8283 551.016,-104.321 557.239,-101.115"/>
</g>
<!-- Node40 -->
<g id="node40" class="node"><title>Node40</title>
<polygon fill="none" stroke="#bfbfbf" points="586,-74.5 586,-93.5 648,-93.5 648,-74.5 586,-74.5"/>
<text text-anchor="middle" x="617" y="-81.5" font-family="Helvetica,sans-Serif" font-size="10.00">type_traits</text>
</g>
<!-- Node36&#45;&gt;Node40 -->
<g id="edge58" class="edge"><title>Node36&#45;&gt;Node40</title>
<path fill="none" stroke="midnightblue" d="M587.245,-136.679C592.994,-126.694 600.702,-113.307 606.832,-102.66"/>
<polygon fill="midnightblue" stroke="midnightblue" points="609.961,-104.241 611.917,-93.8283 603.894,-100.748 609.961,-104.241"/>
</g>
<!-- Node41 -->
<g id="node41" class="node"><title>Node41</title>
<g id="a_node41"><a xlink:href="../../d9/d52/Common_2MathUtils_2include_2MathUtils_2Utils_8h.html" target="_top" xlink:title="MathUtils/Utils.h">
<polygon fill="none" stroke="black" points="111,-74.5 111,-93.5 201,-93.5 201,-74.5 111,-74.5"/>
<text text-anchor="middle" x="156" y="-81.5" font-family="Helvetica,sans-Serif" font-size="10.00">MathUtils/Utils.h</text>
</a>
</g>
</g>
<!-- Node36&#45;&gt;Node41 -->
<g id="edge59" class="edge"><title>Node36&#45;&gt;Node41</title>
<path fill="none" stroke="midnightblue" d="M500.802,-137.597C497.491,-137.053 494.213,-136.518 491,-136 392.594,-120.124 277.701,-102.922 211.252,-93.1045"/>
<polygon fill="midnightblue" stroke="midnightblue" points="211.417,-89.5911 201.013,-91.5936 210.395,-96.5161 211.417,-89.5911"/>
</g>
<!-- Node41&#45;&gt;Node12 -->
<g id="edge60" class="edge"><title>Node41&#45;&gt;Node12</title>
<path fill="none" stroke="midnightblue" d="M172.08,-74.3717C192.891,-63.2051 229.378,-43.6266 253.864,-30.4876"/>
<polygon fill="midnightblue" stroke="midnightblue" points="255.759,-33.4428 262.916,-25.6305 252.449,-27.2746 255.759,-33.4428"/>
</g>
<!-- Node42 -->
<g id="node42" class="node"><title>Node42</title>
<polygon fill="none" stroke="#bfbfbf" points="0,-6.5 0,-25.5 44,-25.5 44,-6.5 0,-6.5"/>
<text text-anchor="middle" x="22" y="-13.5" font-family="Helvetica,sans-Serif" font-size="10.00">cmath</text>
</g>
<!-- Node41&#45;&gt;Node42 -->
<g id="edge61" class="edge"><title>Node41&#45;&gt;Node42</title>
<path fill="none" stroke="midnightblue" d="M138.482,-74.3717C115.61,-63.1063 75.3551,-43.2794 48.6789,-30.1403"/>
<polygon fill="midnightblue" stroke="midnightblue" points="50.0399,-26.9092 39.5225,-25.6305 46.9469,-33.1888 50.0399,-26.9092"/>
</g>
<!-- Node43 -->
<g id="node43" class="node"><title>Node43</title>
<g id="a_node43"><a xlink:href="../../d6/d84/MathConstants_8h.html" target="_top" xlink:title="useful math constants ">
<polygon fill="none" stroke="black" points="62.5,-6.5 62.5,-25.5 241.5,-25.5 241.5,-6.5 62.5,-6.5"/>
<text text-anchor="middle" x="152" y="-13.5" font-family="Helvetica,sans-Serif" font-size="10.00">CommonConstants/MathConstants.h</text>
</a>
</g>
</g>
<!-- Node41&#45;&gt;Node43 -->
<g id="edge62" class="edge"><title>Node41&#45;&gt;Node43</title>
<path fill="none" stroke="midnightblue" d="M155.477,-74.3717C154.887,-64.6426 153.911,-48.528 153.142,-35.8504"/>
<polygon fill="midnightblue" stroke="midnightblue" points="156.634,-35.611 152.536,-25.8411 149.647,-36.0346 156.634,-35.611"/>
</g>
<!-- Node44&#45;&gt;Node4 -->
<g id="edge69" class="edge"><title>Node44&#45;&gt;Node4</title>
<path fill="none" stroke="midnightblue" d="M2266.89,-278.485C2257.22,-239.759 2216.83,-81.5646 2199,-68 2147.7,-28.9696 1150.98,-18.9566 941.446,-17.2795"/>
<polygon fill="midnightblue" stroke="midnightblue" points="941.267,-13.7781 931.24,-17.1994 941.212,-20.7778 941.267,-13.7781"/>
</g>
<!-- Node44&#45;&gt;Node16 -->
<g id="edge68" class="edge"><title>Node44&#45;&gt;Node16</title>
<path fill="none" stroke="midnightblue" d="M2233.41,-278.491C2222.14,-276.063 2209.6,-273.636 2198,-272 1977.82,-240.947 1918.78,-269.741 1699,-236 1668.38,-231.299 1211.2,-120.773 1130.21,-101.258"/>
<polygon fill="midnightblue" stroke="midnightblue" points="1130.63,-97.7592 1120.09,-98.8231 1129,-104.565 1130.63,-97.7592"/>
</g>
<!-- Node44&#45;&gt;Node28 -->
<g id="edge71" class="edge"><title>Node44&#45;&gt;Node28</title>
<path fill="none" stroke="midnightblue" d="M2284.64,-278.338C2300.17,-269.211 2324.07,-253.719 2341,-236 2381.25,-193.887 2414.44,-132.75 2429.42,-102.836"/>
<polygon fill="midnightblue" stroke="midnightblue" points="2432.67,-104.158 2433.94,-93.6397 2426.39,-101.07 2432.67,-104.158"/>
</g>
<!-- Node45 -->
<g id="node45" class="node"><title>Node45</title>
<g id="a_node45"><a xlink:href="../../d4/d25/BaseHits_8h.html" target="_top" xlink:title="SimulationDataFormat\l/BaseHits.h">
<polygon fill="none" stroke="black" points="1708,-205 1708,-235 1822,-235 1822,-205 1708,-205"/>
<text text-anchor="start" x="1716" y="-223" font-family="Helvetica,sans-Serif" font-size="10.00">SimulationDataFormat</text>
<text text-anchor="middle" x="1765" y="-212" font-family="Helvetica,sans-Serif" font-size="10.00">/BaseHits.h</text>
</a>
</g>
</g>
<!-- Node44&#45;&gt;Node45 -->
<g id="edge66" class="edge"><title>Node44&#45;&gt;Node45</title>
<path fill="none" stroke="midnightblue" d="M2231.9,-278.497C2221.02,-276.183 2209.06,-273.817 2198,-272 2069.34,-250.877 1917.79,-235.091 1832.4,-227.022"/>
<polygon fill="midnightblue" stroke="midnightblue" points="1832.6,-223.526 1822.32,-226.076 1831.95,-230.495 1832.6,-223.526"/>
</g>
<!-- Node46 -->
<g id="node46" class="node"><title>Node46</title>
<polygon fill="none" stroke="#bfbfbf" points="2267.5,-210.5 2267.5,-229.5 2332.5,-229.5 2332.5,-210.5 2267.5,-210.5"/>
<text text-anchor="middle" x="2300" y="-217.5" font-family="Helvetica,sans-Serif" font-size="10.00">TVector3.h</text>
</g>
<!-- Node44&#45;&gt;Node46 -->
<g id="edge70" class="edge"><title>Node44&#45;&gt;Node46</title>
<path fill="none" stroke="midnightblue" d="M2273.05,-278.372C2277.71,-268.446 2285.5,-251.874 2291.5,-239.086"/>
<polygon fill="midnightblue" stroke="midnightblue" points="2294.76,-240.38 2295.85,-229.841 2288.43,-237.404 2294.76,-240.38"/>
</g>
<!-- Node45&#45;&gt;Node21 -->
<g id="edge67" class="edge"><title>Node45&#45;&gt;Node21</title>
<path fill="none" stroke="midnightblue" d="M1748.73,-204.679C1736.68,-194.082 1720.29,-179.655 1707.88,-168.736"/>
<polygon fill="midnightblue" stroke="midnightblue" points="1709.85,-165.807 1700.03,-161.828 1705.23,-171.062 1709.85,-165.807"/>
</g>
</g>
</svg>
