<?xml version="1.0" encoding="UTF-8" standalone="no"?>
<!DOCTYPE svg PUBLIC "-//W3C//DTD SVG 1.1//EN"
 "http://www.w3.org/Graphics/SVG/1.1/DTD/svg11.dtd">
<!-- Generated by graphviz version 2.36.0 (20140111.2315)
 -->
<!-- Title: /home/travis/build/AliceO2Group/AliceO2/Framework/Core/include/Framework/DeviceInfo.h Pages: 1 -->
<svg width="679pt" height="174pt"
 viewBox="0.00 0.00 679.00 174.00" xmlns="http://www.w3.org/2000/svg" xmlns:xlink="http://www.w3.org/1999/xlink">
<g id="graph0" class="graph" transform="scale(1 1) rotate(0) translate(4 170)">
<title>/home/travis/build/AliceO2Group/AliceO2/Framework/Core/include/Framework/DeviceInfo.h</title>
<!-- Node1 -->
<g id="node1" class="node"><title>Node1</title>
<polygon fill="#bfbfbf" stroke="black" points="345.5,-113 345.5,-165 472.5,-165 472.5,-113 345.5,-113"/>
<text text-anchor="start" x="353.5" y="-153" font-family="Helvetica,sans-Serif" font-size="10.00">/home/travis/build</text>
<text text-anchor="start" x="353.5" y="-142" font-family="Helvetica,sans-Serif" font-size="10.00">/AliceO2Group/AliceO2</text>
<text text-anchor="start" x="353.5" y="-131" font-family="Helvetica,sans-Serif" font-size="10.00">/Framework/Core/include</text>
<text text-anchor="middle" x="409" y="-120" font-family="Helvetica,sans-Serif" font-size="10.00">/Framework/DeviceInfo.h</text>
</g>
<!-- Node2 -->
<g id="node2" class="node"><title>Node2</title>
<g id="a_node2"><a xlink:href="../../d8/d4a/LogParsingHelpers_8h.html" target="_top" xlink:title="Framework/LogParsingHelpers.h">
<polygon fill="none" stroke="black" points="-0.5,-56.5 -0.5,-75.5 158.5,-75.5 158.5,-56.5 -0.5,-56.5"/>
<text text-anchor="middle" x="79" y="-63.5" font-family="Helvetica,sans-Serif" font-size="10.00">Framework/LogParsingHelpers.h</text>
</a>
</g>
</g>
<!-- Node1&#45;&gt;Node2 -->
<g id="edge1" class="edge"><title>Node1&#45;&gt;Node2</title>
<path fill="none" stroke="midnightblue" d="M345.373,-124.31C282.119,-110.701 186.415,-90.1106 128.591,-77.6696"/>
<polygon fill="midnightblue" stroke="midnightblue" points="129.113,-74.2019 118.601,-75.5202 127.641,-81.0453 129.113,-74.2019"/>
</g>
<!-- Node3 -->
<g id="node3" class="node"><title>Node3</title>
<polygon fill="none" stroke="#bfbfbf" points="54.5,-0.5 54.5,-19.5 95.5,-19.5 95.5,-0.5 54.5,-0.5"/>
<text text-anchor="middle" x="75" y="-7.5" font-family="Helvetica,sans-Serif" font-size="10.00">string</text>
</g>
<!-- Node1&#45;&gt;Node3 -->
<g id="edge13" class="edge"><title>Node1&#45;&gt;Node3</title>
<path fill="none" stroke="midnightblue" d="M345.391,-113.813C273.406,-86.4417 159.166,-43.0031 105.168,-22.4711"/>
<polygon fill="midnightblue" stroke="midnightblue" points="106.401,-19.1956 95.8103,-18.9129 103.913,-25.7386 106.401,-19.1956"/>
</g>
<!-- Node4 -->
<g id="node4" class="node"><title>Node4</title>
<g id="a_node4"><a xlink:href="../../de/d56/Variant_8h.html" target="_top" xlink:title="Framework/Variant.h">
<polygon fill="none" stroke="black" points="259.5,-56.5 259.5,-75.5 366.5,-75.5 366.5,-56.5 259.5,-56.5"/>
<text text-anchor="middle" x="313" y="-63.5" font-family="Helvetica,sans-Serif" font-size="10.00">Framework/Variant.h</text>
</a>
</g>
</g>
<!-- Node1&#45;&gt;Node4 -->
<g id="edge3" class="edge"><title>Node1&#45;&gt;Node4</title>
<path fill="none" stroke="midnightblue" d="M375.154,-112.968C361.08,-102.559 345.223,-90.8313 333.048,-81.827"/>
<polygon fill="midnightblue" stroke="midnightblue" points="335.033,-78.9418 324.911,-75.8095 330.87,-84.5699 335.033,-78.9418"/>
</g>
<!-- Node13 -->
<g id="node13" class="node"><title>Node13</title>
<polygon fill="none" stroke="#bfbfbf" points="384.5,-56.5 384.5,-75.5 433.5,-75.5 433.5,-56.5 384.5,-56.5"/>
<text text-anchor="middle" x="409" y="-63.5" font-family="Helvetica,sans-Serif" font-size="10.00">cstddef</text>
</g>
<!-- Node1&#45;&gt;Node13 -->
<g id="edge12" class="edge"><title>Node1&#45;&gt;Node13</title>
<path fill="none" stroke="midnightblue" d="M409,-112.768C409,-103.89 409,-94.0737 409,-85.8165"/>
<polygon fill="midnightblue" stroke="midnightblue" points="412.5,-85.7571 409,-75.7572 405.5,-85.7572 412.5,-85.7571"/>
</g>
<!-- Node14 -->
<g id="node14" class="node"><title>Node14</title>
<polygon fill="none" stroke="#bfbfbf" points="452,-56.5 452,-75.5 496,-75.5 496,-56.5 452,-56.5"/>
<text text-anchor="middle" x="474" y="-63.5" font-family="Helvetica,sans-Serif" font-size="10.00">vector</text>
</g>
<!-- Node1&#45;&gt;Node14 -->
<g id="edge14" class="edge"><title>Node1&#45;&gt;Node14</title>
<path fill="none" stroke="midnightblue" d="M432.1,-112.768C441.059,-102.982 451.061,-92.0561 459.046,-83.3346"/>
<polygon fill="midnightblue" stroke="midnightblue" points="461.812,-85.4964 465.983,-75.7572 456.649,-80.7696 461.812,-85.4964"/>
</g>
<!-- Node15 -->
<g id="node15" class="node"><title>Node15</title>
<polygon fill="none" stroke="#bfbfbf" points="514.5,-56.5 514.5,-75.5 565.5,-75.5 565.5,-56.5 514.5,-56.5"/>
<text text-anchor="middle" x="540" y="-63.5" font-family="Helvetica,sans-Serif" font-size="10.00">unistd.h</text>
</g>
<!-- Node1&#45;&gt;Node15 -->
<g id="edge15" class="edge"><title>Node1&#45;&gt;Node15</title>
<path fill="none" stroke="midnightblue" d="M455.186,-112.968C475.26,-102.088 497.993,-89.7673 514.867,-80.6218"/>
<polygon fill="midnightblue" stroke="midnightblue" points="516.937,-83.481 524.061,-75.6389 513.601,-77.3268 516.937,-83.481"/>
</g>
<!-- Node16 -->
<g id="node16" class="node"><title>Node16</title>
<polygon fill="none" stroke="#bfbfbf" points="584,-56.5 584,-75.5 622,-75.5 622,-56.5 584,-56.5"/>
<text text-anchor="middle" x="603" y="-63.5" font-family="Helvetica,sans-Serif" font-size="10.00">array</text>
</g>
<!-- Node1&#45;&gt;Node16 -->
<g id="edge16" class="edge"><title>Node1&#45;&gt;Node16</title>
<path fill="none" stroke="midnightblue" d="M472.523,-114.752C506.818,-102.201 547.477,-87.3201 574.185,-77.5458"/>
<polygon fill="midnightblue" stroke="midnightblue" points="575.507,-80.789 583.695,-74.0653 573.101,-74.2154 575.507,-80.789"/>
</g>
<!-- Node2&#45;&gt;Node3 -->
<g id="edge2" class="edge"><title>Node2&#45;&gt;Node3</title>
<path fill="none" stroke="midnightblue" d="M78.3395,-56.083C77.8152,-49.0059 77.0638,-38.8611 76.4064,-29.9865"/>
<polygon fill="midnightblue" stroke="midnightblue" points="79.8775,-29.4652 75.6482,-19.7511 72.8966,-29.9823 79.8775,-29.4652"/>
</g>
<!-- Node5 -->
<g id="node5" class="node"><title>Node5</title>
<polygon fill="none" stroke="#bfbfbf" points="114,-0.5 114,-19.5 176,-19.5 176,-0.5 114,-0.5"/>
<text text-anchor="middle" x="145" y="-7.5" font-family="Helvetica,sans-Serif" font-size="10.00">type_traits</text>
</g>
<!-- Node4&#45;&gt;Node5 -->
<g id="edge4" class="edge"><title>Node4&#45;&gt;Node5</title>
<path fill="none" stroke="midnightblue" d="M286.38,-56.4435C257.994,-47.3196 212.863,-32.8133 181.247,-22.6509"/>
<polygon fill="midnightblue" stroke="midnightblue" points="182.087,-19.2445 171.496,-19.5164 179.945,-25.9087 182.087,-19.2445"/>
</g>
<!-- Node6 -->
<g id="node6" class="node"><title>Node6</title>
<polygon fill="none" stroke="#bfbfbf" points="194,-0.5 194,-19.5 240,-19.5 240,-0.5 194,-0.5"/>
<text text-anchor="middle" x="217" y="-7.5" font-family="Helvetica,sans-Serif" font-size="10.00">cstring</text>
</g>
<!-- Node4&#45;&gt;Node6 -->
<g id="edge5" class="edge"><title>Node4&#45;&gt;Node6</title>
<path fill="none" stroke="midnightblue" d="M297.576,-56.324C282.46,-47.8215 259.185,-34.7288 241.529,-24.7975"/>
<polygon fill="midnightblue" stroke="midnightblue" points="242.817,-21.5066 232.386,-19.6545 239.386,-27.6077 242.817,-21.5066"/>
</g>
<!-- Node7 -->
<g id="node7" class="node"><title>Node7</title>
<polygon fill="none" stroke="#bfbfbf" points="258,-0.5 258,-19.5 304,-19.5 304,-0.5 258,-0.5"/>
<text text-anchor="middle" x="281" y="-7.5" font-family="Helvetica,sans-Serif" font-size="10.00">cstdint</text>
</g>
<!-- Node4&#45;&gt;Node7 -->
<g id="edge6" class="edge"><title>Node4&#45;&gt;Node7</title>
<path fill="none" stroke="midnightblue" d="M307.716,-56.083C303.289,-48.6127 296.837,-37.7244 291.382,-28.5199"/>
<polygon fill="midnightblue" stroke="midnightblue" points="294.295,-26.5697 286.186,-19.7511 288.273,-30.1383 294.295,-26.5697"/>
</g>
<!-- Node8 -->
<g id="node8" class="node"><title>Node8</title>
<polygon fill="none" stroke="#bfbfbf" points="322.5,-0.5 322.5,-19.5 367.5,-19.5 367.5,-0.5 322.5,-0.5"/>
<text text-anchor="middle" x="345" y="-7.5" font-family="Helvetica,sans-Serif" font-size="10.00">cstdlib</text>
</g>
<!-- Node4&#45;&gt;Node8 -->
<g id="edge7" class="edge"><title>Node4&#45;&gt;Node8</title>
<path fill="none" stroke="midnightblue" d="M318.284,-56.083C322.711,-48.6127 329.163,-37.7244 334.618,-28.5199"/>
<polygon fill="midnightblue" stroke="midnightblue" points="337.727,-30.1383 339.814,-19.7511 331.705,-26.5697 337.727,-30.1383"/>
</g>
<!-- Node9 -->
<g id="node9" class="node"><title>Node9</title>
<polygon fill="none" stroke="#bfbfbf" points="385.5,-0.5 385.5,-19.5 444.5,-19.5 444.5,-0.5 385.5,-0.5"/>
<text text-anchor="middle" x="415" y="-7.5" font-family="Helvetica,sans-Serif" font-size="10.00">stdexcept</text>
</g>
<!-- Node4&#45;&gt;Node9 -->
<g id="edge8" class="edge"><title>Node4&#45;&gt;Node9</title>
<path fill="none" stroke="midnightblue" d="M329.388,-56.324C345.671,-47.7034 370.867,-34.3643 389.716,-24.3855"/>
<polygon fill="midnightblue" stroke="midnightblue" points="391.452,-27.4267 398.653,-19.6545 388.177,-21.2402 391.452,-27.4267"/>
</g>
<!-- Node10 -->
<g id="node10" class="node"><title>Node10</title>
<polygon fill="none" stroke="#bfbfbf" points="462.5,-0.5 462.5,-19.5 507.5,-19.5 507.5,-0.5 462.5,-0.5"/>
<text text-anchor="middle" x="485" y="-7.5" font-family="Helvetica,sans-Serif" font-size="10.00">iosfwd</text>
</g>
<!-- Node4&#45;&gt;Node10 -->
<g id="edge9" class="edge"><title>Node4&#45;&gt;Node10</title>
<path fill="none" stroke="midnightblue" d="M340.254,-56.4435C370.683,-46.8902 419.907,-31.436 452.364,-21.2461"/>
<polygon fill="midnightblue" stroke="midnightblue" points="453.775,-24.4716 462.268,-18.1368 451.679,-17.793 453.775,-24.4716"/>
</g>
<!-- Node11 -->
<g id="node11" class="node"><title>Node11</title>
<polygon fill="none" stroke="#bfbfbf" points="526,-0.5 526,-19.5 580,-19.5 580,-0.5 526,-0.5"/>
<text text-anchor="middle" x="553" y="-7.5" font-family="Helvetica,sans-Serif" font-size="10.00">iostream</text>
</g>
<!-- Node4&#45;&gt;Node11 -->
<g id="edge10" class="edge"><title>Node4&#45;&gt;Node11</title>
<path fill="none" stroke="midnightblue" d="M352.73,-56.4444C393.694,-47.5642 459.39,-33.158 516,-20 516.101,-19.9766 516.201,-19.9532 516.302,-19.9297"/>
<polygon fill="midnightblue" stroke="midnightblue" points="517.012,-23.3586 525.937,-17.6504 515.4,-16.5466 517.012,-23.3586"/>
</g>
<!-- Node12 -->
<g id="node12" class="node"><title>Node12</title>
<polygon fill="none" stroke="#bfbfbf" points="598.5,-0.5 598.5,-19.5 671.5,-19.5 671.5,-0.5 598.5,-0.5"/>
<text text-anchor="middle" x="635" y="-7.5" font-family="Helvetica,sans-Serif" font-size="10.00">initializer_list</text>
</g>
<!-- Node4&#45;&gt;Node12 -->
<g id="edge11" class="edge"><title>Node4&#45;&gt;Node12</title>
<path fill="none" stroke="midnightblue" d="M366.512,-56.7882C420.058,-48.4554 505.044,-34.918 588.462,-20.0489"/>
<polygon fill="midnightblue" stroke="midnightblue" points="589.135,-23.4843 598.361,-18.2767 587.901,-16.5938 589.135,-23.4843"/>
</g>
</g>
</svg>
