<?xml version="1.0" encoding="UTF-8" standalone="no"?>
<!DOCTYPE svg PUBLIC "-//W3C//DTD SVG 1.1//EN"
 "http://www.w3.org/Graphics/SVG/1.1/DTD/svg11.dtd">
<!-- Generated by graphviz version 2.36.0 (20140111.2315)
 -->
<!-- Title: /home/travis/build/AliceO2Group/AliceO2/Detectors/FIT/simulation/src/Detector.cxx Pages: 1 -->
<svg width="1763pt" height="378pt"
 viewBox="0.00 0.00 1763.00 378.00" xmlns="http://www.w3.org/2000/svg" xmlns:xlink="http://www.w3.org/1999/xlink">
<g id="graph0" class="graph" transform="scale(1 1) rotate(0) translate(4 374)">
<title>/home/travis/build/AliceO2Group/AliceO2/Detectors/FIT/simulation/src/Detector.cxx</title>
<!-- Node1 -->
<g id="node1" class="node"><title>Node1</title>
<polygon fill="#bfbfbf" stroke="black" points="580,-317 580,-369 708,-369 708,-317 580,-317"/>
<text text-anchor="start" x="588" y="-357" font-family="Helvetica,sans-Serif" font-size="10.00">/home/travis/build</text>
<text text-anchor="start" x="588" y="-346" font-family="Helvetica,sans-Serif" font-size="10.00">/AliceO2Group/AliceO2</text>
<text text-anchor="start" x="588" y="-335" font-family="Helvetica,sans-Serif" font-size="10.00">/Detectors/FIT/simulation</text>
<text text-anchor="middle" x="644" y="-324" font-family="Helvetica,sans-Serif" font-size="10.00">/src/Detector.cxx</text>
</g>
<!-- Node2 -->
<g id="node2" class="node"><title>Node2</title>
<polygon fill="none" stroke="#bfbfbf" points="28.5,-260.5 28.5,-279.5 113.5,-279.5 113.5,-260.5 28.5,-260.5"/>
<text text-anchor="middle" x="71" y="-267.5" font-family="Helvetica,sans-Serif" font-size="10.00">TClonesArray.h</text>
</g>
<!-- Node1&#45;&gt;Node2 -->
<g id="edge1" class="edge"><title>Node1&#45;&gt;Node2</title>
<path fill="none" stroke="midnightblue" d="M579.689,-335.454C483.045,-325.373 294.404,-304.745 123.472,-279.997"/>
<polygon fill="midnightblue" stroke="midnightblue" points="123.938,-276.528 113.538,-278.551 122.929,-283.455 123.938,-276.528"/>
</g>
<!-- Node3 -->
<g id="node3" class="node"><title>Node3</title>
<polygon fill="none" stroke="#bfbfbf" points="132,-260.5 132,-279.5 218,-279.5 218,-260.5 132,-260.5"/>
<text text-anchor="middle" x="175" y="-267.5" font-family="Helvetica,sans-Serif" font-size="10.00">TGeoManager.h</text>
</g>
<!-- Node1&#45;&gt;Node3 -->
<g id="edge2" class="edge"><title>Node1&#45;&gt;Node3</title>
<path fill="none" stroke="midnightblue" d="M579.99,-332.965C500.156,-321.589 359.219,-301.151 228.325,-280.184"/>
<polygon fill="midnightblue" stroke="midnightblue" points="228.546,-276.674 218.117,-278.544 227.435,-283.585 228.546,-276.674"/>
</g>
<!-- Node4 -->
<g id="node4" class="node"><title>Node4</title>
<polygon fill="none" stroke="#bfbfbf" points="236,-260.5 236,-279.5 328,-279.5 328,-260.5 236,-260.5"/>
<text text-anchor="middle" x="282" y="-267.5" font-family="Helvetica,sans-Serif" font-size="10.00">TLorentzVector.h</text>
</g>
<!-- Node1&#45;&gt;Node4 -->
<g id="edge3" class="edge"><title>Node1&#45;&gt;Node4</title>
<path fill="none" stroke="midnightblue" d="M579.699,-329.388C510.174,-315.752 400.605,-294.262 335.573,-281.508"/>
<polygon fill="midnightblue" stroke="midnightblue" points="336.018,-278.028 325.532,-279.538 334.671,-284.897 336.018,-278.028"/>
</g>
<!-- Node5 -->
<g id="node5" class="node"><title>Node5</title>
<polygon fill="none" stroke="#bfbfbf" points="346.5,-260.5 346.5,-279.5 399.5,-279.5 399.5,-260.5 346.5,-260.5"/>
<text text-anchor="middle" x="373" y="-267.5" font-family="Helvetica,sans-Serif" font-size="10.00">TMath.h</text>
</g>
<!-- Node1&#45;&gt;Node5 -->
<g id="edge4" class="edge"><title>Node1&#45;&gt;Node5</title>
<path fill="none" stroke="midnightblue" d="M579.777,-325.174C526.597,-311.241 452.941,-291.944 409.403,-280.537"/>
<polygon fill="midnightblue" stroke="midnightblue" points="410.099,-277.102 399.538,-277.953 408.325,-283.873 410.099,-277.102"/>
</g>
<!-- Node6 -->
<g id="node6" class="node"><title>Node6</title>
<polygon fill="none" stroke="#bfbfbf" points="417.5,-260.5 417.5,-279.5 474.5,-279.5 474.5,-260.5 417.5,-260.5"/>
<text text-anchor="middle" x="446" y="-267.5" font-family="Helvetica,sans-Serif" font-size="10.00">TGraph.h</text>
</g>
<!-- Node1&#45;&gt;Node6 -->
<g id="edge5" class="edge"><title>Node1&#45;&gt;Node6</title>
<path fill="none" stroke="midnightblue" d="M579.989,-319.046C546.58,-307.067 507.071,-292.899 479.65,-283.067"/>
<polygon fill="midnightblue" stroke="midnightblue" points="480.723,-279.733 470.129,-279.652 478.36,-286.322 480.723,-279.733"/>
</g>
<!-- Node7 -->
<g id="node7" class="node"><title>Node7</title>
<polygon fill="none" stroke="#bfbfbf" points="493,-260.5 493,-279.5 549,-279.5 549,-260.5 493,-260.5"/>
<text text-anchor="middle" x="521" y="-267.5" font-family="Helvetica,sans-Serif" font-size="10.00">TString.h</text>
</g>
<!-- Node1&#45;&gt;Node7 -->
<g id="edge6" class="edge"><title>Node1&#45;&gt;Node7</title>
<path fill="none" stroke="midnightblue" d="M600.635,-316.968C581.962,-306.19 560.841,-293.997 545.044,-284.879"/>
<polygon fill="midnightblue" stroke="midnightblue" points="546.376,-281.607 535.966,-279.639 542.877,-287.669 546.376,-281.607"/>
</g>
<!-- Node8 -->
<g id="node8" class="node"><title>Node8</title>
<polygon fill="none" stroke="#bfbfbf" points="567.5,-260.5 567.5,-279.5 632.5,-279.5 632.5,-260.5 567.5,-260.5"/>
<text text-anchor="middle" x="600" y="-267.5" font-family="Helvetica,sans-Serif" font-size="10.00">TSystem.h</text>
</g>
<!-- Node1&#45;&gt;Node8 -->
<g id="edge7" class="edge"><title>Node1&#45;&gt;Node8</title>
<path fill="none" stroke="midnightblue" d="M628.363,-316.768C622.549,-307.385 616.085,-296.955 610.798,-288.425"/>
<polygon fill="midnightblue" stroke="midnightblue" points="613.67,-286.414 605.427,-279.757 607.72,-290.101 613.67,-286.414"/>
</g>
<!-- Node9 -->
<g id="node9" class="node"><title>Node9</title>
<polygon fill="none" stroke="#bfbfbf" points="651,-260.5 651,-279.5 725,-279.5 725,-260.5 651,-260.5"/>
<text text-anchor="middle" x="688" y="-267.5" font-family="Helvetica,sans-Serif" font-size="10.00">TVirtualMC.h</text>
</g>
<!-- Node1&#45;&gt;Node9 -->
<g id="edge8" class="edge"><title>Node1&#45;&gt;Node9</title>
<path fill="none" stroke="midnightblue" d="M659.637,-316.768C665.451,-307.385 671.915,-296.955 677.202,-288.425"/>
<polygon fill="midnightblue" stroke="midnightblue" points="680.28,-290.101 682.573,-279.757 674.33,-286.414 680.28,-290.101"/>
</g>
<!-- Node10 -->
<g id="node10" class="node"><title>Node10</title>
<polygon fill="none" stroke="#bfbfbf" points="885,-136.5 885,-155.5 985,-155.5 985,-136.5 885,-136.5"/>
<text text-anchor="middle" x="935" y="-143.5" font-family="Helvetica,sans-Serif" font-size="10.00">FairRootManager.h</text>
</g>
<!-- Node1&#45;&gt;Node10 -->
<g id="edge9" class="edge"><title>Node1&#45;&gt;Node10</title>
<path fill="none" stroke="midnightblue" d="M708.226,-333.358C773.118,-323.384 867.478,-305.078 894,-280 926.096,-249.651 933.26,-194.823 934.733,-165.954"/>
<polygon fill="midnightblue" stroke="midnightblue" points="938.241,-165.74 935.068,-155.632 931.245,-165.513 938.241,-165.74"/>
</g>
<!-- Node11 -->
<g id="node11" class="node"><title>Node11</title>
<polygon fill="none" stroke="#bfbfbf" points="963.5,-260.5 963.5,-279.5 1034.5,-279.5 1034.5,-260.5 963.5,-260.5"/>
<text text-anchor="middle" x="999" y="-267.5" font-family="Helvetica,sans-Serif" font-size="10.00">FairLogger.h</text>
</g>
<!-- Node1&#45;&gt;Node11 -->
<g id="edge10" class="edge"><title>Node1&#45;&gt;Node11</title>
<path fill="none" stroke="midnightblue" d="M708.288,-329.142C779.075,-314.985 891.091,-292.582 953.387,-280.123"/>
<polygon fill="midnightblue" stroke="midnightblue" points="954.193,-283.531 963.313,-278.137 952.821,-276.667 954.193,-283.531"/>
</g>
<!-- Node12 -->
<g id="node12" class="node"><title>Node12</title>
<polygon fill="none" stroke="#bfbfbf" points="1053,-260.5 1053,-279.5 1127,-279.5 1127,-260.5 1053,-260.5"/>
<text text-anchor="middle" x="1090" y="-267.5" font-family="Helvetica,sans-Serif" font-size="10.00">FairVolume.h</text>
</g>
<!-- Node1&#45;&gt;Node12 -->
<g id="edge11" class="edge"><title>Node1&#45;&gt;Node12</title>
<path fill="none" stroke="midnightblue" d="M708.035,-332.756C784.863,-321.506 917.818,-301.537 1042.7,-279.997"/>
<polygon fill="midnightblue" stroke="midnightblue" points="1043.57,-283.399 1052.82,-278.244 1042.37,-276.501 1043.57,-283.399"/>
</g>
<!-- Node13 -->
<g id="node13" class="node"><title>Node13</title>
<polygon fill="none" stroke="#bfbfbf" points="1145,-260.5 1145,-279.5 1197,-279.5 1197,-260.5 1145,-260.5"/>
<text text-anchor="middle" x="1171" y="-267.5" font-family="Helvetica,sans-Serif" font-size="10.00">sstream</text>
</g>
<!-- Node1&#45;&gt;Node13 -->
<g id="edge12" class="edge"><title>Node1&#45;&gt;Node13</title>
<path fill="none" stroke="midnightblue" d="M708.093,-336.53C800.448,-328.073 976.376,-309.811 1134.78,-280.027"/>
<polygon fill="midnightblue" stroke="midnightblue" points="1135.54,-283.446 1144.71,-278.141 1134.23,-276.569 1135.54,-283.446"/>
</g>
<!-- Node14 -->
<g id="node14" class="node"><title>Node14</title>
<g id="a_node14"><a xlink:href="../../d1/db1/FIT_2base_2include_2FITBase_2Geometry_8h.html" target="_top" xlink:title="FITBase/Geometry.h">
<polygon fill="none" stroke="black" points="788,-198.5 788,-217.5 896,-217.5 896,-198.5 788,-198.5"/>
<text text-anchor="middle" x="842" y="-205.5" font-family="Helvetica,sans-Serif" font-size="10.00">FITBase/Geometry.h</text>
</a>
</g>
</g>
<!-- Node1&#45;&gt;Node14 -->
<g id="edge13" class="edge"><title>Node1&#45;&gt;Node14</title>
<path fill="none" stroke="midnightblue" d="M708.232,-333.799C770.134,-324.422 857.367,-306.812 878,-280 891.207,-262.839 874.76,-240.087 860.013,-225.017"/>
<polygon fill="midnightblue" stroke="midnightblue" points="862.255,-222.317 852.621,-217.907 857.402,-227.362 862.255,-222.317"/>
</g>
<!-- Node17 -->
<g id="node17" class="node"><title>Node17</title>
<g id="a_node17"><a xlink:href="../../de/d6b/FIT_2simulation_2include_2FITSimulation_2Detector_8h.html" target="_top" xlink:title="FITSimulation/Detector.h">
<polygon fill="none" stroke="black" points="743,-260.5 743,-279.5 869,-279.5 869,-260.5 743,-260.5"/>
<text text-anchor="middle" x="806" y="-267.5" font-family="Helvetica,sans-Serif" font-size="10.00">FITSimulation/Detector.h</text>
</a>
</g>
</g>
<!-- Node1&#45;&gt;Node17 -->
<g id="edge16" class="edge"><title>Node1&#45;&gt;Node17</title>
<path fill="none" stroke="midnightblue" d="M701.115,-316.968C726.752,-305.732 755.895,-292.96 776.943,-283.735"/>
<polygon fill="midnightblue" stroke="midnightblue" points="778.535,-286.859 786.289,-279.639 775.725,-280.447 778.535,-286.859"/>
</g>
<!-- Node15 -->
<g id="node15" class="node"><title>Node15</title>
<polygon fill="none" stroke="#bfbfbf" points="1313,-74.5 1313,-93.5 1369,-93.5 1369,-74.5 1313,-74.5"/>
<text text-anchor="middle" x="1341" y="-81.5" font-family="Helvetica,sans-Serif" font-size="10.00">Rtypes.h</text>
</g>
<!-- Node14&#45;&gt;Node15 -->
<g id="edge14" class="edge"><title>Node14&#45;&gt;Node15</title>
<path fill="none" stroke="midnightblue" d="M843.39,-198.27C846.349,-182.854 854.817,-151.018 876,-136 884.715,-129.822 1193.38,-99.3325 1302.92,-88.6808"/>
<polygon fill="midnightblue" stroke="midnightblue" points="1303.27,-92.1636 1312.88,-87.7134 1302.59,-85.1964 1303.27,-92.1636"/>
</g>
<!-- Node16 -->
<g id="node16" class="node"><title>Node16</title>
<polygon fill="none" stroke="#bfbfbf" points="763.5,-136.5 763.5,-155.5 828.5,-155.5 828.5,-136.5 763.5,-136.5"/>
<text text-anchor="middle" x="796" y="-143.5" font-family="Helvetica,sans-Serif" font-size="10.00">TVector3.h</text>
</g>
<!-- Node14&#45;&gt;Node16 -->
<g id="edge15" class="edge"><title>Node14&#45;&gt;Node16</title>
<path fill="none" stroke="midnightblue" d="M835.409,-198.403C828.509,-189.403 817.498,-175.041 808.866,-163.782"/>
<polygon fill="midnightblue" stroke="midnightblue" points="811.44,-161.387 802.578,-155.581 805.885,-165.646 811.44,-161.387"/>
</g>
<!-- Node17&#45;&gt;Node14 -->
<g id="edge44" class="edge"><title>Node17&#45;&gt;Node14</title>
<path fill="none" stroke="midnightblue" d="M811.158,-260.403C816.451,-251.582 824.835,-237.608 831.527,-226.455"/>
<polygon fill="midnightblue" stroke="midnightblue" points="834.708,-227.956 836.852,-217.581 828.705,-224.355 834.708,-227.956"/>
</g>
<!-- Node18 -->
<g id="node18" class="node"><title>Node18</title>
<g id="a_node18"><a xlink:href="../../d4/d25/BaseHits_8h.html" target="_top" xlink:title="SimulationDataFormat\l/BaseHits.h">
<polygon fill="none" stroke="black" points="636,-193 636,-223 750,-223 750,-193 636,-193"/>
<text text-anchor="start" x="644" y="-211" font-family="Helvetica,sans-Serif" font-size="10.00">SimulationDataFormat</text>
<text text-anchor="middle" x="693" y="-200" font-family="Helvetica,sans-Serif" font-size="10.00">/BaseHits.h</text>
</a>
</g>
</g>
<!-- Node17&#45;&gt;Node18 -->
<g id="edge17" class="edge"><title>Node17&#45;&gt;Node18</title>
<path fill="none" stroke="midnightblue" d="M789.81,-260.403C773.933,-251.974 749.197,-238.839 728.702,-227.957"/>
<polygon fill="midnightblue" stroke="midnightblue" points="730.105,-224.739 719.632,-223.141 726.823,-230.922 730.105,-224.739"/>
</g>
<!-- Node30 -->
<g id="node30" class="node"><title>Node30</title>
<g id="a_node30"><a xlink:href="../../d1/d3a/Base_2include_2DetectorsBase_2Detector_8h.html" target="_top" xlink:title="DetectorsBase/Detector.h">
<polygon fill="none" stroke="black" points="1238.5,-198.5 1238.5,-217.5 1369.5,-217.5 1369.5,-198.5 1238.5,-198.5"/>
<text text-anchor="middle" x="1304" y="-205.5" font-family="Helvetica,sans-Serif" font-size="10.00">DetectorsBase/Detector.h</text>
</a>
</g>
</g>
<!-- Node17&#45;&gt;Node30 -->
<g id="edge30" class="edge"><title>Node17&#45;&gt;Node30</title>
<path fill="none" stroke="midnightblue" d="M869.072,-261.401C960.579,-250.376 1129.92,-229.973 1228.13,-218.141"/>
<polygon fill="midnightblue" stroke="midnightblue" points="1228.77,-221.589 1238.28,-216.918 1227.93,-214.64 1228.77,-221.589"/>
</g>
<!-- Node19 -->
<g id="node19" class="node"><title>Node19</title>
<g id="a_node19"><a xlink:href="../../dd/d76/Cartesian3D_8h.html" target="_top" xlink:title="MathUtils/Cartesian3D.h">
<polygon fill="none" stroke="black" points="620.5,-136.5 620.5,-155.5 745.5,-155.5 745.5,-136.5 620.5,-136.5"/>
<text text-anchor="middle" x="683" y="-143.5" font-family="Helvetica,sans-Serif" font-size="10.00">MathUtils/Cartesian3D.h</text>
</a>
</g>
</g>
<!-- Node18&#45;&gt;Node19 -->
<g id="edge18" class="edge"><title>Node18&#45;&gt;Node19</title>
<path fill="none" stroke="midnightblue" d="M690.63,-192.781C689.282,-184.691 687.577,-174.462 686.121,-165.725"/>
<polygon fill="midnightblue" stroke="midnightblue" points="689.552,-165.019 684.455,-155.731 682.647,-166.17 689.552,-165.019"/>
</g>
<!-- Node19&#45;&gt;Node15 -->
<g id="edge24" class="edge"><title>Node19&#45;&gt;Node15</title>
<path fill="none" stroke="midnightblue" d="M745.812,-136.998C748.917,-136.649 751.993,-136.315 755,-136 944.417,-116.185 992.304,-116.944 1182,-100 1223.19,-96.321 1270.35,-91.8376 1302.55,-88.7358"/>
<polygon fill="midnightblue" stroke="midnightblue" points="1303.24,-92.1848 1312.86,-87.7399 1302.57,-85.2172 1303.24,-92.1848"/>
</g>
<!-- Node20 -->
<g id="node20" class="node"><title>Node20</title>
<polygon fill="none" stroke="#bfbfbf" points="1022.5,-69 1022.5,-99 1173.5,-99 1173.5,-69 1022.5,-69"/>
<text text-anchor="start" x="1030.5" y="-87" font-family="Helvetica,sans-Serif" font-size="10.00">Math/GenVector/Displacement</text>
<text text-anchor="middle" x="1098" y="-76" font-family="Helvetica,sans-Serif" font-size="10.00">Vector3D.h</text>
</g>
<!-- Node19&#45;&gt;Node20 -->
<g id="edge19" class="edge"><title>Node19&#45;&gt;Node20</title>
<path fill="none" stroke="midnightblue" d="M745.846,-136.729C822.503,-126.591 948.734,-109.726 1012.44,-100.034"/>
<polygon fill="midnightblue" stroke="midnightblue" points="1013.13,-103.469 1022.48,-98.4848 1012.06,-96.5512 1013.13,-103.469"/>
</g>
<!-- Node21 -->
<g id="node21" class="node"><title>Node21</title>
<polygon fill="none" stroke="#bfbfbf" points="0,-74.5 0,-93.5 176,-93.5 176,-74.5 0,-74.5"/>
<text text-anchor="middle" x="88" y="-81.5" font-family="Helvetica,sans-Serif" font-size="10.00">Math/GenVector/PositionVector3D.h</text>
</g>
<!-- Node19&#45;&gt;Node21 -->
<g id="edge20" class="edge"><title>Node19&#45;&gt;Node21</title>
<path fill="none" stroke="midnightblue" d="M620.365,-140.619C525.841,-133.719 341.179,-119.113 185,-100 173.305,-98.5689 160.852,-96.8166 148.903,-95.0211"/>
<polygon fill="midnightblue" stroke="midnightblue" points="149.427,-91.5605 139.013,-93.5088 148.369,-98.4801 149.427,-91.5605"/>
</g>
<!-- Node22 -->
<g id="node22" class="node"><title>Node22</title>
<polygon fill="none" stroke="#bfbfbf" points="193.5,-74.5 193.5,-93.5 342.5,-93.5 342.5,-74.5 193.5,-74.5"/>
<text text-anchor="middle" x="268" y="-81.5" font-family="Helvetica,sans-Serif" font-size="10.00">Math/GenVector/Rotation3D.h</text>
</g>
<!-- Node19&#45;&gt;Node22 -->
<g id="edge21" class="edge"><title>Node19&#45;&gt;Node22</title>
<path fill="none" stroke="midnightblue" d="M620.355,-137.272C553.707,-128.865 445.24,-114.657 352,-100 342.865,-98.564 333.191,-96.9365 323.783,-95.2962"/>
<polygon fill="midnightblue" stroke="midnightblue" points="324.174,-91.8112 313.717,-93.5198 322.957,-98.7047 324.174,-91.8112"/>
</g>
<!-- Node23 -->
<g id="node23" class="node"><title>Node23</title>
<polygon fill="none" stroke="#bfbfbf" points="361,-74.5 361,-93.5 517,-93.5 517,-74.5 361,-74.5"/>
<text text-anchor="middle" x="439" y="-81.5" font-family="Helvetica,sans-Serif" font-size="10.00">Math/GenVector/Transform3D.h</text>
</g>
<!-- Node19&#45;&gt;Node23 -->
<g id="edge22" class="edge"><title>Node19&#45;&gt;Node23</title>
<path fill="none" stroke="midnightblue" d="M648.3,-136.467C605.03,-125.827 530.994,-107.622 483.568,-95.9593"/>
<polygon fill="midnightblue" stroke="midnightblue" points="484.127,-92.4926 473.58,-93.5034 482.455,-99.2901 484.127,-92.4926"/>
</g>
<!-- Node24 -->
<g id="node24" class="node"><title>Node24</title>
<polygon fill="none" stroke="#bfbfbf" points="535,-74.5 535,-93.5 695,-93.5 695,-74.5 535,-74.5"/>
<text text-anchor="middle" x="615" y="-81.5" font-family="Helvetica,sans-Serif" font-size="10.00">Math/GenVector/Translation3D.h</text>
</g>
<!-- Node19&#45;&gt;Node24 -->
<g id="edge23" class="edge"><title>Node19&#45;&gt;Node24</title>
<path fill="none" stroke="midnightblue" d="M673.257,-136.403C662.653,-127.047 645.481,-111.895 632.521,-100.46"/>
<polygon fill="midnightblue" stroke="midnightblue" points="634.539,-97.5724 624.725,-93.5806 629.907,-102.821 634.539,-97.5724"/>
</g>
<!-- Node25 -->
<g id="node25" class="node"><title>Node25</title>
<polygon fill="none" stroke="#bfbfbf" points="713,-74.5 713,-93.5 789,-93.5 789,-74.5 713,-74.5"/>
<text text-anchor="middle" x="751" y="-81.5" font-family="Helvetica,sans-Serif" font-size="10.00">TGeoMatrix.h</text>
</g>
<!-- Node19&#45;&gt;Node25 -->
<g id="edge25" class="edge"><title>Node19&#45;&gt;Node25</title>
<path fill="none" stroke="midnightblue" d="M692.743,-136.403C703.347,-127.047 720.519,-111.895 733.479,-100.46"/>
<polygon fill="midnightblue" stroke="midnightblue" points="736.093,-102.821 741.275,-93.5806 731.461,-97.5724 736.093,-102.821"/>
</g>
<!-- Node26 -->
<g id="node26" class="node"><title>Node26</title>
<polygon fill="none" stroke="#bfbfbf" points="807,-74.5 807,-93.5 861,-93.5 861,-74.5 807,-74.5"/>
<text text-anchor="middle" x="834" y="-81.5" font-family="Helvetica,sans-Serif" font-size="10.00">iostream</text>
</g>
<!-- Node19&#45;&gt;Node26 -->
<g id="edge26" class="edge"><title>Node19&#45;&gt;Node26</title>
<path fill="none" stroke="midnightblue" d="M705.534,-136.349C728.761,-127.393 765.995,-112.928 798,-100 799.883,-99.2392 801.82,-98.4508 803.771,-97.6516"/>
<polygon fill="midnightblue" stroke="midnightblue" points="805.565,-100.697 813.471,-93.6444 802.892,-94.2276 805.565,-100.697"/>
</g>
<!-- Node27 -->
<g id="node27" class="node"><title>Node27</title>
<g id="a_node27"><a xlink:href="../../d2/dd0/Cartesian2D_8h.html" target="_top" xlink:title="MathUtils/Cartesian2D.h">
<polygon fill="none" stroke="black" points="879.5,-74.5 879.5,-93.5 1004.5,-93.5 1004.5,-74.5 879.5,-74.5"/>
<text text-anchor="middle" x="942" y="-81.5" font-family="Helvetica,sans-Serif" font-size="10.00">MathUtils/Cartesian2D.h</text>
</a>
</g>
</g>
<!-- Node19&#45;&gt;Node27 -->
<g id="edge27" class="edge"><title>Node19&#45;&gt;Node27</title>
<path fill="none" stroke="midnightblue" d="M719.833,-136.467C765.955,-125.783 845.01,-107.469 895.324,-95.8129"/>
<polygon fill="midnightblue" stroke="midnightblue" points="896.342,-99.17 905.294,-93.5034 894.762,-92.3506 896.342,-99.17"/>
</g>
<!-- Node28 -->
<g id="node28" class="node"><title>Node28</title>
<polygon fill="none" stroke="#bfbfbf" points="775.5,-1 775.5,-31 926.5,-31 926.5,-1 775.5,-1"/>
<text text-anchor="start" x="783.5" y="-19" font-family="Helvetica,sans-Serif" font-size="10.00">Math/GenVector/Displacement</text>
<text text-anchor="middle" x="851" y="-8" font-family="Helvetica,sans-Serif" font-size="10.00">Vector2D.h</text>
</g>
<!-- Node27&#45;&gt;Node28 -->
<g id="edge28" class="edge"><title>Node27&#45;&gt;Node28</title>
<path fill="none" stroke="midnightblue" d="M930.103,-74.3717C917.221,-65.0286 896.22,-49.7966 879.093,-37.375"/>
<polygon fill="midnightblue" stroke="midnightblue" points="880.703,-34.2194 870.553,-31.1815 876.593,-39.8859 880.703,-34.2194"/>
</g>
<!-- Node29 -->
<g id="node29" class="node"><title>Node29</title>
<polygon fill="none" stroke="#bfbfbf" points="945,-6.5 945,-25.5 1121,-25.5 1121,-6.5 945,-6.5"/>
<text text-anchor="middle" x="1033" y="-13.5" font-family="Helvetica,sans-Serif" font-size="10.00">Math/GenVector/PositionVector2D.h</text>
</g>
<!-- Node27&#45;&gt;Node29 -->
<g id="edge29" class="edge"><title>Node27&#45;&gt;Node29</title>
<path fill="none" stroke="midnightblue" d="M953.897,-74.3717C968.884,-63.5015 994.862,-44.6602 1012.94,-31.5474"/>
<polygon fill="midnightblue" stroke="midnightblue" points="1015.06,-34.3349 1021.1,-25.6305 1010.95,-28.6684 1015.06,-34.3349"/>
</g>
<!-- Node30&#45;&gt;Node10 -->
<g id="edge35" class="edge"><title>Node30&#45;&gt;Node10</title>
<path fill="none" stroke="midnightblue" d="M1251.52,-198.467C1183.91,-187.474 1066.64,-168.404 995.391,-156.82"/>
<polygon fill="midnightblue" stroke="midnightblue" points="995.657,-153.317 985.225,-155.167 994.534,-160.226 995.657,-153.317"/>
</g>
<!-- Node30&#45;&gt;Node15 -->
<g id="edge39" class="edge"><title>Node30&#45;&gt;Node15</title>
<path fill="none" stroke="midnightblue" d="M1369.52,-198.994C1396.28,-192.136 1424.71,-179.448 1441,-156 1460.77,-127.55 1415.01,-106.584 1379.04,-95.0807"/>
<polygon fill="midnightblue" stroke="midnightblue" points="1379.8,-91.654 1369.22,-92.0888 1377.76,-98.3503 1379.8,-91.654"/>
</g>
<!-- Node31 -->
<g id="node31" class="node"><title>Node31</title>
<polygon fill="none" stroke="#bfbfbf" points="1609.5,-74.5 1609.5,-93.5 1644.5,-93.5 1644.5,-74.5 1609.5,-74.5"/>
<text text-anchor="middle" x="1627" y="-81.5" font-family="Helvetica,sans-Serif" font-size="10.00">map</text>
</g>
<!-- Node30&#45;&gt;Node31 -->
<g id="edge31" class="edge"><title>Node30&#45;&gt;Node31</title>
<path fill="none" stroke="midnightblue" d="M1369.54,-207.505C1462.56,-206.662 1625.76,-198.906 1663,-156 1677.35,-139.469 1660.16,-116.214 1644.97,-100.885"/>
<polygon fill="midnightblue" stroke="midnightblue" points="1647.04,-98.025 1637.38,-93.6681 1642.22,-103.097 1647.04,-98.025"/>
</g>
<!-- Node32 -->
<g id="node32" class="node"><title>Node32</title>
<polygon fill="none" stroke="#bfbfbf" points="1711,-136.5 1711,-155.5 1755,-155.5 1755,-136.5 1711,-136.5"/>
<text text-anchor="middle" x="1733" y="-143.5" font-family="Helvetica,sans-Serif" font-size="10.00">vector</text>
</g>
<!-- Node30&#45;&gt;Node32 -->
<g id="edge32" class="edge"><title>Node30&#45;&gt;Node32</title>
<path fill="none" stroke="midnightblue" d="M1369.73,-200.823C1448.08,-192.92 1582.75,-177.618 1697,-156 1698.25,-155.764 1699.51,-155.511 1700.79,-155.246"/>
<polygon fill="midnightblue" stroke="midnightblue" points="1701.64,-158.642 1710.62,-153.021 1700.09,-151.815 1701.64,-158.642"/>
</g>
<!-- Node33 -->
<g id="node33" class="node"><title>Node33</title>
<polygon fill="none" stroke="#bfbfbf" points="1003,-136.5 1003,-155.5 1055,-155.5 1055,-136.5 1003,-136.5"/>
<text text-anchor="middle" x="1029" y="-143.5" font-family="Helvetica,sans-Serif" font-size="10.00">memory</text>
</g>
<!-- Node30&#45;&gt;Node33 -->
<g id="edge33" class="edge"><title>Node30&#45;&gt;Node33</title>
<path fill="none" stroke="midnightblue" d="M1261.59,-198.414C1215.79,-189.039 1140.44,-173.317 1065.42,-156.03"/>
<polygon fill="midnightblue" stroke="midnightblue" points="1065.85,-152.537 1055.32,-153.692 1064.27,-159.357 1065.85,-152.537"/>
</g>
<!-- Node34 -->
<g id="node34" class="node"><title>Node34</title>
<polygon fill="none" stroke="#bfbfbf" points="1073.5,-136.5 1073.5,-155.5 1152.5,-155.5 1152.5,-136.5 1073.5,-136.5"/>
<text text-anchor="middle" x="1113" y="-143.5" font-family="Helvetica,sans-Serif" font-size="10.00">FairDetector.h</text>
</g>
<!-- Node30&#45;&gt;Node34 -->
<g id="edge34" class="edge"><title>Node30&#45;&gt;Node34</title>
<path fill="none" stroke="midnightblue" d="M1276.63,-198.403C1243.45,-187.978 1187.35,-170.356 1150.24,-158.699"/>
<polygon fill="midnightblue" stroke="midnightblue" points="1150.9,-155.239 1140.31,-155.581 1148.81,-161.917 1150.9,-155.239"/>
</g>
<!-- Node35 -->
<g id="node35" class="node"><title>Node35</title>
<g id="a_node35"><a xlink:href="../../d0/d9a/MaterialManager_8h.html" target="_top" xlink:title="DetectorsBase/MaterialManager.h">
<polygon fill="none" stroke="black" points="1489.5,-136.5 1489.5,-155.5 1654.5,-155.5 1654.5,-136.5 1489.5,-136.5"/>
<text text-anchor="middle" x="1572" y="-143.5" font-family="Helvetica,sans-Serif" font-size="10.00">DetectorsBase/MaterialManager.h</text>
</a>
</g>
</g>
<!-- Node30&#45;&gt;Node35 -->
<g id="edge36" class="edge"><title>Node30&#45;&gt;Node35</title>
<path fill="none" stroke="midnightblue" d="M1342.11,-198.467C1389.94,-187.76 1471.98,-169.392 1524.03,-157.74"/>
<polygon fill="midnightblue" stroke="midnightblue" points="1525.02,-161.104 1534.02,-155.503 1523.5,-154.273 1525.02,-161.104"/>
</g>
<!-- Node36 -->
<g id="node36" class="node"><title>Node36</title>
<polygon fill="none" stroke="#bfbfbf" points="1170.5,-136.5 1170.5,-155.5 1223.5,-155.5 1223.5,-136.5 1170.5,-136.5"/>
<text text-anchor="middle" x="1197" y="-143.5" font-family="Helvetica,sans-Serif" font-size="10.00">cxxabi.h</text>
</g>
<!-- Node30&#45;&gt;Node36 -->
<g id="edge40" class="edge"><title>Node30&#45;&gt;Node36</title>
<path fill="none" stroke="midnightblue" d="M1288.67,-198.403C1271.03,-188.512 1241.84,-172.144 1221.14,-160.538"/>
<polygon fill="midnightblue" stroke="midnightblue" points="1222.74,-157.419 1212.3,-155.581 1219.31,-163.524 1222.74,-157.419"/>
</g>
<!-- Node37 -->
<g id="node37" class="node"><title>Node37</title>
<polygon fill="none" stroke="#bfbfbf" points="1241.5,-136.5 1241.5,-155.5 1292.5,-155.5 1292.5,-136.5 1241.5,-136.5"/>
<text text-anchor="middle" x="1267" y="-143.5" font-family="Helvetica,sans-Serif" font-size="10.00">typeinfo</text>
</g>
<!-- Node30&#45;&gt;Node37 -->
<g id="edge41" class="edge"><title>Node30&#45;&gt;Node37</title>
<path fill="none" stroke="midnightblue" d="M1298.7,-198.403C1293.2,-189.493 1284.47,-175.325 1277.56,-164.118"/>
<polygon fill="midnightblue" stroke="midnightblue" points="1280.52,-162.255 1272.29,-155.581 1274.56,-165.929 1280.52,-162.255"/>
</g>
<!-- Node38 -->
<g id="node38" class="node"><title>Node38</title>
<polygon fill="none" stroke="#bfbfbf" points="1311,-136.5 1311,-155.5 1373,-155.5 1373,-136.5 1311,-136.5"/>
<text text-anchor="middle" x="1342" y="-143.5" font-family="Helvetica,sans-Serif" font-size="10.00">type_traits</text>
</g>
<!-- Node30&#45;&gt;Node38 -->
<g id="edge42" class="edge"><title>Node30&#45;&gt;Node38</title>
<path fill="none" stroke="midnightblue" d="M1309.44,-198.403C1315.09,-189.493 1324.06,-175.325 1331.16,-164.118"/>
<polygon fill="midnightblue" stroke="midnightblue" points="1334.17,-165.901 1336.57,-155.581 1328.26,-162.156 1334.17,-165.901"/>
</g>
<!-- Node39 -->
<g id="node39" class="node"><title>Node39</title>
<polygon fill="none" stroke="#bfbfbf" points="1391.5,-136.5 1391.5,-155.5 1432.5,-155.5 1432.5,-136.5 1391.5,-136.5"/>
<text text-anchor="middle" x="1412" y="-143.5" font-family="Helvetica,sans-Serif" font-size="10.00">string</text>
</g>
<!-- Node30&#45;&gt;Node39 -->
<g id="edge43" class="edge"><title>Node30&#45;&gt;Node39</title>
<path fill="none" stroke="midnightblue" d="M1319.47,-198.403C1337.28,-188.512 1366.74,-172.144 1387.63,-160.538"/>
<polygon fill="midnightblue" stroke="midnightblue" points="1389.51,-163.497 1396.55,-155.581 1386.11,-157.378 1389.51,-163.497"/>
</g>
<!-- Node35&#45;&gt;Node15 -->
<g id="edge37" class="edge"><title>Node35&#45;&gt;Node15</title>
<path fill="none" stroke="midnightblue" d="M1538.9,-136.403C1496.66,-125.431 1423.73,-106.488 1379.18,-94.9165"/>
<polygon fill="midnightblue" stroke="midnightblue" points="1379.87,-91.4804 1369.31,-92.3539 1378.11,-98.2555 1379.87,-91.4804"/>
</g>
<!-- Node35&#45;&gt;Node31 -->
<g id="edge38" class="edge"><title>Node35&#45;&gt;Node31</title>
<path fill="none" stroke="midnightblue" d="M1579.88,-136.403C1588.29,-127.225 1601.82,-112.47 1612.23,-101.117"/>
<polygon fill="midnightblue" stroke="midnightblue" points="1614.96,-103.317 1619.13,-93.5806 1609.8,-98.5871 1614.96,-103.317"/>
</g>
</g>
</svg>
