<?xml version="1.0" encoding="UTF-8" standalone="no"?>
<!DOCTYPE svg PUBLIC "-//W3C//DTD SVG 1.1//EN"
 "http://www.w3.org/Graphics/SVG/1.1/DTD/svg11.dtd">
<!-- Generated by graphviz version 2.36.0 (20140111.2315)
 -->
<!-- Title: /home/travis/build/AliceO2Group/AliceO2/Detectors/MUON/MID/Clustering/src/Clusterizer.h Pages: 1 -->
<svg width="593pt" height="242pt"
 viewBox="0.00 0.00 593.00 242.00" xmlns="http://www.w3.org/2000/svg" xmlns:xlink="http://www.w3.org/1999/xlink">
<g id="graph0" class="graph" transform="scale(1 1) rotate(0) translate(4 238)">
<title>/home/travis/build/AliceO2Group/AliceO2/Detectors/MUON/MID/Clustering/src/Clusterizer.h</title>
<!-- Node1 -->
<g id="node1" class="node"><title>Node1</title>
<polygon fill="#bfbfbf" stroke="black" points="109.5,-181 109.5,-233 274.5,-233 274.5,-181 109.5,-181"/>
<text text-anchor="start" x="117.5" y="-221" font-family="Helvetica,sans-Serif" font-size="10.00">/home/travis/build</text>
<text text-anchor="start" x="117.5" y="-210" font-family="Helvetica,sans-Serif" font-size="10.00">/AliceO2Group/AliceO2</text>
<text text-anchor="start" x="117.5" y="-199" font-family="Helvetica,sans-Serif" font-size="10.00">/Detectors/MUON/MID/Clustering</text>
<text text-anchor="middle" x="192" y="-188" font-family="Helvetica,sans-Serif" font-size="10.00">/src/Clusterizer.h</text>
</g>
<!-- Node2 -->
<g id="node2" class="node"><title>Node2</title>
<polygon fill="none" stroke="#bfbfbf" points="-0.5,-124.5 -0.5,-143.5 82.5,-143.5 82.5,-124.5 -0.5,-124.5"/>
<text text-anchor="middle" x="41" y="-131.5" font-family="Helvetica,sans-Serif" font-size="10.00">unordered_map</text>
</g>
<!-- Node1&#45;&gt;Node2 -->
<g id="edge1" class="edge"><title>Node1&#45;&gt;Node2</title>
<path fill="none" stroke="midnightblue" d="M138.763,-180.968C115.083,-169.834 88.1945,-157.191 68.6182,-147.986"/>
<polygon fill="midnightblue" stroke="midnightblue" points="69.9117,-144.727 59.3728,-143.639 66.9331,-151.061 69.9117,-144.727"/>
</g>
<!-- Node3 -->
<g id="node3" class="node"><title>Node3</title>
<polygon fill="none" stroke="#bfbfbf" points="99,-62.5 99,-81.5 143,-81.5 143,-62.5 99,-62.5"/>
<text text-anchor="middle" x="121" y="-69.5" font-family="Helvetica,sans-Serif" font-size="10.00">vector</text>
</g>
<!-- Node1&#45;&gt;Node3 -->
<g id="edge2" class="edge"><title>Node1&#45;&gt;Node3</title>
<path fill="none" stroke="midnightblue" d="M159.104,-180.821C148.065,-170.617 136.834,-157.942 130,-144 121.982,-127.641 120.196,-106.73 120.134,-91.8481"/>
<polygon fill="midnightblue" stroke="midnightblue" points="123.634,-91.8903 120.347,-81.818 116.635,-91.7411 123.634,-91.8903"/>
</g>
<!-- Node4 -->
<g id="node4" class="node"><title>Node4</title>
<g id="a_node4"><a xlink:href="../../d4/d73/MID_2Base_2include_2MIDBase_2Mapping_8h.html" target="_top" xlink:title="Mapping for MID. ">
<polygon fill="none" stroke="black" points="139,-124.5 139,-143.5 245,-143.5 245,-124.5 139,-124.5"/>
<text text-anchor="middle" x="192" y="-131.5" font-family="Helvetica,sans-Serif" font-size="10.00">MIDBase/Mapping.h</text>
</a>
</g>
</g>
<!-- Node1&#45;&gt;Node4 -->
<g id="edge3" class="edge"><title>Node1&#45;&gt;Node4</title>
<path fill="none" stroke="midnightblue" d="M192,-180.768C192,-171.89 192,-162.074 192,-153.816"/>
<polygon fill="midnightblue" stroke="midnightblue" points="195.5,-153.757 192,-143.757 188.5,-153.757 195.5,-153.757"/>
</g>
<!-- Node7 -->
<g id="node7" class="node"><title>Node7</title>
<g id="a_node7"><a xlink:href="../../d6/d31/Cluster2D_8h.html" target="_top" xlink:title="Reconstructed cluster per RPC. ">
<polygon fill="none" stroke="black" points="437,-124.5 437,-143.5 585,-143.5 585,-124.5 437,-124.5"/>
<text text-anchor="middle" x="511" y="-131.5" font-family="Helvetica,sans-Serif" font-size="10.00">DataFormatsMID/Cluster2D.h</text>
</a>
</g>
</g>
<!-- Node1&#45;&gt;Node7 -->
<g id="edge8" class="edge"><title>Node1&#45;&gt;Node7</title>
<path fill="none" stroke="midnightblue" d="M274.565,-187.623C334.322,-174.323 413.024,-156.806 462.831,-145.721"/>
<polygon fill="midnightblue" stroke="midnightblue" points="463.698,-149.114 472.698,-143.525 462.177,-142.281 463.698,-149.114"/>
</g>
<!-- Node10 -->
<g id="node10" class="node"><title>Node10</title>
<g id="a_node10"><a xlink:href="../../dd/df3/StripPattern_8h.html" target="_top" xlink:title="Strip pattern (aka digits) ">
<polygon fill="none" stroke="black" points="263.5,-124.5 263.5,-143.5 418.5,-143.5 418.5,-124.5 263.5,-124.5"/>
<text text-anchor="middle" x="341" y="-131.5" font-family="Helvetica,sans-Serif" font-size="10.00">DataFormatsMID/StripPattern.h</text>
</a>
</g>
</g>
<!-- Node1&#45;&gt;Node10 -->
<g id="edge11" class="edge"><title>Node1&#45;&gt;Node10</title>
<path fill="none" stroke="midnightblue" d="M244.532,-180.968C267.898,-169.834 294.431,-157.191 313.748,-147.986"/>
<polygon fill="midnightblue" stroke="midnightblue" points="315.349,-151.1 322.871,-143.639 312.337,-144.781 315.349,-151.1"/>
</g>
<!-- Node4&#45;&gt;Node3 -->
<g id="edge5" class="edge"><title>Node4&#45;&gt;Node3</title>
<path fill="none" stroke="midnightblue" d="M181.827,-124.403C170.65,-114.958 152.483,-99.6056 138.909,-88.1342"/>
<polygon fill="midnightblue" stroke="midnightblue" points="141.051,-85.3619 131.154,-81.5806 136.533,-90.7085 141.051,-85.3619"/>
</g>
<!-- Node5 -->
<g id="node5" class="node"><title>Node5</title>
<polygon fill="none" stroke="#bfbfbf" points="242,-0.5 242,-19.5 280,-19.5 280,-0.5 242,-0.5"/>
<text text-anchor="middle" x="261" y="-7.5" font-family="Helvetica,sans-Serif" font-size="10.00">array</text>
</g>
<!-- Node4&#45;&gt;Node5 -->
<g id="edge4" class="edge"><title>Node4&#45;&gt;Node5</title>
<path fill="none" stroke="midnightblue" d="M190.739,-124.231C189.023,-109.18 187.459,-77.9353 200,-56 207.599,-42.708 220.89,-32.2032 233.13,-24.6976"/>
<polygon fill="midnightblue" stroke="midnightblue" points="235.217,-27.5371 242.173,-19.5462 231.752,-21.4548 235.217,-27.5371"/>
</g>
<!-- Node6 -->
<g id="node6" class="node"><title>Node6</title>
<g id="a_node6"><a xlink:href="../../d7/d0a/MpArea_8h.html" target="_top" xlink:title="Mapping area for MID. ">
<polygon fill="none" stroke="black" points="209.5,-62.5 209.5,-81.5 312.5,-81.5 312.5,-62.5 209.5,-62.5"/>
<text text-anchor="middle" x="261" y="-69.5" font-family="Helvetica,sans-Serif" font-size="10.00">MIDBase/MpArea.h</text>
</a>
</g>
</g>
<!-- Node4&#45;&gt;Node6 -->
<g id="edge6" class="edge"><title>Node4&#45;&gt;Node6</title>
<path fill="none" stroke="midnightblue" d="M201.886,-124.403C212.646,-115.047 230.071,-99.8948 243.221,-88.4599"/>
<polygon fill="midnightblue" stroke="midnightblue" points="245.883,-90.7835 251.132,-81.5806 241.29,-85.5013 245.883,-90.7835"/>
</g>
<!-- Node6&#45;&gt;Node5 -->
<g id="edge7" class="edge"><title>Node6&#45;&gt;Node5</title>
<path fill="none" stroke="midnightblue" d="M261,-62.4035C261,-53.9381 261,-40.7283 261,-29.8199"/>
<polygon fill="midnightblue" stroke="midnightblue" points="264.5,-29.5806 261,-19.5806 257.5,-29.5806 264.5,-29.5806"/>
</g>
<!-- Node8 -->
<g id="node8" class="node"><title>Node8</title>
<polygon fill="none" stroke="#bfbfbf" points="370.5,-57 370.5,-87 465.5,-87 465.5,-57 370.5,-57"/>
<text text-anchor="start" x="378.5" y="-75" font-family="Helvetica,sans-Serif" font-size="10.00">boost/serialization</text>
<text text-anchor="middle" x="418" y="-64" font-family="Helvetica,sans-Serif" font-size="10.00">/access.hpp</text>
</g>
<!-- Node7&#45;&gt;Node8 -->
<g id="edge9" class="edge"><title>Node7&#45;&gt;Node8</title>
<path fill="none" stroke="midnightblue" d="M497.675,-124.403C484.962,-116.201 465.345,-103.545 448.758,-92.8441"/>
<polygon fill="midnightblue" stroke="midnightblue" points="450.219,-89.6211 439.918,-87.1408 446.424,-95.5032 450.219,-89.6211"/>
</g>
<!-- Node9 -->
<g id="node9" class="node"><title>Node9</title>
<polygon fill="none" stroke="#bfbfbf" points="486,-62.5 486,-81.5 532,-81.5 532,-62.5 486,-62.5"/>
<text text-anchor="middle" x="509" y="-69.5" font-family="Helvetica,sans-Serif" font-size="10.00">cstdint</text>
</g>
<!-- Node7&#45;&gt;Node9 -->
<g id="edge10" class="edge"><title>Node7&#45;&gt;Node9</title>
<path fill="none" stroke="midnightblue" d="M510.713,-124.403C510.431,-115.938 509.991,-102.728 509.627,-91.8199"/>
<polygon fill="midnightblue" stroke="midnightblue" points="513.117,-91.4584 509.286,-81.5806 506.121,-91.6917 513.117,-91.4584"/>
</g>
<!-- Node10&#45;&gt;Node5 -->
<g id="edge14" class="edge"><title>Node10&#45;&gt;Node5</title>
<path fill="none" stroke="midnightblue" d="M340.577,-124.152C339.469,-108.983 335.462,-77.5658 321,-56 312.389,-43.1596 298.859,-32.5499 286.825,-24.8638"/>
<polygon fill="midnightblue" stroke="midnightblue" points="288.394,-21.723 278.02,-19.5676 284.785,-27.7214 288.394,-21.723"/>
</g>
<!-- Node10&#45;&gt;Node8 -->
<g id="edge12" class="edge"><title>Node10&#45;&gt;Node8</title>
<path fill="none" stroke="midnightblue" d="M352.032,-124.403C362.363,-116.353 378.2,-104.013 391.768,-93.4406"/>
<polygon fill="midnightblue" stroke="midnightblue" points="394.116,-96.0482 399.853,-87.1408 389.813,-90.5265 394.116,-96.0482"/>
</g>
<!-- Node10&#45;&gt;Node9 -->
<g id="edge13" class="edge"><title>Node10&#45;&gt;Node9</title>
<path fill="none" stroke="midnightblue" d="M368.224,-124.482C395.264,-115.859 437.803,-101.855 474,-88 476.107,-87.1935 478.274,-86.3355 480.448,-85.4541"/>
<polygon fill="midnightblue" stroke="midnightblue" points="481.976,-88.609 489.855,-81.5264 479.279,-82.1494 481.976,-88.609"/>
</g>
</g>
</svg>
