<?xml version="1.0" encoding="UTF-8" standalone="no"?>
<!DOCTYPE svg PUBLIC "-//W3C//DTD SVG 1.1//EN"
 "http://www.w3.org/Graphics/SVG/1.1/DTD/svg11.dtd">
<!-- Generated by graphviz version 2.36.0 (20140111.2315)
 -->
<!-- Title: /home/travis/build/AliceO2Group/AliceO2/DataFormats/Detectors/ITSMFT/common/src/TopologyDictionary.cxx Pages: 1 -->
<svg width="427pt" height="186pt"
 viewBox="0.00 0.00 427.00 186.00" xmlns="http://www.w3.org/2000/svg" xmlns:xlink="http://www.w3.org/1999/xlink">
<g id="graph0" class="graph" transform="scale(1 1) rotate(0) translate(4 182)">
<title>/home/travis/build/AliceO2Group/AliceO2/DataFormats/Detectors/ITSMFT/common/src/TopologyDictionary.cxx</title>
<!-- Node1 -->
<g id="node1" class="node"><title>Node1</title>
<polygon fill="#bfbfbf" stroke="black" points="93,-125 93,-177 311,-177 311,-125 93,-125"/>
<text text-anchor="start" x="101" y="-165" font-family="Helvetica,sans-Serif" font-size="10.00">/home/travis/build</text>
<text text-anchor="start" x="101" y="-154" font-family="Helvetica,sans-Serif" font-size="10.00">/AliceO2Group/AliceO2</text>
<text text-anchor="start" x="101" y="-143" font-family="Helvetica,sans-Serif" font-size="10.00">/DataFormats/Detectors</text>
<text text-anchor="middle" x="202" y="-132" font-family="Helvetica,sans-Serif" font-size="10.00">/ITSMFT/common/src/TopologyDictionary.cxx</text>
</g>
<!-- Node2 -->
<g id="node2" class="node"><title>Node2</title>
<g id="a_node2"><a xlink:href="../../d1/d08/TopologyDictionary_8h.html" target="_top" xlink:title="Definition of the ClusterTopology class. ">
<polygon fill="none" stroke="black" points="126,-57 126,-87 278,-87 278,-57 126,-57"/>
<text text-anchor="start" x="134" y="-75" font-family="Helvetica,sans-Serif" font-size="10.00">DataFormatsITSMFT/Topology</text>
<text text-anchor="middle" x="202" y="-64" font-family="Helvetica,sans-Serif" font-size="10.00">Dictionary.h</text>
</a>
</g>
</g>
<!-- Node1&#45;&gt;Node2 -->
<g id="edge1" class="edge"><title>Node1&#45;&gt;Node2</title>
<path fill="none" stroke="midnightblue" d="M202,-124.787C202,-116.029 202,-106.225 202,-97.5232"/>
<polygon fill="midnightblue" stroke="midnightblue" points="205.5,-97.252 202,-87.252 198.5,-97.2521 205.5,-97.252"/>
</g>
<!-- Node3 -->
<g id="node3" class="node"><title>Node3</title>
<polygon fill="none" stroke="#bfbfbf" points="0,-0.5 0,-19.5 56,-19.5 56,-0.5 0,-0.5"/>
<text text-anchor="middle" x="28" y="-7.5" font-family="Helvetica,sans-Serif" font-size="10.00">Rtypes.h</text>
</g>
<!-- Node2&#45;&gt;Node3 -->
<g id="edge2" class="edge"><title>Node2&#45;&gt;Node3</title>
<path fill="none" stroke="midnightblue" d="M161.205,-56.9327C131.104,-46.553 90.6073,-32.5887 62.1956,-22.7916"/>
<polygon fill="midnightblue" stroke="midnightblue" points="63.2815,-19.4639 52.6868,-19.5127 60.9996,-26.0815 63.2815,-19.4639"/>
</g>
<!-- Node4 -->
<g id="node4" class="node"><title>Node4</title>
<polygon fill="none" stroke="#bfbfbf" points="74,-0.5 74,-19.5 124,-19.5 124,-0.5 74,-0.5"/>
<text text-anchor="middle" x="99" y="-7.5" font-family="Helvetica,sans-Serif" font-size="10.00">fstream</text>
</g>
<!-- Node2&#45;&gt;Node4 -->
<g id="edge3" class="edge"><title>Node2&#45;&gt;Node4</title>
<path fill="none" stroke="midnightblue" d="M177.851,-56.9327C161.25,-47.2619 139.306,-34.4793 122.784,-24.8546"/>
<polygon fill="midnightblue" stroke="midnightblue" points="124.166,-21.6093 113.763,-19.6 120.642,-27.6579 124.166,-21.6093"/>
</g>
<!-- Node5 -->
<g id="node5" class="node"><title>Node5</title>
<polygon fill="none" stroke="#bfbfbf" points="142,-0.5 142,-19.5 196,-19.5 196,-0.5 142,-0.5"/>
<text text-anchor="middle" x="169" y="-7.5" font-family="Helvetica,sans-Serif" font-size="10.00">iostream</text>
</g>
<!-- Node2&#45;&gt;Node5 -->
<g id="edge4" class="edge"><title>Node2&#45;&gt;Node5</title>
<path fill="none" stroke="midnightblue" d="M194.179,-56.7808C189.532,-48.3318 183.601,-37.5481 178.663,-28.5693"/>
<polygon fill="midnightblue" stroke="midnightblue" points="181.688,-26.806 173.802,-19.7305 175.554,-30.1794 181.688,-26.806"/>
</g>
<!-- Node6 -->
<g id="node6" class="node"><title>Node6</title>
<polygon fill="none" stroke="#bfbfbf" points="214.5,-0.5 214.5,-19.5 255.5,-19.5 255.5,-0.5 214.5,-0.5"/>
<text text-anchor="middle" x="235" y="-7.5" font-family="Helvetica,sans-Serif" font-size="10.00">string</text>
</g>
<!-- Node2&#45;&gt;Node6 -->
<g id="edge5" class="edge"><title>Node2&#45;&gt;Node6</title>
<path fill="none" stroke="midnightblue" d="M209.821,-56.7808C214.468,-48.3318 220.399,-37.5481 225.337,-28.5693"/>
<polygon fill="midnightblue" stroke="midnightblue" points="228.446,-30.1794 230.198,-19.7305 222.312,-26.806 228.446,-30.1794"/>
</g>
<!-- Node7 -->
<g id="node7" class="node"><title>Node7</title>
<polygon fill="none" stroke="#bfbfbf" points="273.5,-0.5 273.5,-19.5 356.5,-19.5 356.5,-0.5 273.5,-0.5"/>
<text text-anchor="middle" x="315" y="-7.5" font-family="Helvetica,sans-Serif" font-size="10.00">unordered_map</text>
</g>
<!-- Node2&#45;&gt;Node7 -->
<g id="edge6" class="edge"><title>Node2&#45;&gt;Node7</title>
<path fill="none" stroke="midnightblue" d="M228.493,-56.9327C247.047,-47.0811 271.683,-34.0004 289.917,-24.3182"/>
<polygon fill="midnightblue" stroke="midnightblue" points="291.612,-27.381 298.803,-19.6 288.33,-21.1985 291.612,-27.381"/>
</g>
<!-- Node8 -->
<g id="node8" class="node"><title>Node8</title>
<polygon fill="none" stroke="#bfbfbf" points="375,-0.5 375,-19.5 419,-19.5 419,-0.5 375,-0.5"/>
<text text-anchor="middle" x="397" y="-7.5" font-family="Helvetica,sans-Serif" font-size="10.00">vector</text>
</g>
<!-- Node2&#45;&gt;Node8 -->
<g id="edge7" class="edge"><title>Node2&#45;&gt;Node8</title>
<path fill="none" stroke="midnightblue" d="M247.719,-56.9327C283.779,-45.8373 333.151,-30.6458 365.063,-20.8268"/>
<polygon fill="midnightblue" stroke="midnightblue" points="366.243,-24.1258 374.771,-17.8396 364.184,-17.4353 366.243,-24.1258"/>
</g>
</g>
</svg>
