<?xml version="1.0" encoding="UTF-8" standalone="no"?>
<!DOCTYPE svg PUBLIC "-//W3C//DTD SVG 1.1//EN"
 "http://www.w3.org/Graphics/SVG/1.1/DTD/svg11.dtd">
<!-- Generated by graphviz version 2.36.0 (20140111.2315)
 -->
<!-- Title: /home/travis/build/AliceO2Group/AliceO2/Detectors/ITSMFT/common/simulation/include/ITSMFTSimulation/SimulationAlpide.h Pages: 1 -->
<svg width="1867pt" height="332pt"
 viewBox="0.00 0.00 1867.00 332.00" xmlns="http://www.w3.org/2000/svg" xmlns:xlink="http://www.w3.org/1999/xlink">
<g id="graph0" class="graph" transform="scale(1 1) rotate(0) translate(4 328)">
<title>/home/travis/build/AliceO2Group/AliceO2/Detectors/ITSMFT/common/simulation/include/ITSMFTSimulation/SimulationAlpide.h</title>
<!-- Node1 -->
<g id="node1" class="node"><title>Node1</title>
<polygon fill="#bfbfbf" stroke="black" points="154,-260.5 154,-323.5 336,-323.5 336,-260.5 154,-260.5"/>
<text text-anchor="start" x="162" y="-311.5" font-family="Helvetica,sans-Serif" font-size="10.00">/home/travis/build</text>
<text text-anchor="start" x="162" y="-300.5" font-family="Helvetica,sans-Serif" font-size="10.00">/AliceO2Group/AliceO2</text>
<text text-anchor="start" x="162" y="-289.5" font-family="Helvetica,sans-Serif" font-size="10.00">/Detectors/ITSMFT/common</text>
<text text-anchor="start" x="162" y="-278.5" font-family="Helvetica,sans-Serif" font-size="10.00">/simulation/include/ITSMFTSimulation</text>
<text text-anchor="middle" x="245" y="-267.5" font-family="Helvetica,sans-Serif" font-size="10.00">/SimulationAlpide.h</text>
</g>
<!-- Node2 -->
<g id="node2" class="node"><title>Node2</title>
<polygon fill="none" stroke="#bfbfbf" points="215.5,-136.5 215.5,-155.5 274.5,-155.5 274.5,-136.5 215.5,-136.5"/>
<text text-anchor="middle" x="245" y="-143.5" font-family="Helvetica,sans-Serif" font-size="10.00">TObject.h</text>
</g>
<!-- Node1&#45;&gt;Node2 -->
<g id="edge1" class="edge"><title>Node1&#45;&gt;Node2</title>
<path fill="none" stroke="midnightblue" d="M245,-260.461C245,-231.798 245,-189.836 245,-165.791"/>
<polygon fill="midnightblue" stroke="midnightblue" points="248.5,-165.563 245,-155.563 241.5,-165.563 248.5,-165.563"/>
</g>
<!-- Node3 -->
<g id="node3" class="node"><title>Node3</title>
<g id="a_node3"><a xlink:href="../../dc/d1a/AlpideSimResponse_8h.html" target="_top" xlink:title="Definition of the ITSMFT Alpide simulated response parametrization. ">
<polygon fill="none" stroke="black" points="52,-193 52,-223 198,-223 198,-193 52,-193"/>
<text text-anchor="start" x="60" y="-211" font-family="Helvetica,sans-Serif" font-size="10.00">ITSMFTSimulation/AlpideSim</text>
<text text-anchor="middle" x="125" y="-200" font-family="Helvetica,sans-Serif" font-size="10.00">Response.h</text>
</a>
</g>
</g>
<!-- Node1&#45;&gt;Node3 -->
<g id="edge2" class="edge"><title>Node1&#45;&gt;Node3</title>
<path fill="none" stroke="midnightblue" d="M200.316,-260.466C184.902,-249.933 168.041,-238.412 154.188,-228.945"/>
<polygon fill="midnightblue" stroke="midnightblue" points="155.796,-225.805 145.565,-223.053 151.847,-231.584 155.796,-225.805"/>
</g>
<!-- Node8 -->
<g id="node8" class="node"><title>Node8</title>
<g id="a_node8"><a xlink:href="../../d9/d55/Chip_8h.html" target="_top" xlink:title="ITSMFTSimulation/Chip.h">
<polygon fill="none" stroke="black" points="296,-198.5 296,-217.5 426,-217.5 426,-198.5 296,-198.5"/>
<text text-anchor="middle" x="361" y="-205.5" font-family="Helvetica,sans-Serif" font-size="10.00">ITSMFTSimulation/Chip.h</text>
</a>
</g>
</g>
<!-- Node1&#45;&gt;Node8 -->
<g id="edge7" class="edge"><title>Node1&#45;&gt;Node8</title>
<path fill="none" stroke="midnightblue" d="M288.194,-260.466C306.118,-247.796 326.063,-233.697 340.538,-223.464"/>
<polygon fill="midnightblue" stroke="midnightblue" points="342.632,-226.27 348.778,-217.64 338.592,-220.554 342.632,-226.27"/>
</g>
<!-- Node4 -->
<g id="node4" class="node"><title>Node4</title>
<polygon fill="none" stroke="#bfbfbf" points="59,-136.5 59,-155.5 97,-155.5 97,-136.5 59,-136.5"/>
<text text-anchor="middle" x="78" y="-143.5" font-family="Helvetica,sans-Serif" font-size="10.00">array</text>
</g>
<!-- Node3&#45;&gt;Node4 -->
<g id="edge3" class="edge"><title>Node3&#45;&gt;Node4</title>
<path fill="none" stroke="midnightblue" d="M113.862,-192.781C107.032,-184.062 98.255,-172.857 91.0936,-163.715"/>
<polygon fill="midnightblue" stroke="midnightblue" points="93.7609,-161.445 84.8389,-155.731 88.2503,-165.761 93.7609,-161.445"/>
</g>
<!-- Node5 -->
<g id="node5" class="node"><title>Node5</title>
<polygon fill="none" stroke="#bfbfbf" points="-0.5,-136.5 -0.5,-155.5 40.5,-155.5 40.5,-136.5 -0.5,-136.5"/>
<text text-anchor="middle" x="20" y="-143.5" font-family="Helvetica,sans-Serif" font-size="10.00">string</text>
</g>
<!-- Node3&#45;&gt;Node5 -->
<g id="edge4" class="edge"><title>Node3&#45;&gt;Node5</title>
<path fill="none" stroke="midnightblue" d="M100.382,-192.933C83.3001,-183.171 60.6702,-170.24 43.7748,-160.586"/>
<polygon fill="midnightblue" stroke="midnightblue" points="45.469,-157.523 35.05,-155.6 41.996,-163.6 45.469,-157.523"/>
</g>
<!-- Node6 -->
<g id="node6" class="node"><title>Node6</title>
<polygon fill="none" stroke="#bfbfbf" points="153,-136.5 153,-155.5 197,-155.5 197,-136.5 153,-136.5"/>
<text text-anchor="middle" x="175" y="-143.5" font-family="Helvetica,sans-Serif" font-size="10.00">vector</text>
</g>
<!-- Node3&#45;&gt;Node6 -->
<g id="edge5" class="edge"><title>Node3&#45;&gt;Node6</title>
<path fill="none" stroke="midnightblue" d="M136.849,-192.781C144.19,-183.972 153.645,-172.626 161.306,-163.433"/>
<polygon fill="midnightblue" stroke="midnightblue" points="164.011,-165.653 167.725,-155.731 158.634,-161.172 164.011,-165.653"/>
</g>
<!-- Node7 -->
<g id="node7" class="node"><title>Node7</title>
<polygon fill="none" stroke="#bfbfbf" points="402,-6.5 402,-25.5 458,-25.5 458,-6.5 402,-6.5"/>
<text text-anchor="middle" x="430" y="-13.5" font-family="Helvetica,sans-Serif" font-size="10.00">Rtypes.h</text>
</g>
<!-- Node3&#45;&gt;Node7 -->
<g id="edge6" class="edge"><title>Node3&#45;&gt;Node7</title>
<path fill="none" stroke="midnightblue" d="M125.438,-192.937C126.613,-177.408 130.634,-152.433 144,-136 207.035,-58.5009 329.171,-30.8155 391.454,-21.4571"/>
<polygon fill="midnightblue" stroke="midnightblue" points="392.23,-24.882 401.639,-20.0109 391.246,-17.9516 392.23,-24.882"/>
</g>
<!-- Node8&#45;&gt;Node2 -->
<g id="edge14" class="edge"><title>Node8&#45;&gt;Node2</title>
<path fill="none" stroke="midnightblue" d="M344.38,-198.403C325.085,-188.423 293.041,-171.849 270.569,-160.225"/>
<polygon fill="midnightblue" stroke="midnightblue" points="272.079,-157.066 261.589,-155.581 268.863,-163.284 272.079,-157.066"/>
</g>
<!-- Node8&#45;&gt;Node6 -->
<g id="edge18" class="edge"><title>Node8&#45;&gt;Node6</title>
<path fill="none" stroke="midnightblue" d="M334.351,-198.403C300.654,-187.533 242.706,-168.841 206.752,-157.243"/>
<polygon fill="midnightblue" stroke="midnightblue" points="207.824,-153.911 197.232,-154.172 205.675,-160.573 207.824,-153.911"/>
</g>
<!-- Node9 -->
<g id="node9" class="node"><title>Node9</title>
<g id="a_node9"><a xlink:href="../../d0/d06/ITSMFT_2common_2base_2include_2ITSMFTBase_2Digit_8h.html" target="_top" xlink:title="ITSMFTBase/Digit.h">
<polygon fill="none" stroke="black" points="532.5,-136.5 532.5,-155.5 639.5,-155.5 639.5,-136.5 532.5,-136.5"/>
<text text-anchor="middle" x="586" y="-143.5" font-family="Helvetica,sans-Serif" font-size="10.00">ITSMFTBase/Digit.h</text>
</a>
</g>
</g>
<!-- Node8&#45;&gt;Node9 -->
<g id="edge8" class="edge"><title>Node8&#45;&gt;Node9</title>
<path fill="none" stroke="midnightblue" d="M393.237,-198.403C432.919,-187.822 500.399,-169.827 544.074,-158.18"/>
<polygon fill="midnightblue" stroke="midnightblue" points="545.062,-161.539 553.823,-155.581 543.259,-154.775 545.062,-161.539"/>
</g>
<!-- Node10 -->
<g id="node10" class="node"><title>Node10</title>
<g id="a_node10"><a xlink:href="../../d7/dcd/MCCompLabel_8h.html" target="_top" xlink:title="SimulationDataFormat\l/MCCompLabel.h">
<polygon fill="none" stroke="black" points="288,-69 288,-99 402,-99 402,-69 288,-69"/>
<text text-anchor="start" x="296" y="-87" font-family="Helvetica,sans-Serif" font-size="10.00">SimulationDataFormat</text>
<text text-anchor="middle" x="345" y="-76" font-family="Helvetica,sans-Serif" font-size="10.00">/MCCompLabel.h</text>
</a>
</g>
</g>
<!-- Node8&#45;&gt;Node10 -->
<g id="edge31" class="edge"><title>Node8&#45;&gt;Node10</title>
<path fill="none" stroke="midnightblue" d="M351.429,-198.339C341.87,-188.983 327.79,-173.104 322,-156 316.599,-140.045 322.614,-121.986 329.844,-108.073"/>
<polygon fill="midnightblue" stroke="midnightblue" points="333.002,-109.601 334.918,-99.1807 326.922,-106.132 333.002,-109.601"/>
</g>
<!-- Node12 -->
<g id="node12" class="node"><title>Node12</title>
<polygon fill="none" stroke="#bfbfbf" points="331.5,-136.5 331.5,-155.5 390.5,-155.5 390.5,-136.5 331.5,-136.5"/>
<text text-anchor="middle" x="361" y="-143.5" font-family="Helvetica,sans-Serif" font-size="10.00">exception</text>
</g>
<!-- Node8&#45;&gt;Node12 -->
<g id="edge15" class="edge"><title>Node8&#45;&gt;Node12</title>
<path fill="none" stroke="midnightblue" d="M361,-198.403C361,-189.938 361,-176.728 361,-165.82"/>
<polygon fill="midnightblue" stroke="midnightblue" points="364.5,-165.581 361,-155.581 357.5,-165.581 364.5,-165.581"/>
</g>
<!-- Node13 -->
<g id="node13" class="node"><title>Node13</title>
<polygon fill="none" stroke="#bfbfbf" points="408.5,-136.5 408.5,-155.5 443.5,-155.5 443.5,-136.5 408.5,-136.5"/>
<text text-anchor="middle" x="426" y="-143.5" font-family="Helvetica,sans-Serif" font-size="10.00">map</text>
</g>
<!-- Node8&#45;&gt;Node13 -->
<g id="edge16" class="edge"><title>Node8&#45;&gt;Node13</title>
<path fill="none" stroke="midnightblue" d="M370.313,-198.403C380.449,-189.047 396.864,-173.895 409.252,-162.46"/>
<polygon fill="midnightblue" stroke="midnightblue" points="411.73,-164.935 416.704,-155.581 406.982,-159.792 411.73,-164.935"/>
</g>
<!-- Node14 -->
<g id="node14" class="node"><title>Node14</title>
<polygon fill="none" stroke="#bfbfbf" points="462,-136.5 462,-155.5 514,-155.5 514,-136.5 462,-136.5"/>
<text text-anchor="middle" x="488" y="-143.5" font-family="Helvetica,sans-Serif" font-size="10.00">sstream</text>
</g>
<!-- Node8&#45;&gt;Node14 -->
<g id="edge17" class="edge"><title>Node8&#45;&gt;Node14</title>
<path fill="none" stroke="midnightblue" d="M379.196,-198.403C400.509,-188.334 436.031,-171.552 460.663,-159.915"/>
<polygon fill="midnightblue" stroke="midnightblue" points="462.291,-163.017 469.838,-155.581 459.301,-156.688 462.291,-163.017"/>
</g>
<!-- Node15 -->
<g id="node15" class="node"><title>Node15</title>
<g id="a_node15"><a xlink:href="../../dd/d76/Cartesian3D_8h.html" target="_top" xlink:title="MathUtils/Cartesian3D.h">
<polygon fill="none" stroke="black" points="1110.5,-136.5 1110.5,-155.5 1235.5,-155.5 1235.5,-136.5 1110.5,-136.5"/>
<text text-anchor="middle" x="1173" y="-143.5" font-family="Helvetica,sans-Serif" font-size="10.00">MathUtils/Cartesian3D.h</text>
</a>
</g>
</g>
<!-- Node8&#45;&gt;Node15 -->
<g id="edge19" class="edge"><title>Node8&#45;&gt;Node15</title>
<path fill="none" stroke="midnightblue" d="M426.077,-202.191C575.771,-191.13 943.683,-163.945 1100.4,-152.364"/>
<polygon fill="midnightblue" stroke="midnightblue" points="1100.7,-155.852 1110.42,-151.624 1100.18,-148.871 1100.7,-155.852"/>
</g>
<!-- Node9&#45;&gt;Node7 -->
<g id="edge9" class="edge"><title>Node9&#45;&gt;Node7</title>
<path fill="none" stroke="midnightblue" d="M545.981,-136.451C510.459,-128.071 462.198,-114.477 449,-100 433,-82.4499 429.599,-54.239 429.285,-35.6599"/>
<polygon fill="midnightblue" stroke="midnightblue" points="432.787,-35.558 429.404,-25.5178 425.787,-35.4762 432.787,-35.558"/>
</g>
<!-- Node9&#45;&gt;Node10 -->
<g id="edge10" class="edge"><title>Node9&#45;&gt;Node10</title>
<path fill="none" stroke="midnightblue" d="M551.727,-136.467C515.285,-127.395 456.748,-112.821 411.251,-101.494"/>
<polygon fill="midnightblue" stroke="midnightblue" points="412.01,-98.0762 401.46,-99.0565 410.319,-104.869 412.01,-98.0762"/>
</g>
<!-- Node11 -->
<g id="node11" class="node"><title>Node11</title>
<g id="a_node11"><a xlink:href="../../df/d5d/common_2include_2CommonDataFormat_2TimeStamp_8h.html" target="_top" xlink:title="CommonDataFormat/TimeStamp.h">
<polygon fill="none" stroke="black" points="458,-74.5 458,-93.5 628,-93.5 628,-74.5 458,-74.5"/>
<text text-anchor="middle" x="543" y="-81.5" font-family="Helvetica,sans-Serif" font-size="10.00">CommonDataFormat/TimeStamp.h</text>
</a>
</g>
</g>
<!-- Node9&#45;&gt;Node11 -->
<g id="edge12" class="edge"><title>Node9&#45;&gt;Node11</title>
<path fill="none" stroke="midnightblue" d="M579.839,-136.403C573.389,-127.403 563.096,-113.041 555.027,-101.782"/>
<polygon fill="midnightblue" stroke="midnightblue" points="557.82,-99.6699 549.149,-93.5806 552.13,-103.748 557.82,-99.6699"/>
</g>
<!-- Node10&#45;&gt;Node7 -->
<g id="edge11" class="edge"><title>Node10&#45;&gt;Node7</title>
<path fill="none" stroke="midnightblue" d="M363.444,-68.679C377.353,-57.8787 396.389,-43.0983 410.54,-32.1103"/>
<polygon fill="midnightblue" stroke="midnightblue" points="412.878,-34.7258 418.63,-25.8283 408.585,-29.1968 412.878,-34.7258"/>
</g>
<!-- Node11&#45;&gt;Node7 -->
<g id="edge13" class="edge"><title>Node11&#45;&gt;Node7</title>
<path fill="none" stroke="midnightblue" d="M528.227,-74.3717C509.278,-63.3039 476.18,-43.9724 453.692,-30.838"/>
<polygon fill="midnightblue" stroke="midnightblue" points="455.177,-27.6517 444.776,-25.6305 451.646,-33.6962 455.177,-27.6517"/>
</g>
<!-- Node15&#45;&gt;Node7 -->
<g id="edge25" class="edge"><title>Node15&#45;&gt;Node7</title>
<path fill="none" stroke="midnightblue" d="M1110.35,-144.107C994.382,-141.676 751.064,-132.718 674,-100 653.987,-91.5035 656.311,-77.9879 637,-68 582.332,-39.7256 511.344,-26.6646 468.304,-20.9828"/>
<polygon fill="midnightblue" stroke="midnightblue" points="468.611,-17.4939 458.253,-19.7235 467.74,-24.4396 468.611,-17.4939"/>
</g>
<!-- Node16 -->
<g id="node16" class="node"><title>Node16</title>
<polygon fill="none" stroke="#bfbfbf" points="1513.5,-69 1513.5,-99 1664.5,-99 1664.5,-69 1513.5,-69"/>
<text text-anchor="start" x="1521.5" y="-87" font-family="Helvetica,sans-Serif" font-size="10.00">Math/GenVector/Displacement</text>
<text text-anchor="middle" x="1589" y="-76" font-family="Helvetica,sans-Serif" font-size="10.00">Vector3D.h</text>
</g>
<!-- Node15&#45;&gt;Node16 -->
<g id="edge20" class="edge"><title>Node15&#45;&gt;Node16</title>
<path fill="none" stroke="midnightblue" d="M1235.64,-137.234C1300.13,-129.068 1403.8,-115.473 1503.53,-100.035"/>
<polygon fill="midnightblue" stroke="midnightblue" points="1504.14,-103.483 1513.48,-98.4864 1503.06,-96.5659 1504.14,-103.483"/>
</g>
<!-- Node17 -->
<g id="node17" class="node"><title>Node17</title>
<polygon fill="none" stroke="#bfbfbf" points="1683,-74.5 1683,-93.5 1859,-93.5 1859,-74.5 1683,-74.5"/>
<text text-anchor="middle" x="1771" y="-81.5" font-family="Helvetica,sans-Serif" font-size="10.00">Math/GenVector/PositionVector3D.h</text>
</g>
<!-- Node15&#45;&gt;Node17 -->
<g id="edge21" class="edge"><title>Node15&#45;&gt;Node17</title>
<path fill="none" stroke="midnightblue" d="M1235.88,-140.6C1330.78,-133.676 1516.18,-119.04 1673,-100 1684.81,-98.5657 1697.39,-96.812 1709.47,-95.016"/>
<polygon fill="midnightblue" stroke="midnightblue" points="1710.1,-98.4607 1719.46,-93.5036 1709.05,-91.5396 1710.1,-98.4607"/>
</g>
<!-- Node18 -->
<g id="node18" class="node"><title>Node18</title>
<polygon fill="none" stroke="#bfbfbf" points="683.5,-74.5 683.5,-93.5 832.5,-93.5 832.5,-74.5 683.5,-74.5"/>
<text text-anchor="middle" x="758" y="-81.5" font-family="Helvetica,sans-Serif" font-size="10.00">Math/GenVector/Rotation3D.h</text>
</g>
<!-- Node15&#45;&gt;Node18 -->
<g id="edge22" class="edge"><title>Node15&#45;&gt;Node18</title>
<path fill="none" stroke="midnightblue" d="M1110.35,-137.272C1043.71,-128.865 935.24,-114.657 842,-100 832.865,-98.564 823.191,-96.9365 813.783,-95.2962"/>
<polygon fill="midnightblue" stroke="midnightblue" points="814.174,-91.8112 803.717,-93.5198 812.957,-98.7047 814.174,-91.8112"/>
</g>
<!-- Node19 -->
<g id="node19" class="node"><title>Node19</title>
<polygon fill="none" stroke="#bfbfbf" points="851,-74.5 851,-93.5 1007,-93.5 1007,-74.5 851,-74.5"/>
<text text-anchor="middle" x="929" y="-81.5" font-family="Helvetica,sans-Serif" font-size="10.00">Math/GenVector/Transform3D.h</text>
</g>
<!-- Node15&#45;&gt;Node19 -->
<g id="edge23" class="edge"><title>Node15&#45;&gt;Node19</title>
<path fill="none" stroke="midnightblue" d="M1138.3,-136.467C1095.03,-125.827 1020.99,-107.622 973.568,-95.9593"/>
<polygon fill="midnightblue" stroke="midnightblue" points="974.127,-92.4926 963.58,-93.5034 972.455,-99.2901 974.127,-92.4926"/>
</g>
<!-- Node20 -->
<g id="node20" class="node"><title>Node20</title>
<polygon fill="none" stroke="#bfbfbf" points="1025,-74.5 1025,-93.5 1185,-93.5 1185,-74.5 1025,-74.5"/>
<text text-anchor="middle" x="1105" y="-81.5" font-family="Helvetica,sans-Serif" font-size="10.00">Math/GenVector/Translation3D.h</text>
</g>
<!-- Node15&#45;&gt;Node20 -->
<g id="edge24" class="edge"><title>Node15&#45;&gt;Node20</title>
<path fill="none" stroke="midnightblue" d="M1163.26,-136.403C1152.65,-127.047 1135.48,-111.895 1122.52,-100.46"/>
<polygon fill="midnightblue" stroke="midnightblue" points="1124.54,-97.5724 1114.72,-93.5806 1119.91,-102.821 1124.54,-97.5724"/>
</g>
<!-- Node21 -->
<g id="node21" class="node"><title>Node21</title>
<polygon fill="none" stroke="#bfbfbf" points="1203,-74.5 1203,-93.5 1279,-93.5 1279,-74.5 1203,-74.5"/>
<text text-anchor="middle" x="1241" y="-81.5" font-family="Helvetica,sans-Serif" font-size="10.00">TGeoMatrix.h</text>
</g>
<!-- Node15&#45;&gt;Node21 -->
<g id="edge26" class="edge"><title>Node15&#45;&gt;Node21</title>
<path fill="none" stroke="midnightblue" d="M1182.74,-136.403C1193.35,-127.047 1210.52,-111.895 1223.48,-100.46"/>
<polygon fill="midnightblue" stroke="midnightblue" points="1226.09,-102.821 1231.28,-93.5806 1221.46,-97.5724 1226.09,-102.821"/>
</g>
<!-- Node22 -->
<g id="node22" class="node"><title>Node22</title>
<polygon fill="none" stroke="#bfbfbf" points="1441,-74.5 1441,-93.5 1495,-93.5 1495,-74.5 1441,-74.5"/>
<text text-anchor="middle" x="1468" y="-81.5" font-family="Helvetica,sans-Serif" font-size="10.00">iostream</text>
</g>
<!-- Node15&#45;&gt;Node22 -->
<g id="edge27" class="edge"><title>Node15&#45;&gt;Node22</title>
<path fill="none" stroke="midnightblue" d="M1235.61,-137.867C1288.38,-130.959 1365.54,-118.746 1431,-100 1433.81,-99.1949 1436.7,-98.2478 1439.57,-97.2274"/>
<polygon fill="midnightblue" stroke="midnightblue" points="1440.99,-100.43 1449.07,-93.5752 1438.48,-93.8958 1440.99,-100.43"/>
</g>
<!-- Node23 -->
<g id="node23" class="node"><title>Node23</title>
<g id="a_node23"><a xlink:href="../../d2/dd0/Cartesian2D_8h.html" target="_top" xlink:title="MathUtils/Cartesian2D.h">
<polygon fill="none" stroke="black" points="1297.5,-74.5 1297.5,-93.5 1422.5,-93.5 1422.5,-74.5 1297.5,-74.5"/>
<text text-anchor="middle" x="1360" y="-81.5" font-family="Helvetica,sans-Serif" font-size="10.00">MathUtils/Cartesian2D.h</text>
</a>
</g>
</g>
<!-- Node15&#45;&gt;Node23 -->
<g id="edge28" class="edge"><title>Node15&#45;&gt;Node23</title>
<path fill="none" stroke="midnightblue" d="M1199.79,-136.403C1232.29,-125.978 1287.21,-108.356 1323.54,-96.6992"/>
<polygon fill="midnightblue" stroke="midnightblue" points="1324.8,-99.9685 1333.26,-93.5806 1322.67,-93.3031 1324.8,-99.9685"/>
</g>
<!-- Node24 -->
<g id="node24" class="node"><title>Node24</title>
<polygon fill="none" stroke="#bfbfbf" points="1375.5,-1 1375.5,-31 1526.5,-31 1526.5,-1 1375.5,-1"/>
<text text-anchor="start" x="1383.5" y="-19" font-family="Helvetica,sans-Serif" font-size="10.00">Math/GenVector/Displacement</text>
<text text-anchor="middle" x="1451" y="-8" font-family="Helvetica,sans-Serif" font-size="10.00">Vector2D.h</text>
</g>
<!-- Node23&#45;&gt;Node24 -->
<g id="edge29" class="edge"><title>Node23&#45;&gt;Node24</title>
<path fill="none" stroke="midnightblue" d="M1371.9,-74.3717C1384.78,-65.0286 1405.78,-49.7966 1422.91,-37.375"/>
<polygon fill="midnightblue" stroke="midnightblue" points="1425.41,-39.8859 1431.45,-31.1815 1421.3,-34.2194 1425.41,-39.8859"/>
</g>
<!-- Node25 -->
<g id="node25" class="node"><title>Node25</title>
<polygon fill="none" stroke="#bfbfbf" points="1181,-6.5 1181,-25.5 1357,-25.5 1357,-6.5 1181,-6.5"/>
<text text-anchor="middle" x="1269" y="-13.5" font-family="Helvetica,sans-Serif" font-size="10.00">Math/GenVector/PositionVector2D.h</text>
</g>
<!-- Node23&#45;&gt;Node25 -->
<g id="edge30" class="edge"><title>Node23&#45;&gt;Node25</title>
<path fill="none" stroke="midnightblue" d="M1348.1,-74.3717C1333.12,-63.5015 1307.14,-44.6602 1289.06,-31.5474"/>
<polygon fill="midnightblue" stroke="midnightblue" points="1291.05,-28.6684 1280.9,-25.6305 1286.94,-34.3349 1291.05,-28.6684"/>
</g>
</g>
</svg>
