<?xml version="1.0" encoding="UTF-8" standalone="no"?>
<!DOCTYPE svg PUBLIC "-//W3C//DTD SVG 1.1//EN"
 "http://www.w3.org/Graphics/SVG/1.1/DTD/svg11.dtd">
<!-- Generated by graphviz version 2.36.0 (20140111.2315)
 -->
<!-- Title: /home/travis/build/AliceO2Group/AliceO2/Detectors/ITSMFT/MFT/simulation/include/MFTSimulation/Detector.h Pages: 1 -->
<svg width="2300pt" height="412pt"
 viewBox="0.00 0.00 2300.00 412.00" xmlns="http://www.w3.org/2000/svg" xmlns:xlink="http://www.w3.org/1999/xlink">
<g id="graph0" class="graph" transform="scale(1 1) rotate(0) translate(4 408)">
<title>/home/travis/build/AliceO2Group/AliceO2/Detectors/ITSMFT/MFT/simulation/include/MFTSimulation/Detector.h</title>
<!-- Node1 -->
<g id="node1" class="node"><title>Node1</title>
<polygon fill="#bfbfbf" stroke="black" points="253.5,-340.5 253.5,-403.5 420.5,-403.5 420.5,-340.5 253.5,-340.5"/>
<text text-anchor="start" x="261.5" y="-391.5" font-family="Helvetica,sans-Serif" font-size="10.00">/home/travis/build</text>
<text text-anchor="start" x="261.5" y="-380.5" font-family="Helvetica,sans-Serif" font-size="10.00">/AliceO2Group/AliceO2</text>
<text text-anchor="start" x="261.5" y="-369.5" font-family="Helvetica,sans-Serif" font-size="10.00">/Detectors/ITSMFT/MFT</text>
<text text-anchor="start" x="261.5" y="-358.5" font-family="Helvetica,sans-Serif" font-size="10.00">/simulation/include/MFTSimulation</text>
<text text-anchor="middle" x="337" y="-347.5" font-family="Helvetica,sans-Serif" font-size="10.00">/Detector.h</text>
</g>
<!-- Node2 -->
<g id="node2" class="node"><title>Node2</title>
<polygon fill="none" stroke="#bfbfbf" points="123,-278.5 123,-297.5 215,-297.5 215,-278.5 123,-278.5"/>
<text text-anchor="middle" x="169" y="-285.5" font-family="Helvetica,sans-Serif" font-size="10.00">TLorentzVector.h</text>
</g>
<!-- Node1&#45;&gt;Node2 -->
<g id="edge1" class="edge"><title>Node1&#45;&gt;Node2</title>
<path fill="none" stroke="midnightblue" d="M274.443,-340.466C247.26,-327.199 216.867,-312.364 195.721,-302.043"/>
<polygon fill="midnightblue" stroke="midnightblue" points="197.223,-298.881 186.701,-297.64 194.152,-305.171 197.223,-298.881"/>
</g>
<!-- Node3 -->
<g id="node3" class="node"><title>Node3</title>
<polygon fill="none" stroke="#bfbfbf" points="0,-210.5 0,-229.5 44,-229.5 44,-210.5 0,-210.5"/>
<text text-anchor="middle" x="22" y="-217.5" font-family="Helvetica,sans-Serif" font-size="10.00">vector</text>
</g>
<!-- Node1&#45;&gt;Node3 -->
<g id="edge2" class="edge"><title>Node1&#45;&gt;Node3</title>
<path fill="none" stroke="midnightblue" d="M302.915,-340.401C271.367,-312.194 228.644,-274.339 224,-272 156.574,-238.046 130.027,-258.611 58,-236 55.4241,-235.191 52.7772,-234.271 50.1439,-233.293"/>
<polygon fill="midnightblue" stroke="midnightblue" points="51.4042,-230.027 40.8181,-229.596 48.8244,-236.535 51.4042,-230.027"/>
</g>
<!-- Node4 -->
<g id="node4" class="node"><title>Node4</title>
<g id="a_node4"><a xlink:href="../../d1/d3a/Base_2include_2DetectorsBase_2Detector_8h.html" target="_top" xlink:title="DetectorsBase/Detector.h">
<polygon fill="none" stroke="black" points="271.5,-278.5 271.5,-297.5 402.5,-297.5 402.5,-278.5 271.5,-278.5"/>
<text text-anchor="middle" x="337" y="-285.5" font-family="Helvetica,sans-Serif" font-size="10.00">DetectorsBase/Detector.h</text>
</a>
</g>
</g>
<!-- Node1&#45;&gt;Node4 -->
<g id="edge3" class="edge"><title>Node1&#45;&gt;Node4</title>
<path fill="none" stroke="midnightblue" d="M337,-340.466C337,-329.47 337,-317.396 337,-307.709"/>
<polygon fill="midnightblue" stroke="midnightblue" points="340.5,-307.64 337,-297.64 333.5,-307.64 340.5,-307.64"/>
</g>
<!-- Node15 -->
<g id="node15" class="node"><title>Node15</title>
<g id="a_node15"><a xlink:href="../../d6/d31/DetID_8h.html" target="_top" xlink:title="DetectorsCommonDataFormats\l/DetID.h">
<polygon fill="none" stroke="black" points="935,-273 935,-303 1091,-303 1091,-273 935,-273"/>
<text text-anchor="start" x="943" y="-291" font-family="Helvetica,sans-Serif" font-size="10.00">DetectorsCommonDataFormats</text>
<text text-anchor="middle" x="1013" y="-280" font-family="Helvetica,sans-Serif" font-size="10.00">/DetID.h</text>
</a>
</g>
</g>
<!-- Node1&#45;&gt;Node15 -->
<g id="edge17" class="edge"><title>Node1&#45;&gt;Node15</title>
<path fill="none" stroke="midnightblue" d="M420.569,-360.863C548.986,-345.286 793.706,-315.601 924.836,-299.694"/>
<polygon fill="midnightblue" stroke="midnightblue" points="925.344,-303.159 934.849,-298.48 924.501,-296.21 925.344,-303.159"/>
</g>
<!-- Node23 -->
<g id="node23" class="node"><title>Node23</title>
<g id="a_node23"><a xlink:href="../../d0/dae/ITSMFT_2common_2simulation_2include_2ITSMFTSimulation_2Hit_8h.html" target="_top" xlink:title="ITSMFTSimulation/Hit.h">
<polygon fill="none" stroke="black" points="1331,-278.5 1331,-297.5 1453,-297.5 1453,-278.5 1331,-278.5"/>
<text text-anchor="middle" x="1392" y="-285.5" font-family="Helvetica,sans-Serif" font-size="10.00">ITSMFTSimulation/Hit.h</text>
</a>
</g>
</g>
<!-- Node1&#45;&gt;Node23 -->
<g id="edge28" class="edge"><title>Node1&#45;&gt;Node23</title>
<path fill="none" stroke="midnightblue" d="M420.666,-364.497C622.378,-348.819 1132.7,-309.154 1320.88,-294.528"/>
<polygon fill="midnightblue" stroke="midnightblue" points="1321.24,-298.01 1330.94,-293.746 1320.7,-291.031 1321.24,-298.01"/>
</g>
<!-- Node4&#45;&gt;Node3 -->
<g id="edge5" class="edge"><title>Node4&#45;&gt;Node3</title>
<path fill="none" stroke="midnightblue" d="M291.74,-278.462C280.399,-276.337 268.257,-274.073 257,-272 168.607,-255.718 144.207,-261.433 58,-236 55.3516,-235.219 52.6334,-234.306 49.9349,-233.323"/>
<polygon fill="midnightblue" stroke="midnightblue" points="50.9944,-229.978 40.4075,-229.567 48.427,-236.49 50.9944,-229.978"/>
</g>
<!-- Node5 -->
<g id="node5" class="node"><title>Node5</title>
<polygon fill="none" stroke="#bfbfbf" points="640.5,-142.5 640.5,-161.5 675.5,-161.5 675.5,-142.5 640.5,-142.5"/>
<text text-anchor="middle" x="658" y="-149.5" font-family="Helvetica,sans-Serif" font-size="10.00">map</text>
</g>
<!-- Node4&#45;&gt;Node5 -->
<g id="edge4" class="edge"><title>Node4&#45;&gt;Node5</title>
<path fill="none" stroke="midnightblue" d="M332.482,-278.249C324.599,-261.617 310.82,-225.216 329,-204 367.815,-158.705 557.911,-153.296 630.11,-152.901"/>
<polygon fill="midnightblue" stroke="midnightblue" points="630.27,-156.4 640.261,-152.875 630.252,-149.4 630.27,-156.4"/>
</g>
<!-- Node6 -->
<g id="node6" class="node"><title>Node6</title>
<polygon fill="none" stroke="#bfbfbf" points="338,-210.5 338,-229.5 390,-229.5 390,-210.5 338,-210.5"/>
<text text-anchor="middle" x="364" y="-217.5" font-family="Helvetica,sans-Serif" font-size="10.00">memory</text>
</g>
<!-- Node4&#45;&gt;Node6 -->
<g id="edge6" class="edge"><title>Node4&#45;&gt;Node6</title>
<path fill="none" stroke="midnightblue" d="M340.53,-278.372C344.55,-268.544 351.236,-252.202 356.445,-239.467"/>
<polygon fill="midnightblue" stroke="midnightblue" points="359.836,-240.422 360.383,-229.841 353.357,-237.771 359.836,-240.422"/>
</g>
<!-- Node7 -->
<g id="node7" class="node"><title>Node7</title>
<polygon fill="none" stroke="#bfbfbf" points="408.5,-210.5 408.5,-229.5 487.5,-229.5 487.5,-210.5 408.5,-210.5"/>
<text text-anchor="middle" x="448" y="-217.5" font-family="Helvetica,sans-Serif" font-size="10.00">FairDetector.h</text>
</g>
<!-- Node4&#45;&gt;Node7 -->
<g id="edge7" class="edge"><title>Node4&#45;&gt;Node7</title>
<path fill="none" stroke="midnightblue" d="M351.511,-278.372C370.125,-267.304 402.637,-247.972 424.727,-234.838"/>
<polygon fill="midnightblue" stroke="midnightblue" points="426.679,-237.75 433.485,-229.63 423.101,-231.733 426.679,-237.75"/>
</g>
<!-- Node8 -->
<g id="node8" class="node"><title>Node8</title>
<polygon fill="none" stroke="#bfbfbf" points="506,-210.5 506,-229.5 606,-229.5 606,-210.5 506,-210.5"/>
<text text-anchor="middle" x="556" y="-217.5" font-family="Helvetica,sans-Serif" font-size="10.00">FairRootManager.h</text>
</g>
<!-- Node4&#45;&gt;Node8 -->
<g id="edge8" class="edge"><title>Node4&#45;&gt;Node8</title>
<path fill="none" stroke="midnightblue" d="M365.63,-278.372C404.676,-266.604 474.718,-245.496 518.087,-232.426"/>
<polygon fill="midnightblue" stroke="midnightblue" points="519.145,-235.763 527.71,-229.526 517.125,-229.06 519.145,-235.763"/>
</g>
<!-- Node9 -->
<g id="node9" class="node"><title>Node9</title>
<g id="a_node9"><a xlink:href="../../d0/d9a/MaterialManager_8h.html" target="_top" xlink:title="DetectorsBase/MaterialManager.h">
<polygon fill="none" stroke="black" points="624.5,-210.5 624.5,-229.5 789.5,-229.5 789.5,-210.5 624.5,-210.5"/>
<text text-anchor="middle" x="707" y="-217.5" font-family="Helvetica,sans-Serif" font-size="10.00">DetectorsBase/MaterialManager.h</text>
</a>
</g>
</g>
<!-- Node4&#45;&gt;Node9 -->
<g id="edge9" class="edge"><title>Node4&#45;&gt;Node9</title>
<path fill="none" stroke="midnightblue" d="M384.992,-278.439C452.782,-266.347 576.411,-244.294 649.175,-231.315"/>
<polygon fill="midnightblue" stroke="midnightblue" points="649.863,-234.747 659.093,-229.546 648.634,-227.856 649.863,-234.747"/>
</g>
<!-- Node10 -->
<g id="node10" class="node"><title>Node10</title>
<polygon fill="none" stroke="#bfbfbf" points="957,-74.5 957,-93.5 1013,-93.5 1013,-74.5 957,-74.5"/>
<text text-anchor="middle" x="985" y="-81.5" font-family="Helvetica,sans-Serif" font-size="10.00">Rtypes.h</text>
</g>
<!-- Node4&#45;&gt;Node10 -->
<g id="edge12" class="edge"><title>Node4&#45;&gt;Node10</title>
<path fill="none" stroke="midnightblue" d="M292.315,-278.474C222.267,-265.006 94.1965,-239.927 91,-236 82.022,-224.97 81.6303,-214.7 91,-204 148.472,-138.371 783.382,-96.8249 946.816,-87.1673"/>
<polygon fill="midnightblue" stroke="midnightblue" points="947.11,-90.6561 956.888,-86.5773 946.701,-83.6681 947.11,-90.6561"/>
</g>
<!-- Node11 -->
<g id="node11" class="node"><title>Node11</title>
<polygon fill="none" stroke="#bfbfbf" points="100.5,-210.5 100.5,-229.5 153.5,-229.5 153.5,-210.5 100.5,-210.5"/>
<text text-anchor="middle" x="127" y="-217.5" font-family="Helvetica,sans-Serif" font-size="10.00">cxxabi.h</text>
</g>
<!-- Node4&#45;&gt;Node11 -->
<g id="edge13" class="edge"><title>Node4&#45;&gt;Node11</title>
<path fill="none" stroke="midnightblue" d="M303.063,-278.419C267.519,-269.129 210.259,-253.301 162,-236 159.742,-235.191 157.421,-234.309 155.101,-233.393"/>
<polygon fill="midnightblue" stroke="midnightblue" points="156.303,-230.103 145.724,-229.521 153.631,-236.573 156.303,-230.103"/>
</g>
<!-- Node12 -->
<g id="node12" class="node"><title>Node12</title>
<polygon fill="none" stroke="#bfbfbf" points="171.5,-210.5 171.5,-229.5 222.5,-229.5 222.5,-210.5 171.5,-210.5"/>
<text text-anchor="middle" x="197" y="-217.5" font-family="Helvetica,sans-Serif" font-size="10.00">typeinfo</text>
</g>
<!-- Node4&#45;&gt;Node12 -->
<g id="edge14" class="edge"><title>Node4&#45;&gt;Node12</title>
<path fill="none" stroke="midnightblue" d="M318.697,-278.372C294.696,-267.057 252.375,-247.105 224.508,-233.968"/>
<polygon fill="midnightblue" stroke="midnightblue" points="225.845,-230.729 215.307,-229.63 222.86,-237.061 225.845,-230.729"/>
</g>
<!-- Node13 -->
<g id="node13" class="node"><title>Node13</title>
<polygon fill="none" stroke="#bfbfbf" points="808,-210.5 808,-229.5 870,-229.5 870,-210.5 808,-210.5"/>
<text text-anchor="middle" x="839" y="-217.5" font-family="Helvetica,sans-Serif" font-size="10.00">type_traits</text>
</g>
<!-- Node4&#45;&gt;Node13 -->
<g id="edge15" class="edge"><title>Node4&#45;&gt;Node13</title>
<path fill="none" stroke="midnightblue" d="M402.731,-284.692C492.928,-280.406 659.634,-268.464 798,-236 801.5,-235.179 805.111,-234.147 808.672,-233.01"/>
<polygon fill="midnightblue" stroke="midnightblue" points="810.139,-236.206 818.438,-229.62 807.843,-229.593 810.139,-236.206"/>
</g>
<!-- Node14 -->
<g id="node14" class="node"><title>Node14</title>
<polygon fill="none" stroke="#bfbfbf" points="240.5,-210.5 240.5,-229.5 281.5,-229.5 281.5,-210.5 240.5,-210.5"/>
<text text-anchor="middle" x="261" y="-217.5" font-family="Helvetica,sans-Serif" font-size="10.00">string</text>
</g>
<!-- Node4&#45;&gt;Node14 -->
<g id="edge16" class="edge"><title>Node4&#45;&gt;Node14</title>
<path fill="none" stroke="midnightblue" d="M327.064,-278.372C314.843,-267.758 293.87,-249.545 278.832,-236.485"/>
<polygon fill="midnightblue" stroke="midnightblue" points="281.026,-233.755 271.181,-229.841 276.436,-239.041 281.026,-233.755"/>
</g>
<!-- Node9&#45;&gt;Node5 -->
<g id="edge11" class="edge"><title>Node9&#45;&gt;Node5</title>
<path fill="none" stroke="midnightblue" d="M700.594,-210.372C693.006,-200.151 680.187,-182.884 670.589,-169.957"/>
<polygon fill="midnightblue" stroke="midnightblue" points="673.335,-167.784 664.564,-161.841 667.715,-171.957 673.335,-167.784"/>
</g>
<!-- Node9&#45;&gt;Node10 -->
<g id="edge10" class="edge"><title>Node9&#45;&gt;Node10</title>
<path fill="none" stroke="midnightblue" d="M724.813,-210.414C772.181,-187.582 901.482,-125.257 957.98,-98.0242"/>
<polygon fill="midnightblue" stroke="midnightblue" points="959.847,-101.01 967.335,-93.5146 956.807,-94.7039 959.847,-101.01"/>
</g>
<!-- Node15&#45;&gt;Node10 -->
<g id="edge18" class="edge"><title>Node15&#45;&gt;Node10</title>
<path fill="none" stroke="midnightblue" d="M964.119,-272.979C946.054,-265.166 927.452,-253.388 917,-236 894.103,-197.908 897.124,-175.752 917,-136 925.252,-119.495 941.667,-106.946 956.302,-98.4258"/>
<polygon fill="midnightblue" stroke="midnightblue" points="957.983,-101.496 965.095,-93.6423 954.638,-95.3467 957.983,-101.496"/>
</g>
<!-- Node15&#45;&gt;Node13 -->
<g id="edge23" class="edge"><title>Node15&#45;&gt;Node13</title>
<path fill="none" stroke="midnightblue" d="M975.673,-272.841C944.541,-261.033 900.649,-244.384 871.078,-233.168"/>
<polygon fill="midnightblue" stroke="midnightblue" points="872.229,-229.861 861.638,-229.587 869.747,-236.406 872.229,-229.861"/>
</g>
<!-- Node16 -->
<g id="node16" class="node"><title>Node16</title>
<polygon fill="none" stroke="#bfbfbf" points="1186,-142.5 1186,-161.5 1224,-161.5 1224,-142.5 1186,-142.5"/>
<text text-anchor="middle" x="1205" y="-149.5" font-family="Helvetica,sans-Serif" font-size="10.00">array</text>
</g>
<!-- Node15&#45;&gt;Node16 -->
<g id="edge19" class="edge"><title>Node15&#45;&gt;Node16</title>
<path fill="none" stroke="midnightblue" d="M1076.08,-272.944C1101.26,-265.092 1129.35,-253.296 1151,-236 1172.99,-218.438 1188.93,-189.401 1197.58,-170.743"/>
<polygon fill="midnightblue" stroke="midnightblue" points="1200.78,-172.146 1201.62,-161.584 1194.38,-169.32 1200.78,-172.146"/>
</g>
<!-- Node17 -->
<g id="node17" class="node"><title>Node17</title>
<polygon fill="none" stroke="#bfbfbf" points="1034.5,-210.5 1034.5,-229.5 1075.5,-229.5 1075.5,-210.5 1034.5,-210.5"/>
<text text-anchor="middle" x="1055" y="-217.5" font-family="Helvetica,sans-Serif" font-size="10.00">bitset</text>
</g>
<!-- Node15&#45;&gt;Node17 -->
<g id="edge20" class="edge"><title>Node15&#45;&gt;Node17</title>
<path fill="none" stroke="midnightblue" d="M1022.11,-272.679C1028.53,-262.592 1037.16,-249.033 1043.97,-238.335"/>
<polygon fill="midnightblue" stroke="midnightblue" points="1046.97,-240.144 1049.38,-229.828 1041.06,-236.386 1046.97,-240.144"/>
</g>
<!-- Node18 -->
<g id="node18" class="node"><title>Node18</title>
<polygon fill="none" stroke="#bfbfbf" points="1093.5,-210.5 1093.5,-229.5 1142.5,-229.5 1142.5,-210.5 1093.5,-210.5"/>
<text text-anchor="middle" x="1118" y="-217.5" font-family="Helvetica,sans-Serif" font-size="10.00">cassert</text>
</g>
<!-- Node15&#45;&gt;Node18 -->
<g id="edge21" class="edge"><title>Node15&#45;&gt;Node18</title>
<path fill="none" stroke="midnightblue" d="M1035.53,-272.841C1053.28,-261.681 1077.91,-246.198 1095.63,-235.063"/>
<polygon fill="midnightblue" stroke="midnightblue" points="1097.58,-237.967 1104.19,-229.682 1093.86,-232.04 1097.58,-237.967"/>
</g>
<!-- Node19 -->
<g id="node19" class="node"><title>Node19</title>
<polygon fill="none" stroke="#bfbfbf" points="1199,-210.5 1199,-229.5 1245,-229.5 1245,-210.5 1199,-210.5"/>
<text text-anchor="middle" x="1222" y="-217.5" font-family="Helvetica,sans-Serif" font-size="10.00">cstdint</text>
</g>
<!-- Node15&#45;&gt;Node19 -->
<g id="edge22" class="edge"><title>Node15&#45;&gt;Node19</title>
<path fill="none" stroke="midnightblue" d="M1065.35,-272.9C1099.65,-263.315 1145.31,-249.892 1185,-236 1187.4,-235.158 1189.88,-234.249 1192.36,-233.31"/>
<polygon fill="midnightblue" stroke="midnightblue" points="1193.75,-236.523 1201.78,-229.61 1191.19,-230.008 1193.75,-236.523"/>
</g>
<!-- Node20 -->
<g id="node20" class="node"><title>Node20</title>
<g id="a_node20"><a xlink:href="../../d9/d52/Common_2MathUtils_2include_2MathUtils_2Utils_8h.html" target="_top" xlink:title="MathUtils/Utils.h">
<polygon fill="none" stroke="black" points="926,-210.5 926,-229.5 1016,-229.5 1016,-210.5 926,-210.5"/>
<text text-anchor="middle" x="971" y="-217.5" font-family="Helvetica,sans-Serif" font-size="10.00">MathUtils/Utils.h</text>
</a>
</g>
</g>
<!-- Node15&#45;&gt;Node20 -->
<g id="edge24" class="edge"><title>Node15&#45;&gt;Node20</title>
<path fill="none" stroke="midnightblue" d="M1003.89,-272.679C997.468,-262.592 988.839,-249.033 982.031,-238.335"/>
<polygon fill="midnightblue" stroke="midnightblue" points="984.94,-236.386 976.618,-229.828 979.034,-240.144 984.94,-236.386"/>
</g>
<!-- Node20&#45;&gt;Node16 -->
<g id="edge25" class="edge"><title>Node20&#45;&gt;Node16</title>
<path fill="none" stroke="midnightblue" d="M1000.94,-210.472C1008.75,-208.304 1017.18,-206.018 1025,-204 1091.8,-186.764 1111.33,-192.026 1176,-168 1177.64,-167.389 1179.31,-166.707 1180.98,-165.98"/>
<polygon fill="midnightblue" stroke="midnightblue" points="1182.78,-168.998 1190.26,-161.501 1179.74,-162.693 1182.78,-168.998"/>
</g>
<!-- Node21 -->
<g id="node21" class="node"><title>Node21</title>
<polygon fill="none" stroke="#bfbfbf" points="926,-142.5 926,-161.5 970,-161.5 970,-142.5 926,-142.5"/>
<text text-anchor="middle" x="948" y="-149.5" font-family="Helvetica,sans-Serif" font-size="10.00">cmath</text>
</g>
<!-- Node20&#45;&gt;Node21 -->
<g id="edge26" class="edge"><title>Node20&#45;&gt;Node21</title>
<path fill="none" stroke="midnightblue" d="M967.993,-210.372C964.568,-200.544 958.873,-184.202 954.436,-171.467"/>
<polygon fill="midnightblue" stroke="midnightblue" points="957.677,-170.132 951.081,-161.841 951.067,-172.436 957.677,-170.132"/>
</g>
<!-- Node22 -->
<g id="node22" class="node"><title>Node22</title>
<g id="a_node22"><a xlink:href="../../d6/d84/MathConstants_8h.html" target="_top" xlink:title="useful math constants ">
<polygon fill="none" stroke="black" points="988.5,-142.5 988.5,-161.5 1167.5,-161.5 1167.5,-142.5 988.5,-142.5"/>
<text text-anchor="middle" x="1078" y="-149.5" font-family="Helvetica,sans-Serif" font-size="10.00">CommonConstants/MathConstants.h</text>
</a>
</g>
</g>
<!-- Node20&#45;&gt;Node22 -->
<g id="edge27" class="edge"><title>Node20&#45;&gt;Node22</title>
<path fill="none" stroke="midnightblue" d="M984.988,-210.372C1002.85,-199.353 1033.99,-180.145 1055.28,-167.014"/>
<polygon fill="midnightblue" stroke="midnightblue" points="1057.33,-169.859 1064.01,-161.63 1053.66,-163.901 1057.33,-169.859"/>
</g>
<!-- Node23&#45;&gt;Node10 -->
<g id="edge44" class="edge"><title>Node23&#45;&gt;Node10</title>
<path fill="none" stroke="midnightblue" d="M1383.33,-278.22C1352.82,-247.409 1251.31,-145.559 1233,-136 1196.98,-117.191 1083.62,-98.9473 1023.43,-90.2643"/>
<polygon fill="midnightblue" stroke="midnightblue" points="1023.58,-86.7511 1013.19,-88.8056 1022.6,-93.6812 1023.58,-86.7511"/>
</g>
<!-- Node24 -->
<g id="node24" class="node"><title>Node24</title>
<g id="a_node24"><a xlink:href="../../d4/d25/BaseHits_8h.html" target="_top" xlink:title="SimulationDataFormat\l/BaseHits.h">
<polygon fill="none" stroke="black" points="1534,-205 1534,-235 1648,-235 1648,-205 1534,-205"/>
<text text-anchor="start" x="1542" y="-223" font-family="Helvetica,sans-Serif" font-size="10.00">SimulationDataFormat</text>
<text text-anchor="middle" x="1591" y="-212" font-family="Helvetica,sans-Serif" font-size="10.00">/BaseHits.h</text>
</a>
</g>
</g>
<!-- Node23&#45;&gt;Node24 -->
<g id="edge29" class="edge"><title>Node23&#45;&gt;Node24</title>
<path fill="none" stroke="midnightblue" d="M1418.02,-278.372C1448.61,-268.225 1500.15,-251.133 1539.03,-238.237"/>
<polygon fill="midnightblue" stroke="midnightblue" points="1540.23,-241.526 1548.62,-235.056 1538.02,-234.882 1540.23,-241.526"/>
</g>
<!-- Node32 -->
<g id="node32" class="node"><title>Node32</title>
<polygon fill="none" stroke="#bfbfbf" points="1118,-74.5 1118,-93.5 1172,-93.5 1172,-74.5 1118,-74.5"/>
<text text-anchor="middle" x="1145" y="-81.5" font-family="Helvetica,sans-Serif" font-size="10.00">iostream</text>
</g>
<!-- Node23&#45;&gt;Node32 -->
<g id="edge46" class="edge"><title>Node23&#45;&gt;Node32</title>
<path fill="none" stroke="midnightblue" d="M1396.4,-278.198C1408.45,-252.717 1438.77,-178.039 1403,-136 1370.61,-97.9369 1229.06,-113.705 1181,-100 1178.34,-99.2428 1175.62,-98.3462 1172.92,-97.3738"/>
<polygon fill="midnightblue" stroke="midnightblue" points="1173.98,-94.0283 1163.39,-93.6339 1171.42,-100.545 1173.98,-94.0283"/>
</g>
<!-- Node36 -->
<g id="node36" class="node"><title>Node36</title>
<g id="a_node36"><a xlink:href="../../d7/dcd/MCCompLabel_8h.html" target="_top" xlink:title="SimulationDataFormat\l/MCCompLabel.h">
<polygon fill="none" stroke="black" points="1280,-137 1280,-167 1394,-167 1394,-137 1280,-137"/>
<text text-anchor="start" x="1288" y="-155" font-family="Helvetica,sans-Serif" font-size="10.00">SimulationDataFormat</text>
<text text-anchor="middle" x="1337" y="-144" font-family="Helvetica,sans-Serif" font-size="10.00">/MCCompLabel.h</text>
</a>
</g>
</g>
<!-- Node23&#45;&gt;Node36 -->
<g id="edge42" class="edge"><title>Node23&#45;&gt;Node36</title>
<path fill="none" stroke="midnightblue" d="M1388.39,-278.208C1380.02,-257.806 1359.04,-206.688 1346.63,-176.451"/>
<polygon fill="midnightblue" stroke="midnightblue" points="1349.81,-174.993 1342.78,-167.071 1343.33,-177.651 1349.81,-174.993"/>
</g>
<!-- Node37 -->
<g id="node37" class="node"><title>Node37</title>
<polygon fill="none" stroke="#bfbfbf" points="1450.5,-210.5 1450.5,-229.5 1515.5,-229.5 1515.5,-210.5 1450.5,-210.5"/>
<text text-anchor="middle" x="1483" y="-217.5" font-family="Helvetica,sans-Serif" font-size="10.00">TVector3.h</text>
</g>
<!-- Node23&#45;&gt;Node37 -->
<g id="edge45" class="edge"><title>Node23&#45;&gt;Node37</title>
<path fill="none" stroke="midnightblue" d="M1403.9,-278.372C1418.88,-267.502 1444.86,-248.66 1462.94,-235.547"/>
<polygon fill="midnightblue" stroke="midnightblue" points="1465.06,-238.335 1471.1,-229.63 1460.95,-232.668 1465.06,-238.335"/>
</g>
<!-- Node25 -->
<g id="node25" class="node"><title>Node25</title>
<g id="a_node25"><a xlink:href="../../dd/d76/Cartesian3D_8h.html" target="_top" xlink:title="MathUtils/Cartesian3D.h">
<polygon fill="none" stroke="black" points="1528.5,-142.5 1528.5,-161.5 1653.5,-161.5 1653.5,-142.5 1528.5,-142.5"/>
<text text-anchor="middle" x="1591" y="-149.5" font-family="Helvetica,sans-Serif" font-size="10.00">MathUtils/Cartesian3D.h</text>
</a>
</g>
</g>
<!-- Node24&#45;&gt;Node25 -->
<g id="edge30" class="edge"><title>Node24&#45;&gt;Node25</title>
<path fill="none" stroke="midnightblue" d="M1591,-204.679C1591,-195.101 1591,-182.394 1591,-171.977"/>
<polygon fill="midnightblue" stroke="midnightblue" points="1594.5,-171.828 1591,-161.828 1587.5,-171.828 1594.5,-171.828"/>
</g>
<!-- Node25&#45;&gt;Node10 -->
<g id="edge36" class="edge"><title>Node25&#45;&gt;Node10</title>
<path fill="none" stroke="midnightblue" d="M1528.19,-144.657C1436.16,-135.295 1259.29,-117.04 1109,-100 1080.15,-96.7294 1047.57,-92.7774 1023.04,-89.7511"/>
<polygon fill="midnightblue" stroke="midnightblue" points="1023.41,-86.2703 1013.06,-88.5154 1022.55,-93.2173 1023.41,-86.2703"/>
</g>
<!-- Node26 -->
<g id="node26" class="node"><title>Node26</title>
<polygon fill="none" stroke="#bfbfbf" points="1333.5,-69 1333.5,-99 1484.5,-99 1484.5,-69 1333.5,-69"/>
<text text-anchor="start" x="1341.5" y="-87" font-family="Helvetica,sans-Serif" font-size="10.00">Math/GenVector/Displacement</text>
<text text-anchor="middle" x="1409" y="-76" font-family="Helvetica,sans-Serif" font-size="10.00">Vector3D.h</text>
</g>
<!-- Node25&#45;&gt;Node26 -->
<g id="edge31" class="edge"><title>Node25&#45;&gt;Node26</title>
<path fill="none" stroke="midnightblue" d="M1567.21,-142.372C1539.46,-132.311 1492.89,-115.422 1457.44,-102.566"/>
<polygon fill="midnightblue" stroke="midnightblue" points="1458.36,-99.1751 1447.76,-99.0562 1455.97,-105.756 1458.36,-99.1751"/>
</g>
<!-- Node27 -->
<g id="node27" class="node"><title>Node27</title>
<polygon fill="none" stroke="#bfbfbf" points="1503,-74.5 1503,-93.5 1679,-93.5 1679,-74.5 1503,-74.5"/>
<text text-anchor="middle" x="1591" y="-81.5" font-family="Helvetica,sans-Serif" font-size="10.00">Math/GenVector/PositionVector3D.h</text>
</g>
<!-- Node25&#45;&gt;Node27 -->
<g id="edge32" class="edge"><title>Node25&#45;&gt;Node27</title>
<path fill="none" stroke="midnightblue" d="M1591,-142.372C1591,-132.643 1591,-116.528 1591,-103.85"/>
<polygon fill="midnightblue" stroke="midnightblue" points="1594.5,-103.841 1591,-93.8411 1587.5,-103.841 1594.5,-103.841"/>
</g>
<!-- Node28 -->
<g id="node28" class="node"><title>Node28</title>
<polygon fill="none" stroke="#bfbfbf" points="1696.5,-74.5 1696.5,-93.5 1845.5,-93.5 1845.5,-74.5 1696.5,-74.5"/>
<text text-anchor="middle" x="1771" y="-81.5" font-family="Helvetica,sans-Serif" font-size="10.00">Math/GenVector/Rotation3D.h</text>
</g>
<!-- Node25&#45;&gt;Node28 -->
<g id="edge33" class="edge"><title>Node25&#45;&gt;Node28</title>
<path fill="none" stroke="midnightblue" d="M1614.53,-142.372C1646.15,-130.778 1702.5,-110.116 1738.25,-97.0087"/>
<polygon fill="midnightblue" stroke="midnightblue" points="1739.56,-100.255 1747.75,-93.5259 1737.15,-93.6824 1739.56,-100.255"/>
</g>
<!-- Node29 -->
<g id="node29" class="node"><title>Node29</title>
<polygon fill="none" stroke="#bfbfbf" points="1864,-74.5 1864,-93.5 2020,-93.5 2020,-74.5 1864,-74.5"/>
<text text-anchor="middle" x="1942" y="-81.5" font-family="Helvetica,sans-Serif" font-size="10.00">Math/GenVector/Transform3D.h</text>
</g>
<!-- Node25&#45;&gt;Node29 -->
<g id="edge34" class="edge"><title>Node25&#45;&gt;Node29</title>
<path fill="none" stroke="midnightblue" d="M1636.53,-142.439C1700.7,-130.372 1817.64,-108.384 1886.72,-95.3945"/>
<polygon fill="midnightblue" stroke="midnightblue" points="1887.37,-98.8333 1896.55,-93.5455 1886.08,-91.9538 1887.37,-98.8333"/>
</g>
<!-- Node30 -->
<g id="node30" class="node"><title>Node30</title>
<polygon fill="none" stroke="#bfbfbf" points="2038,-74.5 2038,-93.5 2198,-93.5 2198,-74.5 2038,-74.5"/>
<text text-anchor="middle" x="2118" y="-81.5" font-family="Helvetica,sans-Serif" font-size="10.00">Math/GenVector/Translation3D.h</text>
</g>
<!-- Node25&#45;&gt;Node30 -->
<g id="edge35" class="edge"><title>Node25&#45;&gt;Node30</title>
<path fill="none" stroke="midnightblue" d="M1653.51,-144.736C1738.61,-135.977 1895.61,-118.994 2029,-100 2039.01,-98.5752 2049.62,-96.9162 2059.9,-95.2314"/>
<polygon fill="midnightblue" stroke="midnightblue" points="2060.74,-98.6393 2070.03,-93.5458 2059.59,-91.7341 2060.74,-98.6393"/>
</g>
<!-- Node31 -->
<g id="node31" class="node"><title>Node31</title>
<polygon fill="none" stroke="#bfbfbf" points="2216,-74.5 2216,-93.5 2292,-93.5 2292,-74.5 2216,-74.5"/>
<text text-anchor="middle" x="2254" y="-81.5" font-family="Helvetica,sans-Serif" font-size="10.00">TGeoMatrix.h</text>
</g>
<!-- Node25&#45;&gt;Node31 -->
<g id="edge37" class="edge"><title>Node25&#45;&gt;Node31</title>
<path fill="none" stroke="midnightblue" d="M1653.73,-150.471C1765.83,-148.496 2007.53,-139.556 2207,-100 2211.57,-99.0946 2216.31,-97.8976 2220.95,-96.5737"/>
<polygon fill="midnightblue" stroke="midnightblue" points="2222.31,-99.8178 2230.84,-93.5365 2220.26,-93.1262 2222.31,-99.8178"/>
</g>
<!-- Node25&#45;&gt;Node32 -->
<g id="edge38" class="edge"><title>Node25&#45;&gt;Node32</title>
<path fill="none" stroke="midnightblue" d="M1528.18,-144.134C1421.62,-132.346 1213.76,-108.689 1181,-100 1178.18,-99.2514 1175.28,-98.3293 1172.42,-97.3135"/>
<polygon fill="midnightblue" stroke="midnightblue" points="1173.57,-94.0025 1162.98,-93.6144 1171.02,-100.52 1173.57,-94.0025"/>
</g>
<!-- Node33 -->
<g id="node33" class="node"><title>Node33</title>
<g id="a_node33"><a xlink:href="../../d2/dd0/Cartesian2D_8h.html" target="_top" xlink:title="MathUtils/Cartesian2D.h">
<polygon fill="none" stroke="black" points="1190.5,-74.5 1190.5,-93.5 1315.5,-93.5 1315.5,-74.5 1190.5,-74.5"/>
<text text-anchor="middle" x="1253" y="-81.5" font-family="Helvetica,sans-Serif" font-size="10.00">MathUtils/Cartesian2D.h</text>
</a>
</g>
</g>
<!-- Node25&#45;&gt;Node33 -->
<g id="edge39" class="edge"><title>Node25&#45;&gt;Node33</title>
<path fill="none" stroke="midnightblue" d="M1544.64,-142.428C1491.35,-132.508 1401.26,-115.539 1324,-100 1317.2,-98.6314 1310.03,-97.1572 1302.98,-95.6862"/>
<polygon fill="midnightblue" stroke="midnightblue" points="1303.28,-92.174 1292.78,-93.5459 1301.84,-99.0248 1303.28,-92.174"/>
</g>
<!-- Node34 -->
<g id="node34" class="node"><title>Node34</title>
<polygon fill="none" stroke="#bfbfbf" points="1086.5,-1 1086.5,-31 1237.5,-31 1237.5,-1 1086.5,-1"/>
<text text-anchor="start" x="1094.5" y="-19" font-family="Helvetica,sans-Serif" font-size="10.00">Math/GenVector/Displacement</text>
<text text-anchor="middle" x="1162" y="-8" font-family="Helvetica,sans-Serif" font-size="10.00">Vector2D.h</text>
</g>
<!-- Node33&#45;&gt;Node34 -->
<g id="edge40" class="edge"><title>Node33&#45;&gt;Node34</title>
<path fill="none" stroke="midnightblue" d="M1241.1,-74.3717C1228.22,-65.0286 1207.22,-49.7966 1190.09,-37.375"/>
<polygon fill="midnightblue" stroke="midnightblue" points="1191.7,-34.2194 1181.55,-31.1815 1187.59,-39.8859 1191.7,-34.2194"/>
</g>
<!-- Node35 -->
<g id="node35" class="node"><title>Node35</title>
<polygon fill="none" stroke="#bfbfbf" points="1256,-6.5 1256,-25.5 1432,-25.5 1432,-6.5 1256,-6.5"/>
<text text-anchor="middle" x="1344" y="-13.5" font-family="Helvetica,sans-Serif" font-size="10.00">Math/GenVector/PositionVector2D.h</text>
</g>
<!-- Node33&#45;&gt;Node35 -->
<g id="edge41" class="edge"><title>Node33&#45;&gt;Node35</title>
<path fill="none" stroke="midnightblue" d="M1264.9,-74.3717C1279.88,-63.5015 1305.86,-44.6602 1323.94,-31.5474"/>
<polygon fill="midnightblue" stroke="midnightblue" points="1326.06,-34.3349 1332.1,-25.6305 1321.95,-28.6684 1326.06,-34.3349"/>
</g>
<!-- Node36&#45;&gt;Node10 -->
<g id="edge43" class="edge"><title>Node36&#45;&gt;Node10</title>
<path fill="none" stroke="midnightblue" d="M1279.68,-138.742C1275.05,-137.798 1270.45,-136.874 1266,-136 1179.57,-119.029 1077.77,-101.052 1023.56,-91.6376"/>
<polygon fill="midnightblue" stroke="midnightblue" points="1023.82,-88.1309 1013.37,-89.8718 1022.62,-95.0281 1023.82,-88.1309"/>
</g>
</g>
</svg>
