<?xml version="1.0" encoding="UTF-8" standalone="no"?>
<!DOCTYPE svg PUBLIC "-//W3C//DTD SVG 1.1//EN"
 "http://www.w3.org/Graphics/SVG/1.1/DTD/svg11.dtd">
<!-- Generated by graphviz version 2.36.0 (20140111.2315)
 -->
<!-- Title: /home/travis/build/AliceO2Group/AliceO2/Common/Field/test/testMagneticField.cxx Pages: 1 -->
<svg width="1994pt" height="366pt"
 viewBox="0.00 0.00 1994.00 366.00" xmlns="http://www.w3.org/2000/svg" xmlns:xlink="http://www.w3.org/1999/xlink">
<g id="graph0" class="graph" transform="scale(1 1) rotate(0) translate(4 362)">
<title>/home/travis/build/AliceO2Group/AliceO2/Common/Field/test/testMagneticField.cxx</title>
<!-- Node1 -->
<g id="node1" class="node"><title>Node1</title>
<polygon fill="#bfbfbf" stroke="black" points="1398,-305 1398,-357 1560,-357 1560,-305 1398,-305"/>
<text text-anchor="start" x="1406" y="-345" font-family="Helvetica,sans-Serif" font-size="10.00">/home/travis/build</text>
<text text-anchor="start" x="1406" y="-334" font-family="Helvetica,sans-Serif" font-size="10.00">/AliceO2Group/AliceO2</text>
<text text-anchor="start" x="1406" y="-323" font-family="Helvetica,sans-Serif" font-size="10.00">/Common/Field/test/testMagnetic</text>
<text text-anchor="middle" x="1479" y="-312" font-family="Helvetica,sans-Serif" font-size="10.00">Field.cxx</text>
</g>
<!-- Node2 -->
<g id="node2" class="node"><title>Node2</title>
<polygon fill="none" stroke="#bfbfbf" points="623.5,-248.5 623.5,-267.5 742.5,-267.5 742.5,-248.5 623.5,-248.5"/>
<text text-anchor="middle" x="683" y="-255.5" font-family="Helvetica,sans-Serif" font-size="10.00">boost/test/unit_test.hpp</text>
</g>
<!-- Node1&#45;&gt;Node2 -->
<g id="edge1" class="edge"><title>Node1&#45;&gt;Node2</title>
<path fill="none" stroke="midnightblue" d="M1397.97,-323.982C1264.32,-313.843 989.286,-292.091 757,-268 755.697,-267.865 754.381,-267.726 753.055,-267.585"/>
<polygon fill="midnightblue" stroke="midnightblue" points="753.077,-264.066 742.754,-266.451 752.311,-271.024 753.077,-264.066"/>
</g>
<!-- Node3 -->
<g id="node3" class="node"><title>Node3</title>
<polygon fill="none" stroke="#bfbfbf" points="0,-74.5 0,-93.5 54,-93.5 54,-74.5 0,-74.5"/>
<text text-anchor="middle" x="27" y="-81.5" font-family="Helvetica,sans-Serif" font-size="10.00">iostream</text>
</g>
<!-- Node1&#45;&gt;Node3 -->
<g id="edge2" class="edge"><title>Node1&#45;&gt;Node3</title>
<path fill="none" stroke="midnightblue" d="M1397.72,-323.492C1178.6,-304.523 558.764,-241.436 63,-100 60.3447,-99.2425 57.6218,-98.3456 54.9203,-97.3731"/>
<polygon fill="midnightblue" stroke="midnightblue" points="55.9758,-94.0275 45.3883,-93.6329 53.4189,-100.544 55.9758,-94.0275"/>
</g>
<!-- Node4 -->
<g id="node4" class="node"><title>Node4</title>
<g id="a_node4"><a xlink:href="../../db/d4b/MagneticField_8h.html" target="_top" xlink:title="Definition of the MagF class. ">
<polygon fill="none" stroke="black" points="1383,-248.5 1383,-267.5 1493,-267.5 1493,-248.5 1383,-248.5"/>
<text text-anchor="middle" x="1438" y="-255.5" font-family="Helvetica,sans-Serif" font-size="10.00">Field/MagneticField.h</text>
</a>
</g>
</g>
<!-- Node1&#45;&gt;Node4 -->
<g id="edge3" class="edge"><title>Node1&#45;&gt;Node4</title>
<path fill="none" stroke="midnightblue" d="M1464.43,-304.768C1459.01,-295.385 1452.99,-284.955 1448.06,-276.425"/>
<polygon fill="midnightblue" stroke="midnightblue" points="1451.09,-274.667 1443.06,-267.757 1445.03,-278.167 1451.09,-274.667"/>
</g>
<!-- Node17 -->
<g id="node17" class="node"><title>Node17</title>
<g id="a_node17"><a xlink:href="../../da/df4/MagFieldFast_8h.html" target="_top" xlink:title="Definition of the fast magnetic field parametrization MagFieldFast. ">
<polygon fill="none" stroke="black" points="1143,-192.5 1143,-211.5 1251,-211.5 1251,-192.5 1143,-192.5"/>
<text text-anchor="middle" x="1197" y="-199.5" font-family="Helvetica,sans-Serif" font-size="10.00">Field/MagFieldFast.h</text>
</a>
</g>
</g>
<!-- Node1&#45;&gt;Node17 -->
<g id="edge43" class="edge"><title>Node1&#45;&gt;Node17</title>
<path fill="none" stroke="midnightblue" d="M1423.29,-304.909C1363.77,-278.105 1271.78,-236.676 1225.56,-215.862"/>
<polygon fill="midnightblue" stroke="midnightblue" points="1226.71,-212.543 1216.16,-211.628 1223.84,-218.926 1226.71,-212.543"/>
</g>
<!-- Node30 -->
<g id="node30" class="node"><title>Node30</title>
<polygon fill="none" stroke="#bfbfbf" points="1934,-192.5 1934,-211.5 1986,-211.5 1986,-192.5 1934,-192.5"/>
<text text-anchor="middle" x="1960" y="-199.5" font-family="Helvetica,sans-Serif" font-size="10.00">memory</text>
</g>
<!-- Node1&#45;&gt;Node30 -->
<g id="edge44" class="edge"><title>Node1&#45;&gt;Node30</title>
<path fill="none" stroke="midnightblue" d="M1490.9,-304.619C1501.28,-285.575 1518.24,-260.688 1541,-248 1613.12,-207.798 1824.59,-225.111 1923.67,-211.603"/>
<polygon fill="midnightblue" stroke="midnightblue" points="1924.4,-215.032 1933.75,-210.05 1923.33,-208.113 1924.4,-215.032"/>
</g>
<!-- Node31 -->
<g id="node31" class="node"><title>Node31</title>
<polygon fill="none" stroke="#bfbfbf" points="1549.5,-248.5 1549.5,-267.5 1620.5,-267.5 1620.5,-248.5 1549.5,-248.5"/>
<text text-anchor="middle" x="1585" y="-255.5" font-family="Helvetica,sans-Serif" font-size="10.00">FairLogger.h</text>
</g>
<!-- Node1&#45;&gt;Node31 -->
<g id="edge45" class="edge"><title>Node1&#45;&gt;Node31</title>
<path fill="none" stroke="midnightblue" d="M1516.37,-304.968C1532.16,-294.393 1549.98,-282.457 1563.5,-273.398"/>
<polygon fill="midnightblue" stroke="midnightblue" points="1565.74,-276.112 1572.1,-267.639 1561.85,-270.296 1565.74,-276.112"/>
</g>
<!-- Node32 -->
<g id="node32" class="node"><title>Node32</title>
<polygon fill="none" stroke="#bfbfbf" points="1638.5,-248.5 1638.5,-267.5 1715.5,-267.5 1715.5,-248.5 1638.5,-248.5"/>
<text text-anchor="middle" x="1677" y="-255.5" font-family="Helvetica,sans-Serif" font-size="10.00">TStopwatch.h</text>
</g>
<!-- Node1&#45;&gt;Node32 -->
<g id="edge46" class="edge"><title>Node1&#45;&gt;Node32</title>
<path fill="none" stroke="midnightblue" d="M1548.81,-304.968C1580.85,-293.478 1617.37,-280.381 1643.22,-271.114"/>
<polygon fill="midnightblue" stroke="midnightblue" points="1644.68,-274.309 1652.91,-267.639 1642.31,-267.72 1644.68,-274.309"/>
</g>
<!-- Node33 -->
<g id="node33" class="node"><title>Node33</title>
<polygon fill="none" stroke="#bfbfbf" points="1734,-248.5 1734,-267.5 1802,-267.5 1802,-248.5 1734,-248.5"/>
<text text-anchor="middle" x="1768" y="-255.5" font-family="Helvetica,sans-Serif" font-size="10.00">TRandom.h</text>
</g>
<!-- Node1&#45;&gt;Node33 -->
<g id="edge47" class="edge"><title>Node1&#45;&gt;Node33</title>
<path fill="none" stroke="midnightblue" d="M1560.27,-310.034C1613.29,-297.009 1680.44,-280.51 1723.81,-269.856"/>
<polygon fill="midnightblue" stroke="midnightblue" points="1724.88,-273.196 1733.76,-267.412 1723.21,-266.399 1724.88,-273.196"/>
</g>
<!-- Node5 -->
<g id="node5" class="node"><title>Node5</title>
<polygon fill="none" stroke="#bfbfbf" points="1854,-192.5 1854,-211.5 1916,-211.5 1916,-192.5 1854,-192.5"/>
<text text-anchor="middle" x="1885" y="-199.5" font-family="Helvetica,sans-Serif" font-size="10.00">FairField.h</text>
</g>
<!-- Node4&#45;&gt;Node5 -->
<g id="edge4" class="edge"><title>Node4&#45;&gt;Node5</title>
<path fill="none" stroke="midnightblue" d="M1493.35,-249.672C1497.96,-249.094 1502.56,-248.529 1507,-248 1654.81,-230.372 1692.87,-234.62 1840,-212 1841.1,-211.831 1842.22,-211.653 1843.34,-211.468"/>
<polygon fill="midnightblue" stroke="midnightblue" points="1844.36,-214.843 1853.59,-209.655 1843.14,-207.95 1844.36,-214.843"/>
</g>
<!-- Node6 -->
<g id="node6" class="node"><title>Node6</title>
<g id="a_node6"><a xlink:href="../../d3/d91/MagFieldParam_8h.html" target="_top" xlink:title="Definition of the MagFieldParam: container for ALICE mag. field parameters. ">
<polygon fill="none" stroke="black" points="1323.5,-192.5 1323.5,-211.5 1440.5,-211.5 1440.5,-192.5 1323.5,-192.5"/>
<text text-anchor="middle" x="1382" y="-199.5" font-family="Helvetica,sans-Serif" font-size="10.00">Field/MagFieldParam.h</text>
</a>
</g>
</g>
<!-- Node4&#45;&gt;Node6 -->
<g id="edge5" class="edge"><title>Node4&#45;&gt;Node6</title>
<path fill="none" stroke="midnightblue" d="M1429,-248.324C1420.81,-240.42 1408.49,-228.548 1398.53,-218.938"/>
<polygon fill="midnightblue" stroke="midnightblue" points="1400.79,-216.256 1391.16,-211.834 1395.93,-221.295 1400.79,-216.256"/>
</g>
<!-- Node9 -->
<g id="node9" class="node"><title>Node9</title>
<g id="a_node9"><a xlink:href="../../dd/dfb/MagneticWrapperChebyshev_8h.html" target="_top" xlink:title="Field/MagneticWrapperChebyshev.h">
<polygon fill="none" stroke="black" points="1596.5,-192.5 1596.5,-211.5 1771.5,-211.5 1771.5,-192.5 1596.5,-192.5"/>
<text text-anchor="middle" x="1684" y="-199.5" font-family="Helvetica,sans-Serif" font-size="10.00">Field/MagneticWrapperChebyshev.h</text>
</a>
</g>
</g>
<!-- Node4&#45;&gt;Node9 -->
<g id="edge8" class="edge"><title>Node4&#45;&gt;Node9</title>
<path fill="none" stroke="midnightblue" d="M1476.98,-248.444C1519.89,-239.023 1588.95,-223.866 1635.37,-213.675"/>
<polygon fill="midnightblue" stroke="midnightblue" points="1636.19,-217.079 1645.2,-211.516 1634.69,-210.242 1636.19,-217.079"/>
</g>
<!-- Node11 -->
<g id="node11" class="node"><title>Node11</title>
<polygon fill="none" stroke="#bfbfbf" points="1721,-6.5 1721,-25.5 1783,-25.5 1783,-6.5 1721,-6.5"/>
<text text-anchor="middle" x="1752" y="-13.5" font-family="Helvetica,sans-Serif" font-size="10.00">TNamed.h</text>
</g>
<!-- Node4&#45;&gt;Node11 -->
<g id="edge41" class="edge"><title>Node4&#45;&gt;Node11</title>
<path fill="none" stroke="midnightblue" d="M1493.18,-250.131C1589.25,-238.121 1777.32,-214.351 1780,-212 1829.15,-168.896 1836.94,-127.565 1810,-68 1803,-52.5149 1788.71,-39.8615 1776.07,-31.0318"/>
<polygon fill="midnightblue" stroke="midnightblue" points="1777.97,-28.095 1767.69,-25.542 1774.14,-33.9501 1777.97,-28.095"/>
</g>
<!-- Node16 -->
<g id="node16" class="node"><title>Node16</title>
<polygon fill="none" stroke="#bfbfbf" points="1277,-6.5 1277,-25.5 1333,-25.5 1333,-6.5 1277,-6.5"/>
<text text-anchor="middle" x="1305" y="-13.5" font-family="Helvetica,sans-Serif" font-size="10.00">Rtypes.h</text>
</g>
<!-- Node4&#45;&gt;Node16 -->
<g id="edge40" class="edge"><title>Node4&#45;&gt;Node16</title>
<path fill="none" stroke="midnightblue" d="M1382.88,-250.616C1358.08,-244.743 1330.86,-233.499 1315,-212 1275.79,-158.851 1290.47,-73.6456 1299.73,-35.969"/>
<polygon fill="midnightblue" stroke="midnightblue" points="1303.22,-36.4501 1302.36,-25.8902 1296.44,-34.6814 1303.22,-36.4501"/>
</g>
<!-- Node4&#45;&gt;Node17 -->
<g id="edge24" class="edge"><title>Node4&#45;&gt;Node17</title>
<path fill="none" stroke="midnightblue" d="M1399.81,-248.444C1357.86,-239.043 1290.41,-223.929 1244.93,-213.739"/>
<polygon fill="midnightblue" stroke="midnightblue" points="1245.53,-210.288 1235.01,-211.516 1244,-217.118 1245.53,-210.288"/>
</g>
<!-- Node29 -->
<g id="node29" class="node"><title>Node29</title>
<polygon fill="none" stroke="#bfbfbf" points="1458.5,-192.5 1458.5,-211.5 1523.5,-211.5 1523.5,-192.5 1458.5,-192.5"/>
<text text-anchor="middle" x="1491" y="-199.5" font-family="Helvetica,sans-Serif" font-size="10.00">TSystem.h</text>
</g>
<!-- Node4&#45;&gt;Node29 -->
<g id="edge39" class="edge"><title>Node4&#45;&gt;Node29</title>
<path fill="none" stroke="midnightblue" d="M1446.75,-248.083C1454.47,-240.22 1465.9,-228.569 1475.22,-219.081"/>
<polygon fill="midnightblue" stroke="midnightblue" points="1477.9,-221.34 1482.41,-211.751 1472.91,-216.436 1477.9,-221.34"/>
</g>
<!-- Node4&#45;&gt;Node30 -->
<g id="edge42" class="edge"><title>Node4&#45;&gt;Node30</title>
<path fill="none" stroke="midnightblue" d="M1493.34,-249.567C1497.96,-249.012 1502.56,-248.481 1507,-248 1688.69,-228.317 1738.77,-242.15 1923.7,-211.748"/>
<polygon fill="midnightblue" stroke="midnightblue" points="1924.47,-215.168 1933.76,-210.073 1923.32,-208.263 1924.47,-215.168"/>
</g>
<!-- Node7 -->
<g id="node7" class="node"><title>Node7</title>
<polygon fill="none" stroke="#bfbfbf" points="1345.5,-136.5 1345.5,-155.5 1450.5,-155.5 1450.5,-136.5 1345.5,-136.5"/>
<text text-anchor="middle" x="1398" y="-143.5" font-family="Helvetica,sans-Serif" font-size="10.00">FairParGenericSet.h</text>
</g>
<!-- Node6&#45;&gt;Node7 -->
<g id="edge6" class="edge"><title>Node6&#45;&gt;Node7</title>
<path fill="none" stroke="midnightblue" d="M1384.64,-192.083C1386.79,-184.849 1389.88,-174.409 1392.55,-165.397"/>
<polygon fill="midnightblue" stroke="midnightblue" points="1395.92,-166.333 1395.41,-155.751 1389.21,-164.345 1395.92,-166.333"/>
</g>
<!-- Node8 -->
<g id="node8" class="node"><title>Node8</title>
<polygon fill="none" stroke="#bfbfbf" points="1359,-74.5 1359,-93.5 1415,-93.5 1415,-74.5 1359,-74.5"/>
<text text-anchor="middle" x="1387" y="-81.5" font-family="Helvetica,sans-Serif" font-size="10.00">TString.h</text>
</g>
<!-- Node6&#45;&gt;Node8 -->
<g id="edge7" class="edge"><title>Node6&#45;&gt;Node8</title>
<path fill="none" stroke="midnightblue" d="M1368.89,-192.476C1352.56,-180.7 1327.87,-158.363 1337,-136 1342.9,-121.547 1355.09,-108.974 1365.96,-99.9285"/>
<polygon fill="midnightblue" stroke="midnightblue" points="1368.17,-102.645 1373.88,-93.7257 1363.85,-97.1331 1368.17,-102.645"/>
</g>
<!-- Node10 -->
<g id="node10" class="node"><title>Node10</title>
<polygon fill="none" stroke="#bfbfbf" points="1657.5,-136.5 1657.5,-155.5 1710.5,-155.5 1710.5,-136.5 1657.5,-136.5"/>
<text text-anchor="middle" x="1684" y="-143.5" font-family="Helvetica,sans-Serif" font-size="10.00">TMath.h</text>
</g>
<!-- Node9&#45;&gt;Node10 -->
<g id="edge9" class="edge"><title>Node9&#45;&gt;Node10</title>
<path fill="none" stroke="midnightblue" d="M1684,-192.083C1684,-185.006 1684,-174.861 1684,-165.986"/>
<polygon fill="midnightblue" stroke="midnightblue" points="1687.5,-165.751 1684,-155.751 1680.5,-165.751 1687.5,-165.751"/>
</g>
<!-- Node9&#45;&gt;Node11 -->
<g id="edge10" class="edge"><title>Node9&#45;&gt;Node11</title>
<path fill="none" stroke="midnightblue" d="M1709.84,-192.408C1728.31,-185.162 1752.68,-173.198 1769,-156 1787.89,-136.097 1789.08,-126.795 1795,-100 1798.07,-86.1123 1799.88,-81.3588 1795,-68 1790.03,-54.4023 1779.66,-41.9242 1770.35,-32.7144"/>
<polygon fill="midnightblue" stroke="midnightblue" points="1772.63,-30.0482 1762.92,-25.7939 1767.86,-35.1707 1772.63,-30.0482"/>
</g>
<!-- Node12 -->
<g id="node12" class="node"><title>Node12</title>
<polygon fill="none" stroke="#bfbfbf" points="1717.5,-74.5 1717.5,-93.5 1786.5,-93.5 1786.5,-74.5 1717.5,-74.5"/>
<text text-anchor="middle" x="1752" y="-81.5" font-family="Helvetica,sans-Serif" font-size="10.00">TObjArray.h</text>
</g>
<!-- Node9&#45;&gt;Node12 -->
<g id="edge11" class="edge"><title>Node9&#45;&gt;Node12</title>
<path fill="none" stroke="midnightblue" d="M1707.79,-192.499C1723.72,-185.413 1743.46,-173.605 1753,-156 1761.7,-139.934 1759.99,-118.671 1757.01,-103.615"/>
<polygon fill="midnightblue" stroke="midnightblue" points="1760.33,-102.434 1754.63,-93.5002 1753.51,-104.036 1760.33,-102.434"/>
</g>
<!-- Node13 -->
<g id="node13" class="node"><title>Node13</title>
<g id="a_node13"><a xlink:href="../../d8/d64/Chebyshev3D_8h.html" target="_top" xlink:title="MathUtils/Chebyshev3D.h">
<polygon fill="none" stroke="black" points="1507,-136.5 1507,-155.5 1639,-155.5 1639,-136.5 1507,-136.5"/>
<text text-anchor="middle" x="1573" y="-143.5" font-family="Helvetica,sans-Serif" font-size="10.00">MathUtils/Chebyshev3D.h</text>
</a>
</g>
</g>
<!-- Node9&#45;&gt;Node13 -->
<g id="edge12" class="edge"><title>Node9&#45;&gt;Node13</title>
<path fill="none" stroke="midnightblue" d="M1666.17,-192.324C1648.28,-183.625 1620.52,-170.12 1599.95,-160.113"/>
<polygon fill="midnightblue" stroke="midnightblue" points="1601.31,-156.882 1590.79,-155.655 1598.25,-163.177 1601.31,-156.882"/>
</g>
<!-- Node15 -->
<g id="node15" class="node"><title>Node15</title>
<g id="a_node15"><a xlink:href="../../d4/d08/Chebyshev3DCalc_8h.html" target="_top" xlink:title="MathUtils/Chebyshev3DCalc.h">
<polygon fill="none" stroke="black" points="1509,-74.5 1509,-93.5 1661,-93.5 1661,-74.5 1509,-74.5"/>
<text text-anchor="middle" x="1585" y="-81.5" font-family="Helvetica,sans-Serif" font-size="10.00">MathUtils/Chebyshev3DCalc.h</text>
</a>
</g>
</g>
<!-- Node9&#45;&gt;Node15 -->
<g id="edge22" class="edge"><title>Node9&#45;&gt;Node15</title>
<path fill="none" stroke="midnightblue" d="M1694.88,-192.237C1709.47,-179.413 1732.09,-154.994 1719,-136 1705.22,-116.006 1682.48,-103.844 1659.61,-96.4486"/>
<polygon fill="midnightblue" stroke="midnightblue" points="1660.41,-93.0353 1649.83,-93.5621 1658.43,-99.7492 1660.41,-93.0353"/>
</g>
<!-- Node9&#45;&gt;Node16 -->
<g id="edge23" class="edge"><title>Node9&#45;&gt;Node16</title>
<path fill="none" stroke="midnightblue" d="M1635.28,-192.493C1597.2,-185.066 1543.32,-172.83 1498,-156 1479.74,-149.218 1476.97,-143.522 1459,-136 1411.94,-116.301 1389.14,-132.73 1350,-100 1329.61,-82.9468 1316.99,-54.1914 1310.49,-35.4036"/>
<polygon fill="midnightblue" stroke="midnightblue" points="1313.74,-34.103 1307.35,-25.6572 1307.08,-36.2487 1313.74,-34.103"/>
</g>
<!-- Node13&#45;&gt;Node8 -->
<g id="edge21" class="edge"><title>Node13&#45;&gt;Node8</title>
<path fill="none" stroke="midnightblue" d="M1544.48,-136.455C1515.35,-127.642 1468.87,-113.342 1429,-100 1426.08,-99.024 1423.06,-97.9898 1420.04,-96.9389"/>
<polygon fill="midnightblue" stroke="midnightblue" points="1421.08,-93.5971 1410.49,-93.5763 1418.76,-100.2 1421.08,-93.5971"/>
</g>
<!-- Node13&#45;&gt;Node11 -->
<g id="edge13" class="edge"><title>Node13&#45;&gt;Node11</title>
<path fill="none" stroke="midnightblue" d="M1597.4,-136.483C1617.83,-128.715 1647.22,-116.019 1670,-100 1697.34,-80.7736 1723.5,-51.8514 1738.65,-33.7188"/>
<polygon fill="midnightblue" stroke="midnightblue" points="1741.52,-35.7281 1745.15,-25.7739 1736.11,-31.2929 1741.52,-35.7281"/>
</g>
<!-- Node13&#45;&gt;Node12 -->
<g id="edge14" class="edge"><title>Node13&#45;&gt;Node12</title>
<path fill="none" stroke="midnightblue" d="M1598.65,-136.403C1629.62,-126.022 1681.87,-108.506 1716.65,-96.849"/>
<polygon fill="midnightblue" stroke="midnightblue" points="1718.03,-100.077 1726.4,-93.5806 1715.81,-93.4403 1718.03,-100.077"/>
</g>
<!-- Node14 -->
<g id="node14" class="node"><title>Node14</title>
<polygon fill="none" stroke="#bfbfbf" points="1511.5,-6.5 1511.5,-25.5 1554.5,-25.5 1554.5,-6.5 1511.5,-6.5"/>
<text text-anchor="middle" x="1533" y="-13.5" font-family="Helvetica,sans-Serif" font-size="10.00">cstdio</text>
</g>
<!-- Node13&#45;&gt;Node14 -->
<g id="edge15" class="edge"><title>Node13&#45;&gt;Node14</title>
<path fill="none" stroke="midnightblue" d="M1546.79,-136.414C1530.15,-129.445 1509.94,-117.809 1500,-100 1487.77,-78.0932 1504.18,-50.7232 1517.91,-33.5464"/>
<polygon fill="midnightblue" stroke="midnightblue" points="1520.88,-35.463 1524.69,-25.5761 1515.54,-30.9305 1520.88,-35.463"/>
</g>
<!-- Node13&#45;&gt;Node15 -->
<g id="edge16" class="edge"><title>Node13&#45;&gt;Node15</title>
<path fill="none" stroke="midnightblue" d="M1574.72,-136.403C1576.43,-127.849 1579.11,-114.45 1581.3,-103.476"/>
<polygon fill="midnightblue" stroke="midnightblue" points="1584.75,-104.073 1583.28,-93.5806 1577.89,-102.7 1584.75,-104.073"/>
</g>
<!-- Node13&#45;&gt;Node16 -->
<g id="edge20" class="edge"><title>Node13&#45;&gt;Node16</title>
<path fill="none" stroke="midnightblue" d="M1556.97,-136.327C1529.72,-121.684 1472.5,-91.3705 1423,-68 1393.56,-54.0984 1359.35,-39.4772 1335.37,-29.472"/>
<polygon fill="midnightblue" stroke="midnightblue" points="1336.65,-26.2171 1326.08,-25.6134 1333.97,-32.6816 1336.65,-26.2171"/>
</g>
<!-- Node15&#45;&gt;Node11 -->
<g id="edge17" class="edge"><title>Node15&#45;&gt;Node11</title>
<path fill="none" stroke="midnightblue" d="M1606.83,-74.3717C1635.92,-62.877 1687.56,-42.4687 1720.76,-29.3465"/>
<polygon fill="midnightblue" stroke="midnightblue" points="1722.41,-32.4564 1730.43,-25.5259 1719.84,-25.9464 1722.41,-32.4564"/>
</g>
<!-- Node15&#45;&gt;Node14 -->
<g id="edge18" class="edge"><title>Node15&#45;&gt;Node14</title>
<path fill="none" stroke="midnightblue" d="M1578.2,-74.3717C1570.15,-64.1512 1556.54,-46.884 1546.36,-33.9571"/>
<polygon fill="midnightblue" stroke="midnightblue" points="1548.9,-31.53 1539.97,-25.8411 1543.41,-35.8621 1548.9,-31.53"/>
</g>
<!-- Node15&#45;&gt;Node16 -->
<g id="edge19" class="edge"><title>Node15&#45;&gt;Node16</title>
<path fill="none" stroke="midnightblue" d="M1548.68,-74.4393C1495.58,-61.9223 1397.2,-38.7328 1343.1,-25.9815"/>
<polygon fill="midnightblue" stroke="midnightblue" points="1343.76,-22.5394 1333.22,-23.6517 1342.15,-29.3527 1343.76,-22.5394"/>
</g>
<!-- Node17&#45;&gt;Node16 -->
<g id="edge25" class="edge"><title>Node17&#45;&gt;Node16</title>
<path fill="none" stroke="midnightblue" d="M1200.75,-192.284C1210.24,-170.564 1236.5,-112.572 1265,-68 1272.78,-55.828 1282.82,-43.0372 1290.89,-33.3099"/>
<polygon fill="midnightblue" stroke="midnightblue" points="1293.59,-35.5389 1297.38,-25.6428 1288.25,-31.0192 1293.59,-35.5389"/>
</g>
<!-- Node18 -->
<g id="node18" class="node"><title>Node18</title>
<polygon fill="none" stroke="#bfbfbf" points="799.5,-136.5 799.5,-155.5 840.5,-155.5 840.5,-136.5 799.5,-136.5"/>
<text text-anchor="middle" x="820" y="-143.5" font-family="Helvetica,sans-Serif" font-size="10.00">string</text>
</g>
<!-- Node17&#45;&gt;Node18 -->
<g id="edge26" class="edge"><title>Node17&#45;&gt;Node18</title>
<path fill="none" stroke="midnightblue" d="M1142.74,-196.713C1076.07,-190.836 959.421,-178.58 850.392,-155.739"/>
<polygon fill="midnightblue" stroke="midnightblue" points="851.052,-152.302 840.543,-153.642 849.595,-159.148 851.052,-152.302"/>
</g>
<!-- Node19 -->
<g id="node19" class="node"><title>Node19</title>
<g id="a_node19"><a xlink:href="../../dd/d76/Cartesian3D_8h.html" target="_top" xlink:title="MathUtils/Cartesian3D.h">
<polygon fill="none" stroke="black" points="858.5,-136.5 858.5,-155.5 983.5,-155.5 983.5,-136.5 858.5,-136.5"/>
<text text-anchor="middle" x="921" y="-143.5" font-family="Helvetica,sans-Serif" font-size="10.00">MathUtils/Cartesian3D.h</text>
</a>
</g>
</g>
<!-- Node17&#45;&gt;Node19 -->
<g id="edge27" class="edge"><title>Node17&#45;&gt;Node19</title>
<path fill="none" stroke="midnightblue" d="M1153.27,-192.444C1104.82,-182.964 1026.67,-167.675 974.582,-157.483"/>
<polygon fill="midnightblue" stroke="midnightblue" points="975.014,-154.002 964.528,-155.516 973.67,-160.871 975.014,-154.002"/>
</g>
<!-- Node19&#45;&gt;Node3 -->
<g id="edge35" class="edge"><title>Node19&#45;&gt;Node3</title>
<path fill="none" stroke="midnightblue" d="M858.202,-136.855C855.093,-136.545 852.012,-136.257 849,-136 674.782,-121.145 233.625,-138.205 63,-100 59.9276,-99.3121 56.7837,-98.3791 53.6954,-97.3129"/>
<polygon fill="midnightblue" stroke="midnightblue" points="54.7642,-93.9728 44.1762,-93.5895 52.2142,-100.492 54.7642,-93.9728"/>
</g>
<!-- Node19&#45;&gt;Node16 -->
<g id="edge33" class="edge"><title>Node19&#45;&gt;Node16</title>
<path fill="none" stroke="midnightblue" d="M983.632,-142.498C1038.43,-138.421 1119.17,-127.764 1184,-100 1205.9,-90.6219 1207.47,-81.6358 1227,-68 1245.52,-55.0715 1267.04,-41.0773 1282.77,-31.0243"/>
<polygon fill="midnightblue" stroke="midnightblue" points="1284.75,-33.9182 1291.31,-25.5985 1280.99,-28.0115 1284.75,-33.9182"/>
</g>
<!-- Node20 -->
<g id="node20" class="node"><title>Node20</title>
<polygon fill="none" stroke="#bfbfbf" points="72.5,-69 72.5,-99 223.5,-99 223.5,-69 72.5,-69"/>
<text text-anchor="start" x="80.5" y="-87" font-family="Helvetica,sans-Serif" font-size="10.00">Math/GenVector/Displacement</text>
<text text-anchor="middle" x="148" y="-76" font-family="Helvetica,sans-Serif" font-size="10.00">Vector3D.h</text>
</g>
<!-- Node19&#45;&gt;Node20 -->
<g id="edge28" class="edge"><title>Node19&#45;&gt;Node20</title>
<path fill="none" stroke="midnightblue" d="M858.198,-136.902C855.09,-136.579 852.011,-136.276 849,-136 579.233,-111.284 507.137,-131.38 234.149,-100.037"/>
<polygon fill="midnightblue" stroke="midnightblue" points="234.272,-96.528 223.935,-98.8513 233.465,-103.481 234.272,-96.528"/>
</g>
<!-- Node21 -->
<g id="node21" class="node"><title>Node21</title>
<polygon fill="none" stroke="#bfbfbf" points="242,-74.5 242,-93.5 418,-93.5 418,-74.5 242,-74.5"/>
<text text-anchor="middle" x="330" y="-81.5" font-family="Helvetica,sans-Serif" font-size="10.00">Math/GenVector/PositionVector3D.h</text>
</g>
<!-- Node19&#45;&gt;Node21 -->
<g id="edge29" class="edge"><title>Node19&#45;&gt;Node21</title>
<path fill="none" stroke="midnightblue" d="M858.188,-137C855.083,-136.651 852.007,-136.316 849,-136 661.352,-116.295 613.324,-122.578 426,-100 414.472,-98.6105 402.202,-96.8837 390.423,-95.1015"/>
<polygon fill="midnightblue" stroke="midnightblue" points="390.646,-91.5946 380.23,-93.5281 389.579,-98.5127 390.646,-91.5946"/>
</g>
<!-- Node22 -->
<g id="node22" class="node"><title>Node22</title>
<polygon fill="none" stroke="#bfbfbf" points="435.5,-74.5 435.5,-93.5 584.5,-93.5 584.5,-74.5 435.5,-74.5"/>
<text text-anchor="middle" x="510" y="-81.5" font-family="Helvetica,sans-Serif" font-size="10.00">Math/GenVector/Rotation3D.h</text>
</g>
<!-- Node19&#45;&gt;Node22 -->
<g id="edge30" class="edge"><title>Node19&#45;&gt;Node22</title>
<path fill="none" stroke="midnightblue" d="M858.202,-137.115C792.288,-128.662 685.698,-114.491 594,-100 584.866,-98.5566 575.192,-96.9253 565.785,-95.2835"/>
<polygon fill="midnightblue" stroke="midnightblue" points="566.176,-91.7984 555.72,-93.5062 564.959,-98.6918 566.176,-91.7984"/>
</g>
<!-- Node23 -->
<g id="node23" class="node"><title>Node23</title>
<polygon fill="none" stroke="#bfbfbf" points="603,-74.5 603,-93.5 759,-93.5 759,-74.5 603,-74.5"/>
<text text-anchor="middle" x="681" y="-81.5" font-family="Helvetica,sans-Serif" font-size="10.00">Math/GenVector/Transform3D.h</text>
</g>
<!-- Node19&#45;&gt;Node23 -->
<g id="edge31" class="edge"><title>Node19&#45;&gt;Node23</title>
<path fill="none" stroke="midnightblue" d="M886.869,-136.467C844.309,-125.827 771.486,-107.622 724.837,-95.9593"/>
<polygon fill="midnightblue" stroke="midnightblue" points="725.564,-92.5333 715.014,-93.5034 723.866,-99.3243 725.564,-92.5333"/>
</g>
<!-- Node24 -->
<g id="node24" class="node"><title>Node24</title>
<polygon fill="none" stroke="#bfbfbf" points="921,-74.5 921,-93.5 1081,-93.5 1081,-74.5 921,-74.5"/>
<text text-anchor="middle" x="1001" y="-81.5" font-family="Helvetica,sans-Serif" font-size="10.00">Math/GenVector/Translation3D.h</text>
</g>
<!-- Node19&#45;&gt;Node24 -->
<g id="edge32" class="edge"><title>Node19&#45;&gt;Node24</title>
<path fill="none" stroke="midnightblue" d="M932.462,-136.403C945.175,-126.869 965.913,-111.315 981.253,-99.8106"/>
<polygon fill="midnightblue" stroke="midnightblue" points="983.659,-102.381 989.559,-93.5806 979.459,-96.7806 983.659,-102.381"/>
</g>
<!-- Node25 -->
<g id="node25" class="node"><title>Node25</title>
<polygon fill="none" stroke="#bfbfbf" points="1099,-74.5 1099,-93.5 1175,-93.5 1175,-74.5 1099,-74.5"/>
<text text-anchor="middle" x="1137" y="-81.5" font-family="Helvetica,sans-Serif" font-size="10.00">TGeoMatrix.h</text>
</g>
<!-- Node19&#45;&gt;Node25 -->
<g id="edge34" class="edge"><title>Node19&#45;&gt;Node25</title>
<path fill="none" stroke="midnightblue" d="M955.124,-136.434C989.354,-127.719 1043.52,-113.597 1090,-100 1093.58,-98.9524 1097.3,-97.827 1101.02,-96.6806"/>
<polygon fill="midnightblue" stroke="midnightblue" points="1102.23,-99.9697 1110.72,-93.636 1100.13,-93.2908 1102.23,-99.9697"/>
</g>
<!-- Node26 -->
<g id="node26" class="node"><title>Node26</title>
<g id="a_node26"><a xlink:href="../../d2/dd0/Cartesian2D_8h.html" target="_top" xlink:title="MathUtils/Cartesian2D.h">
<polygon fill="none" stroke="black" points="777.5,-74.5 777.5,-93.5 902.5,-93.5 902.5,-74.5 777.5,-74.5"/>
<text text-anchor="middle" x="840" y="-81.5" font-family="Helvetica,sans-Serif" font-size="10.00">MathUtils/Cartesian2D.h</text>
</a>
</g>
</g>
<!-- Node19&#45;&gt;Node26 -->
<g id="edge36" class="edge"><title>Node19&#45;&gt;Node26</title>
<path fill="none" stroke="midnightblue" d="M909.395,-136.403C896.523,-126.869 875.526,-111.315 859.994,-99.8106"/>
<polygon fill="midnightblue" stroke="midnightblue" points="861.703,-96.7204 851.584,-93.5806 857.536,-102.345 861.703,-96.7204"/>
</g>
<!-- Node27 -->
<g id="node27" class="node"><title>Node27</title>
<polygon fill="none" stroke="#bfbfbf" points="673.5,-1 673.5,-31 824.5,-31 824.5,-1 673.5,-1"/>
<text text-anchor="start" x="681.5" y="-19" font-family="Helvetica,sans-Serif" font-size="10.00">Math/GenVector/Displacement</text>
<text text-anchor="middle" x="749" y="-8" font-family="Helvetica,sans-Serif" font-size="10.00">Vector2D.h</text>
</g>
<!-- Node26&#45;&gt;Node27 -->
<g id="edge37" class="edge"><title>Node26&#45;&gt;Node27</title>
<path fill="none" stroke="midnightblue" d="M828.103,-74.3717C815.221,-65.0286 794.22,-49.7966 777.093,-37.375"/>
<polygon fill="midnightblue" stroke="midnightblue" points="778.703,-34.2194 768.553,-31.1815 774.593,-39.8859 778.703,-34.2194"/>
</g>
<!-- Node28 -->
<g id="node28" class="node"><title>Node28</title>
<polygon fill="none" stroke="#bfbfbf" points="843,-6.5 843,-25.5 1019,-25.5 1019,-6.5 843,-6.5"/>
<text text-anchor="middle" x="931" y="-13.5" font-family="Helvetica,sans-Serif" font-size="10.00">Math/GenVector/PositionVector2D.h</text>
</g>
<!-- Node26&#45;&gt;Node28 -->
<g id="edge38" class="edge"><title>Node26&#45;&gt;Node28</title>
<path fill="none" stroke="midnightblue" d="M851.897,-74.3717C866.884,-63.5015 892.862,-44.6602 910.942,-31.5474"/>
<polygon fill="midnightblue" stroke="midnightblue" points="913.06,-34.3349 919.1,-25.6305 908.95,-28.6684 913.06,-34.3349"/>
</g>
</g>
</svg>
