<?xml version="1.0" encoding="UTF-8" standalone="no"?>
<!DOCTYPE svg PUBLIC "-//W3C//DTD SVG 1.1//EN"
 "http://www.w3.org/Graphics/SVG/1.1/DTD/svg11.dtd">
<!-- Generated by graphviz version 2.36.0 (20140111.2315)
 -->
<!-- Title: /home/travis/build/AliceO2Group/AliceO2/Detectors/ITSMFT/MFT/base/include/MFTBase/Constants.h Pages: 1 -->
<svg width="1794pt" height="152pt"
 viewBox="0.00 0.00 1794.00 152.00" xmlns="http://www.w3.org/2000/svg" xmlns:xlink="http://www.w3.org/1999/xlink">
<g id="graph0" class="graph" transform="scale(1 1) rotate(0) translate(4 148)">
<title>/home/travis/build/AliceO2Group/AliceO2/Detectors/ITSMFT/MFT/base/include/MFTBase/Constants.h</title>
<!-- Node1 -->
<g id="node1" class="node"><title>Node1</title>
<polygon fill="#bfbfbf" stroke="black" points="785,-91 785,-143 961,-143 961,-91 785,-91"/>
<text text-anchor="start" x="793" y="-131" font-family="Helvetica,sans-Serif" font-size="10.00">/home/travis/build</text>
<text text-anchor="start" x="793" y="-120" font-family="Helvetica,sans-Serif" font-size="10.00">/AliceO2Group/AliceO2</text>
<text text-anchor="start" x="793" y="-109" font-family="Helvetica,sans-Serif" font-size="10.00">/Detectors/ITSMFT/MFT</text>
<text text-anchor="middle" x="873" y="-98" font-family="Helvetica,sans-Serif" font-size="10.00">/base/include/MFTBase/Constants.h</text>
</g>
<!-- Node2 -->
<g id="node2" class="node"><title>Node2</title>
<g id="a_node2"><a xlink:href="../../d6/dce/ITSMFT_2MFT_2base_2src_2Constants_8cxx.html" target="_top" xlink:title="/home/travis/build\l/AliceO2Group/AliceO2\l/Detectors/ITSMFT/MFT\l/base/src/Constants.cxx">
<polygon fill="none" stroke="black" points="-0.5,-1 -0.5,-53 124.5,-53 124.5,-1 -0.5,-1"/>
<text text-anchor="start" x="7.5" y="-41" font-family="Helvetica,sans-Serif" font-size="10.00">/home/travis/build</text>
<text text-anchor="start" x="7.5" y="-30" font-family="Helvetica,sans-Serif" font-size="10.00">/AliceO2Group/AliceO2</text>
<text text-anchor="start" x="7.5" y="-19" font-family="Helvetica,sans-Serif" font-size="10.00">/Detectors/ITSMFT/MFT</text>
<text text-anchor="middle" x="62" y="-8" font-family="Helvetica,sans-Serif" font-size="10.00">/base/src/Constants.cxx</text>
</a>
</g>
</g>
<!-- Node1&#45;&gt;Node2 -->
<g id="edge1" class="edge"><title>Node1&#45;&gt;Node2</title>
<path fill="none" stroke="midnightblue" d="M774.653,-116.064C631.697,-114.295 358.902,-103.878 133,-54 130.308,-53.4057 127.58,-52.7339 124.84,-52.0013"/>
<polygon fill="midnightblue" stroke="midnightblue" points="774.68,-119.565 784.719,-116.177 774.759,-112.565 774.68,-119.565"/>
</g>
<!-- Node3 -->
<g id="node3" class="node"><title>Node3</title>
<g id="a_node3"><a xlink:href="../../d7/d93/Flex_8cxx.html" target="_top" xlink:title="Flex class for ALICE MFT upgrade. ">
<polygon fill="none" stroke="black" points="142.5,-1 142.5,-53 267.5,-53 267.5,-1 142.5,-1"/>
<text text-anchor="start" x="150.5" y="-41" font-family="Helvetica,sans-Serif" font-size="10.00">/home/travis/build</text>
<text text-anchor="start" x="150.5" y="-30" font-family="Helvetica,sans-Serif" font-size="10.00">/AliceO2Group/AliceO2</text>
<text text-anchor="start" x="150.5" y="-19" font-family="Helvetica,sans-Serif" font-size="10.00">/Detectors/ITSMFT/MFT</text>
<text text-anchor="middle" x="205" y="-8" font-family="Helvetica,sans-Serif" font-size="10.00">/base/src/Flex.cxx</text>
</a>
</g>
</g>
<!-- Node1&#45;&gt;Node3 -->
<g id="edge2" class="edge"><title>Node1&#45;&gt;Node3</title>
<path fill="none" stroke="midnightblue" d="M774.671,-113.227C655.331,-108.164 448.635,-93.9221 276,-54 273.314,-53.3789 270.591,-52.6848 267.855,-51.9337"/>
<polygon fill="midnightblue" stroke="midnightblue" points="774.744,-116.733 784.88,-113.646 775.032,-109.739 774.744,-116.733"/>
</g>
<!-- Node4 -->
<g id="node4" class="node"><title>Node4</title>
<g id="a_node4"><a xlink:href="../../de/d37/ITSMFT_2MFT_2base_2src_2Geometry_8cxx.html" target="_top" xlink:title="/home/travis/build\l/AliceO2Group/AliceO2\l/Detectors/ITSMFT/MFT\l/base/src/Geometry.cxx">
<polygon fill="none" stroke="black" points="285.5,-1 285.5,-53 410.5,-53 410.5,-1 285.5,-1"/>
<text text-anchor="start" x="293.5" y="-41" font-family="Helvetica,sans-Serif" font-size="10.00">/home/travis/build</text>
<text text-anchor="start" x="293.5" y="-30" font-family="Helvetica,sans-Serif" font-size="10.00">/AliceO2Group/AliceO2</text>
<text text-anchor="start" x="293.5" y="-19" font-family="Helvetica,sans-Serif" font-size="10.00">/Detectors/ITSMFT/MFT</text>
<text text-anchor="middle" x="348" y="-8" font-family="Helvetica,sans-Serif" font-size="10.00">/base/src/Geometry.cxx</text>
</a>
</g>
</g>
<!-- Node1&#45;&gt;Node4 -->
<g id="edge3" class="edge"><title>Node1&#45;&gt;Node4</title>
<path fill="none" stroke="midnightblue" d="M774.51,-108.539C681.985,-100.119 540.171,-83.571 420,-54 416.903,-53.2379 413.753,-52.3901 410.589,-51.4795"/>
<polygon fill="midnightblue" stroke="midnightblue" points="774.432,-112.046 784.704,-109.452 775.056,-105.074 774.432,-112.046"/>
</g>
<!-- Node5 -->
<g id="node5" class="node"><title>Node5</title>
<g id="a_node5"><a xlink:href="../../df/d83/GeometryBuilder_8cxx.html" target="_top" xlink:title="Class describing MFT Geometry Builder. ">
<polygon fill="none" stroke="black" points="429,-1 429,-53 581,-53 581,-1 429,-1"/>
<text text-anchor="start" x="437" y="-41" font-family="Helvetica,sans-Serif" font-size="10.00">/home/travis/build</text>
<text text-anchor="start" x="437" y="-30" font-family="Helvetica,sans-Serif" font-size="10.00">/AliceO2Group/AliceO2</text>
<text text-anchor="start" x="437" y="-19" font-family="Helvetica,sans-Serif" font-size="10.00">/Detectors/ITSMFT/MFT</text>
<text text-anchor="middle" x="505" y="-8" font-family="Helvetica,sans-Serif" font-size="10.00">/base/src/GeometryBuilder.cxx</text>
</a>
</g>
</g>
<!-- Node1&#45;&gt;Node5 -->
<g id="edge4" class="edge"><title>Node1&#45;&gt;Node5</title>
<path fill="none" stroke="midnightblue" d="M774.882,-96.5491C720.204,-85.1984 651.034,-69.992 590,-54 587.164,-53.2568 584.28,-52.4808 581.372,-51.6808"/>
<polygon fill="midnightblue" stroke="midnightblue" points="774.417,-100.027 784.918,-98.623 775.833,-93.1716 774.417,-100.027"/>
</g>
<!-- Node6 -->
<g id="node6" class="node"><title>Node6</title>
<g id="a_node6"><a xlink:href="../../d1/d8f/HalfDiskSegmentation_8cxx.html" target="_top" xlink:title="Class for the description of the structure of a half&#45;disk. ">
<polygon fill="none" stroke="black" points="599.5,-1 599.5,-53 776.5,-53 776.5,-1 599.5,-1"/>
<text text-anchor="start" x="607.5" y="-41" font-family="Helvetica,sans-Serif" font-size="10.00">/home/travis/build</text>
<text text-anchor="start" x="607.5" y="-30" font-family="Helvetica,sans-Serif" font-size="10.00">/AliceO2Group/AliceO2</text>
<text text-anchor="start" x="607.5" y="-19" font-family="Helvetica,sans-Serif" font-size="10.00">/Detectors/ITSMFT/MFT</text>
<text text-anchor="middle" x="688" y="-8" font-family="Helvetica,sans-Serif" font-size="10.00">/base/src/HalfDiskSegmentation.cxx</text>
</a>
</g>
</g>
<!-- Node1&#45;&gt;Node6 -->
<g id="edge5" class="edge"><title>Node1&#45;&gt;Node6</title>
<path fill="none" stroke="midnightblue" d="M810.759,-86.3935C788.017,-75.5755 762.532,-63.453 740.701,-53.0687"/>
<polygon fill="midnightblue" stroke="midnightblue" points="809.453,-89.6478 819.986,-90.7827 812.459,-83.3265 809.453,-89.6478"/>
</g>
<!-- Node7 -->
<g id="node7" class="node"><title>Node7</title>
<g id="a_node7"><a xlink:href="../../d1/d7f/HalfSegmentation_8cxx.html" target="_top" xlink:title="Segmentation class for each half of the ALICE Muon Forward Tracker. ">
<polygon fill="none" stroke="black" points="794.5,-1 794.5,-53 951.5,-53 951.5,-1 794.5,-1"/>
<text text-anchor="start" x="802.5" y="-41" font-family="Helvetica,sans-Serif" font-size="10.00">/home/travis/build</text>
<text text-anchor="start" x="802.5" y="-30" font-family="Helvetica,sans-Serif" font-size="10.00">/AliceO2Group/AliceO2</text>
<text text-anchor="start" x="802.5" y="-19" font-family="Helvetica,sans-Serif" font-size="10.00">/Detectors/ITSMFT/MFT</text>
<text text-anchor="middle" x="873" y="-8" font-family="Helvetica,sans-Serif" font-size="10.00">/base/src/HalfSegmentation.cxx</text>
</a>
</g>
</g>
<!-- Node1&#45;&gt;Node7 -->
<g id="edge6" class="edge"><title>Node1&#45;&gt;Node7</title>
<path fill="none" stroke="midnightblue" d="M873,-80.4892C873,-71.3088 873,-61.616 873,-53.0921"/>
<polygon fill="midnightblue" stroke="midnightblue" points="869.5,-80.5467 873,-90.5468 876.5,-80.5468 869.5,-80.5467"/>
</g>
<!-- Node8 -->
<g id="node8" class="node"><title>Node8</title>
<g id="a_node8"><a xlink:href="../../de/d02/HeatExchanger_8cxx.html" target="_top" xlink:title="Class building the MFT heat exchanger. ">
<polygon fill="none" stroke="black" points="970,-1 970,-53 1116,-53 1116,-1 970,-1"/>
<text text-anchor="start" x="978" y="-41" font-family="Helvetica,sans-Serif" font-size="10.00">/home/travis/build</text>
<text text-anchor="start" x="978" y="-30" font-family="Helvetica,sans-Serif" font-size="10.00">/AliceO2Group/AliceO2</text>
<text text-anchor="start" x="978" y="-19" font-family="Helvetica,sans-Serif" font-size="10.00">/Detectors/ITSMFT/MFT</text>
<text text-anchor="middle" x="1043" y="-8" font-family="Helvetica,sans-Serif" font-size="10.00">/base/src/HeatExchanger.cxx</text>
</a>
</g>
</g>
<!-- Node1&#45;&gt;Node8 -->
<g id="edge7" class="edge"><title>Node1&#45;&gt;Node8</title>
<path fill="none" stroke="midnightblue" d="M930.752,-86.1047C951.509,-75.3602 974.69,-63.3607 994.572,-53.0687"/>
<polygon fill="midnightblue" stroke="midnightblue" points="928.987,-83.0774 921.715,-90.7827 932.205,-89.2939 928.987,-83.0774"/>
</g>
<!-- Node9 -->
<g id="node9" class="node"><title>Node9</title>
<g id="a_node9"><a xlink:href="../../dc/d80/Ladder_8cxx.html" target="_top" xlink:title="Ladder builder. ">
<polygon fill="none" stroke="black" points="1134.5,-1 1134.5,-53 1259.5,-53 1259.5,-1 1134.5,-1"/>
<text text-anchor="start" x="1142.5" y="-41" font-family="Helvetica,sans-Serif" font-size="10.00">/home/travis/build</text>
<text text-anchor="start" x="1142.5" y="-30" font-family="Helvetica,sans-Serif" font-size="10.00">/AliceO2Group/AliceO2</text>
<text text-anchor="start" x="1142.5" y="-19" font-family="Helvetica,sans-Serif" font-size="10.00">/Detectors/ITSMFT/MFT</text>
<text text-anchor="middle" x="1197" y="-8" font-family="Helvetica,sans-Serif" font-size="10.00">/base/src/Ladder.cxx</text>
</a>
</g>
</g>
<!-- Node1&#45;&gt;Node9 -->
<g id="edge8" class="edge"><title>Node1&#45;&gt;Node9</title>
<path fill="none" stroke="midnightblue" d="M970.941,-94.4345C1017.87,-83.4594 1074.68,-69.2308 1125,-54 1128.05,-53.076 1131.17,-52.0968 1134.3,-51.0808"/>
<polygon fill="midnightblue" stroke="midnightblue" points="970.031,-91.0525 961.084,-96.7262 971.617,-97.8707 970.031,-91.0525"/>
</g>
<!-- Node10 -->
<g id="node10" class="node"><title>Node10</title>
<g id="a_node10"><a xlink:href="../../d6/dc0/LadderSegmentation_8cxx.html" target="_top" xlink:title="Description of the virtual segmentation of a ladder. ">
<polygon fill="none" stroke="black" points="1277,-1 1277,-53 1445,-53 1445,-1 1277,-1"/>
<text text-anchor="start" x="1285" y="-41" font-family="Helvetica,sans-Serif" font-size="10.00">/home/travis/build</text>
<text text-anchor="start" x="1285" y="-30" font-family="Helvetica,sans-Serif" font-size="10.00">/AliceO2Group/AliceO2</text>
<text text-anchor="start" x="1285" y="-19" font-family="Helvetica,sans-Serif" font-size="10.00">/Detectors/ITSMFT/MFT</text>
<text text-anchor="middle" x="1361" y="-8" font-family="Helvetica,sans-Serif" font-size="10.00">/base/src/LadderSegmentation.cxx</text>
</a>
</g>
</g>
<!-- Node1&#45;&gt;Node10 -->
<g id="edge9" class="edge"><title>Node1&#45;&gt;Node10</title>
<path fill="none" stroke="midnightblue" d="M971.111,-103.847C1051.4,-93.126 1167.66,-75.8218 1268,-54 1270.95,-53.3587 1273.94,-52.679 1276.96,-51.9696"/>
<polygon fill="midnightblue" stroke="midnightblue" points="970.464,-100.402 961.011,-105.187 971.385,-107.342 970.464,-100.402"/>
</g>
<!-- Node11 -->
<g id="node11" class="node"><title>Node11</title>
<g id="a_node11"><a xlink:href="../../df/de3/Support_8cxx.html" target="_top" xlink:title="Class describing geometry of one MFT half&#45;disk support + PCBs. ">
<polygon fill="none" stroke="black" points="1462.5,-1 1462.5,-53 1587.5,-53 1587.5,-1 1462.5,-1"/>
<text text-anchor="start" x="1470.5" y="-41" font-family="Helvetica,sans-Serif" font-size="10.00">/home/travis/build</text>
<text text-anchor="start" x="1470.5" y="-30" font-family="Helvetica,sans-Serif" font-size="10.00">/AliceO2Group/AliceO2</text>
<text text-anchor="start" x="1470.5" y="-19" font-family="Helvetica,sans-Serif" font-size="10.00">/Detectors/ITSMFT/MFT</text>
<text text-anchor="middle" x="1525" y="-8" font-family="Helvetica,sans-Serif" font-size="10.00">/base/src/Support.cxx</text>
</a>
</g>
</g>
<!-- Node1&#45;&gt;Node11 -->
<g id="edge10" class="edge"><title>Node1&#45;&gt;Node11</title>
<path fill="none" stroke="midnightblue" d="M971.349,-112.669C1087.68,-107.085 1286.56,-92.3585 1453,-54 1456.11,-53.2837 1459.27,-52.4731 1462.44,-51.5923"/>
<polygon fill="midnightblue" stroke="midnightblue" points="970.871,-109.187 961.045,-113.15 971.197,-116.18 970.871,-109.187"/>
</g>
<!-- Node12 -->
<g id="node12" class="node"><title>Node12</title>
<g id="a_node12"><a xlink:href="../../d9/d5e/ITSMFT_2MFT_2reconstruction_2src_2ClustererTask_8cxx.html" target="_top" xlink:title="/home/travis/build\l/AliceO2Group/AliceO2\l/Detectors/ITSMFT/MFT\l/reconstruction/src/ClustererTask.cxx">
<polygon fill="none" stroke="black" points="1605.5,-1 1605.5,-53 1786.5,-53 1786.5,-1 1605.5,-1"/>
<text text-anchor="start" x="1613.5" y="-41" font-family="Helvetica,sans-Serif" font-size="10.00">/home/travis/build</text>
<text text-anchor="start" x="1613.5" y="-30" font-family="Helvetica,sans-Serif" font-size="10.00">/AliceO2Group/AliceO2</text>
<text text-anchor="start" x="1613.5" y="-19" font-family="Helvetica,sans-Serif" font-size="10.00">/Detectors/ITSMFT/MFT</text>
<text text-anchor="middle" x="1696" y="-8" font-family="Helvetica,sans-Serif" font-size="10.00">/reconstruction/src/ClustererTask.cxx</text>
</a>
</g>
</g>
<!-- Node1&#45;&gt;Node12 -->
<g id="edge11" class="edge"><title>Node1&#45;&gt;Node12</title>
<path fill="none" stroke="midnightblue" d="M971.511,-112.82C1111.28,-107.116 1374.78,-91.9644 1596,-54 1599.09,-53.469 1602.23,-52.8892 1605.39,-52.2696"/>
<polygon fill="midnightblue" stroke="midnightblue" points="971.105,-109.333 961.253,-113.23 971.385,-116.327 971.105,-109.333"/>
</g>
</g>
</svg>
