<?xml version="1.0" encoding="UTF-8" standalone="no"?>
<!DOCTYPE svg PUBLIC "-//W3C//DTD SVG 1.1//EN"
 "http://www.w3.org/Graphics/SVG/1.1/DTD/svg11.dtd">
<!-- Generated by graphviz version 2.36.0 (20140111.2315)
 -->
<!-- Title: /home/travis/build/AliceO2Group/AliceO2/Detectors/Base/src/GeometryManager.cxx Pages: 1 -->
<svg width="1715pt" height="334pt"
 viewBox="0.00 0.00 1715.50 334.00" xmlns="http://www.w3.org/2000/svg" xmlns:xlink="http://www.w3.org/1999/xlink">
<g id="graph0" class="graph" transform="scale(1 1) rotate(0) translate(4 330)">
<title>/home/travis/build/AliceO2Group/AliceO2/Detectors/Base/src/GeometryManager.cxx</title>
<!-- Node1 -->
<g id="node1" class="node"><title>Node1</title>
<polygon fill="#bfbfbf" stroke="black" points="278.5,-273 278.5,-325 428.5,-325 428.5,-273 278.5,-273"/>
<text text-anchor="start" x="286.5" y="-313" font-family="Helvetica,sans-Serif" font-size="10.00">/home/travis/build</text>
<text text-anchor="start" x="286.5" y="-302" font-family="Helvetica,sans-Serif" font-size="10.00">/AliceO2Group/AliceO2</text>
<text text-anchor="start" x="286.5" y="-291" font-family="Helvetica,sans-Serif" font-size="10.00">/Detectors/Base/src/Geometry</text>
<text text-anchor="middle" x="353.5" y="-280" font-family="Helvetica,sans-Serif" font-size="10.00">Manager.cxx</text>
</g>
<!-- Node2 -->
<g id="node2" class="node"><title>Node2</title>
<polygon fill="none" stroke="#bfbfbf" points="38.9995,-142.5 38.9995,-161.5 110,-161.5 110,-142.5 38.9995,-142.5"/>
<text text-anchor="middle" x="74.4995" y="-149.5" font-family="Helvetica,sans-Serif" font-size="10.00">FairLogger.h</text>
</g>
<!-- Node1&#45;&gt;Node2 -->
<g id="edge1" class="edge"><title>Node1&#45;&gt;Node2</title>
<path fill="none" stroke="midnightblue" d="M287.175,-272.971C263.237,-262.825 236.473,-250.149 213.5,-236 194.408,-224.242 193.262,-216.276 174.5,-204 151.692,-189.078 123.96,-175.239 103.491,-165.754"/>
<polygon fill="midnightblue" stroke="midnightblue" points="104.911,-162.554 94.3601,-161.587 102.005,-168.923 104.911,-162.554"/>
</g>
<!-- Node3 -->
<g id="node3" class="node"><title>Node3</title>
<polygon fill="none" stroke="#bfbfbf" points="26.4995,-210.5 26.4995,-229.5 100.5,-229.5 100.5,-210.5 26.4995,-210.5"/>
<text text-anchor="middle" x="63.4995" y="-217.5" font-family="Helvetica,sans-Serif" font-size="10.00">TCollection.h</text>
</g>
<!-- Node1&#45;&gt;Node3 -->
<g id="edge2" class="edge"><title>Node1&#45;&gt;Node3</title>
<path fill="none" stroke="midnightblue" d="M278.399,-280.283C229.969,-268.523 165.753,-252.299 109.5,-236 105.899,-234.957 102.156,-233.821 98.4298,-232.658"/>
<polygon fill="midnightblue" stroke="midnightblue" points="99.3045,-229.263 88.7137,-229.556 97.1753,-235.932 99.3045,-229.263"/>
</g>
<!-- Node4 -->
<g id="node4" class="node"><title>Node4</title>
<polygon fill="none" stroke="#bfbfbf" points="119,-210.5 119,-229.5 166,-229.5 166,-210.5 119,-210.5"/>
<text text-anchor="middle" x="142.5" y="-217.5" font-family="Helvetica,sans-Serif" font-size="10.00">TFile.h</text>
</g>
<!-- Node1&#45;&gt;Node4 -->
<g id="edge3" class="edge"><title>Node1&#45;&gt;Node4</title>
<path fill="none" stroke="midnightblue" d="M281.768,-272.869C250.57,-261.79 213.644,-248.477 180.5,-236 178.118,-235.104 175.658,-234.164 173.188,-233.21"/>
<polygon fill="midnightblue" stroke="midnightblue" points="174.345,-229.905 163.757,-229.529 171.8,-236.426 174.345,-229.905"/>
</g>
<!-- Node5 -->
<g id="node5" class="node"><title>Node5</title>
<polygon fill="none" stroke="#bfbfbf" points="1631.5,-74.5 1631.5,-93.5 1707.5,-93.5 1707.5,-74.5 1631.5,-74.5"/>
<text text-anchor="middle" x="1669.5" y="-81.5" font-family="Helvetica,sans-Serif" font-size="10.00">TGeoMatrix.h</text>
</g>
<!-- Node1&#45;&gt;Node5 -->
<g id="edge4" class="edge"><title>Node1&#45;&gt;Node5</title>
<path fill="none" stroke="midnightblue" d="M428.655,-290.37C626.168,-269.439 1175.46,-205.548 1622.5,-100 1626.72,-99.0036 1631.11,-97.8147 1635.43,-96.5484"/>
<polygon fill="midnightblue" stroke="midnightblue" points="1636.78,-99.7965 1645.31,-93.5073 1634.72,-93.1068 1636.78,-99.7965"/>
</g>
<!-- Node6 -->
<g id="node6" class="node"><title>Node6</title>
<polygon fill="none" stroke="#bfbfbf" points="222.5,-210.5 222.5,-229.5 294.5,-229.5 294.5,-210.5 222.5,-210.5"/>
<text text-anchor="middle" x="258.5" y="-217.5" font-family="Helvetica,sans-Serif" font-size="10.00">TGeoNode.h</text>
</g>
<!-- Node1&#45;&gt;Node6 -->
<g id="edge5" class="edge"><title>Node1&#45;&gt;Node6</title>
<path fill="none" stroke="midnightblue" d="M322.393,-272.787C307.444,-260.671 290.026,-246.553 277.156,-236.121"/>
<polygon fill="midnightblue" stroke="midnightblue" points="279.03,-233.135 269.058,-229.558 274.623,-238.573 279.03,-233.135"/>
</g>
<!-- Node7 -->
<g id="node7" class="node"><title>Node7</title>
<polygon fill="none" stroke="#bfbfbf" points="128.5,-142.5 128.5,-161.5 238.5,-161.5 238.5,-142.5 128.5,-142.5"/>
<text text-anchor="middle" x="183.5" y="-149.5" font-family="Helvetica,sans-Serif" font-size="10.00">TGeoPhysicalNode.h</text>
</g>
<!-- Node1&#45;&gt;Node7 -->
<g id="edge6" class="edge"><title>Node1&#45;&gt;Node7</title>
<path fill="none" stroke="midnightblue" d="M345.394,-272.634C337.592,-251.787 323.939,-222.735 303.5,-204 282.82,-185.045 254.041,-172.49 229.85,-164.581"/>
<polygon fill="midnightblue" stroke="midnightblue" points="230.734,-161.191 220.146,-161.572 228.661,-167.877 230.734,-161.191"/>
</g>
<!-- Node8 -->
<g id="node8" class="node"><title>Node8</title>
<polygon fill="none" stroke="#bfbfbf" points="351,-210.5 351,-229.5 420,-229.5 420,-210.5 351,-210.5"/>
<text text-anchor="middle" x="385.5" y="-217.5" font-family="Helvetica,sans-Serif" font-size="10.00">TObjArray.h</text>
</g>
<!-- Node1&#45;&gt;Node8 -->
<g id="edge7" class="edge"><title>Node1&#45;&gt;Node8</title>
<path fill="none" stroke="midnightblue" d="M363.978,-272.787C368.577,-261.719 373.871,-248.982 378.057,-238.909"/>
<polygon fill="midnightblue" stroke="midnightblue" points="381.337,-240.135 381.943,-229.558 374.873,-237.449 381.337,-240.135"/>
</g>
<!-- Node9 -->
<g id="node9" class="node"><title>Node9</title>
<polygon fill="none" stroke="#bfbfbf" points="257,-142.5 257,-161.5 316,-161.5 316,-142.5 257,-142.5"/>
<text text-anchor="middle" x="286.5" y="-149.5" font-family="Helvetica,sans-Serif" font-size="10.00">TObject.h</text>
</g>
<!-- Node1&#45;&gt;Node9 -->
<g id="edge8" class="edge"><title>Node1&#45;&gt;Node9</title>
<path fill="none" stroke="midnightblue" d="M395.351,-272.865C420.882,-254.268 445.599,-228.09 428.5,-204 400.431,-164.456 371.024,-184.706 325.5,-168 322.969,-167.071 320.352,-166.096 317.726,-165.108"/>
<polygon fill="midnightblue" stroke="midnightblue" points="318.91,-161.814 308.319,-161.529 316.421,-168.356 318.91,-161.814"/>
</g>
<!-- Node10 -->
<g id="node10" class="node"><title>Node10</title>
<polygon fill="none" stroke="#bfbfbf" points="1.99951,-74.5 1.99951,-93.5 50.9995,-93.5 50.9995,-74.5 1.99951,-74.5"/>
<text text-anchor="middle" x="26.4995" y="-81.5" font-family="Helvetica,sans-Serif" font-size="10.00">cassert</text>
</g>
<!-- Node1&#45;&gt;Node10 -->
<g id="edge9" class="edge"><title>Node1&#45;&gt;Node10</title>
<path fill="none" stroke="midnightblue" d="M278.479,-294.973C189.777,-289.634 50.0402,-275.095 17.4995,-236 -14.061,-198.083 5.54248,-134.506 18.2161,-103.344"/>
<polygon fill="midnightblue" stroke="midnightblue" points="21.5973,-104.339 22.3147,-93.7684 15.162,-101.584 21.5973,-104.339"/>
</g>
<!-- Node11 -->
<g id="node11" class="node"><title>Node11</title>
<polygon fill="none" stroke="#bfbfbf" points="668,-210.5 668,-229.5 717,-229.5 717,-210.5 668,-210.5"/>
<text text-anchor="middle" x="692.5" y="-217.5" font-family="Helvetica,sans-Serif" font-size="10.00">cstddef</text>
</g>
<!-- Node1&#45;&gt;Node11 -->
<g id="edge10" class="edge"><title>Node1&#45;&gt;Node11</title>
<path fill="none" stroke="midnightblue" d="M428.597,-287.353C491.043,-277.407 581.778,-260.409 658.5,-236 660.92,-235.23 663.401,-234.342 665.865,-233.39"/>
<polygon fill="midnightblue" stroke="midnightblue" points="667.252,-236.604 675.131,-229.521 664.555,-230.145 667.252,-236.604"/>
</g>
<!-- Node12 -->
<g id="node12" class="node"><title>Node12</title>
<g id="a_node12"><a xlink:href="../../db/dcc/Detectors_2Base_2include_2DetectorsBase_2GeometryManager_8h.html" target="_top" xlink:title="DetectorsBase/GeometryManager.h">
<polygon fill="none" stroke="black" points="477,-210.5 477,-229.5 650,-229.5 650,-210.5 477,-210.5"/>
<text text-anchor="middle" x="563.5" y="-217.5" font-family="Helvetica,sans-Serif" font-size="10.00">DetectorsBase/GeometryManager.h</text>
</a>
</g>
</g>
<!-- Node1&#45;&gt;Node12 -->
<g id="edge11" class="edge"><title>Node1&#45;&gt;Node12</title>
<path fill="none" stroke="midnightblue" d="M421.971,-272.894C458.374,-259.546 501.469,-243.745 530.46,-233.114"/>
<polygon fill="midnightblue" stroke="midnightblue" points="531.908,-236.311 540.092,-229.583 529.499,-229.739 531.908,-236.311"/>
</g>
<!-- Node37 -->
<g id="node37" class="node"><title>Node37</title>
<g id="a_node37"><a xlink:href="../../d2/d8f/AlignParam_8h.html" target="_top" xlink:title="Definition of the base alignment parameters class. ">
<polygon fill="none" stroke="black" points="1473.5,-205 1473.5,-235 1629.5,-235 1629.5,-205 1473.5,-205"/>
<text text-anchor="start" x="1481.5" y="-223" font-family="Helvetica,sans-Serif" font-size="10.00">DetectorsCommonDataFormats</text>
<text text-anchor="middle" x="1551.5" y="-212" font-family="Helvetica,sans-Serif" font-size="10.00">/AlignParam.h</text>
</a>
</g>
</g>
<!-- Node1&#45;&gt;Node37 -->
<g id="edge43" class="edge"><title>Node1&#45;&gt;Node37</title>
<path fill="none" stroke="midnightblue" d="M428.576,-293.526C593.796,-283.628 1001.34,-258.935 1342.5,-236 1381.98,-233.346 1425.64,-230.239 1462.81,-227.544"/>
<polygon fill="midnightblue" stroke="midnightblue" points="1463.39,-231.011 1473.11,-226.795 1462.88,-224.029 1463.39,-231.011"/>
</g>
<!-- Node12&#45;&gt;Node2 -->
<g id="edge30" class="edge"><title>Node12&#45;&gt;Node2</title>
<path fill="none" stroke="midnightblue" d="M487.548,-210.478C363.055,-196.482 128.389,-169.97 119.5,-168 115.339,-167.078 111.021,-165.916 106.781,-164.648"/>
<polygon fill="midnightblue" stroke="midnightblue" points="107.725,-161.276 97.1344,-161.563 105.593,-167.943 107.725,-161.276"/>
</g>
<!-- Node12&#45;&gt;Node7 -->
<g id="edge14" class="edge"><title>Node12&#45;&gt;Node7</title>
<path fill="none" stroke="midnightblue" d="M502.694,-210.481C438.9,-201.241 335.816,-185.454 247.5,-168 241.181,-166.751 234.538,-165.324 228.02,-163.858"/>
<polygon fill="midnightblue" stroke="midnightblue" points="228.477,-160.372 217.947,-161.542 226.908,-167.193 228.477,-160.372"/>
</g>
<!-- Node12&#45;&gt;Node9 -->
<g id="edge17" class="edge"><title>Node12&#45;&gt;Node9</title>
<path fill="none" stroke="midnightblue" d="M512.314,-210.421C463.719,-201.717 388.887,-186.856 325.5,-168 322.536,-167.118 319.478,-166.114 316.439,-165.053"/>
<polygon fill="midnightblue" stroke="midnightblue" points="317.53,-161.726 306.937,-161.55 315.108,-168.293 317.53,-161.726"/>
</g>
<!-- Node13 -->
<g id="node13" class="node"><title>Node13</title>
<polygon fill="none" stroke="#bfbfbf" points="835.5,-142.5 835.5,-161.5 921.5,-161.5 921.5,-142.5 835.5,-142.5"/>
<text text-anchor="middle" x="878.5" y="-149.5" font-family="Helvetica,sans-Serif" font-size="10.00">TGeoManager.h</text>
</g>
<!-- Node12&#45;&gt;Node13 -->
<g id="edge12" class="edge"><title>Node12&#45;&gt;Node13</title>
<path fill="none" stroke="midnightblue" d="M613.995,-210.463C666.954,-201.208 752.475,-185.409 825.5,-168 830.249,-166.868 835.213,-165.59 840.116,-164.271"/>
<polygon fill="midnightblue" stroke="midnightblue" points="841.302,-167.574 850.008,-161.536 839.437,-160.827 841.302,-167.574"/>
</g>
<!-- Node14 -->
<g id="node14" class="node"><title>Node14</title>
<polygon fill="none" stroke="#bfbfbf" points="509,-142.5 509,-161.5 592,-161.5 592,-142.5 509,-142.5"/>
<text text-anchor="middle" x="550.5" y="-149.5" font-family="Helvetica,sans-Serif" font-size="10.00">TGeoMaterial.h</text>
</g>
<!-- Node12&#45;&gt;Node14 -->
<g id="edge13" class="edge"><title>Node12&#45;&gt;Node14</title>
<path fill="none" stroke="midnightblue" d="M561.8,-210.372C559.884,-200.643 556.71,-184.528 554.212,-171.85"/>
<polygon fill="midnightblue" stroke="midnightblue" points="557.608,-170.976 552.241,-161.841 550.74,-172.329 557.608,-170.976"/>
</g>
<!-- Node15 -->
<g id="node15" class="node"><title>Node15</title>
<polygon fill="none" stroke="#bfbfbf" points="610,-142.5 610,-161.5 687,-161.5 687,-142.5 610,-142.5"/>
<text text-anchor="middle" x="648.5" y="-149.5" font-family="Helvetica,sans-Serif" font-size="10.00">TGeoShape.h</text>
</g>
<!-- Node12&#45;&gt;Node15 -->
<g id="edge15" class="edge"><title>Node12&#45;&gt;Node15</title>
<path fill="none" stroke="midnightblue" d="M574.612,-210.372C588.484,-199.6 612.436,-181.002 629.302,-167.906"/>
<polygon fill="midnightblue" stroke="midnightblue" points="631.633,-170.528 637.385,-161.63 627.339,-164.999 631.633,-170.528"/>
</g>
<!-- Node16 -->
<g id="node16" class="node"><title>Node16</title>
<polygon fill="none" stroke="#bfbfbf" points="705,-142.5 705,-161.5 758,-161.5 758,-142.5 705,-142.5"/>
<text text-anchor="middle" x="731.5" y="-149.5" font-family="Helvetica,sans-Serif" font-size="10.00">TMath.h</text>
</g>
<!-- Node12&#45;&gt;Node16 -->
<g id="edge16" class="edge"><title>Node12&#45;&gt;Node16</title>
<path fill="none" stroke="midnightblue" d="M586.463,-210.336C612.853,-200.331 657.425,-183.285 695.5,-168 697.593,-167.16 699.751,-166.284 701.921,-165.397"/>
<polygon fill="midnightblue" stroke="midnightblue" points="703.447,-168.553 711.355,-161.502 700.776,-162.083 703.447,-168.553"/>
</g>
<!-- Node17 -->
<g id="node17" class="node"><title>Node17</title>
<polygon fill="none" stroke="#bfbfbf" points="776,-142.5 776,-161.5 817,-161.5 817,-142.5 776,-142.5"/>
<text text-anchor="middle" x="796.5" y="-149.5" font-family="Helvetica,sans-Serif" font-size="10.00">string</text>
</g>
<!-- Node12&#45;&gt;Node17 -->
<g id="edge18" class="edge"><title>Node12&#45;&gt;Node17</title>
<path fill="none" stroke="midnightblue" d="M609.508,-210.424C651.223,-201.952 714.026,-187.446 766.5,-168 768.151,-167.388 769.831,-166.711 771.51,-165.993"/>
<polygon fill="midnightblue" stroke="midnightblue" points="773.329,-169.007 780.905,-161.601 770.364,-162.666 773.329,-169.007"/>
</g>
<!-- Node18 -->
<g id="node18" class="node"><title>Node18</title>
<g id="a_node18"><a xlink:href="../../d6/d31/DetID_8h.html" target="_top" xlink:title="DetectorsCommonDataFormats\l/DetID.h">
<polygon fill="none" stroke="black" points="334.5,-137 334.5,-167 490.5,-167 490.5,-137 334.5,-137"/>
<text text-anchor="start" x="342.5" y="-155" font-family="Helvetica,sans-Serif" font-size="10.00">DetectorsCommonDataFormats</text>
<text text-anchor="middle" x="412.5" y="-144" font-family="Helvetica,sans-Serif" font-size="10.00">/DetID.h</text>
</a>
</g>
</g>
<!-- Node12&#45;&gt;Node18 -->
<g id="edge19" class="edge"><title>Node12&#45;&gt;Node18</title>
<path fill="none" stroke="midnightblue" d="M543.759,-210.372C521.036,-200.44 483.089,-183.854 453.825,-171.063"/>
<polygon fill="midnightblue" stroke="midnightblue" points="455.223,-167.854 444.658,-167.056 452.42,-174.268 455.223,-167.854"/>
</g>
<!-- Node27 -->
<g id="node27" class="node"><title>Node27</title>
<g id="a_node27"><a xlink:href="../../dd/d76/Cartesian3D_8h.html" target="_top" xlink:title="MathUtils/Cartesian3D.h">
<polygon fill="none" stroke="black" points="940,-142.5 940,-161.5 1065,-161.5 1065,-142.5 940,-142.5"/>
<text text-anchor="middle" x="1002.5" y="-149.5" font-family="Helvetica,sans-Serif" font-size="10.00">MathUtils/Cartesian3D.h</text>
</a>
</g>
</g>
<!-- Node12&#45;&gt;Node27 -->
<g id="edge31" class="edge"><title>Node12&#45;&gt;Node27</title>
<path fill="none" stroke="midnightblue" d="M616.226,-210.434C629.976,-208.266 644.784,-205.99 658.5,-204 779.179,-186.489 810.283,-188.449 930.5,-168 938.2,-166.69 946.331,-165.15 954.248,-163.564"/>
<polygon fill="midnightblue" stroke="midnightblue" points="955.017,-166.979 964.112,-161.545 953.613,-160.121 955.017,-166.979"/>
</g>
<!-- Node18&#45;&gt;Node10 -->
<g id="edge23" class="edge"><title>Node18&#45;&gt;Node10</title>
<path fill="none" stroke="midnightblue" d="M334.296,-137.63C330.987,-137.077 327.71,-136.532 324.5,-136 225.021,-119.528 199.709,-118.02 100.5,-100 87.602,-97.6574 73.4892,-94.8562 61.0785,-92.312"/>
<polygon fill="midnightblue" stroke="midnightblue" points="61.6197,-88.8499 51.1179,-90.2511 60.2013,-95.7047 61.6197,-88.8499"/>
</g>
<!-- Node19 -->
<g id="node19" class="node"><title>Node19</title>
<polygon fill="none" stroke="#bfbfbf" points="459.5,-74.5 459.5,-93.5 515.5,-93.5 515.5,-74.5 459.5,-74.5"/>
<text text-anchor="middle" x="487.5" y="-81.5" font-family="Helvetica,sans-Serif" font-size="10.00">Rtypes.h</text>
</g>
<!-- Node18&#45;&gt;Node19 -->
<g id="edge20" class="edge"><title>Node18&#45;&gt;Node19</title>
<path fill="none" stroke="midnightblue" d="M428.773,-136.679C440.815,-126.082 457.21,-111.655 469.617,-100.736"/>
<polygon fill="midnightblue" stroke="midnightblue" points="472.272,-103.062 477.467,-93.8283 467.648,-97.8071 472.272,-103.062"/>
</g>
<!-- Node20 -->
<g id="node20" class="node"><title>Node20</title>
<polygon fill="none" stroke="#bfbfbf" points="405.5,-6.5 405.5,-25.5 443.5,-25.5 443.5,-6.5 405.5,-6.5"/>
<text text-anchor="middle" x="424.5" y="-13.5" font-family="Helvetica,sans-Serif" font-size="10.00">array</text>
</g>
<!-- Node18&#45;&gt;Node20 -->
<g id="edge21" class="edge"><title>Node18&#45;&gt;Node20</title>
<path fill="none" stroke="midnightblue" d="M413.784,-136.66C415.963,-112.32 420.386,-62.9332 422.813,-35.8373"/>
<polygon fill="midnightblue" stroke="midnightblue" points="426.312,-35.9999 423.718,-25.7275 419.34,-35.3754 426.312,-35.9999"/>
</g>
<!-- Node21 -->
<g id="node21" class="node"><title>Node21</title>
<polygon fill="none" stroke="#bfbfbf" points="110,-74.5 110,-93.5 151,-93.5 151,-74.5 110,-74.5"/>
<text text-anchor="middle" x="130.5" y="-81.5" font-family="Helvetica,sans-Serif" font-size="10.00">bitset</text>
</g>
<!-- Node18&#45;&gt;Node21 -->
<g id="edge22" class="edge"><title>Node18&#45;&gt;Node21</title>
<path fill="none" stroke="midnightblue" d="M334.327,-137.505C272.69,-126.433 192.047,-110.865 160.5,-100 158.641,-99.3601 156.752,-98.6282 154.871,-97.8396"/>
<polygon fill="midnightblue" stroke="midnightblue" points="156.276,-94.6329 145.732,-93.5891 153.324,-100.98 156.276,-94.6329"/>
</g>
<!-- Node22 -->
<g id="node22" class="node"><title>Node22</title>
<polygon fill="none" stroke="#bfbfbf" points="169.5,-74.5 169.5,-93.5 215.5,-93.5 215.5,-74.5 169.5,-74.5"/>
<text text-anchor="middle" x="192.5" y="-81.5" font-family="Helvetica,sans-Serif" font-size="10.00">cstdint</text>
</g>
<!-- Node18&#45;&gt;Node22 -->
<g id="edge24" class="edge"><title>Node18&#45;&gt;Node22</title>
<path fill="none" stroke="midnightblue" d="M350.27,-136.997C313.241,-127.958 265.615,-115.084 224.5,-100 222.642,-99.3185 220.744,-98.5706 218.847,-97.784"/>
<polygon fill="midnightblue" stroke="midnightblue" points="220.099,-94.5105 209.538,-93.6547 217.26,-100.909 220.099,-94.5105"/>
</g>
<!-- Node23 -->
<g id="node23" class="node"><title>Node23</title>
<polygon fill="none" stroke="#bfbfbf" points="233.5,-74.5 233.5,-93.5 295.5,-93.5 295.5,-74.5 233.5,-74.5"/>
<text text-anchor="middle" x="264.5" y="-81.5" font-family="Helvetica,sans-Serif" font-size="10.00">type_traits</text>
</g>
<!-- Node18&#45;&gt;Node23 -->
<g id="edge25" class="edge"><title>Node18&#45;&gt;Node23</title>
<path fill="none" stroke="midnightblue" d="M380.75,-136.841C354.806,-125.272 318.442,-109.055 293.325,-97.8547"/>
<polygon fill="midnightblue" stroke="midnightblue" points="294.527,-94.5582 283.968,-93.6819 291.675,-100.951 294.527,-94.5582"/>
</g>
<!-- Node24 -->
<g id="node24" class="node"><title>Node24</title>
<g id="a_node24"><a xlink:href="../../d9/d52/Common_2MathUtils_2include_2MathUtils_2Utils_8h.html" target="_top" xlink:title="MathUtils/Utils.h">
<polygon fill="none" stroke="black" points="313.5,-74.5 313.5,-93.5 403.5,-93.5 403.5,-74.5 313.5,-74.5"/>
<text text-anchor="middle" x="358.5" y="-81.5" font-family="Helvetica,sans-Serif" font-size="10.00">MathUtils/Utils.h</text>
</a>
</g>
</g>
<!-- Node18&#45;&gt;Node24 -->
<g id="edge26" class="edge"><title>Node18&#45;&gt;Node24</title>
<path fill="none" stroke="midnightblue" d="M400.782,-136.679C392.363,-126.388 380.986,-112.484 372.155,-101.69"/>
<polygon fill="midnightblue" stroke="midnightblue" points="374.764,-99.3515 365.723,-93.8283 369.346,-103.784 374.764,-99.3515"/>
</g>
<!-- Node24&#45;&gt;Node20 -->
<g id="edge27" class="edge"><title>Node24&#45;&gt;Node20</title>
<path fill="none" stroke="midnightblue" d="M367.128,-74.3717C377.545,-63.9547 395.282,-46.2173 408.283,-33.2162"/>
<polygon fill="midnightblue" stroke="midnightblue" points="411.062,-35.3871 415.658,-25.8411 406.112,-30.4373 411.062,-35.3871"/>
</g>
<!-- Node25 -->
<g id="node25" class="node"><title>Node25</title>
<polygon fill="none" stroke="#bfbfbf" points="339.5,-6.5 339.5,-25.5 383.5,-25.5 383.5,-6.5 339.5,-6.5"/>
<text text-anchor="middle" x="361.5" y="-13.5" font-family="Helvetica,sans-Serif" font-size="10.00">cmath</text>
</g>
<!-- Node24&#45;&gt;Node25 -->
<g id="edge28" class="edge"><title>Node24&#45;&gt;Node25</title>
<path fill="none" stroke="midnightblue" d="M358.892,-74.3717C359.334,-64.6426 360.066,-48.528 360.643,-35.8504"/>
<polygon fill="midnightblue" stroke="midnightblue" points="364.14,-35.9898 361.098,-25.8411 357.147,-35.6718 364.14,-35.9898"/>
</g>
<!-- Node26 -->
<g id="node26" class="node"><title>Node26</title>
<g id="a_node26"><a xlink:href="../../d6/d84/MathConstants_8h.html" target="_top" xlink:title="useful math constants ">
<polygon fill="none" stroke="black" points="142,-6.5 142,-25.5 321,-25.5 321,-6.5 142,-6.5"/>
<text text-anchor="middle" x="231.5" y="-13.5" font-family="Helvetica,sans-Serif" font-size="10.00">CommonConstants/MathConstants.h</text>
</a>
</g>
</g>
<!-- Node24&#45;&gt;Node26 -->
<g id="edge29" class="edge"><title>Node24&#45;&gt;Node26</title>
<path fill="none" stroke="midnightblue" d="M341.896,-74.3717C320.314,-63.1557 282.402,-43.4532 257.118,-30.3136"/>
<polygon fill="midnightblue" stroke="midnightblue" points="258.594,-27.1362 248.107,-25.6305 255.366,-33.3475 258.594,-27.1362"/>
</g>
<!-- Node27&#45;&gt;Node5 -->
<g id="edge38" class="edge"><title>Node27&#45;&gt;Node5</title>
<path fill="none" stroke="midnightblue" d="M1065.09,-147.66C1200.52,-140.138 1517.02,-120.889 1622.5,-100 1627.07,-99.0958 1631.81,-97.8995 1636.45,-96.576"/>
<polygon fill="midnightblue" stroke="midnightblue" points="1637.81,-99.8201 1646.34,-93.539 1635.76,-93.1285 1637.81,-99.8201"/>
</g>
<!-- Node27&#45;&gt;Node19 -->
<g id="edge37" class="edge"><title>Node27&#45;&gt;Node19</title>
<path fill="none" stroke="midnightblue" d="M965.649,-142.458C954.414,-140.088 941.994,-137.701 930.5,-136 751.299,-109.481 700.597,-142.497 524.5,-100 521.432,-99.2596 518.285,-98.3081 515.184,-97.244"/>
<polygon fill="midnightblue" stroke="midnightblue" points="516.179,-93.8777 505.588,-93.5817 513.683,-100.418 516.179,-93.8777"/>
</g>
<!-- Node28 -->
<g id="node28" class="node"><title>Node28</title>
<polygon fill="none" stroke="#bfbfbf" points="927,-69 927,-99 1078,-99 1078,-69 927,-69"/>
<text text-anchor="start" x="935" y="-87" font-family="Helvetica,sans-Serif" font-size="10.00">Math/GenVector/Displacement</text>
<text text-anchor="middle" x="1002.5" y="-76" font-family="Helvetica,sans-Serif" font-size="10.00">Vector3D.h</text>
</g>
<!-- Node27&#45;&gt;Node28 -->
<g id="edge32" class="edge"><title>Node27&#45;&gt;Node28</title>
<path fill="none" stroke="midnightblue" d="M1002.5,-142.372C1002.5,-133.971 1002.5,-120.811 1002.5,-109.213"/>
<polygon fill="midnightblue" stroke="midnightblue" points="1006,-109.181 1002.5,-99.1815 999,-109.181 1006,-109.181"/>
</g>
<!-- Node29 -->
<g id="node29" class="node"><title>Node29</title>
<polygon fill="none" stroke="#bfbfbf" points="1096.5,-74.5 1096.5,-93.5 1272.5,-93.5 1272.5,-74.5 1096.5,-74.5"/>
<text text-anchor="middle" x="1184.5" y="-81.5" font-family="Helvetica,sans-Serif" font-size="10.00">Math/GenVector/PositionVector3D.h</text>
</g>
<!-- Node27&#45;&gt;Node29 -->
<g id="edge33" class="edge"><title>Node27&#45;&gt;Node29</title>
<path fill="none" stroke="midnightblue" d="M1026.29,-142.372C1058.26,-130.778 1115.24,-110.116 1151.38,-97.0087"/>
<polygon fill="midnightblue" stroke="midnightblue" points="1152.78,-100.225 1160.99,-93.5259 1150.39,-93.6447 1152.78,-100.225"/>
</g>
<!-- Node30 -->
<g id="node30" class="node"><title>Node30</title>
<polygon fill="none" stroke="#bfbfbf" points="1290,-74.5 1290,-93.5 1439,-93.5 1439,-74.5 1290,-74.5"/>
<text text-anchor="middle" x="1364.5" y="-81.5" font-family="Helvetica,sans-Serif" font-size="10.00">Math/GenVector/Rotation3D.h</text>
</g>
<!-- Node27&#45;&gt;Node30 -->
<g id="edge34" class="edge"><title>Node27&#45;&gt;Node30</title>
<path fill="none" stroke="midnightblue" d="M1049.45,-142.439C1115.64,-130.372 1236.24,-108.384 1307.49,-95.3945"/>
<polygon fill="midnightblue" stroke="midnightblue" points="1308.42,-98.7825 1317.63,-93.5455 1307.16,-91.896 1308.42,-98.7825"/>
</g>
<!-- Node31 -->
<g id="node31" class="node"><title>Node31</title>
<polygon fill="none" stroke="#bfbfbf" points="1457.5,-74.5 1457.5,-93.5 1613.5,-93.5 1613.5,-74.5 1457.5,-74.5"/>
<text text-anchor="middle" x="1535.5" y="-81.5" font-family="Helvetica,sans-Serif" font-size="10.00">Math/GenVector/Transform3D.h</text>
</g>
<!-- Node27&#45;&gt;Node31 -->
<g id="edge35" class="edge"><title>Node27&#45;&gt;Node31</title>
<path fill="none" stroke="midnightblue" d="M1065.28,-144.899C1151.58,-136.262 1311.62,-119.352 1447.5,-100 1457.4,-98.5905 1467.89,-96.9391 1478.06,-95.2571"/>
<polygon fill="midnightblue" stroke="midnightblue" points="1478.8,-98.6821 1488.08,-93.5727 1477.64,-91.779 1478.8,-98.6821"/>
</g>
<!-- Node32 -->
<g id="node32" class="node"><title>Node32</title>
<polygon fill="none" stroke="#bfbfbf" points="533.5,-74.5 533.5,-93.5 693.5,-93.5 693.5,-74.5 533.5,-74.5"/>
<text text-anchor="middle" x="613.5" y="-81.5" font-family="Helvetica,sans-Serif" font-size="10.00">Math/GenVector/Translation3D.h</text>
</g>
<!-- Node27&#45;&gt;Node32 -->
<g id="edge36" class="edge"><title>Node27&#45;&gt;Node32</title>
<path fill="none" stroke="midnightblue" d="M963.331,-142.478C952.699,-140.264 941.175,-137.954 930.5,-136 829.587,-117.533 803.749,-116.525 702.5,-100 693.088,-98.4639 683.121,-96.8104 673.395,-95.1822"/>
<polygon fill="midnightblue" stroke="midnightblue" points="673.822,-91.7049 663.38,-93.5005 672.662,-98.6082 673.822,-91.7049"/>
</g>
<!-- Node33 -->
<g id="node33" class="node"><title>Node33</title>
<polygon fill="none" stroke="#bfbfbf" points="711.5,-74.5 711.5,-93.5 765.5,-93.5 765.5,-74.5 711.5,-74.5"/>
<text text-anchor="middle" x="738.5" y="-81.5" font-family="Helvetica,sans-Serif" font-size="10.00">iostream</text>
</g>
<!-- Node27&#45;&gt;Node33 -->
<g id="edge39" class="edge"><title>Node27&#45;&gt;Node33</title>
<path fill="none" stroke="midnightblue" d="M962.265,-142.4C901.691,-129.393 792.235,-105.631 774.5,-100 771.926,-99.183 769.281,-98.2566 766.649,-97.2747"/>
<polygon fill="midnightblue" stroke="midnightblue" points="767.911,-94.0099 757.325,-93.5717 765.327,-100.516 767.911,-94.0099"/>
</g>
<!-- Node34 -->
<g id="node34" class="node"><title>Node34</title>
<g id="a_node34"><a xlink:href="../../d2/dd0/Cartesian2D_8h.html" target="_top" xlink:title="MathUtils/Cartesian2D.h">
<polygon fill="none" stroke="black" points="784,-74.5 784,-93.5 909,-93.5 909,-74.5 784,-74.5"/>
<text text-anchor="middle" x="846.5" y="-81.5" font-family="Helvetica,sans-Serif" font-size="10.00">MathUtils/Cartesian2D.h</text>
</a>
</g>
</g>
<!-- Node27&#45;&gt;Node34 -->
<g id="edge40" class="edge"><title>Node27&#45;&gt;Node34</title>
<path fill="none" stroke="midnightblue" d="M982.105,-142.372C955.128,-130.958 907.378,-110.756 876.341,-97.6252"/>
<polygon fill="midnightblue" stroke="midnightblue" points="877.472,-94.3035 866.899,-93.6305 874.745,-100.75 877.472,-94.3035"/>
</g>
<!-- Node35 -->
<g id="node35" class="node"><title>Node35</title>
<polygon fill="none" stroke="#bfbfbf" points="862,-1 862,-31 1013,-31 1013,-1 862,-1"/>
<text text-anchor="start" x="870" y="-19" font-family="Helvetica,sans-Serif" font-size="10.00">Math/GenVector/Displacement</text>
<text text-anchor="middle" x="937.5" y="-8" font-family="Helvetica,sans-Serif" font-size="10.00">Vector2D.h</text>
</g>
<!-- Node34&#45;&gt;Node35 -->
<g id="edge41" class="edge"><title>Node34&#45;&gt;Node35</title>
<path fill="none" stroke="midnightblue" d="M858.396,-74.3717C871.278,-65.0286 892.28,-49.7966 909.407,-37.375"/>
<polygon fill="midnightblue" stroke="midnightblue" points="911.906,-39.8859 917.946,-31.1815 907.796,-34.2194 911.906,-39.8859"/>
</g>
<!-- Node36 -->
<g id="node36" class="node"><title>Node36</title>
<polygon fill="none" stroke="#bfbfbf" points="667.5,-6.5 667.5,-25.5 843.5,-25.5 843.5,-6.5 667.5,-6.5"/>
<text text-anchor="middle" x="755.5" y="-13.5" font-family="Helvetica,sans-Serif" font-size="10.00">Math/GenVector/PositionVector2D.h</text>
</g>
<!-- Node34&#45;&gt;Node36 -->
<g id="edge42" class="edge"><title>Node34&#45;&gt;Node36</title>
<path fill="none" stroke="midnightblue" d="M834.603,-74.3717C819.615,-63.5015 793.637,-44.6602 775.557,-31.5474"/>
<polygon fill="midnightblue" stroke="midnightblue" points="777.549,-28.6684 767.399,-25.6305 773.439,-34.3349 777.549,-28.6684"/>
</g>
<!-- Node37&#45;&gt;Node5 -->
<g id="edge44" class="edge"><title>Node37&#45;&gt;Node5</title>
<path fill="none" stroke="midnightblue" d="M1551.25,-204.854C1551.65,-187.004 1554.82,-156.202 1570.5,-136 1579.54,-124.353 1612.95,-108.482 1638.48,-97.5541"/>
<polygon fill="midnightblue" stroke="midnightblue" points="1639.95,-100.732 1647.81,-93.627 1637.24,-94.2797 1639.95,-100.732"/>
</g>
<!-- Node38 -->
<g id="node38" class="node"><title>Node38</title>
<polygon fill="none" stroke="#bfbfbf" points="1579.5,-142.5 1579.5,-161.5 1641.5,-161.5 1641.5,-142.5 1579.5,-142.5"/>
<text text-anchor="middle" x="1610.5" y="-149.5" font-family="Helvetica,sans-Serif" font-size="10.00">TNamed.h</text>
</g>
<!-- Node37&#45;&gt;Node38 -->
<g id="edge45" class="edge"><title>Node37&#45;&gt;Node38</title>
<path fill="none" stroke="midnightblue" d="M1564.3,-204.679C1573.59,-194.286 1586.18,-180.208 1595.87,-169.37"/>
<polygon fill="midnightblue" stroke="midnightblue" points="1598.55,-171.616 1602.61,-161.828 1593.33,-166.951 1598.55,-171.616"/>
</g>
</g>
</svg>
