<?xml version="1.0" encoding="UTF-8" standalone="no"?>
<!DOCTYPE svg PUBLIC "-//W3C//DTD SVG 1.1//EN"
 "http://www.w3.org/Graphics/SVG/1.1/DTD/svg11.dtd">
<!-- Generated by graphviz version 2.36.0 (20140111.2315)
 -->
<!-- Title: FairGenerator Pages: 1 -->
<svg width="514pt" height="336pt"
 viewBox="0.00 0.00 514.00 336.00" xmlns="http://www.w3.org/2000/svg" xmlns:xlink="http://www.w3.org/1999/xlink">
<g id="graph0" class="graph" transform="scale(1 1) rotate(0) translate(4 332)">
<title>FairGenerator</title>
<!-- Node1 -->
<g id="node1" class="node"><title>Node1</title>
<polygon fill="#bfbfbf" stroke="black" points="218,-270.5 218,-327.5 294,-327.5 294,-270.5 218,-270.5"/>
<text text-anchor="middle" x="256" y="-315.5" font-family="Helvetica,sans-Serif" font-size="10.00">FairGenerator</text>
<polyline fill="none" stroke="black" points="218,-308.5 294,-308.5 "/>
<text text-anchor="middle" x="256" y="-296.5" font-family="Helvetica,sans-Serif" font-size="10.00"> </text>
<polyline fill="none" stroke="black" points="218,-289.5 294,-289.5 "/>
<text text-anchor="middle" x="256" y="-277.5" font-family="Helvetica,sans-Serif" font-size="10.00"> </text>
</g>
<!-- Node2 -->
<g id="node2" class="node"><title>Node2</title>
<g id="a_node2"><a xlink:href="../../d6/db8/classo2_1_1eventgen_1_1GeneratorFromFile.html" target="_top" xlink:title="{o2::eventgen::GeneratorFromFile\n||+ GeneratorFromFile()\l+ GeneratorFromFile()\l+ ReadEvent()\l+ SetStartEvent()\l}">
<polygon fill="none" stroke="black" points="0,-72 0,-162 160,-162 160,-72 0,-72"/>
<text text-anchor="middle" x="80" y="-150" font-family="Helvetica,sans-Serif" font-size="10.00">o2::eventgen::GeneratorFromFile</text>
<polyline fill="none" stroke="black" points="0,-143 160,-143 "/>
<text text-anchor="middle" x="80" y="-131" font-family="Helvetica,sans-Serif" font-size="10.00"> </text>
<polyline fill="none" stroke="black" points="0,-124 160,-124 "/>
<text text-anchor="start" x="8" y="-112" font-family="Helvetica,sans-Serif" font-size="10.00">+ GeneratorFromFile()</text>
<text text-anchor="start" x="8" y="-101" font-family="Helvetica,sans-Serif" font-size="10.00">+ GeneratorFromFile()</text>
<text text-anchor="start" x="8" y="-90" font-family="Helvetica,sans-Serif" font-size="10.00">+ ReadEvent()</text>
<text text-anchor="start" x="8" y="-79" font-family="Helvetica,sans-Serif" font-size="10.00">+ SetStartEvent()</text>
</a>
</g>
</g>
<!-- Node1&#45;&gt;Node2 -->
<g id="edge1" class="edge"><title>Node1&#45;&gt;Node2</title>
<path fill="none" stroke="midnightblue" d="M209.394,-267.426C195.733,-257.506 181.199,-245.955 169,-234 146.882,-212.325 125.633,-184.964 109.447,-162.259"/>
<polygon fill="none" stroke="midnightblue" points="207.583,-270.433 217.759,-273.381 211.642,-264.73 207.583,-270.433"/>
</g>
<!-- Node3 -->
<g id="node3" class="node"><title>Node3</title>
<g id="a_node3"><a xlink:href="../../d9/df8/classo2_1_1eventgen_1_1Pythia6Generator.html" target="_top" xlink:title="{o2::eventgen::Pythia6Generator\n||+ Pythia6Generator()\l+ Pythia6Generator()\l+ ~Pythia6Generator()\l+ ReadEvent()\l+ SetVerbose()\l}">
<polygon fill="none" stroke="black" points="178.5,-66.5 178.5,-167.5 333.5,-167.5 333.5,-66.5 178.5,-66.5"/>
<text text-anchor="middle" x="256" y="-155.5" font-family="Helvetica,sans-Serif" font-size="10.00">o2::eventgen::Pythia6Generator</text>
<polyline fill="none" stroke="black" points="178.5,-148.5 333.5,-148.5 "/>
<text text-anchor="middle" x="256" y="-136.5" font-family="Helvetica,sans-Serif" font-size="10.00"> </text>
<polyline fill="none" stroke="black" points="178.5,-129.5 333.5,-129.5 "/>
<text text-anchor="start" x="186.5" y="-117.5" font-family="Helvetica,sans-Serif" font-size="10.00">+ Pythia6Generator()</text>
<text text-anchor="start" x="186.5" y="-106.5" font-family="Helvetica,sans-Serif" font-size="10.00">+ Pythia6Generator()</text>
<text text-anchor="start" x="186.5" y="-95.5" font-family="Helvetica,sans-Serif" font-size="10.00">+ ~Pythia6Generator()</text>
<text text-anchor="start" x="186.5" y="-84.5" font-family="Helvetica,sans-Serif" font-size="10.00">+ ReadEvent()</text>
<text text-anchor="start" x="186.5" y="-73.5" font-family="Helvetica,sans-Serif" font-size="10.00">+ SetVerbose()</text>
</a>
</g>
</g>
<!-- Node1&#45;&gt;Node3 -->
<g id="edge2" class="edge"><title>Node1&#45;&gt;Node3</title>
<path fill="none" stroke="midnightblue" d="M256,-260.087C256,-233.159 256,-196.746 256,-167.523"/>
<polygon fill="none" stroke="midnightblue" points="252.5,-260.269 256,-270.269 259.5,-260.27 252.5,-260.269"/>
</g>
<!-- Node4 -->
<g id="node4" class="node"><title>Node4</title>
<g id="a_node4"><a xlink:href="../../d0/d7d/classo2_1_1eventgen_1_1Pythia8Generator.html" target="_top" xlink:title="{o2::eventgen::Pythia8Generator\n|# mMom\l# mHNL\l# mId\l# mUseRandom1\l# mUseRandom3\l|+ Pythia8Generator()\l+ ~Pythia8Generator()\l+ ReadEvent()\l+ SetParameters()\l+ Print()\l+ Init()\l+ SetMom()\l+ SetId()\l+ SetHNLId()\l+ UseRandom1()\l+ UseRandom3()\l+ GetPythiaInstance()\l# ClassDefOverride()\l}">
<polygon fill="none" stroke="black" points="351.5,-0.5 351.5,-233.5 506.5,-233.5 506.5,-0.5 351.5,-0.5"/>
<text text-anchor="middle" x="429" y="-221.5" font-family="Helvetica,sans-Serif" font-size="10.00">o2::eventgen::Pythia8Generator</text>
<polyline fill="none" stroke="black" points="351.5,-214.5 506.5,-214.5 "/>
<text text-anchor="start" x="359.5" y="-202.5" font-family="Helvetica,sans-Serif" font-size="10.00"># mMom</text>
<text text-anchor="start" x="359.5" y="-191.5" font-family="Helvetica,sans-Serif" font-size="10.00"># mHNL</text>
<text text-anchor="start" x="359.5" y="-180.5" font-family="Helvetica,sans-Serif" font-size="10.00"># mId</text>
<text text-anchor="start" x="359.5" y="-169.5" font-family="Helvetica,sans-Serif" font-size="10.00"># mUseRandom1</text>
<text text-anchor="start" x="359.5" y="-158.5" font-family="Helvetica,sans-Serif" font-size="10.00"># mUseRandom3</text>
<polyline fill="none" stroke="black" points="351.5,-151.5 506.5,-151.5 "/>
<text text-anchor="start" x="359.5" y="-139.5" font-family="Helvetica,sans-Serif" font-size="10.00">+ Pythia8Generator()</text>
<text text-anchor="start" x="359.5" y="-128.5" font-family="Helvetica,sans-Serif" font-size="10.00">+ ~Pythia8Generator()</text>
<text text-anchor="start" x="359.5" y="-117.5" font-family="Helvetica,sans-Serif" font-size="10.00">+ ReadEvent()</text>
<text text-anchor="start" x="359.5" y="-106.5" font-family="Helvetica,sans-Serif" font-size="10.00">+ SetParameters()</text>
<text text-anchor="start" x="359.5" y="-95.5" font-family="Helvetica,sans-Serif" font-size="10.00">+ Print()</text>
<text text-anchor="start" x="359.5" y="-84.5" font-family="Helvetica,sans-Serif" font-size="10.00">+ Init()</text>
<text text-anchor="start" x="359.5" y="-73.5" font-family="Helvetica,sans-Serif" font-size="10.00">+ SetMom()</text>
<text text-anchor="start" x="359.5" y="-62.5" font-family="Helvetica,sans-Serif" font-size="10.00">+ SetId()</text>
<text text-anchor="start" x="359.5" y="-51.5" font-family="Helvetica,sans-Serif" font-size="10.00">+ SetHNLId()</text>
<text text-anchor="start" x="359.5" y="-40.5" font-family="Helvetica,sans-Serif" font-size="10.00">+ UseRandom1()</text>
<text text-anchor="start" x="359.5" y="-29.5" font-family="Helvetica,sans-Serif" font-size="10.00">+ UseRandom3()</text>
<text text-anchor="start" x="359.5" y="-18.5" font-family="Helvetica,sans-Serif" font-size="10.00">+ GetPythiaInstance()</text>
<text text-anchor="start" x="359.5" y="-7.5" font-family="Helvetica,sans-Serif" font-size="10.00"># ClassDefOverride()</text>
</a>
</g>
</g>
<!-- Node1&#45;&gt;Node4 -->
<g id="edge3" class="edge"><title>Node1&#45;&gt;Node4</title>
<path fill="none" stroke="midnightblue" d="M302.499,-267.168C315.898,-257.309 330.099,-245.857 342,-234 345.121,-230.891 348.222,-227.665 351.29,-224.352"/>
<polygon fill="none" stroke="midnightblue" points="300.351,-264.402 294.288,-273.09 304.446,-270.079 300.351,-264.402"/>
</g>
</g>
</svg>
