<?xml version="1.0" encoding="UTF-8" standalone="no"?>
<!DOCTYPE svg PUBLIC "-//W3C//DTD SVG 1.1//EN"
 "http://www.w3.org/Graphics/SVG/1.1/DTD/svg11.dtd">
<!-- Generated by graphviz version 2.36.0 (20140111.2315)
 -->
<!-- Title: /home/travis/build/AliceO2Group/AliceO2/Common/MathUtils/include/MathUtils/Chebyshev3DCalc.h Pages: 1 -->
<svg width="4492pt" height="500pt"
 viewBox="0.00 0.00 4492.00 500.00" xmlns="http://www.w3.org/2000/svg" xmlns:xlink="http://www.w3.org/1999/xlink">
<g id="graph0" class="graph" transform="scale(1 1) rotate(0) translate(4 496)">
<title>/home/travis/build/AliceO2Group/AliceO2/Common/MathUtils/include/MathUtils/Chebyshev3DCalc.h</title>
<!-- Node1 -->
<g id="node1" class="node"><title>Node1</title>
<polygon fill="#bfbfbf" stroke="black" points="2497.5,-439 2497.5,-491 2652.5,-491 2652.5,-439 2497.5,-439"/>
<text text-anchor="start" x="2505.5" y="-479" font-family="Helvetica,sans-Serif" font-size="10.00">/home/travis/build</text>
<text text-anchor="start" x="2505.5" y="-468" font-family="Helvetica,sans-Serif" font-size="10.00">/AliceO2Group/AliceO2</text>
<text text-anchor="start" x="2505.5" y="-457" font-family="Helvetica,sans-Serif" font-size="10.00">/Common/MathUtils/include</text>
<text text-anchor="middle" x="2575" y="-446" font-family="Helvetica,sans-Serif" font-size="10.00">/MathUtils/Chebyshev3DCalc.h</text>
</g>
<!-- Node2 -->
<g id="node2" class="node"><title>Node2</title>
<g id="a_node2"><a xlink:href="../../dd/dfb/MagneticWrapperChebyshev_8h.html" target="_top" xlink:title="/home/travis/build\l/AliceO2Group/AliceO2\l/Common/Field/include\l/Field/MagneticWrapperChebyshev.h">
<polygon fill="none" stroke="black" points="2348,-259 2348,-311 2526,-311 2526,-259 2348,-259"/>
<text text-anchor="start" x="2356" y="-299" font-family="Helvetica,sans-Serif" font-size="10.00">/home/travis/build</text>
<text text-anchor="start" x="2356" y="-288" font-family="Helvetica,sans-Serif" font-size="10.00">/AliceO2Group/AliceO2</text>
<text text-anchor="start" x="2356" y="-277" font-family="Helvetica,sans-Serif" font-size="10.00">/Common/Field/include</text>
<text text-anchor="middle" x="2437" y="-266" font-family="Helvetica,sans-Serif" font-size="10.00">/Field/MagneticWrapperChebyshev.h</text>
</a>
</g>
</g>
<!-- Node1&#45;&gt;Node2 -->
<g id="edge1" class="edge"><title>Node1&#45;&gt;Node2</title>
<path fill="none" stroke="midnightblue" d="M2488.23,-435.936C2473.01,-427.316 2458.9,-416.216 2449,-402 2430.37,-375.251 2430.43,-336.266 2433.04,-311.016"/>
<polygon fill="midnightblue" stroke="midnightblue" points="2486.82,-439.15 2497.3,-440.729 2490.09,-432.962 2486.82,-439.15"/>
</g>
<!-- Node35 -->
<g id="node35" class="node"><title>Node35</title>
<g id="a_node35"><a xlink:href="../../d8/d64/Chebyshev3D_8h.html" target="_top" xlink:title="/home/travis/build\l/AliceO2Group/AliceO2\l/Common/MathUtils/include\l/MathUtils/Chebyshev3D.h">
<polygon fill="none" stroke="black" points="2458,-349 2458,-401 2596,-401 2596,-349 2458,-349"/>
<text text-anchor="start" x="2466" y="-389" font-family="Helvetica,sans-Serif" font-size="10.00">/home/travis/build</text>
<text text-anchor="start" x="2466" y="-378" font-family="Helvetica,sans-Serif" font-size="10.00">/AliceO2Group/AliceO2</text>
<text text-anchor="start" x="2466" y="-367" font-family="Helvetica,sans-Serif" font-size="10.00">/Common/MathUtils/include</text>
<text text-anchor="middle" x="2527" y="-356" font-family="Helvetica,sans-Serif" font-size="10.00">/MathUtils/Chebyshev3D.h</text>
</a>
</g>
</g>
<!-- Node1&#45;&gt;Node35 -->
<g id="edge36" class="edge"><title>Node1&#45;&gt;Node35</title>
<path fill="none" stroke="midnightblue" d="M2556.27,-429.671C2551.08,-420.145 2545.54,-409.983 2540.69,-401.092"/>
<polygon fill="midnightblue" stroke="midnightblue" points="2553.26,-431.444 2561.12,-438.547 2559.4,-428.092 2553.26,-431.444"/>
</g>
<!-- Node36 -->
<g id="node36" class="node"><title>Node36</title>
<g id="a_node36"><a xlink:href="../../d8/d8d/Chebyshev3D_8cxx.html" target="_top" xlink:title="/home/travis/build\l/AliceO2Group/AliceO2\l/Common/MathUtils/src\l/Chebyshev3D.cxx">
<polygon fill="none" stroke="black" points="2556.5,-259 2556.5,-311 2677.5,-311 2677.5,-259 2556.5,-259"/>
<text text-anchor="start" x="2564.5" y="-299" font-family="Helvetica,sans-Serif" font-size="10.00">/home/travis/build</text>
<text text-anchor="start" x="2564.5" y="-288" font-family="Helvetica,sans-Serif" font-size="10.00">/AliceO2Group/AliceO2</text>
<text text-anchor="start" x="2564.5" y="-277" font-family="Helvetica,sans-Serif" font-size="10.00">/Common/MathUtils/src</text>
<text text-anchor="middle" x="2617" y="-266" font-family="Helvetica,sans-Serif" font-size="10.00">/Chebyshev3D.cxx</text>
</a>
</g>
</g>
<!-- Node1&#45;&gt;Node36 -->
<g id="edge39" class="edge"><title>Node1&#45;&gt;Node36</title>
<path fill="none" stroke="midnightblue" d="M2594.21,-429.683C2598.4,-420.893 2602.36,-411.292 2605,-402 2613.63,-371.619 2616.2,-335.189 2616.89,-311.365"/>
<polygon fill="midnightblue" stroke="midnightblue" points="2590.97,-428.34 2589.63,-438.85 2597.23,-431.467 2590.97,-428.34"/>
</g>
<!-- Node37 -->
<g id="node37" class="node"><title>Node37</title>
<g id="a_node37"><a xlink:href="../../d0/df2/Chebyshev3DCalc_8cxx.html" target="_top" xlink:title="/home/travis/build\l/AliceO2Group/AliceO2\l/Common/MathUtils/src\l/Chebyshev3DCalc.cxx">
<polygon fill="none" stroke="black" points="2652.5,-349 2652.5,-401 2773.5,-401 2773.5,-349 2652.5,-349"/>
<text text-anchor="start" x="2660.5" y="-389" font-family="Helvetica,sans-Serif" font-size="10.00">/home/travis/build</text>
<text text-anchor="start" x="2660.5" y="-378" font-family="Helvetica,sans-Serif" font-size="10.00">/AliceO2Group/AliceO2</text>
<text text-anchor="start" x="2660.5" y="-367" font-family="Helvetica,sans-Serif" font-size="10.00">/Common/MathUtils/src</text>
<text text-anchor="middle" x="2713" y="-356" font-family="Helvetica,sans-Serif" font-size="10.00">/Chebyshev3DCalc.cxx</text>
</a>
</g>
</g>
<!-- Node1&#45;&gt;Node37 -->
<g id="edge40" class="edge"><title>Node1&#45;&gt;Node37</title>
<path fill="none" stroke="midnightblue" d="M2622.98,-433.404C2639.46,-422.894 2657.71,-411.255 2673.45,-401.221"/>
<polygon fill="midnightblue" stroke="midnightblue" points="2621.1,-430.455 2614.55,-438.783 2624.86,-436.357 2621.1,-430.455"/>
</g>
<!-- Node3 -->
<g id="node3" class="node"><title>Node3</title>
<g id="a_node3"><a xlink:href="../../db/d4b/MagneticField_8h.html" target="_top" xlink:title="Definition of the MagF class. ">
<polygon fill="none" stroke="black" points="2295,-169 2295,-221 2413,-221 2413,-169 2295,-169"/>
<text text-anchor="start" x="2303" y="-209" font-family="Helvetica,sans-Serif" font-size="10.00">/home/travis/build</text>
<text text-anchor="start" x="2303" y="-198" font-family="Helvetica,sans-Serif" font-size="10.00">/AliceO2Group/AliceO2</text>
<text text-anchor="start" x="2303" y="-187" font-family="Helvetica,sans-Serif" font-size="10.00">/Common/Field/include</text>
<text text-anchor="middle" x="2354" y="-176" font-family="Helvetica,sans-Serif" font-size="10.00">/Field/MagneticField.h</text>
</a>
</g>
</g>
<!-- Node2&#45;&gt;Node3 -->
<g id="edge2" class="edge"><title>Node2&#45;&gt;Node3</title>
<path fill="none" stroke="midnightblue" d="M2406.01,-251.139C2396.63,-241.196 2386.48,-230.441 2377.67,-221.092"/>
<polygon fill="midnightblue" stroke="midnightblue" points="2403.59,-253.674 2412.99,-258.547 2408.68,-248.871 2403.59,-253.674"/>
</g>
<!-- Node34 -->
<g id="node34" class="node"><title>Node34</title>
<g id="a_node34"><a xlink:href="../../de/d97/MagneticWrapperChebyshev_8cxx.html" target="_top" xlink:title="/home/travis/build\l/AliceO2Group/AliceO2\l/Common/Field/src/MagneticWrapper\lChebyshev.cxx">
<polygon fill="none" stroke="black" points="2431.5,-169 2431.5,-221 2610.5,-221 2610.5,-169 2431.5,-169"/>
<text text-anchor="start" x="2439.5" y="-209" font-family="Helvetica,sans-Serif" font-size="10.00">/home/travis/build</text>
<text text-anchor="start" x="2439.5" y="-198" font-family="Helvetica,sans-Serif" font-size="10.00">/AliceO2Group/AliceO2</text>
<text text-anchor="start" x="2439.5" y="-187" font-family="Helvetica,sans-Serif" font-size="10.00">/Common/Field/src/MagneticWrapper</text>
<text text-anchor="middle" x="2521" y="-176" font-family="Helvetica,sans-Serif" font-size="10.00">Chebyshev.cxx</text>
</a>
</g>
</g>
<!-- Node2&#45;&gt;Node34 -->
<g id="edge35" class="edge"><title>Node2&#45;&gt;Node34</title>
<path fill="none" stroke="midnightblue" d="M2468.37,-251.139C2477.86,-241.196 2488.12,-230.441 2497.05,-221.092"/>
<polygon fill="midnightblue" stroke="midnightblue" points="2465.67,-248.896 2461.3,-258.547 2470.73,-253.73 2465.67,-248.896"/>
</g>
<!-- Node4 -->
<g id="node4" class="node"><title>Node4</title>
<g id="a_node4"><a xlink:href="../../da/d34/MagFieldFact_8h.html" target="_top" xlink:title="Definition of the MagFieldFact: factory for ALIDE mag. field from MagFieldParam. ">
<polygon fill="none" stroke="black" points="0,-79 0,-131 118,-131 118,-79 0,-79"/>
<text text-anchor="start" x="8" y="-119" font-family="Helvetica,sans-Serif" font-size="10.00">/home/travis/build</text>
<text text-anchor="start" x="8" y="-108" font-family="Helvetica,sans-Serif" font-size="10.00">/AliceO2Group/AliceO2</text>
<text text-anchor="start" x="8" y="-97" font-family="Helvetica,sans-Serif" font-size="10.00">/Common/Field/include</text>
<text text-anchor="middle" x="59" y="-86" font-family="Helvetica,sans-Serif" font-size="10.00">/Field/MagFieldFact.h</text>
</a>
</g>
</g>
<!-- Node3&#45;&gt;Node4 -->
<g id="edge3" class="edge"><title>Node3&#45;&gt;Node4</title>
<path fill="none" stroke="midnightblue" d="M2284.7,-193.359C1932.33,-189.927 347.572,-172.348 132,-132 127.504,-131.158 122.914,-130.082 118.336,-128.847"/>
<polygon fill="midnightblue" stroke="midnightblue" points="2284.73,-196.859 2294.77,-193.457 2284.8,-189.86 2284.73,-196.859"/>
</g>
<!-- Node5 -->
<g id="node5" class="node"><title>Node5</title>
<g id="a_node5"><a xlink:href="../../d0/dec/MagFieldFact_8cxx.html" target="_top" xlink:title="/home/travis/build\l/AliceO2Group/AliceO2\l/Common/Field/src/MagFieldFact.cxx">
<polygon fill="none" stroke="black" points="12.5,-0.5 12.5,-41.5 193.5,-41.5 193.5,-0.5 12.5,-0.5"/>
<text text-anchor="start" x="20.5" y="-29.5" font-family="Helvetica,sans-Serif" font-size="10.00">/home/travis/build</text>
<text text-anchor="start" x="20.5" y="-18.5" font-family="Helvetica,sans-Serif" font-size="10.00">/AliceO2Group/AliceO2</text>
<text text-anchor="middle" x="103" y="-7.5" font-family="Helvetica,sans-Serif" font-size="10.00">/Common/Field/src/MagFieldFact.cxx</text>
</a>
</g>
</g>
<!-- Node3&#45;&gt;Node5 -->
<g id="edge5" class="edge"><title>Node3&#45;&gt;Node5</title>
<path fill="none" stroke="midnightblue" d="M2284.77,-193.947C1922.48,-193.428 257.795,-187.995 165,-132 147.92,-121.693 123.789,-70.444 111.265,-41.6766"/>
<polygon fill="midnightblue" stroke="midnightblue" points="2284.85,-197.447 2294.86,-193.96 2284.86,-190.447 2284.85,-197.447"/>
</g>
<!-- Node6 -->
<g id="node6" class="node"><title>Node6</title>
<g id="a_node6"><a xlink:href="../../df/d54/MagFieldParam_8cxx.html" target="_top" xlink:title="Implementation of the MagFieldParam class. ">
<polygon fill="none" stroke="black" points="174,-84.5 174,-125.5 364,-125.5 364,-84.5 174,-84.5"/>
<text text-anchor="start" x="182" y="-113.5" font-family="Helvetica,sans-Serif" font-size="10.00">/home/travis/build</text>
<text text-anchor="start" x="182" y="-102.5" font-family="Helvetica,sans-Serif" font-size="10.00">/AliceO2Group/AliceO2</text>
<text text-anchor="middle" x="269" y="-91.5" font-family="Helvetica,sans-Serif" font-size="10.00">/Common/Field/src/MagFieldParam.cxx</text>
</a>
</g>
</g>
<!-- Node3&#45;&gt;Node6 -->
<g id="edge6" class="edge"><title>Node3&#45;&gt;Node6</title>
<path fill="none" stroke="midnightblue" d="M2284.58,-193.815C1979.22,-192.698 753.795,-184.937 373,-132 361.755,-130.437 349.964,-128.142 338.526,-125.554"/>
<polygon fill="midnightblue" stroke="midnightblue" points="2284.62,-197.315 2294.63,-193.851 2284.64,-190.315 2284.62,-197.315"/>
</g>
<!-- Node7 -->
<g id="node7" class="node"><title>Node7</title>
<g id="a_node7"><a xlink:href="../../d2/d78/MagneticField_8cxx.html" target="_top" xlink:title="/home/travis/build\l/AliceO2Group/AliceO2\l/Common/Field/src/MagneticField.cxx">
<polygon fill="none" stroke="black" points="382,-84.5 382,-125.5 564,-125.5 564,-84.5 382,-84.5"/>
<text text-anchor="start" x="390" y="-113.5" font-family="Helvetica,sans-Serif" font-size="10.00">/home/travis/build</text>
<text text-anchor="start" x="390" y="-102.5" font-family="Helvetica,sans-Serif" font-size="10.00">/AliceO2Group/AliceO2</text>
<text text-anchor="middle" x="473" y="-91.5" font-family="Helvetica,sans-Serif" font-size="10.00">/Common/Field/src/MagneticField.cxx</text>
</a>
</g>
</g>
<!-- Node3&#45;&gt;Node7 -->
<g id="edge7" class="edge"><title>Node3&#45;&gt;Node7</title>
<path fill="none" stroke="midnightblue" d="M2284.68,-193.619C1999.04,-191.734 912.281,-181.399 573,-132 562.172,-130.423 550.826,-128.122 539.824,-125.531"/>
<polygon fill="midnightblue" stroke="midnightblue" points="2284.88,-197.12 2294.9,-193.685 2284.92,-190.12 2284.88,-197.12"/>
</g>
<!-- Node8 -->
<g id="node8" class="node"><title>Node8</title>
<g id="a_node8"><a xlink:href="../../d6/dda/testMagneticField_8cxx.html" target="_top" xlink:title="/home/travis/build\l/AliceO2Group/AliceO2\l/Common/Field/test/testMagnetic\lField.cxx">
<polygon fill="none" stroke="black" points="582,-79 582,-131 744,-131 744,-79 582,-79"/>
<text text-anchor="start" x="590" y="-119" font-family="Helvetica,sans-Serif" font-size="10.00">/home/travis/build</text>
<text text-anchor="start" x="590" y="-108" font-family="Helvetica,sans-Serif" font-size="10.00">/AliceO2Group/AliceO2</text>
<text text-anchor="start" x="590" y="-97" font-family="Helvetica,sans-Serif" font-size="10.00">/Common/Field/test/testMagnetic</text>
<text text-anchor="middle" x="663" y="-86" font-family="Helvetica,sans-Serif" font-size="10.00">Field.cxx</text>
</a>
</g>
</g>
<!-- Node3&#45;&gt;Node8 -->
<g id="edge8" class="edge"><title>Node3&#45;&gt;Node8</title>
<path fill="none" stroke="midnightblue" d="M2284.27,-193.546C2016.54,-191.454 1054.47,-180.642 753,-132 750.11,-131.534 747.181,-131.004 744.234,-130.423"/>
<polygon fill="midnightblue" stroke="midnightblue" points="2284.6,-197.048 2294.62,-193.625 2284.65,-190.049 2284.6,-197.048"/>
</g>
<!-- Node9 -->
<g id="node9" class="node"><title>Node9</title>
<g id="a_node9"><a xlink:href="../../d3/dee/Base_2src_2Detector_8cxx.html" target="_top" xlink:title="/home/travis/build\l/AliceO2Group/AliceO2\l/Detectors/Base/src/Detector.cxx">
<polygon fill="none" stroke="black" points="762,-84.5 762,-125.5 926,-125.5 926,-84.5 762,-84.5"/>
<text text-anchor="start" x="770" y="-113.5" font-family="Helvetica,sans-Serif" font-size="10.00">/home/travis/build</text>
<text text-anchor="start" x="770" y="-102.5" font-family="Helvetica,sans-Serif" font-size="10.00">/AliceO2Group/AliceO2</text>
<text text-anchor="middle" x="844" y="-91.5" font-family="Helvetica,sans-Serif" font-size="10.00">/Detectors/Base/src/Detector.cxx</text>
</a>
</g>
</g>
<!-- Node3&#45;&gt;Node9 -->
<g id="edge9" class="edge"><title>Node3&#45;&gt;Node9</title>
<path fill="none" stroke="midnightblue" d="M2284.49,-193.12C2037.01,-189.649 1199.4,-174.935 935,-132 925.269,-130.42 915.101,-128.152 905.234,-125.606"/>
<polygon fill="midnightblue" stroke="midnightblue" points="2284.74,-196.623 2294.79,-193.262 2284.84,-189.624 2284.74,-196.623"/>
</g>
<!-- Node10 -->
<g id="node10" class="node"><title>Node10</title>
<g id="a_node10"><a xlink:href="../../d8/dee/Propagator_8cxx.html" target="_top" xlink:title="/home/travis/build\l/AliceO2Group/AliceO2\l/Detectors/Base/src/Propagator.cxx">
<polygon fill="none" stroke="black" points="944.5,-84.5 944.5,-125.5 1117.5,-125.5 1117.5,-84.5 944.5,-84.5"/>
<text text-anchor="start" x="952.5" y="-113.5" font-family="Helvetica,sans-Serif" font-size="10.00">/home/travis/build</text>
<text text-anchor="start" x="952.5" y="-102.5" font-family="Helvetica,sans-Serif" font-size="10.00">/AliceO2Group/AliceO2</text>
<text text-anchor="middle" x="1031" y="-91.5" font-family="Helvetica,sans-Serif" font-size="10.00">/Detectors/Base/src/Propagator.cxx</text>
</a>
</g>
</g>
<!-- Node3&#45;&gt;Node10 -->
<g id="edge10" class="edge"><title>Node3&#45;&gt;Node10</title>
<path fill="none" stroke="midnightblue" d="M2284.61,-192.447C2059.75,-187.107 1352.62,-167.829 1127,-132 1116.77,-130.375 1106.06,-128.084 1095.66,-125.527"/>
<polygon fill="midnightblue" stroke="midnightblue" points="2284.56,-195.947 2294.64,-192.683 2284.72,-188.949 2284.56,-195.947"/>
</g>
<!-- Node11 -->
<g id="node11" class="node"><title>Node11</title>
<g id="a_node11"><a xlink:href="../../d3/d85/Detectors_2EMCAL_2testsimulation_2run__sim__emcal_8C.html" target="_top" xlink:title="/home/travis/build\l/AliceO2Group/AliceO2\l/Detectors/EMCAL/testsimulation\l/run_sim_emcal.C">
<polygon fill="none" stroke="black" points="1136,-79 1136,-131 1300,-131 1300,-79 1136,-79"/>
<text text-anchor="start" x="1144" y="-119" font-family="Helvetica,sans-Serif" font-size="10.00">/home/travis/build</text>
<text text-anchor="start" x="1144" y="-108" font-family="Helvetica,sans-Serif" font-size="10.00">/AliceO2Group/AliceO2</text>
<text text-anchor="start" x="1144" y="-97" font-family="Helvetica,sans-Serif" font-size="10.00">/Detectors/EMCAL/testsimulation</text>
<text text-anchor="middle" x="1218" y="-86" font-family="Helvetica,sans-Serif" font-size="10.00">/run_sim_emcal.C</text>
</a>
</g>
</g>
<!-- Node3&#45;&gt;Node11 -->
<g id="edge11" class="edge"><title>Node3&#45;&gt;Node11</title>
<path fill="none" stroke="midnightblue" d="M2284.83,-191.874C2083.07,-185.359 1497.65,-164.145 1309,-132 1306.08,-131.503 1303.13,-130.948 1300.15,-130.344"/>
<polygon fill="midnightblue" stroke="midnightblue" points="2284.89,-195.378 2295,-192.2 2285.12,-188.381 2284.89,-195.378"/>
</g>
<!-- Node12 -->
<g id="node12" class="node"><title>Node12</title>
<g id="a_node12"><a xlink:href="../../dc/d59/MatchTPCITS_8cxx.html" target="_top" xlink:title="/home/travis/build\l/AliceO2Group/AliceO2\l/Detectors/GlobalTracking\l/src/MatchTPCITS.cxx">
<polygon fill="none" stroke="black" points="1318.5,-79 1318.5,-131 1449.5,-131 1449.5,-79 1318.5,-79"/>
<text text-anchor="start" x="1326.5" y="-119" font-family="Helvetica,sans-Serif" font-size="10.00">/home/travis/build</text>
<text text-anchor="start" x="1326.5" y="-108" font-family="Helvetica,sans-Serif" font-size="10.00">/AliceO2Group/AliceO2</text>
<text text-anchor="start" x="1326.5" y="-97" font-family="Helvetica,sans-Serif" font-size="10.00">/Detectors/GlobalTracking</text>
<text text-anchor="middle" x="1384" y="-86" font-family="Helvetica,sans-Serif" font-size="10.00">/src/MatchTPCITS.cxx</text>
</a>
</g>
</g>
<!-- Node3&#45;&gt;Node12 -->
<g id="edge12" class="edge"><title>Node3&#45;&gt;Node12</title>
<path fill="none" stroke="midnightblue" d="M2284.53,-191.562C2102.82,-184.807 1616.65,-164.193 1459,-132 1455.89,-131.366 1452.74,-130.636 1449.57,-129.832"/>
<polygon fill="midnightblue" stroke="midnightblue" points="2284.64,-195.069 2294.76,-191.94 2284.9,-188.074 2284.64,-195.069"/>
</g>
<!-- Node13 -->
<g id="node13" class="node"><title>Node13</title>
<g id="a_node13"><a xlink:href="../../d7/dca/CookedTracker_8cxx.html" target="_top" xlink:title="Implementation of the &quot;Cooked Matrix&quot; ITS tracker. ">
<polygon fill="none" stroke="black" points="1468,-79 1468,-131 1654,-131 1654,-79 1468,-79"/>
<text text-anchor="start" x="1476" y="-119" font-family="Helvetica,sans-Serif" font-size="10.00">/home/travis/build</text>
<text text-anchor="start" x="1476" y="-108" font-family="Helvetica,sans-Serif" font-size="10.00">/AliceO2Group/AliceO2</text>
<text text-anchor="start" x="1476" y="-97" font-family="Helvetica,sans-Serif" font-size="10.00">/Detectors/ITSMFT/ITS</text>
<text text-anchor="middle" x="1561" y="-86" font-family="Helvetica,sans-Serif" font-size="10.00">/reconstruction/src/CookedTracker.cxx</text>
</a>
</g>
</g>
<!-- Node3&#45;&gt;Node13 -->
<g id="edge13" class="edge"><title>Node3&#45;&gt;Node13</title>
<path fill="none" stroke="midnightblue" d="M2284.59,-191.515C2159.38,-186.207 1887.74,-170.903 1662,-132 1659.41,-131.554 1656.79,-131.075 1654.16,-130.569"/>
<polygon fill="midnightblue" stroke="midnightblue" points="2284.66,-195.021 2294.8,-191.94 2284.95,-188.027 2284.66,-195.021"/>
</g>
<!-- Node14 -->
<g id="node14" class="node"><title>Node14</title>
<g id="a_node14"><a xlink:href="../../dd/d56/run__simu_8C.html" target="_top" xlink:title="/home/travis/build\l/AliceO2Group/AliceO2\l/Detectors/ITSMFT/MFT\l/macros/run_simu.C">
<polygon fill="none" stroke="black" points="1671.5,-79 1671.5,-131 1796.5,-131 1796.5,-79 1671.5,-79"/>
<text text-anchor="start" x="1679.5" y="-119" font-family="Helvetica,sans-Serif" font-size="10.00">/home/travis/build</text>
<text text-anchor="start" x="1679.5" y="-108" font-family="Helvetica,sans-Serif" font-size="10.00">/AliceO2Group/AliceO2</text>
<text text-anchor="start" x="1679.5" y="-97" font-family="Helvetica,sans-Serif" font-size="10.00">/Detectors/ITSMFT/MFT</text>
<text text-anchor="middle" x="1734" y="-86" font-family="Helvetica,sans-Serif" font-size="10.00">/macros/run_simu.C</text>
</a>
</g>
</g>
<!-- Node3&#45;&gt;Node14 -->
<g id="edge14" class="edge"><title>Node3&#45;&gt;Node14</title>
<path fill="none" stroke="midnightblue" d="M2284.7,-191.349C2179.85,-186.177 1975.18,-171.541 1806,-132 1802.89,-131.274 1799.74,-130.456 1796.57,-129.569"/>
<polygon fill="midnightblue" stroke="midnightblue" points="2284.68,-194.852 2294.84,-191.834 2285.02,-187.86 2284.68,-194.852"/>
</g>
<!-- Node15 -->
<g id="node15" class="node"><title>Node15</title>
<g id="a_node15"><a xlink:href="../../d0/d6b/ITSMFT_2MFT_2simulation_2src_2Detector_8cxx.html" target="_top" xlink:title="/home/travis/build\l/AliceO2Group/AliceO2\l/Detectors/ITSMFT/MFT\l/simulation/src/Detector.cxx">
<polygon fill="none" stroke="black" points="1815,-79 1815,-131 1955,-131 1955,-79 1815,-79"/>
<text text-anchor="start" x="1823" y="-119" font-family="Helvetica,sans-Serif" font-size="10.00">/home/travis/build</text>
<text text-anchor="start" x="1823" y="-108" font-family="Helvetica,sans-Serif" font-size="10.00">/AliceO2Group/AliceO2</text>
<text text-anchor="start" x="1823" y="-97" font-family="Helvetica,sans-Serif" font-size="10.00">/Detectors/ITSMFT/MFT</text>
<text text-anchor="middle" x="1885" y="-86" font-family="Helvetica,sans-Serif" font-size="10.00">/simulation/src/Detector.cxx</text>
</a>
</g>
</g>
<!-- Node3&#45;&gt;Node15 -->
<g id="edge15" class="edge"><title>Node3&#45;&gt;Node15</title>
<path fill="none" stroke="midnightblue" d="M2284.7,-186.388C2206.2,-176.981 2074.79,-158.855 1964,-132 1961.05,-131.286 1958.06,-130.514 1955.04,-129.698"/>
<polygon fill="midnightblue" stroke="midnightblue" points="2284.6,-189.901 2294.95,-187.602 2285.43,-182.95 2284.6,-189.901"/>
</g>
<!-- Node16 -->
<g id="node16" class="node"><title>Node16</title>
<g id="a_node16"><a xlink:href="../../de/da5/FrameStructure_8cxx.html" target="_top" xlink:title="/home/travis/build\l/AliceO2Group/AliceO2\l/Detectors/Passive/src\l/FrameStructure.cxx">
<polygon fill="none" stroke="black" points="1973,-79 1973,-131 2091,-131 2091,-79 1973,-79"/>
<text text-anchor="start" x="1981" y="-119" font-family="Helvetica,sans-Serif" font-size="10.00">/home/travis/build</text>
<text text-anchor="start" x="1981" y="-108" font-family="Helvetica,sans-Serif" font-size="10.00">/AliceO2Group/AliceO2</text>
<text text-anchor="start" x="1981" y="-97" font-family="Helvetica,sans-Serif" font-size="10.00">/Detectors/Passive/src</text>
<text text-anchor="middle" x="2032" y="-86" font-family="Helvetica,sans-Serif" font-size="10.00">/FrameStructure.cxx</text>
</a>
</g>
</g>
<!-- Node3&#45;&gt;Node16 -->
<g id="edge16" class="edge"><title>Node3&#45;&gt;Node16</title>
<path fill="none" stroke="midnightblue" d="M2284.9,-179.601C2233.46,-168.287 2161.75,-151.258 2100,-132 2097.1,-131.097 2094.15,-130.135 2091.18,-129.132"/>
<polygon fill="midnightblue" stroke="midnightblue" points="2284.4,-183.073 2294.91,-181.787 2285.89,-176.234 2284.4,-183.073"/>
</g>
<!-- Node17 -->
<g id="node17" class="node"><title>Node17</title>
<g id="a_node17"><a xlink:href="../../d5/d3a/run__sim__phos_8C.html" target="_top" xlink:title="/home/travis/build\l/AliceO2Group/AliceO2\l/Detectors/PHOS/testsimulation\l/run_sim_phos.C">
<polygon fill="none" stroke="black" points="2109,-79 2109,-131 2267,-131 2267,-79 2109,-79"/>
<text text-anchor="start" x="2117" y="-119" font-family="Helvetica,sans-Serif" font-size="10.00">/home/travis/build</text>
<text text-anchor="start" x="2117" y="-108" font-family="Helvetica,sans-Serif" font-size="10.00">/AliceO2Group/AliceO2</text>
<text text-anchor="start" x="2117" y="-97" font-family="Helvetica,sans-Serif" font-size="10.00">/Detectors/PHOS/testsimulation</text>
<text text-anchor="middle" x="2188" y="-86" font-family="Helvetica,sans-Serif" font-size="10.00">/run_sim_phos.C</text>
</a>
</g>
</g>
<!-- Node3&#45;&gt;Node17 -->
<g id="edge17" class="edge"><title>Node3&#45;&gt;Node17</title>
<path fill="none" stroke="midnightblue" d="M2297.33,-163.96C2277.14,-153.253 2254.62,-141.315 2235.29,-131.069"/>
<polygon fill="midnightblue" stroke="midnightblue" points="2295.96,-167.191 2306.43,-168.783 2299.24,-161.007 2295.96,-167.191"/>
</g>
<!-- Node18 -->
<g id="node18" class="node"><title>Node18</title>
<g id="a_node18"><a xlink:href="../../dd/d2b/o2__sim__its__ALP3_8cxx.html" target="_top" xlink:title="/home/travis/build\l/AliceO2Group/AliceO2\l/Framework/TestWorkflows\l/src/o2_sim_its_ALP3.cxx">
<polygon fill="none" stroke="black" points="2285.5,-79 2285.5,-131 2422.5,-131 2422.5,-79 2285.5,-79"/>
<text text-anchor="start" x="2293.5" y="-119" font-family="Helvetica,sans-Serif" font-size="10.00">/home/travis/build</text>
<text text-anchor="start" x="2293.5" y="-108" font-family="Helvetica,sans-Serif" font-size="10.00">/AliceO2Group/AliceO2</text>
<text text-anchor="start" x="2293.5" y="-97" font-family="Helvetica,sans-Serif" font-size="10.00">/Framework/TestWorkflows</text>
<text text-anchor="middle" x="2354" y="-86" font-family="Helvetica,sans-Serif" font-size="10.00">/src/o2_sim_its_ALP3.cxx</text>
</a>
</g>
</g>
<!-- Node3&#45;&gt;Node18 -->
<g id="edge18" class="edge"><title>Node3&#45;&gt;Node18</title>
<path fill="none" stroke="midnightblue" d="M2354,-158.489C2354,-149.309 2354,-139.616 2354,-131.092"/>
<polygon fill="midnightblue" stroke="midnightblue" points="2350.5,-158.547 2354,-168.547 2357.5,-158.547 2350.5,-158.547"/>
</g>
<!-- Node19 -->
<g id="node19" class="node"><title>Node19</title>
<g id="a_node19"><a xlink:href="../../d7/d11/o2__sim__tpc_8cxx.html" target="_top" xlink:title="/home/travis/build\l/AliceO2Group/AliceO2\l/Framework/TestWorkflows\l/src/o2_sim_tpc.cxx">
<polygon fill="none" stroke="black" points="2440.5,-79 2440.5,-131 2577.5,-131 2577.5,-79 2440.5,-79"/>
<text text-anchor="start" x="2448.5" y="-119" font-family="Helvetica,sans-Serif" font-size="10.00">/home/travis/build</text>
<text text-anchor="start" x="2448.5" y="-108" font-family="Helvetica,sans-Serif" font-size="10.00">/AliceO2Group/AliceO2</text>
<text text-anchor="start" x="2448.5" y="-97" font-family="Helvetica,sans-Serif" font-size="10.00">/Framework/TestWorkflows</text>
<text text-anchor="middle" x="2509" y="-86" font-family="Helvetica,sans-Serif" font-size="10.00">/src/o2_sim_tpc.cxx</text>
</a>
</g>
</g>
<!-- Node3&#45;&gt;Node19 -->
<g id="edge19" class="edge"><title>Node3&#45;&gt;Node19</title>
<path fill="none" stroke="midnightblue" d="M2407.17,-163.815C2425.96,-153.145 2446.88,-141.268 2464.84,-131.069"/>
<polygon fill="midnightblue" stroke="midnightblue" points="2405.38,-160.802 2398.42,-168.783 2408.84,-166.889 2405.38,-160.802"/>
</g>
<!-- Node20 -->
<g id="node20" class="node"><title>Node20</title>
<g id="a_node20"><a xlink:href="../../d0/d17/initSimGeomAndField_8C.html" target="_top" xlink:title="/home/travis/build\l/AliceO2Group/AliceO2\l/macro/initSimGeomAndField.C">
<polygon fill="none" stroke="black" points="2595.5,-84.5 2595.5,-125.5 2750.5,-125.5 2750.5,-84.5 2595.5,-84.5"/>
<text text-anchor="start" x="2603.5" y="-113.5" font-family="Helvetica,sans-Serif" font-size="10.00">/home/travis/build</text>
<text text-anchor="start" x="2603.5" y="-102.5" font-family="Helvetica,sans-Serif" font-size="10.00">/AliceO2Group/AliceO2</text>
<text text-anchor="middle" x="2673" y="-91.5" font-family="Helvetica,sans-Serif" font-size="10.00">/macro/initSimGeomAndField.C</text>
</a>
</g>
</g>
<!-- Node3&#45;&gt;Node20 -->
<g id="edge20" class="edge"><title>Node3&#45;&gt;Node20</title>
<path fill="none" stroke="midnightblue" d="M2423.19,-167.821C2495.33,-146.924 2516.86,-149.893 2586,-132 2593.63,-130.025 2601.6,-127.83 2609.48,-125.576"/>
<polygon fill="midnightblue" stroke="midnightblue" points="2421.76,-164.595 2413.16,-170.784 2423.74,-171.308 2421.76,-164.595"/>
</g>
<!-- Node21 -->
<g id="node21" class="node"><title>Node21</title>
<g id="a_node21"><a xlink:href="../../d3/db7/run__digi__tpc_8C.html" target="_top" xlink:title="/home/travis/build\l/AliceO2Group/AliceO2\l/macro/run_digi_tpc.C">
<polygon fill="none" stroke="black" points="2769,-84.5 2769,-125.5 2887,-125.5 2887,-84.5 2769,-84.5"/>
<text text-anchor="start" x="2777" y="-113.5" font-family="Helvetica,sans-Serif" font-size="10.00">/home/travis/build</text>
<text text-anchor="start" x="2777" y="-102.5" font-family="Helvetica,sans-Serif" font-size="10.00">/AliceO2Group/AliceO2</text>
<text text-anchor="middle" x="2828" y="-91.5" font-family="Helvetica,sans-Serif" font-size="10.00">/macro/run_digi_tpc.C</text>
</a>
</g>
</g>
<!-- Node3&#45;&gt;Node21 -->
<g id="edge21" class="edge"><title>Node3&#45;&gt;Node21</title>
<path fill="none" stroke="midnightblue" d="M2422.92,-168.064C2570.4,-134.238 2615.6,-166.089 2759,-132 2766.22,-130.283 2773.72,-128.009 2780.98,-125.519"/>
<polygon fill="midnightblue" stroke="midnightblue" points="2421.98,-164.688 2413.05,-170.389 2423.59,-171.502 2421.98,-164.688"/>
</g>
<!-- Node23 -->
<g id="node23" class="node"><title>Node23</title>
<g id="a_node23"><a xlink:href="../../d9/d84/run__match__TPCITS_8C.html" target="_top" xlink:title="/home/travis/build\l/AliceO2Group/AliceO2\l/macro/run_match_TPCITS.C">
<polygon fill="none" stroke="black" points="2905.5,-84.5 2905.5,-125.5 3052.5,-125.5 3052.5,-84.5 2905.5,-84.5"/>
<text text-anchor="start" x="2913.5" y="-113.5" font-family="Helvetica,sans-Serif" font-size="10.00">/home/travis/build</text>
<text text-anchor="start" x="2913.5" y="-102.5" font-family="Helvetica,sans-Serif" font-size="10.00">/AliceO2Group/AliceO2</text>
<text text-anchor="middle" x="2979" y="-91.5" font-family="Helvetica,sans-Serif" font-size="10.00">/macro/run_match_TPCITS.C</text>
</a>
</g>
</g>
<!-- Node3&#45;&gt;Node23 -->
<g id="edge23" class="edge"><title>Node3&#45;&gt;Node23</title>
<path fill="none" stroke="midnightblue" d="M2423,-168.076C2630.08,-123.332 2691.76,-171.214 2896,-132 2904.75,-130.32 2913.87,-128.034 2922.74,-125.509"/>
<polygon fill="midnightblue" stroke="midnightblue" points="2422.04,-164.704 2413.03,-170.277 2423.55,-171.539 2422.04,-164.704"/>
</g>
<!-- Node24 -->
<g id="node24" class="node"><title>Node24</title>
<g id="a_node24"><a xlink:href="../../d9/d71/run__sim_8C.html" target="_top" xlink:title="/home/travis/build\l/AliceO2Group/AliceO2\l/macro/run_sim.C">
<polygon fill="none" stroke="black" points="3071,-84.5 3071,-125.5 3189,-125.5 3189,-84.5 3071,-84.5"/>
<text text-anchor="start" x="3079" y="-113.5" font-family="Helvetica,sans-Serif" font-size="10.00">/home/travis/build</text>
<text text-anchor="start" x="3079" y="-102.5" font-family="Helvetica,sans-Serif" font-size="10.00">/AliceO2Group/AliceO2</text>
<text text-anchor="middle" x="3130" y="-91.5" font-family="Helvetica,sans-Serif" font-size="10.00">/macro/run_sim.C</text>
</a>
</g>
</g>
<!-- Node3&#45;&gt;Node24 -->
<g id="edge24" class="edge"><title>Node3&#45;&gt;Node24</title>
<path fill="none" stroke="midnightblue" d="M2423.02,-168.096C2702.12,-110.408 2785.96,-190.139 3061,-132 3068.51,-130.411 3076.3,-128.139 3083.81,-125.591"/>
<polygon fill="midnightblue" stroke="midnightblue" points="2422.07,-164.718 2413.01,-170.206 2423.52,-171.568 2422.07,-164.718"/>
</g>
<!-- Node25 -->
<g id="node25" class="node"><title>Node25</title>
<g id="a_node25"><a xlink:href="../../db/df3/macro_2run__sim__emcal_8C.html" target="_top" xlink:title="/home/travis/build\l/AliceO2Group/AliceO2\l/macro/run_sim_emcal.C">
<polygon fill="none" stroke="black" points="3207,-84.5 3207,-125.5 3333,-125.5 3333,-84.5 3207,-84.5"/>
<text text-anchor="start" x="3215" y="-113.5" font-family="Helvetica,sans-Serif" font-size="10.00">/home/travis/build</text>
<text text-anchor="start" x="3215" y="-102.5" font-family="Helvetica,sans-Serif" font-size="10.00">/AliceO2Group/AliceO2</text>
<text text-anchor="middle" x="3270" y="-91.5" font-family="Helvetica,sans-Serif" font-size="10.00">/macro/run_sim_emcal.C</text>
</a>
</g>
</g>
<!-- Node3&#45;&gt;Node25 -->
<g id="edge25" class="edge"><title>Node3&#45;&gt;Node25</title>
<path fill="none" stroke="midnightblue" d="M2422.85,-168.14C2761.89,-99.3786 2862.61,-198.749 3198,-132 3205.95,-130.418 3214.2,-128.113 3222.16,-125.52"/>
<polygon fill="midnightblue" stroke="midnightblue" points="2422.09,-164.722 2413,-170.17 2423.5,-171.578 2422.09,-164.722"/>
</g>
<!-- Node26 -->
<g id="node26" class="node"><title>Node26</title>
<g id="a_node26"><a xlink:href="../../d5/dd2/run__sim__its__ALP3_8C.html" target="_top" xlink:title="/home/travis/build\l/AliceO2Group/AliceO2\l/macro/run_sim_its_ALP3.C">
<polygon fill="none" stroke="black" points="3351,-84.5 3351,-125.5 3491,-125.5 3491,-84.5 3351,-84.5"/>
<text text-anchor="start" x="3359" y="-113.5" font-family="Helvetica,sans-Serif" font-size="10.00">/home/travis/build</text>
<text text-anchor="start" x="3359" y="-102.5" font-family="Helvetica,sans-Serif" font-size="10.00">/AliceO2Group/AliceO2</text>
<text text-anchor="middle" x="3421" y="-91.5" font-family="Helvetica,sans-Serif" font-size="10.00">/macro/run_sim_its_ALP3.C</text>
</a>
</g>
</g>
<!-- Node3&#45;&gt;Node26 -->
<g id="edge26" class="edge"><title>Node3&#45;&gt;Node26</title>
<path fill="none" stroke="midnightblue" d="M2423.22,-168.047C2824.76,-87.742 2942.55,-204.082 3342,-132 3350.67,-130.436 3359.69,-128.141 3368.41,-125.552"/>
<polygon fill="midnightblue" stroke="midnightblue" points="2422.48,-164.624 2413.37,-170.042 2423.87,-171.485 2422.48,-164.624"/>
</g>
<!-- Node27 -->
<g id="node27" class="node"><title>Node27</title>
<g id="a_node27"><a xlink:href="../../d4/d5f/run__sim__mft_8C.html" target="_top" xlink:title="/home/travis/build\l/AliceO2Group/AliceO2\l/macro/run_sim_mft.C">
<polygon fill="none" stroke="black" points="3509,-84.5 3509,-125.5 3627,-125.5 3627,-84.5 3509,-84.5"/>
<text text-anchor="start" x="3517" y="-113.5" font-family="Helvetica,sans-Serif" font-size="10.00">/home/travis/build</text>
<text text-anchor="start" x="3517" y="-102.5" font-family="Helvetica,sans-Serif" font-size="10.00">/AliceO2Group/AliceO2</text>
<text text-anchor="middle" x="3568" y="-91.5" font-family="Helvetica,sans-Serif" font-size="10.00">/macro/run_sim_mft.C</text>
</a>
</g>
</g>
<!-- Node3&#45;&gt;Node27 -->
<g id="edge27" class="edge"><title>Node3&#45;&gt;Node27</title>
<path fill="none" stroke="midnightblue" d="M2423.48,-168.001C2893.86,-75.2604 3033.44,-226.233 3500,-132 3507.56,-130.474 3515.37,-128.198 3522.9,-125.618"/>
<polygon fill="midnightblue" stroke="midnightblue" points="2422.49,-164.63 2413.37,-170.022 2423.86,-171.494 2422.49,-164.63"/>
</g>
<!-- Node28 -->
<g id="node28" class="node"><title>Node28</title>
<g id="a_node28"><a xlink:href="../../d3/dcc/run__sim__pythia8hi_8C.html" target="_top" xlink:title="/home/travis/build\l/AliceO2Group/AliceO2\l/macro/run_sim_pythia8hi.C">
<polygon fill="none" stroke="black" points="3645.5,-84.5 3645.5,-125.5 3784.5,-125.5 3784.5,-84.5 3645.5,-84.5"/>
<text text-anchor="start" x="3653.5" y="-113.5" font-family="Helvetica,sans-Serif" font-size="10.00">/home/travis/build</text>
<text text-anchor="start" x="3653.5" y="-102.5" font-family="Helvetica,sans-Serif" font-size="10.00">/AliceO2Group/AliceO2</text>
<text text-anchor="middle" x="3715" y="-91.5" font-family="Helvetica,sans-Serif" font-size="10.00">/macro/run_sim_pythia8hi.C</text>
</a>
</g>
</g>
<!-- Node3&#45;&gt;Node28 -->
<g id="edge28" class="edge"><title>Node3&#45;&gt;Node28</title>
<path fill="none" stroke="midnightblue" d="M2423.56,-168.049C2703.28,-116.598 3373.41,-178.102 3636,-132 3644.68,-130.477 3653.7,-128.203 3662.42,-125.624"/>
<polygon fill="midnightblue" stroke="midnightblue" points="2422.53,-164.683 2413.37,-170.009 2423.85,-171.557 2422.53,-164.683"/>
</g>
<!-- Node29 -->
<g id="node29" class="node"><title>Node29</title>
<g id="a_node29"><a xlink:href="../../dc/d6a/run__sim__tof_8C.html" target="_top" xlink:title="/home/travis/build\l/AliceO2Group/AliceO2\l/macro/run_sim_tof.C">
<polygon fill="none" stroke="black" points="3803,-84.5 3803,-125.5 3921,-125.5 3921,-84.5 3803,-84.5"/>
<text text-anchor="start" x="3811" y="-113.5" font-family="Helvetica,sans-Serif" font-size="10.00">/home/travis/build</text>
<text text-anchor="start" x="3811" y="-102.5" font-family="Helvetica,sans-Serif" font-size="10.00">/AliceO2Group/AliceO2</text>
<text text-anchor="middle" x="3862" y="-91.5" font-family="Helvetica,sans-Serif" font-size="10.00">/macro/run_sim_tof.C</text>
</a>
</g>
</g>
<!-- Node3&#45;&gt;Node29 -->
<g id="edge29" class="edge"><title>Node3&#45;&gt;Node29</title>
<path fill="none" stroke="midnightblue" d="M2423.44,-168.072C2737.5,-110.47 3497.12,-189.919 3793,-132 3800.79,-130.475 3808.85,-128.164 3816.6,-125.537"/>
<polygon fill="midnightblue" stroke="midnightblue" points="2422.53,-164.682 2413.37,-169.997 2423.84,-171.557 2422.53,-164.682"/>
</g>
<!-- Node30 -->
<g id="node30" class="node"><title>Node30</title>
<g id="a_node30"><a xlink:href="../../d7/d08/run__sim__tpc_8C.html" target="_top" xlink:title="/home/travis/build\l/AliceO2Group/AliceO2\l/macro/run_sim_tpc.C">
<polygon fill="none" stroke="black" points="3939,-84.5 3939,-125.5 4057,-125.5 4057,-84.5 3939,-84.5"/>
<text text-anchor="start" x="3947" y="-113.5" font-family="Helvetica,sans-Serif" font-size="10.00">/home/travis/build</text>
<text text-anchor="start" x="3947" y="-102.5" font-family="Helvetica,sans-Serif" font-size="10.00">/AliceO2Group/AliceO2</text>
<text text-anchor="middle" x="3998" y="-91.5" font-family="Helvetica,sans-Serif" font-size="10.00">/macro/run_sim_tpc.C</text>
</a>
</g>
</g>
<!-- Node3&#45;&gt;Node30 -->
<g id="edge30" class="edge"><title>Node3&#45;&gt;Node30</title>
<path fill="none" stroke="midnightblue" d="M2423.4,-168.077C2767.44,-105.014 3604.33,-196.166 3930,-132 3937.69,-130.485 3945.64,-128.179 3953.28,-125.554"/>
<polygon fill="midnightblue" stroke="midnightblue" points="2422.53,-164.679 2413.36,-169.988 2423.84,-171.556 2422.53,-164.679"/>
</g>
<!-- Node31 -->
<g id="node31" class="node"><title>Node31</title>
<g id="a_node31"><a xlink:href="../../d6/db2/run__trac__ca__its_8C.html" target="_top" xlink:title="/home/travis/build\l/AliceO2Group/AliceO2\l/macro/run_trac_ca_its.C">
<polygon fill="none" stroke="black" points="4075.5,-84.5 4075.5,-125.5 4202.5,-125.5 4202.5,-84.5 4075.5,-84.5"/>
<text text-anchor="start" x="4083.5" y="-113.5" font-family="Helvetica,sans-Serif" font-size="10.00">/home/travis/build</text>
<text text-anchor="start" x="4083.5" y="-102.5" font-family="Helvetica,sans-Serif" font-size="10.00">/AliceO2Group/AliceO2</text>
<text text-anchor="middle" x="4139" y="-91.5" font-family="Helvetica,sans-Serif" font-size="10.00">/macro/run_trac_ca_its.C</text>
</a>
</g>
</g>
<!-- Node3&#45;&gt;Node31 -->
<g id="edge32" class="edge"><title>Node3&#45;&gt;Node31</title>
<path fill="none" stroke="midnightblue" d="M2423.45,-168.065C2797.28,-99.5152 3709.86,-197.552 4066,-132 4074.2,-130.49 4082.71,-128.186 4090.9,-125.562"/>
<polygon fill="midnightblue" stroke="midnightblue" points="2422.53,-164.677 2413.36,-169.981 2423.84,-171.554 2422.53,-164.677"/>
</g>
<!-- Node32 -->
<g id="node32" class="node"><title>Node32</title>
<g id="a_node32"><a xlink:href="../../dd/d4e/run__trac__its_8C.html" target="_top" xlink:title="/home/travis/build\l/AliceO2Group/AliceO2\l/macro/run_trac_its.C">
<polygon fill="none" stroke="black" points="4221,-84.5 4221,-125.5 4339,-125.5 4339,-84.5 4221,-84.5"/>
<text text-anchor="start" x="4229" y="-113.5" font-family="Helvetica,sans-Serif" font-size="10.00">/home/travis/build</text>
<text text-anchor="start" x="4229" y="-102.5" font-family="Helvetica,sans-Serif" font-size="10.00">/AliceO2Group/AliceO2</text>
<text text-anchor="middle" x="4280" y="-91.5" font-family="Helvetica,sans-Serif" font-size="10.00">/macro/run_trac_its.C</text>
</a>
</g>
</g>
<!-- Node3&#45;&gt;Node32 -->
<g id="edge33" class="edge"><title>Node3&#45;&gt;Node32</title>
<path fill="none" stroke="midnightblue" d="M2423.42,-168.07C2828.98,-93.7656 3823.78,-206.566 4211,-132 4218.79,-130.499 4226.86,-128.2 4234.61,-125.578"/>
<polygon fill="midnightblue" stroke="midnightblue" points="2422.54,-164.675 2413.36,-169.975 2423.84,-171.553 2422.54,-164.675"/>
</g>
<!-- Node33 -->
<g id="node33" class="node"><title>Node33</title>
<g id="a_node33"><a xlink:href="../../d4/da9/run__vert__ca__its_8C.html" target="_top" xlink:title="/home/travis/build\l/AliceO2Group/AliceO2\l/macro/run_vert_ca_its.C">
<polygon fill="none" stroke="black" points="4357.5,-84.5 4357.5,-125.5 4484.5,-125.5 4484.5,-84.5 4357.5,-84.5"/>
<text text-anchor="start" x="4365.5" y="-113.5" font-family="Helvetica,sans-Serif" font-size="10.00">/home/travis/build</text>
<text text-anchor="start" x="4365.5" y="-102.5" font-family="Helvetica,sans-Serif" font-size="10.00">/AliceO2Group/AliceO2</text>
<text text-anchor="middle" x="4421" y="-91.5" font-family="Helvetica,sans-Serif" font-size="10.00">/macro/run_vert_ca_its.C</text>
</a>
</g>
</g>
<!-- Node3&#45;&gt;Node33 -->
<g id="edge34" class="edge"><title>Node3&#45;&gt;Node33</title>
<path fill="none" stroke="midnightblue" d="M2423.21,-168.106C2858.59,-88.1791 3930.06,-208.235 4348,-132 4356.21,-130.503 4364.72,-128.206 4372.91,-125.585"/>
<polygon fill="midnightblue" stroke="midnightblue" points="2422.54,-164.672 2413.36,-169.97 2423.84,-171.55 2422.54,-164.672"/>
</g>
<!-- Node4&#45;&gt;Node5 -->
<g id="edge4" class="edge"><title>Node4&#45;&gt;Node5</title>
<path fill="none" stroke="midnightblue" d="M77.2685,-69.9541C82.4349,-60.3259 87.8841,-50.1706 92.4312,-41.6965"/>
<polygon fill="midnightblue" stroke="midnightblue" points="74.0847,-68.4852 72.4405,-78.9517 80.2528,-71.795 74.0847,-68.4852"/>
</g>
<!-- Node22 -->
<g id="node22" class="node"><title>Node22</title>
<g id="a_node22"><a xlink:href="../../d3/d56/runTPC_8cxx.html" target="_top" xlink:title="/home/travis/build\l/AliceO2Group/AliceO2\l/run/runTPC.cxx">
<polygon fill="none" stroke="black" points="3354,-0.5 3354,-41.5 3472,-41.5 3472,-0.5 3354,-0.5"/>
<text text-anchor="start" x="3362" y="-29.5" font-family="Helvetica,sans-Serif" font-size="10.00">/home/travis/build</text>
<text text-anchor="start" x="3362" y="-18.5" font-family="Helvetica,sans-Serif" font-size="10.00">/AliceO2Group/AliceO2</text>
<text text-anchor="middle" x="3413" y="-7.5" font-family="Helvetica,sans-Serif" font-size="10.00">/run/runTPC.cxx</text>
</a>
</g>
</g>
<!-- Node21&#45;&gt;Node22 -->
<g id="edge22" class="edge"><title>Node21&#45;&gt;Node22</title>
<path fill="none" stroke="midnightblue" d="M2884.64,-81.3732C2888.79,-80.1139 2892.94,-78.9693 2897,-78 3059.37,-39.2569 3256.95,-27.2613 3353.75,-23.59"/>
<polygon fill="midnightblue" stroke="midnightblue" points="2883.45,-78.0801 2875.02,-84.4916 2885.61,-84.7394 2883.45,-78.0801"/>
</g>
<!-- Node30&#45;&gt;Node22 -->
<g id="edge31" class="edge"><title>Node30&#45;&gt;Node22</title>
<path fill="none" stroke="midnightblue" d="M3941.85,-81.2618C3937.87,-80.0453 3933.9,-78.9395 3930,-78 3767.41,-38.8057 3569.41,-27.0119 3472.38,-23.4866"/>
<polygon fill="midnightblue" stroke="midnightblue" points="3941.09,-84.6956 3951.68,-84.4821 3943.27,-78.0433 3941.09,-84.6956"/>
</g>
<!-- Node35&#45;&gt;Node2 -->
<g id="edge37" class="edge"><title>Node35&#45;&gt;Node2</title>
<path fill="none" stroke="midnightblue" d="M2493.69,-341.431C2483.44,-331.407 2472.32,-320.533 2462.66,-311.092"/>
<polygon fill="midnightblue" stroke="midnightblue" points="2491.37,-344.058 2500.97,-348.547 2496.27,-339.053 2491.37,-344.058"/>
</g>
<!-- Node35&#45;&gt;Node36 -->
<g id="edge38" class="edge"><title>Node35&#45;&gt;Node36</title>
<path fill="none" stroke="midnightblue" d="M2560.31,-341.431C2570.56,-331.407 2581.68,-320.533 2591.34,-311.092"/>
<polygon fill="midnightblue" stroke="midnightblue" points="2557.73,-339.053 2553.03,-348.547 2562.63,-344.058 2557.73,-339.053"/>
</g>
</g>
</svg>
