<?xml version="1.0" encoding="UTF-8" standalone="no"?>
<!DOCTYPE svg PUBLIC "-//W3C//DTD SVG 1.1//EN"
 "http://www.w3.org/Graphics/SVG/1.1/DTD/svg11.dtd">
<!-- Generated by graphviz version 2.36.0 (20140111.2315)
 -->
<!-- Title: /home/travis/build/AliceO2Group/AliceO2/Detectors/TPC/simulation/include/TPCSimulation/DigitContainer.h Pages: 1 -->
<svg width="1953pt" height="738pt"
 viewBox="0.00 0.00 1953.00 738.00" xmlns="http://www.w3.org/2000/svg" xmlns:xlink="http://www.w3.org/1999/xlink">
<g id="graph0" class="graph" transform="scale(1 1) rotate(0) translate(4 734)">
<title>/home/travis/build/AliceO2Group/AliceO2/Detectors/TPC/simulation/include/TPCSimulation/DigitContainer.h</title>
<!-- Node1 -->
<g id="node1" class="node"><title>Node1</title>
<polygon fill="#bfbfbf" stroke="black" points="812.5,-677 812.5,-729 1005.5,-729 1005.5,-677 812.5,-677"/>
<text text-anchor="start" x="820.5" y="-717" font-family="Helvetica,sans-Serif" font-size="10.00">/home/travis/build</text>
<text text-anchor="start" x="820.5" y="-706" font-family="Helvetica,sans-Serif" font-size="10.00">/AliceO2Group/AliceO2</text>
<text text-anchor="start" x="820.5" y="-695" font-family="Helvetica,sans-Serif" font-size="10.00">/Detectors/TPC/simulation</text>
<text text-anchor="middle" x="909" y="-684" font-family="Helvetica,sans-Serif" font-size="10.00">/include/TPCSimulation/DigitContainer.h</text>
</g>
<!-- Node2 -->
<g id="node2" class="node"><title>Node2</title>
<g id="a_node2"><a xlink:href="../../df/d26/CRU_8h.html" target="_top" xlink:title="TPCBase/CRU.h">
<polygon fill="none" stroke="black" points="310.5,-384.5 310.5,-403.5 403.5,-403.5 403.5,-384.5 310.5,-384.5"/>
<text text-anchor="middle" x="357" y="-391.5" font-family="Helvetica,sans-Serif" font-size="10.00">TPCBase/CRU.h</text>
</a>
</g>
</g>
<!-- Node1&#45;&gt;Node2 -->
<g id="edge1" class="edge"><title>Node1&#45;&gt;Node2</title>
<path fill="none" stroke="midnightblue" d="M812.478,-697.579C658.882,-687.876 376,-657.934 376,-569 376,-569 376,-569 376,-505 376,-472.489 367.841,-435.35 362.216,-413.61"/>
<polygon fill="midnightblue" stroke="midnightblue" points="365.541,-412.498 359.562,-403.751 358.782,-414.317 365.541,-412.498"/>
</g>
<!-- Node20 -->
<g id="node20" class="node"><title>Node20</title>
<g id="a_node20"><a xlink:href="../../d6/d95/DigitCRU_8h.html" target="_top" xlink:title="Definition of the CRU container. ">
<polygon fill="none" stroke="black" points="939.5,-620.5 939.5,-639.5 1076.5,-639.5 1076.5,-620.5 939.5,-620.5"/>
<text text-anchor="middle" x="1008" y="-627.5" font-family="Helvetica,sans-Serif" font-size="10.00">TPCSimulation/DigitCRU.h</text>
</a>
</g>
</g>
<!-- Node1&#45;&gt;Node20 -->
<g id="edge23" class="edge"><title>Node1&#45;&gt;Node20</title>
<path fill="none" stroke="midnightblue" d="M943.904,-676.968C958.418,-666.559 974.77,-654.831 987.326,-645.827"/>
<polygon fill="midnightblue" stroke="midnightblue" points="989.63,-648.482 995.716,-639.81 985.55,-642.793 989.63,-648.482"/>
</g>
<!-- Node38 -->
<g id="node38" class="node"><title>Node38</title>
<g id="a_node38"><a xlink:href="../../d6/dba/CommonModeContainer_8h.html" target="_top" xlink:title="Definition of the Common Mode computation. ">
<polygon fill="none" stroke="black" points="834.5,-553 834.5,-583 983.5,-583 983.5,-553 834.5,-553"/>
<text text-anchor="start" x="842.5" y="-571" font-family="Helvetica,sans-Serif" font-size="10.00">TPCSimulation/CommonMode</text>
<text text-anchor="middle" x="909" y="-560" font-family="Helvetica,sans-Serif" font-size="10.00">Container.h</text>
</a>
</g>
</g>
<!-- Node1&#45;&gt;Node38 -->
<g id="edge76" class="edge"><title>Node1&#45;&gt;Node38</title>
<path fill="none" stroke="midnightblue" d="M909,-676.984C909,-653.078 909,-617.265 909,-593.525"/>
<polygon fill="midnightblue" stroke="midnightblue" points="912.5,-593.249 909,-583.249 905.5,-593.249 912.5,-593.249"/>
</g>
<!-- Node3 -->
<g id="node3" class="node"><title>Node3</title>
<g id="a_node3"><a xlink:href="../../d1/d73/Defs_8h.html" target="_top" xlink:title="Common definitions for 2D coordinates. ">
<polygon fill="none" stroke="black" points="593,-210.5 593,-229.5 719,-229.5 719,-210.5 593,-210.5"/>
<text text-anchor="middle" x="656" y="-217.5" font-family="Helvetica,sans-Serif" font-size="10.00">DataFormatsTPC/Defs.h</text>
</a>
</g>
</g>
<!-- Node2&#45;&gt;Node3 -->
<g id="edge2" class="edge"><title>Node2&#45;&gt;Node3</title>
<path fill="none" stroke="midnightblue" d="M365.033,-384.088C377.504,-370.637 402.727,-344.923 428,-328 492.143,-285.048 576.251,-250.45 622.281,-233.111"/>
<polygon fill="midnightblue" stroke="midnightblue" points="623.625,-236.345 631.775,-229.576 621.183,-229.785 623.625,-236.345"/>
</g>
<!-- Node17 -->
<g id="node17" class="node"><title>Node17</title>
<g id="a_node17"><a xlink:href="../../d3/dd6/Sector_8h.html" target="_top" xlink:title="TPCBase/Sector.h">
<polygon fill="none" stroke="black" points="288.5,-272.5 288.5,-291.5 387.5,-291.5 387.5,-272.5 288.5,-272.5"/>
<text text-anchor="middle" x="338" y="-279.5" font-family="Helvetica,sans-Serif" font-size="10.00">TPCBase/Sector.h</text>
</a>
</g>
</g>
<!-- Node2&#45;&gt;Node17 -->
<g id="edge17" class="edge"><title>Node2&#45;&gt;Node17</title>
<path fill="none" stroke="midnightblue" d="M355.509,-384.368C352.443,-366.617 345.37,-325.666 341.212,-301.597"/>
<polygon fill="midnightblue" stroke="midnightblue" points="344.635,-300.85 339.484,-291.591 337.737,-302.041 344.635,-300.85"/>
</g>
<!-- Node19 -->
<g id="node19" class="node"><title>Node19</title>
<g id="a_node19"><a xlink:href="../../dc/d14/ROC_8h.html" target="_top" xlink:title="TPCBase/ROC.h">
<polygon fill="none" stroke="black" points="437.5,-328.5 437.5,-347.5 530.5,-347.5 530.5,-328.5 437.5,-328.5"/>
<text text-anchor="middle" x="484" y="-335.5" font-family="Helvetica,sans-Serif" font-size="10.00">TPCBase/ROC.h</text>
</a>
</g>
</g>
<!-- Node2&#45;&gt;Node19 -->
<g id="edge20" class="edge"><title>Node2&#45;&gt;Node19</title>
<path fill="none" stroke="midnightblue" d="M377.124,-384.444C398.024,-375.557 430.935,-361.563 454.716,-351.451"/>
<polygon fill="midnightblue" stroke="midnightblue" points="456.138,-354.65 463.971,-347.516 453.398,-348.208 456.138,-354.65"/>
</g>
<!-- Node4 -->
<g id="node4" class="node"><title>Node4</title>
<polygon fill="none" stroke="#bfbfbf" points="967,-142.5 967,-161.5 1011,-161.5 1011,-142.5 967,-142.5"/>
<text text-anchor="middle" x="989" y="-149.5" font-family="Helvetica,sans-Serif" font-size="10.00">cmath</text>
</g>
<!-- Node3&#45;&gt;Node4 -->
<g id="edge3" class="edge"><title>Node3&#45;&gt;Node4</title>
<path fill="none" stroke="midnightblue" d="M699.193,-210.439C766.926,-197.015 896.597,-171.314 956.807,-159.381"/>
<polygon fill="midnightblue" stroke="midnightblue" points="957.744,-162.763 966.873,-157.386 956.383,-155.897 957.744,-162.763"/>
</g>
<!-- Node5 -->
<g id="node5" class="node"><title>Node5</title>
<g id="a_node5"><a xlink:href="../../d2/dd0/Cartesian2D_8h.html" target="_top" xlink:title="MathUtils/Cartesian2D.h">
<polygon fill="none" stroke="black" points="103.5,-74.5 103.5,-93.5 228.5,-93.5 228.5,-74.5 103.5,-74.5"/>
<text text-anchor="middle" x="166" y="-81.5" font-family="Helvetica,sans-Serif" font-size="10.00">MathUtils/Cartesian2D.h</text>
</a>
</g>
</g>
<!-- Node3&#45;&gt;Node5 -->
<g id="edge4" class="edge"><title>Node3&#45;&gt;Node5</title>
<path fill="none" stroke="midnightblue" d="M624.603,-210.414C539.21,-187.062 302.752,-122.397 207.025,-96.2191"/>
<polygon fill="midnightblue" stroke="midnightblue" points="207.705,-92.7765 197.136,-93.5146 205.858,-99.5286 207.705,-92.7765"/>
</g>
<!-- Node8 -->
<g id="node8" class="node"><title>Node8</title>
<g id="a_node8"><a xlink:href="../../dd/d76/Cartesian3D_8h.html" target="_top" xlink:title="MathUtils/Cartesian3D.h">
<polygon fill="none" stroke="black" points="673.5,-142.5 673.5,-161.5 798.5,-161.5 798.5,-142.5 673.5,-142.5"/>
<text text-anchor="middle" x="736" y="-149.5" font-family="Helvetica,sans-Serif" font-size="10.00">MathUtils/Cartesian3D.h</text>
</a>
</g>
</g>
<!-- Node3&#45;&gt;Node8 -->
<g id="edge7" class="edge"><title>Node3&#45;&gt;Node8</title>
<path fill="none" stroke="midnightblue" d="M666.459,-210.372C679.395,-199.699 701.645,-181.343 717.493,-168.268"/>
<polygon fill="midnightblue" stroke="midnightblue" points="720.052,-170.694 725.539,-161.63 715.598,-165.295 720.052,-170.694"/>
</g>
<!-- Node6 -->
<g id="node6" class="node"><title>Node6</title>
<polygon fill="none" stroke="#bfbfbf" points="-0.5,-1 -0.5,-31 150.5,-31 150.5,-1 -0.5,-1"/>
<text text-anchor="start" x="7.5" y="-19" font-family="Helvetica,sans-Serif" font-size="10.00">Math/GenVector/Displacement</text>
<text text-anchor="middle" x="75" y="-8" font-family="Helvetica,sans-Serif" font-size="10.00">Vector2D.h</text>
</g>
<!-- Node5&#45;&gt;Node6 -->
<g id="edge5" class="edge"><title>Node5&#45;&gt;Node6</title>
<path fill="none" stroke="midnightblue" d="M154.103,-74.3717C141.221,-65.0286 120.22,-49.7966 103.093,-37.375"/>
<polygon fill="midnightblue" stroke="midnightblue" points="104.703,-34.2194 94.5532,-31.1815 100.593,-39.8859 104.703,-34.2194"/>
</g>
<!-- Node7 -->
<g id="node7" class="node"><title>Node7</title>
<polygon fill="none" stroke="#bfbfbf" points="169,-6.5 169,-25.5 345,-25.5 345,-6.5 169,-6.5"/>
<text text-anchor="middle" x="257" y="-13.5" font-family="Helvetica,sans-Serif" font-size="10.00">Math/GenVector/PositionVector2D.h</text>
</g>
<!-- Node5&#45;&gt;Node7 -->
<g id="edge6" class="edge"><title>Node5&#45;&gt;Node7</title>
<path fill="none" stroke="midnightblue" d="M177.897,-74.3717C192.884,-63.5015 218.862,-44.6602 236.942,-31.5474"/>
<polygon fill="midnightblue" stroke="midnightblue" points="239.06,-34.3349 245.1,-25.6305 234.95,-28.6684 239.06,-34.3349"/>
</g>
<!-- Node8&#45;&gt;Node5 -->
<g id="edge16" class="edge"><title>Node8&#45;&gt;Node5</title>
<path fill="none" stroke="midnightblue" d="M673.492,-146.757C578.717,-139.84 393.161,-124.405 237,-100 229.123,-98.769 220.802,-97.23 212.738,-95.6105"/>
<polygon fill="midnightblue" stroke="midnightblue" points="213.215,-92.1352 202.713,-93.5333 211.795,-98.9896 213.215,-92.1352"/>
</g>
<!-- Node9 -->
<g id="node9" class="node"><title>Node9</title>
<polygon fill="none" stroke="#bfbfbf" points="860.5,-69 860.5,-99 1011.5,-99 1011.5,-69 860.5,-69"/>
<text text-anchor="start" x="868.5" y="-87" font-family="Helvetica,sans-Serif" font-size="10.00">Math/GenVector/Displacement</text>
<text text-anchor="middle" x="936" y="-76" font-family="Helvetica,sans-Serif" font-size="10.00">Vector3D.h</text>
</g>
<!-- Node8&#45;&gt;Node9 -->
<g id="edge8" class="edge"><title>Node8&#45;&gt;Node9</title>
<path fill="none" stroke="midnightblue" d="M762.147,-142.372C792.894,-132.225 844.689,-115.133 883.765,-102.237"/>
<polygon fill="midnightblue" stroke="midnightblue" points="885.006,-105.514 893.405,-99.0562 882.812,-98.8664 885.006,-105.514"/>
</g>
<!-- Node10 -->
<g id="node10" class="node"><title>Node10</title>
<polygon fill="none" stroke="#bfbfbf" points="1030,-74.5 1030,-93.5 1206,-93.5 1206,-74.5 1030,-74.5"/>
<text text-anchor="middle" x="1118" y="-81.5" font-family="Helvetica,sans-Serif" font-size="10.00">Math/GenVector/PositionVector3D.h</text>
</g>
<!-- Node8&#45;&gt;Node10 -->
<g id="edge9" class="edge"><title>Node8&#45;&gt;Node10</title>
<path fill="none" stroke="midnightblue" d="M785.548,-142.439C855.537,-130.347 983.175,-108.294 1058.3,-95.3148"/>
<polygon fill="midnightblue" stroke="midnightblue" points="1059.28,-98.697 1068.54,-93.5455 1058.09,-91.7992 1059.28,-98.697"/>
</g>
<!-- Node11 -->
<g id="node11" class="node"><title>Node11</title>
<polygon fill="none" stroke="#bfbfbf" points="246.5,-74.5 246.5,-93.5 395.5,-93.5 395.5,-74.5 246.5,-74.5"/>
<text text-anchor="middle" x="321" y="-81.5" font-family="Helvetica,sans-Serif" font-size="10.00">Math/GenVector/Rotation3D.h</text>
</g>
<!-- Node8&#45;&gt;Node11 -->
<g id="edge10" class="edge"><title>Node8&#45;&gt;Node11</title>
<path fill="none" stroke="midnightblue" d="M677.934,-142.481C611.789,-132.678 500.497,-115.881 405,-100 396.093,-98.5187 386.665,-96.8924 377.47,-95.2742"/>
<polygon fill="midnightblue" stroke="midnightblue" points="378.076,-91.8272 367.619,-93.5287 376.855,-98.7198 378.076,-91.8272"/>
</g>
<!-- Node12 -->
<g id="node12" class="node"><title>Node12</title>
<polygon fill="none" stroke="#bfbfbf" points="414,-74.5 414,-93.5 570,-93.5 570,-74.5 414,-74.5"/>
<text text-anchor="middle" x="492" y="-81.5" font-family="Helvetica,sans-Serif" font-size="10.00">Math/GenVector/Transform3D.h</text>
</g>
<!-- Node8&#45;&gt;Node12 -->
<g id="edge11" class="edge"><title>Node8&#45;&gt;Node12</title>
<path fill="none" stroke="midnightblue" d="M704.101,-142.372C660.324,-130.53 581.574,-109.229 533.328,-96.179"/>
<polygon fill="midnightblue" stroke="midnightblue" points="534.087,-92.7584 523.52,-93.5259 532.259,-99.5156 534.087,-92.7584"/>
</g>
<!-- Node13 -->
<g id="node13" class="node"><title>Node13</title>
<polygon fill="none" stroke="#bfbfbf" points="588,-74.5 588,-93.5 748,-93.5 748,-74.5 588,-74.5"/>
<text text-anchor="middle" x="668" y="-81.5" font-family="Helvetica,sans-Serif" font-size="10.00">Math/GenVector/Translation3D.h</text>
</g>
<!-- Node8&#45;&gt;Node13 -->
<g id="edge12" class="edge"><title>Node8&#45;&gt;Node13</title>
<path fill="none" stroke="midnightblue" d="M727.11,-142.372C716.276,-131.856 697.757,-113.882 684.33,-100.85"/>
<polygon fill="midnightblue" stroke="midnightblue" points="686.723,-98.2944 677.109,-93.8411 681.847,-103.317 686.723,-98.2944"/>
</g>
<!-- Node14 -->
<g id="node14" class="node"><title>Node14</title>
<polygon fill="none" stroke="#bfbfbf" points="1375,-74.5 1375,-93.5 1431,-93.5 1431,-74.5 1375,-74.5"/>
<text text-anchor="middle" x="1403" y="-81.5" font-family="Helvetica,sans-Serif" font-size="10.00">Rtypes.h</text>
</g>
<!-- Node8&#45;&gt;Node14 -->
<g id="edge13" class="edge"><title>Node8&#45;&gt;Node14</title>
<path fill="none" stroke="midnightblue" d="M798.877,-145.928C901.268,-137.5 1110.36,-119.589 1287,-100 1312.96,-97.121 1342.12,-93.3482 1364.71,-90.3066"/>
<polygon fill="midnightblue" stroke="midnightblue" points="1365.47,-93.7357 1374.91,-88.923 1364.53,-86.7992 1365.47,-93.7357"/>
</g>
<!-- Node15 -->
<g id="node15" class="node"><title>Node15</title>
<polygon fill="none" stroke="#bfbfbf" points="766,-74.5 766,-93.5 842,-93.5 842,-74.5 766,-74.5"/>
<text text-anchor="middle" x="804" y="-81.5" font-family="Helvetica,sans-Serif" font-size="10.00">TGeoMatrix.h</text>
</g>
<!-- Node8&#45;&gt;Node15 -->
<g id="edge14" class="edge"><title>Node8&#45;&gt;Node15</title>
<path fill="none" stroke="midnightblue" d="M744.89,-142.372C755.724,-131.856 774.243,-113.882 787.67,-100.85"/>
<polygon fill="midnightblue" stroke="midnightblue" points="790.153,-103.317 794.891,-93.8411 785.277,-98.2944 790.153,-103.317"/>
</g>
<!-- Node16 -->
<g id="node16" class="node"><title>Node16</title>
<polygon fill="none" stroke="#bfbfbf" points="1224,-74.5 1224,-93.5 1278,-93.5 1278,-74.5 1224,-74.5"/>
<text text-anchor="middle" x="1251" y="-81.5" font-family="Helvetica,sans-Serif" font-size="10.00">iostream</text>
</g>
<!-- Node8&#45;&gt;Node16 -->
<g id="edge15" class="edge"><title>Node8&#45;&gt;Node16</title>
<path fill="none" stroke="midnightblue" d="M798.72,-146.49C909.854,-138.136 1136.89,-119.337 1214,-100 1217.06,-99.2323 1220.2,-98.2632 1223.3,-97.1886"/>
<polygon fill="midnightblue" stroke="midnightblue" points="1224.81,-100.36 1232.89,-93.5139 1222.3,-93.8229 1224.81,-100.36"/>
</g>
<!-- Node17&#45;&gt;Node3 -->
<g id="edge19" class="edge"><title>Node17&#45;&gt;Node3</title>
<path fill="none" stroke="midnightblue" d="M383.224,-272.467C440.562,-261.649 539.354,-243.009 600.996,-231.378"/>
<polygon fill="midnightblue" stroke="midnightblue" points="601.754,-234.797 610.932,-229.503 600.456,-227.918 601.754,-234.797"/>
</g>
<!-- Node18 -->
<g id="node18" class="node"><title>Node18</title>
<g id="a_node18"><a xlink:href="../../d0/dda/DataFormats_2Detectors_2TPC_2include_2DataFormatsTPC_2Constants_8h.html" target="_top" xlink:title="DataFormatsTPC/Constants.h">
<polygon fill="none" stroke="black" points="263,-210.5 263,-229.5 413,-229.5 413,-210.5 263,-210.5"/>
<text text-anchor="middle" x="338" y="-217.5" font-family="Helvetica,sans-Serif" font-size="10.00">DataFormatsTPC/Constants.h</text>
</a>
</g>
</g>
<!-- Node17&#45;&gt;Node18 -->
<g id="edge18" class="edge"><title>Node17&#45;&gt;Node18</title>
<path fill="none" stroke="midnightblue" d="M338,-272.403C338,-263.938 338,-250.728 338,-239.82"/>
<polygon fill="midnightblue" stroke="midnightblue" points="341.5,-239.581 338,-229.581 334.5,-239.581 341.5,-239.581"/>
</g>
<!-- Node19&#45;&gt;Node3 -->
<g id="edge21" class="edge"><title>Node19&#45;&gt;Node3</title>
<path fill="none" stroke="midnightblue" d="M496.648,-328.47C525.971,-308.694 598.842,-259.548 634.985,-235.173"/>
<polygon fill="midnightblue" stroke="midnightblue" points="637,-238.035 643.334,-229.542 633.086,-232.232 637,-238.035"/>
</g>
<!-- Node19&#45;&gt;Node17 -->
<g id="edge22" class="edge"><title>Node19&#45;&gt;Node17</title>
<path fill="none" stroke="midnightblue" d="M460.866,-328.444C436.518,-319.438 397.993,-305.189 370.577,-295.049"/>
<polygon fill="midnightblue" stroke="midnightblue" points="371.619,-291.703 361.026,-291.516 369.191,-298.268 371.619,-291.703"/>
</g>
<!-- Node21 -->
<g id="node21" class="node"><title>Node21</title>
<g id="a_node21"><a xlink:href="../../d0/d60/DigitTime_8h.html" target="_top" xlink:title="Definition of the Time Bin container. ">
<polygon fill="none" stroke="black" points="1195,-558.5 1195,-577.5 1331,-577.5 1331,-558.5 1195,-558.5"/>
<text text-anchor="middle" x="1263" y="-565.5" font-family="Helvetica,sans-Serif" font-size="10.00">TPCSimulation/DigitTime.h</text>
</a>
</g>
</g>
<!-- Node20&#45;&gt;Node21 -->
<g id="edge24" class="edge"><title>Node20&#45;&gt;Node21</title>
<path fill="none" stroke="midnightblue" d="M1044.26,-620.467C1089.67,-609.783 1167.51,-591.469 1217.05,-579.813"/>
<polygon fill="midnightblue" stroke="midnightblue" points="1217.93,-583.201 1226.86,-577.503 1216.32,-576.387 1217.93,-583.201"/>
</g>
<!-- Node20&#45;&gt;Node38 -->
<g id="edge44" class="edge"><title>Node20&#45;&gt;Node38</title>
<path fill="none" stroke="midnightblue" d="M993.816,-620.403C980.157,-612.125 959.013,-599.311 941.253,-588.547"/>
<polygon fill="midnightblue" stroke="midnightblue" points="942.698,-585.331 932.332,-583.141 939.07,-591.317 942.698,-585.331"/>
</g>
<!-- Node50 -->
<g id="node50" class="node"><title>Node50</title>
<polygon fill="none" stroke="#bfbfbf" points="986.5,-496.5 986.5,-515.5 1029.5,-515.5 1029.5,-496.5 986.5,-496.5"/>
<text text-anchor="middle" x="1008" y="-503.5" font-family="Helvetica,sans-Serif" font-size="10.00">deque</text>
</g>
<!-- Node20&#45;&gt;Node50 -->
<g id="edge75" class="edge"><title>Node20&#45;&gt;Node50</title>
<path fill="none" stroke="midnightblue" d="M1008,-620.226C1008,-600.53 1008,-552.437 1008,-525.7"/>
<polygon fill="midnightblue" stroke="midnightblue" points="1011.5,-525.694 1008,-515.694 1004.5,-525.694 1011.5,-525.694"/>
</g>
<!-- Node22 -->
<g id="node22" class="node"><title>Node22</title>
<g id="a_node22"><a xlink:href="../../de/dc8/DigitRow_8h.html" target="_top" xlink:title="Definition of the Row container. ">
<polygon fill="none" stroke="black" points="1407,-272.5 1407,-291.5 1541,-291.5 1541,-272.5 1407,-272.5"/>
<text text-anchor="middle" x="1474" y="-279.5" font-family="Helvetica,sans-Serif" font-size="10.00">TPCSimulation/DigitRow.h</text>
</a>
</g>
</g>
<!-- Node21&#45;&gt;Node22 -->
<g id="edge25" class="edge"><title>Node21&#45;&gt;Node22</title>
<path fill="none" stroke="midnightblue" d="M1309.4,-558.432C1363.32,-545.482 1445,-515.26 1445,-451 1445,-451 1445,-451 1445,-393 1445,-359.716 1457.57,-322.584 1466.16,-301.094"/>
<polygon fill="midnightblue" stroke="midnightblue" points="1469.48,-302.213 1470.09,-291.635 1463.02,-299.525 1469.48,-302.213"/>
</g>
<!-- Node23 -->
<g id="node23" class="node"><title>Node23</title>
<g id="a_node23"><a xlink:href="../../d3/d5d/DigitPad_8h.html" target="_top" xlink:title="Definition of the Pad container. ">
<polygon fill="none" stroke="black" points="1408.5,-210.5 1408.5,-229.5 1539.5,-229.5 1539.5,-210.5 1408.5,-210.5"/>
<text text-anchor="middle" x="1474" y="-217.5" font-family="Helvetica,sans-Serif" font-size="10.00">TPCSimulation/DigitPad.h</text>
</a>
</g>
</g>
<!-- Node22&#45;&gt;Node23 -->
<g id="edge26" class="edge"><title>Node22&#45;&gt;Node23</title>
<path fill="none" stroke="midnightblue" d="M1474,-272.403C1474,-263.938 1474,-250.728 1474,-239.82"/>
<polygon fill="midnightblue" stroke="midnightblue" points="1477.5,-239.581 1474,-229.581 1470.5,-239.581 1477.5,-239.581"/>
</g>
<!-- Node33 -->
<g id="node33" class="node"><title>Node33</title>
<g id="a_node33"><a xlink:href="../../df/db1/TPC_2base_2include_2TPCBase_2Digit_8h.html" target="_top" xlink:title="TPCBase/Digit.h">
<polygon fill="none" stroke="black" points="1233.5,-210.5 1233.5,-229.5 1324.5,-229.5 1324.5,-210.5 1233.5,-210.5"/>
<text text-anchor="middle" x="1279" y="-217.5" font-family="Helvetica,sans-Serif" font-size="10.00">TPCBase/Digit.h</text>
</a>
</g>
</g>
<!-- Node22&#45;&gt;Node33 -->
<g id="edge37" class="edge"><title>Node22&#45;&gt;Node33</title>
<path fill="none" stroke="midnightblue" d="M1446.06,-272.403C1412.03,-261.933 1354.42,-244.205 1316.54,-232.55"/>
<polygon fill="midnightblue" stroke="midnightblue" points="1317.47,-229.176 1306.89,-229.581 1315.42,-235.867 1317.47,-229.176"/>
</g>
<!-- Node36 -->
<g id="node36" class="node"><title>Node36</title>
<g id="a_node36"><a xlink:href="../../dd/df5/DigitMCMetaData_8h.html" target="_top" xlink:title="Definition of the Meta Data object of the Monte Carlo Digit. ">
<polygon fill="none" stroke="black" points="1628.5,-205 1628.5,-235 1771.5,-235 1771.5,-205 1628.5,-205"/>
<text text-anchor="start" x="1636.5" y="-223" font-family="Helvetica,sans-Serif" font-size="10.00">TPCSimulation/DigitMCMeta</text>
<text text-anchor="middle" x="1700" y="-212" font-family="Helvetica,sans-Serif" font-size="10.00">Data.h</text>
</a>
</g>
</g>
<!-- Node22&#45;&gt;Node36 -->
<g id="edge41" class="edge"><title>Node22&#45;&gt;Node36</title>
<path fill="none" stroke="midnightblue" d="M1506.38,-272.403C1540.46,-263.355 1594.96,-248.886 1637.47,-237.6"/>
<polygon fill="midnightblue" stroke="midnightblue" points="1638.4,-240.974 1647.17,-235.025 1636.61,-234.209 1638.4,-240.974"/>
</g>
<!-- Node37 -->
<g id="node37" class="node"><title>Node37</title>
<polygon fill="none" stroke="#bfbfbf" points="1558,-210.5 1558,-229.5 1610,-229.5 1610,-210.5 1558,-210.5"/>
<text text-anchor="middle" x="1584" y="-217.5" font-family="Helvetica,sans-Serif" font-size="10.00">memory</text>
</g>
<!-- Node22&#45;&gt;Node37 -->
<g id="edge43" class="edge"><title>Node22&#45;&gt;Node37</title>
<path fill="none" stroke="midnightblue" d="M1489.76,-272.403C1507.98,-262.468 1538.17,-245.997 1559.47,-234.381"/>
<polygon fill="midnightblue" stroke="midnightblue" points="1561.17,-237.442 1568.27,-229.581 1557.81,-231.297 1561.17,-237.442"/>
</g>
<!-- Node24 -->
<g id="node24" class="node"><title>Node24</title>
<polygon fill="none" stroke="#bfbfbf" points="1382.5,-142.5 1382.5,-161.5 1417.5,-161.5 1417.5,-142.5 1382.5,-142.5"/>
<text text-anchor="middle" x="1400" y="-149.5" font-family="Helvetica,sans-Serif" font-size="10.00">map</text>
</g>
<!-- Node23&#45;&gt;Node24 -->
<g id="edge27" class="edge"><title>Node23&#45;&gt;Node24</title>
<path fill="none" stroke="midnightblue" d="M1464.33,-210.372C1452.54,-199.856 1432.38,-181.882 1417.77,-168.85"/>
<polygon fill="midnightblue" stroke="midnightblue" points="1419.71,-165.885 1409.91,-161.841 1415.05,-171.109 1419.71,-165.885"/>
</g>
<!-- Node25 -->
<g id="node25" class="node"><title>Node25</title>
<polygon fill="none" stroke="#bfbfbf" points="1568,-142.5 1568,-161.5 1668,-161.5 1668,-142.5 1568,-142.5"/>
<text text-anchor="middle" x="1618" y="-149.5" font-family="Helvetica,sans-Serif" font-size="10.00">FairRootManager.h</text>
</g>
<!-- Node23&#45;&gt;Node25 -->
<g id="edge28" class="edge"><title>Node23&#45;&gt;Node25</title>
<path fill="none" stroke="midnightblue" d="M1492.83,-210.372C1517.51,-199.057 1561.04,-179.105 1589.71,-165.968"/>
<polygon fill="midnightblue" stroke="midnightblue" points="1591.54,-168.979 1599.17,-161.63 1588.62,-162.615 1591.54,-168.979"/>
</g>
<!-- Node26 -->
<g id="node26" class="node"><title>Node26</title>
<g id="a_node26"><a xlink:href="../../db/d14/MCTruthContainer_8h.html" target="_top" xlink:title="Definition of a container to keep Monte Carlo truth external to simulation objects. ">
<polygon fill="none" stroke="black" points="1724,-137 1724,-167 1838,-167 1838,-137 1724,-137"/>
<text text-anchor="start" x="1732" y="-155" font-family="Helvetica,sans-Serif" font-size="10.00">SimulationDataFormat</text>
<text text-anchor="middle" x="1781" y="-144" font-family="Helvetica,sans-Serif" font-size="10.00">/MCTruthContainer.h</text>
</a>
</g>
</g>
<!-- Node23&#45;&gt;Node26 -->
<g id="edge29" class="edge"><title>Node23&#45;&gt;Node26</title>
<path fill="none" stroke="midnightblue" d="M1513.82,-210.439C1564.46,-199.553 1652.65,-180.593 1713.79,-167.449"/>
<polygon fill="midnightblue" stroke="midnightblue" points="1714.7,-170.834 1723.74,-165.31 1713.23,-163.991 1714.7,-170.834"/>
</g>
<!-- Node32 -->
<g id="node32" class="node"><title>Node32</title>
<g id="a_node32"><a xlink:href="../../d7/dcd/MCCompLabel_8h.html" target="_top" xlink:title="SimulationDataFormat\l/MCCompLabel.h">
<polygon fill="none" stroke="black" points="1436,-137 1436,-167 1550,-167 1550,-137 1436,-137"/>
<text text-anchor="start" x="1444" y="-155" font-family="Helvetica,sans-Serif" font-size="10.00">SimulationDataFormat</text>
<text text-anchor="middle" x="1493" y="-144" font-family="Helvetica,sans-Serif" font-size="10.00">/MCCompLabel.h</text>
</a>
</g>
</g>
<!-- Node23&#45;&gt;Node32 -->
<g id="edge35" class="edge"><title>Node23&#45;&gt;Node32</title>
<path fill="none" stroke="midnightblue" d="M1476.48,-210.372C1478.93,-201.886 1482.77,-188.542 1486.13,-176.858"/>
<polygon fill="midnightblue" stroke="midnightblue" points="1489.51,-177.759 1488.92,-167.181 1482.79,-175.823 1489.51,-177.759"/>
</g>
<!-- Node27 -->
<g id="node27" class="node"><title>Node27</title>
<polygon fill="none" stroke="#bfbfbf" points="1676,-74.5 1676,-93.5 1738,-93.5 1738,-74.5 1676,-74.5"/>
<text text-anchor="middle" x="1707" y="-81.5" font-family="Helvetica,sans-Serif" font-size="10.00">TNamed.h</text>
</g>
<!-- Node26&#45;&gt;Node27 -->
<g id="edge30" class="edge"><title>Node26&#45;&gt;Node27</title>
<path fill="none" stroke="midnightblue" d="M1764.94,-136.679C1753.06,-126.082 1736.89,-111.655 1724.64,-100.736"/>
<polygon fill="midnightblue" stroke="midnightblue" points="1726.69,-97.8724 1716.9,-93.8283 1722.03,-103.097 1726.69,-97.8724"/>
</g>
<!-- Node28 -->
<g id="node28" class="node"><title>Node28</title>
<polygon fill="none" stroke="#bfbfbf" points="1756.5,-74.5 1756.5,-93.5 1805.5,-93.5 1805.5,-74.5 1756.5,-74.5"/>
<text text-anchor="middle" x="1781" y="-81.5" font-family="Helvetica,sans-Serif" font-size="10.00">cassert</text>
</g>
<!-- Node26&#45;&gt;Node28 -->
<g id="edge31" class="edge"><title>Node26&#45;&gt;Node28</title>
<path fill="none" stroke="midnightblue" d="M1781,-136.679C1781,-127.101 1781,-114.394 1781,-103.977"/>
<polygon fill="midnightblue" stroke="midnightblue" points="1784.5,-103.828 1781,-93.8283 1777.5,-103.828 1784.5,-103.828"/>
</g>
<!-- Node29 -->
<g id="node29" class="node"><title>Node29</title>
<polygon fill="none" stroke="#bfbfbf" points="1823.5,-74.5 1823.5,-93.5 1882.5,-93.5 1882.5,-74.5 1823.5,-74.5"/>
<text text-anchor="middle" x="1853" y="-81.5" font-family="Helvetica,sans-Serif" font-size="10.00">stdexcept</text>
</g>
<!-- Node26&#45;&gt;Node29 -->
<g id="edge32" class="edge"><title>Node26&#45;&gt;Node29</title>
<path fill="none" stroke="midnightblue" d="M1796.62,-136.679C1808.18,-126.082 1823.92,-111.655 1835.83,-100.736"/>
<polygon fill="midnightblue" stroke="midnightblue" points="1838.36,-103.166 1843.37,-93.8283 1833.63,-98.0055 1838.36,-103.166"/>
</g>
<!-- Node30 -->
<g id="node30" class="node"><title>Node30</title>
<polygon fill="none" stroke="#bfbfbf" points="1900.5,-74.5 1900.5,-93.5 1945.5,-93.5 1945.5,-74.5 1900.5,-74.5"/>
<text text-anchor="middle" x="1923" y="-81.5" font-family="Helvetica,sans-Serif" font-size="10.00">gsl/gsl</text>
</g>
<!-- Node26&#45;&gt;Node30 -->
<g id="edge33" class="edge"><title>Node26&#45;&gt;Node30</title>
<path fill="none" stroke="midnightblue" d="M1811.36,-136.964C1833.46,-126.739 1864.1,-112.541 1891,-100 1892.39,-99.3519 1893.81,-98.6873 1895.25,-98.0156"/>
<polygon fill="midnightblue" stroke="midnightblue" points="1897.16,-100.989 1904.73,-93.5801 1894.19,-94.6486 1897.16,-100.989"/>
</g>
<!-- Node31 -->
<g id="node31" class="node"><title>Node31</title>
<polygon fill="none" stroke="#bfbfbf" points="1596,-74.5 1596,-93.5 1658,-93.5 1658,-74.5 1596,-74.5"/>
<text text-anchor="middle" x="1627" y="-81.5" font-family="Helvetica,sans-Serif" font-size="10.00">type_traits</text>
</g>
<!-- Node26&#45;&gt;Node31 -->
<g id="edge34" class="edge"><title>Node26&#45;&gt;Node31</title>
<path fill="none" stroke="midnightblue" d="M1747.96,-136.841C1720.85,-125.221 1682.79,-108.912 1656.65,-97.7063"/>
<polygon fill="midnightblue" stroke="midnightblue" points="1657.83,-94.4041 1647.26,-93.6819 1655.07,-100.838 1657.83,-94.4041"/>
</g>
<!-- Node32&#45;&gt;Node14 -->
<g id="edge36" class="edge"><title>Node32&#45;&gt;Node14</title>
<path fill="none" stroke="midnightblue" d="M1473.47,-136.679C1458.52,-125.713 1437.97,-110.645 1422.92,-99.6085"/>
<polygon fill="midnightblue" stroke="midnightblue" points="1424.91,-96.7291 1414.78,-93.6379 1420.77,-102.374 1424.91,-96.7291"/>
</g>
<!-- Node34 -->
<g id="node34" class="node"><title>Node34</title>
<g id="a_node34"><a xlink:href="../../df/d5d/common_2include_2CommonDataFormat_2TimeStamp_8h.html" target="_top" xlink:title="CommonDataFormat/TimeStamp.h">
<polygon fill="none" stroke="black" points="1194,-142.5 1194,-161.5 1364,-161.5 1364,-142.5 1194,-142.5"/>
<text text-anchor="middle" x="1279" y="-149.5" font-family="Helvetica,sans-Serif" font-size="10.00">CommonDataFormat/TimeStamp.h</text>
</a>
</g>
</g>
<!-- Node33&#45;&gt;Node34 -->
<g id="edge38" class="edge"><title>Node33&#45;&gt;Node34</title>
<path fill="none" stroke="midnightblue" d="M1279,-210.372C1279,-200.643 1279,-184.528 1279,-171.85"/>
<polygon fill="midnightblue" stroke="midnightblue" points="1282.5,-171.841 1279,-161.841 1275.5,-171.841 1282.5,-171.841"/>
</g>
<!-- Node35 -->
<g id="node35" class="node"><title>Node35</title>
<polygon fill="none" stroke="#bfbfbf" points="1116.5,-142.5 1116.5,-161.5 1175.5,-161.5 1175.5,-142.5 1116.5,-142.5"/>
<text text-anchor="middle" x="1146" y="-149.5" font-family="Helvetica,sans-Serif" font-size="10.00">TObject.h</text>
</g>
<!-- Node33&#45;&gt;Node35 -->
<g id="edge40" class="edge"><title>Node33&#45;&gt;Node35</title>
<path fill="none" stroke="midnightblue" d="M1261.61,-210.372C1238.91,-199.106 1198.96,-179.279 1172.48,-166.14"/>
<polygon fill="midnightblue" stroke="midnightblue" points="1173.91,-162.94 1163.39,-161.63 1170.79,-169.211 1173.91,-162.94"/>
</g>
<!-- Node34&#45;&gt;Node14 -->
<g id="edge39" class="edge"><title>Node34&#45;&gt;Node14</title>
<path fill="none" stroke="midnightblue" d="M1295.21,-142.372C1316.19,-131.205 1352.97,-111.627 1377.66,-98.4876"/>
<polygon fill="midnightblue" stroke="midnightblue" points="1379.6,-101.419 1386.79,-93.6305 1376.31,-95.2394 1379.6,-101.419"/>
</g>
<!-- Node36&#45;&gt;Node14 -->
<g id="edge42" class="edge"><title>Node36&#45;&gt;Node14</title>
<path fill="none" stroke="midnightblue" d="M1700.35,-204.961C1699.99,-186.348 1696.39,-153.789 1677,-136 1643.07,-104.877 1508.15,-91.8422 1441.15,-87.2026"/>
<polygon fill="midnightblue" stroke="midnightblue" points="1441.22,-83.6994 1431.01,-86.5285 1440.76,-90.684 1441.22,-83.6994"/>
</g>
<!-- Node38&#45;&gt;Node19 -->
<g id="edge45" class="edge"><title>Node38&#45;&gt;Node19</title>
<path fill="none" stroke="midnightblue" d="M834.48,-554.007C755.807,-538.488 629.51,-508.375 529,-460 490.546,-441.492 470.482,-441.97 451,-404 442.484,-387.402 454.716,-368.367 466.626,-355.206"/>
<polygon fill="midnightblue" stroke="midnightblue" points="469.332,-357.445 473.812,-347.844 464.323,-352.555 469.332,-357.445"/>
</g>
<!-- Node39 -->
<g id="node39" class="node"><title>Node39</title>
<g id="a_node39"><a xlink:href="../../d7/d2c/Mapper_8h.html" target="_top" xlink:title="TPCBase/Mapper.h">
<polygon fill="none" stroke="black" points="860.5,-496.5 860.5,-515.5 963.5,-515.5 963.5,-496.5 860.5,-496.5"/>
<text text-anchor="middle" x="912" y="-503.5" font-family="Helvetica,sans-Serif" font-size="10.00">TPCBase/Mapper.h</text>
</a>
</g>
</g>
<!-- Node38&#45;&gt;Node39 -->
<g id="edge46" class="edge"><title>Node38&#45;&gt;Node39</title>
<path fill="none" stroke="midnightblue" d="M909.711,-552.781C910.115,-544.691 910.627,-534.462 911.064,-525.725"/>
<polygon fill="midnightblue" stroke="midnightblue" points="914.56,-525.893 911.563,-515.731 907.568,-525.543 914.56,-525.893"/>
</g>
<!-- Node38&#45;&gt;Node50 -->
<g id="edge74" class="edge"><title>Node38&#45;&gt;Node50</title>
<path fill="none" stroke="midnightblue" d="M932.211,-552.933C948.168,-543.262 969.259,-530.479 985.14,-520.855"/>
<polygon fill="midnightblue" stroke="midnightblue" points="987.072,-523.776 993.81,-515.6 983.444,-517.79 987.072,-523.776"/>
</g>
<!-- Node39&#45;&gt;Node3 -->
<g id="edge52" class="edge"><title>Node39&#45;&gt;Node3</title>
<path fill="none" stroke="midnightblue" d="M935.773,-496.351C952.614,-489.078 974.524,-477.103 988,-460 1006.71,-436.259 1008,-425.225 1008,-395 1008,-395 1008,-395 1008,-337 1008,-278.855 832.559,-244.993 729.394,-230.107"/>
<polygon fill="midnightblue" stroke="midnightblue" points="729.729,-226.62 719.337,-228.683 728.748,-233.551 729.729,-226.62"/>
</g>
<!-- Node39&#45;&gt;Node4 -->
<g id="edge51" class="edge"><title>Node39&#45;&gt;Node4</title>
<path fill="none" stroke="midnightblue" d="M941.919,-496.495C962.658,-489.407 989.875,-477.598 1009,-460 1033.46,-437.492 1046,-428.241 1046,-395 1046,-395 1046,-395 1046,-281 1046,-238.049 1018.89,-193.457 1002.06,-169.919"/>
<polygon fill="midnightblue" stroke="midnightblue" points="1004.75,-167.67 995.989,-161.711 999.121,-171.832 1004.75,-167.67"/>
</g>
<!-- Node39&#45;&gt;Node17 -->
<g id="edge73" class="edge"><title>Node39&#45;&gt;Node17</title>
<path fill="none" stroke="midnightblue" d="M860.474,-504.935C725.909,-503.53 369.581,-491.463 301,-404 276.373,-372.592 305.339,-324.818 324.231,-299.729"/>
<polygon fill="midnightblue" stroke="midnightblue" points="327.201,-301.613 330.618,-291.584 321.693,-297.294 327.201,-301.613"/>
</g>
<!-- Node39&#45;&gt;Node24 -->
<g id="edge47" class="edge"><title>Node39&#45;&gt;Node24</title>
<path fill="none" stroke="midnightblue" d="M963.776,-497.647C968.246,-497.068 972.701,-496.511 977,-496 1057.5,-486.439 1271.52,-503.376 1340,-460 1368.46,-441.973 1379,-428.69 1379,-395 1379,-395 1379,-395 1379,-281 1379,-241.553 1388.83,-196.158 1395.04,-171.425"/>
<polygon fill="midnightblue" stroke="midnightblue" points="1398.46,-172.17 1397.59,-161.611 1391.69,-170.41 1398.46,-172.17"/>
</g>
<!-- Node40 -->
<g id="node40" class="node"><title>Node40</title>
<polygon fill="none" stroke="#bfbfbf" points="860,-384.5 860,-403.5 904,-403.5 904,-384.5 860,-384.5"/>
<text text-anchor="middle" x="882" y="-391.5" font-family="Helvetica,sans-Serif" font-size="10.00">vector</text>
</g>
<!-- Node39&#45;&gt;Node40 -->
<g id="edge48" class="edge"><title>Node39&#45;&gt;Node40</title>
<path fill="none" stroke="midnightblue" d="M883.628,-496.495C866.248,-489.653 845.404,-478.13 835,-460 824.553,-441.795 842.701,-422.494 859.393,-409.699"/>
<polygon fill="midnightblue" stroke="midnightblue" points="861.748,-412.317 867.83,-403.642 857.666,-406.631 861.748,-412.317"/>
</g>
<!-- Node41 -->
<g id="node41" class="node"><title>Node41</title>
<polygon fill="none" stroke="#bfbfbf" points="1074,-440.5 1074,-459.5 1112,-459.5 1112,-440.5 1074,-440.5"/>
<text text-anchor="middle" x="1093" y="-447.5" font-family="Helvetica,sans-Serif" font-size="10.00">array</text>
</g>
<!-- Node39&#45;&gt;Node41 -->
<g id="edge49" class="edge"><title>Node39&#45;&gt;Node41</title>
<path fill="none" stroke="midnightblue" d="M940.68,-496.444C974.466,-486.364 1030.27,-469.715 1064.14,-459.611"/>
<polygon fill="midnightblue" stroke="midnightblue" points="1065.31,-462.913 1073.89,-456.7 1063.31,-456.205 1065.31,-462.913"/>
</g>
<!-- Node42 -->
<g id="node42" class="node"><title>Node42</title>
<polygon fill="none" stroke="#bfbfbf" points="1130.5,-440.5 1130.5,-459.5 1171.5,-459.5 1171.5,-440.5 1130.5,-440.5"/>
<text text-anchor="middle" x="1151" y="-447.5" font-family="Helvetica,sans-Serif" font-size="10.00">string</text>
</g>
<!-- Node39&#45;&gt;Node42 -->
<g id="edge50" class="edge"><title>Node39&#45;&gt;Node42</title>
<path fill="none" stroke="midnightblue" d="M956.68,-496.448C997.005,-488.492 1058.14,-475.838 1120.4,-459.985"/>
<polygon fill="midnightblue" stroke="midnightblue" points="1121.59,-463.294 1130.4,-457.413 1119.85,-456.514 1121.59,-463.294"/>
</g>
<!-- Node43 -->
<g id="node43" class="node"><title>Node43</title>
<g id="a_node43"><a xlink:href="../../de/d41/PadPos_8h.html" target="_top" xlink:title="TPCBase/PadPos.h">
<polygon fill="none" stroke="black" points="741.5,-328.5 741.5,-347.5 846.5,-347.5 846.5,-328.5 741.5,-328.5"/>
<text text-anchor="middle" x="794" y="-335.5" font-family="Helvetica,sans-Serif" font-size="10.00">TPCBase/PadPos.h</text>
</a>
</g>
</g>
<!-- Node39&#45;&gt;Node43 -->
<g id="edge53" class="edge"><title>Node39&#45;&gt;Node43</title>
<path fill="none" stroke="midnightblue" d="M884.022,-496.479C865.586,-489.489 842.293,-477.803 828,-460 803.834,-429.898 796.831,-383.618 794.811,-357.893"/>
<polygon fill="midnightblue" stroke="midnightblue" points="798.289,-357.422 794.189,-347.653 791.301,-357.846 798.289,-357.422"/>
</g>
<!-- Node44 -->
<g id="node44" class="node"><title>Node44</title>
<g id="a_node44"><a xlink:href="../../dd/d0b/PadSecPos_8h.html" target="_top" xlink:title="TPCBase/PadSecPos.h">
<polygon fill="none" stroke="black" points="460,-384.5 460,-403.5 582,-403.5 582,-384.5 460,-384.5"/>
<text text-anchor="middle" x="521" y="-391.5" font-family="Helvetica,sans-Serif" font-size="10.00">TPCBase/PadSecPos.h</text>
</a>
</g>
</g>
<!-- Node39&#45;&gt;Node44 -->
<g id="edge54" class="edge"><title>Node39&#45;&gt;Node44</title>
<path fill="none" stroke="midnightblue" d="M860.257,-504.938C771.431,-503.822 594.858,-496.874 547,-460 532.73,-449.005 526.268,-428.953 523.357,-414.017"/>
<polygon fill="midnightblue" stroke="midnightblue" points="526.765,-413.161 521.752,-403.827 519.851,-414.25 526.765,-413.161"/>
</g>
<!-- Node45 -->
<g id="node45" class="node"><title>Node45</title>
<g id="a_node45"><a xlink:href="../../da/d61/PadROCPos_8h.html" target="_top" xlink:title="TPCBase/PadROCPos.h">
<polygon fill="none" stroke="black" points="638,-384.5 638,-403.5 766,-403.5 766,-384.5 638,-384.5"/>
<text text-anchor="middle" x="702" y="-391.5" font-family="Helvetica,sans-Serif" font-size="10.00">TPCBase/PadROCPos.h</text>
</a>
</g>
</g>
<!-- Node39&#45;&gt;Node45 -->
<g id="edge57" class="edge"><title>Node39&#45;&gt;Node45</title>
<path fill="none" stroke="midnightblue" d="M862.026,-496.488C832.007,-489.803 793.954,-478.452 764,-460 743.548,-447.402 725.261,-426.432 713.939,-411.726"/>
<polygon fill="midnightblue" stroke="midnightblue" points="716.607,-409.448 707.832,-403.51 710.988,-413.623 716.607,-409.448"/>
</g>
<!-- Node46 -->
<g id="node46" class="node"><title>Node46</title>
<g id="a_node46"><a xlink:href="../../d3/d54/DigitPos_8h.html" target="_top" xlink:title="TPCBase/DigitPos.h">
<polygon fill="none" stroke="black" points="556,-440.5 556,-459.5 664,-459.5 664,-440.5 556,-440.5"/>
<text text-anchor="middle" x="610" y="-447.5" font-family="Helvetica,sans-Serif" font-size="10.00">TPCBase/DigitPos.h</text>
</a>
</g>
</g>
<!-- Node39&#45;&gt;Node46 -->
<g id="edge61" class="edge"><title>Node39&#45;&gt;Node46</title>
<path fill="none" stroke="midnightblue" d="M864.147,-496.444C810.801,-486.905 724.555,-471.483 667.564,-461.293"/>
<polygon fill="midnightblue" stroke="midnightblue" points="668.089,-457.831 657.629,-459.516 666.857,-464.722 668.089,-457.831"/>
</g>
<!-- Node47 -->
<g id="node47" class="node"><title>Node47</title>
<g id="a_node47"><a xlink:href="../../d1/d1f/FECInfo_8h.html" target="_top" xlink:title="TPCBase/FECInfo.h">
<polygon fill="none" stroke="black" points="1159.5,-328.5 1159.5,-347.5 1266.5,-347.5 1266.5,-328.5 1159.5,-328.5"/>
<text text-anchor="middle" x="1213" y="-335.5" font-family="Helvetica,sans-Serif" font-size="10.00">TPCBase/FECInfo.h</text>
</a>
</g>
</g>
<!-- Node39&#45;&gt;Node47 -->
<g id="edge66" class="edge"><title>Node39&#45;&gt;Node47</title>
<path fill="none" stroke="midnightblue" d="M963.78,-497.672C968.249,-497.088 972.703,-496.522 977,-496 1015.15,-491.364 1295.28,-488.554 1321,-460 1356.22,-420.906 1282.48,-374.413 1240.08,-352.153"/>
<polygon fill="midnightblue" stroke="midnightblue" points="1241.55,-348.977 1231.06,-347.532 1238.36,-355.207 1241.55,-348.977"/>
</g>
<!-- Node48 -->
<g id="node48" class="node"><title>Node48</title>
<g id="a_node48"><a xlink:href="../../da/d9d/PadRegionInfo_8h.html" target="_top" xlink:title="TPCBase/PadRegionInfo.h">
<polygon fill="none" stroke="black" points="844.5,-440.5 844.5,-459.5 979.5,-459.5 979.5,-440.5 844.5,-440.5"/>
<text text-anchor="middle" x="912" y="-447.5" font-family="Helvetica,sans-Serif" font-size="10.00">TPCBase/PadRegionInfo.h</text>
</a>
</g>
</g>
<!-- Node39&#45;&gt;Node48 -->
<g id="edge68" class="edge"><title>Node39&#45;&gt;Node48</title>
<path fill="none" stroke="midnightblue" d="M912,-496.083C912,-489.006 912,-478.861 912,-469.986"/>
<polygon fill="midnightblue" stroke="midnightblue" points="915.5,-469.751 912,-459.751 908.5,-469.751 915.5,-469.751"/>
</g>
<!-- Node49 -->
<g id="node49" class="node"><title>Node49</title>
<g id="a_node49"><a xlink:href="../../d6/d42/PartitionInfo_8h.html" target="_top" xlink:title="TPCBase/PartitionInfo.h">
<polygon fill="none" stroke="black" points="1189.5,-440.5 1189.5,-459.5 1312.5,-459.5 1312.5,-440.5 1189.5,-440.5"/>
<text text-anchor="middle" x="1251" y="-447.5" font-family="Helvetica,sans-Serif" font-size="10.00">TPCBase/PartitionInfo.h</text>
</a>
</g>
</g>
<!-- Node39&#45;&gt;Node49 -->
<g id="edge72" class="edge"><title>Node39&#45;&gt;Node49</title>
<path fill="none" stroke="midnightblue" d="M963.856,-496.74C1023.89,-487.177 1122.78,-471.424 1187.4,-461.13"/>
<polygon fill="midnightblue" stroke="midnightblue" points="1188.15,-464.556 1197.47,-459.527 1187.04,-457.644 1188.15,-464.556"/>
</g>
<!-- Node44&#45;&gt;Node17 -->
<g id="edge55" class="edge"><title>Node44&#45;&gt;Node17</title>
<path fill="none" stroke="midnightblue" d="M527.667,-384.458C537.277,-371.039 552.468,-344.817 539,-328 521.517,-306.17 450.358,-294.217 397.644,-288.221"/>
<polygon fill="midnightblue" stroke="midnightblue" points="398.022,-284.741 387.701,-287.134 397.262,-291.7 398.022,-284.741"/>
</g>
<!-- Node44&#45;&gt;Node43 -->
<g id="edge56" class="edge"><title>Node44&#45;&gt;Node43</title>
<path fill="none" stroke="midnightblue" d="M564.258,-384.444C612.181,-374.964 689.478,-359.675 741,-349.483"/>
<polygon fill="midnightblue" stroke="midnightblue" points="741.814,-352.89 750.945,-347.516 740.456,-346.023 741.814,-352.89"/>
</g>
<!-- Node45&#45;&gt;Node3 -->
<g id="edge58" class="edge"><title>Node45&#45;&gt;Node3</title>
<path fill="none" stroke="midnightblue" d="M699.656,-384.234C692.488,-357.433 670.757,-276.178 660.925,-239.415"/>
<polygon fill="midnightblue" stroke="midnightblue" points="664.25,-238.3 658.285,-229.544 657.488,-240.109 664.25,-238.3"/>
</g>
<!-- Node45&#45;&gt;Node19 -->
<g id="edge59" class="edge"><title>Node45&#45;&gt;Node19</title>
<path fill="none" stroke="midnightblue" d="M667.457,-384.444C629.747,-375.102 569.26,-360.119 528.135,-349.933"/>
<polygon fill="midnightblue" stroke="midnightblue" points="528.929,-346.524 518.381,-347.516 527.246,-353.318 528.929,-346.524"/>
</g>
<!-- Node45&#45;&gt;Node43 -->
<g id="edge60" class="edge"><title>Node45&#45;&gt;Node43</title>
<path fill="none" stroke="midnightblue" d="M716.781,-384.324C731.267,-375.822 753.573,-362.729 770.493,-352.797"/>
<polygon fill="midnightblue" stroke="midnightblue" points="772.403,-355.735 779.255,-347.655 768.859,-349.698 772.403,-355.735"/>
</g>
<!-- Node46&#45;&gt;Node2 -->
<g id="edge63" class="edge"><title>Node46&#45;&gt;Node2</title>
<path fill="none" stroke="midnightblue" d="M569.911,-440.444C525.684,-431.004 454.461,-415.802 406.715,-405.611"/>
<polygon fill="midnightblue" stroke="midnightblue" points="407.411,-402.181 396.901,-403.516 405.95,-409.027 407.411,-402.181"/>
</g>
<!-- Node46&#45;&gt;Node3 -->
<g id="edge62" class="edge"><title>Node46&#45;&gt;Node3</title>
<path fill="none" stroke="midnightblue" d="M611.747,-440.341C618.479,-406.976 642.827,-286.295 652.244,-239.615"/>
<polygon fill="midnightblue" stroke="midnightblue" points="655.704,-240.163 654.251,-229.668 648.843,-238.778 655.704,-240.163"/>
</g>
<!-- Node46&#45;&gt;Node43 -->
<g id="edge64" class="edge"><title>Node46&#45;&gt;Node43</title>
<path fill="none" stroke="midnightblue" d="M664.217,-447.431C700.102,-443.543 745.765,-432.71 775,-404 787.179,-392.04 791.655,-372.739 793.248,-358.27"/>
<polygon fill="midnightblue" stroke="midnightblue" points="796.765,-358.163 793.999,-347.936 789.783,-357.656 796.765,-358.163"/>
</g>
<!-- Node46&#45;&gt;Node44 -->
<g id="edge65" class="edge"><title>Node46&#45;&gt;Node44</title>
<path fill="none" stroke="midnightblue" d="M595.701,-440.324C581.817,-431.9 560.508,-418.971 544.196,-409.074"/>
<polygon fill="midnightblue" stroke="midnightblue" points="545.629,-405.85 535.264,-403.655 541.998,-411.834 545.629,-405.85"/>
</g>
<!-- Node47&#45;&gt;Node16 -->
<g id="edge67" class="edge"><title>Node47&#45;&gt;Node16</title>
<path fill="none" stroke="midnightblue" d="M1201.91,-328.485C1165.91,-299.836 1057.5,-204.879 1107,-136 1136.28,-95.2549 1166.95,-117.434 1214,-100 1216.25,-99.1669 1218.56,-98.285 1220.89,-97.3827"/>
<polygon fill="midnightblue" stroke="midnightblue" points="1222.34,-100.573 1230.34,-93.6319 1219.76,-94.0667 1222.34,-100.573"/>
</g>
<!-- Node48&#45;&gt;Node3 -->
<g id="edge70" class="edge"><title>Node48&#45;&gt;Node3</title>
<path fill="none" stroke="midnightblue" d="M918.315,-440.197C926.71,-427.322 939.446,-402.842 930,-384 885.464,-295.166 768.634,-250.763 702.814,-232.163"/>
<polygon fill="midnightblue" stroke="midnightblue" points="703.667,-228.768 693.098,-229.5 701.817,-235.519 703.667,-228.768"/>
</g>
<!-- Node48&#45;&gt;Node40 -->
<g id="edge69" class="edge"><title>Node48&#45;&gt;Node40</title>
<path fill="none" stroke="midnightblue" d="M907.046,-440.083C902.896,-432.613 896.847,-421.724 891.733,-412.52"/>
<polygon fill="midnightblue" stroke="midnightblue" points="894.778,-410.793 886.862,-403.751 888.659,-414.192 894.778,-410.793"/>
</g>
<!-- Node48&#45;&gt;Node43 -->
<g id="edge71" class="edge"><title>Node48&#45;&gt;Node43</title>
<path fill="none" stroke="midnightblue" d="M914.921,-440.086C918.736,-426.631 923.651,-400.913 912,-384 899.218,-365.446 877.684,-354.536 856.484,-348.124"/>
<polygon fill="midnightblue" stroke="midnightblue" points="857.368,-344.737 846.8,-345.483 855.527,-351.491 857.368,-344.737"/>
</g>
</g>
</svg>
