<?xml version="1.0" encoding="UTF-8" standalone="no"?>
<!DOCTYPE svg PUBLIC "-//W3C//DTD SVG 1.1//EN"
 "http://www.w3.org/Graphics/SVG/1.1/DTD/svg11.dtd">
<!-- Generated by graphviz version 2.36.0 (20140111.2315)
 -->
<!-- Title: /home/travis/build/AliceO2Group/AliceO2/DataFormats/Detectors/TPC/src/TrackTPC.cxx Pages: 1 -->
<svg width="2307pt" height="526pt"
 viewBox="0.00 0.00 2306.94 526.00" xmlns="http://www.w3.org/2000/svg" xmlns:xlink="http://www.w3.org/1999/xlink">
<g id="graph0" class="graph" transform="scale(1 1) rotate(0) translate(4 522)">
<title>/home/travis/build/AliceO2Group/AliceO2/DataFormats/Detectors/TPC/src/TrackTPC.cxx</title>
<!-- Node1 -->
<g id="node1" class="node"><title>Node1</title>
<polygon fill="#bfbfbf" stroke="black" points="1675.5,-465 1675.5,-517 1798.5,-517 1798.5,-465 1675.5,-465"/>
<text text-anchor="start" x="1683.5" y="-505" font-family="Helvetica,sans-Serif" font-size="10.00">/home/travis/build</text>
<text text-anchor="start" x="1683.5" y="-494" font-family="Helvetica,sans-Serif" font-size="10.00">/AliceO2Group/AliceO2</text>
<text text-anchor="start" x="1683.5" y="-483" font-family="Helvetica,sans-Serif" font-size="10.00">/DataFormats/Detectors</text>
<text text-anchor="middle" x="1737" y="-472" font-family="Helvetica,sans-Serif" font-size="10.00">/TPC/src/TrackTPC.cxx</text>
</g>
<!-- Node2 -->
<g id="node2" class="node"><title>Node2</title>
<g id="a_node2"><a xlink:href="../../d5/dc9/TrackTPC_8h.html" target="_top" xlink:title="DataFormatsTPC/TrackTPC.h">
<polygon fill="none" stroke="black" points="1662,-408.5 1662,-427.5 1812,-427.5 1812,-408.5 1662,-408.5"/>
<text text-anchor="middle" x="1737" y="-415.5" font-family="Helvetica,sans-Serif" font-size="10.00">DataFormatsTPC/TrackTPC.h</text>
</a>
</g>
</g>
<!-- Node1&#45;&gt;Node2 -->
<g id="edge1" class="edge"><title>Node1&#45;&gt;Node2</title>
<path fill="none" stroke="midnightblue" d="M1737,-464.768C1737,-455.89 1737,-446.074 1737,-437.816"/>
<polygon fill="midnightblue" stroke="midnightblue" points="1740.5,-437.757 1737,-427.757 1733.5,-437.757 1740.5,-437.757"/>
</g>
<!-- Node3 -->
<g id="node3" class="node"><title>Node3</title>
<g id="a_node3"><a xlink:href="../../d7/d8b/DataFormats_2Reconstruction_2include_2ReconstructionDataFormats_2Track_8h.html" target="_top" xlink:title="ReconstructionDataFormats\l/Track.h">
<polygon fill="none" stroke="black" points="1239,-341 1239,-371 1379,-371 1379,-341 1239,-341"/>
<text text-anchor="start" x="1247" y="-359" font-family="Helvetica,sans-Serif" font-size="10.00">ReconstructionDataFormats</text>
<text text-anchor="middle" x="1309" y="-348" font-family="Helvetica,sans-Serif" font-size="10.00">/Track.h</text>
</a>
</g>
</g>
<!-- Node2&#45;&gt;Node3 -->
<g id="edge2" class="edge"><title>Node2&#45;&gt;Node3</title>
<path fill="none" stroke="midnightblue" d="M1676.13,-408.467C1600.84,-397.912 1472.44,-379.912 1389.18,-368.24"/>
<polygon fill="midnightblue" stroke="midnightblue" points="1389.65,-364.772 1379.26,-366.849 1388.68,-371.704 1389.65,-364.772"/>
</g>
<!-- Node37 -->
<g id="node37" class="node"><title>Node37</title>
<g id="a_node37"><a xlink:href="../../de/dcd/ClusterNative_8h.html" target="_top" xlink:title="Class of a TPC cluster in TPC&#45;native coordinates (row, time) ">
<polygon fill="none" stroke="black" points="2128.5,-210.5 2128.5,-229.5 2293.5,-229.5 2293.5,-210.5 2128.5,-210.5"/>
<text text-anchor="middle" x="2211" y="-217.5" font-family="Helvetica,sans-Serif" font-size="10.00">DataFormatsTPC/ClusterNative.h</text>
</a>
</g>
</g>
<!-- Node2&#45;&gt;Node37 -->
<g id="edge50" class="edge"><title>Node2&#45;&gt;Node37</title>
<path fill="none" stroke="midnightblue" d="M1757.67,-408.452C1832.82,-377.378 2091.76,-270.307 2180.71,-233.524"/>
<polygon fill="midnightblue" stroke="midnightblue" points="2182.32,-236.649 2190.22,-229.593 2179.64,-230.18 2182.32,-236.649"/>
</g>
<!-- Node39 -->
<g id="node39" class="node"><title>Node39</title>
<g id="a_node39"><a xlink:href="../../d1/d73/Defs_8h.html" target="_top" xlink:title="Common definitions for 2D coordinates. ">
<polygon fill="none" stroke="black" points="75,-210.5 75,-229.5 201,-229.5 201,-210.5 75,-210.5"/>
<text text-anchor="middle" x="138" y="-217.5" font-family="Helvetica,sans-Serif" font-size="10.00">DataFormatsTPC/Defs.h</text>
</a>
</g>
</g>
<!-- Node2&#45;&gt;Node39 -->
<g id="edge54" class="edge"><title>Node2&#45;&gt;Node39</title>
<path fill="none" stroke="midnightblue" d="M1661.93,-416.78C1363.57,-415.222 272.236,-402.764 157,-304 138.704,-288.319 136.004,-258.955 136.457,-239.692"/>
<polygon fill="midnightblue" stroke="midnightblue" points="139.953,-239.87 136.994,-229.697 132.963,-239.494 139.953,-239.87"/>
</g>
<!-- Node40 -->
<g id="node40" class="node"><title>Node40</title>
<g id="a_node40"><a xlink:href="../../dc/ddf/DataFormats_2Detectors_2TPC_2include_2DataFormatsTPC_2Cluster_8h.html" target="_top" xlink:title="DataFormatsTPC/Cluster.h">
<polygon fill="none" stroke="black" points="1910.5,-210.5 1910.5,-229.5 2047.5,-229.5 2047.5,-210.5 1910.5,-210.5"/>
<text text-anchor="middle" x="1979" y="-217.5" font-family="Helvetica,sans-Serif" font-size="10.00">DataFormatsTPC/Cluster.h</text>
</a>
</g>
</g>
<!-- Node2&#45;&gt;Node40 -->
<g id="edge58" class="edge"><title>Node2&#45;&gt;Node40</title>
<path fill="none" stroke="midnightblue" d="M1747.71,-408.325C1785.43,-377.777 1912.4,-274.937 1960.41,-236.058"/>
<polygon fill="midnightblue" stroke="midnightblue" points="1962.84,-238.588 1968.41,-229.575 1958.44,-233.149 1962.84,-238.588"/>
</g>
<!-- Node4 -->
<g id="node4" class="node"><title>Node4</title>
<polygon fill="none" stroke="#bfbfbf" points="1697,-74.5 1697,-93.5 1753,-93.5 1753,-74.5 1697,-74.5"/>
<text text-anchor="middle" x="1725" y="-81.5" font-family="Helvetica,sans-Serif" font-size="10.00">Rtypes.h</text>
</g>
<!-- Node3&#45;&gt;Node4 -->
<g id="edge3" class="edge"><title>Node3&#45;&gt;Node4</title>
<path fill="none" stroke="midnightblue" d="M1379.22,-353.548C1467.14,-350.234 1610.9,-339.395 1649,-304 1705.08,-251.896 1654.99,-205.539 1687,-136 1692.8,-123.406 1702.05,-110.897 1709.97,-101.42"/>
<polygon fill="midnightblue" stroke="midnightblue" points="1712.81,-103.492 1716.74,-93.6525 1707.53,-98.8942 1712.81,-103.492"/>
</g>
<!-- Node5 -->
<g id="node5" class="node"><title>Node5</title>
<polygon fill="none" stroke="#bfbfbf" points="1253,-278.5 1253,-297.5 1309,-297.5 1309,-278.5 1253,-278.5"/>
<text text-anchor="middle" x="1281" y="-285.5" font-family="Helvetica,sans-Serif" font-size="10.00">algorithm</text>
</g>
<!-- Node3&#45;&gt;Node5 -->
<g id="edge4" class="edge"><title>Node3&#45;&gt;Node5</title>
<path fill="none" stroke="midnightblue" d="M1302.92,-340.679C1298.77,-330.898 1293.24,-317.852 1288.77,-307.315"/>
<polygon fill="midnightblue" stroke="midnightblue" points="1291.87,-305.667 1284.75,-297.828 1285.43,-308.401 1291.87,-305.667"/>
</g>
<!-- Node6 -->
<g id="node6" class="node"><title>Node6</title>
<polygon fill="none" stroke="#bfbfbf" points="1260,-6.5 1260,-25.5 1298,-25.5 1298,-6.5 1260,-6.5"/>
<text text-anchor="middle" x="1279" y="-13.5" font-family="Helvetica,sans-Serif" font-size="10.00">array</text>
</g>
<!-- Node3&#45;&gt;Node6 -->
<g id="edge5" class="edge"><title>Node3&#45;&gt;Node6</title>
<path fill="none" stroke="midnightblue" d="M1238.56,-348.096C979.821,-321.435 104.193,-219.096 248,-68 283.44,-30.7631 1083.78,-19.3044 1249.23,-17.3298"/>
<polygon fill="midnightblue" stroke="midnightblue" points="1249.66,-20.8251 1259.62,-17.2085 1249.58,-13.8256 1249.66,-20.8251"/>
</g>
<!-- Node7 -->
<g id="node7" class="node"><title>Node7</title>
<polygon fill="none" stroke="#bfbfbf" points="1365.5,-278.5 1365.5,-297.5 1406.5,-297.5 1406.5,-278.5 1365.5,-278.5"/>
<text text-anchor="middle" x="1386" y="-285.5" font-family="Helvetica,sans-Serif" font-size="10.00">cfloat</text>
</g>
<!-- Node3&#45;&gt;Node7 -->
<g id="edge6" class="edge"><title>Node3&#45;&gt;Node7</title>
<path fill="none" stroke="midnightblue" d="M1325.71,-340.679C1338.19,-329.981 1355.23,-315.377 1368.01,-304.422"/>
<polygon fill="midnightblue" stroke="midnightblue" points="1370.39,-306.994 1375.7,-297.828 1365.83,-301.679 1370.39,-306.994"/>
</g>
<!-- Node8 -->
<g id="node8" class="node"><title>Node8</title>
<polygon fill="none" stroke="#bfbfbf" points="0,-6.5 0,-25.5 44,-25.5 44,-6.5 0,-6.5"/>
<text text-anchor="middle" x="22" y="-13.5" font-family="Helvetica,sans-Serif" font-size="10.00">cmath</text>
</g>
<!-- Node3&#45;&gt;Node8 -->
<g id="edge7" class="edge"><title>Node3&#45;&gt;Node8</title>
<path fill="none" stroke="midnightblue" d="M1238.6,-353.779C1004.42,-349.457 260.604,-333.531 157,-304 84.4732,-283.327 9,-296.416 9,-221 9,-221 9,-221 9,-151 9,-109.669 15.2028,-61.5005 19.0392,-35.6611"/>
<polygon fill="midnightblue" stroke="midnightblue" points="22.5025,-36.1663 20.5591,-25.7513 15.5834,-35.105 22.5025,-36.1663"/>
</g>
<!-- Node9 -->
<g id="node9" class="node"><title>Node9</title>
<polygon fill="none" stroke="#bfbfbf" points="1594,-278.5 1594,-297.5 1640,-297.5 1640,-278.5 1594,-278.5"/>
<text text-anchor="middle" x="1617" y="-285.5" font-family="Helvetica,sans-Serif" font-size="10.00">cstring</text>
</g>
<!-- Node3&#45;&gt;Node9 -->
<g id="edge8" class="edge"><title>Node3&#45;&gt;Node9</title>
<path fill="none" stroke="midnightblue" d="M1379.24,-345.708C1434.49,-337.463 1513.05,-323.658 1580,-304 1582.81,-303.176 1585.69,-302.217 1588.55,-301.188"/>
<polygon fill="midnightblue" stroke="midnightblue" points="1589.98,-304.389 1598.05,-297.525 1587.46,-297.858 1589.98,-304.389"/>
</g>
<!-- Node10 -->
<g id="node10" class="node"><title>Node10</title>
<polygon fill="none" stroke="#bfbfbf" points="1565,-74.5 1565,-93.5 1619,-93.5 1619,-74.5 1565,-74.5"/>
<text text-anchor="middle" x="1592" y="-81.5" font-family="Helvetica,sans-Serif" font-size="10.00">iostream</text>
</g>
<!-- Node3&#45;&gt;Node10 -->
<g id="edge9" class="edge"><title>Node3&#45;&gt;Node10</title>
<path fill="none" stroke="midnightblue" d="M1352.52,-340.911C1400.35,-323.38 1476.54,-289.111 1523,-236 1558.33,-195.621 1578.76,-134.13 1587.28,-103.576"/>
<polygon fill="midnightblue" stroke="midnightblue" points="1590.69,-104.38 1589.89,-93.8157 1583.93,-102.574 1590.69,-104.38"/>
</g>
<!-- Node11 -->
<g id="node11" class="node"><title>Node11</title>
<polygon fill="none" stroke="#bfbfbf" points="166.5,-278.5 166.5,-297.5 249.5,-297.5 249.5,-278.5 166.5,-278.5"/>
<text text-anchor="middle" x="208" y="-285.5" font-family="Helvetica,sans-Serif" font-size="10.00">Math/SMatrix.h</text>
</g>
<!-- Node3&#45;&gt;Node11 -->
<g id="edge10" class="edge"><title>Node3&#45;&gt;Node11</title>
<path fill="none" stroke="midnightblue" d="M1238.8,-353.815C1035.27,-350.027 447.387,-336.504 258,-304 252.775,-303.103 247.327,-301.833 242.03,-300.407"/>
<polygon fill="midnightblue" stroke="midnightblue" points="242.711,-296.96 232.131,-297.529 240.757,-303.682 242.711,-296.96"/>
</g>
<!-- Node12 -->
<g id="node12" class="node"><title>Node12</title>
<polygon fill="none" stroke="#bfbfbf" points="267.5,-278.5 267.5,-297.5 352.5,-297.5 352.5,-278.5 267.5,-278.5"/>
<text text-anchor="middle" x="310" y="-285.5" font-family="Helvetica,sans-Serif" font-size="10.00">Math/SVector.h</text>
</g>
<!-- Node3&#45;&gt;Node12 -->
<g id="edge11" class="edge"><title>Node3&#45;&gt;Node12</title>
<path fill="none" stroke="midnightblue" d="M1238.8,-353.049C1050.11,-347.512 534.968,-330.367 367,-304 360.698,-303.011 354.084,-301.614 347.686,-300.066"/>
<polygon fill="midnightblue" stroke="midnightblue" points="348.438,-296.646 337.882,-297.547 346.697,-303.426 348.438,-296.646"/>
</g>
<!-- Node13 -->
<g id="node13" class="node"><title>Node13</title>
<g id="a_node13"><a xlink:href="../../d6/d84/MathConstants_8h.html" target="_top" xlink:title="useful math constants ">
<polygon fill="none" stroke="black" points="1685.5,-6.5 1685.5,-25.5 1864.5,-25.5 1864.5,-6.5 1685.5,-6.5"/>
<text text-anchor="middle" x="1775" y="-13.5" font-family="Helvetica,sans-Serif" font-size="10.00">CommonConstants/MathConstants.h</text>
</a>
</g>
</g>
<!-- Node3&#45;&gt;Node13 -->
<g id="edge12" class="edge"><title>Node3&#45;&gt;Node13</title>
<path fill="none" stroke="midnightblue" d="M1379.1,-352.191C1543.98,-344.293 1950.39,-316.918 2056,-236 2093.04,-207.619 2114.49,-174.415 2088,-136 2040.4,-66.981 1947.1,-37.9594 1874.69,-25.7743"/>
<polygon fill="midnightblue" stroke="midnightblue" points="1875.05,-22.2869 1864.62,-24.1643 1873.94,-29.1991 1875.05,-22.2869"/>
</g>
<!-- Node14 -->
<g id="node14" class="node"><title>Node14</title>
<g id="a_node14"><a xlink:href="../../dd/d76/Cartesian3D_8h.html" target="_top" xlink:title="MathUtils/Cartesian3D.h">
<polygon fill="none" stroke="black" points="898.5,-142.5 898.5,-161.5 1023.5,-161.5 1023.5,-142.5 898.5,-142.5"/>
<text text-anchor="middle" x="961" y="-149.5" font-family="Helvetica,sans-Serif" font-size="10.00">MathUtils/Cartesian3D.h</text>
</a>
</g>
</g>
<!-- Node3&#45;&gt;Node14 -->
<g id="edge13" class="edge"><title>Node3&#45;&gt;Node14</title>
<path fill="none" stroke="midnightblue" d="M1313.9,-340.774C1318.92,-323.898 1324.95,-295.137 1317,-272 1304.55,-235.763 1296.91,-223.626 1264,-204 1226.13,-181.414 1110.8,-166.73 1033.85,-159.161"/>
<polygon fill="midnightblue" stroke="midnightblue" points="1034.02,-155.662 1023.73,-158.185 1033.35,-162.629 1034.02,-155.662"/>
</g>
<!-- Node24 -->
<g id="node24" class="node"><title>Node24</title>
<g id="a_node24"><a xlink:href="../../d9/d52/Common_2MathUtils_2include_2MathUtils_2Utils_8h.html" target="_top" xlink:title="MathUtils/Utils.h">
<polygon fill="none" stroke="black" points="1271,-74.5 1271,-93.5 1361,-93.5 1361,-74.5 1271,-74.5"/>
<text text-anchor="middle" x="1316" y="-81.5" font-family="Helvetica,sans-Serif" font-size="10.00">MathUtils/Utils.h</text>
</a>
</g>
</g>
<!-- Node3&#45;&gt;Node24 -->
<g id="edge25" class="edge"><title>Node3&#45;&gt;Node24</title>
<path fill="none" stroke="midnightblue" d="M1238.91,-354.312C1191.24,-350.446 1129.2,-338.363 1086,-304 1049.37,-274.867 1027.63,-243.328 1053,-204 1098.75,-133.092 1198.09,-103.98 1260.73,-92.3588"/>
<polygon fill="midnightblue" stroke="midnightblue" points="1261.6,-95.7601 1270.84,-90.5763 1260.38,-88.8665 1261.6,-95.7601"/>
</g>
<!-- Node25 -->
<g id="node25" class="node"><title>Node25</title>
<g id="a_node25"><a xlink:href="../../d4/de2/BaseCluster_8h.html" target="_top" xlink:title="ReconstructionDataFormats\l/BaseCluster.h">
<polygon fill="none" stroke="black" points="1095,-273 1095,-303 1235,-303 1235,-273 1095,-273"/>
<text text-anchor="start" x="1103" y="-291" font-family="Helvetica,sans-Serif" font-size="10.00">ReconstructionDataFormats</text>
<text text-anchor="middle" x="1165" y="-280" font-family="Helvetica,sans-Serif" font-size="10.00">/BaseCluster.h</text>
</a>
</g>
</g>
<!-- Node3&#45;&gt;Node25 -->
<g id="edge29" class="edge"><title>Node3&#45;&gt;Node25</title>
<path fill="none" stroke="midnightblue" d="M1278.11,-340.841C1256.75,-331.054 1228.14,-317.941 1205.04,-307.353"/>
<polygon fill="midnightblue" stroke="midnightblue" points="1206.39,-304.12 1195.84,-303.135 1203.47,-310.484 1206.39,-304.12"/>
</g>
<!-- Node14&#45;&gt;Node4 -->
<g id="edge19" class="edge"><title>Node14&#45;&gt;Node4</title>
<path fill="none" stroke="midnightblue" d="M1023.6,-147.7C1187.91,-138.882 1623.23,-114.464 1687,-100 1690.25,-99.2626 1693.59,-98.2904 1696.87,-97.1944"/>
<polygon fill="midnightblue" stroke="midnightblue" points="1698.26,-100.411 1706.42,-93.6463 1695.83,-93.8496 1698.26,-100.411"/>
</g>
<!-- Node14&#45;&gt;Node10 -->
<g id="edge21" class="edge"><title>Node14&#45;&gt;Node10</title>
<path fill="none" stroke="midnightblue" d="M1023.79,-147.415C1127.06,-141.032 1339.06,-125.88 1517,-100 1529.3,-98.2114 1542.63,-95.7259 1554.59,-93.292"/>
<polygon fill="midnightblue" stroke="midnightblue" points="1555.62,-96.6533 1564.69,-91.1853 1554.19,-89.8007 1555.62,-96.6533"/>
</g>
<!-- Node15 -->
<g id="node15" class="node"><title>Node15</title>
<polygon fill="none" stroke="#bfbfbf" points="703.5,-69 703.5,-99 854.5,-99 854.5,-69 703.5,-69"/>
<text text-anchor="start" x="711.5" y="-87" font-family="Helvetica,sans-Serif" font-size="10.00">Math/GenVector/Displacement</text>
<text text-anchor="middle" x="779" y="-76" font-family="Helvetica,sans-Serif" font-size="10.00">Vector3D.h</text>
</g>
<!-- Node14&#45;&gt;Node15 -->
<g id="edge14" class="edge"><title>Node14&#45;&gt;Node15</title>
<path fill="none" stroke="midnightblue" d="M937.207,-142.372C909.463,-132.311 862.891,-115.422 827.44,-102.566"/>
<polygon fill="midnightblue" stroke="midnightblue" points="828.355,-99.1751 817.761,-99.0562 825.969,-105.756 828.355,-99.1751"/>
</g>
<!-- Node16 -->
<g id="node16" class="node"><title>Node16</title>
<polygon fill="none" stroke="#bfbfbf" points="873,-74.5 873,-93.5 1049,-93.5 1049,-74.5 873,-74.5"/>
<text text-anchor="middle" x="961" y="-81.5" font-family="Helvetica,sans-Serif" font-size="10.00">Math/GenVector/PositionVector3D.h</text>
</g>
<!-- Node14&#45;&gt;Node16 -->
<g id="edge15" class="edge"><title>Node14&#45;&gt;Node16</title>
<path fill="none" stroke="midnightblue" d="M961,-142.372C961,-132.643 961,-116.528 961,-103.85"/>
<polygon fill="midnightblue" stroke="midnightblue" points="964.5,-103.841 961,-93.8411 957.5,-103.841 964.5,-103.841"/>
</g>
<!-- Node17 -->
<g id="node17" class="node"><title>Node17</title>
<polygon fill="none" stroke="#bfbfbf" points="1066.5,-74.5 1066.5,-93.5 1215.5,-93.5 1215.5,-74.5 1066.5,-74.5"/>
<text text-anchor="middle" x="1141" y="-81.5" font-family="Helvetica,sans-Serif" font-size="10.00">Math/GenVector/Rotation3D.h</text>
</g>
<!-- Node14&#45;&gt;Node17 -->
<g id="edge16" class="edge"><title>Node14&#45;&gt;Node17</title>
<path fill="none" stroke="midnightblue" d="M984.532,-142.372C1016.15,-130.778 1072.5,-110.116 1108.25,-97.0087"/>
<polygon fill="midnightblue" stroke="midnightblue" points="1109.56,-100.255 1117.75,-93.5259 1107.15,-93.6824 1109.56,-100.255"/>
</g>
<!-- Node18 -->
<g id="node18" class="node"><title>Node18</title>
<polygon fill="none" stroke="#bfbfbf" points="257,-74.5 257,-93.5 413,-93.5 413,-74.5 257,-74.5"/>
<text text-anchor="middle" x="335" y="-81.5" font-family="Helvetica,sans-Serif" font-size="10.00">Math/GenVector/Transform3D.h</text>
</g>
<!-- Node14&#45;&gt;Node18 -->
<g id="edge17" class="edge"><title>Node14&#45;&gt;Node18</title>
<path fill="none" stroke="midnightblue" d="M898.168,-146.62C797.432,-139.247 593.666,-122.886 422,-100 411.753,-98.6339 400.867,-96.9465 390.39,-95.2019"/>
<polygon fill="midnightblue" stroke="midnightblue" points="390.949,-91.7468 380.503,-93.5203 389.775,-98.6477 390.949,-91.7468"/>
</g>
<!-- Node19 -->
<g id="node19" class="node"><title>Node19</title>
<polygon fill="none" stroke="#bfbfbf" points="431,-74.5 431,-93.5 591,-93.5 591,-74.5 431,-74.5"/>
<text text-anchor="middle" x="511" y="-81.5" font-family="Helvetica,sans-Serif" font-size="10.00">Math/GenVector/Translation3D.h</text>
</g>
<!-- Node14&#45;&gt;Node19 -->
<g id="edge18" class="edge"><title>Node14&#45;&gt;Node19</title>
<path fill="none" stroke="midnightblue" d="M898.318,-142.66C826.256,-132.952 704.459,-116.178 600,-100 590.461,-98.5226 580.36,-96.8877 570.519,-95.2566"/>
<polygon fill="midnightblue" stroke="midnightblue" points="570.832,-91.7606 560.392,-93.565 569.678,-98.6649 570.832,-91.7606"/>
</g>
<!-- Node20 -->
<g id="node20" class="node"><title>Node20</title>
<polygon fill="none" stroke="#bfbfbf" points="609,-74.5 609,-93.5 685,-93.5 685,-74.5 609,-74.5"/>
<text text-anchor="middle" x="647" y="-81.5" font-family="Helvetica,sans-Serif" font-size="10.00">TGeoMatrix.h</text>
</g>
<!-- Node14&#45;&gt;Node20 -->
<g id="edge20" class="edge"><title>Node14&#45;&gt;Node20</title>
<path fill="none" stroke="midnightblue" d="M906.117,-142.5C851.84,-133.63 766.61,-118.45 694,-100 689.891,-98.9559 685.613,-97.7547 681.387,-96.4962"/>
<polygon fill="midnightblue" stroke="midnightblue" points="682.307,-93.1172 671.719,-93.5029 680.236,-99.804 682.307,-93.1172"/>
</g>
<!-- Node21 -->
<g id="node21" class="node"><title>Node21</title>
<g id="a_node21"><a xlink:href="../../d2/dd0/Cartesian2D_8h.html" target="_top" xlink:title="MathUtils/Cartesian2D.h">
<polygon fill="none" stroke="black" points="75.5,-74.5 75.5,-93.5 200.5,-93.5 200.5,-74.5 75.5,-74.5"/>
<text text-anchor="middle" x="138" y="-81.5" font-family="Helvetica,sans-Serif" font-size="10.00">MathUtils/Cartesian2D.h</text>
</a>
</g>
</g>
<!-- Node14&#45;&gt;Node21 -->
<g id="edge22" class="edge"><title>Node14&#45;&gt;Node21</title>
<path fill="none" stroke="midnightblue" d="M898.413,-147.875C774.191,-141.375 487.777,-124.898 248,-100 234.193,-98.5663 219.449,-96.7521 205.387,-94.885"/>
<polygon fill="midnightblue" stroke="midnightblue" points="205.671,-91.3916 195.292,-93.5208 204.733,-98.3285 205.671,-91.3916"/>
</g>
<!-- Node22 -->
<g id="node22" class="node"><title>Node22</title>
<polygon fill="none" stroke="#bfbfbf" points="62.5,-1 62.5,-31 213.5,-31 213.5,-1 62.5,-1"/>
<text text-anchor="start" x="70.5" y="-19" font-family="Helvetica,sans-Serif" font-size="10.00">Math/GenVector/Displacement</text>
<text text-anchor="middle" x="138" y="-8" font-family="Helvetica,sans-Serif" font-size="10.00">Vector2D.h</text>
</g>
<!-- Node21&#45;&gt;Node22 -->
<g id="edge23" class="edge"><title>Node21&#45;&gt;Node22</title>
<path fill="none" stroke="midnightblue" d="M138,-74.3717C138,-65.9715 138,-52.811 138,-41.2126"/>
<polygon fill="midnightblue" stroke="midnightblue" points="141.5,-41.1814 138,-31.1815 134.5,-41.1815 141.5,-41.1814"/>
</g>
<!-- Node23 -->
<g id="node23" class="node"><title>Node23</title>
<polygon fill="none" stroke="#bfbfbf" points="232,-6.5 232,-25.5 408,-25.5 408,-6.5 232,-6.5"/>
<text text-anchor="middle" x="320" y="-13.5" font-family="Helvetica,sans-Serif" font-size="10.00">Math/GenVector/PositionVector2D.h</text>
</g>
<!-- Node21&#45;&gt;Node23 -->
<g id="edge24" class="edge"><title>Node21&#45;&gt;Node23</title>
<path fill="none" stroke="midnightblue" d="M161.793,-74.3717C193.764,-62.7779 250.74,-42.1162 286.885,-29.0087"/>
<polygon fill="midnightblue" stroke="midnightblue" points="288.282,-32.2254 296.489,-25.5259 285.895,-25.6447 288.282,-32.2254"/>
</g>
<!-- Node24&#45;&gt;Node6 -->
<g id="edge26" class="edge"><title>Node24&#45;&gt;Node6</title>
<path fill="none" stroke="midnightblue" d="M1311.16,-74.3717C1305.54,-64.3478 1296.12,-47.5455 1288.93,-34.7076"/>
<polygon fill="midnightblue" stroke="midnightblue" points="1291.9,-32.8524 1283.96,-25.8411 1285.79,-36.2755 1291.9,-32.8524"/>
</g>
<!-- Node24&#45;&gt;Node8 -->
<g id="edge27" class="edge"><title>Node24&#45;&gt;Node8</title>
<path fill="none" stroke="midnightblue" d="M1271.23,-74.4944C1256.27,-71.9742 1239.46,-69.4919 1224,-68 964.858,-42.9993 305.84,-94.061 53,-32 50.6484,-31.4228 48.2649,-30.6528 45.9186,-29.7654"/>
<polygon fill="midnightblue" stroke="midnightblue" points="47.2187,-26.5132 36.6591,-25.6505 44.376,-32.91 47.2187,-26.5132"/>
</g>
<!-- Node24&#45;&gt;Node13 -->
<g id="edge28" class="edge"><title>Node24&#45;&gt;Node13</title>
<path fill="none" stroke="midnightblue" d="M1343.84,-74.4323C1352.19,-72.0891 1361.41,-69.7235 1370,-68 1473.05,-47.3136 1592.63,-33.4785 1675,-25.4995"/>
<polygon fill="midnightblue" stroke="midnightblue" points="1675.49,-28.9689 1685.11,-24.5316 1674.83,-22.0007 1675.49,-28.9689"/>
</g>
<!-- Node25&#45;&gt;Node10 -->
<g id="edge34" class="edge"><title>Node25&#45;&gt;Node10</title>
<path fill="none" stroke="midnightblue" d="M1235.18,-273.5C1238.16,-272.982 1241.11,-272.48 1244,-272 1300.02,-262.701 1451.9,-270.504 1497,-236 1535.43,-206.605 1512.66,-175.913 1540,-136 1549.23,-122.533 1562.37,-109.679 1573.13,-100.245"/>
<polygon fill="midnightblue" stroke="midnightblue" points="1575.44,-102.881 1580.8,-93.7431 1570.91,-97.5433 1575.44,-102.881"/>
</g>
<!-- Node25&#45;&gt;Node14 -->
<g id="edge49" class="edge"><title>Node25&#45;&gt;Node14</title>
<path fill="none" stroke="midnightblue" d="M1203.24,-272.854C1219.48,-264.721 1236.76,-252.73 1246,-236 1252.87,-223.549 1255.13,-214.906 1246,-204 1219.46,-172.293 1109.34,-160.276 1034.01,-155.737"/>
<polygon fill="midnightblue" stroke="midnightblue" points="1033.81,-152.22 1023.63,-155.144 1033.41,-159.208 1033.81,-152.22"/>
</g>
<!-- Node26 -->
<g id="node26" class="node"><title>Node26</title>
<polygon fill="none" stroke="#bfbfbf" points="1062.5,-210.5 1062.5,-229.5 1121.5,-229.5 1121.5,-210.5 1062.5,-210.5"/>
<text text-anchor="middle" x="1092" y="-217.5" font-family="Helvetica,sans-Serif" font-size="10.00">TObject.h</text>
</g>
<!-- Node25&#45;&gt;Node26 -->
<g id="edge30" class="edge"><title>Node25&#45;&gt;Node26</title>
<path fill="none" stroke="midnightblue" d="M1149.16,-272.679C1137.44,-262.082 1121.48,-247.655 1109.41,-236.736"/>
<polygon fill="midnightblue" stroke="midnightblue" points="1111.53,-233.939 1101.76,-229.828 1106.84,-239.131 1111.53,-233.939"/>
</g>
<!-- Node27 -->
<g id="node27" class="node"><title>Node27</title>
<polygon fill="none" stroke="#bfbfbf" points="1637.5,-74.5 1637.5,-93.5 1678.5,-93.5 1678.5,-74.5 1637.5,-74.5"/>
<text text-anchor="middle" x="1658" y="-81.5" font-family="Helvetica,sans-Serif" font-size="10.00">bitset</text>
</g>
<!-- Node25&#45;&gt;Node27 -->
<g id="edge31" class="edge"><title>Node25&#45;&gt;Node27</title>
<path fill="none" stroke="midnightblue" d="M1235.17,-273.452C1238.15,-272.948 1241.1,-272.461 1244,-272 1367.47,-252.33 1412.38,-294.267 1523,-236 1582.78,-204.515 1628.87,-135.24 1648.14,-102.63"/>
<polygon fill="midnightblue" stroke="midnightblue" points="1651.29,-104.181 1653.25,-93.7697 1645.23,-100.685 1651.29,-104.181"/>
</g>
<!-- Node28 -->
<g id="node28" class="node"><title>Node28</title>
<polygon fill="none" stroke="#bfbfbf" points="1140,-210.5 1140,-229.5 1190,-229.5 1190,-210.5 1140,-210.5"/>
<text text-anchor="middle" x="1165" y="-217.5" font-family="Helvetica,sans-Serif" font-size="10.00">iomanip</text>
</g>
<!-- Node25&#45;&gt;Node28 -->
<g id="edge32" class="edge"><title>Node25&#45;&gt;Node28</title>
<path fill="none" stroke="midnightblue" d="M1165,-272.679C1165,-263.101 1165,-250.394 1165,-239.977"/>
<polygon fill="midnightblue" stroke="midnightblue" points="1168.5,-239.828 1165,-229.828 1161.5,-239.828 1168.5,-239.828"/>
</g>
<!-- Node29 -->
<g id="node29" class="node"><title>Node29</title>
<polygon fill="none" stroke="#bfbfbf" points="1208.5,-210.5 1208.5,-229.5 1237.5,-229.5 1237.5,-210.5 1208.5,-210.5"/>
<text text-anchor="middle" x="1223" y="-217.5" font-family="Helvetica,sans-Serif" font-size="10.00">ios</text>
</g>
<!-- Node25&#45;&gt;Node29 -->
<g id="edge33" class="edge"><title>Node25&#45;&gt;Node29</title>
<path fill="none" stroke="midnightblue" d="M1177.59,-272.679C1186.72,-262.286 1199.09,-248.208 1208.61,-237.37"/>
<polygon fill="midnightblue" stroke="midnightblue" points="1211.27,-239.65 1215.24,-229.828 1206.01,-235.03 1211.27,-239.65"/>
</g>
<!-- Node30 -->
<g id="node30" class="node"><title>Node30</title>
<g id="a_node30"><a xlink:href="../../d4/d20/DetMatrixCache_8h.html" target="_top" xlink:title="DetectorsCommonDataFormats\l/DetMatrixCache.h">
<polygon fill="none" stroke="black" points="1332,-205 1332,-235 1488,-235 1488,-205 1332,-205"/>
<text text-anchor="start" x="1340" y="-223" font-family="Helvetica,sans-Serif" font-size="10.00">DetectorsCommonDataFormats</text>
<text text-anchor="middle" x="1410" y="-212" font-family="Helvetica,sans-Serif" font-size="10.00">/DetMatrixCache.h</text>
</a>
</g>
</g>
<!-- Node25&#45;&gt;Node30 -->
<g id="edge35" class="edge"><title>Node25&#45;&gt;Node30</title>
<path fill="none" stroke="midnightblue" d="M1217.26,-272.922C1255.56,-262.605 1307.69,-248.56 1348.09,-237.679"/>
<polygon fill="midnightblue" stroke="midnightblue" points="1349.08,-241.037 1357.82,-235.056 1347.26,-234.278 1349.08,-241.037"/>
</g>
<!-- Node30&#45;&gt;Node4 -->
<g id="edge48" class="edge"><title>Node30&#45;&gt;Node4</title>
<path fill="none" stroke="midnightblue" d="M1443.12,-204.913C1504.78,-178.679 1636.31,-122.73 1695.29,-97.6369"/>
<polygon fill="midnightblue" stroke="midnightblue" points="1696.94,-100.739 1704.78,-93.6034 1694.2,-94.2972 1696.94,-100.739"/>
</g>
<!-- Node30&#45;&gt;Node6 -->
<g id="edge37" class="edge"><title>Node30&#45;&gt;Node6</title>
<path fill="none" stroke="midnightblue" d="M1331.69,-205.967C1290.25,-197.302 1245.4,-184.481 1233,-168 1201.79,-126.526 1241.94,-63.7643 1264.95,-33.9183"/>
<polygon fill="midnightblue" stroke="midnightblue" points="1267.94,-35.7746 1271.44,-25.7725 1262.47,-31.4126 1267.94,-35.7746"/>
</g>
<!-- Node30&#45;&gt;Node14 -->
<g id="edge47" class="edge"><title>Node30&#45;&gt;Node14</title>
<path fill="none" stroke="midnightblue" d="M1331.72,-206.129C1327.08,-205.4 1322.48,-204.685 1318,-204 1219.64,-188.957 1105.81,-172.935 1033.63,-162.948"/>
<polygon fill="midnightblue" stroke="midnightblue" points="1033.67,-159.421 1023.29,-161.519 1032.72,-166.355 1033.67,-159.421"/>
</g>
<!-- Node31 -->
<g id="node31" class="node"><title>Node31</title>
<polygon fill="none" stroke="#bfbfbf" points="1242.5,-142.5 1242.5,-161.5 1313.5,-161.5 1313.5,-142.5 1242.5,-142.5"/>
<text text-anchor="middle" x="1278" y="-149.5" font-family="Helvetica,sans-Serif" font-size="10.00">FairLogger.h</text>
</g>
<!-- Node30&#45;&gt;Node31 -->
<g id="edge36" class="edge"><title>Node30&#45;&gt;Node31</title>
<path fill="none" stroke="midnightblue" d="M1381.68,-204.841C1358.85,-193.425 1326.97,-177.485 1304.61,-166.303"/>
<polygon fill="midnightblue" stroke="midnightblue" points="1305.87,-163.024 1295.36,-161.682 1302.74,-169.285 1305.87,-163.024"/>
</g>
<!-- Node32 -->
<g id="node32" class="node"><title>Node32</title>
<polygon fill="none" stroke="#bfbfbf" points="1696,-142.5 1696,-161.5 1740,-161.5 1740,-142.5 1696,-142.5"/>
<text text-anchor="middle" x="1718" y="-149.5" font-family="Helvetica,sans-Serif" font-size="10.00">vector</text>
</g>
<!-- Node30&#45;&gt;Node32 -->
<g id="edge38" class="edge"><title>Node30&#45;&gt;Node32</title>
<path fill="none" stroke="midnightblue" d="M1475.7,-204.922C1540.35,-191.067 1636.37,-170.491 1685.89,-159.881"/>
<polygon fill="midnightblue" stroke="midnightblue" points="1686.68,-163.292 1695.72,-157.774 1685.21,-156.447 1686.68,-163.292"/>
</g>
<!-- Node33 -->
<g id="node33" class="node"><title>Node33</title>
<g id="a_node33"><a xlink:href="../../d6/d31/DetID_8h.html" target="_top" xlink:title="DetectorsCommonDataFormats\l/DetID.h">
<polygon fill="none" stroke="black" points="1332,-137 1332,-167 1488,-167 1488,-137 1332,-137"/>
<text text-anchor="start" x="1340" y="-155" font-family="Helvetica,sans-Serif" font-size="10.00">DetectorsCommonDataFormats</text>
<text text-anchor="middle" x="1410" y="-144" font-family="Helvetica,sans-Serif" font-size="10.00">/DetID.h</text>
</a>
</g>
</g>
<!-- Node30&#45;&gt;Node33 -->
<g id="edge39" class="edge"><title>Node30&#45;&gt;Node33</title>
<path fill="none" stroke="midnightblue" d="M1410,-204.679C1410,-196.722 1410,-186.605 1410,-177.436"/>
<polygon fill="midnightblue" stroke="midnightblue" points="1413.5,-177.293 1410,-167.293 1406.5,-177.293 1413.5,-177.293"/>
</g>
<!-- Node33&#45;&gt;Node4 -->
<g id="edge40" class="edge"><title>Node33&#45;&gt;Node4</title>
<path fill="none" stroke="midnightblue" d="M1488.24,-140.734C1544.24,-132.387 1621.07,-118.888 1687,-100 1689.97,-99.1484 1693.03,-98.1519 1696.07,-97.0845"/>
<polygon fill="midnightblue" stroke="midnightblue" points="1697.4,-100.323 1705.53,-93.5241 1694.94,-93.7713 1697.4,-100.323"/>
</g>
<!-- Node33&#45;&gt;Node6 -->
<g id="edge41" class="edge"><title>Node33&#45;&gt;Node6</title>
<path fill="none" stroke="midnightblue" d="M1467.7,-136.995C1486.72,-129.337 1505.85,-117.663 1517,-100 1524.59,-87.9729 1525.94,-79.0601 1517,-68 1491.04,-35.8926 1366.05,-23.0863 1308.33,-18.8227"/>
<polygon fill="midnightblue" stroke="midnightblue" points="1308.27,-15.3103 1298.05,-18.102 1307.78,-22.2931 1308.27,-15.3103"/>
</g>
<!-- Node33&#45;&gt;Node24 -->
<g id="edge46" class="edge"><title>Node33&#45;&gt;Node24</title>
<path fill="none" stroke="midnightblue" d="M1389.6,-136.679C1373.99,-125.713 1352.52,-110.645 1336.81,-99.6085"/>
<polygon fill="midnightblue" stroke="midnightblue" points="1338.5,-96.5198 1328.3,-93.6379 1334.48,-102.249 1338.5,-96.5198"/>
</g>
<!-- Node33&#45;&gt;Node27 -->
<g id="edge42" class="edge"><title>Node33&#45;&gt;Node27</title>
<path fill="none" stroke="midnightblue" d="M1488.21,-137.317C1530.32,-128.806 1582.76,-116.346 1628,-100 1629.66,-99.4014 1631.34,-98.7348 1633.02,-98.0247"/>
<polygon fill="midnightblue" stroke="midnightblue" points="1634.83,-101.043 1642.42,-93.6514 1631.88,-94.6956 1634.83,-101.043"/>
</g>
<!-- Node34 -->
<g id="node34" class="node"><title>Node34</title>
<polygon fill="none" stroke="#bfbfbf" points="1379.5,-74.5 1379.5,-93.5 1428.5,-93.5 1428.5,-74.5 1379.5,-74.5"/>
<text text-anchor="middle" x="1404" y="-81.5" font-family="Helvetica,sans-Serif" font-size="10.00">cassert</text>
</g>
<!-- Node33&#45;&gt;Node34 -->
<g id="edge43" class="edge"><title>Node33&#45;&gt;Node34</title>
<path fill="none" stroke="midnightblue" d="M1408.7,-136.679C1407.83,-127.101 1406.67,-114.394 1405.73,-103.977"/>
<polygon fill="midnightblue" stroke="midnightblue" points="1409.19,-103.47 1404.8,-93.8283 1402.22,-104.104 1409.19,-103.47"/>
</g>
<!-- Node35 -->
<g id="node35" class="node"><title>Node35</title>
<polygon fill="none" stroke="#bfbfbf" points="2213,-74.5 2213,-93.5 2259,-93.5 2259,-74.5 2213,-74.5"/>
<text text-anchor="middle" x="2236" y="-81.5" font-family="Helvetica,sans-Serif" font-size="10.00">cstdint</text>
</g>
<!-- Node33&#45;&gt;Node35 -->
<g id="edge44" class="edge"><title>Node33&#45;&gt;Node35</title>
<path fill="none" stroke="midnightblue" d="M1488.08,-144.761C1663.16,-130.772 2081.27,-97.3638 2202.51,-87.6758"/>
<polygon fill="midnightblue" stroke="midnightblue" points="2202.97,-91.1501 2212.66,-86.8647 2202.42,-84.1724 2202.97,-91.1501"/>
</g>
<!-- Node36 -->
<g id="node36" class="node"><title>Node36</title>
<polygon fill="none" stroke="#bfbfbf" points="1447,-74.5 1447,-93.5 1509,-93.5 1509,-74.5 1447,-74.5"/>
<text text-anchor="middle" x="1478" y="-81.5" font-family="Helvetica,sans-Serif" font-size="10.00">type_traits</text>
</g>
<!-- Node33&#45;&gt;Node36 -->
<g id="edge45" class="edge"><title>Node33&#45;&gt;Node36</title>
<path fill="none" stroke="midnightblue" d="M1424.75,-136.679C1435.57,-126.184 1450.25,-111.932 1461.46,-101.052"/>
<polygon fill="midnightblue" stroke="midnightblue" points="1464.17,-103.305 1468.9,-93.8283 1459.29,-98.2815 1464.17,-103.305"/>
</g>
<!-- Node37&#45;&gt;Node32 -->
<g id="edge52" class="edge"><title>Node37&#45;&gt;Node32</title>
<path fill="none" stroke="midnightblue" d="M2128.5,-210.625C2000.53,-197.53 1766.94,-173.166 1749,-168 1746.81,-167.368 1744.58,-166.591 1742.37,-165.727"/>
<polygon fill="midnightblue" stroke="midnightblue" points="1743.6,-162.442 1733.04,-161.55 1740.74,-168.831 1743.6,-162.442"/>
</g>
<!-- Node37&#45;&gt;Node35 -->
<g id="edge51" class="edge"><title>Node37&#45;&gt;Node35</title>
<path fill="none" stroke="midnightblue" d="M2237.93,-210.462C2257.34,-202.736 2282.11,-189.256 2294,-168 2300.94,-155.587 2299.86,-148.958 2294,-136 2287,-120.515 2272.71,-107.861 2260.07,-99.0318"/>
<polygon fill="midnightblue" stroke="midnightblue" points="2261.97,-96.095 2251.69,-93.542 2258.14,-101.95 2261.97,-96.095"/>
</g>
<!-- Node38 -->
<g id="node38" class="node"><title>Node38</title>
<g id="a_node38"><a xlink:href="../../d0/dda/DataFormats_2Detectors_2TPC_2include_2DataFormatsTPC_2Constants_8h.html" target="_top" xlink:title="DataFormatsTPC/Constants.h">
<polygon fill="none" stroke="black" points="2136,-142.5 2136,-161.5 2286,-161.5 2286,-142.5 2136,-142.5"/>
<text text-anchor="middle" x="2211" y="-149.5" font-family="Helvetica,sans-Serif" font-size="10.00">DataFormatsTPC/Constants.h</text>
</a>
</g>
</g>
<!-- Node37&#45;&gt;Node38 -->
<g id="edge53" class="edge"><title>Node37&#45;&gt;Node38</title>
<path fill="none" stroke="midnightblue" d="M2211,-210.372C2211,-200.643 2211,-184.528 2211,-171.85"/>
<polygon fill="midnightblue" stroke="midnightblue" points="2214.5,-171.841 2211,-161.841 2207.5,-171.841 2214.5,-171.841"/>
</g>
<!-- Node39&#45;&gt;Node8 -->
<g id="edge55" class="edge"><title>Node39&#45;&gt;Node8</title>
<path fill="none" stroke="midnightblue" d="M132.591,-210.439C120.366,-191.012 89.8194,-142.011 66,-100 53.4764,-77.9118 39.9119,-51.992 31.2044,-35.0703"/>
<polygon fill="midnightblue" stroke="midnightblue" points="34.1365,-33.1172 26.4632,-25.8117 27.906,-36.3079 34.1365,-33.1172"/>
</g>
<!-- Node39&#45;&gt;Node14 -->
<g id="edge57" class="edge"><title>Node39&#45;&gt;Node14</title>
<path fill="none" stroke="midnightblue" d="M201.213,-213.931C351.392,-201.887 728.907,-171.613 888.243,-158.835"/>
<polygon fill="midnightblue" stroke="midnightblue" points="888.729,-162.307 898.417,-158.019 888.17,-155.329 888.729,-162.307"/>
</g>
<!-- Node39&#45;&gt;Node21 -->
<g id="edge56" class="edge"><title>Node39&#45;&gt;Node21</title>
<path fill="none" stroke="midnightblue" d="M138,-210.208C138,-188.722 138,-133.167 138,-103.814"/>
<polygon fill="midnightblue" stroke="midnightblue" points="141.5,-103.65 138,-93.6503 134.5,-103.65 141.5,-103.65"/>
</g>
<!-- Node40&#45;&gt;Node4 -->
<g id="edge59" class="edge"><title>Node40&#45;&gt;Node4</title>
<path fill="none" stroke="midnightblue" d="M1977.19,-210.436C1973.14,-193.468 1961.7,-155.536 1937,-136 1886.45,-96.0204 1809.38,-86.6602 1763.42,-84.8755"/>
<polygon fill="midnightblue" stroke="midnightblue" points="1763.37,-81.3727 1753.27,-84.5855 1763.17,-88.3699 1763.37,-81.3727"/>
</g>
<!-- Node41 -->
<g id="node41" class="node"><title>Node41</title>
<g id="a_node41"><a xlink:href="../../df/d5d/common_2include_2CommonDataFormat_2TimeStamp_8h.html" target="_top" xlink:title="CommonDataFormat/TimeStamp.h">
<polygon fill="none" stroke="black" points="1758,-142.5 1758,-161.5 1928,-161.5 1928,-142.5 1758,-142.5"/>
<text text-anchor="middle" x="1843" y="-149.5" font-family="Helvetica,sans-Serif" font-size="10.00">CommonDataFormat/TimeStamp.h</text>
</a>
</g>
</g>
<!-- Node40&#45;&gt;Node41 -->
<g id="edge60" class="edge"><title>Node40&#45;&gt;Node41</title>
<path fill="none" stroke="midnightblue" d="M1961.22,-210.372C1938.01,-199.106 1897.15,-179.279 1870.08,-166.14"/>
<polygon fill="midnightblue" stroke="midnightblue" points="1871.31,-162.848 1860.78,-161.63 1868.25,-169.145 1871.31,-162.848"/>
</g>
<!-- Node42 -->
<g id="node42" class="node"><title>Node42</title>
<polygon fill="none" stroke="#bfbfbf" points="1984.5,-137 1984.5,-167 2079.5,-167 2079.5,-137 1984.5,-137"/>
<text text-anchor="start" x="1992.5" y="-155" font-family="Helvetica,sans-Serif" font-size="10.00">boost/serialization</text>
<text text-anchor="middle" x="2032" y="-144" font-family="Helvetica,sans-Serif" font-size="10.00">/base_object.hpp</text>
</g>
<!-- Node40&#45;&gt;Node42 -->
<g id="edge62" class="edge"><title>Node40&#45;&gt;Node42</title>
<path fill="none" stroke="midnightblue" d="M1985.93,-210.372C1993.09,-201.457 2004.55,-187.182 2014.25,-175.101"/>
<polygon fill="midnightblue" stroke="midnightblue" points="2017.08,-177.17 2020.61,-167.181 2011.62,-172.787 2017.08,-177.17"/>
</g>
<!-- Node41&#45;&gt;Node4 -->
<g id="edge61" class="edge"><title>Node41&#45;&gt;Node4</title>
<path fill="none" stroke="midnightblue" d="M1827.57,-142.372C1807.7,-131.254 1772.91,-111.8 1749.43,-98.6624"/>
<polygon fill="midnightblue" stroke="midnightblue" points="1750.87,-95.4574 1740.43,-93.6305 1747.45,-101.567 1750.87,-95.4574"/>
</g>
</g>
</svg>
