<?xml version="1.0" encoding="UTF-8" standalone="no"?>
<!DOCTYPE svg PUBLIC "-//W3C//DTD SVG 1.1//EN"
 "http://www.w3.org/Graphics/SVG/1.1/DTD/svg11.dtd">
<!-- Generated by graphviz version 2.36.0 (20140111.2315)
 -->
<!-- Title: o2::ITS::CA::Line Pages: 1 -->
<svg width="218pt" height="226pt"
 viewBox="0.00 0.00 218.00 226.00" xmlns="http://www.w3.org/2000/svg" xmlns:xlink="http://www.w3.org/1999/xlink">
<g id="graph0" class="graph" transform="scale(1 1) rotate(0) translate(4 222)">
<title>o2::ITS::CA::Line</title>
<!-- Node1 -->
<g id="node1" class="node"><title>Node1</title>
<polygon fill="#bfbfbf" stroke="black" points="30.5,-0.5 30.5,-101.5 159.5,-101.5 159.5,-0.5 30.5,-0.5"/>
<text text-anchor="middle" x="95" y="-89.5" font-family="Helvetica,sans-Serif" font-size="10.00">o2::ITS::CA::Line</text>
<polyline fill="none" stroke="black" points="30.5,-82.5 159.5,-82.5 "/>
<text text-anchor="middle" x="95" y="-70.5" font-family="Helvetica,sans-Serif" font-size="10.00"> </text>
<polyline fill="none" stroke="black" points="30.5,-63.5 159.5,-63.5 "/>
<text text-anchor="start" x="38.5" y="-51.5" font-family="Helvetica,sans-Serif" font-size="10.00">+ Line()</text>
<text text-anchor="start" x="38.5" y="-40.5" font-family="Helvetica,sans-Serif" font-size="10.00">+ Line()</text>
<text text-anchor="start" x="38.5" y="-29.5" font-family="Helvetica,sans-Serif" font-size="10.00">+ getDistanceFromPoint()</text>
<text text-anchor="start" x="38.5" y="-18.5" font-family="Helvetica,sans-Serif" font-size="10.00">+ getDCA()</text>
<text text-anchor="start" x="38.5" y="-7.5" font-family="Helvetica,sans-Serif" font-size="10.00">+ areParallel()</text>
</g>
<!-- Node2 -->
<g id="node2" class="node"><title>Node2</title>
<polygon fill="none" stroke="#bfbfbf" points="0,-160.5 0,-217.5 86,-217.5 86,-160.5 0,-160.5"/>
<text text-anchor="middle" x="43" y="-205.5" font-family="Helvetica,sans-Serif" font-size="10.00">array&lt; float, 6 &gt;</text>
<polyline fill="none" stroke="#bfbfbf" points="0,-198.5 86,-198.5 "/>
<text text-anchor="middle" x="43" y="-186.5" font-family="Helvetica,sans-Serif" font-size="10.00"> </text>
<polyline fill="none" stroke="#bfbfbf" points="0,-179.5 86,-179.5 "/>
<text text-anchor="middle" x="43" y="-167.5" font-family="Helvetica,sans-Serif" font-size="10.00"> </text>
</g>
<!-- Node2&#45;&gt;Node1 -->
<g id="edge1" class="edge"><title>Node2&#45;&gt;Node1</title>
<path fill="none" stroke="#404040" d="M48.3762,-160.427C51.2051,-147.887 55.111,-132.982 60,-120 60.9315,-117.527 61.9297,-115.027 62.9787,-112.519"/>
<polygon fill="none" stroke="#404040" points="62.9848,-112.505 61.7631,-105.398 67.8534,-101.537 69.0751,-108.644 62.9848,-112.505"/>
<text text-anchor="middle" x="92.5" y="-128.5" font-family="Helvetica,sans-Serif" font-size="10.00"> +weightMatrix</text>
</g>
<!-- Node3 -->
<g id="node3" class="node"><title>Node3</title>
<polygon fill="none" stroke="#bfbfbf" points="104,-160.5 104,-217.5 190,-217.5 190,-160.5 104,-160.5"/>
<text text-anchor="middle" x="147" y="-205.5" font-family="Helvetica,sans-Serif" font-size="10.00">array&lt; float, 3 &gt;</text>
<polyline fill="none" stroke="#bfbfbf" points="104,-198.5 190,-198.5 "/>
<text text-anchor="middle" x="147" y="-186.5" font-family="Helvetica,sans-Serif" font-size="10.00"> </text>
<polyline fill="none" stroke="#bfbfbf" points="104,-179.5 190,-179.5 "/>
<text text-anchor="middle" x="147" y="-167.5" font-family="Helvetica,sans-Serif" font-size="10.00"> </text>
</g>
<!-- Node3&#45;&gt;Node1 -->
<g id="edge2" class="edge"><title>Node3&#45;&gt;Node1</title>
<path fill="none" stroke="#404040" d="M138.75,-160.315C134.866,-147.886 129.994,-133.101 125,-120 124.102,-117.645 123.167,-115.254 122.205,-112.845"/>
<polygon fill="none" stroke="#404040" points="122.112,-112.619 116.131,-108.591 117.55,-101.52 123.531,-105.549 122.112,-112.619"/>
<text text-anchor="middle" x="171" y="-134" font-family="Helvetica,sans-Serif" font-size="10.00"> +cosinesDirector</text>
<text text-anchor="middle" x="171" y="-123" font-family="Helvetica,sans-Serif" font-size="10.00">+originPoint</text>
</g>
</g>
</svg>
