<?xml version="1.0" encoding="UTF-8" standalone="no"?>
<!DOCTYPE svg PUBLIC "-//W3C//DTD SVG 1.1//EN"
 "http://www.w3.org/Graphics/SVG/1.1/DTD/svg11.dtd">
<!-- Generated by graphviz version 2.36.0 (20140111.2315)
 -->
<!-- Title: /home/travis/build/AliceO2Group/AliceO2/macro/o2sim.C Pages: 1 -->
<!--zoomable 298 -->
<svg id="main" version="1.1" xmlns="http://www.w3.org/2000/svg" xmlns:xlink="http://www.w3.org/1999/xlink" xml:space="preserve" onload="init(evt)">
<style type="text/css"><![CDATA[
.edge:hover path { stroke: red; }
.edge:hover polygon { stroke: red; fill: red; }
]]></style>
<script type="text/javascript"><![CDATA[
var edges = document.getElementsByTagName('g');
if (edges && edges.length) {
  for (var i=0;i<edges.length;i++) {
    if (edges[i].id.substr(0,4)=='edge') {
      edges[i].setAttribute('class','edge');
    }
  }
}
]]></script>
        <defs>
                <circle id="rim" cx="0" cy="0" r="7"/>
                <circle id="rim2" cx="0" cy="0" r="3.5"/>
                <g id="zoomPlus">
                        <use xlink:href="#rim" fill="#404040">
                                <set attributeName="fill" to="#808080" begin="zoomplus.mouseover" end="zoomplus.mouseout"/>
                        </use>
                        <path d="M-4,0h8M0,-4v8" fill="none" stroke="white" stroke-width="1.5" pointer-events="none"/>
                </g>
                <g id="zoomMin">
                        <use xlink:href="#rim" fill="#404040">
                                <set attributeName="fill" to="#808080" begin="zoomminus.mouseover" end="zoomminus.mouseout"/>
                        </use>
                        <path d="M-4,0h8" fill="none" stroke="white" stroke-width="1.5" pointer-events="none"/>
                </g>
                <g id="dirArrow">
                        <path fill="none" stroke="white" stroke-width="1.5" d="M0,-3.0v7 M-2.5,-0.5L0,-3.0L2.5,-0.5"/>
                </g>
               <g id="resetDef">
                       <use xlink:href="#rim2" fill="#404040">
                               <set attributeName="fill" to="#808080" begin="reset.mouseover" end="reset.mouseout"/>
                       </use>
               </g>
        </defs>

<script type="text/javascript">
var viewWidth = 1563;
var viewHeight = 298;
var sectionId = 'dynsection-0';
</script>
<script xlink:href="../../svgpan.js"/>
<svg id="graph" class="graph">
<g id="viewport">
<title>/home/travis/build/AliceO2Group/AliceO2/macro/o2sim.C</title>
<!-- Node1 -->
<g id="node1" class="node"><title>Node1</title>
<polygon fill="#bfbfbf" stroke="black" points="719,-248.5 719,-289.5 837,-289.5 837,-248.5 719,-248.5"/>
<text text-anchor="start" x="727" y="-277.5" font-family="Helvetica,sans-Serif" font-size="10.00">/home/travis/build</text>
<text text-anchor="start" x="727" y="-266.5" font-family="Helvetica,sans-Serif" font-size="10.00">/AliceO2Group/AliceO2</text>
<text text-anchor="middle" x="778" y="-255.5" font-family="Helvetica,sans-Serif" font-size="10.00">/macro/o2sim.C</text>
</g>
<!-- Node2 -->
<g id="node2" class="node"><title>Node2</title>
<polygon fill="none" stroke="#bfbfbf" points="-0.5,-186.5 -0.5,-205.5 92.5,-205.5 92.5,-186.5 -0.5,-186.5"/>
<text text-anchor="middle" x="46" y="-193.5" font-family="Helvetica,sans-Serif" font-size="10.00">build_geometry.C</text>
</g>
<!-- Node1&#45;&gt;Node2 -->
<g id="edge1" class="edge"><title>Node1&#45;&gt;Node2</title>
<path fill="none" stroke="midnightblue" d="M718.671,-266.748C600.335,-263.448 326.907,-251.8 101,-212 95.1928,-210.977 89.1096,-209.618 83.1936,-208.134"/>
<polygon fill="midnightblue" stroke="midnightblue" points="84.0361,-204.736 73.4731,-205.557 82.2424,-211.503 84.0361,-204.736"/>
</g>
<!-- Node3 -->
<g id="node3" class="node"><title>Node3</title>
<polygon fill="none" stroke="#bfbfbf" points="110.5,-186.5 110.5,-205.5 211.5,-205.5 211.5,-186.5 110.5,-186.5"/>
<text text-anchor="middle" x="161" y="-193.5" font-family="Helvetica,sans-Serif" font-size="10.00">FairBoxGenerator.h</text>
</g>
<!-- Node1&#45;&gt;Node3 -->
<g id="edge2" class="edge"><title>Node1&#45;&gt;Node3</title>
<path fill="none" stroke="midnightblue" d="M718.671,-264.863C616.445,-258.83 400.761,-243.337 221,-212 214.683,-210.899 208.048,-209.495 201.588,-207.99"/>
<polygon fill="midnightblue" stroke="midnightblue" points="202.193,-204.535 191.649,-205.57 200.537,-211.337 202.193,-204.535"/>
</g>
<!-- Node4 -->
<g id="node4" class="node"><title>Node4</title>
<polygon fill="none" stroke="#bfbfbf" points="230,-186.5 230,-205.5 348,-205.5 348,-186.5 230,-186.5"/>
<text text-anchor="middle" x="289" y="-193.5" font-family="Helvetica,sans-Serif" font-size="10.00">FairPrimaryGenerator.h</text>
</g>
<!-- Node1&#45;&gt;Node4 -->
<g id="edge3" class="edge"><title>Node1&#45;&gt;Node4</title>
<path fill="none" stroke="midnightblue" d="M718.84,-261.734C637.149,-252.718 485.342,-234.649 357,-212 349.797,-210.729 342.201,-209.221 334.8,-207.659"/>
<polygon fill="midnightblue" stroke="midnightblue" points="335.397,-204.207 324.883,-205.512 333.916,-211.049 335.397,-204.207"/>
</g>
<!-- Node5 -->
<g id="node5" class="node"><title>Node5</title>
<g id="a_node5"><a xlink:href="../../de/daf/GeneratorFromFile_8h.html" target="_top" xlink:title="Generators/GeneratorFrom\lFile.h">
<polygon fill="none" stroke="black" points="366.5,-181 366.5,-211 499.5,-211 499.5,-181 366.5,-181"/>
<text text-anchor="start" x="374.5" y="-199" font-family="Helvetica,sans-Serif" font-size="10.00">Generators/GeneratorFrom</text>
<text text-anchor="middle" x="433" y="-188" font-family="Helvetica,sans-Serif" font-size="10.00">File.h</text>
</a>
</g>
</g>
<!-- Node1&#45;&gt;Node5 -->
<g id="edge4" class="edge"><title>Node1&#45;&gt;Node5</title>
<path fill="none" stroke="midnightblue" d="M718.692,-255.795C660.904,-243.902 572.772,-225.765 509.683,-212.781"/>
<polygon fill="midnightblue" stroke="midnightblue" points="510.282,-209.331 499.781,-210.743 508.871,-216.187 510.282,-209.331"/>
</g>
<!-- Node7 -->
<g id="node7" class="node"><title>Node7</title>
<g id="a_node7"><a xlink:href="../../d6/df5/Pythia8Generator_8h.html" target="_top" xlink:title="Generators/Pythia8Generator.h">
<polygon fill="none" stroke="black" points="518,-186.5 518,-205.5 670,-205.5 670,-186.5 518,-186.5"/>
<text text-anchor="middle" x="594" y="-193.5" font-family="Helvetica,sans-Serif" font-size="10.00">Generators/Pythia8Generator.h</text>
</a>
</g>
</g>
<!-- Node1&#45;&gt;Node7 -->
<g id="edge6" class="edge"><title>Node1&#45;&gt;Node7</title>
<path fill="none" stroke="midnightblue" d="M727.234,-248.411C694.834,-235.909 653.83,-220.087 625.926,-209.319"/>
<polygon fill="midnightblue" stroke="midnightblue" points="626.869,-205.932 616.279,-205.597 624.349,-212.462 626.869,-205.932"/>
</g>
<!-- Node14 -->
<g id="node14" class="node"><title>Node14</title>
<g id="a_node14"><a xlink:href="../../d4/dee/SimConfig_8h.html" target="_top" xlink:title="SimConfig/SimConfig.h">
<polygon fill="none" stroke="black" points="764.5,-118.5 764.5,-137.5 883.5,-137.5 883.5,-118.5 764.5,-118.5"/>
<text text-anchor="middle" x="824" y="-125.5" font-family="Helvetica,sans-Serif" font-size="10.00">SimConfig/SimConfig.h</text>
</a>
</g>
</g>
<!-- Node1&#45;&gt;Node14 -->
<g id="edge14" class="edge"><title>Node1&#45;&gt;Node14</title>
<path fill="none" stroke="midnightblue" d="M768.623,-248.234C761.285,-229.79 753.871,-201.904 764,-180 771.227,-164.373 785.864,-151.779 798.871,-143.015"/>
<polygon fill="midnightblue" stroke="midnightblue" points="800.914,-145.865 807.505,-137.57 797.179,-139.944 800.914,-145.865"/>
</g>
<!-- Node15 -->
<g id="node15" class="node"><title>Node15</title>
<polygon fill="none" stroke="#bfbfbf" points="773.5,-186.5 773.5,-205.5 850.5,-205.5 850.5,-186.5 773.5,-186.5"/>
<text text-anchor="middle" x="812" y="-193.5" font-family="Helvetica,sans-Serif" font-size="10.00">TStopwatch.h</text>
</g>
<!-- Node1&#45;&gt;Node15 -->
<g id="edge16" class="edge"><title>Node1&#45;&gt;Node15</title>
<path fill="none" stroke="midnightblue" d="M787.471,-248.223C792.481,-237.759 798.585,-225.013 803.451,-214.853"/>
<polygon fill="midnightblue" stroke="midnightblue" points="806.655,-216.266 807.817,-205.735 800.341,-213.242 806.655,-216.266"/>
</g>
<!-- Node16 -->
<g id="node16" class="node"><title>Node16</title>
<polygon fill="none" stroke="#bfbfbf" points="869,-186.5 869,-205.5 921,-205.5 921,-186.5 869,-186.5"/>
<text text-anchor="middle" x="895" y="-193.5" font-family="Helvetica,sans-Serif" font-size="10.00">memory</text>
</g>
<!-- Node1&#45;&gt;Node16 -->
<g id="edge17" class="edge"><title>Node1&#45;&gt;Node16</title>
<path fill="none" stroke="midnightblue" d="M810.28,-248.411C829.799,-236.567 854.227,-221.743 871.83,-211.06"/>
<polygon fill="midnightblue" stroke="midnightblue" points="874.1,-213.777 880.833,-205.597 870.469,-207.793 874.1,-213.777"/>
</g>
<!-- Node17 -->
<g id="node17" class="node"><title>Node17</title>
<g id="a_node17"><a xlink:href="../../de/d28/GRPObject_8h.html" target="_top" xlink:title="Header of the General Run Parameters object. ">
<polygon fill="none" stroke="black" points="963,-181 963,-211 1087,-211 1087,-181 963,-181"/>
<text text-anchor="start" x="971" y="-199" font-family="Helvetica,sans-Serif" font-size="10.00">DataFormatsParameters</text>
<text text-anchor="middle" x="1025" y="-188" font-family="Helvetica,sans-Serif" font-size="10.00">/GRPObject.h</text>
</a>
</g>
</g>
<!-- Node1&#45;&gt;Node17 -->
<g id="edge18" class="edge"><title>Node1&#45;&gt;Node17</title>
<path fill="none" stroke="midnightblue" d="M837.163,-250.994C876.371,-239.723 927.581,-225.003 966.627,-213.779"/>
<polygon fill="midnightblue" stroke="midnightblue" points="967.633,-217.132 976.277,-211.005 965.699,-210.404 967.633,-217.132"/>
</g>
<!-- Node30 -->
<g id="node30" class="node"><title>Node30</title>
<polygon fill="none" stroke="#bfbfbf" points="1105.5,-186.5 1105.5,-205.5 1206.5,-205.5 1206.5,-186.5 1105.5,-186.5"/>
<text text-anchor="middle" x="1156" y="-193.5" font-family="Helvetica,sans-Serif" font-size="10.00">FairParRootFileIo.h</text>
</g>
<!-- Node1&#45;&gt;Node30 -->
<g id="edge35" class="edge"><title>Node1&#45;&gt;Node30</title>
<path fill="none" stroke="midnightblue" d="M837.234,-258.74C901.085,-248.478 1005.59,-230.868 1095,-212 1100.81,-210.774 1106.91,-209.391 1112.91,-207.973"/>
<polygon fill="midnightblue" stroke="midnightblue" points="1113.95,-211.322 1122.85,-205.575 1112.31,-204.518 1113.95,-211.322"/>
</g>
<!-- Node31 -->
<g id="node31" class="node"><title>Node31</title>
<polygon fill="none" stroke="#bfbfbf" points="1225,-186.5 1225,-205.5 1317,-205.5 1317,-186.5 1225,-186.5"/>
<text text-anchor="middle" x="1271" y="-193.5" font-family="Helvetica,sans-Serif" font-size="10.00">FairSystemInfo.h</text>
</g>
<!-- Node1&#45;&gt;Node31 -->
<g id="edge36" class="edge"><title>Node1&#45;&gt;Node31</title>
<path fill="none" stroke="midnightblue" d="M837.071,-262.969C921.434,-255.21 1081.04,-238.399 1215,-212 1220.55,-210.905 1226.37,-209.567 1232.07,-208.146"/>
<polygon fill="midnightblue" stroke="midnightblue" points="1233.31,-211.439 1242.11,-205.532 1231.55,-204.665 1233.31,-211.439"/>
</g>
<!-- Node32 -->
<g id="node32" class="node"><title>Node32</title>
<polygon fill="none" stroke="#bfbfbf" points="1335,-186.5 1335,-205.5 1409,-205.5 1409,-186.5 1335,-186.5"/>
<text text-anchor="middle" x="1372" y="-193.5" font-family="Helvetica,sans-Serif" font-size="10.00">TVirtualMC.h</text>
</g>
<!-- Node1&#45;&gt;Node32 -->
<g id="edge37" class="edge"><title>Node1&#45;&gt;Node32</title>
<path fill="none" stroke="midnightblue" d="M837.029,-266.091C938.147,-261.906 1150.57,-249.121 1326,-212 1330.25,-211.1 1334.67,-209.951 1339,-208.69"/>
<polygon fill="midnightblue" stroke="midnightblue" points="1340.36,-211.933 1348.86,-205.611 1338.27,-205.251 1340.36,-211.933"/>
</g>
<!-- Node6 -->
<g id="node6" class="node"><title>Node6</title>
<polygon fill="none" stroke="#bfbfbf" points="140,-118.5 140,-137.5 224,-137.5 224,-118.5 140,-118.5"/>
<text text-anchor="middle" x="182" y="-125.5" font-family="Helvetica,sans-Serif" font-size="10.00">FairGenerator.h</text>
</g>
<!-- Node5&#45;&gt;Node6 -->
<g id="edge5" class="edge"><title>Node5&#45;&gt;Node6</title>
<path fill="none" stroke="midnightblue" d="M378.761,-180.906C339.623,-170.714 285.528,-156.58 238,-144 233.321,-142.761 228.423,-141.459 223.554,-140.16"/>
<polygon fill="midnightblue" stroke="midnightblue" points="224.245,-136.722 213.68,-137.521 222.437,-143.484 224.245,-136.722"/>
</g>
<!-- Node7&#45;&gt;Node6 -->
<g id="edge8" class="edge"><title>Node7&#45;&gt;Node6</title>
<path fill="none" stroke="midnightblue" d="M547.191,-186.484C534.491,-184.27 520.733,-181.958 508,-180 388.345,-161.596 356.717,-167.711 238,-144 232.448,-142.891 226.632,-141.545 220.937,-140.12"/>
<polygon fill="midnightblue" stroke="midnightblue" points="221.457,-136.639 210.897,-137.504 219.691,-143.413 221.457,-136.639"/>
</g>
<!-- Node8 -->
<g id="node8" class="node"><title>Node8</title>
<polygon fill="none" stroke="#bfbfbf" points="548.5,-118.5 548.5,-137.5 639.5,-137.5 639.5,-118.5 548.5,-118.5"/>
<text text-anchor="middle" x="594" y="-125.5" font-family="Helvetica,sans-Serif" font-size="10.00">Pythia8/Basics.h</text>
</g>
<!-- Node7&#45;&gt;Node8 -->
<g id="edge7" class="edge"><title>Node7&#45;&gt;Node8</title>
<path fill="none" stroke="midnightblue" d="M594,-186.372C594,-176.643 594,-160.528 594,-147.85"/>
<polygon fill="midnightblue" stroke="midnightblue" points="597.5,-147.841 594,-137.841 590.5,-147.841 597.5,-147.841"/>
</g>
<!-- Node9 -->
<g id="node9" class="node"><title>Node9</title>
<polygon fill="none" stroke="#bfbfbf" points="657.5,-118.5 657.5,-137.5 746.5,-137.5 746.5,-118.5 657.5,-118.5"/>
<text text-anchor="middle" x="702" y="-125.5" font-family="Helvetica,sans-Serif" font-size="10.00">Pythia8/Pythia.h</text>
</g>
<!-- Node7&#45;&gt;Node9 -->
<g id="edge9" class="edge"><title>Node7&#45;&gt;Node9</title>
<path fill="none" stroke="midnightblue" d="M608.119,-186.372C626.149,-175.353 657.581,-156.145 679.068,-143.014"/>
<polygon fill="midnightblue" stroke="midnightblue" points="681.17,-145.832 687.877,-137.63 677.519,-139.859 681.17,-145.832"/>
</g>
<!-- Node10 -->
<g id="node10" class="node"><title>Node10</title>
<polygon fill="none" stroke="#bfbfbf" points="939,-56.5 939,-75.5 995,-75.5 995,-56.5 939,-56.5"/>
<text text-anchor="middle" x="967" y="-63.5" font-family="Helvetica,sans-Serif" font-size="10.00">Rtypes.h</text>
</g>
<!-- Node7&#45;&gt;Node10 -->
<g id="edge10" class="edge"><title>Node7&#45;&gt;Node10</title>
<path fill="none" stroke="midnightblue" d="M546.268,-186.483C533.82,-184.314 520.415,-182.025 508,-180 399.846,-162.356 196.054,-191.948 271,-112 316.147,-63.8398 789.408,-65.0756 928.662,-66.4991"/>
<polygon fill="midnightblue" stroke="midnightblue" points="928.814,-70.0009 938.852,-66.6099 928.89,-63.0013 928.814,-70.0009"/>
</g>
<!-- Node11 -->
<g id="node11" class="node"><title>Node11</title>
<polygon fill="none" stroke="#bfbfbf" points="280,-118.5 280,-137.5 348,-137.5 348,-118.5 280,-118.5"/>
<text text-anchor="middle" x="314" y="-125.5" font-family="Helvetica,sans-Serif" font-size="10.00">TRandom.h</text>
</g>
<!-- Node7&#45;&gt;Node11 -->
<g id="edge11" class="edge"><title>Node7&#45;&gt;Node11</title>
<path fill="none" stroke="midnightblue" d="M545.91,-186.461C497.725,-177.482 421.629,-162.151 357,-144 353.625,-143.052 350.128,-141.982 346.654,-140.862"/>
<polygon fill="midnightblue" stroke="midnightblue" points="347.636,-137.499 337.042,-137.627 345.403,-144.134 347.636,-137.499"/>
</g>
<!-- Node12 -->
<g id="node12" class="node"><title>Node12</title>
<polygon fill="none" stroke="#bfbfbf" points="366.5,-118.5 366.5,-137.5 439.5,-137.5 439.5,-118.5 366.5,-118.5"/>
<text text-anchor="middle" x="403" y="-125.5" font-family="Helvetica,sans-Serif" font-size="10.00">TRandom1.h</text>
</g>
<!-- Node7&#45;&gt;Node12 -->
<g id="edge12" class="edge"><title>Node7&#45;&gt;Node12</title>
<path fill="none" stroke="midnightblue" d="M569.03,-186.372C535.335,-174.728 475.173,-153.939 437.267,-140.841"/>
<polygon fill="midnightblue" stroke="midnightblue" points="438.268,-137.484 427.673,-137.526 435.982,-144.1 438.268,-137.484"/>
</g>
<!-- Node13 -->
<g id="node13" class="node"><title>Node13</title>
<polygon fill="none" stroke="#bfbfbf" points="457.5,-118.5 457.5,-137.5 530.5,-137.5 530.5,-118.5 457.5,-118.5"/>
<text text-anchor="middle" x="494" y="-125.5" font-family="Helvetica,sans-Serif" font-size="10.00">TRandom3.h</text>
</g>
<!-- Node7&#45;&gt;Node13 -->
<g id="edge13" class="edge"><title>Node7&#45;&gt;Node13</title>
<path fill="none" stroke="midnightblue" d="M580.927,-186.372C564.307,-175.403 535.389,-156.317 515.502,-143.191"/>
<polygon fill="midnightblue" stroke="midnightblue" points="517.351,-140.218 507.076,-137.63 513.495,-146.06 517.351,-140.218"/>
</g>
<!-- Node14&#45;&gt;Node10 -->
<g id="edge15" class="edge"><title>Node14&#45;&gt;Node10</title>
<path fill="none" stroke="midnightblue" d="M844.488,-118.403C868.806,-108.2 909.549,-91.1055 937.317,-79.4544"/>
<polygon fill="midnightblue" stroke="midnightblue" points="938.683,-82.6771 946.55,-75.5806 935.974,-76.2223 938.683,-82.6771"/>
</g>
<!-- Node17&#45;&gt;Node10 -->
<g id="edge19" class="edge"><title>Node17&#45;&gt;Node10</title>
<path fill="none" stroke="midnightblue" d="M1087.32,-181.766C1090.26,-181.165 1093.16,-180.573 1096,-180 1182.69,-162.5 1340.96,-178.796 1283,-112 1265.01,-91.2707 1085.63,-75.6762 1005.41,-69.6829"/>
<polygon fill="midnightblue" stroke="midnightblue" points="1005.46,-66.1771 995.234,-68.9342 1004.95,-73.1583 1005.46,-66.1771"/>
</g>
<!-- Node18 -->
<g id="node18" class="node"><title>Node18</title>
<polygon fill="none" stroke="#bfbfbf" points="1509,-56.5 1509,-75.5 1555,-75.5 1555,-56.5 1509,-56.5"/>
<text text-anchor="middle" x="1532" y="-63.5" font-family="Helvetica,sans-Serif" font-size="10.00">cstdint</text>
</g>
<!-- Node17&#45;&gt;Node18 -->
<g id="edge20" class="edge"><title>Node17&#45;&gt;Node18</title>
<path fill="none" stroke="midnightblue" d="M1087.26,-181.411C1090.21,-180.905 1093.13,-180.43 1096,-180 1184.04,-166.776 1421.85,-194.739 1495,-144 1514.38,-130.56 1523.96,-104.112 1528.44,-85.9984"/>
<polygon fill="midnightblue" stroke="midnightblue" points="1531.91,-86.5029 1530.61,-75.9883 1525.07,-85.0193 1531.91,-86.5029"/>
</g>
<!-- Node19 -->
<g id="node19" class="node"><title>Node19</title>
<polygon fill="none" stroke="#bfbfbf" points="901.5,-118.5 901.5,-137.5 942.5,-137.5 942.5,-118.5 901.5,-118.5"/>
<text text-anchor="middle" x="922" y="-125.5" font-family="Helvetica,sans-Serif" font-size="10.00">ctime</text>
</g>
<!-- Node17&#45;&gt;Node19 -->
<g id="edge21" class="edge"><title>Node17&#45;&gt;Node19</title>
<path fill="none" stroke="midnightblue" d="M1002.9,-180.841C985.647,-169.784 961.766,-154.481 944.426,-143.37"/>
<polygon fill="midnightblue" stroke="midnightblue" points="945.857,-140.13 935.549,-137.682 942.08,-146.024 945.857,-140.13"/>
</g>
<!-- Node20 -->
<g id="node20" class="node"><title>Node20</title>
<g id="a_node20"><a xlink:href="../../d4/dc6/LHCConstants_8h.html" target="_top" xlink:title="Header to collect LHC related constants. ">
<polygon fill="none" stroke="black" points="960,-118.5 960,-137.5 1138,-137.5 1138,-118.5 960,-118.5"/>
<text text-anchor="middle" x="1049" y="-125.5" font-family="Helvetica,sans-Serif" font-size="10.00">CommonConstants/LHCConstants.h</text>
</a>
</g>
</g>
<!-- Node17&#45;&gt;Node20 -->
<g id="edge22" class="edge"><title>Node17&#45;&gt;Node20</title>
<path fill="none" stroke="midnightblue" d="M1030.21,-180.679C1033.76,-170.898 1038.51,-157.852 1042.34,-147.315"/>
<polygon fill="midnightblue" stroke="midnightblue" points="1045.66,-148.422 1045.79,-137.828 1039.08,-146.03 1045.66,-148.422"/>
</g>
<!-- Node21 -->
<g id="node21" class="node"><title>Node21</title>
<g id="a_node21"><a xlink:href="../../da/d58/Units_8h.html" target="_top" xlink:title="Header to collect definitions for different units. ">
<polygon fill="none" stroke="black" points="1156,-118.5 1156,-137.5 1274,-137.5 1274,-118.5 1156,-118.5"/>
<text text-anchor="middle" x="1215" y="-125.5" font-family="Helvetica,sans-Serif" font-size="10.00">CommonTypes/Units.h</text>
</a>
</g>
</g>
<!-- Node17&#45;&gt;Node21 -->
<g id="edge23" class="edge"><title>Node17&#45;&gt;Node21</title>
<path fill="none" stroke="midnightblue" d="M1065.76,-180.841C1100.05,-168.93 1148.52,-152.094 1180.81,-140.876"/>
<polygon fill="midnightblue" stroke="midnightblue" points="1181.98,-144.174 1190.28,-137.587 1179.69,-137.562 1181.98,-144.174"/>
</g>
<!-- Node22 -->
<g id="node22" class="node"><title>Node22</title>
<g id="a_node22"><a xlink:href="../../d6/d31/DetID_8h.html" target="_top" xlink:title="DetectorsCommonDataFormats\l/DetID.h">
<polygon fill="none" stroke="black" points="1330,-113 1330,-143 1486,-143 1486,-113 1330,-113"/>
<text text-anchor="start" x="1338" y="-131" font-family="Helvetica,sans-Serif" font-size="10.00">DetectorsCommonDataFormats</text>
<text text-anchor="middle" x="1408" y="-120" font-family="Helvetica,sans-Serif" font-size="10.00">/DetID.h</text>
</a>
</g>
</g>
<!-- Node17&#45;&gt;Node22 -->
<g id="edge24" class="edge"><title>Node17&#45;&gt;Node22</title>
<path fill="none" stroke="midnightblue" d="M1087.31,-181.667C1090.24,-181.092 1093.15,-180.533 1096,-180 1098.79,-179.477 1228.44,-158.304 1319.71,-143.407"/>
<polygon fill="midnightblue" stroke="midnightblue" points="1320.5,-146.824 1329.81,-141.759 1319.37,-139.916 1320.5,-146.824"/>
</g>
<!-- Node22&#45;&gt;Node10 -->
<g id="edge25" class="edge"><title>Node22&#45;&gt;Node10</title>
<path fill="none" stroke="midnightblue" d="M1329.73,-114.056C1325.09,-113.345 1320.48,-112.654 1316,-112 1203.19,-95.5355 1069.4,-79.163 1005.16,-71.4971"/>
<polygon fill="midnightblue" stroke="midnightblue" points="1005.43,-68.0055 995.091,-70.2993 1004.61,-74.9564 1005.43,-68.0055"/>
</g>
<!-- Node22&#45;&gt;Node18 -->
<g id="edge29" class="edge"><title>Node22&#45;&gt;Node18</title>
<path fill="none" stroke="midnightblue" d="M1437.07,-112.933C1457.62,-102.991 1484.96,-89.7601 1505.02,-80.0526"/>
<polygon fill="midnightblue" stroke="midnightblue" points="1506.75,-83.1063 1514.23,-75.6 1503.7,-76.8051 1506.75,-83.1063"/>
</g>
<!-- Node23 -->
<g id="node23" class="node"><title>Node23</title>
<polygon fill="none" stroke="#bfbfbf" points="1489,-0.5 1489,-19.5 1527,-19.5 1527,-0.5 1489,-0.5"/>
<text text-anchor="middle" x="1508" y="-7.5" font-family="Helvetica,sans-Serif" font-size="10.00">array</text>
</g>
<!-- Node22&#45;&gt;Node23 -->
<g id="edge26" class="edge"><title>Node22&#45;&gt;Node23</title>
<path fill="none" stroke="midnightblue" d="M1424.89,-112.617C1435.98,-102.809 1450.5,-89.2434 1462,-76 1475.13,-60.8787 1488.13,-42.0604 1496.94,-28.5693"/>
<polygon fill="midnightblue" stroke="midnightblue" points="1500.1,-30.1222 1502.56,-19.8163 1494.21,-26.3404 1500.1,-30.1222"/>
</g>
<!-- Node24 -->
<g id="node24" class="node"><title>Node24</title>
<polygon fill="none" stroke="#bfbfbf" points="1156.5,-56.5 1156.5,-75.5 1197.5,-75.5 1197.5,-56.5 1156.5,-56.5"/>
<text text-anchor="middle" x="1177" y="-63.5" font-family="Helvetica,sans-Serif" font-size="10.00">bitset</text>
</g>
<!-- Node22&#45;&gt;Node24 -->
<g id="edge27" class="edge"><title>Node22&#45;&gt;Node24</title>
<path fill="none" stroke="midnightblue" d="M1349,-112.987C1310.97,-103.751 1260.24,-91.0562 1207.44,-76.306"/>
<polygon fill="midnightblue" stroke="midnightblue" points="1208.13,-72.8651 1197.55,-73.5283 1206.23,-79.6039 1208.13,-72.8651"/>
</g>
<!-- Node25 -->
<g id="node25" class="node"><title>Node25</title>
<polygon fill="none" stroke="#bfbfbf" points="1215.5,-56.5 1215.5,-75.5 1264.5,-75.5 1264.5,-56.5 1215.5,-56.5"/>
<text text-anchor="middle" x="1240" y="-63.5" font-family="Helvetica,sans-Serif" font-size="10.00">cassert</text>
</g>
<!-- Node22&#45;&gt;Node25 -->
<g id="edge28" class="edge"><title>Node22&#45;&gt;Node25</title>
<path fill="none" stroke="midnightblue" d="M1368.61,-112.933C1339.76,-102.629 1301.02,-88.7935 1273.62,-79.0079"/>
<polygon fill="midnightblue" stroke="midnightblue" points="1274.67,-75.6674 1264.08,-75.6 1272.32,-82.2596 1274.67,-75.6674"/>
</g>
<!-- Node26 -->
<g id="node26" class="node"><title>Node26</title>
<polygon fill="none" stroke="#bfbfbf" points="1283,-56.5 1283,-75.5 1345,-75.5 1345,-56.5 1283,-56.5"/>
<text text-anchor="middle" x="1314" y="-63.5" font-family="Helvetica,sans-Serif" font-size="10.00">type_traits</text>
</g>
<!-- Node22&#45;&gt;Node26 -->
<g id="edge30" class="edge"><title>Node22&#45;&gt;Node26</title>
<path fill="none" stroke="midnightblue" d="M1385.72,-112.781C1370.71,-103.196 1350.98,-90.6062 1336.02,-81.0555"/>
<polygon fill="midnightblue" stroke="midnightblue" points="1337.72,-77.9859 1327.4,-75.5557 1333.95,-83.8863 1337.72,-77.9859"/>
</g>
<!-- Node27 -->
<g id="node27" class="node"><title>Node27</title>
<g id="a_node27"><a xlink:href="../../d9/d52/Common_2MathUtils_2include_2MathUtils_2Utils_8h.html" target="_top" xlink:title="MathUtils/Utils.h">
<polygon fill="none" stroke="black" points="1363,-56.5 1363,-75.5 1453,-75.5 1453,-56.5 1363,-56.5"/>
<text text-anchor="middle" x="1408" y="-63.5" font-family="Helvetica,sans-Serif" font-size="10.00">MathUtils/Utils.h</text>
</a>
</g>
</g>
<!-- Node22&#45;&gt;Node27 -->
<g id="edge31" class="edge"><title>Node22&#45;&gt;Node27</title>
<path fill="none" stroke="midnightblue" d="M1408,-112.781C1408,-104.781 1408,-94.6887 1408,-86.0168"/>
<polygon fill="midnightblue" stroke="midnightblue" points="1411.5,-85.7305 1408,-75.7305 1404.5,-85.7306 1411.5,-85.7305"/>
</g>
<!-- Node27&#45;&gt;Node23 -->
<g id="edge32" class="edge"><title>Node27&#45;&gt;Node23</title>
<path fill="none" stroke="midnightblue" d="M1424.07,-56.324C1439.96,-47.7428 1464.51,-34.486 1482.96,-24.5224"/>
<polygon fill="midnightblue" stroke="midnightblue" points="1484.84,-27.4857 1491.97,-19.6545 1481.51,-21.3264 1484.84,-27.4857"/>
</g>
<!-- Node28 -->
<g id="node28" class="node"><title>Node28</title>
<polygon fill="none" stroke="#bfbfbf" points="1229,-0.5 1229,-19.5 1273,-19.5 1273,-0.5 1229,-0.5"/>
<text text-anchor="middle" x="1251" y="-7.5" font-family="Helvetica,sans-Serif" font-size="10.00">cmath</text>
</g>
<!-- Node27&#45;&gt;Node28 -->
<g id="edge33" class="edge"><title>Node27&#45;&gt;Node28</title>
<path fill="none" stroke="midnightblue" d="M1383.12,-56.4435C1355.93,-47.0919 1312.31,-32.0859 1282.69,-21.8984"/>
<polygon fill="midnightblue" stroke="midnightblue" points="1283.82,-18.5862 1273.22,-18.6433 1281.54,-25.2056 1283.82,-18.5862"/>
</g>
<!-- Node29 -->
<g id="node29" class="node"><title>Node29</title>
<g id="a_node29"><a xlink:href="../../d6/d84/MathConstants_8h.html" target="_top" xlink:title="useful math constants ">
<polygon fill="none" stroke="black" points="1291.5,-0.5 1291.5,-19.5 1470.5,-19.5 1470.5,-0.5 1291.5,-0.5"/>
<text text-anchor="middle" x="1381" y="-7.5" font-family="Helvetica,sans-Serif" font-size="10.00">CommonConstants/MathConstants.h</text>
</a>
</g>
</g>
<!-- Node27&#45;&gt;Node29 -->
<g id="edge34" class="edge"><title>Node27&#45;&gt;Node29</title>
<path fill="none" stroke="midnightblue" d="M1403.54,-56.083C1399.85,-48.6913 1394.48,-37.9533 1389.91,-28.8111"/>
<polygon fill="midnightblue" stroke="midnightblue" points="1392.98,-27.1301 1385.38,-19.7511 1386.72,-30.2606 1392.98,-27.1301"/>
</g>
</g>
</svg>
        <g id="navigator" transform="translate(0 0)" fill="#404254">
                <rect fill="#f2f5e9" fill-opacity="0.5" stroke="#606060" stroke-width=".5" x="0" y="0" width="60" height="60"/>
                <use id="zoomplus" xlink:href="#zoomPlus" x="17" y="9" onmousedown="handleZoom(evt,'in')"/>
                <use id="zoomminus" xlink:href="#zoomMin" x="42" y="9" onmousedown="handleZoom(evt,'out')"/>
                <use id="reset" xlink:href="#resetDef" x="30" y="36" onmousedown="handleReset()"/>
                <g id="arrowUp" xlink:href="#dirArrow" transform="translate(30 24)" onmousedown="handlePan(0,-1)">
                  <use xlink:href="#rim" fill="#404040">
                        <set attributeName="fill" to="#808080" begin="arrowUp.mouseover" end="arrowUp.mouseout"/>
                  </use>
                  <path fill="none" stroke="white" stroke-width="1.5" d="M0,-3.0v7 M-2.5,-0.5L0,-3.0L2.5,-0.5"/>
                </g>
                <g id="arrowRight" xlink:href="#dirArrow" transform="rotate(90) translate(36 -43)" onmousedown="handlePan(1,0)">
                  <use xlink:href="#rim" fill="#404040">
                        <set attributeName="fill" to="#808080" begin="arrowRight.mouseover" end="arrowRight.mouseout"/>
                  </use>
                  <path fill="none" stroke="white" stroke-width="1.5" d="M0,-3.0v7 M-2.5,-0.5L0,-3.0L2.5,-0.5"/>
                </g>
                <g id="arrowDown" xlink:href="#dirArrow" transform="rotate(180) translate(-30 -48)" onmousedown="handlePan(0,1)">
                  <use xlink:href="#rim" fill="#404040">
                        <set attributeName="fill" to="#808080" begin="arrowDown.mouseover" end="arrowDown.mouseout"/>
                  </use>
                  <path fill="none" stroke="white" stroke-width="1.5" d="M0,-3.0v7 M-2.5,-0.5L0,-3.0L2.5,-0.5"/>
                </g>
                <g id="arrowLeft" xlink:href="#dirArrow" transform="rotate(270) translate(-36 17)" onmousedown="handlePan(-1,0)">
                  <use xlink:href="#rim" fill="#404040">
                        <set attributeName="fill" to="#808080" begin="arrowLeft.mouseover" end="arrowLeft.mouseout"/>
                  </use>
                  <path fill="none" stroke="white" stroke-width="1.5" d="M0,-3.0v7 M-2.5,-0.5L0,-3.0L2.5,-0.5"/>
                </g>
        </g>
        <svg viewBox="0 0 15 15" width="100%" height="30px" preserveAspectRatio="xMaxYMin meet">
         <g id="arrow_out" transform="scale(0.3 0.3)">
          <a xlink:href="o2sim_8C__incl_org.svg" target="_base">
           <rect id="button" ry="5" rx="5" y="6" x="6" height="38" width="38"
                fill="#f2f5e9" fill-opacity="0.5" stroke="#606060" stroke-width="1.0"/>
           <path id="arrow"
             d="M 11.500037,31.436501 C 11.940474,20.09759 22.043105,11.32322 32.158766,21.979434 L 37.068811,17.246167 C 37.068811,17.246167 37.088388,32 37.088388,32 L 22.160133,31.978069 C 22.160133,31.978069 26.997745,27.140456 26.997745,27.140456 C 18.528582,18.264221 13.291696,25.230495 11.500037,31.436501 z"
             style="fill:#404040;"/>
          </a>
         </g>
        </svg>
</svg>
