<?xml version="1.0" encoding="UTF-8" standalone="no"?>
<!DOCTYPE svg PUBLIC "-//W3C//DTD SVG 1.1//EN"
 "http://www.w3.org/Graphics/SVG/1.1/DTD/svg11.dtd">
<!-- Generated by graphviz version 2.36.0 (20140111.2315)
 -->
<!-- Title: /home/travis/build/AliceO2Group/AliceO2/macro/run_clus_mft.C Pages: 1 -->
<svg width="1966pt" height="582pt"
 viewBox="0.00 0.00 1965.67 582.00" xmlns="http://www.w3.org/2000/svg" xmlns:xlink="http://www.w3.org/1999/xlink">
<g id="graph0" class="graph" transform="scale(1 1) rotate(0) translate(4 578)">
<title>/home/travis/build/AliceO2Group/AliceO2/macro/run_clus_mft.C</title>
<!-- Node1 -->
<g id="node1" class="node"><title>Node1</title>
<polygon fill="#bfbfbf" stroke="black" points="610.67,-532.5 610.67,-573.5 728.67,-573.5 728.67,-532.5 610.67,-532.5"/>
<text text-anchor="start" x="618.67" y="-561.5" font-family="Helvetica,sans-Serif" font-size="10.00">/home/travis/build</text>
<text text-anchor="start" x="618.67" y="-550.5" font-family="Helvetica,sans-Serif" font-size="10.00">/AliceO2Group/AliceO2</text>
<text text-anchor="middle" x="669.67" y="-539.5" font-family="Helvetica,sans-Serif" font-size="10.00">/macro/run_clus_mft.C</text>
</g>
<!-- Node2 -->
<g id="node2" class="node"><title>Node2</title>
<polygon fill="none" stroke="#bfbfbf" points="199.67,-470.5 199.67,-489.5 251.67,-489.5 251.67,-470.5 199.67,-470.5"/>
<text text-anchor="middle" x="225.67" y="-477.5" font-family="Helvetica,sans-Serif" font-size="10.00">sstream</text>
</g>
<!-- Node1&#45;&gt;Node2 -->
<g id="edge1" class="edge"><title>Node1&#45;&gt;Node2</title>
<path fill="none" stroke="midnightblue" d="M610.42,-548.886C529.956,-543.534 382.222,-529.704 260.67,-496 258.014,-495.264 255.295,-494.369 252.604,-493.388"/>
<polygon fill="midnightblue" stroke="midnightblue" points="253.725,-490.067 243.142,-489.58 251.112,-496.56 253.725,-490.067"/>
</g>
<!-- Node3 -->
<g id="node3" class="node"><title>Node3</title>
<polygon fill="none" stroke="#bfbfbf" points="270.17,-470.5 270.17,-489.5 347.17,-489.5 347.17,-470.5 270.17,-470.5"/>
<text text-anchor="middle" x="308.67" y="-477.5" font-family="Helvetica,sans-Serif" font-size="10.00">TStopwatch.h</text>
</g>
<!-- Node1&#45;&gt;Node3 -->
<g id="edge2" class="edge"><title>Node1&#45;&gt;Node3</title>
<path fill="none" stroke="midnightblue" d="M610.655,-543.708C547.383,-534.293 444.206,-517.418 356.67,-496 352.472,-494.973 348.103,-493.782 343.785,-492.529"/>
<polygon fill="midnightblue" stroke="midnightblue" points="344.496,-489.088 333.911,-489.542 342.469,-495.788 344.496,-489.088"/>
</g>
<!-- Node4 -->
<g id="node4" class="node"><title>Node4</title>
<polygon fill="none" stroke="#bfbfbf" points="1148.17,-142.5 1148.17,-161.5 1219.17,-161.5 1219.17,-142.5 1148.17,-142.5"/>
<text text-anchor="middle" x="1183.67" y="-149.5" font-family="Helvetica,sans-Serif" font-size="10.00">FairLogger.h</text>
</g>
<!-- Node1&#45;&gt;Node4 -->
<g id="edge3" class="edge"><title>Node1&#45;&gt;Node4</title>
<path fill="none" stroke="midnightblue" d="M728.898,-552.683C807.851,-551.586 950.531,-542.511 1061.67,-496 1117.84,-472.493 1170.67,-473.891 1170.67,-413 1170.67,-413 1170.67,-413 1170.67,-287 1170.67,-245.669 1176.87,-197.501 1180.71,-171.661"/>
<polygon fill="midnightblue" stroke="midnightblue" points="1184.17,-172.166 1182.23,-161.751 1177.25,-171.105 1184.17,-172.166"/>
</g>
<!-- Node5 -->
<g id="node5" class="node"><title>Node5</title>
<polygon fill="none" stroke="#bfbfbf" points="530.17,-470.5 530.17,-489.5 607.17,-489.5 607.17,-470.5 530.17,-470.5"/>
<text text-anchor="middle" x="568.67" y="-477.5" font-family="Helvetica,sans-Serif" font-size="10.00">FairRunAna.h</text>
</g>
<!-- Node1&#45;&gt;Node5 -->
<g id="edge4" class="edge"><title>Node1&#45;&gt;Node5</title>
<path fill="none" stroke="midnightblue" d="M641.803,-532.411C625.11,-520.676 604.257,-506.017 589.094,-495.358"/>
<polygon fill="midnightblue" stroke="midnightblue" points="591.093,-492.484 580.899,-489.597 587.067,-498.211 591.093,-492.484"/>
</g>
<!-- Node6 -->
<g id="node6" class="node"><title>Node6</title>
<polygon fill="none" stroke="#bfbfbf" points="625.67,-470.5 625.67,-489.5 713.67,-489.5 713.67,-470.5 625.67,-470.5"/>
<text text-anchor="middle" x="669.67" y="-477.5" font-family="Helvetica,sans-Serif" font-size="10.00">FairFileSource.h</text>
</g>
<!-- Node1&#45;&gt;Node6 -->
<g id="edge5" class="edge"><title>Node1&#45;&gt;Node6</title>
<path fill="none" stroke="midnightblue" d="M669.67,-532.223C669.67,-522.086 669.67,-509.807 669.67,-499.813"/>
<polygon fill="midnightblue" stroke="midnightblue" points="673.17,-499.735 669.67,-489.735 666.17,-499.735 673.17,-499.735"/>
</g>
<!-- Node7 -->
<g id="node7" class="node"><title>Node7</title>
<polygon fill="none" stroke="#bfbfbf" points="732.17,-470.5 732.17,-489.5 823.17,-489.5 823.17,-470.5 732.17,-470.5"/>
<text text-anchor="middle" x="777.67" y="-477.5" font-family="Helvetica,sans-Serif" font-size="10.00">FairRuntimeDb.h</text>
</g>
<!-- Node1&#45;&gt;Node7 -->
<g id="edge6" class="edge"><title>Node1&#45;&gt;Node7</title>
<path fill="none" stroke="midnightblue" d="M699.467,-532.411C717.317,-520.676 739.615,-506.017 755.829,-495.358"/>
<polygon fill="midnightblue" stroke="midnightblue" points="758.159,-498.015 764.593,-489.597 754.314,-492.166 758.159,-498.015"/>
</g>
<!-- Node8 -->
<g id="node8" class="node"><title>Node8</title>
<polygon fill="none" stroke="#bfbfbf" points="841.17,-470.5 841.17,-489.5 942.17,-489.5 942.17,-470.5 841.17,-470.5"/>
<text text-anchor="middle" x="891.67" y="-477.5" font-family="Helvetica,sans-Serif" font-size="10.00">FairParRootFileIo.h</text>
</g>
<!-- Node1&#45;&gt;Node8 -->
<g id="edge7" class="edge"><title>Node1&#45;&gt;Node8</title>
<path fill="none" stroke="midnightblue" d="M728.87,-533.067C769.085,-520.205 820.995,-503.603 855.258,-492.645"/>
<polygon fill="midnightblue" stroke="midnightblue" points="856.402,-495.954 864.86,-489.574 854.269,-489.287 856.402,-495.954"/>
</g>
<!-- Node9 -->
<g id="node9" class="node"><title>Node9</title>
<polygon fill="none" stroke="#bfbfbf" points="960.67,-470.5 960.67,-489.5 1052.67,-489.5 1052.67,-470.5 960.67,-470.5"/>
<text text-anchor="middle" x="1006.67" y="-477.5" font-family="Helvetica,sans-Serif" font-size="10.00">FairSystemInfo.h</text>
</g>
<!-- Node1&#45;&gt;Node9 -->
<g id="edge8" class="edge"><title>Node1&#45;&gt;Node9</title>
<path fill="none" stroke="midnightblue" d="M728.844,-541.364C785.876,-530.841 874.493,-513.773 950.67,-496 955.747,-494.815 961.062,-493.496 966.311,-492.145"/>
<polygon fill="midnightblue" stroke="midnightblue" points="967.461,-495.462 976.243,-489.535 965.682,-488.692 967.461,-495.462"/>
</g>
<!-- Node10 -->
<g id="node10" class="node"><title>Node10</title>
<g id="a_node10"><a xlink:href="../../db/d12/ITSMFT_2MFT_2reconstruction_2include_2MFTReconstruction_2ClustererTask_8h.html" target="_top" xlink:title="MFTReconstruction/Clusterer\lTask.h">
<polygon fill="none" stroke="black" points="365.67,-465 365.67,-495 511.67,-495 511.67,-465 365.67,-465"/>
<text text-anchor="start" x="373.67" y="-483" font-family="Helvetica,sans-Serif" font-size="10.00">MFTReconstruction/Clusterer</text>
<text text-anchor="middle" x="438.67" y="-472" font-family="Helvetica,sans-Serif" font-size="10.00">Task.h</text>
</a>
</g>
</g>
<!-- Node1&#45;&gt;Node10 -->
<g id="edge9" class="edge"><title>Node1&#45;&gt;Node10</title>
<path fill="none" stroke="midnightblue" d="M610.481,-533.808C574.68,-522.804 529.322,-508.863 494.201,-498.068"/>
<polygon fill="midnightblue" stroke="midnightblue" points="495.17,-494.705 484.583,-495.112 493.114,-501.396 495.17,-494.705"/>
</g>
<!-- Node11 -->
<g id="node11" class="node"><title>Node11</title>
<polygon fill="none" stroke="#bfbfbf" points="516.17,-402.5 516.17,-421.5 579.17,-421.5 579.17,-402.5 516.17,-402.5"/>
<text text-anchor="middle" x="547.67" y="-409.5" font-family="Helvetica,sans-Serif" font-size="10.00">FairTask.h</text>
</g>
<!-- Node10&#45;&gt;Node11 -->
<g id="edge10" class="edge"><title>Node10&#45;&gt;Node11</title>
<path fill="none" stroke="midnightblue" d="M462.053,-464.841C480.568,-453.63 506.29,-438.056 524.698,-426.91"/>
<polygon fill="midnightblue" stroke="midnightblue" points="526.59,-429.855 533.331,-421.682 522.964,-423.868 526.59,-429.855"/>
</g>
<!-- Node12 -->
<g id="node12" class="node"><title>Node12</title>
<polygon fill="none" stroke="#bfbfbf" points="224.17,-402.5 224.17,-421.5 361.17,-421.5 361.17,-402.5 224.17,-402.5"/>
<text text-anchor="middle" x="292.67" y="-409.5" font-family="Helvetica,sans-Serif" font-size="10.00">MFTBase/GeometryTGeo.h</text>
</g>
<!-- Node10&#45;&gt;Node12 -->
<g id="edge11" class="edge"><title>Node10&#45;&gt;Node12</title>
<path fill="none" stroke="midnightblue" d="M407.349,-464.841C381.755,-453.272 345.883,-437.055 321.106,-425.855"/>
<polygon fill="midnightblue" stroke="midnightblue" points="322.429,-422.612 311.875,-421.682 319.545,-428.99 322.429,-422.612"/>
</g>
<!-- Node13 -->
<g id="node13" class="node"><title>Node13</title>
<g id="a_node13"><a xlink:href="../../df/d2e/PixelReader_8h.html" target="_top" xlink:title="Definition of the ITS pixel reader. ">
<polygon fill="none" stroke="black" points="136.17,-273 136.17,-303 255.17,-303 255.17,-273 136.17,-273"/>
<text text-anchor="start" x="144.17" y="-291" font-family="Helvetica,sans-Serif" font-size="10.00">ITSMFTReconstruction</text>
<text text-anchor="middle" x="195.67" y="-280" font-family="Helvetica,sans-Serif" font-size="10.00">/PixelReader.h</text>
</a>
</g>
</g>
<!-- Node10&#45;&gt;Node13 -->
<g id="edge12" class="edge"><title>Node10&#45;&gt;Node13</title>
<path fill="none" stroke="midnightblue" d="M368.265,-464.978C304.601,-451.989 220.006,-433.828 214.67,-428 186.25,-396.962 187.538,-344.503 191.378,-313.676"/>
<polygon fill="midnightblue" stroke="midnightblue" points="194.9,-313.774 192.858,-303.378 187.971,-312.778 194.9,-313.774"/>
</g>
<!-- Node18 -->
<g id="node18" class="node"><title>Node18</title>
<g id="a_node18"><a xlink:href="../../d6/d04/ITSMFT_2common_2reconstruction_2include_2ITSMFTReconstruction_2Clusterer_8h.html" target="_top" xlink:title="ITSMFTReconstruction\l/Clusterer.h">
<polygon fill="none" stroke="black" points="379.17,-397 379.17,-427 498.17,-427 498.17,-397 379.17,-397"/>
<text text-anchor="start" x="387.17" y="-415" font-family="Helvetica,sans-Serif" font-size="10.00">ITSMFTReconstruction</text>
<text text-anchor="middle" x="438.67" y="-404" font-family="Helvetica,sans-Serif" font-size="10.00">/Clusterer.h</text>
</a>
</g>
</g>
<!-- Node10&#45;&gt;Node18 -->
<g id="edge21" class="edge"><title>Node10&#45;&gt;Node18</title>
<path fill="none" stroke="midnightblue" d="M438.67,-464.679C438.67,-456.722 438.67,-446.605 438.67,-437.436"/>
<polygon fill="midnightblue" stroke="midnightblue" points="442.17,-437.293 438.67,-427.293 435.17,-437.293 442.17,-437.293"/>
</g>
<!-- Node14 -->
<g id="node14" class="node"><title>Node14</title>
<polygon fill="none" stroke="#bfbfbf" points="253.67,-74.5 253.67,-93.5 309.67,-93.5 309.67,-74.5 253.67,-74.5"/>
<text text-anchor="middle" x="281.67" y="-81.5" font-family="Helvetica,sans-Serif" font-size="10.00">Rtypes.h</text>
</g>
<!-- Node13&#45;&gt;Node14 -->
<g id="edge13" class="edge"><title>Node13&#45;&gt;Node14</title>
<path fill="none" stroke="midnightblue" d="M152.027,-272.971C83.2671,-248.644 -37.6419,-195.498 11.6695,-136 40.6368,-101.049 175.76,-89.8781 243.19,-86.4467"/>
<polygon fill="midnightblue" stroke="midnightblue" points="243.582,-89.9321 253.404,-85.96 243.249,-82.94 243.582,-89.9321"/>
</g>
<!-- Node15 -->
<g id="node15" class="node"><title>Node15</title>
<g id="a_node15"><a xlink:href="../../d0/d06/ITSMFT_2common_2base_2include_2ITSMFTBase_2Digit_8h.html" target="_top" xlink:title="ITSMFTBase/Digit.h">
<polygon fill="none" stroke="black" points="163.17,-210.5 163.17,-229.5 270.17,-229.5 270.17,-210.5 163.17,-210.5"/>
<text text-anchor="middle" x="216.67" y="-217.5" font-family="Helvetica,sans-Serif" font-size="10.00">ITSMFTBase/Digit.h</text>
</a>
</g>
</g>
<!-- Node13&#45;&gt;Node15 -->
<g id="edge14" class="edge"><title>Node13&#45;&gt;Node15</title>
<path fill="none" stroke="midnightblue" d="M200.226,-272.679C203.306,-262.999 207.403,-250.123 210.737,-239.645"/>
<polygon fill="midnightblue" stroke="midnightblue" points="214.164,-240.419 213.861,-229.828 207.493,-238.296 214.164,-240.419"/>
</g>
<!-- Node16 -->
<g id="node16" class="node"><title>Node16</title>
<g id="a_node16"><a xlink:href="../../d7/dcd/MCCompLabel_8h.html" target="_top" xlink:title="SimulationDataFormat\l/MCCompLabel.h">
<polygon fill="none" stroke="black" points="20.6695,-137 20.6695,-167 134.67,-167 134.67,-137 20.6695,-137"/>
<text text-anchor="start" x="28.6695" y="-155" font-family="Helvetica,sans-Serif" font-size="10.00">SimulationDataFormat</text>
<text text-anchor="middle" x="77.6695" y="-144" font-family="Helvetica,sans-Serif" font-size="10.00">/MCCompLabel.h</text>
</a>
</g>
</g>
<!-- Node13&#45;&gt;Node16 -->
<g id="edge20" class="edge"><title>Node13&#45;&gt;Node16</title>
<path fill="none" stroke="midnightblue" d="M183.041,-272.66C162.37,-249.186 121.184,-202.414 96.8758,-174.811"/>
<polygon fill="midnightblue" stroke="midnightblue" points="99.4424,-172.429 90.2068,-167.237 94.1889,-177.055 99.4424,-172.429"/>
</g>
<!-- Node15&#45;&gt;Node14 -->
<g id="edge15" class="edge"><title>Node15&#45;&gt;Node14</title>
<path fill="none" stroke="midnightblue" d="M264.791,-210.497C289.239,-203.479 316.843,-190.794 331.67,-168 346.838,-144.679 321.544,-116.852 301.734,-100.072"/>
<polygon fill="midnightblue" stroke="midnightblue" points="303.695,-97.1573 293.714,-93.603 299.3,-102.606 303.695,-97.1573"/>
</g>
<!-- Node15&#45;&gt;Node16 -->
<g id="edge16" class="edge"><title>Node15&#45;&gt;Node16</title>
<path fill="none" stroke="midnightblue" d="M198.498,-210.372C177.762,-200.526 143.253,-184.141 116.412,-171.396"/>
<polygon fill="midnightblue" stroke="midnightblue" points="117.807,-168.184 107.273,-167.056 114.805,-174.507 117.807,-168.184"/>
</g>
<!-- Node17 -->
<g id="node17" class="node"><title>Node17</title>
<g id="a_node17"><a xlink:href="../../df/d5d/common_2include_2CommonDataFormat_2TimeStamp_8h.html" target="_top" xlink:title="CommonDataFormat/TimeStamp.h">
<polygon fill="none" stroke="black" points="152.67,-142.5 152.67,-161.5 322.67,-161.5 322.67,-142.5 152.67,-142.5"/>
<text text-anchor="middle" x="237.67" y="-149.5" font-family="Helvetica,sans-Serif" font-size="10.00">CommonDataFormat/TimeStamp.h</text>
</a>
</g>
</g>
<!-- Node15&#45;&gt;Node17 -->
<g id="edge18" class="edge"><title>Node15&#45;&gt;Node17</title>
<path fill="none" stroke="midnightblue" d="M219.415,-210.372C222.542,-200.544 227.742,-184.202 231.794,-171.467"/>
<polygon fill="midnightblue" stroke="midnightblue" points="235.16,-172.432 234.856,-161.841 228.489,-170.309 235.16,-172.432"/>
</g>
<!-- Node16&#45;&gt;Node14 -->
<g id="edge17" class="edge"><title>Node16&#45;&gt;Node14</title>
<path fill="none" stroke="midnightblue" d="M121.182,-136.922C158.246,-124.931 210.87,-107.906 245.619,-96.6635"/>
<polygon fill="midnightblue" stroke="midnightblue" points="246.917,-99.9221 255.354,-93.5138 244.762,-93.262 246.917,-99.9221"/>
</g>
<!-- Node17&#45;&gt;Node14 -->
<g id="edge19" class="edge"><title>Node17&#45;&gt;Node14</title>
<path fill="none" stroke="midnightblue" d="M243.422,-142.372C250.17,-132.25 261.526,-115.215 270.115,-102.331"/>
<polygon fill="midnightblue" stroke="midnightblue" points="273.141,-104.103 275.775,-93.8411 267.316,-100.22 273.141,-104.103"/>
</g>
<!-- Node18&#45;&gt;Node13 -->
<g id="edge64" class="edge"><title>Node18&#45;&gt;Node13</title>
<path fill="none" stroke="midnightblue" d="M398.73,-396.924C373.333,-387.497 340.013,-374.24 311.67,-360 281.122,-344.654 248.025,-323.956 225.032,-308.869"/>
<polygon fill="midnightblue" stroke="midnightblue" points="226.71,-305.783 216.439,-303.183 222.847,-311.62 226.71,-305.783"/>
</g>
<!-- Node18&#45;&gt;Node14 -->
<g id="edge65" class="edge"><title>Node18&#45;&gt;Node14</title>
<path fill="none" stroke="midnightblue" d="M428.551,-396.755C413.941,-374.748 388.67,-330.66 388.67,-289 388.67,-289 388.67,-289 388.67,-219 388.67,-178.051 374.565,-167.722 348.67,-136 336.612,-121.23 319.449,-108.272 305.513,-99.113"/>
<polygon fill="midnightblue" stroke="midnightblue" points="307.228,-96.0561 296.907,-93.6623 303.482,-101.97 307.228,-96.0561"/>
</g>
<!-- Node19 -->
<g id="node19" class="node"><title>Node19</title>
<polygon fill="none" stroke="#bfbfbf" points="320.67,-340.5 320.67,-359.5 360.67,-359.5 360.67,-340.5 320.67,-340.5"/>
<text text-anchor="middle" x="340.67" y="-347.5" font-family="Helvetica,sans-Serif" font-size="10.00">utility</text>
</g>
<!-- Node18&#45;&gt;Node19 -->
<g id="edge22" class="edge"><title>Node18&#45;&gt;Node19</title>
<path fill="none" stroke="midnightblue" d="M415.445,-396.781C399.642,-387.105 378.838,-374.368 363.187,-364.786"/>
<polygon fill="midnightblue" stroke="midnightblue" points="365,-361.792 354.644,-359.556 361.345,-367.762 365,-361.792"/>
</g>
<!-- Node20 -->
<g id="node20" class="node"><title>Node20</title>
<polygon fill="none" stroke="#bfbfbf" points="416.67,-142.5 416.67,-161.5 460.67,-161.5 460.67,-142.5 416.67,-142.5"/>
<text text-anchor="middle" x="438.67" y="-149.5" font-family="Helvetica,sans-Serif" font-size="10.00">vector</text>
</g>
<!-- Node18&#45;&gt;Node20 -->
<g id="edge23" class="edge"><title>Node18&#45;&gt;Node20</title>
<path fill="none" stroke="midnightblue" d="M438.67,-396.761C438.67,-353.046 438.67,-220.755 438.67,-171.629"/>
<polygon fill="midnightblue" stroke="midnightblue" points="442.17,-171.505 438.67,-161.505 435.17,-171.506 442.17,-171.505"/>
</g>
<!-- Node21 -->
<g id="node21" class="node"><title>Node21</title>
<g id="a_node21"><a xlink:href="../../d0/d2d/common_2base_2include_2ITSMFTBase_2GeometryTGeo_8h.html" target="_top" xlink:title="ITSMFTBase/GeometryTGeo.h">
<polygon fill="none" stroke="black" points="479.17,-340.5 479.17,-359.5 632.17,-359.5 632.17,-340.5 479.17,-340.5"/>
<text text-anchor="middle" x="555.67" y="-347.5" font-family="Helvetica,sans-Serif" font-size="10.00">ITSMFTBase/GeometryTGeo.h</text>
</a>
</g>
</g>
<!-- Node18&#45;&gt;Node21 -->
<g id="edge24" class="edge"><title>Node18&#45;&gt;Node21</title>
<path fill="none" stroke="midnightblue" d="M466.101,-396.933C485.399,-387.036 511.053,-373.88 529.958,-364.185"/>
<polygon fill="midnightblue" stroke="midnightblue" points="531.598,-367.278 538.899,-359.6 528.404,-361.049 531.598,-367.278"/>
</g>
<!-- Node45 -->
<g id="node45" class="node"><title>Node45</title>
<g id="a_node45"><a xlink:href="../../d1/d62/DataFormats_2Detectors_2ITSMFT_2common_2include_2DataFormatsITSMFT_2Cluster_8h.html" target="_top" xlink:title="DataFormatsITSMFT/Cluster.h">
<polygon fill="none" stroke="black" points="713.67,-340.5 713.67,-359.5 865.67,-359.5 865.67,-340.5 713.67,-340.5"/>
<text text-anchor="middle" x="789.67" y="-347.5" font-family="Helvetica,sans-Serif" font-size="10.00">DataFormatsITSMFT/Cluster.h</text>
</a>
</g>
</g>
<!-- Node18&#45;&gt;Node45 -->
<g id="edge55" class="edge"><title>Node18&#45;&gt;Node45</title>
<path fill="none" stroke="midnightblue" d="M498.332,-397.629C501.148,-397.064 503.938,-396.518 506.67,-396 578.831,-382.316 661.883,-369.449 719.264,-361.008"/>
<polygon fill="midnightblue" stroke="midnightblue" points="719.927,-364.448 729.314,-359.536 718.913,-357.522 719.927,-364.448"/>
</g>
<!-- Node22 -->
<g id="node22" class="node"><title>Node22</title>
<polygon fill="none" stroke="#bfbfbf" points="533.17,-278.5 533.17,-297.5 602.17,-297.5 602.17,-278.5 533.17,-278.5"/>
<text text-anchor="middle" x="567.67" y="-285.5" font-family="Helvetica,sans-Serif" font-size="10.00">TObjArray.h</text>
</g>
<!-- Node21&#45;&gt;Node22 -->
<g id="edge25" class="edge"><title>Node21&#45;&gt;Node22</title>
<path fill="none" stroke="midnightblue" d="M557.389,-340.403C559.1,-331.849 561.78,-318.45 563.974,-307.476"/>
<polygon fill="midnightblue" stroke="midnightblue" points="567.424,-308.073 565.953,-297.581 560.56,-306.7 567.424,-308.073"/>
</g>
<!-- Node23 -->
<g id="node23" class="node"><title>Node23</title>
<polygon fill="none" stroke="#bfbfbf" points="474.17,-278.5 474.17,-297.5 515.17,-297.5 515.17,-278.5 474.17,-278.5"/>
<text text-anchor="middle" x="494.67" y="-285.5" font-family="Helvetica,sans-Serif" font-size="10.00">string</text>
</g>
<!-- Node21&#45;&gt;Node23 -->
<g id="edge26" class="edge"><title>Node21&#45;&gt;Node23</title>
<path fill="none" stroke="midnightblue" d="M546.93,-340.403C537.508,-331.136 522.305,-316.183 510.72,-304.788"/>
<polygon fill="midnightblue" stroke="midnightblue" points="512.977,-302.098 503.393,-297.581 508.068,-307.088 512.977,-302.098"/>
</g>
<!-- Node24 -->
<g id="node24" class="node"><title>Node24</title>
<g id="a_node24"><a xlink:href="../../d4/d20/DetMatrixCache_8h.html" target="_top" xlink:title="DetectorsCommonDataFormats\l/DetMatrixCache.h">
<polygon fill="none" stroke="black" points="558.67,-205 558.67,-235 714.67,-235 714.67,-205 558.67,-205"/>
<text text-anchor="start" x="566.67" y="-223" font-family="Helvetica,sans-Serif" font-size="10.00">DetectorsCommonDataFormats</text>
<text text-anchor="middle" x="636.67" y="-212" font-family="Helvetica,sans-Serif" font-size="10.00">/DetMatrixCache.h</text>
</a>
</g>
</g>
<!-- Node21&#45;&gt;Node24 -->
<g id="edge27" class="edge"><title>Node21&#45;&gt;Node24</title>
<path fill="none" stroke="midnightblue" d="M570.327,-340.447C582.748,-332.488 600.169,-319.537 610.67,-304 622.643,-286.283 629.326,-262.77 632.907,-245.294"/>
<polygon fill="midnightblue" stroke="midnightblue" points="636.379,-245.769 634.756,-235.299 629.495,-244.496 636.379,-245.769"/>
</g>
<!-- Node24&#45;&gt;Node4 -->
<g id="edge28" class="edge"><title>Node24&#45;&gt;Node4</title>
<path fill="none" stroke="midnightblue" d="M714.696,-212.015C806.889,-203.389 964.802,-187.447 1099.67,-168 1112.04,-166.216 1125.38,-163.979 1137.71,-161.78"/>
<polygon fill="midnightblue" stroke="midnightblue" points="1138.57,-165.182 1147.78,-159.954 1137.32,-158.294 1138.57,-165.182"/>
</g>
<!-- Node24&#45;&gt;Node14 -->
<g id="edge54" class="edge"><title>Node24&#45;&gt;Node14</title>
<path fill="none" stroke="midnightblue" d="M591.193,-204.911C565.733,-196.082 533.927,-183.448 507.67,-168 488.345,-156.63 488.747,-145.981 468.67,-136 407.277,-105.481 383.954,-120.938 318.67,-100 316.097,-99.1751 313.451,-98.2538 310.813,-97.2845"/>
<polygon fill="midnightblue" stroke="midnightblue" points="312.028,-94.0018 301.439,-93.6506 309.498,-100.529 312.028,-94.0018"/>
</g>
<!-- Node24&#45;&gt;Node20 -->
<g id="edge30" class="edge"><title>Node24&#45;&gt;Node20</title>
<path fill="none" stroke="midnightblue" d="M588.085,-204.949C555.707,-195.281 512.341,-181.746 474.67,-168 472.416,-167.177 470.096,-166.295 467.771,-165.386"/>
<polygon fill="midnightblue" stroke="midnightblue" points="468.932,-162.08 458.35,-161.575 466.308,-168.569 468.932,-162.08"/>
</g>
<!-- Node25 -->
<g id="node25" class="node"><title>Node25</title>
<polygon fill="none" stroke="#bfbfbf" points="638.67,-6.5 638.67,-25.5 676.67,-25.5 676.67,-6.5 638.67,-6.5"/>
<text text-anchor="middle" x="657.67" y="-13.5" font-family="Helvetica,sans-Serif" font-size="10.00">array</text>
</g>
<!-- Node24&#45;&gt;Node25 -->
<g id="edge29" class="edge"><title>Node24&#45;&gt;Node25</title>
<path fill="none" stroke="midnightblue" d="M654.235,-204.957C664.365,-195.683 676.157,-182.579 681.67,-168 698.977,-122.226 678.909,-64.0687 666.322,-35.1033"/>
<polygon fill="midnightblue" stroke="midnightblue" points="669.431,-33.4847 662.107,-25.8297 663.059,-36.3816 669.431,-33.4847"/>
</g>
<!-- Node26 -->
<g id="node26" class="node"><title>Node26</title>
<g id="a_node26"><a xlink:href="../../d6/d31/DetID_8h.html" target="_top" xlink:title="DetectorsCommonDataFormats\l/DetID.h">
<polygon fill="none" stroke="black" points="516.67,-137 516.67,-167 672.67,-167 672.67,-137 516.67,-137"/>
<text text-anchor="start" x="524.67" y="-155" font-family="Helvetica,sans-Serif" font-size="10.00">DetectorsCommonDataFormats</text>
<text text-anchor="middle" x="594.67" y="-144" font-family="Helvetica,sans-Serif" font-size="10.00">/DetID.h</text>
</a>
</g>
</g>
<!-- Node24&#45;&gt;Node26 -->
<g id="edge31" class="edge"><title>Node24&#45;&gt;Node26</title>
<path fill="none" stroke="midnightblue" d="M627.556,-204.679C622.218,-196.29 615.351,-185.499 609.274,-175.949"/>
<polygon fill="midnightblue" stroke="midnightblue" points="612.087,-173.851 603.765,-167.293 606.181,-177.609 612.087,-173.851"/>
</g>
<!-- Node34 -->
<g id="node34" class="node"><title>Node34</title>
<g id="a_node34"><a xlink:href="../../dd/d76/Cartesian3D_8h.html" target="_top" xlink:title="MathUtils/Cartesian3D.h">
<polygon fill="none" stroke="black" points="966.17,-142.5 966.17,-161.5 1091.17,-161.5 1091.17,-142.5 966.17,-142.5"/>
<text text-anchor="middle" x="1028.67" y="-149.5" font-family="Helvetica,sans-Serif" font-size="10.00">MathUtils/Cartesian3D.h</text>
</a>
</g>
</g>
<!-- Node24&#45;&gt;Node34 -->
<g id="edge42" class="edge"><title>Node24&#45;&gt;Node34</title>
<path fill="none" stroke="midnightblue" d="M715.054,-205.803C789.542,-193.261 899.995,-174.665 967.994,-163.216"/>
<polygon fill="midnightblue" stroke="midnightblue" points="968.839,-166.623 978.119,-161.511 967.677,-159.72 968.839,-166.623"/>
</g>
<!-- Node26&#45;&gt;Node14 -->
<g id="edge32" class="edge"><title>Node26&#45;&gt;Node14</title>
<path fill="none" stroke="midnightblue" d="M516.633,-137.413C441.808,-124.25 337.497,-105.494 318.67,-100 315.862,-99.1808 312.976,-98.2243 310.112,-97.1979"/>
<polygon fill="midnightblue" stroke="midnightblue" points="311.202,-93.867 300.612,-93.5373 308.685,-100.399 311.202,-93.867"/>
</g>
<!-- Node26&#45;&gt;Node25 -->
<g id="edge33" class="edge"><title>Node26&#45;&gt;Node25</title>
<path fill="none" stroke="midnightblue" d="M609.885,-136.726C619.209,-127.171 630.662,-113.847 637.67,-100 648.101,-79.3873 653.244,-53.1082 655.671,-35.7029"/>
<polygon fill="midnightblue" stroke="midnightblue" points="659.155,-36.0478 656.903,-25.6952 652.207,-35.1929 659.155,-36.0478"/>
</g>
<!-- Node27 -->
<g id="node27" class="node"><title>Node27</title>
<polygon fill="none" stroke="#bfbfbf" points="724.17,-74.5 724.17,-93.5 765.17,-93.5 765.17,-74.5 724.17,-74.5"/>
<text text-anchor="middle" x="744.67" y="-81.5" font-family="Helvetica,sans-Serif" font-size="10.00">bitset</text>
</g>
<!-- Node26&#45;&gt;Node27 -->
<g id="edge34" class="edge"><title>Node26&#45;&gt;Node27</title>
<path fill="none" stroke="midnightblue" d="M626.848,-136.841C653.143,-125.272 689.998,-109.055 715.454,-97.8547"/>
<polygon fill="midnightblue" stroke="midnightblue" points="717.194,-100.913 724.938,-93.6819 714.375,-94.5057 717.194,-100.913"/>
</g>
<!-- Node28 -->
<g id="node28" class="node"><title>Node28</title>
<polygon fill="none" stroke="#bfbfbf" points="436.17,-74.5 436.17,-93.5 485.17,-93.5 485.17,-74.5 436.17,-74.5"/>
<text text-anchor="middle" x="460.67" y="-81.5" font-family="Helvetica,sans-Serif" font-size="10.00">cassert</text>
</g>
<!-- Node26&#45;&gt;Node28 -->
<g id="edge35" class="edge"><title>Node26&#45;&gt;Node28</title>
<path fill="none" stroke="midnightblue" d="M565.923,-136.841C542.641,-125.374 510.091,-109.342 487.375,-98.1532"/>
<polygon fill="midnightblue" stroke="midnightblue" points="488.814,-94.9606 478.296,-93.6819 485.721,-101.24 488.814,-94.9606"/>
</g>
<!-- Node29 -->
<g id="node29" class="node"><title>Node29</title>
<polygon fill="none" stroke="#bfbfbf" points="503.67,-74.5 503.67,-93.5 549.67,-93.5 549.67,-74.5 503.67,-74.5"/>
<text text-anchor="middle" x="526.67" y="-81.5" font-family="Helvetica,sans-Serif" font-size="10.00">cstdint</text>
</g>
<!-- Node26&#45;&gt;Node29 -->
<g id="edge36" class="edge"><title>Node26&#45;&gt;Node29</title>
<path fill="none" stroke="midnightblue" d="M579.915,-136.679C569.102,-126.184 554.417,-111.932 543.208,-101.052"/>
<polygon fill="midnightblue" stroke="midnightblue" points="545.379,-98.2815 535.765,-93.8283 540.504,-103.305 545.379,-98.2815"/>
</g>
<!-- Node30 -->
<g id="node30" class="node"><title>Node30</title>
<polygon fill="none" stroke="#bfbfbf" points="567.67,-74.5 567.67,-93.5 629.67,-93.5 629.67,-74.5 567.67,-74.5"/>
<text text-anchor="middle" x="598.67" y="-81.5" font-family="Helvetica,sans-Serif" font-size="10.00">type_traits</text>
</g>
<!-- Node26&#45;&gt;Node30 -->
<g id="edge37" class="edge"><title>Node26&#45;&gt;Node30</title>
<path fill="none" stroke="midnightblue" d="M595.537,-136.679C596.118,-127.101 596.888,-114.394 597.519,-103.977"/>
<polygon fill="midnightblue" stroke="midnightblue" points="601.023,-104.022 598.134,-93.8283 594.036,-103.598 601.023,-104.022"/>
</g>
<!-- Node31 -->
<g id="node31" class="node"><title>Node31</title>
<g id="a_node31"><a xlink:href="../../d9/d52/Common_2MathUtils_2include_2MathUtils_2Utils_8h.html" target="_top" xlink:title="MathUtils/Utils.h">
<polygon fill="none" stroke="black" points="327.67,-74.5 327.67,-93.5 417.67,-93.5 417.67,-74.5 327.67,-74.5"/>
<text text-anchor="middle" x="372.67" y="-81.5" font-family="Helvetica,sans-Serif" font-size="10.00">MathUtils/Utils.h</text>
</a>
</g>
</g>
<!-- Node26&#45;&gt;Node31 -->
<g id="edge38" class="edge"><title>Node26&#45;&gt;Node31</title>
<path fill="none" stroke="midnightblue" d="M547.317,-136.922C506.638,-124.828 448.732,-107.613 410.932,-96.3753"/>
<polygon fill="midnightblue" stroke="midnightblue" points="411.89,-93.0087 401.307,-93.5138 409.895,-99.7184 411.89,-93.0087"/>
</g>
<!-- Node31&#45;&gt;Node25 -->
<g id="edge39" class="edge"><title>Node31&#45;&gt;Node25</title>
<path fill="none" stroke="midnightblue" d="M402.303,-74.4604C410.199,-72.2695 418.739,-69.9755 426.67,-68 498.83,-50.0257 584.477,-31.9637 628.431,-22.9303"/>
<polygon fill="midnightblue" stroke="midnightblue" points="629.327,-26.3194 638.422,-20.885 627.923,-19.4617 629.327,-26.3194"/>
</g>
<!-- Node32 -->
<g id="node32" class="node"><title>Node32</title>
<polygon fill="none" stroke="#bfbfbf" points="415.67,-6.5 415.67,-25.5 459.67,-25.5 459.67,-6.5 415.67,-6.5"/>
<text text-anchor="middle" x="437.67" y="-13.5" font-family="Helvetica,sans-Serif" font-size="10.00">cmath</text>
</g>
<!-- Node31&#45;&gt;Node32 -->
<g id="edge40" class="edge"><title>Node31&#45;&gt;Node32</title>
<path fill="none" stroke="midnightblue" d="M381.167,-74.3717C391.426,-63.9547 408.895,-46.2173 421.699,-33.2162"/>
<polygon fill="midnightblue" stroke="midnightblue" points="424.439,-35.4219 428.962,-25.8411 419.452,-30.5101 424.439,-35.4219"/>
</g>
<!-- Node33 -->
<g id="node33" class="node"><title>Node33</title>
<g id="a_node33"><a xlink:href="../../d6/d84/MathConstants_8h.html" target="_top" xlink:title="useful math constants ">
<polygon fill="none" stroke="black" points="218.17,-6.5 218.17,-25.5 397.17,-25.5 397.17,-6.5 218.17,-6.5"/>
<text text-anchor="middle" x="307.67" y="-13.5" font-family="Helvetica,sans-Serif" font-size="10.00">CommonConstants/MathConstants.h</text>
</a>
</g>
</g>
<!-- Node31&#45;&gt;Node33 -->
<g id="edge41" class="edge"><title>Node31&#45;&gt;Node33</title>
<path fill="none" stroke="midnightblue" d="M364.172,-74.3717C353.913,-63.9547 336.444,-46.2173 323.64,-33.2162"/>
<polygon fill="midnightblue" stroke="midnightblue" points="325.887,-30.5101 316.377,-25.8411 320.9,-35.4219 325.887,-30.5101"/>
</g>
<!-- Node34&#45;&gt;Node14 -->
<g id="edge48" class="edge"><title>Node34&#45;&gt;Node14</title>
<path fill="none" stroke="midnightblue" d="M965.975,-147.621C804.163,-138.742 380.774,-114.439 318.67,-100 315.596,-99.2853 312.445,-98.3504 309.341,-97.2961"/>
<polygon fill="midnightblue" stroke="midnightblue" points="310.334,-93.9292 299.743,-93.6455 307.846,-100.472 310.334,-93.9292"/>
</g>
<!-- Node35 -->
<g id="node35" class="node"><title>Node35</title>
<polygon fill="none" stroke="#bfbfbf" points="1540.17,-69 1540.17,-99 1691.17,-99 1691.17,-69 1540.17,-69"/>
<text text-anchor="start" x="1548.17" y="-87" font-family="Helvetica,sans-Serif" font-size="10.00">Math/GenVector/Displacement</text>
<text text-anchor="middle" x="1615.67" y="-76" font-family="Helvetica,sans-Serif" font-size="10.00">Vector3D.h</text>
</g>
<!-- Node34&#45;&gt;Node35 -->
<g id="edge43" class="edge"><title>Node34&#45;&gt;Node35</title>
<path fill="none" stroke="midnightblue" d="M1068.1,-142.47C1080.12,-140.1 1093.39,-137.71 1105.67,-136 1290.21,-110.286 1340.97,-124.008 1529.75,-100.037"/>
<polygon fill="midnightblue" stroke="midnightblue" points="1530.25,-103.501 1539.72,-98.7522 1529.36,-96.5588 1530.25,-103.501"/>
</g>
<!-- Node36 -->
<g id="node36" class="node"><title>Node36</title>
<polygon fill="none" stroke="#bfbfbf" points="1709.67,-74.5 1709.67,-93.5 1885.67,-93.5 1885.67,-74.5 1709.67,-74.5"/>
<text text-anchor="middle" x="1797.67" y="-81.5" font-family="Helvetica,sans-Serif" font-size="10.00">Math/GenVector/PositionVector3D.h</text>
</g>
<!-- Node34&#45;&gt;Node36 -->
<g id="edge44" class="edge"><title>Node34&#45;&gt;Node36</title>
<path fill="none" stroke="midnightblue" d="M1067.29,-142.443C1079.51,-140.014 1093.1,-137.598 1105.67,-136 1368.04,-102.641 1436.68,-128.037 1699.67,-100 1712.09,-98.6754 1725.35,-96.8959 1737.97,-95.026"/>
<polygon fill="midnightblue" stroke="midnightblue" points="1738.57,-98.4758 1747.93,-93.5139 1737.52,-91.5552 1738.57,-98.4758"/>
</g>
<!-- Node37 -->
<g id="node37" class="node"><title>Node37</title>
<polygon fill="none" stroke="#bfbfbf" points="783.17,-74.5 783.17,-93.5 932.17,-93.5 932.17,-74.5 783.17,-74.5"/>
<text text-anchor="middle" x="857.67" y="-81.5" font-family="Helvetica,sans-Serif" font-size="10.00">Math/GenVector/Rotation3D.h</text>
</g>
<!-- Node34&#45;&gt;Node37 -->
<g id="edge45" class="edge"><title>Node34&#45;&gt;Node37</title>
<path fill="none" stroke="midnightblue" d="M1006.31,-142.372C976.404,-130.827 923.2,-110.293 889.22,-97.1772"/>
<polygon fill="midnightblue" stroke="midnightblue" points="890.349,-93.8615 879.759,-93.5259 887.828,-100.392 890.349,-93.8615"/>
</g>
<!-- Node38 -->
<g id="node38" class="node"><title>Node38</title>
<polygon fill="none" stroke="#bfbfbf" points="950.67,-74.5 950.67,-93.5 1106.67,-93.5 1106.67,-74.5 950.67,-74.5"/>
<text text-anchor="middle" x="1028.67" y="-81.5" font-family="Helvetica,sans-Serif" font-size="10.00">Math/GenVector/Transform3D.h</text>
</g>
<!-- Node34&#45;&gt;Node38 -->
<g id="edge46" class="edge"><title>Node34&#45;&gt;Node38</title>
<path fill="none" stroke="midnightblue" d="M1028.67,-142.372C1028.67,-132.643 1028.67,-116.528 1028.67,-103.85"/>
<polygon fill="midnightblue" stroke="midnightblue" points="1032.17,-103.841 1028.67,-93.8411 1025.17,-103.841 1032.17,-103.841"/>
</g>
<!-- Node39 -->
<g id="node39" class="node"><title>Node39</title>
<polygon fill="none" stroke="#bfbfbf" points="1124.67,-74.5 1124.67,-93.5 1284.67,-93.5 1284.67,-74.5 1124.67,-74.5"/>
<text text-anchor="middle" x="1204.67" y="-81.5" font-family="Helvetica,sans-Serif" font-size="10.00">Math/GenVector/Translation3D.h</text>
</g>
<!-- Node34&#45;&gt;Node39 -->
<g id="edge47" class="edge"><title>Node34&#45;&gt;Node39</title>
<path fill="none" stroke="midnightblue" d="M1051.68,-142.372C1082.46,-130.827 1137.22,-110.293 1172.2,-97.1772"/>
<polygon fill="midnightblue" stroke="midnightblue" points="1173.8,-100.314 1181.93,-93.5259 1171.34,-93.76 1173.8,-100.314"/>
</g>
<!-- Node40 -->
<g id="node40" class="node"><title>Node40</title>
<polygon fill="none" stroke="#bfbfbf" points="1302.67,-74.5 1302.67,-93.5 1378.67,-93.5 1378.67,-74.5 1302.67,-74.5"/>
<text text-anchor="middle" x="1340.67" y="-81.5" font-family="Helvetica,sans-Serif" font-size="10.00">TGeoMatrix.h</text>
</g>
<!-- Node34&#45;&gt;Node40 -->
<g id="edge49" class="edge"><title>Node34&#45;&gt;Node40</title>
<path fill="none" stroke="midnightblue" d="M1072.24,-142.488C1083.15,-140.362 1094.84,-138.092 1105.67,-136 1189.2,-119.866 1211.22,-120.97 1293.67,-100 1297.78,-98.9549 1302.06,-97.7531 1306.28,-96.4944"/>
<polygon fill="midnightblue" stroke="midnightblue" points="1307.43,-99.8021 1315.95,-93.5007 1305.36,-93.1154 1307.43,-99.8021"/>
</g>
<!-- Node41 -->
<g id="node41" class="node"><title>Node41</title>
<polygon fill="none" stroke="#bfbfbf" points="1903.67,-74.5 1903.67,-93.5 1957.67,-93.5 1957.67,-74.5 1903.67,-74.5"/>
<text text-anchor="middle" x="1930.67" y="-81.5" font-family="Helvetica,sans-Serif" font-size="10.00">iostream</text>
</g>
<!-- Node34&#45;&gt;Node41 -->
<g id="edge50" class="edge"><title>Node34&#45;&gt;Node41</title>
<path fill="none" stroke="midnightblue" d="M1066.48,-142.487C1078.91,-139.998 1092.82,-137.536 1105.67,-136 1453.78,-94.3699 1551.18,-174.936 1893.67,-100 1896.92,-99.2889 1900.25,-98.3171 1903.52,-97.2073"/>
<polygon fill="midnightblue" stroke="midnightblue" points="1904.9,-100.426 1912.99,-93.5872 1902.4,-93.8875 1904.9,-100.426"/>
</g>
<!-- Node42 -->
<g id="node42" class="node"><title>Node42</title>
<g id="a_node42"><a xlink:href="../../d2/dd0/Cartesian2D_8h.html" target="_top" xlink:title="MathUtils/Cartesian2D.h">
<polygon fill="none" stroke="black" points="1397.17,-74.5 1397.17,-93.5 1522.17,-93.5 1522.17,-74.5 1397.17,-74.5"/>
<text text-anchor="middle" x="1459.67" y="-81.5" font-family="Helvetica,sans-Serif" font-size="10.00">MathUtils/Cartesian2D.h</text>
</a>
</g>
</g>
<!-- Node34&#45;&gt;Node42 -->
<g id="edge51" class="edge"><title>Node34&#45;&gt;Node42</title>
<path fill="none" stroke="midnightblue" d="M1069.74,-142.483C1081.33,-140.22 1093.97,-137.884 1105.67,-136 1230.41,-115.909 1263.06,-120.901 1387.67,-100 1395.37,-98.708 1403.51,-97.1769 1411.42,-95.5949"/>
<polygon fill="midnightblue" stroke="midnightblue" points="1412.19,-99.0102 1421.29,-93.5778 1410.79,-92.1521 1412.19,-99.0102"/>
</g>
<!-- Node43 -->
<g id="node43" class="node"><title>Node43</title>
<polygon fill="none" stroke="#bfbfbf" points="1475.17,-1 1475.17,-31 1626.17,-31 1626.17,-1 1475.17,-1"/>
<text text-anchor="start" x="1483.17" y="-19" font-family="Helvetica,sans-Serif" font-size="10.00">Math/GenVector/Displacement</text>
<text text-anchor="middle" x="1550.67" y="-8" font-family="Helvetica,sans-Serif" font-size="10.00">Vector2D.h</text>
</g>
<!-- Node42&#45;&gt;Node43 -->
<g id="edge52" class="edge"><title>Node42&#45;&gt;Node43</title>
<path fill="none" stroke="midnightblue" d="M1471.57,-74.3717C1484.45,-65.0286 1505.45,-49.7966 1522.58,-37.375"/>
<polygon fill="midnightblue" stroke="midnightblue" points="1525.08,-39.8859 1531.12,-31.1815 1520.97,-34.2194 1525.08,-39.8859"/>
</g>
<!-- Node44 -->
<g id="node44" class="node"><title>Node44</title>
<polygon fill="none" stroke="#bfbfbf" points="1280.67,-6.5 1280.67,-25.5 1456.67,-25.5 1456.67,-6.5 1280.67,-6.5"/>
<text text-anchor="middle" x="1368.67" y="-13.5" font-family="Helvetica,sans-Serif" font-size="10.00">Math/GenVector/PositionVector2D.h</text>
</g>
<!-- Node42&#45;&gt;Node44 -->
<g id="edge53" class="edge"><title>Node42&#45;&gt;Node44</title>
<path fill="none" stroke="midnightblue" d="M1447.77,-74.3717C1432.79,-63.5015 1406.81,-44.6602 1388.73,-31.5474"/>
<polygon fill="midnightblue" stroke="midnightblue" points="1390.72,-28.6684 1380.57,-25.6305 1386.61,-34.3349 1390.72,-28.6684"/>
</g>
<!-- Node46 -->
<g id="node46" class="node"><title>Node46</title>
<g id="a_node46"><a xlink:href="../../d4/de2/BaseCluster_8h.html" target="_top" xlink:title="ReconstructionDataFormats\l/BaseCluster.h">
<polygon fill="none" stroke="black" points="741.67,-273 741.67,-303 881.67,-303 881.67,-273 741.67,-273"/>
<text text-anchor="start" x="749.67" y="-291" font-family="Helvetica,sans-Serif" font-size="10.00">ReconstructionDataFormats</text>
<text text-anchor="middle" x="811.67" y="-280" font-family="Helvetica,sans-Serif" font-size="10.00">/BaseCluster.h</text>
</a>
</g>
</g>
<!-- Node45&#45;&gt;Node46 -->
<g id="edge56" class="edge"><title>Node45&#45;&gt;Node46</title>
<path fill="none" stroke="midnightblue" d="M792.822,-340.403C795.467,-333.189 799.376,-322.528 802.949,-312.782"/>
<polygon fill="midnightblue" stroke="midnightblue" points="806.328,-313.734 806.485,-303.141 799.756,-311.325 806.328,-313.734"/>
</g>
<!-- Node46&#45;&gt;Node24 -->
<g id="edge62" class="edge"><title>Node46&#45;&gt;Node24</title>
<path fill="none" stroke="midnightblue" d="M774.128,-272.841C747.625,-262.846 711.927,-249.383 683.553,-238.682"/>
<polygon fill="midnightblue" stroke="midnightblue" points="684.44,-235.276 673.849,-235.022 681.97,-241.826 684.44,-235.276"/>
</g>
<!-- Node46&#45;&gt;Node27 -->
<g id="edge58" class="edge"><title>Node46&#45;&gt;Node27</title>
<path fill="none" stroke="midnightblue" d="M805.051,-272.891C800.426,-262.752 794.279,-248.689 789.67,-236 772.602,-189.016 756.971,-132.166 749.423,-103.476"/>
<polygon fill="midnightblue" stroke="midnightblue" points="752.766,-102.425 746.859,-93.629 745.991,-104.188 752.766,-102.425"/>
</g>
<!-- Node46&#45;&gt;Node34 -->
<g id="edge63" class="edge"><title>Node46&#45;&gt;Node34</title>
<path fill="none" stroke="midnightblue" d="M804.392,-272.977C796.181,-254.976 785.89,-223.718 801.67,-204 820.815,-180.076 897.001,-166.596 955.891,-159.584"/>
<polygon fill="midnightblue" stroke="midnightblue" points="956.389,-163.05 965.924,-158.431 955.59,-156.095 956.389,-163.05"/>
</g>
<!-- Node46&#45;&gt;Node41 -->
<g id="edge61" class="edge"><title>Node46&#45;&gt;Node41</title>
<path fill="none" stroke="midnightblue" d="M880.747,-272.98C915.765,-264.579 958.434,-252.323 994.67,-236 1045.36,-213.165 1054.57,-200.518 1099.67,-168 1118.14,-154.684 1118.37,-144.046 1139.67,-136 1296.59,-76.715 1729.84,-136.023 1893.67,-100 1896.92,-99.2855 1900.25,-98.3116 1903.52,-97.2007"/>
<polygon fill="midnightblue" stroke="midnightblue" points="1904.9,-100.419 1912.99,-93.5793 1902.4,-93.881 1904.9,-100.419"/>
</g>
<!-- Node47 -->
<g id="node47" class="node"><title>Node47</title>
<polygon fill="none" stroke="#bfbfbf" points="811.17,-210.5 811.17,-229.5 870.17,-229.5 870.17,-210.5 811.17,-210.5"/>
<text text-anchor="middle" x="840.67" y="-217.5" font-family="Helvetica,sans-Serif" font-size="10.00">TObject.h</text>
</g>
<!-- Node46&#45;&gt;Node47 -->
<g id="edge57" class="edge"><title>Node46&#45;&gt;Node47</title>
<path fill="none" stroke="midnightblue" d="M817.962,-272.679C822.305,-262.796 828.112,-249.579 832.766,-238.986"/>
<polygon fill="midnightblue" stroke="midnightblue" points="835.972,-240.391 836.79,-229.828 829.563,-237.576 835.972,-240.391"/>
</g>
<!-- Node48 -->
<g id="node48" class="node"><title>Node48</title>
<polygon fill="none" stroke="#bfbfbf" points="888.67,-210.5 888.67,-229.5 938.67,-229.5 938.67,-210.5 888.67,-210.5"/>
<text text-anchor="middle" x="913.67" y="-217.5" font-family="Helvetica,sans-Serif" font-size="10.00">iomanip</text>
</g>
<!-- Node46&#45;&gt;Node48 -->
<g id="edge59" class="edge"><title>Node46&#45;&gt;Node48</title>
<path fill="none" stroke="midnightblue" d="M833.551,-272.841C850.64,-261.784 874.289,-246.481 891.461,-235.37"/>
<polygon fill="midnightblue" stroke="midnightblue" points="893.758,-238.053 900.252,-229.682 889.955,-232.176 893.758,-238.053"/>
</g>
<!-- Node49 -->
<g id="node49" class="node"><title>Node49</title>
<polygon fill="none" stroke="#bfbfbf" points="957.17,-210.5 957.17,-229.5 986.17,-229.5 986.17,-210.5 957.17,-210.5"/>
<text text-anchor="middle" x="971.67" y="-217.5" font-family="Helvetica,sans-Serif" font-size="10.00">ios</text>
</g>
<!-- Node46&#45;&gt;Node49 -->
<g id="edge60" class="edge"><title>Node46&#45;&gt;Node49</title>
<path fill="none" stroke="midnightblue" d="M855.785,-272.963C882.865,-263.738 917.937,-250.682 947.67,-236 948.363,-235.657 949.063,-235.3 949.764,-234.931"/>
<polygon fill="midnightblue" stroke="midnightblue" points="951.834,-237.777 958.737,-229.74 948.329,-231.718 951.834,-237.777"/>
</g>
</g>
</svg>
