<?xml version="1.0" encoding="UTF-8" standalone="no"?>
<!DOCTYPE svg PUBLIC "-//W3C//DTD SVG 1.1//EN"
 "http://www.w3.org/Graphics/SVG/1.1/DTD/svg11.dtd">
<!-- Generated by graphviz version 2.36.0 (20140111.2315)
 -->
<!-- Title: /home/travis/build/AliceO2Group/AliceO2/DataFormats/Headers/src/TimeStamp.cxx Pages: 1 -->
<svg width="445pt" height="230pt"
 viewBox="0.00 0.00 445.00 230.00" xmlns="http://www.w3.org/2000/svg" xmlns:xlink="http://www.w3.org/1999/xlink">
<g id="graph0" class="graph" transform="scale(1 1) rotate(0) translate(4 226)">
<title>/home/travis/build/AliceO2Group/AliceO2/DataFormats/Headers/src/TimeStamp.cxx</title>
<!-- Node1 -->
<g id="node1" class="node"><title>Node1</title>
<polygon fill="#bfbfbf" stroke="black" points="241.5,-169 241.5,-221 374.5,-221 374.5,-169 241.5,-169"/>
<text text-anchor="start" x="249.5" y="-209" font-family="Helvetica,sans-Serif" font-size="10.00">/home/travis/build</text>
<text text-anchor="start" x="249.5" y="-198" font-family="Helvetica,sans-Serif" font-size="10.00">/AliceO2Group/AliceO2</text>
<text text-anchor="start" x="249.5" y="-187" font-family="Helvetica,sans-Serif" font-size="10.00">/DataFormats/Headers/src</text>
<text text-anchor="middle" x="308" y="-176" font-family="Helvetica,sans-Serif" font-size="10.00">/TimeStamp.cxx</text>
</g>
<!-- Node2 -->
<g id="node2" class="node"><title>Node2</title>
<g id="a_node2"><a xlink:href="../../d6/d90/Headers_2include_2Headers_2TimeStamp_8h.html" target="_top" xlink:title="Headers/TimeStamp.h">
<polygon fill="none" stroke="black" points="250.5,-112.5 250.5,-131.5 365.5,-131.5 365.5,-112.5 250.5,-112.5"/>
<text text-anchor="middle" x="308" y="-119.5" font-family="Helvetica,sans-Serif" font-size="10.00">Headers/TimeStamp.h</text>
</a>
</g>
</g>
<!-- Node1&#45;&gt;Node2 -->
<g id="edge1" class="edge"><title>Node1&#45;&gt;Node2</title>
<path fill="none" stroke="midnightblue" d="M308,-168.768C308,-159.89 308,-150.074 308,-141.816"/>
<polygon fill="midnightblue" stroke="midnightblue" points="311.5,-141.757 308,-131.757 304.5,-141.757 311.5,-141.757"/>
</g>
<!-- Node3 -->
<g id="node3" class="node"><title>Node3</title>
<g id="a_node3"><a xlink:href="../../dc/dcd/DataHeader_8h.html" target="_top" xlink:title="Headers/DataHeader.h">
<polygon fill="none" stroke="black" points="111.5,-56.5 111.5,-75.5 228.5,-75.5 228.5,-56.5 111.5,-56.5"/>
<text text-anchor="middle" x="170" y="-63.5" font-family="Helvetica,sans-Serif" font-size="10.00">Headers/DataHeader.h</text>
</a>
</g>
</g>
<!-- Node2&#45;&gt;Node3 -->
<g id="edge2" class="edge"><title>Node2&#45;&gt;Node3</title>
<path fill="none" stroke="midnightblue" d="M286.133,-112.444C263.221,-103.478 227.025,-89.314 201.134,-79.1827"/>
<polygon fill="midnightblue" stroke="midnightblue" points="202.352,-75.9011 191.764,-75.5164 199.801,-82.4198 202.352,-75.9011"/>
</g>
<!-- Node6 -->
<g id="node6" class="node"><title>Node6</title>
<polygon fill="none" stroke="#bfbfbf" points="272.5,-0.5 272.5,-19.5 321.5,-19.5 321.5,-0.5 272.5,-0.5"/>
<text text-anchor="middle" x="297" y="-7.5" font-family="Helvetica,sans-Serif" font-size="10.00">cassert</text>
</g>
<!-- Node2&#45;&gt;Node6 -->
<g id="edge9" class="edge"><title>Node2&#45;&gt;Node6</title>
<path fill="none" stroke="midnightblue" d="M306.707,-112.39C305.382,-103.346 303.334,-88.6984 302,-76 300.372,-60.5035 299.049,-42.8759 298.174,-29.891"/>
<polygon fill="midnightblue" stroke="midnightblue" points="301.662,-29.5985 297.524,-19.8455 294.677,-30.0508 301.662,-29.5985"/>
</g>
<!-- Node9 -->
<g id="node9" class="node"><title>Node9</title>
<polygon fill="none" stroke="#bfbfbf" points="311,-56.5 311,-75.5 357,-75.5 357,-56.5 311,-56.5"/>
<text text-anchor="middle" x="334" y="-63.5" font-family="Helvetica,sans-Serif" font-size="10.00">chrono</text>
</g>
<!-- Node2&#45;&gt;Node9 -->
<g id="edge8" class="edge"><title>Node2&#45;&gt;Node9</title>
<path fill="none" stroke="midnightblue" d="M312.293,-112.083C315.852,-104.691 321.022,-93.9533 325.424,-84.8111"/>
<polygon fill="midnightblue" stroke="midnightblue" points="328.602,-86.2795 329.787,-75.7511 322.295,-83.2427 328.602,-86.2795"/>
</g>
<!-- Node10 -->
<g id="node10" class="node"><title>Node10</title>
<polygon fill="none" stroke="#bfbfbf" points="375,-56.5 375,-75.5 437,-75.5 437,-56.5 375,-56.5"/>
<text text-anchor="middle" x="406" y="-63.5" font-family="Helvetica,sans-Serif" font-size="10.00">type_traits</text>
</g>
<!-- Node2&#45;&gt;Node10 -->
<g id="edge10" class="edge"><title>Node2&#45;&gt;Node10</title>
<path fill="none" stroke="midnightblue" d="M323.745,-112.324C339.319,-103.743 363.377,-90.486 381.459,-80.5224"/>
<polygon fill="midnightblue" stroke="midnightblue" points="383.224,-83.546 390.294,-75.6545 379.846,-77.4152 383.224,-83.546"/>
</g>
<!-- Node4 -->
<g id="node4" class="node"><title>Node4</title>
<polygon fill="none" stroke="#bfbfbf" points="0,-0.5 0,-19.5 46,-19.5 46,-0.5 0,-0.5"/>
<text text-anchor="middle" x="23" y="-7.5" font-family="Helvetica,sans-Serif" font-size="10.00">cstdint</text>
</g>
<!-- Node3&#45;&gt;Node4 -->
<g id="edge3" class="edge"><title>Node3&#45;&gt;Node4</title>
<path fill="none" stroke="midnightblue" d="M146.707,-56.4435C122.193,-47.4381 83.4038,-33.1891 55.8001,-23.049"/>
<polygon fill="midnightblue" stroke="midnightblue" points="56.7772,-19.6793 46.1836,-19.5164 54.3634,-26.25 56.7772,-19.6793"/>
</g>
<!-- Node5 -->
<g id="node5" class="node"><title>Node5</title>
<polygon fill="none" stroke="#bfbfbf" points="64,-0.5 64,-19.5 116,-19.5 116,-0.5 64,-0.5"/>
<text text-anchor="middle" x="90" y="-7.5" font-family="Helvetica,sans-Serif" font-size="10.00">memory</text>
</g>
<!-- Node3&#45;&gt;Node5 -->
<g id="edge4" class="edge"><title>Node3&#45;&gt;Node5</title>
<path fill="none" stroke="midnightblue" d="M157.147,-56.324C144.784,-47.979 125.87,-35.2122 111.263,-25.3524"/>
<polygon fill="midnightblue" stroke="midnightblue" points="113.068,-22.3483 102.821,-19.6545 109.152,-28.1503 113.068,-22.3483"/>
</g>
<!-- Node3&#45;&gt;Node6 -->
<g id="edge5" class="edge"><title>Node3&#45;&gt;Node6</title>
<path fill="none" stroke="midnightblue" d="M190.124,-56.4435C211.024,-47.5566 243.935,-33.5632 267.716,-23.4514"/>
<polygon fill="midnightblue" stroke="midnightblue" points="269.138,-26.6504 276.971,-19.5164 266.398,-20.2085 269.138,-26.6504"/>
</g>
<!-- Node7 -->
<g id="node7" class="node"><title>Node7</title>
<polygon fill="none" stroke="#bfbfbf" points="134,-0.5 134,-19.5 180,-19.5 180,-0.5 134,-0.5"/>
<text text-anchor="middle" x="157" y="-7.5" font-family="Helvetica,sans-Serif" font-size="10.00">cstring</text>
</g>
<!-- Node3&#45;&gt;Node7 -->
<g id="edge6" class="edge"><title>Node3&#45;&gt;Node7</title>
<path fill="none" stroke="midnightblue" d="M167.853,-56.083C166.131,-48.9272 163.653,-38.6353 161.5,-29.6911"/>
<polygon fill="midnightblue" stroke="midnightblue" points="164.85,-28.6541 159.107,-19.7511 158.045,-30.2925 164.85,-28.6541"/>
</g>
<!-- Node8 -->
<g id="node8" class="node"><title>Node8</title>
<polygon fill="none" stroke="#bfbfbf" points="198,-0.5 198,-19.5 254,-19.5 254,-0.5 198,-0.5"/>
<text text-anchor="middle" x="226" y="-7.5" font-family="Helvetica,sans-Serif" font-size="10.00">algorithm</text>
</g>
<!-- Node3&#45;&gt;Node8 -->
<g id="edge7" class="edge"><title>Node3&#45;&gt;Node8</title>
<path fill="none" stroke="midnightblue" d="M178.997,-56.324C187.194,-48.4196 199.506,-36.5482 209.472,-26.9377"/>
<polygon fill="midnightblue" stroke="midnightblue" points="212.07,-29.2947 216.839,-19.8339 207.211,-24.2558 212.07,-29.2947"/>
</g>
</g>
</svg>
