<?xml version="1.0" encoding="UTF-8" standalone="no"?>
<!DOCTYPE svg PUBLIC "-//W3C//DTD SVG 1.1//EN"
 "http://www.w3.org/Graphics/SVG/1.1/DTD/svg11.dtd">
<!-- Generated by graphviz version 2.36.0 (20140111.2315)
 -->
<!-- Title: /home/travis/build/AliceO2Group/AliceO2/Detectors/TPC/simulation/include/TPCSimulation/DigitCRU.h Pages: 1 -->
<svg width="1712pt" height="682pt"
 viewBox="0.00 0.00 1712.00 682.00" xmlns="http://www.w3.org/2000/svg" xmlns:xlink="http://www.w3.org/1999/xlink">
<g id="graph0" class="graph" transform="scale(1 1) rotate(0) translate(4 678)">
<title>/home/travis/build/AliceO2Group/AliceO2/Detectors/TPC/simulation/include/TPCSimulation/DigitCRU.h</title>
<!-- Node1 -->
<g id="node1" class="node"><title>Node1</title>
<polygon fill="#bfbfbf" stroke="black" points="933.5,-621 933.5,-673 1106.5,-673 1106.5,-621 933.5,-621"/>
<text text-anchor="start" x="941.5" y="-661" font-family="Helvetica,sans-Serif" font-size="10.00">/home/travis/build</text>
<text text-anchor="start" x="941.5" y="-650" font-family="Helvetica,sans-Serif" font-size="10.00">/AliceO2Group/AliceO2</text>
<text text-anchor="start" x="941.5" y="-639" font-family="Helvetica,sans-Serif" font-size="10.00">/Detectors/TPC/simulation</text>
<text text-anchor="middle" x="1020" y="-628" font-family="Helvetica,sans-Serif" font-size="10.00">/include/TPCSimulation/DigitCRU.h</text>
</g>
<!-- Node2 -->
<g id="node2" class="node"><title>Node2</title>
<g id="a_node2"><a xlink:href="../../d0/d60/DigitTime_8h.html" target="_top" xlink:title="Definition of the Time Bin container. ">
<polygon fill="none" stroke="black" points="638,-558.5 638,-577.5 774,-577.5 774,-558.5 638,-558.5"/>
<text text-anchor="middle" x="706" y="-565.5" font-family="Helvetica,sans-Serif" font-size="10.00">TPCSimulation/DigitTime.h</text>
</a>
</g>
</g>
<!-- Node1&#45;&gt;Node2 -->
<g id="edge1" class="edge"><title>Node1&#45;&gt;Node2</title>
<path fill="none" stroke="midnightblue" d="M933.367,-624.756C874.175,-610.24 798.159,-591.599 750.755,-579.975"/>
<polygon fill="midnightblue" stroke="midnightblue" points="751.347,-576.516 740.801,-577.534 749.68,-583.315 751.347,-576.516"/>
</g>
<!-- Node20 -->
<g id="node20" class="node"><title>Node20</title>
<g id="a_node20"><a xlink:href="../../d6/dba/CommonModeContainer_8h.html" target="_top" xlink:title="Definition of the Common Mode computation. ">
<polygon fill="none" stroke="black" points="945.5,-553 945.5,-583 1094.5,-583 1094.5,-553 945.5,-553"/>
<text text-anchor="start" x="953.5" y="-571" font-family="Helvetica,sans-Serif" font-size="10.00">TPCSimulation/CommonMode</text>
<text text-anchor="middle" x="1020" y="-560" font-family="Helvetica,sans-Serif" font-size="10.00">Container.h</text>
</a>
</g>
</g>
<!-- Node1&#45;&gt;Node20 -->
<g id="edge21" class="edge"><title>Node1&#45;&gt;Node20</title>
<path fill="none" stroke="midnightblue" d="M1020,-620.787C1020,-612.029 1020,-602.225 1020,-593.523"/>
<polygon fill="midnightblue" stroke="midnightblue" points="1023.5,-593.252 1020,-583.252 1016.5,-593.252 1023.5,-593.252"/>
</g>
<!-- Node49 -->
<g id="node49" class="node"><title>Node49</title>
<polygon fill="none" stroke="#bfbfbf" points="1100.5,-496.5 1100.5,-515.5 1143.5,-515.5 1143.5,-496.5 1100.5,-496.5"/>
<text text-anchor="middle" x="1122" y="-503.5" font-family="Helvetica,sans-Serif" font-size="10.00">deque</text>
</g>
<!-- Node1&#45;&gt;Node49 -->
<g id="edge73" class="edge"><title>Node1&#45;&gt;Node49</title>
<path fill="none" stroke="midnightblue" d="M1065.12,-620.785C1079.11,-610.963 1093.36,-598.54 1103,-584 1114.62,-566.472 1119.14,-542.447 1120.89,-525.919"/>
<polygon fill="midnightblue" stroke="midnightblue" points="1124.39,-526.098 1121.72,-515.846 1117.41,-525.527 1124.39,-526.098"/>
</g>
<!-- Node3 -->
<g id="node3" class="node"><title>Node3</title>
<g id="a_node3"><a xlink:href="../../de/dc8/DigitRow_8h.html" target="_top" xlink:title="Definition of the Row container. ">
<polygon fill="none" stroke="black" points="380,-272.5 380,-291.5 514,-291.5 514,-272.5 380,-272.5"/>
<text text-anchor="middle" x="447" y="-279.5" font-family="Helvetica,sans-Serif" font-size="10.00">TPCSimulation/DigitRow.h</text>
</a>
</g>
</g>
<!-- Node2&#45;&gt;Node3 -->
<g id="edge2" class="edge"><title>Node2&#45;&gt;Node3</title>
<path fill="none" stroke="midnightblue" d="M673.926,-558.383C629.062,-544.157 553,-511.167 553,-451 553,-451 553,-451 553,-393 553,-347.815 506.05,-314.052 474.643,-296.521"/>
<polygon fill="midnightblue" stroke="midnightblue" points="475.932,-293.241 465.464,-291.607 472.628,-299.412 475.932,-293.241"/>
</g>
<!-- Node4 -->
<g id="node4" class="node"><title>Node4</title>
<g id="a_node4"><a xlink:href="../../d3/d5d/DigitPad_8h.html" target="_top" xlink:title="Definition of the Pad container. ">
<polygon fill="none" stroke="black" points="536.5,-210.5 536.5,-229.5 667.5,-229.5 667.5,-210.5 536.5,-210.5"/>
<text text-anchor="middle" x="602" y="-217.5" font-family="Helvetica,sans-Serif" font-size="10.00">TPCSimulation/DigitPad.h</text>
</a>
</g>
</g>
<!-- Node3&#45;&gt;Node4 -->
<g id="edge3" class="edge"><title>Node3&#45;&gt;Node4</title>
<path fill="none" stroke="midnightblue" d="M469.208,-272.403C495.681,-262.156 540.114,-244.956 570.22,-233.302"/>
<polygon fill="midnightblue" stroke="midnightblue" points="571.771,-236.455 579.833,-229.581 569.244,-229.927 571.771,-236.455"/>
</g>
<!-- Node15 -->
<g id="node15" class="node"><title>Node15</title>
<g id="a_node15"><a xlink:href="../../df/db1/TPC_2base_2include_2TPCBase_2Digit_8h.html" target="_top" xlink:title="TPCBase/Digit.h">
<polygon fill="none" stroke="black" points="266.5,-210.5 266.5,-229.5 357.5,-229.5 357.5,-210.5 266.5,-210.5"/>
<text text-anchor="middle" x="312" y="-217.5" font-family="Helvetica,sans-Serif" font-size="10.00">TPCBase/Digit.h</text>
</a>
</g>
</g>
<!-- Node3&#45;&gt;Node15 -->
<g id="edge14" class="edge"><title>Node3&#45;&gt;Node15</title>
<path fill="none" stroke="midnightblue" d="M427.658,-272.403C404.901,-262.29 366.908,-245.404 340.712,-233.761"/>
<polygon fill="midnightblue" stroke="midnightblue" points="341.866,-230.444 331.306,-229.581 339.023,-236.84 341.866,-230.444"/>
</g>
<!-- Node18 -->
<g id="node18" class="node"><title>Node18</title>
<g id="a_node18"><a xlink:href="../../dd/df5/DigitMCMetaData_8h.html" target="_top" xlink:title="Definition of the Meta Data object of the Monte Carlo Digit. ">
<polygon fill="none" stroke="black" points="375.5,-205 375.5,-235 518.5,-235 518.5,-205 375.5,-205"/>
<text text-anchor="start" x="383.5" y="-223" font-family="Helvetica,sans-Serif" font-size="10.00">TPCSimulation/DigitMCMeta</text>
<text text-anchor="middle" x="447" y="-212" font-family="Helvetica,sans-Serif" font-size="10.00">Data.h</text>
</a>
</g>
</g>
<!-- Node3&#45;&gt;Node18 -->
<g id="edge18" class="edge"><title>Node3&#45;&gt;Node18</title>
<path fill="none" stroke="midnightblue" d="M447,-272.403C447,-265.341 447,-254.975 447,-245.399"/>
<polygon fill="midnightblue" stroke="midnightblue" points="450.5,-245.141 447,-235.141 443.5,-245.141 450.5,-245.141"/>
</g>
<!-- Node19 -->
<g id="node19" class="node"><title>Node19</title>
<polygon fill="none" stroke="#bfbfbf" points="196,-210.5 196,-229.5 248,-229.5 248,-210.5 196,-210.5"/>
<text text-anchor="middle" x="222" y="-217.5" font-family="Helvetica,sans-Serif" font-size="10.00">memory</text>
</g>
<!-- Node3&#45;&gt;Node19 -->
<g id="edge20" class="edge"><title>Node3&#45;&gt;Node19</title>
<path fill="none" stroke="midnightblue" d="M401.087,-272.439C362.219,-264.644 305.287,-251.933 257,-236 254.583,-235.202 252.101,-234.306 249.629,-233.357"/>
<polygon fill="midnightblue" stroke="midnightblue" points="250.879,-230.087 240.298,-229.546 248.232,-236.567 250.879,-230.087"/>
</g>
<!-- Node5 -->
<g id="node5" class="node"><title>Node5</title>
<polygon fill="none" stroke="#bfbfbf" points="725.5,-142.5 725.5,-161.5 760.5,-161.5 760.5,-142.5 725.5,-142.5"/>
<text text-anchor="middle" x="743" y="-149.5" font-family="Helvetica,sans-Serif" font-size="10.00">map</text>
</g>
<!-- Node4&#45;&gt;Node5 -->
<g id="edge4" class="edge"><title>Node4&#45;&gt;Node5</title>
<path fill="none" stroke="midnightblue" d="M622.428,-210.493C645.434,-200.767 683.812,-184.104 716,-168 716.983,-167.508 717.982,-166.999 718.988,-166.478"/>
<polygon fill="midnightblue" stroke="midnightblue" points="720.834,-169.459 727.986,-161.642 717.521,-163.293 720.834,-169.459"/>
</g>
<!-- Node6 -->
<g id="node6" class="node"><title>Node6</title>
<polygon fill="none" stroke="#bfbfbf" points="475,-142.5 475,-161.5 575,-161.5 575,-142.5 475,-142.5"/>
<text text-anchor="middle" x="525" y="-149.5" font-family="Helvetica,sans-Serif" font-size="10.00">FairRootManager.h</text>
</g>
<!-- Node4&#45;&gt;Node6 -->
<g id="edge5" class="edge"><title>Node4&#45;&gt;Node6</title>
<path fill="none" stroke="midnightblue" d="M591.934,-210.372C579.551,-199.758 558.303,-181.545 543.066,-168.485"/>
<polygon fill="midnightblue" stroke="midnightblue" points="545.185,-165.692 535.315,-161.841 540.629,-171.006 545.185,-165.692"/>
</g>
<!-- Node7 -->
<g id="node7" class="node"><title>Node7</title>
<g id="a_node7"><a xlink:href="../../db/d14/MCTruthContainer_8h.html" target="_top" xlink:title="Definition of a container to keep Monte Carlo truth external to simulation objects. ">
<polygon fill="none" stroke="black" points="117,-137 117,-167 231,-167 231,-137 117,-137"/>
<text text-anchor="start" x="125" y="-155" font-family="Helvetica,sans-Serif" font-size="10.00">SimulationDataFormat</text>
<text text-anchor="middle" x="174" y="-144" font-family="Helvetica,sans-Serif" font-size="10.00">/MCTruthContainer.h</text>
</a>
</g>
</g>
<!-- Node4&#45;&gt;Node7 -->
<g id="edge6" class="edge"><title>Node4&#45;&gt;Node7</title>
<path fill="none" stroke="midnightblue" d="M562.007,-210.442C550.717,-208.179 538.403,-205.853 527,-204 403.331,-183.904 368.372,-189.94 241.291,-168.119"/>
<polygon fill="midnightblue" stroke="midnightblue" points="241.62,-164.623 231.167,-166.356 240.419,-171.52 241.62,-164.623"/>
</g>
<!-- Node13 -->
<g id="node13" class="node"><title>Node13</title>
<g id="a_node13"><a xlink:href="../../d7/dcd/MCCompLabel_8h.html" target="_top" xlink:title="SimulationDataFormat\l/MCCompLabel.h">
<polygon fill="none" stroke="black" points="593,-137 593,-167 707,-167 707,-137 593,-137"/>
<text text-anchor="start" x="601" y="-155" font-family="Helvetica,sans-Serif" font-size="10.00">SimulationDataFormat</text>
<text text-anchor="middle" x="650" y="-144" font-family="Helvetica,sans-Serif" font-size="10.00">/MCCompLabel.h</text>
</a>
</g>
</g>
<!-- Node4&#45;&gt;Node13 -->
<g id="edge12" class="edge"><title>Node4&#45;&gt;Node13</title>
<path fill="none" stroke="midnightblue" d="M608.275,-210.372C614.696,-201.543 624.941,-187.456 633.672,-175.45"/>
<polygon fill="midnightblue" stroke="midnightblue" points="636.635,-177.327 639.686,-167.181 630.974,-173.21 636.635,-177.327"/>
</g>
<!-- Node8 -->
<g id="node8" class="node"><title>Node8</title>
<polygon fill="none" stroke="#bfbfbf" points="143,-74.5 143,-93.5 205,-93.5 205,-74.5 143,-74.5"/>
<text text-anchor="middle" x="174" y="-81.5" font-family="Helvetica,sans-Serif" font-size="10.00">TNamed.h</text>
</g>
<!-- Node7&#45;&gt;Node8 -->
<g id="edge7" class="edge"><title>Node7&#45;&gt;Node8</title>
<path fill="none" stroke="midnightblue" d="M174,-136.679C174,-127.101 174,-114.394 174,-103.977"/>
<polygon fill="midnightblue" stroke="midnightblue" points="177.5,-103.828 174,-93.8283 170.5,-103.828 177.5,-103.828"/>
</g>
<!-- Node9 -->
<g id="node9" class="node"><title>Node9</title>
<polygon fill="none" stroke="#bfbfbf" points="223.5,-74.5 223.5,-93.5 272.5,-93.5 272.5,-74.5 223.5,-74.5"/>
<text text-anchor="middle" x="248" y="-81.5" font-family="Helvetica,sans-Serif" font-size="10.00">cassert</text>
</g>
<!-- Node7&#45;&gt;Node9 -->
<g id="edge8" class="edge"><title>Node7&#45;&gt;Node9</title>
<path fill="none" stroke="midnightblue" d="M190.057,-136.679C201.938,-126.082 218.115,-111.655 230.356,-100.736"/>
<polygon fill="midnightblue" stroke="midnightblue" points="232.968,-103.097 238.102,-93.8283 228.309,-97.8724 232.968,-103.097"/>
</g>
<!-- Node10 -->
<g id="node10" class="node"><title>Node10</title>
<polygon fill="none" stroke="#bfbfbf" points="290.5,-74.5 290.5,-93.5 349.5,-93.5 349.5,-74.5 290.5,-74.5"/>
<text text-anchor="middle" x="320" y="-81.5" font-family="Helvetica,sans-Serif" font-size="10.00">stdexcept</text>
</g>
<!-- Node7&#45;&gt;Node10 -->
<g id="edge9" class="edge"><title>Node7&#45;&gt;Node10</title>
<path fill="none" stroke="midnightblue" d="M205.321,-136.841C230.914,-125.272 266.786,-109.055 291.564,-97.8547"/>
<polygon fill="midnightblue" stroke="midnightblue" points="293.124,-100.99 300.795,-93.6819 290.241,-94.6119 293.124,-100.99"/>
</g>
<!-- Node11 -->
<g id="node11" class="node"><title>Node11</title>
<polygon fill="none" stroke="#bfbfbf" points="-0.5,-74.5 -0.5,-93.5 44.5,-93.5 44.5,-74.5 -0.5,-74.5"/>
<text text-anchor="middle" x="22" y="-81.5" font-family="Helvetica,sans-Serif" font-size="10.00">gsl/gsl</text>
</g>
<!-- Node7&#45;&gt;Node11 -->
<g id="edge10" class="edge"><title>Node7&#45;&gt;Node11</title>
<path fill="none" stroke="midnightblue" d="M139.977,-136.929C115.875,-126.866 82.8325,-112.879 54,-100 52.4209,-99.2946 50.8016,-98.5627 49.1701,-97.8187"/>
<polygon fill="midnightblue" stroke="midnightblue" points="50.4326,-94.5465 39.8871,-93.525 47.4939,-100.9 50.4326,-94.5465"/>
</g>
<!-- Node12 -->
<g id="node12" class="node"><title>Node12</title>
<polygon fill="none" stroke="#bfbfbf" points="63,-74.5 63,-93.5 125,-93.5 125,-74.5 63,-74.5"/>
<text text-anchor="middle" x="94" y="-81.5" font-family="Helvetica,sans-Serif" font-size="10.00">type_traits</text>
</g>
<!-- Node7&#45;&gt;Node12 -->
<g id="edge11" class="edge"><title>Node7&#45;&gt;Node12</title>
<path fill="none" stroke="midnightblue" d="M156.641,-136.679C143.673,-125.981 125.972,-111.377 112.694,-100.422"/>
<polygon fill="midnightblue" stroke="midnightblue" points="114.642,-97.4923 104.701,-93.8283 110.187,-102.892 114.642,-97.4923"/>
</g>
<!-- Node14 -->
<g id="node14" class="node"><title>Node14</title>
<polygon fill="none" stroke="#bfbfbf" points="424,-74.5 424,-93.5 480,-93.5 480,-74.5 424,-74.5"/>
<text text-anchor="middle" x="452" y="-81.5" font-family="Helvetica,sans-Serif" font-size="10.00">Rtypes.h</text>
</g>
<!-- Node13&#45;&gt;Node14 -->
<g id="edge13" class="edge"><title>Node13&#45;&gt;Node14</title>
<path fill="none" stroke="midnightblue" d="M607.524,-136.841C571.791,-124.93 521.282,-108.094 487.629,-96.8762"/>
<polygon fill="midnightblue" stroke="midnightblue" points="488.354,-93.4288 477.76,-93.5868 486.14,-100.07 488.354,-93.4288"/>
</g>
<!-- Node16 -->
<g id="node16" class="node"><title>Node16</title>
<g id="a_node16"><a xlink:href="../../df/d5d/common_2include_2CommonDataFormat_2TimeStamp_8h.html" target="_top" xlink:title="CommonDataFormat/TimeStamp.h">
<polygon fill="none" stroke="black" points="249,-142.5 249,-161.5 419,-161.5 419,-142.5 249,-142.5"/>
<text text-anchor="middle" x="334" y="-149.5" font-family="Helvetica,sans-Serif" font-size="10.00">CommonDataFormat/TimeStamp.h</text>
</a>
</g>
</g>
<!-- Node15&#45;&gt;Node16 -->
<g id="edge15" class="edge"><title>Node15&#45;&gt;Node16</title>
<path fill="none" stroke="midnightblue" d="M314.876,-210.372C318.152,-200.544 323.599,-184.202 327.844,-171.467"/>
<polygon fill="midnightblue" stroke="midnightblue" points="331.211,-172.435 331.053,-161.841 324.57,-170.221 331.211,-172.435"/>
</g>
<!-- Node17 -->
<g id="node17" class="node"><title>Node17</title>
<polygon fill="none" stroke="#bfbfbf" points="39.5,-142.5 39.5,-161.5 98.5,-161.5 98.5,-142.5 39.5,-142.5"/>
<text text-anchor="middle" x="69" y="-149.5" font-family="Helvetica,sans-Serif" font-size="10.00">TObject.h</text>
</g>
<!-- Node15&#45;&gt;Node17 -->
<g id="edge17" class="edge"><title>Node15&#45;&gt;Node17</title>
<path fill="none" stroke="midnightblue" d="M281.208,-210.432C273.328,-208.286 264.86,-206.021 257,-204 191.018,-187.035 173.042,-188.271 108,-168 105.208,-167.13 102.328,-166.162 99.4576,-165.148"/>
<polygon fill="midnightblue" stroke="midnightblue" points="100.467,-161.79 89.8735,-161.603 98.0382,-168.355 100.467,-161.79"/>
</g>
<!-- Node16&#45;&gt;Node14 -->
<g id="edge16" class="edge"><title>Node16&#45;&gt;Node14</title>
<path fill="none" stroke="midnightblue" d="M349.426,-142.372C369.303,-131.254 404.085,-111.8 427.573,-98.6624"/>
<polygon fill="midnightblue" stroke="midnightblue" points="429.551,-101.567 436.57,-93.6305 426.134,-95.4574 429.551,-101.567"/>
</g>
<!-- Node18&#45;&gt;Node14 -->
<g id="edge19" class="edge"><title>Node18&#45;&gt;Node14</title>
<path fill="none" stroke="midnightblue" d="M447.535,-204.66C448.443,-180.32 450.286,-130.933 451.297,-103.837"/>
<polygon fill="midnightblue" stroke="midnightblue" points="454.799,-103.851 451.674,-93.7275 447.804,-103.59 454.799,-103.851"/>
</g>
<!-- Node21 -->
<g id="node21" class="node"><title>Node21</title>
<g id="a_node21"><a xlink:href="../../dc/d14/ROC_8h.html" target="_top" xlink:title="TPCBase/ROC.h">
<polygon fill="none" stroke="black" points="965.5,-328.5 965.5,-347.5 1058.5,-347.5 1058.5,-328.5 965.5,-328.5"/>
<text text-anchor="middle" x="1012" y="-335.5" font-family="Helvetica,sans-Serif" font-size="10.00">TPCBase/ROC.h</text>
</a>
</g>
</g>
<!-- Node20&#45;&gt;Node21 -->
<g id="edge22" class="edge"><title>Node20&#45;&gt;Node21</title>
<path fill="none" stroke="midnightblue" d="M989.036,-552.84C928.196,-523.089 803.214,-451.27 854,-384 866.436,-367.527 915.314,-355.297 955.452,-347.777"/>
<polygon fill="midnightblue" stroke="midnightblue" points="956.225,-351.194 965.441,-345.967 954.977,-344.307 956.225,-351.194"/>
</g>
<!-- Node37 -->
<g id="node37" class="node"><title>Node37</title>
<g id="a_node37"><a xlink:href="../../d7/d2c/Mapper_8h.html" target="_top" xlink:title="TPCBase/Mapper.h">
<polygon fill="none" stroke="black" points="979.5,-496.5 979.5,-515.5 1082.5,-515.5 1082.5,-496.5 979.5,-496.5"/>
<text text-anchor="middle" x="1031" y="-503.5" font-family="Helvetica,sans-Serif" font-size="10.00">TPCBase/Mapper.h</text>
</a>
</g>
</g>
<!-- Node20&#45;&gt;Node37 -->
<g id="edge41" class="edge"><title>Node20&#45;&gt;Node37</title>
<path fill="none" stroke="midnightblue" d="M1022.61,-552.781C1024.09,-544.691 1025.97,-534.462 1027.57,-525.725"/>
<polygon fill="midnightblue" stroke="midnightblue" points="1031.04,-526.198 1029.4,-515.731 1024.15,-524.935 1031.04,-526.198"/>
</g>
<!-- Node20&#45;&gt;Node49 -->
<g id="edge72" class="edge"><title>Node20&#45;&gt;Node49</title>
<path fill="none" stroke="midnightblue" d="M1043.91,-552.933C1060.35,-543.262 1082.09,-530.479 1098.45,-520.855"/>
<polygon fill="midnightblue" stroke="midnightblue" points="1100.54,-523.687 1107.38,-515.6 1096.99,-517.654 1100.54,-523.687"/>
</g>
<!-- Node22 -->
<g id="node22" class="node"><title>Node22</title>
<g id="a_node22"><a xlink:href="../../d1/d73/Defs_8h.html" target="_top" xlink:title="Common definitions for 2D coordinates. ">
<polygon fill="none" stroke="black" points="1024,-210.5 1024,-229.5 1150,-229.5 1150,-210.5 1024,-210.5"/>
<text text-anchor="middle" x="1087" y="-217.5" font-family="Helvetica,sans-Serif" font-size="10.00">DataFormatsTPC/Defs.h</text>
</a>
</g>
</g>
<!-- Node21&#45;&gt;Node22 -->
<g id="edge23" class="edge"><title>Node21&#45;&gt;Node22</title>
<path fill="none" stroke="midnightblue" d="M1017.64,-328.281C1030.02,-309.126 1059.79,-263.083 1076.01,-237.994"/>
<polygon fill="midnightblue" stroke="midnightblue" points="1079.01,-239.803 1081.5,-229.505 1073.13,-236.002 1079.01,-239.803"/>
</g>
<!-- Node35 -->
<g id="node35" class="node"><title>Node35</title>
<g id="a_node35"><a xlink:href="../../d3/dd6/Sector_8h.html" target="_top" xlink:title="TPCBase/Sector.h">
<polygon fill="none" stroke="black" points="884.5,-272.5 884.5,-291.5 983.5,-291.5 983.5,-272.5 884.5,-272.5"/>
<text text-anchor="middle" x="934" y="-279.5" font-family="Helvetica,sans-Serif" font-size="10.00">TPCBase/Sector.h</text>
</a>
</g>
</g>
<!-- Node21&#45;&gt;Node35 -->
<g id="edge38" class="edge"><title>Node21&#45;&gt;Node35</title>
<path fill="none" stroke="midnightblue" d="M999.468,-328.324C987.414,-319.979 968.973,-307.212 954.731,-297.352"/>
<polygon fill="midnightblue" stroke="midnightblue" points="956.715,-294.469 946.501,-291.655 952.731,-300.224 956.715,-294.469"/>
</g>
<!-- Node23 -->
<g id="node23" class="node"><title>Node23</title>
<polygon fill="none" stroke="#bfbfbf" points="1335,-142.5 1335,-161.5 1379,-161.5 1379,-142.5 1335,-142.5"/>
<text text-anchor="middle" x="1357" y="-149.5" font-family="Helvetica,sans-Serif" font-size="10.00">cmath</text>
</g>
<!-- Node22&#45;&gt;Node23 -->
<g id="edge24" class="edge"><title>Node22&#45;&gt;Node23</title>
<path fill="none" stroke="midnightblue" d="M1122.02,-210.439C1174.88,-197.518 1274.27,-173.222 1325.18,-160.778"/>
<polygon fill="midnightblue" stroke="midnightblue" points="1326.1,-164.157 1334.98,-158.382 1324.44,-157.357 1326.1,-164.157"/>
</g>
<!-- Node24 -->
<g id="node24" class="node"><title>Node24</title>
<g id="a_node24"><a xlink:href="../../d2/dd0/Cartesian2D_8h.html" target="_top" xlink:title="MathUtils/Cartesian2D.h">
<polygon fill="none" stroke="black" points="530.5,-74.5 530.5,-93.5 655.5,-93.5 655.5,-74.5 530.5,-74.5"/>
<text text-anchor="middle" x="593" y="-81.5" font-family="Helvetica,sans-Serif" font-size="10.00">MathUtils/Cartesian2D.h</text>
</a>
</g>
</g>
<!-- Node22&#45;&gt;Node24 -->
<g id="edge25" class="edge"><title>Node22&#45;&gt;Node24</title>
<path fill="none" stroke="midnightblue" d="M1055.35,-210.414C969.17,-187.038 730.385,-122.266 634.067,-96.1397"/>
<polygon fill="midnightblue" stroke="midnightblue" points="634.957,-92.7547 624.39,-93.5146 633.125,-99.5106 634.957,-92.7547"/>
</g>
<!-- Node27 -->
<g id="node27" class="node"><title>Node27</title>
<g id="a_node27"><a xlink:href="../../dd/d76/Cartesian3D_8h.html" target="_top" xlink:title="MathUtils/Cartesian3D.h">
<polygon fill="none" stroke="black" points="1007.5,-142.5 1007.5,-161.5 1132.5,-161.5 1132.5,-142.5 1007.5,-142.5"/>
<text text-anchor="middle" x="1070" y="-149.5" font-family="Helvetica,sans-Serif" font-size="10.00">MathUtils/Cartesian3D.h</text>
</a>
</g>
</g>
<!-- Node22&#45;&gt;Node27 -->
<g id="edge28" class="edge"><title>Node22&#45;&gt;Node27</title>
<path fill="none" stroke="midnightblue" d="M1084.78,-210.372C1082.27,-200.643 1078.12,-184.528 1074.86,-171.85"/>
<polygon fill="midnightblue" stroke="midnightblue" points="1078.16,-170.652 1072.28,-161.841 1071.38,-172.398 1078.16,-170.652"/>
</g>
<!-- Node25 -->
<g id="node25" class="node"><title>Node25</title>
<polygon fill="none" stroke="#bfbfbf" points="426.5,-1 426.5,-31 577.5,-31 577.5,-1 426.5,-1"/>
<text text-anchor="start" x="434.5" y="-19" font-family="Helvetica,sans-Serif" font-size="10.00">Math/GenVector/Displacement</text>
<text text-anchor="middle" x="502" y="-8" font-family="Helvetica,sans-Serif" font-size="10.00">Vector2D.h</text>
</g>
<!-- Node24&#45;&gt;Node25 -->
<g id="edge26" class="edge"><title>Node24&#45;&gt;Node25</title>
<path fill="none" stroke="midnightblue" d="M581.103,-74.3717C568.221,-65.0286 547.22,-49.7966 530.093,-37.375"/>
<polygon fill="midnightblue" stroke="midnightblue" points="531.703,-34.2194 521.553,-31.1815 527.593,-39.8859 531.703,-34.2194"/>
</g>
<!-- Node26 -->
<g id="node26" class="node"><title>Node26</title>
<polygon fill="none" stroke="#bfbfbf" points="596,-6.5 596,-25.5 772,-25.5 772,-6.5 596,-6.5"/>
<text text-anchor="middle" x="684" y="-13.5" font-family="Helvetica,sans-Serif" font-size="10.00">Math/GenVector/PositionVector2D.h</text>
</g>
<!-- Node24&#45;&gt;Node26 -->
<g id="edge27" class="edge"><title>Node24&#45;&gt;Node26</title>
<path fill="none" stroke="midnightblue" d="M604.897,-74.3717C619.884,-63.5015 645.862,-44.6602 663.942,-31.5474"/>
<polygon fill="midnightblue" stroke="midnightblue" points="666.06,-34.3349 672.1,-25.6305 661.95,-28.6684 666.06,-34.3349"/>
</g>
<!-- Node27&#45;&gt;Node14 -->
<g id="edge34" class="edge"><title>Node27&#45;&gt;Node14</title>
<path fill="none" stroke="midnightblue" d="M1007.12,-147.649C904.781,-141.638 696.009,-127.049 521,-100 510.929,-98.4435 500.124,-96.3163 490.122,-94.1531"/>
<polygon fill="midnightblue" stroke="midnightblue" points="490.577,-90.6687 480.055,-91.9082 489.054,-97.5009 490.577,-90.6687"/>
</g>
<!-- Node27&#45;&gt;Node24 -->
<g id="edge37" class="edge"><title>Node27&#45;&gt;Node24</title>
<path fill="none" stroke="midnightblue" d="M1007.33,-144.683C927.548,-136.281 785.58,-120.119 665,-100 657.207,-98.6998 648.975,-97.1518 640.972,-95.5518"/>
<polygon fill="midnightblue" stroke="midnightblue" points="641.505,-92.0884 631.007,-93.512 640.102,-98.9463 641.505,-92.0884"/>
</g>
<!-- Node28 -->
<g id="node28" class="node"><title>Node28</title>
<polygon fill="none" stroke="#bfbfbf" points="1120.5,-69 1120.5,-99 1271.5,-99 1271.5,-69 1120.5,-69"/>
<text text-anchor="start" x="1128.5" y="-87" font-family="Helvetica,sans-Serif" font-size="10.00">Math/GenVector/Displacement</text>
<text text-anchor="middle" x="1196" y="-76" font-family="Helvetica,sans-Serif" font-size="10.00">Vector3D.h</text>
</g>
<!-- Node27&#45;&gt;Node28 -->
<g id="edge29" class="edge"><title>Node27&#45;&gt;Node28</title>
<path fill="none" stroke="midnightblue" d="M1086.47,-142.372C1105.05,-132.643 1135.81,-116.529 1160.01,-103.851"/>
<polygon fill="midnightblue" stroke="midnightblue" points="1161.69,-106.922 1168.93,-99.1815 1158.44,-100.721 1161.69,-106.922"/>
</g>
<!-- Node29 -->
<g id="node29" class="node"><title>Node29</title>
<polygon fill="none" stroke="#bfbfbf" points="1290,-74.5 1290,-93.5 1466,-93.5 1466,-74.5 1290,-74.5"/>
<text text-anchor="middle" x="1378" y="-81.5" font-family="Helvetica,sans-Serif" font-size="10.00">Math/GenVector/PositionVector3D.h</text>
</g>
<!-- Node27&#45;&gt;Node29 -->
<g id="edge30" class="edge"><title>Node27&#45;&gt;Node29</title>
<path fill="none" stroke="midnightblue" d="M1109.95,-142.439C1165.8,-130.471 1267.19,-108.744 1327.99,-95.7158"/>
<polygon fill="midnightblue" stroke="midnightblue" points="1329.08,-99.0632 1338.12,-93.5455 1327.61,-92.2186 1329.08,-99.0632"/>
</g>
<!-- Node30 -->
<g id="node30" class="node"><title>Node30</title>
<polygon fill="none" stroke="#bfbfbf" points="1483.5,-74.5 1483.5,-93.5 1632.5,-93.5 1632.5,-74.5 1483.5,-74.5"/>
<text text-anchor="middle" x="1558" y="-81.5" font-family="Helvetica,sans-Serif" font-size="10.00">Math/GenVector/Rotation3D.h</text>
</g>
<!-- Node27&#45;&gt;Node30 -->
<g id="edge31" class="edge"><title>Node27&#45;&gt;Node30</title>
<path fill="none" stroke="midnightblue" d="M1132.77,-144.083C1212.33,-135.086 1353.62,-118.335 1474,-100 1483.35,-98.5763 1493.26,-96.9301 1502.86,-95.2608"/>
<polygon fill="midnightblue" stroke="midnightblue" points="1503.49,-98.7042 1512.73,-93.5212 1502.28,-91.8105 1503.49,-98.7042"/>
</g>
<!-- Node31 -->
<g id="node31" class="node"><title>Node31</title>
<polygon fill="none" stroke="#bfbfbf" points="674,-74.5 674,-93.5 830,-93.5 830,-74.5 674,-74.5"/>
<text text-anchor="middle" x="752" y="-81.5" font-family="Helvetica,sans-Serif" font-size="10.00">Math/GenVector/Transform3D.h</text>
</g>
<!-- Node27&#45;&gt;Node31 -->
<g id="edge32" class="edge"><title>Node27&#45;&gt;Node31</title>
<path fill="none" stroke="midnightblue" d="M1028.75,-142.439C970.967,-130.446 865.971,-108.654 803.242,-95.6351"/>
<polygon fill="midnightblue" stroke="midnightblue" points="803.676,-92.1508 793.174,-93.5455 802.254,-99.0047 803.676,-92.1508"/>
</g>
<!-- Node32 -->
<g id="node32" class="node"><title>Node32</title>
<polygon fill="none" stroke="#bfbfbf" points="848,-74.5 848,-93.5 1008,-93.5 1008,-74.5 848,-74.5"/>
<text text-anchor="middle" x="928" y="-81.5" font-family="Helvetica,sans-Serif" font-size="10.00">Math/GenVector/Translation3D.h</text>
</g>
<!-- Node27&#45;&gt;Node32 -->
<g id="edge33" class="edge"><title>Node27&#45;&gt;Node32</title>
<path fill="none" stroke="midnightblue" d="M1051.44,-142.372C1027.09,-131.057 984.166,-111.105 955.901,-97.9678"/>
<polygon fill="midnightblue" stroke="midnightblue" points="957.112,-94.6715 946.569,-93.6305 954.162,-101.019 957.112,-94.6715"/>
</g>
<!-- Node33 -->
<g id="node33" class="node"><title>Node33</title>
<polygon fill="none" stroke="#bfbfbf" points="1026,-74.5 1026,-93.5 1102,-93.5 1102,-74.5 1026,-74.5"/>
<text text-anchor="middle" x="1064" y="-81.5" font-family="Helvetica,sans-Serif" font-size="10.00">TGeoMatrix.h</text>
</g>
<!-- Node27&#45;&gt;Node33 -->
<g id="edge35" class="edge"><title>Node27&#45;&gt;Node33</title>
<path fill="none" stroke="midnightblue" d="M1069.22,-142.372C1068.33,-132.643 1066.87,-116.528 1065.71,-103.85"/>
<polygon fill="midnightblue" stroke="midnightblue" points="1069.19,-103.483 1064.8,-93.8411 1062.22,-104.117 1069.19,-103.483"/>
</g>
<!-- Node34 -->
<g id="node34" class="node"><title>Node34</title>
<polygon fill="none" stroke="#bfbfbf" points="1650,-74.5 1650,-93.5 1704,-93.5 1704,-74.5 1650,-74.5"/>
<text text-anchor="middle" x="1677" y="-81.5" font-family="Helvetica,sans-Serif" font-size="10.00">iostream</text>
</g>
<!-- Node27&#45;&gt;Node34 -->
<g id="edge36" class="edge"><title>Node27&#45;&gt;Node34</title>
<path fill="none" stroke="midnightblue" d="M1132.81,-147.812C1260.45,-140.938 1546.06,-123.428 1641,-100 1643.99,-99.2614 1647.06,-98.311 1650.08,-97.2476"/>
<polygon fill="midnightblue" stroke="midnightblue" points="1651.39,-100.495 1659.42,-93.5861 1648.83,-93.9775 1651.39,-100.495"/>
</g>
<!-- Node35&#45;&gt;Node22 -->
<g id="edge40" class="edge"><title>Node35&#45;&gt;Node22</title>
<path fill="none" stroke="midnightblue" d="M955.921,-272.403C982.052,-262.156 1025.91,-244.956 1055.63,-233.302"/>
<polygon fill="midnightblue" stroke="midnightblue" points="1057.09,-236.49 1065.12,-229.581 1054.53,-229.973 1057.09,-236.49"/>
</g>
<!-- Node36 -->
<g id="node36" class="node"><title>Node36</title>
<g id="a_node36"><a xlink:href="../../d0/dda/DataFormats_2Detectors_2TPC_2include_2DataFormatsTPC_2Constants_8h.html" target="_top" xlink:title="DataFormatsTPC/Constants.h">
<polygon fill="none" stroke="black" points="856,-210.5 856,-229.5 1006,-229.5 1006,-210.5 856,-210.5"/>
<text text-anchor="middle" x="931" y="-217.5" font-family="Helvetica,sans-Serif" font-size="10.00">DataFormatsTPC/Constants.h</text>
</a>
</g>
</g>
<!-- Node35&#45;&gt;Node36 -->
<g id="edge39" class="edge"><title>Node35&#45;&gt;Node36</title>
<path fill="none" stroke="midnightblue" d="M933.57,-272.403C933.147,-263.938 932.486,-250.728 931.941,-239.82"/>
<polygon fill="midnightblue" stroke="midnightblue" points="935.424,-239.393 931.429,-229.581 928.433,-239.743 935.424,-239.393"/>
</g>
<!-- Node37&#45;&gt;Node5 -->
<g id="edge42" class="edge"><title>Node37&#45;&gt;Node5</title>
<path fill="none" stroke="midnightblue" d="M979.39,-498.929C885.42,-486.427 696,-453.919 696,-395 696,-395 696,-395 696,-281 696,-239.179 718.382,-194.123 732.255,-170.212"/>
<polygon fill="midnightblue" stroke="midnightblue" points="735.28,-171.973 737.424,-161.597 729.278,-168.371 735.28,-171.973"/>
</g>
<!-- Node37&#45;&gt;Node22 -->
<g id="edge47" class="edge"><title>Node37&#45;&gt;Node22</title>
<path fill="none" stroke="midnightblue" d="M979.459,-499.771C929.777,-493.541 859.733,-481.211 843,-460 839.89,-456.058 836.783,-433.795 844,-384 851.409,-332.885 837.864,-307.896 875,-272 880.914,-266.283 976.537,-244.817 1037.32,-231.625"/>
<polygon fill="midnightblue" stroke="midnightblue" points="1038.09,-235.039 1047.12,-229.502 1036.61,-228.197 1038.09,-235.039"/>
</g>
<!-- Node37&#45;&gt;Node23 -->
<g id="edge46" class="edge"><title>Node37&#45;&gt;Node23</title>
<path fill="none" stroke="midnightblue" d="M1082.68,-497.044C1085.49,-496.675 1088.28,-496.324 1091,-496 1181.16,-485.261 1421.31,-508.614 1498,-460 1526.26,-442.083 1536,-428.463 1536,-395 1536,-395 1536,-395 1536,-281 1536,-209.695 1440.85,-174.325 1389.3,-160.394"/>
<polygon fill="midnightblue" stroke="midnightblue" points="1389.87,-156.926 1379.31,-157.815 1388.12,-163.703 1389.87,-156.926"/>
</g>
<!-- Node37&#45;&gt;Node35 -->
<g id="edge71" class="edge"><title>Node37&#45;&gt;Node35</title>
<path fill="none" stroke="midnightblue" d="M979.453,-498.112C934.629,-490.991 874.496,-478.324 859,-460 837.142,-434.153 842.873,-415.97 854,-384 866.224,-348.878 896.311,-316.778 915.904,-298.587"/>
<polygon fill="midnightblue" stroke="midnightblue" points="918.489,-300.968 923.575,-291.674 913.803,-295.768 918.489,-300.968"/>
</g>
<!-- Node38 -->
<g id="node38" class="node"><title>Node38</title>
<polygon fill="none" stroke="#bfbfbf" points="1337,-384.5 1337,-403.5 1381,-403.5 1381,-384.5 1337,-384.5"/>
<text text-anchor="middle" x="1359" y="-391.5" font-family="Helvetica,sans-Serif" font-size="10.00">vector</text>
</g>
<!-- Node37&#45;&gt;Node38 -->
<g id="edge43" class="edge"><title>Node37&#45;&gt;Node38</title>
<path fill="none" stroke="midnightblue" d="M1033.44,-496.118C1037.9,-481.725 1048.81,-453.553 1069,-440 1163.66,-376.444 1211.1,-425.856 1323,-404 1324.28,-403.75 1325.58,-403.483 1326.9,-403.204"/>
<polygon fill="midnightblue" stroke="midnightblue" points="1328.03,-406.534 1337,-400.887 1326.47,-399.712 1328.03,-406.534"/>
</g>
<!-- Node39 -->
<g id="node39" class="node"><title>Node39</title>
<polygon fill="none" stroke="#bfbfbf" points="1078,-440.5 1078,-459.5 1116,-459.5 1116,-440.5 1078,-440.5"/>
<text text-anchor="middle" x="1097" y="-447.5" font-family="Helvetica,sans-Serif" font-size="10.00">array</text>
</g>
<!-- Node37&#45;&gt;Node39 -->
<g id="edge44" class="edge"><title>Node37&#45;&gt;Node39</title>
<path fill="none" stroke="midnightblue" d="M1041.6,-496.324C1051.46,-488.263 1066.35,-476.077 1078.22,-466.369"/>
<polygon fill="midnightblue" stroke="midnightblue" points="1080.68,-468.875 1086.2,-459.834 1076.25,-463.457 1080.68,-468.875"/>
</g>
<!-- Node40 -->
<g id="node40" class="node"><title>Node40</title>
<polygon fill="none" stroke="#bfbfbf" points="1134.5,-440.5 1134.5,-459.5 1175.5,-459.5 1175.5,-440.5 1134.5,-440.5"/>
<text text-anchor="middle" x="1155" y="-447.5" font-family="Helvetica,sans-Serif" font-size="10.00">string</text>
</g>
<!-- Node37&#45;&gt;Node40 -->
<g id="edge45" class="edge"><title>Node37&#45;&gt;Node40</title>
<path fill="none" stroke="midnightblue" d="M1050.65,-496.444C1070.96,-487.596 1102.9,-473.687 1126.1,-463.586"/>
<polygon fill="midnightblue" stroke="midnightblue" points="1127.67,-466.718 1135.44,-459.516 1124.88,-460.3 1127.67,-466.718"/>
</g>
<!-- Node41 -->
<g id="node41" class="node"><title>Node41</title>
<g id="a_node41"><a xlink:href="../../de/d41/PadPos_8h.html" target="_top" xlink:title="TPCBase/PadPos.h">
<polygon fill="none" stroke="black" points="1256.5,-328.5 1256.5,-347.5 1361.5,-347.5 1361.5,-328.5 1256.5,-328.5"/>
<text text-anchor="middle" x="1309" y="-335.5" font-family="Helvetica,sans-Serif" font-size="10.00">TPCBase/PadPos.h</text>
</a>
</g>
</g>
<!-- Node37&#45;&gt;Node41 -->
<g id="edge48" class="edge"><title>Node37&#45;&gt;Node41</title>
<path fill="none" stroke="midnightblue" d="M1082.69,-497.059C1085.5,-496.686 1088.28,-496.33 1091,-496 1133.87,-490.795 1448.91,-491.92 1478,-460 1522.87,-410.758 1415.13,-369.608 1351.55,-350.49"/>
<polygon fill="midnightblue" stroke="midnightblue" points="1352.34,-347.073 1341.76,-347.613 1350.37,-353.789 1352.34,-347.073"/>
</g>
<!-- Node42 -->
<g id="node42" class="node"><title>Node42</title>
<g id="a_node42"><a xlink:href="../../dd/d0b/PadSecPos_8h.html" target="_top" xlink:title="TPCBase/PadSecPos.h">
<polygon fill="none" stroke="black" points="863,-384.5 863,-403.5 985,-403.5 985,-384.5 863,-384.5"/>
<text text-anchor="middle" x="924" y="-391.5" font-family="Helvetica,sans-Serif" font-size="10.00">TPCBase/PadSecPos.h</text>
</a>
</g>
</g>
<!-- Node37&#45;&gt;Node42 -->
<g id="edge49" class="edge"><title>Node37&#45;&gt;Node42</title>
<path fill="none" stroke="midnightblue" d="M979.369,-497.73C936.601,-490.526 880.696,-477.96 867,-460 852.825,-441.411 876.996,-421.382 898.102,-408.545"/>
<polygon fill="midnightblue" stroke="midnightblue" points="899.922,-411.535 906.838,-403.509 896.426,-405.471 899.922,-411.535"/>
</g>
<!-- Node43 -->
<g id="node43" class="node"><title>Node43</title>
<g id="a_node43"><a xlink:href="../../da/d61/PadROCPos_8h.html" target="_top" xlink:title="TPCBase/PadROCPos.h">
<polygon fill="none" stroke="black" points="1153,-384.5 1153,-403.5 1281,-403.5 1281,-384.5 1153,-384.5"/>
<text text-anchor="middle" x="1217" y="-391.5" font-family="Helvetica,sans-Serif" font-size="10.00">TPCBase/PadROCPos.h</text>
</a>
</g>
</g>
<!-- Node37&#45;&gt;Node43 -->
<g id="edge52" class="edge"><title>Node37&#45;&gt;Node43</title>
<path fill="none" stroke="midnightblue" d="M1028.77,-496.241C1025.85,-482.524 1022.55,-455.902 1036,-440 1050.06,-423.37 1099.32,-411.791 1142.91,-404.548"/>
<polygon fill="midnightblue" stroke="midnightblue" points="1143.65,-407.973 1152.97,-402.934 1142.54,-401.062 1143.65,-407.973"/>
</g>
<!-- Node44 -->
<g id="node44" class="node"><title>Node44</title>
<g id="a_node44"><a xlink:href="../../d3/d54/DigitPos_8h.html" target="_top" xlink:title="TPCBase/DigitPos.h">
<polygon fill="none" stroke="black" points="876,-440.5 876,-459.5 984,-459.5 984,-440.5 876,-440.5"/>
<text text-anchor="middle" x="930" y="-447.5" font-family="Helvetica,sans-Serif" font-size="10.00">TPCBase/DigitPos.h</text>
</a>
</g>
</g>
<!-- Node37&#45;&gt;Node44 -->
<g id="edge56" class="edge"><title>Node37&#45;&gt;Node44</title>
<path fill="none" stroke="midnightblue" d="M1014.77,-496.324C998.649,-487.703 973.7,-474.364 955.036,-464.386"/>
<polygon fill="midnightblue" stroke="midnightblue" points="956.656,-461.283 946.187,-459.655 953.356,-467.456 956.656,-461.283"/>
</g>
<!-- Node46 -->
<g id="node46" class="node"><title>Node46</title>
<g id="a_node46"><a xlink:href="../../d1/d1f/FECInfo_8h.html" target="_top" xlink:title="TPCBase/FECInfo.h">
<polygon fill="none" stroke="black" points="1577.5,-328.5 1577.5,-347.5 1684.5,-347.5 1684.5,-328.5 1577.5,-328.5"/>
<text text-anchor="middle" x="1631" y="-335.5" font-family="Helvetica,sans-Serif" font-size="10.00">TPCBase/FECInfo.h</text>
</a>
</g>
</g>
<!-- Node37&#45;&gt;Node46 -->
<g id="edge64" class="edge"><title>Node37&#45;&gt;Node46</title>
<path fill="none" stroke="midnightblue" d="M1082.68,-497.011C1085.49,-496.651 1088.28,-496.31 1091,-496 1192.65,-484.404 1461.7,-511.686 1550,-460 1589.87,-436.663 1614.09,-384.987 1624.69,-357.322"/>
<polygon fill="midnightblue" stroke="midnightblue" points="1628.06,-358.291 1628.2,-347.697 1621.49,-355.895 1628.06,-358.291"/>
</g>
<!-- Node47 -->
<g id="node47" class="node"><title>Node47</title>
<g id="a_node47"><a xlink:href="../../da/d9d/PadRegionInfo_8h.html" target="_top" xlink:title="TPCBase/PadRegionInfo.h">
<polygon fill="none" stroke="black" points="1334.5,-440.5 1334.5,-459.5 1469.5,-459.5 1469.5,-440.5 1334.5,-440.5"/>
<text text-anchor="middle" x="1402" y="-447.5" font-family="Helvetica,sans-Serif" font-size="10.00">TPCBase/PadRegionInfo.h</text>
</a>
</g>
</g>
<!-- Node37&#45;&gt;Node47 -->
<g id="edge66" class="edge"><title>Node37&#45;&gt;Node47</title>
<path fill="none" stroke="midnightblue" d="M1082.71,-497.226C1085.51,-496.81 1088.29,-496.399 1091,-496 1173.82,-483.796 1269.1,-470.053 1332.14,-461.002"/>
<polygon fill="midnightblue" stroke="midnightblue" points="1332.96,-464.42 1342.37,-459.535 1331.97,-457.491 1332.96,-464.42"/>
</g>
<!-- Node48 -->
<g id="node48" class="node"><title>Node48</title>
<g id="a_node48"><a xlink:href="../../d6/d42/PartitionInfo_8h.html" target="_top" xlink:title="TPCBase/PartitionInfo.h">
<polygon fill="none" stroke="black" points="1193.5,-440.5 1193.5,-459.5 1316.5,-459.5 1316.5,-440.5 1193.5,-440.5"/>
<text text-anchor="middle" x="1255" y="-447.5" font-family="Helvetica,sans-Serif" font-size="10.00">TPCBase/PartitionInfo.h</text>
</a>
</g>
</g>
<!-- Node37&#45;&gt;Node48 -->
<g id="edge70" class="edge"><title>Node37&#45;&gt;Node48</title>
<path fill="none" stroke="midnightblue" d="M1066.49,-496.444C1105.32,-487.083 1167.66,-472.056 1209.92,-461.868"/>
<polygon fill="midnightblue" stroke="midnightblue" points="1210.77,-465.263 1219.67,-459.516 1209.13,-458.458 1210.77,-465.263"/>
</g>
<!-- Node42&#45;&gt;Node35 -->
<g id="edge50" class="edge"><title>Node42&#45;&gt;Node35</title>
<path fill="none" stroke="midnightblue" d="M923.109,-384.129C922.02,-371.579 920.598,-347.945 923,-328 924.071,-319.107 926.292,-309.434 928.46,-301.344"/>
<polygon fill="midnightblue" stroke="midnightblue" points="931.887,-302.091 931.27,-291.514 925.156,-300.167 931.887,-302.091"/>
</g>
<!-- Node42&#45;&gt;Node41 -->
<g id="edge51" class="edge"><title>Node42&#45;&gt;Node41</title>
<path fill="none" stroke="midnightblue" d="M985.004,-384.444C1056.34,-374.438 1173.83,-357.958 1246.01,-347.834"/>
<polygon fill="midnightblue" stroke="midnightblue" points="1246.91,-351.244 1256.32,-346.388 1245.93,-344.311 1246.91,-351.244"/>
</g>
<!-- Node43&#45;&gt;Node21 -->
<g id="edge54" class="edge"><title>Node43&#45;&gt;Node21</title>
<path fill="none" stroke="midnightblue" d="M1184.52,-384.444C1149.28,-375.162 1092.9,-360.309 1054.24,-350.127"/>
<polygon fill="midnightblue" stroke="midnightblue" points="1054.89,-346.679 1044.33,-347.516 1053.11,-353.448 1054.89,-346.679"/>
</g>
<!-- Node43&#45;&gt;Node22 -->
<g id="edge53" class="edge"><title>Node43&#45;&gt;Node22</title>
<path fill="none" stroke="midnightblue" d="M1212.31,-384.344C1201.02,-363.847 1170.9,-311.135 1139,-272 1128.56,-259.19 1115.23,-246.168 1104.68,-236.489"/>
<polygon fill="midnightblue" stroke="midnightblue" points="1107.02,-233.888 1097.24,-229.798 1102.33,-239.09 1107.02,-233.888"/>
</g>
<!-- Node43&#45;&gt;Node41 -->
<g id="edge55" class="edge"><title>Node43&#45;&gt;Node41</title>
<path fill="none" stroke="midnightblue" d="M1231.78,-384.324C1246.27,-375.822 1268.57,-362.729 1285.49,-352.797"/>
<polygon fill="midnightblue" stroke="midnightblue" points="1287.4,-355.735 1294.26,-347.655 1283.86,-349.698 1287.4,-355.735"/>
</g>
<!-- Node44&#45;&gt;Node22 -->
<g id="edge57" class="edge"><title>Node44&#45;&gt;Node22</title>
<path fill="none" stroke="midnightblue" d="M984.157,-442.352C1029.88,-435.496 1090.2,-423.089 1105,-404 1143.1,-354.861 1112.81,-274.563 1096.13,-238.964"/>
<polygon fill="midnightblue" stroke="midnightblue" points="1099.2,-237.261 1091.67,-229.801 1092.9,-240.325 1099.2,-237.261"/>
</g>
<!-- Node44&#45;&gt;Node41 -->
<g id="edge62" class="edge"><title>Node44&#45;&gt;Node41</title>
<path fill="none" stroke="midnightblue" d="M984.092,-443.806C1081.75,-434.213 1278.49,-413.801 1290,-404 1303.27,-392.702 1307.54,-372.698 1308.79,-357.856"/>
<polygon fill="midnightblue" stroke="midnightblue" points="1312.29,-357.891 1309.25,-347.742 1305.3,-357.572 1312.29,-357.891"/>
</g>
<!-- Node44&#45;&gt;Node42 -->
<g id="edge63" class="edge"><title>Node44&#45;&gt;Node42</title>
<path fill="none" stroke="midnightblue" d="M929.009,-440.083C928.214,-432.927 927.071,-422.635 926.077,-413.691"/>
<polygon fill="midnightblue" stroke="midnightblue" points="929.555,-413.303 924.972,-403.751 922.598,-414.076 929.555,-413.303"/>
</g>
<!-- Node45 -->
<g id="node45" class="node"><title>Node45</title>
<g id="a_node45"><a xlink:href="../../df/d26/CRU_8h.html" target="_top" xlink:title="TPCBase/CRU.h">
<polygon fill="none" stroke="black" points="1003.5,-384.5 1003.5,-403.5 1096.5,-403.5 1096.5,-384.5 1003.5,-384.5"/>
<text text-anchor="middle" x="1050" y="-391.5" font-family="Helvetica,sans-Serif" font-size="10.00">TPCBase/CRU.h</text>
</a>
</g>
</g>
<!-- Node44&#45;&gt;Node45 -->
<g id="edge58" class="edge"><title>Node44&#45;&gt;Node45</title>
<path fill="none" stroke="midnightblue" d="M949.014,-440.444C968.588,-431.636 999.308,-417.812 1021.73,-407.722"/>
<polygon fill="midnightblue" stroke="midnightblue" points="1023.39,-410.812 1031.07,-403.516 1020.52,-404.428 1023.39,-410.812"/>
</g>
<!-- Node45&#45;&gt;Node21 -->
<g id="edge61" class="edge"><title>Node45&#45;&gt;Node21</title>
<path fill="none" stroke="midnightblue" d="M1043.73,-384.083C1038.36,-376.455 1030.48,-365.264 1023.92,-355.941"/>
<polygon fill="midnightblue" stroke="midnightblue" points="1026.78,-353.915 1018.16,-347.751 1021.05,-357.943 1026.78,-353.915"/>
</g>
<!-- Node45&#45;&gt;Node22 -->
<g id="edge59" class="edge"><title>Node45&#45;&gt;Node22</title>
<path fill="none" stroke="midnightblue" d="M1053.94,-384.211C1057.8,-375.266 1063.58,-360.918 1067,-348 1076.96,-310.372 1082.63,-265.078 1085.23,-240.021"/>
<polygon fill="midnightblue" stroke="midnightblue" points="1088.75,-240.045 1086.25,-229.75 1081.78,-239.359 1088.75,-240.045"/>
</g>
<!-- Node45&#45;&gt;Node35 -->
<g id="edge60" class="edge"><title>Node45&#45;&gt;Node35</title>
<path fill="none" stroke="midnightblue" d="M1017.26,-384.441C997.084,-377.621 972.084,-366.142 956,-348 944.525,-335.057 938.99,-315.888 936.348,-301.718"/>
<polygon fill="midnightblue" stroke="midnightblue" points="939.777,-300.989 934.791,-291.64 932.859,-302.057 939.777,-300.989"/>
</g>
<!-- Node46&#45;&gt;Node34 -->
<g id="edge65" class="edge"><title>Node46&#45;&gt;Node34</title>
<path fill="none" stroke="midnightblue" d="M1632.58,-328.326C1639.16,-292.279 1664.43,-153.859 1673.63,-103.476"/>
<polygon fill="midnightblue" stroke="midnightblue" points="1677.07,-104.104 1675.42,-93.6379 1670.18,-102.847 1677.07,-104.104"/>
</g>
<!-- Node47&#45;&gt;Node22 -->
<g id="edge68" class="edge"><title>Node47&#45;&gt;Node22</title>
<path fill="none" stroke="midnightblue" d="M1404.86,-440.371C1408.59,-427.713 1413.99,-403.499 1408,-384 1399.17,-355.248 1393.61,-346.632 1370,-328 1302.13,-274.448 1204.55,-245.527 1143.52,-231.701"/>
<polygon fill="midnightblue" stroke="midnightblue" points="1144.2,-228.267 1133.68,-229.531 1142.69,-235.102 1144.2,-228.267"/>
</g>
<!-- Node47&#45;&gt;Node38 -->
<g id="edge67" class="edge"><title>Node47&#45;&gt;Node38</title>
<path fill="none" stroke="midnightblue" d="M1394.9,-440.083C1388.76,-432.377 1379.73,-421.033 1372.26,-411.653"/>
<polygon fill="midnightblue" stroke="midnightblue" points="1374.94,-409.394 1365.97,-403.751 1369.46,-413.754 1374.94,-409.394"/>
</g>
<!-- Node47&#45;&gt;Node41 -->
<g id="edge69" class="edge"><title>Node47&#45;&gt;Node41</title>
<path fill="none" stroke="midnightblue" d="M1402.45,-440.095C1402.68,-426.652 1401.3,-400.95 1389,-384 1378.3,-369.262 1361.21,-358.715 1345.57,-351.554"/>
<polygon fill="midnightblue" stroke="midnightblue" points="1346.66,-348.214 1336.09,-347.525 1343.92,-354.657 1346.66,-348.214"/>
</g>
</g>
</svg>
