<?xml version="1.0" encoding="UTF-8" standalone="no"?>
<!DOCTYPE svg PUBLIC "-//W3C//DTD SVG 1.1//EN"
 "http://www.w3.org/Graphics/SVG/1.1/DTD/svg11.dtd">
<!-- Generated by graphviz version 2.36.0 (20140111.2315)
 -->
<!-- Title: /home/travis/build/AliceO2Group/AliceO2/Framework/Core/include/Framework/DataSamplingConfig.h Pages: 1 -->
<!--zoomable 422 -->
<svg id="main" version="1.1" xmlns="http://www.w3.org/2000/svg" xmlns:xlink="http://www.w3.org/1999/xlink" xml:space="preserve" onload="init(evt)">
<style type="text/css"><![CDATA[
.edge:hover path { stroke: red; }
.edge:hover polygon { stroke: red; fill: red; }
]]></style>
<script type="text/javascript"><![CDATA[
var edges = document.getElementsByTagName('g');
if (edges && edges.length) {
  for (var i=0;i<edges.length;i++) {
    if (edges[i].id.substr(0,4)=='edge') {
      edges[i].setAttribute('class','edge');
    }
  }
}
]]></script>
        <defs>
                <circle id="rim" cx="0" cy="0" r="7"/>
                <circle id="rim2" cx="0" cy="0" r="3.5"/>
                <g id="zoomPlus">
                        <use xlink:href="#rim" fill="#404040">
                                <set attributeName="fill" to="#808080" begin="zoomplus.mouseover" end="zoomplus.mouseout"/>
                        </use>
                        <path d="M-4,0h8M0,-4v8" fill="none" stroke="white" stroke-width="1.5" pointer-events="none"/>
                </g>
                <g id="zoomMin">
                        <use xlink:href="#rim" fill="#404040">
                                <set attributeName="fill" to="#808080" begin="zoomminus.mouseover" end="zoomminus.mouseout"/>
                        </use>
                        <path d="M-4,0h8" fill="none" stroke="white" stroke-width="1.5" pointer-events="none"/>
                </g>
                <g id="dirArrow">
                        <path fill="none" stroke="white" stroke-width="1.5" d="M0,-3.0v7 M-2.5,-0.5L0,-3.0L2.5,-0.5"/>
                </g>
               <g id="resetDef">
                       <use xlink:href="#rim2" fill="#404040">
                               <set attributeName="fill" to="#808080" begin="reset.mouseover" end="reset.mouseout"/>
                       </use>
               </g>
        </defs>

<script type="text/javascript">
var viewWidth = 1063;
var viewHeight = 422;
var sectionId = 'dynsection-1';
</script>
<script xlink:href="../../svgpan.js"/>
<svg id="graph" class="graph">
<g id="viewport">
<title>/home/travis/build/AliceO2Group/AliceO2/Framework/Core/include/Framework/DataSamplingConfig.h</title>
<!-- Node1 -->
<g id="node1" class="node"><title>Node1</title>
<polygon fill="#bfbfbf" stroke="black" points="509,-361 509,-413 679,-413 679,-361 509,-361"/>
<text text-anchor="start" x="517" y="-401" font-family="Helvetica,sans-Serif" font-size="10.00">/home/travis/build</text>
<text text-anchor="start" x="517" y="-390" font-family="Helvetica,sans-Serif" font-size="10.00">/AliceO2Group/AliceO2</text>
<text text-anchor="start" x="517" y="-379" font-family="Helvetica,sans-Serif" font-size="10.00">/Framework/Core/include</text>
<text text-anchor="middle" x="594" y="-368" font-family="Helvetica,sans-Serif" font-size="10.00">/Framework/DataSamplingConfig.h</text>
</g>
<!-- Node2 -->
<g id="node2" class="node"><title>Node2</title>
<g id="a_node2"><a xlink:href="../../d7/d78/DataSampling_8h.html" target="_top" xlink:title="Definition of O2 Data Sampling, v0.1. ">
<polygon fill="none" stroke="black" points="450.5,-91 450.5,-143 591.5,-143 591.5,-91 450.5,-91"/>
<text text-anchor="start" x="458.5" y="-131" font-family="Helvetica,sans-Serif" font-size="10.00">/home/travis/build</text>
<text text-anchor="start" x="458.5" y="-120" font-family="Helvetica,sans-Serif" font-size="10.00">/AliceO2Group/AliceO2</text>
<text text-anchor="start" x="458.5" y="-109" font-family="Helvetica,sans-Serif" font-size="10.00">/Framework/Core/include</text>
<text text-anchor="middle" x="521" y="-98" font-family="Helvetica,sans-Serif" font-size="10.00">/Framework/DataSampling.h</text>
</a>
</g>
</g>
<!-- Node1&#45;&gt;Node2 -->
<g id="edge1" class="edge"><title>Node1&#45;&gt;Node2</title>
<path fill="none" stroke="midnightblue" d="M544.553,-354.341C535.018,-345.736 526.344,-335.55 521,-324 493.292,-264.115 505.523,-183.55 514.516,-143.218"/>
<polygon fill="midnightblue" stroke="midnightblue" points="542.434,-357.133 552.337,-360.899 546.944,-351.779 542.434,-357.133"/>
</g>
<!-- Node9 -->
<g id="node9" class="node"><title>Node9</title>
<g id="a_node9"><a xlink:href="../../d7/d33/Dispatcher_8h.html" target="_top" xlink:title="Definition of Dispatcher for O2 Data Sampling. ">
<polygon fill="none" stroke="black" points="530.5,-271 530.5,-323 657.5,-323 657.5,-271 530.5,-271"/>
<text text-anchor="start" x="538.5" y="-311" font-family="Helvetica,sans-Serif" font-size="10.00">/home/travis/build</text>
<text text-anchor="start" x="538.5" y="-300" font-family="Helvetica,sans-Serif" font-size="10.00">/AliceO2Group/AliceO2</text>
<text text-anchor="start" x="538.5" y="-289" font-family="Helvetica,sans-Serif" font-size="10.00">/Framework/Core/include</text>
<text text-anchor="middle" x="594" y="-278" font-family="Helvetica,sans-Serif" font-size="10.00">/Framework/Dispatcher.h</text>
</a>
</g>
</g>
<!-- Node1&#45;&gt;Node9 -->
<g id="edge8" class="edge"><title>Node1&#45;&gt;Node9</title>
<path fill="none" stroke="midnightblue" d="M594,-350.489C594,-341.309 594,-331.616 594,-323.092"/>
<polygon fill="midnightblue" stroke="midnightblue" points="590.5,-350.547 594,-360.547 597.5,-350.547 590.5,-350.547"/>
</g>
<!-- Node10 -->
<g id="node10" class="node"><title>Node10</title>
<g id="a_node10"><a xlink:href="../../d4/d2c/DispatcherDPL_8h.html" target="_top" xlink:title="Definition of DispatcherDPL for O2 Data Sampling. ">
<polygon fill="none" stroke="black" points="328,-181 328,-233 474,-233 474,-181 328,-181"/>
<text text-anchor="start" x="336" y="-221" font-family="Helvetica,sans-Serif" font-size="10.00">/home/travis/build</text>
<text text-anchor="start" x="336" y="-210" font-family="Helvetica,sans-Serif" font-size="10.00">/AliceO2Group/AliceO2</text>
<text text-anchor="start" x="336" y="-199" font-family="Helvetica,sans-Serif" font-size="10.00">/Framework/Core/include</text>
<text text-anchor="middle" x="401" y="-188" font-family="Helvetica,sans-Serif" font-size="10.00">/Framework/DispatcherDPL.h</text>
</a>
</g>
</g>
<!-- Node1&#45;&gt;Node10 -->
<g id="edge19" class="edge"><title>Node1&#45;&gt;Node10</title>
<path fill="none" stroke="midnightblue" d="M532.855,-355.791C517.377,-346.695 501.367,-335.921 488,-324 457.94,-297.192 431.47,-258.581 415.846,-233.393"/>
<polygon fill="midnightblue" stroke="midnightblue" points="531.464,-359.027 541.883,-360.949 534.936,-352.949 531.464,-359.027"/>
</g>
<!-- Node12 -->
<g id="node12" class="node"><title>Node12</title>
<g id="a_node12"><a xlink:href="../../d4/dc8/DispatcherFairMQ_8h.html" target="_top" xlink:title="Definition of DispatcherFairMQ for O2 Data Sampling. ">
<polygon fill="none" stroke="black" points="567.5,-181 567.5,-233 726.5,-233 726.5,-181 567.5,-181"/>
<text text-anchor="start" x="575.5" y="-221" font-family="Helvetica,sans-Serif" font-size="10.00">/home/travis/build</text>
<text text-anchor="start" x="575.5" y="-210" font-family="Helvetica,sans-Serif" font-size="10.00">/AliceO2Group/AliceO2</text>
<text text-anchor="start" x="575.5" y="-199" font-family="Helvetica,sans-Serif" font-size="10.00">/Framework/Core/include</text>
<text text-anchor="middle" x="647" y="-188" font-family="Helvetica,sans-Serif" font-size="10.00">/Framework/DispatcherFairMQ.h</text>
</a>
</g>
</g>
<!-- Node1&#45;&gt;Node12 -->
<g id="edge20" class="edge"><title>Node1&#45;&gt;Node12</title>
<path fill="none" stroke="midnightblue" d="M642.782,-354.232C652.186,-345.633 660.737,-335.477 666,-324 679.44,-294.691 669.052,-257.374 659.13,-233.097"/>
<polygon fill="midnightblue" stroke="midnightblue" points="640.434,-351.634 635.104,-360.791 644.981,-356.957 640.434,-351.634"/>
</g>
<!-- Node14 -->
<g id="node14" class="node"><title>Node14</title>
<g id="a_node14"><a xlink:href="../../de/dba/DispatcherFlpProto_8h.html" target="_top" xlink:title="Definition of DispatcherFlpProto for O2 Data Sampling. ">
<polygon fill="none" stroke="black" points="745,-181 745,-233 909,-233 909,-181 745,-181"/>
<text text-anchor="start" x="753" y="-221" font-family="Helvetica,sans-Serif" font-size="10.00">/home/travis/build</text>
<text text-anchor="start" x="753" y="-210" font-family="Helvetica,sans-Serif" font-size="10.00">/AliceO2Group/AliceO2</text>
<text text-anchor="start" x="753" y="-199" font-family="Helvetica,sans-Serif" font-size="10.00">/Framework/Core/include</text>
<text text-anchor="middle" x="827" y="-188" font-family="Helvetica,sans-Serif" font-size="10.00">/Framework/DispatcherFlpProto.h</text>
</a>
</g>
</g>
<!-- Node1&#45;&gt;Node14 -->
<g id="edge21" class="edge"><title>Node1&#45;&gt;Node14</title>
<path fill="none" stroke="midnightblue" d="M640.696,-354.854C654.775,-345.191 670.161,-334.355 684,-324 724.185,-293.932 768.865,-257.115 797.412,-233.136"/>
<polygon fill="midnightblue" stroke="midnightblue" points="638.41,-352.177 632.124,-360.705 642.356,-357.959 638.41,-352.177"/>
</g>
<!-- Node3 -->
<g id="node3" class="node"><title>Node3</title>
<g id="a_node3"><a xlink:href="../../d0/dd6/DataSampling_8cxx.html" target="_top" xlink:title="Implementation of O2 Data Sampling, v0.1. ">
<polygon fill="none" stroke="black" points="0,-6.5 0,-47.5 192,-47.5 192,-6.5 0,-6.5"/>
<text text-anchor="start" x="8" y="-35.5" font-family="Helvetica,sans-Serif" font-size="10.00">/home/travis/build</text>
<text text-anchor="start" x="8" y="-24.5" font-family="Helvetica,sans-Serif" font-size="10.00">/AliceO2Group/AliceO2</text>
<text text-anchor="middle" x="96" y="-13.5" font-family="Helvetica,sans-Serif" font-size="10.00">/Framework/Core/src/DataSampling.cxx</text>
</a>
</g>
</g>
<!-- Node2&#45;&gt;Node3 -->
<g id="edge2" class="edge"><title>Node2&#45;&gt;Node3</title>
<path fill="none" stroke="midnightblue" d="M440.263,-89.9928C334.241,-65.7907 303.699,-74.3709 201,-54 191.329,-52.0817 181.209,-49.8568 171.23,-47.5316"/>
<polygon fill="midnightblue" stroke="midnightblue" points="439.54,-93.418 450.073,-92.2755 441.126,-86.6001 439.54,-93.418"/>
</g>
<!-- Node4 -->
<g id="node4" class="node"><title>Node4</title>
<g id="a_node4"><a xlink:href="../../d1/de8/test__DataSampling_8cxx.html" target="_top" xlink:title="/home/travis/build\l/AliceO2Group/AliceO2\l/Framework/Core/test/test\l_DataSampling.cxx">
<polygon fill="none" stroke="black" points="210.5,-1 210.5,-53 341.5,-53 341.5,-1 210.5,-1"/>
<text text-anchor="start" x="218.5" y="-41" font-family="Helvetica,sans-Serif" font-size="10.00">/home/travis/build</text>
<text text-anchor="start" x="218.5" y="-30" font-family="Helvetica,sans-Serif" font-size="10.00">/AliceO2Group/AliceO2</text>
<text text-anchor="start" x="218.5" y="-19" font-family="Helvetica,sans-Serif" font-size="10.00">/Framework/Core/test/test</text>
<text text-anchor="middle" x="276" y="-8" font-family="Helvetica,sans-Serif" font-size="10.00">_DataSampling.cxx</text>
</a>
</g>
</g>
<!-- Node2&#45;&gt;Node4 -->
<g id="edge3" class="edge"><title>Node2&#45;&gt;Node4</title>
<path fill="none" stroke="midnightblue" d="M441.702,-87.5176C409.41,-75.9186 372.523,-62.6696 341.763,-51.621"/>
<polygon fill="midnightblue" stroke="midnightblue" points="440.526,-90.814 451.121,-90.9005 442.893,-84.2261 440.526,-90.814"/>
</g>
<!-- Node5 -->
<g id="node5" class="node"><title>Node5</title>
<g id="a_node5"><a xlink:href="../../d2/dad/dataSamplingFullChain_8cxx.html" target="_top" xlink:title="/home/travis/build\l/AliceO2Group/AliceO2\l/Framework/TestWorkflows\l/src/dataSamplingFullChain.cxx">
<polygon fill="none" stroke="black" points="359.5,-1 359.5,-53 514.5,-53 514.5,-1 359.5,-1"/>
<text text-anchor="start" x="367.5" y="-41" font-family="Helvetica,sans-Serif" font-size="10.00">/home/travis/build</text>
<text text-anchor="start" x="367.5" y="-30" font-family="Helvetica,sans-Serif" font-size="10.00">/AliceO2Group/AliceO2</text>
<text text-anchor="start" x="367.5" y="-19" font-family="Helvetica,sans-Serif" font-size="10.00">/Framework/TestWorkflows</text>
<text text-anchor="middle" x="437" y="-8" font-family="Helvetica,sans-Serif" font-size="10.00">/src/dataSamplingFullChain.cxx</text>
</a>
</g>
</g>
<!-- Node2&#45;&gt;Node5 -->
<g id="edge4" class="edge"><title>Node2&#45;&gt;Node5</title>
<path fill="none" stroke="midnightblue" d="M489.632,-83.1386C480.141,-73.1958 469.875,-62.4408 460.952,-53.0921"/>
<polygon fill="midnightblue" stroke="midnightblue" points="487.267,-85.7298 496.704,-90.5468 492.331,-80.8965 487.267,-85.7298"/>
</g>
<!-- Node6 -->
<g id="node6" class="node"><title>Node6</title>
<g id="a_node6"><a xlink:href="../../d3/dbe/dataSamplingParallel_8cxx.html" target="_top" xlink:title="/home/travis/build\l/AliceO2Group/AliceO2\l/Framework/TestWorkflows\l/src/dataSamplingParallel.cxx">
<polygon fill="none" stroke="black" points="533,-1 533,-53 679,-53 679,-1 533,-1"/>
<text text-anchor="start" x="541" y="-41" font-family="Helvetica,sans-Serif" font-size="10.00">/home/travis/build</text>
<text text-anchor="start" x="541" y="-30" font-family="Helvetica,sans-Serif" font-size="10.00">/AliceO2Group/AliceO2</text>
<text text-anchor="start" x="541" y="-19" font-family="Helvetica,sans-Serif" font-size="10.00">/Framework/TestWorkflows</text>
<text text-anchor="middle" x="606" y="-8" font-family="Helvetica,sans-Serif" font-size="10.00">/src/dataSamplingParallel.cxx</text>
</a>
</g>
</g>
<!-- Node2&#45;&gt;Node6 -->
<g id="edge5" class="edge"><title>Node2&#45;&gt;Node6</title>
<path fill="none" stroke="midnightblue" d="M552.741,-83.1386C562.345,-73.1958 572.733,-62.4408 581.763,-53.0921"/>
<polygon fill="midnightblue" stroke="midnightblue" points="550.016,-80.9225 545.586,-90.5468 555.05,-85.7857 550.016,-80.9225"/>
</g>
<!-- Node7 -->
<g id="node7" class="node"><title>Node7</title>
<g id="a_node7"><a xlink:href="../../de/da3/dataSamplingPodAndRoot_8cxx.html" target="_top" xlink:title="/home/travis/build\l/AliceO2Group/AliceO2\l/Framework/TestWorkflows\l/src/dataSamplingPodAndRoot.cxx">
<polygon fill="none" stroke="black" points="697,-1 697,-53 867,-53 867,-1 697,-1"/>
<text text-anchor="start" x="705" y="-41" font-family="Helvetica,sans-Serif" font-size="10.00">/home/travis/build</text>
<text text-anchor="start" x="705" y="-30" font-family="Helvetica,sans-Serif" font-size="10.00">/AliceO2Group/AliceO2</text>
<text text-anchor="start" x="705" y="-19" font-family="Helvetica,sans-Serif" font-size="10.00">/Framework/TestWorkflows</text>
<text text-anchor="middle" x="782" y="-8" font-family="Helvetica,sans-Serif" font-size="10.00">/src/dataSamplingPodAndRoot.cxx</text>
</a>
</g>
</g>
<!-- Node2&#45;&gt;Node7 -->
<g id="edge6" class="edge"><title>Node2&#45;&gt;Node7</title>
<path fill="none" stroke="midnightblue" d="M601.491,-88.8612C635.348,-77.4458 674.496,-64.2464 707.664,-53.0636"/>
<polygon fill="midnightblue" stroke="midnightblue" points="599.988,-85.6744 591.63,-92.1859 602.224,-92.3075 599.988,-85.6744"/>
</g>
<!-- Node8 -->
<g id="node8" class="node"><title>Node8</title>
<g id="a_node8"><a xlink:href="../../db/d9e/dataSamplingTimePipeline_8cxx.html" target="_top" xlink:title="/home/travis/build\l/AliceO2Group/AliceO2\l/Framework/TestWorkflows\l/src/dataSamplingTimePipeline.cxx">
<polygon fill="none" stroke="black" points="885,-1 885,-53 1055,-53 1055,-1 885,-1"/>
<text text-anchor="start" x="893" y="-41" font-family="Helvetica,sans-Serif" font-size="10.00">/home/travis/build</text>
<text text-anchor="start" x="893" y="-30" font-family="Helvetica,sans-Serif" font-size="10.00">/AliceO2Group/AliceO2</text>
<text text-anchor="start" x="893" y="-19" font-family="Helvetica,sans-Serif" font-size="10.00">/Framework/TestWorkflows</text>
<text text-anchor="middle" x="970" y="-8" font-family="Helvetica,sans-Serif" font-size="10.00">/src/dataSamplingTimePipeline.cxx</text>
</a>
</g>
</g>
<!-- Node2&#45;&gt;Node8 -->
<g id="edge7" class="edge"><title>Node2&#45;&gt;Node8</title>
<path fill="none" stroke="midnightblue" d="M601.871,-89.7392C722.481,-63.3581 757.952,-77.9021 876,-54 878.904,-53.412 881.851,-52.7828 884.82,-52.121"/>
<polygon fill="midnightblue" stroke="midnightblue" points="600.876,-86.3751 591.881,-91.9741 602.404,-93.2063 600.876,-86.3751"/>
</g>
<!-- Node9&#45;&gt;Node2 -->
<g id="edge9" class="edge"><title>Node9&#45;&gt;Node2</title>
<path fill="none" stroke="midnightblue" d="M572.543,-262.102C567.381,-253.163 562.163,-243.387 558,-234 544.546,-203.662 533.678,-166.906 527.284,-143.015"/>
<polygon fill="midnightblue" stroke="midnightblue" points="569.537,-263.895 577.644,-270.717 575.561,-260.329 569.537,-263.895"/>
</g>
<!-- Node9&#45;&gt;Node10 -->
<g id="edge10" class="edge"><title>Node9&#45;&gt;Node10</title>
<path fill="none" stroke="midnightblue" d="M529.638,-266.654C505.817,-255.792 479.047,-243.586 456.121,-233.133"/>
<polygon fill="midnightblue" stroke="midnightblue" points="528.401,-269.936 538.952,-270.901 531.305,-263.567 528.401,-269.936"/>
</g>
<!-- Node9&#45;&gt;Node12 -->
<g id="edge13" class="edge"><title>Node9&#45;&gt;Node12</title>
<path fill="none" stroke="midnightblue" d="M614.498,-261.965C620.287,-252.354 626.478,-242.074 631.888,-233.092"/>
<polygon fill="midnightblue" stroke="midnightblue" points="611.491,-260.175 609.33,-270.547 617.487,-263.786 611.491,-260.175"/>
</g>
<!-- Node9&#45;&gt;Node14 -->
<g id="edge16" class="edge"><title>Node9&#45;&gt;Node14</title>
<path fill="none" stroke="midnightblue" d="M667.204,-268.352C697.091,-257.065 731.409,-244.103 760.563,-233.092"/>
<polygon fill="midnightblue" stroke="midnightblue" points="665.787,-265.146 657.668,-271.954 668.26,-271.695 665.787,-265.146"/>
</g>
<!-- Node10&#45;&gt;Node2 -->
<g id="edge11" class="edge"><title>Node10&#45;&gt;Node2</title>
<path fill="none" stroke="midnightblue" d="M443.512,-174.824C457.636,-164.467 473.176,-153.071 486.608,-143.221"/>
<polygon fill="midnightblue" stroke="midnightblue" points="441.381,-172.047 435.387,-180.783 445.521,-177.691 441.381,-172.047"/>
</g>
<!-- Node11 -->
<g id="node11" class="node"><title>Node11</title>
<g id="a_node11"><a xlink:href="../../d8/d23/DispatcherDPL_8cxx.html" target="_top" xlink:title="Implementation of DispatcherDPL for O2 Data Sampling. ">
<polygon fill="none" stroke="black" points="273.5,-91 273.5,-143 432.5,-143 432.5,-91 273.5,-91"/>
<text text-anchor="start" x="281.5" y="-131" font-family="Helvetica,sans-Serif" font-size="10.00">/home/travis/build</text>
<text text-anchor="start" x="281.5" y="-120" font-family="Helvetica,sans-Serif" font-size="10.00">/AliceO2Group/AliceO2</text>
<text text-anchor="start" x="281.5" y="-109" font-family="Helvetica,sans-Serif" font-size="10.00">/Framework/Core/src/Dispatcher</text>
<text text-anchor="middle" x="353" y="-98" font-family="Helvetica,sans-Serif" font-size="10.00">DPL.cxx</text>
</a>
</g>
</g>
<!-- Node10&#45;&gt;Node11 -->
<g id="edge12" class="edge"><title>Node10&#45;&gt;Node11</title>
<path fill="none" stroke="midnightblue" d="M382.275,-171.671C377.079,-162.145 371.536,-151.983 366.687,-143.092"/>
<polygon fill="midnightblue" stroke="midnightblue" points="379.255,-173.444 387.116,-180.547 385.4,-170.092 379.255,-173.444"/>
</g>
<!-- Node12&#45;&gt;Node2 -->
<g id="edge14" class="edge"><title>Node12&#45;&gt;Node2</title>
<path fill="none" stroke="midnightblue" d="M602.362,-174.824C587.532,-164.467 571.216,-153.071 557.112,-143.221"/>
<polygon fill="midnightblue" stroke="midnightblue" points="600.691,-177.926 610.893,-180.783 604.699,-172.187 600.691,-177.926"/>
</g>
<!-- Node13 -->
<g id="node13" class="node"><title>Node13</title>
<g id="a_node13"><a xlink:href="../../d7/dd5/DispatcherFairMQ_8cxx.html" target="_top" xlink:title="Implementation of DispatcherFairMQ for O2 Data Sampling. ">
<polygon fill="none" stroke="black" points="609.5,-91 609.5,-143 768.5,-143 768.5,-91 609.5,-91"/>
<text text-anchor="start" x="617.5" y="-131" font-family="Helvetica,sans-Serif" font-size="10.00">/home/travis/build</text>
<text text-anchor="start" x="617.5" y="-120" font-family="Helvetica,sans-Serif" font-size="10.00">/AliceO2Group/AliceO2</text>
<text text-anchor="start" x="617.5" y="-109" font-family="Helvetica,sans-Serif" font-size="10.00">/Framework/Core/src/Dispatcher</text>
<text text-anchor="middle" x="689" y="-98" font-family="Helvetica,sans-Serif" font-size="10.00">FairMQ.cxx</text>
</a>
</g>
</g>
<!-- Node12&#45;&gt;Node13 -->
<g id="edge15" class="edge"><title>Node12&#45;&gt;Node13</title>
<path fill="none" stroke="midnightblue" d="M663.525,-171.376C668.031,-161.935 672.825,-151.891 677.024,-143.092"/>
<polygon fill="midnightblue" stroke="midnightblue" points="660.297,-170.014 659.148,-180.547 666.614,-173.03 660.297,-170.014"/>
</g>
<!-- Node14&#45;&gt;Node2 -->
<g id="edge17" class="edge"><title>Node14&#45;&gt;Node2</title>
<path fill="none" stroke="midnightblue" d="M735.3,-180.082C735.2,-180.055 735.1,-180.027 735,-180 675.12,-163.556 659.517,-161.714 600,-144 597.232,-143.176 594.415,-142.322 591.572,-141.448"/>
<polygon fill="midnightblue" stroke="midnightblue" points="734.187,-183.406 744.758,-182.693 736.05,-176.658 734.187,-183.406"/>
</g>
<!-- Node15 -->
<g id="node15" class="node"><title>Node15</title>
<g id="a_node15"><a xlink:href="../../d7/dac/DispatcherFlpProto_8cxx.html" target="_top" xlink:title="Implementation of DispatcherFlpProto for O2 Data Sampling. ">
<polygon fill="none" stroke="black" points="786.5,-91 786.5,-143 945.5,-143 945.5,-91 786.5,-91"/>
<text text-anchor="start" x="794.5" y="-131" font-family="Helvetica,sans-Serif" font-size="10.00">/home/travis/build</text>
<text text-anchor="start" x="794.5" y="-120" font-family="Helvetica,sans-Serif" font-size="10.00">/AliceO2Group/AliceO2</text>
<text text-anchor="start" x="794.5" y="-109" font-family="Helvetica,sans-Serif" font-size="10.00">/Framework/Core/src/Dispatcher</text>
<text text-anchor="middle" x="866" y="-98" font-family="Helvetica,sans-Serif" font-size="10.00">FlpProto.cxx</text>
</a>
</g>
</g>
<!-- Node14&#45;&gt;Node15 -->
<g id="edge18" class="edge"><title>Node14&#45;&gt;Node15</title>
<path fill="none" stroke="midnightblue" d="M842.345,-171.376C846.529,-161.935 850.98,-151.891 854.88,-143.092"/>
<polygon fill="midnightblue" stroke="midnightblue" points="839.132,-169.986 838.28,-180.547 845.532,-172.822 839.132,-169.986"/>
</g>
</g>
</svg>
        <g id="navigator" transform="translate(0 0)" fill="#404254">
                <rect fill="#f2f5e9" fill-opacity="0.5" stroke="#606060" stroke-width=".5" x="0" y="0" width="60" height="60"/>
                <use id="zoomplus" xlink:href="#zoomPlus" x="17" y="9" onmousedown="handleZoom(evt,'in')"/>
                <use id="zoomminus" xlink:href="#zoomMin" x="42" y="9" onmousedown="handleZoom(evt,'out')"/>
                <use id="reset" xlink:href="#resetDef" x="30" y="36" onmousedown="handleReset()"/>
                <g id="arrowUp" xlink:href="#dirArrow" transform="translate(30 24)" onmousedown="handlePan(0,-1)">
                  <use xlink:href="#rim" fill="#404040">
                        <set attributeName="fill" to="#808080" begin="arrowUp.mouseover" end="arrowUp.mouseout"/>
                  </use>
                  <path fill="none" stroke="white" stroke-width="1.5" d="M0,-3.0v7 M-2.5,-0.5L0,-3.0L2.5,-0.5"/>
                </g>
                <g id="arrowRight" xlink:href="#dirArrow" transform="rotate(90) translate(36 -43)" onmousedown="handlePan(1,0)">
                  <use xlink:href="#rim" fill="#404040">
                        <set attributeName="fill" to="#808080" begin="arrowRight.mouseover" end="arrowRight.mouseout"/>
                  </use>
                  <path fill="none" stroke="white" stroke-width="1.5" d="M0,-3.0v7 M-2.5,-0.5L0,-3.0L2.5,-0.5"/>
                </g>
                <g id="arrowDown" xlink:href="#dirArrow" transform="rotate(180) translate(-30 -48)" onmousedown="handlePan(0,1)">
                  <use xlink:href="#rim" fill="#404040">
                        <set attributeName="fill" to="#808080" begin="arrowDown.mouseover" end="arrowDown.mouseout"/>
                  </use>
                  <path fill="none" stroke="white" stroke-width="1.5" d="M0,-3.0v7 M-2.5,-0.5L0,-3.0L2.5,-0.5"/>
                </g>
                <g id="arrowLeft" xlink:href="#dirArrow" transform="rotate(270) translate(-36 17)" onmousedown="handlePan(-1,0)">
                  <use xlink:href="#rim" fill="#404040">
                        <set attributeName="fill" to="#808080" begin="arrowLeft.mouseover" end="arrowLeft.mouseout"/>
                  </use>
                  <path fill="none" stroke="white" stroke-width="1.5" d="M0,-3.0v7 M-2.5,-0.5L0,-3.0L2.5,-0.5"/>
                </g>
        </g>
        <svg viewBox="0 0 15 15" width="100%" height="30px" preserveAspectRatio="xMaxYMin meet">
         <g id="arrow_out" transform="scale(0.3 0.3)">
          <a xlink:href="DataSamplingConfig_8h__dep__incl_org.svg" target="_base">
           <rect id="button" ry="5" rx="5" y="6" x="6" height="38" width="38"
                fill="#f2f5e9" fill-opacity="0.5" stroke="#606060" stroke-width="1.0"/>
           <path id="arrow"
             d="M 11.500037,31.436501 C 11.940474,20.09759 22.043105,11.32322 32.158766,21.979434 L 37.068811,17.246167 C 37.068811,17.246167 37.088388,32 37.088388,32 L 22.160133,31.978069 C 22.160133,31.978069 26.997745,27.140456 26.997745,27.140456 C 18.528582,18.264221 13.291696,25.230495 11.500037,31.436501 z"
             style="fill:#404040;"/>
          </a>
         </g>
        </svg>
</svg>
