<?xml version="1.0" encoding="UTF-8" standalone="no"?>
<!DOCTYPE svg PUBLIC "-//W3C//DTD SVG 1.1//EN"
 "http://www.w3.org/Graphics/SVG/1.1/DTD/svg11.dtd">
<!-- Generated by graphviz version 2.36.0 (20140111.2315)
 -->
<!-- Title: /home/travis/build/AliceO2Group/AliceO2/DataFormats/Reconstruction/src/TrackTPCITS.cxx Pages: 1 -->
<!--zoomable 538 -->
<svg id="main" version="1.1" xmlns="http://www.w3.org/2000/svg" xmlns:xlink="http://www.w3.org/1999/xlink" xml:space="preserve" onload="init(evt)">
<style type="text/css"><![CDATA[
.edge:hover path { stroke: red; }
.edge:hover polygon { stroke: red; fill: red; }
]]></style>
<script type="text/javascript"><![CDATA[
var edges = document.getElementsByTagName('g');
if (edges && edges.length) {
  for (var i=0;i<edges.length;i++) {
    if (edges[i].id.substr(0,4)=='edge') {
      edges[i].setAttribute('class','edge');
    }
  }
}
]]></script>
        <defs>
                <circle id="rim" cx="0" cy="0" r="7"/>
                <circle id="rim2" cx="0" cy="0" r="3.5"/>
                <g id="zoomPlus">
                        <use xlink:href="#rim" fill="#404040">
                                <set attributeName="fill" to="#808080" begin="zoomplus.mouseover" end="zoomplus.mouseout"/>
                        </use>
                        <path d="M-4,0h8M0,-4v8" fill="none" stroke="white" stroke-width="1.5" pointer-events="none"/>
                </g>
                <g id="zoomMin">
                        <use xlink:href="#rim" fill="#404040">
                                <set attributeName="fill" to="#808080" begin="zoomminus.mouseover" end="zoomminus.mouseout"/>
                        </use>
                        <path d="M-4,0h8" fill="none" stroke="white" stroke-width="1.5" pointer-events="none"/>
                </g>
                <g id="dirArrow">
                        <path fill="none" stroke="white" stroke-width="1.5" d="M0,-3.0v7 M-2.5,-0.5L0,-3.0L2.5,-0.5"/>
                </g>
               <g id="resetDef">
                       <use xlink:href="#rim2" fill="#404040">
                               <set attributeName="fill" to="#808080" begin="reset.mouseover" end="reset.mouseout"/>
                       </use>
               </g>
        </defs>

<script type="text/javascript">
var viewWidth = 2022;
var viewHeight = 538;
var sectionId = 'dynsection-0';
</script>
<script xlink:href="../../svgpan.js"/>
<svg id="graph" class="graph">
<g id="viewport">
<title>/home/travis/build/AliceO2Group/AliceO2/DataFormats/Reconstruction/src/TrackTPCITS.cxx</title>
<!-- Node1 -->
<g id="node1" class="node"><title>Node1</title>
<polygon fill="#bfbfbf" stroke="black" points="1675,-477 1675,-529 1821,-529 1821,-477 1675,-477"/>
<text text-anchor="start" x="1683" y="-517" font-family="Helvetica,sans-Serif" font-size="10.00">/home/travis/build</text>
<text text-anchor="start" x="1683" y="-506" font-family="Helvetica,sans-Serif" font-size="10.00">/AliceO2Group/AliceO2</text>
<text text-anchor="start" x="1683" y="-495" font-family="Helvetica,sans-Serif" font-size="10.00">/DataFormats/Reconstruction</text>
<text text-anchor="middle" x="1748" y="-484" font-family="Helvetica,sans-Serif" font-size="10.00">/src/TrackTPCITS.cxx</text>
</g>
<!-- Node2 -->
<g id="node2" class="node"><title>Node2</title>
<g id="a_node2"><a xlink:href="../../d5/d1e/TrackTPCITS_8h.html" target="_top" xlink:title="Result of refitting TPC&#45;ITS matched track. ">
<polygon fill="none" stroke="black" points="1678,-409 1678,-439 1818,-439 1818,-409 1678,-409"/>
<text text-anchor="start" x="1686" y="-427" font-family="Helvetica,sans-Serif" font-size="10.00">ReconstructionDataFormats</text>
<text text-anchor="middle" x="1748" y="-416" font-family="Helvetica,sans-Serif" font-size="10.00">/TrackTPCITS.h</text>
</a>
</g>
</g>
<!-- Node1&#45;&gt;Node2 -->
<g id="edge1" class="edge"><title>Node1&#45;&gt;Node2</title>
<path fill="none" stroke="midnightblue" d="M1748,-476.787C1748,-468.029 1748,-458.225 1748,-449.523"/>
<polygon fill="midnightblue" stroke="midnightblue" points="1751.5,-449.252 1748,-439.252 1744.5,-449.252 1751.5,-449.252"/>
</g>
<!-- Node3 -->
<g id="node3" class="node"><title>Node3</title>
<g id="a_node3"><a xlink:href="../../d7/d8b/DataFormats_2Reconstruction_2include_2ReconstructionDataFormats_2Track_8h.html" target="_top" xlink:title="ReconstructionDataFormats\l/Track.h">
<polygon fill="none" stroke="black" points="678,-341 678,-371 818,-371 818,-341 678,-341"/>
<text text-anchor="start" x="686" y="-359" font-family="Helvetica,sans-Serif" font-size="10.00">ReconstructionDataFormats</text>
<text text-anchor="middle" x="748" y="-348" font-family="Helvetica,sans-Serif" font-size="10.00">/Track.h</text>
</a>
</g>
</g>
<!-- Node2&#45;&gt;Node3 -->
<g id="edge2" class="edge"><title>Node2&#45;&gt;Node3</title>
<path fill="none" stroke="midnightblue" d="M1677.68,-418.359C1497.39,-406.46 1019.45,-374.916 828.486,-362.312"/>
<polygon fill="midnightblue" stroke="midnightblue" points="828.449,-358.802 818.24,-361.636 827.988,-365.787 828.449,-358.802"/>
</g>
<!-- Node37 -->
<g id="node37" class="node"><title>Node37</title>
<g id="a_node37"><a xlink:href="../../d6/ddf/EvIndex_8h.html" target="_top" xlink:title="Class to store event ID and index in the event for objects like track, cluster... ...">
<polygon fill="none" stroke="black" points="1670.5,-346.5 1670.5,-365.5 1825.5,-365.5 1825.5,-346.5 1670.5,-346.5"/>
<text text-anchor="middle" x="1748" y="-353.5" font-family="Helvetica,sans-Serif" font-size="10.00">CommonDataFormat/EvIndex.h</text>
</a>
</g>
</g>
<!-- Node2&#45;&gt;Node37 -->
<g id="edge50" class="edge"><title>Node2&#45;&gt;Node37</title>
<path fill="none" stroke="midnightblue" d="M1748,-408.679C1748,-399.101 1748,-386.394 1748,-375.977"/>
<polygon fill="midnightblue" stroke="midnightblue" points="1751.5,-375.828 1748,-365.828 1744.5,-375.828 1751.5,-375.828"/>
</g>
<!-- Node38 -->
<g id="node38" class="node"><title>Node38</title>
<g id="a_node38"><a xlink:href="../../df/d5d/common_2include_2CommonDataFormat_2TimeStamp_8h.html" target="_top" xlink:title="CommonDataFormat/TimeStamp.h">
<polygon fill="none" stroke="black" points="1844,-346.5 1844,-365.5 2014,-365.5 2014,-346.5 1844,-346.5"/>
<text text-anchor="middle" x="1929" y="-353.5" font-family="Helvetica,sans-Serif" font-size="10.00">CommonDataFormat/TimeStamp.h</text>
</a>
</g>
</g>
<!-- Node2&#45;&gt;Node38 -->
<g id="edge52" class="edge"><title>Node2&#45;&gt;Node38</title>
<path fill="none" stroke="midnightblue" d="M1786.83,-408.841C1819.35,-396.982 1865.27,-380.239 1896.03,-369.022"/>
<polygon fill="midnightblue" stroke="midnightblue" points="1897.26,-372.301 1905.45,-365.587 1894.86,-365.724 1897.26,-372.301"/>
</g>
<!-- Node4 -->
<g id="node4" class="node"><title>Node4</title>
<polygon fill="none" stroke="#bfbfbf" points="1769,-74.5 1769,-93.5 1825,-93.5 1825,-74.5 1769,-74.5"/>
<text text-anchor="middle" x="1797" y="-81.5" font-family="Helvetica,sans-Serif" font-size="10.00">Rtypes.h</text>
</g>
<!-- Node3&#45;&gt;Node4 -->
<g id="edge3" class="edge"><title>Node3&#45;&gt;Node4</title>
<path fill="none" stroke="midnightblue" d="M818.114,-351.483C1010.24,-341.025 1541.37,-306.371 1700,-236 1742.35,-217.214 1755.31,-207.81 1779,-168 1790.81,-148.148 1794.91,-121.506 1796.31,-103.821"/>
<polygon fill="midnightblue" stroke="midnightblue" points="1799.81,-103.839 1796.89,-93.6548 1792.83,-103.437 1799.81,-103.839"/>
</g>
<!-- Node5 -->
<g id="node5" class="node"><title>Node5</title>
<polygon fill="none" stroke="#bfbfbf" points="1769,-278.5 1769,-297.5 1825,-297.5 1825,-278.5 1769,-278.5"/>
<text text-anchor="middle" x="1797" y="-285.5" font-family="Helvetica,sans-Serif" font-size="10.00">algorithm</text>
</g>
<!-- Node3&#45;&gt;Node5 -->
<g id="edge4" class="edge"><title>Node3&#45;&gt;Node5</title>
<path fill="none" stroke="midnightblue" d="M818.158,-354.107C1015.94,-351.168 1575.28,-339.835 1755,-304 1758.99,-303.205 1763.1,-302.105 1767.13,-300.859"/>
<polygon fill="midnightblue" stroke="midnightblue" points="1768.5,-304.092 1776.83,-297.551 1766.24,-297.467 1768.5,-304.092"/>
</g>
<!-- Node6 -->
<g id="node6" class="node"><title>Node6</title>
<polygon fill="none" stroke="#bfbfbf" points="1597,-6.5 1597,-25.5 1635,-25.5 1635,-6.5 1597,-6.5"/>
<text text-anchor="middle" x="1616" y="-13.5" font-family="Helvetica,sans-Serif" font-size="10.00">array</text>
</g>
<!-- Node3&#45;&gt;Node6 -->
<g id="edge5" class="edge"><title>Node3&#45;&gt;Node6</title>
<path fill="none" stroke="midnightblue" d="M818.342,-353.998C1052.62,-350.362 1793.87,-336.341 1833,-304 1862.25,-279.828 1853,-258.945 1853,-221 1853,-221 1853,-221 1853,-151 1853,-113.055 1859.91,-94.7554 1833,-68 1806.68,-41.8325 1698.01,-26.2488 1645.14,-20.0774"/>
<polygon fill="midnightblue" stroke="midnightblue" points="1645.39,-16.5828 1635.06,-18.9355 1644.6,-23.5384 1645.39,-16.5828"/>
</g>
<!-- Node7 -->
<g id="node7" class="node"><title>Node7</title>
<polygon fill="none" stroke="#bfbfbf" points="45.5,-278.5 45.5,-297.5 86.5,-297.5 86.5,-278.5 45.5,-278.5"/>
<text text-anchor="middle" x="66" y="-285.5" font-family="Helvetica,sans-Serif" font-size="10.00">cfloat</text>
</g>
<!-- Node3&#45;&gt;Node7 -->
<g id="edge6" class="edge"><title>Node3&#45;&gt;Node7</title>
<path fill="none" stroke="midnightblue" d="M677.913,-352.356C533.808,-346.45 208.757,-330.573 101,-304 98.1718,-303.303 95.2803,-302.401 92.4311,-301.386"/>
<polygon fill="midnightblue" stroke="midnightblue" points="93.6446,-298.102 83.0603,-297.631 91.0407,-304.599 93.6446,-298.102"/>
</g>
<!-- Node8 -->
<g id="node8" class="node"><title>Node8</title>
<polygon fill="none" stroke="#bfbfbf" points="0,-6.5 0,-25.5 44,-25.5 44,-6.5 0,-6.5"/>
<text text-anchor="middle" x="22" y="-13.5" font-family="Helvetica,sans-Serif" font-size="10.00">cmath</text>
</g>
<!-- Node3&#45;&gt;Node8 -->
<g id="edge7" class="edge"><title>Node3&#45;&gt;Node8</title>
<path fill="none" stroke="midnightblue" d="M677.743,-354.633C507.622,-353.096 83.9872,-345.132 36,-304 7.26755,-279.372 17,-258.843 17,-221 17,-221 17,-221 17,-151 17,-110.018 19.3643,-62.0347 20.8413,-36.058"/>
<polygon fill="midnightblue" stroke="midnightblue" points="24.3528,-35.9638 21.4458,-25.7756 17.3649,-35.5529 24.3528,-35.9638"/>
</g>
<!-- Node9 -->
<g id="node9" class="node"><title>Node9</title>
<polygon fill="none" stroke="#bfbfbf" points="466,-278.5 466,-297.5 512,-297.5 512,-278.5 466,-278.5"/>
<text text-anchor="middle" x="489" y="-285.5" font-family="Helvetica,sans-Serif" font-size="10.00">cstring</text>
</g>
<!-- Node3&#45;&gt;Node9 -->
<g id="edge8" class="edge"><title>Node3&#45;&gt;Node9</title>
<path fill="none" stroke="midnightblue" d="M677.741,-341.847C633.686,-332.867 575.972,-319.759 526,-304 523.364,-303.169 520.652,-302.233 517.95,-301.244"/>
<polygon fill="midnightblue" stroke="midnightblue" points="518.963,-297.883 508.374,-297.531 516.432,-304.409 518.963,-297.883"/>
</g>
<!-- Node10 -->
<g id="node10" class="node"><title>Node10</title>
<polygon fill="none" stroke="#bfbfbf" points="120,-74.5 120,-93.5 174,-93.5 174,-74.5 120,-74.5"/>
<text text-anchor="middle" x="147" y="-81.5" font-family="Helvetica,sans-Serif" font-size="10.00">iostream</text>
</g>
<!-- Node3&#45;&gt;Node10 -->
<g id="edge9" class="edge"><title>Node3&#45;&gt;Node10</title>
<path fill="none" stroke="midnightblue" d="M677.963,-343.689C641.123,-335.898 596.046,-323.368 559,-304 539.433,-293.77 539.447,-284.133 521,-272 458.02,-230.578 251.094,-133.297 175.216,-98.0464"/>
<polygon fill="midnightblue" stroke="midnightblue" points="176.358,-94.7177 165.813,-93.6842 173.412,-101.068 176.358,-94.7177"/>
</g>
<!-- Node11 -->
<g id="node11" class="node"><title>Node11</title>
<polygon fill="none" stroke="#bfbfbf" points="568.5,-278.5 568.5,-297.5 651.5,-297.5 651.5,-278.5 568.5,-278.5"/>
<text text-anchor="middle" x="610" y="-285.5" font-family="Helvetica,sans-Serif" font-size="10.00">Math/SMatrix.h</text>
</g>
<!-- Node3&#45;&gt;Node11 -->
<g id="edge10" class="edge"><title>Node3&#45;&gt;Node11</title>
<path fill="none" stroke="midnightblue" d="M718.396,-340.841C694.312,-329.323 660.598,-313.199 637.189,-302.004"/>
<polygon fill="midnightblue" stroke="midnightblue" points="638.684,-298.839 628.153,-297.682 635.664,-305.154 638.684,-298.839"/>
</g>
<!-- Node12 -->
<g id="node12" class="node"><title>Node12</title>
<polygon fill="none" stroke="#bfbfbf" points="669.5,-278.5 669.5,-297.5 754.5,-297.5 754.5,-278.5 669.5,-278.5"/>
<text text-anchor="middle" x="712" y="-285.5" font-family="Helvetica,sans-Serif" font-size="10.00">Math/SVector.h</text>
</g>
<!-- Node3&#45;&gt;Node12 -->
<g id="edge11" class="edge"><title>Node3&#45;&gt;Node12</title>
<path fill="none" stroke="midnightblue" d="M740.189,-340.679C734.742,-330.694 727.44,-317.307 721.633,-306.66"/>
<polygon fill="midnightblue" stroke="midnightblue" points="724.677,-304.931 716.815,-297.828 718.531,-308.283 724.677,-304.931"/>
</g>
<!-- Node13 -->
<g id="node13" class="node"><title>Node13</title>
<g id="a_node13"><a xlink:href="../../d6/d84/MathConstants_8h.html" target="_top" xlink:title="useful math constants ">
<polygon fill="none" stroke="black" points="65.5,-6.5 65.5,-25.5 244.5,-25.5 244.5,-6.5 65.5,-6.5"/>
<text text-anchor="middle" x="155" y="-13.5" font-family="Helvetica,sans-Serif" font-size="10.00">CommonConstants/MathConstants.h</text>
</a>
</g>
</g>
<!-- Node3&#45;&gt;Node13 -->
<g id="edge12" class="edge"><title>Node3&#45;&gt;Node13</title>
<path fill="none" stroke="midnightblue" d="M677.97,-349.816C617.856,-343.715 529.671,-330.784 457,-304 289.498,-242.265 199.551,-255.006 111,-100 97.7405,-76.7898 119.495,-49.2782 136.864,-32.4866"/>
<polygon fill="midnightblue" stroke="midnightblue" points="139.39,-34.9186 144.394,-25.5799 134.659,-29.7599 139.39,-34.9186"/>
</g>
<!-- Node14 -->
<g id="node14" class="node"><title>Node14</title>
<g id="a_node14"><a xlink:href="../../dd/d76/Cartesian3D_8h.html" target="_top" xlink:title="MathUtils/Cartesian3D.h">
<polygon fill="none" stroke="black" points="823.5,-142.5 823.5,-161.5 948.5,-161.5 948.5,-142.5 823.5,-142.5"/>
<text text-anchor="middle" x="886" y="-149.5" font-family="Helvetica,sans-Serif" font-size="10.00">MathUtils/Cartesian3D.h</text>
</a>
</g>
</g>
<!-- Node3&#45;&gt;Node14 -->
<g id="edge13" class="edge"><title>Node3&#45;&gt;Node14</title>
<path fill="none" stroke="midnightblue" d="M763.553,-340.657C773.709,-330.866 786.907,-317.304 797,-304 831.07,-259.089 862.436,-200.106 877.171,-170.934"/>
<polygon fill="midnightblue" stroke="midnightblue" points="880.487,-172.127 881.821,-161.617 874.224,-169.001 880.487,-172.127"/>
</g>
<!-- Node24 -->
<g id="node24" class="node"><title>Node24</title>
<g id="a_node24"><a xlink:href="../../d9/d52/Common_2MathUtils_2include_2MathUtils_2Utils_8h.html" target="_top" xlink:title="MathUtils/Utils.h">
<polygon fill="none" stroke="black" points="192,-74.5 192,-93.5 282,-93.5 282,-74.5 192,-74.5"/>
<text text-anchor="middle" x="237" y="-81.5" font-family="Helvetica,sans-Serif" font-size="10.00">MathUtils/Utils.h</text>
</a>
</g>
</g>
<!-- Node3&#45;&gt;Node24 -->
<g id="edge25" class="edge"><title>Node3&#45;&gt;Node24</title>
<path fill="none" stroke="midnightblue" d="M755.811,-340.905C764.235,-323.65 774.938,-294.011 763,-272 710.164,-174.582 657.857,-174.673 554,-136 443.437,-94.8304 406.545,-123.842 291,-100 285.64,-98.8939 280.028,-97.5497 274.534,-96.1255"/>
<polygon fill="midnightblue" stroke="midnightblue" points="275.419,-92.739 264.852,-93.5094 273.593,-99.4967 275.419,-92.739"/>
</g>
<!-- Node25 -->
<g id="node25" class="node"><title>Node25</title>
<g id="a_node25"><a xlink:href="../../d4/de2/BaseCluster_8h.html" target="_top" xlink:title="ReconstructionDataFormats\l/BaseCluster.h">
<polygon fill="none" stroke="black" points="922,-273 922,-303 1062,-303 1062,-273 922,-273"/>
<text text-anchor="start" x="930" y="-291" font-family="Helvetica,sans-Serif" font-size="10.00">ReconstructionDataFormats</text>
<text text-anchor="middle" x="992" y="-280" font-family="Helvetica,sans-Serif" font-size="10.00">/BaseCluster.h</text>
</a>
</g>
</g>
<!-- Node3&#45;&gt;Node25 -->
<g id="edge29" class="edge"><title>Node3&#45;&gt;Node25</title>
<path fill="none" stroke="midnightblue" d="M800.045,-340.922C838.188,-330.605 890.111,-316.56 930.338,-305.679"/>
<polygon fill="midnightblue" stroke="midnightblue" points="931.296,-309.046 940.035,-303.056 929.468,-302.289 931.296,-309.046"/>
</g>
<!-- Node14&#45;&gt;Node4 -->
<g id="edge19" class="edge"><title>Node14&#45;&gt;Node4</title>
<path fill="none" stroke="midnightblue" d="M948.594,-150.035C1087.92,-147.264 1433.98,-136.921 1721,-100 1733.51,-98.3914 1747.04,-95.9493 1759.18,-93.4999"/>
<polygon fill="midnightblue" stroke="midnightblue" points="1759.92,-96.922 1768.99,-91.4588 1758.49,-90.0686 1759.92,-96.922"/>
</g>
<!-- Node14&#45;&gt;Node10 -->
<g id="edge21" class="edge"><title>Node14&#45;&gt;Node10</title>
<path fill="none" stroke="midnightblue" d="M823.413,-142.913C802.911,-140.45 780.006,-137.896 759,-136 503.538,-112.948 432.826,-158.128 183,-100 179.933,-99.2865 176.793,-98.3373 173.707,-97.2616"/>
<polygon fill="midnightblue" stroke="midnightblue" points="174.778,-93.922 164.19,-93.5277 172.221,-100.438 174.778,-93.922"/>
</g>
<!-- Node15 -->
<g id="node15" class="node"><title>Node15</title>
<polygon fill="none" stroke="#bfbfbf" points="538.5,-69 538.5,-99 689.5,-99 689.5,-69 538.5,-69"/>
<text text-anchor="start" x="546.5" y="-87" font-family="Helvetica,sans-Serif" font-size="10.00">Math/GenVector/Displacement</text>
<text text-anchor="middle" x="614" y="-76" font-family="Helvetica,sans-Serif" font-size="10.00">Vector3D.h</text>
</g>
<!-- Node14&#45;&gt;Node15 -->
<g id="edge14" class="edge"><title>Node14&#45;&gt;Node15</title>
<path fill="none" stroke="midnightblue" d="M850.72,-142.439C808.026,-132.08 735.205,-114.41 681.577,-101.397"/>
<polygon fill="midnightblue" stroke="midnightblue" points="682.342,-97.9816 671.799,-99.0247 680.692,-104.784 682.342,-97.9816"/>
</g>
<!-- Node16 -->
<g id="node16" class="node"><title>Node16</title>
<polygon fill="none" stroke="#bfbfbf" points="708,-74.5 708,-93.5 884,-93.5 884,-74.5 708,-74.5"/>
<text text-anchor="middle" x="796" y="-81.5" font-family="Helvetica,sans-Serif" font-size="10.00">Math/GenVector/PositionVector3D.h</text>
</g>
<!-- Node14&#45;&gt;Node16 -->
<g id="edge15" class="edge"><title>Node14&#45;&gt;Node16</title>
<path fill="none" stroke="midnightblue" d="M874.234,-142.372C859.411,-131.502 833.718,-112.66 815.837,-99.5474"/>
<polygon fill="midnightblue" stroke="midnightblue" points="817.903,-96.7217 807.769,-93.6305 813.763,-102.367 817.903,-96.7217"/>
</g>
<!-- Node17 -->
<g id="node17" class="node"><title>Node17</title>
<polygon fill="none" stroke="#bfbfbf" points="901.5,-74.5 901.5,-93.5 1050.5,-93.5 1050.5,-74.5 901.5,-74.5"/>
<text text-anchor="middle" x="976" y="-81.5" font-family="Helvetica,sans-Serif" font-size="10.00">Math/GenVector/Rotation3D.h</text>
</g>
<!-- Node14&#45;&gt;Node17 -->
<g id="edge16" class="edge"><title>Node14&#45;&gt;Node17</title>
<path fill="none" stroke="midnightblue" d="M897.766,-142.372C912.589,-131.502 938.282,-112.66 956.163,-99.5474"/>
<polygon fill="midnightblue" stroke="midnightblue" points="958.237,-102.367 964.231,-93.6305 954.097,-96.7217 958.237,-102.367"/>
</g>
<!-- Node18 -->
<g id="node18" class="node"><title>Node18</title>
<polygon fill="none" stroke="#bfbfbf" points="1069,-74.5 1069,-93.5 1225,-93.5 1225,-74.5 1069,-74.5"/>
<text text-anchor="middle" x="1147" y="-81.5" font-family="Helvetica,sans-Serif" font-size="10.00">Math/GenVector/Transform3D.h</text>
</g>
<!-- Node14&#45;&gt;Node18 -->
<g id="edge17" class="edge"><title>Node14&#45;&gt;Node18</title>
<path fill="none" stroke="midnightblue" d="M919.854,-142.439C966.793,-130.57 1051.68,-109.103 1103.34,-96.0406"/>
<polygon fill="midnightblue" stroke="midnightblue" points="1104.37,-99.3904 1113.21,-93.5455 1102.65,-92.604 1104.37,-99.3904"/>
</g>
<!-- Node19 -->
<g id="node19" class="node"><title>Node19</title>
<polygon fill="none" stroke="#bfbfbf" points="1243,-74.5 1243,-93.5 1403,-93.5 1403,-74.5 1243,-74.5"/>
<text text-anchor="middle" x="1323" y="-81.5" font-family="Helvetica,sans-Serif" font-size="10.00">Math/GenVector/Translation3D.h</text>
</g>
<!-- Node14&#45;&gt;Node19 -->
<g id="edge18" class="edge"><title>Node14&#45;&gt;Node19</title>
<path fill="none" stroke="midnightblue" d="M947.038,-142.459C1016.57,-132.635 1133.57,-115.82 1234,-100 1243.53,-98.498 1253.63,-96.8503 1263.47,-95.214"/>
<polygon fill="midnightblue" stroke="midnightblue" points="1264.32,-98.622 1273.6,-93.5195 1263.16,-91.718 1264.32,-98.622"/>
</g>
<!-- Node20 -->
<g id="node20" class="node"><title>Node20</title>
<polygon fill="none" stroke="#bfbfbf" points="444,-74.5 444,-93.5 520,-93.5 520,-74.5 444,-74.5"/>
<text text-anchor="middle" x="482" y="-81.5" font-family="Helvetica,sans-Serif" font-size="10.00">TGeoMatrix.h</text>
</g>
<!-- Node14&#45;&gt;Node20 -->
<g id="edge20" class="edge"><title>Node14&#45;&gt;Node20</title>
<path fill="none" stroke="midnightblue" d="M837.083,-142.453C824.07,-140.262 810.014,-137.97 797,-136 678.173,-118.011 646.252,-126.371 529,-100 524.77,-99.0485 520.374,-97.8868 516.045,-96.6351"/>
<polygon fill="midnightblue" stroke="midnightblue" points="516.757,-93.1928 506.171,-93.608 514.706,-99.8854 516.757,-93.1928"/>
</g>
<!-- Node21 -->
<g id="node21" class="node"><title>Node21</title>
<g id="a_node21"><a xlink:href="../../d2/dd0/Cartesian2D_8h.html" target="_top" xlink:title="MathUtils/Cartesian2D.h">
<polygon fill="none" stroke="black" points="300.5,-74.5 300.5,-93.5 425.5,-93.5 425.5,-74.5 300.5,-74.5"/>
<text text-anchor="middle" x="363" y="-81.5" font-family="Helvetica,sans-Serif" font-size="10.00">MathUtils/Cartesian2D.h</text>
</a>
</g>
</g>
<!-- Node14&#45;&gt;Node21 -->
<g id="edge22" class="edge"><title>Node14&#45;&gt;Node21</title>
<path fill="none" stroke="midnightblue" d="M838.977,-142.462C825.455,-140.173 810.667,-137.829 797,-136 636.746,-114.552 594.812,-124.523 435,-100 426.925,-98.7609 418.388,-97.2041 410.126,-95.5659"/>
<polygon fill="midnightblue" stroke="midnightblue" points="410.731,-92.1173 400.232,-93.5432 409.329,-98.9754 410.731,-92.1173"/>
</g>
<!-- Node22 -->
<g id="node22" class="node"><title>Node22</title>
<polygon fill="none" stroke="#bfbfbf" points="458.5,-1 458.5,-31 609.5,-31 609.5,-1 458.5,-1"/>
<text text-anchor="start" x="466.5" y="-19" font-family="Helvetica,sans-Serif" font-size="10.00">Math/GenVector/Displacement</text>
<text text-anchor="middle" x="534" y="-8" font-family="Helvetica,sans-Serif" font-size="10.00">Vector2D.h</text>
</g>
<!-- Node21&#45;&gt;Node22 -->
<g id="edge23" class="edge"><title>Node21&#45;&gt;Node22</title>
<path fill="none" stroke="midnightblue" d="M385.355,-74.3717C411.31,-64.3539 454.806,-47.5661 488.06,-34.7312"/>
<polygon fill="midnightblue" stroke="midnightblue" points="489.513,-37.9223 497.582,-31.0562 486.992,-31.3918 489.513,-37.9223"/>
</g>
<!-- Node23 -->
<g id="node23" class="node"><title>Node23</title>
<polygon fill="none" stroke="#bfbfbf" points="264,-6.5 264,-25.5 440,-25.5 440,-6.5 264,-6.5"/>
<text text-anchor="middle" x="352" y="-13.5" font-family="Helvetica,sans-Serif" font-size="10.00">Math/GenVector/PositionVector2D.h</text>
</g>
<!-- Node21&#45;&gt;Node23 -->
<g id="edge24" class="edge"><title>Node21&#45;&gt;Node23</title>
<path fill="none" stroke="midnightblue" d="M361.562,-74.3717C359.94,-64.6426 357.255,-48.528 355.142,-35.8504"/>
<polygon fill="midnightblue" stroke="midnightblue" points="358.57,-35.1296 353.474,-25.8411 351.665,-36.2805 358.57,-35.1296"/>
</g>
<!-- Node24&#45;&gt;Node6 -->
<g id="edge26" class="edge"><title>Node24&#45;&gt;Node6</title>
<path fill="none" stroke="midnightblue" d="M263.099,-74.4328C271.87,-71.9086 281.771,-69.4393 291,-68 552.927,-27.151 1415.99,-18.5237 1586.56,-17.2036"/>
<polygon fill="midnightblue" stroke="midnightblue" points="1586.6,-20.7035 1596.57,-17.1285 1586.54,-13.7037 1586.6,-20.7035"/>
</g>
<!-- Node24&#45;&gt;Node8 -->
<g id="edge27" class="edge"><title>Node24&#45;&gt;Node8</title>
<path fill="none" stroke="midnightblue" d="M206.206,-74.4448C156.45,-60.6043 63.1814,-34.5814 56,-32 53.8788,-31.2375 51.7033,-30.4038 49.5279,-29.5325"/>
<polygon fill="midnightblue" stroke="midnightblue" points="50.7332,-26.2422 40.1593,-25.576 48.0099,-32.6908 50.7332,-26.2422"/>
</g>
<!-- Node24&#45;&gt;Node13 -->
<g id="edge28" class="edge"><title>Node24&#45;&gt;Node13</title>
<path fill="none" stroke="midnightblue" d="M226.28,-74.3717C212.897,-63.6004 189.791,-45.0021 173.52,-31.9065"/>
<polygon fill="midnightblue" stroke="midnightblue" points="175.707,-29.174 165.723,-25.6305 171.318,-34.6271 175.707,-29.174"/>
</g>
<!-- Node25&#45;&gt;Node10 -->
<g id="edge34" class="edge"><title>Node25&#45;&gt;Node10</title>
<path fill="none" stroke="midnightblue" d="M959.788,-272.94C888.314,-242.406 710.4,-170.049 554,-136 392.128,-100.76 343.686,-140.305 183,-100 180.01,-99.25 176.944,-98.2922 173.925,-97.2244"/>
<polygon fill="midnightblue" stroke="midnightblue" points="175.174,-93.9547 164.587,-93.5577 172.616,-100.47 175.174,-93.9547"/>
</g>
<!-- Node25&#45;&gt;Node14 -->
<g id="edge49" class="edge"><title>Node25&#45;&gt;Node14</title>
<path fill="none" stroke="midnightblue" d="M962.272,-272.899C946.636,-264.177 928.23,-251.651 916,-236 901,-216.803 893.06,-189.435 889.197,-171.45"/>
<polygon fill="midnightblue" stroke="midnightblue" points="892.631,-170.773 887.291,-161.622 885.759,-172.106 892.631,-170.773"/>
</g>
<!-- Node26 -->
<g id="node26" class="node"><title>Node26</title>
<polygon fill="none" stroke="#bfbfbf" points="925.5,-210.5 925.5,-229.5 984.5,-229.5 984.5,-210.5 925.5,-210.5"/>
<text text-anchor="middle" x="955" y="-217.5" font-family="Helvetica,sans-Serif" font-size="10.00">TObject.h</text>
</g>
<!-- Node25&#45;&gt;Node26 -->
<g id="edge30" class="edge"><title>Node25&#45;&gt;Node26</title>
<path fill="none" stroke="midnightblue" d="M983.972,-272.679C978.374,-262.694 970.869,-249.307 964.9,-238.66"/>
<polygon fill="midnightblue" stroke="midnightblue" points="967.892,-236.84 959.949,-229.828 961.786,-240.263 967.892,-236.84"/>
</g>
<!-- Node27 -->
<g id="node27" class="node"><title>Node27</title>
<polygon fill="none" stroke="#bfbfbf" points="1421.5,-74.5 1421.5,-93.5 1462.5,-93.5 1462.5,-74.5 1421.5,-74.5"/>
<text text-anchor="middle" x="1442" y="-81.5" font-family="Helvetica,sans-Serif" font-size="10.00">bitset</text>
</g>
<!-- Node25&#45;&gt;Node27 -->
<g id="edge31" class="edge"><title>Node25&#45;&gt;Node27</title>
<path fill="none" stroke="midnightblue" d="M1024.82,-272.806C1048.3,-262.626 1080.63,-248.55 1109,-236 1243.99,-176.286 1278.62,-163.243 1412,-100 1413.35,-99.3607 1414.73,-98.6991 1416.12,-98.026"/>
<polygon fill="midnightblue" stroke="midnightblue" points="1417.82,-101.091 1425.24,-93.5336 1414.72,-94.8107 1417.82,-101.091"/>
</g>
<!-- Node28 -->
<g id="node28" class="node"><title>Node28</title>
<polygon fill="none" stroke="#bfbfbf" points="1003,-210.5 1003,-229.5 1053,-229.5 1053,-210.5 1003,-210.5"/>
<text text-anchor="middle" x="1028" y="-217.5" font-family="Helvetica,sans-Serif" font-size="10.00">iomanip</text>
</g>
<!-- Node25&#45;&gt;Node28 -->
<g id="edge32" class="edge"><title>Node25&#45;&gt;Node28</title>
<path fill="none" stroke="midnightblue" d="M999.811,-272.679C1005.26,-262.694 1012.56,-249.307 1018.37,-238.66"/>
<polygon fill="midnightblue" stroke="midnightblue" points="1021.47,-240.283 1023.18,-229.828 1015.32,-236.931 1021.47,-240.283"/>
</g>
<!-- Node29 -->
<g id="node29" class="node"><title>Node29</title>
<polygon fill="none" stroke="#bfbfbf" points="1071.5,-210.5 1071.5,-229.5 1100.5,-229.5 1100.5,-210.5 1071.5,-210.5"/>
<text text-anchor="middle" x="1086" y="-217.5" font-family="Helvetica,sans-Serif" font-size="10.00">ios</text>
</g>
<!-- Node25&#45;&gt;Node29 -->
<g id="edge33" class="edge"><title>Node25&#45;&gt;Node29</title>
<path fill="none" stroke="midnightblue" d="M1012.4,-272.679C1028.01,-261.713 1049.48,-246.645 1065.19,-235.609"/>
<polygon fill="midnightblue" stroke="midnightblue" points="1067.52,-238.249 1073.7,-229.638 1063.5,-232.52 1067.52,-238.249"/>
</g>
<!-- Node30 -->
<g id="node30" class="node"><title>Node30</title>
<g id="a_node30"><a xlink:href="../../d4/d20/DetMatrixCache_8h.html" target="_top" xlink:title="DetectorsCommonDataFormats\l/DetMatrixCache.h">
<polygon fill="none" stroke="black" points="1535,-205 1535,-235 1691,-235 1691,-205 1535,-205"/>
<text text-anchor="start" x="1543" y="-223" font-family="Helvetica,sans-Serif" font-size="10.00">DetectorsCommonDataFormats</text>
<text text-anchor="middle" x="1613" y="-212" font-family="Helvetica,sans-Serif" font-size="10.00">/DetMatrixCache.h</text>
</a>
</g>
</g>
<!-- Node25&#45;&gt;Node30 -->
<g id="edge35" class="edge"><title>Node25&#45;&gt;Node30</title>
<path fill="none" stroke="midnightblue" d="M1062.03,-279.557C1175.72,-267.474 1400.25,-243.612 1524.71,-230.383"/>
<polygon fill="midnightblue" stroke="midnightblue" points="1525.39,-233.831 1534.97,-229.294 1524.65,-226.87 1525.39,-233.831"/>
</g>
<!-- Node30&#45;&gt;Node4 -->
<g id="edge48" class="edge"><title>Node30&#45;&gt;Node4</title>
<path fill="none" stroke="midnightblue" d="M1681.36,-204.984C1706.06,-197.282 1732.81,-185.58 1753,-168 1772.95,-150.633 1785.28,-121.961 1791.64,-103.277"/>
<polygon fill="midnightblue" stroke="midnightblue" points="1795.02,-104.181 1794.71,-93.5911 1788.35,-102.068 1795.02,-104.181"/>
</g>
<!-- Node30&#45;&gt;Node6 -->
<g id="edge37" class="edge"><title>Node30&#45;&gt;Node6</title>
<path fill="none" stroke="midnightblue" d="M1669.33,-204.917C1688.34,-197.23 1707.6,-185.556 1719,-168 1735.47,-142.641 1720.56,-130.232 1721,-100 1721.21,-85.7793 1728.55,-80.055 1721,-68 1704.53,-41.6969 1670.2,-28.6133 1645.26,-22.3455"/>
<polygon fill="midnightblue" stroke="midnightblue" points="1645.76,-18.8688 1635.23,-20.0579 1644.2,-25.6936 1645.76,-18.8688"/>
</g>
<!-- Node30&#45;&gt;Node14 -->
<g id="edge47" class="edge"><title>Node30&#45;&gt;Node14</title>
<path fill="none" stroke="midnightblue" d="M1534.85,-211.906C1393.26,-199.051 1096.25,-172.088 958.733,-159.603"/>
<polygon fill="midnightblue" stroke="midnightblue" points="958.989,-156.112 948.714,-158.693 958.356,-163.083 958.989,-156.112"/>
</g>
<!-- Node31 -->
<g id="node31" class="node"><title>Node31</title>
<polygon fill="none" stroke="#bfbfbf" points="1577.5,-142.5 1577.5,-161.5 1648.5,-161.5 1648.5,-142.5 1577.5,-142.5"/>
<text text-anchor="middle" x="1613" y="-149.5" font-family="Helvetica,sans-Serif" font-size="10.00">FairLogger.h</text>
</g>
<!-- Node30&#45;&gt;Node31 -->
<g id="edge36" class="edge"><title>Node30&#45;&gt;Node31</title>
<path fill="none" stroke="midnightblue" d="M1613,-204.679C1613,-195.101 1613,-182.394 1613,-171.977"/>
<polygon fill="midnightblue" stroke="midnightblue" points="1616.5,-171.828 1613,-161.828 1609.5,-171.828 1616.5,-171.828"/>
</g>
<!-- Node32 -->
<g id="node32" class="node"><title>Node32</title>
<polygon fill="none" stroke="#bfbfbf" points="1667,-142.5 1667,-161.5 1711,-161.5 1711,-142.5 1667,-142.5"/>
<text text-anchor="middle" x="1689" y="-149.5" font-family="Helvetica,sans-Serif" font-size="10.00">vector</text>
</g>
<!-- Node30&#45;&gt;Node32 -->
<g id="edge38" class="edge"><title>Node30&#45;&gt;Node32</title>
<path fill="none" stroke="midnightblue" d="M1629.49,-204.679C1641.81,-193.981 1658.63,-179.377 1671.24,-168.422"/>
<polygon fill="midnightblue" stroke="midnightblue" points="1673.58,-171.028 1678.83,-161.828 1668.99,-165.743 1673.58,-171.028"/>
</g>
<!-- Node33 -->
<g id="node33" class="node"><title>Node33</title>
<g id="a_node33"><a xlink:href="../../d6/d31/DetID_8h.html" target="_top" xlink:title="DetectorsCommonDataFormats\l/DetID.h">
<polygon fill="none" stroke="black" points="1403,-137 1403,-167 1559,-167 1559,-137 1403,-137"/>
<text text-anchor="start" x="1411" y="-155" font-family="Helvetica,sans-Serif" font-size="10.00">DetectorsCommonDataFormats</text>
<text text-anchor="middle" x="1481" y="-144" font-family="Helvetica,sans-Serif" font-size="10.00">/DetID.h</text>
</a>
</g>
</g>
<!-- Node30&#45;&gt;Node33 -->
<g id="edge39" class="edge"><title>Node30&#45;&gt;Node33</title>
<path fill="none" stroke="midnightblue" d="M1584.68,-204.841C1565.28,-195.141 1539.35,-182.174 1518.27,-171.636"/>
<polygon fill="midnightblue" stroke="midnightblue" points="1519.78,-168.477 1509.27,-167.135 1516.65,-174.738 1519.78,-168.477"/>
</g>
<!-- Node33&#45;&gt;Node4 -->
<g id="edge40" class="edge"><title>Node33&#45;&gt;Node4</title>
<path fill="none" stroke="midnightblue" d="M1548.4,-136.922C1612.64,-123.506 1707.05,-103.788 1759.09,-92.9187"/>
<polygon fill="midnightblue" stroke="midnightblue" points="1759.84,-96.3379 1768.91,-90.8673 1758.4,-89.4858 1759.84,-96.3379"/>
</g>
<!-- Node33&#45;&gt;Node6 -->
<g id="edge41" class="edge"><title>Node33&#45;&gt;Node6</title>
<path fill="none" stroke="midnightblue" d="M1482.62,-136.693C1485.35,-118.673 1492.41,-87.6908 1510,-68 1530.39,-45.1839 1563.22,-31.6054 1586.95,-24.267"/>
<polygon fill="midnightblue" stroke="midnightblue" points="1588.18,-27.5535 1596.81,-21.4093 1586.23,-20.8299 1588.18,-27.5535"/>
</g>
<!-- Node33&#45;&gt;Node24 -->
<g id="edge46" class="edge"><title>Node33&#45;&gt;Node24</title>
<path fill="none" stroke="midnightblue" d="M1402.94,-148.689C1155.76,-141.226 400.081,-117.255 291,-100 285.09,-99.065 278.902,-97.7136 272.913,-96.1998"/>
<polygon fill="midnightblue" stroke="midnightblue" points="273.669,-92.7787 263.102,-93.5436 271.84,-99.5354 273.669,-92.7787"/>
</g>
<!-- Node33&#45;&gt;Node27 -->
<g id="edge42" class="edge"><title>Node33&#45;&gt;Node27</title>
<path fill="none" stroke="midnightblue" d="M1472.54,-136.679C1466.64,-126.694 1458.73,-113.307 1452.44,-102.66"/>
<polygon fill="midnightblue" stroke="midnightblue" points="1455.32,-100.657 1447.22,-93.8283 1449.29,-104.218 1455.32,-100.657"/>
</g>
<!-- Node34 -->
<g id="node34" class="node"><title>Node34</title>
<polygon fill="none" stroke="#bfbfbf" points="1519.5,-74.5 1519.5,-93.5 1568.5,-93.5 1568.5,-74.5 1519.5,-74.5"/>
<text text-anchor="middle" x="1544" y="-81.5" font-family="Helvetica,sans-Serif" font-size="10.00">cassert</text>
</g>
<!-- Node33&#45;&gt;Node34 -->
<g id="edge43" class="edge"><title>Node33&#45;&gt;Node34</title>
<path fill="none" stroke="midnightblue" d="M1494.67,-136.679C1504.59,-126.286 1518.03,-112.208 1528.37,-101.37"/>
<polygon fill="midnightblue" stroke="midnightblue" points="1531.2,-103.479 1535.57,-93.8283 1526.14,-98.6452 1531.2,-103.479"/>
</g>
<!-- Node35 -->
<g id="node35" class="node"><title>Node35</title>
<polygon fill="none" stroke="#bfbfbf" points="1587,-74.5 1587,-93.5 1633,-93.5 1633,-74.5 1587,-74.5"/>
<text text-anchor="middle" x="1610" y="-81.5" font-family="Helvetica,sans-Serif" font-size="10.00">cstdint</text>
</g>
<!-- Node33&#45;&gt;Node35 -->
<g id="edge44" class="edge"><title>Node33&#45;&gt;Node35</title>
<path fill="none" stroke="midnightblue" d="M1508.67,-136.841C1530.99,-125.425 1562.14,-109.485 1584,-98.3033"/>
<polygon fill="midnightblue" stroke="midnightblue" points="1585.72,-101.353 1593.03,-93.6819 1582.53,-95.1208 1585.72,-101.353"/>
</g>
<!-- Node36 -->
<g id="node36" class="node"><title>Node36</title>
<polygon fill="none" stroke="#bfbfbf" points="1651,-74.5 1651,-93.5 1713,-93.5 1713,-74.5 1651,-74.5"/>
<text text-anchor="middle" x="1682" y="-81.5" font-family="Helvetica,sans-Serif" font-size="10.00">type_traits</text>
</g>
<!-- Node33&#45;&gt;Node36 -->
<g id="edge45" class="edge"><title>Node33&#45;&gt;Node36</title>
<path fill="none" stroke="midnightblue" d="M1527.71,-136.907C1559.96,-127.005 1603.76,-113.217 1642,-100 1644.6,-99.0998 1647.3,-98.1449 1649.99,-97.1702"/>
<polygon fill="midnightblue" stroke="midnightblue" points="1651.47,-100.355 1659.65,-93.6156 1649.06,-93.7858 1651.47,-100.355"/>
</g>
<!-- Node37&#45;&gt;Node4 -->
<g id="edge51" class="edge"><title>Node37&#45;&gt;Node4</title>
<path fill="none" stroke="midnightblue" d="M1799.58,-346.439C1824.4,-339.445 1851.97,-326.799 1867,-304 1911.14,-237.055 1842.9,-140.314 1811.47,-101.768"/>
<polygon fill="midnightblue" stroke="midnightblue" points="1813.8,-99.0938 1804.7,-93.6647 1808.43,-103.582 1813.8,-99.0938"/>
</g>
<!-- Node38&#45;&gt;Node4 -->
<g id="edge53" class="edge"><title>Node38&#45;&gt;Node4</title>
<path fill="none" stroke="midnightblue" d="M1928.45,-346.5C1926.04,-315.216 1913.99,-204.736 1861,-136 1849.72,-121.372 1833.4,-108.449 1820.06,-99.2716"/>
<polygon fill="midnightblue" stroke="midnightblue" points="1821.67,-96.1408 1811.39,-93.5414 1817.8,-101.979 1821.67,-96.1408"/>
</g>
</g>
</svg>
        <g id="navigator" transform="translate(0 0)" fill="#404254">
                <rect fill="#f2f5e9" fill-opacity="0.5" stroke="#606060" stroke-width=".5" x="0" y="0" width="60" height="60"/>
                <use id="zoomplus" xlink:href="#zoomPlus" x="17" y="9" onmousedown="handleZoom(evt,'in')"/>
                <use id="zoomminus" xlink:href="#zoomMin" x="42" y="9" onmousedown="handleZoom(evt,'out')"/>
                <use id="reset" xlink:href="#resetDef" x="30" y="36" onmousedown="handleReset()"/>
                <g id="arrowUp" xlink:href="#dirArrow" transform="translate(30 24)" onmousedown="handlePan(0,-1)">
                  <use xlink:href="#rim" fill="#404040">
                        <set attributeName="fill" to="#808080" begin="arrowUp.mouseover" end="arrowUp.mouseout"/>
                  </use>
                  <path fill="none" stroke="white" stroke-width="1.5" d="M0,-3.0v7 M-2.5,-0.5L0,-3.0L2.5,-0.5"/>
                </g>
                <g id="arrowRight" xlink:href="#dirArrow" transform="rotate(90) translate(36 -43)" onmousedown="handlePan(1,0)">
                  <use xlink:href="#rim" fill="#404040">
                        <set attributeName="fill" to="#808080" begin="arrowRight.mouseover" end="arrowRight.mouseout"/>
                  </use>
                  <path fill="none" stroke="white" stroke-width="1.5" d="M0,-3.0v7 M-2.5,-0.5L0,-3.0L2.5,-0.5"/>
                </g>
                <g id="arrowDown" xlink:href="#dirArrow" transform="rotate(180) translate(-30 -48)" onmousedown="handlePan(0,1)">
                  <use xlink:href="#rim" fill="#404040">
                        <set attributeName="fill" to="#808080" begin="arrowDown.mouseover" end="arrowDown.mouseout"/>
                  </use>
                  <path fill="none" stroke="white" stroke-width="1.5" d="M0,-3.0v7 M-2.5,-0.5L0,-3.0L2.5,-0.5"/>
                </g>
                <g id="arrowLeft" xlink:href="#dirArrow" transform="rotate(270) translate(-36 17)" onmousedown="handlePan(-1,0)">
                  <use xlink:href="#rim" fill="#404040">
                        <set attributeName="fill" to="#808080" begin="arrowLeft.mouseover" end="arrowLeft.mouseout"/>
                  </use>
                  <path fill="none" stroke="white" stroke-width="1.5" d="M0,-3.0v7 M-2.5,-0.5L0,-3.0L2.5,-0.5"/>
                </g>
        </g>
        <svg viewBox="0 0 15 15" width="100%" height="30px" preserveAspectRatio="xMaxYMin meet">
         <g id="arrow_out" transform="scale(0.3 0.3)">
          <a xlink:href="TrackTPCITS_8cxx__incl_org.svg" target="_base">
           <rect id="button" ry="5" rx="5" y="6" x="6" height="38" width="38"
                fill="#f2f5e9" fill-opacity="0.5" stroke="#606060" stroke-width="1.0"/>
           <path id="arrow"
             d="M 11.500037,31.436501 C 11.940474,20.09759 22.043105,11.32322 32.158766,21.979434 L 37.068811,17.246167 C 37.068811,17.246167 37.088388,32 37.088388,32 L 22.160133,31.978069 C 22.160133,31.978069 26.997745,27.140456 26.997745,27.140456 C 18.528582,18.264221 13.291696,25.230495 11.500037,31.436501 z"
             style="fill:#404040;"/>
          </a>
         </g>
        </svg>
</svg>
