<?xml version="1.0" encoding="UTF-8" standalone="no"?>
<!DOCTYPE svg PUBLIC "-//W3C//DTD SVG 1.1//EN"
 "http://www.w3.org/Graphics/SVG/1.1/DTD/svg11.dtd">
<!-- Generated by graphviz version 2.36.0 (20140111.2315)
 -->
<!-- Title: /home/travis/build/AliceO2Group/AliceO2/Detectors/Base/src/Detector.cxx Pages: 1 -->
<!--zoomable 366 -->
<svg id="main" version="1.1" xmlns="http://www.w3.org/2000/svg" xmlns:xlink="http://www.w3.org/1999/xlink" xml:space="preserve" onload="init(evt)">
<style type="text/css"><![CDATA[
.edge:hover path { stroke: red; }
.edge:hover polygon { stroke: red; fill: red; }
]]></style>
<script type="text/javascript"><![CDATA[
var edges = document.getElementsByTagName('g');
if (edges && edges.length) {
  for (var i=0;i<edges.length;i++) {
    if (edges[i].id.substr(0,4)=='edge') {
      edges[i].setAttribute('class','edge');
    }
  }
}
]]></script>
        <defs>
                <circle id="rim" cx="0" cy="0" r="7"/>
                <circle id="rim2" cx="0" cy="0" r="3.5"/>
                <g id="zoomPlus">
                        <use xlink:href="#rim" fill="#404040">
                                <set attributeName="fill" to="#808080" begin="zoomplus.mouseover" end="zoomplus.mouseout"/>
                        </use>
                        <path d="M-4,0h8M0,-4v8" fill="none" stroke="white" stroke-width="1.5" pointer-events="none"/>
                </g>
                <g id="zoomMin">
                        <use xlink:href="#rim" fill="#404040">
                                <set attributeName="fill" to="#808080" begin="zoomminus.mouseover" end="zoomminus.mouseout"/>
                        </use>
                        <path d="M-4,0h8" fill="none" stroke="white" stroke-width="1.5" pointer-events="none"/>
                </g>
                <g id="dirArrow">
                        <path fill="none" stroke="white" stroke-width="1.5" d="M0,-3.0v7 M-2.5,-0.5L0,-3.0L2.5,-0.5"/>
                </g>
               <g id="resetDef">
                       <use xlink:href="#rim2" fill="#404040">
                               <set attributeName="fill" to="#808080" begin="reset.mouseover" end="reset.mouseout"/>
                       </use>
               </g>
        </defs>

<script type="text/javascript">
var viewWidth = 2602;
var viewHeight = 366;
var sectionId = 'dynsection-0';
</script>
<script xlink:href="../../svgpan.js"/>
<svg id="graph" class="graph">
<g id="viewport">
<title>/home/travis/build/AliceO2Group/AliceO2/Detectors/Base/src/Detector.cxx</title>
<!-- Node1 -->
<g id="node1" class="node"><title>Node1</title>
<polygon fill="#bfbfbf" stroke="black" points="991,-316.5 991,-357.5 1155,-357.5 1155,-316.5 991,-316.5"/>
<text text-anchor="start" x="999" y="-345.5" font-family="Helvetica,sans-Serif" font-size="10.00">/home/travis/build</text>
<text text-anchor="start" x="999" y="-334.5" font-family="Helvetica,sans-Serif" font-size="10.00">/AliceO2Group/AliceO2</text>
<text text-anchor="middle" x="1073" y="-323.5" font-family="Helvetica,sans-Serif" font-size="10.00">/Detectors/Base/src/Detector.cxx</text>
</g>
<!-- Node2 -->
<g id="node2" class="node"><title>Node2</title>
<g id="a_node2"><a xlink:href="../../d1/d3a/Base_2include_2DetectorsBase_2Detector_8h.html" target="_top" xlink:title="DetectorsBase/Detector.h">
<polygon fill="none" stroke="black" points="620.5,-254.5 620.5,-273.5 751.5,-273.5 751.5,-254.5 620.5,-254.5"/>
<text text-anchor="middle" x="686" y="-261.5" font-family="Helvetica,sans-Serif" font-size="10.00">DetectorsBase/Detector.h</text>
</a>
</g>
</g>
<!-- Node1&#45;&gt;Node2 -->
<g id="edge1" class="edge"><title>Node1&#45;&gt;Node2</title>
<path fill="none" stroke="midnightblue" d="M990.927,-320.943C916.267,-307.245 808.032,-287.388 742.604,-275.385"/>
<polygon fill="midnightblue" stroke="midnightblue" points="742.95,-271.89 732.483,-273.528 741.687,-278.775 742.95,-271.89"/>
</g>
<!-- Node8 -->
<g id="node8" class="node"><title>Node8</title>
<g id="a_node8"><a xlink:href="../../d0/d9a/MaterialManager_8h.html" target="_top" xlink:title="DetectorsBase/MaterialManager.h">
<polygon fill="none" stroke="black" points="741.5,-192.5 741.5,-211.5 906.5,-211.5 906.5,-192.5 741.5,-192.5"/>
<text text-anchor="middle" x="824" y="-199.5" font-family="Helvetica,sans-Serif" font-size="10.00">DetectorsBase/MaterialManager.h</text>
</a>
</g>
</g>
<!-- Node1&#45;&gt;Node8 -->
<g id="edge16" class="edge"><title>Node1&#45;&gt;Node8</title>
<path fill="none" stroke="midnightblue" d="M1032.58,-316.38C1011.18,-305.842 984.524,-292.483 961,-280 920.684,-258.607 874.561,-232.295 847.433,-216.627"/>
<polygon fill="midnightblue" stroke="midnightblue" points="849.078,-213.535 838.67,-211.554 845.571,-219.593 849.078,-213.535"/>
</g>
<!-- Node14 -->
<g id="node14" class="node"><title>Node14</title>
<polygon fill="none" stroke="#bfbfbf" points="970,-254.5 970,-273.5 1044,-273.5 1044,-254.5 970,-254.5"/>
<text text-anchor="middle" x="1007" y="-261.5" font-family="Helvetica,sans-Serif" font-size="10.00">TVirtualMC.h</text>
</g>
<!-- Node1&#45;&gt;Node14 -->
<g id="edge15" class="edge"><title>Node1&#45;&gt;Node14</title>
<path fill="none" stroke="midnightblue" d="M1054.62,-316.223C1044.38,-305.214 1031.8,-291.679 1022.14,-281.287"/>
<polygon fill="midnightblue" stroke="midnightblue" points="1024.49,-278.676 1015.12,-273.735 1019.36,-283.442 1024.49,-278.676"/>
</g>
<!-- Node15 -->
<g id="node15" class="node"><title>Node15</title>
<g id="a_node15"><a xlink:href="../../d6/d31/DetID_8h.html" target="_top" xlink:title="DetectorsCommonDataFormats\l/DetID.h">
<polygon fill="none" stroke="black" points="1062,-249 1062,-279 1218,-279 1218,-249 1062,-249"/>
<text text-anchor="start" x="1070" y="-267" font-family="Helvetica,sans-Serif" font-size="10.00">DetectorsCommonDataFormats</text>
<text text-anchor="middle" x="1140" y="-256" font-family="Helvetica,sans-Serif" font-size="10.00">/DetID.h</text>
</a>
</g>
</g>
<!-- Node1&#45;&gt;Node15 -->
<g id="edge17" class="edge"><title>Node1&#45;&gt;Node15</title>
<path fill="none" stroke="midnightblue" d="M1091.66,-316.223C1100.38,-306.99 1110.77,-295.98 1119.68,-286.538"/>
<polygon fill="midnightblue" stroke="midnightblue" points="1122.43,-288.724 1126.74,-279.049 1117.33,-283.919 1122.43,-288.724"/>
</g>
<!-- Node23 -->
<g id="node23" class="node"><title>Node23</title>
<g id="a_node23"><a xlink:href="../../db/d4b/MagneticField_8h.html" target="_top" xlink:title="Definition of the MagF class. ">
<polygon fill="none" stroke="black" points="1850,-254.5 1850,-273.5 1960,-273.5 1960,-254.5 1850,-254.5"/>
<text text-anchor="middle" x="1905" y="-261.5" font-family="Helvetica,sans-Serif" font-size="10.00">Field/MagneticField.h</text>
</a>
</g>
</g>
<!-- Node1&#45;&gt;Node23 -->
<g id="edge28" class="edge"><title>Node1&#45;&gt;Node23</title>
<path fill="none" stroke="midnightblue" d="M1155.05,-328.998C1320.26,-314.899 1690,-283.347 1839.96,-270.551"/>
<polygon fill="midnightblue" stroke="midnightblue" points="1840.27,-274.036 1849.94,-269.699 1839.68,-267.062 1840.27,-274.036"/>
</g>
<!-- Node27 -->
<g id="node27" class="node"><title>Node27</title>
<polygon fill="none" stroke="#bfbfbf" points="2189,-74.5 2189,-93.5 2245,-93.5 2245,-74.5 2189,-74.5"/>
<text text-anchor="middle" x="2217" y="-81.5" font-family="Helvetica,sans-Serif" font-size="10.00">TString.h</text>
</g>
<!-- Node1&#45;&gt;Node27 -->
<g id="edge68" class="edge"><title>Node1&#45;&gt;Node27</title>
<path fill="none" stroke="midnightblue" d="M1155.13,-333.47C1345.87,-327.174 1814.31,-309.174 1969,-280 2066.24,-261.662 2112.24,-283.154 2181,-212 2209.71,-182.296 2215.84,-131.46 2216.95,-103.976"/>
<polygon fill="midnightblue" stroke="midnightblue" points="2220.45,-103.83 2217.17,-93.7565 2213.46,-103.678 2220.45,-103.83"/>
</g>
<!-- Node3 -->
<g id="node3" class="node"><title>Node3</title>
<polygon fill="none" stroke="#bfbfbf" points="727.5,-136.5 727.5,-155.5 762.5,-155.5 762.5,-136.5 727.5,-136.5"/>
<text text-anchor="middle" x="745" y="-143.5" font-family="Helvetica,sans-Serif" font-size="10.00">map</text>
</g>
<!-- Node2&#45;&gt;Node3 -->
<g id="edge2" class="edge"><title>Node2&#45;&gt;Node3</title>
<path fill="none" stroke="midnightblue" d="M690.435,-254.281C700.092,-235.294 723.184,-189.892 736.017,-164.662"/>
<polygon fill="midnightblue" stroke="midnightblue" points="739.26,-166.005 740.674,-155.505 733.021,-162.831 739.26,-166.005"/>
</g>
<!-- Node4 -->
<g id="node4" class="node"><title>Node4</title>
<polygon fill="none" stroke="#bfbfbf" points="285,-192.5 285,-211.5 329,-211.5 329,-192.5 285,-192.5"/>
<text text-anchor="middle" x="307" y="-199.5" font-family="Helvetica,sans-Serif" font-size="10.00">vector</text>
</g>
<!-- Node2&#45;&gt;Node4 -->
<g id="edge3" class="edge"><title>Node2&#45;&gt;Node4</title>
<path fill="none" stroke="midnightblue" d="M620.192,-256.292C551.844,-248.671 441.739,-234.564 339.093,-212.237"/>
<polygon fill="midnightblue" stroke="midnightblue" points="339.704,-208.787 329.185,-210.05 338.196,-215.623 339.704,-208.787"/>
</g>
<!-- Node5 -->
<g id="node5" class="node"><title>Node5</title>
<polygon fill="none" stroke="#bfbfbf" points="1179,-192.5 1179,-211.5 1231,-211.5 1231,-192.5 1179,-192.5"/>
<text text-anchor="middle" x="1205" y="-199.5" font-family="Helvetica,sans-Serif" font-size="10.00">memory</text>
</g>
<!-- Node2&#45;&gt;Node5 -->
<g id="edge4" class="edge"><title>Node2&#45;&gt;Node5</title>
<path fill="none" stroke="midnightblue" d="M751.639,-258.99C842.928,-252.766 1013.47,-238.799 1168.55,-211.811"/>
<polygon fill="midnightblue" stroke="midnightblue" points="1169.5,-215.197 1178.75,-210.014 1168.29,-208.303 1169.5,-215.197"/>
</g>
<!-- Node6 -->
<g id="node6" class="node"><title>Node6</title>
<polygon fill="none" stroke="#bfbfbf" points="346.5,-192.5 346.5,-211.5 425.5,-211.5 425.5,-192.5 346.5,-192.5"/>
<text text-anchor="middle" x="386" y="-199.5" font-family="Helvetica,sans-Serif" font-size="10.00">FairDetector.h</text>
</g>
<!-- Node2&#45;&gt;Node6 -->
<g id="edge5" class="edge"><title>Node2&#45;&gt;Node6</title>
<path fill="none" stroke="midnightblue" d="M643.336,-254.467C588.551,-243.51 493.651,-224.53 435.674,-212.935"/>
<polygon fill="midnightblue" stroke="midnightblue" points="436.139,-209.459 425.647,-210.929 434.767,-216.323 436.139,-209.459"/>
</g>
<!-- Node7 -->
<g id="node7" class="node"><title>Node7</title>
<polygon fill="none" stroke="#bfbfbf" points="444,-192.5 444,-211.5 544,-211.5 544,-192.5 444,-192.5"/>
<text text-anchor="middle" x="494" y="-199.5" font-family="Helvetica,sans-Serif" font-size="10.00">FairRootManager.h</text>
</g>
<!-- Node2&#45;&gt;Node7 -->
<g id="edge6" class="edge"><title>Node2&#45;&gt;Node7</title>
<path fill="none" stroke="midnightblue" d="M658.491,-254.403C625.129,-243.978 568.738,-226.356 531.437,-214.699"/>
<polygon fill="midnightblue" stroke="midnightblue" points="532.047,-211.223 521.458,-211.581 529.959,-217.904 532.047,-211.223"/>
</g>
<!-- Node2&#45;&gt;Node8 -->
<g id="edge7" class="edge"><title>Node2&#45;&gt;Node8</title>
<path fill="none" stroke="midnightblue" d="M705.772,-254.403C729.136,-244.245 768.214,-227.255 795.003,-215.607"/>
<polygon fill="midnightblue" stroke="midnightblue" points="796.489,-218.778 804.265,-211.581 793.698,-212.358 796.489,-218.778"/>
</g>
<!-- Node9 -->
<g id="node9" class="node"><title>Node9</title>
<polygon fill="none" stroke="#bfbfbf" points="1958,-6.5 1958,-25.5 2014,-25.5 2014,-6.5 1958,-6.5"/>
<text text-anchor="middle" x="1986" y="-13.5" font-family="Helvetica,sans-Serif" font-size="10.00">Rtypes.h</text>
</g>
<!-- Node2&#45;&gt;Node9 -->
<g id="edge10" class="edge"><title>Node2&#45;&gt;Node9</title>
<path fill="none" stroke="midnightblue" d="M620.255,-262.211C493.605,-259.451 231.977,-247.097 276,-192 431.876,3.0878 576.499,-101.162 824,-68 1048.7,-37.893 1773.16,-21.3651 1947.84,-17.7574"/>
<polygon fill="midnightblue" stroke="midnightblue" points="1947.92,-21.2565 1957.85,-17.5524 1947.78,-14.258 1947.92,-21.2565"/>
</g>
<!-- Node10 -->
<g id="node10" class="node"><title>Node10</title>
<polygon fill="none" stroke="#bfbfbf" points="562.5,-192.5 562.5,-211.5 615.5,-211.5 615.5,-192.5 562.5,-192.5"/>
<text text-anchor="middle" x="589" y="-199.5" font-family="Helvetica,sans-Serif" font-size="10.00">cxxabi.h</text>
</g>
<!-- Node2&#45;&gt;Node10 -->
<g id="edge11" class="edge"><title>Node2&#45;&gt;Node10</title>
<path fill="none" stroke="midnightblue" d="M672.102,-254.403C656.256,-244.601 630.126,-228.439 611.395,-216.853"/>
<polygon fill="midnightblue" stroke="midnightblue" points="613.218,-213.865 602.872,-211.581 609.535,-219.818 613.218,-213.865"/>
</g>
<!-- Node11 -->
<g id="node11" class="node"><title>Node11</title>
<polygon fill="none" stroke="#bfbfbf" points="633.5,-192.5 633.5,-211.5 684.5,-211.5 684.5,-192.5 633.5,-192.5"/>
<text text-anchor="middle" x="659" y="-199.5" font-family="Helvetica,sans-Serif" font-size="10.00">typeinfo</text>
</g>
<!-- Node2&#45;&gt;Node11 -->
<g id="edge12" class="edge"><title>Node2&#45;&gt;Node11</title>
<path fill="none" stroke="midnightblue" d="M682.132,-254.403C678.202,-245.671 672,-231.889 667.007,-220.794"/>
<polygon fill="midnightblue" stroke="midnightblue" points="670.157,-219.264 662.861,-211.581 663.773,-222.136 670.157,-219.264"/>
</g>
<!-- Node12 -->
<g id="node12" class="node"><title>Node12</title>
<polygon fill="none" stroke="#bfbfbf" points="963,-192.5 963,-211.5 1025,-211.5 1025,-192.5 963,-192.5"/>
<text text-anchor="middle" x="994" y="-199.5" font-family="Helvetica,sans-Serif" font-size="10.00">type_traits</text>
</g>
<!-- Node2&#45;&gt;Node12 -->
<g id="edge13" class="edge"><title>Node2&#45;&gt;Node12</title>
<path fill="none" stroke="midnightblue" d="M730.689,-254.417C783.029,-244.345 872.336,-227.1 949,-212 950.094,-211.784 951.204,-211.566 952.323,-211.344"/>
<polygon fill="midnightblue" stroke="midnightblue" points="953.406,-214.698 962.533,-209.318 952.043,-207.832 953.406,-214.698"/>
</g>
<!-- Node13 -->
<g id="node13" class="node"><title>Node13</title>
<polygon fill="none" stroke="#bfbfbf" points="1255.5,-136.5 1255.5,-155.5 1296.5,-155.5 1296.5,-136.5 1255.5,-136.5"/>
<text text-anchor="middle" x="1276" y="-143.5" font-family="Helvetica,sans-Serif" font-size="10.00">string</text>
</g>
<!-- Node2&#45;&gt;Node13 -->
<g id="edge14" class="edge"><title>Node2&#45;&gt;Node13</title>
<path fill="none" stroke="midnightblue" d="M743.133,-254.44C790.164,-246.412 858.109,-232.541 915,-212 933.322,-205.385 935.382,-197.728 954,-192 1078.56,-153.679 1117.35,-182.251 1245,-156 1245.21,-155.956 1245.43,-155.912 1245.64,-155.867"/>
<polygon fill="midnightblue" stroke="midnightblue" points="1246.56,-159.245 1255.44,-153.466 1244.89,-152.446 1246.56,-159.245"/>
</g>
<!-- Node8&#45;&gt;Node3 -->
<g id="edge9" class="edge"><title>Node8&#45;&gt;Node3</title>
<path fill="none" stroke="midnightblue" d="M811.307,-192.324C799.099,-183.979 780.422,-171.212 765.997,-161.352"/>
<polygon fill="midnightblue" stroke="midnightblue" points="767.892,-158.408 757.661,-155.655 763.942,-164.187 767.892,-158.408"/>
</g>
<!-- Node8&#45;&gt;Node9 -->
<g id="edge8" class="edge"><title>Node8&#45;&gt;Node9</title>
<path fill="none" stroke="midnightblue" d="M822.397,-192.461C818.449,-168.5 811.085,-100.281 848,-68 890.281,-31.0265 1753.9,-19.5102 1947.65,-17.3872"/>
<polygon fill="midnightblue" stroke="midnightblue" points="1947.95,-20.8843 1957.91,-17.2768 1947.87,-13.8847 1947.95,-20.8843"/>
</g>
<!-- Node15&#45;&gt;Node9 -->
<g id="edge18" class="edge"><title>Node15&#45;&gt;Node9</title>
<path fill="none" stroke="midnightblue" d="M1119.25,-248.865C1097.82,-234.347 1063.31,-211.22 1033,-192 959.369,-145.316 820.79,-131.053 881,-68 918.606,-28.618 1757.15,-18.9852 1947.71,-17.3015"/>
<polygon fill="midnightblue" stroke="midnightblue" points="1947.84,-20.8006 1957.81,-17.2144 1947.78,-13.8009 1947.84,-20.8006"/>
</g>
<!-- Node15&#45;&gt;Node12 -->
<g id="edge23" class="edge"><title>Node15&#45;&gt;Node12</title>
<path fill="none" stroke="midnightblue" d="M1105.77,-248.933C1081.14,-238.81 1048.21,-225.278 1024.48,-215.527"/>
<polygon fill="midnightblue" stroke="midnightblue" points="1025.51,-212.164 1014.93,-211.6 1022.85,-218.639 1025.51,-212.164"/>
</g>
<!-- Node16 -->
<g id="node16" class="node"><title>Node16</title>
<polygon fill="none" stroke="#bfbfbf" points="1094,-136.5 1094,-155.5 1132,-155.5 1132,-136.5 1094,-136.5"/>
<text text-anchor="middle" x="1113" y="-143.5" font-family="Helvetica,sans-Serif" font-size="10.00">array</text>
</g>
<!-- Node15&#45;&gt;Node16 -->
<g id="edge19" class="edge"><title>Node15&#45;&gt;Node16</title>
<path fill="none" stroke="midnightblue" d="M1128.82,-248.773C1121.91,-239.031 1113.67,-225.48 1110,-212 1105.87,-196.825 1107.12,-178.932 1109.12,-165.765"/>
<polygon fill="midnightblue" stroke="midnightblue" points="1112.62,-166.06 1110.95,-155.597 1105.73,-164.817 1112.62,-166.06"/>
</g>
<!-- Node17 -->
<g id="node17" class="node"><title>Node17</title>
<polygon fill="none" stroke="#bfbfbf" points="1119.5,-192.5 1119.5,-211.5 1160.5,-211.5 1160.5,-192.5 1119.5,-192.5"/>
<text text-anchor="middle" x="1140" y="-199.5" font-family="Helvetica,sans-Serif" font-size="10.00">bitset</text>
</g>
<!-- Node15&#45;&gt;Node17 -->
<g id="edge20" class="edge"><title>Node15&#45;&gt;Node17</title>
<path fill="none" stroke="midnightblue" d="M1140,-248.781C1140,-240.781 1140,-230.689 1140,-222.017"/>
<polygon fill="midnightblue" stroke="midnightblue" points="1143.5,-221.73 1140,-211.731 1136.5,-221.731 1143.5,-221.73"/>
</g>
<!-- Node18 -->
<g id="node18" class="node"><title>Node18</title>
<polygon fill="none" stroke="#bfbfbf" points="1249.5,-192.5 1249.5,-211.5 1298.5,-211.5 1298.5,-192.5 1249.5,-192.5"/>
<text text-anchor="middle" x="1274" y="-199.5" font-family="Helvetica,sans-Serif" font-size="10.00">cassert</text>
</g>
<!-- Node15&#45;&gt;Node18 -->
<g id="edge21" class="edge"><title>Node15&#45;&gt;Node18</title>
<path fill="none" stroke="midnightblue" d="M1171.42,-248.933C1193.82,-238.9 1223.71,-225.519 1245.44,-215.789"/>
<polygon fill="midnightblue" stroke="midnightblue" points="1247.1,-218.881 1254.79,-211.6 1244.24,-212.492 1247.1,-218.881"/>
</g>
<!-- Node19 -->
<g id="node19" class="node"><title>Node19</title>
<polygon fill="none" stroke="#bfbfbf" points="1317,-192.5 1317,-211.5 1363,-211.5 1363,-192.5 1317,-192.5"/>
<text text-anchor="middle" x="1340" y="-199.5" font-family="Helvetica,sans-Serif" font-size="10.00">cstdint</text>
</g>
<!-- Node15&#45;&gt;Node19 -->
<g id="edge22" class="edge"><title>Node15&#45;&gt;Node19</title>
<path fill="none" stroke="midnightblue" d="M1186.89,-248.933C1223.77,-237.869 1274.23,-222.731 1306.97,-212.91"/>
<polygon fill="midnightblue" stroke="midnightblue" points="1308.36,-216.146 1316.93,-209.92 1306.35,-209.441 1308.36,-216.146"/>
</g>
<!-- Node20 -->
<g id="node20" class="node"><title>Node20</title>
<g id="a_node20"><a xlink:href="../../d9/d52/Common_2MathUtils_2include_2MathUtils_2Utils_8h.html" target="_top" xlink:title="MathUtils/Utils.h">
<polygon fill="none" stroke="black" points="1381,-192.5 1381,-211.5 1471,-211.5 1471,-192.5 1381,-192.5"/>
<text text-anchor="middle" x="1426" y="-199.5" font-family="Helvetica,sans-Serif" font-size="10.00">MathUtils/Utils.h</text>
</a>
</g>
</g>
<!-- Node15&#45;&gt;Node20 -->
<g id="edge24" class="edge"><title>Node15&#45;&gt;Node20</title>
<path fill="none" stroke="midnightblue" d="M1207.05,-248.933C1258.58,-238.122 1328.65,-223.424 1375.5,-213.594"/>
<polygon fill="midnightblue" stroke="midnightblue" points="1376.35,-216.991 1385.42,-211.513 1374.92,-210.141 1376.35,-216.991"/>
</g>
<!-- Node20&#45;&gt;Node16 -->
<g id="edge25" class="edge"><title>Node20&#45;&gt;Node16</title>
<path fill="none" stroke="midnightblue" d="M1380.82,-193.206C1315.59,-181.952 1196.86,-161.468 1142.1,-152.02"/>
<polygon fill="midnightblue" stroke="midnightblue" points="1142.48,-148.534 1132.03,-150.283 1141.29,-155.433 1142.48,-148.534"/>
</g>
<!-- Node21 -->
<g id="node21" class="node"><title>Node21</title>
<polygon fill="none" stroke="#bfbfbf" points="1193,-136.5 1193,-155.5 1237,-155.5 1237,-136.5 1193,-136.5"/>
<text text-anchor="middle" x="1215" y="-143.5" font-family="Helvetica,sans-Serif" font-size="10.00">cmath</text>
</g>
<!-- Node20&#45;&gt;Node21 -->
<g id="edge26" class="edge"><title>Node20&#45;&gt;Node21</title>
<path fill="none" stroke="midnightblue" d="M1390.04,-192.431C1355.69,-184.153 1302.24,-171.03 1247.24,-156.266"/>
<polygon fill="midnightblue" stroke="midnightblue" points="1247.89,-152.815 1237.32,-153.589 1246.07,-159.574 1247.89,-152.815"/>
</g>
<!-- Node22 -->
<g id="node22" class="node"><title>Node22</title>
<g id="a_node22"><a xlink:href="../../d6/d84/MathConstants_8h.html" target="_top" xlink:title="useful math constants ">
<polygon fill="none" stroke="black" points="1314.5,-136.5 1314.5,-155.5 1493.5,-155.5 1493.5,-136.5 1314.5,-136.5"/>
<text text-anchor="middle" x="1404" y="-143.5" font-family="Helvetica,sans-Serif" font-size="10.00">CommonConstants/MathConstants.h</text>
</a>
</g>
</g>
<!-- Node20&#45;&gt;Node22 -->
<g id="edge27" class="edge"><title>Node20&#45;&gt;Node22</title>
<path fill="none" stroke="midnightblue" d="M1422.37,-192.083C1419.39,-184.77 1415.07,-174.181 1411.38,-165.103"/>
<polygon fill="midnightblue" stroke="midnightblue" points="1414.58,-163.691 1407.57,-155.751 1408.1,-166.333 1414.58,-163.691"/>
</g>
<!-- Node23&#45;&gt;Node5 -->
<g id="edge67" class="edge"><title>Node23&#45;&gt;Node5</title>
<path fill="none" stroke="midnightblue" d="M1849.87,-262.03C1737.07,-259.341 1471.84,-249.413 1241.18,-211.914"/>
<polygon fill="midnightblue" stroke="midnightblue" points="1241.7,-208.452 1231.27,-210.281 1240.57,-215.359 1241.7,-208.452"/>
</g>
<!-- Node23&#45;&gt;Node9 -->
<g id="edge65" class="edge"><title>Node23&#45;&gt;Node9</title>
<path fill="none" stroke="midnightblue" d="M1893.58,-254.476C1877.49,-241.364 1851.34,-215.314 1863,-192 1874.93,-168.149 1889.81,-172.186 1911,-156 1943.22,-131.393 1964.53,-136.09 1983,-100 1993.29,-79.888 1992.11,-53.3041 1989.64,-35.7039"/>
<polygon fill="midnightblue" stroke="midnightblue" points="1993.05,-34.8756 1987.94,-25.5936 1986.15,-36.0353 1993.05,-34.8756"/>
</g>
<!-- Node24 -->
<g id="node24" class="node"><title>Node24</title>
<polygon fill="none" stroke="#bfbfbf" points="2091,-192.5 2091,-211.5 2153,-211.5 2153,-192.5 2091,-192.5"/>
<text text-anchor="middle" x="2122" y="-199.5" font-family="Helvetica,sans-Serif" font-size="10.00">FairField.h</text>
</g>
<!-- Node23&#45;&gt;Node24 -->
<g id="edge29" class="edge"><title>Node23&#45;&gt;Node24</title>
<path fill="none" stroke="midnightblue" d="M1936.09,-254.403C1974.28,-243.844 2039.17,-225.903 2081.3,-214.254"/>
<polygon fill="midnightblue" stroke="midnightblue" points="2082.26,-217.619 2090.97,-211.581 2080.4,-210.872 2082.26,-217.619"/>
</g>
<!-- Node25 -->
<g id="node25" class="node"><title>Node25</title>
<g id="a_node25"><a xlink:href="../../d3/d91/MagFieldParam_8h.html" target="_top" xlink:title="Definition of the MagFieldParam: container for ALICE mag. field parameters. ">
<polygon fill="none" stroke="black" points="1955.5,-192.5 1955.5,-211.5 2072.5,-211.5 2072.5,-192.5 1955.5,-192.5"/>
<text text-anchor="middle" x="2014" y="-199.5" font-family="Helvetica,sans-Serif" font-size="10.00">Field/MagFieldParam.h</text>
</a>
</g>
</g>
<!-- Node23&#45;&gt;Node25 -->
<g id="edge30" class="edge"><title>Node23&#45;&gt;Node25</title>
<path fill="none" stroke="midnightblue" d="M1920.62,-254.403C1938.59,-244.512 1968.32,-228.144 1989.41,-216.538"/>
<polygon fill="midnightblue" stroke="midnightblue" points="1991.34,-219.469 1998.41,-211.581 1987.96,-213.337 1991.34,-219.469"/>
</g>
<!-- Node28 -->
<g id="node28" class="node"><title>Node28</title>
<g id="a_node28"><a xlink:href="../../dd/dfb/MagneticWrapperChebyshev_8h.html" target="_top" xlink:title="Field/MagneticWrapperChebyshev.h">
<polygon fill="none" stroke="black" points="2285.5,-192.5 2285.5,-211.5 2460.5,-211.5 2460.5,-192.5 2285.5,-192.5"/>
<text text-anchor="middle" x="2373" y="-199.5" font-family="Helvetica,sans-Serif" font-size="10.00">Field/MagneticWrapperChebyshev.h</text>
</a>
</g>
</g>
<!-- Node23&#45;&gt;Node28 -->
<g id="edge33" class="edge"><title>Node23&#45;&gt;Node28</title>
<path fill="none" stroke="midnightblue" d="M1960.06,-255.941C2043.41,-245.256 2201.87,-224.94 2296.41,-212.819"/>
<polygon fill="midnightblue" stroke="midnightblue" points="2297.01,-216.271 2306.49,-211.527 2296.12,-209.328 2297.01,-216.271"/>
</g>
<!-- Node30 -->
<g id="node30" class="node"><title>Node30</title>
<polygon fill="none" stroke="#bfbfbf" points="2410,-6.5 2410,-25.5 2472,-25.5 2472,-6.5 2410,-6.5"/>
<text text-anchor="middle" x="2441" y="-13.5" font-family="Helvetica,sans-Serif" font-size="10.00">TNamed.h</text>
</g>
<!-- Node23&#45;&gt;Node30 -->
<g id="edge66" class="edge"><title>Node23&#45;&gt;Node30</title>
<path fill="none" stroke="midnightblue" d="M1960.12,-259.392C2027.02,-253.805 2134.24,-240.569 2161,-212 2205.13,-164.884 2135.78,-115.035 2180,-68 2209.42,-36.7074 2333.93,-23.9622 2399.77,-19.3334"/>
<polygon fill="midnightblue" stroke="midnightblue" points="2400.07,-22.8213 2409.82,-18.6586 2399.6,-15.8371 2400.07,-22.8213"/>
</g>
<!-- Node35 -->
<g id="node35" class="node"><title>Node35</title>
<g id="a_node35"><a xlink:href="../../da/df4/MagFieldFast_8h.html" target="_top" xlink:title="Definition of the fast magnetic field parametrization MagFieldFast. ">
<polygon fill="none" stroke="black" points="1611,-192.5 1611,-211.5 1719,-211.5 1719,-192.5 1611,-192.5"/>
<text text-anchor="middle" x="1665" y="-199.5" font-family="Helvetica,sans-Serif" font-size="10.00">Field/MagFieldFast.h</text>
</a>
</g>
</g>
<!-- Node23&#45;&gt;Node35 -->
<g id="edge49" class="edge"><title>Node23&#45;&gt;Node35</title>
<path fill="none" stroke="midnightblue" d="M1870.87,-254.467C1828.31,-243.827 1755.49,-225.622 1708.84,-213.959"/>
<polygon fill="midnightblue" stroke="midnightblue" points="1709.56,-210.533 1699.01,-211.503 1707.87,-217.324 1709.56,-210.533"/>
</g>
<!-- Node47 -->
<g id="node47" class="node"><title>Node47</title>
<polygon fill="none" stroke="#bfbfbf" points="1872.5,-192.5 1872.5,-211.5 1937.5,-211.5 1937.5,-192.5 1872.5,-192.5"/>
<text text-anchor="middle" x="1905" y="-199.5" font-family="Helvetica,sans-Serif" font-size="10.00">TSystem.h</text>
</g>
<!-- Node23&#45;&gt;Node47 -->
<g id="edge64" class="edge"><title>Node23&#45;&gt;Node47</title>
<path fill="none" stroke="midnightblue" d="M1905,-254.403C1905,-245.938 1905,-232.728 1905,-221.82"/>
<polygon fill="midnightblue" stroke="midnightblue" points="1908.5,-221.581 1905,-211.581 1901.5,-221.581 1908.5,-221.581"/>
</g>
<!-- Node26 -->
<g id="node26" class="node"><title>Node26</title>
<polygon fill="none" stroke="#bfbfbf" points="2009.5,-136.5 2009.5,-155.5 2114.5,-155.5 2114.5,-136.5 2009.5,-136.5"/>
<text text-anchor="middle" x="2062" y="-143.5" font-family="Helvetica,sans-Serif" font-size="10.00">FairParGenericSet.h</text>
</g>
<!-- Node25&#45;&gt;Node26 -->
<g id="edge31" class="edge"><title>Node25&#45;&gt;Node26</title>
<path fill="none" stroke="midnightblue" d="M2021.93,-192.083C2028.85,-184.298 2039.07,-172.801 2047.45,-163.367"/>
<polygon fill="midnightblue" stroke="midnightblue" points="2050.19,-165.55 2054.22,-155.751 2044.96,-160.9 2050.19,-165.55"/>
</g>
<!-- Node25&#45;&gt;Node27 -->
<g id="edge32" class="edge"><title>Node25&#45;&gt;Node27</title>
<path fill="none" stroke="midnightblue" d="M2039.97,-192.399C2062.62,-184.41 2095.98,-171.441 2123,-156 2151.53,-139.692 2181.29,-115.88 2199.48,-100.411"/>
<polygon fill="midnightblue" stroke="midnightblue" points="2202.14,-102.739 2207.43,-93.5576 2197.57,-97.4373 2202.14,-102.739"/>
</g>
<!-- Node28&#45;&gt;Node9 -->
<g id="edge48" class="edge"><title>Node28&#45;&gt;Node9</title>
<path fill="none" stroke="midnightblue" d="M2355.11,-192.494C2293.22,-163.07 2087.95,-65.4702 2013.38,-30.0156"/>
<polygon fill="midnightblue" stroke="midnightblue" points="2014.68,-26.7607 2004.15,-25.6277 2011.67,-33.0825 2014.68,-26.7607"/>
</g>
<!-- Node29 -->
<g id="node29" class="node"><title>Node29</title>
<polygon fill="none" stroke="#bfbfbf" points="2323.5,-136.5 2323.5,-155.5 2376.5,-155.5 2376.5,-136.5 2323.5,-136.5"/>
<text text-anchor="middle" x="2350" y="-143.5" font-family="Helvetica,sans-Serif" font-size="10.00">TMath.h</text>
</g>
<!-- Node28&#45;&gt;Node29 -->
<g id="edge34" class="edge"><title>Node28&#45;&gt;Node29</title>
<path fill="none" stroke="midnightblue" d="M2369.2,-192.083C2366.09,-184.77 2361.58,-174.181 2357.71,-165.103"/>
<polygon fill="midnightblue" stroke="midnightblue" points="2360.87,-163.58 2353.73,-155.751 2354.43,-166.323 2360.87,-163.58"/>
</g>
<!-- Node28&#45;&gt;Node30 -->
<g id="edge35" class="edge"><title>Node28&#45;&gt;Node30</title>
<path fill="none" stroke="midnightblue" d="M2460.58,-192.439C2491.64,-186.084 2525.45,-175.067 2552,-156 2576.03,-138.739 2579.66,-128.389 2588,-100 2592.01,-86.3542 2596.25,-79.5882 2588,-68 2575.46,-50.3715 2521.06,-34.8361 2482.09,-25.6765"/>
<polygon fill="midnightblue" stroke="midnightblue" points="2482.58,-22.199 2472.06,-23.3767 2481.02,-29.0221 2482.58,-22.199"/>
</g>
<!-- Node31 -->
<g id="node31" class="node"><title>Node31</title>
<polygon fill="none" stroke="#bfbfbf" points="2263.5,-74.5 2263.5,-93.5 2332.5,-93.5 2332.5,-74.5 2263.5,-74.5"/>
<text text-anchor="middle" x="2298" y="-81.5" font-family="Helvetica,sans-Serif" font-size="10.00">TObjArray.h</text>
</g>
<!-- Node28&#45;&gt;Node31 -->
<g id="edge36" class="edge"><title>Node28&#45;&gt;Node31</title>
<path fill="none" stroke="midnightblue" d="M2356.47,-192.35C2343.25,-184.583 2325.3,-171.957 2315,-156 2304.82,-140.214 2300.73,-118.907 2299.09,-103.764"/>
<polygon fill="midnightblue" stroke="midnightblue" points="2302.56,-103.259 2298.25,-93.579 2295.58,-103.832 2302.56,-103.259"/>
</g>
<!-- Node32 -->
<g id="node32" class="node"><title>Node32</title>
<g id="a_node32"><a xlink:href="../../d8/d64/Chebyshev3D_8h.html" target="_top" xlink:title="MathUtils/Chebyshev3D.h">
<polygon fill="none" stroke="black" points="2395,-136.5 2395,-155.5 2527,-155.5 2527,-136.5 2395,-136.5"/>
<text text-anchor="middle" x="2461" y="-143.5" font-family="Helvetica,sans-Serif" font-size="10.00">MathUtils/Chebyshev3D.h</text>
</a>
</g>
</g>
<!-- Node28&#45;&gt;Node32 -->
<g id="edge37" class="edge"><title>Node28&#45;&gt;Node32</title>
<path fill="none" stroke="midnightblue" d="M2387.14,-192.324C2400.87,-183.9 2421.94,-170.971 2438.06,-161.074"/>
<polygon fill="midnightblue" stroke="midnightblue" points="2440.2,-163.868 2446.9,-155.655 2436.54,-157.902 2440.2,-163.868"/>
</g>
<!-- Node34 -->
<g id="node34" class="node"><title>Node34</title>
<g id="a_node34"><a xlink:href="../../d4/d08/Chebyshev3DCalc_8h.html" target="_top" xlink:title="MathUtils/Chebyshev3DCalc.h">
<polygon fill="none" stroke="black" points="2427,-74.5 2427,-93.5 2579,-93.5 2579,-74.5 2427,-74.5"/>
<text text-anchor="middle" x="2503" y="-81.5" font-family="Helvetica,sans-Serif" font-size="10.00">MathUtils/Chebyshev3DCalc.h</text>
</a>
</g>
</g>
<!-- Node28&#45;&gt;Node34 -->
<g id="edge47" class="edge"><title>Node28&#45;&gt;Node34</title>
<path fill="none" stroke="midnightblue" d="M2431.52,-192.431C2472.87,-185.038 2523.15,-172.876 2536,-156 2548.92,-139.027 2533.6,-116.181 2519.8,-101.042"/>
<polygon fill="midnightblue" stroke="midnightblue" points="2521.97,-98.2442 2512.49,-93.5104 2516.95,-103.122 2521.97,-98.2442"/>
</g>
<!-- Node32&#45;&gt;Node9 -->
<g id="edge45" class="edge"><title>Node32&#45;&gt;Node9</title>
<path fill="none" stroke="midnightblue" d="M2450.91,-136.335C2431.24,-119.973 2385.77,-84.677 2341,-68 2231.06,-27.0461 2090.65,-18.75 2024.17,-17.2238"/>
<polygon fill="midnightblue" stroke="midnightblue" points="2024.22,-13.7242 2014.15,-17.0331 2024.09,-20.7229 2024.22,-13.7242"/>
</g>
<!-- Node32&#45;&gt;Node27 -->
<g id="edge46" class="edge"><title>Node32&#45;&gt;Node27</title>
<path fill="none" stroke="midnightblue" d="M2411.31,-136.469C2369.23,-128.693 2307.53,-115.992 2255,-100 2252.2,-99.1479 2249.32,-98.181 2246.45,-97.1584"/>
<polygon fill="midnightblue" stroke="midnightblue" points="2247.49,-93.8115 2236.9,-93.5527 2245.02,-100.36 2247.49,-93.8115"/>
</g>
<!-- Node32&#45;&gt;Node30 -->
<g id="edge38" class="edge"><title>Node32&#45;&gt;Node30</title>
<path fill="none" stroke="midnightblue" d="M2448.5,-136.302C2438.13,-128.251 2424.11,-115.245 2418,-100 2409.25,-78.1888 2419.91,-51.8774 2429.45,-34.8109"/>
<polygon fill="midnightblue" stroke="midnightblue" points="2432.63,-36.3097 2434.78,-25.9346 2426.63,-32.7065 2432.63,-36.3097"/>
</g>
<!-- Node32&#45;&gt;Node31 -->
<g id="edge39" class="edge"><title>Node32&#45;&gt;Node31</title>
<path fill="none" stroke="midnightblue" d="M2437.65,-136.403C2409.69,-126.111 2362.67,-108.806 2331.01,-97.1504"/>
<polygon fill="midnightblue" stroke="midnightblue" points="2331.9,-93.7505 2321.31,-93.5806 2329.49,-100.32 2331.9,-93.7505"/>
</g>
<!-- Node33 -->
<g id="node33" class="node"><title>Node33</title>
<polygon fill="none" stroke="#bfbfbf" points="2533.5,-6.5 2533.5,-25.5 2576.5,-25.5 2576.5,-6.5 2533.5,-6.5"/>
<text text-anchor="middle" x="2555" y="-13.5" font-family="Helvetica,sans-Serif" font-size="10.00">cstdio</text>
</g>
<!-- Node32&#45;&gt;Node33 -->
<g id="edge40" class="edge"><title>Node32&#45;&gt;Node33</title>
<path fill="none" stroke="midnightblue" d="M2527.3,-137.259C2550.37,-131.02 2573.96,-119.868 2588,-100 2602.69,-79.2126 2584.97,-50.9602 2570.37,-33.3613"/>
<polygon fill="midnightblue" stroke="midnightblue" points="2572.84,-30.863 2563.61,-25.6571 2567.57,-35.4812 2572.84,-30.863"/>
</g>
<!-- Node32&#45;&gt;Node34 -->
<g id="edge41" class="edge"><title>Node32&#45;&gt;Node34</title>
<path fill="none" stroke="midnightblue" d="M2467.02,-136.403C2473.32,-127.403 2483.37,-113.041 2491.25,-101.782"/>
<polygon fill="midnightblue" stroke="midnightblue" points="2494.13,-103.78 2496.99,-93.5806 2488.39,-99.7658 2494.13,-103.78"/>
</g>
<!-- Node34&#45;&gt;Node9 -->
<g id="edge44" class="edge"><title>Node34&#45;&gt;Node9</title>
<path fill="none" stroke="midnightblue" d="M2436.21,-74.4731C2326.43,-60.4592 2111.35,-33.0025 2024.12,-21.8661"/>
<polygon fill="midnightblue" stroke="midnightblue" points="2024.49,-18.3855 2014.13,-20.5909 2023.61,-25.3292 2024.49,-18.3855"/>
</g>
<!-- Node34&#45;&gt;Node30 -->
<g id="edge42" class="edge"><title>Node34&#45;&gt;Node30</title>
<path fill="none" stroke="midnightblue" d="M2494.89,-74.3717C2485.11,-63.9547 2468.45,-46.2173 2456.23,-33.2162"/>
<polygon fill="midnightblue" stroke="midnightblue" points="2458.7,-30.7333 2449.31,-25.8411 2453.6,-35.526 2458.7,-30.7333"/>
</g>
<!-- Node34&#45;&gt;Node33 -->
<g id="edge43" class="edge"><title>Node34&#45;&gt;Node33</title>
<path fill="none" stroke="midnightblue" d="M2509.8,-74.3717C2517.85,-64.1512 2531.46,-46.884 2541.64,-33.9571"/>
<polygon fill="midnightblue" stroke="midnightblue" points="2544.59,-35.8621 2548.03,-25.8411 2539.1,-31.53 2544.59,-35.8621"/>
</g>
<!-- Node35&#45;&gt;Node9 -->
<g id="edge50" class="edge"><title>Node35&#45;&gt;Node9</title>
<path fill="none" stroke="midnightblue" d="M1719.02,-196.784C1784.52,-188.82 1894.19,-165.887 1959,-100 1976.07,-82.6455 1982.35,-54.3847 1984.66,-35.7412"/>
<polygon fill="midnightblue" stroke="midnightblue" points="1988.16,-35.85 1985.64,-25.5594 1981.2,-35.1757 1988.16,-35.85"/>
</g>
<!-- Node35&#45;&gt;Node13 -->
<g id="edge51" class="edge"><title>Node35&#45;&gt;Node13</title>
<path fill="none" stroke="midnightblue" d="M1610.83,-197.226C1541.95,-191.765 1419.32,-179.83 1306.62,-156.045"/>
<polygon fill="midnightblue" stroke="midnightblue" points="1307.3,-152.612 1296.79,-153.935 1305.83,-159.456 1307.3,-152.612"/>
</g>
<!-- Node36 -->
<g id="node36" class="node"><title>Node36</title>
<g id="a_node36"><a xlink:href="../../dd/d76/Cartesian3D_8h.html" target="_top" xlink:title="MathUtils/Cartesian3D.h">
<polygon fill="none" stroke="black" points="1511.5,-136.5 1511.5,-155.5 1636.5,-155.5 1636.5,-136.5 1511.5,-136.5"/>
<text text-anchor="middle" x="1574" y="-143.5" font-family="Helvetica,sans-Serif" font-size="10.00">MathUtils/Cartesian3D.h</text>
</a>
</g>
</g>
<!-- Node35&#45;&gt;Node36 -->
<g id="edge52" class="edge"><title>Node35&#45;&gt;Node36</title>
<path fill="none" stroke="midnightblue" d="M1650.38,-192.324C1636.05,-183.822 1613.99,-170.729 1597.25,-160.797"/>
<polygon fill="midnightblue" stroke="midnightblue" points="1598.97,-157.748 1588.58,-155.655 1595.4,-163.768 1598.97,-157.748"/>
</g>
<!-- Node36&#45;&gt;Node9 -->
<g id="edge58" class="edge"><title>Node36&#45;&gt;Node9</title>
<path fill="none" stroke="midnightblue" d="M1636.66,-143.153C1725.15,-139.53 1881.26,-129.108 1929,-100 1953.8,-84.8806 1970.42,-54.4275 1979.03,-34.9115"/>
<polygon fill="midnightblue" stroke="midnightblue" points="1982.29,-36.179 1982.9,-25.6014 1975.83,-33.4931 1982.29,-36.179"/>
</g>
<!-- Node37 -->
<g id="node37" class="node"><title>Node37</title>
<polygon fill="none" stroke="#bfbfbf" points="1408.5,-69 1408.5,-99 1559.5,-99 1559.5,-69 1408.5,-69"/>
<text text-anchor="start" x="1416.5" y="-87" font-family="Helvetica,sans-Serif" font-size="10.00">Math/GenVector/Displacement</text>
<text text-anchor="middle" x="1484" y="-76" font-family="Helvetica,sans-Serif" font-size="10.00">Vector3D.h</text>
</g>
<!-- Node36&#45;&gt;Node37 -->
<g id="edge53" class="edge"><title>Node36&#45;&gt;Node37</title>
<path fill="none" stroke="midnightblue" d="M1561.11,-136.403C1548.8,-128.201 1529.82,-115.545 1513.77,-104.844"/>
<polygon fill="midnightblue" stroke="midnightblue" points="1515.47,-101.776 1505.21,-99.1408 1511.59,-107.6 1515.47,-101.776"/>
</g>
<!-- Node38 -->
<g id="node38" class="node"><title>Node38</title>
<polygon fill="none" stroke="#bfbfbf" points="1578,-74.5 1578,-93.5 1754,-93.5 1754,-74.5 1578,-74.5"/>
<text text-anchor="middle" x="1666" y="-81.5" font-family="Helvetica,sans-Serif" font-size="10.00">Math/GenVector/PositionVector3D.h</text>
</g>
<!-- Node36&#45;&gt;Node38 -->
<g id="edge54" class="edge"><title>Node36&#45;&gt;Node38</title>
<path fill="none" stroke="midnightblue" d="M1587.18,-136.403C1602.07,-126.691 1626.54,-110.732 1644.27,-99.1697"/>
<polygon fill="midnightblue" stroke="midnightblue" points="1646.38,-101.975 1652.84,-93.5806 1642.56,-96.1117 1646.38,-101.975"/>
</g>
<!-- Node39 -->
<g id="node39" class="node"><title>Node39</title>
<polygon fill="none" stroke="#bfbfbf" points="1771.5,-74.5 1771.5,-93.5 1920.5,-93.5 1920.5,-74.5 1771.5,-74.5"/>
<text text-anchor="middle" x="1846" y="-81.5" font-family="Helvetica,sans-Serif" font-size="10.00">Math/GenVector/Rotation3D.h</text>
</g>
<!-- Node36&#45;&gt;Node39 -->
<g id="edge55" class="edge"><title>Node36&#45;&gt;Node39</title>
<path fill="none" stroke="midnightblue" d="M1612.68,-136.467C1661.32,-125.738 1744.84,-107.316 1797.64,-95.6673"/>
<polygon fill="midnightblue" stroke="midnightblue" points="1798.44,-99.0754 1807.45,-93.5034 1796.93,-92.2397 1798.44,-99.0754"/>
</g>
<!-- Node40 -->
<g id="node40" class="node"><title>Node40</title>
<polygon fill="none" stroke="#bfbfbf" points="890,-74.5 890,-93.5 1046,-93.5 1046,-74.5 890,-74.5"/>
<text text-anchor="middle" x="968" y="-81.5" font-family="Helvetica,sans-Serif" font-size="10.00">Math/GenVector/Transform3D.h</text>
</g>
<!-- Node36&#45;&gt;Node40 -->
<g id="edge56" class="edge"><title>Node36&#45;&gt;Node40</title>
<path fill="none" stroke="midnightblue" d="M1511.19,-136.984C1508.08,-136.639 1505.01,-136.309 1502,-136 1303.73,-115.634 1252.74,-124.958 1055,-100 1044.63,-98.691 1033.61,-97.0148 1023.02,-95.26"/>
<polygon fill="midnightblue" stroke="midnightblue" points="1023.48,-91.7885 1013.04,-93.5629 1022.31,-98.6895 1023.48,-91.7885"/>
</g>
<!-- Node41 -->
<g id="node41" class="node"><title>Node41</title>
<polygon fill="none" stroke="#bfbfbf" points="1064,-74.5 1064,-93.5 1224,-93.5 1224,-74.5 1064,-74.5"/>
<text text-anchor="middle" x="1144" y="-81.5" font-family="Helvetica,sans-Serif" font-size="10.00">Math/GenVector/Translation3D.h</text>
</g>
<!-- Node36&#45;&gt;Node41 -->
<g id="edge57" class="edge"><title>Node36&#45;&gt;Node41</title>
<path fill="none" stroke="midnightblue" d="M1511.2,-136.986C1427.86,-126.304 1285.19,-107.839 1233,-100 1223.24,-98.5337 1212.89,-96.8807 1202.84,-95.2216"/>
<polygon fill="midnightblue" stroke="midnightblue" points="1203.35,-91.7595 1192.91,-93.5672 1202.2,-98.6642 1203.35,-91.7595"/>
</g>
<!-- Node42 -->
<g id="node42" class="node"><title>Node42</title>
<polygon fill="none" stroke="#bfbfbf" points="1242,-74.5 1242,-93.5 1318,-93.5 1318,-74.5 1242,-74.5"/>
<text text-anchor="middle" x="1280" y="-81.5" font-family="Helvetica,sans-Serif" font-size="10.00">TGeoMatrix.h</text>
</g>
<!-- Node36&#45;&gt;Node42 -->
<g id="edge59" class="edge"><title>Node36&#45;&gt;Node42</title>
<path fill="none" stroke="midnightblue" d="M1515.16,-136.465C1464.83,-128.645 1390.65,-115.884 1327,-100 1322.89,-98.9734 1318.61,-97.783 1314.38,-96.5305"/>
<polygon fill="midnightblue" stroke="midnightblue" points="1315.3,-93.1509 1304.71,-93.5432 1313.23,-99.839 1315.3,-93.1509"/>
</g>
<!-- Node43 -->
<g id="node43" class="node"><title>Node43</title>
<polygon fill="none" stroke="#bfbfbf" points="1336,-74.5 1336,-93.5 1390,-93.5 1390,-74.5 1336,-74.5"/>
<text text-anchor="middle" x="1363" y="-81.5" font-family="Helvetica,sans-Serif" font-size="10.00">iostream</text>
</g>
<!-- Node36&#45;&gt;Node43 -->
<g id="edge60" class="edge"><title>Node36&#45;&gt;Node43</title>
<path fill="none" stroke="midnightblue" d="M1534.26,-136.491C1498.48,-128.427 1444.66,-115.296 1399,-100 1396.58,-99.1908 1394.1,-98.2954 1391.62,-97.3567"/>
<polygon fill="midnightblue" stroke="midnightblue" points="1392.82,-94.0671 1382.24,-93.612 1390.23,-100.569 1392.82,-94.0671"/>
</g>
<!-- Node44 -->
<g id="node44" class="node"><title>Node44</title>
<g id="a_node44"><a xlink:href="../../d2/dd0/Cartesian2D_8h.html" target="_top" xlink:title="MathUtils/Cartesian2D.h">
<polygon fill="none" stroke="black" points="103.5,-74.5 103.5,-93.5 228.5,-93.5 228.5,-74.5 103.5,-74.5"/>
<text text-anchor="middle" x="166" y="-81.5" font-family="Helvetica,sans-Serif" font-size="10.00">MathUtils/Cartesian2D.h</text>
</a>
</g>
</g>
<!-- Node36&#45;&gt;Node44 -->
<g id="edge61" class="edge"><title>Node36&#45;&gt;Node44</title>
<path fill="none" stroke="midnightblue" d="M1511.2,-136.827C1508.09,-136.524 1505.01,-136.245 1502,-136 1021.06,-96.8351 440.22,-87.6472 238.873,-85.577"/>
<polygon fill="midnightblue" stroke="midnightblue" points="238.752,-82.0757 228.718,-85.4754 238.682,-89.0754 238.752,-82.0757"/>
</g>
<!-- Node45 -->
<g id="node45" class="node"><title>Node45</title>
<polygon fill="none" stroke="#bfbfbf" points="-0.5,-1 -0.5,-31 150.5,-31 150.5,-1 -0.5,-1"/>
<text text-anchor="start" x="7.5" y="-19" font-family="Helvetica,sans-Serif" font-size="10.00">Math/GenVector/Displacement</text>
<text text-anchor="middle" x="75" y="-8" font-family="Helvetica,sans-Serif" font-size="10.00">Vector2D.h</text>
</g>
<!-- Node44&#45;&gt;Node45 -->
<g id="edge62" class="edge"><title>Node44&#45;&gt;Node45</title>
<path fill="none" stroke="midnightblue" d="M154.103,-74.3717C141.221,-65.0286 120.22,-49.7966 103.093,-37.375"/>
<polygon fill="midnightblue" stroke="midnightblue" points="104.703,-34.2194 94.5532,-31.1815 100.593,-39.8859 104.703,-34.2194"/>
</g>
<!-- Node46 -->
<g id="node46" class="node"><title>Node46</title>
<polygon fill="none" stroke="#bfbfbf" points="169,-6.5 169,-25.5 345,-25.5 345,-6.5 169,-6.5"/>
<text text-anchor="middle" x="257" y="-13.5" font-family="Helvetica,sans-Serif" font-size="10.00">Math/GenVector/PositionVector2D.h</text>
</g>
<!-- Node44&#45;&gt;Node46 -->
<g id="edge63" class="edge"><title>Node44&#45;&gt;Node46</title>
<path fill="none" stroke="midnightblue" d="M177.897,-74.3717C192.884,-63.5015 218.862,-44.6602 236.942,-31.5474"/>
<polygon fill="midnightblue" stroke="midnightblue" points="239.06,-34.3349 245.1,-25.6305 234.95,-28.6684 239.06,-34.3349"/>
</g>
</g>
</svg>
        <g id="navigator" transform="translate(0 0)" fill="#404254">
                <rect fill="#f2f5e9" fill-opacity="0.5" stroke="#606060" stroke-width=".5" x="0" y="0" width="60" height="60"/>
                <use id="zoomplus" xlink:href="#zoomPlus" x="17" y="9" onmousedown="handleZoom(evt,'in')"/>
                <use id="zoomminus" xlink:href="#zoomMin" x="42" y="9" onmousedown="handleZoom(evt,'out')"/>
                <use id="reset" xlink:href="#resetDef" x="30" y="36" onmousedown="handleReset()"/>
                <g id="arrowUp" xlink:href="#dirArrow" transform="translate(30 24)" onmousedown="handlePan(0,-1)">
                  <use xlink:href="#rim" fill="#404040">
                        <set attributeName="fill" to="#808080" begin="arrowUp.mouseover" end="arrowUp.mouseout"/>
                  </use>
                  <path fill="none" stroke="white" stroke-width="1.5" d="M0,-3.0v7 M-2.5,-0.5L0,-3.0L2.5,-0.5"/>
                </g>
                <g id="arrowRight" xlink:href="#dirArrow" transform="rotate(90) translate(36 -43)" onmousedown="handlePan(1,0)">
                  <use xlink:href="#rim" fill="#404040">
                        <set attributeName="fill" to="#808080" begin="arrowRight.mouseover" end="arrowRight.mouseout"/>
                  </use>
                  <path fill="none" stroke="white" stroke-width="1.5" d="M0,-3.0v7 M-2.5,-0.5L0,-3.0L2.5,-0.5"/>
                </g>
                <g id="arrowDown" xlink:href="#dirArrow" transform="rotate(180) translate(-30 -48)" onmousedown="handlePan(0,1)">
                  <use xlink:href="#rim" fill="#404040">
                        <set attributeName="fill" to="#808080" begin="arrowDown.mouseover" end="arrowDown.mouseout"/>
                  </use>
                  <path fill="none" stroke="white" stroke-width="1.5" d="M0,-3.0v7 M-2.5,-0.5L0,-3.0L2.5,-0.5"/>
                </g>
                <g id="arrowLeft" xlink:href="#dirArrow" transform="rotate(270) translate(-36 17)" onmousedown="handlePan(-1,0)">
                  <use xlink:href="#rim" fill="#404040">
                        <set attributeName="fill" to="#808080" begin="arrowLeft.mouseover" end="arrowLeft.mouseout"/>
                  </use>
                  <path fill="none" stroke="white" stroke-width="1.5" d="M0,-3.0v7 M-2.5,-0.5L0,-3.0L2.5,-0.5"/>
                </g>
        </g>
        <svg viewBox="0 0 15 15" width="100%" height="30px" preserveAspectRatio="xMaxYMin meet">
         <g id="arrow_out" transform="scale(0.3 0.3)">
          <a xlink:href="Base_2src_2Detector_8cxx__incl_org.svg" target="_base">
           <rect id="button" ry="5" rx="5" y="6" x="6" height="38" width="38"
                fill="#f2f5e9" fill-opacity="0.5" stroke="#606060" stroke-width="1.0"/>
           <path id="arrow"
             d="M 11.500037,31.436501 C 11.940474,20.09759 22.043105,11.32322 32.158766,21.979434 L 37.068811,17.246167 C 37.068811,17.246167 37.088388,32 37.088388,32 L 22.160133,31.978069 C 22.160133,31.978069 26.997745,27.140456 26.997745,27.140456 C 18.528582,18.264221 13.291696,25.230495 11.500037,31.436501 z"
             style="fill:#404040;"/>
          </a>
         </g>
        </svg>
</svg>
