<?xml version="1.0" encoding="UTF-8" standalone="no"?>
<!DOCTYPE svg PUBLIC "-//W3C//DTD SVG 1.1//EN"
 "http://www.w3.org/Graphics/SVG/1.1/DTD/svg11.dtd">
<!-- Generated by graphviz version 2.36.0 (20140111.2315)
 -->
<!-- Title: FairTask Pages: 1 -->
<svg width="1611pt" height="304pt"
 viewBox="0.00 0.00 1611.00 304.00" xmlns="http://www.w3.org/2000/svg" xmlns:xlink="http://www.w3.org/1999/xlink">
<g id="graph0" class="graph" transform="scale(1 1) rotate(0) translate(4 300)">
<title>FairTask</title>
<!-- Node1 -->
<g id="node1" class="node"><title>Node1</title>
<polygon fill="#bfbfbf" stroke="black" points="772.5,-238.5 772.5,-295.5 827.5,-295.5 827.5,-238.5 772.5,-238.5"/>
<text text-anchor="middle" x="800" y="-283.5" font-family="Helvetica,sans-Serif" font-size="10.00">FairTask</text>
<polyline fill="none" stroke="black" points="772.5,-276.5 827.5,-276.5 "/>
<text text-anchor="middle" x="800" y="-264.5" font-family="Helvetica,sans-Serif" font-size="10.00"> </text>
<polyline fill="none" stroke="black" points="772.5,-257.5 827.5,-257.5 "/>
<text text-anchor="middle" x="800" y="-245.5" font-family="Helvetica,sans-Serif" font-size="10.00"> </text>
</g>
<!-- Node2 -->
<g id="node2" class="node"><title>Node2</title>
<g id="a_node2"><a xlink:href="../../de/d8a/classo2_1_1EMCAL_1_1DigitizerTask.html" target="_top" xlink:title="{o2::EMCAL::DigitizerTask\n||+ DigitizerTask()\l+ ~DigitizerTask()\l+ Init()\l+ Exec()\l+ FinishTask()\l+ getDigitizer()\l+ setFairTimeUnitInNS()\l+ getFairTimeUnitInNS()\l}">
<polygon fill="none" stroke="black" points="-0.5,-34 -0.5,-168 130.5,-168 130.5,-34 -0.5,-34"/>
<text text-anchor="middle" x="65" y="-156" font-family="Helvetica,sans-Serif" font-size="10.00">o2::EMCAL::DigitizerTask</text>
<polyline fill="none" stroke="black" points="-0.5,-149 130.5,-149 "/>
<text text-anchor="middle" x="65" y="-137" font-family="Helvetica,sans-Serif" font-size="10.00"> </text>
<polyline fill="none" stroke="black" points="-0.5,-130 130.5,-130 "/>
<text text-anchor="start" x="7.5" y="-118" font-family="Helvetica,sans-Serif" font-size="10.00">+ DigitizerTask()</text>
<text text-anchor="start" x="7.5" y="-107" font-family="Helvetica,sans-Serif" font-size="10.00">+ ~DigitizerTask()</text>
<text text-anchor="start" x="7.5" y="-96" font-family="Helvetica,sans-Serif" font-size="10.00">+ Init()</text>
<text text-anchor="start" x="7.5" y="-85" font-family="Helvetica,sans-Serif" font-size="10.00">+ Exec()</text>
<text text-anchor="start" x="7.5" y="-74" font-family="Helvetica,sans-Serif" font-size="10.00">+ FinishTask()</text>
<text text-anchor="start" x="7.5" y="-63" font-family="Helvetica,sans-Serif" font-size="10.00">+ getDigitizer()</text>
<text text-anchor="start" x="7.5" y="-52" font-family="Helvetica,sans-Serif" font-size="10.00">+ setFairTimeUnitInNS()</text>
<text text-anchor="start" x="7.5" y="-41" font-family="Helvetica,sans-Serif" font-size="10.00">+ getFairTimeUnitInNS()</text>
</a>
</g>
</g>
<!-- Node1&#45;&gt;Node2 -->
<g id="edge1" class="edge"><title>Node1&#45;&gt;Node2</title>
<path fill="none" stroke="midnightblue" d="M762.073,-266.268C638.251,-266.543 247.635,-262.487 140,-202 125.338,-193.76 112.68,-181.345 102.156,-168.037"/>
<polygon fill="none" stroke="midnightblue" points="762.218,-269.768 772.206,-266.235 762.194,-262.768 762.218,-269.768"/>
</g>
<!-- Node3 -->
<g id="node3" class="node"><title>Node3</title>
<g id="a_node3"><a xlink:href="../../db/df6/classo2_1_1ITS_1_1ClustererTask.html" target="_top" xlink:title="{o2::ITS::ClustererTask\n||+ ClustererTask()\l+ ~ClustererTask()\l+ Init()\l+ Exec()\l}">
<polygon fill="none" stroke="black" points="149,-56 149,-146 265,-146 265,-56 149,-56"/>
<text text-anchor="middle" x="207" y="-134" font-family="Helvetica,sans-Serif" font-size="10.00">o2::ITS::ClustererTask</text>
<polyline fill="none" stroke="black" points="149,-127 265,-127 "/>
<text text-anchor="middle" x="207" y="-115" font-family="Helvetica,sans-Serif" font-size="10.00"> </text>
<polyline fill="none" stroke="black" points="149,-108 265,-108 "/>
<text text-anchor="start" x="157" y="-96" font-family="Helvetica,sans-Serif" font-size="10.00">+ ClustererTask()</text>
<text text-anchor="start" x="157" y="-85" font-family="Helvetica,sans-Serif" font-size="10.00">+ ~ClustererTask()</text>
<text text-anchor="start" x="157" y="-74" font-family="Helvetica,sans-Serif" font-size="10.00">+ Init()</text>
<text text-anchor="start" x="157" y="-63" font-family="Helvetica,sans-Serif" font-size="10.00">+ Exec()</text>
</a>
</g>
</g>
<!-- Node1&#45;&gt;Node3 -->
<g id="edge2" class="edge"><title>Node1&#45;&gt;Node3</title>
<path fill="none" stroke="midnightblue" d="M762.081,-265.418C655.559,-263.163 356.038,-252.386 274,-202 252.809,-188.985 236.842,-166.462 225.821,-146.083"/>
<polygon fill="none" stroke="midnightblue" points="762.289,-268.923 772.357,-265.621 762.428,-261.924 762.289,-268.923"/>
</g>
<!-- Node4 -->
<g id="node4" class="node"><title>Node4</title>
<g id="a_node4"><a xlink:href="../../d8/d68/classo2_1_1ITS_1_1CookedTrackerTask.html" target="_top" xlink:title="{o2::ITS::CookedTrackerTask\n||+ CookedTrackerTask()\l+ ~CookedTrackerTask()\l+ Init()\l+ Exec()\l+ setBz()\l+ setContinuousMode()\l+ getContinuousMode()\l+ getVertexer()\l}">
<polygon fill="none" stroke="black" points="283.5,-34 283.5,-168 426.5,-168 426.5,-34 283.5,-34"/>
<text text-anchor="middle" x="355" y="-156" font-family="Helvetica,sans-Serif" font-size="10.00">o2::ITS::CookedTrackerTask</text>
<polyline fill="none" stroke="black" points="283.5,-149 426.5,-149 "/>
<text text-anchor="middle" x="355" y="-137" font-family="Helvetica,sans-Serif" font-size="10.00"> </text>
<polyline fill="none" stroke="black" points="283.5,-130 426.5,-130 "/>
<text text-anchor="start" x="291.5" y="-118" font-family="Helvetica,sans-Serif" font-size="10.00">+ CookedTrackerTask()</text>
<text text-anchor="start" x="291.5" y="-107" font-family="Helvetica,sans-Serif" font-size="10.00">+ ~CookedTrackerTask()</text>
<text text-anchor="start" x="291.5" y="-96" font-family="Helvetica,sans-Serif" font-size="10.00">+ Init()</text>
<text text-anchor="start" x="291.5" y="-85" font-family="Helvetica,sans-Serif" font-size="10.00">+ Exec()</text>
<text text-anchor="start" x="291.5" y="-74" font-family="Helvetica,sans-Serif" font-size="10.00">+ setBz()</text>
<text text-anchor="start" x="291.5" y="-63" font-family="Helvetica,sans-Serif" font-size="10.00">+ setContinuousMode()</text>
<text text-anchor="start" x="291.5" y="-52" font-family="Helvetica,sans-Serif" font-size="10.00">+ getContinuousMode()</text>
<text text-anchor="start" x="291.5" y="-41" font-family="Helvetica,sans-Serif" font-size="10.00">+ getVertexer()</text>
</a>
</g>
</g>
<!-- Node1&#45;&gt;Node4 -->
<g id="edge3" class="edge"><title>Node1&#45;&gt;Node4</title>
<path fill="none" stroke="midnightblue" d="M762.041,-262.754C680.201,-255.215 490.092,-234.637 435,-202 420.462,-193.388 407.506,-181.076 396.472,-168.019"/>
<polygon fill="none" stroke="midnightblue" points="762.112,-266.275 772.387,-263.69 762.744,-259.303 762.112,-266.275"/>
</g>
<!-- Node5 -->
<g id="node5" class="node"><title>Node5</title>
<g id="a_node5"><a xlink:href="../../de/d22/classo2_1_1ITS_1_1DigitizerTask.html" target="_top" xlink:title="{o2::ITS::DigitizerTask\n||+ DigitizerTask()\l+ ~DigitizerTask()\l+ Init()\l+ Exec()\l+ FinishTask()\l+ getDigitizer()\l+ setContinuous()\l+ isContinuous()\l+ setUseAlpideSim()\l+ getUseAlpideSim()\l+ setFairTimeUnitInNS()\l+ getFairTimeUnitInNS()\l+ setAlpideROFramLength()\l+ getAlpideROFramLength()\l}">
<polygon fill="none" stroke="black" points="444.5,-1 444.5,-201 583.5,-201 583.5,-1 444.5,-1"/>
<text text-anchor="middle" x="514" y="-189" font-family="Helvetica,sans-Serif" font-size="10.00">o2::ITS::DigitizerTask</text>
<polyline fill="none" stroke="black" points="444.5,-182 583.5,-182 "/>
<text text-anchor="middle" x="514" y="-170" font-family="Helvetica,sans-Serif" font-size="10.00"> </text>
<polyline fill="none" stroke="black" points="444.5,-163 583.5,-163 "/>
<text text-anchor="start" x="452.5" y="-151" font-family="Helvetica,sans-Serif" font-size="10.00">+ DigitizerTask()</text>
<text text-anchor="start" x="452.5" y="-140" font-family="Helvetica,sans-Serif" font-size="10.00">+ ~DigitizerTask()</text>
<text text-anchor="start" x="452.5" y="-129" font-family="Helvetica,sans-Serif" font-size="10.00">+ Init()</text>
<text text-anchor="start" x="452.5" y="-118" font-family="Helvetica,sans-Serif" font-size="10.00">+ Exec()</text>
<text text-anchor="start" x="452.5" y="-107" font-family="Helvetica,sans-Serif" font-size="10.00">+ FinishTask()</text>
<text text-anchor="start" x="452.5" y="-96" font-family="Helvetica,sans-Serif" font-size="10.00">+ getDigitizer()</text>
<text text-anchor="start" x="452.5" y="-85" font-family="Helvetica,sans-Serif" font-size="10.00">+ setContinuous()</text>
<text text-anchor="start" x="452.5" y="-74" font-family="Helvetica,sans-Serif" font-size="10.00">+ isContinuous()</text>
<text text-anchor="start" x="452.5" y="-63" font-family="Helvetica,sans-Serif" font-size="10.00">+ setUseAlpideSim()</text>
<text text-anchor="start" x="452.5" y="-52" font-family="Helvetica,sans-Serif" font-size="10.00">+ getUseAlpideSim()</text>
<text text-anchor="start" x="452.5" y="-41" font-family="Helvetica,sans-Serif" font-size="10.00">+ setFairTimeUnitInNS()</text>
<text text-anchor="start" x="452.5" y="-30" font-family="Helvetica,sans-Serif" font-size="10.00">+ getFairTimeUnitInNS()</text>
<text text-anchor="start" x="452.5" y="-19" font-family="Helvetica,sans-Serif" font-size="10.00">+ setAlpideROFramLength()</text>
<text text-anchor="start" x="452.5" y="-8" font-family="Helvetica,sans-Serif" font-size="10.00">+ getAlpideROFramLength()</text>
</a>
</g>
</g>
<!-- Node1&#45;&gt;Node5 -->
<g id="edge4" class="edge"><title>Node1&#45;&gt;Node5</title>
<path fill="none" stroke="midnightblue" d="M762.298,-261.241C718.407,-254.227 645.273,-237.84 593,-202 589.807,-199.811 586.681,-197.453 583.628,-194.961"/>
<polygon fill="none" stroke="midnightblue" points="761.853,-264.714 772.264,-262.753 762.902,-257.793 761.853,-264.714"/>
</g>
<!-- Node6 -->
<g id="node6" class="node"><title>Node6</title>
<g id="a_node6"><a xlink:href="../../d6/df5/classo2_1_1ITS_1_1HitAnalysis.html" target="_top" xlink:title="{o2::ITS::HitAnalysis\n||+ HitAnalysis()\l+ ~HitAnalysis()\l+ Init()\l+ Exec()\l+ FinishTask()\l+ SetProcessHits()\l+ SetProcessChips()\l# ProcessChips()\l# ProcessHits()\l}">
<polygon fill="none" stroke="black" points="602,-28.5 602,-173.5 710,-173.5 710,-28.5 602,-28.5"/>
<text text-anchor="middle" x="656" y="-161.5" font-family="Helvetica,sans-Serif" font-size="10.00">o2::ITS::HitAnalysis</text>
<polyline fill="none" stroke="black" points="602,-154.5 710,-154.5 "/>
<text text-anchor="middle" x="656" y="-142.5" font-family="Helvetica,sans-Serif" font-size="10.00"> </text>
<polyline fill="none" stroke="black" points="602,-135.5 710,-135.5 "/>
<text text-anchor="start" x="610" y="-123.5" font-family="Helvetica,sans-Serif" font-size="10.00">+ HitAnalysis()</text>
<text text-anchor="start" x="610" y="-112.5" font-family="Helvetica,sans-Serif" font-size="10.00">+ ~HitAnalysis()</text>
<text text-anchor="start" x="610" y="-101.5" font-family="Helvetica,sans-Serif" font-size="10.00">+ Init()</text>
<text text-anchor="start" x="610" y="-90.5" font-family="Helvetica,sans-Serif" font-size="10.00">+ Exec()</text>
<text text-anchor="start" x="610" y="-79.5" font-family="Helvetica,sans-Serif" font-size="10.00">+ FinishTask()</text>
<text text-anchor="start" x="610" y="-68.5" font-family="Helvetica,sans-Serif" font-size="10.00">+ SetProcessHits()</text>
<text text-anchor="start" x="610" y="-57.5" font-family="Helvetica,sans-Serif" font-size="10.00">+ SetProcessChips()</text>
<text text-anchor="start" x="610" y="-46.5" font-family="Helvetica,sans-Serif" font-size="10.00"># ProcessChips()</text>
<text text-anchor="start" x="610" y="-35.5" font-family="Helvetica,sans-Serif" font-size="10.00"># ProcessHits()</text>
</a>
</g>
</g>
<!-- Node1&#45;&gt;Node6 -->
<g id="edge5" class="edge"><title>Node1&#45;&gt;Node6</title>
<path fill="none" stroke="midnightblue" d="M763.673,-241.453C748.837,-230.417 732.12,-216.597 719,-202 711.182,-193.301 703.722,-183.519 696.848,-173.566"/>
<polygon fill="none" stroke="midnightblue" points="762.002,-244.566 772.149,-247.614 766.118,-238.904 762.002,-244.566"/>
</g>
<!-- Node7 -->
<g id="node7" class="node"><title>Node7</title>
<g id="a_node7"><a xlink:href="../../db/d78/classo2_1_1ITS_1_1TrivialClustererTask.html" target="_top" xlink:title="{o2::ITS::TrivialClustererTask\n||+ TrivialClustererTask()\l+ ~TrivialClustererTask()\l+ Init()\l+ Exec()\l}">
<polygon fill="none" stroke="black" points="728.5,-56 728.5,-146 871.5,-146 871.5,-56 728.5,-56"/>
<text text-anchor="middle" x="800" y="-134" font-family="Helvetica,sans-Serif" font-size="10.00">o2::ITS::TrivialClustererTask</text>
<polyline fill="none" stroke="black" points="728.5,-127 871.5,-127 "/>
<text text-anchor="middle" x="800" y="-115" font-family="Helvetica,sans-Serif" font-size="10.00"> </text>
<polyline fill="none" stroke="black" points="728.5,-108 871.5,-108 "/>
<text text-anchor="start" x="736.5" y="-96" font-family="Helvetica,sans-Serif" font-size="10.00">+ TrivialClustererTask()</text>
<text text-anchor="start" x="736.5" y="-85" font-family="Helvetica,sans-Serif" font-size="10.00">+ ~TrivialClustererTask()</text>
<text text-anchor="start" x="736.5" y="-74" font-family="Helvetica,sans-Serif" font-size="10.00">+ Init()</text>
<text text-anchor="start" x="736.5" y="-63" font-family="Helvetica,sans-Serif" font-size="10.00">+ Exec()</text>
</a>
</g>
</g>
<!-- Node1&#45;&gt;Node7 -->
<g id="edge6" class="edge"><title>Node1&#45;&gt;Node7</title>
<path fill="none" stroke="midnightblue" d="M800,-227.853C800,-203.401 800,-171.578 800,-146.05"/>
<polygon fill="none" stroke="midnightblue" points="796.5,-228.18 800,-238.18 803.5,-228.18 796.5,-228.18"/>
</g>
<!-- Node8 -->
<g id="node8" class="node"><title>Node8</title>
<g id="a_node8"><a xlink:href="../../d7/d6d/classo2_1_1MFT_1_1ClustererTask.html" target="_top" xlink:title="{o2::MFT::ClustererTask\n||+ ClustererTask()\l+ ~ClustererTask()\l+ Init()\l+ Exec()\l}">
<polygon fill="none" stroke="black" points="889.5,-56 889.5,-146 1010.5,-146 1010.5,-56 889.5,-56"/>
<text text-anchor="middle" x="950" y="-134" font-family="Helvetica,sans-Serif" font-size="10.00">o2::MFT::ClustererTask</text>
<polyline fill="none" stroke="black" points="889.5,-127 1010.5,-127 "/>
<text text-anchor="middle" x="950" y="-115" font-family="Helvetica,sans-Serif" font-size="10.00"> </text>
<polyline fill="none" stroke="black" points="889.5,-108 1010.5,-108 "/>
<text text-anchor="start" x="897.5" y="-96" font-family="Helvetica,sans-Serif" font-size="10.00">+ ClustererTask()</text>
<text text-anchor="start" x="897.5" y="-85" font-family="Helvetica,sans-Serif" font-size="10.00">+ ~ClustererTask()</text>
<text text-anchor="start" x="897.5" y="-74" font-family="Helvetica,sans-Serif" font-size="10.00">+ Init()</text>
<text text-anchor="start" x="897.5" y="-63" font-family="Helvetica,sans-Serif" font-size="10.00">+ Exec()</text>
</a>
</g>
</g>
<!-- Node1&#45;&gt;Node8 -->
<g id="edge7" class="edge"><title>Node1&#45;&gt;Node8</title>
<path fill="none" stroke="midnightblue" d="M835.853,-240.815C850.364,-229.76 866.777,-216.098 880,-202 895.803,-185.152 910.839,-164.522 922.896,-146.385"/>
<polygon fill="none" stroke="midnightblue" points="833.482,-238.217 827.567,-247.006 837.672,-243.824 833.482,-238.217"/>
</g>
<!-- Node9 -->
<g id="node9" class="node"><title>Node9</title>
<g id="a_node9"><a xlink:href="../../d0/d22/classo2_1_1MFT_1_1DigitizerTask.html" target="_top" xlink:title="{o2::MFT::DigitizerTask\n||+ DigitizerTask()\l+ ~DigitizerTask()\l+ Init()\l+ Exec()\l+ FinishTask()\l+ getDigitizer()\l+ setContinuous()\l+ isContinuous()\l+ setUseAlpideSim()\l+ getUseAlpideSim()\l+ setFairTimeUnitInNS()\l+ getFairTimeUnitInNS()\l}">
<polygon fill="none" stroke="black" points="1029,-12 1029,-190 1153,-190 1153,-12 1029,-12"/>
<text text-anchor="middle" x="1091" y="-178" font-family="Helvetica,sans-Serif" font-size="10.00">o2::MFT::DigitizerTask</text>
<polyline fill="none" stroke="black" points="1029,-171 1153,-171 "/>
<text text-anchor="middle" x="1091" y="-159" font-family="Helvetica,sans-Serif" font-size="10.00"> </text>
<polyline fill="none" stroke="black" points="1029,-152 1153,-152 "/>
<text text-anchor="start" x="1037" y="-140" font-family="Helvetica,sans-Serif" font-size="10.00">+ DigitizerTask()</text>
<text text-anchor="start" x="1037" y="-129" font-family="Helvetica,sans-Serif" font-size="10.00">+ ~DigitizerTask()</text>
<text text-anchor="start" x="1037" y="-118" font-family="Helvetica,sans-Serif" font-size="10.00">+ Init()</text>
<text text-anchor="start" x="1037" y="-107" font-family="Helvetica,sans-Serif" font-size="10.00">+ Exec()</text>
<text text-anchor="start" x="1037" y="-96" font-family="Helvetica,sans-Serif" font-size="10.00">+ FinishTask()</text>
<text text-anchor="start" x="1037" y="-85" font-family="Helvetica,sans-Serif" font-size="10.00">+ getDigitizer()</text>
<text text-anchor="start" x="1037" y="-74" font-family="Helvetica,sans-Serif" font-size="10.00">+ setContinuous()</text>
<text text-anchor="start" x="1037" y="-63" font-family="Helvetica,sans-Serif" font-size="10.00">+ isContinuous()</text>
<text text-anchor="start" x="1037" y="-52" font-family="Helvetica,sans-Serif" font-size="10.00">+ setUseAlpideSim()</text>
<text text-anchor="start" x="1037" y="-41" font-family="Helvetica,sans-Serif" font-size="10.00">+ getUseAlpideSim()</text>
<text text-anchor="start" x="1037" y="-30" font-family="Helvetica,sans-Serif" font-size="10.00">+ setFairTimeUnitInNS()</text>
<text text-anchor="start" x="1037" y="-19" font-family="Helvetica,sans-Serif" font-size="10.00">+ getFairTimeUnitInNS()</text>
</a>
</g>
</g>
<!-- Node1&#45;&gt;Node9 -->
<g id="edge8" class="edge"><title>Node1&#45;&gt;Node9</title>
<path fill="none" stroke="midnightblue" d="M837.679,-262.508C884.073,-256.622 963.527,-241.231 1019,-202 1023.89,-198.541 1028.57,-194.643 1033.03,-190.442"/>
<polygon fill="none" stroke="midnightblue" points="837.262,-259.033 827.744,-263.687 838.087,-265.984 837.262,-259.033"/>
</g>
<!-- Node10 -->
<g id="node10" class="node"><title>Node10</title>
<g id="a_node10"><a xlink:href="../../d0/dad/classo2_1_1tof_1_1DigitizerTask.html" target="_top" xlink:title="{o2::tof::DigitizerTask\n||+ DigitizerTask()\l+ ~DigitizerTask()\l+ Init()\l+ Exec()\l+ FinishTask()\l+ getDigitizer()\l+ setContinuous()\l+ isContinuous()\l}">
<polygon fill="none" stroke="black" points="1171,-34 1171,-168 1279,-168 1279,-34 1171,-34"/>
<text text-anchor="middle" x="1225" y="-156" font-family="Helvetica,sans-Serif" font-size="10.00">o2::tof::DigitizerTask</text>
<polyline fill="none" stroke="black" points="1171,-149 1279,-149 "/>
<text text-anchor="middle" x="1225" y="-137" font-family="Helvetica,sans-Serif" font-size="10.00"> </text>
<polyline fill="none" stroke="black" points="1171,-130 1279,-130 "/>
<text text-anchor="start" x="1179" y="-118" font-family="Helvetica,sans-Serif" font-size="10.00">+ DigitizerTask()</text>
<text text-anchor="start" x="1179" y="-107" font-family="Helvetica,sans-Serif" font-size="10.00">+ ~DigitizerTask()</text>
<text text-anchor="start" x="1179" y="-96" font-family="Helvetica,sans-Serif" font-size="10.00">+ Init()</text>
<text text-anchor="start" x="1179" y="-85" font-family="Helvetica,sans-Serif" font-size="10.00">+ Exec()</text>
<text text-anchor="start" x="1179" y="-74" font-family="Helvetica,sans-Serif" font-size="10.00">+ FinishTask()</text>
<text text-anchor="start" x="1179" y="-63" font-family="Helvetica,sans-Serif" font-size="10.00">+ getDigitizer()</text>
<text text-anchor="start" x="1179" y="-52" font-family="Helvetica,sans-Serif" font-size="10.00">+ setContinuous()</text>
<text text-anchor="start" x="1179" y="-41" font-family="Helvetica,sans-Serif" font-size="10.00">+ isContinuous()</text>
</a>
</g>
</g>
<!-- Node1&#45;&gt;Node10 -->
<g id="edge9" class="edge"><title>Node1&#45;&gt;Node10</title>
<path fill="none" stroke="midnightblue" d="M837.809,-263.129C919.283,-256.34 1108.3,-237.166 1161,-202 1173.94,-193.362 1184.82,-181.121 1193.72,-168.153"/>
<polygon fill="none" stroke="midnightblue" points="837.19,-259.668 827.508,-263.969 837.759,-266.645 837.19,-259.668"/>
</g>
<!-- Node11 -->
<g id="node11" class="node"><title>Node11</title>
<g id="a_node11"><a xlink:href="../../db/df7/classo2_1_1TPC_1_1ClustererTask.html" target="_top" xlink:title="{o2::TPC::ClustererTask\n||+ ClustererTask()\l+ ~ClustererTask()\l+ Init()\l+ Exec()\l+ setClustererEnable()\l+ isClustererEnable()\l+ getClusterer()\l+ getBoxClusterer()\l+ getHwClusterer()\l+ setContinuousReadout()\l}">
<polygon fill="none" stroke="black" points="1297.5,-23 1297.5,-179 1428.5,-179 1428.5,-23 1297.5,-23"/>
<text text-anchor="middle" x="1363" y="-167" font-family="Helvetica,sans-Serif" font-size="10.00">o2::TPC::ClustererTask</text>
<polyline fill="none" stroke="black" points="1297.5,-160 1428.5,-160 "/>
<text text-anchor="middle" x="1363" y="-148" font-family="Helvetica,sans-Serif" font-size="10.00"> </text>
<polyline fill="none" stroke="black" points="1297.5,-141 1428.5,-141 "/>
<text text-anchor="start" x="1305.5" y="-129" font-family="Helvetica,sans-Serif" font-size="10.00">+ ClustererTask()</text>
<text text-anchor="start" x="1305.5" y="-118" font-family="Helvetica,sans-Serif" font-size="10.00">+ ~ClustererTask()</text>
<text text-anchor="start" x="1305.5" y="-107" font-family="Helvetica,sans-Serif" font-size="10.00">+ Init()</text>
<text text-anchor="start" x="1305.5" y="-96" font-family="Helvetica,sans-Serif" font-size="10.00">+ Exec()</text>
<text text-anchor="start" x="1305.5" y="-85" font-family="Helvetica,sans-Serif" font-size="10.00">+ setClustererEnable()</text>
<text text-anchor="start" x="1305.5" y="-74" font-family="Helvetica,sans-Serif" font-size="10.00">+ isClustererEnable()</text>
<text text-anchor="start" x="1305.5" y="-63" font-family="Helvetica,sans-Serif" font-size="10.00">+ getClusterer()</text>
<text text-anchor="start" x="1305.5" y="-52" font-family="Helvetica,sans-Serif" font-size="10.00">+ getBoxClusterer()</text>
<text text-anchor="start" x="1305.5" y="-41" font-family="Helvetica,sans-Serif" font-size="10.00">+ getHwClusterer()</text>
<text text-anchor="start" x="1305.5" y="-30" font-family="Helvetica,sans-Serif" font-size="10.00">+ setContinuousReadout()</text>
</a>
</g>
</g>
<!-- Node1&#45;&gt;Node11 -->
<g id="edge10" class="edge"><title>Node1&#45;&gt;Node11</title>
<path fill="none" stroke="midnightblue" d="M837.799,-264.79C938.626,-260.983 1211.49,-246.709 1288,-202 1298.12,-196.087 1307.3,-188.22 1315.5,-179.485"/>
<polygon fill="none" stroke="midnightblue" points="837.623,-261.294 827.758,-265.156 837.878,-268.29 837.623,-261.294"/>
</g>
<!-- Node12 -->
<g id="node12" class="node"><title>Node12</title>
<g id="a_node12"><a xlink:href="../../dd/d64/classo2_1_1TPC_1_1DigitizerTask.html" target="_top" xlink:title="{o2::TPC::DigitizerTask\n||+ DigitizerTask()\l+ ~DigitizerTask()\l+ Init()\l+ setDebugOutput()\l+ setContinuousReadout()\l+ setMaximalTimeBinWriteOut()\l+ Exec()\l+ FinishTask()\l+ initBunchTrainStructure()\l}">
<polygon fill="none" stroke="black" points="1446.5,-28.5 1446.5,-173.5 1603.5,-173.5 1603.5,-28.5 1446.5,-28.5"/>
<text text-anchor="middle" x="1525" y="-161.5" font-family="Helvetica,sans-Serif" font-size="10.00">o2::TPC::DigitizerTask</text>
<polyline fill="none" stroke="black" points="1446.5,-154.5 1603.5,-154.5 "/>
<text text-anchor="middle" x="1525" y="-142.5" font-family="Helvetica,sans-Serif" font-size="10.00"> </text>
<polyline fill="none" stroke="black" points="1446.5,-135.5 1603.5,-135.5 "/>
<text text-anchor="start" x="1454.5" y="-123.5" font-family="Helvetica,sans-Serif" font-size="10.00">+ DigitizerTask()</text>
<text text-anchor="start" x="1454.5" y="-112.5" font-family="Helvetica,sans-Serif" font-size="10.00">+ ~DigitizerTask()</text>
<text text-anchor="start" x="1454.5" y="-101.5" font-family="Helvetica,sans-Serif" font-size="10.00">+ Init()</text>
<text text-anchor="start" x="1454.5" y="-90.5" font-family="Helvetica,sans-Serif" font-size="10.00">+ setDebugOutput()</text>
<text text-anchor="start" x="1454.5" y="-79.5" font-family="Helvetica,sans-Serif" font-size="10.00">+ setContinuousReadout()</text>
<text text-anchor="start" x="1454.5" y="-68.5" font-family="Helvetica,sans-Serif" font-size="10.00">+ setMaximalTimeBinWriteOut()</text>
<text text-anchor="start" x="1454.5" y="-57.5" font-family="Helvetica,sans-Serif" font-size="10.00">+ Exec()</text>
<text text-anchor="start" x="1454.5" y="-46.5" font-family="Helvetica,sans-Serif" font-size="10.00">+ FinishTask()</text>
<text text-anchor="start" x="1454.5" y="-35.5" font-family="Helvetica,sans-Serif" font-size="10.00">+ initBunchTrainStructure()</text>
</a>
</g>
</g>
<!-- Node1&#45;&gt;Node12 -->
<g id="edge11" class="edge"><title>Node1&#45;&gt;Node12</title>
<path fill="none" stroke="midnightblue" d="M838.021,-265.778C958.716,-264.522 1331.44,-256.239 1437,-202 1450.68,-194.972 1463.19,-184.847 1474.22,-173.709"/>
<polygon fill="none" stroke="midnightblue" points="837.763,-262.281 827.796,-265.874 837.829,-269.28 837.763,-262.281"/>
</g>
</g>
</svg>
