<?xml version="1.0" encoding="UTF-8" standalone="no"?>
<!DOCTYPE svg PUBLIC "-//W3C//DTD SVG 1.1//EN"
 "http://www.w3.org/Graphics/SVG/1.1/DTD/svg11.dtd">
<!-- Generated by graphviz version 2.36.0 (20140111.2315)
 -->
<!-- Title: /home/travis/build/AliceO2Group/AliceO2/Detectors/ITSMFT/ITS/reconstruction/include/ITSReconstruction/CA/Tracklet.h Pages: 1 -->
<svg width="449pt" height="400pt"
 viewBox="0.00 0.00 449.36 400.00" xmlns="http://www.w3.org/2000/svg" xmlns:xlink="http://www.w3.org/1999/xlink">
<g id="graph0" class="graph" transform="scale(1 1) rotate(0) translate(4 396)">
<title>/home/travis/build/AliceO2Group/AliceO2/Detectors/ITSMFT/ITS/reconstruction/include/ITSReconstruction/CA/Tracklet.h</title>
<!-- Node1 -->
<g id="node1" class="node"><title>Node1</title>
<polygon fill="#bfbfbf" stroke="black" points="180.349,-328.5 180.349,-391.5 345.349,-391.5 345.349,-328.5 180.349,-328.5"/>
<text text-anchor="start" x="188.349" y="-379.5" font-family="Helvetica,sans-Serif" font-size="10.00">/home/travis/build</text>
<text text-anchor="start" x="188.349" y="-368.5" font-family="Helvetica,sans-Serif" font-size="10.00">/AliceO2Group/AliceO2</text>
<text text-anchor="start" x="188.349" y="-357.5" font-family="Helvetica,sans-Serif" font-size="10.00">/Detectors/ITSMFT/ITS</text>
<text text-anchor="start" x="188.349" y="-346.5" font-family="Helvetica,sans-Serif" font-size="10.00">/reconstruction/include</text>
<text text-anchor="middle" x="262.849" y="-335.5" font-family="Helvetica,sans-Serif" font-size="10.00">/ITSReconstruction/CA/Tracklet.h</text>
</g>
<!-- Node2 -->
<g id="node2" class="node"><title>Node2</title>
<g id="a_node2"><a xlink:href="../../d6/d7c/Detectors_2ITSMFT_2ITS_2reconstruction_2include_2ITSReconstruction_2CA_2Cluster_8h.html" target="_top" xlink:title="ITSReconstruction/CA\l/Cluster.h">
<polygon fill="none" stroke="black" points="204.849,-261 204.849,-291 320.849,-291 320.849,-261 204.849,-261"/>
<text text-anchor="start" x="212.849" y="-279" font-family="Helvetica,sans-Serif" font-size="10.00">ITSReconstruction/CA</text>
<text text-anchor="middle" x="262.849" y="-268" font-family="Helvetica,sans-Serif" font-size="10.00">/Cluster.h</text>
</a>
</g>
</g>
<!-- Node1&#45;&gt;Node2 -->
<g id="edge1" class="edge"><title>Node1&#45;&gt;Node2</title>
<path fill="none" stroke="midnightblue" d="M262.849,-328.466C262.849,-319.502 262.849,-309.822 262.849,-301.302"/>
<polygon fill="midnightblue" stroke="midnightblue" points="266.349,-301.272 262.849,-291.272 259.349,-301.272 266.349,-301.272"/>
</g>
<!-- Node3 -->
<g id="node3" class="node"><title>Node3</title>
<polygon fill="none" stroke="#bfbfbf" points="233.849,-0.5 233.849,-19.5 271.849,-19.5 271.849,-0.5 233.849,-0.5"/>
<text text-anchor="middle" x="252.849" y="-7.5" font-family="Helvetica,sans-Serif" font-size="10.00">array</text>
</g>
<!-- Node2&#45;&gt;Node3 -->
<g id="edge2" class="edge"><title>Node2&#45;&gt;Node3</title>
<path fill="none" stroke="midnightblue" d="M304.456,-260.915C365.672,-237.719 469.144,-187.643 433.849,-124 401.235,-65.19 323.861,-32.965 281.607,-19.1934"/>
<polygon fill="midnightblue" stroke="midnightblue" points="282.505,-15.8071 271.916,-16.1587 280.413,-22.4872 282.505,-15.8071"/>
</g>
<!-- Node4 -->
<g id="node4" class="node"><title>Node4</title>
<g id="a_node4"><a xlink:href="../../df/d3d/Definitions_8h.html" target="_top" xlink:title="ITSReconstruction/CA\l/Definitions.h">
<polygon fill="none" stroke="black" points="151.849,-57 151.849,-87 267.849,-87 267.849,-57 151.849,-57"/>
<text text-anchor="start" x="159.849" y="-75" font-family="Helvetica,sans-Serif" font-size="10.00">ITSReconstruction/CA</text>
<text text-anchor="middle" x="209.849" y="-64" font-family="Helvetica,sans-Serif" font-size="10.00">/Definitions.h</text>
</a>
</g>
</g>
<!-- Node2&#45;&gt;Node4 -->
<g id="edge3" class="edge"><title>Node2&#45;&gt;Node4</title>
<path fill="none" stroke="midnightblue" d="M254.918,-260.667C249.678,-250.657 243.03,-236.841 238.849,-224 224.642,-180.37 216.439,-127.253 212.583,-97.0598"/>
<polygon fill="midnightblue" stroke="midnightblue" points="216.044,-96.5338 211.355,-87.0331 209.096,-97.3843 216.044,-96.5338"/>
</g>
<!-- Node5 -->
<g id="node5" class="node"><title>Node5</title>
<g id="a_node5"><a xlink:href="../../dc/d3e/MathUtils_8h.html" target="_top" xlink:title="ITSReconstruction/CA\l/MathUtils.h">
<polygon fill="none" stroke="black" points="26.8491,-193 26.8491,-223 142.849,-223 142.849,-193 26.8491,-193"/>
<text text-anchor="start" x="34.8491" y="-211" font-family="Helvetica,sans-Serif" font-size="10.00">ITSReconstruction/CA</text>
<text text-anchor="middle" x="84.8491" y="-200" font-family="Helvetica,sans-Serif" font-size="10.00">/MathUtils.h</text>
</a>
</g>
</g>
<!-- Node2&#45;&gt;Node5 -->
<g id="edge5" class="edge"><title>Node2&#45;&gt;Node5</title>
<path fill="none" stroke="midnightblue" d="M224.664,-260.841C197.589,-250.802 161.08,-237.265 132.158,-226.542"/>
<polygon fill="midnightblue" stroke="midnightblue" points="133.259,-223.217 122.666,-223.022 130.825,-229.78 133.259,-223.217"/>
</g>
<!-- Node9 -->
<g id="node9" class="node"><title>Node9</title>
<g id="a_node9"><a xlink:href="../../d2/d0c/IndexTableUtils_8h.html" target="_top" xlink:title="ITSReconstruction/CA\l/IndexTableUtils.h">
<polygon fill="none" stroke="black" points="247.849,-193 247.849,-223 363.849,-223 363.849,-193 247.849,-193"/>
<text text-anchor="start" x="255.849" y="-211" font-family="Helvetica,sans-Serif" font-size="10.00">ITSReconstruction/CA</text>
<text text-anchor="middle" x="305.849" y="-200" font-family="Helvetica,sans-Serif" font-size="10.00">/IndexTableUtils.h</text>
</a>
</g>
</g>
<!-- Node2&#45;&gt;Node9 -->
<g id="edge11" class="edge"><title>Node2&#45;&gt;Node9</title>
<path fill="none" stroke="midnightblue" d="M272.179,-260.679C277.645,-252.29 284.676,-241.499 290.897,-231.949"/>
<polygon fill="midnightblue" stroke="midnightblue" points="294.011,-233.582 296.537,-223.293 288.146,-229.761 294.011,-233.582"/>
</g>
<!-- Node4&#45;&gt;Node3 -->
<g id="edge4" class="edge"><title>Node4&#45;&gt;Node3</title>
<path fill="none" stroke="midnightblue" d="M220.04,-56.7808C226.224,-48.152 234.153,-37.0882 240.667,-27.9987"/>
<polygon fill="midnightblue" stroke="midnightblue" points="243.612,-29.8976 246.592,-19.7305 237.922,-25.8199 243.612,-29.8976"/>
</g>
<!-- Node5&#45;&gt;Node3 -->
<g id="edge6" class="edge"><title>Node5&#45;&gt;Node3</title>
<path fill="none" stroke="midnightblue" d="M47.4837,-192.955C31.3237,-184.795 14.0366,-172.753 4.84911,-156 -1.98971,-143.53 -0.869694,-137.022 4.84911,-124 41.9363,-39.552 166.342,-18.1917 223.58,-12.8064"/>
<polygon fill="midnightblue" stroke="midnightblue" points="224.096,-16.2754 233.769,-11.9516 223.511,-9.29995 224.096,-16.2754"/>
</g>
<!-- Node6 -->
<g id="node6" class="node"><title>Node6</title>
<polygon fill="none" stroke="#bfbfbf" points="13.8491,-130.5 13.8491,-149.5 57.8491,-149.5 57.8491,-130.5 13.8491,-130.5"/>
<text text-anchor="middle" x="35.8491" y="-137.5" font-family="Helvetica,sans-Serif" font-size="10.00">cmath</text>
</g>
<!-- Node5&#45;&gt;Node6 -->
<g id="edge7" class="edge"><title>Node5&#45;&gt;Node6</title>
<path fill="none" stroke="midnightblue" d="M74.2168,-192.679C66.6523,-182.49 56.4579,-168.759 48.4787,-158.011"/>
<polygon fill="midnightblue" stroke="midnightblue" points="51.1747,-155.771 42.4035,-149.828 45.5543,-159.944 51.1747,-155.771"/>
</g>
<!-- Node7 -->
<g id="node7" class="node"><title>Node7</title>
<g id="a_node7"><a xlink:href="../../d5/d20/Detectors_2ITSMFT_2ITS_2reconstruction_2include_2ITSReconstruction_2CA_2Constants_8h.html" target="_top" xlink:title="ITSReconstruction/CA\l/Constants.h">
<polygon fill="none" stroke="black" points="75.8491,-125 75.8491,-155 191.849,-155 191.849,-125 75.8491,-125"/>
<text text-anchor="start" x="83.8491" y="-143" font-family="Helvetica,sans-Serif" font-size="10.00">ITSReconstruction/CA</text>
<text text-anchor="middle" x="133.849" y="-132" font-family="Helvetica,sans-Serif" font-size="10.00">/Constants.h</text>
</a>
</g>
</g>
<!-- Node5&#45;&gt;Node7 -->
<g id="edge8" class="edge"><title>Node5&#45;&gt;Node7</title>
<path fill="none" stroke="midnightblue" d="M95.4814,-192.679C101.838,-184.117 110.052,-173.053 117.248,-163.36"/>
<polygon fill="midnightblue" stroke="midnightblue" points="120.087,-165.409 123.238,-155.293 114.466,-161.236 120.087,-165.409"/>
</g>
<!-- Node7&#45;&gt;Node4 -->
<g id="edge10" class="edge"><title>Node7&#45;&gt;Node4</title>
<path fill="none" stroke="midnightblue" d="M150.34,-124.679C160.768,-115.623 174.42,-103.768 186.016,-93.697"/>
<polygon fill="midnightblue" stroke="midnightblue" points="188.396,-96.2659 193.652,-87.0663 183.806,-90.9806 188.396,-96.2659"/>
</g>
<!-- Node8 -->
<g id="node8" class="node"><title>Node8</title>
<polygon fill="none" stroke="#bfbfbf" points="88.3491,-62.5 88.3491,-81.5 133.349,-81.5 133.349,-62.5 88.3491,-62.5"/>
<text text-anchor="middle" x="110.849" y="-69.5" font-family="Helvetica,sans-Serif" font-size="10.00">climits</text>
</g>
<!-- Node7&#45;&gt;Node8 -->
<g id="edge9" class="edge"><title>Node7&#45;&gt;Node8</title>
<path fill="none" stroke="midnightblue" d="M128.858,-124.679C125.45,-114.898 120.903,-101.852 117.232,-91.3148"/>
<polygon fill="midnightblue" stroke="midnightblue" points="120.522,-90.1196 113.926,-81.8283 113.911,-92.4231 120.522,-90.1196"/>
</g>
<!-- Node9&#45;&gt;Node3 -->
<g id="edge12" class="edge"><title>Node9&#45;&gt;Node3</title>
<path fill="none" stroke="midnightblue" d="M304.368,-192.92C301.231,-165.808 292.775,-104.729 275.849,-56 272.574,-46.5723 267.669,-36.6382 263.228,-28.5091"/>
<polygon fill="midnightblue" stroke="midnightblue" points="266.171,-26.6039 258.183,-19.6438 260.087,-30.0662 266.171,-26.6039"/>
</g>
<!-- Node9&#45;&gt;Node4 -->
<g id="edge16" class="edge"><title>Node9&#45;&gt;Node4</title>
<path fill="none" stroke="midnightblue" d="M295.575,-192.66C278.903,-169.387 245.824,-123.215 225.987,-95.5256"/>
<polygon fill="midnightblue" stroke="midnightblue" points="228.718,-93.328 220.049,-87.2372 223.028,-97.4047 228.718,-93.328"/>
</g>
<!-- Node9&#45;&gt;Node7 -->
<g id="edge15" class="edge"><title>Node9&#45;&gt;Node7</title>
<path fill="none" stroke="midnightblue" d="M268.951,-192.841C242.903,-182.846 207.817,-169.383 179.928,-158.682"/>
<polygon fill="midnightblue" stroke="midnightblue" points="180.981,-155.337 170.391,-155.022 178.473,-161.872 180.981,-155.337"/>
</g>
<!-- Node10 -->
<g id="node10" class="node"><title>Node10</title>
<polygon fill="none" stroke="#bfbfbf" points="323.849,-130.5 323.849,-149.5 363.849,-149.5 363.849,-130.5 323.849,-130.5"/>
<text text-anchor="middle" x="343.849" y="-137.5" font-family="Helvetica,sans-Serif" font-size="10.00">utility</text>
</g>
<!-- Node9&#45;&gt;Node10 -->
<g id="edge13" class="edge"><title>Node9&#45;&gt;Node10</title>
<path fill="none" stroke="midnightblue" d="M314.095,-192.679C319.844,-182.694 327.551,-169.307 333.681,-158.66"/>
<polygon fill="midnightblue" stroke="midnightblue" points="336.81,-160.241 338.766,-149.828 330.743,-156.748 336.81,-160.241"/>
</g>
<!-- Node11 -->
<g id="node11" class="node"><title>Node11</title>
<polygon fill="none" stroke="#bfbfbf" points="381.849,-130.5 381.849,-149.5 425.849,-149.5 425.849,-130.5 381.849,-130.5"/>
<text text-anchor="middle" x="403.849" y="-137.5" font-family="Helvetica,sans-Serif" font-size="10.00">vector</text>
</g>
<!-- Node9&#45;&gt;Node11 -->
<g id="edge14" class="edge"><title>Node9&#45;&gt;Node11</title>
<path fill="none" stroke="midnightblue" d="M327.114,-192.679C343.548,-181.611 366.189,-166.363 382.616,-155.3"/>
<polygon fill="midnightblue" stroke="midnightblue" points="384.684,-158.127 391.023,-149.638 380.774,-152.321 384.684,-158.127"/>
</g>
</g>
</svg>
