<?xml version="1.0" encoding="UTF-8" standalone="no"?>
<!DOCTYPE svg PUBLIC "-//W3C//DTD SVG 1.1//EN"
 "http://www.w3.org/Graphics/SVG/1.1/DTD/svg11.dtd">
<!-- Generated by graphviz version 2.36.0 (20140111.2315)
 -->
<!-- Title: o2::globaltracking::matchCand Pages: 1 -->
<svg width="182pt" height="500pt"
 viewBox="0.00 0.00 182.00 500.00" xmlns="http://www.w3.org/2000/svg" xmlns:xlink="http://www.w3.org/1999/xlink">
<g id="graph0" class="graph" transform="scale(1 1) rotate(0) translate(4 496)">
<title>o2::globaltracking::matchCand</title>
<!-- Node1 -->
<g id="node1" class="node"><title>Node1</title>
<polygon fill="#bfbfbf" stroke="black" points="81.5,-0.5 81.5,-79.5 174.5,-79.5 174.5,-0.5 81.5,-0.5"/>
<text text-anchor="start" x="89.5" y="-67.5" font-family="Helvetica,sans-Serif" font-size="10.00">o2::globaltracking</text>
<text text-anchor="middle" x="128" y="-56.5" font-family="Helvetica,sans-Serif" font-size="10.00">::matchCand</text>
<polyline fill="none" stroke="black" points="81.5,-49.5 174.5,-49.5 "/>
<text text-anchor="middle" x="128" y="-37.5" font-family="Helvetica,sans-Serif" font-size="10.00"> </text>
<polyline fill="none" stroke="black" points="81.5,-30.5 174.5,-30.5 "/>
<text text-anchor="start" x="89.5" y="-18.5" font-family="Helvetica,sans-Serif" font-size="10.00">+ matchCand()</text>
<text text-anchor="start" x="89.5" y="-7.5" font-family="Helvetica,sans-Serif" font-size="10.00">+ matchCand()</text>
</g>
<!-- Node2 -->
<g id="node2" class="node"><title>Node2</title>
<g id="a_node2"><a xlink:href="../../d2/d74/classo2_1_1dataformats_1_1EvIndex.html" target="_top" xlink:title="{o2::dataformats::EvIndex\l\&lt; int, int \&gt;\n||+ EvIndex()\l+ EvIndex()\l+ EvIndex()\l+ ~EvIndex()\l+ set()\l+ getEvent()\l+ getIndex()\l+ setEvent()\l+ setIndex()\l}">
<polygon fill="none" stroke="black" points="-0.5,-129 -0.5,-285 126.5,-285 126.5,-129 -0.5,-129"/>
<text text-anchor="start" x="7.5" y="-273" font-family="Helvetica,sans-Serif" font-size="10.00">o2::dataformats::EvIndex</text>
<text text-anchor="middle" x="63" y="-262" font-family="Helvetica,sans-Serif" font-size="10.00">&lt; int, int &gt;</text>
<polyline fill="none" stroke="black" points="-0.5,-255 126.5,-255 "/>
<text text-anchor="middle" x="63" y="-243" font-family="Helvetica,sans-Serif" font-size="10.00"> </text>
<polyline fill="none" stroke="black" points="-0.5,-236 126.5,-236 "/>
<text text-anchor="start" x="7.5" y="-224" font-family="Helvetica,sans-Serif" font-size="10.00">+ EvIndex()</text>
<text text-anchor="start" x="7.5" y="-213" font-family="Helvetica,sans-Serif" font-size="10.00">+ EvIndex()</text>
<text text-anchor="start" x="7.5" y="-202" font-family="Helvetica,sans-Serif" font-size="10.00">+ EvIndex()</text>
<text text-anchor="start" x="7.5" y="-191" font-family="Helvetica,sans-Serif" font-size="10.00">+ ~EvIndex()</text>
<text text-anchor="start" x="7.5" y="-180" font-family="Helvetica,sans-Serif" font-size="10.00">+ set()</text>
<text text-anchor="start" x="7.5" y="-169" font-family="Helvetica,sans-Serif" font-size="10.00">+ getEvent()</text>
<text text-anchor="start" x="7.5" y="-158" font-family="Helvetica,sans-Serif" font-size="10.00">+ getIndex()</text>
<text text-anchor="start" x="7.5" y="-147" font-family="Helvetica,sans-Serif" font-size="10.00">+ setEvent()</text>
<text text-anchor="start" x="7.5" y="-136" font-family="Helvetica,sans-Serif" font-size="10.00">+ setIndex()</text>
</a>
</g>
</g>
<!-- Node2&#45;&gt;Node1 -->
<g id="edge1" class="edge"><title>Node2&#45;&gt;Node1</title>
<path fill="none" stroke="#404040" d="M83.4355,-128.796C86.9169,-118.306 90.7866,-107.79 95,-98 96.0651,-95.5252 97.2137,-93.0231 98.4215,-90.5196"/>
<polygon fill="none" stroke="#404040" points="98.5387,-90.2911 97.7206,-83.1265 104.019,-79.6157 104.838,-86.7803 98.5387,-90.2911"/>
<text text-anchor="middle" x="114.5" y="-101.5" font-family="Helvetica,sans-Serif" font-size="10.00"> +source</text>
</g>
<!-- Node3 -->
<g id="node3" class="node"><title>Node3</title>
<g id="a_node3"><a xlink:href="../../d2/d74/classo2_1_1dataformats_1_1EvIndex.html" target="_top" xlink:title="{o2::dataformats::EvIndex\l\&lt; E, I \&gt;\n||+ EvIndex()\l+ EvIndex()\l+ EvIndex()\l+ ~EvIndex()\l+ set()\l+ getEvent()\l+ getIndex()\l+ setEvent()\l+ setIndex()\l}">
<polygon fill="none" stroke="black" points="-0.5,-335 -0.5,-491 126.5,-491 126.5,-335 -0.5,-335"/>
<text text-anchor="start" x="7.5" y="-479" font-family="Helvetica,sans-Serif" font-size="10.00">o2::dataformats::EvIndex</text>
<text text-anchor="middle" x="63" y="-468" font-family="Helvetica,sans-Serif" font-size="10.00">&lt; E, I &gt;</text>
<polyline fill="none" stroke="black" points="-0.5,-461 126.5,-461 "/>
<text text-anchor="middle" x="63" y="-449" font-family="Helvetica,sans-Serif" font-size="10.00"> </text>
<polyline fill="none" stroke="black" points="-0.5,-442 126.5,-442 "/>
<text text-anchor="start" x="7.5" y="-430" font-family="Helvetica,sans-Serif" font-size="10.00">+ EvIndex()</text>
<text text-anchor="start" x="7.5" y="-419" font-family="Helvetica,sans-Serif" font-size="10.00">+ EvIndex()</text>
<text text-anchor="start" x="7.5" y="-408" font-family="Helvetica,sans-Serif" font-size="10.00">+ EvIndex()</text>
<text text-anchor="start" x="7.5" y="-397" font-family="Helvetica,sans-Serif" font-size="10.00">+ ~EvIndex()</text>
<text text-anchor="start" x="7.5" y="-386" font-family="Helvetica,sans-Serif" font-size="10.00">+ set()</text>
<text text-anchor="start" x="7.5" y="-375" font-family="Helvetica,sans-Serif" font-size="10.00">+ getEvent()</text>
<text text-anchor="start" x="7.5" y="-364" font-family="Helvetica,sans-Serif" font-size="10.00">+ getIndex()</text>
<text text-anchor="start" x="7.5" y="-353" font-family="Helvetica,sans-Serif" font-size="10.00">+ setEvent()</text>
<text text-anchor="start" x="7.5" y="-342" font-family="Helvetica,sans-Serif" font-size="10.00">+ setIndex()</text>
</a>
</g>
</g>
<!-- Node3&#45;&gt;Node2 -->
<g id="edge2" class="edge"><title>Node3&#45;&gt;Node2</title>
<path fill="none" stroke="orange" d="M63,-324.492C63,-311.436 63,-298.056 63,-285.233"/>
<polygon fill="orange" stroke="orange" points="59.5001,-324.876 63,-334.876 66.5001,-324.876 59.5001,-324.876"/>
<text text-anchor="middle" x="87.5" y="-307.5" font-family="Helvetica,sans-Serif" font-size="10.00"> &lt; int, int &gt;</text>
</g>
<!-- Node4 -->
<g id="node4" class="node"><title>Node4</title>
<polygon fill="none" stroke="#bfbfbf" points="144.5,-178.5 144.5,-235.5 173.5,-235.5 173.5,-178.5 144.5,-178.5"/>
<text text-anchor="middle" x="159" y="-223.5" font-family="Helvetica,sans-Serif" font-size="10.00">int</text>
<polyline fill="none" stroke="#bfbfbf" points="144.5,-216.5 173.5,-216.5 "/>
<text text-anchor="middle" x="159" y="-204.5" font-family="Helvetica,sans-Serif" font-size="10.00"> </text>
<polyline fill="none" stroke="#bfbfbf" points="144.5,-197.5 173.5,-197.5 "/>
<text text-anchor="middle" x="159" y="-185.5" font-family="Helvetica,sans-Serif" font-size="10.00"> </text>
</g>
<!-- Node4&#45;&gt;Node1 -->
<g id="edge3" class="edge"><title>Node4&#45;&gt;Node1</title>
<path fill="none" stroke="#404040" d="M153.811,-178.383C149.362,-154.702 142.839,-119.98 137.463,-91.3692"/>
<polygon fill="none" stroke="#404040" points="137.455,-91.3251 132.416,-86.1668 135.239,-79.5314 140.278,-84.6896 137.455,-91.3251"/>
<text text-anchor="middle" x="153" y="-101.5" font-family="Helvetica,sans-Serif" font-size="10.00"> +first</text>
</g>
</g>
</svg>
