<?xml version="1.0" encoding="UTF-8" standalone="no"?>
<!DOCTYPE svg PUBLIC "-//W3C//DTD SVG 1.1//EN"
 "http://www.w3.org/Graphics/SVG/1.1/DTD/svg11.dtd">
<!-- Generated by graphviz version 2.36.0 (20140111.2315)
 -->
<!-- Title: /home/travis/build/AliceO2Group/AliceO2/Detectors/ITSMFT/common/simulation/src/Chip.cxx Pages: 1 -->
<!--zoomable 390 -->
<svg id="main" version="1.1" xmlns="http://www.w3.org/2000/svg" xmlns:xlink="http://www.w3.org/1999/xlink" xml:space="preserve" onload="init(evt)">
<style type="text/css"><![CDATA[
.edge:hover path { stroke: red; }
.edge:hover polygon { stroke: red; fill: red; }
]]></style>
<script type="text/javascript"><![CDATA[
var edges = document.getElementsByTagName('g');
if (edges && edges.length) {
  for (var i=0;i<edges.length;i++) {
    if (edges[i].id.substr(0,4)=='edge') {
      edges[i].setAttribute('class','edge');
    }
  }
}
]]></script>
        <defs>
                <circle id="rim" cx="0" cy="0" r="7"/>
                <circle id="rim2" cx="0" cy="0" r="3.5"/>
                <g id="zoomPlus">
                        <use xlink:href="#rim" fill="#404040">
                                <set attributeName="fill" to="#808080" begin="zoomplus.mouseover" end="zoomplus.mouseout"/>
                        </use>
                        <path d="M-4,0h8M0,-4v8" fill="none" stroke="white" stroke-width="1.5" pointer-events="none"/>
                </g>
                <g id="zoomMin">
                        <use xlink:href="#rim" fill="#404040">
                                <set attributeName="fill" to="#808080" begin="zoomminus.mouseover" end="zoomminus.mouseout"/>
                        </use>
                        <path d="M-4,0h8" fill="none" stroke="white" stroke-width="1.5" pointer-events="none"/>
                </g>
                <g id="dirArrow">
                        <path fill="none" stroke="white" stroke-width="1.5" d="M0,-3.0v7 M-2.5,-0.5L0,-3.0L2.5,-0.5"/>
                </g>
               <g id="resetDef">
                       <use xlink:href="#rim2" fill="#404040">
                               <set attributeName="fill" to="#808080" begin="reset.mouseover" end="reset.mouseout"/>
                       </use>
               </g>
        </defs>

<script type="text/javascript">
var viewWidth = 1597;
var viewHeight = 390;
var sectionId = 'dynsection-0';
</script>
<script xlink:href="../../svgpan.js"/>
<svg id="graph" class="graph">
<g id="viewport">
<title>/home/travis/build/AliceO2Group/AliceO2/Detectors/ITSMFT/common/simulation/src/Chip.cxx</title>
<!-- Node1 -->
<g id="node1" class="node"><title>Node1</title>
<polygon fill="#bfbfbf" stroke="black" points="155,-329 155,-381 297,-381 297,-329 155,-329"/>
<text text-anchor="start" x="163" y="-369" font-family="Helvetica,sans-Serif" font-size="10.00">/home/travis/build</text>
<text text-anchor="start" x="163" y="-358" font-family="Helvetica,sans-Serif" font-size="10.00">/AliceO2Group/AliceO2</text>
<text text-anchor="start" x="163" y="-347" font-family="Helvetica,sans-Serif" font-size="10.00">/Detectors/ITSMFT/common</text>
<text text-anchor="middle" x="226" y="-336" font-family="Helvetica,sans-Serif" font-size="10.00">/simulation/src/Chip.cxx</text>
</g>
<!-- Node2 -->
<g id="node2" class="node"><title>Node2</title>
<polygon fill="none" stroke="#bfbfbf" points="0,-272.5 0,-291.5 46,-291.5 46,-272.5 0,-272.5"/>
<text text-anchor="middle" x="23" y="-279.5" font-family="Helvetica,sans-Serif" font-size="10.00">cstring</text>
</g>
<!-- Node1&#45;&gt;Node2 -->
<g id="edge1" class="edge"><title>Node1&#45;&gt;Node2</title>
<path fill="none" stroke="midnightblue" d="M154.715,-329.068C121.083,-317.305 82.5812,-303.839 55.9284,-294.517"/>
<polygon fill="midnightblue" stroke="midnightblue" points="56.9233,-291.157 46.3285,-291.159 54.6122,-297.764 56.9233,-291.157"/>
</g>
<!-- Node3 -->
<g id="node3" class="node"><title>Node3</title>
<polygon fill="none" stroke="#bfbfbf" points="64,-272.5 64,-291.5 102,-291.5 102,-272.5 64,-272.5"/>
<text text-anchor="middle" x="83" y="-279.5" font-family="Helvetica,sans-Serif" font-size="10.00">tuple</text>
</g>
<!-- Node1&#45;&gt;Node3 -->
<g id="edge2" class="edge"><title>Node1&#45;&gt;Node3</title>
<path fill="none" stroke="midnightblue" d="M175.584,-328.968C153.261,-317.885 127.927,-305.306 109.409,-296.112"/>
<polygon fill="midnightblue" stroke="midnightblue" points="110.913,-292.951 100.399,-291.639 107.8,-299.221 110.913,-292.951"/>
</g>
<!-- Node4 -->
<g id="node4" class="node"><title>Node4</title>
<polygon fill="none" stroke="#bfbfbf" points="120.5,-272.5 120.5,-291.5 173.5,-291.5 173.5,-272.5 120.5,-272.5"/>
<text text-anchor="middle" x="147" y="-279.5" font-family="Helvetica,sans-Serif" font-size="10.00">TMath.h</text>
</g>
<!-- Node1&#45;&gt;Node4 -->
<g id="edge3" class="edge"><title>Node1&#45;&gt;Node4</title>
<path fill="none" stroke="midnightblue" d="M197.925,-328.768C186.699,-318.679 174.126,-307.379 164.282,-298.532"/>
<polygon fill="midnightblue" stroke="midnightblue" points="166.521,-295.838 156.744,-291.757 161.842,-301.045 166.521,-295.838"/>
</g>
<!-- Node5 -->
<g id="node5" class="node"><title>Node5</title>
<polygon fill="none" stroke="#bfbfbf" points="191.5,-272.5 191.5,-291.5 260.5,-291.5 260.5,-272.5 191.5,-272.5"/>
<text text-anchor="middle" x="226" y="-279.5" font-family="Helvetica,sans-Serif" font-size="10.00">TObjArray.h</text>
</g>
<!-- Node1&#45;&gt;Node5 -->
<g id="edge4" class="edge"><title>Node1&#45;&gt;Node5</title>
<path fill="none" stroke="midnightblue" d="M226,-328.768C226,-319.89 226,-310.074 226,-301.816"/>
<polygon fill="midnightblue" stroke="midnightblue" points="229.5,-301.757 226,-291.757 222.5,-301.757 229.5,-301.757"/>
</g>
<!-- Node6 -->
<g id="node6" class="node"><title>Node6</title>
<g id="a_node6"><a xlink:href="../../d9/d55/Chip_8h.html" target="_top" xlink:title="ITSMFTSimulation/Chip.h">
<polygon fill="none" stroke="black" points="508,-272.5 508,-291.5 638,-291.5 638,-272.5 508,-272.5"/>
<text text-anchor="middle" x="573" y="-279.5" font-family="Helvetica,sans-Serif" font-size="10.00">ITSMFTSimulation/Chip.h</text>
</a>
</g>
</g>
<!-- Node1&#45;&gt;Node6 -->
<g id="edge5" class="edge"><title>Node1&#45;&gt;Node6</title>
<path fill="none" stroke="midnightblue" d="M297.058,-339.461C363.785,-325.808 462.009,-305.71 521.497,-293.538"/>
<polygon fill="midnightblue" stroke="midnightblue" points="522.323,-296.942 531.418,-291.508 520.92,-290.084 522.323,-296.942"/>
</g>
<!-- Node27 -->
<g id="node27" class="node"><title>Node27</title>
<g id="a_node27"><a xlink:href="../../df/d29/DigiParams_8h.html" target="_top" xlink:title="Simulation parameters for the ALIPIDE chip. ">
<polygon fill="none" stroke="black" points="179.5,-142.5 179.5,-161.5 340.5,-161.5 340.5,-142.5 179.5,-142.5"/>
<text text-anchor="middle" x="260" y="-149.5" font-family="Helvetica,sans-Serif" font-size="10.00">ITSMFTSimulation/DigiParams.h</text>
</a>
</g>
</g>
<!-- Node1&#45;&gt;Node27 -->
<g id="edge30" class="edge"><title>Node1&#45;&gt;Node27</title>
<path fill="none" stroke="midnightblue" d="M248.718,-328.736C256.77,-318.159 264.854,-305.252 269,-292 282.009,-250.416 272.248,-198.513 265.325,-171.415"/>
<polygon fill="midnightblue" stroke="midnightblue" points="268.69,-170.452 262.692,-161.719 261.935,-172.286 268.69,-170.452"/>
</g>
<!-- Node28 -->
<g id="node28" class="node"><title>Node28</title>
<g id="a_node28"><a xlink:href="../../d0/dae/ITSMFT_2common_2simulation_2include_2ITSMFTSimulation_2Hit_8h.html" target="_top" xlink:title="ITSMFTSimulation/Hit.h">
<polygon fill="none" stroke="black" points="889,-272.5 889,-291.5 1011,-291.5 1011,-272.5 889,-272.5"/>
<text text-anchor="middle" x="950" y="-279.5" font-family="Helvetica,sans-Serif" font-size="10.00">ITSMFTSimulation/Hit.h</text>
</a>
</g>
</g>
<!-- Node1&#45;&gt;Node28 -->
<g id="edge32" class="edge"><title>Node1&#45;&gt;Node28</title>
<path fill="none" stroke="midnightblue" d="M297.07,-347.03C435.581,-333.447 740.201,-303.574 878.809,-289.981"/>
<polygon fill="midnightblue" stroke="midnightblue" points="879.288,-293.451 888.898,-288.992 878.604,-286.485 879.288,-293.451"/>
</g>
<!-- Node7 -->
<g id="node7" class="node"><title>Node7</title>
<g id="a_node7"><a xlink:href="../../d0/d06/ITSMFT_2common_2base_2include_2ITSMFTBase_2Digit_8h.html" target="_top" xlink:title="ITSMFTBase/Digit.h">
<polygon fill="none" stroke="black" points="317.5,-210.5 317.5,-229.5 424.5,-229.5 424.5,-210.5 317.5,-210.5"/>
<text text-anchor="middle" x="371" y="-217.5" font-family="Helvetica,sans-Serif" font-size="10.00">ITSMFTBase/Digit.h</text>
</a>
</g>
</g>
<!-- Node6&#45;&gt;Node7 -->
<g id="edge6" class="edge"><title>Node6&#45;&gt;Node7</title>
<path fill="none" stroke="midnightblue" d="M544.058,-272.403C508.733,-261.911 448.869,-244.129 409.635,-232.476"/>
<polygon fill="midnightblue" stroke="midnightblue" points="410.471,-229.073 399.888,-229.581 408.477,-235.783 410.471,-229.073"/>
</g>
<!-- Node9 -->
<g id="node9" class="node"><title>Node9</title>
<g id="a_node9"><a xlink:href="../../d7/dcd/MCCompLabel_8h.html" target="_top" xlink:title="SimulationDataFormat\l/MCCompLabel.h">
<polygon fill="none" stroke="black" points="585,-137 585,-167 699,-167 699,-137 585,-137"/>
<text text-anchor="start" x="593" y="-155" font-family="Helvetica,sans-Serif" font-size="10.00">SimulationDataFormat</text>
<text text-anchor="middle" x="642" y="-144" font-family="Helvetica,sans-Serif" font-size="10.00">/MCCompLabel.h</text>
</a>
</g>
</g>
<!-- Node6&#45;&gt;Node9 -->
<g id="edge29" class="edge"><title>Node6&#45;&gt;Node9</title>
<path fill="none" stroke="midnightblue" d="M527.347,-272.431C506.757,-266.044 484.335,-254.999 472,-236 464.256,-224.071 463.51,-215.41 472,-204 478.533,-195.219 530.175,-180.477 574.845,-169.094"/>
<polygon fill="midnightblue" stroke="midnightblue" points="575.705,-172.487 584.545,-166.646 573.993,-165.7 575.705,-172.487"/>
</g>
<!-- Node11 -->
<g id="node11" class="node"><title>Node11</title>
<polygon fill="none" stroke="#bfbfbf" points="543.5,-210.5 543.5,-229.5 602.5,-229.5 602.5,-210.5 543.5,-210.5"/>
<text text-anchor="middle" x="573" y="-217.5" font-family="Helvetica,sans-Serif" font-size="10.00">TObject.h</text>
</g>
<!-- Node6&#45;&gt;Node11 -->
<g id="edge12" class="edge"><title>Node6&#45;&gt;Node11</title>
<path fill="none" stroke="midnightblue" d="M573,-272.403C573,-263.938 573,-250.728 573,-239.82"/>
<polygon fill="midnightblue" stroke="midnightblue" points="576.5,-239.581 573,-229.581 569.5,-239.581 576.5,-239.581"/>
</g>
<!-- Node12 -->
<g id="node12" class="node"><title>Node12</title>
<polygon fill="none" stroke="#bfbfbf" points="620.5,-210.5 620.5,-229.5 679.5,-229.5 679.5,-210.5 620.5,-210.5"/>
<text text-anchor="middle" x="650" y="-217.5" font-family="Helvetica,sans-Serif" font-size="10.00">exception</text>
</g>
<!-- Node6&#45;&gt;Node12 -->
<g id="edge13" class="edge"><title>Node6&#45;&gt;Node12</title>
<path fill="none" stroke="midnightblue" d="M584.032,-272.403C596.268,-262.869 616.229,-247.315 630.993,-235.811"/>
<polygon fill="midnightblue" stroke="midnightblue" points="633.252,-238.488 638.988,-229.581 628.949,-232.966 633.252,-238.488"/>
</g>
<!-- Node13 -->
<g id="node13" class="node"><title>Node13</title>
<polygon fill="none" stroke="#bfbfbf" points="697.5,-210.5 697.5,-229.5 732.5,-229.5 732.5,-210.5 697.5,-210.5"/>
<text text-anchor="middle" x="715" y="-217.5" font-family="Helvetica,sans-Serif" font-size="10.00">map</text>
</g>
<!-- Node6&#45;&gt;Node13 -->
<g id="edge14" class="edge"><title>Node6&#45;&gt;Node13</title>
<path fill="none" stroke="midnightblue" d="M597.63,-272.449C621.193,-264.015 657.547,-250.338 688,-236 689.146,-235.46 690.311,-234.893 691.481,-234.306"/>
<polygon fill="midnightblue" stroke="midnightblue" points="693.134,-237.391 700.332,-229.616 689.857,-231.206 693.134,-237.391"/>
</g>
<!-- Node14 -->
<g id="node14" class="node"><title>Node14</title>
<polygon fill="none" stroke="#bfbfbf" points="751,-210.5 751,-229.5 803,-229.5 803,-210.5 751,-210.5"/>
<text text-anchor="middle" x="777" y="-217.5" font-family="Helvetica,sans-Serif" font-size="10.00">sstream</text>
</g>
<!-- Node6&#45;&gt;Node14 -->
<g id="edge15" class="edge"><title>Node6&#45;&gt;Node14</title>
<path fill="none" stroke="midnightblue" d="M610.461,-272.48C644.791,-264.316 696.84,-251.04 741,-236 743.412,-235.179 745.892,-234.275 748.369,-233.33"/>
<polygon fill="midnightblue" stroke="midnightblue" points="749.767,-236.541 757.751,-229.575 747.166,-230.042 749.767,-236.541"/>
</g>
<!-- Node15 -->
<g id="node15" class="node"><title>Node15</title>
<polygon fill="none" stroke="#bfbfbf" points="481,-210.5 481,-229.5 525,-229.5 525,-210.5 481,-210.5"/>
<text text-anchor="middle" x="503" y="-217.5" font-family="Helvetica,sans-Serif" font-size="10.00">vector</text>
</g>
<!-- Node6&#45;&gt;Node15 -->
<g id="edge16" class="edge"><title>Node6&#45;&gt;Node15</title>
<path fill="none" stroke="midnightblue" d="M562.971,-272.403C551.951,-262.958 534.04,-247.606 520.657,-236.134"/>
<polygon fill="midnightblue" stroke="midnightblue" points="522.881,-233.431 513.011,-229.581 518.325,-238.746 522.881,-233.431"/>
</g>
<!-- Node16 -->
<g id="node16" class="node"><title>Node16</title>
<g id="a_node16"><a xlink:href="../../dd/d76/Cartesian3D_8h.html" target="_top" xlink:title="MathUtils/Cartesian3D.h">
<polygon fill="none" stroke="black" points="933.5,-142.5 933.5,-161.5 1058.5,-161.5 1058.5,-142.5 933.5,-142.5"/>
<text text-anchor="middle" x="996" y="-149.5" font-family="Helvetica,sans-Serif" font-size="10.00">MathUtils/Cartesian3D.h</text>
</a>
</g>
</g>
<!-- Node6&#45;&gt;Node16 -->
<g id="edge17" class="edge"><title>Node6&#45;&gt;Node16</title>
<path fill="none" stroke="midnightblue" d="M638.182,-272.996C686.819,-266.002 754.508,-254.095 812,-236 871.276,-217.343 936.719,-184.708 971.343,-166.412"/>
<polygon fill="midnightblue" stroke="midnightblue" points="973.085,-169.45 980.261,-161.655 969.791,-163.273 973.085,-169.45"/>
</g>
<!-- Node8 -->
<g id="node8" class="node"><title>Node8</title>
<polygon fill="none" stroke="#bfbfbf" points="342,-74.5 342,-93.5 398,-93.5 398,-74.5 342,-74.5"/>
<text text-anchor="middle" x="370" y="-81.5" font-family="Helvetica,sans-Serif" font-size="10.00">Rtypes.h</text>
</g>
<!-- Node7&#45;&gt;Node8 -->
<g id="edge7" class="edge"><title>Node7&#45;&gt;Node8</title>
<path fill="none" stroke="midnightblue" d="M370.934,-210.208C370.774,-188.722 370.359,-133.167 370.14,-103.814"/>
<polygon fill="midnightblue" stroke="midnightblue" points="373.639,-103.624 370.065,-93.6503 366.639,-103.676 373.639,-103.624"/>
</g>
<!-- Node7&#45;&gt;Node9 -->
<g id="edge8" class="edge"><title>Node7&#45;&gt;Node9</title>
<path fill="none" stroke="midnightblue" d="M406.151,-210.439C448.822,-200.047 521.701,-182.298 575.179,-169.274"/>
<polygon fill="midnightblue" stroke="midnightblue" points="576.039,-172.667 584.927,-166.9 574.382,-165.866 576.039,-172.667"/>
</g>
<!-- Node10 -->
<g id="node10" class="node"><title>Node10</title>
<g id="a_node10"><a xlink:href="../../df/d5d/common_2include_2CommonDataFormat_2TimeStamp_8h.html" target="_top" xlink:title="CommonDataFormat/TimeStamp.h">
<polygon fill="none" stroke="black" points="397,-142.5 397,-161.5 567,-161.5 567,-142.5 397,-142.5"/>
<text text-anchor="middle" x="482" y="-149.5" font-family="Helvetica,sans-Serif" font-size="10.00">CommonDataFormat/TimeStamp.h</text>
</a>
</g>
</g>
<!-- Node7&#45;&gt;Node10 -->
<g id="edge10" class="edge"><title>Node7&#45;&gt;Node10</title>
<path fill="none" stroke="midnightblue" d="M385.511,-210.372C404.125,-199.304 436.637,-179.972 458.727,-166.838"/>
<polygon fill="midnightblue" stroke="midnightblue" points="460.679,-169.75 467.485,-161.63 457.101,-163.733 460.679,-169.75"/>
</g>
<!-- Node9&#45;&gt;Node8 -->
<g id="edge9" class="edge"><title>Node9&#45;&gt;Node8</title>
<path fill="none" stroke="midnightblue" d="M584.774,-137.94C581.808,-137.28 578.869,-136.63 576,-136 500.565,-119.442 479.742,-122.951 406,-100 403.422,-99.1977 400.774,-98.2813 398.14,-97.306"/>
<polygon fill="midnightblue" stroke="midnightblue" points="399.399,-94.0402 388.813,-93.6135 396.822,-100.549 399.399,-94.0402"/>
</g>
<!-- Node10&#45;&gt;Node8 -->
<g id="edge11" class="edge"><title>Node10&#45;&gt;Node8</title>
<path fill="none" stroke="midnightblue" d="M467.358,-142.372C448.576,-131.304 415.771,-111.972 393.483,-98.838"/>
<polygon fill="midnightblue" stroke="midnightblue" points="395.038,-95.692 384.646,-93.6305 391.484,-101.723 395.038,-95.692"/>
</g>
<!-- Node16&#45;&gt;Node8 -->
<g id="edge23" class="edge"><title>Node16&#45;&gt;Node8</title>
<path fill="none" stroke="midnightblue" d="M956.98,-142.438C944.86,-140.038 931.422,-137.64 919,-136 692.404,-106.092 628.415,-152.646 406,-100 403,-99.2899 399.928,-98.3579 396.906,-97.3054"/>
<polygon fill="midnightblue" stroke="midnightblue" points="398.151,-94.0343 387.563,-93.6568 395.604,-100.555 398.151,-94.0343"/>
</g>
<!-- Node17 -->
<g id="node17" class="node"><title>Node17</title>
<polygon fill="none" stroke="#bfbfbf" points="558.5,-69 558.5,-99 709.5,-99 709.5,-69 558.5,-69"/>
<text text-anchor="start" x="566.5" y="-87" font-family="Helvetica,sans-Serif" font-size="10.00">Math/GenVector/Displacement</text>
<text text-anchor="middle" x="634" y="-76" font-family="Helvetica,sans-Serif" font-size="10.00">Vector3D.h</text>
</g>
<!-- Node16&#45;&gt;Node17 -->
<g id="edge18" class="edge"><title>Node16&#45;&gt;Node17</title>
<path fill="none" stroke="midnightblue" d="M952.854,-142.474C941.823,-140.328 929.978,-138.051 919,-136 881.737,-129.037 789.448,-112.575 719.91,-100.224"/>
<polygon fill="midnightblue" stroke="midnightblue" points="720.283,-96.7355 709.825,-98.4333 719.059,-103.628 720.283,-96.7355"/>
</g>
<!-- Node18 -->
<g id="node18" class="node"><title>Node18</title>
<polygon fill="none" stroke="#bfbfbf" points="728,-74.5 728,-93.5 904,-93.5 904,-74.5 728,-74.5"/>
<text text-anchor="middle" x="816" y="-81.5" font-family="Helvetica,sans-Serif" font-size="10.00">Math/GenVector/PositionVector3D.h</text>
</g>
<!-- Node16&#45;&gt;Node18 -->
<g id="edge19" class="edge"><title>Node16&#45;&gt;Node18</title>
<path fill="none" stroke="midnightblue" d="M972.468,-142.372C940.849,-130.778 884.499,-110.116 848.751,-97.0087"/>
<polygon fill="midnightblue" stroke="midnightblue" points="849.846,-93.6824 839.252,-93.5259 847.436,-100.255 849.846,-93.6824"/>
</g>
<!-- Node19 -->
<g id="node19" class="node"><title>Node19</title>
<polygon fill="none" stroke="#bfbfbf" points="921.5,-74.5 921.5,-93.5 1070.5,-93.5 1070.5,-74.5 921.5,-74.5"/>
<text text-anchor="middle" x="996" y="-81.5" font-family="Helvetica,sans-Serif" font-size="10.00">Math/GenVector/Rotation3D.h</text>
</g>
<!-- Node16&#45;&gt;Node19 -->
<g id="edge20" class="edge"><title>Node16&#45;&gt;Node19</title>
<path fill="none" stroke="midnightblue" d="M996,-142.372C996,-132.643 996,-116.528 996,-103.85"/>
<polygon fill="midnightblue" stroke="midnightblue" points="999.5,-103.841 996,-93.8411 992.5,-103.841 999.5,-103.841"/>
</g>
<!-- Node20 -->
<g id="node20" class="node"><title>Node20</title>
<polygon fill="none" stroke="#bfbfbf" points="1089,-74.5 1089,-93.5 1245,-93.5 1245,-74.5 1089,-74.5"/>
<text text-anchor="middle" x="1167" y="-81.5" font-family="Helvetica,sans-Serif" font-size="10.00">Math/GenVector/Transform3D.h</text>
</g>
<!-- Node16&#45;&gt;Node20 -->
<g id="edge21" class="edge"><title>Node16&#45;&gt;Node20</title>
<path fill="none" stroke="midnightblue" d="M1018.36,-142.372C1048.27,-130.827 1101.47,-110.293 1135.45,-97.1772"/>
<polygon fill="midnightblue" stroke="midnightblue" points="1136.84,-100.392 1144.91,-93.5259 1134.32,-93.8615 1136.84,-100.392"/>
</g>
<!-- Node21 -->
<g id="node21" class="node"><title>Node21</title>
<polygon fill="none" stroke="#bfbfbf" points="1263,-74.5 1263,-93.5 1423,-93.5 1423,-74.5 1263,-74.5"/>
<text text-anchor="middle" x="1343" y="-81.5" font-family="Helvetica,sans-Serif" font-size="10.00">Math/GenVector/Translation3D.h</text>
</g>
<!-- Node16&#45;&gt;Node21 -->
<g id="edge22" class="edge"><title>Node16&#45;&gt;Node21</title>
<path fill="none" stroke="midnightblue" d="M1039.56,-142.469C1050.48,-140.343 1062.17,-138.078 1073,-136 1146.94,-121.815 1232.34,-105.736 1286.96,-95.4896"/>
<polygon fill="midnightblue" stroke="midnightblue" points="1287.94,-98.8664 1297.12,-93.5833 1286.65,-91.9863 1287.94,-98.8664"/>
</g>
<!-- Node22 -->
<g id="node22" class="node"><title>Node22</title>
<polygon fill="none" stroke="#bfbfbf" points="1441,-74.5 1441,-93.5 1517,-93.5 1517,-74.5 1441,-74.5"/>
<text text-anchor="middle" x="1479" y="-81.5" font-family="Helvetica,sans-Serif" font-size="10.00">TGeoMatrix.h</text>
</g>
<!-- Node16&#45;&gt;Node22 -->
<g id="edge24" class="edge"><title>Node16&#45;&gt;Node22</title>
<path fill="none" stroke="midnightblue" d="M1036.24,-142.432C1048.05,-140.116 1061.01,-137.765 1073,-136 1231.65,-112.644 1274.98,-132.555 1432,-100 1436.46,-99.0751 1441.1,-97.8871 1445.64,-96.5851"/>
<polygon fill="midnightblue" stroke="midnightblue" points="1446.81,-99.8876 1455.35,-93.611 1444.76,-93.1949 1446.81,-99.8876"/>
</g>
<!-- Node23 -->
<g id="node23" class="node"><title>Node23</title>
<polygon fill="none" stroke="#bfbfbf" points="1535,-74.5 1535,-93.5 1589,-93.5 1589,-74.5 1535,-74.5"/>
<text text-anchor="middle" x="1562" y="-81.5" font-family="Helvetica,sans-Serif" font-size="10.00">iostream</text>
</g>
<!-- Node16&#45;&gt;Node23 -->
<g id="edge25" class="edge"><title>Node16&#45;&gt;Node23</title>
<path fill="none" stroke="midnightblue" d="M1035.43,-142.43C1047.44,-140.059 1060.72,-137.678 1073,-136 1273.11,-108.647 1329.68,-147.429 1526,-100 1529,-99.276 1532.07,-98.3351 1535.09,-97.2773"/>
<polygon fill="midnightblue" stroke="midnightblue" points="1536.39,-100.526 1544.43,-93.6224 1533.84,-94.0067 1536.39,-100.526"/>
</g>
<!-- Node24 -->
<g id="node24" class="node"><title>Node24</title>
<g id="a_node24"><a xlink:href="../../d2/dd0/Cartesian2D_8h.html" target="_top" xlink:title="MathUtils/Cartesian2D.h">
<polygon fill="none" stroke="black" points="415.5,-74.5 415.5,-93.5 540.5,-93.5 540.5,-74.5 415.5,-74.5"/>
<text text-anchor="middle" x="478" y="-81.5" font-family="Helvetica,sans-Serif" font-size="10.00">MathUtils/Cartesian2D.h</text>
</a>
</g>
</g>
<!-- Node16&#45;&gt;Node24 -->
<g id="edge26" class="edge"><title>Node16&#45;&gt;Node24</title>
<path fill="none" stroke="midnightblue" d="M956.159,-142.488C944.247,-140.146 931.129,-137.767 919,-136 755.506,-112.177 712.301,-125.115 549,-100 541.12,-98.7881 532.798,-97.2588 524.733,-95.6431"/>
<polygon fill="midnightblue" stroke="midnightblue" points="525.21,-92.1677 514.708,-93.5676 523.79,-99.0223 525.21,-92.1677"/>
</g>
<!-- Node25 -->
<g id="node25" class="node"><title>Node25</title>
<polygon fill="none" stroke="#bfbfbf" points="311.5,-1 311.5,-31 462.5,-31 462.5,-1 311.5,-1"/>
<text text-anchor="start" x="319.5" y="-19" font-family="Helvetica,sans-Serif" font-size="10.00">Math/GenVector/Displacement</text>
<text text-anchor="middle" x="387" y="-8" font-family="Helvetica,sans-Serif" font-size="10.00">Vector2D.h</text>
</g>
<!-- Node24&#45;&gt;Node25 -->
<g id="edge27" class="edge"><title>Node24&#45;&gt;Node25</title>
<path fill="none" stroke="midnightblue" d="M466.103,-74.3717C453.221,-65.0286 432.22,-49.7966 415.093,-37.375"/>
<polygon fill="midnightblue" stroke="midnightblue" points="416.703,-34.2194 406.553,-31.1815 412.593,-39.8859 416.703,-34.2194"/>
</g>
<!-- Node26 -->
<g id="node26" class="node"><title>Node26</title>
<polygon fill="none" stroke="#bfbfbf" points="481,-6.5 481,-25.5 657,-25.5 657,-6.5 481,-6.5"/>
<text text-anchor="middle" x="569" y="-13.5" font-family="Helvetica,sans-Serif" font-size="10.00">Math/GenVector/PositionVector2D.h</text>
</g>
<!-- Node24&#45;&gt;Node26 -->
<g id="edge28" class="edge"><title>Node24&#45;&gt;Node26</title>
<path fill="none" stroke="midnightblue" d="M489.897,-74.3717C504.884,-63.5015 530.862,-44.6602 548.942,-31.5474"/>
<polygon fill="midnightblue" stroke="midnightblue" points="551.06,-34.3349 557.1,-25.6305 546.95,-28.6684 551.06,-34.3349"/>
</g>
<!-- Node27&#45;&gt;Node8 -->
<g id="edge31" class="edge"><title>Node27&#45;&gt;Node8</title>
<path fill="none" stroke="midnightblue" d="M274.381,-142.372C292.827,-131.304 325.046,-111.972 346.937,-98.838"/>
<polygon fill="midnightblue" stroke="midnightblue" points="348.842,-101.777 355.616,-93.6305 345.24,-95.7742 348.842,-101.777"/>
</g>
<!-- Node28&#45;&gt;Node8 -->
<g id="edge36" class="edge"><title>Node28&#45;&gt;Node8</title>
<path fill="none" stroke="midnightblue" d="M941.122,-272.261C925.262,-256.982 890.569,-225.039 857,-204 795.32,-165.343 778.089,-155.654 708,-136 577.848,-99.5032 536.743,-134.321 406,-100 403.176,-99.2586 400.281,-98.3413 397.421,-97.3285"/>
<polygon fill="midnightblue" stroke="midnightblue" points="398.563,-94.0172 387.976,-93.6333 396.013,-100.536 398.563,-94.0172"/>
</g>
<!-- Node28&#45;&gt;Node9 -->
<g id="edge35" class="edge"><title>Node28&#45;&gt;Node9</title>
<path fill="none" stroke="midnightblue" d="M936.785,-272.335C912.771,-256.887 860.009,-224.309 812,-204 779.095,-190.08 741.122,-178.307 709.422,-169.592"/>
<polygon fill="midnightblue" stroke="midnightblue" points="709.932,-166.104 699.365,-166.871 708.104,-172.861 709.932,-166.104"/>
</g>
<!-- Node28&#45;&gt;Node23 -->
<g id="edge38" class="edge"><title>Node28&#45;&gt;Node23</title>
<path fill="none" stroke="midnightblue" d="M975.862,-272.368C998.841,-264.268 1033.03,-251.155 1061,-236 1082.9,-224.137 1084.32,-214.281 1107,-204 1281.76,-124.791 1343.81,-160.182 1526,-100 1528.42,-99.201 1530.9,-98.3128 1533.38,-97.3789"/>
<polygon fill="midnightblue" stroke="midnightblue" points="1534.78,-100.592 1542.77,-93.6427 1532.19,-94.0884 1534.78,-100.592"/>
</g>
<!-- Node29 -->
<g id="node29" class="node"><title>Node29</title>
<g id="a_node29"><a xlink:href="../../d4/d25/BaseHits_8h.html" target="_top" xlink:title="SimulationDataFormat\l/BaseHits.h">
<polygon fill="none" stroke="black" points="938,-205 938,-235 1052,-235 1052,-205 938,-205"/>
<text text-anchor="start" x="946" y="-223" font-family="Helvetica,sans-Serif" font-size="10.00">SimulationDataFormat</text>
<text text-anchor="middle" x="995" y="-212" font-family="Helvetica,sans-Serif" font-size="10.00">/BaseHits.h</text>
</a>
</g>
</g>
<!-- Node28&#45;&gt;Node29 -->
<g id="edge33" class="edge"><title>Node28&#45;&gt;Node29</title>
<path fill="none" stroke="midnightblue" d="M956.447,-272.403C962.143,-264.809 970.703,-253.396 978.311,-243.252"/>
<polygon fill="midnightblue" stroke="midnightblue" points="981.194,-245.241 984.394,-235.141 975.594,-241.041 981.194,-245.241"/>
</g>
<!-- Node30 -->
<g id="node30" class="node"><title>Node30</title>
<polygon fill="none" stroke="#bfbfbf" points="1115.5,-210.5 1115.5,-229.5 1180.5,-229.5 1180.5,-210.5 1115.5,-210.5"/>
<text text-anchor="middle" x="1148" y="-217.5" font-family="Helvetica,sans-Serif" font-size="10.00">TVector3.h</text>
</g>
<!-- Node28&#45;&gt;Node30 -->
<g id="edge37" class="edge"><title>Node28&#45;&gt;Node30</title>
<path fill="none" stroke="midnightblue" d="M979.28,-272.456C1009.74,-263.525 1058.79,-249.025 1101,-236 1104.38,-234.958 1107.88,-233.863 1111.39,-232.758"/>
<polygon fill="midnightblue" stroke="midnightblue" points="1112.71,-236.013 1121.19,-229.656 1110.6,-229.34 1112.71,-236.013"/>
</g>
<!-- Node29&#45;&gt;Node16 -->
<g id="edge34" class="edge"><title>Node29&#45;&gt;Node16</title>
<path fill="none" stroke="midnightblue" d="M995.217,-204.679C995.362,-195.101 995.555,-182.394 995.712,-171.977"/>
<polygon fill="midnightblue" stroke="midnightblue" points="999.214,-171.88 995.866,-161.828 992.215,-171.774 999.214,-171.88"/>
</g>
</g>
</svg>
        <g id="navigator" transform="translate(0 0)" fill="#404254">
                <rect fill="#f2f5e9" fill-opacity="0.5" stroke="#606060" stroke-width=".5" x="0" y="0" width="60" height="60"/>
                <use id="zoomplus" xlink:href="#zoomPlus" x="17" y="9" onmousedown="handleZoom(evt,'in')"/>
                <use id="zoomminus" xlink:href="#zoomMin" x="42" y="9" onmousedown="handleZoom(evt,'out')"/>
                <use id="reset" xlink:href="#resetDef" x="30" y="36" onmousedown="handleReset()"/>
                <g id="arrowUp" xlink:href="#dirArrow" transform="translate(30 24)" onmousedown="handlePan(0,-1)">
                  <use xlink:href="#rim" fill="#404040">
                        <set attributeName="fill" to="#808080" begin="arrowUp.mouseover" end="arrowUp.mouseout"/>
                  </use>
                  <path fill="none" stroke="white" stroke-width="1.5" d="M0,-3.0v7 M-2.5,-0.5L0,-3.0L2.5,-0.5"/>
                </g>
                <g id="arrowRight" xlink:href="#dirArrow" transform="rotate(90) translate(36 -43)" onmousedown="handlePan(1,0)">
                  <use xlink:href="#rim" fill="#404040">
                        <set attributeName="fill" to="#808080" begin="arrowRight.mouseover" end="arrowRight.mouseout"/>
                  </use>
                  <path fill="none" stroke="white" stroke-width="1.5" d="M0,-3.0v7 M-2.5,-0.5L0,-3.0L2.5,-0.5"/>
                </g>
                <g id="arrowDown" xlink:href="#dirArrow" transform="rotate(180) translate(-30 -48)" onmousedown="handlePan(0,1)">
                  <use xlink:href="#rim" fill="#404040">
                        <set attributeName="fill" to="#808080" begin="arrowDown.mouseover" end="arrowDown.mouseout"/>
                  </use>
                  <path fill="none" stroke="white" stroke-width="1.5" d="M0,-3.0v7 M-2.5,-0.5L0,-3.0L2.5,-0.5"/>
                </g>
                <g id="arrowLeft" xlink:href="#dirArrow" transform="rotate(270) translate(-36 17)" onmousedown="handlePan(-1,0)">
                  <use xlink:href="#rim" fill="#404040">
                        <set attributeName="fill" to="#808080" begin="arrowLeft.mouseover" end="arrowLeft.mouseout"/>
                  </use>
                  <path fill="none" stroke="white" stroke-width="1.5" d="M0,-3.0v7 M-2.5,-0.5L0,-3.0L2.5,-0.5"/>
                </g>
        </g>
        <svg viewBox="0 0 15 15" width="100%" height="30px" preserveAspectRatio="xMaxYMin meet">
         <g id="arrow_out" transform="scale(0.3 0.3)">
          <a xlink:href="Chip_8cxx__incl_org.svg" target="_base">
           <rect id="button" ry="5" rx="5" y="6" x="6" height="38" width="38"
                fill="#f2f5e9" fill-opacity="0.5" stroke="#606060" stroke-width="1.0"/>
           <path id="arrow"
             d="M 11.500037,31.436501 C 11.940474,20.09759 22.043105,11.32322 32.158766,21.979434 L 37.068811,17.246167 C 37.068811,17.246167 37.088388,32 37.088388,32 L 22.160133,31.978069 C 22.160133,31.978069 26.997745,27.140456 26.997745,27.140456 C 18.528582,18.264221 13.291696,25.230495 11.500037,31.436501 z"
             style="fill:#404040;"/>
          </a>
         </g>
        </svg>
</svg>
