<?xml version="1.0" encoding="UTF-8" standalone="no"?>
<!DOCTYPE svg PUBLIC "-//W3C//DTD SVG 1.1//EN"
 "http://www.w3.org/Graphics/SVG/1.1/DTD/svg11.dtd">
<!-- Generated by graphviz version 2.36.0 (20140111.2315)
 -->
<!-- Title: /home/travis/build/AliceO2Group/AliceO2/Detectors/TPC/reconstruction/src/HwClusterFinder.cxx Pages: 1 -->
<svg width="815pt" height="254pt"
 viewBox="0.00 0.00 815.00 254.00" xmlns="http://www.w3.org/2000/svg" xmlns:xlink="http://www.w3.org/1999/xlink">
<g id="graph0" class="graph" transform="scale(1 1) rotate(0) translate(4 250)">
<title>/home/travis/build/AliceO2Group/AliceO2/Detectors/TPC/reconstruction/src/HwClusterFinder.cxx</title>
<!-- Node1 -->
<g id="node1" class="node"><title>Node1</title>
<polygon fill="#bfbfbf" stroke="black" points="505,-193 505,-245 655,-245 655,-193 505,-193"/>
<text text-anchor="start" x="513" y="-233" font-family="Helvetica,sans-Serif" font-size="10.00">/home/travis/build</text>
<text text-anchor="start" x="513" y="-222" font-family="Helvetica,sans-Serif" font-size="10.00">/AliceO2Group/AliceO2</text>
<text text-anchor="start" x="513" y="-211" font-family="Helvetica,sans-Serif" font-size="10.00">/Detectors/TPC/reconstruction</text>
<text text-anchor="middle" x="580" y="-200" font-family="Helvetica,sans-Serif" font-size="10.00">/src/HwClusterFinder.cxx</text>
</g>
<!-- Node2 -->
<g id="node2" class="node"><title>Node2</title>
<g id="a_node2"><a xlink:href="../../dc/d2b/HwClusterFinder_8h.html" target="_top" xlink:title="Class for TPC HW cluster finder. ">
<polygon fill="none" stroke="black" points="504,-125 504,-155 656,-155 656,-125 504,-125"/>
<text text-anchor="start" x="512" y="-143" font-family="Helvetica,sans-Serif" font-size="10.00">TPCReconstruction/HwCluster</text>
<text text-anchor="middle" x="580" y="-132" font-family="Helvetica,sans-Serif" font-size="10.00">Finder.h</text>
</a>
</g>
</g>
<!-- Node1&#45;&gt;Node2 -->
<g id="edge1" class="edge"><title>Node1&#45;&gt;Node2</title>
<path fill="none" stroke="midnightblue" d="M580,-192.787C580,-184.029 580,-174.225 580,-165.523"/>
<polygon fill="midnightblue" stroke="midnightblue" points="583.5,-165.252 580,-155.252 576.5,-165.252 583.5,-165.252"/>
</g>
<!-- Node8 -->
<g id="node8" class="node"><title>Node8</title>
<polygon fill="none" stroke="#bfbfbf" points="674,-130.5 674,-149.5 718,-149.5 718,-130.5 674,-130.5"/>
<text text-anchor="middle" x="696" y="-137.5" font-family="Helvetica,sans-Serif" font-size="10.00">cmath</text>
</g>
<!-- Node1&#45;&gt;Node8 -->
<g id="edge7" class="edge"><title>Node1&#45;&gt;Node8</title>
<path fill="none" stroke="midnightblue" d="M617.983,-192.787C636.763,-180.321 658.734,-165.737 674.566,-155.228"/>
<polygon fill="midnightblue" stroke="midnightblue" points="676.712,-158.004 683.108,-149.558 672.841,-152.172 676.712,-158.004"/>
</g>
<!-- Node9 -->
<g id="node9" class="node"><title>Node9</title>
<g id="a_node9"><a xlink:href="../../dc/ddf/DataFormats_2Detectors_2TPC_2include_2DataFormatsTPC_2Cluster_8h.html" target="_top" xlink:title="DataFormatsTPC/Cluster.h">
<polygon fill="none" stroke="black" points="161.5,-130.5 161.5,-149.5 298.5,-149.5 298.5,-130.5 161.5,-130.5"/>
<text text-anchor="middle" x="230" y="-137.5" font-family="Helvetica,sans-Serif" font-size="10.00">DataFormatsTPC/Cluster.h</text>
</a>
</g>
</g>
<!-- Node1&#45;&gt;Node9 -->
<g id="edge8" class="edge"><title>Node1&#45;&gt;Node9</title>
<path fill="none" stroke="midnightblue" d="M504.916,-201.482C436.512,-186.433 337.478,-164.645 278.824,-151.741"/>
<polygon fill="midnightblue" stroke="midnightblue" points="279.229,-148.247 268.711,-149.516 277.725,-155.083 279.229,-148.247"/>
</g>
<!-- Node13 -->
<g id="node13" class="node"><title>Node13</title>
<g id="a_node13"><a xlink:href="../../db/d6b/ClusterContainer_8h.html" target="_top" xlink:title="Container class for TPC clusters. ">
<polygon fill="none" stroke="black" points="348.5,-125 348.5,-155 485.5,-155 485.5,-125 348.5,-125"/>
<text text-anchor="start" x="356.5" y="-143" font-family="Helvetica,sans-Serif" font-size="10.00">TPCReconstruction/Cluster</text>
<text text-anchor="middle" x="417" y="-132" font-family="Helvetica,sans-Serif" font-size="10.00">Container.h</text>
</a>
</g>
</g>
<!-- Node1&#45;&gt;Node13 -->
<g id="edge13" class="edge"><title>Node1&#45;&gt;Node13</title>
<path fill="none" stroke="midnightblue" d="M526.628,-192.787C503.6,-181.909 477.158,-169.418 456.013,-159.429"/>
<polygon fill="midnightblue" stroke="midnightblue" points="457.238,-156.137 446.701,-155.031 454.248,-162.467 457.238,-156.137"/>
</g>
<!-- Node15 -->
<g id="node15" class="node"><title>Node15</title>
<polygon fill="none" stroke="#bfbfbf" points="736.5,-130.5 736.5,-149.5 807.5,-149.5 807.5,-130.5 736.5,-130.5"/>
<text text-anchor="middle" x="772" y="-137.5" font-family="Helvetica,sans-Serif" font-size="10.00">FairLogger.h</text>
</g>
<!-- Node1&#45;&gt;Node15 -->
<g id="edge17" class="edge"><title>Node1&#45;&gt;Node15</title>
<path fill="none" stroke="midnightblue" d="M642.602,-192.894C675.594,-179.663 714.599,-164.02 741.095,-153.394"/>
<polygon fill="midnightblue" stroke="midnightblue" points="742.621,-156.553 750.599,-149.583 740.015,-150.056 742.621,-156.553"/>
</g>
<!-- Node3 -->
<g id="node3" class="node"><title>Node3</title>
<polygon fill="none" stroke="#bfbfbf" points="445,-62.5 445,-81.5 489,-81.5 489,-62.5 445,-62.5"/>
<text text-anchor="middle" x="467" y="-69.5" font-family="Helvetica,sans-Serif" font-size="10.00">vector</text>
</g>
<!-- Node2&#45;&gt;Node3 -->
<g id="edge2" class="edge"><title>Node2&#45;&gt;Node3</title>
<path fill="none" stroke="midnightblue" d="M555.759,-124.841C536.476,-113.579 509.654,-97.9132 490.554,-86.7572"/>
<polygon fill="midnightblue" stroke="midnightblue" points="492.265,-83.7031 481.864,-81.6819 488.734,-89.7477 492.265,-83.7031"/>
</g>
<!-- Node4 -->
<g id="node4" class="node"><title>Node4</title>
<polygon fill="none" stroke="#bfbfbf" points="641,-62.5 641,-81.5 697,-81.5 697,-62.5 641,-62.5"/>
<text text-anchor="middle" x="669" y="-69.5" font-family="Helvetica,sans-Serif" font-size="10.00">algorithm</text>
</g>
<!-- Node2&#45;&gt;Node4 -->
<g id="edge3" class="edge"><title>Node2&#45;&gt;Node4</title>
<path fill="none" stroke="midnightblue" d="M599.312,-124.679C614.099,-113.713 634.418,-98.645 649.301,-87.6085"/>
<polygon fill="midnightblue" stroke="midnightblue" points="651.404,-90.4058 657.352,-81.6379 647.235,-84.7832 651.404,-90.4058"/>
</g>
<!-- Node5 -->
<g id="node5" class="node"><title>Node5</title>
<polygon fill="none" stroke="#bfbfbf" points="715,-62.5 715,-81.5 755,-81.5 755,-62.5 715,-62.5"/>
<text text-anchor="middle" x="735" y="-69.5" font-family="Helvetica,sans-Serif" font-size="10.00">utility</text>
</g>
<!-- Node2&#45;&gt;Node5 -->
<g id="edge4" class="edge"><title>Node2&#45;&gt;Node5</title>
<path fill="none" stroke="midnightblue" d="M616.413,-124.992C641.518,-115.128 675.54,-101.352 705,-88 706.359,-87.384 707.747,-86.7411 709.143,-86.0828"/>
<polygon fill="midnightblue" stroke="midnightblue" points="710.826,-89.1566 718.29,-81.6372 707.766,-82.8609 710.826,-89.1566"/>
</g>
<!-- Node6 -->
<g id="node6" class="node"><title>Node6</title>
<polygon fill="none" stroke="#bfbfbf" points="507,-62.5 507,-81.5 559,-81.5 559,-62.5 507,-62.5"/>
<text text-anchor="middle" x="533" y="-69.5" font-family="Helvetica,sans-Serif" font-size="10.00">memory</text>
</g>
<!-- Node2&#45;&gt;Node6 -->
<g id="edge5" class="edge"><title>Node2&#45;&gt;Node6</title>
<path fill="none" stroke="midnightblue" d="M569.802,-124.679C562.546,-114.49 552.768,-100.759 545.114,-90.0112"/>
<polygon fill="midnightblue" stroke="midnightblue" points="547.939,-87.9437 539.287,-81.8283 542.237,-92.0042 547.939,-87.9437"/>
</g>
<!-- Node7 -->
<g id="node7" class="node"><title>Node7</title>
<polygon fill="none" stroke="#bfbfbf" points="577,-62.5 577,-81.5 623,-81.5 623,-62.5 577,-62.5"/>
<text text-anchor="middle" x="600" y="-69.5" font-family="Helvetica,sans-Serif" font-size="10.00">cstring</text>
</g>
<!-- Node2&#45;&gt;Node7 -->
<g id="edge6" class="edge"><title>Node2&#45;&gt;Node7</title>
<path fill="none" stroke="midnightblue" d="M584.34,-124.679C587.273,-114.999 591.175,-102.123 594.35,-91.6449"/>
<polygon fill="midnightblue" stroke="midnightblue" points="597.774,-92.4136 597.325,-81.8283 591.075,-90.3835 597.774,-92.4136"/>
</g>
<!-- Node10 -->
<g id="node10" class="node"><title>Node10</title>
<polygon fill="none" stroke="#bfbfbf" points="170,-0.5 170,-19.5 226,-19.5 226,-0.5 170,-0.5"/>
<text text-anchor="middle" x="198" y="-7.5" font-family="Helvetica,sans-Serif" font-size="10.00">Rtypes.h</text>
</g>
<!-- Node9&#45;&gt;Node10 -->
<g id="edge9" class="edge"><title>Node9&#45;&gt;Node10</title>
<path fill="none" stroke="midnightblue" d="M227.772,-130.342C225.166,-120.2 220.735,-102.889 217,-88 211.986,-68.0109 206.341,-45.0749 202.516,-29.4707"/>
<polygon fill="midnightblue" stroke="midnightblue" points="205.865,-28.432 200.087,-19.5511 199.066,-30.0965 205.865,-28.432"/>
</g>
<!-- Node11 -->
<g id="node11" class="node"><title>Node11</title>
<g id="a_node11"><a xlink:href="../../df/d5d/common_2include_2CommonDataFormat_2TimeStamp_8h.html" target="_top" xlink:title="CommonDataFormat/TimeStamp.h">
<polygon fill="none" stroke="black" points="0,-62.5 0,-81.5 170,-81.5 170,-62.5 0,-62.5"/>
<text text-anchor="middle" x="85" y="-69.5" font-family="Helvetica,sans-Serif" font-size="10.00">CommonDataFormat/TimeStamp.h</text>
</a>
</g>
</g>
<!-- Node9&#45;&gt;Node11 -->
<g id="edge10" class="edge"><title>Node9&#45;&gt;Node11</title>
<path fill="none" stroke="midnightblue" d="M211.044,-130.372C186.077,-119.007 141.969,-98.9309 113.113,-85.7961"/>
<polygon fill="midnightblue" stroke="midnightblue" points="114.512,-82.5877 103.961,-81.6305 111.612,-88.9588 114.512,-82.5877"/>
</g>
<!-- Node12 -->
<g id="node12" class="node"><title>Node12</title>
<polygon fill="none" stroke="#bfbfbf" points="226.5,-57 226.5,-87 321.5,-87 321.5,-57 226.5,-57"/>
<text text-anchor="start" x="234.5" y="-75" font-family="Helvetica,sans-Serif" font-size="10.00">boost/serialization</text>
<text text-anchor="middle" x="274" y="-64" font-family="Helvetica,sans-Serif" font-size="10.00">/base_object.hpp</text>
</g>
<!-- Node9&#45;&gt;Node12 -->
<g id="edge12" class="edge"><title>Node9&#45;&gt;Node12</title>
<path fill="none" stroke="midnightblue" d="M235.752,-130.372C241.581,-121.629 250.847,-107.729 258.8,-95.8006"/>
<polygon fill="midnightblue" stroke="midnightblue" points="261.911,-97.4434 264.546,-87.1815 256.086,-93.5605 261.911,-97.4434"/>
</g>
<!-- Node11&#45;&gt;Node10 -->
<g id="edge11" class="edge"><title>Node11&#45;&gt;Node10</title>
<path fill="none" stroke="midnightblue" d="M101.19,-62.4035C119.902,-52.4678 150.923,-35.9966 172.799,-24.3812"/>
<polygon fill="midnightblue" stroke="midnightblue" points="174.649,-27.3616 181.84,-19.5806 171.366,-21.179 174.649,-27.3616"/>
</g>
<!-- Node13&#45;&gt;Node3 -->
<g id="edge14" class="edge"><title>Node13&#45;&gt;Node3</title>
<path fill="none" stroke="midnightblue" d="M427.849,-124.679C435.568,-114.49 445.971,-100.759 454.113,-90.0112"/>
<polygon fill="midnightblue" stroke="midnightblue" points="457.063,-91.9128 460.312,-81.8283 451.483,-87.6857 457.063,-91.9128"/>
</g>
<!-- Node13&#45;&gt;Node10 -->
<g id="edge16" class="edge"><title>Node13&#45;&gt;Node10</title>
<path fill="none" stroke="midnightblue" d="M417.808,-124.8C418.034,-106.311 415.47,-74.212 397,-56 374.584,-33.8967 287.354,-20.7927 236.125,-14.8472"/>
<polygon fill="midnightblue" stroke="midnightblue" points="236.411,-11.3574 226.083,-13.7197 235.63,-18.3137 236.411,-11.3574"/>
</g>
<!-- Node14 -->
<g id="node14" class="node"><title>Node14</title>
<polygon fill="none" stroke="#bfbfbf" points="339.5,-62.5 339.5,-81.5 388.5,-81.5 388.5,-62.5 339.5,-62.5"/>
<text text-anchor="middle" x="364" y="-69.5" font-family="Helvetica,sans-Serif" font-size="10.00">cassert</text>
</g>
<!-- Node13&#45;&gt;Node14 -->
<g id="edge15" class="edge"><title>Node13&#45;&gt;Node14</title>
<path fill="none" stroke="midnightblue" d="M405.5,-124.679C397.236,-114.388 386.07,-100.484 377.402,-89.6897"/>
<polygon fill="midnightblue" stroke="midnightblue" points="380.08,-87.434 371.089,-81.8283 374.622,-91.817 380.08,-87.434"/>
</g>
</g>
</svg>
