<?xml version="1.0" encoding="UTF-8" standalone="no"?>
<!DOCTYPE svg PUBLIC "-//W3C//DTD SVG 1.1//EN"
 "http://www.w3.org/Graphics/SVG/1.1/DTD/svg11.dtd">
<!-- Generated by graphviz version 2.36.0 (20140111.2315)
 -->
<!-- Title: o2::header::DataHeader Pages: 1 -->
<!--zoomable 1040 -->
<svg id="main" version="1.1" xmlns="http://www.w3.org/2000/svg" xmlns:xlink="http://www.w3.org/1999/xlink" xml:space="preserve" onload="init(evt)">
<style type="text/css"><![CDATA[
.edge:hover path { stroke: red; }
.edge:hover polygon { stroke: red; fill: red; }
]]></style>
<script type="text/javascript"><![CDATA[
var edges = document.getElementsByTagName('g');
if (edges && edges.length) {
  for (var i=0;i<edges.length;i++) {
    if (edges[i].id.substr(0,4)=='edge') {
      edges[i].setAttribute('class','edge');
    }
  }
}
]]></script>
        <defs>
                <circle id="rim" cx="0" cy="0" r="7"/>
                <circle id="rim2" cx="0" cy="0" r="3.5"/>
                <g id="zoomPlus">
                        <use xlink:href="#rim" fill="#404040">
                                <set attributeName="fill" to="#808080" begin="zoomplus.mouseover" end="zoomplus.mouseout"/>
                        </use>
                        <path d="M-4,0h8M0,-4v8" fill="none" stroke="white" stroke-width="1.5" pointer-events="none"/>
                </g>
                <g id="zoomMin">
                        <use xlink:href="#rim" fill="#404040">
                                <set attributeName="fill" to="#808080" begin="zoomminus.mouseover" end="zoomminus.mouseout"/>
                        </use>
                        <path d="M-4,0h8" fill="none" stroke="white" stroke-width="1.5" pointer-events="none"/>
                </g>
                <g id="dirArrow">
                        <path fill="none" stroke="white" stroke-width="1.5" d="M0,-3.0v7 M-2.5,-0.5L0,-3.0L2.5,-0.5"/>
                </g>
               <g id="resetDef">
                       <use xlink:href="#rim2" fill="#404040">
                               <set attributeName="fill" to="#808080" begin="reset.mouseover" end="reset.mouseout"/>
                       </use>
               </g>
        </defs>

<script type="text/javascript">
var viewWidth = 1301;
var viewHeight = 1040;
var sectionId = 'dynsection-1';
</script>
<script xlink:href="../../svgpan.js"/>
<svg id="graph" class="graph">
<g id="viewport">
<title>o2::header::DataHeader</title>
<!-- Node1 -->
<g id="node1" class="node"><title>Node1</title>
<polygon fill="#bfbfbf" stroke="black" points="771.453,-1 771.453,-157 892.453,-157 892.453,-1 771.453,-1"/>
<text text-anchor="middle" x="831.953" y="-145" font-family="Helvetica,sans-Serif" font-size="10.00">o2::header::DataHeader</text>
<polyline fill="none" stroke="black" points="771.453,-138 892.453,-138 "/>
<text text-anchor="middle" x="831.953" y="-126" font-family="Helvetica,sans-Serif" font-size="10.00"> </text>
<polyline fill="none" stroke="black" points="771.453,-119 892.453,-119 "/>
<text text-anchor="start" x="779.453" y="-107" font-family="Helvetica,sans-Serif" font-size="10.00">+ DataHeader()</text>
<text text-anchor="start" x="779.453" y="-96" font-family="Helvetica,sans-Serif" font-size="10.00">+ DataHeader()</text>
<text text-anchor="start" x="779.453" y="-85" font-family="Helvetica,sans-Serif" font-size="10.00">+ DataHeader()</text>
<text text-anchor="start" x="779.453" y="-74" font-family="Helvetica,sans-Serif" font-size="10.00">+ operator=()</text>
<text text-anchor="start" x="779.453" y="-63" font-family="Helvetica,sans-Serif" font-size="10.00">+ operator==()</text>
<text text-anchor="start" x="779.453" y="-52" font-family="Helvetica,sans-Serif" font-size="10.00">+ operator==()</text>
<text text-anchor="start" x="779.453" y="-41" font-family="Helvetica,sans-Serif" font-size="10.00">+ operator==()</text>
<text text-anchor="start" x="779.453" y="-30" font-family="Helvetica,sans-Serif" font-size="10.00">+ operator==()</text>
<text text-anchor="start" x="779.453" y="-19" font-family="Helvetica,sans-Serif" font-size="10.00">+ print()</text>
<text text-anchor="start" x="779.453" y="-8" font-family="Helvetica,sans-Serif" font-size="10.00">+ Get()</text>
</g>
<!-- Node2 -->
<g id="node2" class="node"><title>Node2</title>
<g id="a_node2"><a xlink:href="../../d8/dbd/structo2_1_1header_1_1BaseHeader.html" target="_top" xlink:title="the base header struct Every header type must begin (i.e. derive) with this. Don&#39;t use this struct di...">
<polygon fill="none" stroke="black" points="562.953,-216.5 562.953,-339.5 684.953,-339.5 684.953,-216.5 562.953,-216.5"/>
<text text-anchor="middle" x="623.953" y="-327.5" font-family="Helvetica,sans-Serif" font-size="10.00">o2::header::BaseHeader</text>
<polyline fill="none" stroke="black" points="562.953,-320.5 684.953,-320.5 "/>
<text text-anchor="middle" x="623.953" y="-308.5" font-family="Helvetica,sans-Serif" font-size="10.00"> </text>
<polyline fill="none" stroke="black" points="562.953,-301.5 684.953,-301.5 "/>
<text text-anchor="start" x="570.953" y="-289.5" font-family="Helvetica,sans-Serif" font-size="10.00">+ BaseHeader()</text>
<text text-anchor="start" x="570.953" y="-278.5" font-family="Helvetica,sans-Serif" font-size="10.00">+ BaseHeader()</text>
<text text-anchor="start" x="570.953" y="-267.5" font-family="Helvetica,sans-Serif" font-size="10.00">+ BaseHeader()</text>
<text text-anchor="start" x="570.953" y="-256.5" font-family="Helvetica,sans-Serif" font-size="10.00">+ size()</text>
<text text-anchor="start" x="570.953" y="-245.5" font-family="Helvetica,sans-Serif" font-size="10.00">+ data()</text>
<text text-anchor="start" x="570.953" y="-234.5" font-family="Helvetica,sans-Serif" font-size="10.00">+ next()</text>
<text text-anchor="start" x="570.953" y="-223.5" font-family="Helvetica,sans-Serif" font-size="10.00">+ get()</text>
</a>
</g>
</g>
<!-- Node2&#45;&gt;Node1 -->
<g id="edge1" class="edge"><title>Node2&#45;&gt;Node1</title>
<path fill="none" stroke="midnightblue" d="M692.397,-212.175C717.873,-188.047 746.584,-160.854 771.312,-137.434"/>
<polygon fill="none" stroke="midnightblue" points="689.808,-209.807 684.954,-219.225 694.622,-214.889 689.808,-209.807"/>
</g>
<!-- Node3 -->
<g id="node3" class="node"><title>Node3</title>
<g id="a_node3"><a xlink:href="../../d9/db3/structo2_1_1header_1_1Descriptor.html" target="_top" xlink:title="{o2::header::Descriptor\l\&lt; gSizeHeaderDescriptionString \&gt;\n||+ Descriptor()\l+ Descriptor()\l+ Descriptor()\l+ Descriptor()\l+ operator=()\l+ operator ItgType()\l+ runtimeInit()\l+ operator==()\l+ operator==()\l+ operator!=()\l+ operator!=()\l+ print()\l}">
<polygon fill="none" stroke="black" points="481.953,-464.5 481.953,-653.5 647.953,-653.5 647.953,-464.5 481.953,-464.5"/>
<text text-anchor="start" x="489.953" y="-641.5" font-family="Helvetica,sans-Serif" font-size="10.00">o2::header::Descriptor</text>
<text text-anchor="middle" x="564.953" y="-630.5" font-family="Helvetica,sans-Serif" font-size="10.00">&lt; gSizeHeaderDescriptionString &gt;</text>
<polyline fill="none" stroke="black" points="481.953,-623.5 647.953,-623.5 "/>
<text text-anchor="middle" x="564.953" y="-611.5" font-family="Helvetica,sans-Serif" font-size="10.00"> </text>
<polyline fill="none" stroke="black" points="481.953,-604.5 647.953,-604.5 "/>
<text text-anchor="start" x="489.953" y="-592.5" font-family="Helvetica,sans-Serif" font-size="10.00">+ Descriptor()</text>
<text text-anchor="start" x="489.953" y="-581.5" font-family="Helvetica,sans-Serif" font-size="10.00">+ Descriptor()</text>
<text text-anchor="start" x="489.953" y="-570.5" font-family="Helvetica,sans-Serif" font-size="10.00">+ Descriptor()</text>
<text text-anchor="start" x="489.953" y="-559.5" font-family="Helvetica,sans-Serif" font-size="10.00">+ Descriptor()</text>
<text text-anchor="start" x="489.953" y="-548.5" font-family="Helvetica,sans-Serif" font-size="10.00">+ operator=()</text>
<text text-anchor="start" x="489.953" y="-537.5" font-family="Helvetica,sans-Serif" font-size="10.00">+ operator ItgType()</text>
<text text-anchor="start" x="489.953" y="-526.5" font-family="Helvetica,sans-Serif" font-size="10.00">+ runtimeInit()</text>
<text text-anchor="start" x="489.953" y="-515.5" font-family="Helvetica,sans-Serif" font-size="10.00">+ operator==()</text>
<text text-anchor="start" x="489.953" y="-504.5" font-family="Helvetica,sans-Serif" font-size="10.00">+ operator==()</text>
<text text-anchor="start" x="489.953" y="-493.5" font-family="Helvetica,sans-Serif" font-size="10.00">+ operator!=()</text>
<text text-anchor="start" x="489.953" y="-482.5" font-family="Helvetica,sans-Serif" font-size="10.00">+ operator!=()</text>
<text text-anchor="start" x="489.953" y="-471.5" font-family="Helvetica,sans-Serif" font-size="10.00">+ print()</text>
</a>
</g>
</g>
<!-- Node3&#45;&gt;Node2 -->
<g id="edge2" class="edge"><title>Node3&#45;&gt;Node2</title>
<path fill="none" stroke="#404040" d="M584.763,-464.321C592.549,-427.502 601.348,-385.894 608.633,-351.444"/>
<polygon fill="none" stroke="#404040" points="608.66,-351.317 605.988,-344.619 611.143,-339.576 613.815,-346.274 608.66,-351.317"/>
<text text-anchor="middle" x="635.453" y="-399.5" font-family="Helvetica,sans-Serif" font-size="10.00"> +description</text>
</g>
<!-- Node4 -->
<g id="node4" class="node"><title>Node4</title>
<polygon fill="none" stroke="#bfbfbf" points="627.453,-973 627.453,-1031 656.453,-1031 656.453,-973 627.453,-973"/>
<polyline fill="none" stroke="#bfbfbf" points="627.453,-1011 656.453,-1011 "/>
<text text-anchor="middle" x="641.953" y="-999" font-family="Helvetica,sans-Serif" font-size="10.00"> </text>
<polyline fill="none" stroke="#bfbfbf" points="627.453,-992 656.453,-992 "/>
<text text-anchor="middle" x="641.953" y="-980" font-family="Helvetica,sans-Serif" font-size="10.00"> </text>
</g>
<!-- Node4&#45;&gt;Node2 -->
<g id="edge12" class="edge"><title>Node4&#45;&gt;Node2</title>
<path fill="none" stroke="#404040" d="M656.617,-995.526C672.773,-988.609 697.925,-975.01 708.953,-954 770.541,-836.67 739.274,-480.991 689.953,-358 688.887,-355.341 687.695,-352.705 686.398,-350.1"/>
<polygon fill="none" stroke="#404040" points="686.375,-350.058 679.957,-346.771 680.523,-339.582 686.941,-342.87 686.375,-350.058"/>
<text text-anchor="middle" x="755.453" y="-680.5" font-family="Helvetica,sans-Serif" font-size="10.00"> +@8</text>
</g>
<!-- Node4&#45;&gt;Node2 -->
<g id="edge13" class="edge"><title>Node4&#45;&gt;Node2</title>
<path fill="none" stroke="#404040" d="M652.256,-972.864C658.837,-953.296 666.721,-926.436 669.953,-902 681.12,-817.567 677.902,-409.479 664.953,-358 664.373,-355.696 663.716,-353.384 662.991,-351.073"/>
<polygon fill="none" stroke="#404040" points="662.916,-350.864 657.125,-346.567 658.865,-339.569 664.656,-343.866 662.916,-350.864"/>
<text text-anchor="middle" x="692.453" y="-680.5" font-family="Helvetica,sans-Serif" font-size="10.00"> +@10</text>
</g>
<!-- Node4&#45;&gt;Node3 -->
<g id="edge3" class="edge"><title>Node4&#45;&gt;Node3</title>
<path fill="none" stroke="#404040" d="M642.259,-972.791C642.259,-915.298 639.056,-780.804 611.953,-672 611.413,-669.831 610.836,-667.649 610.228,-665.46"/>
<polygon fill="none" stroke="#404040" points="610.149,-665.197 604.591,-660.603 606.693,-653.705 612.252,-658.299 610.149,-665.197"/>
<text text-anchor="middle" x="653.453" y="-804.5" font-family="Helvetica,sans-Serif" font-size="10.00"> +@6</text>
</g>
<!-- Node8 -->
<g id="node8" class="node"><title>Node8</title>
<g id="a_node8"><a xlink:href="../../d9/db3/structo2_1_1header_1_1Descriptor.html" target="_top" xlink:title="{o2::header::Descriptor\l\&lt; N, PrinterPolicy \&gt;\n||+ Descriptor()\l+ Descriptor()\l+ Descriptor()\l+ operator=()\l+ operator ItgType()\l+ Descriptor()\l+ runtimeInit()\l+ operator==()\l+ operator!=()\l+ operator==()\l+ operator!=()\l+ print()\l}">
<polygon fill="none" stroke="black" points="232.453,-712.5 232.453,-901.5 345.453,-901.5 345.453,-712.5 232.453,-712.5"/>
<text text-anchor="start" x="240.453" y="-889.5" font-family="Helvetica,sans-Serif" font-size="10.00">o2::header::Descriptor</text>
<text text-anchor="middle" x="288.953" y="-878.5" font-family="Helvetica,sans-Serif" font-size="10.00">&lt; N, PrinterPolicy &gt;</text>
<polyline fill="none" stroke="black" points="232.453,-871.5 345.453,-871.5 "/>
<text text-anchor="middle" x="288.953" y="-859.5" font-family="Helvetica,sans-Serif" font-size="10.00"> </text>
<polyline fill="none" stroke="black" points="232.453,-852.5 345.453,-852.5 "/>
<text text-anchor="start" x="240.453" y="-840.5" font-family="Helvetica,sans-Serif" font-size="10.00">+ Descriptor()</text>
<text text-anchor="start" x="240.453" y="-829.5" font-family="Helvetica,sans-Serif" font-size="10.00">+ Descriptor()</text>
<text text-anchor="start" x="240.453" y="-818.5" font-family="Helvetica,sans-Serif" font-size="10.00">+ Descriptor()</text>
<text text-anchor="start" x="240.453" y="-807.5" font-family="Helvetica,sans-Serif" font-size="10.00">+ operator=()</text>
<text text-anchor="start" x="240.453" y="-796.5" font-family="Helvetica,sans-Serif" font-size="10.00">+ operator ItgType()</text>
<text text-anchor="start" x="240.453" y="-785.5" font-family="Helvetica,sans-Serif" font-size="10.00">+ Descriptor()</text>
<text text-anchor="start" x="240.453" y="-774.5" font-family="Helvetica,sans-Serif" font-size="10.00">+ runtimeInit()</text>
<text text-anchor="start" x="240.453" y="-763.5" font-family="Helvetica,sans-Serif" font-size="10.00">+ operator==()</text>
<text text-anchor="start" x="240.453" y="-752.5" font-family="Helvetica,sans-Serif" font-size="10.00">+ operator!=()</text>
<text text-anchor="start" x="240.453" y="-741.5" font-family="Helvetica,sans-Serif" font-size="10.00">+ operator==()</text>
<text text-anchor="start" x="240.453" y="-730.5" font-family="Helvetica,sans-Serif" font-size="10.00">+ operator!=()</text>
<text text-anchor="start" x="240.453" y="-719.5" font-family="Helvetica,sans-Serif" font-size="10.00">+ print()</text>
</a>
</g>
</g>
<!-- Node4&#45;&gt;Node8 -->
<g id="edge8" class="edge"><title>Node4&#45;&gt;Node8</title>
<path fill="none" stroke="#404040" d="M627.091,-996.048C570.55,-977.176 371.45,-910.396 359.953,-902 358.25,-900.756 356.568,-899.46 354.91,-898.118"/>
<polygon fill="none" stroke="#404040" points="354.671,-897.907 347.526,-896.938 345.671,-889.97 352.817,-890.938 354.671,-897.907"/>
<text text-anchor="middle" x="510.453" y="-934.5" font-family="Helvetica,sans-Serif" font-size="10.00"> +@6</text>
</g>
<!-- Node9 -->
<g id="node9" class="node"><title>Node9</title>
<g id="a_node9"><a xlink:href="../../d9/db3/structo2_1_1header_1_1Descriptor.html" target="_top" xlink:title="{o2::header::Descriptor\l\&lt; gSizeSerializationMethodString \&gt;\n||+ Descriptor()\l+ Descriptor()\l+ Descriptor()\l+ Descriptor()\l+ operator=()\l+ operator ItgType()\l+ runtimeInit()\l+ operator==()\l+ operator==()\l+ operator!=()\l+ operator!=()\l+ print()\l}">
<polygon fill="none" stroke="black" points="154.953,-464.5 154.953,-653.5 324.953,-653.5 324.953,-464.5 154.953,-464.5"/>
<text text-anchor="start" x="162.953" y="-641.5" font-family="Helvetica,sans-Serif" font-size="10.00">o2::header::Descriptor</text>
<text text-anchor="middle" x="239.953" y="-630.5" font-family="Helvetica,sans-Serif" font-size="10.00">&lt; gSizeSerializationMethodString &gt;</text>
<polyline fill="none" stroke="black" points="154.953,-623.5 324.953,-623.5 "/>
<text text-anchor="middle" x="239.953" y="-611.5" font-family="Helvetica,sans-Serif" font-size="10.00"> </text>
<polyline fill="none" stroke="black" points="154.953,-604.5 324.953,-604.5 "/>
<text text-anchor="start" x="162.953" y="-592.5" font-family="Helvetica,sans-Serif" font-size="10.00">+ Descriptor()</text>
<text text-anchor="start" x="162.953" y="-581.5" font-family="Helvetica,sans-Serif" font-size="10.00">+ Descriptor()</text>
<text text-anchor="start" x="162.953" y="-570.5" font-family="Helvetica,sans-Serif" font-size="10.00">+ Descriptor()</text>
<text text-anchor="start" x="162.953" y="-559.5" font-family="Helvetica,sans-Serif" font-size="10.00">+ Descriptor()</text>
<text text-anchor="start" x="162.953" y="-548.5" font-family="Helvetica,sans-Serif" font-size="10.00">+ operator=()</text>
<text text-anchor="start" x="162.953" y="-537.5" font-family="Helvetica,sans-Serif" font-size="10.00">+ operator ItgType()</text>
<text text-anchor="start" x="162.953" y="-526.5" font-family="Helvetica,sans-Serif" font-size="10.00">+ runtimeInit()</text>
<text text-anchor="start" x="162.953" y="-515.5" font-family="Helvetica,sans-Serif" font-size="10.00">+ operator==()</text>
<text text-anchor="start" x="162.953" y="-504.5" font-family="Helvetica,sans-Serif" font-size="10.00">+ operator==()</text>
<text text-anchor="start" x="162.953" y="-493.5" font-family="Helvetica,sans-Serif" font-size="10.00">+ operator!=()</text>
<text text-anchor="start" x="162.953" y="-482.5" font-family="Helvetica,sans-Serif" font-size="10.00">+ operator!=()</text>
<text text-anchor="start" x="162.953" y="-471.5" font-family="Helvetica,sans-Serif" font-size="10.00">+ print()</text>
</a>
</g>
</g>
<!-- Node4&#45;&gt;Node9 -->
<g id="edge16" class="edge"><title>Node4&#45;&gt;Node9</title>
<path fill="none" stroke="#404040" d="M627.441,-976.602C616.421,-957.053 601.716,-928.592 592.953,-902 560.057,-802.176 625.25,-730.533 537.953,-672 502.543,-648.258 386.096,-670.892 346.953,-654 343.09,-652.333 339.268,-650.472 335.498,-648.451"/>
<polygon fill="none" stroke="#404040" points="335.395,-648.391 328.197,-648.832 325.022,-642.357 332.22,-641.917 335.395,-648.391"/>
<text text-anchor="middle" x="605.453" y="-804.5" font-family="Helvetica,sans-Serif" font-size="10.00"> +@6</text>
</g>
<!-- Node5 -->
<g id="node5" class="node"><title>Node5</title>
<polygon fill="none" stroke="#bfbfbf" points="391.953,-973.5 391.953,-1030.5 429.953,-1030.5 429.953,-973.5 391.953,-973.5"/>
<text text-anchor="middle" x="410.953" y="-1018.5" font-family="Helvetica,sans-Serif" font-size="10.00">Type</text>
<polyline fill="none" stroke="#bfbfbf" points="391.953,-1011.5 429.953,-1011.5 "/>
<text text-anchor="middle" x="410.953" y="-999.5" font-family="Helvetica,sans-Serif" font-size="10.00"> </text>
<polyline fill="none" stroke="#bfbfbf" points="391.953,-992.5 429.953,-992.5 "/>
<text text-anchor="middle" x="410.953" y="-980.5" font-family="Helvetica,sans-Serif" font-size="10.00"> </text>
</g>
<!-- Node5&#45;&gt;Node3 -->
<g id="edge4" class="edge"><title>Node5&#45;&gt;Node3</title>
<path fill="none" stroke="#404040" d="M429.966,-997.793C453.172,-992.798 491.693,-980.79 510.953,-954 574.155,-866.088 486.005,-806.443 538.953,-712 545.301,-700.677 556.137,-705.605 561.953,-694 566.363,-685.2 569.398,-675.649 571.391,-665.837"/>
<polygon fill="none" stroke="#404040" points="571.426,-665.619 568.428,-659.06 573.328,-653.77 576.326,-660.328 571.426,-665.619"/>
<text text-anchor="middle" x="548.953" y="-804.5" font-family="Helvetica,sans-Serif" font-size="10.00"> +itg</text>
</g>
<!-- Node5&#45;&gt;Node8 -->
<g id="edge9" class="edge"><title>Node5&#45;&gt;Node8</title>
<path fill="none" stroke="#404040" d="M391.853,-975.416C386.885,-968.542 381.62,-961.056 376.953,-954 368.085,-940.592 359.019,-926.301 350.237,-912.106"/>
<polygon fill="none" stroke="#404040" points="350.186,-912.022 343.636,-909.006 343.9,-901.8 350.45,-904.816 350.186,-912.022"/>
<text text-anchor="middle" x="386.953" y="-934.5" font-family="Helvetica,sans-Serif" font-size="10.00"> +itg</text>
</g>
<!-- Node5&#45;&gt;Node9 -->
<g id="edge17" class="edge"><title>Node5&#45;&gt;Node9</title>
<path fill="none" stroke="#404040" d="M406.522,-973.468C394.45,-899.252 360.946,-698.828 346.953,-672 342.759,-663.959 337.813,-656.094 332.387,-648.496"/>
<polygon fill="none" stroke="#404040" points="332.211,-648.262 325.408,-645.871 324.999,-638.671 331.802,-641.062 332.211,-648.262"/>
<text text-anchor="middle" x="404.953" y="-804.5" font-family="Helvetica,sans-Serif" font-size="10.00"> +itg</text>
</g>
<!-- Node6 -->
<g id="node6" class="node"><title>Node6</title>
<polygon fill="none" stroke="#bfbfbf" points="59.4529,-973.5 59.4529,-1030.5 94.4529,-1030.5 94.4529,-973.5 59.4529,-973.5"/>
<text text-anchor="middle" x="76.9529" y="-1018.5" font-family="Helvetica,sans-Serif" font-size="10.00">char</text>
<polyline fill="none" stroke="#bfbfbf" points="59.4529,-1011.5 94.4529,-1011.5 "/>
<text text-anchor="middle" x="76.9529" y="-999.5" font-family="Helvetica,sans-Serif" font-size="10.00"> </text>
<polyline fill="none" stroke="#bfbfbf" points="59.4529,-992.5 94.4529,-992.5 "/>
<text text-anchor="middle" x="76.9529" y="-980.5" font-family="Helvetica,sans-Serif" font-size="10.00"> </text>
</g>
<!-- Node6&#45;&gt;Node2 -->
<g id="edge14" class="edge"><title>Node6&#45;&gt;Node2</title>
<path fill="none" stroke="#404040" d="M59.1729,-974.401C55.3931,-967.923 51.7149,-960.874 48.9529,-954 40.1103,-931.991 41.096,-925.354 36.9529,-902 18.9834,-800.708 -18.2519,-770.641 10.9529,-672 42.2402,-566.326 61.9733,-535.368 145.953,-464 161.118,-451.113 171.144,-458.088 186.953,-446 226.874,-415.475 213.284,-381.024 257.953,-358 314.187,-329.015 477.95,-362.293 551.275,-341.77"/>
<polygon fill="none" stroke="#404040" points="551.31,-341.758 555.666,-336.012 562.646,-337.822 558.29,-343.569 551.31,-341.758"/>
<text text-anchor="middle" x="41.4529" y="-680.5" font-family="Helvetica,sans-Serif" font-size="10.00"> +magicString</text>
</g>
<!-- Node6&#45;&gt;Node3 -->
<g id="edge5" class="edge"><title>Node6&#45;&gt;Node3</title>
<path fill="none" stroke="#404040" d="M79.9153,-973.384C87.2352,-909.432 107.865,-753.469 138.953,-712 161.378,-682.086 177.041,-682.397 212.953,-672 266.016,-656.637 405.494,-676.51 470.215,-656.05"/>
<polygon fill="none" stroke="#404040" points="470.567,-655.913 474.713,-650.013 481.754,-651.571 477.608,-657.471 470.567,-655.913"/>
<text text-anchor="middle" x="149.453" y="-804.5" font-family="Helvetica,sans-Serif" font-size="10.00"> +str</text>
</g>
<!-- Node6&#45;&gt;Node8 -->
<g id="edge10" class="edge"><title>Node6&#45;&gt;Node8</title>
<path fill="none" stroke="#404040" d="M94.7452,-990.985C122.845,-974.65 178.367,-940.234 217.953,-902 219.925,-900.095 221.885,-898.132 223.83,-896.122"/>
<polygon fill="none" stroke="#404040" points="224.084,-895.847 225.227,-888.727 232.239,-887.043 231.096,-894.163 224.084,-895.847"/>
<text text-anchor="middle" x="208.453" y="-934.5" font-family="Helvetica,sans-Serif" font-size="10.00"> +str</text>
</g>
<!-- Node6&#45;&gt;Node9 -->
<g id="edge18" class="edge"><title>Node6&#45;&gt;Node9</title>
<path fill="none" stroke="#404040" d="M67.0521,-973.264C49.639,-919.519 19.305,-798.849 62.9529,-712 82.3522,-673.4 107.896,-681.812 140.953,-654 142.543,-652.663 144.14,-651.306 145.741,-649.935"/>
<polygon fill="none" stroke="#404040" points="145.897,-649.799 147.799,-642.844 154.952,-641.925 153.049,-648.88 145.897,-649.799"/>
<text text-anchor="middle" x="73.4529" y="-804.5" font-family="Helvetica,sans-Serif" font-size="10.00"> +str</text>
</g>
<!-- Node7 -->
<g id="node7" class="node"><title>Node7</title>
<polygon fill="none" stroke="#bfbfbf" points="262.453,-973.5 262.453,-1030.5 291.453,-1030.5 291.453,-973.5 262.453,-973.5"/>
<text text-anchor="middle" x="276.953" y="-1018.5" font-family="Helvetica,sans-Serif" font-size="10.00">int</text>
<polyline fill="none" stroke="#bfbfbf" points="262.453,-1011.5 291.453,-1011.5 "/>
<text text-anchor="middle" x="276.953" y="-999.5" font-family="Helvetica,sans-Serif" font-size="10.00"> </text>
<polyline fill="none" stroke="#bfbfbf" points="262.453,-992.5 291.453,-992.5 "/>
<text text-anchor="middle" x="276.953" y="-980.5" font-family="Helvetica,sans-Serif" font-size="10.00"> </text>
</g>
<!-- Node7&#45;&gt;Node3 -->
<g id="edge6" class="edge"><title>Node7&#45;&gt;Node3</title>
<path fill="none" stroke="#404040" d="M291.514,-995.946C311.11,-988.689 346.448,-973.958 371.953,-954 377.914,-949.336 412.443,-908.705 415.953,-902 456.502,-824.538 405.135,-773.832 466.953,-712 488.753,-690.195 512.536,-716.182 533.953,-694 541.954,-685.713 548.041,-675.79 552.65,-665.143"/>
<polygon fill="none" stroke="#404040" points="552.687,-665.046 551.071,-658.018 556.937,-653.824 558.552,-660.852 552.687,-665.046"/>
<text text-anchor="middle" x="492.453" y="-815.5" font-family="Helvetica,sans-Serif" font-size="10.00"> +arraySize</text>
<text text-anchor="middle" x="492.453" y="-804.5" font-family="Helvetica,sans-Serif" font-size="10.00">+size</text>
<text text-anchor="middle" x="492.453" y="-793.5" font-family="Helvetica,sans-Serif" font-size="10.00">+bitcount</text>
</g>
<!-- Node7&#45;&gt;Node8 -->
<g id="edge11" class="edge"><title>Node7&#45;&gt;Node8</title>
<path fill="none" stroke="#404040" d="M276.709,-973.239C276.719,-957.592 276.977,-937.693 277.953,-920 278.066,-917.955 278.188,-915.889 278.318,-913.808"/>
<polygon fill="none" stroke="#404040" points="278.323,-913.731 274.745,-907.47 279.148,-901.759 282.726,-908.02 278.323,-913.731"/>
<text text-anchor="middle" x="303.453" y="-945.5" font-family="Helvetica,sans-Serif" font-size="10.00"> +arraySize</text>
<text text-anchor="middle" x="303.453" y="-934.5" font-family="Helvetica,sans-Serif" font-size="10.00">+size</text>
<text text-anchor="middle" x="303.453" y="-923.5" font-family="Helvetica,sans-Serif" font-size="10.00">+bitcount</text>
</g>
<!-- Node7&#45;&gt;Node9 -->
<g id="edge19" class="edge"><title>Node7&#45;&gt;Node9</title>
<path fill="none" stroke="#404040" d="M262.127,-998.715C239.582,-994.385 197.168,-982.7 176.953,-954 163.583,-935.018 173.065,-925.191 171.953,-902 167.907,-817.653 154.322,-794.583 171.953,-712 175.304,-696.302 180.401,-680.264 186.327,-664.771"/>
<polygon fill="none" stroke="#404040" points="186.337,-664.747 184.841,-657.693 190.777,-653.598 192.273,-660.652 186.337,-664.747"/>
<text text-anchor="middle" x="197.453" y="-815.5" font-family="Helvetica,sans-Serif" font-size="10.00"> +arraySize</text>
<text text-anchor="middle" x="197.453" y="-804.5" font-family="Helvetica,sans-Serif" font-size="10.00">+size</text>
<text text-anchor="middle" x="197.453" y="-793.5" font-family="Helvetica,sans-Serif" font-size="10.00">+bitcount</text>
</g>
<!-- Node8&#45;&gt;Node1 -->
<g id="edge28" class="edge"><title>Node8&#45;&gt;Node1</title>
<path fill="none" stroke="#404040" d="M232.18,-717.652C230.458,-715.719 228.715,-713.831 226.953,-712 196.25,-680.097 167.224,-692.834 145.953,-654 82.7103,-538.539 87.2672,-480.706 134.953,-358 165.947,-278.246 191.233,-259.436 264.953,-216 424.676,-121.889 646.041,-92.828 759.116,-83.9088"/>
<polygon fill="none" stroke="#404040" points="759.401,-83.8875 765.084,-79.4492 771.367,-82.9883 765.684,-87.4267 759.401,-83.8875"/>
<text text-anchor="middle" x="183.453" y="-405" font-family="Helvetica,sans-Serif" font-size="10.00"> +sHeaderType</text>
<text text-anchor="middle" x="183.453" y="-394" font-family="Helvetica,sans-Serif" font-size="10.00">+sSerializationMethod</text>
</g>
<!-- Node8&#45;&gt;Node2 -->
<g id="edge22" class="edge"><title>Node8&#45;&gt;Node2</title>
<path fill="none" stroke="#404040" d="M336.606,-712.424C338.95,-706.266 341.096,-700.091 342.953,-694 373.065,-595.219 323.196,-552.776 375.953,-464 416.943,-395.024 494.532,-343.557 552.055,-312.649"/>
<polygon fill="none" stroke="#404040" points="552.295,-312.523 555.739,-306.187 562.912,-306.93 559.467,-313.266 552.295,-312.523"/>
<text text-anchor="middle" x="424.453" y="-562" font-family="Helvetica,sans-Serif" font-size="10.00"> +sHeaderType</text>
<text text-anchor="middle" x="424.453" y="-551" font-family="Helvetica,sans-Serif" font-size="10.00">+sSerializationMethod</text>
</g>
<!-- Node8&#45;&gt;Node3 -->
<g id="edge7" class="edge"><title>Node8&#45;&gt;Node3</title>
<path fill="none" stroke="orange" d="M352.758,-719.302C355.134,-716.795 357.535,-714.354 359.953,-712 381.867,-690.662 389.062,-686.573 415.953,-672 435.255,-661.54 443.31,-665.594 461.953,-654 468.634,-649.845 475.279,-645.23 481.789,-640.338"/>
<polygon fill="orange" stroke="orange" points="349.881,-717.262 345.71,-727.001 355.044,-721.988 349.881,-717.262"/>
<text text-anchor="start" x="415.953" y="-686" font-family="Helvetica,sans-Serif" font-size="10.00"> &lt; gSizeHeaderDescription</text>
<text text-anchor="middle" x="474.953" y="-675" font-family="Helvetica,sans-Serif" font-size="10.00">String &gt;</text>
</g>
<!-- Node8&#45;&gt;Node9 -->
<g id="edge20" class="edge"><title>Node8&#45;&gt;Node9</title>
<path fill="none" stroke="orange" d="M228.085,-716.322C224.858,-708.978 222.076,-701.493 219.953,-694 216.298,-681.1 215.263,-667.302 215.861,-653.645"/>
<polygon fill="orange" stroke="orange" points="224.989,-717.965 232.395,-725.541 231.33,-715 224.989,-717.965"/>
<text text-anchor="start" x="219.953" y="-686" font-family="Helvetica,sans-Serif" font-size="10.00"> &lt; gSizeSerializationMethod</text>
<text text-anchor="middle" x="281.453" y="-675" font-family="Helvetica,sans-Serif" font-size="10.00">String &gt;</text>
</g>
<!-- Node9&#45;&gt;Node1 -->
<g id="edge26" class="edge"><title>Node9&#45;&gt;Node1</title>
<path fill="none" stroke="#404040" d="M233.817,-464.254C235.179,-429.238 241.276,-390.194 257.953,-358 302.765,-271.491 340.095,-263.865 424.953,-216 534.071,-154.45 675.45,-115.08 759.624,-95.3079"/>
<polygon fill="none" stroke="#404040" points="759.674,-95.2965 764.617,-90.0464 771.365,-92.5903 766.421,-97.8403 759.674,-95.2965"/>
<text text-anchor="middle" x="489.453" y="-275.5" font-family="Helvetica,sans-Serif" font-size="10.00"> +payloadSerializationMethod</text>
</g>
<!-- Node9&#45;&gt;Node2 -->
<g id="edge15" class="edge"><title>Node9&#45;&gt;Node2</title>
<path fill="none" stroke="#404040" d="M256.765,-464.24C266.231,-416.141 277.76,-365.961 285.953,-358 315.208,-329.572 336.138,-348.874 375.953,-340 435.024,-326.835 501.607,-310.367 550.898,-297.861"/>
<polygon fill="none" stroke="#404040" points="551.094,-297.811 555.922,-292.455 562.723,-294.853 557.895,-300.208 551.094,-297.811"/>
<text text-anchor="middle" x="316.453" y="-399.5" font-family="Helvetica,sans-Serif" font-size="10.00"> +serialization</text>
</g>
<!-- Node10 -->
<g id="node10" class="node"><title>Node10</title>
<polygon fill="none" stroke="#bfbfbf" points="779.453,-530.5 779.453,-587.5 830.453,-587.5 830.453,-530.5 779.453,-530.5"/>
<text text-anchor="middle" x="804.953" y="-575.5" font-family="Helvetica,sans-Serif" font-size="10.00">uint32_t</text>
<polyline fill="none" stroke="#bfbfbf" points="779.453,-568.5 830.453,-568.5 "/>
<text text-anchor="middle" x="804.953" y="-556.5" font-family="Helvetica,sans-Serif" font-size="10.00"> </text>
<polyline fill="none" stroke="#bfbfbf" points="779.453,-549.5 830.453,-549.5 "/>
<text text-anchor="middle" x="804.953" y="-537.5" font-family="Helvetica,sans-Serif" font-size="10.00"> </text>
</g>
<!-- Node10&#45;&gt;Node1 -->
<g id="edge27" class="edge"><title>Node10&#45;&gt;Node1</title>
<path fill="none" stroke="#404040" d="M808.754,-530.441C811.73,-507.806 815.727,-474.885 817.953,-446 825.217,-351.711 828.766,-243.452 830.465,-169.277"/>
<polygon fill="none" stroke="#404040" points="830.466,-169.211 826.6,-163.124 830.732,-157.214 834.598,-163.301 830.466,-169.211"/>
<text text-anchor="middle" x="853.453" y="-281" font-family="Helvetica,sans-Serif" font-size="10.00"> +reserved</text>
<text text-anchor="middle" x="853.453" y="-270" font-family="Helvetica,sans-Serif" font-size="10.00">+sVersion</text>
</g>
<!-- Node10&#45;&gt;Node2 -->
<g id="edge21" class="edge"><title>Node10&#45;&gt;Node2</title>
<path fill="none" stroke="#404040" d="M785.259,-530.177C770.473,-508.202 750.667,-476.294 737.953,-446 722.308,-408.725 736.281,-392.341 714.953,-358 709.117,-348.603 701.809,-339.717 693.887,-331.533"/>
<polygon fill="none" stroke="#404040" points="693.673,-331.323 686.586,-329.99 685.09,-322.936 692.177,-324.269 693.673,-331.323"/>
<text text-anchor="middle" x="777.953" y="-438" font-family="Helvetica,sans-Serif" font-size="10.00"> +headerVersion</text>
<text text-anchor="middle" x="777.953" y="-427" font-family="Helvetica,sans-Serif" font-size="10.00">+headerSize</text>
<text text-anchor="middle" x="777.953" y="-416" font-family="Helvetica,sans-Serif" font-size="10.00">+sMagicString</text>
<text text-anchor="middle" x="777.953" y="-405" font-family="Helvetica,sans-Serif" font-size="10.00">+flagsNextHeader</text>
<text text-anchor="middle" x="777.953" y="-394" font-family="Helvetica,sans-Serif" font-size="10.00">+magicStringInt</text>
<text text-anchor="middle" x="777.953" y="-383" font-family="Helvetica,sans-Serif" font-size="10.00">+flagsUnused</text>
<text text-anchor="middle" x="777.953" y="-372" font-family="Helvetica,sans-Serif" font-size="10.00">+flags</text>
<text text-anchor="middle" x="777.953" y="-361" font-family="Helvetica,sans-Serif" font-size="10.00">+sVersion</text>
</g>
<!-- Node11 -->
<g id="node11" class="node"><title>Node11</title>
<polygon fill="none" stroke="#bfbfbf" points="897.453,-249.5 897.453,-306.5 948.453,-306.5 948.453,-249.5 897.453,-249.5"/>
<text text-anchor="middle" x="922.953" y="-294.5" font-family="Helvetica,sans-Serif" font-size="10.00">uint64_t</text>
<polyline fill="none" stroke="#bfbfbf" points="897.453,-287.5 948.453,-287.5 "/>
<text text-anchor="middle" x="922.953" y="-275.5" font-family="Helvetica,sans-Serif" font-size="10.00"> </text>
<polyline fill="none" stroke="#bfbfbf" points="897.453,-268.5 948.453,-268.5 "/>
<text text-anchor="middle" x="922.953" y="-256.5" font-family="Helvetica,sans-Serif" font-size="10.00"> </text>
</g>
<!-- Node11&#45;&gt;Node1 -->
<g id="edge23" class="edge"><title>Node11&#45;&gt;Node1</title>
<path fill="none" stroke="#404040" d="M910.108,-249.193C900.333,-228.032 886.309,-197.672 872.831,-168.495"/>
<polygon fill="none" stroke="#404040" points="872.735,-168.286 866.588,-164.517 867.703,-157.392 873.85,-161.162 872.735,-168.286"/>
<text text-anchor="middle" x="925.453" y="-190" font-family="Helvetica,sans-Serif" font-size="10.00"> +payloadSize</text>
<text text-anchor="middle" x="925.453" y="-179" font-family="Helvetica,sans-Serif" font-size="10.00">+subSpecification</text>
</g>
<!-- Node12 -->
<g id="node12" class="node"><title>Node12</title>
<polygon fill="none" stroke="#bfbfbf" points="966.953,-244 966.953,-312 1108.95,-312 1108.95,-244 966.953,-244"/>
<text text-anchor="start" x="974.953" y="-300" font-family="Helvetica,sans-Serif" font-size="10.00">Descriptor&lt; gSizeDataOrigin</text>
<text text-anchor="middle" x="1037.95" y="-289" font-family="Helvetica,sans-Serif" font-size="10.00">String, printDataOrigin &gt;</text>
<polyline fill="none" stroke="#bfbfbf" points="966.953,-282 1108.95,-282 "/>
<text text-anchor="middle" x="1037.95" y="-270" font-family="Helvetica,sans-Serif" font-size="10.00"> </text>
<polyline fill="none" stroke="#bfbfbf" points="966.953,-263 1108.95,-263 "/>
<text text-anchor="middle" x="1037.95" y="-251" font-family="Helvetica,sans-Serif" font-size="10.00"> </text>
</g>
<!-- Node12&#45;&gt;Node1 -->
<g id="edge24" class="edge"><title>Node12&#45;&gt;Node1</title>
<path fill="none" stroke="#404040" d="M1019.5,-243.839C1006.92,-222.965 988.955,-196.241 968.953,-176 949.391,-156.205 925.279,-137.778 902.763,-122.469"/>
<polygon fill="none" stroke="#404040" points="902.537,-122.318 895.326,-122.317 892.553,-115.661 899.764,-115.661 902.537,-122.318"/>
<text text-anchor="middle" x="1013.95" y="-184.5" font-family="Helvetica,sans-Serif" font-size="10.00"> +dataOrigin</text>
</g>
<!-- Node13 -->
<g id="node13" class="node"><title>Node13</title>
<polygon fill="none" stroke="#bfbfbf" points="1126.95,-244 1126.95,-312 1292.95,-312 1292.95,-244 1126.95,-244"/>
<text text-anchor="start" x="1134.95" y="-300" font-family="Helvetica,sans-Serif" font-size="10.00">Descriptor&lt; gSizeDataDescription</text>
<text text-anchor="middle" x="1209.95" y="-289" font-family="Helvetica,sans-Serif" font-size="10.00">String, printDataDescription &gt;</text>
<polyline fill="none" stroke="#bfbfbf" points="1126.95,-282 1292.95,-282 "/>
<text text-anchor="middle" x="1209.95" y="-270" font-family="Helvetica,sans-Serif" font-size="10.00"> </text>
<polyline fill="none" stroke="#bfbfbf" points="1126.95,-263 1292.95,-263 "/>
<text text-anchor="middle" x="1209.95" y="-251" font-family="Helvetica,sans-Serif" font-size="10.00"> </text>
</g>
<!-- Node13&#45;&gt;Node1 -->
<g id="edge25" class="edge"><title>Node13&#45;&gt;Node1</title>
<path fill="none" stroke="#404040" d="M1161.74,-243.934C1147.77,-234.652 1132.39,-224.719 1117.95,-216 1047.99,-173.738 962.83,-134.696 903.722,-109.387"/>
<polygon fill="none" stroke="#404040" points="903.671,-109.365 896.584,-110.697 892.629,-104.667 899.716,-103.335 903.671,-109.365"/>
<text text-anchor="middle" x="1119.95" y="-184.5" font-family="Helvetica,sans-Serif" font-size="10.00"> +dataDescription</text>
</g>
</g>
</svg>
        <g id="navigator" transform="translate(0 0)" fill="#404254">
                <rect fill="#f2f5e9" fill-opacity="0.5" stroke="#606060" stroke-width=".5" x="0" y="0" width="60" height="60"/>
                <use id="zoomplus" xlink:href="#zoomPlus" x="17" y="9" onmousedown="handleZoom(evt,'in')"/>
                <use id="zoomminus" xlink:href="#zoomMin" x="42" y="9" onmousedown="handleZoom(evt,'out')"/>
                <use id="reset" xlink:href="#resetDef" x="30" y="36" onmousedown="handleReset()"/>
                <g id="arrowUp" xlink:href="#dirArrow" transform="translate(30 24)" onmousedown="handlePan(0,-1)">
                  <use xlink:href="#rim" fill="#404040">
                        <set attributeName="fill" to="#808080" begin="arrowUp.mouseover" end="arrowUp.mouseout"/>
                  </use>
                  <path fill="none" stroke="white" stroke-width="1.5" d="M0,-3.0v7 M-2.5,-0.5L0,-3.0L2.5,-0.5"/>
                </g>
                <g id="arrowRight" xlink:href="#dirArrow" transform="rotate(90) translate(36 -43)" onmousedown="handlePan(1,0)">
                  <use xlink:href="#rim" fill="#404040">
                        <set attributeName="fill" to="#808080" begin="arrowRight.mouseover" end="arrowRight.mouseout"/>
                  </use>
                  <path fill="none" stroke="white" stroke-width="1.5" d="M0,-3.0v7 M-2.5,-0.5L0,-3.0L2.5,-0.5"/>
                </g>
                <g id="arrowDown" xlink:href="#dirArrow" transform="rotate(180) translate(-30 -48)" onmousedown="handlePan(0,1)">
                  <use xlink:href="#rim" fill="#404040">
                        <set attributeName="fill" to="#808080" begin="arrowDown.mouseover" end="arrowDown.mouseout"/>
                  </use>
                  <path fill="none" stroke="white" stroke-width="1.5" d="M0,-3.0v7 M-2.5,-0.5L0,-3.0L2.5,-0.5"/>
                </g>
                <g id="arrowLeft" xlink:href="#dirArrow" transform="rotate(270) translate(-36 17)" onmousedown="handlePan(-1,0)">
                  <use xlink:href="#rim" fill="#404040">
                        <set attributeName="fill" to="#808080" begin="arrowLeft.mouseover" end="arrowLeft.mouseout"/>
                  </use>
                  <path fill="none" stroke="white" stroke-width="1.5" d="M0,-3.0v7 M-2.5,-0.5L0,-3.0L2.5,-0.5"/>
                </g>
        </g>
        <svg viewBox="0 0 15 15" width="100%" height="30px" preserveAspectRatio="xMaxYMin meet">
         <g id="arrow_out" transform="scale(0.3 0.3)">
          <a xlink:href="structo2_1_1header_1_1DataHeader__coll__graph_org.svg" target="_base">
           <rect id="button" ry="5" rx="5" y="6" x="6" height="38" width="38"
                fill="#f2f5e9" fill-opacity="0.5" stroke="#606060" stroke-width="1.0"/>
           <path id="arrow"
             d="M 11.500037,31.436501 C 11.940474,20.09759 22.043105,11.32322 32.158766,21.979434 L 37.068811,17.246167 C 37.068811,17.246167 37.088388,32 37.088388,32 L 22.160133,31.978069 C 22.160133,31.978069 26.997745,27.140456 26.997745,27.140456 C 18.528582,18.264221 13.291696,25.230495 11.500037,31.436501 z"
             style="fill:#404040;"/>
          </a>
         </g>
        </svg>
</svg>
