<?xml version="1.0" encoding="UTF-8" standalone="no"?>
<!DOCTYPE svg PUBLIC "-//W3C//DTD SVG 1.1//EN"
 "http://www.w3.org/Graphics/SVG/1.1/DTD/svg11.dtd">
<!-- Generated by graphviz version 2.36.0 (20140111.2315)
 -->
<!-- Title: /home/travis/build/AliceO2Group/AliceO2/Detectors/EMCAL/simulation/include/EMCALSimulation/DigitizerTask.h Pages: 1 -->
<!--zoomable 446 -->
<svg id="main" version="1.1" xmlns="http://www.w3.org/2000/svg" xmlns:xlink="http://www.w3.org/1999/xlink" xml:space="preserve" onload="init(evt)">
<style type="text/css"><![CDATA[
.edge:hover path { stroke: red; }
.edge:hover polygon { stroke: red; fill: red; }
]]></style>
<script type="text/javascript"><![CDATA[
var edges = document.getElementsByTagName('g');
if (edges && edges.length) {
  for (var i=0;i<edges.length;i++) {
    if (edges[i].id.substr(0,4)=='edge') {
      edges[i].setAttribute('class','edge');
    }
  }
}
]]></script>
        <defs>
                <circle id="rim" cx="0" cy="0" r="7"/>
                <circle id="rim2" cx="0" cy="0" r="3.5"/>
                <g id="zoomPlus">
                        <use xlink:href="#rim" fill="#404040">
                                <set attributeName="fill" to="#808080" begin="zoomplus.mouseover" end="zoomplus.mouseout"/>
                        </use>
                        <path d="M-4,0h8M0,-4v8" fill="none" stroke="white" stroke-width="1.5" pointer-events="none"/>
                </g>
                <g id="zoomMin">
                        <use xlink:href="#rim" fill="#404040">
                                <set attributeName="fill" to="#808080" begin="zoomminus.mouseover" end="zoomminus.mouseout"/>
                        </use>
                        <path d="M-4,0h8" fill="none" stroke="white" stroke-width="1.5" pointer-events="none"/>
                </g>
                <g id="dirArrow">
                        <path fill="none" stroke="white" stroke-width="1.5" d="M0,-3.0v7 M-2.5,-0.5L0,-3.0L2.5,-0.5"/>
                </g>
               <g id="resetDef">
                       <use xlink:href="#rim2" fill="#404040">
                               <set attributeName="fill" to="#808080" begin="reset.mouseover" end="reset.mouseout"/>
                       </use>
               </g>
        </defs>

<script type="text/javascript">
var viewWidth = 2020;
var viewHeight = 446;
var sectionId = 'dynsection-0';
</script>
<script xlink:href="../../svgpan.js"/>
<svg id="graph" class="graph">
<g id="viewport">
<title>/home/travis/build/AliceO2Group/AliceO2/Detectors/EMCAL/simulation/include/EMCALSimulation/DigitizerTask.h</title>
<!-- Node1 -->
<g id="node1" class="node"><title>Node1</title>
<polygon fill="#bfbfbf" stroke="black" points="1008.5,-385 1008.5,-437 1211.5,-437 1211.5,-385 1008.5,-385"/>
<text text-anchor="start" x="1016.5" y="-425" font-family="Helvetica,sans-Serif" font-size="10.00">/home/travis/build</text>
<text text-anchor="start" x="1016.5" y="-414" font-family="Helvetica,sans-Serif" font-size="10.00">/AliceO2Group/AliceO2</text>
<text text-anchor="start" x="1016.5" y="-403" font-family="Helvetica,sans-Serif" font-size="10.00">/Detectors/EMCAL/simulation</text>
<text text-anchor="middle" x="1110" y="-392" font-family="Helvetica,sans-Serif" font-size="10.00">/include/EMCALSimulation/DigitizerTask.h</text>
</g>
<!-- Node2 -->
<g id="node2" class="node"><title>Node2</title>
<polygon fill="none" stroke="#bfbfbf" points="957.5,-328.5 957.5,-347.5 1000.5,-347.5 1000.5,-328.5 957.5,-328.5"/>
<text text-anchor="middle" x="979" y="-335.5" font-family="Helvetica,sans-Serif" font-size="10.00">cstdio</text>
</g>
<!-- Node1&#45;&gt;Node2 -->
<g id="edge1" class="edge"><title>Node1&#45;&gt;Node2</title>
<path fill="none" stroke="midnightblue" d="M1063.81,-384.968C1043.74,-374.088 1021.01,-361.767 1004.13,-352.622"/>
<polygon fill="midnightblue" stroke="midnightblue" points="1005.4,-349.327 994.939,-347.639 1002.06,-355.481 1005.4,-349.327"/>
</g>
<!-- Node3 -->
<g id="node3" class="node"><title>Node3</title>
<polygon fill="none" stroke="#bfbfbf" points="1018.5,-328.5 1018.5,-347.5 1081.5,-347.5 1081.5,-328.5 1018.5,-328.5"/>
<text text-anchor="middle" x="1050" y="-335.5" font-family="Helvetica,sans-Serif" font-size="10.00">FairTask.h</text>
</g>
<!-- Node1&#45;&gt;Node3 -->
<g id="edge2" class="edge"><title>Node1&#45;&gt;Node3</title>
<path fill="none" stroke="midnightblue" d="M1088.68,-384.768C1080.49,-375.083 1071.36,-364.281 1064.03,-355.605"/>
<polygon fill="midnightblue" stroke="midnightblue" points="1066.53,-353.136 1057.4,-347.757 1061.18,-357.654 1066.53,-353.136"/>
</g>
<!-- Node4 -->
<g id="node4" class="node"><title>Node4</title>
<polygon fill="none" stroke="#bfbfbf" points="1516,-74.5 1516,-93.5 1572,-93.5 1572,-74.5 1516,-74.5"/>
<text text-anchor="middle" x="1544" y="-81.5" font-family="Helvetica,sans-Serif" font-size="10.00">Rtypes.h</text>
</g>
<!-- Node1&#45;&gt;Node4 -->
<g id="edge3" class="edge"><title>Node1&#45;&gt;Node4</title>
<path fill="none" stroke="midnightblue" d="M1211.93,-406.126C1447.56,-395.813 2010,-362.836 2010,-283 2010,-283 2010,-283 2010,-219 2010,-181.157 2019.21,-161.227 1991,-136 1960.78,-108.969 1685.48,-92.2347 1582.58,-86.8778"/>
<polygon fill="midnightblue" stroke="midnightblue" points="1582.48,-83.3685 1572.32,-86.3518 1582.12,-90.3593 1582.48,-83.3685"/>
</g>
<!-- Node5 -->
<g id="node5" class="node"><title>Node5</title>
<g id="a_node5"><a xlink:href="../../d5/d8b/EMCAL_2base_2include_2EMCALBase_2Hit_8h.html" target="_top" xlink:title="EMCALBase/Hit.h">
<polygon fill="none" stroke="black" points="780,-272.5 780,-291.5 878,-291.5 878,-272.5 780,-272.5"/>
<text text-anchor="middle" x="829" y="-279.5" font-family="Helvetica,sans-Serif" font-size="10.00">EMCALBase/Hit.h</text>
</a>
</g>
</g>
<!-- Node1&#45;&gt;Node5 -->
<g id="edge4" class="edge"><title>Node1&#45;&gt;Node5</title>
<path fill="none" stroke="midnightblue" d="M1110.72,-384.917C1109.82,-366.546 1105.42,-342.401 1090,-328 1082.64,-321.125 963.032,-302.573 888.317,-291.554"/>
<polygon fill="midnightblue" stroke="midnightblue" points="888.491,-288.042 878.088,-290.051 887.473,-294.968 888.491,-288.042"/>
</g>
<!-- Node18 -->
<g id="node18" class="node"><title>Node18</title>
<g id="a_node18"><a xlink:href="../../d8/d19/EMCAL_2simulation_2include_2EMCALSimulation_2Digitizer_8h.html" target="_top" xlink:title="EMCALSimulation/Digitizer.h">
<polygon fill="none" stroke="black" points="1138,-328.5 1138,-347.5 1282,-347.5 1282,-328.5 1138,-328.5"/>
<text text-anchor="middle" x="1210" y="-335.5" font-family="Helvetica,sans-Serif" font-size="10.00">EMCALSimulation/Digitizer.h</text>
</a>
</g>
</g>
<!-- Node1&#45;&gt;Node18 -->
<g id="edge18" class="edge"><title>Node1&#45;&gt;Node18</title>
<path fill="none" stroke="midnightblue" d="M1145.26,-384.968C1159.92,-374.559 1176.43,-362.831 1189.12,-353.827"/>
<polygon fill="midnightblue" stroke="midnightblue" points="1191.46,-356.453 1197.59,-347.81 1187.41,-350.745 1191.46,-356.453"/>
</g>
<!-- Node6 -->
<g id="node6" class="node"><title>Node6</title>
<g id="a_node6"><a xlink:href="../../d4/d25/BaseHits_8h.html" target="_top" xlink:title="SimulationDataFormat\l/BaseHits.h">
<polygon fill="none" stroke="black" points="395,-205 395,-235 509,-235 509,-205 395,-205"/>
<text text-anchor="start" x="403" y="-223" font-family="Helvetica,sans-Serif" font-size="10.00">SimulationDataFormat</text>
<text text-anchor="middle" x="452" y="-212" font-family="Helvetica,sans-Serif" font-size="10.00">/BaseHits.h</text>
</a>
</g>
</g>
<!-- Node5&#45;&gt;Node6 -->
<g id="edge5" class="edge"><title>Node5&#45;&gt;Node6</title>
<path fill="none" stroke="midnightblue" d="M779.784,-275.111C720.345,-267.725 617.131,-254.029 519.244,-236.146"/>
<polygon fill="midnightblue" stroke="midnightblue" points="519.649,-232.662 509.18,-234.289 518.378,-239.545 519.649,-232.662"/>
</g>
<!-- Node7 -->
<g id="node7" class="node"><title>Node7</title>
<g id="a_node7"><a xlink:href="../../dd/d76/Cartesian3D_8h.html" target="_top" xlink:title="MathUtils/Cartesian3D.h">
<polygon fill="none" stroke="black" points="552.5,-142.5 552.5,-161.5 677.5,-161.5 677.5,-142.5 552.5,-142.5"/>
<text text-anchor="middle" x="615" y="-149.5" font-family="Helvetica,sans-Serif" font-size="10.00">MathUtils/Cartesian3D.h</text>
</a>
</g>
</g>
<!-- Node6&#45;&gt;Node7 -->
<g id="edge6" class="edge"><title>Node6&#45;&gt;Node7</title>
<path fill="none" stroke="midnightblue" d="M486.968,-204.841C515.794,-193.169 556.3,-176.768 583.984,-165.558"/>
<polygon fill="midnightblue" stroke="midnightblue" points="585.603,-168.679 593.558,-161.682 582.976,-162.191 585.603,-168.679"/>
</g>
<!-- Node7&#45;&gt;Node4 -->
<g id="edge12" class="edge"><title>Node7&#45;&gt;Node4</title>
<path fill="none" stroke="midnightblue" d="M677.76,-146.541C856.108,-133.871 1362.26,-97.9113 1505.69,-87.7215"/>
<polygon fill="midnightblue" stroke="midnightblue" points="1506.04,-91.2057 1515.77,-87.0057 1505.54,-84.2233 1506.04,-91.2057"/>
</g>
<!-- Node8 -->
<g id="node8" class="node"><title>Node8</title>
<polygon fill="none" stroke="#bfbfbf" points="928.5,-69 928.5,-99 1079.5,-99 1079.5,-69 928.5,-69"/>
<text text-anchor="start" x="936.5" y="-87" font-family="Helvetica,sans-Serif" font-size="10.00">Math/GenVector/Displacement</text>
<text text-anchor="middle" x="1004" y="-76" font-family="Helvetica,sans-Serif" font-size="10.00">Vector3D.h</text>
</g>
<!-- Node7&#45;&gt;Node8 -->
<g id="edge7" class="edge"><title>Node7&#45;&gt;Node8</title>
<path fill="none" stroke="midnightblue" d="M666.66,-142.47C725.096,-132.791 823.39,-116.417 918.39,-100.097"/>
<polygon fill="midnightblue" stroke="midnightblue" points="919.2,-103.509 928.462,-98.3644 918.013,-96.6101 919.2,-103.509"/>
</g>
<!-- Node9 -->
<g id="node9" class="node"><title>Node9</title>
<polygon fill="none" stroke="#bfbfbf" points="0,-74.5 0,-93.5 176,-93.5 176,-74.5 0,-74.5"/>
<text text-anchor="middle" x="88" y="-81.5" font-family="Helvetica,sans-Serif" font-size="10.00">Math/GenVector/PositionVector3D.h</text>
</g>
<!-- Node7&#45;&gt;Node9 -->
<g id="edge8" class="edge"><title>Node7&#45;&gt;Node9</title>
<path fill="none" stroke="midnightblue" d="M552.453,-144.337C468.513,-135.227 314.822,-117.954 184,-100 173.124,-98.5074 161.574,-96.8043 150.395,-95.0942"/>
<polygon fill="midnightblue" stroke="midnightblue" points="150.68,-91.5968 140.263,-93.5275 149.611,-98.5146 150.68,-91.5968"/>
</g>
<!-- Node10 -->
<g id="node10" class="node"><title>Node10</title>
<polygon fill="none" stroke="#bfbfbf" points="193.5,-74.5 193.5,-93.5 342.5,-93.5 342.5,-74.5 193.5,-74.5"/>
<text text-anchor="middle" x="268" y="-81.5" font-family="Helvetica,sans-Serif" font-size="10.00">Math/GenVector/Rotation3D.h</text>
</g>
<!-- Node7&#45;&gt;Node10 -->
<g id="edge9" class="edge"><title>Node7&#45;&gt;Node10</title>
<path fill="none" stroke="midnightblue" d="M569.992,-142.439C506.676,-130.396 391.419,-108.475 323.07,-95.4745"/>
<polygon fill="midnightblue" stroke="midnightblue" points="323.407,-91.9758 312.929,-93.5455 322.099,-98.8525 323.407,-91.9758"/>
</g>
<!-- Node11 -->
<g id="node11" class="node"><title>Node11</title>
<polygon fill="none" stroke="#bfbfbf" points="361,-74.5 361,-93.5 517,-93.5 517,-74.5 361,-74.5"/>
<text text-anchor="middle" x="439" y="-81.5" font-family="Helvetica,sans-Serif" font-size="10.00">Math/GenVector/Transform3D.h</text>
</g>
<!-- Node7&#45;&gt;Node11 -->
<g id="edge10" class="edge"><title>Node7&#45;&gt;Node11</title>
<path fill="none" stroke="midnightblue" d="M591.991,-142.372C561.206,-130.827 506.447,-110.293 471.472,-97.1772"/>
<polygon fill="midnightblue" stroke="midnightblue" points="472.328,-93.76 461.736,-93.5259 469.87,-100.314 472.328,-93.76"/>
</g>
<!-- Node12 -->
<g id="node12" class="node"><title>Node12</title>
<polygon fill="none" stroke="#bfbfbf" points="535,-74.5 535,-93.5 695,-93.5 695,-74.5 535,-74.5"/>
<text text-anchor="middle" x="615" y="-81.5" font-family="Helvetica,sans-Serif" font-size="10.00">Math/GenVector/Translation3D.h</text>
</g>
<!-- Node7&#45;&gt;Node12 -->
<g id="edge11" class="edge"><title>Node7&#45;&gt;Node12</title>
<path fill="none" stroke="midnightblue" d="M615,-142.372C615,-132.643 615,-116.528 615,-103.85"/>
<polygon fill="midnightblue" stroke="midnightblue" points="618.5,-103.841 615,-93.8411 611.5,-103.841 618.5,-103.841"/>
</g>
<!-- Node13 -->
<g id="node13" class="node"><title>Node13</title>
<polygon fill="none" stroke="#bfbfbf" points="1115,-74.5 1115,-93.5 1191,-93.5 1191,-74.5 1115,-74.5"/>
<text text-anchor="middle" x="1153" y="-81.5" font-family="Helvetica,sans-Serif" font-size="10.00">TGeoMatrix.h</text>
</g>
<!-- Node7&#45;&gt;Node13 -->
<g id="edge13" class="edge"><title>Node7&#45;&gt;Node13</title>
<path fill="none" stroke="midnightblue" d="M677.686,-146.637C768.565,-139.769 942.012,-124.625 1088,-100 1094.91,-98.8352 1102.18,-97.3838 1109.25,-95.8461"/>
<polygon fill="midnightblue" stroke="midnightblue" points="1110.43,-99.1681 1119.42,-93.5549 1108.89,-92.3394 1110.43,-99.1681"/>
</g>
<!-- Node14 -->
<g id="node14" class="node"><title>Node14</title>
<polygon fill="none" stroke="#bfbfbf" points="713,-74.5 713,-93.5 767,-93.5 767,-74.5 713,-74.5"/>
<text text-anchor="middle" x="740" y="-81.5" font-family="Helvetica,sans-Serif" font-size="10.00">iostream</text>
</g>
<!-- Node7&#45;&gt;Node14 -->
<g id="edge14" class="edge"><title>Node7&#45;&gt;Node14</title>
<path fill="none" stroke="midnightblue" d="M631.342,-142.372C652.584,-131.156 689.899,-111.453 714.785,-98.3136"/>
<polygon fill="midnightblue" stroke="midnightblue" points="716.446,-101.395 723.654,-93.6305 713.177,-95.2046 716.446,-101.395"/>
</g>
<!-- Node15 -->
<g id="node15" class="node"><title>Node15</title>
<g id="a_node15"><a xlink:href="../../d2/dd0/Cartesian2D_8h.html" target="_top" xlink:title="MathUtils/Cartesian2D.h">
<polygon fill="none" stroke="black" points="785.5,-74.5 785.5,-93.5 910.5,-93.5 910.5,-74.5 785.5,-74.5"/>
<text text-anchor="middle" x="848" y="-81.5" font-family="Helvetica,sans-Serif" font-size="10.00">MathUtils/Cartesian2D.h</text>
</a>
</g>
</g>
<!-- Node7&#45;&gt;Node15 -->
<g id="edge15" class="edge"><title>Node7&#45;&gt;Node15</title>
<path fill="none" stroke="midnightblue" d="M645.461,-142.372C687.177,-130.555 762.15,-109.318 808.245,-96.261"/>
<polygon fill="midnightblue" stroke="midnightblue" points="809.234,-99.6188 817.901,-93.5259 807.326,-92.8838 809.234,-99.6188"/>
</g>
<!-- Node16 -->
<g id="node16" class="node"><title>Node16</title>
<polygon fill="none" stroke="#bfbfbf" points="681.5,-1 681.5,-31 832.5,-31 832.5,-1 681.5,-1"/>
<text text-anchor="start" x="689.5" y="-19" font-family="Helvetica,sans-Serif" font-size="10.00">Math/GenVector/Displacement</text>
<text text-anchor="middle" x="757" y="-8" font-family="Helvetica,sans-Serif" font-size="10.00">Vector2D.h</text>
</g>
<!-- Node15&#45;&gt;Node16 -->
<g id="edge16" class="edge"><title>Node15&#45;&gt;Node16</title>
<path fill="none" stroke="midnightblue" d="M836.103,-74.3717C823.221,-65.0286 802.22,-49.7966 785.093,-37.375"/>
<polygon fill="midnightblue" stroke="midnightblue" points="786.703,-34.2194 776.553,-31.1815 782.593,-39.8859 786.703,-34.2194"/>
</g>
<!-- Node17 -->
<g id="node17" class="node"><title>Node17</title>
<polygon fill="none" stroke="#bfbfbf" points="851,-6.5 851,-25.5 1027,-25.5 1027,-6.5 851,-6.5"/>
<text text-anchor="middle" x="939" y="-13.5" font-family="Helvetica,sans-Serif" font-size="10.00">Math/GenVector/PositionVector2D.h</text>
</g>
<!-- Node15&#45;&gt;Node17 -->
<g id="edge17" class="edge"><title>Node15&#45;&gt;Node17</title>
<path fill="none" stroke="midnightblue" d="M859.897,-74.3717C874.884,-63.5015 900.862,-44.6602 918.942,-31.5474"/>
<polygon fill="midnightblue" stroke="midnightblue" points="921.06,-34.3349 927.1,-25.6305 916.95,-28.6684 921.06,-34.3349"/>
</g>
<!-- Node18&#45;&gt;Node4 -->
<g id="edge23" class="edge"><title>Node18&#45;&gt;Node4</title>
<path fill="none" stroke="midnightblue" d="M1282.01,-335.643C1330.06,-331.823 1392.99,-320.982 1441,-292 1510.08,-250.294 1534.18,-146.437 1541.35,-103.762"/>
<polygon fill="midnightblue" stroke="midnightblue" points="1544.81,-104.294 1542.88,-93.8751 1537.89,-103.22 1544.81,-104.294"/>
</g>
<!-- Node18&#45;&gt;Node5 -->
<g id="edge48" class="edge"><title>Node18&#45;&gt;Node5</title>
<path fill="none" stroke="midnightblue" d="M1149.63,-328.481C1085.66,-319.449 981.705,-304.755 892,-292 890.739,-291.821 889.463,-291.639 888.177,-291.456"/>
<polygon fill="midnightblue" stroke="midnightblue" points="888.574,-287.977 878.18,-290.032 887.586,-294.907 888.574,-287.977"/>
</g>
<!-- Node19 -->
<g id="node19" class="node"><title>Node19</title>
<polygon fill="none" stroke="#bfbfbf" points="1141,-272.5 1141,-291.5 1193,-291.5 1193,-272.5 1141,-272.5"/>
<text text-anchor="middle" x="1167" y="-279.5" font-family="Helvetica,sans-Serif" font-size="10.00">memory</text>
</g>
<!-- Node18&#45;&gt;Node19 -->
<g id="edge19" class="edge"><title>Node18&#45;&gt;Node19</title>
<path fill="none" stroke="midnightblue" d="M1202.9,-328.083C1196.76,-320.377 1187.73,-309.033 1180.26,-299.653"/>
<polygon fill="midnightblue" stroke="midnightblue" points="1182.94,-297.394 1173.97,-291.751 1177.46,-301.754 1182.94,-297.394"/>
</g>
<!-- Node20 -->
<g id="node20" class="node"><title>Node20</title>
<polygon fill="none" stroke="#bfbfbf" points="1211.5,-272.5 1211.5,-291.5 1294.5,-291.5 1294.5,-272.5 1211.5,-272.5"/>
<text text-anchor="middle" x="1253" y="-279.5" font-family="Helvetica,sans-Serif" font-size="10.00">unordered_map</text>
</g>
<!-- Node18&#45;&gt;Node20 -->
<g id="edge20" class="edge"><title>Node18&#45;&gt;Node20</title>
<path fill="none" stroke="midnightblue" d="M1217.1,-328.083C1223.24,-320.377 1232.27,-309.033 1239.74,-299.653"/>
<polygon fill="midnightblue" stroke="midnightblue" points="1242.54,-301.754 1246.03,-291.751 1237.06,-297.394 1242.54,-301.754"/>
</g>
<!-- Node21 -->
<g id="node21" class="node"><title>Node21</title>
<polygon fill="none" stroke="#bfbfbf" points="527,-210.5 527,-229.5 571,-229.5 571,-210.5 527,-210.5"/>
<text text-anchor="middle" x="549" y="-217.5" font-family="Helvetica,sans-Serif" font-size="10.00">vector</text>
</g>
<!-- Node18&#45;&gt;Node21 -->
<g id="edge21" class="edge"><title>Node18&#45;&gt;Node21</title>
<path fill="none" stroke="midnightblue" d="M1139.53,-328.468C1068.42,-319.394 963.754,-304.638 925,-292 906.48,-285.961 904.61,-277.756 886,-272 764.449,-234.404 726.672,-261.395 602,-236 595.138,-234.602 587.864,-232.777 580.976,-230.882"/>
<polygon fill="midnightblue" stroke="midnightblue" points="581.831,-227.486 571.254,-228.1 579.905,-234.216 581.831,-227.486"/>
</g>
<!-- Node22 -->
<g id="node22" class="node"><title>Node22</title>
<polygon fill="none" stroke="#bfbfbf" points="1312.5,-272.5 1312.5,-291.5 1355.5,-291.5 1355.5,-272.5 1312.5,-272.5"/>
<text text-anchor="middle" x="1334" y="-279.5" font-family="Helvetica,sans-Serif" font-size="10.00">deque</text>
</g>
<!-- Node18&#45;&gt;Node22 -->
<g id="edge22" class="edge"><title>Node18&#45;&gt;Node22</title>
<path fill="none" stroke="midnightblue" d="M1229.65,-328.444C1249.96,-319.596 1281.9,-305.687 1305.1,-295.586"/>
<polygon fill="midnightblue" stroke="midnightblue" points="1306.67,-298.718 1314.44,-291.516 1303.88,-292.3 1306.67,-298.718"/>
</g>
<!-- Node23 -->
<g id="node23" class="node"><title>Node23</title>
<polygon fill="none" stroke="#bfbfbf" points="1373.5,-272.5 1373.5,-291.5 1432.5,-291.5 1432.5,-272.5 1373.5,-272.5"/>
<text text-anchor="middle" x="1403" y="-279.5" font-family="Helvetica,sans-Serif" font-size="10.00">TObject.h</text>
</g>
<!-- Node18&#45;&gt;Node23 -->
<g id="edge24" class="edge"><title>Node18&#45;&gt;Node23</title>
<path fill="none" stroke="midnightblue" d="M1240.58,-328.444C1273.81,-319.147 1327.01,-304.262 1363.41,-294.078"/>
<polygon fill="midnightblue" stroke="midnightblue" points="1364.51,-297.404 1373.2,-291.339 1362.62,-290.663 1364.51,-297.404"/>
</g>
<!-- Node24 -->
<g id="node24" class="node"><title>Node24</title>
<g id="a_node24"><a xlink:href="../../dd/dc7/EMCAL_2base_2include_2EMCALBase_2Digit_8h.html" target="_top" xlink:title="EMCALBase/Digit.h">
<polygon fill="none" stroke="black" points="1573.5,-210.5 1573.5,-229.5 1678.5,-229.5 1678.5,-210.5 1573.5,-210.5"/>
<text text-anchor="middle" x="1626" y="-217.5" font-family="Helvetica,sans-Serif" font-size="10.00">EMCALBase/Digit.h</text>
</a>
</g>
</g>
<!-- Node18&#45;&gt;Node24 -->
<g id="edge25" class="edge"><title>Node18&#45;&gt;Node24</title>
<path fill="none" stroke="midnightblue" d="M1282.14,-335.53C1346.47,-332.142 1442.21,-321.918 1520,-292 1554.22,-278.84 1588.5,-253.02 1608.46,-236.41"/>
<polygon fill="midnightblue" stroke="midnightblue" points="1610.98,-238.857 1616.33,-229.712 1606.44,-233.526 1610.98,-238.857"/>
</g>
<!-- Node29 -->
<g id="node29" class="node"><title>Node29</title>
<g id="a_node29"><a xlink:href="../../dd/da8/EMCAL_2base_2include_2EMCALBase_2Geometry_8h.html" target="_top" xlink:title="EMCALBase/Geometry.h">
<polygon fill="none" stroke="black" points="934,-272.5 934,-291.5 1062,-291.5 1062,-272.5 934,-272.5"/>
<text text-anchor="middle" x="998" y="-279.5" font-family="Helvetica,sans-Serif" font-size="10.00">EMCALBase/Geometry.h</text>
</a>
</g>
</g>
<!-- Node18&#45;&gt;Node29 -->
<g id="edge32" class="edge"><title>Node18&#45;&gt;Node29</title>
<path fill="none" stroke="midnightblue" d="M1176.41,-328.444C1139.81,-319.122 1081.16,-304.183 1041.17,-293.997"/>
<polygon fill="midnightblue" stroke="midnightblue" points="1041.99,-290.593 1031.43,-291.516 1040.26,-297.377 1041.99,-290.593"/>
</g>
<!-- Node38 -->
<g id="node38" class="node"><title>Node38</title>
<g id="a_node38"><a xlink:href="../../d5/d5e/GeometryBase_8h.html" target="_top" xlink:title="EMCALBase/GeometryBase.h">
<polygon fill="none" stroke="black" points="1328,-210.5 1328,-229.5 1478,-229.5 1478,-210.5 1328,-210.5"/>
<text text-anchor="middle" x="1403" y="-217.5" font-family="Helvetica,sans-Serif" font-size="10.00">EMCALBase/GeometryBase.h</text>
</a>
</g>
</g>
<!-- Node18&#45;&gt;Node38 -->
<g id="edge47" class="edge"><title>Node18&#45;&gt;Node38</title>
<path fill="none" stroke="midnightblue" d="M1184.84,-328.434C1155.24,-317.029 1112.48,-295.541 1132,-272 1133.71,-269.934 1266.18,-245.706 1345.25,-231.401"/>
<polygon fill="midnightblue" stroke="midnightblue" points="1346.34,-234.76 1355.56,-229.537 1345.1,-227.871 1346.34,-234.76"/>
</g>
<!-- Node24&#45;&gt;Node4 -->
<g id="edge28" class="edge"><title>Node24&#45;&gt;Node4</title>
<path fill="none" stroke="midnightblue" d="M1610.57,-210.339C1596.3,-201.526 1575.61,-186.546 1564,-168 1551.67,-148.317 1546.94,-121.637 1545.13,-103.898"/>
<polygon fill="midnightblue" stroke="midnightblue" points="1548.6,-103.381 1544.31,-93.6947 1541.62,-103.944 1548.6,-103.381"/>
</g>
<!-- Node25 -->
<g id="node25" class="node"><title>Node25</title>
<polygon fill="none" stroke="#bfbfbf" points="1572.5,-142.5 1572.5,-161.5 1617.5,-161.5 1617.5,-142.5 1572.5,-142.5"/>
<text text-anchor="middle" x="1595" y="-149.5" font-family="Helvetica,sans-Serif" font-size="10.00">iosfwd</text>
</g>
<!-- Node24&#45;&gt;Node25 -->
<g id="edge26" class="edge"><title>Node24&#45;&gt;Node25</title>
<path fill="none" stroke="midnightblue" d="M1621.95,-210.372C1617.29,-200.446 1609.5,-183.874 1603.5,-171.086"/>
<polygon fill="midnightblue" stroke="midnightblue" points="1606.57,-169.404 1599.15,-161.841 1600.24,-172.38 1606.57,-169.404"/>
</g>
<!-- Node26 -->
<g id="node26" class="node"><title>Node26</title>
<polygon fill="none" stroke="#bfbfbf" points="1636,-142.5 1636,-161.5 1680,-161.5 1680,-142.5 1636,-142.5"/>
<text text-anchor="middle" x="1658" y="-149.5" font-family="Helvetica,sans-Serif" font-size="10.00">cmath</text>
</g>
<!-- Node24&#45;&gt;Node26 -->
<g id="edge27" class="edge"><title>Node24&#45;&gt;Node26</title>
<path fill="none" stroke="midnightblue" d="M1630.18,-210.372C1635,-200.446 1643.03,-183.874 1649.23,-171.086"/>
<polygon fill="midnightblue" stroke="midnightblue" points="1652.5,-172.366 1653.71,-161.841 1646.2,-169.312 1652.5,-172.366"/>
</g>
<!-- Node27 -->
<g id="node27" class="node"><title>Node27</title>
<g id="a_node27"><a xlink:href="../../df/d5d/common_2include_2CommonDataFormat_2TimeStamp_8h.html" target="_top" xlink:title="CommonDataFormat/TimeStamp.h">
<polygon fill="none" stroke="black" points="1812,-142.5 1812,-161.5 1982,-161.5 1982,-142.5 1812,-142.5"/>
<text text-anchor="middle" x="1897" y="-149.5" font-family="Helvetica,sans-Serif" font-size="10.00">CommonDataFormat/TimeStamp.h</text>
</a>
</g>
</g>
<!-- Node24&#45;&gt;Node27 -->
<g id="edge29" class="edge"><title>Node24&#45;&gt;Node27</title>
<path fill="none" stroke="midnightblue" d="M1661.15,-210.439C1709.99,-198.545 1798.4,-177.013 1852,-163.959"/>
<polygon fill="midnightblue" stroke="midnightblue" points="1853.02,-167.312 1861.91,-161.546 1851.37,-160.511 1853.02,-167.312"/>
</g>
<!-- Node28 -->
<g id="node28" class="node"><title>Node28</title>
<polygon fill="none" stroke="#bfbfbf" points="1698.5,-137 1698.5,-167 1793.5,-167 1793.5,-137 1698.5,-137"/>
<text text-anchor="start" x="1706.5" y="-155" font-family="Helvetica,sans-Serif" font-size="10.00">boost/serialization</text>
<text text-anchor="middle" x="1746" y="-144" font-family="Helvetica,sans-Serif" font-size="10.00">/base_object.hpp</text>
</g>
<!-- Node24&#45;&gt;Node28 -->
<g id="edge31" class="edge"><title>Node24&#45;&gt;Node28</title>
<path fill="none" stroke="midnightblue" d="M1641.69,-210.372C1659.3,-200.686 1688.42,-184.671 1711.42,-172.019"/>
<polygon fill="midnightblue" stroke="midnightblue" points="1713.14,-175.067 1720.22,-167.181 1709.77,-168.934 1713.14,-175.067"/>
</g>
<!-- Node27&#45;&gt;Node4 -->
<g id="edge30" class="edge"><title>Node27&#45;&gt;Node4</title>
<path fill="none" stroke="midnightblue" d="M1851.21,-142.439C1780.91,-129.296 1647.67,-104.384 1582.23,-92.1472"/>
<polygon fill="midnightblue" stroke="midnightblue" points="1582.8,-88.6934 1572.32,-90.2959 1581.51,-95.5742 1582.8,-88.6934"/>
</g>
<!-- Node29&#45;&gt;Node7 -->
<g id="edge46" class="edge"><title>Node29&#45;&gt;Node7</title>
<path fill="none" stroke="midnightblue" d="M933.675,-273.515C825.47,-260.905 618.665,-236.721 618,-236 602.155,-218.803 605.181,-190.086 609.528,-171.346"/>
<polygon fill="midnightblue" stroke="midnightblue" points="612.925,-172.19 612.107,-161.627 606.159,-170.395 612.925,-172.19"/>
</g>
<!-- Node29&#45;&gt;Node13 -->
<g id="edge38" class="edge"><title>Node29&#45;&gt;Node13</title>
<path fill="none" stroke="midnightblue" d="M1059.62,-272.448C1101.98,-265.161 1152.86,-253.127 1166,-236 1196.09,-196.787 1175.02,-133.816 1161.67,-103.068"/>
<polygon fill="midnightblue" stroke="midnightblue" points="1164.7,-101.275 1157.37,-93.6281 1158.33,-104.179 1164.7,-101.275"/>
</g>
<!-- Node29&#45;&gt;Node21 -->
<g id="edge36" class="edge"><title>Node29&#45;&gt;Node21</title>
<path fill="none" stroke="midnightblue" d="M933.731,-273.544C929.085,-273.017 924.471,-272.498 920,-272 771.175,-255.418 730.057,-273.181 585,-236 582.014,-235.235 578.951,-234.267 575.933,-233.193"/>
<polygon fill="midnightblue" stroke="midnightblue" points="577.184,-229.924 566.597,-229.519 574.621,-236.438 577.184,-229.924"/>
</g>
<!-- Node30 -->
<g id="node30" class="node"><title>Node30</title>
<polygon fill="none" stroke="#bfbfbf" points="1251.5,-210.5 1251.5,-229.5 1310.5,-229.5 1310.5,-210.5 1251.5,-210.5"/>
<text text-anchor="middle" x="1281" y="-217.5" font-family="Helvetica,sans-Serif" font-size="10.00">exception</text>
</g>
<!-- Node29&#45;&gt;Node30 -->
<g id="edge33" class="edge"><title>Node29&#45;&gt;Node30</title>
<path fill="none" stroke="midnightblue" d="M1055.98,-272.456C1104.7,-264.713 1175.96,-252.064 1237,-236 1240.65,-235.04 1244.43,-233.93 1248.18,-232.757"/>
<polygon fill="midnightblue" stroke="midnightblue" points="1249.49,-236.012 1257.9,-229.566 1247.3,-229.361 1249.49,-236.012"/>
</g>
<!-- Node31 -->
<g id="node31" class="node"><title>Node31</title>
<polygon fill="none" stroke="#bfbfbf" points="1265.5,-142.5 1265.5,-161.5 1306.5,-161.5 1306.5,-142.5 1265.5,-142.5"/>
<text text-anchor="middle" x="1286" y="-149.5" font-family="Helvetica,sans-Serif" font-size="10.00">string</text>
</g>
<!-- Node29&#45;&gt;Node31 -->
<g id="edge34" class="edge"><title>Node29&#45;&gt;Node31</title>
<path fill="none" stroke="midnightblue" d="M1062.19,-275.539C1103.26,-269.95 1156.59,-258.681 1199,-236 1229.99,-219.429 1257.84,-188.761 1273.28,-169.702"/>
<polygon fill="midnightblue" stroke="midnightblue" points="1276.21,-171.643 1279.65,-161.622 1270.71,-167.311 1276.21,-171.643"/>
</g>
<!-- Node32 -->
<g id="node32" class="node"><title>Node32</title>
<polygon fill="none" stroke="#bfbfbf" points="627,-210.5 627,-229.5 665,-229.5 665,-210.5 627,-210.5"/>
<text text-anchor="middle" x="646" y="-217.5" font-family="Helvetica,sans-Serif" font-size="10.00">tuple</text>
</g>
<!-- Node29&#45;&gt;Node32 -->
<g id="edge35" class="edge"><title>Node29&#45;&gt;Node32</title>
<path fill="none" stroke="midnightblue" d="M933.889,-273.327C846.527,-262.683 698.13,-243.86 674,-236 672.342,-235.46 670.666,-234.824 669.002,-234.125"/>
<polygon fill="midnightblue" stroke="midnightblue" points="670.334,-230.88 659.811,-229.646 667.267,-237.173 670.334,-230.88"/>
</g>
<!-- Node33 -->
<g id="node33" class="node"><title>Node33</title>
<polygon fill="none" stroke="#bfbfbf" points="683,-210.5 683,-229.5 763,-229.5 763,-210.5 683,-210.5"/>
<text text-anchor="middle" x="723" y="-217.5" font-family="Helvetica,sans-Serif" font-size="10.00">RStringView.h</text>
</g>
<!-- Node29&#45;&gt;Node33 -->
<g id="edge37" class="edge"><title>Node29&#45;&gt;Node33</title>
<path fill="none" stroke="midnightblue" d="M947.409,-272.43C901.392,-264.279 831.743,-251.052 772,-236 767.661,-234.907 763.135,-233.664 758.664,-232.373"/>
<polygon fill="midnightblue" stroke="midnightblue" points="759.639,-229.012 749.056,-229.508 757.639,-235.72 759.639,-229.012"/>
</g>
<!-- Node34 -->
<g id="node34" class="node"><title>Node34</title>
<polygon fill="none" stroke="#bfbfbf" points="781,-210.5 781,-229.5 843,-229.5 843,-210.5 781,-210.5"/>
<text text-anchor="middle" x="812" y="-217.5" font-family="Helvetica,sans-Serif" font-size="10.00">TNamed.h</text>
</g>
<!-- Node29&#45;&gt;Node34 -->
<g id="edge39" class="edge"><title>Node29&#45;&gt;Node34</title>
<path fill="none" stroke="midnightblue" d="M968.471,-272.463C938.86,-263.77 892.038,-249.664 852,-236 849.392,-235.11 846.698,-234.162 843.999,-233.192"/>
<polygon fill="midnightblue" stroke="midnightblue" points="844.934,-229.807 834.34,-229.647 842.521,-236.378 844.934,-229.807"/>
</g>
<!-- Node35 -->
<g id="node35" class="node"><title>Node35</title>
<polygon fill="none" stroke="#bfbfbf" points="861,-210.5 861,-229.5 925,-229.5 925,-210.5 861,-210.5"/>
<text text-anchor="middle" x="893" y="-217.5" font-family="Helvetica,sans-Serif" font-size="10.00">TParticle.h</text>
</g>
<!-- Node29&#45;&gt;Node35 -->
<g id="edge40" class="edge"><title>Node29&#45;&gt;Node35</title>
<path fill="none" stroke="midnightblue" d="M982.956,-272.403C965.725,-262.557 937.26,-246.291 916.966,-234.695"/>
<polygon fill="midnightblue" stroke="midnightblue" points="918.435,-231.503 908.016,-229.581 914.962,-237.581 918.435,-231.503"/>
</g>
<!-- Node36 -->
<g id="node36" class="node"><title>Node36</title>
<polygon fill="none" stroke="#bfbfbf" points="943.5,-210.5 943.5,-229.5 1008.5,-229.5 1008.5,-210.5 943.5,-210.5"/>
<text text-anchor="middle" x="976" y="-217.5" font-family="Helvetica,sans-Serif" font-size="10.00">TVector3.h</text>
</g>
<!-- Node29&#45;&gt;Node36 -->
<g id="edge41" class="edge"><title>Node29&#45;&gt;Node36</title>
<path fill="none" stroke="midnightblue" d="M994.848,-272.403C991.679,-263.76 986.696,-250.17 982.649,-239.134"/>
<polygon fill="midnightblue" stroke="midnightblue" points="985.875,-237.764 979.146,-229.581 979.303,-240.174 985.875,-237.764"/>
</g>
<!-- Node37 -->
<g id="node37" class="node"><title>Node37</title>
<g id="a_node37"><a xlink:href="../../d4/d82/Detectors_2EMCAL_2base_2include_2EMCALBase_2Constants_8h.html" target="_top" xlink:title="EMCALBase/Constants.h">
<polygon fill="none" stroke="black" points="1027,-210.5 1027,-229.5 1157,-229.5 1157,-210.5 1027,-210.5"/>
<text text-anchor="middle" x="1092" y="-217.5" font-family="Helvetica,sans-Serif" font-size="10.00">EMCALBase/Constants.h</text>
</a>
</g>
</g>
<!-- Node29&#45;&gt;Node37 -->
<g id="edge42" class="edge"><title>Node29&#45;&gt;Node37</title>
<path fill="none" stroke="midnightblue" d="M1011.47,-272.403C1026.68,-262.691 1051.69,-246.732 1069.8,-235.17"/>
<polygon fill="midnightblue" stroke="midnightblue" points="1072.01,-237.911 1078.56,-229.581 1068.24,-232.011 1072.01,-237.911"/>
</g>
<!-- Node29&#45;&gt;Node38 -->
<g id="edge43" class="edge"><title>Node29&#45;&gt;Node38</title>
<path fill="none" stroke="midnightblue" d="M1062.05,-272.738C1126.92,-264.203 1230.08,-250.166 1319,-236 1328.02,-234.562 1337.58,-232.946 1346.88,-231.322"/>
<polygon fill="midnightblue" stroke="midnightblue" points="1347.6,-234.749 1356.84,-229.563 1346.38,-227.855 1347.6,-234.749"/>
</g>
<!-- Node38&#45;&gt;Node31 -->
<g id="edge45" class="edge"><title>Node38&#45;&gt;Node31</title>
<path fill="none" stroke="midnightblue" d="M1387.7,-210.372C1368,-199.254 1333.51,-179.8 1310.22,-166.662"/>
<polygon fill="midnightblue" stroke="midnightblue" points="1311.73,-163.495 1301.3,-161.63 1308.29,-169.592 1311.73,-163.495"/>
</g>
<!-- Node39 -->
<g id="node39" class="node"><title>Node39</title>
<polygon fill="none" stroke="#bfbfbf" points="1377,-142.5 1377,-161.5 1429,-161.5 1429,-142.5 1377,-142.5"/>
<text text-anchor="middle" x="1403" y="-149.5" font-family="Helvetica,sans-Serif" font-size="10.00">sstream</text>
</g>
<!-- Node38&#45;&gt;Node39 -->
<g id="edge44" class="edge"><title>Node38&#45;&gt;Node39</title>
<path fill="none" stroke="midnightblue" d="M1403,-210.372C1403,-200.643 1403,-184.528 1403,-171.85"/>
<polygon fill="midnightblue" stroke="midnightblue" points="1406.5,-171.841 1403,-161.841 1399.5,-171.841 1406.5,-171.841"/>
</g>
</g>
</svg>
        <g id="navigator" transform="translate(0 0)" fill="#404254">
                <rect fill="#f2f5e9" fill-opacity="0.5" stroke="#606060" stroke-width=".5" x="0" y="0" width="60" height="60"/>
                <use id="zoomplus" xlink:href="#zoomPlus" x="17" y="9" onmousedown="handleZoom(evt,'in')"/>
                <use id="zoomminus" xlink:href="#zoomMin" x="42" y="9" onmousedown="handleZoom(evt,'out')"/>
                <use id="reset" xlink:href="#resetDef" x="30" y="36" onmousedown="handleReset()"/>
                <g id="arrowUp" xlink:href="#dirArrow" transform="translate(30 24)" onmousedown="handlePan(0,-1)">
                  <use xlink:href="#rim" fill="#404040">
                        <set attributeName="fill" to="#808080" begin="arrowUp.mouseover" end="arrowUp.mouseout"/>
                  </use>
                  <path fill="none" stroke="white" stroke-width="1.5" d="M0,-3.0v7 M-2.5,-0.5L0,-3.0L2.5,-0.5"/>
                </g>
                <g id="arrowRight" xlink:href="#dirArrow" transform="rotate(90) translate(36 -43)" onmousedown="handlePan(1,0)">
                  <use xlink:href="#rim" fill="#404040">
                        <set attributeName="fill" to="#808080" begin="arrowRight.mouseover" end="arrowRight.mouseout"/>
                  </use>
                  <path fill="none" stroke="white" stroke-width="1.5" d="M0,-3.0v7 M-2.5,-0.5L0,-3.0L2.5,-0.5"/>
                </g>
                <g id="arrowDown" xlink:href="#dirArrow" transform="rotate(180) translate(-30 -48)" onmousedown="handlePan(0,1)">
                  <use xlink:href="#rim" fill="#404040">
                        <set attributeName="fill" to="#808080" begin="arrowDown.mouseover" end="arrowDown.mouseout"/>
                  </use>
                  <path fill="none" stroke="white" stroke-width="1.5" d="M0,-3.0v7 M-2.5,-0.5L0,-3.0L2.5,-0.5"/>
                </g>
                <g id="arrowLeft" xlink:href="#dirArrow" transform="rotate(270) translate(-36 17)" onmousedown="handlePan(-1,0)">
                  <use xlink:href="#rim" fill="#404040">
                        <set attributeName="fill" to="#808080" begin="arrowLeft.mouseover" end="arrowLeft.mouseout"/>
                  </use>
                  <path fill="none" stroke="white" stroke-width="1.5" d="M0,-3.0v7 M-2.5,-0.5L0,-3.0L2.5,-0.5"/>
                </g>
        </g>
        <svg viewBox="0 0 15 15" width="100%" height="30px" preserveAspectRatio="xMaxYMin meet">
         <g id="arrow_out" transform="scale(0.3 0.3)">
          <a xlink:href="EMCAL_2simulation_2include_2EMCALSimulation_2DigitizerTask_8h__incl_org.svg" target="_base">
           <rect id="button" ry="5" rx="5" y="6" x="6" height="38" width="38"
                fill="#f2f5e9" fill-opacity="0.5" stroke="#606060" stroke-width="1.0"/>
           <path id="arrow"
             d="M 11.500037,31.436501 C 11.940474,20.09759 22.043105,11.32322 32.158766,21.979434 L 37.068811,17.246167 C 37.068811,17.246167 37.088388,32 37.088388,32 L 22.160133,31.978069 C 22.160133,31.978069 26.997745,27.140456 26.997745,27.140456 C 18.528582,18.264221 13.291696,25.230495 11.500037,31.436501 z"
             style="fill:#404040;"/>
          </a>
         </g>
        </svg>
</svg>
