<?xml version="1.0" encoding="UTF-8" standalone="no"?>
<!DOCTYPE svg PUBLIC "-//W3C//DTD SVG 1.1//EN"
 "http://www.w3.org/Graphics/SVG/1.1/DTD/svg11.dtd">
<!-- Generated by graphviz version 2.36.0 (20140111.2315)
 -->
<!-- Title: /home/travis/build/AliceO2Group/AliceO2/DataFormats/Detectors/TPC/include/DataFormatsTPC/Cluster.h Pages: 1 -->
<svg width="304pt" height="196pt"
 viewBox="0.00 0.00 304.46 196.00" xmlns="http://www.w3.org/2000/svg" xmlns:xlink="http://www.w3.org/1999/xlink">
<g id="graph0" class="graph" transform="scale(1 1) rotate(0) translate(4 192)">
<title>/home/travis/build/AliceO2Group/AliceO2/DataFormats/Detectors/TPC/include/DataFormatsTPC/Cluster.h</title>
<!-- Node1 -->
<g id="node1" class="node"><title>Node1</title>
<polygon fill="#bfbfbf" stroke="black" points="21.4565,-124.5 21.4565,-187.5 175.456,-187.5 175.456,-124.5 21.4565,-124.5"/>
<text text-anchor="start" x="29.4565" y="-175.5" font-family="Helvetica,sans-Serif" font-size="10.00">/home/travis/build</text>
<text text-anchor="start" x="29.4565" y="-164.5" font-family="Helvetica,sans-Serif" font-size="10.00">/AliceO2Group/AliceO2</text>
<text text-anchor="start" x="29.4565" y="-153.5" font-family="Helvetica,sans-Serif" font-size="10.00">/DataFormats/Detectors</text>
<text text-anchor="start" x="29.4565" y="-142.5" font-family="Helvetica,sans-Serif" font-size="10.00">/TPC/include/DataFormatsTPC</text>
<text text-anchor="middle" x="98.4565" y="-131.5" font-family="Helvetica,sans-Serif" font-size="10.00">/Cluster.h</text>
</g>
<!-- Node2 -->
<g id="node2" class="node"><title>Node2</title>
<polygon fill="none" stroke="#bfbfbf" points="13.4565,-0.5 13.4565,-19.5 69.4565,-19.5 69.4565,-0.5 13.4565,-0.5"/>
<text text-anchor="middle" x="41.4565" y="-7.5" font-family="Helvetica,sans-Serif" font-size="10.00">Rtypes.h</text>
</g>
<!-- Node1&#45;&gt;Node2 -->
<g id="edge1" class="edge"><title>Node1&#45;&gt;Node2</title>
<path fill="none" stroke="midnightblue" d="M37.643,-124.465C24.3328,-114.732 11.9834,-102.608 4.45647,-88 -2.05772,-75.3573 -0.341022,-69.3886 4.45647,-56 8.39707,-45.0027 16.3135,-34.7688 23.816,-26.8479"/>
<polygon fill="midnightblue" stroke="midnightblue" points="26.3488,-29.2659 31.018,-19.7555 21.4371,-24.2784 26.3488,-29.2659"/>
</g>
<!-- Node3 -->
<g id="node3" class="node"><title>Node3</title>
<g id="a_node3"><a xlink:href="../../df/d5d/common_2include_2CommonDataFormat_2TimeStamp_8h.html" target="_top" xlink:title="CommonDataFormat/TimeStamp.h">
<polygon fill="none" stroke="black" points="13.4565,-62.5 13.4565,-81.5 183.456,-81.5 183.456,-62.5 13.4565,-62.5"/>
<text text-anchor="middle" x="98.4565" y="-69.5" font-family="Helvetica,sans-Serif" font-size="10.00">CommonDataFormat/TimeStamp.h</text>
</a>
</g>
</g>
<!-- Node1&#45;&gt;Node3 -->
<g id="edge2" class="edge"><title>Node1&#45;&gt;Node3</title>
<path fill="none" stroke="midnightblue" d="M98.4565,-124.466C98.4565,-113.47 98.4565,-101.396 98.4565,-91.7089"/>
<polygon fill="midnightblue" stroke="midnightblue" points="101.957,-91.6397 98.4565,-81.6398 94.9566,-91.6398 101.957,-91.6397"/>
</g>
<!-- Node4 -->
<g id="node4" class="node"><title>Node4</title>
<polygon fill="none" stroke="#bfbfbf" points="201.956,-57 201.956,-87 296.956,-87 296.956,-57 201.956,-57"/>
<text text-anchor="start" x="209.956" y="-75" font-family="Helvetica,sans-Serif" font-size="10.00">boost/serialization</text>
<text text-anchor="middle" x="249.456" y="-64" font-family="Helvetica,sans-Serif" font-size="10.00">/base_object.hpp</text>
</g>
<!-- Node1&#45;&gt;Node4 -->
<g id="edge4" class="edge"><title>Node1&#45;&gt;Node4</title>
<path fill="none" stroke="midnightblue" d="M154.683,-124.466C174.819,-113.531 196.915,-101.532 214.703,-91.8727"/>
<polygon fill="midnightblue" stroke="midnightblue" points="216.462,-94.9006 223.579,-87.0526 213.121,-88.7491 216.462,-94.9006"/>
</g>
<!-- Node3&#45;&gt;Node2 -->
<g id="edge3" class="edge"><title>Node3&#45;&gt;Node2</title>
<path fill="none" stroke="midnightblue" d="M90.2898,-62.4035C81.5704,-53.2252 67.5529,-38.4699 56.7679,-27.1173"/>
<polygon fill="midnightblue" stroke="midnightblue" points="59.0331,-24.42 49.608,-19.5806 53.958,-29.2412 59.0331,-24.42"/>
</g>
</g>
</svg>
