<?xml version="1.0" encoding="UTF-8" standalone="no"?>
<!DOCTYPE svg PUBLIC "-//W3C//DTD SVG 1.1//EN"
 "http://www.w3.org/Graphics/SVG/1.1/DTD/svg11.dtd">
<!-- Generated by graphviz version 2.36.0 (20140111.2315)
 -->
<!-- Title: o2::mid::ColumnData Pages: 1 -->
<svg width="189pt" height="354pt"
 viewBox="0.00 0.00 189.00 354.00" xmlns="http://www.w3.org/2000/svg" xmlns:xlink="http://www.w3.org/1999/xlink">
<g id="graph0" class="graph" transform="scale(1 1) rotate(0) translate(4 350)">
<title>o2::mid::ColumnData</title>
<!-- Node1 -->
<g id="node1" class="node"><title>Node1</title>
<polygon fill="#bfbfbf" stroke="black" points="10,-0.5 10,-57.5 120,-57.5 120,-0.5 10,-0.5"/>
<text text-anchor="middle" x="65" y="-45.5" font-family="Helvetica,sans-Serif" font-size="10.00">o2::mid::ColumnData</text>
<polyline fill="none" stroke="black" points="10,-38.5 120,-38.5 "/>
<text text-anchor="middle" x="65" y="-26.5" font-family="Helvetica,sans-Serif" font-size="10.00"> </text>
<polyline fill="none" stroke="black" points="10,-19.5 120,-19.5 "/>
<text text-anchor="start" x="18" y="-7.5" font-family="Helvetica,sans-Serif" font-size="10.00">+ serialize()</text>
</g>
<!-- Node2 -->
<g id="node2" class="node"><title>Node2</title>
<polygon fill="none" stroke="#bfbfbf" points="0,-149.5 0,-206.5 46,-206.5 46,-149.5 0,-149.5"/>
<text text-anchor="middle" x="23" y="-194.5" font-family="Helvetica,sans-Serif" font-size="10.00">uint8_t</text>
<polyline fill="none" stroke="#bfbfbf" points="0,-187.5 46,-187.5 "/>
<text text-anchor="middle" x="23" y="-175.5" font-family="Helvetica,sans-Serif" font-size="10.00"> </text>
<polyline fill="none" stroke="#bfbfbf" points="0,-168.5 46,-168.5 "/>
<text text-anchor="middle" x="23" y="-156.5" font-family="Helvetica,sans-Serif" font-size="10.00"> </text>
</g>
<!-- Node2&#45;&gt;Node1 -->
<g id="edge1" class="edge"><title>Node2&#45;&gt;Node1</title>
<path fill="none" stroke="#404040" d="M24.7105,-149.347C26.6226,-128.675 30.6347,-99.9695 39,-76 39.8265,-73.6317 40.7731,-71.2445 41.8047,-68.8695"/>
<polygon fill="none" stroke="#404040" points="41.8634,-68.7489 40.8957,-61.603 47.1197,-57.9613 48.0874,-65.1072 41.8634,-68.7489"/>
<text text-anchor="middle" x="62" y="-90" font-family="Helvetica,sans-Serif" font-size="10.00"> +deId</text>
<text text-anchor="middle" x="62" y="-79" font-family="Helvetica,sans-Serif" font-size="10.00">+columnId</text>
</g>
<!-- Node3 -->
<g id="node3" class="node"><title>Node3</title>
<g id="a_node3"><a xlink:href="../../d8/de0/structo2_1_1mid_1_1StripPattern.html" target="_top" xlink:title="Strip pattern structure fot MID. ">
<polygon fill="none" stroke="black" points="64.5,-116.5 64.5,-239.5 181.5,-239.5 181.5,-116.5 64.5,-116.5"/>
<text text-anchor="middle" x="123" y="-227.5" font-family="Helvetica,sans-Serif" font-size="10.00">o2::mid::StripPattern</text>
<polyline fill="none" stroke="black" points="64.5,-220.5 181.5,-220.5 "/>
<text text-anchor="middle" x="123" y="-208.5" font-family="Helvetica,sans-Serif" font-size="10.00"> </text>
<polyline fill="none" stroke="black" points="64.5,-201.5 181.5,-201.5 "/>
<text text-anchor="start" x="72.5" y="-189.5" font-family="Helvetica,sans-Serif" font-size="10.00">+ setNonBendPattern()</text>
<text text-anchor="start" x="72.5" y="-178.5" font-family="Helvetica,sans-Serif" font-size="10.00">+ getNonBendPattern()</text>
<text text-anchor="start" x="72.5" y="-167.5" font-family="Helvetica,sans-Serif" font-size="10.00">+ setBendPattern()</text>
<text text-anchor="start" x="72.5" y="-156.5" font-family="Helvetica,sans-Serif" font-size="10.00">+ getBendPattern()</text>
<text text-anchor="start" x="72.5" y="-145.5" font-family="Helvetica,sans-Serif" font-size="10.00">+ isStripFired()</text>
<text text-anchor="start" x="72.5" y="-134.5" font-family="Helvetica,sans-Serif" font-size="10.00">+ isNBPStripFired()</text>
<text text-anchor="start" x="72.5" y="-123.5" font-family="Helvetica,sans-Serif" font-size="10.00">+ isBPStripFired()</text>
</a>
</g>
</g>
<!-- Node3&#45;&gt;Node1 -->
<g id="edge2" class="edge"><title>Node3&#45;&gt;Node1</title>
<path fill="none" stroke="#404040" d="M100.787,-116.457C95.7234,-103.084 90.2769,-89.0225 85,-76 84.0546,-73.667 83.0678,-71.2744 82.0608,-68.8654"/>
<polygon fill="none" stroke="#404040" points="81.981,-68.6775 75.9513,-64.7223 77.2831,-57.6352 83.3128,-61.5904 81.981,-68.6775"/>
<text text-anchor="middle" x="115.5" y="-84.5" font-family="Helvetica,sans-Serif" font-size="10.00"> +patterns</text>
</g>
<!-- Node4 -->
<g id="node4" class="node"><title>Node4</title>
<polygon fill="none" stroke="#bfbfbf" points="72,-288.5 72,-345.5 174,-345.5 174,-288.5 72,-288.5"/>
<text text-anchor="middle" x="123" y="-333.5" font-family="Helvetica,sans-Serif" font-size="10.00">array&lt; uint16_t, 5 &gt;</text>
<polyline fill="none" stroke="#bfbfbf" points="72,-326.5 174,-326.5 "/>
<text text-anchor="middle" x="123" y="-314.5" font-family="Helvetica,sans-Serif" font-size="10.00"> </text>
<polyline fill="none" stroke="#bfbfbf" points="72,-307.5 174,-307.5 "/>
<text text-anchor="middle" x="123" y="-295.5" font-family="Helvetica,sans-Serif" font-size="10.00"> </text>
</g>
<!-- Node4&#45;&gt;Node3 -->
<g id="edge3" class="edge"><title>Node4&#45;&gt;Node3</title>
<path fill="none" stroke="#404040" d="M123,-288.276C123,-277.501 123,-264.609 123,-251.521"/>
<polygon fill="none" stroke="#404040" points="123,-251.501 119,-245.501 123,-239.501 127,-245.501 123,-251.501"/>
<text text-anchor="middle" x="145.5" y="-261.5" font-family="Helvetica,sans-Serif" font-size="10.00"> +patterns</text>
</g>
</g>
</svg>
