<?xml version="1.0" encoding="UTF-8" standalone="no"?>
<!DOCTYPE svg PUBLIC "-//W3C//DTD SVG 1.1//EN"
 "http://www.w3.org/Graphics/SVG/1.1/DTD/svg11.dtd">
<!-- Generated by graphviz version 2.36.0 (20140111.2315)
 -->
<!-- Title: /home/travis/build/AliceO2Group/AliceO2/DataFormats/Detectors/ITSMFT/ITS/include/DataFormatsITS/TrackITS.h Pages: 1 -->
<svg width="1913pt" height="480pt"
 viewBox="0.00 0.00 1913.31 480.00" xmlns="http://www.w3.org/2000/svg" xmlns:xlink="http://www.w3.org/1999/xlink">
<g id="graph0" class="graph" transform="scale(1 1) rotate(0) translate(4 476)">
<title>/home/travis/build/AliceO2Group/AliceO2/DataFormats/Detectors/ITSMFT/ITS/include/DataFormatsITS/TrackITS.h</title>
<!-- Node1 -->
<g id="node1" class="node"><title>Node1</title>
<polygon fill="#bfbfbf" stroke="black" points="1261,-408.5 1261,-471.5 1429,-471.5 1429,-408.5 1261,-408.5"/>
<text text-anchor="start" x="1269" y="-459.5" font-family="Helvetica,sans-Serif" font-size="10.00">/home/travis/build</text>
<text text-anchor="start" x="1269" y="-448.5" font-family="Helvetica,sans-Serif" font-size="10.00">/AliceO2Group/AliceO2</text>
<text text-anchor="start" x="1269" y="-437.5" font-family="Helvetica,sans-Serif" font-size="10.00">/DataFormats/Detectors</text>
<text text-anchor="start" x="1269" y="-426.5" font-family="Helvetica,sans-Serif" font-size="10.00">/ITSMFT/ITS/include/DataFormats</text>
<text text-anchor="middle" x="1345" y="-415.5" font-family="Helvetica,sans-Serif" font-size="10.00">ITS/TrackITS.h</text>
</g>
<!-- Node2 -->
<g id="node2" class="node"><title>Node2</title>
<polygon fill="none" stroke="#bfbfbf" points="1793,-142.5 1793,-161.5 1837,-161.5 1837,-142.5 1793,-142.5"/>
<text text-anchor="middle" x="1815" y="-149.5" font-family="Helvetica,sans-Serif" font-size="10.00">vector</text>
</g>
<!-- Node1&#45;&gt;Node2 -->
<g id="edge1" class="edge"><title>Node1&#45;&gt;Node2</title>
<path fill="none" stroke="midnightblue" d="M1429.11,-430.337C1566.08,-414.304 1827.62,-374.994 1883,-304 1916.93,-260.508 1861.81,-197.395 1832.06,-168.498"/>
<polygon fill="midnightblue" stroke="midnightblue" points="1834.44,-165.936 1824.77,-161.609 1829.63,-171.023 1834.44,-165.936"/>
</g>
<!-- Node3 -->
<g id="node3" class="node"><title>Node3</title>
<g id="a_node3"><a xlink:href="../../d7/d8b/DataFormats_2Reconstruction_2include_2ReconstructionDataFormats_2Track_8h.html" target="_top" xlink:title="ReconstructionDataFormats\l/Track.h">
<polygon fill="none" stroke="black" points="732,-341 732,-371 872,-371 872,-341 732,-341"/>
<text text-anchor="start" x="740" y="-359" font-family="Helvetica,sans-Serif" font-size="10.00">ReconstructionDataFormats</text>
<text text-anchor="middle" x="802" y="-348" font-family="Helvetica,sans-Serif" font-size="10.00">/Track.h</text>
</a>
</g>
</g>
<!-- Node1&#45;&gt;Node3 -->
<g id="edge2" class="edge"><title>Node1&#45;&gt;Node3</title>
<path fill="none" stroke="midnightblue" d="M1260.75,-426.277C1157.51,-410.686 983.817,-384.457 882.372,-369.137"/>
<polygon fill="midnightblue" stroke="midnightblue" points="882.592,-365.631 872.181,-367.598 881.546,-372.552 882.592,-365.631"/>
</g>
<!-- Node4 -->
<g id="node4" class="node"><title>Node4</title>
<polygon fill="none" stroke="#bfbfbf" points="1770,-74.5 1770,-93.5 1826,-93.5 1826,-74.5 1770,-74.5"/>
<text text-anchor="middle" x="1798" y="-81.5" font-family="Helvetica,sans-Serif" font-size="10.00">Rtypes.h</text>
</g>
<!-- Node3&#45;&gt;Node4 -->
<g id="edge3" class="edge"><title>Node3&#45;&gt;Node4</title>
<path fill="none" stroke="midnightblue" d="M872.199,-350.672C1063.3,-338.184 1589.26,-298.912 1750,-236 1798.35,-217.075 1821.26,-214.181 1845,-168 1851.5,-155.351 1850.17,-149.248 1845,-136 1839.47,-121.84 1827.96,-109.243 1817.72,-100.111"/>
<polygon fill="midnightblue" stroke="midnightblue" points="1819.83,-97.3088 1809.91,-93.5661 1815.33,-102.673 1819.83,-97.3088"/>
</g>
<!-- Node5 -->
<g id="node5" class="node"><title>Node5</title>
<polygon fill="none" stroke="#bfbfbf" points="1819,-278.5 1819,-297.5 1875,-297.5 1875,-278.5 1819,-278.5"/>
<text text-anchor="middle" x="1847" y="-285.5" font-family="Helvetica,sans-Serif" font-size="10.00">algorithm</text>
</g>
<!-- Node3&#45;&gt;Node5 -->
<g id="edge4" class="edge"><title>Node3&#45;&gt;Node5</title>
<path fill="none" stroke="midnightblue" d="M872.233,-354.089C1069.54,-351.109 1626.1,-339.69 1805,-304 1808.99,-303.205 1813.1,-302.105 1817.13,-300.859"/>
<polygon fill="midnightblue" stroke="midnightblue" points="1818.5,-304.091 1826.83,-297.55 1816.24,-297.466 1818.5,-304.091"/>
</g>
<!-- Node6 -->
<g id="node6" class="node"><title>Node6</title>
<polygon fill="none" stroke="#bfbfbf" points="1745,-6.5 1745,-25.5 1783,-25.5 1783,-6.5 1745,-6.5"/>
<text text-anchor="middle" x="1764" y="-13.5" font-family="Helvetica,sans-Serif" font-size="10.00">array</text>
</g>
<!-- Node3&#45;&gt;Node6 -->
<g id="edge5" class="edge"><title>Node3&#45;&gt;Node6</title>
<path fill="none" stroke="midnightblue" d="M872.083,-353.989C1105.49,-350.326 1844.01,-336.226 1883,-304 1912.25,-279.825 1903,-258.945 1903,-221 1903,-221 1903,-221 1903,-151 1903,-90.0226 1832.81,-48.042 1792.18,-28.8511"/>
<polygon fill="midnightblue" stroke="midnightblue" points="1793.59,-25.6436 1783.04,-24.6769 1790.68,-32.0121 1793.59,-25.6436"/>
</g>
<!-- Node7 -->
<g id="node7" class="node"><title>Node7</title>
<polygon fill="none" stroke="#bfbfbf" points="108.5,-278.5 108.5,-297.5 149.5,-297.5 149.5,-278.5 108.5,-278.5"/>
<text text-anchor="middle" x="129" y="-285.5" font-family="Helvetica,sans-Serif" font-size="10.00">cfloat</text>
</g>
<!-- Node3&#45;&gt;Node7 -->
<g id="edge6" class="edge"><title>Node3&#45;&gt;Node7</title>
<path fill="none" stroke="midnightblue" d="M731.802,-352.261C589.16,-346.226 269.983,-330.198 164,-304 161.172,-303.301 158.281,-302.398 155.432,-301.383"/>
<polygon fill="midnightblue" stroke="midnightblue" points="156.646,-298.098 146.061,-297.627 154.041,-304.596 156.646,-298.098"/>
</g>
<!-- Node8 -->
<g id="node8" class="node"><title>Node8</title>
<polygon fill="none" stroke="#bfbfbf" points="213,-6.5 213,-25.5 257,-25.5 257,-6.5 213,-6.5"/>
<text text-anchor="middle" x="235" y="-13.5" font-family="Helvetica,sans-Serif" font-size="10.00">cmath</text>
</g>
<!-- Node3&#45;&gt;Node8 -->
<g id="edge7" class="edge"><title>Node3&#45;&gt;Node8</title>
<path fill="none" stroke="midnightblue" d="M731.73,-349.404C671.907,-343.061 584.407,-330.006 512,-304 338.922,-241.836 244.592,-258.894 152,-100 144.839,-87.7119 145.058,-80.413 152,-68 162.966,-48.3907 184.901,-35.3996 203.468,-27.4383"/>
<polygon fill="midnightblue" stroke="midnightblue" points="204.799,-30.6759 212.795,-23.7252 202.21,-24.1724 204.799,-30.6759"/>
</g>
<!-- Node9 -->
<g id="node9" class="node"><title>Node9</title>
<polygon fill="none" stroke="#bfbfbf" points="521,-278.5 521,-297.5 567,-297.5 567,-278.5 521,-278.5"/>
<text text-anchor="middle" x="544" y="-285.5" font-family="Helvetica,sans-Serif" font-size="10.00">cstring</text>
</g>
<!-- Node3&#45;&gt;Node9 -->
<g id="edge8" class="edge"><title>Node3&#45;&gt;Node9</title>
<path fill="none" stroke="midnightblue" d="M731.563,-341.715C687.771,-332.727 630.563,-319.657 581,-304 578.364,-303.167 575.652,-302.23 572.951,-301.241"/>
<polygon fill="midnightblue" stroke="midnightblue" points="573.964,-297.88 563.375,-297.527 571.433,-304.407 573.964,-297.88"/>
</g>
<!-- Node10 -->
<g id="node10" class="node"><title>Node10</title>
<polygon fill="none" stroke="#bfbfbf" points="161,-74.5 161,-93.5 215,-93.5 215,-74.5 161,-74.5"/>
<text text-anchor="middle" x="188" y="-81.5" font-family="Helvetica,sans-Serif" font-size="10.00">iostream</text>
</g>
<!-- Node3&#45;&gt;Node10 -->
<g id="edge9" class="edge"><title>Node3&#45;&gt;Node10</title>
<path fill="none" stroke="midnightblue" d="M731.887,-343.537C695.325,-335.722 650.7,-323.218 614,-304 594.44,-293.757 594.535,-283.998 576,-272 510.686,-229.72 295.172,-132.61 216.809,-97.7501"/>
<polygon fill="midnightblue" stroke="midnightblue" points="218.089,-94.489 207.529,-93.628 215.247,-100.886 218.089,-94.489"/>
</g>
<!-- Node11 -->
<g id="node11" class="node"><title>Node11</title>
<polygon fill="none" stroke="#bfbfbf" points="623.5,-278.5 623.5,-297.5 706.5,-297.5 706.5,-278.5 623.5,-278.5"/>
<text text-anchor="middle" x="665" y="-285.5" font-family="Helvetica,sans-Serif" font-size="10.00">Math/SMatrix.h</text>
</g>
<!-- Node3&#45;&gt;Node11 -->
<g id="edge10" class="edge"><title>Node3&#45;&gt;Node11</title>
<path fill="none" stroke="midnightblue" d="M772.61,-340.841C748.807,-329.374 715.528,-313.342 692.303,-302.153"/>
<polygon fill="midnightblue" stroke="midnightblue" points="693.55,-298.869 683.021,-297.682 690.511,-305.175 693.55,-298.869"/>
</g>
<!-- Node12 -->
<g id="node12" class="node"><title>Node12</title>
<polygon fill="none" stroke="#bfbfbf" points="724.5,-278.5 724.5,-297.5 809.5,-297.5 809.5,-278.5 724.5,-278.5"/>
<text text-anchor="middle" x="767" y="-285.5" font-family="Helvetica,sans-Serif" font-size="10.00">Math/SVector.h</text>
</g>
<!-- Node3&#45;&gt;Node12 -->
<g id="edge11" class="edge"><title>Node3&#45;&gt;Node12</title>
<path fill="none" stroke="midnightblue" d="M794.406,-340.679C789.164,-330.796 782.156,-317.579 776.538,-306.986"/>
<polygon fill="midnightblue" stroke="midnightblue" points="779.459,-305.023 771.682,-297.828 773.275,-308.303 779.459,-305.023"/>
</g>
<!-- Node13 -->
<g id="node13" class="node"><title>Node13</title>
<g id="a_node13"><a xlink:href="../../d6/d84/MathConstants_8h.html" target="_top" xlink:title="useful math constants ">
<polygon fill="none" stroke="black" points="-0.5,-6.5 -0.5,-25.5 178.5,-25.5 178.5,-6.5 -0.5,-6.5"/>
<text text-anchor="middle" x="89" y="-13.5" font-family="Helvetica,sans-Serif" font-size="10.00">CommonConstants/MathConstants.h</text>
</a>
</g>
</g>
<!-- Node3&#45;&gt;Node13 -->
<g id="edge12" class="edge"><title>Node3&#45;&gt;Node13</title>
<path fill="none" stroke="midnightblue" d="M731.701,-354.563C563.117,-352.864 146.278,-344.562 99,-304 70.2788,-279.359 80,-258.843 80,-221 80,-221 80,-221 80,-151 80,-109.954 84.2558,-61.9948 86.9144,-36.0394"/>
<polygon fill="midnightblue" stroke="midnightblue" points="90.4296,-36.0791 88.0025,-25.7661 83.4686,-35.3418 90.4296,-36.0791"/>
</g>
<!-- Node14 -->
<g id="node14" class="node"><title>Node14</title>
<g id="a_node14"><a xlink:href="../../dd/d76/Cartesian3D_8h.html" target="_top" xlink:title="MathUtils/Cartesian3D.h">
<polygon fill="none" stroke="black" points="948.5,-142.5 948.5,-161.5 1073.5,-161.5 1073.5,-142.5 948.5,-142.5"/>
<text text-anchor="middle" x="1011" y="-149.5" font-family="Helvetica,sans-Serif" font-size="10.00">MathUtils/Cartesian3D.h</text>
</a>
</g>
</g>
<!-- Node3&#45;&gt;Node14 -->
<g id="edge13" class="edge"><title>Node3&#45;&gt;Node14</title>
<path fill="none" stroke="midnightblue" d="M872.208,-349.366C945.424,-342.303 1054.16,-328.101 1088,-304 1126.73,-276.42 1151.92,-243.856 1126,-204 1113.08,-184.144 1090.47,-171.959 1068.7,-164.509"/>
<polygon fill="midnightblue" stroke="midnightblue" points="1069.71,-161.158 1059.12,-161.503 1067.61,-167.837 1069.71,-161.158"/>
</g>
<!-- Node24 -->
<g id="node24" class="node"><title>Node24</title>
<g id="a_node24"><a xlink:href="../../d9/d52/Common_2MathUtils_2include_2MathUtils_2Utils_8h.html" target="_top" xlink:title="MathUtils/Utils.h">
<polygon fill="none" stroke="black" points="233,-74.5 233,-93.5 323,-93.5 323,-74.5 233,-74.5"/>
<text text-anchor="middle" x="278" y="-81.5" font-family="Helvetica,sans-Serif" font-size="10.00">MathUtils/Utils.h</text>
</a>
</g>
</g>
<!-- Node3&#45;&gt;Node24 -->
<g id="edge25" class="edge"><title>Node3&#45;&gt;Node24</title>
<path fill="none" stroke="midnightblue" d="M810.077,-340.921C818.806,-323.682 829.964,-294.059 818,-272 765.164,-174.582 712.988,-174.32 609,-136 492.511,-93.0738 453.67,-124.675 332,-100 326.636,-98.9122 321.022,-97.5782 315.527,-96.1587"/>
<polygon fill="midnightblue" stroke="midnightblue" points="316.411,-92.7721 305.844,-93.5462 314.587,-99.5304 316.411,-92.7721"/>
</g>
<!-- Node25 -->
<g id="node25" class="node"><title>Node25</title>
<g id="a_node25"><a xlink:href="../../d4/de2/BaseCluster_8h.html" target="_top" xlink:title="ReconstructionDataFormats\l/BaseCluster.h">
<polygon fill="none" stroke="black" points="939,-273 939,-303 1079,-303 1079,-273 939,-273"/>
<text text-anchor="start" x="947" y="-291" font-family="Helvetica,sans-Serif" font-size="10.00">ReconstructionDataFormats</text>
<text text-anchor="middle" x="1009" y="-280" font-family="Helvetica,sans-Serif" font-size="10.00">/BaseCluster.h</text>
</a>
</g>
</g>
<!-- Node3&#45;&gt;Node25 -->
<g id="edge29" class="edge"><title>Node3&#45;&gt;Node25</title>
<path fill="none" stroke="midnightblue" d="M846.153,-340.922C878.033,-330.757 921.261,-316.975 955.167,-306.164"/>
<polygon fill="midnightblue" stroke="midnightblue" points="956.451,-309.428 964.915,-303.056 954.324,-302.759 956.451,-309.428"/>
</g>
<!-- Node14&#45;&gt;Node4 -->
<g id="edge19" class="edge"><title>Node14&#45;&gt;Node4</title>
<path fill="none" stroke="midnightblue" d="M1073.67,-149.21C1229.25,-144.367 1629.92,-129.358 1760,-100 1763.25,-99.2661 1766.59,-98.2961 1769.87,-97.2014"/>
<polygon fill="midnightblue" stroke="midnightblue" points="1771.27,-100.418 1779.42,-93.6547 1768.83,-93.8565 1771.27,-100.418"/>
</g>
<!-- Node14&#45;&gt;Node10 -->
<g id="edge21" class="edge"><title>Node14&#45;&gt;Node10</title>
<path fill="none" stroke="midnightblue" d="M948.91,-142.464C930.023,-140.094 909.187,-137.706 890,-136 594.732,-109.75 513,-165.961 224,-100 220.93,-99.2994 217.788,-98.3584 214.701,-97.2875"/>
<polygon fill="midnightblue" stroke="midnightblue" points="215.771,-93.9476 205.183,-93.5589 213.218,-100.465 215.771,-93.9476"/>
</g>
<!-- Node15 -->
<g id="node15" class="node"><title>Node15</title>
<polygon fill="none" stroke="#bfbfbf" points="1291.5,-69 1291.5,-99 1442.5,-99 1442.5,-69 1291.5,-69"/>
<text text-anchor="start" x="1299.5" y="-87" font-family="Helvetica,sans-Serif" font-size="10.00">Math/GenVector/Displacement</text>
<text text-anchor="middle" x="1367" y="-76" font-family="Helvetica,sans-Serif" font-size="10.00">Vector3D.h</text>
</g>
<!-- Node14&#45;&gt;Node15 -->
<g id="edge14" class="edge"><title>Node14&#45;&gt;Node15</title>
<path fill="none" stroke="midnightblue" d="M1057.18,-142.439C1113.75,-131.951 1210.74,-113.969 1281.16,-100.914"/>
<polygon fill="midnightblue" stroke="midnightblue" points="1282.16,-104.289 1291.35,-99.0247 1280.88,-97.4063 1282.16,-104.289"/>
</g>
<!-- Node16 -->
<g id="node16" class="node"><title>Node16</title>
<polygon fill="none" stroke="#bfbfbf" points="484,-74.5 484,-93.5 660,-93.5 660,-74.5 484,-74.5"/>
<text text-anchor="middle" x="572" y="-81.5" font-family="Helvetica,sans-Serif" font-size="10.00">Math/GenVector/PositionVector3D.h</text>
</g>
<!-- Node14&#45;&gt;Node16 -->
<g id="edge15" class="edge"><title>Node14&#45;&gt;Node16</title>
<path fill="none" stroke="midnightblue" d="M952.718,-142.468C884.458,-132.445 767.986,-115.245 668,-100 657.701,-98.4297 646.783,-96.744 636.145,-95.09"/>
<polygon fill="midnightblue" stroke="midnightblue" points="636.481,-91.6001 626.061,-93.5187 635.403,-98.5166 636.481,-91.6001"/>
</g>
<!-- Node17 -->
<g id="node17" class="node"><title>Node17</title>
<polygon fill="none" stroke="#bfbfbf" points="677.5,-74.5 677.5,-93.5 826.5,-93.5 826.5,-74.5 677.5,-74.5"/>
<text text-anchor="middle" x="752" y="-81.5" font-family="Helvetica,sans-Serif" font-size="10.00">Math/GenVector/Rotation3D.h</text>
</g>
<!-- Node14&#45;&gt;Node17 -->
<g id="edge16" class="edge"><title>Node14&#45;&gt;Node17</title>
<path fill="none" stroke="midnightblue" d="M977.406,-142.439C930.826,-130.57 846.585,-109.103 795.326,-96.0406"/>
<polygon fill="midnightblue" stroke="midnightblue" points="796.089,-92.6233 785.535,-93.5455 794.361,-99.4066 796.089,-92.6233"/>
</g>
<!-- Node18 -->
<g id="node18" class="node"><title>Node18</title>
<polygon fill="none" stroke="#bfbfbf" points="845,-74.5 845,-93.5 1001,-93.5 1001,-74.5 845,-74.5"/>
<text text-anchor="middle" x="923" y="-81.5" font-family="Helvetica,sans-Serif" font-size="10.00">Math/GenVector/Transform3D.h</text>
</g>
<!-- Node14&#45;&gt;Node18 -->
<g id="edge17" class="edge"><title>Node14&#45;&gt;Node18</title>
<path fill="none" stroke="midnightblue" d="M999.496,-142.372C985.134,-131.6 960.336,-113.002 942.875,-99.9065"/>
<polygon fill="midnightblue" stroke="midnightblue" points="944.607,-96.8305 934.507,-93.6305 940.407,-102.431 944.607,-96.8305"/>
</g>
<!-- Node19 -->
<g id="node19" class="node"><title>Node19</title>
<polygon fill="none" stroke="#bfbfbf" points="1019,-74.5 1019,-93.5 1179,-93.5 1179,-74.5 1019,-74.5"/>
<text text-anchor="middle" x="1099" y="-81.5" font-family="Helvetica,sans-Serif" font-size="10.00">Math/GenVector/Translation3D.h</text>
</g>
<!-- Node14&#45;&gt;Node19 -->
<g id="edge18" class="edge"><title>Node14&#45;&gt;Node19</title>
<path fill="none" stroke="midnightblue" d="M1022.5,-142.372C1036.87,-131.6 1061.66,-113.002 1079.12,-99.9065"/>
<polygon fill="midnightblue" stroke="midnightblue" points="1081.59,-102.431 1087.49,-93.6305 1077.39,-96.8305 1081.59,-102.431"/>
</g>
<!-- Node20 -->
<g id="node20" class="node"><title>Node20</title>
<polygon fill="none" stroke="#bfbfbf" points="1197,-74.5 1197,-93.5 1273,-93.5 1273,-74.5 1197,-74.5"/>
<text text-anchor="middle" x="1235" y="-81.5" font-family="Helvetica,sans-Serif" font-size="10.00">TGeoMatrix.h</text>
</g>
<!-- Node14&#45;&gt;Node20 -->
<g id="edge20" class="edge"><title>Node14&#45;&gt;Node20</title>
<path fill="none" stroke="midnightblue" d="M1041.77,-142.419C1077.14,-132.49 1136.9,-115.514 1188,-100 1191.57,-98.9161 1195.29,-97.7668 1199,-96.6057"/>
<polygon fill="midnightblue" stroke="midnightblue" points="1200.21,-99.8922 1208.69,-93.5413 1198.1,-93.2175 1200.21,-99.8922"/>
</g>
<!-- Node21 -->
<g id="node21" class="node"><title>Node21</title>
<g id="a_node21"><a xlink:href="../../d2/dd0/Cartesian2D_8h.html" target="_top" xlink:title="MathUtils/Cartesian2D.h">
<polygon fill="none" stroke="black" points="341.5,-74.5 341.5,-93.5 466.5,-93.5 466.5,-74.5 341.5,-74.5"/>
<text text-anchor="middle" x="404" y="-81.5" font-family="Helvetica,sans-Serif" font-size="10.00">MathUtils/Cartesian2D.h</text>
</a>
</g>
</g>
<!-- Node14&#45;&gt;Node21 -->
<g id="edge22" class="edge"><title>Node14&#45;&gt;Node21</title>
<path fill="none" stroke="midnightblue" d="M948.249,-142.775C929.526,-140.442 908.946,-137.995 890,-136 705.881,-116.608 658.13,-127.185 475,-100 466.938,-98.8032 458.416,-97.2533 450.182,-95.6053"/>
<polygon fill="midnightblue" stroke="midnightblue" points="450.833,-92.1659 440.331,-93.5634 449.412,-99.0202 450.833,-92.1659"/>
</g>
<!-- Node22 -->
<g id="node22" class="node"><title>Node22</title>
<polygon fill="none" stroke="#bfbfbf" points="477.5,-1 477.5,-31 628.5,-31 628.5,-1 477.5,-1"/>
<text text-anchor="start" x="485.5" y="-19" font-family="Helvetica,sans-Serif" font-size="10.00">Math/GenVector/Displacement</text>
<text text-anchor="middle" x="553" y="-8" font-family="Helvetica,sans-Serif" font-size="10.00">Vector2D.h</text>
</g>
<!-- Node21&#45;&gt;Node22 -->
<g id="edge23" class="edge"><title>Node21&#45;&gt;Node22</title>
<path fill="none" stroke="midnightblue" d="M423.479,-74.3717C445.804,-64.4829 483.021,-47.9973 511.847,-35.2289"/>
<polygon fill="midnightblue" stroke="midnightblue" points="513.541,-38.3064 521.267,-31.0562 510.706,-31.9062 513.541,-38.3064"/>
</g>
<!-- Node23 -->
<g id="node23" class="node"><title>Node23</title>
<polygon fill="none" stroke="#bfbfbf" points="283,-6.5 283,-25.5 459,-25.5 459,-6.5 283,-6.5"/>
<text text-anchor="middle" x="371" y="-13.5" font-family="Helvetica,sans-Serif" font-size="10.00">Math/GenVector/PositionVector2D.h</text>
</g>
<!-- Node21&#45;&gt;Node23 -->
<g id="edge24" class="edge"><title>Node21&#45;&gt;Node23</title>
<path fill="none" stroke="midnightblue" d="M399.686,-74.3717C394.723,-64.4461 386.437,-47.8743 380.043,-35.0864"/>
<polygon fill="midnightblue" stroke="midnightblue" points="383.023,-33.2201 375.421,-25.8411 376.762,-36.3507 383.023,-33.2201"/>
</g>
<!-- Node24&#45;&gt;Node6 -->
<g id="edge26" class="edge"><title>Node24&#45;&gt;Node6</title>
<path fill="none" stroke="midnightblue" d="M303.822,-74.4962C312.661,-71.9435 322.673,-69.4409 332,-68 616.457,-24.0557 1556.72,-17.885 1734.76,-17.1049"/>
<polygon fill="midnightblue" stroke="midnightblue" points="1734.95,-20.6043 1744.93,-17.0627 1734.92,-13.6044 1734.95,-20.6043"/>
</g>
<!-- Node24&#45;&gt;Node8 -->
<g id="edge27" class="edge"><title>Node24&#45;&gt;Node8</title>
<path fill="none" stroke="midnightblue" d="M272.379,-74.3717C265.784,-64.2495 254.686,-47.2154 246.292,-34.3312"/>
<polygon fill="midnightblue" stroke="midnightblue" points="249.151,-32.3092 240.76,-25.8411 243.286,-36.1304 249.151,-32.3092"/>
</g>
<!-- Node24&#45;&gt;Node13 -->
<g id="edge28" class="edge"><title>Node24&#45;&gt;Node13</title>
<path fill="none" stroke="midnightblue" d="M253.292,-74.3717C219.949,-62.7283 160.417,-41.9394 122.909,-28.8411"/>
<polygon fill="midnightblue" stroke="midnightblue" points="124.01,-25.5184 113.415,-25.5259 121.702,-32.1271 124.01,-25.5184"/>
</g>
<!-- Node25&#45;&gt;Node10 -->
<g id="edge34" class="edge"><title>Node25&#45;&gt;Node10</title>
<path fill="none" stroke="midnightblue" d="M979.745,-272.822C914.795,-242.054 752.921,-169.258 609,-136 441.555,-97.3061 390.766,-141.521 224,-100 221.008,-99.2552 217.942,-98.3008 214.923,-97.235"/>
<polygon fill="midnightblue" stroke="midnightblue" points="216.171,-93.9651 205.584,-93.5707 213.614,-100.481 216.171,-93.9651"/>
</g>
<!-- Node25&#45;&gt;Node14 -->
<g id="edge49" class="edge"><title>Node25&#45;&gt;Node14</title>
<path fill="none" stroke="midnightblue" d="M974.247,-272.941C958.659,-264.673 941.822,-252.545 933,-236 926.308,-223.45 926.233,-216.509 933,-204 942.395,-186.632 960.56,-174.232 976.998,-166.012"/>
<polygon fill="midnightblue" stroke="midnightblue" points="978.801,-169.034 986.398,-161.648 975.854,-162.684 978.801,-169.034"/>
</g>
<!-- Node26 -->
<g id="node26" class="node"><title>Node26</title>
<polygon fill="none" stroke="#bfbfbf" points="942.5,-210.5 942.5,-229.5 1001.5,-229.5 1001.5,-210.5 942.5,-210.5"/>
<text text-anchor="middle" x="972" y="-217.5" font-family="Helvetica,sans-Serif" font-size="10.00">TObject.h</text>
</g>
<!-- Node25&#45;&gt;Node26 -->
<g id="edge30" class="edge"><title>Node25&#45;&gt;Node26</title>
<path fill="none" stroke="midnightblue" d="M1000.97,-272.679C995.374,-262.694 987.869,-249.307 981.9,-238.66"/>
<polygon fill="midnightblue" stroke="midnightblue" points="984.892,-236.84 976.949,-229.828 978.786,-240.263 984.892,-236.84"/>
</g>
<!-- Node27 -->
<g id="node27" class="node"><title>Node27</title>
<polygon fill="none" stroke="#bfbfbf" points="1460.5,-74.5 1460.5,-93.5 1501.5,-93.5 1501.5,-74.5 1460.5,-74.5"/>
<text text-anchor="middle" x="1481" y="-81.5" font-family="Helvetica,sans-Serif" font-size="10.00">bitset</text>
</g>
<!-- Node25&#45;&gt;Node27 -->
<g id="edge31" class="edge"><title>Node25&#45;&gt;Node27</title>
<path fill="none" stroke="midnightblue" d="M1044.28,-272.96C1119.63,-242.785 1301.55,-168.891 1451,-100 1452.36,-99.3753 1453.74,-98.7254 1455.13,-98.0616"/>
<polygon fill="midnightblue" stroke="midnightblue" points="1456.82,-101.132 1464.27,-93.5985 1453.75,-94.8421 1456.82,-101.132"/>
</g>
<!-- Node28 -->
<g id="node28" class="node"><title>Node28</title>
<polygon fill="none" stroke="#bfbfbf" points="1020,-210.5 1020,-229.5 1070,-229.5 1070,-210.5 1020,-210.5"/>
<text text-anchor="middle" x="1045" y="-217.5" font-family="Helvetica,sans-Serif" font-size="10.00">iomanip</text>
</g>
<!-- Node25&#45;&gt;Node28 -->
<g id="edge32" class="edge"><title>Node25&#45;&gt;Node28</title>
<path fill="none" stroke="midnightblue" d="M1016.81,-272.679C1022.26,-262.694 1029.56,-249.307 1035.37,-238.66"/>
<polygon fill="midnightblue" stroke="midnightblue" points="1038.47,-240.283 1040.18,-229.828 1032.32,-236.931 1038.47,-240.283"/>
</g>
<!-- Node29 -->
<g id="node29" class="node"><title>Node29</title>
<polygon fill="none" stroke="#bfbfbf" points="1088.5,-210.5 1088.5,-229.5 1117.5,-229.5 1117.5,-210.5 1088.5,-210.5"/>
<text text-anchor="middle" x="1103" y="-217.5" font-family="Helvetica,sans-Serif" font-size="10.00">ios</text>
</g>
<!-- Node25&#45;&gt;Node29 -->
<g id="edge33" class="edge"><title>Node25&#45;&gt;Node29</title>
<path fill="none" stroke="midnightblue" d="M1029.4,-272.679C1045.01,-261.713 1066.48,-246.645 1082.19,-235.609"/>
<polygon fill="midnightblue" stroke="midnightblue" points="1084.52,-238.249 1090.7,-229.638 1080.5,-232.52 1084.52,-238.249"/>
</g>
<!-- Node30 -->
<g id="node30" class="node"><title>Node30</title>
<g id="a_node30"><a xlink:href="../../d4/d20/DetMatrixCache_8h.html" target="_top" xlink:title="DetectorsCommonDataFormats\l/DetMatrixCache.h">
<polygon fill="none" stroke="black" points="1585,-205 1585,-235 1741,-235 1741,-205 1585,-205"/>
<text text-anchor="start" x="1593" y="-223" font-family="Helvetica,sans-Serif" font-size="10.00">DetectorsCommonDataFormats</text>
<text text-anchor="middle" x="1663" y="-212" font-family="Helvetica,sans-Serif" font-size="10.00">/DetMatrixCache.h</text>
</a>
</g>
</g>
<!-- Node25&#45;&gt;Node30 -->
<g id="edge35" class="edge"><title>Node25&#45;&gt;Node30</title>
<path fill="none" stroke="midnightblue" d="M1079.3,-279.906C1199.31,-267.794 1443.44,-243.157 1574.74,-229.907"/>
<polygon fill="midnightblue" stroke="midnightblue" points="1575.17,-233.382 1584.76,-228.895 1574.46,-226.417 1575.17,-233.382"/>
</g>
<!-- Node30&#45;&gt;Node2 -->
<g id="edge38" class="edge"><title>Node30&#45;&gt;Node2</title>
<path fill="none" stroke="midnightblue" d="M1695.61,-204.841C1722.37,-193.221 1759.93,-176.912 1785.74,-165.706"/>
<polygon fill="midnightblue" stroke="midnightblue" points="1787.23,-168.875 1795.01,-161.682 1784.44,-162.454 1787.23,-168.875"/>
</g>
<!-- Node30&#45;&gt;Node4 -->
<g id="edge48" class="edge"><title>Node30&#45;&gt;Node4</title>
<path fill="none" stroke="midnightblue" d="M1677.19,-204.913C1702.47,-179.824 1755.13,-127.557 1781.79,-101.094"/>
<polygon fill="midnightblue" stroke="midnightblue" points="1784.54,-103.297 1789.17,-93.7679 1779.6,-98.3286 1784.54,-103.297"/>
</g>
<!-- Node30&#45;&gt;Node6 -->
<g id="edge37" class="edge"><title>Node30&#45;&gt;Node6</title>
<path fill="none" stroke="midnightblue" d="M1687.58,-204.857C1704.16,-195.044 1726.33,-181.378 1745,-168 1763.23,-154.94 1766.23,-149.668 1784,-136 1805.71,-119.307 1821.52,-124.372 1834,-100 1840.48,-87.3418 1840.45,-80.6764 1834,-68 1825.25,-50.7975 1807.68,-38.0241 1792.33,-29.5631"/>
<polygon fill="midnightblue" stroke="midnightblue" points="1793.65,-26.3081 1783.16,-24.8511 1790.45,-32.5344 1793.65,-26.3081"/>
</g>
<!-- Node30&#45;&gt;Node14 -->
<g id="edge47" class="edge"><title>Node30&#45;&gt;Node14</title>
<path fill="none" stroke="midnightblue" d="M1584.68,-211.072C1457.48,-198.196 1207.79,-172.921 1084.07,-160.396"/>
<polygon fill="midnightblue" stroke="midnightblue" points="1084.24,-156.896 1073.93,-159.371 1083.53,-163.86 1084.24,-156.896"/>
</g>
<!-- Node31 -->
<g id="node31" class="node"><title>Node31</title>
<polygon fill="none" stroke="#bfbfbf" points="1627.5,-142.5 1627.5,-161.5 1698.5,-161.5 1698.5,-142.5 1627.5,-142.5"/>
<text text-anchor="middle" x="1663" y="-149.5" font-family="Helvetica,sans-Serif" font-size="10.00">FairLogger.h</text>
</g>
<!-- Node30&#45;&gt;Node31 -->
<g id="edge36" class="edge"><title>Node30&#45;&gt;Node31</title>
<path fill="none" stroke="midnightblue" d="M1663,-204.679C1663,-195.101 1663,-182.394 1663,-171.977"/>
<polygon fill="midnightblue" stroke="midnightblue" points="1666.5,-171.828 1663,-161.828 1659.5,-171.828 1666.5,-171.828"/>
</g>
<!-- Node32 -->
<g id="node32" class="node"><title>Node32</title>
<g id="a_node32"><a xlink:href="../../d6/d31/DetID_8h.html" target="_top" xlink:title="DetectorsCommonDataFormats\l/DetID.h">
<polygon fill="none" stroke="black" points="1453,-137 1453,-167 1609,-167 1609,-137 1453,-137"/>
<text text-anchor="start" x="1461" y="-155" font-family="Helvetica,sans-Serif" font-size="10.00">DetectorsCommonDataFormats</text>
<text text-anchor="middle" x="1531" y="-144" font-family="Helvetica,sans-Serif" font-size="10.00">/DetID.h</text>
</a>
</g>
</g>
<!-- Node30&#45;&gt;Node32 -->
<g id="edge39" class="edge"><title>Node30&#45;&gt;Node32</title>
<path fill="none" stroke="midnightblue" d="M1634.68,-204.841C1615.28,-195.141 1589.35,-182.174 1568.27,-171.636"/>
<polygon fill="midnightblue" stroke="midnightblue" points="1569.78,-168.477 1559.27,-167.135 1566.65,-174.738 1569.78,-168.477"/>
</g>
<!-- Node32&#45;&gt;Node4 -->
<g id="edge40" class="edge"><title>Node32&#45;&gt;Node4</title>
<path fill="none" stroke="midnightblue" d="M1608.12,-136.964C1652.91,-128.035 1710.16,-115.285 1760,-100 1762.8,-99.1423 1765.68,-98.1715 1768.55,-97.1464"/>
<polygon fill="midnightblue" stroke="midnightblue" points="1769.98,-100.347 1778.09,-93.537 1767.5,-93.7998 1769.98,-100.347"/>
</g>
<!-- Node32&#45;&gt;Node6 -->
<g id="edge41" class="edge"><title>Node32&#45;&gt;Node6</title>
<path fill="none" stroke="midnightblue" d="M1573.47,-136.912C1597.87,-127.965 1628.62,-115.215 1654,-100 1673.23,-88.4706 1675.22,-81.6585 1693,-68 1709.49,-55.3347 1728.66,-41.6201 1742.92,-31.6061"/>
<polygon fill="midnightblue" stroke="midnightblue" points="1745.32,-34.204 1751.51,-25.608 1741.31,-28.4655 1745.32,-34.204"/>
</g>
<!-- Node32&#45;&gt;Node24 -->
<g id="edge46" class="edge"><title>Node32&#45;&gt;Node24</title>
<path fill="none" stroke="midnightblue" d="M1452.84,-148.167C1195.42,-138.772 387.307,-108.74 332,-100 326.089,-99.066 319.902,-97.715 313.912,-96.2014"/>
<polygon fill="midnightblue" stroke="midnightblue" points="314.669,-92.7804 304.102,-93.5453 312.84,-99.5371 314.669,-92.7804"/>
</g>
<!-- Node32&#45;&gt;Node27 -->
<g id="edge42" class="edge"><title>Node32&#45;&gt;Node27</title>
<path fill="none" stroke="midnightblue" d="M1520.15,-136.679C1512.43,-126.49 1502.03,-112.759 1493.89,-102.011"/>
<polygon fill="midnightblue" stroke="midnightblue" points="1496.52,-99.6857 1487.69,-93.8283 1490.94,-103.913 1496.52,-99.6857"/>
</g>
<!-- Node33 -->
<g id="node33" class="node"><title>Node33</title>
<polygon fill="none" stroke="#bfbfbf" points="1702.5,-74.5 1702.5,-93.5 1751.5,-93.5 1751.5,-74.5 1702.5,-74.5"/>
<text text-anchor="middle" x="1727" y="-81.5" font-family="Helvetica,sans-Serif" font-size="10.00">cassert</text>
</g>
<!-- Node32&#45;&gt;Node33 -->
<g id="edge43" class="edge"><title>Node32&#45;&gt;Node33</title>
<path fill="none" stroke="midnightblue" d="M1576.56,-136.904C1608.01,-127 1650.72,-113.213 1688,-100 1690.54,-99.0995 1693.17,-98.1444 1695.8,-97.1695"/>
<polygon fill="midnightblue" stroke="midnightblue" points="1697.09,-100.421 1705.21,-93.6147 1694.62,-93.8726 1697.09,-100.421"/>
</g>
<!-- Node34 -->
<g id="node34" class="node"><title>Node34</title>
<polygon fill="none" stroke="#bfbfbf" points="1520,-74.5 1520,-93.5 1566,-93.5 1566,-74.5 1520,-74.5"/>
<text text-anchor="middle" x="1543" y="-81.5" font-family="Helvetica,sans-Serif" font-size="10.00">cstdint</text>
</g>
<!-- Node32&#45;&gt;Node34 -->
<g id="edge44" class="edge"><title>Node32&#45;&gt;Node34</title>
<path fill="none" stroke="midnightblue" d="M1533.6,-136.679C1535.35,-127.101 1537.66,-114.394 1539.55,-103.977"/>
<polygon fill="midnightblue" stroke="midnightblue" points="1543.05,-104.293 1541.39,-93.8283 1536.16,-103.041 1543.05,-104.293"/>
</g>
<!-- Node35 -->
<g id="node35" class="node"><title>Node35</title>
<polygon fill="none" stroke="#bfbfbf" points="1584,-74.5 1584,-93.5 1646,-93.5 1646,-74.5 1584,-74.5"/>
<text text-anchor="middle" x="1615" y="-81.5" font-family="Helvetica,sans-Serif" font-size="10.00">type_traits</text>
</g>
<!-- Node32&#45;&gt;Node35 -->
<g id="edge45" class="edge"><title>Node32&#45;&gt;Node35</title>
<path fill="none" stroke="midnightblue" d="M1549.23,-136.679C1562.97,-125.879 1581.78,-111.098 1595.77,-100.11"/>
<polygon fill="midnightblue" stroke="midnightblue" points="1598.06,-102.759 1603.76,-93.8283 1593.74,-97.2544 1598.06,-102.759"/>
</g>
</g>
</svg>
