<?xml version="1.0" encoding="UTF-8" standalone="no"?>
<!DOCTYPE svg PUBLIC "-//W3C//DTD SVG 1.1//EN"
 "http://www.w3.org/Graphics/SVG/1.1/DTD/svg11.dtd">
<!-- Generated by graphviz version 2.36.0 (20140111.2315)
 -->
<!-- Title: /home/travis/build/AliceO2Group/AliceO2/Detectors/TPC/simulation/include/TPCSimulation/DigitPad.h Pages: 1 -->
<svg width="451pt" height="186pt"
 viewBox="0.00 0.00 451.00 186.00" xmlns="http://www.w3.org/2000/svg" xmlns:xlink="http://www.w3.org/1999/xlink">
<g id="graph0" class="graph" transform="scale(1 1) rotate(0) translate(4 182)">
<title>/home/travis/build/AliceO2Group/AliceO2/Detectors/TPC/simulation/include/TPCSimulation/DigitPad.h</title>
<!-- Node1 -->
<g id="node1" class="node"><title>Node1</title>
<polygon fill="#bfbfbf" stroke="black" points="81,-125 81,-177 249,-177 249,-125 81,-125"/>
<text text-anchor="start" x="89" y="-165" font-family="Helvetica,sans-Serif" font-size="10.00">/home/travis/build</text>
<text text-anchor="start" x="89" y="-154" font-family="Helvetica,sans-Serif" font-size="10.00">/AliceO2Group/AliceO2</text>
<text text-anchor="start" x="89" y="-143" font-family="Helvetica,sans-Serif" font-size="10.00">/Detectors/TPC/simulation</text>
<text text-anchor="middle" x="165" y="-132" font-family="Helvetica,sans-Serif" font-size="10.00">/include/TPCSimulation/DigitPad.h</text>
</g>
<!-- Node2 -->
<g id="node2" class="node"><title>Node2</title>
<polygon fill="none" stroke="#bfbfbf" points="-0.5,-62.5 -0.5,-81.5 34.5,-81.5 34.5,-62.5 -0.5,-62.5"/>
<text text-anchor="middle" x="17" y="-69.5" font-family="Helvetica,sans-Serif" font-size="10.00">map</text>
</g>
<!-- Node1&#45;&gt;Node2 -->
<g id="edge1" class="edge"><title>Node1&#45;&gt;Node2</title>
<path fill="none" stroke="midnightblue" d="M115.059,-124.885C93.1647,-113.752 67.2179,-100.393 44,-88 43.1722,-87.5581 42.3313,-87.1065 41.4831,-86.6487"/>
<polygon fill="midnightblue" stroke="midnightblue" points="42.8233,-83.3921 32.3716,-81.6566 39.4598,-89.5311 42.8233,-83.3921"/>
</g>
<!-- Node3 -->
<g id="node3" class="node"><title>Node3</title>
<polygon fill="none" stroke="#bfbfbf" points="53,-62.5 53,-81.5 153,-81.5 153,-62.5 53,-62.5"/>
<text text-anchor="middle" x="103" y="-69.5" font-family="Helvetica,sans-Serif" font-size="10.00">FairRootManager.h</text>
</g>
<!-- Node1&#45;&gt;Node3 -->
<g id="edge2" class="edge"><title>Node1&#45;&gt;Node3</title>
<path fill="none" stroke="midnightblue" d="M144.699,-124.787C135.412,-113.253 124.665,-99.9061 116.407,-89.6508"/>
<polygon fill="midnightblue" stroke="midnightblue" points="118.888,-87.1516 109.891,-81.5577 113.436,-91.5417 118.888,-87.1516"/>
</g>
<!-- Node4 -->
<g id="node4" class="node"><title>Node4</title>
<g id="a_node4"><a xlink:href="../../db/d14/MCTruthContainer_8h.html" target="_top" xlink:title="Definition of a container to keep Monte Carlo truth external to simulation objects. ">
<polygon fill="none" stroke="black" points="171,-57 171,-87 285,-87 285,-57 171,-57"/>
<text text-anchor="start" x="179" y="-75" font-family="Helvetica,sans-Serif" font-size="10.00">SimulationDataFormat</text>
<text text-anchor="middle" x="228" y="-64" font-family="Helvetica,sans-Serif" font-size="10.00">/MCTruthContainer.h</text>
</a>
</g>
</g>
<!-- Node1&#45;&gt;Node4 -->
<g id="edge3" class="edge"><title>Node1&#45;&gt;Node4</title>
<path fill="none" stroke="midnightblue" d="M185.629,-124.787C193.431,-115.25 202.249,-104.474 209.812,-95.2303"/>
<polygon fill="midnightblue" stroke="midnightblue" points="212.716,-97.208 216.339,-87.252 207.298,-92.7753 212.716,-97.208"/>
</g>
<!-- Node10 -->
<g id="node10" class="node"><title>Node10</title>
<g id="a_node10"><a xlink:href="../../d7/dcd/MCCompLabel_8h.html" target="_top" xlink:title="SimulationDataFormat\l/MCCompLabel.h">
<polygon fill="none" stroke="black" points="329,-57 329,-87 443,-87 443,-57 329,-57"/>
<text text-anchor="start" x="337" y="-75" font-family="Helvetica,sans-Serif" font-size="10.00">SimulationDataFormat</text>
<text text-anchor="middle" x="386" y="-64" font-family="Helvetica,sans-Serif" font-size="10.00">/MCCompLabel.h</text>
</a>
</g>
</g>
<!-- Node1&#45;&gt;Node10 -->
<g id="edge9" class="edge"><title>Node1&#45;&gt;Node10</title>
<path fill="none" stroke="midnightblue" d="M237.058,-124.894C269.424,-113.617 306.817,-100.589 336.039,-90.4072"/>
<polygon fill="midnightblue" stroke="midnightblue" points="337.325,-93.6655 345.617,-87.0702 335.022,-87.0553 337.325,-93.6655"/>
</g>
<!-- Node5 -->
<g id="node5" class="node"><title>Node5</title>
<polygon fill="none" stroke="#bfbfbf" points="16,-0.5 16,-19.5 78,-19.5 78,-0.5 16,-0.5"/>
<text text-anchor="middle" x="47" y="-7.5" font-family="Helvetica,sans-Serif" font-size="10.00">TNamed.h</text>
</g>
<!-- Node4&#45;&gt;Node5 -->
<g id="edge4" class="edge"><title>Node4&#45;&gt;Node5</title>
<path fill="none" stroke="midnightblue" d="M185.564,-56.9327C154.115,-46.5077 111.758,-32.4667 82.1848,-22.6635"/>
<polygon fill="midnightblue" stroke="midnightblue" points="83.2733,-19.3371 72.68,-19.5127 81.0707,-25.9815 83.2733,-19.3371"/>
</g>
<!-- Node6 -->
<g id="node6" class="node"><title>Node6</title>
<polygon fill="none" stroke="#bfbfbf" points="96.5,-0.5 96.5,-19.5 145.5,-19.5 145.5,-0.5 96.5,-0.5"/>
<text text-anchor="middle" x="121" y="-7.5" font-family="Helvetica,sans-Serif" font-size="10.00">cassert</text>
</g>
<!-- Node4&#45;&gt;Node6 -->
<g id="edge5" class="edge"><title>Node4&#45;&gt;Node6</title>
<path fill="none" stroke="midnightblue" d="M202.913,-56.9327C185.506,-47.1715 162.445,-34.2401 145.228,-24.5856"/>
<polygon fill="midnightblue" stroke="midnightblue" points="146.771,-21.4383 136.337,-19.6 143.347,-27.5439 146.771,-21.4383"/>
</g>
<!-- Node7 -->
<g id="node7" class="node"><title>Node7</title>
<polygon fill="none" stroke="#bfbfbf" points="163.5,-0.5 163.5,-19.5 222.5,-19.5 222.5,-0.5 163.5,-0.5"/>
<text text-anchor="middle" x="193" y="-7.5" font-family="Helvetica,sans-Serif" font-size="10.00">stdexcept</text>
</g>
<!-- Node4&#45;&gt;Node7 -->
<g id="edge6" class="edge"><title>Node4&#45;&gt;Node7</title>
<path fill="none" stroke="midnightblue" d="M219.705,-56.7808C214.777,-48.3318 208.486,-37.5481 203.249,-28.5693"/>
<polygon fill="midnightblue" stroke="midnightblue" points="206.155,-26.6048 198.093,-19.7305 200.108,-30.1319 206.155,-26.6048"/>
</g>
<!-- Node8 -->
<g id="node8" class="node"><title>Node8</title>
<polygon fill="none" stroke="#bfbfbf" points="240.5,-0.5 240.5,-19.5 285.5,-19.5 285.5,-0.5 240.5,-0.5"/>
<text text-anchor="middle" x="263" y="-7.5" font-family="Helvetica,sans-Serif" font-size="10.00">gsl/gsl</text>
</g>
<!-- Node4&#45;&gt;Node8 -->
<g id="edge7" class="edge"><title>Node4&#45;&gt;Node8</title>
<path fill="none" stroke="midnightblue" d="M236.295,-56.7808C241.223,-48.3318 247.514,-37.5481 252.751,-28.5693"/>
<polygon fill="midnightblue" stroke="midnightblue" points="255.892,-30.1319 257.907,-19.7305 249.845,-26.6048 255.892,-30.1319"/>
</g>
<!-- Node9 -->
<g id="node9" class="node"><title>Node9</title>
<polygon fill="none" stroke="#bfbfbf" points="304,-0.5 304,-19.5 366,-19.5 366,-0.5 304,-0.5"/>
<text text-anchor="middle" x="335" y="-7.5" font-family="Helvetica,sans-Serif" font-size="10.00">type_traits</text>
</g>
<!-- Node4&#45;&gt;Node9 -->
<g id="edge8" class="edge"><title>Node4&#45;&gt;Node9</title>
<path fill="none" stroke="midnightblue" d="M253.087,-56.9327C270.494,-47.1715 293.555,-34.2401 310.772,-24.5856"/>
<polygon fill="midnightblue" stroke="midnightblue" points="312.653,-27.5439 319.663,-19.6 309.229,-21.4383 312.653,-27.5439"/>
</g>
<!-- Node11 -->
<g id="node11" class="node"><title>Node11</title>
<polygon fill="none" stroke="#bfbfbf" points="384,-0.5 384,-19.5 440,-19.5 440,-0.5 384,-0.5"/>
<text text-anchor="middle" x="412" y="-7.5" font-family="Helvetica,sans-Serif" font-size="10.00">Rtypes.h</text>
</g>
<!-- Node10&#45;&gt;Node11 -->
<g id="edge10" class="edge"><title>Node10&#45;&gt;Node11</title>
<path fill="none" stroke="midnightblue" d="M392.162,-56.7808C395.745,-48.5115 400.297,-38.006 404.137,-29.1448"/>
<polygon fill="midnightblue" stroke="midnightblue" points="407.452,-30.2977 408.217,-19.7305 401.029,-27.5144 407.452,-30.2977"/>
</g>
</g>
</svg>
