<?xml version="1.0" encoding="UTF-8" standalone="no"?>
<!DOCTYPE svg PUBLIC "-//W3C//DTD SVG 1.1//EN"
 "http://www.w3.org/Graphics/SVG/1.1/DTD/svg11.dtd">
<!-- Generated by graphviz version 2.36.0 (20140111.2315)
 -->
<!-- Title: /home/travis/build/AliceO2Group/AliceO2/Detectors/MUON/MCH/Contour/include/MCHContour/SVGWriter.h Pages: 1 -->
<svg width="1071pt" height="454pt"
 viewBox="0.00 0.00 1071.00 454.00" xmlns="http://www.w3.org/2000/svg" xmlns:xlink="http://www.w3.org/1999/xlink">
<g id="graph0" class="graph" transform="scale(1 1) rotate(0) translate(4 450)">
<title>/home/travis/build/AliceO2Group/AliceO2/Detectors/MUON/MCH/Contour/include/MCHContour/SVGWriter.h</title>
<!-- Node1 -->
<g id="node1" class="node"><title>Node1</title>
<polygon fill="#bfbfbf" stroke="black" points="83,-393 83,-445 253,-445 253,-393 83,-393"/>
<text text-anchor="start" x="91" y="-433" font-family="Helvetica,sans-Serif" font-size="10.00">/home/travis/build</text>
<text text-anchor="start" x="91" y="-422" font-family="Helvetica,sans-Serif" font-size="10.00">/AliceO2Group/AliceO2</text>
<text text-anchor="start" x="91" y="-411" font-family="Helvetica,sans-Serif" font-size="10.00">/Detectors/MUON/MCH/Contour</text>
<text text-anchor="middle" x="168" y="-400" font-family="Helvetica,sans-Serif" font-size="10.00">/include/MCHContour/SVGWriter.h</text>
</g>
<!-- Node2 -->
<g id="node2" class="node"><title>Node2</title>
<g id="a_node2"><a xlink:href="../../db/d08/Contour_8h.html" target="_top" xlink:title="Contour.h">
<polygon fill="none" stroke="black" points="228.5,-224.5 228.5,-243.5 287.5,-243.5 287.5,-224.5 228.5,-224.5"/>
<text text-anchor="middle" x="258" y="-231.5" font-family="Helvetica,sans-Serif" font-size="10.00">Contour.h</text>
</a>
</g>
</g>
<!-- Node1&#45;&gt;Node2 -->
<g id="edge1" class="edge"><title>Node1&#45;&gt;Node2</title>
<path fill="none" stroke="midnightblue" d="M180.325,-392.938C198.744,-355.487 233.009,-285.816 249.152,-252.99"/>
<polygon fill="midnightblue" stroke="midnightblue" points="252.441,-254.233 253.714,-243.715 246.16,-251.144 252.441,-254.233"/>
</g>
<!-- Node5 -->
<g id="node5" class="node"><title>Node5</title>
<polygon fill="none" stroke="#bfbfbf" points="822,-112.5 822,-131.5 862,-131.5 862,-112.5 822,-112.5"/>
<text text-anchor="middle" x="842" y="-119.5" font-family="Helvetica,sans-Serif" font-size="10.00">utility</text>
</g>
<!-- Node1&#45;&gt;Node5 -->
<g id="edge48" class="edge"><title>Node1&#45;&gt;Node5</title>
<path fill="none" stroke="midnightblue" d="M253.23,-404.536C311.88,-394.136 391.14,-377.825 459,-356 611.542,-306.94 651.586,-286.466 778,-188 796.831,-173.333 815.672,-153.406 827.985,-139.496"/>
<polygon fill="midnightblue" stroke="midnightblue" points="830.83,-141.558 834.749,-131.714 825.547,-136.965 830.83,-141.558"/>
</g>
<!-- Node8 -->
<g id="node8" class="node"><title>Node8</title>
<polygon fill="none" stroke="#bfbfbf" points="66,-112.5 66,-131.5 118,-131.5 118,-112.5 66,-112.5"/>
<text text-anchor="middle" x="92" y="-119.5" font-family="Helvetica,sans-Serif" font-size="10.00">sstream</text>
</g>
<!-- Node1&#45;&gt;Node8 -->
<g id="edge24" class="edge"><title>Node1&#45;&gt;Node8</title>
<path fill="none" stroke="midnightblue" d="M142.189,-392.828C120.494,-368.875 93,-330.69 93,-291 93,-291 93,-291 93,-233 93,-200.947 92.5702,-163.642 92.2741,-141.748"/>
<polygon fill="midnightblue" stroke="midnightblue" points="95.7712,-141.507 92.1307,-131.558 88.7719,-141.606 95.7712,-141.507"/>
</g>
<!-- Node10 -->
<g id="node10" class="node"><title>Node10</title>
<g id="a_node10"><a xlink:href="../../d0/ddc/BBox_8h.html" target="_top" xlink:title="BBox.h">
<polygon fill="none" stroke="black" points="136.5,-112.5 136.5,-131.5 185.5,-131.5 185.5,-112.5 136.5,-112.5"/>
<text text-anchor="middle" x="161" y="-119.5" font-family="Helvetica,sans-Serif" font-size="10.00">BBox.h</text>
</a>
</g>
</g>
<!-- Node1&#45;&gt;Node10 -->
<g id="edge22" class="edge"><title>Node1&#45;&gt;Node10</title>
<path fill="none" stroke="midnightblue" d="M156.733,-392.78C146.502,-367.548 133,-327.364 133,-291 133,-291 133,-291 133,-233 133,-199.79 145.134,-162.634 153.427,-141.12"/>
<polygon fill="midnightblue" stroke="midnightblue" points="156.751,-142.233 157.224,-131.649 150.254,-139.628 156.751,-142.233"/>
</g>
<!-- Node12 -->
<g id="node12" class="node"><title>Node12</title>
<polygon fill="none" stroke="#bfbfbf" points="168,-0.5 168,-19.5 212,-19.5 212,-0.5 168,-0.5"/>
<text text-anchor="middle" x="190" y="-7.5" font-family="Helvetica,sans-Serif" font-size="10.00">cmath</text>
</g>
<!-- Node1&#45;&gt;Node12 -->
<g id="edge50" class="edge"><title>Node1&#45;&gt;Node12</title>
<path fill="none" stroke="midnightblue" d="M90.8838,-392.785C46.7194,-372.978 0,-340.36 0,-291 0,-291 0,-291 0,-121 0,-48.9975 103.459,-23.3614 157.688,-14.8695"/>
<polygon fill="midnightblue" stroke="midnightblue" points="158.442,-18.2967 167.833,-13.391 157.432,-11.3699 158.442,-18.2967"/>
</g>
<!-- Node15 -->
<g id="node15" class="node"><title>Node15</title>
<polygon fill="none" stroke="#bfbfbf" points="298,-56.5 298,-75.5 350,-75.5 350,-56.5 298,-56.5"/>
<text text-anchor="middle" x="324" y="-63.5" font-family="Helvetica,sans-Serif" font-size="10.00">ostream</text>
</g>
<!-- Node1&#45;&gt;Node15 -->
<g id="edge23" class="edge"><title>Node1&#45;&gt;Node15</title>
<path fill="none" stroke="midnightblue" d="M115.873,-392.88C79.7061,-371.418 38,-336.75 38,-291 38,-291 38,-291 38,-177 38,-146.902 34.5056,-131.997 57,-112 74.0428,-96.8494 218.644,-78.8131 287.643,-70.9697"/>
<polygon fill="midnightblue" stroke="midnightblue" points="288.098,-74.4407 297.644,-69.8442 287.315,-67.4846 288.098,-74.4407"/>
</g>
<!-- Node19 -->
<g id="node19" class="node"><title>Node19</title>
<g id="a_node19"><a xlink:href="../../d4/d84/ContourCreator_8h.html" target="_top" xlink:title="ContourCreator.h">
<polygon fill="none" stroke="black" points="358,-336.5 358,-355.5 450,-355.5 450,-336.5 358,-336.5"/>
<text text-anchor="middle" x="404" y="-343.5" font-family="Helvetica,sans-Serif" font-size="10.00">ContourCreator.h</text>
</a>
</g>
</g>
<!-- Node1&#45;&gt;Node19 -->
<g id="edge25" class="edge"><title>Node1&#45;&gt;Node19</title>
<path fill="none" stroke="midnightblue" d="M251.205,-392.968C290.193,-381.239 334.746,-367.835 365.641,-358.54"/>
<polygon fill="midnightblue" stroke="midnightblue" points="366.999,-361.787 375.567,-355.554 364.982,-355.083 366.999,-361.787"/>
</g>
<!-- Node24 -->
<g id="node24" class="node"><title>Node24</title>
<polygon fill="none" stroke="#bfbfbf" points="973,-336.5 973,-355.5 1063,-355.5 1063,-336.5 973,-336.5"/>
<text text-anchor="middle" x="1018" y="-343.5" font-family="Helvetica,sans-Serif" font-size="10.00">boost/format.hpp</text>
</g>
<!-- Node1&#45;&gt;Node24 -->
<g id="edge49" class="edge"><title>Node1&#45;&gt;Node24</title>
<path fill="none" stroke="midnightblue" d="M253.063,-413.38C398.179,-405.04 702.765,-385.545 959,-356 960.274,-355.853 961.562,-355.699 962.861,-355.54"/>
<polygon fill="midnightblue" stroke="midnightblue" points="963.487,-358.988 972.948,-354.219 962.578,-352.047 963.487,-358.988"/>
</g>
<!-- Node3 -->
<g id="node3" class="node"><title>Node3</title>
<g id="a_node3"><a xlink:href="../../dc/ddd/Polygon_8h.html" target="_top" xlink:title="Polygon.h">
<polygon fill="none" stroke="black" points="333,-168.5 333,-187.5 393,-187.5 393,-168.5 333,-168.5"/>
<text text-anchor="middle" x="363" y="-175.5" font-family="Helvetica,sans-Serif" font-size="10.00">Polygon.h</text>
</a>
</g>
</g>
<!-- Node2&#45;&gt;Node3 -->
<g id="edge2" class="edge"><title>Node2&#45;&gt;Node3</title>
<path fill="none" stroke="midnightblue" d="M274.87,-224.324C291.709,-215.664 317.807,-202.242 337.238,-192.249"/>
<polygon fill="midnightblue" stroke="midnightblue" points="338.88,-195.341 346.172,-187.655 335.678,-189.116 338.88,-195.341"/>
</g>
<!-- Node6 -->
<g id="node6" class="node"><title>Node6</title>
<polygon fill="none" stroke="#bfbfbf" points="557,-56.5 557,-75.5 601,-75.5 601,-56.5 557,-56.5"/>
<text text-anchor="middle" x="579" y="-63.5" font-family="Helvetica,sans-Serif" font-size="10.00">vector</text>
</g>
<!-- Node2&#45;&gt;Node6 -->
<g id="edge19" class="edge"><title>Node2&#45;&gt;Node6</title>
<path fill="none" stroke="midnightblue" d="M251.963,-224.44C237.469,-202.755 203.98,-145.039 233,-112 243.339,-100.23 462.972,-78.0911 546.84,-70.0321"/>
<polygon fill="midnightblue" stroke="midnightblue" points="547.208,-73.513 556.83,-69.0772 546.542,-66.5447 547.208,-73.513"/>
</g>
<!-- Node7 -->
<g id="node7" class="node"><title>Node7</title>
<polygon fill="none" stroke="#bfbfbf" points="242.5,-112.5 242.5,-131.5 315.5,-131.5 315.5,-112.5 242.5,-112.5"/>
<text text-anchor="middle" x="279" y="-119.5" font-family="Helvetica,sans-Serif" font-size="10.00">initializer_list</text>
</g>
<!-- Node2&#45;&gt;Node7 -->
<g id="edge21" class="edge"><title>Node2&#45;&gt;Node7</title>
<path fill="none" stroke="midnightblue" d="M259.648,-224.368C263.037,-206.617 270.855,-165.666 275.45,-141.597"/>
<polygon fill="midnightblue" stroke="midnightblue" points="278.922,-142.07 277.36,-131.591 272.047,-140.758 278.922,-142.07"/>
</g>
<!-- Node18 -->
<g id="node18" class="node"><title>Node18</title>
<polygon fill="none" stroke="#bfbfbf" points="161.5,-168.5 161.5,-187.5 210.5,-187.5 210.5,-168.5 161.5,-168.5"/>
<text text-anchor="middle" x="186" y="-175.5" font-family="Helvetica,sans-Serif" font-size="10.00">cassert</text>
</g>
<!-- Node2&#45;&gt;Node18 -->
<g id="edge20" class="edge"><title>Node2&#45;&gt;Node18</title>
<path fill="none" stroke="midnightblue" d="M246.432,-224.324C235.58,-216.185 219.119,-203.839 206.117,-194.087"/>
<polygon fill="midnightblue" stroke="midnightblue" points="207.879,-191.034 197.779,-187.834 203.679,-196.634 207.879,-191.034"/>
</g>
<!-- Node4 -->
<g id="node4" class="node"><title>Node4</title>
<polygon fill="none" stroke="#bfbfbf" points="651,-56.5 651,-75.5 705,-75.5 705,-56.5 651,-56.5"/>
<text text-anchor="middle" x="678" y="-63.5" font-family="Helvetica,sans-Serif" font-size="10.00">iostream</text>
</g>
<!-- Node3&#45;&gt;Node4 -->
<g id="edge3" class="edge"><title>Node3&#45;&gt;Node4</title>
<path fill="none" stroke="midnightblue" d="M365.473,-168.164C369.977,-153.836 380.953,-125.757 401,-112 410.812,-105.267 567.01,-82.5976 640.422,-72.2406"/>
<polygon fill="midnightblue" stroke="midnightblue" points="641.21,-75.6643 650.625,-70.8052 640.235,-68.7325 641.21,-75.6643"/>
</g>
<!-- Node3&#45;&gt;Node5 -->
<g id="edge4" class="edge"><title>Node3&#45;&gt;Node5</title>
<path fill="none" stroke="midnightblue" d="M393.327,-173.581C479.61,-163.854 725.764,-136.104 811.84,-126.4"/>
<polygon fill="midnightblue" stroke="midnightblue" points="812.436,-129.855 821.981,-125.257 811.652,-122.899 812.436,-129.855"/>
</g>
<!-- Node3&#45;&gt;Node6 -->
<g id="edge5" class="edge"><title>Node3&#45;&gt;Node6</title>
<path fill="none" stroke="midnightblue" d="M360.71,-168.187C357.704,-154.396 354.288,-127.674 368,-112 391.072,-85.626 493.136,-73.7659 546.396,-69.2926"/>
<polygon fill="midnightblue" stroke="midnightblue" points="546.979,-72.7573 556.668,-68.4709 546.42,-65.7796 546.979,-72.7573"/>
</g>
<!-- Node3&#45;&gt;Node7 -->
<g id="edge6" class="edge"><title>Node3&#45;&gt;Node7</title>
<path fill="none" stroke="midnightblue" d="M349.504,-168.324C336.4,-159.9 316.288,-146.971 300.893,-137.074"/>
<polygon fill="midnightblue" stroke="midnightblue" points="302.767,-134.118 292.463,-131.655 298.982,-140.006 302.767,-134.118"/>
</g>
<!-- Node3&#45;&gt;Node8 -->
<g id="edge7" class="edge"><title>Node3&#45;&gt;Node8</title>
<path fill="none" stroke="midnightblue" d="M332.698,-171.855C289.508,-164.384 207.553,-149.703 128.46,-132.219"/>
<polygon fill="midnightblue" stroke="midnightblue" points="128.852,-128.721 118.33,-129.961 127.329,-135.553 128.852,-128.721"/>
</g>
<!-- Node9 -->
<g id="node9" class="node"><title>Node9</title>
<polygon fill="none" stroke="#bfbfbf" points="410,-112.5 410,-131.5 466,-131.5 466,-112.5 410,-112.5"/>
<text text-anchor="middle" x="438" y="-119.5" font-family="Helvetica,sans-Serif" font-size="10.00">algorithm</text>
</g>
<!-- Node3&#45;&gt;Node9 -->
<g id="edge8" class="edge"><title>Node3&#45;&gt;Node9</title>
<path fill="none" stroke="midnightblue" d="M375.05,-168.324C386.463,-160.107 403.831,-147.602 417.435,-137.807"/>
<polygon fill="midnightblue" stroke="midnightblue" points="419.66,-140.517 425.731,-131.834 415.57,-134.837 419.66,-140.517"/>
</g>
<!-- Node3&#45;&gt;Node10 -->
<g id="edge9" class="edge"><title>Node3&#45;&gt;Node10</title>
<path fill="none" stroke="midnightblue" d="M332.759,-168.916C295.983,-159.084 234.054,-142.529 195.466,-132.214"/>
<polygon fill="midnightblue" stroke="midnightblue" points="196.28,-128.808 185.715,-129.607 194.472,-135.571 196.28,-128.808"/>
</g>
<!-- Node16 -->
<g id="node16" class="node"><title>Node16</title>
<g id="a_node16"><a xlink:href="../../dd/dbc/Detectors_2MUON_2MCH_2Contour_2include_2MCHContour_2Vertex_8h.html" target="_top" xlink:title="Vertex.h">
<polygon fill="none" stroke="black" points="636.5,-112.5 636.5,-131.5 689.5,-131.5 689.5,-112.5 636.5,-112.5"/>
<text text-anchor="middle" x="663" y="-119.5" font-family="Helvetica,sans-Serif" font-size="10.00">Vertex.h</text>
</a>
</g>
</g>
<!-- Node3&#45;&gt;Node16 -->
<g id="edge15" class="edge"><title>Node3&#45;&gt;Node16</title>
<path fill="none" stroke="midnightblue" d="M393.139,-171.575C448.506,-161.609 566.22,-140.42 626.205,-129.623"/>
<polygon fill="midnightblue" stroke="midnightblue" points="627.137,-133.012 636.359,-127.795 625.897,-126.122 627.137,-133.012"/>
</g>
<!-- Node11 -->
<g id="node11" class="node"><title>Node11</title>
<g id="a_node11"><a xlink:href="../../d2/dc4/Helper_8h.html" target="_top" xlink:title="Helper.h">
<polygon fill="none" stroke="black" points="412.5,-56.5 412.5,-75.5 465.5,-75.5 465.5,-56.5 412.5,-56.5"/>
<text text-anchor="middle" x="439" y="-63.5" font-family="Helvetica,sans-Serif" font-size="10.00">Helper.h</text>
</a>
</g>
</g>
<!-- Node10&#45;&gt;Node11 -->
<g id="edge10" class="edge"><title>Node10&#45;&gt;Node11</title>
<path fill="none" stroke="midnightblue" d="M185.724,-115.135C190.456,-114.058 195.375,-112.969 200,-112 271.461,-97.0335 355.43,-81.754 402.403,-73.413"/>
<polygon fill="midnightblue" stroke="midnightblue" points="403.168,-76.8322 412.405,-71.6427 401.948,-69.9393 403.168,-76.8322"/>
</g>
<!-- Node14 -->
<g id="node14" class="node"><title>Node14</title>
<polygon fill="none" stroke="#bfbfbf" points="131.5,-56.5 131.5,-75.5 190.5,-75.5 190.5,-56.5 131.5,-56.5"/>
<text text-anchor="middle" x="161" y="-63.5" font-family="Helvetica,sans-Serif" font-size="10.00">stdexcept</text>
</g>
<!-- Node10&#45;&gt;Node14 -->
<g id="edge13" class="edge"><title>Node10&#45;&gt;Node14</title>
<path fill="none" stroke="midnightblue" d="M161,-112.083C161,-105.006 161,-94.8611 161,-85.9865"/>
<polygon fill="midnightblue" stroke="midnightblue" points="164.5,-85.751 161,-75.7511 157.5,-85.7511 164.5,-85.751"/>
</g>
<!-- Node10&#45;&gt;Node15 -->
<g id="edge14" class="edge"><title>Node10&#45;&gt;Node15</title>
<path fill="none" stroke="midnightblue" d="M185.756,-112.799C213.16,-103.72 257.555,-89.0123 288.622,-78.7203"/>
<polygon fill="midnightblue" stroke="midnightblue" points="289.81,-82.014 298.202,-75.5467 287.608,-75.3691 289.81,-82.014"/>
</g>
<!-- Node11&#45;&gt;Node12 -->
<g id="edge11" class="edge"><title>Node11&#45;&gt;Node12</title>
<path fill="none" stroke="midnightblue" d="M412.353,-59.2211C366.204,-49.213 271.599,-28.6962 221.982,-17.9359"/>
<polygon fill="midnightblue" stroke="midnightblue" points="222.625,-14.4941 212.111,-15.7951 221.142,-21.3351 222.625,-14.4941"/>
</g>
<!-- Node13 -->
<g id="node13" class="node"><title>Node13</title>
<polygon fill="none" stroke="#bfbfbf" points="419,-0.5 419,-19.5 459,-19.5 459,-0.5 419,-0.5"/>
<text text-anchor="middle" x="439" y="-7.5" font-family="Helvetica,sans-Serif" font-size="10.00">limits</text>
</g>
<!-- Node11&#45;&gt;Node13 -->
<g id="edge12" class="edge"><title>Node11&#45;&gt;Node13</title>
<path fill="none" stroke="midnightblue" d="M439,-56.083C439,-49.0059 439,-38.8611 439,-29.9865"/>
<polygon fill="midnightblue" stroke="midnightblue" points="442.5,-29.751 439,-19.7511 435.5,-29.7511 442.5,-29.751"/>
</g>
<!-- Node16&#45;&gt;Node4 -->
<g id="edge16" class="edge"><title>Node16&#45;&gt;Node4</title>
<path fill="none" stroke="midnightblue" d="M665.477,-112.083C667.486,-104.849 670.386,-94.4087 672.89,-85.3968"/>
<polygon fill="midnightblue" stroke="midnightblue" points="676.265,-86.323 675.569,-75.7511 669.52,-84.4495 676.265,-86.323"/>
</g>
<!-- Node16&#45;&gt;Node11 -->
<g id="edge18" class="edge"><title>Node16&#45;&gt;Node11</title>
<path fill="none" stroke="midnightblue" d="M636.425,-114.593C596.429,-104.952 520.652,-86.6839 475.503,-75.7997"/>
<polygon fill="midnightblue" stroke="midnightblue" points="476.083,-72.3394 465.541,-73.3982 474.442,-79.1444 476.083,-72.3394"/>
</g>
<!-- Node17 -->
<g id="node17" class="node"><title>Node17</title>
<polygon fill="none" stroke="#bfbfbf" points="753,-56.5 753,-75.5 803,-75.5 803,-56.5 753,-56.5"/>
<text text-anchor="middle" x="778" y="-63.5" font-family="Helvetica,sans-Serif" font-size="10.00">iomanip</text>
</g>
<!-- Node16&#45;&gt;Node17 -->
<g id="edge17" class="edge"><title>Node16&#45;&gt;Node17</title>
<path fill="none" stroke="midnightblue" d="M681.222,-112.444C699.896,-103.675 729.156,-89.9355 750.617,-79.8579"/>
<polygon fill="midnightblue" stroke="midnightblue" points="752.299,-82.935 759.863,-75.5164 749.324,-76.5988 752.299,-82.935"/>
</g>
<!-- Node20 -->
<g id="node20" class="node"><title>Node20</title>
<g id="a_node20"><a xlink:href="../../dc/d15/ContourCreator_8inl.html" target="_top" xlink:title="ContourCreator.inl">
<polygon fill="none" stroke="black" points="482,-280.5 482,-299.5 578,-299.5 578,-280.5 482,-280.5"/>
<text text-anchor="middle" x="530" y="-287.5" font-family="Helvetica,sans-Serif" font-size="10.00">ContourCreator.inl</text>
</a>
</g>
</g>
<!-- Node19&#45;&gt;Node20 -->
<g id="edge26" class="edge"><title>Node19&#45;&gt;Node20</title>
<path fill="none" stroke="midnightblue" d="M423.965,-336.444C444.609,-327.596 477.063,-313.687 500.632,-303.586"/>
<polygon fill="midnightblue" stroke="midnightblue" points="502.316,-306.673 510.128,-299.516 499.558,-300.239 502.316,-306.673"/>
</g>
<!-- Node20&#45;&gt;Node2 -->
<g id="edge41" class="edge"><title>Node20&#45;&gt;Node2</title>
<path fill="none" stroke="midnightblue" d="M486.901,-280.444C434.908,-270.121 348.215,-252.91 297.762,-242.894"/>
<polygon fill="midnightblue" stroke="midnightblue" points="298.364,-239.445 287.874,-240.931 297.001,-246.311 298.364,-239.445"/>
</g>
<!-- Node20&#45;&gt;Node3 -->
<g id="edge40" class="edge"><title>Node20&#45;&gt;Node3</title>
<path fill="none" stroke="midnightblue" d="M507.128,-280.377C487.24,-272.373 458.075,-259.396 435,-244 413.687,-229.78 392.277,-209.505 378.413,-195.394"/>
<polygon fill="midnightblue" stroke="midnightblue" points="380.639,-192.66 371.179,-187.89 375.6,-197.518 380.639,-192.66"/>
</g>
<!-- Node20&#45;&gt;Node4 -->
<g id="edge29" class="edge"><title>Node20&#45;&gt;Node4</title>
<path fill="none" stroke="midnightblue" d="M578.342,-287.67C666.329,-282.183 847.157,-255.741 886,-132 888.662,-123.519 891.581,-118.918 886,-112 875.298,-98.7357 771.967,-81.2147 715.094,-72.464"/>
<polygon fill="midnightblue" stroke="midnightblue" points="715.461,-68.9796 705.048,-70.9351 714.408,-75.8999 715.461,-68.9796"/>
</g>
<!-- Node20&#45;&gt;Node5 -->
<g id="edge27" class="edge"><title>Node20&#45;&gt;Node5</title>
<path fill="none" stroke="midnightblue" d="M552.666,-280.5C593.486,-264.782 681.485,-229.011 750,-188 776.245,-172.29 804.762,-151.514 822.978,-137.726"/>
<polygon fill="midnightblue" stroke="midnightblue" points="825.214,-140.422 831.038,-131.571 820.966,-134.859 825.214,-140.422"/>
</g>
<!-- Node20&#45;&gt;Node6 -->
<g id="edge28" class="edge"><title>Node20&#45;&gt;Node6</title>
<path fill="none" stroke="midnightblue" d="M578.212,-284.012C657.135,-272.876 811.115,-237.963 871,-132 875.373,-124.261 876.787,-118.747 871,-112 868.882,-109.531 686.596,-82.6935 611.144,-71.6776"/>
<polygon fill="midnightblue" stroke="midnightblue" points="611.636,-68.2125 601.236,-70.2324 610.626,-75.1392 611.636,-68.2125"/>
</g>
<!-- Node20&#45;&gt;Node9 -->
<g id="edge47" class="edge"><title>Node20&#45;&gt;Node9</title>
<path fill="none" stroke="midnightblue" d="M525.054,-280.075C510.447,-253.719 467.306,-175.878 447.788,-140.661"/>
<polygon fill="midnightblue" stroke="midnightblue" points="450.657,-138.618 442.749,-131.568 444.535,-142.011 450.657,-138.618"/>
</g>
<!-- Node21 -->
<g id="node21" class="node"><title>Node21</title>
<g id="a_node21"><a xlink:href="../../d5/de0/Edge_8h.html" target="_top" xlink:title="Edge.h">
<polygon fill="none" stroke="black" points="694.5,-168.5 694.5,-187.5 741.5,-187.5 741.5,-168.5 694.5,-168.5"/>
<text text-anchor="middle" x="718" y="-175.5" font-family="Helvetica,sans-Serif" font-size="10.00">Edge.h</text>
</a>
</g>
</g>
<!-- Node20&#45;&gt;Node21 -->
<g id="edge30" class="edge"><title>Node20&#45;&gt;Node21</title>
<path fill="none" stroke="midnightblue" d="M544.752,-280.368C577.287,-261.332 655.421,-215.615 694.67,-192.65"/>
<polygon fill="midnightblue" stroke="midnightblue" points="696.453,-195.662 703.316,-187.591 692.918,-189.621 696.453,-195.662"/>
</g>
<!-- Node23 -->
<g id="node23" class="node"><title>Node23</title>
<g id="a_node23"><a xlink:href="../../dc/ded/SegmentTree_8h.html" target="_top" xlink:title="SegmentTree.h">
<polygon fill="none" stroke="black" points="488.5,-168.5 488.5,-187.5 571.5,-187.5 571.5,-168.5 488.5,-168.5"/>
<text text-anchor="middle" x="530" y="-175.5" font-family="Helvetica,sans-Serif" font-size="10.00">SegmentTree.h</text>
</a>
</g>
</g>
<!-- Node20&#45;&gt;Node23 -->
<g id="edge42" class="edge"><title>Node20&#45;&gt;Node23</title>
<path fill="none" stroke="midnightblue" d="M530,-280.368C530,-262.617 530,-221.666 530,-197.597"/>
<polygon fill="midnightblue" stroke="midnightblue" points="533.5,-197.591 530,-187.591 526.5,-197.591 533.5,-197.591"/>
</g>
<!-- Node21&#45;&gt;Node4 -->
<g id="edge33" class="edge"><title>Node21&#45;&gt;Node4</title>
<path fill="none" stroke="midnightblue" d="M723.299,-168.19C730.311,-155.307 740.813,-130.817 732,-112 725.955,-99.0941 714.188,-88.5985 703.177,-80.9999"/>
<polygon fill="midnightblue" stroke="midnightblue" points="704.943,-77.9748 694.633,-75.5364 701.172,-83.8723 704.943,-77.9748"/>
</g>
<!-- Node21&#45;&gt;Node5 -->
<g id="edge31" class="edge"><title>Node21&#45;&gt;Node5</title>
<path fill="none" stroke="midnightblue" d="M737.648,-168.444C757.965,-159.596 789.903,-145.687 813.098,-135.586"/>
<polygon fill="midnightblue" stroke="midnightblue" points="814.673,-138.718 822.444,-131.516 811.878,-132.3 814.673,-138.718"/>
</g>
<!-- Node21&#45;&gt;Node6 -->
<g id="edge32" class="edge"><title>Node21&#45;&gt;Node6</title>
<path fill="none" stroke="midnightblue" d="M717.672,-168.226C716.696,-154.488 712.87,-127.838 698,-112 675.177,-87.6913 637.891,-76.4038 611.135,-71.2334"/>
<polygon fill="midnightblue" stroke="midnightblue" points="611.548,-67.7527 601.095,-69.4817 610.345,-74.6485 611.548,-67.7527"/>
</g>
<!-- Node21&#45;&gt;Node16 -->
<g id="edge39" class="edge"><title>Node21&#45;&gt;Node16</title>
<path fill="none" stroke="midnightblue" d="M708.918,-168.083C700.829,-160.141 688.805,-148.335 679.09,-138.797"/>
<polygon fill="midnightblue" stroke="midnightblue" points="681.501,-136.26 671.913,-131.751 676.597,-141.254 681.501,-136.26"/>
</g>
<!-- Node21&#45;&gt;Node17 -->
<g id="edge34" class="edge"><title>Node21&#45;&gt;Node17</title>
<path fill="none" stroke="midnightblue" d="M724.12,-168.241C730.239,-159.319 739.757,-144.988 747,-132 755.649,-116.491 764.243,-98.1836 770.181,-84.9563"/>
<polygon fill="midnightblue" stroke="midnightblue" points="773.48,-86.1493 774.324,-75.5881 767.078,-83.3182 773.48,-86.1493"/>
</g>
<!-- Node22 -->
<g id="node22" class="node"><title>Node22</title>
<g id="a_node22"><a xlink:href="../../d1/d55/Interval_8h.html" target="_top" xlink:title="Interval.h">
<polygon fill="none" stroke="black" points="522.5,-112.5 522.5,-131.5 579.5,-131.5 579.5,-112.5 522.5,-112.5"/>
<text text-anchor="middle" x="551" y="-119.5" font-family="Helvetica,sans-Serif" font-size="10.00">Interval.h</text>
</a>
</g>
</g>
<!-- Node21&#45;&gt;Node22 -->
<g id="edge35" class="edge"><title>Node21&#45;&gt;Node22</title>
<path fill="none" stroke="midnightblue" d="M694.427,-169.378C666.479,-160.341 619.601,-145.182 587.079,-134.666"/>
<polygon fill="midnightblue" stroke="midnightblue" points="588.076,-131.31 577.484,-131.564 585.922,-137.971 588.076,-131.31"/>
</g>
<!-- Node22&#45;&gt;Node6 -->
<g id="edge36" class="edge"><title>Node22&#45;&gt;Node6</title>
<path fill="none" stroke="midnightblue" d="M555.624,-112.083C559.456,-104.691 565.024,-93.9533 569.765,-84.8111"/>
<polygon fill="midnightblue" stroke="midnightblue" points="572.966,-86.2398 574.462,-75.7511 566.752,-83.0175 572.966,-86.2398"/>
</g>
<!-- Node22&#45;&gt;Node11 -->
<g id="edge38" class="edge"><title>Node22&#45;&gt;Node11</title>
<path fill="none" stroke="midnightblue" d="M533.005,-112.324C514.962,-103.625 486.953,-90.1202 466.197,-80.113"/>
<polygon fill="midnightblue" stroke="midnightblue" points="467.478,-76.8449 456.95,-75.6545 464.438,-83.1502 467.478,-76.8449"/>
</g>
<!-- Node22&#45;&gt;Node15 -->
<g id="edge37" class="edge"><title>Node22&#45;&gt;Node15</title>
<path fill="none" stroke="midnightblue" d="M522.25,-114.161C480.967,-104.34 404.927,-86.2514 359.971,-75.557"/>
<polygon fill="midnightblue" stroke="midnightblue" points="360.601,-72.1092 350.062,-73.1998 358.981,-78.9192 360.601,-72.1092"/>
</g>
<!-- Node23&#45;&gt;Node6 -->
<g id="edge43" class="edge"><title>Node23&#45;&gt;Node6</title>
<path fill="none" stroke="midnightblue" d="M548.389,-168.471C562.101,-160.997 579.815,-148.71 588,-132 595.118,-117.469 591.567,-99.0538 586.995,-85.5375"/>
<polygon fill="midnightblue" stroke="midnightblue" points="590.151,-83.9922 583.294,-75.9156 583.618,-86.5055 590.151,-83.9922"/>
</g>
<!-- Node23&#45;&gt;Node9 -->
<g id="edge45" class="edge"><title>Node23&#45;&gt;Node9</title>
<path fill="none" stroke="midnightblue" d="M515.219,-168.324C500.733,-159.822 478.427,-146.729 461.507,-136.797"/>
<polygon fill="midnightblue" stroke="midnightblue" points="463.141,-133.698 452.745,-131.655 459.597,-139.735 463.141,-133.698"/>
</g>
<!-- Node23&#45;&gt;Node15 -->
<g id="edge44" class="edge"><title>Node23&#45;&gt;Node15</title>
<path fill="none" stroke="midnightblue" d="M524.942,-168.46C516.272,-154.56 497.242,-127.08 474,-112 439.062,-89.3312 392.228,-77.6789 360.245,-71.9758"/>
<polygon fill="midnightblue" stroke="midnightblue" points="360.446,-68.461 350.006,-70.2624 359.291,-75.365 360.446,-68.461"/>
</g>
<!-- Node23&#45;&gt;Node22 -->
<g id="edge46" class="edge"><title>Node23&#45;&gt;Node22</title>
<path fill="none" stroke="midnightblue" d="M533.468,-168.083C536.312,-160.77 540.429,-150.181 543.96,-141.103"/>
<polygon fill="midnightblue" stroke="midnightblue" points="547.234,-142.34 547.597,-131.751 540.71,-139.803 547.234,-142.34"/>
</g>
</g>
</svg>
