<?xml version="1.0" encoding="UTF-8" standalone="no"?>
<!DOCTYPE svg PUBLIC "-//W3C//DTD SVG 1.1//EN"
 "http://www.w3.org/Graphics/SVG/1.1/DTD/svg11.dtd">
<!-- Generated by graphviz version 2.36.0 (20140111.2315)
 -->
<!-- Title: /home/travis/build/AliceO2Group/AliceO2/DataFormats/Detectors/TPC/include/DataFormatsTPC/ClusterNative.h Pages: 1 -->
<!--zoomable 440 -->
<svg id="main" version="1.1" xmlns="http://www.w3.org/2000/svg" xmlns:xlink="http://www.w3.org/1999/xlink" xml:space="preserve" onload="init(evt)">
<style type="text/css"><![CDATA[
.edge:hover path { stroke: red; }
.edge:hover polygon { stroke: red; fill: red; }
]]></style>
<script type="text/javascript"><![CDATA[
var edges = document.getElementsByTagName('g');
if (edges && edges.length) {
  for (var i=0;i<edges.length;i++) {
    if (edges[i].id.substr(0,4)=='edge') {
      edges[i].setAttribute('class','edge');
    }
  }
}
]]></script>
        <defs>
                <circle id="rim" cx="0" cy="0" r="7"/>
                <circle id="rim2" cx="0" cy="0" r="3.5"/>
                <g id="zoomPlus">
                        <use xlink:href="#rim" fill="#404040">
                                <set attributeName="fill" to="#808080" begin="zoomplus.mouseover" end="zoomplus.mouseout"/>
                        </use>
                        <path d="M-4,0h8M0,-4v8" fill="none" stroke="white" stroke-width="1.5" pointer-events="none"/>
                </g>
                <g id="zoomMin">
                        <use xlink:href="#rim" fill="#404040">
                                <set attributeName="fill" to="#808080" begin="zoomminus.mouseover" end="zoomminus.mouseout"/>
                        </use>
                        <path d="M-4,0h8" fill="none" stroke="white" stroke-width="1.5" pointer-events="none"/>
                </g>
                <g id="dirArrow">
                        <path fill="none" stroke="white" stroke-width="1.5" d="M0,-3.0v7 M-2.5,-0.5L0,-3.0L2.5,-0.5"/>
                </g>
               <g id="resetDef">
                       <use xlink:href="#rim2" fill="#404040">
                               <set attributeName="fill" to="#808080" begin="reset.mouseover" end="reset.mouseout"/>
                       </use>
               </g>
        </defs>

<script type="text/javascript">
var viewWidth = 2618;
var viewHeight = 440;
var sectionId = 'dynsection-1';
</script>
<script xlink:href="../../svgpan.js"/>
<svg id="graph" class="graph">
<g id="viewport">
<title>/home/travis/build/AliceO2Group/AliceO2/DataFormats/Detectors/TPC/include/DataFormatsTPC/ClusterNative.h</title>
<!-- Node1 -->
<g id="node1" class="node"><title>Node1</title>
<polygon fill="#bfbfbf" stroke="black" points="1897,-368.5 1897,-431.5 2051,-431.5 2051,-368.5 1897,-368.5"/>
<text text-anchor="start" x="1905" y="-419.5" font-family="Helvetica,sans-Serif" font-size="10.00">/home/travis/build</text>
<text text-anchor="start" x="1905" y="-408.5" font-family="Helvetica,sans-Serif" font-size="10.00">/AliceO2Group/AliceO2</text>
<text text-anchor="start" x="1905" y="-397.5" font-family="Helvetica,sans-Serif" font-size="10.00">/DataFormats/Detectors</text>
<text text-anchor="start" x="1905" y="-386.5" font-family="Helvetica,sans-Serif" font-size="10.00">/TPC/include/DataFormatsTPC</text>
<text text-anchor="middle" x="1974" y="-375.5" font-family="Helvetica,sans-Serif" font-size="10.00">/ClusterNative.h</text>
</g>
<!-- Node2 -->
<g id="node2" class="node"><title>Node2</title>
<g id="a_node2"><a xlink:href="../../db/df1/Helpers_8h.html" target="_top" xlink:title="Helper class for memory management of TPC Data Formats, external from the actual data type classes to...">
<polygon fill="none" stroke="black" points="309,-168.5 309,-231.5 463,-231.5 463,-168.5 309,-168.5"/>
<text text-anchor="start" x="317" y="-219.5" font-family="Helvetica,sans-Serif" font-size="10.00">/home/travis/build</text>
<text text-anchor="start" x="317" y="-208.5" font-family="Helvetica,sans-Serif" font-size="10.00">/AliceO2Group/AliceO2</text>
<text text-anchor="start" x="317" y="-197.5" font-family="Helvetica,sans-Serif" font-size="10.00">/DataFormats/Detectors</text>
<text text-anchor="start" x="317" y="-186.5" font-family="Helvetica,sans-Serif" font-size="10.00">/TPC/include/DataFormatsTPC</text>
<text text-anchor="middle" x="386" y="-175.5" font-family="Helvetica,sans-Serif" font-size="10.00">/Helpers.h</text>
</a>
</g>
</g>
<!-- Node1&#45;&gt;Node2 -->
<g id="edge1" class="edge"><title>Node1&#45;&gt;Node2</title>
<path fill="none" stroke="midnightblue" d="M1886.54,-399.567C1584.96,-400.911 600.24,-399.999 477,-332 437.479,-310.194 411.393,-263.048 397.656,-231.671"/>
<polygon fill="midnightblue" stroke="midnightblue" points="1886.56,-403.067 1896.55,-399.52 1886.53,-396.067 1886.56,-403.067"/>
</g>
<!-- Node4 -->
<g id="node4" class="node"><title>Node4</title>
<g id="a_node4"><a xlink:href="../../d7/d83/testTPCCATracking_8cxx.html" target="_top" xlink:title="This task tests the TPC CA Tracking library. ">
<polygon fill="none" stroke="black" points="0,-79 0,-131 150,-131 150,-79 0,-79"/>
<text text-anchor="start" x="8" y="-119" font-family="Helvetica,sans-Serif" font-size="10.00">/home/travis/build</text>
<text text-anchor="start" x="8" y="-108" font-family="Helvetica,sans-Serif" font-size="10.00">/AliceO2Group/AliceO2</text>
<text text-anchor="start" x="8" y="-97" font-family="Helvetica,sans-Serif" font-size="10.00">/Detectors/TPC/reconstruction</text>
<text text-anchor="middle" x="75" y="-86" font-family="Helvetica,sans-Serif" font-size="10.00">/test/testTPCCATracking.cxx</text>
</a>
</g>
</g>
<!-- Node1&#45;&gt;Node4 -->
<g id="edge38" class="edge"><title>Node1&#45;&gt;Node4</title>
<path fill="none" stroke="midnightblue" d="M1886.67,-399.087C1601.41,-398.77 699.07,-392.857 415,-332 297.581,-306.845 258.312,-306.332 164,-232 128.873,-204.315 101.702,-159.13 87.0547,-131.059"/>
<polygon fill="midnightblue" stroke="midnightblue" points="1886.96,-402.587 1896.96,-399.096 1886.96,-395.587 1886.96,-402.587"/>
</g>
<!-- Node6 -->
<g id="node6" class="node"><title>Node6</title>
<g id="a_node6"><a xlink:href="../../d1/df0/runCATrackingClusterNative_8C.html" target="_top" xlink:title="/home/travis/build\l/AliceO2Group/AliceO2\l/macro/runCATrackingClusterNative.C">
<polygon fill="none" stroke="black" points="482.5,-84.5 482.5,-125.5 667.5,-125.5 667.5,-84.5 482.5,-84.5"/>
<text text-anchor="start" x="490.5" y="-113.5" font-family="Helvetica,sans-Serif" font-size="10.00">/home/travis/build</text>
<text text-anchor="start" x="490.5" y="-102.5" font-family="Helvetica,sans-Serif" font-size="10.00">/AliceO2Group/AliceO2</text>
<text text-anchor="middle" x="575" y="-91.5" font-family="Helvetica,sans-Serif" font-size="10.00">/macro/runCATrackingClusterNative.C</text>
</a>
</g>
</g>
<!-- Node1&#45;&gt;Node6 -->
<g id="edge39" class="edge"><title>Node1&#45;&gt;Node6</title>
<path fill="none" stroke="midnightblue" d="M1886.84,-397.512C1648.56,-392.905 989.949,-376.411 778,-332 653.569,-305.927 582.5,-336.434 510,-232 493.779,-208.634 498.805,-194.149 510,-168 517.304,-150.94 531.863,-136.343 545.353,-125.606"/>
<polygon fill="midnightblue" stroke="midnightblue" points="1886.78,-401.012 1896.85,-397.703 1886.92,-394.013 1886.78,-401.012"/>
</g>
<!-- Node7 -->
<g id="node7" class="node"><title>Node7</title>
<g id="a_node7"><a xlink:href="../../dc/daf/runHardwareClusterDecoderRoot_8C.html" target="_top" xlink:title="/home/travis/build\l/AliceO2Group/AliceO2\l/macro/runHardwareClusterDecoder\lRoot.C">
<polygon fill="none" stroke="black" points="1887.5,-79 1887.5,-131 2060.5,-131 2060.5,-79 1887.5,-79"/>
<text text-anchor="start" x="1895.5" y="-119" font-family="Helvetica,sans-Serif" font-size="10.00">/home/travis/build</text>
<text text-anchor="start" x="1895.5" y="-108" font-family="Helvetica,sans-Serif" font-size="10.00">/AliceO2Group/AliceO2</text>
<text text-anchor="start" x="1895.5" y="-97" font-family="Helvetica,sans-Serif" font-size="10.00">/macro/runHardwareClusterDecoder</text>
<text text-anchor="middle" x="1974" y="-86" font-family="Helvetica,sans-Serif" font-size="10.00">Root.C</text>
</a>
</g>
</g>
<!-- Node1&#45;&gt;Node7 -->
<g id="edge40" class="edge"><title>Node1&#45;&gt;Node7</title>
<path fill="none" stroke="midnightblue" d="M1974,-358.37C1974,-296.943 1974,-182.218 1974,-131.376"/>
<polygon fill="midnightblue" stroke="midnightblue" points="1970.5,-358.473 1974,-368.473 1977.5,-358.473 1970.5,-358.473"/>
</g>
<!-- Node8 -->
<g id="node8" class="node"><title>Node8</title>
<g id="a_node8"><a xlink:href="../../d5/dc9/TrackTPC_8h.html" target="_top" xlink:title="/home/travis/build\l/AliceO2Group/AliceO2\l/DataFormats/Detectors\l/TPC/include/DataFormatsTPC\l/TrackTPC.h">
<polygon fill="none" stroke="black" points="1019,-268.5 1019,-331.5 1173,-331.5 1173,-268.5 1019,-268.5"/>
<text text-anchor="start" x="1027" y="-319.5" font-family="Helvetica,sans-Serif" font-size="10.00">/home/travis/build</text>
<text text-anchor="start" x="1027" y="-308.5" font-family="Helvetica,sans-Serif" font-size="10.00">/AliceO2Group/AliceO2</text>
<text text-anchor="start" x="1027" y="-297.5" font-family="Helvetica,sans-Serif" font-size="10.00">/DataFormats/Detectors</text>
<text text-anchor="start" x="1027" y="-286.5" font-family="Helvetica,sans-Serif" font-size="10.00">/TPC/include/DataFormatsTPC</text>
<text text-anchor="middle" x="1096" y="-275.5" font-family="Helvetica,sans-Serif" font-size="10.00">/TrackTPC.h</text>
</a>
</g>
</g>
<!-- Node1&#45;&gt;Node8 -->
<g id="edge7" class="edge"><title>Node1&#45;&gt;Node8</title>
<path fill="none" stroke="midnightblue" d="M1886.85,-389.273C1715.34,-370.129 1336.49,-327.843 1173.29,-309.626"/>
<polygon fill="midnightblue" stroke="midnightblue" points="1886.53,-392.758 1896.85,-390.389 1887.3,-385.801 1886.53,-392.758"/>
</g>
<!-- Node13 -->
<g id="node13" class="node"><title>Node13</title>
<g id="a_node13"><a xlink:href="../../df/d30/TPCCATracking_8h.html" target="_top" xlink:title="Decoder to convert TPC ClusterHardware to ClusterNative. ">
<polygon fill="none" stroke="black" points="519,-168.5 519,-231.5 669,-231.5 669,-168.5 519,-168.5"/>
<text text-anchor="start" x="527" y="-219.5" font-family="Helvetica,sans-Serif" font-size="10.00">/home/travis/build</text>
<text text-anchor="start" x="527" y="-208.5" font-family="Helvetica,sans-Serif" font-size="10.00">/AliceO2Group/AliceO2</text>
<text text-anchor="start" x="527" y="-197.5" font-family="Helvetica,sans-Serif" font-size="10.00">/Detectors/TPC/reconstruction</text>
<text text-anchor="start" x="527" y="-186.5" font-family="Helvetica,sans-Serif" font-size="10.00">/include/TPCReconstruction</text>
<text text-anchor="middle" x="594" y="-175.5" font-family="Helvetica,sans-Serif" font-size="10.00">/TPCCATracking.h</text>
</a>
</g>
</g>
<!-- Node1&#45;&gt;Node13 -->
<g id="edge35" class="edge"><title>Node1&#45;&gt;Node13</title>
<path fill="none" stroke="midnightblue" d="M1886.6,-399.299C1716.43,-398.482 1329.32,-389.751 1010,-332 887.804,-309.9 751.445,-262.353 669.219,-231.033"/>
<polygon fill="midnightblue" stroke="midnightblue" points="1886.74,-402.8 1896.75,-399.34 1886.77,-395.8 1886.74,-402.8"/>
</g>
<!-- Node23 -->
<g id="node23" class="node"><title>Node23</title>
<g id="a_node23"><a xlink:href="../../d1/d42/testClusterNative_8cxx.html" target="_top" xlink:title="Unit test for the TPC ClusterNative data struct. ">
<polygon fill="none" stroke="black" points="2452,-274 2452,-326 2610,-326 2610,-274 2452,-274"/>
<text text-anchor="start" x="2460" y="-314" font-family="Helvetica,sans-Serif" font-size="10.00">/home/travis/build</text>
<text text-anchor="start" x="2460" y="-303" font-family="Helvetica,sans-Serif" font-size="10.00">/AliceO2Group/AliceO2</text>
<text text-anchor="start" x="2460" y="-292" font-family="Helvetica,sans-Serif" font-size="10.00">/DataFormats/Detectors</text>
<text text-anchor="middle" x="2531" y="-281" font-family="Helvetica,sans-Serif" font-size="10.00">/TPC/test/testClusterNative.cxx</text>
</a>
</g>
</g>
<!-- Node1&#45;&gt;Node23 -->
<g id="edge27" class="edge"><title>Node1&#45;&gt;Node23</title>
<path fill="none" stroke="midnightblue" d="M2061.17,-391.1C2155.08,-381.504 2308.48,-362.68 2438,-332 2445.29,-330.274 2452.82,-328.226 2460.29,-326.016"/>
<polygon fill="midnightblue" stroke="midnightblue" points="2060.74,-387.625 2051.15,-392.112 2061.45,-394.59 2060.74,-387.625"/>
</g>
<!-- Node24 -->
<g id="node24" class="node"><title>Node24</title>
<g id="a_node24"><a xlink:href="../../db/d19/DigitalCurrentClusterIntegrator_8h.html" target="_top" xlink:title="/home/travis/build\l/AliceO2Group/AliceO2\l/Detectors/TPC/reconstruction\l/include/TPCReconstruction\l/DigitalCurrentClusterIntegrator.h">
<polygon fill="none" stroke="black" points="2040.5,-268.5 2040.5,-331.5 2201.5,-331.5 2201.5,-268.5 2040.5,-268.5"/>
<text text-anchor="start" x="2048.5" y="-319.5" font-family="Helvetica,sans-Serif" font-size="10.00">/home/travis/build</text>
<text text-anchor="start" x="2048.5" y="-308.5" font-family="Helvetica,sans-Serif" font-size="10.00">/AliceO2Group/AliceO2</text>
<text text-anchor="start" x="2048.5" y="-297.5" font-family="Helvetica,sans-Serif" font-size="10.00">/Detectors/TPC/reconstruction</text>
<text text-anchor="start" x="2048.5" y="-286.5" font-family="Helvetica,sans-Serif" font-size="10.00">/include/TPCReconstruction</text>
<text text-anchor="middle" x="2121" y="-275.5" font-family="Helvetica,sans-Serif" font-size="10.00">/DigitalCurrentClusterIntegrator.h</text>
</a>
</g>
</g>
<!-- Node1&#45;&gt;Node24 -->
<g id="edge28" class="edge"><title>Node1&#45;&gt;Node24</title>
<path fill="none" stroke="midnightblue" d="M2028.48,-362.682C2043.79,-352.472 2060.29,-341.473 2075.06,-331.63"/>
<polygon fill="midnightblue" stroke="midnightblue" points="2026.49,-359.802 2020.11,-368.261 2030.37,-365.626 2026.49,-359.802"/>
</g>
<!-- Node25 -->
<g id="node25" class="node"><title>Node25</title>
<g id="a_node25"><a xlink:href="../../d2/d41/HardwareClusterDecoder_8h.html" target="_top" xlink:title="/home/travis/build\l/AliceO2Group/AliceO2\l/Detectors/TPC/reconstruction\l/include/TPCReconstruction\l/HardwareClusterDecoder.h">
<polygon fill="none" stroke="black" points="2002,-168.5 2002,-231.5 2152,-231.5 2152,-168.5 2002,-168.5"/>
<text text-anchor="start" x="2010" y="-219.5" font-family="Helvetica,sans-Serif" font-size="10.00">/home/travis/build</text>
<text text-anchor="start" x="2010" y="-208.5" font-family="Helvetica,sans-Serif" font-size="10.00">/AliceO2Group/AliceO2</text>
<text text-anchor="start" x="2010" y="-197.5" font-family="Helvetica,sans-Serif" font-size="10.00">/Detectors/TPC/reconstruction</text>
<text text-anchor="start" x="2010" y="-186.5" font-family="Helvetica,sans-Serif" font-size="10.00">/include/TPCReconstruction</text>
<text text-anchor="middle" x="2077" y="-175.5" font-family="Helvetica,sans-Serif" font-size="10.00">/HardwareClusterDecoder.h</text>
</a>
</g>
</g>
<!-- Node1&#45;&gt;Node25 -->
<g id="edge34" class="edge"><title>Node1&#45;&gt;Node25</title>
<path fill="none" stroke="midnightblue" d="M1989.1,-358.976C1999.62,-332.539 2014.67,-297.465 2031,-268 2037.84,-255.659 2046.35,-242.736 2054.19,-231.568"/>
<polygon fill="midnightblue" stroke="midnightblue" points="1985.83,-357.712 1985.43,-368.299 1992.35,-360.275 1985.83,-357.712"/>
</g>
<!-- Node26 -->
<g id="node26" class="node"><title>Node26</title>
<g id="a_node26"><a xlink:href="../../d1/dfd/runHardwareClusterDecoderRaw_8C.html" target="_top" xlink:title="/home/travis/build\l/AliceO2Group/AliceO2\l/Detectors/TPC/reconstruction\l/macro/runHardwareClusterDecoderRaw.C">
<polygon fill="none" stroke="black" points="2099,-79 2099,-131 2303,-131 2303,-79 2099,-79"/>
<text text-anchor="start" x="2107" y="-119" font-family="Helvetica,sans-Serif" font-size="10.00">/home/travis/build</text>
<text text-anchor="start" x="2107" y="-108" font-family="Helvetica,sans-Serif" font-size="10.00">/AliceO2Group/AliceO2</text>
<text text-anchor="start" x="2107" y="-97" font-family="Helvetica,sans-Serif" font-size="10.00">/Detectors/TPC/reconstruction</text>
<text text-anchor="middle" x="2201" y="-86" font-family="Helvetica,sans-Serif" font-size="10.00">/macro/runHardwareClusterDecoderRaw.C</text>
</a>
</g>
</g>
<!-- Node1&#45;&gt;Node26 -->
<g id="edge36" class="edge"><title>Node1&#45;&gt;Node26</title>
<path fill="none" stroke="midnightblue" d="M2061.31,-391.915C2157.76,-378.685 2307.33,-340.752 2367,-232 2380.68,-207.063 2383.22,-191.369 2367,-168 2357.7,-154.605 2327.65,-141.673 2295.61,-131.117"/>
<polygon fill="midnightblue" stroke="midnightblue" points="2060.74,-388.46 2051.28,-393.229 2061.65,-395.401 2060.74,-388.46"/>
</g>
<!-- Node27 -->
<g id="node27" class="node"><title>Node27</title>
<g id="a_node27"><a xlink:href="../../d4/d7c/HardwareClusterDecoder_8cxx.html" target="_top" xlink:title="/home/travis/build\l/AliceO2Group/AliceO2\l/Detectors/TPC/reconstruction\l/src/HardwareClusterDecoder.cxx">
<polygon fill="none" stroke="black" points="2331.5,-79 2331.5,-131 2496.5,-131 2496.5,-79 2331.5,-79"/>
<text text-anchor="start" x="2339.5" y="-119" font-family="Helvetica,sans-Serif" font-size="10.00">/home/travis/build</text>
<text text-anchor="start" x="2339.5" y="-108" font-family="Helvetica,sans-Serif" font-size="10.00">/AliceO2Group/AliceO2</text>
<text text-anchor="start" x="2339.5" y="-97" font-family="Helvetica,sans-Serif" font-size="10.00">/Detectors/TPC/reconstruction</text>
<text text-anchor="middle" x="2414" y="-86" font-family="Helvetica,sans-Serif" font-size="10.00">/src/HardwareClusterDecoder.cxx</text>
</a>
</g>
</g>
<!-- Node1&#45;&gt;Node27 -->
<g id="edge37" class="edge"><title>Node1&#45;&gt;Node27</title>
<path fill="none" stroke="midnightblue" d="M2061.3,-389.353C2148.31,-378.434 2274.75,-358.64 2316,-332 2385.88,-286.874 2406.14,-179.861 2411.85,-131.049"/>
<polygon fill="midnightblue" stroke="midnightblue" points="2060.65,-385.906 2051.16,-390.608 2061.51,-392.853 2060.65,-385.906"/>
</g>
<!-- Node3 -->
<g id="node3" class="node"><title>Node3</title>
<g id="a_node3"><a xlink:href="../../dc/def/Helpers_8cxx.html" target="_top" xlink:title="/home/travis/build\l/AliceO2Group/AliceO2\l/DataFormats/Detectors\l/TPC/src/Helpers.cxx">
<polygon fill="none" stroke="black" points="168,-79 168,-131 290,-131 290,-79 168,-79"/>
<text text-anchor="start" x="176" y="-119" font-family="Helvetica,sans-Serif" font-size="10.00">/home/travis/build</text>
<text text-anchor="start" x="176" y="-108" font-family="Helvetica,sans-Serif" font-size="10.00">/AliceO2Group/AliceO2</text>
<text text-anchor="start" x="176" y="-97" font-family="Helvetica,sans-Serif" font-size="10.00">/DataFormats/Detectors</text>
<text text-anchor="middle" x="229" y="-86" font-family="Helvetica,sans-Serif" font-size="10.00">/TPC/src/Helpers.cxx</text>
</a>
</g>
</g>
<!-- Node2&#45;&gt;Node3 -->
<g id="edge2" class="edge"><title>Node2&#45;&gt;Node3</title>
<path fill="none" stroke="midnightblue" d="M325.423,-163.117C307.375,-152.426 287.993,-140.945 271.373,-131.1"/>
<polygon fill="midnightblue" stroke="midnightblue" points="323.77,-166.205 334.157,-168.291 327.337,-160.183 323.77,-166.205"/>
</g>
<!-- Node2&#45;&gt;Node4 -->
<g id="edge3" class="edge"><title>Node2&#45;&gt;Node4</title>
<path fill="none" stroke="midnightblue" d="M299.245,-173.685C256.907,-161.256 205.251,-145.983 159,-132 156.077,-131.116 153.099,-130.212 150.091,-129.296"/>
<polygon fill="midnightblue" stroke="midnightblue" points="298.381,-177.079 308.962,-176.535 300.351,-170.362 298.381,-177.079"/>
</g>
<!-- Node5 -->
<g id="node5" class="node"><title>Node5</title>
<g id="a_node5"><a xlink:href="../../d7/d3d/convertClusterToClusterHardware_8C.html" target="_top" xlink:title="/home/travis/build\l/AliceO2Group/AliceO2\l/macro/convertClusterToCluster\lHardware.C">
<polygon fill="none" stroke="black" points="308,-79 308,-131 464,-131 464,-79 308,-79"/>
<text text-anchor="start" x="316" y="-119" font-family="Helvetica,sans-Serif" font-size="10.00">/home/travis/build</text>
<text text-anchor="start" x="316" y="-108" font-family="Helvetica,sans-Serif" font-size="10.00">/AliceO2Group/AliceO2</text>
<text text-anchor="start" x="316" y="-97" font-family="Helvetica,sans-Serif" font-size="10.00">/macro/convertClusterToCluster</text>
<text text-anchor="middle" x="386" y="-86" font-family="Helvetica,sans-Serif" font-size="10.00">Hardware.C</text>
</a>
</g>
</g>
<!-- Node2&#45;&gt;Node5 -->
<g id="edge4" class="edge"><title>Node2&#45;&gt;Node5</title>
<path fill="none" stroke="midnightblue" d="M386,-158.112C386,-148.917 386,-139.423 386,-131.1"/>
<polygon fill="midnightblue" stroke="midnightblue" points="382.5,-158.291 386,-168.291 389.5,-158.291 382.5,-158.291"/>
</g>
<!-- Node2&#45;&gt;Node6 -->
<g id="edge5" class="edge"><title>Node2&#45;&gt;Node6</title>
<path fill="none" stroke="midnightblue" d="M457.338,-163.897C483.665,-150.943 512.548,-136.731 535.108,-125.629"/>
<polygon fill="midnightblue" stroke="midnightblue" points="455.575,-160.864 448.147,-168.42 458.665,-167.145 455.575,-160.864"/>
</g>
<!-- Node2&#45;&gt;Node7 -->
<g id="edge6" class="edge"><title>Node2&#45;&gt;Node7</title>
<path fill="none" stroke="midnightblue" d="M473.042,-174.777C485.369,-172.069 497.948,-169.684 510,-168 995.325,-100.192 1122.63,-157.558 1612,-132 1706.23,-127.079 1814.09,-119.018 1887.38,-113.175"/>
<polygon fill="midnightblue" stroke="midnightblue" points="472.199,-171.38 463.225,-177.012 473.753,-178.205 472.199,-171.38"/>
</g>
<!-- Node8&#45;&gt;Node4 -->
<g id="edge24" class="edge"><title>Node8&#45;&gt;Node4</title>
<path fill="none" stroke="midnightblue" d="M1008.6,-296.309C830.284,-290.058 430.402,-271.943 300,-232 226.799,-209.578 150.999,-160.892 108.733,-131.033"/>
<polygon fill="midnightblue" stroke="midnightblue" points="1008.61,-299.811 1018.73,-296.66 1008.85,-292.816 1008.61,-299.811"/>
</g>
<!-- Node8&#45;&gt;Node6 -->
<g id="edge26" class="edge"><title>Node8&#45;&gt;Node6</title>
<path fill="none" stroke="midnightblue" d="M1008.83,-297.524C933.089,-292.9 822.569,-277.893 738,-232 703.463,-213.258 707.61,-192.641 677,-168 656.983,-151.887 632.427,-136.837 612.424,-125.6"/>
<polygon fill="midnightblue" stroke="midnightblue" points="1008.63,-301.019 1018.82,-298.086 1009.03,-294.03 1008.63,-301.019"/>
</g>
<!-- Node9 -->
<g id="node9" class="node"><title>Node9</title>
<g id="a_node9"><a xlink:href="../../d6/da8/TrackTPC_8cxx.html" target="_top" xlink:title="Implementation of the TPC track. ">
<polygon fill="none" stroke="black" points="763.5,-174 763.5,-226 886.5,-226 886.5,-174 763.5,-174"/>
<text text-anchor="start" x="771.5" y="-214" font-family="Helvetica,sans-Serif" font-size="10.00">/home/travis/build</text>
<text text-anchor="start" x="771.5" y="-203" font-family="Helvetica,sans-Serif" font-size="10.00">/AliceO2Group/AliceO2</text>
<text text-anchor="start" x="771.5" y="-192" font-family="Helvetica,sans-Serif" font-size="10.00">/DataFormats/Detectors</text>
<text text-anchor="middle" x="825" y="-181" font-family="Helvetica,sans-Serif" font-size="10.00">/TPC/src/TrackTPC.cxx</text>
</a>
</g>
</g>
<!-- Node8&#45;&gt;Node9 -->
<g id="edge8" class="edge"><title>Node8&#45;&gt;Node9</title>
<path fill="none" stroke="midnightblue" d="M1008.69,-271.899C973.15,-260.349 931.842,-246.261 895,-232 890.166,-230.129 885.18,-228.108 880.201,-226.027"/>
<polygon fill="midnightblue" stroke="midnightblue" points="1007.96,-275.342 1018.55,-275.087 1010.12,-268.681 1007.96,-275.342"/>
</g>
<!-- Node10 -->
<g id="node10" class="node"><title>Node10</title>
<g id="a_node10"><a xlink:href="../../d3/dac/MatchTPCITS_8h.html" target="_top" xlink:title="Class to perform TPC ITS matching. ">
<polygon fill="none" stroke="black" points="904.5,-174 904.5,-226 1097.5,-226 1097.5,-174 904.5,-174"/>
<text text-anchor="start" x="912.5" y="-214" font-family="Helvetica,sans-Serif" font-size="10.00">/home/travis/build</text>
<text text-anchor="start" x="912.5" y="-203" font-family="Helvetica,sans-Serif" font-size="10.00">/AliceO2Group/AliceO2</text>
<text text-anchor="start" x="912.5" y="-192" font-family="Helvetica,sans-Serif" font-size="10.00">/Detectors/GlobalTracking</text>
<text text-anchor="middle" x="1001" y="-181" font-family="Helvetica,sans-Serif" font-size="10.00">/include/GlobalTracking/MatchTPCITS.h</text>
</a>
</g>
</g>
<!-- Node8&#45;&gt;Node10 -->
<g id="edge9" class="edge"><title>Node8&#45;&gt;Node10</title>
<path fill="none" stroke="midnightblue" d="M1058.93,-260.756C1047.63,-249.104 1035.51,-236.598 1025.29,-226.054"/>
<polygon fill="midnightblue" stroke="midnightblue" points="1056.73,-263.517 1066.2,-268.261 1061.75,-258.645 1056.73,-263.517"/>
</g>
<!-- Node8&#45;&gt;Node13 -->
<g id="edge12" class="edge"><title>Node8&#45;&gt;Node13</title>
<path fill="none" stroke="midnightblue" d="M1008.65,-289.32C924.428,-278.936 793.803,-260.057 683,-232 678.559,-230.875 674.024,-229.626 669.47,-228.293"/>
<polygon fill="midnightblue" stroke="midnightblue" points="1008.33,-292.807 1018.68,-290.544 1009.18,-285.859 1008.33,-292.807"/>
</g>
<!-- Node14 -->
<g id="node14" class="node"><title>Node14</title>
<g id="a_node14"><a xlink:href="../../d1/d27/runCATracking_8C.html" target="_top" xlink:title="/home/travis/build\l/AliceO2Group/AliceO2\l/Detectors/TPC/reconstruction\l/macro/runCATracking.C">
<polygon fill="none" stroke="black" points="853,-79 853,-131 1003,-131 1003,-79 853,-79"/>
<text text-anchor="start" x="861" y="-119" font-family="Helvetica,sans-Serif" font-size="10.00">/home/travis/build</text>
<text text-anchor="start" x="861" y="-108" font-family="Helvetica,sans-Serif" font-size="10.00">/AliceO2Group/AliceO2</text>
<text text-anchor="start" x="861" y="-97" font-family="Helvetica,sans-Serif" font-size="10.00">/Detectors/TPC/reconstruction</text>
<text text-anchor="middle" x="928" y="-86" font-family="Helvetica,sans-Serif" font-size="10.00">/macro/runCATracking.C</text>
</a>
</g>
</g>
<!-- Node8&#45;&gt;Node14 -->
<g id="edge22" class="edge"><title>Node8&#45;&gt;Node14</title>
<path fill="none" stroke="midnightblue" d="M1008.81,-294.207C918.338,-287.196 785.687,-270.498 754,-232 735.923,-210.038 737.606,-191.245 754,-168 757.177,-163.496 807.138,-145.944 852.71,-130.66"/>
<polygon fill="midnightblue" stroke="midnightblue" points="1008.57,-297.699 1018.8,-294.956 1009.09,-290.718 1008.57,-297.699"/>
</g>
<!-- Node17 -->
<g id="node17" class="node"><title>Node17</title>
<g id="a_node17"><a xlink:href="../../d9/d90/convertTracks_8C.html" target="_top" xlink:title="/home/travis/build\l/AliceO2Group/AliceO2\l/Detectors/TPC/reconstruction\l/macro/convertTracks.C">
<polygon fill="none" stroke="black" points="1116,-174 1116,-226 1266,-226 1266,-174 1116,-174"/>
<text text-anchor="start" x="1124" y="-214" font-family="Helvetica,sans-Serif" font-size="10.00">/home/travis/build</text>
<text text-anchor="start" x="1124" y="-203" font-family="Helvetica,sans-Serif" font-size="10.00">/AliceO2Group/AliceO2</text>
<text text-anchor="start" x="1124" y="-192" font-family="Helvetica,sans-Serif" font-size="10.00">/Detectors/TPC/reconstruction</text>
<text text-anchor="middle" x="1191" y="-181" font-family="Helvetica,sans-Serif" font-size="10.00">/macro/convertTracks.C</text>
</a>
</g>
</g>
<!-- Node8&#45;&gt;Node17 -->
<g id="edge18" class="edge"><title>Node8&#45;&gt;Node17</title>
<path fill="none" stroke="midnightblue" d="M1133.07,-260.756C1144.37,-249.104 1156.49,-236.598 1166.71,-226.054"/>
<polygon fill="midnightblue" stroke="midnightblue" points="1130.25,-258.645 1125.8,-268.261 1135.27,-263.517 1130.25,-258.645"/>
</g>
<!-- Node18 -->
<g id="node18" class="node"><title>Node18</title>
<g id="a_node18"><a xlink:href="../../d6/dee/dEdxRes_8C.html" target="_top" xlink:title="/home/travis/build\l/AliceO2Group/AliceO2\l/Detectors/TPC/reconstruction\l/macro/dEdxRes.C">
<polygon fill="none" stroke="black" points="1284,-174 1284,-226 1434,-226 1434,-174 1284,-174"/>
<text text-anchor="start" x="1292" y="-214" font-family="Helvetica,sans-Serif" font-size="10.00">/home/travis/build</text>
<text text-anchor="start" x="1292" y="-203" font-family="Helvetica,sans-Serif" font-size="10.00">/AliceO2Group/AliceO2</text>
<text text-anchor="start" x="1292" y="-192" font-family="Helvetica,sans-Serif" font-size="10.00">/Detectors/TPC/reconstruction</text>
<text text-anchor="middle" x="1359" y="-181" font-family="Helvetica,sans-Serif" font-size="10.00">/macro/dEdxRes.C</text>
</a>
</g>
</g>
<!-- Node8&#45;&gt;Node18 -->
<g id="edge19" class="edge"><title>Node8&#45;&gt;Node18</title>
<path fill="none" stroke="midnightblue" d="M1182.52,-266.761C1218.01,-253.536 1258.47,-238.459 1291.69,-226.08"/>
<polygon fill="midnightblue" stroke="midnightblue" points="1181.28,-263.487 1173.13,-270.259 1183.72,-270.047 1181.28,-263.487"/>
</g>
<!-- Node19 -->
<g id="node19" class="node"><title>Node19</title>
<g id="a_node19"><a xlink:href="../../d5/db8/RawClusterFinder_8C.html" target="_top" xlink:title="/home/travis/build\l/AliceO2Group/AliceO2\l/Detectors/TPC/reconstruction\l/macro/RawClusterFinder.C">
<polygon fill="none" stroke="black" points="1452,-174 1452,-226 1602,-226 1602,-174 1452,-174"/>
<text text-anchor="start" x="1460" y="-214" font-family="Helvetica,sans-Serif" font-size="10.00">/home/travis/build</text>
<text text-anchor="start" x="1460" y="-203" font-family="Helvetica,sans-Serif" font-size="10.00">/AliceO2Group/AliceO2</text>
<text text-anchor="start" x="1460" y="-192" font-family="Helvetica,sans-Serif" font-size="10.00">/Detectors/TPC/reconstruction</text>
<text text-anchor="middle" x="1527" y="-181" font-family="Helvetica,sans-Serif" font-size="10.00">/macro/RawClusterFinder.C</text>
</a>
</g>
</g>
<!-- Node8&#45;&gt;Node19 -->
<g id="edge20" class="edge"><title>Node8&#45;&gt;Node19</title>
<path fill="none" stroke="midnightblue" d="M1183.25,-286.035C1253.75,-274.623 1355.18,-256.076 1442,-232 1448.36,-230.237 1454.92,-228.218 1461.44,-226.075"/>
<polygon fill="midnightblue" stroke="midnightblue" points="1182.4,-282.627 1173.08,-287.667 1183.51,-289.539 1182.4,-282.627"/>
</g>
<!-- Node21 -->
<g id="node21" class="node"><title>Node21</title>
<g id="a_node21"><a xlink:href="../../db/d60/testTracks_8C.html" target="_top" xlink:title="/home/travis/build\l/AliceO2Group/AliceO2\l/Detectors/TPC/reconstruction\l/macro/testTracks.C">
<polygon fill="none" stroke="black" points="1620,-174 1620,-226 1770,-226 1770,-174 1620,-174"/>
<text text-anchor="start" x="1628" y="-214" font-family="Helvetica,sans-Serif" font-size="10.00">/home/travis/build</text>
<text text-anchor="start" x="1628" y="-203" font-family="Helvetica,sans-Serif" font-size="10.00">/AliceO2Group/AliceO2</text>
<text text-anchor="start" x="1628" y="-192" font-family="Helvetica,sans-Serif" font-size="10.00">/Detectors/TPC/reconstruction</text>
<text text-anchor="middle" x="1695" y="-181" font-family="Helvetica,sans-Serif" font-size="10.00">/macro/testTracks.C</text>
</a>
</g>
</g>
<!-- Node8&#45;&gt;Node21 -->
<g id="edge23" class="edge"><title>Node8&#45;&gt;Node21</title>
<path fill="none" stroke="midnightblue" d="M1183.22,-293.503C1286.34,-285.661 1462.58,-268.024 1610,-232 1616.87,-230.322 1623.95,-228.276 1630.95,-226.044"/>
<polygon fill="midnightblue" stroke="midnightblue" points="1182.88,-290.019 1173.17,-294.254 1183.4,-296.999 1182.88,-290.019"/>
</g>
<!-- Node22 -->
<g id="node22" class="node"><title>Node22</title>
<g id="a_node22"><a xlink:href="../../d9/d59/testHitsDigitsClusters_8C.html" target="_top" xlink:title="/home/travis/build\l/AliceO2Group/AliceO2\l/Detectors/TPC/simulation\l/macro/testHitsDigitsClusters.C">
<polygon fill="none" stroke="black" points="1788.5,-174 1788.5,-226 1945.5,-226 1945.5,-174 1788.5,-174"/>
<text text-anchor="start" x="1796.5" y="-214" font-family="Helvetica,sans-Serif" font-size="10.00">/home/travis/build</text>
<text text-anchor="start" x="1796.5" y="-203" font-family="Helvetica,sans-Serif" font-size="10.00">/AliceO2Group/AliceO2</text>
<text text-anchor="start" x="1796.5" y="-192" font-family="Helvetica,sans-Serif" font-size="10.00">/Detectors/TPC/simulation</text>
<text text-anchor="middle" x="1867" y="-181" font-family="Helvetica,sans-Serif" font-size="10.00">/macro/testHitsDigitsClusters.C</text>
</a>
</g>
</g>
<!-- Node8&#45;&gt;Node22 -->
<g id="edge25" class="edge"><title>Node8&#45;&gt;Node22</title>
<path fill="none" stroke="midnightblue" d="M1183.48,-297.02C1314.26,-292.58 1567.86,-278.231 1778,-232 1785.35,-230.383 1792.93,-228.346 1800.43,-226.092"/>
<polygon fill="midnightblue" stroke="midnightblue" points="1183.01,-293.534 1173.13,-297.36 1183.24,-300.53 1183.01,-293.534"/>
</g>
<!-- Node11 -->
<g id="node11" class="node"><title>Node11</title>
<g id="a_node11"><a xlink:href="../../dc/d59/MatchTPCITS_8cxx.html" target="_top" xlink:title="/home/travis/build\l/AliceO2Group/AliceO2\l/Detectors/GlobalTracking\l/src/MatchTPCITS.cxx">
<polygon fill="none" stroke="black" points="1021.5,-79 1021.5,-131 1152.5,-131 1152.5,-79 1021.5,-79"/>
<text text-anchor="start" x="1029.5" y="-119" font-family="Helvetica,sans-Serif" font-size="10.00">/home/travis/build</text>
<text text-anchor="start" x="1029.5" y="-108" font-family="Helvetica,sans-Serif" font-size="10.00">/AliceO2Group/AliceO2</text>
<text text-anchor="start" x="1029.5" y="-97" font-family="Helvetica,sans-Serif" font-size="10.00">/Detectors/GlobalTracking</text>
<text text-anchor="middle" x="1087" y="-86" font-family="Helvetica,sans-Serif" font-size="10.00">/src/MatchTPCITS.cxx</text>
</a>
</g>
</g>
<!-- Node10&#45;&gt;Node11 -->
<g id="edge10" class="edge"><title>Node10&#45;&gt;Node11</title>
<path fill="none" stroke="midnightblue" d="M1031.32,-166.21C1042,-154.659 1053.83,-141.87 1063.83,-131.06"/>
<polygon fill="midnightblue" stroke="midnightblue" points="1028.72,-163.869 1024.5,-173.587 1033.86,-168.622 1028.72,-163.869"/>
</g>
<!-- Node12 -->
<g id="node12" class="node"><title>Node12</title>
<g id="a_node12"><a xlink:href="../../d9/d84/run__match__TPCITS_8C.html" target="_top" xlink:title="/home/travis/build\l/AliceO2Group/AliceO2\l/macro/run_match_TPCITS.C">
<polygon fill="none" stroke="black" points="1170.5,-84.5 1170.5,-125.5 1317.5,-125.5 1317.5,-84.5 1170.5,-84.5"/>
<text text-anchor="start" x="1178.5" y="-113.5" font-family="Helvetica,sans-Serif" font-size="10.00">/home/travis/build</text>
<text text-anchor="start" x="1178.5" y="-102.5" font-family="Helvetica,sans-Serif" font-size="10.00">/AliceO2Group/AliceO2</text>
<text text-anchor="middle" x="1244" y="-91.5" font-family="Helvetica,sans-Serif" font-size="10.00">/macro/run_match_TPCITS.C</text>
</a>
</g>
</g>
<!-- Node10&#45;&gt;Node12 -->
<g id="edge11" class="edge"><title>Node10&#45;&gt;Node12</title>
<path fill="none" stroke="midnightblue" d="M1075.91,-170.332C1113.79,-155.834 1158.79,-138.61 1192.7,-125.635"/>
<polygon fill="midnightblue" stroke="midnightblue" points="1074.53,-167.112 1066.44,-173.955 1077.03,-173.65 1074.53,-167.112"/>
</g>
<!-- Node13&#45;&gt;Node4 -->
<g id="edge16" class="edge"><title>Node13&#45;&gt;Node4</title>
<path fill="none" stroke="midnightblue" d="M509.015,-175.854C496.656,-172.941 484.042,-170.212 472,-168 334.276,-142.7 296.029,-160.826 159,-132 156.162,-131.403 153.282,-130.751 150.382,-130.056"/>
<polygon fill="midnightblue" stroke="midnightblue" points="508.315,-179.285 518.856,-178.223 509.953,-172.479 508.315,-179.285"/>
</g>
<!-- Node13&#45;&gt;Node6 -->
<g id="edge17" class="edge"><title>Node13&#45;&gt;Node6</title>
<path fill="none" stroke="midnightblue" d="M585.717,-158.458C583.386,-147.047 580.955,-135.149 578.999,-125.575"/>
<polygon fill="midnightblue" stroke="midnightblue" points="582.295,-159.194 587.726,-168.291 589.153,-157.792 582.295,-159.194"/>
</g>
<!-- Node13&#45;&gt;Node14 -->
<g id="edge13" class="edge"><title>Node13&#45;&gt;Node14</title>
<path fill="none" stroke="midnightblue" d="M678.868,-176.929C727.104,-164.193 788.559,-147.646 843,-132 846.263,-131.062 849.593,-130.094 852.954,-129.106"/>
<polygon fill="midnightblue" stroke="midnightblue" points="677.872,-173.572 669.094,-179.505 679.656,-180.341 677.872,-173.572"/>
</g>
<!-- Node16 -->
<g id="node16" class="node"><title>Node16</title>
<g id="a_node16"><a xlink:href="../../d8/ded/TPCCATracking_8cxx.html" target="_top" xlink:title="/home/travis/build\l/AliceO2Group/AliceO2\l/Detectors/TPC/reconstruction\l/src/TPCCATracking.cxx">
<polygon fill="none" stroke="black" points="685,-79 685,-131 835,-131 835,-79 685,-79"/>
<text text-anchor="start" x="693" y="-119" font-family="Helvetica,sans-Serif" font-size="10.00">/home/travis/build</text>
<text text-anchor="start" x="693" y="-108" font-family="Helvetica,sans-Serif" font-size="10.00">/AliceO2Group/AliceO2</text>
<text text-anchor="start" x="693" y="-97" font-family="Helvetica,sans-Serif" font-size="10.00">/Detectors/TPC/reconstruction</text>
<text text-anchor="middle" x="760" y="-86" font-family="Helvetica,sans-Serif" font-size="10.00">/src/TPCCATracking.cxx</text>
</a>
</g>
</g>
<!-- Node13&#45;&gt;Node16 -->
<g id="edge15" class="edge"><title>Node13&#45;&gt;Node16</title>
<path fill="none" stroke="midnightblue" d="M657.79,-163.262C676.945,-152.531 697.546,-140.99 715.198,-131.1"/>
<polygon fill="midnightblue" stroke="midnightblue" points="655.828,-160.349 648.815,-168.291 659.25,-166.456 655.828,-160.349"/>
</g>
<!-- Node15 -->
<g id="node15" class="node"><title>Node15</title>
<g id="a_node15"><a xlink:href="../../d3/d56/runTPC_8cxx.html" target="_top" xlink:title="/home/travis/build\l/AliceO2Group/AliceO2\l/run/runTPC.cxx">
<polygon fill="none" stroke="black" points="869,-0.5 869,-41.5 987,-41.5 987,-0.5 869,-0.5"/>
<text text-anchor="start" x="877" y="-29.5" font-family="Helvetica,sans-Serif" font-size="10.00">/home/travis/build</text>
<text text-anchor="start" x="877" y="-18.5" font-family="Helvetica,sans-Serif" font-size="10.00">/AliceO2Group/AliceO2</text>
<text text-anchor="middle" x="928" y="-7.5" font-family="Helvetica,sans-Serif" font-size="10.00">/run/runTPC.cxx</text>
</a>
</g>
</g>
<!-- Node14&#45;&gt;Node15 -->
<g id="edge14" class="edge"><title>Node14&#45;&gt;Node15</title>
<path fill="none" stroke="midnightblue" d="M928,-68.7604C928,-59.4912 928,-49.8211 928,-41.6965"/>
<polygon fill="midnightblue" stroke="midnightblue" points="924.5,-68.9517 928,-78.9517 931.5,-68.9518 924.5,-68.9517"/>
</g>
<!-- Node20 -->
<g id="node20" class="node"><title>Node20</title>
<g id="a_node20"><a xlink:href="../../df/da0/runRawClusterFinder_8C.html" target="_top" xlink:title="/home/travis/build\l/AliceO2Group/AliceO2\l/Detectors/TPC/reconstruction\l/macro/runRawClusterFinder.C">
<polygon fill="none" stroke="black" points="1451,-79 1451,-131 1603,-131 1603,-79 1451,-79"/>
<text text-anchor="start" x="1459" y="-119" font-family="Helvetica,sans-Serif" font-size="10.00">/home/travis/build</text>
<text text-anchor="start" x="1459" y="-108" font-family="Helvetica,sans-Serif" font-size="10.00">/AliceO2Group/AliceO2</text>
<text text-anchor="start" x="1459" y="-97" font-family="Helvetica,sans-Serif" font-size="10.00">/Detectors/TPC/reconstruction</text>
<text text-anchor="middle" x="1527" y="-86" font-family="Helvetica,sans-Serif" font-size="10.00">/macro/runRawClusterFinder.C</text>
</a>
</g>
</g>
<!-- Node19&#45;&gt;Node20 -->
<g id="edge21" class="edge"><title>Node19&#45;&gt;Node20</title>
<path fill="none" stroke="midnightblue" d="M1527,-163.549C1527,-152.722 1527,-141.046 1527,-131.06"/>
<polygon fill="midnightblue" stroke="midnightblue" points="1523.5,-163.587 1527,-173.587 1530.5,-163.587 1523.5,-163.587"/>
</g>
<!-- Node24&#45;&gt;Node25 -->
<g id="edge29" class="edge"><title>Node24&#45;&gt;Node25</title>
<path fill="none" stroke="midnightblue" d="M2103.02,-258.964C2098.93,-249.841 2094.64,-240.288 2090.75,-231.63"/>
<polygon fill="midnightblue" stroke="midnightblue" points="2099.91,-260.572 2107.2,-268.261 2106.3,-257.705 2099.91,-260.572"/>
</g>
<!-- Node28 -->
<g id="node28" class="node"><title>Node28</title>
<g id="a_node28"><a xlink:href="../../d1/d81/DigitalCurrentClusterIntegrator_8cxx.html" target="_top" xlink:title="/home/travis/build\l/AliceO2Group/AliceO2\l/Detectors/TPC/reconstruction\l/src/DigitalCurrentClusterIntegrator.cxx">
<polygon fill="none" stroke="black" points="2170,-174 2170,-226 2358,-226 2358,-174 2170,-174"/>
<text text-anchor="start" x="2178" y="-214" font-family="Helvetica,sans-Serif" font-size="10.00">/home/travis/build</text>
<text text-anchor="start" x="2178" y="-203" font-family="Helvetica,sans-Serif" font-size="10.00">/AliceO2Group/AliceO2</text>
<text text-anchor="start" x="2178" y="-192" font-family="Helvetica,sans-Serif" font-size="10.00">/Detectors/TPC/reconstruction</text>
<text text-anchor="middle" x="2264" y="-181" font-family="Helvetica,sans-Serif" font-size="10.00">/src/DigitalCurrentClusterIntegrator.cxx</text>
</a>
</g>
</g>
<!-- Node24&#45;&gt;Node28 -->
<g id="edge33" class="edge"><title>Node24&#45;&gt;Node28</title>
<path fill="none" stroke="midnightblue" d="M2174.38,-262.415C2192.06,-250.299 2211.32,-237.1 2227.44,-226.054"/>
<polygon fill="midnightblue" stroke="midnightblue" points="2172.12,-259.721 2165.85,-268.261 2176.08,-265.495 2172.12,-259.721"/>
</g>
<!-- Node25&#45;&gt;Node7 -->
<g id="edge32" class="edge"><title>Node25&#45;&gt;Node7</title>
<path fill="none" stroke="midnightblue" d="M2035.31,-161.361C2024.04,-151.179 2012.11,-140.408 2001.8,-131.1"/>
<polygon fill="midnightblue" stroke="midnightblue" points="2033.22,-164.187 2042.99,-168.291 2037.91,-158.991 2033.22,-164.187"/>
</g>
<!-- Node25&#45;&gt;Node26 -->
<g id="edge30" class="edge"><title>Node25&#45;&gt;Node26</title>
<path fill="none" stroke="midnightblue" d="M2126.01,-162.24C2139.93,-151.801 2154.76,-140.676 2167.53,-131.1"/>
<polygon fill="midnightblue" stroke="midnightblue" points="2123.85,-159.491 2117.95,-168.291 2128.05,-165.091 2123.85,-159.491"/>
</g>
<!-- Node25&#45;&gt;Node27 -->
<g id="edge31" class="edge"><title>Node25&#45;&gt;Node27</title>
<path fill="none" stroke="midnightblue" d="M2162.08,-167.782C2228.31,-148.09 2247.42,-147.654 2311,-132 2317.63,-130.369 2324.49,-128.666 2331.38,-126.946"/>
<polygon fill="midnightblue" stroke="midnightblue" points="2160.98,-164.458 2152.41,-170.692 2163,-171.16 2160.98,-164.458"/>
</g>
</g>
</svg>
        <g id="navigator" transform="translate(0 0)" fill="#404254">
                <rect fill="#f2f5e9" fill-opacity="0.5" stroke="#606060" stroke-width=".5" x="0" y="0" width="60" height="60"/>
                <use id="zoomplus" xlink:href="#zoomPlus" x="17" y="9" onmousedown="handleZoom(evt,'in')"/>
                <use id="zoomminus" xlink:href="#zoomMin" x="42" y="9" onmousedown="handleZoom(evt,'out')"/>
                <use id="reset" xlink:href="#resetDef" x="30" y="36" onmousedown="handleReset()"/>
                <g id="arrowUp" xlink:href="#dirArrow" transform="translate(30 24)" onmousedown="handlePan(0,-1)">
                  <use xlink:href="#rim" fill="#404040">
                        <set attributeName="fill" to="#808080" begin="arrowUp.mouseover" end="arrowUp.mouseout"/>
                  </use>
                  <path fill="none" stroke="white" stroke-width="1.5" d="M0,-3.0v7 M-2.5,-0.5L0,-3.0L2.5,-0.5"/>
                </g>
                <g id="arrowRight" xlink:href="#dirArrow" transform="rotate(90) translate(36 -43)" onmousedown="handlePan(1,0)">
                  <use xlink:href="#rim" fill="#404040">
                        <set attributeName="fill" to="#808080" begin="arrowRight.mouseover" end="arrowRight.mouseout"/>
                  </use>
                  <path fill="none" stroke="white" stroke-width="1.5" d="M0,-3.0v7 M-2.5,-0.5L0,-3.0L2.5,-0.5"/>
                </g>
                <g id="arrowDown" xlink:href="#dirArrow" transform="rotate(180) translate(-30 -48)" onmousedown="handlePan(0,1)">
                  <use xlink:href="#rim" fill="#404040">
                        <set attributeName="fill" to="#808080" begin="arrowDown.mouseover" end="arrowDown.mouseout"/>
                  </use>
                  <path fill="none" stroke="white" stroke-width="1.5" d="M0,-3.0v7 M-2.5,-0.5L0,-3.0L2.5,-0.5"/>
                </g>
                <g id="arrowLeft" xlink:href="#dirArrow" transform="rotate(270) translate(-36 17)" onmousedown="handlePan(-1,0)">
                  <use xlink:href="#rim" fill="#404040">
                        <set attributeName="fill" to="#808080" begin="arrowLeft.mouseover" end="arrowLeft.mouseout"/>
                  </use>
                  <path fill="none" stroke="white" stroke-width="1.5" d="M0,-3.0v7 M-2.5,-0.5L0,-3.0L2.5,-0.5"/>
                </g>
        </g>
        <svg viewBox="0 0 15 15" width="100%" height="30px" preserveAspectRatio="xMaxYMin meet">
         <g id="arrow_out" transform="scale(0.3 0.3)">
          <a xlink:href="ClusterNative_8h__dep__incl_org.svg" target="_base">
           <rect id="button" ry="5" rx="5" y="6" x="6" height="38" width="38"
                fill="#f2f5e9" fill-opacity="0.5" stroke="#606060" stroke-width="1.0"/>
           <path id="arrow"
             d="M 11.500037,31.436501 C 11.940474,20.09759 22.043105,11.32322 32.158766,21.979434 L 37.068811,17.246167 C 37.068811,17.246167 37.088388,32 37.088388,32 L 22.160133,31.978069 C 22.160133,31.978069 26.997745,27.140456 26.997745,27.140456 C 18.528582,18.264221 13.291696,25.230495 11.500037,31.436501 z"
             style="fill:#404040;"/>
          </a>
         </g>
        </svg>
</svg>
