<?xml version="1.0" encoding="UTF-8" standalone="no"?>
<!DOCTYPE svg PUBLIC "-//W3C//DTD SVG 1.1//EN"
 "http://www.w3.org/Graphics/SVG/1.1/DTD/svg11.dtd">
<!-- Generated by graphviz version 2.36.0 (20140111.2315)
 -->
<!-- Title: o2::framework::DispatcherFairMQ Pages: 1 -->
<svg width="164pt" height="282pt"
 viewBox="0.00 0.00 164.00 282.00" xmlns="http://www.w3.org/2000/svg" xmlns:xlink="http://www.w3.org/1999/xlink">
<g id="graph0" class="graph" transform="scale(1 1) rotate(0) translate(4 278)">
<title>o2::framework::DispatcherFairMQ</title>
<!-- Node1 -->
<g id="node1" class="node"><title>Node1</title>
<polygon fill="#bfbfbf" stroke="black" points="12,-1 12,-91 144,-91 144,-1 12,-1"/>
<text text-anchor="start" x="20" y="-79" font-family="Helvetica,sans-Serif" font-size="10.00">o2::framework::Dispatcher</text>
<text text-anchor="middle" x="78" y="-68" font-family="Helvetica,sans-Serif" font-size="10.00">FairMQ</text>
<polyline fill="none" stroke="black" points="12,-61 144,-61 "/>
<text text-anchor="middle" x="78" y="-49" font-family="Helvetica,sans-Serif" font-size="10.00"> </text>
<polyline fill="none" stroke="black" points="12,-42 144,-42 "/>
<text text-anchor="start" x="20" y="-30" font-family="Helvetica,sans-Serif" font-size="10.00">+ DispatcherFairMQ()</text>
<text text-anchor="start" x="20" y="-19" font-family="Helvetica,sans-Serif" font-size="10.00">+ ~DispatcherFairMQ()</text>
<text text-anchor="start" x="20" y="-8" font-family="Helvetica,sans-Serif" font-size="10.00">+ addSource()</text>
</g>
<!-- Node2 -->
<g id="node2" class="node"><title>Node2</title>
<g id="a_node2"><a xlink:href="../../d8/d30/classo2_1_1framework_1_1Dispatcher.html" target="_top" xlink:title="A base class for dispatcher used by DataSampling. ">
<polygon fill="none" stroke="black" points="-0.5,-128.5 -0.5,-273.5 156.5,-273.5 156.5,-128.5 -0.5,-128.5"/>
<text text-anchor="middle" x="78" y="-261.5" font-family="Helvetica,sans-Serif" font-size="10.00">o2::framework::Dispatcher</text>
<polyline fill="none" stroke="black" points="-0.5,-254.5 156.5,-254.5 "/>
<text text-anchor="start" x="7.5" y="-242.5" font-family="Helvetica,sans-Serif" font-size="10.00"># mSubSpec</text>
<text text-anchor="start" x="7.5" y="-231.5" font-family="Helvetica,sans-Serif" font-size="10.00"># mCfg</text>
<text text-anchor="start" x="7.5" y="-220.5" font-family="Helvetica,sans-Serif" font-size="10.00"># mDataProcessorSpec</text>
<polyline fill="none" stroke="black" points="-0.5,-213.5 156.5,-213.5 "/>
<text text-anchor="start" x="7.5" y="-201.5" font-family="Helvetica,sans-Serif" font-size="10.00">+ Dispatcher()</text>
<text text-anchor="start" x="7.5" y="-190.5" font-family="Helvetica,sans-Serif" font-size="10.00">+ Dispatcher()</text>
<text text-anchor="start" x="7.5" y="-179.5" font-family="Helvetica,sans-Serif" font-size="10.00">+ ~Dispatcher()</text>
<text text-anchor="start" x="7.5" y="-168.5" font-family="Helvetica,sans-Serif" font-size="10.00">+ getDataProcessorSpec()</text>
<text text-anchor="start" x="7.5" y="-157.5" font-family="Helvetica,sans-Serif" font-size="10.00">+ getSubSpec()</text>
<text text-anchor="start" x="7.5" y="-146.5" font-family="Helvetica,sans-Serif" font-size="10.00">+ addSource()</text>
<text text-anchor="start" x="7.5" y="-135.5" font-family="Helvetica,sans-Serif" font-size="10.00"># createDispatcherOutputSpec()</text>
</a>
</g>
</g>
<!-- Node2&#45;&gt;Node1 -->
<g id="edge1" class="edge"><title>Node2&#45;&gt;Node1</title>
<path fill="none" stroke="midnightblue" d="M78,-118.252C78,-108.887 78,-99.628 78,-91.0391"/>
<polygon fill="none" stroke="midnightblue" points="74.5001,-118.428 78,-128.428 81.5001,-118.428 74.5001,-118.428"/>
</g>
</g>
</svg>
