<?xml version="1.0" encoding="UTF-8" standalone="no"?>
<!DOCTYPE svg PUBLIC "-//W3C//DTD SVG 1.1//EN"
 "http://www.w3.org/Graphics/SVG/1.1/DTD/svg11.dtd">
<!-- Generated by graphviz version 2.36.0 (20140111.2315)
 -->
<!-- Title: /home/travis/build/AliceO2Group/AliceO2/Detectors/Passive/src/Cave.cxx Pages: 1 -->
<svg width="992pt" height="230pt"
 viewBox="0.00 0.00 992.00 230.00" xmlns="http://www.w3.org/2000/svg" xmlns:xlink="http://www.w3.org/1999/xlink">
<g id="graph0" class="graph" transform="scale(1 1) rotate(0) translate(4 226)">
<title>/home/travis/build/AliceO2Group/AliceO2/Detectors/Passive/src/Cave.cxx</title>
<!-- Node1 -->
<g id="node1" class="node"><title>Node1</title>
<polygon fill="#bfbfbf" stroke="black" points="559,-169 559,-221 677,-221 677,-169 559,-169"/>
<text text-anchor="start" x="567" y="-209" font-family="Helvetica,sans-Serif" font-size="10.00">/home/travis/build</text>
<text text-anchor="start" x="567" y="-198" font-family="Helvetica,sans-Serif" font-size="10.00">/AliceO2Group/AliceO2</text>
<text text-anchor="start" x="567" y="-187" font-family="Helvetica,sans-Serif" font-size="10.00">/Detectors/Passive/src</text>
<text text-anchor="middle" x="618" y="-176" font-family="Helvetica,sans-Serif" font-size="10.00">/Cave.cxx</text>
</g>
<!-- Node2 -->
<g id="node2" class="node"><title>Node2</title>
<g id="a_node2"><a xlink:href="../../d0/d9a/MaterialManager_8h.html" target="_top" xlink:title="DetectorsBase/MaterialManager.h">
<polygon fill="none" stroke="black" points="819.5,-56.5 819.5,-75.5 984.5,-75.5 984.5,-56.5 819.5,-56.5"/>
<text text-anchor="middle" x="902" y="-63.5" font-family="Helvetica,sans-Serif" font-size="10.00">DetectorsBase/MaterialManager.h</text>
</a>
</g>
</g>
<!-- Node1&#45;&gt;Node2 -->
<g id="edge1" class="edge"><title>Node1&#45;&gt;Node2</title>
<path fill="none" stroke="midnightblue" d="M605.058,-168.917C597.832,-151.029 592.683,-127.494 606,-112 613.027,-103.824 735.3,-87.3413 820.469,-76.7552"/>
<polygon fill="midnightblue" stroke="midnightblue" points="820.907,-80.2278 830.402,-75.5264 820.048,-73.2808 820.907,-80.2278"/>
</g>
<!-- Node5 -->
<g id="node5" class="node"><title>Node5</title>
<g id="a_node5"><a xlink:href="../../d1/d3a/Base_2include_2DetectorsBase_2Detector_8h.html" target="_top" xlink:title="DetectorsBase/Detector.h">
<polygon fill="none" stroke="black" points="426.5,-112.5 426.5,-131.5 557.5,-131.5 557.5,-112.5 426.5,-112.5"/>
<text text-anchor="middle" x="492" y="-119.5" font-family="Helvetica,sans-Serif" font-size="10.00">DetectorsBase/Detector.h</text>
</a>
</g>
</g>
<!-- Node1&#45;&gt;Node5 -->
<g id="edge4" class="edge"><title>Node1&#45;&gt;Node5</title>
<path fill="none" stroke="midnightblue" d="M573.577,-168.968C554.269,-158.088 532.404,-145.767 516.174,-136.622"/>
<polygon fill="midnightblue" stroke="midnightblue" points="517.761,-133.499 507.331,-131.639 514.325,-139.597 517.761,-133.499"/>
</g>
<!-- Node14 -->
<g id="node14" class="node"><title>Node14</title>
<g id="a_node14"><a xlink:href="../../d9/d6d/Cave_8h.html" target="_top" xlink:title="DetectorsPassive/Cave.h">
<polygon fill="none" stroke="black" points="72.5,-112.5 72.5,-131.5 201.5,-131.5 201.5,-112.5 72.5,-112.5"/>
<text text-anchor="middle" x="137" y="-119.5" font-family="Helvetica,sans-Serif" font-size="10.00">DetectorsPassive/Cave.h</text>
</a>
</g>
</g>
<!-- Node1&#45;&gt;Node14 -->
<g id="edge16" class="edge"><title>Node1&#45;&gt;Node14</title>
<path fill="none" stroke="midnightblue" d="M558.538,-185.223C468.807,-171.978 299.272,-146.953 204.843,-133.014"/>
<polygon fill="midnightblue" stroke="midnightblue" points="205.231,-129.534 194.827,-131.536 204.209,-136.459 205.231,-129.534"/>
</g>
<!-- Node16 -->
<g id="node16" class="node"><title>Node16</title>
<polygon fill="none" stroke="#bfbfbf" points="614.5,-112.5 614.5,-131.5 685.5,-131.5 685.5,-112.5 614.5,-112.5"/>
<text text-anchor="middle" x="650" y="-119.5" font-family="Helvetica,sans-Serif" font-size="10.00">FairLogger.h</text>
</g>
<!-- Node1&#45;&gt;Node16 -->
<g id="edge21" class="edge"><title>Node1&#45;&gt;Node16</title>
<path fill="none" stroke="midnightblue" d="M629.372,-168.768C633.51,-159.587 638.1,-149.403 641.897,-140.978"/>
<polygon fill="midnightblue" stroke="midnightblue" points="645.135,-142.312 646.053,-131.757 638.753,-139.436 645.135,-142.312"/>
</g>
<!-- Node17 -->
<g id="node17" class="node"><title>Node17</title>
<polygon fill="none" stroke="#bfbfbf" points="704,-112.5 704,-131.5 790,-131.5 790,-112.5 704,-112.5"/>
<text text-anchor="middle" x="747" y="-119.5" font-family="Helvetica,sans-Serif" font-size="10.00">TGeoManager.h</text>
</g>
<!-- Node1&#45;&gt;Node17 -->
<g id="edge22" class="edge"><title>Node1&#45;&gt;Node17</title>
<path fill="none" stroke="midnightblue" d="M663.481,-168.968C683.249,-158.088 705.634,-145.767 722.251,-136.622"/>
<polygon fill="midnightblue" stroke="midnightblue" points="724.231,-139.527 731.304,-131.639 720.856,-133.394 724.231,-139.527"/>
</g>
<!-- Node18 -->
<g id="node18" class="node"><title>Node18</title>
<polygon fill="none" stroke="#bfbfbf" points="808,-112.5 808,-131.5 890,-131.5 890,-112.5 808,-112.5"/>
<text text-anchor="middle" x="849" y="-119.5" font-family="Helvetica,sans-Serif" font-size="10.00">TGeoVolume.h</text>
</g>
<!-- Node1&#45;&gt;Node18 -->
<g id="edge23" class="edge"><title>Node1&#45;&gt;Node18</title>
<path fill="none" stroke="midnightblue" d="M677.188,-175.808C719.465,-162.814 775.069,-145.723 811.405,-134.555"/>
<polygon fill="midnightblue" stroke="midnightblue" points="812.585,-137.854 821.115,-131.571 810.528,-131.163 812.585,-137.854"/>
</g>
<!-- Node3 -->
<g id="node3" class="node"><title>Node3</title>
<polygon fill="none" stroke="#bfbfbf" points="256,-0.5 256,-19.5 312,-19.5 312,-0.5 256,-0.5"/>
<text text-anchor="middle" x="284" y="-7.5" font-family="Helvetica,sans-Serif" font-size="10.00">Rtypes.h</text>
</g>
<!-- Node2&#45;&gt;Node3 -->
<g id="edge2" class="edge"><title>Node2&#45;&gt;Node3</title>
<path fill="none" stroke="midnightblue" d="M819.295,-57.7734C683.949,-45.947 420.38,-22.9167 322.129,-14.3316"/>
<polygon fill="midnightblue" stroke="midnightblue" points="322.328,-10.8358 312.061,-13.452 321.719,-17.8092 322.328,-10.8358"/>
</g>
<!-- Node4 -->
<g id="node4" class="node"><title>Node4</title>
<polygon fill="none" stroke="#bfbfbf" points="828.5,-0.5 828.5,-19.5 863.5,-19.5 863.5,-0.5 828.5,-0.5"/>
<text text-anchor="middle" x="846" y="-7.5" font-family="Helvetica,sans-Serif" font-size="10.00">map</text>
</g>
<!-- Node2&#45;&gt;Node4 -->
<g id="edge3" class="edge"><title>Node2&#45;&gt;Node4</title>
<path fill="none" stroke="midnightblue" d="M893.003,-56.324C884.806,-48.4196 872.494,-36.5482 862.528,-26.9377"/>
<polygon fill="midnightblue" stroke="midnightblue" points="864.789,-24.2558 855.161,-19.8339 859.93,-29.2947 864.789,-24.2558"/>
</g>
<!-- Node5&#45;&gt;Node2 -->
<g id="edge10" class="edge"><title>Node5&#45;&gt;Node2</title>
<path fill="none" stroke="midnightblue" d="M556.966,-112.444C630.438,-102.767 749.881,-87.0351 827.188,-76.8533"/>
<polygon fill="midnightblue" stroke="midnightblue" points="827.881,-80.2923 837.338,-75.5164 826.967,-73.3523 827.881,-80.2923"/>
</g>
<!-- Node5&#45;&gt;Node3 -->
<g id="edge11" class="edge"><title>Node5&#45;&gt;Node3</title>
<path fill="none" stroke="midnightblue" d="M427.109,-112.424C380.1,-104.959 321.804,-92.7071 304,-76 291.364,-64.1425 286.643,-44.5169 284.915,-29.9274"/>
<polygon fill="midnightblue" stroke="midnightblue" points="288.37,-29.2369 284.076,-19.5513 281.393,-29.8007 288.37,-29.2369"/>
</g>
<!-- Node5&#45;&gt;Node4 -->
<g id="edge5" class="edge"><title>Node5&#45;&gt;Node4</title>
<path fill="none" stroke="midnightblue" d="M557.523,-114.616C627.746,-107.039 734.104,-93.2349 771,-76 795.5,-64.5556 818.147,-42.7149 832.006,-27.5256"/>
<polygon fill="midnightblue" stroke="midnightblue" points="834.762,-29.6923 838.757,-19.8796 829.514,-25.0592 834.762,-29.6923"/>
</g>
<!-- Node6 -->
<g id="node6" class="node"><title>Node6</title>
<polygon fill="none" stroke="#bfbfbf" points="115,-56.5 115,-75.5 159,-75.5 159,-56.5 115,-56.5"/>
<text text-anchor="middle" x="137" y="-63.5" font-family="Helvetica,sans-Serif" font-size="10.00">vector</text>
</g>
<!-- Node5&#45;&gt;Node6 -->
<g id="edge6" class="edge"><title>Node5&#45;&gt;Node6</title>
<path fill="none" stroke="midnightblue" d="M426.426,-114.915C362.67,-108.323 263.01,-96.2339 169.125,-76.2234"/>
<polygon fill="midnightblue" stroke="midnightblue" points="169.695,-72.7658 159.181,-74.069 168.213,-79.6071 169.695,-72.7658"/>
</g>
<!-- Node7 -->
<g id="node7" class="node"><title>Node7</title>
<polygon fill="none" stroke="#bfbfbf" points="372,-56.5 372,-75.5 424,-75.5 424,-56.5 372,-56.5"/>
<text text-anchor="middle" x="398" y="-63.5" font-family="Helvetica,sans-Serif" font-size="10.00">memory</text>
</g>
<!-- Node5&#45;&gt;Node7 -->
<g id="edge7" class="edge"><title>Node5&#45;&gt;Node7</title>
<path fill="none" stroke="midnightblue" d="M476.897,-112.324C462.097,-103.822 439.306,-90.7288 422.018,-80.7975"/>
<polygon fill="midnightblue" stroke="midnightblue" points="423.48,-77.6009 413.065,-75.6545 419.993,-83.6707 423.48,-77.6009"/>
</g>
<!-- Node8 -->
<g id="node8" class="node"><title>Node8</title>
<polygon fill="none" stroke="#bfbfbf" points="176.5,-56.5 176.5,-75.5 255.5,-75.5 255.5,-56.5 176.5,-56.5"/>
<text text-anchor="middle" x="216" y="-63.5" font-family="Helvetica,sans-Serif" font-size="10.00">FairDetector.h</text>
</g>
<!-- Node5&#45;&gt;Node8 -->
<g id="edge8" class="edge"><title>Node5&#45;&gt;Node8</title>
<path fill="none" stroke="midnightblue" d="M448.267,-112.444C398.534,-102.713 317.513,-86.8612 265.502,-76.6851"/>
<polygon fill="midnightblue" stroke="midnightblue" points="265.99,-73.2144 255.504,-74.729 264.646,-80.0841 265.99,-73.2144"/>
</g>
<!-- Node9 -->
<g id="node9" class="node"><title>Node9</title>
<polygon fill="none" stroke="#bfbfbf" points="442,-56.5 442,-75.5 542,-75.5 542,-56.5 442,-56.5"/>
<text text-anchor="middle" x="492" y="-63.5" font-family="Helvetica,sans-Serif" font-size="10.00">FairRootManager.h</text>
</g>
<!-- Node5&#45;&gt;Node9 -->
<g id="edge9" class="edge"><title>Node5&#45;&gt;Node9</title>
<path fill="none" stroke="midnightblue" d="M492,-112.083C492,-105.006 492,-94.8611 492,-85.9865"/>
<polygon fill="midnightblue" stroke="midnightblue" points="495.5,-85.751 492,-75.7511 488.5,-85.7511 495.5,-85.751"/>
</g>
<!-- Node10 -->
<g id="node10" class="node"><title>Node10</title>
<polygon fill="none" stroke="#bfbfbf" points="560.5,-56.5 560.5,-75.5 613.5,-75.5 613.5,-56.5 560.5,-56.5"/>
<text text-anchor="middle" x="587" y="-63.5" font-family="Helvetica,sans-Serif" font-size="10.00">cxxabi.h</text>
</g>
<!-- Node5&#45;&gt;Node10 -->
<g id="edge12" class="edge"><title>Node5&#45;&gt;Node10</title>
<path fill="none" stroke="midnightblue" d="M507.263,-112.324C522.221,-103.822 545.255,-90.7288 562.727,-80.7975"/>
<polygon fill="midnightblue" stroke="midnightblue" points="564.81,-83.639 571.774,-75.6545 561.351,-77.5534 564.81,-83.639"/>
</g>
<!-- Node11 -->
<g id="node11" class="node"><title>Node11</title>
<polygon fill="none" stroke="#bfbfbf" points="631.5,-56.5 631.5,-75.5 682.5,-75.5 682.5,-56.5 631.5,-56.5"/>
<text text-anchor="middle" x="657" y="-63.5" font-family="Helvetica,sans-Serif" font-size="10.00">typeinfo</text>
</g>
<!-- Node5&#45;&gt;Node11 -->
<g id="edge13" class="edge"><title>Node5&#45;&gt;Node11</title>
<path fill="none" stroke="midnightblue" d="M518.145,-112.444C546.105,-103.293 590.609,-88.7279 621.674,-78.5614"/>
<polygon fill="midnightblue" stroke="midnightblue" points="622.834,-81.8644 631.249,-75.4275 620.657,-75.2116 622.834,-81.8644"/>
</g>
<!-- Node12 -->
<g id="node12" class="node"><title>Node12</title>
<polygon fill="none" stroke="#bfbfbf" points="701,-56.5 701,-75.5 763,-75.5 763,-56.5 701,-56.5"/>
<text text-anchor="middle" x="732" y="-63.5" font-family="Helvetica,sans-Serif" font-size="10.00">type_traits</text>
</g>
<!-- Node5&#45;&gt;Node12 -->
<g id="edge14" class="edge"><title>Node5&#45;&gt;Node12</title>
<path fill="none" stroke="midnightblue" d="M530.029,-112.444C573.897,-102.573 645.762,-86.4035 690.893,-76.2491"/>
<polygon fill="midnightblue" stroke="midnightblue" points="691.662,-79.6635 700.65,-74.0537 690.126,-72.8343 691.662,-79.6635"/>
</g>
<!-- Node13 -->
<g id="node13" class="node"><title>Node13</title>
<polygon fill="none" stroke="#bfbfbf" points="312.5,-56.5 312.5,-75.5 353.5,-75.5 353.5,-56.5 312.5,-56.5"/>
<text text-anchor="middle" x="333" y="-63.5" font-family="Helvetica,sans-Serif" font-size="10.00">string</text>
</g>
<!-- Node5&#45;&gt;Node13 -->
<g id="edge15" class="edge"><title>Node5&#45;&gt;Node13</title>
<path fill="none" stroke="midnightblue" d="M466.806,-112.444C438.641,-102.878 393.058,-87.3969 363.055,-77.2075"/>
<polygon fill="midnightblue" stroke="midnightblue" points="364.12,-73.8728 353.526,-73.971 361.869,-80.501 364.12,-73.8728"/>
</g>
<!-- Node14&#45;&gt;Node3 -->
<g id="edge18" class="edge"><title>Node14&#45;&gt;Node3</title>
<path fill="none" stroke="midnightblue" d="M127.222,-112.347C113.586,-99.2325 92.0204,-73.9536 106,-56 122.977,-34.1967 198.61,-21.2852 245.657,-15.2225"/>
<polygon fill="midnightblue" stroke="midnightblue" points="246.31,-18.6684 255.803,-13.9636 245.448,-11.7216 246.31,-18.6684"/>
</g>
<!-- Node14&#45;&gt;Node6 -->
<g id="edge20" class="edge"><title>Node14&#45;&gt;Node6</title>
<path fill="none" stroke="midnightblue" d="M137,-112.083C137,-105.006 137,-94.8611 137,-85.9865"/>
<polygon fill="midnightblue" stroke="midnightblue" points="140.5,-85.751 137,-75.7511 133.5,-85.7511 140.5,-85.751"/>
</g>
<!-- Node14&#45;&gt;Node8 -->
<g id="edge17" class="edge"><title>Node14&#45;&gt;Node8</title>
<path fill="none" stroke="midnightblue" d="M149.693,-112.324C161.901,-103.979 180.578,-91.2122 195.003,-81.3524"/>
<polygon fill="midnightblue" stroke="midnightblue" points="197.058,-84.1871 203.339,-75.6545 193.108,-78.4082 197.058,-84.1871"/>
</g>
<!-- Node15 -->
<g id="node15" class="node"><title>Node15</title>
<polygon fill="none" stroke="#bfbfbf" points="-0.5,-56.5 -0.5,-75.5 58.5,-75.5 58.5,-56.5 -0.5,-56.5"/>
<text text-anchor="middle" x="29" y="-63.5" font-family="Helvetica,sans-Serif" font-size="10.00">functional</text>
</g>
<!-- Node14&#45;&gt;Node15 -->
<g id="edge19" class="edge"><title>Node14&#45;&gt;Node15</title>
<path fill="none" stroke="midnightblue" d="M119.648,-112.324C102.328,-103.664 75.4847,-90.2424 55.4981,-80.249"/>
<polygon fill="midnightblue" stroke="midnightblue" points="56.8186,-76.9962 46.309,-75.6545 53.688,-83.2572 56.8186,-76.9962"/>
</g>
</g>
</svg>
