<?xml version="1.0" encoding="UTF-8" standalone="no"?>
<!DOCTYPE svg PUBLIC "-//W3C//DTD SVG 1.1//EN"
 "http://www.w3.org/Graphics/SVG/1.1/DTD/svg11.dtd">
<!-- Generated by graphviz version 2.36.0 (20140111.2315)
 -->
<!-- Title: /home/travis/build/AliceO2Group/AliceO2/Detectors/TOF/simulation/include/TOFSimulation/Digitizer.h Pages: 1 -->
<svg width="2023pt" height="402pt"
 viewBox="0.00 0.00 2023.00 402.00" xmlns="http://www.w3.org/2000/svg" xmlns:xlink="http://www.w3.org/1999/xlink">
<g id="graph0" class="graph" transform="scale(1 1) rotate(0) translate(4 398)">
<title>/home/travis/build/AliceO2Group/AliceO2/Detectors/TOF/simulation/include/TOFSimulation/Digitizer.h</title>
<!-- Node1 -->
<g id="node1" class="node"><title>Node1</title>
<polygon fill="#bfbfbf" stroke="black" points="551,-341 551,-393 717,-393 717,-341 551,-341"/>
<text text-anchor="start" x="559" y="-381" font-family="Helvetica,sans-Serif" font-size="10.00">/home/travis/build</text>
<text text-anchor="start" x="559" y="-370" font-family="Helvetica,sans-Serif" font-size="10.00">/AliceO2Group/AliceO2</text>
<text text-anchor="start" x="559" y="-359" font-family="Helvetica,sans-Serif" font-size="10.00">/Detectors/TOF/simulation</text>
<text text-anchor="middle" x="634" y="-348" font-family="Helvetica,sans-Serif" font-size="10.00">/include/TOFSimulation/Digitizer.h</text>
</g>
<!-- Node2 -->
<g id="node2" class="node"><title>Node2</title>
<g id="a_node2"><a xlink:href="../../d4/d54/Geo_8h.html" target="_top" xlink:title="TOFBase/Geo.h">
<polygon fill="none" stroke="black" points="590,-210.5 590,-229.5 678,-229.5 678,-210.5 590,-210.5"/>
<text text-anchor="middle" x="634" y="-217.5" font-family="Helvetica,sans-Serif" font-size="10.00">TOFBase/Geo.h</text>
</a>
</g>
</g>
<!-- Node1&#45;&gt;Node2 -->
<g id="edge1" class="edge"><title>Node1&#45;&gt;Node2</title>
<path fill="none" stroke="midnightblue" d="M634,-340.743C634,-312.035 634,-265.822 634,-240.007"/>
<polygon fill="midnightblue" stroke="midnightblue" points="637.5,-239.717 634,-229.717 630.5,-239.717 637.5,-239.717"/>
</g>
<!-- Node4 -->
<g id="node4" class="node"><title>Node4</title>
<g id="a_node4"><a xlink:href="../../df/d9c/TOF_2base_2include_2TOFBase_2Digit_8h.html" target="_top" xlink:title="TOFBase/Digit.h">
<polygon fill="none" stroke="black" points="210,-210.5 210,-229.5 300,-229.5 300,-210.5 210,-210.5"/>
<text text-anchor="middle" x="255" y="-217.5" font-family="Helvetica,sans-Serif" font-size="10.00">TOFBase/Digit.h</text>
</a>
</g>
</g>
<!-- Node1&#45;&gt;Node4 -->
<g id="edge3" class="edge"><title>Node1&#45;&gt;Node4</title>
<path fill="none" stroke="midnightblue" d="M568.416,-340.908C486.333,-309.505 349.013,-256.968 287.053,-233.263"/>
<polygon fill="midnightblue" stroke="midnightblue" points="288.019,-229.885 277.428,-229.581 285.517,-236.423 288.019,-229.885"/>
</g>
<!-- Node8 -->
<g id="node8" class="node"><title>Node8</title>
<g id="a_node8"><a xlink:href="../../d5/d3c/TOF_2simulation_2include_2TOFSimulation_2Detector_8h.html" target="_top" xlink:title="TOFSimulation/Detector.h">
<polygon fill="none" stroke="black" points="768.5,-278.5 768.5,-297.5 899.5,-297.5 899.5,-278.5 768.5,-278.5"/>
<text text-anchor="middle" x="834" y="-285.5" font-family="Helvetica,sans-Serif" font-size="10.00">TOFSimulation/Detector.h</text>
</a>
</g>
</g>
<!-- Node1&#45;&gt;Node8 -->
<g id="edge9" class="edge"><title>Node1&#45;&gt;Node8</title>
<path fill="none" stroke="midnightblue" d="M699.211,-340.894C733.729,-327.604 774.565,-311.883 802.171,-301.254"/>
<polygon fill="midnightblue" stroke="midnightblue" points="803.633,-304.442 811.707,-297.583 801.118,-297.909 803.633,-304.442"/>
</g>
<!-- Node32 -->
<g id="node32" class="node"><title>Node32</title>
<g id="a_node32"><a xlink:href="../../db/d14/MCTruthContainer_8h.html" target="_top" xlink:title="Definition of a container to keep Monte Carlo truth external to simulation objects. ">
<polygon fill="none" stroke="black" points="1413,-273 1413,-303 1527,-303 1527,-273 1413,-273"/>
<text text-anchor="start" x="1421" y="-291" font-family="Helvetica,sans-Serif" font-size="10.00">SimulationDataFormat</text>
<text text-anchor="middle" x="1470" y="-280" font-family="Helvetica,sans-Serif" font-size="10.00">/MCTruthContainer.h</text>
</a>
</g>
</g>
<!-- Node1&#45;&gt;Node32 -->
<g id="edge38" class="edge"><title>Node1&#45;&gt;Node32</title>
<path fill="none" stroke="midnightblue" d="M717.215,-358.335C882.944,-343.071 1251.3,-309.143 1402.87,-295.183"/>
<polygon fill="midnightblue" stroke="midnightblue" points="1403.33,-298.656 1412.96,-294.253 1402.69,-291.685 1403.33,-298.656"/>
</g>
<!-- Node37 -->
<g id="node37" class="node"><title>Node37</title>
<g id="a_node37"><a xlink:href="../../df/d71/MCLabel_8h.html" target="_top" xlink:title="TOFSimulation/MCLabel.h">
<polygon fill="none" stroke="black" points="135,-278.5 135,-297.5 267,-297.5 267,-278.5 135,-278.5"/>
<text text-anchor="middle" x="201" y="-285.5" font-family="Helvetica,sans-Serif" font-size="10.00">TOFSimulation/MCLabel.h</text>
</a>
</g>
</g>
<!-- Node1&#45;&gt;Node37 -->
<g id="edge44" class="edge"><title>Node1&#45;&gt;Node37</title>
<path fill="none" stroke="midnightblue" d="M550.77,-351.199C465.25,-335.991 334.324,-312.709 259.274,-299.363"/>
<polygon fill="midnightblue" stroke="midnightblue" points="259.524,-295.853 249.066,-297.548 258.299,-302.744 259.524,-295.853"/>
</g>
<!-- Node3 -->
<g id="node3" class="node"><title>Node3</title>
<polygon fill="none" stroke="#bfbfbf" points="391,-74.5 391,-93.5 447,-93.5 447,-74.5 391,-74.5"/>
<text text-anchor="middle" x="419" y="-81.5" font-family="Helvetica,sans-Serif" font-size="10.00">Rtypes.h</text>
</g>
<!-- Node2&#45;&gt;Node3 -->
<g id="edge2" class="edge"><title>Node2&#45;&gt;Node3</title>
<path fill="none" stroke="midnightblue" d="M589.552,-212.86C538.42,-204.897 458.819,-189.443 438,-168 421.457,-150.961 418.194,-122.62 418.059,-103.873"/>
<polygon fill="midnightblue" stroke="midnightblue" points="421.564,-103.702 418.288,-93.6264 414.566,-103.546 421.564,-103.702"/>
</g>
<!-- Node4&#45;&gt;Node3 -->
<g id="edge7" class="edge"><title>Node4&#45;&gt;Node3</title>
<path fill="none" stroke="midnightblue" d="M209.769,-215.033C151.856,-208.908 56.4051,-194.935 35,-168 26.1515,-156.866 25.6287,-146.698 35,-136 57.6146,-110.183 288.325,-93.1111 380.884,-87.253"/>
<polygon fill="midnightblue" stroke="midnightblue" points="381.187,-90.7409 390.95,-86.6258 380.751,-83.7545 381.187,-90.7409"/>
</g>
<!-- Node5 -->
<g id="node5" class="node"><title>Node5</title>
<g id="a_node5"><a xlink:href="../../df/d5d/common_2include_2CommonDataFormat_2TimeStamp_8h.html" target="_top" xlink:title="CommonDataFormat/TimeStamp.h">
<polygon fill="none" stroke="black" points="44,-142.5 44,-161.5 214,-161.5 214,-142.5 44,-142.5"/>
<text text-anchor="middle" x="129" y="-149.5" font-family="Helvetica,sans-Serif" font-size="10.00">CommonDataFormat/TimeStamp.h</text>
</a>
</g>
</g>
<!-- Node4&#45;&gt;Node5 -->
<g id="edge4" class="edge"><title>Node4&#45;&gt;Node5</title>
<path fill="none" stroke="midnightblue" d="M238.528,-210.372C217.115,-199.156 179.501,-179.453 154.417,-166.314"/>
<polygon fill="midnightblue" stroke="midnightblue" points="155.959,-163.17 145.476,-161.63 152.711,-169.371 155.959,-163.17"/>
</g>
<!-- Node6 -->
<g id="node6" class="node"><title>Node6</title>
<polygon fill="none" stroke="#bfbfbf" points="232.5,-142.5 232.5,-161.5 277.5,-161.5 277.5,-142.5 232.5,-142.5"/>
<text text-anchor="middle" x="255" y="-149.5" font-family="Helvetica,sans-Serif" font-size="10.00">iosfwd</text>
</g>
<!-- Node4&#45;&gt;Node6 -->
<g id="edge6" class="edge"><title>Node4&#45;&gt;Node6</title>
<path fill="none" stroke="midnightblue" d="M255,-210.372C255,-200.643 255,-184.528 255,-171.85"/>
<polygon fill="midnightblue" stroke="midnightblue" points="258.5,-171.841 255,-161.841 251.5,-171.841 258.5,-171.841"/>
</g>
<!-- Node7 -->
<g id="node7" class="node"><title>Node7</title>
<polygon fill="none" stroke="#bfbfbf" points="295.5,-137 295.5,-167 390.5,-167 390.5,-137 295.5,-137"/>
<text text-anchor="start" x="303.5" y="-155" font-family="Helvetica,sans-Serif" font-size="10.00">boost/serialization</text>
<text text-anchor="middle" x="343" y="-144" font-family="Helvetica,sans-Serif" font-size="10.00">/base_object.hpp</text>
</g>
<!-- Node4&#45;&gt;Node7 -->
<g id="edge8" class="edge"><title>Node4&#45;&gt;Node7</title>
<path fill="none" stroke="midnightblue" d="M266.504,-210.372C278.962,-201.029 299.271,-185.797 315.833,-173.375"/>
<polygon fill="midnightblue" stroke="midnightblue" points="318.191,-175.981 324.091,-167.181 313.991,-170.381 318.191,-175.981"/>
</g>
<!-- Node5&#45;&gt;Node3 -->
<g id="edge5" class="edge"><title>Node5&#45;&gt;Node3</title>
<path fill="none" stroke="midnightblue" d="M166.615,-142.439C222.017,-129.831 325.003,-106.393 380.76,-93.7029"/>
<polygon fill="midnightblue" stroke="midnightblue" points="381.625,-97.0955 390.599,-91.4636 380.072,-90.2701 381.625,-97.0955"/>
</g>
<!-- Node8&#45;&gt;Node2 -->
<g id="edge24" class="edge"><title>Node8&#45;&gt;Node2</title>
<path fill="none" stroke="midnightblue" d="M807.853,-278.372C772.421,-266.679 709.037,-245.762 669.377,-232.674"/>
<polygon fill="midnightblue" stroke="midnightblue" points="670.429,-229.336 659.836,-229.526 668.235,-235.983 670.429,-229.336"/>
</g>
<!-- Node9 -->
<g id="node9" class="node"><title>Node9</title>
<g id="a_node9"><a xlink:href="../../d1/d3a/Base_2include_2DetectorsBase_2Detector_8h.html" target="_top" xlink:title="DetectorsBase/Detector.h">
<polygon fill="none" stroke="black" points="785.5,-210.5 785.5,-229.5 916.5,-229.5 916.5,-210.5 785.5,-210.5"/>
<text text-anchor="middle" x="851" y="-217.5" font-family="Helvetica,sans-Serif" font-size="10.00">DetectorsBase/Detector.h</text>
</a>
</g>
</g>
<!-- Node8&#45;&gt;Node9 -->
<g id="edge10" class="edge"><title>Node8&#45;&gt;Node9</title>
<path fill="none" stroke="midnightblue" d="M836.222,-278.372C838.728,-268.643 842.879,-252.528 846.145,-239.85"/>
<polygon fill="midnightblue" stroke="midnightblue" points="849.618,-240.398 848.723,-229.841 842.839,-238.652 849.618,-240.398"/>
</g>
<!-- Node20 -->
<g id="node20" class="node"><title>Node20</title>
<g id="a_node20"><a xlink:href="../../d4/d25/BaseHits_8h.html" target="_top" xlink:title="SimulationDataFormat\l/BaseHits.h">
<polygon fill="none" stroke="black" points="1124,-205 1124,-235 1238,-235 1238,-205 1124,-205"/>
<text text-anchor="start" x="1132" y="-223" font-family="Helvetica,sans-Serif" font-size="10.00">SimulationDataFormat</text>
<text text-anchor="middle" x="1181" y="-212" font-family="Helvetica,sans-Serif" font-size="10.00">/BaseHits.h</text>
</a>
</g>
</g>
<!-- Node8&#45;&gt;Node20 -->
<g id="edge25" class="edge"><title>Node8&#45;&gt;Node20</title>
<path fill="none" stroke="midnightblue" d="M879.008,-278.439C938.784,-267.07 1044.85,-246.895 1114.04,-233.736"/>
<polygon fill="midnightblue" stroke="midnightblue" points="1114.8,-237.154 1123.97,-231.847 1113.49,-230.277 1114.8,-237.154"/>
</g>
<!-- Node9&#45;&gt;Node3 -->
<g id="edge19" class="edge"><title>Node9&#45;&gt;Node3</title>
<path fill="none" stroke="midnightblue" d="M785.254,-213.991C734.685,-208.103 664.19,-195.378 608,-168 588.151,-158.329 589.239,-146.833 570,-136 533.884,-115.665 488.336,-101.666 456.758,-93.551"/>
<polygon fill="midnightblue" stroke="midnightblue" points="457.576,-90.1478 447.026,-91.1222 455.881,-96.9395 457.576,-90.1478"/>
</g>
<!-- Node10 -->
<g id="node10" class="node"><title>Node10</title>
<polygon fill="none" stroke="#bfbfbf" points="782.5,-74.5 782.5,-93.5 817.5,-93.5 817.5,-74.5 782.5,-74.5"/>
<text text-anchor="middle" x="800" y="-81.5" font-family="Helvetica,sans-Serif" font-size="10.00">map</text>
</g>
<!-- Node9&#45;&gt;Node10 -->
<g id="edge11" class="edge"><title>Node9&#45;&gt;Node10</title>
<path fill="none" stroke="midnightblue" d="M916.586,-214.175C1013.95,-206.338 1187.34,-189.527 1206,-168 1215.31,-157.252 1215.56,-146.527 1206,-136 1149.86,-74.1962 912.533,-122.041 832,-100 829.653,-99.3577 827.266,-98.5544 824.906,-97.6555"/>
<polygon fill="midnightblue" stroke="midnightblue" points="826.109,-94.362 815.542,-93.5889 823.32,-100.783 826.109,-94.362"/>
</g>
<!-- Node11 -->
<g id="node11" class="node"><title>Node11</title>
<polygon fill="none" stroke="#bfbfbf" points="447,-142.5 447,-161.5 491,-161.5 491,-142.5 447,-142.5"/>
<text text-anchor="middle" x="469" y="-149.5" font-family="Helvetica,sans-Serif" font-size="10.00">vector</text>
</g>
<!-- Node9&#45;&gt;Node11 -->
<g id="edge12" class="edge"><title>Node9&#45;&gt;Node11</title>
<path fill="none" stroke="midnightblue" d="M785.138,-211.866C698.699,-202.084 551.882,-183.905 500,-168 497.864,-167.345 495.69,-166.562 493.536,-165.701"/>
<polygon fill="midnightblue" stroke="midnightblue" points="494.948,-162.499 484.392,-161.596 492.081,-168.884 494.948,-162.499"/>
</g>
<!-- Node12 -->
<g id="node12" class="node"><title>Node12</title>
<polygon fill="none" stroke="#bfbfbf" points="509,-142.5 509,-161.5 561,-161.5 561,-142.5 509,-142.5"/>
<text text-anchor="middle" x="535" y="-149.5" font-family="Helvetica,sans-Serif" font-size="10.00">memory</text>
</g>
<!-- Node9&#45;&gt;Node12 -->
<g id="edge13" class="edge"><title>Node9&#45;&gt;Node12</title>
<path fill="none" stroke="midnightblue" d="M787.249,-210.478C730.84,-202.168 646.603,-187.874 575,-168 571.856,-167.127 568.61,-166.111 565.392,-165.027"/>
<polygon fill="midnightblue" stroke="midnightblue" points="566.539,-161.721 555.945,-161.646 564.18,-168.311 566.539,-161.721"/>
</g>
<!-- Node13 -->
<g id="node13" class="node"><title>Node13</title>
<polygon fill="none" stroke="#bfbfbf" points="617.5,-142.5 617.5,-161.5 696.5,-161.5 696.5,-142.5 617.5,-142.5"/>
<text text-anchor="middle" x="657" y="-149.5" font-family="Helvetica,sans-Serif" font-size="10.00">FairDetector.h</text>
</g>
<!-- Node9&#45;&gt;Node13 -->
<g id="edge14" class="edge"><title>Node9&#45;&gt;Node13</title>
<path fill="none" stroke="midnightblue" d="M825.638,-210.372C791.414,-198.728 730.307,-177.939 691.806,-164.841"/>
<polygon fill="midnightblue" stroke="midnightblue" points="692.655,-161.433 682.061,-161.526 690.401,-168.06 692.655,-161.433"/>
</g>
<!-- Node14 -->
<g id="node14" class="node"><title>Node14</title>
<polygon fill="none" stroke="#bfbfbf" points="898,-142.5 898,-161.5 998,-161.5 998,-142.5 898,-142.5"/>
<text text-anchor="middle" x="948" y="-149.5" font-family="Helvetica,sans-Serif" font-size="10.00">FairRootManager.h</text>
</g>
<!-- Node9&#45;&gt;Node14 -->
<g id="edge15" class="edge"><title>Node9&#45;&gt;Node14</title>
<path fill="none" stroke="midnightblue" d="M863.681,-210.372C879.729,-199.452 907.6,-180.489 926.882,-167.369"/>
<polygon fill="midnightblue" stroke="midnightblue" points="929.017,-170.15 935.316,-161.63 925.079,-164.362 929.017,-170.15"/>
</g>
<!-- Node15 -->
<g id="node15" class="node"><title>Node15</title>
<g id="a_node15"><a xlink:href="../../d0/d9a/MaterialManager_8h.html" target="_top" xlink:title="DetectorsBase/MaterialManager.h">
<polygon fill="none" stroke="black" points="714.5,-142.5 714.5,-161.5 879.5,-161.5 879.5,-142.5 714.5,-142.5"/>
<text text-anchor="middle" x="797" y="-149.5" font-family="Helvetica,sans-Serif" font-size="10.00">DetectorsBase/MaterialManager.h</text>
</a>
</g>
</g>
<!-- Node9&#45;&gt;Node15 -->
<g id="edge16" class="edge"><title>Node9&#45;&gt;Node15</title>
<path fill="none" stroke="midnightblue" d="M843.94,-210.372C835.498,-200.053 821.178,-182.551 810.57,-169.585"/>
<polygon fill="midnightblue" stroke="midnightblue" points="813.275,-167.364 804.234,-161.841 807.857,-171.797 813.275,-167.364"/>
</g>
<!-- Node16 -->
<g id="node16" class="node"><title>Node16</title>
<polygon fill="none" stroke="#bfbfbf" points="1016.5,-142.5 1016.5,-161.5 1069.5,-161.5 1069.5,-142.5 1016.5,-142.5"/>
<text text-anchor="middle" x="1043" y="-149.5" font-family="Helvetica,sans-Serif" font-size="10.00">cxxabi.h</text>
</g>
<!-- Node9&#45;&gt;Node16 -->
<g id="edge20" class="edge"><title>Node9&#45;&gt;Node16</title>
<path fill="none" stroke="midnightblue" d="M879.413,-210.45C910.858,-200.816 962.923,-184.359 1007,-168 1009.25,-167.165 1011.57,-166.274 1013.89,-165.358"/>
<polygon fill="midnightblue" stroke="midnightblue" points="1015.36,-168.539 1023.31,-161.535 1012.72,-162.054 1015.36,-168.539"/>
</g>
<!-- Node17 -->
<g id="node17" class="node"><title>Node17</title>
<polygon fill="none" stroke="#bfbfbf" points="1087.5,-142.5 1087.5,-161.5 1138.5,-161.5 1138.5,-142.5 1087.5,-142.5"/>
<text text-anchor="middle" x="1113" y="-149.5" font-family="Helvetica,sans-Serif" font-size="10.00">typeinfo</text>
</g>
<!-- Node9&#45;&gt;Node17 -->
<g id="edge21" class="edge"><title>Node9&#45;&gt;Node17</title>
<path fill="none" stroke="midnightblue" d="M901.305,-210.449C947.781,-201.905 1018.43,-187.275 1078,-168 1080.42,-167.216 1082.91,-166.329 1085.38,-165.387"/>
<polygon fill="midnightblue" stroke="midnightblue" points="1086.77,-168.6 1094.72,-161.587 1084.13,-162.116 1086.77,-168.6"/>
</g>
<!-- Node18 -->
<g id="node18" class="node"><title>Node18</title>
<polygon fill="none" stroke="#bfbfbf" points="1397,-142.5 1397,-161.5 1459,-161.5 1459,-142.5 1397,-142.5"/>
<text text-anchor="middle" x="1428" y="-149.5" font-family="Helvetica,sans-Serif" font-size="10.00">type_traits</text>
</g>
<!-- Node9&#45;&gt;Node18 -->
<g id="edge22" class="edge"><title>Node9&#45;&gt;Node18</title>
<path fill="none" stroke="midnightblue" d="M916.56,-214.945C1039.44,-206.986 1299.94,-188.315 1388,-168 1391.5,-167.192 1395.11,-166.152 1398.66,-164.997"/>
<polygon fill="midnightblue" stroke="midnightblue" points="1400.13,-168.189 1408.38,-161.535 1397.79,-161.595 1400.13,-168.189"/>
</g>
<!-- Node19 -->
<g id="node19" class="node"><title>Node19</title>
<polygon fill="none" stroke="#bfbfbf" points="1156.5,-142.5 1156.5,-161.5 1197.5,-161.5 1197.5,-142.5 1156.5,-142.5"/>
<text text-anchor="middle" x="1177" y="-149.5" font-family="Helvetica,sans-Serif" font-size="10.00">string</text>
</g>
<!-- Node9&#45;&gt;Node19 -->
<g id="edge23" class="edge"><title>Node9&#45;&gt;Node19</title>
<path fill="none" stroke="midnightblue" d="M916.711,-213.251C977.594,-206.628 1070.08,-193.246 1147,-168 1148.91,-167.374 1150.85,-166.643 1152.77,-165.849"/>
<polygon fill="midnightblue" stroke="midnightblue" points="1154.5,-168.905 1162.11,-161.524 1151.56,-162.554 1154.5,-168.905"/>
</g>
<!-- Node15&#45;&gt;Node3 -->
<g id="edge17" class="edge"><title>Node15&#45;&gt;Node3</title>
<path fill="none" stroke="midnightblue" d="M747.971,-142.439C671.778,-129.136 526.539,-103.777 457.411,-91.7067"/>
<polygon fill="midnightblue" stroke="midnightblue" points="457.84,-88.2287 447.387,-89.9564 456.636,-95.1243 457.84,-88.2287"/>
</g>
<!-- Node15&#45;&gt;Node10 -->
<g id="edge18" class="edge"><title>Node15&#45;&gt;Node10</title>
<path fill="none" stroke="midnightblue" d="M797.392,-142.372C797.834,-132.643 798.567,-116.528 799.143,-103.85"/>
<polygon fill="midnightblue" stroke="midnightblue" points="802.64,-103.99 799.598,-93.8411 795.648,-103.672 802.64,-103.99"/>
</g>
<!-- Node21 -->
<g id="node21" class="node"><title>Node21</title>
<g id="a_node21"><a xlink:href="../../dd/d76/Cartesian3D_8h.html" target="_top" xlink:title="MathUtils/Cartesian3D.h">
<polygon fill="none" stroke="black" points="1254.5,-142.5 1254.5,-161.5 1379.5,-161.5 1379.5,-142.5 1254.5,-142.5"/>
<text text-anchor="middle" x="1317" y="-149.5" font-family="Helvetica,sans-Serif" font-size="10.00">MathUtils/Cartesian3D.h</text>
</a>
</g>
</g>
<!-- Node20&#45;&gt;Node21 -->
<g id="edge26" class="edge"><title>Node20&#45;&gt;Node21</title>
<path fill="none" stroke="midnightblue" d="M1210.18,-204.841C1233.8,-193.374 1266.84,-177.342 1289.9,-166.153"/>
<polygon fill="midnightblue" stroke="midnightblue" points="1291.64,-169.197 1299.11,-161.682 1288.59,-162.899 1291.64,-169.197"/>
</g>
<!-- Node21&#45;&gt;Node3 -->
<g id="edge32" class="edge"><title>Node21&#45;&gt;Node3</title>
<path fill="none" stroke="midnightblue" d="M1259.76,-142.491C1242.51,-140.135 1223.51,-137.748 1206,-136 918.977,-107.342 571.378,-91.3127 457.285,-86.535"/>
<polygon fill="midnightblue" stroke="midnightblue" points="457.428,-83.038 447.292,-86.1204 457.138,-90.032 457.428,-83.038"/>
</g>
<!-- Node22 -->
<g id="node22" class="node"><title>Node22</title>
<polygon fill="none" stroke="#bfbfbf" points="1056.5,-69 1056.5,-99 1207.5,-99 1207.5,-69 1056.5,-69"/>
<text text-anchor="start" x="1064.5" y="-87" font-family="Helvetica,sans-Serif" font-size="10.00">Math/GenVector/Displacement</text>
<text text-anchor="middle" x="1132" y="-76" font-family="Helvetica,sans-Serif" font-size="10.00">Vector3D.h</text>
</g>
<!-- Node21&#45;&gt;Node22 -->
<g id="edge27" class="edge"><title>Node21&#45;&gt;Node22</title>
<path fill="none" stroke="midnightblue" d="M1292.81,-142.372C1264.61,-132.311 1217.27,-115.422 1181.24,-102.566"/>
<polygon fill="midnightblue" stroke="midnightblue" points="1181.99,-99.1199 1171.4,-99.0562 1179.64,-105.713 1181.99,-99.1199"/>
</g>
<!-- Node23 -->
<g id="node23" class="node"><title>Node23</title>
<polygon fill="none" stroke="#bfbfbf" points="1226,-74.5 1226,-93.5 1402,-93.5 1402,-74.5 1226,-74.5"/>
<text text-anchor="middle" x="1314" y="-81.5" font-family="Helvetica,sans-Serif" font-size="10.00">Math/GenVector/PositionVector3D.h</text>
</g>
<!-- Node21&#45;&gt;Node23 -->
<g id="edge28" class="edge"><title>Node21&#45;&gt;Node23</title>
<path fill="none" stroke="midnightblue" d="M1316.61,-142.372C1316.17,-132.643 1315.43,-116.528 1314.86,-103.85"/>
<polygon fill="midnightblue" stroke="midnightblue" points="1318.35,-103.672 1314.4,-93.8411 1311.36,-103.99 1318.35,-103.672"/>
</g>
<!-- Node24 -->
<g id="node24" class="node"><title>Node24</title>
<polygon fill="none" stroke="#bfbfbf" points="1419.5,-74.5 1419.5,-93.5 1568.5,-93.5 1568.5,-74.5 1419.5,-74.5"/>
<text text-anchor="middle" x="1494" y="-81.5" font-family="Helvetica,sans-Serif" font-size="10.00">Math/GenVector/Rotation3D.h</text>
</g>
<!-- Node21&#45;&gt;Node24 -->
<g id="edge29" class="edge"><title>Node21&#45;&gt;Node24</title>
<path fill="none" stroke="midnightblue" d="M1340.14,-142.372C1371.1,-130.827 1426.17,-110.293 1461.34,-97.1772"/>
<polygon fill="midnightblue" stroke="midnightblue" points="1462.99,-100.299 1471.14,-93.5259 1460.54,-93.7403 1462.99,-100.299"/>
</g>
<!-- Node25 -->
<g id="node25" class="node"><title>Node25</title>
<polygon fill="none" stroke="#bfbfbf" points="1587,-74.5 1587,-93.5 1743,-93.5 1743,-74.5 1587,-74.5"/>
<text text-anchor="middle" x="1665" y="-81.5" font-family="Helvetica,sans-Serif" font-size="10.00">Math/GenVector/Transform3D.h</text>
</g>
<!-- Node21&#45;&gt;Node25 -->
<g id="edge30" class="edge"><title>Node21&#45;&gt;Node25</title>
<path fill="none" stroke="midnightblue" d="M1356.4,-142.486C1366.67,-140.317 1377.74,-138.028 1388,-136 1463.19,-121.138 1550.15,-105.356 1606.28,-95.3524"/>
<polygon fill="midnightblue" stroke="midnightblue" points="1607.16,-98.751 1616.39,-93.5533 1605.93,-91.8592 1607.16,-98.751"/>
</g>
<!-- Node26 -->
<g id="node26" class="node"><title>Node26</title>
<polygon fill="none" stroke="#bfbfbf" points="1761,-74.5 1761,-93.5 1921,-93.5 1921,-74.5 1761,-74.5"/>
<text text-anchor="middle" x="1841" y="-81.5" font-family="Helvetica,sans-Serif" font-size="10.00">Math/GenVector/Translation3D.h</text>
</g>
<!-- Node21&#45;&gt;Node26 -->
<g id="edge31" class="edge"><title>Node21&#45;&gt;Node26</title>
<path fill="none" stroke="midnightblue" d="M1353.71,-142.444C1364.69,-140.101 1376.79,-137.732 1388,-136 1548.66,-111.161 1590.86,-121.522 1752,-100 1762.36,-98.6166 1773.36,-96.9361 1783.96,-95.2071"/>
<polygon fill="midnightblue" stroke="midnightblue" points="1784.69,-98.635 1793.98,-93.5427 1783.54,-91.7298 1784.69,-98.635"/>
</g>
<!-- Node27 -->
<g id="node27" class="node"><title>Node27</title>
<polygon fill="none" stroke="#bfbfbf" points="1939,-74.5 1939,-93.5 2015,-93.5 2015,-74.5 1939,-74.5"/>
<text text-anchor="middle" x="1977" y="-81.5" font-family="Helvetica,sans-Serif" font-size="10.00">TGeoMatrix.h</text>
</g>
<!-- Node21&#45;&gt;Node27 -->
<g id="edge33" class="edge"><title>Node21&#45;&gt;Node27</title>
<path fill="none" stroke="midnightblue" d="M1352.58,-142.45C1363.85,-140.021 1376.39,-137.603 1388,-136 1627.15,-102.966 1692.82,-145.032 1930,-100 1934.57,-99.1318 1939.32,-97.9562 1943.97,-96.6429"/>
<polygon fill="midnightblue" stroke="midnightblue" points="1945.32,-99.8884 1953.86,-93.6138 1943.27,-93.1952 1945.32,-99.8884"/>
</g>
<!-- Node28 -->
<g id="node28" class="node"><title>Node28</title>
<polygon fill="none" stroke="#bfbfbf" points="841,-74.5 841,-93.5 895,-93.5 895,-74.5 841,-74.5"/>
<text text-anchor="middle" x="868" y="-81.5" font-family="Helvetica,sans-Serif" font-size="10.00">iostream</text>
</g>
<!-- Node21&#45;&gt;Node28 -->
<g id="edge34" class="edge"><title>Node21&#45;&gt;Node28</title>
<path fill="none" stroke="midnightblue" d="M1276.75,-142.484C1264.94,-140.169 1251.99,-137.806 1240,-136 1091.49,-113.621 1049.49,-137.268 904,-100 901.014,-99.235 897.951,-98.2676 894.933,-97.1941"/>
<polygon fill="midnightblue" stroke="midnightblue" points="896.183,-93.9249 885.596,-93.5207 893.62,-100.439 896.183,-93.9249"/>
</g>
<!-- Node29 -->
<g id="node29" class="node"><title>Node29</title>
<g id="a_node29"><a xlink:href="../../d2/dd0/Cartesian2D_8h.html" target="_top" xlink:title="MathUtils/Cartesian2D.h">
<polygon fill="none" stroke="black" points="913.5,-74.5 913.5,-93.5 1038.5,-93.5 1038.5,-74.5 913.5,-74.5"/>
<text text-anchor="middle" x="976" y="-81.5" font-family="Helvetica,sans-Serif" font-size="10.00">MathUtils/Cartesian2D.h</text>
</a>
</g>
</g>
<!-- Node21&#45;&gt;Node29 -->
<g id="edge35" class="edge"><title>Node21&#45;&gt;Node29</title>
<path fill="none" stroke="midnightblue" d="M1273.44,-142.451C1262.52,-140.326 1250.84,-138.066 1240,-136 1154.29,-119.658 1132.58,-117.019 1047,-100 1040.19,-98.6462 1033.03,-97.1803 1025.97,-95.7134"/>
<polygon fill="midnightblue" stroke="midnightblue" points="1026.28,-92.2011 1015.77,-93.5763 1024.84,-99.0524 1026.28,-92.2011"/>
</g>
<!-- Node30 -->
<g id="node30" class="node"><title>Node30</title>
<polygon fill="none" stroke="#bfbfbf" points="809.5,-1 809.5,-31 960.5,-31 960.5,-1 809.5,-1"/>
<text text-anchor="start" x="817.5" y="-19" font-family="Helvetica,sans-Serif" font-size="10.00">Math/GenVector/Displacement</text>
<text text-anchor="middle" x="885" y="-8" font-family="Helvetica,sans-Serif" font-size="10.00">Vector2D.h</text>
</g>
<!-- Node29&#45;&gt;Node30 -->
<g id="edge36" class="edge"><title>Node29&#45;&gt;Node30</title>
<path fill="none" stroke="midnightblue" d="M964.103,-74.3717C951.221,-65.0286 930.22,-49.7966 913.093,-37.375"/>
<polygon fill="midnightblue" stroke="midnightblue" points="914.703,-34.2194 904.553,-31.1815 910.593,-39.8859 914.703,-34.2194"/>
</g>
<!-- Node31 -->
<g id="node31" class="node"><title>Node31</title>
<polygon fill="none" stroke="#bfbfbf" points="979,-6.5 979,-25.5 1155,-25.5 1155,-6.5 979,-6.5"/>
<text text-anchor="middle" x="1067" y="-13.5" font-family="Helvetica,sans-Serif" font-size="10.00">Math/GenVector/PositionVector2D.h</text>
</g>
<!-- Node29&#45;&gt;Node31 -->
<g id="edge37" class="edge"><title>Node29&#45;&gt;Node31</title>
<path fill="none" stroke="midnightblue" d="M987.897,-74.3717C1002.88,-63.5015 1028.86,-44.6602 1046.94,-31.5474"/>
<polygon fill="midnightblue" stroke="midnightblue" points="1049.06,-34.3349 1055.1,-25.6305 1044.95,-28.6684 1049.06,-34.3349"/>
</g>
<!-- Node32&#45;&gt;Node18 -->
<g id="edge43" class="edge"><title>Node32&#45;&gt;Node18</title>
<path fill="none" stroke="midnightblue" d="M1434.4,-272.838C1418.72,-264.6 1401.88,-252.527 1393,-236 1381.15,-213.944 1397.81,-187.014 1411.96,-169.932"/>
<polygon fill="midnightblue" stroke="midnightblue" points="1414.98,-171.794 1418.96,-161.975 1409.72,-167.17 1414.98,-171.794"/>
</g>
<!-- Node33 -->
<g id="node33" class="node"><title>Node33</title>
<polygon fill="none" stroke="#bfbfbf" points="1402,-210.5 1402,-229.5 1464,-229.5 1464,-210.5 1402,-210.5"/>
<text text-anchor="middle" x="1433" y="-217.5" font-family="Helvetica,sans-Serif" font-size="10.00">TNamed.h</text>
</g>
<!-- Node32&#45;&gt;Node33 -->
<g id="edge39" class="edge"><title>Node32&#45;&gt;Node33</title>
<path fill="none" stroke="midnightblue" d="M1461.97,-272.679C1456.37,-262.694 1448.87,-249.307 1442.9,-238.66"/>
<polygon fill="midnightblue" stroke="midnightblue" points="1445.89,-236.84 1437.95,-229.828 1439.79,-240.263 1445.89,-236.84"/>
</g>
<!-- Node34 -->
<g id="node34" class="node"><title>Node34</title>
<polygon fill="none" stroke="#bfbfbf" points="1482.5,-210.5 1482.5,-229.5 1531.5,-229.5 1531.5,-210.5 1482.5,-210.5"/>
<text text-anchor="middle" x="1507" y="-217.5" font-family="Helvetica,sans-Serif" font-size="10.00">cassert</text>
</g>
<!-- Node32&#45;&gt;Node34 -->
<g id="edge40" class="edge"><title>Node32&#45;&gt;Node34</title>
<path fill="none" stroke="midnightblue" d="M1478.03,-272.679C1483.63,-262.694 1491.13,-249.307 1497.1,-238.66"/>
<polygon fill="midnightblue" stroke="midnightblue" points="1500.21,-240.263 1502.05,-229.828 1494.11,-236.84 1500.21,-240.263"/>
</g>
<!-- Node35 -->
<g id="node35" class="node"><title>Node35</title>
<polygon fill="none" stroke="#bfbfbf" points="1549.5,-210.5 1549.5,-229.5 1608.5,-229.5 1608.5,-210.5 1549.5,-210.5"/>
<text text-anchor="middle" x="1579" y="-217.5" font-family="Helvetica,sans-Serif" font-size="10.00">stdexcept</text>
</g>
<!-- Node32&#45;&gt;Node35 -->
<g id="edge41" class="edge"><title>Node32&#45;&gt;Node35</title>
<path fill="none" stroke="midnightblue" d="M1493.38,-272.841C1511.9,-261.63 1537.62,-246.056 1556.03,-234.91"/>
<polygon fill="midnightblue" stroke="midnightblue" points="1557.92,-237.855 1564.66,-229.682 1554.29,-231.868 1557.92,-237.855"/>
</g>
<!-- Node36 -->
<g id="node36" class="node"><title>Node36</title>
<polygon fill="none" stroke="#bfbfbf" points="1626.5,-210.5 1626.5,-229.5 1671.5,-229.5 1671.5,-210.5 1626.5,-210.5"/>
<text text-anchor="middle" x="1649" y="-217.5" font-family="Helvetica,sans-Serif" font-size="10.00">gsl/gsl</text>
</g>
<!-- Node32&#45;&gt;Node36 -->
<g id="edge42" class="edge"><title>Node32&#45;&gt;Node36</title>
<path fill="none" stroke="midnightblue" d="M1514.51,-272.901C1543.9,-263.265 1583.09,-249.785 1617,-236 1618.64,-235.333 1620.32,-234.625 1622.01,-233.895"/>
<polygon fill="midnightblue" stroke="midnightblue" points="1623.87,-236.893 1631.54,-229.586 1620.99,-230.514 1623.87,-236.893"/>
</g>
<!-- Node38 -->
<g id="node38" class="node"><title>Node38</title>
<g id="a_node38"><a xlink:href="../../d7/dcd/MCCompLabel_8h.html" target="_top" xlink:title="SimulationDataFormat\l/MCCompLabel.h">
<polygon fill="none" stroke="black" points="0,-205 0,-235 114,-235 114,-205 0,-205"/>
<text text-anchor="start" x="8" y="-223" font-family="Helvetica,sans-Serif" font-size="10.00">SimulationDataFormat</text>
<text text-anchor="middle" x="57" y="-212" font-family="Helvetica,sans-Serif" font-size="10.00">/MCCompLabel.h</text>
</a>
</g>
</g>
<!-- Node37&#45;&gt;Node38 -->
<g id="edge45" class="edge"><title>Node37&#45;&gt;Node38</title>
<path fill="none" stroke="midnightblue" d="M182.175,-278.372C160.599,-268.483 124.63,-251.997 96.7723,-239.229"/>
<polygon fill="midnightblue" stroke="midnightblue" points="98.2171,-236.041 87.6681,-235.056 95.3005,-242.405 98.2171,-236.041"/>
</g>
<!-- Node38&#45;&gt;Node3 -->
<g id="edge46" class="edge"><title>Node38&#45;&gt;Node3</title>
<path fill="none" stroke="midnightblue" d="M43.5277,-204.812C28.1767,-186.917 7.36217,-156.068 25,-136 48.2921,-109.499 286.053,-92.7802 380.565,-87.1363"/>
<polygon fill="midnightblue" stroke="midnightblue" points="381.055,-90.6136 390.833,-86.5332 380.645,-83.6256 381.055,-90.6136"/>
</g>
</g>
</svg>
