<?xml version="1.0" encoding="UTF-8" standalone="no"?>
<!DOCTYPE svg PUBLIC "-//W3C//DTD SVG 1.1//EN"
 "http://www.w3.org/Graphics/SVG/1.1/DTD/svg11.dtd">
<!-- Generated by graphviz version 2.36.0 (20140111.2315)
 -->
<!-- Title: /home/travis/build/AliceO2Group/AliceO2/Utilities/O2MessageMonitor/src/O2MessageMonitor.cxx Pages: 1 -->
<!--zoomable 298 -->
<svg id="main" version="1.1" xmlns="http://www.w3.org/2000/svg" xmlns:xlink="http://www.w3.org/1999/xlink" xml:space="preserve" onload="init(evt)">
<style type="text/css"><![CDATA[
.edge:hover path { stroke: red; }
.edge:hover polygon { stroke: red; fill: red; }
]]></style>
<script type="text/javascript"><![CDATA[
var edges = document.getElementsByTagName('g');
if (edges && edges.length) {
  for (var i=0;i<edges.length;i++) {
    if (edges[i].id.substr(0,4)=='edge') {
      edges[i].setAttribute('class','edge');
    }
  }
}
]]></script>
        <defs>
                <circle id="rim" cx="0" cy="0" r="7"/>
                <circle id="rim2" cx="0" cy="0" r="3.5"/>
                <g id="zoomPlus">
                        <use xlink:href="#rim" fill="#404040">
                                <set attributeName="fill" to="#808080" begin="zoomplus.mouseover" end="zoomplus.mouseout"/>
                        </use>
                        <path d="M-4,0h8M0,-4v8" fill="none" stroke="white" stroke-width="1.5" pointer-events="none"/>
                </g>
                <g id="zoomMin">
                        <use xlink:href="#rim" fill="#404040">
                                <set attributeName="fill" to="#808080" begin="zoomminus.mouseover" end="zoomminus.mouseout"/>
                        </use>
                        <path d="M-4,0h8" fill="none" stroke="white" stroke-width="1.5" pointer-events="none"/>
                </g>
                <g id="dirArrow">
                        <path fill="none" stroke="white" stroke-width="1.5" d="M0,-3.0v7 M-2.5,-0.5L0,-3.0L2.5,-0.5"/>
                </g>
               <g id="resetDef">
                       <use xlink:href="#rim2" fill="#404040">
                               <set attributeName="fill" to="#808080" begin="reset.mouseover" end="reset.mouseout"/>
                       </use>
               </g>
        </defs>

<script type="text/javascript">
var viewWidth = 764;
var viewHeight = 298;
var sectionId = 'dynsection-0';
</script>
<script xlink:href="../../svgpan.js"/>
<svg id="graph" class="graph">
<g id="viewport">
<title>/home/travis/build/AliceO2Group/AliceO2/Utilities/O2MessageMonitor/src/O2MessageMonitor.cxx</title>
<!-- Node1 -->
<g id="node1" class="node"><title>Node1</title>
<polygon fill="#bfbfbf" stroke="black" points="233,-237 233,-289 373,-289 373,-237 233,-237"/>
<text text-anchor="start" x="241" y="-277" font-family="Helvetica,sans-Serif" font-size="10.00">/home/travis/build</text>
<text text-anchor="start" x="241" y="-266" font-family="Helvetica,sans-Serif" font-size="10.00">/AliceO2Group/AliceO2</text>
<text text-anchor="start" x="241" y="-255" font-family="Helvetica,sans-Serif" font-size="10.00">/Utilities/O2MessageMonitor</text>
<text text-anchor="middle" x="303" y="-244" font-family="Helvetica,sans-Serif" font-size="10.00">/src/O2MessageMonitor.cxx</text>
</g>
<!-- Node2 -->
<g id="node2" class="node"><title>Node2</title>
<polygon fill="none" stroke="#bfbfbf" points="0,-174.5 0,-193.5 46,-193.5 46,-174.5 0,-174.5"/>
<text text-anchor="middle" x="23" y="-181.5" font-family="Helvetica,sans-Serif" font-size="10.00">chrono</text>
</g>
<!-- Node1&#45;&gt;Node2 -->
<g id="edge1" class="edge"><title>Node1&#45;&gt;Node2</title>
<path fill="none" stroke="midnightblue" d="M232.984,-248.285C182.714,-237.527 113.751,-220.892 55,-200 53.0923,-199.322 51.1446,-198.569 49.1991,-197.772"/>
<polygon fill="midnightblue" stroke="midnightblue" points="50.2444,-194.408 39.6831,-193.564 47.4132,-200.809 50.2444,-194.408"/>
</g>
<!-- Node3 -->
<g id="node3" class="node"><title>Node3</title>
<polygon fill="none" stroke="#bfbfbf" points="64,-174.5 64,-193.5 108,-193.5 108,-174.5 64,-174.5"/>
<text text-anchor="middle" x="86" y="-181.5" font-family="Helvetica,sans-Serif" font-size="10.00">thread</text>
</g>
<!-- Node1&#45;&gt;Node3 -->
<g id="edge2" class="edge"><title>Node1&#45;&gt;Node3</title>
<path fill="none" stroke="midnightblue" d="M232.888,-240.985C197.711,-229.849 154.68,-215.322 117,-200 115.401,-199.35 113.768,-198.655 112.129,-197.935"/>
<polygon fill="midnightblue" stroke="midnightblue" points="113.422,-194.677 102.877,-193.653 110.482,-201.029 113.422,-194.677"/>
</g>
<!-- Node4 -->
<g id="node4" class="node"><title>Node4</title>
<polygon fill="none" stroke="#bfbfbf" points="126,-174.5 126,-193.5 212,-193.5 212,-174.5 126,-174.5"/>
<text text-anchor="middle" x="169" y="-181.5" font-family="Helvetica,sans-Serif" font-size="10.00">FairMQLogger.h</text>
</g>
<!-- Node1&#45;&gt;Node4 -->
<g id="edge3" class="edge"><title>Node1&#45;&gt;Node4</title>
<path fill="none" stroke="midnightblue" d="M259.123,-236.787C237.024,-224.088 211.099,-209.191 192.742,-198.643"/>
<polygon fill="midnightblue" stroke="midnightblue" points="194.307,-195.505 183.893,-193.558 190.819,-201.575 194.307,-195.505"/>
</g>
<!-- Node5 -->
<g id="node5" class="node"><title>Node5</title>
<polygon fill="none" stroke="#bfbfbf" points="230,-174.5 230,-193.5 376,-193.5 376,-174.5 230,-174.5"/>
<text text-anchor="middle" x="303" y="-181.5" font-family="Helvetica,sans-Serif" font-size="10.00">options/FairMQProgOptions.h</text>
</g>
<!-- Node1&#45;&gt;Node5 -->
<g id="edge4" class="edge"><title>Node1&#45;&gt;Node5</title>
<path fill="none" stroke="midnightblue" d="M303,-236.787C303,-226.069 303,-213.785 303,-203.871"/>
<polygon fill="midnightblue" stroke="midnightblue" points="306.5,-203.558 303,-193.558 299.5,-203.558 306.5,-203.558"/>
</g>
<!-- Node6 -->
<g id="node6" class="node"><title>Node6</title>
<g id="a_node6"><a xlink:href="../../dc/dcd/DataHeader_8h.html" target="_top" xlink:title="Headers/DataHeader.h">
<polygon fill="none" stroke="black" points="424.5,-56.5 424.5,-75.5 541.5,-75.5 541.5,-56.5 424.5,-56.5"/>
<text text-anchor="middle" x="483" y="-63.5" font-family="Helvetica,sans-Serif" font-size="10.00">Headers/DataHeader.h</text>
</a>
</g>
</g>
<!-- Node1&#45;&gt;Node6 -->
<g id="edge5" class="edge"><title>Node1&#45;&gt;Node6</title>
<path fill="none" stroke="midnightblue" d="M340.774,-236.95C355.362,-226.403 371.706,-213.46 385,-200 421.799,-162.743 455.956,-110.979 472.521,-84.3512"/>
<polygon fill="midnightblue" stroke="midnightblue" points="475.552,-86.105 477.801,-75.7517 469.586,-82.4426 475.552,-86.105"/>
</g>
<!-- Node12 -->
<g id="node12" class="node"><title>Node12</title>
<g id="a_node12"><a xlink:href="../../d6/d2e/NameHeader_8h.html" target="_top" xlink:title="Headers/NameHeader.h">
<polygon fill="none" stroke="black" points="432,-174.5 432,-193.5 554,-193.5 554,-174.5 432,-174.5"/>
<text text-anchor="middle" x="493" y="-181.5" font-family="Helvetica,sans-Serif" font-size="10.00">Headers/NameHeader.h</text>
</a>
</g>
</g>
<!-- Node1&#45;&gt;Node12 -->
<g id="edge11" class="edge"><title>Node1&#45;&gt;Node12</title>
<path fill="none" stroke="midnightblue" d="M364.95,-236.894C397.599,-223.663 436.196,-208.02 462.417,-197.394"/>
<polygon fill="midnightblue" stroke="midnightblue" points="463.869,-200.582 471.822,-193.583 461.24,-194.095 463.869,-200.582"/>
</g>
<!-- Node14 -->
<g id="node14" class="node"><title>Node14</title>
<g id="a_node14"><a xlink:href="../../de/d29/O2MessageMonitor_8h.html" target="_top" xlink:title="O2MessageMonitor/O2Message\lMonitor.h">
<polygon fill="none" stroke="black" points="572.5,-169 572.5,-199 729.5,-199 729.5,-169 572.5,-169"/>
<text text-anchor="start" x="580.5" y="-187" font-family="Helvetica,sans-Serif" font-size="10.00">O2MessageMonitor/O2Message</text>
<text text-anchor="middle" x="651" y="-176" font-family="Helvetica,sans-Serif" font-size="10.00">Monitor.h</text>
</a>
</g>
</g>
<!-- Node1&#45;&gt;Node14 -->
<g id="edge14" class="edge"><title>Node1&#45;&gt;Node14</title>
<path fill="none" stroke="midnightblue" d="M373.004,-246.511C432.417,-233.365 517.379,-214.565 577.71,-201.217"/>
<polygon fill="midnightblue" stroke="midnightblue" points="578.54,-204.618 587.548,-199.04 577.028,-197.783 578.54,-204.618"/>
</g>
<!-- Node7 -->
<g id="node7" class="node"><title>Node7</title>
<polygon fill="none" stroke="#bfbfbf" points="324,-0.5 324,-19.5 370,-19.5 370,-0.5 324,-0.5"/>
<text text-anchor="middle" x="347" y="-7.5" font-family="Helvetica,sans-Serif" font-size="10.00">cstdint</text>
</g>
<!-- Node6&#45;&gt;Node7 -->
<g id="edge6" class="edge"><title>Node6&#45;&gt;Node7</title>
<path fill="none" stroke="midnightblue" d="M461.45,-56.4435C438.969,-47.5171 403.512,-33.4387 378.02,-23.3168"/>
<polygon fill="midnightblue" stroke="midnightblue" points="379.035,-19.9539 368.449,-19.5164 376.451,-26.4598 379.035,-19.9539"/>
</g>
<!-- Node8 -->
<g id="node8" class="node"><title>Node8</title>
<polygon fill="none" stroke="#bfbfbf" points="388,-0.5 388,-19.5 440,-19.5 440,-0.5 388,-0.5"/>
<text text-anchor="middle" x="414" y="-7.5" font-family="Helvetica,sans-Serif" font-size="10.00">memory</text>
</g>
<!-- Node6&#45;&gt;Node8 -->
<g id="edge7" class="edge"><title>Node6&#45;&gt;Node8</title>
<path fill="none" stroke="midnightblue" d="M471.914,-56.324C461.514,-48.1849 445.739,-35.8395 433.278,-26.0874"/>
<polygon fill="midnightblue" stroke="midnightblue" points="435.32,-23.2407 425.288,-19.8339 431.006,-28.7533 435.32,-23.2407"/>
</g>
<!-- Node9 -->
<g id="node9" class="node"><title>Node9</title>
<polygon fill="none" stroke="#bfbfbf" points="458.5,-0.5 458.5,-19.5 507.5,-19.5 507.5,-0.5 458.5,-0.5"/>
<text text-anchor="middle" x="483" y="-7.5" font-family="Helvetica,sans-Serif" font-size="10.00">cassert</text>
</g>
<!-- Node6&#45;&gt;Node9 -->
<g id="edge8" class="edge"><title>Node6&#45;&gt;Node9</title>
<path fill="none" stroke="midnightblue" d="M483,-56.083C483,-49.0059 483,-38.8611 483,-29.9865"/>
<polygon fill="midnightblue" stroke="midnightblue" points="486.5,-29.751 483,-19.7511 479.5,-29.7511 486.5,-29.751"/>
</g>
<!-- Node10 -->
<g id="node10" class="node"><title>Node10</title>
<polygon fill="none" stroke="#bfbfbf" points="526,-0.5 526,-19.5 572,-19.5 572,-0.5 526,-0.5"/>
<text text-anchor="middle" x="549" y="-7.5" font-family="Helvetica,sans-Serif" font-size="10.00">cstring</text>
</g>
<!-- Node6&#45;&gt;Node10 -->
<g id="edge9" class="edge"><title>Node6&#45;&gt;Node10</title>
<path fill="none" stroke="midnightblue" d="M493.604,-56.324C503.456,-48.2631 518.351,-36.0765 530.215,-26.3695"/>
<polygon fill="midnightblue" stroke="midnightblue" points="532.68,-28.8752 538.203,-19.8339 528.247,-23.4575 532.68,-28.8752"/>
</g>
<!-- Node11 -->
<g id="node11" class="node"><title>Node11</title>
<polygon fill="none" stroke="#bfbfbf" points="590,-0.5 590,-19.5 646,-19.5 646,-0.5 590,-0.5"/>
<text text-anchor="middle" x="618" y="-7.5" font-family="Helvetica,sans-Serif" font-size="10.00">algorithm</text>
</g>
<!-- Node6&#45;&gt;Node11 -->
<g id="edge10" class="edge"><title>Node6&#45;&gt;Node11</title>
<path fill="none" stroke="midnightblue" d="M504.391,-56.4435C526.707,-47.5171 561.903,-33.4387 587.208,-23.3168"/>
<polygon fill="midnightblue" stroke="midnightblue" points="588.724,-26.4801 596.709,-19.5164 586.124,-19.9807 588.724,-26.4801"/>
</g>
<!-- Node12&#45;&gt;Node6 -->
<g id="edge13" class="edge"><title>Node12&#45;&gt;Node6</title>
<path fill="none" stroke="midnightblue" d="M491.834,-174.352C490.502,-164.22 488.335,-146.918 487,-132 485.612,-116.497 484.56,-98.8696 483.884,-85.8867"/>
<polygon fill="midnightblue" stroke="midnightblue" points="487.377,-85.6582 483.388,-75.8431 480.386,-86.0037 487.377,-85.6582"/>
</g>
<!-- Node13 -->
<g id="node13" class="node"><title>Node13</title>
<polygon fill="none" stroke="#bfbfbf" points="495.5,-112.5 495.5,-131.5 536.5,-131.5 536.5,-112.5 495.5,-112.5"/>
<text text-anchor="middle" x="516" y="-119.5" font-family="Helvetica,sans-Serif" font-size="10.00">string</text>
</g>
<!-- Node12&#45;&gt;Node13 -->
<g id="edge12" class="edge"><title>Node12&#45;&gt;Node13</title>
<path fill="none" stroke="midnightblue" d="M496.295,-174.403C499.609,-165.76 504.818,-152.17 509.049,-141.134"/>
<polygon fill="midnightblue" stroke="midnightblue" points="512.399,-142.171 512.711,-131.581 505.863,-139.665 512.399,-142.171"/>
</g>
<!-- Node14&#45;&gt;Node6 -->
<g id="edge15" class="edge"><title>Node14&#45;&gt;Node6</title>
<path fill="none" stroke="midnightblue" d="M630.4,-168.776C598.204,-146.546 536.3,-103.802 503.913,-81.4399"/>
<polygon fill="midnightblue" stroke="midnightblue" points="505.828,-78.5088 495.61,-75.707 501.85,-84.2691 505.828,-78.5088"/>
</g>
<!-- Node15 -->
<g id="node15" class="node"><title>Node15</title>
<g id="a_node15"><a xlink:href="../../d2/dee/O2Device_8h.html" target="_top" xlink:title="O2Device/O2Device.h">
<polygon fill="none" stroke="black" points="593.5,-112.5 593.5,-131.5 708.5,-131.5 708.5,-112.5 593.5,-112.5"/>
<text text-anchor="middle" x="651" y="-119.5" font-family="Helvetica,sans-Serif" font-size="10.00">O2Device/O2Device.h</text>
</a>
</g>
</g>
<!-- Node14&#45;&gt;Node15 -->
<g id="edge16" class="edge"><title>Node14&#45;&gt;Node15</title>
<path fill="none" stroke="midnightblue" d="M651,-168.781C651,-160.781 651,-150.689 651,-142.017"/>
<polygon fill="midnightblue" stroke="midnightblue" points="654.5,-141.73 651,-131.731 647.5,-141.731 654.5,-141.73"/>
</g>
<!-- Node15&#45;&gt;Node6 -->
<g id="edge18" class="edge"><title>Node15&#45;&gt;Node6</title>
<path fill="none" stroke="midnightblue" d="M624.38,-112.444C595.994,-103.32 550.863,-88.8133 519.247,-78.6509"/>
<polygon fill="midnightblue" stroke="midnightblue" points="520.087,-75.2445 509.496,-75.5164 517.945,-81.9087 520.087,-75.2445"/>
</g>
<!-- Node16 -->
<g id="node16" class="node"><title>Node16</title>
<polygon fill="none" stroke="#bfbfbf" points="591,-56.5 591,-75.5 679,-75.5 679,-56.5 591,-56.5"/>
<text text-anchor="middle" x="635" y="-63.5" font-family="Helvetica,sans-Serif" font-size="10.00">FairMQDevice.h</text>
</g>
<!-- Node15&#45;&gt;Node16 -->
<g id="edge17" class="edge"><title>Node15&#45;&gt;Node16</title>
<path fill="none" stroke="midnightblue" d="M648.358,-112.083C646.214,-104.849 643.121,-94.4087 640.451,-85.3968"/>
<polygon fill="midnightblue" stroke="midnightblue" points="643.79,-84.3447 637.593,-75.7511 637.078,-86.3334 643.79,-84.3447"/>
</g>
<!-- Node17 -->
<g id="node17" class="node"><title>Node17</title>
<polygon fill="none" stroke="#bfbfbf" points="697.5,-56.5 697.5,-75.5 756.5,-75.5 756.5,-56.5 697.5,-56.5"/>
<text text-anchor="middle" x="727" y="-63.5" font-family="Helvetica,sans-Serif" font-size="10.00">stdexcept</text>
</g>
<!-- Node15&#45;&gt;Node17 -->
<g id="edge19" class="edge"><title>Node15&#45;&gt;Node17</title>
<path fill="none" stroke="midnightblue" d="M663.211,-112.324C674.776,-104.107 692.375,-91.6017 706.161,-81.8069"/>
<polygon fill="midnightblue" stroke="midnightblue" points="708.443,-84.4791 714.567,-75.8339 704.388,-78.7729 708.443,-84.4791"/>
</g>
</g>
</svg>
        <g id="navigator" transform="translate(0 0)" fill="#404254">
                <rect fill="#f2f5e9" fill-opacity="0.5" stroke="#606060" stroke-width=".5" x="0" y="0" width="60" height="60"/>
                <use id="zoomplus" xlink:href="#zoomPlus" x="17" y="9" onmousedown="handleZoom(evt,'in')"/>
                <use id="zoomminus" xlink:href="#zoomMin" x="42" y="9" onmousedown="handleZoom(evt,'out')"/>
                <use id="reset" xlink:href="#resetDef" x="30" y="36" onmousedown="handleReset()"/>
                <g id="arrowUp" xlink:href="#dirArrow" transform="translate(30 24)" onmousedown="handlePan(0,-1)">
                  <use xlink:href="#rim" fill="#404040">
                        <set attributeName="fill" to="#808080" begin="arrowUp.mouseover" end="arrowUp.mouseout"/>
                  </use>
                  <path fill="none" stroke="white" stroke-width="1.5" d="M0,-3.0v7 M-2.5,-0.5L0,-3.0L2.5,-0.5"/>
                </g>
                <g id="arrowRight" xlink:href="#dirArrow" transform="rotate(90) translate(36 -43)" onmousedown="handlePan(1,0)">
                  <use xlink:href="#rim" fill="#404040">
                        <set attributeName="fill" to="#808080" begin="arrowRight.mouseover" end="arrowRight.mouseout"/>
                  </use>
                  <path fill="none" stroke="white" stroke-width="1.5" d="M0,-3.0v7 M-2.5,-0.5L0,-3.0L2.5,-0.5"/>
                </g>
                <g id="arrowDown" xlink:href="#dirArrow" transform="rotate(180) translate(-30 -48)" onmousedown="handlePan(0,1)">
                  <use xlink:href="#rim" fill="#404040">
                        <set attributeName="fill" to="#808080" begin="arrowDown.mouseover" end="arrowDown.mouseout"/>
                  </use>
                  <path fill="none" stroke="white" stroke-width="1.5" d="M0,-3.0v7 M-2.5,-0.5L0,-3.0L2.5,-0.5"/>
                </g>
                <g id="arrowLeft" xlink:href="#dirArrow" transform="rotate(270) translate(-36 17)" onmousedown="handlePan(-1,0)">
                  <use xlink:href="#rim" fill="#404040">
                        <set attributeName="fill" to="#808080" begin="arrowLeft.mouseover" end="arrowLeft.mouseout"/>
                  </use>
                  <path fill="none" stroke="white" stroke-width="1.5" d="M0,-3.0v7 M-2.5,-0.5L0,-3.0L2.5,-0.5"/>
                </g>
        </g>
        <svg viewBox="0 0 15 15" width="100%" height="30px" preserveAspectRatio="xMaxYMin meet">
         <g id="arrow_out" transform="scale(0.3 0.3)">
          <a xlink:href="O2MessageMonitor_8cxx__incl_org.svg" target="_base">
           <rect id="button" ry="5" rx="5" y="6" x="6" height="38" width="38"
                fill="#f2f5e9" fill-opacity="0.5" stroke="#606060" stroke-width="1.0"/>
           <path id="arrow"
             d="M 11.500037,31.436501 C 11.940474,20.09759 22.043105,11.32322 32.158766,21.979434 L 37.068811,17.246167 C 37.068811,17.246167 37.088388,32 37.088388,32 L 22.160133,31.978069 C 22.160133,31.978069 26.997745,27.140456 26.997745,27.140456 C 18.528582,18.264221 13.291696,25.230495 11.500037,31.436501 z"
             style="fill:#404040;"/>
          </a>
         </g>
        </svg>
</svg>
