<?xml version="1.0" encoding="UTF-8" standalone="no"?>
<!DOCTYPE svg PUBLIC "-//W3C//DTD SVG 1.1//EN"
 "http://www.w3.org/Graphics/SVG/1.1/DTD/svg11.dtd">
<!-- Generated by graphviz version 2.36.0 (20140111.2315)
 -->
<!-- Title: /home/travis/build/AliceO2Group/AliceO2/Detectors/ITSMFT/common/reconstruction/src/BuildTopologyDictionary.cxx Pages: 1 -->
<!--zoomable 604 -->
<svg id="main" version="1.1" xmlns="http://www.w3.org/2000/svg" xmlns:xlink="http://www.w3.org/1999/xlink" xml:space="preserve" onload="init(evt)">
<style type="text/css"><![CDATA[
.edge:hover path { stroke: red; }
.edge:hover polygon { stroke: red; fill: red; }
]]></style>
<script type="text/javascript"><![CDATA[
var edges = document.getElementsByTagName('g');
if (edges && edges.length) {
  for (var i=0;i<edges.length;i++) {
    if (edges[i].id.substr(0,4)=='edge') {
      edges[i].setAttribute('class','edge');
    }
  }
}
]]></script>
        <defs>
                <circle id="rim" cx="0" cy="0" r="7"/>
                <circle id="rim2" cx="0" cy="0" r="3.5"/>
                <g id="zoomPlus">
                        <use xlink:href="#rim" fill="#404040">
                                <set attributeName="fill" to="#808080" begin="zoomplus.mouseover" end="zoomplus.mouseout"/>
                        </use>
                        <path d="M-4,0h8M0,-4v8" fill="none" stroke="white" stroke-width="1.5" pointer-events="none"/>
                </g>
                <g id="zoomMin">
                        <use xlink:href="#rim" fill="#404040">
                                <set attributeName="fill" to="#808080" begin="zoomminus.mouseover" end="zoomminus.mouseout"/>
                        </use>
                        <path d="M-4,0h8" fill="none" stroke="white" stroke-width="1.5" pointer-events="none"/>
                </g>
                <g id="dirArrow">
                        <path fill="none" stroke="white" stroke-width="1.5" d="M0,-3.0v7 M-2.5,-0.5L0,-3.0L2.5,-0.5"/>
                </g>
               <g id="resetDef">
                       <use xlink:href="#rim2" fill="#404040">
                               <set attributeName="fill" to="#808080" begin="reset.mouseover" end="reset.mouseout"/>
                       </use>
               </g>
        </defs>

<script type="text/javascript">
var viewWidth = 1815;
var viewHeight = 604;
var sectionId = 'dynsection-0';
</script>
<script xlink:href="../../svgpan.js"/>
<svg id="graph" class="graph">
<g id="viewport">
<title>/home/travis/build/AliceO2Group/AliceO2/Detectors/ITSMFT/common/reconstruction/src/BuildTopologyDictionary.cxx</title>
<!-- Node1 -->
<g id="node1" class="node"><title>Node1</title>
<polygon fill="#bfbfbf" stroke="black" points="1392,-532.5 1392,-595.5 1554,-595.5 1554,-532.5 1392,-532.5"/>
<text text-anchor="start" x="1400" y="-583.5" font-family="Helvetica,sans-Serif" font-size="10.00">/home/travis/build</text>
<text text-anchor="start" x="1400" y="-572.5" font-family="Helvetica,sans-Serif" font-size="10.00">/AliceO2Group/AliceO2</text>
<text text-anchor="start" x="1400" y="-561.5" font-family="Helvetica,sans-Serif" font-size="10.00">/Detectors/ITSMFT/common</text>
<text text-anchor="start" x="1400" y="-550.5" font-family="Helvetica,sans-Serif" font-size="10.00">/reconstruction/src/BuildTopology</text>
<text text-anchor="middle" x="1473" y="-539.5" font-family="Helvetica,sans-Serif" font-size="10.00">Dictionary.cxx</text>
</g>
<!-- Node2 -->
<g id="node2" class="node"><title>Node2</title>
<g id="a_node2"><a xlink:href="../../d9/d1d/BuildTopologyDictionary_8h.html" target="_top" xlink:title="Definition of the BuildTopologyDictionary class. ">
<polygon fill="none" stroke="black" points="1087,-465 1087,-495 1221,-495 1221,-465 1087,-465"/>
<text text-anchor="start" x="1095" y="-483" font-family="Helvetica,sans-Serif" font-size="10.00">ITSMFTReconstruction</text>
<text text-anchor="middle" x="1154" y="-472" font-family="Helvetica,sans-Serif" font-size="10.00">/BuildTopologyDictionary.h</text>
</a>
</g>
</g>
<!-- Node1&#45;&gt;Node2 -->
<g id="edge1" class="edge"><title>Node1&#45;&gt;Node2</title>
<path fill="none" stroke="midnightblue" d="M1391.68,-542.096C1337.86,-528.261 1268.26,-510.371 1218.31,-497.53"/>
<polygon fill="midnightblue" stroke="midnightblue" points="1219.14,-494.132 1208.59,-495.032 1217.4,-500.911 1219.14,-494.132"/>
</g>
<!-- Node26 -->
<g id="node26" class="node"><title>Node26</title>
<polygon fill="none" stroke="#bfbfbf" points="1763,-6.5 1763,-25.5 1807,-25.5 1807,-6.5 1763,-6.5"/>
<text text-anchor="middle" x="1785" y="-13.5" font-family="Helvetica,sans-Serif" font-size="10.00">cmath</text>
</g>
<!-- Node1&#45;&gt;Node26 -->
<g id="edge57" class="edge"><title>Node1&#45;&gt;Node26</title>
<path fill="none" stroke="midnightblue" d="M1554.34,-559.624C1650.32,-550.769 1797,-519.77 1797,-413 1797,-413 1797,-413 1797,-151 1797,-109.697 1791.27,-61.5181 1787.73,-35.6693"/>
<polygon fill="midnightblue" stroke="midnightblue" points="1791.2,-35.1664 1786.33,-25.7555 1784.27,-36.1473 1791.2,-35.1664"/>
</g>
<!-- Node3 -->
<g id="node3" class="node"><title>Node3</title>
<polygon fill="none" stroke="#bfbfbf" points="1304,-402.5 1304,-421.5 1360,-421.5 1360,-402.5 1304,-402.5"/>
<text text-anchor="middle" x="1332" y="-409.5" font-family="Helvetica,sans-Serif" font-size="10.00">algorithm</text>
</g>
<!-- Node2&#45;&gt;Node3 -->
<g id="edge2" class="edge"><title>Node2&#45;&gt;Node3</title>
<path fill="none" stroke="midnightblue" d="M1194.26,-464.896C1222.55,-454.876 1261.21,-440.953 1295,-428 1297.24,-427.142 1299.55,-426.241 1301.87,-425.326"/>
<polygon fill="midnightblue" stroke="midnightblue" points="1303.33,-428.512 1311.31,-421.549 1300.73,-422.013 1303.33,-428.512"/>
</g>
<!-- Node4 -->
<g id="node4" class="node"><title>Node4</title>
<polygon fill="none" stroke="#bfbfbf" points="320,-6.5 320,-25.5 358,-25.5 358,-6.5 320,-6.5"/>
<text text-anchor="middle" x="339" y="-13.5" font-family="Helvetica,sans-Serif" font-size="10.00">array</text>
</g>
<!-- Node2&#45;&gt;Node4 -->
<g id="edge3" class="edge"><title>Node2&#45;&gt;Node4</title>
<path fill="none" stroke="midnightblue" d="M1086.97,-478.653C840.676,-476.506 0,-461.111 0,-351 0,-351 0,-351 0,-151 0,-110.965 3.59459,-92.8287 35,-68 77.3515,-34.5174 241.785,-22.1332 309.553,-18.3887"/>
<polygon fill="midnightblue" stroke="midnightblue" points="310.133,-21.8631 319.935,-17.8415 309.764,-14.8728 310.133,-21.8631"/>
</g>
<!-- Node5 -->
<g id="node5" class="node"><title>Node5</title>
<polygon fill="none" stroke="#bfbfbf" points="1182.5,-402.5 1182.5,-421.5 1217.5,-421.5 1217.5,-402.5 1182.5,-402.5"/>
<text text-anchor="middle" x="1200" y="-409.5" font-family="Helvetica,sans-Serif" font-size="10.00">map</text>
</g>
<!-- Node2&#45;&gt;Node5 -->
<g id="edge4" class="edge"><title>Node2&#45;&gt;Node5</title>
<path fill="none" stroke="midnightblue" d="M1163.98,-464.679C1171.01,-454.592 1180.46,-441.033 1187.92,-430.335"/>
<polygon fill="midnightblue" stroke="midnightblue" points="1191,-432.034 1193.85,-421.828 1185.26,-428.031 1191,-432.034"/>
</g>
<!-- Node6 -->
<g id="node6" class="node"><title>Node6</title>
<polygon fill="none" stroke="#bfbfbf" points="1184.5,-340.5 1184.5,-359.5 1267.5,-359.5 1267.5,-340.5 1184.5,-340.5"/>
<text text-anchor="middle" x="1226" y="-347.5" font-family="Helvetica,sans-Serif" font-size="10.00">unordered_map</text>
</g>
<!-- Node2&#45;&gt;Node6 -->
<g id="edge5" class="edge"><title>Node2&#45;&gt;Node6</title>
<path fill="none" stroke="midnightblue" d="M1154.55,-464.77C1155.81,-447.379 1159.88,-417.604 1173,-396 1180.34,-383.911 1192.07,-373.46 1202.63,-365.681"/>
<polygon fill="midnightblue" stroke="midnightblue" points="1204.88,-368.376 1211.1,-359.797 1200.89,-362.627 1204.88,-368.376"/>
</g>
<!-- Node7 -->
<g id="node7" class="node"><title>Node7</title>
<g id="a_node7"><a xlink:href="../../d3/dba/SegmentationAlpide_8h.html" target="_top" xlink:title="Definition of the SegmentationAlpide class. ">
<polygon fill="none" stroke="black" points="772.5,-278.5 772.5,-297.5 945.5,-297.5 945.5,-278.5 772.5,-278.5"/>
<text text-anchor="middle" x="859" y="-285.5" font-family="Helvetica,sans-Serif" font-size="10.00">ITSMFTBase/SegmentationAlpide.h</text>
</a>
</g>
</g>
<!-- Node2&#45;&gt;Node7 -->
<g id="edge6" class="edge"><title>Node2&#45;&gt;Node7</title>
<path fill="none" stroke="midnightblue" d="M1086.58,-471.691C1048.36,-465.004 1001.11,-452.254 965,-428 917.899,-396.366 883.06,-336.802 867.694,-306.975"/>
<polygon fill="midnightblue" stroke="midnightblue" points="870.687,-305.136 863.082,-297.759 864.427,-308.268 870.687,-305.136"/>
</g>
<!-- Node9 -->
<g id="node9" class="node"><title>Node9</title>
<g id="a_node9"><a xlink:href="../../d8/ddb/ClusterTopology_8h.html" target="_top" xlink:title="Definition of the ClusterTopology class. ">
<polygon fill="none" stroke="black" points="680,-397 680,-427 824,-427 824,-397 680,-397"/>
<text text-anchor="start" x="688" y="-415" font-family="Helvetica,sans-Serif" font-size="10.00">DataFormatsITSMFT/Cluster</text>
<text text-anchor="middle" x="752" y="-404" font-family="Helvetica,sans-Serif" font-size="10.00">Topology.h</text>
</a>
</g>
</g>
<!-- Node2&#45;&gt;Node9 -->
<g id="edge8" class="edge"><title>Node2&#45;&gt;Node9</title>
<path fill="none" stroke="midnightblue" d="M1086.71,-467.953C1017.34,-456.562 909.057,-438.786 834.545,-426.552"/>
<polygon fill="midnightblue" stroke="midnightblue" points="834.698,-423.03 824.263,-424.864 833.564,-429.938 834.698,-423.03"/>
</g>
<!-- Node38 -->
<g id="node38" class="node"><title>Node38</title>
<g id="a_node38"><a xlink:href="../../d1/d08/TopologyDictionary_8h.html" target="_top" xlink:title="Definition of the ClusterTopology class. ">
<polygon fill="none" stroke="black" points="974,-397 974,-427 1126,-427 1126,-397 974,-397"/>
<text text-anchor="start" x="982" y="-415" font-family="Helvetica,sans-Serif" font-size="10.00">DataFormatsITSMFT/Topology</text>
<text text-anchor="middle" x="1050" y="-404" font-family="Helvetica,sans-Serif" font-size="10.00">Dictionary.h</text>
</a>
</g>
</g>
<!-- Node2&#45;&gt;Node38 -->
<g id="edge49" class="edge"><title>Node2&#45;&gt;Node38</title>
<path fill="none" stroke="midnightblue" d="M1131.69,-464.841C1116.88,-455.446 1097.25,-442.985 1080.94,-432.635"/>
<polygon fill="midnightblue" stroke="midnightblue" points="1082.59,-429.538 1072.27,-427.135 1078.84,-435.449 1082.59,-429.538"/>
</g>
<!-- Node40 -->
<g id="node40" class="node"><title>Node40</title>
<polygon fill="none" stroke="#bfbfbf" points="1236,-402.5 1236,-421.5 1286,-421.5 1286,-402.5 1236,-402.5"/>
<text text-anchor="middle" x="1261" y="-409.5" font-family="Helvetica,sans-Serif" font-size="10.00">TH1F.h</text>
</g>
<!-- Node2&#45;&gt;Node40 -->
<g id="edge56" class="edge"><title>Node2&#45;&gt;Node40</title>
<path fill="none" stroke="midnightblue" d="M1176.95,-464.841C1195.05,-453.681 1220.15,-438.198 1238.2,-427.063"/>
<polygon fill="midnightblue" stroke="midnightblue" points="1240.25,-429.911 1246.92,-421.682 1236.58,-423.953 1240.25,-429.911"/>
</g>
<!-- Node8 -->
<g id="node8" class="node"><title>Node8</title>
<polygon fill="none" stroke="#bfbfbf" points="521,-74.5 521,-93.5 577,-93.5 577,-74.5 521,-74.5"/>
<text text-anchor="middle" x="549" y="-81.5" font-family="Helvetica,sans-Serif" font-size="10.00">Rtypes.h</text>
</g>
<!-- Node7&#45;&gt;Node8 -->
<g id="edge7" class="edge"><title>Node7&#45;&gt;Node8</title>
<path fill="none" stroke="midnightblue" d="M860.531,-278.268C864.53,-252.326 872.357,-175.1 832,-136 792.32,-97.5558 639.317,-114.483 586,-100 583.019,-99.1903 579.955,-98.208 576.927,-97.1377"/>
<polygon fill="midnightblue" stroke="midnightblue" points="578.112,-93.8437 567.522,-93.5226 575.6,-100.378 578.112,-93.8437"/>
</g>
<!-- Node9&#45;&gt;Node4 -->
<g id="edge10" class="edge"><title>Node9&#45;&gt;Node4</title>
<path fill="none" stroke="midnightblue" d="M679.94,-406.197C498.649,-393.152 38,-353.646 38,-289 38,-289 38,-289 38,-151 38,-113.157 29.631,-94.135 57,-68 92.9703,-33.6516 244.761,-21.8475 309.522,-18.3246"/>
<polygon fill="midnightblue" stroke="midnightblue" points="310.042,-21.8026 319.849,-17.7936 309.682,-14.8118 310.042,-21.8026"/>
</g>
<!-- Node9&#45;&gt;Node8 -->
<g id="edge9" class="edge"><title>Node9&#45;&gt;Node8</title>
<path fill="none" stroke="midnightblue" d="M750.458,-396.745C748.133,-373.994 744,-328.056 744,-289 744,-289 744,-289 744,-219 744,-179.184 632.177,-122.828 577.89,-97.8149"/>
<polygon fill="midnightblue" stroke="midnightblue" points="579.322,-94.6211 568.771,-93.6588 576.419,-100.991 579.322,-94.6211"/>
</g>
<!-- Node10 -->
<g id="node10" class="node"><title>Node10</title>
<polygon fill="none" stroke="#bfbfbf" points="1715,-74.5 1715,-93.5 1769,-93.5 1769,-74.5 1715,-74.5"/>
<text text-anchor="middle" x="1742" y="-81.5" font-family="Helvetica,sans-Serif" font-size="10.00">iostream</text>
</g>
<!-- Node9&#45;&gt;Node10 -->
<g id="edge11" class="edge"><title>Node9&#45;&gt;Node10</title>
<path fill="none" stroke="midnightblue" d="M781.436,-396.929C821.373,-377.499 894.56,-340.68 954,-304 1063.57,-236.387 1068.8,-179.448 1190,-136 1405.99,-58.5708 1481.46,-151.744 1705,-100 1708.07,-99.2883 1711.23,-98.3552 1714.33,-97.3021"/>
<polygon fill="midnightblue" stroke="midnightblue" points="1715.82,-100.478 1723.93,-93.6528 1713.34,-93.9351 1715.82,-100.478"/>
</g>
<!-- Node11 -->
<g id="node11" class="node"><title>Node11</title>
<polygon fill="none" stroke="#bfbfbf" points="942.5,-340.5 942.5,-359.5 983.5,-359.5 983.5,-340.5 942.5,-340.5"/>
<text text-anchor="middle" x="963" y="-347.5" font-family="Helvetica,sans-Serif" font-size="10.00">string</text>
</g>
<!-- Node9&#45;&gt;Node11 -->
<g id="edge12" class="edge"><title>Node9&#45;&gt;Node11</title>
<path fill="none" stroke="midnightblue" d="M801.47,-396.933C842.093,-385.381 898.329,-369.39 932.603,-359.644"/>
<polygon fill="midnightblue" stroke="midnightblue" points="933.831,-362.933 942.493,-356.831 931.917,-356.2 933.831,-362.933"/>
</g>
<!-- Node12 -->
<g id="node12" class="node"><title>Node12</title>
<g id="a_node12"><a xlink:href="../../d1/d62/DataFormats_2Detectors_2ITSMFT_2common_2include_2DataFormatsITSMFT_2Cluster_8h.html" target="_top" xlink:title="DataFormatsITSMFT/Cluster.h">
<polygon fill="none" stroke="black" points="560,-340.5 560,-359.5 712,-359.5 712,-340.5 560,-340.5"/>
<text text-anchor="middle" x="636" y="-347.5" font-family="Helvetica,sans-Serif" font-size="10.00">DataFormatsITSMFT/Cluster.h</text>
</a>
</g>
</g>
<!-- Node9&#45;&gt;Node12 -->
<g id="edge13" class="edge"><title>Node9&#45;&gt;Node12</title>
<path fill="none" stroke="midnightblue" d="M724.803,-396.933C705.757,-387.081 680.467,-374 661.749,-364.318"/>
<polygon fill="midnightblue" stroke="midnightblue" points="663.117,-361.086 652.627,-359.6 659.901,-367.303 663.117,-361.086"/>
</g>
<!-- Node13 -->
<g id="node13" class="node"><title>Node13</title>
<g id="a_node13"><a xlink:href="../../d4/de2/BaseCluster_8h.html" target="_top" xlink:title="ReconstructionDataFormats\l/BaseCluster.h">
<polygon fill="none" stroke="black" points="558,-273 558,-303 698,-303 698,-273 558,-273"/>
<text text-anchor="start" x="566" y="-291" font-family="Helvetica,sans-Serif" font-size="10.00">ReconstructionDataFormats</text>
<text text-anchor="middle" x="628" y="-280" font-family="Helvetica,sans-Serif" font-size="10.00">/BaseCluster.h</text>
</a>
</g>
</g>
<!-- Node12&#45;&gt;Node13 -->
<g id="edge14" class="edge"><title>Node12&#45;&gt;Node13</title>
<path fill="none" stroke="midnightblue" d="M634.854,-340.403C633.902,-333.265 632.5,-322.752 631.212,-313.09"/>
<polygon fill="midnightblue" stroke="midnightblue" points="634.676,-312.59 629.885,-303.141 627.738,-313.516 634.676,-312.59"/>
</g>
<!-- Node13&#45;&gt;Node10 -->
<g id="edge19" class="edge"><title>Node13&#45;&gt;Node10</title>
<path fill="none" stroke="midnightblue" d="M682.581,-272.939C721.282,-262.881 774.405,-248.896 821,-236 925.79,-206.998 958.344,-215.805 1056,-168 1077.72,-157.369 1077.24,-144.158 1100,-136 1226.79,-90.5631 1573.63,-129.693 1705,-100 1708.25,-99.2665 1711.57,-98.2807 1714.84,-97.163"/>
<polygon fill="midnightblue" stroke="midnightblue" points="1716.23,-100.38 1724.31,-93.5347 1713.72,-93.8437 1716.23,-100.38"/>
</g>
<!-- Node14 -->
<g id="node14" class="node"><title>Node14</title>
<polygon fill="none" stroke="#bfbfbf" points="656.5,-210.5 656.5,-229.5 715.5,-229.5 715.5,-210.5 656.5,-210.5"/>
<text text-anchor="middle" x="686" y="-217.5" font-family="Helvetica,sans-Serif" font-size="10.00">TObject.h</text>
</g>
<!-- Node13&#45;&gt;Node14 -->
<g id="edge15" class="edge"><title>Node13&#45;&gt;Node14</title>
<path fill="none" stroke="midnightblue" d="M640.585,-272.679C649.718,-262.286 662.09,-248.208 671.614,-237.37"/>
<polygon fill="midnightblue" stroke="midnightblue" points="674.27,-239.65 678.242,-229.828 669.012,-235.03 674.27,-239.65"/>
</g>
<!-- Node15 -->
<g id="node15" class="node"><title>Node15</title>
<polygon fill="none" stroke="#bfbfbf" points="66.5,-74.5 66.5,-93.5 107.5,-93.5 107.5,-74.5 66.5,-74.5"/>
<text text-anchor="middle" x="87" y="-81.5" font-family="Helvetica,sans-Serif" font-size="10.00">bitset</text>
</g>
<!-- Node13&#45;&gt;Node15 -->
<g id="edge16" class="edge"><title>Node13&#45;&gt;Node15</title>
<path fill="none" stroke="midnightblue" d="M557.963,-279.289C468.021,-266.929 309.536,-236.685 192,-168 158.295,-148.304 123.608,-118.714 103.744,-100.698"/>
<polygon fill="midnightblue" stroke="midnightblue" points="105.914,-97.9394 96.1838,-93.7482 101.177,-103.093 105.914,-97.9394"/>
</g>
<!-- Node16 -->
<g id="node16" class="node"><title>Node16</title>
<polygon fill="none" stroke="#bfbfbf" points="541,-210.5 541,-229.5 591,-229.5 591,-210.5 541,-210.5"/>
<text text-anchor="middle" x="566" y="-217.5" font-family="Helvetica,sans-Serif" font-size="10.00">iomanip</text>
</g>
<!-- Node13&#45;&gt;Node16 -->
<g id="edge17" class="edge"><title>Node13&#45;&gt;Node16</title>
<path fill="none" stroke="midnightblue" d="M614.547,-272.679C604.784,-262.286 591.559,-248.208 581.378,-237.37"/>
<polygon fill="midnightblue" stroke="midnightblue" points="583.691,-234.72 574.293,-229.828 578.589,-239.513 583.691,-234.72"/>
</g>
<!-- Node17 -->
<g id="node17" class="node"><title>Node17</title>
<polygon fill="none" stroke="#bfbfbf" points="609.5,-210.5 609.5,-229.5 638.5,-229.5 638.5,-210.5 609.5,-210.5"/>
<text text-anchor="middle" x="624" y="-217.5" font-family="Helvetica,sans-Serif" font-size="10.00">ios</text>
</g>
<!-- Node13&#45;&gt;Node17 -->
<g id="edge18" class="edge"><title>Node13&#45;&gt;Node17</title>
<path fill="none" stroke="midnightblue" d="M627.132,-272.679C626.552,-263.101 625.781,-250.394 625.15,-239.977"/>
<polygon fill="midnightblue" stroke="midnightblue" points="628.634,-239.598 624.535,-229.828 621.647,-240.022 628.634,-239.598"/>
</g>
<!-- Node18 -->
<g id="node18" class="node"><title>Node18</title>
<g id="a_node18"><a xlink:href="../../d4/d20/DetMatrixCache_8h.html" target="_top" xlink:title="DetectorsCommonDataFormats\l/DetMatrixCache.h">
<polygon fill="none" stroke="black" points="367,-205 367,-235 523,-235 523,-205 367,-205"/>
<text text-anchor="start" x="375" y="-223" font-family="Helvetica,sans-Serif" font-size="10.00">DetectorsCommonDataFormats</text>
<text text-anchor="middle" x="445" y="-212" font-family="Helvetica,sans-Serif" font-size="10.00">/DetMatrixCache.h</text>
</a>
</g>
</g>
<!-- Node13&#45;&gt;Node18 -->
<g id="edge20" class="edge"><title>Node13&#45;&gt;Node18</title>
<path fill="none" stroke="midnightblue" d="M588.742,-272.841C560.907,-262.802 523.372,-249.265 493.638,-238.542"/>
<polygon fill="midnightblue" stroke="midnightblue" points="494.473,-235.122 483.879,-235.022 492.098,-241.707 494.473,-235.122"/>
</g>
<!-- Node28 -->
<g id="node28" class="node"><title>Node28</title>
<g id="a_node28"><a xlink:href="../../dd/d76/Cartesian3D_8h.html" target="_top" xlink:title="MathUtils/Cartesian3D.h">
<polygon fill="none" stroke="black" points="922.5,-142.5 922.5,-161.5 1047.5,-161.5 1047.5,-142.5 922.5,-142.5"/>
<text text-anchor="middle" x="985" y="-149.5" font-family="Helvetica,sans-Serif" font-size="10.00">MathUtils/Cartesian3D.h</text>
</a>
</g>
</g>
<!-- Node13&#45;&gt;Node28 -->
<g id="edge48" class="edge"><title>Node13&#45;&gt;Node28</title>
<path fill="none" stroke="midnightblue" d="M665.531,-272.913C735.856,-246.516 886.331,-190.035 952.567,-165.174"/>
<polygon fill="midnightblue" stroke="midnightblue" points="953.947,-168.394 962.079,-161.603 951.487,-161.841 953.947,-168.394"/>
</g>
<!-- Node18&#45;&gt;Node4 -->
<g id="edge22" class="edge"><title>Node18&#45;&gt;Node4</title>
<path fill="none" stroke="midnightblue" d="M431.671,-204.613C423.041,-194.804 411.968,-181.238 404,-168 376.854,-122.899 355.084,-64.4066 345.034,-35.2289"/>
<polygon fill="midnightblue" stroke="midnightblue" points="348.288,-33.9233 341.77,-25.5706 341.656,-36.1649 348.288,-33.9233"/>
</g>
<!-- Node18&#45;&gt;Node8 -->
<g id="edge47" class="edge"><title>Node18&#45;&gt;Node8</title>
<path fill="none" stroke="midnightblue" d="M459.516,-204.836C469.394,-194.903 482.523,-181.107 493,-168 510.238,-146.434 527.642,-119.679 538.371,-102.476"/>
<polygon fill="midnightblue" stroke="midnightblue" points="541.598,-103.911 543.865,-93.5615 535.638,-100.238 541.598,-103.911"/>
</g>
<!-- Node19 -->
<g id="node19" class="node"><title>Node19</title>
<polygon fill="none" stroke="#bfbfbf" points="413.5,-142.5 413.5,-161.5 484.5,-161.5 484.5,-142.5 413.5,-142.5"/>
<text text-anchor="middle" x="449" y="-149.5" font-family="Helvetica,sans-Serif" font-size="10.00">FairLogger.h</text>
</g>
<!-- Node18&#45;&gt;Node19 -->
<g id="edge21" class="edge"><title>Node18&#45;&gt;Node19</title>
<path fill="none" stroke="midnightblue" d="M445.868,-204.679C446.448,-195.101 447.219,-182.394 447.85,-171.977"/>
<polygon fill="midnightblue" stroke="midnightblue" points="451.353,-172.022 448.465,-161.828 444.366,-171.598 451.353,-172.022"/>
</g>
<!-- Node20 -->
<g id="node20" class="node"><title>Node20</title>
<polygon fill="none" stroke="#bfbfbf" points="780,-142.5 780,-161.5 824,-161.5 824,-142.5 780,-142.5"/>
<text text-anchor="middle" x="802" y="-149.5" font-family="Helvetica,sans-Serif" font-size="10.00">vector</text>
</g>
<!-- Node18&#45;&gt;Node20 -->
<g id="edge23" class="edge"><title>Node18&#45;&gt;Node20</title>
<path fill="none" stroke="midnightblue" d="M521.148,-204.922C598.292,-190.66 713.96,-169.276 769.698,-158.972"/>
<polygon fill="midnightblue" stroke="midnightblue" points="770.504,-162.382 779.701,-157.122 769.232,-155.499 770.504,-162.382"/>
</g>
<!-- Node21 -->
<g id="node21" class="node"><title>Node21</title>
<g id="a_node21"><a xlink:href="../../d6/d31/DetID_8h.html" target="_top" xlink:title="DetectorsCommonDataFormats\l/DetID.h">
<polygon fill="none" stroke="black" points="201,-137 201,-167 357,-167 357,-137 201,-137"/>
<text text-anchor="start" x="209" y="-155" font-family="Helvetica,sans-Serif" font-size="10.00">DetectorsCommonDataFormats</text>
<text text-anchor="middle" x="279" y="-144" font-family="Helvetica,sans-Serif" font-size="10.00">/DetID.h</text>
</a>
</g>
</g>
<!-- Node18&#45;&gt;Node21 -->
<g id="edge24" class="edge"><title>Node18&#45;&gt;Node21</title>
<path fill="none" stroke="midnightblue" d="M409.389,-204.841C384.359,-194.89 350.683,-181.5 323.825,-170.822"/>
<polygon fill="midnightblue" stroke="midnightblue" points="324.853,-167.464 314.267,-167.022 322.266,-173.969 324.853,-167.464"/>
</g>
<!-- Node18&#45;&gt;Node28 -->
<g id="edge35" class="edge"><title>Node18&#45;&gt;Node28</title>
<path fill="none" stroke="midnightblue" d="M523.22,-205.291C526.183,-204.843 529.117,-204.41 532,-204 603.445,-193.828 802.985,-172.267 911.861,-160.706"/>
<polygon fill="midnightblue" stroke="midnightblue" points="912.532,-164.155 922.107,-159.619 911.793,-157.194 912.532,-164.155"/>
</g>
<!-- Node21&#45;&gt;Node4 -->
<g id="edge26" class="edge"><title>Node21&#45;&gt;Node4</title>
<path fill="none" stroke="midnightblue" d="M296.968,-136.87C307.484,-127.564 320.028,-114.457 327,-100 336.857,-79.5602 339.16,-53.2435 339.453,-35.7822"/>
<polygon fill="midnightblue" stroke="midnightblue" points="342.953,-35.7238 339.414,-25.7372 335.953,-35.7506 342.953,-35.7238"/>
</g>
<!-- Node21&#45;&gt;Node8 -->
<g id="edge25" class="edge"><title>Node21&#45;&gt;Node8</title>
<path fill="none" stroke="midnightblue" d="M357.26,-137.312C402.891,-128.48 461.27,-115.711 512,-100 514.64,-99.1824 517.356,-98.2555 520.059,-97.2733"/>
<polygon fill="midnightblue" stroke="midnightblue" points="521.573,-100.44 529.638,-93.5699 519.049,-93.9112 521.573,-100.44"/>
</g>
<!-- Node21&#45;&gt;Node15 -->
<g id="edge27" class="edge"><title>Node21&#45;&gt;Node15</title>
<path fill="none" stroke="midnightblue" d="M226.058,-136.967C193.763,-127.787 151.922,-114.778 116,-100 114.591,-99.4204 113.159,-98.7972 111.723,-98.1459"/>
<polygon fill="midnightblue" stroke="midnightblue" points="112.939,-94.8449 102.417,-93.6054 109.869,-101.136 112.939,-94.8449"/>
</g>
<!-- Node22 -->
<g id="node22" class="node"><title>Node22</title>
<polygon fill="none" stroke="#bfbfbf" points="125.5,-74.5 125.5,-93.5 174.5,-93.5 174.5,-74.5 125.5,-74.5"/>
<text text-anchor="middle" x="150" y="-81.5" font-family="Helvetica,sans-Serif" font-size="10.00">cassert</text>
</g>
<!-- Node21&#45;&gt;Node22 -->
<g id="edge28" class="edge"><title>Node21&#45;&gt;Node22</title>
<path fill="none" stroke="midnightblue" d="M251.326,-136.841C229.013,-125.425 197.857,-109.485 176.002,-98.3033"/>
<polygon fill="midnightblue" stroke="midnightblue" points="177.466,-95.1208 166.969,-93.6819 174.277,-101.353 177.466,-95.1208"/>
</g>
<!-- Node23 -->
<g id="node23" class="node"><title>Node23</title>
<polygon fill="none" stroke="#bfbfbf" points="193,-74.5 193,-93.5 239,-93.5 239,-74.5 193,-74.5"/>
<text text-anchor="middle" x="216" y="-81.5" font-family="Helvetica,sans-Serif" font-size="10.00">cstdint</text>
</g>
<!-- Node21&#45;&gt;Node23 -->
<g id="edge29" class="edge"><title>Node21&#45;&gt;Node23</title>
<path fill="none" stroke="midnightblue" d="M265.33,-136.679C255.41,-126.286 241.971,-112.208 231.626,-101.37"/>
<polygon fill="midnightblue" stroke="midnightblue" points="233.864,-98.6452 224.427,-93.8283 228.8,-103.479 233.864,-98.6452"/>
</g>
<!-- Node24 -->
<g id="node24" class="node"><title>Node24</title>
<polygon fill="none" stroke="#bfbfbf" points="257,-74.5 257,-93.5 319,-93.5 319,-74.5 257,-74.5"/>
<text text-anchor="middle" x="288" y="-81.5" font-family="Helvetica,sans-Serif" font-size="10.00">type_traits</text>
</g>
<!-- Node21&#45;&gt;Node24 -->
<g id="edge30" class="edge"><title>Node21&#45;&gt;Node24</title>
<path fill="none" stroke="midnightblue" d="M280.953,-136.679C282.259,-127.101 283.992,-114.394 285.412,-103.977"/>
<polygon fill="midnightblue" stroke="midnightblue" points="288.913,-104.21 286.796,-93.8283 281.977,-103.264 288.913,-104.21"/>
</g>
<!-- Node25 -->
<g id="node25" class="node"><title>Node25</title>
<g id="a_node25"><a xlink:href="../../d9/d52/Common_2MathUtils_2include_2MathUtils_2Utils_8h.html" target="_top" xlink:title="MathUtils/Utils.h">
<polygon fill="none" stroke="black" points="413,-74.5 413,-93.5 503,-93.5 503,-74.5 413,-74.5"/>
<text text-anchor="middle" x="458" y="-81.5" font-family="Helvetica,sans-Serif" font-size="10.00">MathUtils/Utils.h</text>
</a>
</g>
</g>
<!-- Node21&#45;&gt;Node25 -->
<g id="edge31" class="edge"><title>Node21&#45;&gt;Node25</title>
<path fill="none" stroke="midnightblue" d="M317.4,-136.841C349.426,-125.033 394.58,-108.384 425,-97.1676"/>
<polygon fill="midnightblue" stroke="midnightblue" points="426.54,-100.33 434.711,-93.5868 424.118,-93.7625 426.54,-100.33"/>
</g>
<!-- Node25&#45;&gt;Node4 -->
<g id="edge32" class="edge"><title>Node25&#45;&gt;Node4</title>
<path fill="none" stroke="midnightblue" d="M442.443,-74.3717C422.309,-63.2051 387.009,-43.6266 363.319,-30.4876"/>
<polygon fill="midnightblue" stroke="midnightblue" points="365.004,-27.4199 354.561,-25.6305 361.608,-33.5415 365.004,-27.4199"/>
</g>
<!-- Node25&#45;&gt;Node26 -->
<g id="edge33" class="edge"><title>Node25&#45;&gt;Node26</title>
<path fill="none" stroke="midnightblue" d="M483.817,-74.4636C492.655,-71.9084 502.668,-69.4127 512,-68 1047.47,13.0637 1194.34,-111.806 1730,-32 1737.54,-30.877 1745.52,-29.0725 1752.99,-27.098"/>
<polygon fill="midnightblue" stroke="midnightblue" points="1754.1,-30.4226 1762.78,-24.3484 1752.2,-23.6834 1754.1,-30.4226"/>
</g>
<!-- Node27 -->
<g id="node27" class="node"><title>Node27</title>
<g id="a_node27"><a xlink:href="../../d6/d84/MathConstants_8h.html" target="_top" xlink:title="useful math constants ">
<polygon fill="none" stroke="black" points="376.5,-6.5 376.5,-25.5 555.5,-25.5 555.5,-6.5 376.5,-6.5"/>
<text text-anchor="middle" x="466" y="-13.5" font-family="Helvetica,sans-Serif" font-size="10.00">CommonConstants/MathConstants.h</text>
</a>
</g>
</g>
<!-- Node25&#45;&gt;Node27 -->
<g id="edge34" class="edge"><title>Node25&#45;&gt;Node27</title>
<path fill="none" stroke="midnightblue" d="M459.046,-74.3717C460.225,-64.6426 462.178,-48.528 463.715,-35.8504"/>
<polygon fill="midnightblue" stroke="midnightblue" points="467.2,-36.1896 464.928,-25.8411 460.25,-35.3473 467.2,-36.1896"/>
</g>
<!-- Node28&#45;&gt;Node8 -->
<g id="edge41" class="edge"><title>Node28&#45;&gt;Node8</title>
<path fill="none" stroke="midnightblue" d="M944.347,-142.441C932.648,-140.152 919.847,-137.813 908,-136 765.655,-114.215 725.588,-135.382 586,-100 583.006,-99.2411 579.933,-98.2918 576.9,-97.2415"/>
<polygon fill="midnightblue" stroke="midnightblue" points="578.079,-93.9456 567.488,-93.6515 575.584,-100.486 578.079,-93.9456"/>
</g>
<!-- Node28&#45;&gt;Node10 -->
<g id="edge43" class="edge"><title>Node28&#45;&gt;Node10</title>
<path fill="none" stroke="midnightblue" d="M1023.22,-142.487C1035.54,-140.029 1049.3,-137.585 1062,-136 1346.02,-100.553 1425.71,-162.615 1705,-100 1708.25,-99.2722 1711.58,-98.2899 1714.84,-97.1743"/>
<polygon fill="midnightblue" stroke="midnightblue" points="1716.23,-100.392 1724.32,-93.5481 1713.73,-93.8548 1716.23,-100.392"/>
</g>
<!-- Node29 -->
<g id="node29" class="node"><title>Node29</title>
<polygon fill="none" stroke="#bfbfbf" points="1041.5,-69 1041.5,-99 1192.5,-99 1192.5,-69 1041.5,-69"/>
<text text-anchor="start" x="1049.5" y="-87" font-family="Helvetica,sans-Serif" font-size="10.00">Math/GenVector/Displacement</text>
<text text-anchor="middle" x="1117" y="-76" font-family="Helvetica,sans-Serif" font-size="10.00">Vector3D.h</text>
</g>
<!-- Node28&#45;&gt;Node29 -->
<g id="edge36" class="edge"><title>Node28&#45;&gt;Node29</title>
<path fill="none" stroke="midnightblue" d="M1002.26,-142.372C1021.86,-132.569 1054.43,-116.283 1079.87,-103.563"/>
<polygon fill="midnightblue" stroke="midnightblue" points="1081.51,-106.659 1088.89,-99.0562 1078.38,-100.398 1081.51,-106.659"/>
</g>
<!-- Node30 -->
<g id="node30" class="node"><title>Node30</title>
<polygon fill="none" stroke="#bfbfbf" points="1211,-74.5 1211,-93.5 1387,-93.5 1387,-74.5 1211,-74.5"/>
<text text-anchor="middle" x="1299" y="-81.5" font-family="Helvetica,sans-Serif" font-size="10.00">Math/GenVector/PositionVector3D.h</text>
</g>
<!-- Node28&#45;&gt;Node30 -->
<g id="edge37" class="edge"><title>Node28&#45;&gt;Node30</title>
<path fill="none" stroke="midnightblue" d="M1025.73,-142.439C1082.79,-130.446 1186.46,-108.654 1248.4,-95.6351"/>
<polygon fill="midnightblue" stroke="midnightblue" points="1249.28,-99.0277 1258.34,-93.5455 1247.84,-92.1774 1249.28,-99.0277"/>
</g>
<!-- Node31 -->
<g id="node31" class="node"><title>Node31</title>
<polygon fill="none" stroke="#bfbfbf" points="1404.5,-74.5 1404.5,-93.5 1553.5,-93.5 1553.5,-74.5 1404.5,-74.5"/>
<text text-anchor="middle" x="1479" y="-81.5" font-family="Helvetica,sans-Serif" font-size="10.00">Math/GenVector/Rotation3D.h</text>
</g>
<!-- Node28&#45;&gt;Node31 -->
<g id="edge38" class="edge"><title>Node28&#45;&gt;Node31</title>
<path fill="none" stroke="midnightblue" d="M1025.25,-142.491C1037.06,-140.177 1050.01,-137.812 1062,-136 1209.19,-113.748 1247.64,-121.097 1395,-100 1404.58,-98.6288 1414.74,-96.9809 1424.56,-95.2868"/>
<polygon fill="midnightblue" stroke="midnightblue" points="1425.38,-98.6947 1434.63,-93.5142 1424.17,-91.8007 1425.38,-98.6947"/>
</g>
<!-- Node32 -->
<g id="node32" class="node"><title>Node32</title>
<polygon fill="none" stroke="#bfbfbf" points="595,-74.5 595,-93.5 751,-93.5 751,-74.5 595,-74.5"/>
<text text-anchor="middle" x="673" y="-81.5" font-family="Helvetica,sans-Serif" font-size="10.00">Math/GenVector/Transform3D.h</text>
</g>
<!-- Node28&#45;&gt;Node32 -->
<g id="edge39" class="edge"><title>Node28&#45;&gt;Node32</title>
<path fill="none" stroke="midnightblue" d="M944.531,-142.439C887.835,-130.446 784.821,-108.654 723.275,-95.6351"/>
<polygon fill="midnightblue" stroke="midnightblue" points="723.905,-92.191 713.397,-93.5455 722.456,-99.0394 723.905,-92.191"/>
</g>
<!-- Node33 -->
<g id="node33" class="node"><title>Node33</title>
<polygon fill="none" stroke="#bfbfbf" points="769,-74.5 769,-93.5 929,-93.5 929,-74.5 769,-74.5"/>
<text text-anchor="middle" x="849" y="-81.5" font-family="Helvetica,sans-Serif" font-size="10.00">Math/GenVector/Translation3D.h</text>
</g>
<!-- Node28&#45;&gt;Node33 -->
<g id="edge40" class="edge"><title>Node28&#45;&gt;Node33</title>
<path fill="none" stroke="midnightblue" d="M967.22,-142.372C944.007,-131.106 903.151,-111.279 876.077,-98.1403"/>
<polygon fill="midnightblue" stroke="midnightblue" points="877.309,-94.8477 866.784,-93.6305 874.252,-101.145 877.309,-94.8477"/>
</g>
<!-- Node34 -->
<g id="node34" class="node"><title>Node34</title>
<polygon fill="none" stroke="#bfbfbf" points="947,-74.5 947,-93.5 1023,-93.5 1023,-74.5 947,-74.5"/>
<text text-anchor="middle" x="985" y="-81.5" font-family="Helvetica,sans-Serif" font-size="10.00">TGeoMatrix.h</text>
</g>
<!-- Node28&#45;&gt;Node34 -->
<g id="edge42" class="edge"><title>Node28&#45;&gt;Node34</title>
<path fill="none" stroke="midnightblue" d="M985,-142.372C985,-132.643 985,-116.528 985,-103.85"/>
<polygon fill="midnightblue" stroke="midnightblue" points="988.5,-103.841 985,-93.8411 981.5,-103.841 988.5,-103.841"/>
</g>
<!-- Node35 -->
<g id="node35" class="node"><title>Node35</title>
<g id="a_node35"><a xlink:href="../../d2/dd0/Cartesian2D_8h.html" target="_top" xlink:title="MathUtils/Cartesian2D.h">
<polygon fill="none" stroke="black" points="1571.5,-74.5 1571.5,-93.5 1696.5,-93.5 1696.5,-74.5 1571.5,-74.5"/>
<text text-anchor="middle" x="1634" y="-81.5" font-family="Helvetica,sans-Serif" font-size="10.00">MathUtils/Cartesian2D.h</text>
</a>
</g>
</g>
<!-- Node28&#45;&gt;Node35 -->
<g id="edge44" class="edge"><title>Node28&#45;&gt;Node35</title>
<path fill="none" stroke="midnightblue" d="M1024.02,-142.452C1036.14,-140.052 1049.58,-137.651 1062,-136 1282.86,-106.646 1341.34,-130.789 1562,-100 1570.45,-98.8205 1579.4,-97.2344 1588.01,-95.5343"/>
<polygon fill="midnightblue" stroke="midnightblue" points="1588.81,-98.942 1597.91,-93.5037 1587.41,-92.0848 1588.81,-98.942"/>
</g>
<!-- Node36 -->
<g id="node36" class="node"><title>Node36</title>
<polygon fill="none" stroke="#bfbfbf" points="1570.5,-1 1570.5,-31 1721.5,-31 1721.5,-1 1570.5,-1"/>
<text text-anchor="start" x="1578.5" y="-19" font-family="Helvetica,sans-Serif" font-size="10.00">Math/GenVector/Displacement</text>
<text text-anchor="middle" x="1646" y="-8" font-family="Helvetica,sans-Serif" font-size="10.00">Vector2D.h</text>
</g>
<!-- Node35&#45;&gt;Node36 -->
<g id="edge45" class="edge"><title>Node35&#45;&gt;Node36</title>
<path fill="none" stroke="midnightblue" d="M1635.57,-74.3717C1637.1,-65.9715 1639.49,-52.811 1641.6,-41.2126"/>
<polygon fill="midnightblue" stroke="midnightblue" points="1645.08,-41.6463 1643.42,-31.1815 1638.19,-40.394 1645.08,-41.6463"/>
</g>
<!-- Node37 -->
<g id="node37" class="node"><title>Node37</title>
<polygon fill="none" stroke="#bfbfbf" points="1376,-6.5 1376,-25.5 1552,-25.5 1552,-6.5 1376,-6.5"/>
<text text-anchor="middle" x="1464" y="-13.5" font-family="Helvetica,sans-Serif" font-size="10.00">Math/GenVector/PositionVector2D.h</text>
</g>
<!-- Node35&#45;&gt;Node37 -->
<g id="edge46" class="edge"><title>Node35&#45;&gt;Node37</title>
<path fill="none" stroke="midnightblue" d="M1611.78,-74.3717C1582.04,-62.8274 1529.15,-42.2926 1495.37,-29.1772"/>
<polygon fill="midnightblue" stroke="midnightblue" points="1496.55,-25.8824 1485.96,-25.5259 1494.02,-32.4078 1496.55,-25.8824"/>
</g>
<!-- Node38&#45;&gt;Node6 -->
<g id="edge54" class="edge"><title>Node38&#45;&gt;Node6</title>
<path fill="none" stroke="midnightblue" d="M1091.26,-396.933C1121.71,-386.553 1162.67,-372.589 1191.41,-362.792"/>
<polygon fill="midnightblue" stroke="midnightblue" points="1192.69,-366.052 1201.03,-359.513 1190.43,-359.427 1192.69,-366.052"/>
</g>
<!-- Node38&#45;&gt;Node8 -->
<g id="edge50" class="edge"><title>Node38&#45;&gt;Node8</title>
<path fill="none" stroke="midnightblue" d="M1046.94,-396.935C1043.45,-382.272 1037.05,-358.846 1028,-340 976.795,-233.349 961.949,-190.61 857,-136 749.216,-79.9149 703.462,-131.073 586,-100 583.014,-99.2101 579.946,-98.2406 576.916,-97.1781"/>
<polygon fill="midnightblue" stroke="midnightblue" points="578.099,-93.8833 567.509,-93.5728 575.594,-100.42 578.099,-93.8833"/>
</g>
<!-- Node38&#45;&gt;Node10 -->
<g id="edge52" class="edge"><title>Node38&#45;&gt;Node10</title>
<path fill="none" stroke="midnightblue" d="M1087.67,-396.844C1105.02,-388.553 1124.48,-376.434 1137,-360 1156.8,-334.016 1156,-321.666 1156,-289 1156,-289 1156,-289 1156,-219 1156,-94.1669 1585.72,-136.808 1705,-100 1707.64,-99.185 1710.36,-98.26 1713.06,-97.279"/>
<polygon fill="midnightblue" stroke="midnightblue" points="1714.57,-100.446 1722.64,-93.5775 1712.05,-93.9168 1714.57,-100.446"/>
</g>
<!-- Node38&#45;&gt;Node11 -->
<g id="edge53" class="edge"><title>Node38&#45;&gt;Node11</title>
<path fill="none" stroke="midnightblue" d="M1029.38,-396.781C1015.61,-387.286 997.573,-374.843 983.774,-365.327"/>
<polygon fill="midnightblue" stroke="midnightblue" points="985.625,-362.352 975.406,-359.556 981.651,-368.114 985.625,-362.352"/>
</g>
<!-- Node38&#45;&gt;Node20 -->
<g id="edge55" class="edge"><title>Node38&#45;&gt;Node20</title>
<path fill="none" stroke="midnightblue" d="M1042.24,-396.967C1027.3,-370.682 992.609,-312.99 954,-272 913.008,-228.48 855.337,-187.828 824.137,-167.18"/>
<polygon fill="midnightblue" stroke="midnightblue" points="825.997,-164.214 815.713,-161.667 822.163,-170.071 825.997,-164.214"/>
</g>
<!-- Node39 -->
<g id="node39" class="node"><title>Node39</title>
<polygon fill="none" stroke="#bfbfbf" points="1078,-340.5 1078,-359.5 1128,-359.5 1128,-340.5 1078,-340.5"/>
<text text-anchor="middle" x="1103" y="-347.5" font-family="Helvetica,sans-Serif" font-size="10.00">fstream</text>
</g>
<!-- Node38&#45;&gt;Node39 -->
<g id="edge51" class="edge"><title>Node38&#45;&gt;Node39</title>
<path fill="none" stroke="midnightblue" d="M1062.56,-396.781C1070.34,-387.972 1080.36,-376.626 1088.48,-367.433"/>
<polygon fill="midnightblue" stroke="midnightblue" points="1091.29,-369.542 1095.29,-359.731 1086.04,-364.908 1091.29,-369.542"/>
</g>
</g>
</svg>
        <g id="navigator" transform="translate(0 0)" fill="#404254">
                <rect fill="#f2f5e9" fill-opacity="0.5" stroke="#606060" stroke-width=".5" x="0" y="0" width="60" height="60"/>
                <use id="zoomplus" xlink:href="#zoomPlus" x="17" y="9" onmousedown="handleZoom(evt,'in')"/>
                <use id="zoomminus" xlink:href="#zoomMin" x="42" y="9" onmousedown="handleZoom(evt,'out')"/>
                <use id="reset" xlink:href="#resetDef" x="30" y="36" onmousedown="handleReset()"/>
                <g id="arrowUp" xlink:href="#dirArrow" transform="translate(30 24)" onmousedown="handlePan(0,-1)">
                  <use xlink:href="#rim" fill="#404040">
                        <set attributeName="fill" to="#808080" begin="arrowUp.mouseover" end="arrowUp.mouseout"/>
                  </use>
                  <path fill="none" stroke="white" stroke-width="1.5" d="M0,-3.0v7 M-2.5,-0.5L0,-3.0L2.5,-0.5"/>
                </g>
                <g id="arrowRight" xlink:href="#dirArrow" transform="rotate(90) translate(36 -43)" onmousedown="handlePan(1,0)">
                  <use xlink:href="#rim" fill="#404040">
                        <set attributeName="fill" to="#808080" begin="arrowRight.mouseover" end="arrowRight.mouseout"/>
                  </use>
                  <path fill="none" stroke="white" stroke-width="1.5" d="M0,-3.0v7 M-2.5,-0.5L0,-3.0L2.5,-0.5"/>
                </g>
                <g id="arrowDown" xlink:href="#dirArrow" transform="rotate(180) translate(-30 -48)" onmousedown="handlePan(0,1)">
                  <use xlink:href="#rim" fill="#404040">
                        <set attributeName="fill" to="#808080" begin="arrowDown.mouseover" end="arrowDown.mouseout"/>
                  </use>
                  <path fill="none" stroke="white" stroke-width="1.5" d="M0,-3.0v7 M-2.5,-0.5L0,-3.0L2.5,-0.5"/>
                </g>
                <g id="arrowLeft" xlink:href="#dirArrow" transform="rotate(270) translate(-36 17)" onmousedown="handlePan(-1,0)">
                  <use xlink:href="#rim" fill="#404040">
                        <set attributeName="fill" to="#808080" begin="arrowLeft.mouseover" end="arrowLeft.mouseout"/>
                  </use>
                  <path fill="none" stroke="white" stroke-width="1.5" d="M0,-3.0v7 M-2.5,-0.5L0,-3.0L2.5,-0.5"/>
                </g>
        </g>
        <svg viewBox="0 0 15 15" width="100%" height="30px" preserveAspectRatio="xMaxYMin meet">
         <g id="arrow_out" transform="scale(0.3 0.3)">
          <a xlink:href="BuildTopologyDictionary_8cxx__incl_org.svg" target="_base">
           <rect id="button" ry="5" rx="5" y="6" x="6" height="38" width="38"
                fill="#f2f5e9" fill-opacity="0.5" stroke="#606060" stroke-width="1.0"/>
           <path id="arrow"
             d="M 11.500037,31.436501 C 11.940474,20.09759 22.043105,11.32322 32.158766,21.979434 L 37.068811,17.246167 C 37.068811,17.246167 37.088388,32 37.088388,32 L 22.160133,31.978069 C 22.160133,31.978069 26.997745,27.140456 26.997745,27.140456 C 18.528582,18.264221 13.291696,25.230495 11.500037,31.436501 z"
             style="fill:#404040;"/>
          </a>
         </g>
        </svg>
</svg>
