<?xml version="1.0" encoding="UTF-8" standalone="no"?>
<!DOCTYPE svg PUBLIC "-//W3C//DTD SVG 1.1//EN"
 "http://www.w3.org/Graphics/SVG/1.1/DTD/svg11.dtd">
<!-- Generated by graphviz version 2.36.0 (20140111.2315)
 -->
<!-- Title: /home/travis/build/AliceO2Group/AliceO2/Detectors/MUON/MID/Base/include/MIDBase/LegacyUtility.h Pages: 1 -->
<svg width="315pt" height="186pt"
 viewBox="0.00 0.00 315.00 186.00" xmlns="http://www.w3.org/2000/svg" xmlns:xlink="http://www.w3.org/1999/xlink">
<g id="graph0" class="graph" transform="scale(1 1) rotate(0) translate(4 182)">
<title>/home/travis/build/AliceO2Group/AliceO2/Detectors/MUON/MID/Base/include/MIDBase/LegacyUtility.h</title>
<!-- Node1 -->
<g id="node1" class="node"><title>Node1</title>
<polygon fill="#bfbfbf" stroke="black" points="-0.5,-125 -0.5,-177 162.5,-177 162.5,-125 -0.5,-125"/>
<text text-anchor="start" x="7.5" y="-165" font-family="Helvetica,sans-Serif" font-size="10.00">/home/travis/build</text>
<text text-anchor="start" x="7.5" y="-154" font-family="Helvetica,sans-Serif" font-size="10.00">/AliceO2Group/AliceO2</text>
<text text-anchor="start" x="7.5" y="-143" font-family="Helvetica,sans-Serif" font-size="10.00">/Detectors/MUON/MID/Base</text>
<text text-anchor="middle" x="81" y="-132" font-family="Helvetica,sans-Serif" font-size="10.00">/include/MIDBase/LegacyUtility.h</text>
</g>
<!-- Node2 -->
<g id="node2" class="node"><title>Node2</title>
<polygon fill="none" stroke="#bfbfbf" points="27,-6.5 27,-25.5 73,-25.5 73,-6.5 27,-6.5"/>
<text text-anchor="middle" x="50" y="-13.5" font-family="Helvetica,sans-Serif" font-size="10.00">cstdint</text>
</g>
<!-- Node1&#45;&gt;Node2 -->
<g id="edge1" class="edge"><title>Node1&#45;&gt;Node2</title>
<path fill="none" stroke="midnightblue" d="M47.8896,-124.76C37.2111,-114.633 26.6748,-102.024 21,-88 13.4725,-69.3971 24.8605,-48.0889 35.5005,-33.7089"/>
<polygon fill="midnightblue" stroke="midnightblue" points="38.3583,-35.7388 41.8529,-25.7369 32.8837,-31.3765 38.3583,-35.7388"/>
</g>
<!-- Node3 -->
<g id="node3" class="node"><title>Node3</title>
<polygon fill="none" stroke="#bfbfbf" points="30.5,-68.5 30.5,-87.5 71.5,-87.5 71.5,-68.5 30.5,-68.5"/>
<text text-anchor="middle" x="51" y="-75.5" font-family="Helvetica,sans-Serif" font-size="10.00">string</text>
</g>
<!-- Node1&#45;&gt;Node3 -->
<g id="edge2" class="edge"><title>Node1&#45;&gt;Node3</title>
<path fill="none" stroke="midnightblue" d="M70.3387,-124.768C66.4593,-115.587 62.1564,-105.403 58.5961,-96.9775"/>
<polygon fill="midnightblue" stroke="midnightblue" points="61.8164,-95.6063 54.7002,-87.7572 55.3684,-98.3309 61.8164,-95.6063"/>
</g>
<!-- Node4 -->
<g id="node4" class="node"><title>Node4</title>
<polygon fill="none" stroke="#bfbfbf" points="90,-68.5 90,-87.5 134,-87.5 134,-68.5 90,-68.5"/>
<text text-anchor="middle" x="112" y="-75.5" font-family="Helvetica,sans-Serif" font-size="10.00">vector</text>
</g>
<!-- Node1&#45;&gt;Node4 -->
<g id="edge3" class="edge"><title>Node1&#45;&gt;Node4</title>
<path fill="none" stroke="midnightblue" d="M92.0167,-124.768C96.0254,-115.587 100.472,-105.403 104.151,-96.9775"/>
<polygon fill="midnightblue" stroke="midnightblue" points="107.383,-98.3222 108.176,-87.7572 100.967,-95.5212 107.383,-98.3222"/>
</g>
<!-- Node5 -->
<g id="node5" class="node"><title>Node5</title>
<g id="a_node5"><a xlink:href="../../dd/df3/StripPattern_8h.html" target="_top" xlink:title="Strip pattern (aka digits) ">
<polygon fill="none" stroke="black" points="152.5,-68.5 152.5,-87.5 307.5,-87.5 307.5,-68.5 152.5,-68.5"/>
<text text-anchor="middle" x="230" y="-75.5" font-family="Helvetica,sans-Serif" font-size="10.00">DataFormatsMID/StripPattern.h</text>
</a>
</g>
</g>
<!-- Node1&#45;&gt;Node5 -->
<g id="edge4" class="edge"><title>Node1&#45;&gt;Node5</title>
<path fill="none" stroke="midnightblue" d="M133.532,-124.968C156.898,-113.834 183.431,-101.191 202.748,-91.986"/>
<polygon fill="midnightblue" stroke="midnightblue" points="204.349,-95.1003 211.871,-87.6389 201.337,-88.781 204.349,-95.1003"/>
</g>
<!-- Node5&#45;&gt;Node2 -->
<g id="edge6" class="edge"><title>Node5&#45;&gt;Node2</title>
<path fill="none" stroke="midnightblue" d="M204.21,-68.4035C172.27,-57.7568 117.817,-39.6058 82.8995,-27.9665"/>
<polygon fill="midnightblue" stroke="midnightblue" points="83.7642,-24.5655 73.1705,-24.7235 81.5505,-31.2062 83.7642,-24.5655"/>
</g>
<!-- Node6 -->
<g id="node6" class="node"><title>Node6</title>
<polygon fill="none" stroke="#bfbfbf" points="139.5,-1 139.5,-31 234.5,-31 234.5,-1 139.5,-1"/>
<text text-anchor="start" x="147.5" y="-19" font-family="Helvetica,sans-Serif" font-size="10.00">boost/serialization</text>
<text text-anchor="middle" x="187" y="-8" font-family="Helvetica,sans-Serif" font-size="10.00">/access.hpp</text>
</g>
<!-- Node5&#45;&gt;Node6 -->
<g id="edge5" class="edge"><title>Node5&#45;&gt;Node6</title>
<path fill="none" stroke="midnightblue" d="M223.839,-68.4035C218.451,-60.8849 210.38,-49.6238 203.165,-39.5565"/>
<polygon fill="midnightblue" stroke="midnightblue" points="205.804,-37.2302 197.134,-31.1408 200.115,-41.3078 205.804,-37.2302"/>
</g>
<!-- Node7 -->
<g id="node7" class="node"><title>Node7</title>
<polygon fill="none" stroke="#bfbfbf" points="253,-6.5 253,-25.5 291,-25.5 291,-6.5 253,-6.5"/>
<text text-anchor="middle" x="272" y="-13.5" font-family="Helvetica,sans-Serif" font-size="10.00">array</text>
</g>
<!-- Node5&#45;&gt;Node7 -->
<g id="edge7" class="edge"><title>Node5&#45;&gt;Node7</title>
<path fill="none" stroke="midnightblue" d="M236.018,-68.4035C242.318,-59.4034 252.371,-45.0408 260.252,-33.7824"/>
<polygon fill="midnightblue" stroke="midnightblue" points="263.126,-35.7801 265.994,-25.5806 257.392,-31.7658 263.126,-35.7801"/>
</g>
</g>
</svg>
