<?xml version="1.0" encoding="UTF-8" standalone="no"?>
<!DOCTYPE svg PUBLIC "-//W3C//DTD SVG 1.1//EN"
 "http://www.w3.org/Graphics/SVG/1.1/DTD/svg11.dtd">
<!-- Generated by graphviz version 2.36.0 (20140111.2315)
 -->
<!-- Title: /home/travis/build/AliceO2Group/AliceO2/Detectors/ITSMFT/common/reconstruction/src/LookUp.cxx Pages: 1 -->
<!--zoomable 594 -->
<svg id="main" version="1.1" xmlns="http://www.w3.org/2000/svg" xmlns:xlink="http://www.w3.org/1999/xlink" xml:space="preserve" onload="init(evt)">
<style type="text/css"><![CDATA[
.edge:hover path { stroke: red; }
.edge:hover polygon { stroke: red; fill: red; }
]]></style>
<script type="text/javascript"><![CDATA[
var edges = document.getElementsByTagName('g');
if (edges && edges.length) {
  for (var i=0;i<edges.length;i++) {
    if (edges[i].id.substr(0,4)=='edge') {
      edges[i].setAttribute('class','edge');
    }
  }
}
]]></script>
        <defs>
                <circle id="rim" cx="0" cy="0" r="7"/>
                <circle id="rim2" cx="0" cy="0" r="3.5"/>
                <g id="zoomPlus">
                        <use xlink:href="#rim" fill="#404040">
                                <set attributeName="fill" to="#808080" begin="zoomplus.mouseover" end="zoomplus.mouseout"/>
                        </use>
                        <path d="M-4,0h8M0,-4v8" fill="none" stroke="white" stroke-width="1.5" pointer-events="none"/>
                </g>
                <g id="zoomMin">
                        <use xlink:href="#rim" fill="#404040">
                                <set attributeName="fill" to="#808080" begin="zoomminus.mouseover" end="zoomminus.mouseout"/>
                        </use>
                        <path d="M-4,0h8" fill="none" stroke="white" stroke-width="1.5" pointer-events="none"/>
                </g>
                <g id="dirArrow">
                        <path fill="none" stroke="white" stroke-width="1.5" d="M0,-3.0v7 M-2.5,-0.5L0,-3.0L2.5,-0.5"/>
                </g>
               <g id="resetDef">
                       <use xlink:href="#rim2" fill="#404040">
                               <set attributeName="fill" to="#808080" begin="reset.mouseover" end="reset.mouseout"/>
                       </use>
               </g>
        </defs>

<script type="text/javascript">
var viewWidth = 1881;
var viewHeight = 594;
var sectionId = 'dynsection-0';
</script>
<script xlink:href="../../svgpan.js"/>
<svg id="graph" class="graph">
<g id="viewport">
<title>/home/travis/build/AliceO2Group/AliceO2/Detectors/ITSMFT/common/reconstruction/src/LookUp.cxx</title>
<!-- Node1 -->
<g id="node1" class="node"><title>Node1</title>
<polygon fill="#bfbfbf" stroke="black" points="1300.5,-533 1300.5,-585 1453.5,-585 1453.5,-533 1300.5,-533"/>
<text text-anchor="start" x="1308.5" y="-573" font-family="Helvetica,sans-Serif" font-size="10.00">/home/travis/build</text>
<text text-anchor="start" x="1308.5" y="-562" font-family="Helvetica,sans-Serif" font-size="10.00">/AliceO2Group/AliceO2</text>
<text text-anchor="start" x="1308.5" y="-551" font-family="Helvetica,sans-Serif" font-size="10.00">/Detectors/ITSMFT/common</text>
<text text-anchor="middle" x="1377" y="-540" font-family="Helvetica,sans-Serif" font-size="10.00">/reconstruction/src/LookUp.cxx</text>
</g>
<!-- Node2 -->
<g id="node2" class="node"><title>Node2</title>
<g id="a_node2"><a xlink:href="../../df/ddf/LookUp_8h.html" target="_top" xlink:title="Definition of the LookUp class. ">
<polygon fill="none" stroke="black" points="1317.5,-465 1317.5,-495 1436.5,-495 1436.5,-465 1317.5,-465"/>
<text text-anchor="start" x="1325.5" y="-483" font-family="Helvetica,sans-Serif" font-size="10.00">ITSMFTReconstruction</text>
<text text-anchor="middle" x="1377" y="-472" font-family="Helvetica,sans-Serif" font-size="10.00">/LookUp.h</text>
</a>
</g>
</g>
<!-- Node1&#45;&gt;Node2 -->
<g id="edge1" class="edge"><title>Node1&#45;&gt;Node2</title>
<path fill="none" stroke="midnightblue" d="M1377,-532.787C1377,-524.029 1377,-514.225 1377,-505.523"/>
<polygon fill="midnightblue" stroke="midnightblue" points="1380.5,-505.252 1377,-495.252 1373.5,-505.252 1380.5,-505.252"/>
</g>
<!-- Node3 -->
<g id="node3" class="node"><title>Node3</title>
<polygon fill="none" stroke="#bfbfbf" points="117,-6.5 117,-25.5 155,-25.5 155,-6.5 117,-6.5"/>
<text text-anchor="middle" x="136" y="-13.5" font-family="Helvetica,sans-Serif" font-size="10.00">array</text>
</g>
<!-- Node2&#45;&gt;Node3 -->
<g id="edge2" class="edge"><title>Node2&#45;&gt;Node3</title>
<path fill="none" stroke="midnightblue" d="M1317.39,-476.633C1053.09,-465.753 0,-418.189 0,-351 0,-351 0,-351 0,-151 0,-110.612 9.25713,-97.3521 37,-68 56.2611,-47.6217 85.4728,-33.9645 107.179,-25.9535"/>
<polygon fill="midnightblue" stroke="midnightblue" points="108.574,-29.1735 116.857,-22.568 106.262,-22.5661 108.574,-29.1735"/>
</g>
<!-- Node4 -->
<g id="node4" class="node"><title>Node4</title>
<g id="a_node4"><a xlink:href="../../d8/ddb/ClusterTopology_8h.html" target="_top" xlink:title="Definition of the ClusterTopology class. ">
<polygon fill="none" stroke="black" points="1305,-397 1305,-427 1449,-427 1449,-397 1305,-397"/>
<text text-anchor="start" x="1313" y="-415" font-family="Helvetica,sans-Serif" font-size="10.00">DataFormatsITSMFT/Cluster</text>
<text text-anchor="middle" x="1377" y="-404" font-family="Helvetica,sans-Serif" font-size="10.00">Topology.h</text>
</a>
</g>
</g>
<!-- Node2&#45;&gt;Node4 -->
<g id="edge3" class="edge"><title>Node2&#45;&gt;Node4</title>
<path fill="none" stroke="midnightblue" d="M1377,-464.679C1377,-456.722 1377,-446.605 1377,-437.436"/>
<polygon fill="midnightblue" stroke="midnightblue" points="1380.5,-437.293 1377,-427.293 1373.5,-437.293 1380.5,-437.293"/>
</g>
<!-- Node34 -->
<g id="node34" class="node"><title>Node34</title>
<g id="a_node34"><a xlink:href="../../d1/d08/TopologyDictionary_8h.html" target="_top" xlink:title="Definition of the ClusterTopology class. ">
<polygon fill="none" stroke="black" points="1581,-205 1581,-235 1733,-235 1733,-205 1581,-205"/>
<text text-anchor="start" x="1589" y="-223" font-family="Helvetica,sans-Serif" font-size="10.00">DataFormatsITSMFT/Topology</text>
<text text-anchor="middle" x="1657" y="-212" font-family="Helvetica,sans-Serif" font-size="10.00">Dictionary.h</text>
</a>
</g>
</g>
<!-- Node2&#45;&gt;Node34 -->
<g id="edge44" class="edge"><title>Node2&#45;&gt;Node34</title>
<path fill="none" stroke="midnightblue" d="M1407.8,-464.989C1447.91,-445.639 1518.61,-407.663 1567,-360 1602.51,-325.017 1631.21,-273.653 1646.03,-244.149"/>
<polygon fill="midnightblue" stroke="midnightblue" points="1649.24,-245.555 1650.51,-235.037 1642.96,-242.464 1649.24,-245.555"/>
</g>
<!-- Node4&#45;&gt;Node3 -->
<g id="edge5" class="edge"><title>Node4&#45;&gt;Node3</title>
<path fill="none" stroke="midnightblue" d="M1304.53,-408.23C1025.76,-397.104 38,-353.156 38,-289 38,-289 38,-289 38,-151 38,-113.157 35.2809,-98.99 57,-68 69.5695,-50.0651 90.6604,-36.9218 107.89,-28.4734"/>
<polygon fill="midnightblue" stroke="midnightblue" points="109.381,-31.6397 116.985,-24.2622 106.44,-25.2875 109.381,-31.6397"/>
</g>
<!-- Node5 -->
<g id="node5" class="node"><title>Node5</title>
<polygon fill="none" stroke="#bfbfbf" points="1642,-74.5 1642,-93.5 1698,-93.5 1698,-74.5 1642,-74.5"/>
<text text-anchor="middle" x="1670" y="-81.5" font-family="Helvetica,sans-Serif" font-size="10.00">Rtypes.h</text>
</g>
<!-- Node4&#45;&gt;Node5 -->
<g id="edge4" class="edge"><title>Node4&#45;&gt;Node5</title>
<path fill="none" stroke="midnightblue" d="M1377,-396.725C1377,-373.947 1377,-327.972 1377,-289 1377,-289 1377,-289 1377,-219 1377,-181.157 1368.27,-161.747 1396,-136 1474.08,-63.5135 1530.26,-128.208 1633,-100 1635.98,-99.1822 1639.04,-98.1946 1642.07,-97.1211"/>
<polygon fill="midnightblue" stroke="midnightblue" points="1643.4,-100.36 1651.47,-93.502 1640.88,-93.8275 1643.4,-100.36"/>
</g>
<!-- Node6 -->
<g id="node6" class="node"><title>Node6</title>
<polygon fill="none" stroke="#bfbfbf" points="1716,-74.5 1716,-93.5 1770,-93.5 1770,-74.5 1716,-74.5"/>
<text text-anchor="middle" x="1743" y="-81.5" font-family="Helvetica,sans-Serif" font-size="10.00">iostream</text>
</g>
<!-- Node4&#45;&gt;Node6 -->
<g id="edge6" class="edge"><title>Node4&#45;&gt;Node6</title>
<path fill="none" stroke="midnightblue" d="M1434.63,-396.878C1485.96,-380.447 1553,-347.742 1553,-289 1553,-289 1553,-289 1553,-219 1553,-180.837 1548.14,-163.107 1575,-136 1617.5,-93.1109 1648.81,-119.376 1706,-100 1708.56,-99.1332 1711.19,-98.1828 1713.83,-97.1942"/>
<polygon fill="midnightblue" stroke="midnightblue" points="1715.15,-100.433 1723.19,-93.5283 1712.6,-93.915 1715.15,-100.433"/>
</g>
<!-- Node7 -->
<g id="node7" class="node"><title>Node7</title>
<polygon fill="none" stroke="#bfbfbf" points="1584.5,-142.5 1584.5,-161.5 1625.5,-161.5 1625.5,-142.5 1584.5,-142.5"/>
<text text-anchor="middle" x="1605" y="-149.5" font-family="Helvetica,sans-Serif" font-size="10.00">string</text>
</g>
<!-- Node4&#45;&gt;Node7 -->
<g id="edge7" class="edge"><title>Node4&#45;&gt;Node7</title>
<path fill="none" stroke="midnightblue" d="M1389.58,-396.761C1428.87,-352.308 1549.09,-216.264 1590.67,-169.213"/>
<polygon fill="midnightblue" stroke="midnightblue" points="1593.48,-171.316 1597.48,-161.505 1588.24,-166.681 1593.48,-171.316"/>
</g>
<!-- Node8 -->
<g id="node8" class="node"><title>Node8</title>
<g id="a_node8"><a xlink:href="../../d1/d62/DataFormats_2Detectors_2ITSMFT_2common_2include_2DataFormatsITSMFT_2Cluster_8h.html" target="_top" xlink:title="DataFormatsITSMFT/Cluster.h">
<polygon fill="none" stroke="black" points="1108,-340.5 1108,-359.5 1260,-359.5 1260,-340.5 1108,-340.5"/>
<text text-anchor="middle" x="1184" y="-347.5" font-family="Helvetica,sans-Serif" font-size="10.00">DataFormatsITSMFT/Cluster.h</text>
</a>
</g>
</g>
<!-- Node4&#45;&gt;Node8 -->
<g id="edge8" class="edge"><title>Node4&#45;&gt;Node8</title>
<path fill="none" stroke="midnightblue" d="M1331.75,-396.933C1298.07,-386.462 1252.66,-372.345 1221.11,-362.536"/>
<polygon fill="midnightblue" stroke="midnightblue" points="1221.97,-359.139 1211.38,-359.513 1219.89,-365.824 1221.97,-359.139"/>
</g>
<!-- Node9 -->
<g id="node9" class="node"><title>Node9</title>
<g id="a_node9"><a xlink:href="../../d4/de2/BaseCluster_8h.html" target="_top" xlink:title="ReconstructionDataFormats\l/BaseCluster.h">
<polygon fill="none" stroke="black" points="967,-273 967,-303 1107,-303 1107,-273 967,-273"/>
<text text-anchor="start" x="975" y="-291" font-family="Helvetica,sans-Serif" font-size="10.00">ReconstructionDataFormats</text>
<text text-anchor="middle" x="1037" y="-280" font-family="Helvetica,sans-Serif" font-size="10.00">/BaseCluster.h</text>
</a>
</g>
</g>
<!-- Node8&#45;&gt;Node9 -->
<g id="edge9" class="edge"><title>Node8&#45;&gt;Node9</title>
<path fill="none" stroke="midnightblue" d="M1162.94,-340.403C1141.56,-331.679 1107.84,-317.914 1080.67,-306.824"/>
<polygon fill="midnightblue" stroke="midnightblue" points="1081.94,-303.564 1071.36,-303.025 1079.3,-310.045 1081.94,-303.564"/>
</g>
<!-- Node9&#45;&gt;Node6 -->
<g id="edge14" class="edge"><title>Node9&#45;&gt;Node6</title>
<path fill="none" stroke="midnightblue" d="M1092.89,-272.99C1173.87,-252.281 1328.22,-211.259 1457,-168 1494.08,-155.542 1501.54,-147.269 1539,-136 1611.71,-114.129 1633.44,-122.347 1706,-100 1708.64,-99.1865 1711.36,-98.2626 1714.06,-97.2822"/>
<polygon fill="midnightblue" stroke="midnightblue" points="1715.57,-100.45 1723.64,-93.5818 1713.05,-93.92 1715.57,-100.45"/>
</g>
<!-- Node10 -->
<g id="node10" class="node"><title>Node10</title>
<polygon fill="none" stroke="#bfbfbf" points="66.5,-210.5 66.5,-229.5 125.5,-229.5 125.5,-210.5 66.5,-210.5"/>
<text text-anchor="middle" x="96" y="-217.5" font-family="Helvetica,sans-Serif" font-size="10.00">TObject.h</text>
</g>
<!-- Node9&#45;&gt;Node10 -->
<g id="edge10" class="edge"><title>Node9&#45;&gt;Node10</title>
<path fill="none" stroke="midnightblue" d="M966.961,-285.842C783.724,-282.366 293.421,-270.069 135,-236 131.489,-235.245 127.878,-234.221 124.337,-233.061"/>
<polygon fill="midnightblue" stroke="midnightblue" points="125.275,-229.678 114.681,-229.538 122.876,-236.254 125.275,-229.678"/>
</g>
<!-- Node11 -->
<g id="node11" class="node"><title>Node11</title>
<polygon fill="none" stroke="#bfbfbf" points="66.5,-74.5 66.5,-93.5 107.5,-93.5 107.5,-74.5 66.5,-74.5"/>
<text text-anchor="middle" x="87" y="-81.5" font-family="Helvetica,sans-Serif" font-size="10.00">bitset</text>
</g>
<!-- Node9&#45;&gt;Node11 -->
<g id="edge11" class="edge"><title>Node9&#45;&gt;Node11</title>
<path fill="none" stroke="midnightblue" d="M966.971,-286.757C822.065,-284.145 480.744,-266.997 216,-168 172.457,-151.718 128.316,-119.048 104.638,-99.911"/>
<polygon fill="midnightblue" stroke="midnightblue" points="106.826,-97.1786 96.88,-93.528 102.379,-102.584 106.826,-97.1786"/>
</g>
<!-- Node12 -->
<g id="node12" class="node"><title>Node12</title>
<polygon fill="none" stroke="#bfbfbf" points="144,-210.5 144,-229.5 194,-229.5 194,-210.5 144,-210.5"/>
<text text-anchor="middle" x="169" y="-217.5" font-family="Helvetica,sans-Serif" font-size="10.00">iomanip</text>
</g>
<!-- Node9&#45;&gt;Node12 -->
<g id="edge12" class="edge"><title>Node9&#45;&gt;Node12</title>
<path fill="none" stroke="midnightblue" d="M966.707,-285.43C793.889,-281.127 351.891,-267.318 208,-236 204.491,-235.236 200.881,-234.207 197.34,-233.044"/>
<polygon fill="midnightblue" stroke="midnightblue" points="198.28,-229.661 187.686,-229.518 195.879,-236.236 198.28,-229.661"/>
</g>
<!-- Node13 -->
<g id="node13" class="node"><title>Node13</title>
<polygon fill="none" stroke="#bfbfbf" points="1088.5,-210.5 1088.5,-229.5 1117.5,-229.5 1117.5,-210.5 1088.5,-210.5"/>
<text text-anchor="middle" x="1103" y="-217.5" font-family="Helvetica,sans-Serif" font-size="10.00">ios</text>
</g>
<!-- Node9&#45;&gt;Node13 -->
<g id="edge13" class="edge"><title>Node9&#45;&gt;Node13</title>
<path fill="none" stroke="midnightblue" d="M1051.32,-272.679C1061.82,-262.184 1076.07,-247.932 1086.95,-237.052"/>
<polygon fill="midnightblue" stroke="midnightblue" points="1089.58,-239.374 1094.17,-229.828 1084.63,-234.425 1089.58,-239.374"/>
</g>
<!-- Node14 -->
<g id="node14" class="node"><title>Node14</title>
<g id="a_node14"><a xlink:href="../../d4/d20/DetMatrixCache_8h.html" target="_top" xlink:title="DetectorsCommonDataFormats\l/DetMatrixCache.h">
<polygon fill="none" stroke="black" points="914,-205 914,-235 1070,-235 1070,-205 914,-205"/>
<text text-anchor="start" x="922" y="-223" font-family="Helvetica,sans-Serif" font-size="10.00">DetectorsCommonDataFormats</text>
<text text-anchor="middle" x="992" y="-212" font-family="Helvetica,sans-Serif" font-size="10.00">/DetMatrixCache.h</text>
</a>
</g>
</g>
<!-- Node9&#45;&gt;Node14 -->
<g id="edge15" class="edge"><title>Node9&#45;&gt;Node14</title>
<path fill="none" stroke="midnightblue" d="M1027.24,-272.679C1021.46,-264.203 1014.01,-253.276 1007.45,-243.655"/>
<polygon fill="midnightblue" stroke="midnightblue" points="1010.27,-241.584 1001.75,-235.293 1004.49,-245.527 1010.27,-241.584"/>
</g>
<!-- Node24 -->
<g id="node24" class="node"><title>Node24</title>
<g id="a_node24"><a xlink:href="../../dd/d76/Cartesian3D_8h.html" target="_top" xlink:title="MathUtils/Cartesian3D.h">
<polygon fill="none" stroke="black" points="1083.5,-142.5 1083.5,-161.5 1208.5,-161.5 1208.5,-142.5 1083.5,-142.5"/>
<text text-anchor="middle" x="1146" y="-149.5" font-family="Helvetica,sans-Serif" font-size="10.00">MathUtils/Cartesian3D.h</text>
</a>
</g>
</g>
<!-- Node9&#45;&gt;Node24 -->
<g id="edge43" class="edge"><title>Node9&#45;&gt;Node24</title>
<path fill="none" stroke="midnightblue" d="M1076.17,-272.964C1093.83,-264.755 1113.5,-252.669 1126,-236 1140.07,-217.234 1144.39,-189.953 1145.63,-171.854"/>
<polygon fill="midnightblue" stroke="midnightblue" points="1149.14,-171.843 1146.08,-161.7 1142.14,-171.538 1149.14,-171.843"/>
</g>
<!-- Node14&#45;&gt;Node3 -->
<g id="edge17" class="edge"><title>Node14&#45;&gt;Node3</title>
<path fill="none" stroke="midnightblue" d="M913.664,-215.107C797.428,-206.743 574.76,-180.661 405,-100 384.748,-90.3775 386.163,-77.8063 366,-68 298.749,-35.2925 210.235,-23.29 165.138,-19.1012"/>
<polygon fill="midnightblue" stroke="midnightblue" points="165.427,-15.6132 155.162,-18.2377 164.823,-22.5871 165.427,-15.6132"/>
</g>
<!-- Node14&#45;&gt;Node5 -->
<g id="edge42" class="edge"><title>Node14&#45;&gt;Node5</title>
<path fill="none" stroke="midnightblue" d="M1054.2,-204.935C1155.83,-181.977 1347.77,-138.713 1363,-136 1482.18,-114.764 1515.97,-130.989 1633,-100 1635.99,-99.2093 1639.05,-98.2394 1642.08,-97.1766"/>
<polygon fill="midnightblue" stroke="midnightblue" points="1643.41,-100.418 1651.49,-93.5709 1640.9,-93.8819 1643.41,-100.418"/>
</g>
<!-- Node15 -->
<g id="node15" class="node"><title>Node15</title>
<polygon fill="none" stroke="#bfbfbf" points="956.5,-142.5 956.5,-161.5 1027.5,-161.5 1027.5,-142.5 956.5,-142.5"/>
<text text-anchor="middle" x="992" y="-149.5" font-family="Helvetica,sans-Serif" font-size="10.00">FairLogger.h</text>
</g>
<!-- Node14&#45;&gt;Node15 -->
<g id="edge16" class="edge"><title>Node14&#45;&gt;Node15</title>
<path fill="none" stroke="midnightblue" d="M992,-204.679C992,-195.101 992,-182.394 992,-171.977"/>
<polygon fill="midnightblue" stroke="midnightblue" points="995.5,-171.828 992,-161.828 988.5,-171.828 995.5,-171.828"/>
</g>
<!-- Node16 -->
<g id="node16" class="node"><title>Node16</title>
<polygon fill="none" stroke="#bfbfbf" points="1405,-142.5 1405,-161.5 1449,-161.5 1449,-142.5 1405,-142.5"/>
<text text-anchor="middle" x="1427" y="-149.5" font-family="Helvetica,sans-Serif" font-size="10.00">vector</text>
</g>
<!-- Node14&#45;&gt;Node16 -->
<g id="edge18" class="edge"><title>Node14&#45;&gt;Node16</title>
<path fill="none" stroke="midnightblue" d="M1070.24,-205.415C1073.2,-204.932 1076.12,-204.459 1079,-204 1195.04,-185.496 1333.28,-165.992 1394.76,-157.448"/>
<polygon fill="midnightblue" stroke="midnightblue" points="1395.56,-160.871 1404.98,-156.03 1394.6,-153.937 1395.56,-160.871"/>
</g>
<!-- Node17 -->
<g id="node17" class="node"><title>Node17</title>
<g id="a_node17"><a xlink:href="../../d6/d31/DetID_8h.html" target="_top" xlink:title="DetectorsCommonDataFormats\l/DetID.h">
<polygon fill="none" stroke="black" points="225,-137 225,-167 381,-167 381,-137 225,-137"/>
<text text-anchor="start" x="233" y="-155" font-family="Helvetica,sans-Serif" font-size="10.00">DetectorsCommonDataFormats</text>
<text text-anchor="middle" x="303" y="-144" font-family="Helvetica,sans-Serif" font-size="10.00">/DetID.h</text>
</a>
</g>
</g>
<!-- Node14&#45;&gt;Node17 -->
<g id="edge19" class="edge"><title>Node14&#45;&gt;Node17</title>
<path fill="none" stroke="midnightblue" d="M913.57,-214.217C799.257,-206.812 580.302,-190.987 395,-168 393.735,-167.843 392.461,-167.682 391.18,-167.516"/>
<polygon fill="midnightblue" stroke="midnightblue" points="391.617,-164.043 381.238,-166.173 390.68,-170.98 391.617,-164.043"/>
</g>
<!-- Node14&#45;&gt;Node24 -->
<g id="edge30" class="edge"><title>Node14&#45;&gt;Node24</title>
<path fill="none" stroke="midnightblue" d="M1025.04,-204.841C1052.15,-193.221 1090.21,-176.912 1116.35,-165.706"/>
<polygon fill="midnightblue" stroke="midnightblue" points="1117.93,-168.838 1125.74,-161.682 1115.17,-162.404 1117.93,-168.838"/>
</g>
<!-- Node17&#45;&gt;Node3 -->
<g id="edge21" class="edge"><title>Node17&#45;&gt;Node3</title>
<path fill="none" stroke="midnightblue" d="M224.957,-139.676C199.455,-132.298 173.073,-120.115 155,-100 139.209,-82.4255 135.73,-54.4433 135.344,-35.8993"/>
<polygon fill="midnightblue" stroke="midnightblue" points="138.845,-35.7765 135.421,-25.7502 131.845,-35.7232 138.845,-35.7765"/>
</g>
<!-- Node17&#45;&gt;Node5 -->
<g id="edge20" class="edge"><title>Node17&#45;&gt;Node5</title>
<path fill="none" stroke="midnightblue" d="M381.453,-148.741C657.644,-140.69 1571.69,-113.18 1633,-100 1636.25,-99.3008 1639.59,-98.3364 1642.86,-97.2309"/>
<polygon fill="midnightblue" stroke="midnightblue" points="1644.24,-100.451 1652.33,-93.6151 1641.74,-93.9109 1644.24,-100.451"/>
</g>
<!-- Node17&#45;&gt;Node11 -->
<g id="edge22" class="edge"><title>Node17&#45;&gt;Node11</title>
<path fill="none" stroke="midnightblue" d="M245.746,-136.91C209.838,-127.572 162.785,-114.416 122,-100 119.739,-99.2006 117.415,-98.3266 115.093,-97.415"/>
<polygon fill="midnightblue" stroke="midnightblue" points="116.292,-94.1238 105.713,-93.5523 113.627,-100.596 116.292,-94.1238"/>
</g>
<!-- Node18 -->
<g id="node18" class="node"><title>Node18</title>
<polygon fill="none" stroke="#bfbfbf" points="164.5,-74.5 164.5,-93.5 213.5,-93.5 213.5,-74.5 164.5,-74.5"/>
<text text-anchor="middle" x="189" y="-81.5" font-family="Helvetica,sans-Serif" font-size="10.00">cassert</text>
</g>
<!-- Node17&#45;&gt;Node18 -->
<g id="edge23" class="edge"><title>Node17&#45;&gt;Node18</title>
<path fill="none" stroke="midnightblue" d="M278.544,-136.841C259.091,-125.579 232.032,-109.913 212.762,-98.7572"/>
<polygon fill="midnightblue" stroke="midnightblue" points="214.404,-95.6633 203.996,-93.6819 210.897,-101.721 214.404,-95.6633"/>
</g>
<!-- Node19 -->
<g id="node19" class="node"><title>Node19</title>
<polygon fill="none" stroke="#bfbfbf" points="232,-74.5 232,-93.5 278,-93.5 278,-74.5 232,-74.5"/>
<text text-anchor="middle" x="255" y="-81.5" font-family="Helvetica,sans-Serif" font-size="10.00">cstdint</text>
</g>
<!-- Node17&#45;&gt;Node19 -->
<g id="edge24" class="edge"><title>Node17&#45;&gt;Node19</title>
<path fill="none" stroke="midnightblue" d="M292.585,-136.679C285.175,-126.49 275.188,-112.759 267.372,-102.011"/>
<polygon fill="midnightblue" stroke="midnightblue" points="270.133,-99.8571 261.421,-93.8283 264.472,-103.974 270.133,-99.8571"/>
</g>
<!-- Node20 -->
<g id="node20" class="node"><title>Node20</title>
<polygon fill="none" stroke="#bfbfbf" points="296,-74.5 296,-93.5 358,-93.5 358,-74.5 296,-74.5"/>
<text text-anchor="middle" x="327" y="-81.5" font-family="Helvetica,sans-Serif" font-size="10.00">type_traits</text>
</g>
<!-- Node17&#45;&gt;Node20 -->
<g id="edge25" class="edge"><title>Node17&#45;&gt;Node20</title>
<path fill="none" stroke="midnightblue" d="M308.208,-136.679C311.765,-126.898 316.509,-113.852 320.34,-103.315"/>
<polygon fill="midnightblue" stroke="midnightblue" points="323.661,-104.422 323.79,-93.8283 317.083,-102.03 323.661,-104.422"/>
</g>
<!-- Node21 -->
<g id="node21" class="node"><title>Node21</title>
<g id="a_node21"><a xlink:href="../../d9/d52/Common_2MathUtils_2include_2MathUtils_2Utils_8h.html" target="_top" xlink:title="MathUtils/Utils.h">
<polygon fill="none" stroke="black" points="414,-74.5 414,-93.5 504,-93.5 504,-74.5 414,-74.5"/>
<text text-anchor="middle" x="459" y="-81.5" font-family="Helvetica,sans-Serif" font-size="10.00">MathUtils/Utils.h</text>
</a>
</g>
</g>
<!-- Node17&#45;&gt;Node21 -->
<g id="edge26" class="edge"><title>Node17&#45;&gt;Node21</title>
<path fill="none" stroke="midnightblue" d="M336.466,-136.841C363.933,-125.221 402.481,-108.912 428.967,-97.7063"/>
<polygon fill="midnightblue" stroke="midnightblue" points="430.633,-100.802 438.479,-93.6819 427.906,-94.355 430.633,-100.802"/>
</g>
<!-- Node21&#45;&gt;Node3 -->
<g id="edge27" class="edge"><title>Node21&#45;&gt;Node3</title>
<path fill="none" stroke="midnightblue" d="M426.929,-74.4859C418.217,-72.2715 408.767,-69.9596 400,-68 315.115,-49.0273 213.94,-30.6553 165.157,-22.0605"/>
<polygon fill="midnightblue" stroke="midnightblue" points="165.746,-18.6105 155.292,-20.3301 164.537,-25.5053 165.746,-18.6105"/>
</g>
<!-- Node22 -->
<g id="node22" class="node"><title>Node22</title>
<polygon fill="none" stroke="#bfbfbf" points="502,-6.5 502,-25.5 546,-25.5 546,-6.5 502,-6.5"/>
<text text-anchor="middle" x="524" y="-13.5" font-family="Helvetica,sans-Serif" font-size="10.00">cmath</text>
</g>
<!-- Node21&#45;&gt;Node22 -->
<g id="edge28" class="edge"><title>Node21&#45;&gt;Node22</title>
<path fill="none" stroke="midnightblue" d="M467.498,-74.3717C477.757,-63.9547 495.225,-46.2173 508.029,-33.2162"/>
<polygon fill="midnightblue" stroke="midnightblue" points="510.77,-35.4219 515.293,-25.8411 505.782,-30.5101 510.77,-35.4219"/>
</g>
<!-- Node23 -->
<g id="node23" class="node"><title>Node23</title>
<g id="a_node23"><a xlink:href="../../d6/d84/MathConstants_8h.html" target="_top" xlink:title="useful math constants ">
<polygon fill="none" stroke="black" points="304.5,-6.5 304.5,-25.5 483.5,-25.5 483.5,-6.5 304.5,-6.5"/>
<text text-anchor="middle" x="394" y="-13.5" font-family="Helvetica,sans-Serif" font-size="10.00">CommonConstants/MathConstants.h</text>
</a>
</g>
</g>
<!-- Node21&#45;&gt;Node23 -->
<g id="edge29" class="edge"><title>Node21&#45;&gt;Node23</title>
<path fill="none" stroke="midnightblue" d="M450.502,-74.3717C440.243,-63.9547 422.775,-46.2173 409.971,-33.2162"/>
<polygon fill="midnightblue" stroke="midnightblue" points="412.218,-30.5101 402.707,-25.8411 407.23,-35.4219 412.218,-30.5101"/>
</g>
<!-- Node24&#45;&gt;Node5 -->
<g id="edge36" class="edge"><title>Node24&#45;&gt;Node5</title>
<path fill="none" stroke="midnightblue" d="M1208.78,-144.482C1339.79,-130.873 1630.45,-100.638 1633,-100 1636.06,-99.2353 1639.21,-98.2681 1642.3,-97.1946"/>
<polygon fill="midnightblue" stroke="midnightblue" points="1643.81,-100.366 1651.9,-93.5213 1641.31,-93.8289 1643.81,-100.366"/>
</g>
<!-- Node24&#45;&gt;Node6 -->
<g id="edge38" class="edge"><title>Node24&#45;&gt;Node6</title>
<path fill="none" stroke="midnightblue" d="M1208.54,-147.626C1334.16,-140.468 1613.02,-122.555 1706,-100 1709.07,-99.256 1712.21,-98.3021 1715.31,-97.2366"/>
<polygon fill="midnightblue" stroke="midnightblue" points="1716.82,-100.41 1724.91,-93.5727 1714.32,-93.8704 1716.82,-100.41"/>
</g>
<!-- Node25 -->
<g id="node25" class="node"><title>Node25</title>
<polygon fill="none" stroke="#bfbfbf" points="522.5,-69 522.5,-99 673.5,-99 673.5,-69 522.5,-69"/>
<text text-anchor="start" x="530.5" y="-87" font-family="Helvetica,sans-Serif" font-size="10.00">Math/GenVector/Displacement</text>
<text text-anchor="middle" x="598" y="-76" font-family="Helvetica,sans-Serif" font-size="10.00">Vector3D.h</text>
</g>
<!-- Node24&#45;&gt;Node25 -->
<g id="edge31" class="edge"><title>Node24&#45;&gt;Node25</title>
<path fill="none" stroke="midnightblue" d="M1086.39,-142.496C1070.07,-140.27 1052.36,-137.95 1036,-136 882.616,-117.726 840.898,-121.548 683.967,-100.07"/>
<polygon fill="midnightblue" stroke="midnightblue" points="684.341,-96.5887 673.956,-98.6874 683.383,-103.523 684.341,-96.5887"/>
</g>
<!-- Node26 -->
<g id="node26" class="node"><title>Node26</title>
<polygon fill="none" stroke="#bfbfbf" points="692,-74.5 692,-93.5 868,-93.5 868,-74.5 692,-74.5"/>
<text text-anchor="middle" x="780" y="-81.5" font-family="Helvetica,sans-Serif" font-size="10.00">Math/GenVector/PositionVector3D.h</text>
</g>
<!-- Node24&#45;&gt;Node26 -->
<g id="edge32" class="edge"><title>Node24&#45;&gt;Node26</title>
<path fill="none" stroke="midnightblue" d="M1098.53,-142.439C1031.61,-130.372 909.678,-108.384 837.642,-95.3945"/>
<polygon fill="midnightblue" stroke="midnightblue" points="837.851,-91.8758 827.389,-93.5455 836.609,-98.7647 837.851,-91.8758"/>
</g>
<!-- Node27 -->
<g id="node27" class="node"><title>Node27</title>
<polygon fill="none" stroke="#bfbfbf" points="885.5,-74.5 885.5,-93.5 1034.5,-93.5 1034.5,-74.5 885.5,-74.5"/>
<text text-anchor="middle" x="960" y="-81.5" font-family="Helvetica,sans-Serif" font-size="10.00">Math/GenVector/Rotation3D.h</text>
</g>
<!-- Node24&#45;&gt;Node27 -->
<g id="edge33" class="edge"><title>Node24&#45;&gt;Node27</title>
<path fill="none" stroke="midnightblue" d="M1121.68,-142.372C1089.01,-130.778 1030.78,-110.116 993.843,-97.0087"/>
<polygon fill="midnightblue" stroke="midnightblue" points="994.622,-93.5715 984.027,-93.5259 992.281,-100.169 994.622,-93.5715"/>
</g>
<!-- Node28 -->
<g id="node28" class="node"><title>Node28</title>
<polygon fill="none" stroke="#bfbfbf" points="1053,-74.5 1053,-93.5 1209,-93.5 1209,-74.5 1053,-74.5"/>
<text text-anchor="middle" x="1131" y="-81.5" font-family="Helvetica,sans-Serif" font-size="10.00">Math/GenVector/Transform3D.h</text>
</g>
<!-- Node24&#45;&gt;Node28 -->
<g id="edge34" class="edge"><title>Node24&#45;&gt;Node28</title>
<path fill="none" stroke="midnightblue" d="M1144.04,-142.372C1141.83,-132.643 1138.17,-116.528 1135.28,-103.85"/>
<polygon fill="midnightblue" stroke="midnightblue" points="1138.64,-102.817 1133.01,-93.8411 1131.81,-104.368 1138.64,-102.817"/>
</g>
<!-- Node29 -->
<g id="node29" class="node"><title>Node29</title>
<polygon fill="none" stroke="#bfbfbf" points="1227,-74.5 1227,-93.5 1387,-93.5 1387,-74.5 1227,-74.5"/>
<text text-anchor="middle" x="1307" y="-81.5" font-family="Helvetica,sans-Serif" font-size="10.00">Math/GenVector/Translation3D.h</text>
</g>
<!-- Node24&#45;&gt;Node29 -->
<g id="edge35" class="edge"><title>Node24&#45;&gt;Node29</title>
<path fill="none" stroke="midnightblue" d="M1167.05,-142.372C1195.09,-130.877 1244.87,-110.469 1276.88,-97.3465"/>
<polygon fill="midnightblue" stroke="midnightblue" points="1278.28,-100.557 1286.2,-93.5259 1275.62,-94.0805 1278.28,-100.557"/>
</g>
<!-- Node30 -->
<g id="node30" class="node"><title>Node30</title>
<polygon fill="none" stroke="#bfbfbf" points="1405,-74.5 1405,-93.5 1481,-93.5 1481,-74.5 1405,-74.5"/>
<text text-anchor="middle" x="1443" y="-81.5" font-family="Helvetica,sans-Serif" font-size="10.00">TGeoMatrix.h</text>
</g>
<!-- Node24&#45;&gt;Node30 -->
<g id="edge37" class="edge"><title>Node24&#45;&gt;Node30</title>
<path fill="none" stroke="midnightblue" d="M1195.69,-142.493C1246.4,-133.431 1327.2,-117.94 1396,-100 1399.9,-98.9835 1403.95,-97.8343 1407.97,-96.6353"/>
<polygon fill="midnightblue" stroke="midnightblue" points="1409.26,-99.8995 1417.78,-93.6 1407.19,-93.2123 1409.26,-99.8995"/>
</g>
<!-- Node31 -->
<g id="node31" class="node"><title>Node31</title>
<g id="a_node31"><a xlink:href="../../d2/dd0/Cartesian2D_8h.html" target="_top" xlink:title="MathUtils/Cartesian2D.h">
<polygon fill="none" stroke="black" points="1499.5,-74.5 1499.5,-93.5 1624.5,-93.5 1624.5,-74.5 1499.5,-74.5"/>
<text text-anchor="middle" x="1562" y="-81.5" font-family="Helvetica,sans-Serif" font-size="10.00">MathUtils/Cartesian2D.h</text>
</a>
</g>
</g>
<!-- Node24&#45;&gt;Node31 -->
<g id="edge39" class="edge"><title>Node24&#45;&gt;Node31</title>
<path fill="none" stroke="midnightblue" d="M1208.64,-142.829C1277.72,-133.558 1392.07,-117.444 1490,-100 1497.52,-98.661 1505.45,-97.1291 1513.2,-95.5675"/>
<polygon fill="midnightblue" stroke="midnightblue" points="1514.13,-98.9496 1523.22,-93.5112 1512.72,-92.0924 1514.13,-98.9496"/>
</g>
<!-- Node32 -->
<g id="node32" class="node"><title>Node32</title>
<polygon fill="none" stroke="#bfbfbf" points="1395.5,-1 1395.5,-31 1546.5,-31 1546.5,-1 1395.5,-1"/>
<text text-anchor="start" x="1403.5" y="-19" font-family="Helvetica,sans-Serif" font-size="10.00">Math/GenVector/Displacement</text>
<text text-anchor="middle" x="1471" y="-8" font-family="Helvetica,sans-Serif" font-size="10.00">Vector2D.h</text>
</g>
<!-- Node31&#45;&gt;Node32 -->
<g id="edge40" class="edge"><title>Node31&#45;&gt;Node32</title>
<path fill="none" stroke="midnightblue" d="M1550.1,-74.3717C1537.22,-65.0286 1516.22,-49.7966 1499.09,-37.375"/>
<polygon fill="midnightblue" stroke="midnightblue" points="1500.7,-34.2194 1490.55,-31.1815 1496.59,-39.8859 1500.7,-34.2194"/>
</g>
<!-- Node33 -->
<g id="node33" class="node"><title>Node33</title>
<polygon fill="none" stroke="#bfbfbf" points="1565,-6.5 1565,-25.5 1741,-25.5 1741,-6.5 1565,-6.5"/>
<text text-anchor="middle" x="1653" y="-13.5" font-family="Helvetica,sans-Serif" font-size="10.00">Math/GenVector/PositionVector2D.h</text>
</g>
<!-- Node31&#45;&gt;Node33 -->
<g id="edge41" class="edge"><title>Node31&#45;&gt;Node33</title>
<path fill="none" stroke="midnightblue" d="M1573.9,-74.3717C1588.88,-63.5015 1614.86,-44.6602 1632.94,-31.5474"/>
<polygon fill="midnightblue" stroke="midnightblue" points="1635.06,-34.3349 1641.1,-25.6305 1630.95,-28.6684 1635.06,-34.3349"/>
</g>
<!-- Node34&#45;&gt;Node5 -->
<g id="edge45" class="edge"><title>Node34&#45;&gt;Node5</title>
<path fill="none" stroke="midnightblue" d="M1658.39,-204.66C1660.75,-180.32 1665.54,-130.933 1668.17,-103.837"/>
<polygon fill="midnightblue" stroke="midnightblue" points="1671.67,-104.019 1669.15,-93.7275 1664.7,-103.343 1671.67,-104.019"/>
</g>
<!-- Node34&#45;&gt;Node6 -->
<g id="edge47" class="edge"><title>Node34&#45;&gt;Node6</title>
<path fill="none" stroke="midnightblue" d="M1666.2,-204.66C1682.1,-179.885 1714.66,-129.161 1731.83,-102.407"/>
<polygon fill="midnightblue" stroke="midnightblue" points="1734.94,-104.034 1737.4,-93.7275 1729.05,-100.253 1734.94,-104.034"/>
</g>
<!-- Node34&#45;&gt;Node7 -->
<g id="edge48" class="edge"><title>Node34&#45;&gt;Node7</title>
<path fill="none" stroke="midnightblue" d="M1645.72,-204.679C1637.61,-194.388 1626.65,-180.484 1618.15,-169.69"/>
<polygon fill="midnightblue" stroke="midnightblue" points="1620.89,-167.517 1611.96,-161.828 1615.4,-171.849 1620.89,-167.517"/>
</g>
<!-- Node34&#45;&gt;Node16 -->
<g id="edge50" class="edge"><title>Node34&#45;&gt;Node16</title>
<path fill="none" stroke="midnightblue" d="M1607.94,-204.922C1562.89,-191.994 1497.44,-173.214 1458.85,-162.139"/>
<polygon fill="midnightblue" stroke="midnightblue" points="1459.76,-158.758 1449.18,-159.364 1457.83,-165.487 1459.76,-158.758"/>
</g>
<!-- Node35 -->
<g id="node35" class="node"><title>Node35</title>
<polygon fill="none" stroke="#bfbfbf" points="1721,-142.5 1721,-161.5 1771,-161.5 1771,-142.5 1721,-142.5"/>
<text text-anchor="middle" x="1746" y="-149.5" font-family="Helvetica,sans-Serif" font-size="10.00">fstream</text>
</g>
<!-- Node34&#45;&gt;Node35 -->
<g id="edge46" class="edge"><title>Node34&#45;&gt;Node35</title>
<path fill="none" stroke="midnightblue" d="M1676.31,-204.679C1691.1,-193.713 1711.42,-178.645 1726.3,-167.609"/>
<polygon fill="midnightblue" stroke="midnightblue" points="1728.4,-170.406 1734.35,-161.638 1724.23,-164.783 1728.4,-170.406"/>
</g>
<!-- Node36 -->
<g id="node36" class="node"><title>Node36</title>
<polygon fill="none" stroke="#bfbfbf" points="1789.5,-142.5 1789.5,-161.5 1872.5,-161.5 1872.5,-142.5 1789.5,-142.5"/>
<text text-anchor="middle" x="1831" y="-149.5" font-family="Helvetica,sans-Serif" font-size="10.00">unordered_map</text>
</g>
<!-- Node34&#45;&gt;Node36 -->
<g id="edge49" class="edge"><title>Node34&#45;&gt;Node36</title>
<path fill="none" stroke="midnightblue" d="M1694.33,-204.841C1725.46,-193.033 1769.35,-176.384 1798.92,-165.168"/>
<polygon fill="midnightblue" stroke="midnightblue" points="1800.25,-168.406 1808.36,-161.587 1797.77,-161.861 1800.25,-168.406"/>
</g>
</g>
</svg>
        <g id="navigator" transform="translate(0 0)" fill="#404254">
                <rect fill="#f2f5e9" fill-opacity="0.5" stroke="#606060" stroke-width=".5" x="0" y="0" width="60" height="60"/>
                <use id="zoomplus" xlink:href="#zoomPlus" x="17" y="9" onmousedown="handleZoom(evt,'in')"/>
                <use id="zoomminus" xlink:href="#zoomMin" x="42" y="9" onmousedown="handleZoom(evt,'out')"/>
                <use id="reset" xlink:href="#resetDef" x="30" y="36" onmousedown="handleReset()"/>
                <g id="arrowUp" xlink:href="#dirArrow" transform="translate(30 24)" onmousedown="handlePan(0,-1)">
                  <use xlink:href="#rim" fill="#404040">
                        <set attributeName="fill" to="#808080" begin="arrowUp.mouseover" end="arrowUp.mouseout"/>
                  </use>
                  <path fill="none" stroke="white" stroke-width="1.5" d="M0,-3.0v7 M-2.5,-0.5L0,-3.0L2.5,-0.5"/>
                </g>
                <g id="arrowRight" xlink:href="#dirArrow" transform="rotate(90) translate(36 -43)" onmousedown="handlePan(1,0)">
                  <use xlink:href="#rim" fill="#404040">
                        <set attributeName="fill" to="#808080" begin="arrowRight.mouseover" end="arrowRight.mouseout"/>
                  </use>
                  <path fill="none" stroke="white" stroke-width="1.5" d="M0,-3.0v7 M-2.5,-0.5L0,-3.0L2.5,-0.5"/>
                </g>
                <g id="arrowDown" xlink:href="#dirArrow" transform="rotate(180) translate(-30 -48)" onmousedown="handlePan(0,1)">
                  <use xlink:href="#rim" fill="#404040">
                        <set attributeName="fill" to="#808080" begin="arrowDown.mouseover" end="arrowDown.mouseout"/>
                  </use>
                  <path fill="none" stroke="white" stroke-width="1.5" d="M0,-3.0v7 M-2.5,-0.5L0,-3.0L2.5,-0.5"/>
                </g>
                <g id="arrowLeft" xlink:href="#dirArrow" transform="rotate(270) translate(-36 17)" onmousedown="handlePan(-1,0)">
                  <use xlink:href="#rim" fill="#404040">
                        <set attributeName="fill" to="#808080" begin="arrowLeft.mouseover" end="arrowLeft.mouseout"/>
                  </use>
                  <path fill="none" stroke="white" stroke-width="1.5" d="M0,-3.0v7 M-2.5,-0.5L0,-3.0L2.5,-0.5"/>
                </g>
        </g>
        <svg viewBox="0 0 15 15" width="100%" height="30px" preserveAspectRatio="xMaxYMin meet">
         <g id="arrow_out" transform="scale(0.3 0.3)">
          <a xlink:href="LookUp_8cxx__incl_org.svg" target="_base">
           <rect id="button" ry="5" rx="5" y="6" x="6" height="38" width="38"
                fill="#f2f5e9" fill-opacity="0.5" stroke="#606060" stroke-width="1.0"/>
           <path id="arrow"
             d="M 11.500037,31.436501 C 11.940474,20.09759 22.043105,11.32322 32.158766,21.979434 L 37.068811,17.246167 C 37.068811,17.246167 37.088388,32 37.088388,32 L 22.160133,31.978069 C 22.160133,31.978069 26.997745,27.140456 26.997745,27.140456 C 18.528582,18.264221 13.291696,25.230495 11.500037,31.436501 z"
             style="fill:#404040;"/>
          </a>
         </g>
        </svg>
</svg>
