<?xml version="1.0" encoding="UTF-8" standalone="no"?>
<!DOCTYPE svg PUBLIC "-//W3C//DTD SVG 1.1//EN"
 "http://www.w3.org/Graphics/SVG/1.1/DTD/svg11.dtd">
<!-- Generated by graphviz version 2.36.0 (20140111.2315)
 -->
<!-- Title: /home/travis/build/AliceO2Group/AliceO2/Detectors/ITSMFT/ITS/simulation/include/ITSSimulation/Detector.h Pages: 1 -->
<svg width="2272pt" height="400pt"
 viewBox="0.00 0.00 2272.00 400.00" xmlns="http://www.w3.org/2000/svg" xmlns:xlink="http://www.w3.org/1999/xlink">
<g id="graph0" class="graph" transform="scale(1 1) rotate(0) translate(4 396)">
<title>/home/travis/build/AliceO2Group/AliceO2/Detectors/ITSMFT/ITS/simulation/include/ITSSimulation/Detector.h</title>
<!-- Node1 -->
<g id="node1" class="node"><title>Node1</title>
<polygon fill="#bfbfbf" stroke="black" points="1516,-328.5 1516,-391.5 1678,-391.5 1678,-328.5 1516,-328.5"/>
<text text-anchor="start" x="1524" y="-379.5" font-family="Helvetica,sans-Serif" font-size="10.00">/home/travis/build</text>
<text text-anchor="start" x="1524" y="-368.5" font-family="Helvetica,sans-Serif" font-size="10.00">/AliceO2Group/AliceO2</text>
<text text-anchor="start" x="1524" y="-357.5" font-family="Helvetica,sans-Serif" font-size="10.00">/Detectors/ITSMFT/ITS</text>
<text text-anchor="start" x="1524" y="-346.5" font-family="Helvetica,sans-Serif" font-size="10.00">/simulation/include/ITSSimulation</text>
<text text-anchor="middle" x="1597" y="-335.5" font-family="Helvetica,sans-Serif" font-size="10.00">/Detector.h</text>
</g>
<!-- Node2 -->
<g id="node2" class="node"><title>Node2</title>
<polygon fill="none" stroke="#bfbfbf" points="938,-210.5 938,-229.5 982,-229.5 982,-210.5 938,-210.5"/>
<text text-anchor="middle" x="960" y="-217.5" font-family="Helvetica,sans-Serif" font-size="10.00">vector</text>
</g>
<!-- Node1&#45;&gt;Node2 -->
<g id="edge1" class="edge"><title>Node1&#45;&gt;Node2</title>
<path fill="none" stroke="midnightblue" d="M1515.91,-349.119C1398.06,-333.296 1173.58,-297.614 991,-236 989.088,-235.355 987.141,-234.619 985.203,-233.828"/>
<polygon fill="midnightblue" stroke="midnightblue" points="986.323,-230.494 975.768,-229.571 983.444,-236.874 986.323,-230.494"/>
</g>
<!-- Node3 -->
<g id="node3" class="node"><title>Node3</title>
<g id="a_node3"><a xlink:href="../../db/dcc/Detectors_2Base_2include_2DetectorsBase_2GeometryManager_8h.html" target="_top" xlink:title="DetectorsBase/GeometryManager.h">
<polygon fill="none" stroke="black" points="498.5,-272.5 498.5,-291.5 671.5,-291.5 671.5,-272.5 498.5,-272.5"/>
<text text-anchor="middle" x="585" y="-279.5" font-family="Helvetica,sans-Serif" font-size="10.00">DetectorsBase/GeometryManager.h</text>
</a>
</g>
</g>
<!-- Node1&#45;&gt;Node3 -->
<g id="edge2" class="edge"><title>Node1&#45;&gt;Node3</title>
<path fill="none" stroke="midnightblue" d="M1515.89,-352.909C1331.37,-339.052 880.811,-305.215 681.991,-290.284"/>
<polygon fill="midnightblue" stroke="midnightblue" points="682.085,-286.781 671.851,-289.522 681.561,-293.762 682.085,-286.781"/>
</g>
<!-- Node4 -->
<g id="node4" class="node"><title>Node4</title>
<polygon fill="none" stroke="#bfbfbf" points="0,-210.5 0,-229.5 86,-229.5 86,-210.5 0,-210.5"/>
<text text-anchor="middle" x="43" y="-217.5" font-family="Helvetica,sans-Serif" font-size="10.00">TGeoManager.h</text>
</g>
<!-- Node1&#45;&gt;Node4 -->
<g id="edge59" class="edge"><title>Node1&#45;&gt;Node4</title>
<path fill="none" stroke="midnightblue" d="M1515.68,-358.349C1319.9,-355.947 807.186,-344.694 383,-292 253.597,-275.925 221.769,-266.545 95,-236 90.3357,-234.876 85.4633,-233.604 80.6513,-232.287"/>
<polygon fill="midnightblue" stroke="midnightblue" points="81.5194,-228.895 70.9451,-229.555 79.6227,-235.634 81.5194,-228.895"/>
</g>
<!-- Node11 -->
<g id="node11" class="node"><title>Node11</title>
<g id="a_node11"><a xlink:href="../../d6/d31/DetID_8h.html" target="_top" xlink:title="DetectorsCommonDataFormats\l/DetID.h">
<polygon fill="none" stroke="black" points="104,-205 104,-235 260,-235 260,-205 104,-205"/>
<text text-anchor="start" x="112" y="-223" font-family="Helvetica,sans-Serif" font-size="10.00">DetectorsCommonDataFormats</text>
<text text-anchor="middle" x="182" y="-212" font-family="Helvetica,sans-Serif" font-size="10.00">/DetID.h</text>
</a>
</g>
</g>
<!-- Node1&#45;&gt;Node11 -->
<g id="edge48" class="edge"><title>Node1&#45;&gt;Node11</title>
<path fill="none" stroke="midnightblue" d="M1515.9,-358.715C1332.15,-357.064 870.445,-347.247 489,-292 401.687,-279.354 302.546,-254.464 241.132,-237.775"/>
<polygon fill="midnightblue" stroke="midnightblue" points="241.803,-234.331 231.234,-235.068 239.956,-241.083 241.803,-234.331"/>
</g>
<!-- Node12 -->
<g id="node12" class="node"><title>Node12</title>
<polygon fill="none" stroke="#bfbfbf" points="1828,-74.5 1828,-93.5 1884,-93.5 1884,-74.5 1828,-74.5"/>
<text text-anchor="middle" x="1856" y="-81.5" font-family="Helvetica,sans-Serif" font-size="10.00">Rtypes.h</text>
</g>
<!-- Node1&#45;&gt;Node12 -->
<g id="edge57" class="edge"><title>Node1&#45;&gt;Node12</title>
<path fill="none" stroke="midnightblue" d="M1678.31,-350.03C1796.98,-334.887 2007.52,-299.513 2044,-236 2059.29,-209.386 2024.8,-137.794 2023,-136 1988.66,-101.765 1932.03,-90.401 1894.38,-86.6929"/>
<polygon fill="midnightblue" stroke="midnightblue" points="1894.55,-83.1955 1884.29,-85.8374 1893.96,-90.1704 1894.55,-83.1955"/>
</g>
<!-- Node33 -->
<g id="node33" class="node"><title>Node33</title>
<g id="a_node33"><a xlink:href="../../d1/d3a/Base_2include_2DetectorsBase_2Detector_8h.html" target="_top" xlink:title="DetectorsBase/Detector.h">
<polygon fill="none" stroke="black" points="1280.5,-272.5 1280.5,-291.5 1411.5,-291.5 1411.5,-272.5 1280.5,-272.5"/>
<text text-anchor="middle" x="1346" y="-279.5" font-family="Helvetica,sans-Serif" font-size="10.00">DetectorsBase/Detector.h</text>
</a>
</g>
</g>
<!-- Node1&#45;&gt;Node33 -->
<g id="edge34" class="edge"><title>Node1&#45;&gt;Node33</title>
<path fill="none" stroke="midnightblue" d="M1515.85,-334.43C1471.53,-321.01 1418.74,-305.024 1383.9,-294.477"/>
<polygon fill="midnightblue" stroke="midnightblue" points="1384.73,-291.069 1374.14,-291.52 1382.7,-297.768 1384.73,-291.069"/>
</g>
<!-- Node41 -->
<g id="node41" class="node"><title>Node41</title>
<g id="a_node41"><a xlink:href="../../d0/dae/ITSMFT_2common_2simulation_2include_2ITSMFTSimulation_2Hit_8h.html" target="_top" xlink:title="ITSMFTSimulation/Hit.h">
<polygon fill="none" stroke="black" points="1788,-272.5 1788,-291.5 1910,-291.5 1910,-272.5 1788,-272.5"/>
<text text-anchor="middle" x="1849" y="-279.5" font-family="Helvetica,sans-Serif" font-size="10.00">ITSMFTSimulation/Hit.h</text>
</a>
</g>
</g>
<!-- Node1&#45;&gt;Node41 -->
<g id="edge49" class="edge"><title>Node1&#45;&gt;Node41</title>
<path fill="none" stroke="midnightblue" d="M1678.12,-334.535C1722.65,-321.107 1775.77,-305.085 1810.84,-294.51"/>
<polygon fill="midnightblue" stroke="midnightblue" points="1812.1,-297.784 1820.67,-291.545 1810.08,-291.082 1812.1,-297.784"/>
</g>
<!-- Node44 -->
<g id="node44" class="node"><title>Node44</title>
<polygon fill="none" stroke="#bfbfbf" points="1970.5,-210.5 1970.5,-229.5 2035.5,-229.5 2035.5,-210.5 1970.5,-210.5"/>
<text text-anchor="middle" x="2003" y="-217.5" font-family="Helvetica,sans-Serif" font-size="10.00">TVector3.h</text>
</g>
<!-- Node1&#45;&gt;Node44 -->
<g id="edge61" class="edge"><title>Node1&#45;&gt;Node44</title>
<path fill="none" stroke="midnightblue" d="M1678.31,-353.24C1745.66,-345.907 1842.39,-329.332 1919,-292 1946.77,-278.466 1972.99,-253.679 1988.53,-237.269"/>
<polygon fill="midnightblue" stroke="midnightblue" points="1991.43,-239.283 1995.63,-229.555 1986.28,-234.541 1991.43,-239.283"/>
</g>
<!-- Node45 -->
<g id="node45" class="node"><title>Node45</title>
<polygon fill="none" stroke="#bfbfbf" points="2092,-272.5 2092,-291.5 2154,-291.5 2154,-272.5 2092,-272.5"/>
<text text-anchor="middle" x="2123" y="-279.5" font-family="Helvetica,sans-Serif" font-size="10.00">TArrayD.h</text>
</g>
<!-- Node1&#45;&gt;Node45 -->
<g id="edge58" class="edge"><title>Node1&#45;&gt;Node45</title>
<path fill="none" stroke="midnightblue" d="M1678.07,-349.19C1773.86,-337.256 1937.93,-315.741 2078,-292 2079.1,-291.814 2080.21,-291.621 2081.34,-291.422"/>
<polygon fill="midnightblue" stroke="midnightblue" points="2082.37,-294.79 2091.57,-289.531 2081.1,-287.907 2082.37,-294.79"/>
</g>
<!-- Node46 -->
<g id="node46" class="node"><title>Node46</title>
<polygon fill="none" stroke="#bfbfbf" points="2172,-272.5 2172,-291.5 2264,-291.5 2264,-272.5 2172,-272.5"/>
<text text-anchor="middle" x="2218" y="-279.5" font-family="Helvetica,sans-Serif" font-size="10.00">TLorentzVector.h</text>
</g>
<!-- Node1&#45;&gt;Node46 -->
<g id="edge60" class="edge"><title>Node1&#45;&gt;Node46</title>
<path fill="none" stroke="midnightblue" d="M1678.07,-350.451C1785.87,-338.844 1982.6,-316.836 2161.74,-291.98"/>
<polygon fill="midnightblue" stroke="midnightblue" points="2162.46,-295.414 2171.88,-290.567 2161.49,-288.481 2162.46,-295.414"/>
</g>
<!-- Node3&#45;&gt;Node4 -->
<g id="edge3" class="edge"><title>Node3&#45;&gt;Node4</title>
<path fill="none" stroke="midnightblue" d="M498.457,-278.001C400.009,-273.448 234.778,-262.333 95,-236 89.7672,-235.014 84.3029,-233.73 78.966,-232.327"/>
<polygon fill="midnightblue" stroke="midnightblue" points="79.5272,-228.85 68.9544,-229.532 77.6448,-235.592 79.5272,-228.85"/>
</g>
<!-- Node5 -->
<g id="node5" class="node"><title>Node5</title>
<polygon fill="none" stroke="#bfbfbf" points="278.5,-210.5 278.5,-229.5 361.5,-229.5 361.5,-210.5 278.5,-210.5"/>
<text text-anchor="middle" x="320" y="-217.5" font-family="Helvetica,sans-Serif" font-size="10.00">TGeoMaterial.h</text>
</g>
<!-- Node3&#45;&gt;Node5 -->
<g id="edge4" class="edge"><title>Node3&#45;&gt;Node5</title>
<path fill="none" stroke="midnightblue" d="M542.429,-272.479C500.096,-263.855 433.367,-249.85 376,-236 370.992,-234.791 365.748,-233.466 360.562,-232.119"/>
<polygon fill="midnightblue" stroke="midnightblue" points="361.301,-228.694 350.739,-229.528 359.516,-235.463 361.301,-228.694"/>
</g>
<!-- Node6 -->
<g id="node6" class="node"><title>Node6</title>
<polygon fill="none" stroke="#bfbfbf" points="418,-210.5 418,-229.5 528,-229.5 528,-210.5 418,-210.5"/>
<text text-anchor="middle" x="473" y="-217.5" font-family="Helvetica,sans-Serif" font-size="10.00">TGeoPhysicalNode.h</text>
</g>
<!-- Node3&#45;&gt;Node6 -->
<g id="edge5" class="edge"><title>Node3&#45;&gt;Node6</title>
<path fill="none" stroke="midnightblue" d="M568.953,-272.403C550.407,-262.468 519.66,-245.997 497.978,-234.381"/>
<polygon fill="midnightblue" stroke="midnightblue" points="499.485,-231.218 489.017,-229.581 496.179,-237.388 499.485,-231.218"/>
</g>
<!-- Node7 -->
<g id="node7" class="node"><title>Node7</title>
<polygon fill="none" stroke="#bfbfbf" points="546.5,-210.5 546.5,-229.5 623.5,-229.5 623.5,-210.5 546.5,-210.5"/>
<text text-anchor="middle" x="585" y="-217.5" font-family="Helvetica,sans-Serif" font-size="10.00">TGeoShape.h</text>
</g>
<!-- Node3&#45;&gt;Node7 -->
<g id="edge6" class="edge"><title>Node3&#45;&gt;Node7</title>
<path fill="none" stroke="midnightblue" d="M585,-272.403C585,-263.938 585,-250.728 585,-239.82"/>
<polygon fill="midnightblue" stroke="midnightblue" points="588.5,-239.581 585,-229.581 581.5,-239.581 588.5,-239.581"/>
</g>
<!-- Node8 -->
<g id="node8" class="node"><title>Node8</title>
<polygon fill="none" stroke="#bfbfbf" points="641.5,-210.5 641.5,-229.5 694.5,-229.5 694.5,-210.5 641.5,-210.5"/>
<text text-anchor="middle" x="668" y="-217.5" font-family="Helvetica,sans-Serif" font-size="10.00">TMath.h</text>
</g>
<!-- Node3&#45;&gt;Node8 -->
<g id="edge7" class="edge"><title>Node3&#45;&gt;Node8</title>
<path fill="none" stroke="midnightblue" d="M596.892,-272.403C610.205,-262.78 632,-247.024 647.957,-235.489"/>
<polygon fill="midnightblue" stroke="midnightblue" points="650.076,-238.276 656.13,-229.581 645.975,-232.603 650.076,-238.276"/>
</g>
<!-- Node9 -->
<g id="node9" class="node"><title>Node9</title>
<polygon fill="none" stroke="#bfbfbf" points="712.5,-210.5 712.5,-229.5 771.5,-229.5 771.5,-210.5 712.5,-210.5"/>
<text text-anchor="middle" x="742" y="-217.5" font-family="Helvetica,sans-Serif" font-size="10.00">TObject.h</text>
</g>
<!-- Node3&#45;&gt;Node9 -->
<g id="edge8" class="edge"><title>Node3&#45;&gt;Node9</title>
<path fill="none" stroke="midnightblue" d="M607.629,-272.392C631.388,-263.349 669.831,-248.703 703,-236 705.371,-235.092 707.823,-234.152 710.289,-233.205"/>
<polygon fill="midnightblue" stroke="midnightblue" points="711.651,-236.431 719.73,-229.578 709.14,-229.897 711.651,-236.431"/>
</g>
<!-- Node10 -->
<g id="node10" class="node"><title>Node10</title>
<polygon fill="none" stroke="#bfbfbf" points="878.5,-210.5 878.5,-229.5 919.5,-229.5 919.5,-210.5 878.5,-210.5"/>
<text text-anchor="middle" x="899" y="-217.5" font-family="Helvetica,sans-Serif" font-size="10.00">string</text>
</g>
<!-- Node3&#45;&gt;Node10 -->
<g id="edge9" class="edge"><title>Node3&#45;&gt;Node10</title>
<path fill="none" stroke="midnightblue" d="M671.721,-274.208C728.8,-268.057 804.59,-256.66 869,-236 870.913,-235.386 872.855,-234.666 874.784,-233.878"/>
<polygon fill="midnightblue" stroke="midnightblue" points="876.509,-236.937 884.119,-229.566 873.573,-230.582 876.509,-236.937"/>
</g>
<!-- Node3&#45;&gt;Node11 -->
<g id="edge10" class="edge"><title>Node3&#45;&gt;Node11</title>
<path fill="none" stroke="midnightblue" d="M521.366,-272.495C459.738,-264.132 363.38,-250.724 270.387,-236.193"/>
<polygon fill="midnightblue" stroke="midnightblue" points="270.658,-232.693 260.237,-234.6 269.573,-239.608 270.658,-232.693"/>
</g>
<!-- Node21 -->
<g id="node21" class="node"><title>Node21</title>
<polygon fill="none" stroke="#bfbfbf" points="789.5,-210.5 789.5,-229.5 860.5,-229.5 860.5,-210.5 789.5,-210.5"/>
<text text-anchor="middle" x="825" y="-217.5" font-family="Helvetica,sans-Serif" font-size="10.00">FairLogger.h</text>
</g>
<!-- Node3&#45;&gt;Node21 -->
<g id="edge21" class="edge"><title>Node3&#45;&gt;Node21</title>
<path fill="none" stroke="midnightblue" d="M627.134,-272.485C666.828,-264.179 727.825,-250.68 780,-236 783.622,-234.981 787.384,-233.848 791.121,-232.674"/>
<polygon fill="midnightblue" stroke="midnightblue" points="792.41,-235.936 800.842,-229.521 790.25,-229.277 792.41,-235.936"/>
</g>
<!-- Node22 -->
<g id="node22" class="node"><title>Node22</title>
<g id="a_node22"><a xlink:href="../../dd/d76/Cartesian3D_8h.html" target="_top" xlink:title="MathUtils/Cartesian3D.h">
<polygon fill="none" stroke="black" points="1245.5,-142.5 1245.5,-161.5 1370.5,-161.5 1370.5,-142.5 1245.5,-142.5"/>
<text text-anchor="middle" x="1308" y="-149.5" font-family="Helvetica,sans-Serif" font-size="10.00">MathUtils/Cartesian3D.h</text>
</a>
</g>
</g>
<!-- Node3&#45;&gt;Node22 -->
<g id="edge22" class="edge"><title>Node3&#45;&gt;Node22</title>
<path fill="none" stroke="midnightblue" d="M510.56,-272.484C447.619,-262.462 372.981,-242.121 409,-204 423.145,-189.03 1023.55,-164.134 1235.14,-155.808"/>
<polygon fill="midnightblue" stroke="midnightblue" points="1235.36,-159.302 1245.21,-155.413 1235.08,-152.308 1235.36,-159.302"/>
</g>
<!-- Node11&#45;&gt;Node12 -->
<g id="edge11" class="edge"><title>Node11&#45;&gt;Node12</title>
<path fill="none" stroke="midnightblue" d="M260.184,-204.995C263.157,-204.629 266.103,-204.295 269,-204 760.048,-153.948 887.834,-216.889 1379,-168 1464.65,-159.475 1484.96,-149.294 1570,-136 1680.04,-118.797 1710.37,-128.639 1818,-100 1821.05,-99.1873 1824.2,-98.203 1827.3,-97.1315"/>
<polygon fill="midnightblue" stroke="midnightblue" points="1828.82,-100.3 1836.96,-93.5148 1826.37,-93.7451 1828.82,-100.3"/>
</g>
<!-- Node13 -->
<g id="node13" class="node"><title>Node13</title>
<polygon fill="none" stroke="#bfbfbf" points="363,-74.5 363,-93.5 401,-93.5 401,-74.5 363,-74.5"/>
<text text-anchor="middle" x="382" y="-81.5" font-family="Helvetica,sans-Serif" font-size="10.00">array</text>
</g>
<!-- Node11&#45;&gt;Node13 -->
<g id="edge12" class="edge"><title>Node11&#45;&gt;Node13</title>
<path fill="none" stroke="midnightblue" d="M244.516,-204.896C270.257,-196.984 299.298,-185.155 322,-168 345.328,-150.372 363.444,-121.143 373.418,-102.491"/>
<polygon fill="midnightblue" stroke="midnightblue" points="376.535,-104.082 377.989,-93.5876 370.308,-100.885 376.535,-104.082"/>
</g>
<!-- Node14 -->
<g id="node14" class="node"><title>Node14</title>
<polygon fill="none" stroke="#bfbfbf" points="32.5,-142.5 32.5,-161.5 73.5,-161.5 73.5,-142.5 32.5,-142.5"/>
<text text-anchor="middle" x="53" y="-149.5" font-family="Helvetica,sans-Serif" font-size="10.00">bitset</text>
</g>
<!-- Node11&#45;&gt;Node14 -->
<g id="edge13" class="edge"><title>Node11&#45;&gt;Node14</title>
<path fill="none" stroke="midnightblue" d="M154.389,-204.972C134.297,-194.751 106.443,-180.554 82,-168 80.8655,-167.417 79.7064,-166.821 78.5358,-166.218"/>
<polygon fill="midnightblue" stroke="midnightblue" points="80.0458,-163.059 69.5542,-161.583 76.8355,-169.28 80.0458,-163.059"/>
</g>
<!-- Node15 -->
<g id="node15" class="node"><title>Node15</title>
<polygon fill="none" stroke="#bfbfbf" points="91.5,-142.5 91.5,-161.5 140.5,-161.5 140.5,-142.5 91.5,-142.5"/>
<text text-anchor="middle" x="116" y="-149.5" font-family="Helvetica,sans-Serif" font-size="10.00">cassert</text>
</g>
<!-- Node11&#45;&gt;Node15 -->
<g id="edge14" class="edge"><title>Node11&#45;&gt;Node15</title>
<path fill="none" stroke="midnightblue" d="M167.679,-204.679C157.184,-194.184 142.932,-179.932 132.052,-169.052"/>
<polygon fill="midnightblue" stroke="midnightblue" points="134.374,-166.425 124.828,-161.828 129.425,-171.374 134.374,-166.425"/>
</g>
<!-- Node16 -->
<g id="node16" class="node"><title>Node16</title>
<polygon fill="none" stroke="#bfbfbf" points="159,-142.5 159,-161.5 205,-161.5 205,-142.5 159,-142.5"/>
<text text-anchor="middle" x="182" y="-149.5" font-family="Helvetica,sans-Serif" font-size="10.00">cstdint</text>
</g>
<!-- Node11&#45;&gt;Node16 -->
<g id="edge15" class="edge"><title>Node11&#45;&gt;Node16</title>
<path fill="none" stroke="midnightblue" d="M182,-204.679C182,-195.101 182,-182.394 182,-171.977"/>
<polygon fill="midnightblue" stroke="midnightblue" points="185.5,-171.828 182,-161.828 178.5,-171.828 185.5,-171.828"/>
</g>
<!-- Node17 -->
<g id="node17" class="node"><title>Node17</title>
<polygon fill="none" stroke="#bfbfbf" points="755,-142.5 755,-161.5 817,-161.5 817,-142.5 755,-142.5"/>
<text text-anchor="middle" x="786" y="-149.5" font-family="Helvetica,sans-Serif" font-size="10.00">type_traits</text>
</g>
<!-- Node11&#45;&gt;Node17 -->
<g id="edge16" class="edge"><title>Node11&#45;&gt;Node17</title>
<path fill="none" stroke="midnightblue" d="M260.213,-205.24C263.177,-204.806 266.114,-204.391 269,-204 445.282,-180.14 656.814,-162.773 744.643,-156.057"/>
<polygon fill="midnightblue" stroke="midnightblue" points="745.024,-159.538 754.73,-155.291 744.494,-152.558 745.024,-159.538"/>
</g>
<!-- Node18 -->
<g id="node18" class="node"><title>Node18</title>
<g id="a_node18"><a xlink:href="../../d9/d52/Common_2MathUtils_2include_2MathUtils_2Utils_8h.html" target="_top" xlink:title="MathUtils/Utils.h">
<polygon fill="none" stroke="black" points="223,-142.5 223,-161.5 313,-161.5 313,-142.5 223,-142.5"/>
<text text-anchor="middle" x="268" y="-149.5" font-family="Helvetica,sans-Serif" font-size="10.00">MathUtils/Utils.h</text>
</a>
</g>
</g>
<!-- Node11&#45;&gt;Node18 -->
<g id="edge17" class="edge"><title>Node11&#45;&gt;Node18</title>
<path fill="none" stroke="midnightblue" d="M200.661,-204.679C214.734,-193.879 233.993,-179.098 248.311,-168.11"/>
<polygon fill="midnightblue" stroke="midnightblue" points="250.694,-170.693 256.496,-161.828 246.432,-165.14 250.694,-170.693"/>
</g>
<!-- Node18&#45;&gt;Node13 -->
<g id="edge18" class="edge"><title>Node18&#45;&gt;Node13</title>
<path fill="none" stroke="midnightblue" d="M282.904,-142.372C302.106,-131.254 335.71,-111.8 358.401,-98.6624"/>
<polygon fill="midnightblue" stroke="midnightblue" points="360.192,-101.67 367.093,-93.6305 356.685,-95.6119 360.192,-101.67"/>
</g>
<!-- Node19 -->
<g id="node19" class="node"><title>Node19</title>
<polygon fill="none" stroke="#bfbfbf" points="103,-74.5 103,-93.5 147,-93.5 147,-74.5 103,-74.5"/>
<text text-anchor="middle" x="125" y="-81.5" font-family="Helvetica,sans-Serif" font-size="10.00">cmath</text>
</g>
<!-- Node18&#45;&gt;Node19 -->
<g id="edge19" class="edge"><title>Node18&#45;&gt;Node19</title>
<path fill="none" stroke="midnightblue" d="M248.913,-142.472C226.572,-132.452 188.491,-115.256 156,-100 154.647,-99.3647 153.263,-98.7105 151.866,-98.047"/>
<polygon fill="midnightblue" stroke="midnightblue" points="153.201,-94.8058 142.671,-93.6384 150.175,-101.118 153.201,-94.8058"/>
</g>
<!-- Node20 -->
<g id="node20" class="node"><title>Node20</title>
<g id="a_node20"><a xlink:href="../../d6/d84/MathConstants_8h.html" target="_top" xlink:title="useful math constants ">
<polygon fill="none" stroke="black" points="165.5,-74.5 165.5,-93.5 344.5,-93.5 344.5,-74.5 165.5,-74.5"/>
<text text-anchor="middle" x="255" y="-81.5" font-family="Helvetica,sans-Serif" font-size="10.00">CommonConstants/MathConstants.h</text>
</a>
</g>
</g>
<!-- Node18&#45;&gt;Node20 -->
<g id="edge20" class="edge"><title>Node18&#45;&gt;Node20</title>
<path fill="none" stroke="midnightblue" d="M266.3,-142.372C264.384,-132.643 261.21,-116.528 258.713,-103.85"/>
<polygon fill="midnightblue" stroke="midnightblue" points="262.108,-102.976 256.741,-93.8411 255.24,-104.329 262.108,-102.976"/>
</g>
<!-- Node22&#45;&gt;Node12 -->
<g id="edge28" class="edge"><title>Node22&#45;&gt;Node12</title>
<path fill="none" stroke="midnightblue" d="M1370.66,-144.79C1506.31,-131.338 1815.3,-100.654 1818,-100 1821.24,-99.2147 1824.57,-98.2121 1827.85,-97.0986"/>
<polygon fill="midnightblue" stroke="midnightblue" points="1829.25,-100.312 1837.39,-93.5311 1826.8,-93.7549 1829.25,-100.312"/>
</g>
<!-- Node23 -->
<g id="node23" class="node"><title>Node23</title>
<polygon fill="none" stroke="#bfbfbf" points="1050.5,-69 1050.5,-99 1201.5,-99 1201.5,-69 1050.5,-69"/>
<text text-anchor="start" x="1058.5" y="-87" font-family="Helvetica,sans-Serif" font-size="10.00">Math/GenVector/Displacement</text>
<text text-anchor="middle" x="1126" y="-76" font-family="Helvetica,sans-Serif" font-size="10.00">Vector3D.h</text>
</g>
<!-- Node22&#45;&gt;Node23 -->
<g id="edge23" class="edge"><title>Node22&#45;&gt;Node23</title>
<path fill="none" stroke="midnightblue" d="M1284.21,-142.372C1256.46,-132.311 1209.89,-115.422 1174.44,-102.566"/>
<polygon fill="midnightblue" stroke="midnightblue" points="1175.36,-99.1751 1164.76,-99.0562 1172.97,-105.756 1175.36,-99.1751"/>
</g>
<!-- Node24 -->
<g id="node24" class="node"><title>Node24</title>
<polygon fill="none" stroke="#bfbfbf" points="1220,-74.5 1220,-93.5 1396,-93.5 1396,-74.5 1220,-74.5"/>
<text text-anchor="middle" x="1308" y="-81.5" font-family="Helvetica,sans-Serif" font-size="10.00">Math/GenVector/PositionVector3D.h</text>
</g>
<!-- Node22&#45;&gt;Node24 -->
<g id="edge24" class="edge"><title>Node22&#45;&gt;Node24</title>
<path fill="none" stroke="midnightblue" d="M1308,-142.372C1308,-132.643 1308,-116.528 1308,-103.85"/>
<polygon fill="midnightblue" stroke="midnightblue" points="1311.5,-103.841 1308,-93.8411 1304.5,-103.841 1311.5,-103.841"/>
</g>
<!-- Node25 -->
<g id="node25" class="node"><title>Node25</title>
<polygon fill="none" stroke="#bfbfbf" points="1413.5,-74.5 1413.5,-93.5 1562.5,-93.5 1562.5,-74.5 1413.5,-74.5"/>
<text text-anchor="middle" x="1488" y="-81.5" font-family="Helvetica,sans-Serif" font-size="10.00">Math/GenVector/Rotation3D.h</text>
</g>
<!-- Node22&#45;&gt;Node25 -->
<g id="edge25" class="edge"><title>Node22&#45;&gt;Node25</title>
<path fill="none" stroke="midnightblue" d="M1331.53,-142.372C1363.15,-130.778 1419.5,-110.116 1455.25,-97.0087"/>
<polygon fill="midnightblue" stroke="midnightblue" points="1456.56,-100.255 1464.75,-93.5259 1454.15,-93.6824 1456.56,-100.255"/>
</g>
<!-- Node26 -->
<g id="node26" class="node"><title>Node26</title>
<polygon fill="none" stroke="#bfbfbf" points="1581,-74.5 1581,-93.5 1737,-93.5 1737,-74.5 1581,-74.5"/>
<text text-anchor="middle" x="1659" y="-81.5" font-family="Helvetica,sans-Serif" font-size="10.00">Math/GenVector/Transform3D.h</text>
</g>
<!-- Node22&#45;&gt;Node26 -->
<g id="edge26" class="edge"><title>Node22&#45;&gt;Node26</title>
<path fill="none" stroke="midnightblue" d="M1353.53,-142.439C1417.7,-130.372 1534.64,-108.384 1603.72,-95.3945"/>
<polygon fill="midnightblue" stroke="midnightblue" points="1604.37,-98.8333 1613.55,-93.5455 1603.08,-91.9538 1604.37,-98.8333"/>
</g>
<!-- Node27 -->
<g id="node27" class="node"><title>Node27</title>
<polygon fill="none" stroke="#bfbfbf" points="635,-74.5 635,-93.5 795,-93.5 795,-74.5 635,-74.5"/>
<text text-anchor="middle" x="715" y="-81.5" font-family="Helvetica,sans-Serif" font-size="10.00">Math/GenVector/Translation3D.h</text>
</g>
<!-- Node22&#45;&gt;Node27 -->
<g id="edge27" class="edge"><title>Node22&#45;&gt;Node27</title>
<path fill="none" stroke="midnightblue" d="M1245.38,-146.004C1149.93,-138.085 962.412,-121.341 804,-100 793.644,-98.6049 782.644,-96.9188 772.038,-95.1879"/>
<polygon fill="midnightblue" stroke="midnightblue" points="772.463,-91.7106 762.025,-93.5227 771.315,-98.6157 772.463,-91.7106"/>
</g>
<!-- Node28 -->
<g id="node28" class="node"><title>Node28</title>
<polygon fill="none" stroke="#bfbfbf" points="813,-74.5 813,-93.5 889,-93.5 889,-74.5 813,-74.5"/>
<text text-anchor="middle" x="851" y="-81.5" font-family="Helvetica,sans-Serif" font-size="10.00">TGeoMatrix.h</text>
</g>
<!-- Node22&#45;&gt;Node28 -->
<g id="edge29" class="edge"><title>Node22&#45;&gt;Node28</title>
<path fill="none" stroke="midnightblue" d="M1245.4,-146.691C1164.65,-140.337 1020.16,-126.264 899,-100 894.56,-99.0376 889.943,-97.8468 885.402,-96.5601"/>
<polygon fill="midnightblue" stroke="midnightblue" points="886.271,-93.1666 875.687,-93.6419 884.257,-99.8707 886.271,-93.1666"/>
</g>
<!-- Node29 -->
<g id="node29" class="node"><title>Node29</title>
<polygon fill="none" stroke="#bfbfbf" points="1755,-74.5 1755,-93.5 1809,-93.5 1809,-74.5 1755,-74.5"/>
<text text-anchor="middle" x="1782" y="-81.5" font-family="Helvetica,sans-Serif" font-size="10.00">iostream</text>
</g>
<!-- Node22&#45;&gt;Node29 -->
<g id="edge30" class="edge"><title>Node22&#45;&gt;Node29</title>
<path fill="none" stroke="midnightblue" d="M1370.65,-144.682C1483.04,-133.203 1710.54,-109.258 1746,-100 1748.83,-99.2625 1751.72,-98.3477 1754.58,-97.3365"/>
<polygon fill="midnightblue" stroke="midnightblue" points="1755.99,-100.545 1764.03,-93.6434 1753.44,-94.0251 1755.99,-100.545"/>
</g>
<!-- Node30 -->
<g id="node30" class="node"><title>Node30</title>
<g id="a_node30"><a xlink:href="../../d2/dd0/Cartesian2D_8h.html" target="_top" xlink:title="MathUtils/Cartesian2D.h">
<polygon fill="none" stroke="black" points="907.5,-74.5 907.5,-93.5 1032.5,-93.5 1032.5,-74.5 907.5,-74.5"/>
<text text-anchor="middle" x="970" y="-81.5" font-family="Helvetica,sans-Serif" font-size="10.00">MathUtils/Cartesian2D.h</text>
</a>
</g>
</g>
<!-- Node22&#45;&gt;Node30 -->
<g id="edge31" class="edge"><title>Node22&#45;&gt;Node30</title>
<path fill="none" stroke="midnightblue" d="M1262.3,-142.468C1209.27,-132.514 1119.23,-115.448 1042,-100 1034.94,-98.5882 1027.5,-97.0708 1020.19,-95.5627"/>
<polygon fill="midnightblue" stroke="midnightblue" points="1020.84,-92.1246 1010.34,-93.5229 1019.42,-98.979 1020.84,-92.1246"/>
</g>
<!-- Node31 -->
<g id="node31" class="node"><title>Node31</title>
<polygon fill="none" stroke="#bfbfbf" points="803.5,-1 803.5,-31 954.5,-31 954.5,-1 803.5,-1"/>
<text text-anchor="start" x="811.5" y="-19" font-family="Helvetica,sans-Serif" font-size="10.00">Math/GenVector/Displacement</text>
<text text-anchor="middle" x="879" y="-8" font-family="Helvetica,sans-Serif" font-size="10.00">Vector2D.h</text>
</g>
<!-- Node30&#45;&gt;Node31 -->
<g id="edge32" class="edge"><title>Node30&#45;&gt;Node31</title>
<path fill="none" stroke="midnightblue" d="M958.103,-74.3717C945.221,-65.0286 924.22,-49.7966 907.093,-37.375"/>
<polygon fill="midnightblue" stroke="midnightblue" points="908.703,-34.2194 898.553,-31.1815 904.593,-39.8859 908.703,-34.2194"/>
</g>
<!-- Node32 -->
<g id="node32" class="node"><title>Node32</title>
<polygon fill="none" stroke="#bfbfbf" points="973,-6.5 973,-25.5 1149,-25.5 1149,-6.5 973,-6.5"/>
<text text-anchor="middle" x="1061" y="-13.5" font-family="Helvetica,sans-Serif" font-size="10.00">Math/GenVector/PositionVector2D.h</text>
</g>
<!-- Node30&#45;&gt;Node32 -->
<g id="edge33" class="edge"><title>Node30&#45;&gt;Node32</title>
<path fill="none" stroke="midnightblue" d="M981.897,-74.3717C996.884,-63.5015 1022.86,-44.6602 1040.94,-31.5474"/>
<polygon fill="midnightblue" stroke="midnightblue" points="1043.06,-34.3349 1049.1,-25.6305 1038.95,-28.6684 1043.06,-34.3349"/>
</g>
<!-- Node33&#45;&gt;Node2 -->
<g id="edge36" class="edge"><title>Node33&#45;&gt;Node2</title>
<path fill="none" stroke="midnightblue" d="M1280.24,-279.019C1207.98,-275.388 1089.12,-265.108 991,-236 988.858,-235.364 986.68,-234.595 984.523,-233.744"/>
<polygon fill="midnightblue" stroke="midnightblue" points="985.932,-230.54 975.374,-229.655 983.076,-236.93 985.932,-230.54"/>
</g>
<!-- Node33&#45;&gt;Node10 -->
<g id="edge47" class="edge"><title>Node33&#45;&gt;Node10</title>
<path fill="none" stroke="midnightblue" d="M1280.31,-281.054C1196.96,-279.515 1049.52,-271.385 929,-236 927.03,-235.422 925.035,-234.718 923.057,-233.935"/>
<polygon fill="midnightblue" stroke="midnightblue" points="924.075,-230.552 913.526,-229.566 921.158,-236.915 924.075,-230.552"/>
</g>
<!-- Node33&#45;&gt;Node12 -->
<g id="edge43" class="edge"><title>Node33&#45;&gt;Node12</title>
<path fill="none" stroke="midnightblue" d="M1411.61,-278.569C1531.81,-273.543 1777.84,-260.388 1808,-236 1848.38,-203.339 1855.31,-136.716 1856.16,-103.994"/>
<polygon fill="midnightblue" stroke="midnightblue" points="1859.66,-103.629 1856.25,-93.5988 1852.67,-103.568 1859.66,-103.629"/>
</g>
<!-- Node33&#45;&gt;Node17 -->
<g id="edge46" class="edge"><title>Node33&#45;&gt;Node17</title>
<path fill="none" stroke="midnightblue" d="M1371.16,-272.378C1387.42,-265.343 1407.29,-253.645 1417,-236 1423.86,-223.539 1426.64,-214.454 1417,-204 1377.05,-160.691 961.266,-154.153 827.328,-153.172"/>
<polygon fill="midnightblue" stroke="midnightblue" points="827.102,-149.67 817.079,-153.104 827.056,-156.67 827.102,-149.67"/>
</g>
<!-- Node34 -->
<g id="node34" class="node"><title>Node34</title>
<polygon fill="none" stroke="#bfbfbf" points="1578.5,-142.5 1578.5,-161.5 1613.5,-161.5 1613.5,-142.5 1578.5,-142.5"/>
<text text-anchor="middle" x="1596" y="-149.5" font-family="Helvetica,sans-Serif" font-size="10.00">map</text>
</g>
<!-- Node33&#45;&gt;Node34 -->
<g id="edge35" class="edge"><title>Node33&#45;&gt;Node34</title>
<path fill="none" stroke="midnightblue" d="M1369.88,-272.482C1391.46,-264.366 1423.77,-251.161 1450,-236 1470.63,-224.079 1472.69,-216.447 1493,-204 1517.82,-188.79 1547.8,-174.352 1569,-164.746"/>
<polygon fill="midnightblue" stroke="midnightblue" points="1570.66,-167.84 1578.36,-160.562 1567.8,-161.45 1570.66,-167.84"/>
</g>
<!-- Node35 -->
<g id="node35" class="node"><title>Node35</title>
<polygon fill="none" stroke="#bfbfbf" points="1356,-210.5 1356,-229.5 1408,-229.5 1408,-210.5 1356,-210.5"/>
<text text-anchor="middle" x="1382" y="-217.5" font-family="Helvetica,sans-Serif" font-size="10.00">memory</text>
</g>
<!-- Node33&#45;&gt;Node35 -->
<g id="edge37" class="edge"><title>Node33&#45;&gt;Node35</title>
<path fill="none" stroke="midnightblue" d="M1351.16,-272.403C1356.45,-263.582 1364.84,-249.608 1371.53,-238.455"/>
<polygon fill="midnightblue" stroke="midnightblue" points="1374.71,-239.956 1376.85,-229.581 1368.71,-236.355 1374.71,-239.956"/>
</g>
<!-- Node36 -->
<g id="node36" class="node"><title>Node36</title>
<polygon fill="none" stroke="#bfbfbf" points="999.5,-210.5 999.5,-229.5 1078.5,-229.5 1078.5,-210.5 999.5,-210.5"/>
<text text-anchor="middle" x="1039" y="-217.5" font-family="Helvetica,sans-Serif" font-size="10.00">FairDetector.h</text>
</g>
<!-- Node33&#45;&gt;Node36 -->
<g id="edge38" class="edge"><title>Node33&#45;&gt;Node36</title>
<path fill="none" stroke="midnightblue" d="M1284.57,-272.485C1232.02,-264.678 1154.55,-251.925 1088,-236 1083.6,-234.947 1079.01,-233.72 1074.49,-232.429"/>
<polygon fill="midnightblue" stroke="midnightblue" points="1075.36,-229.037 1064.77,-229.547 1073.36,-235.748 1075.36,-229.037"/>
</g>
<!-- Node37 -->
<g id="node37" class="node"><title>Node37</title>
<polygon fill="none" stroke="#bfbfbf" points="1097,-210.5 1097,-229.5 1197,-229.5 1197,-210.5 1097,-210.5"/>
<text text-anchor="middle" x="1147" y="-217.5" font-family="Helvetica,sans-Serif" font-size="10.00">FairRootManager.h</text>
</g>
<!-- Node33&#45;&gt;Node37 -->
<g id="edge39" class="edge"><title>Node33&#45;&gt;Node37</title>
<path fill="none" stroke="midnightblue" d="M1317.49,-272.403C1282.76,-261.933 1223.96,-244.205 1185.31,-232.55"/>
<polygon fill="midnightblue" stroke="midnightblue" points="1186.04,-229.116 1175.46,-229.581 1184.02,-235.818 1186.04,-229.116"/>
</g>
<!-- Node38 -->
<g id="node38" class="node"><title>Node38</title>
<g id="a_node38"><a xlink:href="../../d0/d9a/MaterialManager_8h.html" target="_top" xlink:title="DetectorsBase/MaterialManager.h">
<polygon fill="none" stroke="black" points="1634.5,-210.5 1634.5,-229.5 1799.5,-229.5 1799.5,-210.5 1634.5,-210.5"/>
<text text-anchor="middle" x="1717" y="-217.5" font-family="Helvetica,sans-Serif" font-size="10.00">DetectorsBase/MaterialManager.h</text>
</a>
</g>
</g>
<!-- Node33&#45;&gt;Node38 -->
<g id="edge40" class="edge"><title>Node33&#45;&gt;Node38</title>
<path fill="none" stroke="midnightblue" d="M1398.97,-272.484C1455.1,-263.454 1546.3,-248.763 1625,-236 1634.7,-234.426 1644.98,-232.755 1655.02,-231.12"/>
<polygon fill="midnightblue" stroke="midnightblue" points="1655.64,-234.566 1664.94,-229.504 1654.51,-227.657 1655.64,-234.566"/>
</g>
<!-- Node39 -->
<g id="node39" class="node"><title>Node39</title>
<polygon fill="none" stroke="#bfbfbf" points="1284.5,-210.5 1284.5,-229.5 1337.5,-229.5 1337.5,-210.5 1284.5,-210.5"/>
<text text-anchor="middle" x="1311" y="-217.5" font-family="Helvetica,sans-Serif" font-size="10.00">cxxabi.h</text>
</g>
<!-- Node33&#45;&gt;Node39 -->
<g id="edge44" class="edge"><title>Node33&#45;&gt;Node39</title>
<path fill="none" stroke="midnightblue" d="M1340.99,-272.403C1335.84,-263.582 1327.69,-249.608 1321.18,-238.455"/>
<polygon fill="midnightblue" stroke="midnightblue" points="1324.07,-236.455 1316.01,-229.581 1318.02,-239.982 1324.07,-236.455"/>
</g>
<!-- Node40 -->
<g id="node40" class="node"><title>Node40</title>
<polygon fill="none" stroke="#bfbfbf" points="1215.5,-210.5 1215.5,-229.5 1266.5,-229.5 1266.5,-210.5 1215.5,-210.5"/>
<text text-anchor="middle" x="1241" y="-217.5" font-family="Helvetica,sans-Serif" font-size="10.00">typeinfo</text>
</g>
<!-- Node33&#45;&gt;Node40 -->
<g id="edge45" class="edge"><title>Node33&#45;&gt;Node40</title>
<path fill="none" stroke="midnightblue" d="M1330.96,-272.403C1313.72,-262.557 1285.26,-246.291 1264.97,-234.695"/>
<polygon fill="midnightblue" stroke="midnightblue" points="1266.43,-231.503 1256.02,-229.581 1262.96,-237.581 1266.43,-231.503"/>
</g>
<!-- Node38&#45;&gt;Node12 -->
<g id="edge41" class="edge"><title>Node38&#45;&gt;Node12</title>
<path fill="none" stroke="midnightblue" d="M1726.12,-210.208C1749.2,-187.961 1810.16,-129.191 1839.61,-100.798"/>
<polygon fill="midnightblue" stroke="midnightblue" points="1842.26,-103.11 1847.03,-93.6503 1837.4,-98.0709 1842.26,-103.11"/>
</g>
<!-- Node38&#45;&gt;Node34 -->
<g id="edge42" class="edge"><title>Node38&#45;&gt;Node34</title>
<path fill="none" stroke="midnightblue" d="M1701.18,-210.372C1680.71,-199.205 1644.82,-179.627 1620.73,-166.488"/>
<polygon fill="midnightblue" stroke="midnightblue" points="1622.28,-163.346 1611.82,-161.63 1618.93,-169.492 1622.28,-163.346"/>
</g>
<!-- Node41&#45;&gt;Node12 -->
<g id="edge54" class="edge"><title>Node41&#45;&gt;Node12</title>
<path fill="none" stroke="midnightblue" d="M1861.55,-272.486C1898.23,-247.546 2002.93,-175.91 2007,-168 2013.5,-155.352 2015.29,-147.554 2007,-136 1981.52,-100.503 1930.02,-89.3926 1894.3,-86.0902"/>
<polygon fill="midnightblue" stroke="midnightblue" points="1894.45,-82.5922 1884.22,-85.3245 1893.92,-89.5721 1894.45,-82.5922"/>
</g>
<!-- Node41&#45;&gt;Node29 -->
<g id="edge56" class="edge"><title>Node41&#45;&gt;Node29</title>
<path fill="none" stroke="midnightblue" d="M1846.03,-272.325C1835.85,-242.538 1802.17,-144.013 1788.18,-103.079"/>
<polygon fill="midnightblue" stroke="midnightblue" points="1791.48,-101.905 1784.93,-93.5746 1784.85,-104.169 1791.48,-101.905"/>
</g>
<!-- Node42 -->
<g id="node42" class="node"><title>Node42</title>
<g id="a_node42"><a xlink:href="../../d4/d25/BaseHits_8h.html" target="_top" xlink:title="SimulationDataFormat\l/BaseHits.h">
<polygon fill="none" stroke="black" points="1502,-205 1502,-235 1616,-235 1616,-205 1502,-205"/>
<text text-anchor="start" x="1510" y="-223" font-family="Helvetica,sans-Serif" font-size="10.00">SimulationDataFormat</text>
<text text-anchor="middle" x="1559" y="-212" font-family="Helvetica,sans-Serif" font-size="10.00">/BaseHits.h</text>
</a>
</g>
</g>
<!-- Node41&#45;&gt;Node42 -->
<g id="edge50" class="edge"><title>Node41&#45;&gt;Node42</title>
<path fill="none" stroke="midnightblue" d="M1805.36,-272.477C1760.36,-263.622 1688.2,-249.236 1626,-236 1625.9,-235.978 1625.8,-235.957 1625.69,-235.935"/>
<polygon fill="midnightblue" stroke="midnightblue" points="1626.52,-232.532 1616,-233.848 1625.04,-239.375 1626.52,-232.532"/>
</g>
<!-- Node43 -->
<g id="node43" class="node"><title>Node43</title>
<g id="a_node43"><a xlink:href="../../d7/dcd/MCCompLabel_8h.html" target="_top" xlink:title="SimulationDataFormat\l/MCCompLabel.h">
<polygon fill="none" stroke="black" points="1884,-137 1884,-167 1998,-167 1998,-137 1884,-137"/>
<text text-anchor="start" x="1892" y="-155" font-family="Helvetica,sans-Serif" font-size="10.00">SimulationDataFormat</text>
<text text-anchor="middle" x="1941" y="-144" font-family="Helvetica,sans-Serif" font-size="10.00">/MCCompLabel.h</text>
</a>
</g>
</g>
<!-- Node41&#45;&gt;Node43 -->
<g id="edge52" class="edge"><title>Node41&#45;&gt;Node43</title>
<path fill="none" stroke="midnightblue" d="M1855.32,-272.202C1869.52,-252.444 1904.31,-204.041 1924.93,-175.358"/>
<polygon fill="midnightblue" stroke="midnightblue" points="1927.84,-177.306 1930.83,-167.143 1922.16,-173.221 1927.84,-177.306"/>
</g>
<!-- Node41&#45;&gt;Node44 -->
<g id="edge55" class="edge"><title>Node41&#45;&gt;Node44</title>
<path fill="none" stroke="midnightblue" d="M1871.06,-272.403C1897.37,-262.156 1941.51,-244.956 1971.42,-233.302"/>
<polygon fill="midnightblue" stroke="midnightblue" points="1972.93,-236.472 1980.98,-229.581 1970.39,-229.95 1972.93,-236.472"/>
</g>
<!-- Node42&#45;&gt;Node22 -->
<g id="edge51" class="edge"><title>Node42&#45;&gt;Node22</title>
<path fill="none" stroke="midnightblue" d="M1505.46,-204.922C1459.08,-192.725 1392.88,-175.32 1350.17,-164.09"/>
<polygon fill="midnightblue" stroke="midnightblue" points="1350.94,-160.672 1340.38,-161.514 1349.16,-167.442 1350.94,-160.672"/>
</g>
<!-- Node43&#45;&gt;Node12 -->
<g id="edge53" class="edge"><title>Node43&#45;&gt;Node12</title>
<path fill="none" stroke="midnightblue" d="M1922.56,-136.679C1908.65,-125.879 1889.61,-111.098 1875.46,-100.11"/>
<polygon fill="midnightblue" stroke="midnightblue" points="1877.41,-97.1968 1867.37,-93.8283 1873.12,-102.726 1877.41,-97.1968"/>
</g>
</g>
</svg>
