<?xml version="1.0" encoding="UTF-8" standalone="no"?>
<!DOCTYPE svg PUBLIC "-//W3C//DTD SVG 1.1//EN"
 "http://www.w3.org/Graphics/SVG/1.1/DTD/svg11.dtd">
<!-- Generated by graphviz version 2.36.0 (20140111.2315)
 -->
<!-- Title: /home/travis/build/AliceO2Group/AliceO2/Detectors/ITSMFT/ITS/reconstruction/include/ITSReconstruction/TrivialClusterer.h Pages: 1 -->
<svg width="1773pt" height="400pt"
 viewBox="0.00 0.00 1773.00 400.00" xmlns="http://www.w3.org/2000/svg" xmlns:xlink="http://www.w3.org/1999/xlink">
<g id="graph0" class="graph" transform="scale(1 1) rotate(0) translate(4 396)">
<title>/home/travis/build/AliceO2Group/AliceO2/Detectors/ITSMFT/ITS/reconstruction/include/ITSReconstruction/TrivialClusterer.h</title>
<!-- Node1 -->
<g id="node1" class="node"><title>Node1</title>
<polygon fill="#bfbfbf" stroke="black" points="1076.5,-328.5 1076.5,-391.5 1255.5,-391.5 1255.5,-328.5 1076.5,-328.5"/>
<text text-anchor="start" x="1084.5" y="-379.5" font-family="Helvetica,sans-Serif" font-size="10.00">/home/travis/build</text>
<text text-anchor="start" x="1084.5" y="-368.5" font-family="Helvetica,sans-Serif" font-size="10.00">/AliceO2Group/AliceO2</text>
<text text-anchor="start" x="1084.5" y="-357.5" font-family="Helvetica,sans-Serif" font-size="10.00">/Detectors/ITSMFT/ITS</text>
<text text-anchor="start" x="1084.5" y="-346.5" font-family="Helvetica,sans-Serif" font-size="10.00">/reconstruction/include</text>
<text text-anchor="middle" x="1166" y="-335.5" font-family="Helvetica,sans-Serif" font-size="10.00">/ITSReconstruction/TrivialClusterer.h</text>
</g>
<!-- Node2 -->
<g id="node2" class="node"><title>Node2</title>
<polygon fill="none" stroke="#bfbfbf" points="1192,-74.5 1192,-93.5 1248,-93.5 1248,-74.5 1192,-74.5"/>
<text text-anchor="middle" x="1220" y="-81.5" font-family="Helvetica,sans-Serif" font-size="10.00">Rtypes.h</text>
</g>
<!-- Node1&#45;&gt;Node2 -->
<g id="edge1" class="edge"><title>Node1&#45;&gt;Node2</title>
<path fill="none" stroke="midnightblue" d="M1138.95,-328.165C1102.63,-282.833 1047.21,-196.986 1089,-136 1114.05,-99.4377 1140.72,-116.137 1182,-100 1184.23,-99.1285 1186.53,-98.226 1188.85,-97.316"/>
<polygon fill="midnightblue" stroke="midnightblue" points="1190.28,-100.512 1198.31,-93.5917 1187.72,-93.9988 1190.28,-100.512"/>
</g>
<!-- Node3 -->
<g id="node3" class="node"><title>Node3</title>
<g id="a_node3"><a xlink:href="../../d0/d2d/common_2base_2include_2ITSMFTBase_2GeometryTGeo_8h.html" target="_top" xlink:title="ITSMFTBase/GeometryTGeo.h">
<polygon fill="none" stroke="black" points="1186.5,-272.5 1186.5,-291.5 1339.5,-291.5 1339.5,-272.5 1186.5,-272.5"/>
<text text-anchor="middle" x="1263" y="-279.5" font-family="Helvetica,sans-Serif" font-size="10.00">ITSMFTBase/GeometryTGeo.h</text>
</a>
</g>
</g>
<!-- Node1&#45;&gt;Node3 -->
<g id="edge2" class="edge"><title>Node1&#45;&gt;Node3</title>
<path fill="none" stroke="midnightblue" d="M1205.17,-328.307C1218.45,-317.905 1232.7,-306.743 1243.73,-298.102"/>
<polygon fill="midnightblue" stroke="midnightblue" points="1246.09,-300.696 1251.8,-291.774 1241.77,-295.186 1246.09,-300.696"/>
</g>
<!-- Node4 -->
<g id="node4" class="node"><title>Node4</title>
<polygon fill="none" stroke="#bfbfbf" points="1294.5,-210.5 1294.5,-229.5 1363.5,-229.5 1363.5,-210.5 1294.5,-210.5"/>
<text text-anchor="middle" x="1329" y="-217.5" font-family="Helvetica,sans-Serif" font-size="10.00">TObjArray.h</text>
</g>
<!-- Node3&#45;&gt;Node4 -->
<g id="edge3" class="edge"><title>Node3&#45;&gt;Node4</title>
<path fill="none" stroke="midnightblue" d="M1272.46,-272.403C1282.75,-263.047 1299.42,-247.895 1311.99,-236.46"/>
<polygon fill="midnightblue" stroke="midnightblue" points="1314.52,-238.897 1319.56,-229.581 1309.81,-233.718 1314.52,-238.897"/>
</g>
<!-- Node5 -->
<g id="node5" class="node"><title>Node5</title>
<polygon fill="none" stroke="#bfbfbf" points="1381.5,-210.5 1381.5,-229.5 1422.5,-229.5 1422.5,-210.5 1381.5,-210.5"/>
<text text-anchor="middle" x="1402" y="-217.5" font-family="Helvetica,sans-Serif" font-size="10.00">string</text>
</g>
<!-- Node3&#45;&gt;Node5 -->
<g id="edge4" class="edge"><title>Node3&#45;&gt;Node5</title>
<path fill="none" stroke="midnightblue" d="M1284.91,-272.492C1307.07,-263.766 1342.19,-249.583 1372,-236 1373.36,-235.381 1374.74,-234.736 1376.14,-234.076"/>
<polygon fill="midnightblue" stroke="midnightblue" points="1377.82,-237.149 1385.28,-229.625 1374.76,-230.855 1377.82,-237.149"/>
</g>
<!-- Node6 -->
<g id="node6" class="node"><title>Node6</title>
<g id="a_node6"><a xlink:href="../../d4/d20/DetMatrixCache_8h.html" target="_top" xlink:title="DetectorsCommonDataFormats\l/DetMatrixCache.h">
<polygon fill="none" stroke="black" points="1120,-205 1120,-235 1276,-235 1276,-205 1120,-205"/>
<text text-anchor="start" x="1128" y="-223" font-family="Helvetica,sans-Serif" font-size="10.00">DetectorsCommonDataFormats</text>
<text text-anchor="middle" x="1198" y="-212" font-family="Helvetica,sans-Serif" font-size="10.00">/DetMatrixCache.h</text>
</a>
</g>
</g>
<!-- Node3&#45;&gt;Node6 -->
<g id="edge5" class="edge"><title>Node3&#45;&gt;Node6</title>
<path fill="none" stroke="midnightblue" d="M1253.69,-272.403C1245.13,-264.505 1232.1,-252.477 1220.79,-242.041"/>
<polygon fill="midnightblue" stroke="midnightblue" points="1223.04,-239.352 1213.32,-235.141 1218.29,-244.495 1223.04,-239.352"/>
</g>
<!-- Node6&#45;&gt;Node2 -->
<g id="edge32" class="edge"><title>Node6&#45;&gt;Node2</title>
<path fill="none" stroke="midnightblue" d="M1200.35,-204.66C1204.35,-180.32 1212.46,-130.933 1216.91,-103.837"/>
<polygon fill="midnightblue" stroke="midnightblue" points="1220.4,-104.162 1218.57,-93.7275 1213.49,-103.028 1220.4,-104.162"/>
</g>
<!-- Node7 -->
<g id="node7" class="node"><title>Node7</title>
<polygon fill="none" stroke="#bfbfbf" points="1098.5,-142.5 1098.5,-161.5 1169.5,-161.5 1169.5,-142.5 1098.5,-142.5"/>
<text text-anchor="middle" x="1134" y="-149.5" font-family="Helvetica,sans-Serif" font-size="10.00">FairLogger.h</text>
</g>
<!-- Node6&#45;&gt;Node7 -->
<g id="edge6" class="edge"><title>Node6&#45;&gt;Node7</title>
<path fill="none" stroke="midnightblue" d="M1184.11,-204.679C1173.94,-194.184 1160.12,-179.932 1149.57,-169.052"/>
<polygon fill="midnightblue" stroke="midnightblue" points="1152.03,-166.571 1142.56,-161.828 1147.01,-171.444 1152.03,-166.571"/>
</g>
<!-- Node8 -->
<g id="node8" class="node"><title>Node8</title>
<polygon fill="none" stroke="#bfbfbf" points="1461,-6.5 1461,-25.5 1499,-25.5 1499,-6.5 1461,-6.5"/>
<text text-anchor="middle" x="1480" y="-13.5" font-family="Helvetica,sans-Serif" font-size="10.00">array</text>
</g>
<!-- Node6&#45;&gt;Node8 -->
<g id="edge7" class="edge"><title>Node6&#45;&gt;Node8</title>
<path fill="none" stroke="midnightblue" d="M1229.54,-204.894C1245.86,-196.243 1265.04,-183.784 1278,-168 1308.28,-131.134 1282.13,-100.555 1317,-68 1354.12,-33.341 1414.54,-22.2302 1450.46,-18.6721"/>
<polygon fill="midnightblue" stroke="midnightblue" points="1451.1,-22.1301 1460.77,-17.7926 1450.51,-15.1554 1451.1,-22.1301"/>
</g>
<!-- Node9 -->
<g id="node9" class="node"><title>Node9</title>
<polygon fill="none" stroke="#bfbfbf" points="1226,-142.5 1226,-161.5 1270,-161.5 1270,-142.5 1226,-142.5"/>
<text text-anchor="middle" x="1248" y="-149.5" font-family="Helvetica,sans-Serif" font-size="10.00">vector</text>
</g>
<!-- Node6&#45;&gt;Node9 -->
<g id="edge8" class="edge"><title>Node6&#45;&gt;Node9</title>
<path fill="none" stroke="midnightblue" d="M1208.85,-204.679C1216.57,-194.49 1226.97,-180.759 1235.11,-170.011"/>
<polygon fill="midnightblue" stroke="midnightblue" points="1238.06,-171.913 1241.31,-161.828 1232.48,-167.686 1238.06,-171.913"/>
</g>
<!-- Node10 -->
<g id="node10" class="node"><title>Node10</title>
<g id="a_node10"><a xlink:href="../../d6/d31/DetID_8h.html" target="_top" xlink:title="DetectorsCommonDataFormats\l/DetID.h">
<polygon fill="none" stroke="black" points="1372,-137 1372,-167 1528,-167 1528,-137 1372,-137"/>
<text text-anchor="start" x="1380" y="-155" font-family="Helvetica,sans-Serif" font-size="10.00">DetectorsCommonDataFormats</text>
<text text-anchor="middle" x="1450" y="-144" font-family="Helvetica,sans-Serif" font-size="10.00">/DetID.h</text>
</a>
</g>
</g>
<!-- Node6&#45;&gt;Node10 -->
<g id="edge9" class="edge"><title>Node6&#45;&gt;Node10</title>
<path fill="none" stroke="midnightblue" d="M1251.75,-204.922C1291.23,-194.583 1345,-180.501 1386.58,-169.61"/>
<polygon fill="midnightblue" stroke="midnightblue" points="1387.54,-172.976 1396.33,-167.056 1385.77,-166.204 1387.54,-172.976"/>
</g>
<!-- Node18 -->
<g id="node18" class="node"><title>Node18</title>
<g id="a_node18"><a xlink:href="../../dd/d76/Cartesian3D_8h.html" target="_top" xlink:title="MathUtils/Cartesian3D.h">
<polygon fill="none" stroke="black" points="763.5,-142.5 763.5,-161.5 888.5,-161.5 888.5,-142.5 763.5,-142.5"/>
<text text-anchor="middle" x="826" y="-149.5" font-family="Helvetica,sans-Serif" font-size="10.00">MathUtils/Cartesian3D.h</text>
</a>
</g>
</g>
<!-- Node6&#45;&gt;Node18 -->
<g id="edge20" class="edge"><title>Node6&#45;&gt;Node18</title>
<path fill="none" stroke="midnightblue" d="M1119.56,-205.084C1049.19,-192.599 947.525,-174.561 884.174,-163.321"/>
<polygon fill="midnightblue" stroke="midnightblue" points="884.42,-159.81 873.963,-161.509 883.197,-166.703 884.42,-159.81"/>
</g>
<!-- Node10&#45;&gt;Node2 -->
<g id="edge10" class="edge"><title>Node10&#45;&gt;Node2</title>
<path fill="none" stroke="midnightblue" d="M1400.94,-136.922C1358.1,-124.628 1296.82,-107.043 1257.72,-95.8231"/>
<polygon fill="midnightblue" stroke="midnightblue" points="1258.62,-92.4397 1248.04,-93.0456 1256.68,-99.1681 1258.62,-92.4397"/>
</g>
<!-- Node10&#45;&gt;Node8 -->
<g id="edge11" class="edge"><title>Node10&#45;&gt;Node8</title>
<path fill="none" stroke="midnightblue" d="M1453.21,-136.66C1458.66,-112.32 1469.72,-62.9332 1475.78,-35.8373"/>
<polygon fill="midnightblue" stroke="midnightblue" points="1479.28,-36.2506 1478.05,-25.7275 1472.45,-34.7213 1479.28,-36.2506"/>
</g>
<!-- Node11 -->
<g id="node11" class="node"><title>Node11</title>
<polygon fill="none" stroke="#bfbfbf" points="1616.5,-74.5 1616.5,-93.5 1657.5,-93.5 1657.5,-74.5 1616.5,-74.5"/>
<text text-anchor="middle" x="1637" y="-81.5" font-family="Helvetica,sans-Serif" font-size="10.00">bitset</text>
</g>
<!-- Node10&#45;&gt;Node11 -->
<g id="edge12" class="edge"><title>Node10&#45;&gt;Node11</title>
<path fill="none" stroke="midnightblue" d="M1499.83,-136.896C1531.04,-127.553 1571.86,-114.397 1607,-100 1608.59,-99.3473 1610.22,-98.6454 1611.85,-97.9142"/>
<polygon fill="midnightblue" stroke="midnightblue" points="1613.49,-101.008 1621.01,-93.5471 1610.48,-94.6887 1613.49,-101.008"/>
</g>
<!-- Node12 -->
<g id="node12" class="node"><title>Node12</title>
<polygon fill="none" stroke="#bfbfbf" points="1675.5,-74.5 1675.5,-93.5 1724.5,-93.5 1724.5,-74.5 1675.5,-74.5"/>
<text text-anchor="middle" x="1700" y="-81.5" font-family="Helvetica,sans-Serif" font-size="10.00">cassert</text>
</g>
<!-- Node10&#45;&gt;Node12 -->
<g id="edge13" class="edge"><title>Node10&#45;&gt;Node12</title>
<path fill="none" stroke="midnightblue" d="M1524.42,-136.953C1566.51,-128.137 1619.79,-115.503 1666,-100 1668.27,-99.2382 1670.6,-98.3819 1672.92,-97.4745"/>
<polygon fill="midnightblue" stroke="midnightblue" points="1674.37,-100.659 1682.25,-93.5682 1671.67,-94.2028 1674.37,-100.659"/>
</g>
<!-- Node13 -->
<g id="node13" class="node"><title>Node13</title>
<polygon fill="none" stroke="#bfbfbf" points="1326,-74.5 1326,-93.5 1372,-93.5 1372,-74.5 1326,-74.5"/>
<text text-anchor="middle" x="1349" y="-81.5" font-family="Helvetica,sans-Serif" font-size="10.00">cstdint</text>
</g>
<!-- Node10&#45;&gt;Node13 -->
<g id="edge14" class="edge"><title>Node10&#45;&gt;Node13</title>
<path fill="none" stroke="midnightblue" d="M1428.08,-136.679C1411.15,-125.611 1387.81,-110.363 1370.88,-99.3002"/>
<polygon fill="midnightblue" stroke="midnightblue" points="1372.5,-96.1783 1362.22,-93.6379 1368.68,-102.038 1372.5,-96.1783"/>
</g>
<!-- Node14 -->
<g id="node14" class="node"><title>Node14</title>
<polygon fill="none" stroke="#bfbfbf" points="1390,-74.5 1390,-93.5 1452,-93.5 1452,-74.5 1390,-74.5"/>
<text text-anchor="middle" x="1421" y="-81.5" font-family="Helvetica,sans-Serif" font-size="10.00">type_traits</text>
</g>
<!-- Node10&#45;&gt;Node14 -->
<g id="edge15" class="edge"><title>Node10&#45;&gt;Node14</title>
<path fill="none" stroke="midnightblue" d="M1443.71,-136.679C1439.36,-126.796 1433.56,-113.579 1428.9,-102.986"/>
<polygon fill="midnightblue" stroke="midnightblue" points="1432.11,-101.576 1424.88,-93.8283 1425.7,-104.391 1432.11,-101.576"/>
</g>
<!-- Node15 -->
<g id="node15" class="node"><title>Node15</title>
<g id="a_node15"><a xlink:href="../../d9/d52/Common_2MathUtils_2include_2MathUtils_2Utils_8h.html" target="_top" xlink:title="MathUtils/Utils.h">
<polygon fill="none" stroke="black" points="1508,-74.5 1508,-93.5 1598,-93.5 1598,-74.5 1508,-74.5"/>
<text text-anchor="middle" x="1553" y="-81.5" font-family="Helvetica,sans-Serif" font-size="10.00">MathUtils/Utils.h</text>
</a>
</g>
</g>
<!-- Node10&#45;&gt;Node15 -->
<g id="edge16" class="edge"><title>Node10&#45;&gt;Node15</title>
<path fill="none" stroke="midnightblue" d="M1472.1,-136.841C1489.35,-125.784 1513.23,-110.481 1530.57,-99.3701"/>
<polygon fill="midnightblue" stroke="midnightblue" points="1532.92,-102.024 1539.45,-93.6819 1529.14,-96.1302 1532.92,-102.024"/>
</g>
<!-- Node15&#45;&gt;Node8 -->
<g id="edge17" class="edge"><title>Node15&#45;&gt;Node8</title>
<path fill="none" stroke="midnightblue" d="M1543.46,-74.3717C1531.83,-63.8564 1511.95,-45.8819 1497.53,-32.8496"/>
<polygon fill="midnightblue" stroke="midnightblue" points="1499.54,-29.9514 1489.78,-25.8411 1494.85,-35.1438 1499.54,-29.9514"/>
</g>
<!-- Node16 -->
<g id="node16" class="node"><title>Node16</title>
<polygon fill="none" stroke="#bfbfbf" points="1524,-6.5 1524,-25.5 1568,-25.5 1568,-6.5 1524,-6.5"/>
<text text-anchor="middle" x="1546" y="-13.5" font-family="Helvetica,sans-Serif" font-size="10.00">cmath</text>
</g>
<!-- Node15&#45;&gt;Node16 -->
<g id="edge18" class="edge"><title>Node15&#45;&gt;Node16</title>
<path fill="none" stroke="midnightblue" d="M1552.08,-74.3717C1551.05,-64.6426 1549.34,-48.528 1548,-35.8504"/>
<polygon fill="midnightblue" stroke="midnightblue" points="1551.47,-35.4162 1546.94,-25.8411 1544.51,-36.1545 1551.47,-35.4162"/>
</g>
<!-- Node17 -->
<g id="node17" class="node"><title>Node17</title>
<g id="a_node17"><a xlink:href="../../d6/d84/MathConstants_8h.html" target="_top" xlink:title="useful math constants ">
<polygon fill="none" stroke="black" points="1586.5,-6.5 1586.5,-25.5 1765.5,-25.5 1765.5,-6.5 1586.5,-6.5"/>
<text text-anchor="middle" x="1676" y="-13.5" font-family="Helvetica,sans-Serif" font-size="10.00">CommonConstants/MathConstants.h</text>
</a>
</g>
</g>
<!-- Node15&#45;&gt;Node17 -->
<g id="edge19" class="edge"><title>Node15&#45;&gt;Node17</title>
<path fill="none" stroke="midnightblue" d="M1569.08,-74.3717C1589.89,-63.2051 1626.38,-43.6266 1650.86,-30.4876"/>
<polygon fill="midnightblue" stroke="midnightblue" points="1652.76,-33.4428 1659.92,-25.6305 1649.45,-27.2746 1652.76,-33.4428"/>
</g>
<!-- Node18&#45;&gt;Node2 -->
<g id="edge26" class="edge"><title>Node18&#45;&gt;Node2</title>
<path fill="none" stroke="midnightblue" d="M888.621,-146.481C960.424,-140.28 1081.21,-126.717 1182,-100 1185.06,-99.1901 1188.2,-98.2077 1191.31,-97.1373"/>
<polygon fill="midnightblue" stroke="midnightblue" points="1192.82,-100.306 1200.96,-93.5221 1190.37,-93.7508 1192.82,-100.306"/>
</g>
<!-- Node19 -->
<g id="node19" class="node"><title>Node19</title>
<polygon fill="none" stroke="#bfbfbf" points="1022.5,-69 1022.5,-99 1173.5,-99 1173.5,-69 1022.5,-69"/>
<text text-anchor="start" x="1030.5" y="-87" font-family="Helvetica,sans-Serif" font-size="10.00">Math/GenVector/Displacement</text>
<text text-anchor="middle" x="1098" y="-76" font-family="Helvetica,sans-Serif" font-size="10.00">Vector3D.h</text>
</g>
<!-- Node18&#45;&gt;Node19 -->
<g id="edge21" class="edge"><title>Node18&#45;&gt;Node19</title>
<path fill="none" stroke="midnightblue" d="M861.28,-142.439C903.974,-132.08 976.795,-114.41 1030.42,-101.397"/>
<polygon fill="midnightblue" stroke="midnightblue" points="1031.31,-104.784 1040.2,-99.0247 1029.66,-97.9816 1031.31,-104.784"/>
</g>
<!-- Node20 -->
<g id="node20" class="node"><title>Node20</title>
<polygon fill="none" stroke="#bfbfbf" points="0,-74.5 0,-93.5 176,-93.5 176,-74.5 0,-74.5"/>
<text text-anchor="middle" x="88" y="-81.5" font-family="Helvetica,sans-Serif" font-size="10.00">Math/GenVector/PositionVector3D.h</text>
</g>
<!-- Node18&#45;&gt;Node20 -->
<g id="edge22" class="edge"><title>Node18&#45;&gt;Node20</title>
<path fill="none" stroke="midnightblue" d="M763.42,-147.607C648.414,-141.021 395.815,-124.925 184,-100 172.22,-98.6138 159.669,-96.8576 147.66,-95.0391"/>
<polygon fill="midnightblue" stroke="midnightblue" points="148.145,-91.5726 137.727,-93.5036 147.075,-98.4904 148.145,-91.5726"/>
</g>
<!-- Node21 -->
<g id="node21" class="node"><title>Node21</title>
<polygon fill="none" stroke="#bfbfbf" points="336.5,-74.5 336.5,-93.5 485.5,-93.5 485.5,-74.5 336.5,-74.5"/>
<text text-anchor="middle" x="411" y="-81.5" font-family="Helvetica,sans-Serif" font-size="10.00">Math/GenVector/Rotation3D.h</text>
</g>
<!-- Node18&#45;&gt;Node21 -->
<g id="edge23" class="edge"><title>Node18&#45;&gt;Node21</title>
<path fill="none" stroke="midnightblue" d="M767.934,-142.481C701.789,-132.678 590.497,-115.881 495,-100 486.093,-98.5187 476.665,-96.8924 467.47,-95.2742"/>
<polygon fill="midnightblue" stroke="midnightblue" points="468.076,-91.8272 457.619,-93.5287 466.855,-98.7198 468.076,-91.8272"/>
</g>
<!-- Node22 -->
<g id="node22" class="node"><title>Node22</title>
<polygon fill="none" stroke="#bfbfbf" points="504,-74.5 504,-93.5 660,-93.5 660,-74.5 504,-74.5"/>
<text text-anchor="middle" x="582" y="-81.5" font-family="Helvetica,sans-Serif" font-size="10.00">Math/GenVector/Transform3D.h</text>
</g>
<!-- Node18&#45;&gt;Node22 -->
<g id="edge24" class="edge"><title>Node18&#45;&gt;Node22</title>
<path fill="none" stroke="midnightblue" d="M794.101,-142.372C750.324,-130.53 671.574,-109.229 623.328,-96.179"/>
<polygon fill="midnightblue" stroke="midnightblue" points="624.087,-92.7584 613.52,-93.5259 622.259,-99.5156 624.087,-92.7584"/>
</g>
<!-- Node23 -->
<g id="node23" class="node"><title>Node23</title>
<polygon fill="none" stroke="#bfbfbf" points="678,-74.5 678,-93.5 838,-93.5 838,-74.5 678,-74.5"/>
<text text-anchor="middle" x="758" y="-81.5" font-family="Helvetica,sans-Serif" font-size="10.00">Math/GenVector/Translation3D.h</text>
</g>
<!-- Node18&#45;&gt;Node23 -->
<g id="edge25" class="edge"><title>Node18&#45;&gt;Node23</title>
<path fill="none" stroke="midnightblue" d="M817.11,-142.372C806.276,-131.856 787.757,-113.882 774.33,-100.85"/>
<polygon fill="midnightblue" stroke="midnightblue" points="776.723,-98.2944 767.109,-93.8411 771.847,-103.317 776.723,-98.2944"/>
</g>
<!-- Node24 -->
<g id="node24" class="node"><title>Node24</title>
<polygon fill="none" stroke="#bfbfbf" points="856,-74.5 856,-93.5 932,-93.5 932,-74.5 856,-74.5"/>
<text text-anchor="middle" x="894" y="-81.5" font-family="Helvetica,sans-Serif" font-size="10.00">TGeoMatrix.h</text>
</g>
<!-- Node18&#45;&gt;Node24 -->
<g id="edge27" class="edge"><title>Node18&#45;&gt;Node24</title>
<path fill="none" stroke="midnightblue" d="M834.89,-142.372C845.724,-131.856 864.243,-113.882 877.67,-100.85"/>
<polygon fill="midnightblue" stroke="midnightblue" points="880.153,-103.317 884.891,-93.8411 875.277,-98.2944 880.153,-103.317"/>
</g>
<!-- Node25 -->
<g id="node25" class="node"><title>Node25</title>
<polygon fill="none" stroke="#bfbfbf" points="950,-74.5 950,-93.5 1004,-93.5 1004,-74.5 950,-74.5"/>
<text text-anchor="middle" x="977" y="-81.5" font-family="Helvetica,sans-Serif" font-size="10.00">iostream</text>
</g>
<!-- Node18&#45;&gt;Node25 -->
<g id="edge28" class="edge"><title>Node18&#45;&gt;Node25</title>
<path fill="none" stroke="midnightblue" d="M845.741,-142.372C871.741,-131.007 917.673,-110.931 947.724,-97.7961"/>
<polygon fill="midnightblue" stroke="midnightblue" points="949.493,-100.843 957.255,-93.6305 946.69,-94.4285 949.493,-100.843"/>
</g>
<!-- Node26 -->
<g id="node26" class="node"><title>Node26</title>
<g id="a_node26"><a xlink:href="../../d2/dd0/Cartesian2D_8h.html" target="_top" xlink:title="MathUtils/Cartesian2D.h">
<polygon fill="none" stroke="black" points="193.5,-74.5 193.5,-93.5 318.5,-93.5 318.5,-74.5 193.5,-74.5"/>
<text text-anchor="middle" x="256" y="-81.5" font-family="Helvetica,sans-Serif" font-size="10.00">MathUtils/Cartesian2D.h</text>
</a>
</g>
</g>
<!-- Node18&#45;&gt;Node26 -->
<g id="edge29" class="edge"><title>Node18&#45;&gt;Node26</title>
<path fill="none" stroke="midnightblue" d="M763.492,-146.757C668.717,-139.84 483.161,-124.405 327,-100 319.123,-98.769 310.802,-97.23 302.738,-95.6105"/>
<polygon fill="midnightblue" stroke="midnightblue" points="303.215,-92.1352 292.713,-93.5333 301.795,-98.9896 303.215,-92.1352"/>
</g>
<!-- Node27 -->
<g id="node27" class="node"><title>Node27</title>
<polygon fill="none" stroke="#bfbfbf" points="89.5,-1 89.5,-31 240.5,-31 240.5,-1 89.5,-1"/>
<text text-anchor="start" x="97.5" y="-19" font-family="Helvetica,sans-Serif" font-size="10.00">Math/GenVector/Displacement</text>
<text text-anchor="middle" x="165" y="-8" font-family="Helvetica,sans-Serif" font-size="10.00">Vector2D.h</text>
</g>
<!-- Node26&#45;&gt;Node27 -->
<g id="edge30" class="edge"><title>Node26&#45;&gt;Node27</title>
<path fill="none" stroke="midnightblue" d="M244.103,-74.3717C231.221,-65.0286 210.22,-49.7966 193.093,-37.375"/>
<polygon fill="midnightblue" stroke="midnightblue" points="194.703,-34.2194 184.553,-31.1815 190.593,-39.8859 194.703,-34.2194"/>
</g>
<!-- Node28 -->
<g id="node28" class="node"><title>Node28</title>
<polygon fill="none" stroke="#bfbfbf" points="259,-6.5 259,-25.5 435,-25.5 435,-6.5 259,-6.5"/>
<text text-anchor="middle" x="347" y="-13.5" font-family="Helvetica,sans-Serif" font-size="10.00">Math/GenVector/PositionVector2D.h</text>
</g>
<!-- Node26&#45;&gt;Node28 -->
<g id="edge31" class="edge"><title>Node26&#45;&gt;Node28</title>
<path fill="none" stroke="midnightblue" d="M267.897,-74.3717C282.884,-63.5015 308.862,-44.6602 326.942,-31.5474"/>
<polygon fill="midnightblue" stroke="midnightblue" points="329.06,-34.3349 335.1,-25.6305 324.95,-28.6684 329.06,-34.3349"/>
</g>
</g>
</svg>
