<?xml version="1.0" encoding="UTF-8" standalone="no"?>
<!DOCTYPE svg PUBLIC "-//W3C//DTD SVG 1.1//EN"
 "http://www.w3.org/Graphics/SVG/1.1/DTD/svg11.dtd">
<!-- Generated by graphviz version 2.36.0 (20140111.2315)
 -->
<!-- Title: /home/travis/build/AliceO2Group/AliceO2/Detectors/TOF/simulation/include/TOFSimulation/Detector.h Pages: 1 -->
<!--zoomable 322 -->
<svg id="main" version="1.1" xmlns="http://www.w3.org/2000/svg" xmlns:xlink="http://www.w3.org/1999/xlink" xml:space="preserve" onload="init(evt)">
<style type="text/css"><![CDATA[
.edge:hover path { stroke: red; }
.edge:hover polygon { stroke: red; fill: red; }
]]></style>
<script type="text/javascript"><![CDATA[
var edges = document.getElementsByTagName('g');
if (edges && edges.length) {
  for (var i=0;i<edges.length;i++) {
    if (edges[i].id.substr(0,4)=='edge') {
      edges[i].setAttribute('class','edge');
    }
  }
}
]]></script>
        <defs>
                <circle id="rim" cx="0" cy="0" r="7"/>
                <circle id="rim2" cx="0" cy="0" r="3.5"/>
                <g id="zoomPlus">
                        <use xlink:href="#rim" fill="#404040">
                                <set attributeName="fill" to="#808080" begin="zoomplus.mouseover" end="zoomplus.mouseout"/>
                        </use>
                        <path d="M-4,0h8M0,-4v8" fill="none" stroke="white" stroke-width="1.5" pointer-events="none"/>
                </g>
                <g id="zoomMin">
                        <use xlink:href="#rim" fill="#404040">
                                <set attributeName="fill" to="#808080" begin="zoomminus.mouseover" end="zoomminus.mouseout"/>
                        </use>
                        <path d="M-4,0h8" fill="none" stroke="white" stroke-width="1.5" pointer-events="none"/>
                </g>
                <g id="dirArrow">
                        <path fill="none" stroke="white" stroke-width="1.5" d="M0,-3.0v7 M-2.5,-0.5L0,-3.0L2.5,-0.5"/>
                </g>
               <g id="resetDef">
                       <use xlink:href="#rim2" fill="#404040">
                               <set attributeName="fill" to="#808080" begin="reset.mouseover" end="reset.mouseout"/>
                       </use>
               </g>
        </defs>

<script type="text/javascript">
var viewWidth = 1850;
var viewHeight = 322;
var sectionId = 'dynsection-0';
</script>
<script xlink:href="../../svgpan.js"/>
<svg id="graph" class="graph">
<g id="viewport">
<title>/home/travis/build/AliceO2Group/AliceO2/Detectors/TOF/simulation/include/TOFSimulation/Detector.h</title>
<!-- Node1 -->
<g id="node1" class="node"><title>Node1</title>
<polygon fill="#bfbfbf" stroke="black" points="797.798,-261 797.798,-313 964.798,-313 964.798,-261 797.798,-261"/>
<text text-anchor="start" x="805.798" y="-301" font-family="Helvetica,sans-Serif" font-size="10.00">/home/travis/build</text>
<text text-anchor="start" x="805.798" y="-290" font-family="Helvetica,sans-Serif" font-size="10.00">/AliceO2Group/AliceO2</text>
<text text-anchor="start" x="805.798" y="-279" font-family="Helvetica,sans-Serif" font-size="10.00">/Detectors/TOF/simulation</text>
<text text-anchor="middle" x="881.298" y="-268" font-family="Helvetica,sans-Serif" font-size="10.00">/include/TOFSimulation/Detector.h</text>
</g>
<!-- Node2 -->
<g id="node2" class="node"><title>Node2</title>
<g id="a_node2"><a xlink:href="../../d1/d3a/Base_2include_2DetectorsBase_2Detector_8h.html" target="_top" xlink:title="DetectorsBase/Detector.h">
<polygon fill="none" stroke="black" points="440.798,-198.5 440.798,-217.5 571.798,-217.5 571.798,-198.5 440.798,-198.5"/>
<text text-anchor="middle" x="506.298" y="-205.5" font-family="Helvetica,sans-Serif" font-size="10.00">DetectorsBase/Detector.h</text>
</a>
</g>
</g>
<!-- Node1&#45;&gt;Node2 -->
<g id="edge1" class="edge"><title>Node1&#45;&gt;Node2</title>
<path fill="none" stroke="midnightblue" d="M797.607,-268.816C724.097,-253.722 619.502,-232.245 557.692,-219.553"/>
<polygon fill="midnightblue" stroke="midnightblue" points="558.28,-216.101 547.78,-217.518 556.872,-222.958 558.28,-216.101"/>
</g>
<!-- Node14 -->
<g id="node14" class="node"><title>Node14</title>
<g id="a_node14"><a xlink:href="../../d4/d54/Geo_8h.html" target="_top" xlink:title="TOFBase/Geo.h">
<polygon fill="none" stroke="black" points="837.298,-198.5 837.298,-217.5 925.298,-217.5 925.298,-198.5 837.298,-198.5"/>
<text text-anchor="middle" x="881.298" y="-205.5" font-family="Helvetica,sans-Serif" font-size="10.00">TOFBase/Geo.h</text>
</a>
</g>
</g>
<!-- Node1&#45;&gt;Node14 -->
<g id="edge15" class="edge"><title>Node1&#45;&gt;Node14</title>
<path fill="none" stroke="midnightblue" d="M881.298,-260.787C881.298,-250.069 881.298,-237.785 881.298,-227.871"/>
<polygon fill="midnightblue" stroke="midnightblue" points="884.798,-227.558 881.298,-217.558 877.798,-227.558 884.798,-227.558"/>
</g>
<!-- Node15 -->
<g id="node15" class="node"><title>Node15</title>
<g id="a_node15"><a xlink:href="../../d4/d25/BaseHits_8h.html" target="_top" xlink:title="SimulationDataFormat\l/BaseHits.h">
<polygon fill="none" stroke="black" points="996.298,-193 996.298,-223 1110.3,-223 1110.3,-193 996.298,-193"/>
<text text-anchor="start" x="1004.3" y="-211" font-family="Helvetica,sans-Serif" font-size="10.00">SimulationDataFormat</text>
<text text-anchor="middle" x="1053.3" y="-200" font-family="Helvetica,sans-Serif" font-size="10.00">/BaseHits.h</text>
</a>
</g>
</g>
<!-- Node1&#45;&gt;Node15 -->
<g id="edge17" class="edge"><title>Node1&#45;&gt;Node15</title>
<path fill="none" stroke="midnightblue" d="M937.617,-260.787C962.135,-249.811 990.321,-237.193 1012.73,-227.16"/>
<polygon fill="midnightblue" stroke="midnightblue" points="1014.26,-230.311 1021.96,-223.031 1011.4,-223.922 1014.26,-230.311"/>
</g>
<!-- Node3 -->
<g id="node3" class="node"><title>Node3</title>
<polygon fill="none" stroke="#bfbfbf" points="227.798,-74.5 227.798,-93.5 262.798,-93.5 262.798,-74.5 227.798,-74.5"/>
<text text-anchor="middle" x="245.298" y="-81.5" font-family="Helvetica,sans-Serif" font-size="10.00">map</text>
</g>
<!-- Node2&#45;&gt;Node3 -->
<g id="edge2" class="edge"><title>Node2&#45;&gt;Node3</title>
<path fill="none" stroke="midnightblue" d="M440.675,-205.037C312.649,-200.527 39.5473,-187.31 11.2978,-156 -47.8084,-90.4912 143.281,-84.5528 217.284,-84.6373"/>
<polygon fill="midnightblue" stroke="midnightblue" points="217.688,-88.1393 227.705,-84.6907 217.723,-81.1394 217.688,-88.1393"/>
</g>
<!-- Node4 -->
<g id="node4" class="node"><title>Node4</title>
<polygon fill="none" stroke="#bfbfbf" points="20.2978,-136.5 20.2978,-155.5 64.2978,-155.5 64.2978,-136.5 20.2978,-136.5"/>
<text text-anchor="middle" x="42.2978" y="-143.5" font-family="Helvetica,sans-Serif" font-size="10.00">vector</text>
</g>
<!-- Node2&#45;&gt;Node4 -->
<g id="edge3" class="edge"><title>Node2&#45;&gt;Node4</title>
<path fill="none" stroke="midnightblue" d="M440.476,-202.649C357.228,-196.39 209.447,-182.764 74.6347,-155.971"/>
<polygon fill="midnightblue" stroke="midnightblue" points="75.0338,-152.481 64.5392,-153.934 73.6497,-159.343 75.0338,-152.481"/>
</g>
<!-- Node5 -->
<g id="node5" class="node"><title>Node5</title>
<polygon fill="none" stroke="#bfbfbf" points="82.2978,-136.5 82.2978,-155.5 134.298,-155.5 134.298,-136.5 82.2978,-136.5"/>
<text text-anchor="middle" x="108.298" y="-143.5" font-family="Helvetica,sans-Serif" font-size="10.00">memory</text>
</g>
<!-- Node2&#45;&gt;Node5 -->
<g id="edge4" class="edge"><title>Node2&#45;&gt;Node5</title>
<path fill="none" stroke="midnightblue" d="M440.68,-200.024C369.829,-191.987 253.519,-177.334 144.453,-156.046"/>
<polygon fill="midnightblue" stroke="midnightblue" points="145.087,-152.604 134.599,-154.1 143.731,-159.471 145.087,-152.604"/>
</g>
<!-- Node6 -->
<g id="node6" class="node"><title>Node6</title>
<polygon fill="none" stroke="#bfbfbf" points="152.798,-136.5 152.798,-155.5 231.798,-155.5 231.798,-136.5 152.798,-136.5"/>
<text text-anchor="middle" x="192.298" y="-143.5" font-family="Helvetica,sans-Serif" font-size="10.00">FairDetector.h</text>
</g>
<!-- Node2&#45;&gt;Node6 -->
<g id="edge5" class="edge"><title>Node2&#45;&gt;Node6</title>
<path fill="none" stroke="midnightblue" d="M461.643,-198.467C403.542,-187.365 302.336,-168.026 241.901,-156.478"/>
<polygon fill="midnightblue" stroke="midnightblue" points="242.317,-152.995 231.838,-154.555 241.003,-159.87 242.317,-152.995"/>
</g>
<!-- Node7 -->
<g id="node7" class="node"><title>Node7</title>
<polygon fill="none" stroke="#bfbfbf" points="250.298,-136.5 250.298,-155.5 350.298,-155.5 350.298,-136.5 250.298,-136.5"/>
<text text-anchor="middle" x="300.298" y="-143.5" font-family="Helvetica,sans-Serif" font-size="10.00">FairRootManager.h</text>
</g>
<!-- Node2&#45;&gt;Node7 -->
<g id="edge6" class="edge"><title>Node2&#45;&gt;Node7</title>
<path fill="none" stroke="midnightblue" d="M476.783,-198.403C440.682,-187.889 379.45,-170.054 339.443,-158.402"/>
<polygon fill="midnightblue" stroke="midnightblue" points="340.338,-155.017 329.758,-155.581 338.38,-161.737 340.338,-155.017"/>
</g>
<!-- Node8 -->
<g id="node8" class="node"><title>Node8</title>
<g id="a_node8"><a xlink:href="../../d0/d9a/MaterialManager_8h.html" target="_top" xlink:title="DetectorsBase/MaterialManager.h">
<polygon fill="none" stroke="black" points="368.798,-136.5 368.798,-155.5 533.798,-155.5 533.798,-136.5 368.798,-136.5"/>
<text text-anchor="middle" x="451.298" y="-143.5" font-family="Helvetica,sans-Serif" font-size="10.00">DetectorsBase/MaterialManager.h</text>
</a>
</g>
</g>
<!-- Node2&#45;&gt;Node8 -->
<g id="edge7" class="edge"><title>Node2&#45;&gt;Node8</title>
<path fill="none" stroke="midnightblue" d="M498.418,-198.403C490.004,-189.225 476.478,-174.47 466.072,-163.117"/>
<polygon fill="midnightblue" stroke="midnightblue" points="468.501,-160.587 459.163,-155.581 463.341,-165.317 468.501,-160.587"/>
</g>
<!-- Node9 -->
<g id="node9" class="node"><title>Node9</title>
<polygon fill="none" stroke="#bfbfbf" points="478.298,-74.5 478.298,-93.5 534.298,-93.5 534.298,-74.5 478.298,-74.5"/>
<text text-anchor="middle" x="506.298" y="-81.5" font-family="Helvetica,sans-Serif" font-size="10.00">Rtypes.h</text>
</g>
<!-- Node2&#45;&gt;Node9 -->
<g id="edge10" class="edge"><title>Node2&#45;&gt;Node9</title>
<path fill="none" stroke="midnightblue" d="M515.922,-198.212C528.968,-185.18 549.823,-159.711 542.298,-136 538.231,-123.188 529.655,-110.819 521.893,-101.471"/>
<polygon fill="midnightblue" stroke="midnightblue" points="524.382,-99.0017 515.146,-93.81 519.128,-103.628 524.382,-99.0017"/>
</g>
<!-- Node10 -->
<g id="node10" class="node"><title>Node10</title>
<polygon fill="none" stroke="#bfbfbf" points="590.798,-136.5 590.798,-155.5 643.798,-155.5 643.798,-136.5 590.798,-136.5"/>
<text text-anchor="middle" x="617.298" y="-143.5" font-family="Helvetica,sans-Serif" font-size="10.00">cxxabi.h</text>
</g>
<!-- Node2&#45;&gt;Node10 -->
<g id="edge11" class="edge"><title>Node2&#45;&gt;Node10</title>
<path fill="none" stroke="midnightblue" d="M522.201,-198.403C540.582,-188.468 571.054,-171.997 592.542,-160.381"/>
<polygon fill="midnightblue" stroke="midnightblue" points="594.291,-163.415 601.424,-155.581 590.962,-157.257 594.291,-163.415"/>
</g>
<!-- Node11 -->
<g id="node11" class="node"><title>Node11</title>
<polygon fill="none" stroke="#bfbfbf" points="661.798,-136.5 661.798,-155.5 712.798,-155.5 712.798,-136.5 661.798,-136.5"/>
<text text-anchor="middle" x="687.298" y="-143.5" font-family="Helvetica,sans-Serif" font-size="10.00">typeinfo</text>
</g>
<!-- Node2&#45;&gt;Node11 -->
<g id="edge12" class="edge"><title>Node2&#45;&gt;Node11</title>
<path fill="none" stroke="midnightblue" d="M532.231,-198.403C563.636,-187.993 616.688,-170.407 651.853,-158.75"/>
<polygon fill="midnightblue" stroke="midnightblue" points="653.315,-161.952 661.705,-155.484 651.112,-155.308 653.315,-161.952"/>
</g>
<!-- Node12 -->
<g id="node12" class="node"><title>Node12</title>
<polygon fill="none" stroke="#bfbfbf" points="731.298,-136.5 731.298,-155.5 793.298,-155.5 793.298,-136.5 731.298,-136.5"/>
<text text-anchor="middle" x="762.298" y="-143.5" font-family="Helvetica,sans-Serif" font-size="10.00">type_traits</text>
</g>
<!-- Node2&#45;&gt;Node12 -->
<g id="edge13" class="edge"><title>Node2&#45;&gt;Node12</title>
<path fill="none" stroke="midnightblue" d="M542.704,-198.467C589.872,-187.412 671.887,-168.19 721.229,-156.625"/>
<polygon fill="midnightblue" stroke="midnightblue" points="722.3,-159.969 731.238,-154.28 720.703,-153.154 722.3,-159.969"/>
</g>
<!-- Node13 -->
<g id="node13" class="node"><title>Node13</title>
<polygon fill="none" stroke="#bfbfbf" points="811.798,-136.5 811.798,-155.5 852.798,-155.5 852.798,-136.5 811.798,-136.5"/>
<text text-anchor="middle" x="832.298" y="-143.5" font-family="Helvetica,sans-Serif" font-size="10.00">string</text>
</g>
<!-- Node2&#45;&gt;Node13 -->
<g id="edge14" class="edge"><title>Node2&#45;&gt;Node13</title>
<path fill="none" stroke="midnightblue" d="M567.429,-198.463C627.368,-189.617 721.155,-174.501 801.298,-156 801.509,-155.951 801.722,-155.902 801.935,-155.852"/>
<polygon fill="midnightblue" stroke="midnightblue" points="802.899,-159.217 811.705,-153.326 801.147,-152.44 802.899,-159.217"/>
</g>
<!-- Node8&#45;&gt;Node3 -->
<g id="edge9" class="edge"><title>Node8&#45;&gt;Node3</title>
<path fill="none" stroke="midnightblue" d="M421.783,-136.403C382.022,-124.823 311.776,-104.362 272.978,-93.0623"/>
<polygon fill="midnightblue" stroke="midnightblue" points="273.501,-89.5691 262.921,-90.133 271.543,-96.2898 273.501,-89.5691"/>
</g>
<!-- Node8&#45;&gt;Node9 -->
<g id="edge8" class="edge"><title>Node8&#45;&gt;Node9</title>
<path fill="none" stroke="midnightblue" d="M459.178,-136.403C467.591,-127.225 481.117,-112.47 491.524,-101.117"/>
<polygon fill="midnightblue" stroke="midnightblue" points="494.255,-103.317 498.432,-93.5806 489.095,-98.5871 494.255,-103.317"/>
</g>
<!-- Node14&#45;&gt;Node9 -->
<g id="edge16" class="edge"><title>Node14&#45;&gt;Node9</title>
<path fill="none" stroke="midnightblue" d="M881.692,-198.418C881.874,-183.235 879.837,-151.758 861.298,-136 807.109,-89.9416 612.224,-117.522 543.298,-100 540.304,-99.239 537.232,-98.2884 534.198,-97.2373"/>
<polygon fill="midnightblue" stroke="midnightblue" points="535.378,-93.9414 524.787,-93.6463 532.883,-100.481 535.378,-93.9414"/>
</g>
<!-- Node16 -->
<g id="node16" class="node"><title>Node16</title>
<g id="a_node16"><a xlink:href="../../dd/d76/Cartesian3D_8h.html" target="_top" xlink:title="MathUtils/Cartesian3D.h">
<polygon fill="none" stroke="black" points="1072.8,-136.5 1072.8,-155.5 1197.8,-155.5 1197.8,-136.5 1072.8,-136.5"/>
<text text-anchor="middle" x="1135.3" y="-143.5" font-family="Helvetica,sans-Serif" font-size="10.00">MathUtils/Cartesian3D.h</text>
</a>
</g>
</g>
<!-- Node15&#45;&gt;Node16 -->
<g id="edge18" class="edge"><title>Node15&#45;&gt;Node16</title>
<path fill="none" stroke="midnightblue" d="M1072.73,-192.781C1085.51,-183.433 1102.19,-171.227 1115.11,-161.77"/>
<polygon fill="midnightblue" stroke="midnightblue" points="1117.36,-164.46 1123.37,-155.731 1113.23,-158.811 1117.36,-164.46"/>
</g>
<!-- Node16&#45;&gt;Node9 -->
<g id="edge24" class="edge"><title>Node16&#45;&gt;Node9</title>
<path fill="none" stroke="midnightblue" d="M1072.71,-142.687C941.694,-137.448 642.517,-123.285 543.298,-100 540.225,-99.2789 537.075,-98.3399 533.973,-97.2832"/>
<polygon fill="midnightblue" stroke="midnightblue" points="534.966,-93.9164 524.375,-93.6296 532.476,-100.458 534.966,-93.9164"/>
</g>
<!-- Node17 -->
<g id="node17" class="node"><title>Node17</title>
<polygon fill="none" stroke="#bfbfbf" points="552.798,-69 552.798,-99 703.798,-99 703.798,-69 552.798,-69"/>
<text text-anchor="start" x="560.798" y="-87" font-family="Helvetica,sans-Serif" font-size="10.00">Math/GenVector/Displacement</text>
<text text-anchor="middle" x="628.298" y="-76" font-family="Helvetica,sans-Serif" font-size="10.00">Vector3D.h</text>
</g>
<!-- Node16&#45;&gt;Node17 -->
<g id="edge19" class="edge"><title>Node16&#45;&gt;Node17</title>
<path fill="none" stroke="midnightblue" d="M1072.57,-139.663C992.017,-132.507 847.683,-118.67 713.827,-100.01"/>
<polygon fill="midnightblue" stroke="midnightblue" points="714.189,-96.5265 703.799,-98.6001 713.214,-103.458 714.189,-96.5265"/>
</g>
<!-- Node18 -->
<g id="node18" class="node"><title>Node18</title>
<polygon fill="none" stroke="#bfbfbf" points="722.298,-74.5 722.298,-93.5 898.298,-93.5 898.298,-74.5 722.298,-74.5"/>
<text text-anchor="middle" x="810.298" y="-81.5" font-family="Helvetica,sans-Serif" font-size="10.00">Math/GenVector/PositionVector3D.h</text>
</g>
<!-- Node16&#45;&gt;Node18 -->
<g id="edge20" class="edge"><title>Node16&#45;&gt;Node18</title>
<path fill="none" stroke="midnightblue" d="M1089.08,-136.467C1030.48,-125.649 929.512,-107.009 866.512,-95.3781"/>
<polygon fill="midnightblue" stroke="midnightblue" points="866.827,-91.8771 856.358,-93.5034 865.556,-98.7608 866.827,-91.8771"/>
</g>
<!-- Node19 -->
<g id="node19" class="node"><title>Node19</title>
<polygon fill="none" stroke="#bfbfbf" points="915.798,-74.5 915.798,-93.5 1064.8,-93.5 1064.8,-74.5 915.798,-74.5"/>
<text text-anchor="middle" x="990.298" y="-81.5" font-family="Helvetica,sans-Serif" font-size="10.00">Math/GenVector/Rotation3D.h</text>
</g>
<!-- Node16&#45;&gt;Node19 -->
<g id="edge21" class="edge"><title>Node16&#45;&gt;Node19</title>
<path fill="none" stroke="midnightblue" d="M1114.52,-136.403C1089.87,-126.2 1048.55,-109.105 1020.4,-97.4544"/>
<polygon fill="midnightblue" stroke="midnightblue" points="1021.61,-94.1701 1011.03,-93.5806 1018.94,-100.638 1021.61,-94.1701"/>
</g>
<!-- Node20 -->
<g id="node20" class="node"><title>Node20</title>
<polygon fill="none" stroke="#bfbfbf" points="1083.3,-74.5 1083.3,-93.5 1239.3,-93.5 1239.3,-74.5 1083.3,-74.5"/>
<text text-anchor="middle" x="1161.3" y="-81.5" font-family="Helvetica,sans-Serif" font-size="10.00">Math/GenVector/Transform3D.h</text>
</g>
<!-- Node16&#45;&gt;Node20 -->
<g id="edge22" class="edge"><title>Node16&#45;&gt;Node20</title>
<path fill="none" stroke="midnightblue" d="M1139.02,-136.403C1142.81,-127.671 1148.78,-113.889 1153.59,-102.794"/>
<polygon fill="midnightblue" stroke="midnightblue" points="1156.81,-104.148 1157.58,-93.5806 1150.39,-101.365 1156.81,-104.148"/>
</g>
<!-- Node21 -->
<g id="node21" class="node"><title>Node21</title>
<polygon fill="none" stroke="#bfbfbf" points="1257.3,-74.5 1257.3,-93.5 1417.3,-93.5 1417.3,-74.5 1257.3,-74.5"/>
<text text-anchor="middle" x="1337.3" y="-81.5" font-family="Helvetica,sans-Serif" font-size="10.00">Math/GenVector/Translation3D.h</text>
</g>
<!-- Node16&#45;&gt;Node21 -->
<g id="edge23" class="edge"><title>Node16&#45;&gt;Node21</title>
<path fill="none" stroke="midnightblue" d="M1164.24,-136.403C1199.56,-125.911 1259.43,-108.129 1298.66,-96.4758"/>
<polygon fill="midnightblue" stroke="midnightblue" points="1299.82,-99.7831 1308.41,-93.5806 1297.83,-93.0729 1299.82,-99.7831"/>
</g>
<!-- Node22 -->
<g id="node22" class="node"><title>Node22</title>
<polygon fill="none" stroke="#bfbfbf" points="1435.3,-74.5 1435.3,-93.5 1511.3,-93.5 1511.3,-74.5 1435.3,-74.5"/>
<text text-anchor="middle" x="1473.3" y="-81.5" font-family="Helvetica,sans-Serif" font-size="10.00">TGeoMatrix.h</text>
</g>
<!-- Node16&#45;&gt;Node22 -->
<g id="edge25" class="edge"><title>Node16&#45;&gt;Node22</title>
<path fill="none" stroke="midnightblue" d="M1198,-138.164C1257.3,-131.026 1348.55,-118.302 1426.3,-100 1430.52,-99.0065 1434.91,-97.8193 1439.23,-96.5539"/>
<polygon fill="midnightblue" stroke="midnightblue" points="1440.58,-99.8022 1449.11,-93.5138 1438.52,-93.1123 1440.58,-99.8022"/>
</g>
<!-- Node23 -->
<g id="node23" class="node"><title>Node23</title>
<polygon fill="none" stroke="#bfbfbf" points="1529.3,-74.5 1529.3,-93.5 1583.3,-93.5 1583.3,-74.5 1529.3,-74.5"/>
<text text-anchor="middle" x="1556.3" y="-81.5" font-family="Helvetica,sans-Serif" font-size="10.00">iostream</text>
</g>
<!-- Node16&#45;&gt;Node23 -->
<g id="edge26" class="edge"><title>Node16&#45;&gt;Node23</title>
<path fill="none" stroke="midnightblue" d="M1197.96,-143.017C1274.98,-139.366 1409.12,-129.048 1520.3,-100 1523.12,-99.2618 1526.02,-98.3467 1528.88,-97.3352"/>
<polygon fill="midnightblue" stroke="midnightblue" points="1530.29,-100.543 1538.32,-93.6418 1527.74,-94.0238 1530.29,-100.543"/>
</g>
<!-- Node24 -->
<g id="node24" class="node"><title>Node24</title>
<g id="a_node24"><a xlink:href="../../d2/dd0/Cartesian2D_8h.html" target="_top" xlink:title="MathUtils/Cartesian2D.h">
<polygon fill="none" stroke="black" points="1601.8,-74.5 1601.8,-93.5 1726.8,-93.5 1726.8,-74.5 1601.8,-74.5"/>
<text text-anchor="middle" x="1664.3" y="-81.5" font-family="Helvetica,sans-Serif" font-size="10.00">MathUtils/Cartesian2D.h</text>
</a>
</g>
</g>
<!-- Node16&#45;&gt;Node24 -->
<g id="edge27" class="edge"><title>Node16&#45;&gt;Node24</title>
<path fill="none" stroke="midnightblue" d="M1198.03,-140.962C1286.34,-134.792 1452.22,-121.425 1592.3,-100 1600.37,-98.7648 1608.91,-97.21 1617.17,-95.5725"/>
<polygon fill="midnightblue" stroke="midnightblue" points="1617.97,-98.9821 1627.07,-93.5501 1616.57,-92.1239 1617.97,-98.9821"/>
</g>
<!-- Node25 -->
<g id="node25" class="node"><title>Node25</title>
<polygon fill="none" stroke="#bfbfbf" points="1497.8,-1 1497.8,-31 1648.8,-31 1648.8,-1 1497.8,-1"/>
<text text-anchor="start" x="1505.8" y="-19" font-family="Helvetica,sans-Serif" font-size="10.00">Math/GenVector/Displacement</text>
<text text-anchor="middle" x="1573.3" y="-8" font-family="Helvetica,sans-Serif" font-size="10.00">Vector2D.h</text>
</g>
<!-- Node24&#45;&gt;Node25 -->
<g id="edge28" class="edge"><title>Node24&#45;&gt;Node25</title>
<path fill="none" stroke="midnightblue" d="M1652.4,-74.3717C1639.52,-65.0286 1618.52,-49.7966 1601.39,-37.375"/>
<polygon fill="midnightblue" stroke="midnightblue" points="1603,-34.2194 1592.85,-31.1815 1598.89,-39.8859 1603,-34.2194"/>
</g>
<!-- Node26 -->
<g id="node26" class="node"><title>Node26</title>
<polygon fill="none" stroke="#bfbfbf" points="1667.3,-6.5 1667.3,-25.5 1843.3,-25.5 1843.3,-6.5 1667.3,-6.5"/>
<text text-anchor="middle" x="1755.3" y="-13.5" font-family="Helvetica,sans-Serif" font-size="10.00">Math/GenVector/PositionVector2D.h</text>
</g>
<!-- Node24&#45;&gt;Node26 -->
<g id="edge29" class="edge"><title>Node24&#45;&gt;Node26</title>
<path fill="none" stroke="midnightblue" d="M1676.19,-74.3717C1691.18,-63.5015 1717.16,-44.6602 1735.24,-31.5474"/>
<polygon fill="midnightblue" stroke="midnightblue" points="1737.36,-34.3349 1743.4,-25.6305 1733.25,-28.6684 1737.36,-34.3349"/>
</g>
</g>
</svg>
        <g id="navigator" transform="translate(0 0)" fill="#404254">
                <rect fill="#f2f5e9" fill-opacity="0.5" stroke="#606060" stroke-width=".5" x="0" y="0" width="60" height="60"/>
                <use id="zoomplus" xlink:href="#zoomPlus" x="17" y="9" onmousedown="handleZoom(evt,'in')"/>
                <use id="zoomminus" xlink:href="#zoomMin" x="42" y="9" onmousedown="handleZoom(evt,'out')"/>
                <use id="reset" xlink:href="#resetDef" x="30" y="36" onmousedown="handleReset()"/>
                <g id="arrowUp" xlink:href="#dirArrow" transform="translate(30 24)" onmousedown="handlePan(0,-1)">
                  <use xlink:href="#rim" fill="#404040">
                        <set attributeName="fill" to="#808080" begin="arrowUp.mouseover" end="arrowUp.mouseout"/>
                  </use>
                  <path fill="none" stroke="white" stroke-width="1.5" d="M0,-3.0v7 M-2.5,-0.5L0,-3.0L2.5,-0.5"/>
                </g>
                <g id="arrowRight" xlink:href="#dirArrow" transform="rotate(90) translate(36 -43)" onmousedown="handlePan(1,0)">
                  <use xlink:href="#rim" fill="#404040">
                        <set attributeName="fill" to="#808080" begin="arrowRight.mouseover" end="arrowRight.mouseout"/>
                  </use>
                  <path fill="none" stroke="white" stroke-width="1.5" d="M0,-3.0v7 M-2.5,-0.5L0,-3.0L2.5,-0.5"/>
                </g>
                <g id="arrowDown" xlink:href="#dirArrow" transform="rotate(180) translate(-30 -48)" onmousedown="handlePan(0,1)">
                  <use xlink:href="#rim" fill="#404040">
                        <set attributeName="fill" to="#808080" begin="arrowDown.mouseover" end="arrowDown.mouseout"/>
                  </use>
                  <path fill="none" stroke="white" stroke-width="1.5" d="M0,-3.0v7 M-2.5,-0.5L0,-3.0L2.5,-0.5"/>
                </g>
                <g id="arrowLeft" xlink:href="#dirArrow" transform="rotate(270) translate(-36 17)" onmousedown="handlePan(-1,0)">
                  <use xlink:href="#rim" fill="#404040">
                        <set attributeName="fill" to="#808080" begin="arrowLeft.mouseover" end="arrowLeft.mouseout"/>
                  </use>
                  <path fill="none" stroke="white" stroke-width="1.5" d="M0,-3.0v7 M-2.5,-0.5L0,-3.0L2.5,-0.5"/>
                </g>
        </g>
        <svg viewBox="0 0 15 15" width="100%" height="30px" preserveAspectRatio="xMaxYMin meet">
         <g id="arrow_out" transform="scale(0.3 0.3)">
          <a xlink:href="TOF_2simulation_2include_2TOFSimulation_2Detector_8h__incl_org.svg" target="_base">
           <rect id="button" ry="5" rx="5" y="6" x="6" height="38" width="38"
                fill="#f2f5e9" fill-opacity="0.5" stroke="#606060" stroke-width="1.0"/>
           <path id="arrow"
             d="M 11.500037,31.436501 C 11.940474,20.09759 22.043105,11.32322 32.158766,21.979434 L 37.068811,17.246167 C 37.068811,17.246167 37.088388,32 37.088388,32 L 22.160133,31.978069 C 22.160133,31.978069 26.997745,27.140456 26.997745,27.140456 C 18.528582,18.264221 13.291696,25.230495 11.500037,31.436501 z"
             style="fill:#404040;"/>
          </a>
         </g>
        </svg>
</svg>
