<?xml version="1.0" encoding="UTF-8" standalone="no"?>
<!DOCTYPE svg PUBLIC "-//W3C//DTD SVG 1.1//EN"
 "http://www.w3.org/Graphics/SVG/1.1/DTD/svg11.dtd">
<!-- Generated by graphviz version 2.36.0 (20140111.2315)
 -->
<!-- Title: TMessage Pages: 1 -->
<svg width="424pt" height="194pt"
 viewBox="0.00 0.00 424.00 194.00" xmlns="http://www.w3.org/2000/svg" xmlns:xlink="http://www.w3.org/1999/xlink">
<g id="graph0" class="graph" transform="scale(1 1) rotate(0) translate(4 190)">
<title>TMessage</title>
<!-- Node1 -->
<g id="node1" class="node"><title>Node1</title>
<polygon fill="#bfbfbf" stroke="black" points="200,-128.5 200,-185.5 262,-185.5 262,-128.5 200,-128.5"/>
<text text-anchor="middle" x="231" y="-173.5" font-family="Helvetica,sans-Serif" font-size="10.00">TMessage</text>
<polyline fill="none" stroke="black" points="200,-166.5 262,-166.5 "/>
<text text-anchor="middle" x="231" y="-154.5" font-family="Helvetica,sans-Serif" font-size="10.00"> </text>
<polyline fill="none" stroke="black" points="200,-147.5 262,-147.5 "/>
<text text-anchor="middle" x="231" y="-135.5" font-family="Helvetica,sans-Serif" font-size="10.00"> </text>
</g>
<!-- Node2 -->
<g id="node2" class="node"><title>Node2</title>
<g id="a_node2"><a xlink:href="../../d0/d4b/classo2_1_1framework_1_1FairTMessage.html" target="_top" xlink:title="{o2::framework::FairTMessage\n||+ FairTMessage()\l+ FairTMessage()\l+ FairTMessage()\l+ free()\l}">
<polygon fill="none" stroke="black" points="-0.5,-1 -0.5,-91 146.5,-91 146.5,-1 -0.5,-1"/>
<text text-anchor="middle" x="73" y="-79" font-family="Helvetica,sans-Serif" font-size="10.00">o2::framework::FairTMessage</text>
<polyline fill="none" stroke="black" points="-0.5,-72 146.5,-72 "/>
<text text-anchor="middle" x="73" y="-60" font-family="Helvetica,sans-Serif" font-size="10.00"> </text>
<polyline fill="none" stroke="black" points="-0.5,-53 146.5,-53 "/>
<text text-anchor="start" x="7.5" y="-41" font-family="Helvetica,sans-Serif" font-size="10.00">+ FairTMessage()</text>
<text text-anchor="start" x="7.5" y="-30" font-family="Helvetica,sans-Serif" font-size="10.00">+ FairTMessage()</text>
<text text-anchor="start" x="7.5" y="-19" font-family="Helvetica,sans-Serif" font-size="10.00">+ FairTMessage()</text>
<text text-anchor="start" x="7.5" y="-8" font-family="Helvetica,sans-Serif" font-size="10.00">+ free()</text>
</a>
</g>
</g>
<!-- Node1&#45;&gt;Node2 -->
<g id="edge1" class="edge"><title>Node1&#45;&gt;Node2</title>
<path fill="none" stroke="midnightblue" d="M191.447,-128.714C174.921,-117.313 155.297,-103.775 136.823,-91.0301"/>
<polygon fill="none" stroke="midnightblue" points="189.565,-131.667 199.784,-134.465 193.54,-125.906 189.565,-131.667"/>
</g>
<!-- Node3 -->
<g id="node3" class="node"><title>Node3</title>
<g id="a_node3"><a xlink:href="../../d3/d37/classo2_1_1qc_1_1TMessageWrapper.html" target="_top" xlink:title="{o2::qc::TMessageWrapper\n||+ TMessageWrapper()\l+ ~TMessageWrapper()\l}">
<polygon fill="none" stroke="black" points="165,-12 165,-80 297,-80 297,-12 165,-12"/>
<text text-anchor="middle" x="231" y="-68" font-family="Helvetica,sans-Serif" font-size="10.00">o2::qc::TMessageWrapper</text>
<polyline fill="none" stroke="black" points="165,-61 297,-61 "/>
<text text-anchor="middle" x="231" y="-49" font-family="Helvetica,sans-Serif" font-size="10.00"> </text>
<polyline fill="none" stroke="black" points="165,-42 297,-42 "/>
<text text-anchor="start" x="173" y="-30" font-family="Helvetica,sans-Serif" font-size="10.00">+ TMessageWrapper()</text>
<text text-anchor="start" x="173" y="-19" font-family="Helvetica,sans-Serif" font-size="10.00">+ ~TMessageWrapper()</text>
</a>
</g>
</g>
<!-- Node1&#45;&gt;Node3 -->
<g id="edge2" class="edge"><title>Node1&#45;&gt;Node3</title>
<path fill="none" stroke="midnightblue" d="M231,-118.459C231,-106.071 231,-92.3844 231,-80.333"/>
<polygon fill="none" stroke="midnightblue" points="227.5,-118.495 231,-128.495 234.5,-118.495 227.5,-118.495"/>
</g>
<!-- Node4 -->
<g id="node4" class="node"><title>Node4</title>
<g id="a_node4"><a xlink:href="../../de/dd8/classWrapTMessage.html" target="_top" xlink:title="{WrapTMessage\n||+ WrapTMessage()\l}">
<polygon fill="none" stroke="black" points="315.5,-17.5 315.5,-74.5 416.5,-74.5 416.5,-17.5 315.5,-17.5"/>
<text text-anchor="middle" x="366" y="-62.5" font-family="Helvetica,sans-Serif" font-size="10.00">WrapTMessage</text>
<polyline fill="none" stroke="black" points="315.5,-55.5 416.5,-55.5 "/>
<text text-anchor="middle" x="366" y="-43.5" font-family="Helvetica,sans-Serif" font-size="10.00"> </text>
<polyline fill="none" stroke="black" points="315.5,-36.5 416.5,-36.5 "/>
<text text-anchor="start" x="323.5" y="-24.5" font-family="Helvetica,sans-Serif" font-size="10.00">+ WrapTMessage()</text>
</a>
</g>
</g>
<!-- Node1&#45;&gt;Node4 -->
<g id="edge3" class="edge"><title>Node1&#45;&gt;Node4</title>
<path fill="none" stroke="midnightblue" d="M270.1,-124.43C289.527,-108.745 312.791,-89.9613 331.541,-74.8226"/>
<polygon fill="none" stroke="midnightblue" points="267.893,-121.714 262.311,-130.719 272.29,-127.16 267.893,-121.714"/>
</g>
</g>
</svg>
