<?xml version="1.0" encoding="UTF-8" standalone="no"?>
<!DOCTYPE svg PUBLIC "-//W3C//DTD SVG 1.1//EN"
 "http://www.w3.org/Graphics/SVG/1.1/DTD/svg11.dtd">
<!-- Generated by graphviz version 2.36.0 (20140111.2315)
 -->
<!-- Title: o2::header::TimeStamp Pages: 1 -->
<svg width="432pt" height="512pt"
 viewBox="0.00 0.00 432.00 512.00" xmlns="http://www.w3.org/2000/svg" xmlns:xlink="http://www.w3.org/1999/xlink">
<g id="graph0" class="graph" transform="scale(1 1) rotate(0) translate(4 508)">
<title>o2::header::TimeStamp</title>
<!-- Node1 -->
<g id="node1" class="node"><title>Node1</title>
<polygon fill="#bfbfbf" stroke="black" points="110.5,-1 110.5,-113 229.5,-113 229.5,-1 110.5,-1"/>
<text text-anchor="middle" x="170" y="-101" font-family="Helvetica,sans-Serif" font-size="10.00">o2::header::TimeStamp</text>
<polyline fill="none" stroke="black" points="110.5,-94 229.5,-94 "/>
<text text-anchor="middle" x="170" y="-82" font-family="Helvetica,sans-Serif" font-size="10.00"> </text>
<polyline fill="none" stroke="black" points="110.5,-75 229.5,-75 "/>
<text text-anchor="start" x="118.5" y="-63" font-family="Helvetica,sans-Serif" font-size="10.00">+ TimeStamp()</text>
<text text-anchor="start" x="118.5" y="-52" font-family="Helvetica,sans-Serif" font-size="10.00">+ TimeStamp()</text>
<text text-anchor="start" x="118.5" y="-41" font-family="Helvetica,sans-Serif" font-size="10.00">+ TimeStamp()</text>
<text text-anchor="start" x="118.5" y="-30" font-family="Helvetica,sans-Serif" font-size="10.00">+ ~TimeStamp()</text>
<text text-anchor="start" x="118.5" y="-19" font-family="Helvetica,sans-Serif" font-size="10.00">+ operator uint64_t()</text>
<text text-anchor="start" x="118.5" y="-8" font-family="Helvetica,sans-Serif" font-size="10.00">+ get()</text>
</g>
<!-- Node2 -->
<g id="node2" class="node"><title>Node2</title>
<polygon fill="none" stroke="#bfbfbf" points="-0.5,-250.5 -0.5,-307.5 50.5,-307.5 50.5,-250.5 -0.5,-250.5"/>
<text text-anchor="middle" x="25" y="-295.5" font-family="Helvetica,sans-Serif" font-size="10.00">uint64_t</text>
<polyline fill="none" stroke="#bfbfbf" points="-0.5,-288.5 50.5,-288.5 "/>
<text text-anchor="middle" x="25" y="-276.5" font-family="Helvetica,sans-Serif" font-size="10.00"> </text>
<polyline fill="none" stroke="#bfbfbf" points="-0.5,-269.5 50.5,-269.5 "/>
<text text-anchor="middle" x="25" y="-257.5" font-family="Helvetica,sans-Serif" font-size="10.00"> </text>
</g>
<!-- Node2&#45;&gt;Node1 -->
<g id="edge1" class="edge"><title>Node2&#45;&gt;Node1</title>
<path fill="none" stroke="#404040" d="M20.7505,-250.255C17.4555,-218.914 16.7569,-167.644 40,-132 54.0799,-110.408 76.7846,-94.4351 99.3094,-82.9698"/>
<polygon fill="none" stroke="#404040" points="99.4914,-82.8827 103.175,-76.6832 110.314,-77.6987 106.631,-83.8982 99.4914,-82.8827"/>
<text text-anchor="middle" x="79.5" y="-146.5" font-family="Helvetica,sans-Serif" font-size="10.00"> +mTimeStamp64</text>
</g>
<!-- Node3 -->
<g id="node3" class="node"><title>Node3</title>
<polygon fill="none" stroke="#bfbfbf" points="101.5,-250.5 101.5,-307.5 152.5,-307.5 152.5,-250.5 101.5,-250.5"/>
<text text-anchor="middle" x="127" y="-295.5" font-family="Helvetica,sans-Serif" font-size="10.00">uint16_t</text>
<polyline fill="none" stroke="#bfbfbf" points="101.5,-288.5 152.5,-288.5 "/>
<text text-anchor="middle" x="127" y="-276.5" font-family="Helvetica,sans-Serif" font-size="10.00"> </text>
<polyline fill="none" stroke="#bfbfbf" points="101.5,-269.5 152.5,-269.5 "/>
<text text-anchor="middle" x="127" y="-257.5" font-family="Helvetica,sans-Serif" font-size="10.00"> </text>
</g>
<!-- Node3&#45;&gt;Node1 -->
<g id="edge2" class="edge"><title>Node3&#45;&gt;Node1</title>
<path fill="none" stroke="#404040" d="M123.1,-250.271C119.848,-220.485 117.284,-172.034 128,-132 128.657,-129.547 129.414,-127.09 130.256,-124.641"/>
<polygon fill="none" stroke="#404040" points="130.338,-124.434 128.826,-117.383 134.753,-113.276 136.265,-120.326 130.338,-124.434"/>
<text text-anchor="middle" x="160" y="-157.5" font-family="Helvetica,sans-Serif" font-size="10.00"> +mUnit</text>
<text text-anchor="middle" x="160" y="-146.5" font-family="Helvetica,sans-Serif" font-size="10.00">+mSubTicks</text>
<text text-anchor="middle" x="160" y="-135.5" font-family="Helvetica,sans-Serif" font-size="10.00">+mBCNumber</text>
</g>
<!-- Node4 -->
<g id="node4" class="node"><title>Node4</title>
<polygon fill="none" stroke="#bfbfbf" points="188.5,-250.5 188.5,-307.5 239.5,-307.5 239.5,-250.5 188.5,-250.5"/>
<text text-anchor="middle" x="214" y="-295.5" font-family="Helvetica,sans-Serif" font-size="10.00">uint32_t</text>
<polyline fill="none" stroke="#bfbfbf" points="188.5,-288.5 239.5,-288.5 "/>
<text text-anchor="middle" x="214" y="-276.5" font-family="Helvetica,sans-Serif" font-size="10.00"> </text>
<polyline fill="none" stroke="#bfbfbf" points="188.5,-269.5 239.5,-269.5 "/>
<text text-anchor="middle" x="214" y="-257.5" font-family="Helvetica,sans-Serif" font-size="10.00"> </text>
</g>
<!-- Node4&#45;&gt;Node1 -->
<g id="edge3" class="edge"><title>Node4&#45;&gt;Node1</title>
<path fill="none" stroke="#404040" d="M210.998,-250.342C207.522,-220.821 201.088,-172.782 192,-132 191.486,-129.694 190.939,-127.355 190.365,-124.999"/>
<polygon fill="none" stroke="#404040" points="190.303,-124.759 184.932,-119.947 187.308,-113.139 192.679,-117.95 190.303,-124.759"/>
<text text-anchor="middle" x="220.5" y="-152" font-family="Helvetica,sans-Serif" font-size="10.00"> +mTicks</text>
<text text-anchor="middle" x="220.5" y="-141" font-family="Helvetica,sans-Serif" font-size="10.00">+mPeriod</text>
</g>
<!-- Node5 -->
<g id="node5" class="node"><title>Node5</title>
<g id="a_node5"><a xlink:href="../../d9/db3/structo2_1_1header_1_1Descriptor.html" target="_top" xlink:title="{o2::header::Descriptor\l\&lt; N, PrinterPolicy \&gt;\n||+ Descriptor()\l+ Descriptor()\l+ Descriptor()\l+ operator=()\l+ operator ItgType()\l+ Descriptor()\l+ runtimeInit()\l+ operator==()\l+ operator!=()\l+ operator==()\l+ operator!=()\l+ print()\l}">
<polygon fill="none" stroke="black" points="257.5,-184.5 257.5,-373.5 370.5,-373.5 370.5,-184.5 257.5,-184.5"/>
<text text-anchor="start" x="265.5" y="-361.5" font-family="Helvetica,sans-Serif" font-size="10.00">o2::header::Descriptor</text>
<text text-anchor="middle" x="314" y="-350.5" font-family="Helvetica,sans-Serif" font-size="10.00">&lt; N, PrinterPolicy &gt;</text>
<polyline fill="none" stroke="black" points="257.5,-343.5 370.5,-343.5 "/>
<text text-anchor="middle" x="314" y="-331.5" font-family="Helvetica,sans-Serif" font-size="10.00"> </text>
<polyline fill="none" stroke="black" points="257.5,-324.5 370.5,-324.5 "/>
<text text-anchor="start" x="265.5" y="-312.5" font-family="Helvetica,sans-Serif" font-size="10.00">+ Descriptor()</text>
<text text-anchor="start" x="265.5" y="-301.5" font-family="Helvetica,sans-Serif" font-size="10.00">+ Descriptor()</text>
<text text-anchor="start" x="265.5" y="-290.5" font-family="Helvetica,sans-Serif" font-size="10.00">+ Descriptor()</text>
<text text-anchor="start" x="265.5" y="-279.5" font-family="Helvetica,sans-Serif" font-size="10.00">+ operator=()</text>
<text text-anchor="start" x="265.5" y="-268.5" font-family="Helvetica,sans-Serif" font-size="10.00">+ operator ItgType()</text>
<text text-anchor="start" x="265.5" y="-257.5" font-family="Helvetica,sans-Serif" font-size="10.00">+ Descriptor()</text>
<text text-anchor="start" x="265.5" y="-246.5" font-family="Helvetica,sans-Serif" font-size="10.00">+ runtimeInit()</text>
<text text-anchor="start" x="265.5" y="-235.5" font-family="Helvetica,sans-Serif" font-size="10.00">+ operator==()</text>
<text text-anchor="start" x="265.5" y="-224.5" font-family="Helvetica,sans-Serif" font-size="10.00">+ operator!=()</text>
<text text-anchor="start" x="265.5" y="-213.5" font-family="Helvetica,sans-Serif" font-size="10.00">+ operator==()</text>
<text text-anchor="start" x="265.5" y="-202.5" font-family="Helvetica,sans-Serif" font-size="10.00">+ operator!=()</text>
<text text-anchor="start" x="265.5" y="-191.5" font-family="Helvetica,sans-Serif" font-size="10.00">+ print()</text>
</a>
</g>
</g>
<!-- Node5&#45;&gt;Node1 -->
<g id="edge4" class="edge"><title>Node5&#45;&gt;Node1</title>
<path fill="none" stroke="#404040" d="M276.605,-184.44C267.694,-166.368 257.411,-148.075 246,-132 243.395,-128.33 240.595,-124.687 237.66,-121.098"/>
<polygon fill="none" stroke="#404040" points="237.444,-120.846 230.499,-118.903 229.621,-111.746 236.566,-113.688 237.444,-120.846"/>
<text text-anchor="middle" x="304" y="-152" font-family="Helvetica,sans-Serif" font-size="10.00"> +sClockLHC</text>
<text text-anchor="middle" x="304" y="-141" font-family="Helvetica,sans-Serif" font-size="10.00">+sMicroSeconds</text>
</g>
<!-- Node6 -->
<g id="node6" class="node"><title>Node6</title>
<polygon fill="none" stroke="#bfbfbf" points="219.5,-445 219.5,-503 248.5,-503 248.5,-445 219.5,-445"/>
<polyline fill="none" stroke="#bfbfbf" points="219.5,-483 248.5,-483 "/>
<text text-anchor="middle" x="234" y="-471" font-family="Helvetica,sans-Serif" font-size="10.00"> </text>
<polyline fill="none" stroke="#bfbfbf" points="219.5,-464 248.5,-464 "/>
<text text-anchor="middle" x="234" y="-452" font-family="Helvetica,sans-Serif" font-size="10.00"> </text>
</g>
<!-- Node6&#45;&gt;Node5 -->
<g id="edge5" class="edge"><title>Node6&#45;&gt;Node5</title>
<path fill="none" stroke="#404040" d="M244.438,-444.758C250.304,-429.136 257.862,-409.416 265,-392 265.959,-389.66 266.935,-387.296 267.924,-384.914"/>
<polygon fill="none" stroke="#404040" points="267.999,-384.735 266.628,-377.655 272.635,-373.667 274.006,-380.746 267.999,-384.735"/>
<text text-anchor="middle" x="277.5" y="-406.5" font-family="Helvetica,sans-Serif" font-size="10.00"> +@6</text>
</g>
<!-- Node7 -->
<g id="node7" class="node"><title>Node7</title>
<polygon fill="none" stroke="#bfbfbf" points="267,-445.5 267,-502.5 305,-502.5 305,-445.5 267,-445.5"/>
<text text-anchor="middle" x="286" y="-490.5" font-family="Helvetica,sans-Serif" font-size="10.00">Type</text>
<polyline fill="none" stroke="#bfbfbf" points="267,-483.5 305,-483.5 "/>
<text text-anchor="middle" x="286" y="-471.5" font-family="Helvetica,sans-Serif" font-size="10.00"> </text>
<polyline fill="none" stroke="#bfbfbf" points="267,-464.5 305,-464.5 "/>
<text text-anchor="middle" x="286" y="-452.5" font-family="Helvetica,sans-Serif" font-size="10.00"> </text>
</g>
<!-- Node7&#45;&gt;Node5 -->
<g id="edge6" class="edge"><title>Node7&#45;&gt;Node5</title>
<path fill="none" stroke="#404040" d="M290.012,-445.348C292.345,-429.268 295.45,-407.866 298.649,-385.809"/>
<polygon fill="none" stroke="#404040" points="298.657,-385.756 295.56,-379.244 300.38,-373.881 303.477,-380.393 298.657,-385.756"/>
<text text-anchor="middle" x="308" y="-406.5" font-family="Helvetica,sans-Serif" font-size="10.00"> +itg</text>
</g>
<!-- Node8 -->
<g id="node8" class="node"><title>Node8</title>
<polygon fill="none" stroke="#bfbfbf" points="323.5,-445.5 323.5,-502.5 358.5,-502.5 358.5,-445.5 323.5,-445.5"/>
<text text-anchor="middle" x="341" y="-490.5" font-family="Helvetica,sans-Serif" font-size="10.00">char</text>
<polyline fill="none" stroke="#bfbfbf" points="323.5,-483.5 358.5,-483.5 "/>
<text text-anchor="middle" x="341" y="-471.5" font-family="Helvetica,sans-Serif" font-size="10.00"> </text>
<polyline fill="none" stroke="#bfbfbf" points="323.5,-464.5 358.5,-464.5 "/>
<text text-anchor="middle" x="341" y="-452.5" font-family="Helvetica,sans-Serif" font-size="10.00"> </text>
</g>
<!-- Node8&#45;&gt;Node5 -->
<g id="edge7" class="edge"><title>Node8&#45;&gt;Node5</title>
<path fill="none" stroke="#404040" d="M337.132,-445.348C334.882,-429.268 331.888,-407.866 328.802,-385.809"/>
<polygon fill="none" stroke="#404040" points="328.796,-385.765 324.003,-380.377 327.134,-373.881 331.926,-379.269 328.796,-385.765"/>
<text text-anchor="middle" x="344.5" y="-406.5" font-family="Helvetica,sans-Serif" font-size="10.00"> +str</text>
</g>
<!-- Node9 -->
<g id="node9" class="node"><title>Node9</title>
<polygon fill="none" stroke="#bfbfbf" points="376.5,-445.5 376.5,-502.5 405.5,-502.5 405.5,-445.5 376.5,-445.5"/>
<text text-anchor="middle" x="391" y="-490.5" font-family="Helvetica,sans-Serif" font-size="10.00">int</text>
<polyline fill="none" stroke="#bfbfbf" points="376.5,-483.5 405.5,-483.5 "/>
<text text-anchor="middle" x="391" y="-471.5" font-family="Helvetica,sans-Serif" font-size="10.00"> </text>
<polyline fill="none" stroke="#bfbfbf" points="376.5,-464.5 405.5,-464.5 "/>
<text text-anchor="middle" x="391" y="-452.5" font-family="Helvetica,sans-Serif" font-size="10.00"> </text>
</g>
<!-- Node9&#45;&gt;Node5 -->
<g id="edge8" class="edge"><title>Node9&#45;&gt;Node5</title>
<path fill="none" stroke="#404040" d="M380.08,-445.243C373.914,-429.597 366.051,-409.698 359,-392 358.076,-389.681 357.14,-387.335 356.197,-384.969"/>
<polygon fill="none" stroke="#404040" points="356.182,-384.932 350.241,-380.844 351.729,-373.789 357.67,-377.876 356.182,-384.932"/>
<text text-anchor="middle" x="398.5" y="-417.5" font-family="Helvetica,sans-Serif" font-size="10.00"> +arraySize</text>
<text text-anchor="middle" x="398.5" y="-406.5" font-family="Helvetica,sans-Serif" font-size="10.00">+size</text>
<text text-anchor="middle" x="398.5" y="-395.5" font-family="Helvetica,sans-Serif" font-size="10.00">+bitcount</text>
</g>
</g>
</svg>
