<?xml version="1.0" encoding="UTF-8" standalone="no"?>
<!DOCTYPE svg PUBLIC "-//W3C//DTD SVG 1.1//EN"
 "http://www.w3.org/Graphics/SVG/1.1/DTD/svg11.dtd">
<!-- Generated by graphviz version 2.36.0 (20140111.2315)
 -->
<!-- Title: o2::steer::InteractionSampler Pages: 1 -->
<!--zoomable 546 -->
<svg id="main" version="1.1" xmlns="http://www.w3.org/2000/svg" xmlns:xlink="http://www.w3.org/1999/xlink" xml:space="preserve" onload="init(evt)">
<style type="text/css"><![CDATA[
.edge:hover path { stroke: red; }
.edge:hover polygon { stroke: red; fill: red; }
]]></style>
<script type="text/javascript"><![CDATA[
var edges = document.getElementsByTagName('g');
if (edges && edges.length) {
  for (var i=0;i<edges.length;i++) {
    if (edges[i].id.substr(0,4)=='edge') {
      edges[i].setAttribute('class','edge');
    }
  }
}
]]></script>
        <defs>
                <circle id="rim" cx="0" cy="0" r="7"/>
                <circle id="rim2" cx="0" cy="0" r="3.5"/>
                <g id="zoomPlus">
                        <use xlink:href="#rim" fill="#404040">
                                <set attributeName="fill" to="#808080" begin="zoomplus.mouseover" end="zoomplus.mouseout"/>
                        </use>
                        <path d="M-4,0h8M0,-4v8" fill="none" stroke="white" stroke-width="1.5" pointer-events="none"/>
                </g>
                <g id="zoomMin">
                        <use xlink:href="#rim" fill="#404040">
                                <set attributeName="fill" to="#808080" begin="zoomminus.mouseover" end="zoomminus.mouseout"/>
                        </use>
                        <path d="M-4,0h8" fill="none" stroke="white" stroke-width="1.5" pointer-events="none"/>
                </g>
                <g id="dirArrow">
                        <path fill="none" stroke="white" stroke-width="1.5" d="M0,-3.0v7 M-2.5,-0.5L0,-3.0L2.5,-0.5"/>
                </g>
               <g id="resetDef">
                       <use xlink:href="#rim2" fill="#404040">
                               <set attributeName="fill" to="#808080" begin="reset.mouseover" end="reset.mouseout"/>
                       </use>
               </g>
        </defs>

<script type="text/javascript">
var viewWidth = 412;
var viewHeight = 546;
var sectionId = 'dynsection-0';
</script>
<script xlink:href="../../svgpan.js"/>
<svg id="graph" class="graph">
<g id="viewport">
<title>o2::steer::InteractionSampler</title>
<!-- Node1 -->
<g id="node1" class="node"><title>Node1</title>
<polygon fill="#bfbfbf" stroke="black" points="118.5,-0.5 118.5,-321.5 261.5,-321.5 261.5,-0.5 118.5,-0.5"/>
<text text-anchor="middle" x="190" y="-309.5" font-family="Helvetica,sans-Serif" font-size="10.00">o2::steer::InteractionSampler</text>
<polyline fill="none" stroke="black" points="118.5,-302.5 261.5,-302.5 "/>
<text text-anchor="start" x="126.5" y="-290.5" font-family="Helvetica,sans-Serif" font-size="10.00"># mMuBC</text>
<polyline fill="none" stroke="black" points="118.5,-283.5 261.5,-283.5 "/>
<text text-anchor="start" x="126.5" y="-271.5" font-family="Helvetica,sans-Serif" font-size="10.00">+ generateCollisionTime()</text>
<text text-anchor="start" x="126.5" y="-260.5" font-family="Helvetica,sans-Serif" font-size="10.00">+ generateCollisionTimes()</text>
<text text-anchor="start" x="126.5" y="-249.5" font-family="Helvetica,sans-Serif" font-size="10.00">+ init()</text>
<text text-anchor="start" x="126.5" y="-238.5" font-family="Helvetica,sans-Serif" font-size="10.00">+ setInteractionRate()</text>
<text text-anchor="start" x="126.5" y="-227.5" font-family="Helvetica,sans-Serif" font-size="10.00">+ getInteractionRate()</text>
<text text-anchor="start" x="126.5" y="-216.5" font-family="Helvetica,sans-Serif" font-size="10.00">+ setMuPerBC()</text>
<text text-anchor="start" x="126.5" y="-205.5" font-family="Helvetica,sans-Serif" font-size="10.00">+ getMuPerBC()</text>
<text text-anchor="start" x="126.5" y="-194.5" font-family="Helvetica,sans-Serif" font-size="10.00">+ setBCTimeRMS()</text>
<text text-anchor="start" x="126.5" y="-183.5" font-family="Helvetica,sans-Serif" font-size="10.00">+ getBCTimeRMS()</text>
<text text-anchor="start" x="126.5" y="-172.5" font-family="Helvetica,sans-Serif" font-size="10.00">+ getBunchFilling()</text>
<text text-anchor="start" x="126.5" y="-161.5" font-family="Helvetica,sans-Serif" font-size="10.00">+ getBunchFilling()</text>
<text text-anchor="start" x="126.5" y="-150.5" font-family="Helvetica,sans-Serif" font-size="10.00">+ getNCollidingBC()</text>
<text text-anchor="start" x="126.5" y="-139.5" font-family="Helvetica,sans-Serif" font-size="10.00">+ getBCMin()</text>
<text text-anchor="start" x="126.5" y="-128.5" font-family="Helvetica,sans-Serif" font-size="10.00">+ getBCMax()</text>
<text text-anchor="start" x="126.5" y="-117.5" font-family="Helvetica,sans-Serif" font-size="10.00">+ getBC()</text>
<text text-anchor="start" x="126.5" y="-106.5" font-family="Helvetica,sans-Serif" font-size="10.00">+ setBC()</text>
<text text-anchor="start" x="126.5" y="-95.5" font-family="Helvetica,sans-Serif" font-size="10.00">+ setBCTrain()</text>
<text text-anchor="start" x="126.5" y="-84.5" font-family="Helvetica,sans-Serif" font-size="10.00">+ setBCTrains()</text>
<text text-anchor="start" x="126.5" y="-73.5" font-family="Helvetica,sans-Serif" font-size="10.00">+ setDefaultBunchFilling()</text>
<text text-anchor="start" x="126.5" y="-62.5" font-family="Helvetica,sans-Serif" font-size="10.00">+ print()</text>
<text text-anchor="start" x="126.5" y="-51.5" font-family="Helvetica,sans-Serif" font-size="10.00">+ printBunchFilling()</text>
<text text-anchor="start" x="126.5" y="-40.5" font-family="Helvetica,sans-Serif" font-size="10.00"># simulateInteractingBC()</text>
<text text-anchor="start" x="126.5" y="-29.5" font-family="Helvetica,sans-Serif" font-size="10.00"># genPoissonZT()</text>
<text text-anchor="start" x="126.5" y="-18.5" font-family="Helvetica,sans-Serif" font-size="10.00"># nextCollidingBC()</text>
<text text-anchor="start" x="126.5" y="-7.5" font-family="Helvetica,sans-Serif" font-size="10.00"># ClassDefNV()</text>
</g>
<!-- Node2 -->
<g id="node2" class="node"><title>Node2</title>
<polygon fill="none" stroke="#bfbfbf" points="0,-480.5 0,-537.5 90,-537.5 90,-480.5 0,-480.5"/>
<text text-anchor="middle" x="45" y="-525.5" font-family="Helvetica,sans-Serif" font-size="10.00">vector&lt; double &gt;</text>
<polyline fill="none" stroke="#bfbfbf" points="0,-518.5 90,-518.5 "/>
<text text-anchor="middle" x="45" y="-506.5" font-family="Helvetica,sans-Serif" font-size="10.00"> </text>
<polyline fill="none" stroke="#bfbfbf" points="0,-499.5 90,-499.5 "/>
<text text-anchor="middle" x="45" y="-487.5" font-family="Helvetica,sans-Serif" font-size="10.00"> </text>
</g>
<!-- Node2&#45;&gt;Node1 -->
<g id="edge1" class="edge"><title>Node2&#45;&gt;Node1</title>
<path fill="none" stroke="#404040" d="M43.5042,-480.24C42.6213,-446.089 44.2403,-386.878 62,-340 73.5986,-309.385 91.8525,-279.248 110.98,-252.725"/>
<polygon fill="none" stroke="#404040" points="111.219,-252.401 111.562,-245.198 118.342,-242.743 118,-249.946 111.219,-252.401"/>
<text text-anchor="middle" x="92.5" y="-398.5" font-family="Helvetica,sans-Serif" font-size="10.00"> #mTimeInBC</text>
</g>
<!-- Node3 -->
<g id="node3" class="node"><title>Node3</title>
<g id="a_node3"><a xlink:href="../../df/de6/classdouble.html" target="_top" xlink:title="{double\n||}">
<polygon fill="none" stroke="black" points="108.5,-480.5 108.5,-537.5 153.5,-537.5 153.5,-480.5 108.5,-480.5"/>
<text text-anchor="middle" x="131" y="-525.5" font-family="Helvetica,sans-Serif" font-size="10.00">double</text>
<polyline fill="none" stroke="black" points="108.5,-518.5 153.5,-518.5 "/>
<text text-anchor="middle" x="131" y="-506.5" font-family="Helvetica,sans-Serif" font-size="10.00"> </text>
<polyline fill="none" stroke="black" points="108.5,-499.5 153.5,-499.5 "/>
<text text-anchor="middle" x="131" y="-487.5" font-family="Helvetica,sans-Serif" font-size="10.00"> </text>
</a>
</g>
</g>
<!-- Node3&#45;&gt;Node1 -->
<g id="edge2" class="edge"><title>Node3&#45;&gt;Node1</title>
<path fill="none" stroke="#404040" d="M128.58,-480.432C126.236,-446.971 124.077,-388.947 132,-340 132.355,-337.809 132.732,-335.609 133.129,-333.401"/>
<polygon fill="none" stroke="#404040" points="133.148,-333.307 130.372,-326.652 135.448,-321.53 138.224,-328.185 133.148,-333.307"/>
<text text-anchor="middle" x="180" y="-453.5" font-family="Helvetica,sans-Serif" font-size="10.00"> #mProbNoInteraction</text>
<text text-anchor="middle" x="180" y="-442.5" font-family="Helvetica,sans-Serif" font-size="10.00">#mMuBCZTRed</text>
<text text-anchor="middle" x="180" y="-431.5" font-family="Helvetica,sans-Serif" font-size="10.00">+Sec2NanoSec</text>
<text text-anchor="middle" x="180" y="-420.5" font-family="Helvetica,sans-Serif" font-size="10.00">#mBCTimeRMS</text>
<text text-anchor="middle" x="180" y="-409.5" font-family="Helvetica,sans-Serif" font-size="10.00">+BCSpacingLHC</text>
<text text-anchor="middle" x="180" y="-398.5" font-family="Helvetica,sans-Serif" font-size="10.00">+OrbitDuration</text>
<text text-anchor="middle" x="180" y="-387.5" font-family="Helvetica,sans-Serif" font-size="10.00">+LHCRevFreq</text>
<text text-anchor="middle" x="180" y="-376.5" font-family="Helvetica,sans-Serif" font-size="10.00">+PeriodDuration</text>
<text text-anchor="middle" x="180" y="-365.5" font-family="Helvetica,sans-Serif" font-size="10.00">#mIntRate</text>
<text text-anchor="middle" x="180" y="-354.5" font-family="Helvetica,sans-Serif" font-size="10.00">#DefIntRate</text>
<text text-anchor="middle" x="180" y="-343.5" font-family="Helvetica,sans-Serif" font-size="10.00">...</text>
</g>
<!-- Node4 -->
<g id="node4" class="node"><title>Node4</title>
<polygon fill="none" stroke="#bfbfbf" points="192,-480.5 192,-537.5 308,-537.5 308,-480.5 192,-480.5"/>
<text text-anchor="middle" x="250" y="-525.5" font-family="Helvetica,sans-Serif" font-size="10.00">bitset&lt; LHCBCSlots &gt;</text>
<polyline fill="none" stroke="#bfbfbf" points="192,-518.5 308,-518.5 "/>
<text text-anchor="middle" x="250" y="-506.5" font-family="Helvetica,sans-Serif" font-size="10.00"> </text>
<polyline fill="none" stroke="#bfbfbf" points="192,-499.5 308,-499.5 "/>
<text text-anchor="middle" x="250" y="-487.5" font-family="Helvetica,sans-Serif" font-size="10.00"> </text>
</g>
<!-- Node4&#45;&gt;Node1 -->
<g id="edge3" class="edge"><title>Node4&#45;&gt;Node1</title>
<path fill="none" stroke="#404040" d="M247.056,-480.251C243.354,-446.856 236.449,-389.139 228,-340 227.625,-337.818 227.242,-335.621 226.851,-333.414"/>
<polygon fill="none" stroke="#404040" points="226.834,-333.319 221.83,-328.127 224.699,-321.511 229.703,-326.703 226.834,-333.319"/>
<text text-anchor="middle" x="273.5" y="-398.5" font-family="Helvetica,sans-Serif" font-size="10.00"> #mBCFilling</text>
</g>
<!-- Node5 -->
<g id="node5" class="node"><title>Node5</title>
<polygon fill="none" stroke="#bfbfbf" points="325.5,-480.5 325.5,-537.5 354.5,-537.5 354.5,-480.5 325.5,-480.5"/>
<text text-anchor="middle" x="340" y="-525.5" font-family="Helvetica,sans-Serif" font-size="10.00">int</text>
<polyline fill="none" stroke="#bfbfbf" points="325.5,-518.5 354.5,-518.5 "/>
<text text-anchor="middle" x="340" y="-506.5" font-family="Helvetica,sans-Serif" font-size="10.00"> </text>
<polyline fill="none" stroke="#bfbfbf" points="325.5,-499.5 354.5,-499.5 "/>
<text text-anchor="middle" x="340" y="-487.5" font-family="Helvetica,sans-Serif" font-size="10.00"> </text>
</g>
<!-- Node5&#45;&gt;Node1 -->
<g id="edge4" class="edge"><title>Node5&#45;&gt;Node1</title>
<path fill="none" stroke="#404040" d="M337.621,-480.311C333.974,-446.23 325.281,-387.092 306,-340 296.001,-315.579 282.531,-290.905 268.311,-268.028"/>
<polygon fill="none" stroke="#404040" points="268.158,-267.786 261.567,-264.86 261.734,-257.65 268.325,-260.577 268.158,-267.786"/>
<text text-anchor="middle" x="370" y="-442.5" font-family="Helvetica,sans-Serif" font-size="10.00"> #mOrbit</text>
<text text-anchor="middle" x="370" y="-431.5" font-family="Helvetica,sans-Serif" font-size="10.00">#mPeriod</text>
<text text-anchor="middle" x="370" y="-420.5" font-family="Helvetica,sans-Serif" font-size="10.00">+LHCBCSlots</text>
<text text-anchor="middle" x="370" y="-409.5" font-family="Helvetica,sans-Serif" font-size="10.00">#mBCCurrent</text>
<text text-anchor="middle" x="370" y="-398.5" font-family="Helvetica,sans-Serif" font-size="10.00">#mIntBCCache</text>
<text text-anchor="middle" x="370" y="-387.5" font-family="Helvetica,sans-Serif" font-size="10.00">#mBCMax</text>
<text text-anchor="middle" x="370" y="-376.5" font-family="Helvetica,sans-Serif" font-size="10.00">#mBCMin</text>
<text text-anchor="middle" x="370" y="-365.5" font-family="Helvetica,sans-Serif" font-size="10.00">+MaxNPeriods</text>
<text text-anchor="middle" x="370" y="-354.5" font-family="Helvetica,sans-Serif" font-size="10.00">+MaxNOrbits</text>
</g>
</g>
</svg>
        <g id="navigator" transform="translate(0 0)" fill="#404254">
                <rect fill="#f2f5e9" fill-opacity="0.5" stroke="#606060" stroke-width=".5" x="0" y="0" width="60" height="60"/>
                <use id="zoomplus" xlink:href="#zoomPlus" x="17" y="9" onmousedown="handleZoom(evt,'in')"/>
                <use id="zoomminus" xlink:href="#zoomMin" x="42" y="9" onmousedown="handleZoom(evt,'out')"/>
                <use id="reset" xlink:href="#resetDef" x="30" y="36" onmousedown="handleReset()"/>
                <g id="arrowUp" xlink:href="#dirArrow" transform="translate(30 24)" onmousedown="handlePan(0,-1)">
                  <use xlink:href="#rim" fill="#404040">
                        <set attributeName="fill" to="#808080" begin="arrowUp.mouseover" end="arrowUp.mouseout"/>
                  </use>
                  <path fill="none" stroke="white" stroke-width="1.5" d="M0,-3.0v7 M-2.5,-0.5L0,-3.0L2.5,-0.5"/>
                </g>
                <g id="arrowRight" xlink:href="#dirArrow" transform="rotate(90) translate(36 -43)" onmousedown="handlePan(1,0)">
                  <use xlink:href="#rim" fill="#404040">
                        <set attributeName="fill" to="#808080" begin="arrowRight.mouseover" end="arrowRight.mouseout"/>
                  </use>
                  <path fill="none" stroke="white" stroke-width="1.5" d="M0,-3.0v7 M-2.5,-0.5L0,-3.0L2.5,-0.5"/>
                </g>
                <g id="arrowDown" xlink:href="#dirArrow" transform="rotate(180) translate(-30 -48)" onmousedown="handlePan(0,1)">
                  <use xlink:href="#rim" fill="#404040">
                        <set attributeName="fill" to="#808080" begin="arrowDown.mouseover" end="arrowDown.mouseout"/>
                  </use>
                  <path fill="none" stroke="white" stroke-width="1.5" d="M0,-3.0v7 M-2.5,-0.5L0,-3.0L2.5,-0.5"/>
                </g>
                <g id="arrowLeft" xlink:href="#dirArrow" transform="rotate(270) translate(-36 17)" onmousedown="handlePan(-1,0)">
                  <use xlink:href="#rim" fill="#404040">
                        <set attributeName="fill" to="#808080" begin="arrowLeft.mouseover" end="arrowLeft.mouseout"/>
                  </use>
                  <path fill="none" stroke="white" stroke-width="1.5" d="M0,-3.0v7 M-2.5,-0.5L0,-3.0L2.5,-0.5"/>
                </g>
        </g>
        <svg viewBox="0 0 15 15" width="100%" height="30px" preserveAspectRatio="xMaxYMin meet">
         <g id="arrow_out" transform="scale(0.3 0.3)">
          <a xlink:href="classo2_1_1steer_1_1InteractionSampler__coll__graph_org.svg" target="_base">
           <rect id="button" ry="5" rx="5" y="6" x="6" height="38" width="38"
                fill="#f2f5e9" fill-opacity="0.5" stroke="#606060" stroke-width="1.0"/>
           <path id="arrow"
             d="M 11.500037,31.436501 C 11.940474,20.09759 22.043105,11.32322 32.158766,21.979434 L 37.068811,17.246167 C 37.068811,17.246167 37.088388,32 37.088388,32 L 22.160133,31.978069 C 22.160133,31.978069 26.997745,27.140456 26.997745,27.140456 C 18.528582,18.264221 13.291696,25.230495 11.500037,31.436501 z"
             style="fill:#404040;"/>
          </a>
         </g>
        </svg>
</svg>
