<?xml version="1.0" encoding="UTF-8" standalone="no"?>
<!DOCTYPE svg PUBLIC "-//W3C//DTD SVG 1.1//EN"
 "http://www.w3.org/Graphics/SVG/1.1/DTD/svg11.dtd">
<!-- Generated by graphviz version 2.36.0 (20140111.2315)
 -->
<!-- Title: /home/travis/build/AliceO2Group/AliceO2/DataFormats/Detectors/Common/src/DetMatrixCache.cxx Pages: 1 -->
<!--zoomable 334 -->
<svg id="main" version="1.1" xmlns="http://www.w3.org/2000/svg" xmlns:xlink="http://www.w3.org/1999/xlink" xml:space="preserve" onload="init(evt)">
<style type="text/css"><![CDATA[
.edge:hover path { stroke: red; }
.edge:hover polygon { stroke: red; fill: red; }
]]></style>
<script type="text/javascript"><![CDATA[
var edges = document.getElementsByTagName('g');
if (edges && edges.length) {
  for (var i=0;i<edges.length;i++) {
    if (edges[i].id.substr(0,4)=='edge') {
      edges[i].setAttribute('class','edge');
    }
  }
}
]]></script>
        <defs>
                <circle id="rim" cx="0" cy="0" r="7"/>
                <circle id="rim2" cx="0" cy="0" r="3.5"/>
                <g id="zoomPlus">
                        <use xlink:href="#rim" fill="#404040">
                                <set attributeName="fill" to="#808080" begin="zoomplus.mouseover" end="zoomplus.mouseout"/>
                        </use>
                        <path d="M-4,0h8M0,-4v8" fill="none" stroke="white" stroke-width="1.5" pointer-events="none"/>
                </g>
                <g id="zoomMin">
                        <use xlink:href="#rim" fill="#404040">
                                <set attributeName="fill" to="#808080" begin="zoomminus.mouseover" end="zoomminus.mouseout"/>
                        </use>
                        <path d="M-4,0h8" fill="none" stroke="white" stroke-width="1.5" pointer-events="none"/>
                </g>
                <g id="dirArrow">
                        <path fill="none" stroke="white" stroke-width="1.5" d="M0,-3.0v7 M-2.5,-0.5L0,-3.0L2.5,-0.5"/>
                </g>
               <g id="resetDef">
                       <use xlink:href="#rim2" fill="#404040">
                               <set attributeName="fill" to="#808080" begin="reset.mouseover" end="reset.mouseout"/>
                       </use>
               </g>
        </defs>

<script type="text/javascript">
var viewWidth = 1949;
var viewHeight = 334;
var sectionId = 'dynsection-0';
</script>
<script xlink:href="../../svgpan.js"/>
<svg id="graph" class="graph">
<g id="viewport">
<title>/home/travis/build/AliceO2Group/AliceO2/DataFormats/Detectors/Common/src/DetMatrixCache.cxx</title>
<!-- Node1 -->
<g id="node1" class="node"><title>Node1</title>
<polygon fill="#bfbfbf" stroke="black" points="1195.5,-273 1195.5,-325 1364.5,-325 1364.5,-273 1195.5,-273"/>
<text text-anchor="start" x="1203.5" y="-313" font-family="Helvetica,sans-Serif" font-size="10.00">/home/travis/build</text>
<text text-anchor="start" x="1203.5" y="-302" font-family="Helvetica,sans-Serif" font-size="10.00">/AliceO2Group/AliceO2</text>
<text text-anchor="start" x="1203.5" y="-291" font-family="Helvetica,sans-Serif" font-size="10.00">/DataFormats/Detectors</text>
<text text-anchor="middle" x="1280" y="-280" font-family="Helvetica,sans-Serif" font-size="10.00">/Common/src/DetMatrixCache.cxx</text>
</g>
<!-- Node2 -->
<g id="node2" class="node"><title>Node2</title>
<g id="a_node2"><a xlink:href="../../d4/d20/DetMatrixCache_8h.html" target="_top" xlink:title="DetectorsCommonDataFormats\l/DetMatrixCache.h">
<polygon fill="none" stroke="black" points="1202,-205 1202,-235 1358,-235 1358,-205 1202,-205"/>
<text text-anchor="start" x="1210" y="-223" font-family="Helvetica,sans-Serif" font-size="10.00">DetectorsCommonDataFormats</text>
<text text-anchor="middle" x="1280" y="-212" font-family="Helvetica,sans-Serif" font-size="10.00">/DetMatrixCache.h</text>
</a>
</g>
</g>
<!-- Node1&#45;&gt;Node2 -->
<g id="edge1" class="edge"><title>Node1&#45;&gt;Node2</title>
<path fill="none" stroke="midnightblue" d="M1280,-272.787C1280,-264.029 1280,-254.225 1280,-245.523"/>
<polygon fill="midnightblue" stroke="midnightblue" points="1283.5,-245.252 1280,-235.252 1276.5,-245.252 1283.5,-245.252"/>
</g>
<!-- Node12 -->
<g id="node12" class="node"><title>Node12</title>
<g id="a_node12"><a xlink:href="../../d9/d52/Common_2MathUtils_2include_2MathUtils_2Utils_8h.html" target="_top" xlink:title="MathUtils/Utils.h">
<polygon fill="none" stroke="black" points="1717,-74.5 1717,-93.5 1807,-93.5 1807,-74.5 1717,-74.5"/>
<text text-anchor="middle" x="1762" y="-81.5" font-family="Helvetica,sans-Serif" font-size="10.00">MathUtils/Utils.h</text>
</a>
</g>
</g>
<!-- Node1&#45;&gt;Node12 -->
<g id="edge30" class="edge"><title>Node1&#45;&gt;Node12</title>
<path fill="none" stroke="midnightblue" d="M1358.18,-272.959C1429.01,-249.222 1535.53,-210.89 1624,-168 1667.21,-147.053 1714.55,-116.854 1741.04,-99.2457"/>
<polygon fill="midnightblue" stroke="midnightblue" points="1743.14,-102.053 1749.49,-93.5782 1739.24,-96.238 1743.14,-102.053"/>
</g>
<!-- Node21 -->
<g id="node21" class="node"><title>Node21</title>
<polygon fill="none" stroke="#bfbfbf" points="1201,-74.5 1201,-93.5 1277,-93.5 1277,-74.5 1201,-74.5"/>
<text text-anchor="middle" x="1239" y="-81.5" font-family="Helvetica,sans-Serif" font-size="10.00">TGeoMatrix.h</text>
</g>
<!-- Node1&#45;&gt;Node21 -->
<g id="edge29" class="edge"><title>Node1&#45;&gt;Node21</title>
<path fill="none" stroke="midnightblue" d="M1232.63,-272.786C1197,-250.666 1151.45,-214.739 1134,-168 1129.03,-154.676 1126.45,-148.055 1134,-136 1142.09,-123.073 1176.97,-107.717 1204.33,-97.2565"/>
<polygon fill="midnightblue" stroke="midnightblue" points="1205.87,-100.418 1214.01,-93.6379 1203.42,-93.8616 1205.87,-100.418"/>
</g>
<!-- Node3 -->
<g id="node3" class="node"><title>Node3</title>
<polygon fill="none" stroke="#bfbfbf" points="1143.5,-142.5 1143.5,-161.5 1214.5,-161.5 1214.5,-142.5 1143.5,-142.5"/>
<text text-anchor="middle" x="1179" y="-149.5" font-family="Helvetica,sans-Serif" font-size="10.00">FairLogger.h</text>
</g>
<!-- Node2&#45;&gt;Node3 -->
<g id="edge2" class="edge"><title>Node2&#45;&gt;Node3</title>
<path fill="none" stroke="midnightblue" d="M1258.08,-204.679C1241.15,-193.611 1217.81,-178.363 1200.88,-167.3"/>
<polygon fill="midnightblue" stroke="midnightblue" points="1202.5,-164.178 1192.22,-161.638 1198.68,-170.038 1202.5,-164.178"/>
</g>
<!-- Node4 -->
<g id="node4" class="node"><title>Node4</title>
<polygon fill="none" stroke="#bfbfbf" points="1602,-6.5 1602,-25.5 1640,-25.5 1640,-6.5 1602,-6.5"/>
<text text-anchor="middle" x="1621" y="-13.5" font-family="Helvetica,sans-Serif" font-size="10.00">array</text>
</g>
<!-- Node2&#45;&gt;Node4 -->
<g id="edge3" class="edge"><title>Node2&#45;&gt;Node4</title>
<path fill="none" stroke="midnightblue" d="M1282.18,-204.887C1287.69,-171.005 1303.27,-86.5001 1324,-68 1363.28,-32.9382 1524.42,-21.4829 1591.49,-18.1881"/>
<polygon fill="midnightblue" stroke="midnightblue" points="1591.95,-21.6705 1601.78,-17.7111 1591.63,-14.678 1591.95,-21.6705"/>
</g>
<!-- Node5 -->
<g id="node5" class="node"><title>Node5</title>
<polygon fill="none" stroke="#bfbfbf" points="1233,-142.5 1233,-161.5 1277,-161.5 1277,-142.5 1233,-142.5"/>
<text text-anchor="middle" x="1255" y="-149.5" font-family="Helvetica,sans-Serif" font-size="10.00">vector</text>
</g>
<!-- Node2&#45;&gt;Node5 -->
<g id="edge4" class="edge"><title>Node2&#45;&gt;Node5</title>
<path fill="none" stroke="midnightblue" d="M1274.58,-204.679C1270.87,-194.898 1265.93,-181.852 1261.94,-171.315"/>
<polygon fill="midnightblue" stroke="midnightblue" points="1265.16,-169.94 1258.34,-161.828 1258.61,-172.42 1265.16,-169.94"/>
</g>
<!-- Node6 -->
<g id="node6" class="node"><title>Node6</title>
<g id="a_node6"><a xlink:href="../../d6/d31/DetID_8h.html" target="_top" xlink:title="DetectorsCommonDataFormats\l/DetID.h">
<polygon fill="none" stroke="black" points="1459,-137 1459,-167 1615,-167 1615,-137 1459,-137"/>
<text text-anchor="start" x="1467" y="-155" font-family="Helvetica,sans-Serif" font-size="10.00">DetectorsCommonDataFormats</text>
<text text-anchor="middle" x="1537" y="-144" font-family="Helvetica,sans-Serif" font-size="10.00">/DetID.h</text>
</a>
</g>
</g>
<!-- Node2&#45;&gt;Node6 -->
<g id="edge5" class="edge"><title>Node2&#45;&gt;Node6</title>
<path fill="none" stroke="midnightblue" d="M1334.82,-204.922C1375.08,-194.583 1429.91,-180.501 1472.32,-169.61"/>
<polygon fill="midnightblue" stroke="midnightblue" points="1473.45,-172.934 1482.27,-167.056 1471.71,-166.154 1473.45,-172.934"/>
</g>
<!-- Node7 -->
<g id="node7" class="node"><title>Node7</title>
<polygon fill="none" stroke="#bfbfbf" points="1333,-74.5 1333,-93.5 1389,-93.5 1389,-74.5 1333,-74.5"/>
<text text-anchor="middle" x="1361" y="-81.5" font-family="Helvetica,sans-Serif" font-size="10.00">Rtypes.h</text>
</g>
<!-- Node2&#45;&gt;Node7 -->
<g id="edge28" class="edge"><title>Node2&#45;&gt;Node7</title>
<path fill="none" stroke="midnightblue" d="M1292.01,-204.786C1300.13,-194.829 1310.82,-181.027 1319,-168 1332.51,-146.48 1345.28,-120.059 1353.11,-102.891"/>
<polygon fill="midnightblue" stroke="midnightblue" points="1356.42,-104.08 1357.32,-93.524 1350.03,-101.215 1356.42,-104.08"/>
</g>
<!-- Node15 -->
<g id="node15" class="node"><title>Node15</title>
<g id="a_node15"><a xlink:href="../../dd/d76/Cartesian3D_8h.html" target="_top" xlink:title="MathUtils/Cartesian3D.h">
<polygon fill="none" stroke="black" points="876.5,-142.5 876.5,-161.5 1001.5,-161.5 1001.5,-142.5 876.5,-142.5"/>
<text text-anchor="middle" x="939" y="-149.5" font-family="Helvetica,sans-Serif" font-size="10.00">MathUtils/Cartesian3D.h</text>
</a>
</g>
</g>
<!-- Node2&#45;&gt;Node15 -->
<g id="edge16" class="edge"><title>Node2&#45;&gt;Node15</title>
<path fill="none" stroke="midnightblue" d="M1207.27,-204.922C1143.05,-192.494 1050.89,-174.657 993.027,-163.457"/>
<polygon fill="midnightblue" stroke="midnightblue" points="993.471,-159.978 982.988,-161.514 992.14,-166.85 993.471,-159.978"/>
</g>
<!-- Node6&#45;&gt;Node4 -->
<g id="edge7" class="edge"><title>Node6&#45;&gt;Node4</title>
<path fill="none" stroke="midnightblue" d="M1561.99,-136.794C1575.48,-127.888 1591.31,-115.218 1601,-100 1613.48,-80.4134 1618.17,-53.7118 1619.94,-35.9411"/>
<polygon fill="midnightblue" stroke="midnightblue" points="1623.45,-35.9573 1620.73,-25.7174 1616.47,-35.4183 1623.45,-35.9573"/>
</g>
<!-- Node6&#45;&gt;Node7 -->
<g id="edge6" class="edge"><title>Node6&#45;&gt;Node7</title>
<path fill="none" stroke="midnightblue" d="M1497.62,-136.95C1469.72,-126.897 1431.45,-112.914 1398,-100 1395.76,-99.1365 1393.46,-98.2324 1391.14,-97.3145"/>
<polygon fill="midnightblue" stroke="midnightblue" points="1392.28,-94.0021 1381.69,-93.5321 1389.68,-100.5 1392.28,-94.0021"/>
</g>
<!-- Node8 -->
<g id="node8" class="node"><title>Node8</title>
<polygon fill="none" stroke="#bfbfbf" points="1551.5,-74.5 1551.5,-93.5 1592.5,-93.5 1592.5,-74.5 1551.5,-74.5"/>
<text text-anchor="middle" x="1572" y="-81.5" font-family="Helvetica,sans-Serif" font-size="10.00">bitset</text>
</g>
<!-- Node6&#45;&gt;Node8 -->
<g id="edge8" class="edge"><title>Node6&#45;&gt;Node8</title>
<path fill="none" stroke="midnightblue" d="M1544.59,-136.679C1549.84,-126.796 1556.84,-113.579 1562.46,-102.986"/>
<polygon fill="midnightblue" stroke="midnightblue" points="1565.73,-104.303 1567.32,-93.8283 1559.54,-101.023 1565.73,-104.303"/>
</g>
<!-- Node9 -->
<g id="node9" class="node"><title>Node9</title>
<polygon fill="none" stroke="#bfbfbf" points="1649.5,-74.5 1649.5,-93.5 1698.5,-93.5 1698.5,-74.5 1649.5,-74.5"/>
<text text-anchor="middle" x="1674" y="-81.5" font-family="Helvetica,sans-Serif" font-size="10.00">cassert</text>
</g>
<!-- Node6&#45;&gt;Node9 -->
<g id="edge9" class="edge"><title>Node6&#45;&gt;Node9</title>
<path fill="none" stroke="midnightblue" d="M1566.39,-136.841C1590.19,-125.374 1623.47,-109.342 1646.7,-98.1532"/>
<polygon fill="midnightblue" stroke="midnightblue" points="1648.49,-101.175 1655.98,-93.6819 1645.45,-94.8689 1648.49,-101.175"/>
</g>
<!-- Node10 -->
<g id="node10" class="node"><title>Node10</title>
<polygon fill="none" stroke="#bfbfbf" points="1407,-74.5 1407,-93.5 1453,-93.5 1453,-74.5 1407,-74.5"/>
<text text-anchor="middle" x="1430" y="-81.5" font-family="Helvetica,sans-Serif" font-size="10.00">cstdint</text>
</g>
<!-- Node6&#45;&gt;Node10 -->
<g id="edge10" class="edge"><title>Node6&#45;&gt;Node10</title>
<path fill="none" stroke="midnightblue" d="M1514.05,-136.841C1495.95,-125.681 1470.85,-110.198 1452.8,-99.0625"/>
<polygon fill="midnightblue" stroke="midnightblue" points="1454.42,-95.9529 1444.08,-93.6819 1450.75,-101.911 1454.42,-95.9529"/>
</g>
<!-- Node11 -->
<g id="node11" class="node"><title>Node11</title>
<polygon fill="none" stroke="#bfbfbf" points="1471,-74.5 1471,-93.5 1533,-93.5 1533,-74.5 1471,-74.5"/>
<text text-anchor="middle" x="1502" y="-81.5" font-family="Helvetica,sans-Serif" font-size="10.00">type_traits</text>
</g>
<!-- Node6&#45;&gt;Node11 -->
<g id="edge11" class="edge"><title>Node6&#45;&gt;Node11</title>
<path fill="none" stroke="midnightblue" d="M1529.41,-136.679C1524.16,-126.796 1517.16,-113.579 1511.54,-102.986"/>
<polygon fill="midnightblue" stroke="midnightblue" points="1514.46,-101.023 1506.68,-93.8283 1508.27,-104.303 1514.46,-101.023"/>
</g>
<!-- Node6&#45;&gt;Node12 -->
<g id="edge12" class="edge"><title>Node6&#45;&gt;Node12</title>
<path fill="none" stroke="midnightblue" d="M1584.99,-136.922C1626.22,-124.828 1684.91,-107.613 1723.22,-96.3753"/>
<polygon fill="midnightblue" stroke="midnightblue" points="1724.37,-99.6871 1732.98,-93.5138 1722.39,-92.9701 1724.37,-99.6871"/>
</g>
<!-- Node12&#45;&gt;Node4 -->
<g id="edge13" class="edge"><title>Node12&#45;&gt;Node4</title>
<path fill="none" stroke="midnightblue" d="M1743.57,-74.3717C1719.39,-63.0569 1676.77,-43.1053 1648.7,-29.9678"/>
<polygon fill="midnightblue" stroke="midnightblue" points="1649.98,-26.7 1639.44,-25.6305 1647.01,-33.0398 1649.98,-26.7"/>
</g>
<!-- Node13 -->
<g id="node13" class="node"><title>Node13</title>
<polygon fill="none" stroke="#bfbfbf" points="1699,-6.5 1699,-25.5 1743,-25.5 1743,-6.5 1699,-6.5"/>
<text text-anchor="middle" x="1721" y="-13.5" font-family="Helvetica,sans-Serif" font-size="10.00">cmath</text>
</g>
<!-- Node12&#45;&gt;Node13 -->
<g id="edge14" class="edge"><title>Node12&#45;&gt;Node13</title>
<path fill="none" stroke="midnightblue" d="M1756.64,-74.3717C1750.41,-64.3478 1739.98,-47.5455 1732,-34.7076"/>
<polygon fill="midnightblue" stroke="midnightblue" points="1734.74,-32.4886 1726.49,-25.8411 1728.8,-36.1825 1734.74,-32.4886"/>
</g>
<!-- Node14 -->
<g id="node14" class="node"><title>Node14</title>
<g id="a_node14"><a xlink:href="../../d6/d84/MathConstants_8h.html" target="_top" xlink:title="useful math constants ">
<polygon fill="none" stroke="black" points="1761.5,-6.5 1761.5,-25.5 1940.5,-25.5 1940.5,-6.5 1761.5,-6.5"/>
<text text-anchor="middle" x="1851" y="-13.5" font-family="Helvetica,sans-Serif" font-size="10.00">CommonConstants/MathConstants.h</text>
</a>
</g>
</g>
<!-- Node12&#45;&gt;Node14 -->
<g id="edge15" class="edge"><title>Node12&#45;&gt;Node14</title>
<path fill="none" stroke="midnightblue" d="M1773.64,-74.3717C1788.16,-63.6004 1813.24,-45.0021 1830.9,-31.9065"/>
<polygon fill="midnightblue" stroke="midnightblue" points="1833.41,-34.3984 1839.36,-25.6305 1829.24,-28.7758 1833.41,-34.3984"/>
</g>
<!-- Node15&#45;&gt;Node7 -->
<g id="edge22" class="edge"><title>Node15&#45;&gt;Node7</title>
<path fill="none" stroke="midnightblue" d="M1001.53,-142.797C1071.12,-133.437 1186.86,-117.188 1286,-100 1298.04,-97.9123 1311.12,-95.3869 1322.93,-93.0083"/>
<polygon fill="midnightblue" stroke="midnightblue" points="1323.83,-96.3975 1332.93,-90.9706 1322.43,-89.5385 1323.83,-96.3975"/>
</g>
<!-- Node16 -->
<g id="node16" class="node"><title>Node16</title>
<polygon fill="none" stroke="#bfbfbf" points="246.5,-69 246.5,-99 397.5,-99 397.5,-69 246.5,-69"/>
<text text-anchor="start" x="254.5" y="-87" font-family="Helvetica,sans-Serif" font-size="10.00">Math/GenVector/Displacement</text>
<text text-anchor="middle" x="322" y="-76" font-family="Helvetica,sans-Serif" font-size="10.00">Vector3D.h</text>
</g>
<!-- Node15&#45;&gt;Node16 -->
<g id="edge17" class="edge"><title>Node15&#45;&gt;Node16</title>
<path fill="none" stroke="midnightblue" d="M876.163,-146.594C778.293,-139.376 583.343,-123.568 407.883,-100.052"/>
<polygon fill="midnightblue" stroke="midnightblue" points="408.332,-96.5812 397.953,-98.7103 407.394,-103.518 408.332,-96.5812"/>
</g>
<!-- Node17 -->
<g id="node17" class="node"><title>Node17</title>
<polygon fill="none" stroke="#bfbfbf" points="416,-74.5 416,-93.5 592,-93.5 592,-74.5 416,-74.5"/>
<text text-anchor="middle" x="504" y="-81.5" font-family="Helvetica,sans-Serif" font-size="10.00">Math/GenVector/PositionVector3D.h</text>
</g>
<!-- Node15&#45;&gt;Node17 -->
<g id="edge18" class="edge"><title>Node15&#45;&gt;Node17</title>
<path fill="none" stroke="midnightblue" d="M881.703,-142.481C814.285,-132.435 698.979,-115.178 600,-100 589.702,-98.4208 578.785,-96.7306 568.147,-95.0747"/>
<polygon fill="midnightblue" stroke="midnightblue" points="568.483,-91.5849 558.063,-93.5024 567.405,-98.5013 568.483,-91.5849"/>
</g>
<!-- Node18 -->
<g id="node18" class="node"><title>Node18</title>
<polygon fill="none" stroke="#bfbfbf" points="609.5,-74.5 609.5,-93.5 758.5,-93.5 758.5,-74.5 609.5,-74.5"/>
<text text-anchor="middle" x="684" y="-81.5" font-family="Helvetica,sans-Serif" font-size="10.00">Math/GenVector/Rotation3D.h</text>
</g>
<!-- Node15&#45;&gt;Node18 -->
<g id="edge19" class="edge"><title>Node15&#45;&gt;Node18</title>
<path fill="none" stroke="midnightblue" d="M905.925,-142.439C860.16,-130.594 777.47,-109.192 726.973,-96.1223"/>
<polygon fill="midnightblue" stroke="midnightblue" points="727.575,-92.6629 717.017,-93.5455 725.821,-99.4396 727.575,-92.6629"/>
</g>
<!-- Node19 -->
<g id="node19" class="node"><title>Node19</title>
<polygon fill="none" stroke="#bfbfbf" points="777,-74.5 777,-93.5 933,-93.5 933,-74.5 777,-74.5"/>
<text text-anchor="middle" x="855" y="-81.5" font-family="Helvetica,sans-Serif" font-size="10.00">Math/GenVector/Transform3D.h</text>
</g>
<!-- Node15&#45;&gt;Node19 -->
<g id="edge20" class="edge"><title>Node15&#45;&gt;Node19</title>
<path fill="none" stroke="midnightblue" d="M928.018,-142.372C914.31,-131.6 890.639,-113.002 873.972,-99.9065"/>
<polygon fill="midnightblue" stroke="midnightblue" points="876.01,-97.0566 865.984,-93.6305 871.685,-102.561 876.01,-97.0566"/>
</g>
<!-- Node20 -->
<g id="node20" class="node"><title>Node20</title>
<polygon fill="none" stroke="#bfbfbf" points="951,-74.5 951,-93.5 1111,-93.5 1111,-74.5 951,-74.5"/>
<text text-anchor="middle" x="1031" y="-81.5" font-family="Helvetica,sans-Serif" font-size="10.00">Math/GenVector/Translation3D.h</text>
</g>
<!-- Node15&#45;&gt;Node20 -->
<g id="edge21" class="edge"><title>Node15&#45;&gt;Node20</title>
<path fill="none" stroke="midnightblue" d="M951.027,-142.372C966.18,-131.502 992.443,-112.66 1010.72,-99.5474"/>
<polygon fill="midnightblue" stroke="midnightblue" points="1012.88,-102.303 1018.97,-93.6305 1008.8,-96.6157 1012.88,-102.303"/>
</g>
<!-- Node15&#45;&gt;Node21 -->
<g id="edge23" class="edge"><title>Node15&#45;&gt;Node21</title>
<path fill="none" stroke="midnightblue" d="M989.776,-142.461C1041.13,-133.429 1122.61,-118.009 1192,-100 1195.9,-98.9881 1199.95,-97.8417 1203.97,-96.6444"/>
<polygon fill="midnightblue" stroke="midnightblue" points="1205.26,-99.9088 1213.78,-93.611 1203.19,-93.2212 1205.26,-99.9088"/>
</g>
<!-- Node22 -->
<g id="node22" class="node"><title>Node22</title>
<polygon fill="none" stroke="#bfbfbf" points="1129,-74.5 1129,-93.5 1183,-93.5 1183,-74.5 1129,-74.5"/>
<text text-anchor="middle" x="1156" y="-81.5" font-family="Helvetica,sans-Serif" font-size="10.00">iostream</text>
</g>
<!-- Node15&#45;&gt;Node22 -->
<g id="edge24" class="edge"><title>Node15&#45;&gt;Node22</title>
<path fill="none" stroke="midnightblue" d="M974.084,-142.449C1010.83,-133.182 1070.05,-117.374 1120,-100 1122.41,-99.1631 1124.88,-98.2482 1127.36,-97.2963"/>
<polygon fill="midnightblue" stroke="midnightblue" points="1128.76,-100.504 1136.73,-93.5283 1126.15,-94.0091 1128.76,-100.504"/>
</g>
<!-- Node23 -->
<g id="node23" class="node"><title>Node23</title>
<g id="a_node23"><a xlink:href="../../d2/dd0/Cartesian2D_8h.html" target="_top" xlink:title="MathUtils/Cartesian2D.h">
<polygon fill="none" stroke="black" points="103.5,-74.5 103.5,-93.5 228.5,-93.5 228.5,-74.5 103.5,-74.5"/>
<text text-anchor="middle" x="166" y="-81.5" font-family="Helvetica,sans-Serif" font-size="10.00">MathUtils/Cartesian2D.h</text>
</a>
</g>
</g>
<!-- Node15&#45;&gt;Node23 -->
<g id="edge25" class="edge"><title>Node15&#45;&gt;Node23</title>
<path fill="none" stroke="midnightblue" d="M876.246,-149.295C753.114,-145.321 471.427,-133.123 237,-100 228.752,-98.8346 220.029,-97.2707 211.625,-95.5917"/>
<polygon fill="midnightblue" stroke="midnightblue" points="212.091,-92.1137 201.588,-93.5059 210.666,-98.9673 212.091,-92.1137"/>
</g>
<!-- Node24 -->
<g id="node24" class="node"><title>Node24</title>
<polygon fill="none" stroke="#bfbfbf" points="-0.5,-1 -0.5,-31 150.5,-31 150.5,-1 -0.5,-1"/>
<text text-anchor="start" x="7.5" y="-19" font-family="Helvetica,sans-Serif" font-size="10.00">Math/GenVector/Displacement</text>
<text text-anchor="middle" x="75" y="-8" font-family="Helvetica,sans-Serif" font-size="10.00">Vector2D.h</text>
</g>
<!-- Node23&#45;&gt;Node24 -->
<g id="edge26" class="edge"><title>Node23&#45;&gt;Node24</title>
<path fill="none" stroke="midnightblue" d="M154.103,-74.3717C141.221,-65.0286 120.22,-49.7966 103.093,-37.375"/>
<polygon fill="midnightblue" stroke="midnightblue" points="104.703,-34.2194 94.5532,-31.1815 100.593,-39.8859 104.703,-34.2194"/>
</g>
<!-- Node25 -->
<g id="node25" class="node"><title>Node25</title>
<polygon fill="none" stroke="#bfbfbf" points="169,-6.5 169,-25.5 345,-25.5 345,-6.5 169,-6.5"/>
<text text-anchor="middle" x="257" y="-13.5" font-family="Helvetica,sans-Serif" font-size="10.00">Math/GenVector/PositionVector2D.h</text>
</g>
<!-- Node23&#45;&gt;Node25 -->
<g id="edge27" class="edge"><title>Node23&#45;&gt;Node25</title>
<path fill="none" stroke="midnightblue" d="M177.897,-74.3717C192.884,-63.5015 218.862,-44.6602 236.942,-31.5474"/>
<polygon fill="midnightblue" stroke="midnightblue" points="239.06,-34.3349 245.1,-25.6305 234.95,-28.6684 239.06,-34.3349"/>
</g>
</g>
</svg>
        <g id="navigator" transform="translate(0 0)" fill="#404254">
                <rect fill="#f2f5e9" fill-opacity="0.5" stroke="#606060" stroke-width=".5" x="0" y="0" width="60" height="60"/>
                <use id="zoomplus" xlink:href="#zoomPlus" x="17" y="9" onmousedown="handleZoom(evt,'in')"/>
                <use id="zoomminus" xlink:href="#zoomMin" x="42" y="9" onmousedown="handleZoom(evt,'out')"/>
                <use id="reset" xlink:href="#resetDef" x="30" y="36" onmousedown="handleReset()"/>
                <g id="arrowUp" xlink:href="#dirArrow" transform="translate(30 24)" onmousedown="handlePan(0,-1)">
                  <use xlink:href="#rim" fill="#404040">
                        <set attributeName="fill" to="#808080" begin="arrowUp.mouseover" end="arrowUp.mouseout"/>
                  </use>
                  <path fill="none" stroke="white" stroke-width="1.5" d="M0,-3.0v7 M-2.5,-0.5L0,-3.0L2.5,-0.5"/>
                </g>
                <g id="arrowRight" xlink:href="#dirArrow" transform="rotate(90) translate(36 -43)" onmousedown="handlePan(1,0)">
                  <use xlink:href="#rim" fill="#404040">
                        <set attributeName="fill" to="#808080" begin="arrowRight.mouseover" end="arrowRight.mouseout"/>
                  </use>
                  <path fill="none" stroke="white" stroke-width="1.5" d="M0,-3.0v7 M-2.5,-0.5L0,-3.0L2.5,-0.5"/>
                </g>
                <g id="arrowDown" xlink:href="#dirArrow" transform="rotate(180) translate(-30 -48)" onmousedown="handlePan(0,1)">
                  <use xlink:href="#rim" fill="#404040">
                        <set attributeName="fill" to="#808080" begin="arrowDown.mouseover" end="arrowDown.mouseout"/>
                  </use>
                  <path fill="none" stroke="white" stroke-width="1.5" d="M0,-3.0v7 M-2.5,-0.5L0,-3.0L2.5,-0.5"/>
                </g>
                <g id="arrowLeft" xlink:href="#dirArrow" transform="rotate(270) translate(-36 17)" onmousedown="handlePan(-1,0)">
                  <use xlink:href="#rim" fill="#404040">
                        <set attributeName="fill" to="#808080" begin="arrowLeft.mouseover" end="arrowLeft.mouseout"/>
                  </use>
                  <path fill="none" stroke="white" stroke-width="1.5" d="M0,-3.0v7 M-2.5,-0.5L0,-3.0L2.5,-0.5"/>
                </g>
        </g>
        <svg viewBox="0 0 15 15" width="100%" height="30px" preserveAspectRatio="xMaxYMin meet">
         <g id="arrow_out" transform="scale(0.3 0.3)">
          <a xlink:href="DetMatrixCache_8cxx__incl_org.svg" target="_base">
           <rect id="button" ry="5" rx="5" y="6" x="6" height="38" width="38"
                fill="#f2f5e9" fill-opacity="0.5" stroke="#606060" stroke-width="1.0"/>
           <path id="arrow"
             d="M 11.500037,31.436501 C 11.940474,20.09759 22.043105,11.32322 32.158766,21.979434 L 37.068811,17.246167 C 37.068811,17.246167 37.088388,32 37.088388,32 L 22.160133,31.978069 C 22.160133,31.978069 26.997745,27.140456 26.997745,27.140456 C 18.528582,18.264221 13.291696,25.230495 11.500037,31.436501 z"
             style="fill:#404040;"/>
          </a>
         </g>
        </svg>
</svg>
