<?xml version="1.0" encoding="UTF-8" standalone="no"?>
<!DOCTYPE svg PUBLIC "-//W3C//DTD SVG 1.1//EN"
 "http://www.w3.org/Graphics/SVG/1.1/DTD/svg11.dtd">
<!-- Generated by graphviz version 2.36.0 (20140111.2315)
 -->
<!-- Title: /home/travis/build/AliceO2Group/AliceO2/Detectors/Passive/src/Hall.cxx Pages: 1 -->
<!--zoomable 230 -->
<svg id="main" version="1.1" xmlns="http://www.w3.org/2000/svg" xmlns:xlink="http://www.w3.org/1999/xlink" xml:space="preserve" onload="init(evt)">
<style type="text/css"><![CDATA[
.edge:hover path { stroke: red; }
.edge:hover polygon { stroke: red; fill: red; }
]]></style>
<script type="text/javascript"><![CDATA[
var edges = document.getElementsByTagName('g');
if (edges && edges.length) {
  for (var i=0;i<edges.length;i++) {
    if (edges[i].id.substr(0,4)=='edge') {
      edges[i].setAttribute('class','edge');
    }
  }
}
]]></script>
        <defs>
                <circle id="rim" cx="0" cy="0" r="7"/>
                <circle id="rim2" cx="0" cy="0" r="3.5"/>
                <g id="zoomPlus">
                        <use xlink:href="#rim" fill="#404040">
                                <set attributeName="fill" to="#808080" begin="zoomplus.mouseover" end="zoomplus.mouseout"/>
                        </use>
                        <path d="M-4,0h8M0,-4v8" fill="none" stroke="white" stroke-width="1.5" pointer-events="none"/>
                </g>
                <g id="zoomMin">
                        <use xlink:href="#rim" fill="#404040">
                                <set attributeName="fill" to="#808080" begin="zoomminus.mouseover" end="zoomminus.mouseout"/>
                        </use>
                        <path d="M-4,0h8" fill="none" stroke="white" stroke-width="1.5" pointer-events="none"/>
                </g>
                <g id="dirArrow">
                        <path fill="none" stroke="white" stroke-width="1.5" d="M0,-3.0v7 M-2.5,-0.5L0,-3.0L2.5,-0.5"/>
                </g>
               <g id="resetDef">
                       <use xlink:href="#rim2" fill="#404040">
                               <set attributeName="fill" to="#808080" begin="reset.mouseover" end="reset.mouseout"/>
                       </use>
               </g>
        </defs>

<script type="text/javascript">
var viewWidth = 1746;
var viewHeight = 230;
var sectionId = 'dynsection-0';
</script>
<script xlink:href="../../svgpan.js"/>
<svg id="graph" class="graph">
<g id="viewport">
<title>/home/travis/build/AliceO2Group/AliceO2/Detectors/Passive/src/Hall.cxx</title>
<!-- Node1 -->
<g id="node1" class="node"><title>Node1</title>
<polygon fill="#bfbfbf" stroke="black" points="1143,-169 1143,-221 1261,-221 1261,-169 1143,-169"/>
<text text-anchor="start" x="1151" y="-209" font-family="Helvetica,sans-Serif" font-size="10.00">/home/travis/build</text>
<text text-anchor="start" x="1151" y="-198" font-family="Helvetica,sans-Serif" font-size="10.00">/AliceO2Group/AliceO2</text>
<text text-anchor="start" x="1151" y="-187" font-family="Helvetica,sans-Serif" font-size="10.00">/Detectors/Passive/src</text>
<text text-anchor="middle" x="1202" y="-176" font-family="Helvetica,sans-Serif" font-size="10.00">/Hall.cxx</text>
</g>
<!-- Node2 -->
<g id="node2" class="node"><title>Node2</title>
<g id="a_node2"><a xlink:href="../../d1/d3a/Base_2include_2DetectorsBase_2Detector_8h.html" target="_top" xlink:title="DetectorsBase/Detector.h">
<polygon fill="none" stroke="black" points="368.5,-112.5 368.5,-131.5 499.5,-131.5 499.5,-112.5 368.5,-112.5"/>
<text text-anchor="middle" x="434" y="-119.5" font-family="Helvetica,sans-Serif" font-size="10.00">DetectorsBase/Detector.h</text>
</a>
</g>
</g>
<!-- Node1&#45;&gt;Node2 -->
<g id="edge1" class="edge"><title>Node1&#45;&gt;Node2</title>
<path fill="none" stroke="midnightblue" d="M1142.69,-188.517C1004.78,-175.767 662.632,-144.137 509.82,-130.009"/>
<polygon fill="midnightblue" stroke="midnightblue" points="509.871,-126.499 499.591,-129.064 509.227,-133.47 509.871,-126.499"/>
</g>
<!-- Node8 -->
<g id="node8" class="node"><title>Node8</title>
<g id="a_node8"><a xlink:href="../../d0/d9a/MaterialManager_8h.html" target="_top" xlink:title="DetectorsBase/MaterialManager.h">
<polygon fill="none" stroke="black" points="705.5,-56.5 705.5,-75.5 870.5,-75.5 870.5,-56.5 705.5,-56.5"/>
<text text-anchor="middle" x="788" y="-63.5" font-family="Helvetica,sans-Serif" font-size="10.00">DetectorsBase/MaterialManager.h</text>
</a>
</g>
</g>
<!-- Node1&#45;&gt;Node8 -->
<g id="edge15" class="edge"><title>Node1&#45;&gt;Node8</title>
<path fill="none" stroke="midnightblue" d="M1142.79,-192.286C1045.05,-188.251 855.88,-174.963 807,-132 793.911,-120.496 789.61,-100.524 788.307,-85.7459"/>
<polygon fill="midnightblue" stroke="midnightblue" points="791.799,-85.495 787.801,-75.6838 784.808,-85.8472 791.799,-85.495"/>
</g>
<!-- Node14 -->
<g id="node14" class="node"><title>Node14</title>
<g id="a_node14"><a xlink:href="../../dc/db0/Hall_8h.html" target="_top" xlink:title="DetectorsPassive/Hall.h">
<polygon fill="none" stroke="black" points="816.5,-112.5 816.5,-131.5 939.5,-131.5 939.5,-112.5 816.5,-112.5"/>
<text text-anchor="middle" x="878" y="-119.5" font-family="Helvetica,sans-Serif" font-size="10.00">DetectorsPassive/Hall.h</text>
</a>
</g>
</g>
<!-- Node1&#45;&gt;Node14 -->
<g id="edge16" class="edge"><title>Node1&#45;&gt;Node14</title>
<path fill="none" stroke="midnightblue" d="M1142.95,-181.06C1080.96,-167.476 984.639,-146.368 926.801,-133.694"/>
<polygon fill="midnightblue" stroke="midnightblue" points="927.333,-130.228 916.815,-131.506 925.834,-137.065 927.333,-130.228"/>
</g>
<!-- Node16 -->
<g id="node16" class="node"><title>Node16</title>
<polygon fill="none" stroke="#bfbfbf" points="957.5,-112.5 957.5,-131.5 1034.5,-131.5 1034.5,-112.5 957.5,-112.5"/>
<text text-anchor="middle" x="996" y="-119.5" font-family="Helvetica,sans-Serif" font-size="10.00">FairRunSim.h</text>
</g>
<!-- Node1&#45;&gt;Node16 -->
<g id="edge18" class="edge"><title>Node1&#45;&gt;Node16</title>
<path fill="none" stroke="midnightblue" d="M1142.97,-173.654C1106.54,-161.1 1061.09,-145.433 1030.45,-134.874"/>
<polygon fill="midnightblue" stroke="midnightblue" points="1031.26,-131.45 1020.66,-131.501 1028.98,-138.068 1031.26,-131.45"/>
</g>
<!-- Node17 -->
<g id="node17" class="node"><title>Node17</title>
<polygon fill="none" stroke="#bfbfbf" points="1052.5,-112.5 1052.5,-131.5 1121.5,-131.5 1121.5,-112.5 1052.5,-112.5"/>
<text text-anchor="middle" x="1087" y="-119.5" font-family="Helvetica,sans-Serif" font-size="10.00">TGeoArb8.h</text>
</g>
<!-- Node1&#45;&gt;Node17 -->
<g id="edge19" class="edge"><title>Node1&#45;&gt;Node17</title>
<path fill="none" stroke="midnightblue" d="M1161.46,-168.968C1144.16,-158.291 1124.62,-146.227 1109.9,-137.138"/>
<polygon fill="midnightblue" stroke="midnightblue" points="1111.34,-133.914 1100.99,-131.639 1107.66,-139.87 1111.34,-133.914"/>
</g>
<!-- Node18 -->
<g id="node18" class="node"><title>Node18</title>
<polygon fill="none" stroke="#bfbfbf" points="1140,-112.5 1140,-131.5 1264,-131.5 1264,-112.5 1140,-112.5"/>
<text text-anchor="middle" x="1202" y="-119.5" font-family="Helvetica,sans-Serif" font-size="10.00">TGeoCompositeShape.h</text>
</g>
<!-- Node1&#45;&gt;Node18 -->
<g id="edge20" class="edge"><title>Node1&#45;&gt;Node18</title>
<path fill="none" stroke="midnightblue" d="M1202,-168.768C1202,-159.89 1202,-150.074 1202,-141.816"/>
<polygon fill="midnightblue" stroke="midnightblue" points="1205.5,-141.757 1202,-131.757 1198.5,-141.757 1205.5,-141.757"/>
</g>
<!-- Node19 -->
<g id="node19" class="node"><title>Node19</title>
<polygon fill="none" stroke="#bfbfbf" points="1282,-112.5 1282,-131.5 1368,-131.5 1368,-112.5 1282,-112.5"/>
<text text-anchor="middle" x="1325" y="-119.5" font-family="Helvetica,sans-Serif" font-size="10.00">TGeoManager.h</text>
</g>
<!-- Node1&#45;&gt;Node19 -->
<g id="edge21" class="edge"><title>Node1&#45;&gt;Node19</title>
<path fill="none" stroke="midnightblue" d="M1245.37,-168.968C1264.04,-158.19 1285.16,-145.997 1300.96,-136.879"/>
<polygon fill="midnightblue" stroke="midnightblue" points="1303.12,-139.669 1310.03,-131.639 1299.62,-133.607 1303.12,-139.669"/>
</g>
<!-- Node20 -->
<g id="node20" class="node"><title>Node20</title>
<polygon fill="none" stroke="#bfbfbf" points="1386,-112.5 1386,-131.5 1462,-131.5 1462,-112.5 1386,-112.5"/>
<text text-anchor="middle" x="1424" y="-119.5" font-family="Helvetica,sans-Serif" font-size="10.00">TGeoMatrix.h</text>
</g>
<!-- Node1&#45;&gt;Node20 -->
<g id="edge22" class="edge"><title>Node1&#45;&gt;Node20</title>
<path fill="none" stroke="midnightblue" d="M1261.2,-175.067C1301.42,-162.205 1353.33,-145.603 1387.59,-134.645"/>
<polygon fill="midnightblue" stroke="midnightblue" points="1388.73,-137.954 1397.19,-131.574 1386.6,-131.287 1388.73,-137.954"/>
</g>
<!-- Node21 -->
<g id="node21" class="node"><title>Node21</title>
<polygon fill="none" stroke="#bfbfbf" points="1480,-112.5 1480,-131.5 1548,-131.5 1548,-112.5 1480,-112.5"/>
<text text-anchor="middle" x="1514" y="-119.5" font-family="Helvetica,sans-Serif" font-size="10.00">TGeoTrd1.h</text>
</g>
<!-- Node1&#45;&gt;Node21 -->
<g id="edge23" class="edge"><title>Node1&#45;&gt;Node21</title>
<path fill="none" stroke="midnightblue" d="M1261.05,-180.562C1321.8,-166.739 1415.03,-145.522 1469.72,-133.076"/>
<polygon fill="midnightblue" stroke="midnightblue" points="1470.82,-136.415 1479.8,-130.783 1469.27,-129.589 1470.82,-136.415"/>
</g>
<!-- Node22 -->
<g id="node22" class="node"><title>Node22</title>
<polygon fill="none" stroke="#bfbfbf" points="1566.5,-112.5 1566.5,-131.5 1637.5,-131.5 1637.5,-112.5 1566.5,-112.5"/>
<text text-anchor="middle" x="1602" y="-119.5" font-family="Helvetica,sans-Serif" font-size="10.00">TGeoTube.h</text>
</g>
<!-- Node1&#45;&gt;Node22 -->
<g id="edge24" class="edge"><title>Node1&#45;&gt;Node22</title>
<path fill="none" stroke="midnightblue" d="M1261.12,-184.129C1329.58,-172.598 1446,-152.675 1556.2,-132.115"/>
<polygon fill="midnightblue" stroke="midnightblue" points="1556.97,-135.531 1566.15,-130.251 1555.68,-128.65 1556.97,-135.531"/>
</g>
<!-- Node23 -->
<g id="node23" class="node"><title>Node23</title>
<polygon fill="none" stroke="#bfbfbf" points="1656,-112.5 1656,-131.5 1738,-131.5 1738,-112.5 1656,-112.5"/>
<text text-anchor="middle" x="1697" y="-119.5" font-family="Helvetica,sans-Serif" font-size="10.00">TGeoVolume.h</text>
</g>
<!-- Node1&#45;&gt;Node23 -->
<g id="edge25" class="edge"><title>Node1&#45;&gt;Node23</title>
<path fill="none" stroke="midnightblue" d="M1261.35,-186.402C1344.68,-175.58 1501.34,-154.678 1645.88,-131.965"/>
<polygon fill="midnightblue" stroke="midnightblue" points="1646.49,-135.412 1655.83,-130.397 1645.4,-128.498 1646.49,-135.412"/>
</g>
<!-- Node3 -->
<g id="node3" class="node"><title>Node3</title>
<polygon fill="none" stroke="#bfbfbf" points="714.5,-0.5 714.5,-19.5 749.5,-19.5 749.5,-0.5 714.5,-0.5"/>
<text text-anchor="middle" x="732" y="-7.5" font-family="Helvetica,sans-Serif" font-size="10.00">map</text>
</g>
<!-- Node2&#45;&gt;Node3 -->
<g id="edge2" class="edge"><title>Node2&#45;&gt;Node3</title>
<path fill="none" stroke="midnightblue" d="M499.79,-116.617C545.773,-111.472 607.548,-100.292 657,-76 681.271,-64.0775 703.97,-42.345 717.903,-27.3108"/>
<polygon fill="midnightblue" stroke="midnightblue" points="720.615,-29.5297 724.696,-19.7525 715.408,-24.8505 720.615,-29.5297"/>
</g>
<!-- Node4 -->
<g id="node4" class="node"><title>Node4</title>
<polygon fill="none" stroke="#bfbfbf" points="437,-56.5 437,-75.5 481,-75.5 481,-56.5 437,-56.5"/>
<text text-anchor="middle" x="459" y="-63.5" font-family="Helvetica,sans-Serif" font-size="10.00">vector</text>
</g>
<!-- Node2&#45;&gt;Node4 -->
<g id="edge3" class="edge"><title>Node2&#45;&gt;Node4</title>
<path fill="none" stroke="midnightblue" d="M438.128,-112.083C441.514,-104.77 446.416,-94.1814 450.619,-85.1034"/>
<polygon fill="midnightblue" stroke="midnightblue" points="453.923,-86.2962 454.949,-75.7511 447.571,-83.3553 453.923,-86.2962"/>
</g>
<!-- Node5 -->
<g id="node5" class="node"><title>Node5</title>
<polygon fill="none" stroke="#bfbfbf" points="499,-56.5 499,-75.5 551,-75.5 551,-56.5 499,-56.5"/>
<text text-anchor="middle" x="525" y="-63.5" font-family="Helvetica,sans-Serif" font-size="10.00">memory</text>
</g>
<!-- Node2&#45;&gt;Node5 -->
<g id="edge4" class="edge"><title>Node2&#45;&gt;Node5</title>
<path fill="none" stroke="midnightblue" d="M448.621,-112.324C462.949,-103.822 485.013,-90.7288 501.749,-80.7975"/>
<polygon fill="midnightblue" stroke="midnightblue" points="503.602,-83.7677 510.416,-75.6545 500.03,-77.7478 503.602,-83.7677"/>
</g>
<!-- Node6 -->
<g id="node6" class="node"><title>Node6</title>
<polygon fill="none" stroke="#bfbfbf" points="569.5,-56.5 569.5,-75.5 648.5,-75.5 648.5,-56.5 569.5,-56.5"/>
<text text-anchor="middle" x="609" y="-63.5" font-family="Helvetica,sans-Serif" font-size="10.00">FairDetector.h</text>
</g>
<!-- Node2&#45;&gt;Node6 -->
<g id="edge5" class="edge"><title>Node2&#45;&gt;Node6</title>
<path fill="none" stroke="midnightblue" d="M461.729,-112.444C491.426,-103.28 538.716,-88.6876 571.669,-78.5192"/>
<polygon fill="midnightblue" stroke="midnightblue" points="572.877,-81.8094 581.4,-75.5164 570.813,-75.1206 572.877,-81.8094"/>
</g>
<!-- Node7 -->
<g id="node7" class="node"><title>Node7</title>
<polygon fill="none" stroke="#bfbfbf" points="0,-56.5 0,-75.5 100,-75.5 100,-56.5 0,-56.5"/>
<text text-anchor="middle" x="50" y="-63.5" font-family="Helvetica,sans-Serif" font-size="10.00">FairRootManager.h</text>
</g>
<!-- Node2&#45;&gt;Node7 -->
<g id="edge6" class="edge"><title>Node2&#45;&gt;Node7</title>
<path fill="none" stroke="midnightblue" d="M370.442,-112.463C307.077,-103.893 206.692,-90.1539 110.138,-76.1501"/>
<polygon fill="midnightblue" stroke="midnightblue" points="110.604,-72.6812 100.205,-74.7065 109.598,-79.6085 110.604,-72.6812"/>
</g>
<!-- Node2&#45;&gt;Node8 -->
<g id="edge7" class="edge"><title>Node2&#45;&gt;Node8</title>
<path fill="none" stroke="midnightblue" d="M490.092,-112.444C553.141,-102.826 655.397,-87.2275 722.176,-77.0409"/>
<polygon fill="midnightblue" stroke="midnightblue" points="722.812,-80.4845 732.17,-75.5164 721.757,-73.5645 722.812,-80.4845"/>
</g>
<!-- Node9 -->
<g id="node9" class="node"><title>Node9</title>
<polygon fill="none" stroke="#bfbfbf" points="538,-0.5 538,-19.5 594,-19.5 594,-0.5 538,-0.5"/>
<text text-anchor="middle" x="566" y="-7.5" font-family="Helvetica,sans-Serif" font-size="10.00">Rtypes.h</text>
</g>
<!-- Node2&#45;&gt;Node9 -->
<g id="edge10" class="edge"><title>Node2&#45;&gt;Node9</title>
<path fill="none" stroke="midnightblue" d="M429.937,-112.472C424.21,-99.072 415.752,-72.8762 428,-56 450.638,-24.8064 495.485,-14.8235 527.922,-11.841"/>
<polygon fill="midnightblue" stroke="midnightblue" points="528.258,-15.3258 537.974,-11.1006 527.744,-8.34473 528.258,-15.3258"/>
</g>
<!-- Node10 -->
<g id="node10" class="node"><title>Node10</title>
<polygon fill="none" stroke="#bfbfbf" points="118.5,-56.5 118.5,-75.5 171.5,-75.5 171.5,-56.5 118.5,-56.5"/>
<text text-anchor="middle" x="145" y="-63.5" font-family="Helvetica,sans-Serif" font-size="10.00">cxxabi.h</text>
</g>
<!-- Node2&#45;&gt;Node10 -->
<g id="edge11" class="edge"><title>Node2&#45;&gt;Node10</title>
<path fill="none" stroke="midnightblue" d="M378.765,-112.462C329.37,-104.545 254.804,-91.9013 181.558,-76.2206"/>
<polygon fill="midnightblue" stroke="midnightblue" points="182.217,-72.7822 171.703,-74.0903 180.738,-79.6241 182.217,-72.7822"/>
</g>
<!-- Node11 -->
<g id="node11" class="node"><title>Node11</title>
<polygon fill="none" stroke="#bfbfbf" points="189.5,-56.5 189.5,-75.5 240.5,-75.5 240.5,-56.5 189.5,-56.5"/>
<text text-anchor="middle" x="215" y="-63.5" font-family="Helvetica,sans-Serif" font-size="10.00">typeinfo</text>
</g>
<!-- Node2&#45;&gt;Node11 -->
<g id="edge12" class="edge"><title>Node2&#45;&gt;Node11</title>
<path fill="none" stroke="midnightblue" d="M398.695,-112.497C363.658,-104.029 308.164,-90.5398 250.611,-76.1307"/>
<polygon fill="midnightblue" stroke="midnightblue" points="251.156,-72.6591 240.605,-73.6215 249.454,-79.4489 251.156,-72.6591"/>
</g>
<!-- Node12 -->
<g id="node12" class="node"><title>Node12</title>
<polygon fill="none" stroke="#bfbfbf" points="259,-56.5 259,-75.5 321,-75.5 321,-56.5 259,-56.5"/>
<text text-anchor="middle" x="290" y="-63.5" font-family="Helvetica,sans-Serif" font-size="10.00">type_traits</text>
</g>
<!-- Node2&#45;&gt;Node12 -->
<g id="edge13" class="edge"><title>Node2&#45;&gt;Node12</title>
<path fill="none" stroke="midnightblue" d="M411.183,-112.444C387.168,-103.438 349.171,-89.1891 322.131,-79.049"/>
<polygon fill="midnightblue" stroke="midnightblue" points="323.303,-75.7506 312.71,-75.5164 320.845,-82.3049 323.303,-75.7506"/>
</g>
<!-- Node13 -->
<g id="node13" class="node"><title>Node13</title>
<polygon fill="none" stroke="#bfbfbf" points="339.5,-56.5 339.5,-75.5 380.5,-75.5 380.5,-56.5 339.5,-56.5"/>
<text text-anchor="middle" x="360" y="-63.5" font-family="Helvetica,sans-Serif" font-size="10.00">string</text>
</g>
<!-- Node2&#45;&gt;Node13 -->
<g id="edge14" class="edge"><title>Node2&#45;&gt;Node13</title>
<path fill="none" stroke="midnightblue" d="M422.111,-112.324C410.85,-104.107 393.713,-91.6017 380.291,-81.8069"/>
<polygon fill="midnightblue" stroke="midnightblue" points="382.247,-78.9014 372.106,-75.8339 378.12,-84.5559 382.247,-78.9014"/>
</g>
<!-- Node8&#45;&gt;Node3 -->
<g id="edge9" class="edge"><title>Node8&#45;&gt;Node3</title>
<path fill="none" stroke="midnightblue" d="M779.003,-56.324C770.806,-48.4196 758.494,-36.5482 748.528,-26.9377"/>
<polygon fill="midnightblue" stroke="midnightblue" points="750.789,-24.2558 741.161,-19.8339 745.93,-29.2947 750.789,-24.2558"/>
</g>
<!-- Node8&#45;&gt;Node9 -->
<g id="edge8" class="edge"><title>Node8&#45;&gt;Node9</title>
<path fill="none" stroke="midnightblue" d="M752.823,-56.4435C712.275,-46.5804 645.868,-30.4272 604.116,-20.2715"/>
<polygon fill="midnightblue" stroke="midnightblue" points="604.864,-16.8514 594.32,-17.8886 603.209,-23.6531 604.864,-16.8514"/>
</g>
<!-- Node15 -->
<g id="node15" class="node"><title>Node15</title>
<polygon fill="none" stroke="#bfbfbf" points="888.5,-56.5 888.5,-75.5 961.5,-75.5 961.5,-56.5 888.5,-56.5"/>
<text text-anchor="middle" x="925" y="-63.5" font-family="Helvetica,sans-Serif" font-size="10.00">FairModule.h</text>
</g>
<!-- Node14&#45;&gt;Node15 -->
<g id="edge17" class="edge"><title>Node14&#45;&gt;Node15</title>
<path fill="none" stroke="midnightblue" d="M885.761,-112.083C892.537,-104.298 902.543,-92.8015 910.755,-83.3665"/>
<polygon fill="midnightblue" stroke="midnightblue" points="913.458,-85.592 917.383,-75.7511 908.178,-80.9963 913.458,-85.592"/>
</g>
</g>
</svg>
        <g id="navigator" transform="translate(0 0)" fill="#404254">
                <rect fill="#f2f5e9" fill-opacity="0.5" stroke="#606060" stroke-width=".5" x="0" y="0" width="60" height="60"/>
                <use id="zoomplus" xlink:href="#zoomPlus" x="17" y="9" onmousedown="handleZoom(evt,'in')"/>
                <use id="zoomminus" xlink:href="#zoomMin" x="42" y="9" onmousedown="handleZoom(evt,'out')"/>
                <use id="reset" xlink:href="#resetDef" x="30" y="36" onmousedown="handleReset()"/>
                <g id="arrowUp" xlink:href="#dirArrow" transform="translate(30 24)" onmousedown="handlePan(0,-1)">
                  <use xlink:href="#rim" fill="#404040">
                        <set attributeName="fill" to="#808080" begin="arrowUp.mouseover" end="arrowUp.mouseout"/>
                  </use>
                  <path fill="none" stroke="white" stroke-width="1.5" d="M0,-3.0v7 M-2.5,-0.5L0,-3.0L2.5,-0.5"/>
                </g>
                <g id="arrowRight" xlink:href="#dirArrow" transform="rotate(90) translate(36 -43)" onmousedown="handlePan(1,0)">
                  <use xlink:href="#rim" fill="#404040">
                        <set attributeName="fill" to="#808080" begin="arrowRight.mouseover" end="arrowRight.mouseout"/>
                  </use>
                  <path fill="none" stroke="white" stroke-width="1.5" d="M0,-3.0v7 M-2.5,-0.5L0,-3.0L2.5,-0.5"/>
                </g>
                <g id="arrowDown" xlink:href="#dirArrow" transform="rotate(180) translate(-30 -48)" onmousedown="handlePan(0,1)">
                  <use xlink:href="#rim" fill="#404040">
                        <set attributeName="fill" to="#808080" begin="arrowDown.mouseover" end="arrowDown.mouseout"/>
                  </use>
                  <path fill="none" stroke="white" stroke-width="1.5" d="M0,-3.0v7 M-2.5,-0.5L0,-3.0L2.5,-0.5"/>
                </g>
                <g id="arrowLeft" xlink:href="#dirArrow" transform="rotate(270) translate(-36 17)" onmousedown="handlePan(-1,0)">
                  <use xlink:href="#rim" fill="#404040">
                        <set attributeName="fill" to="#808080" begin="arrowLeft.mouseover" end="arrowLeft.mouseout"/>
                  </use>
                  <path fill="none" stroke="white" stroke-width="1.5" d="M0,-3.0v7 M-2.5,-0.5L0,-3.0L2.5,-0.5"/>
                </g>
        </g>
        <svg viewBox="0 0 15 15" width="100%" height="30px" preserveAspectRatio="xMaxYMin meet">
         <g id="arrow_out" transform="scale(0.3 0.3)">
          <a xlink:href="Hall_8cxx__incl_org.svg" target="_base">
           <rect id="button" ry="5" rx="5" y="6" x="6" height="38" width="38"
                fill="#f2f5e9" fill-opacity="0.5" stroke="#606060" stroke-width="1.0"/>
           <path id="arrow"
             d="M 11.500037,31.436501 C 11.940474,20.09759 22.043105,11.32322 32.158766,21.979434 L 37.068811,17.246167 C 37.068811,17.246167 37.088388,32 37.088388,32 L 22.160133,31.978069 C 22.160133,31.978069 26.997745,27.140456 26.997745,27.140456 C 18.528582,18.264221 13.291696,25.230495 11.500037,31.436501 z"
             style="fill:#404040;"/>
          </a>
         </g>
        </svg>
</svg>
