<?xml version="1.0" encoding="UTF-8" standalone="no"?>
<!DOCTYPE svg PUBLIC "-//W3C//DTD SVG 1.1//EN"
 "http://www.w3.org/Graphics/SVG/1.1/DTD/svg11.dtd">
<!-- Generated by graphviz version 2.36.0 (20140111.2315)
 -->
<!-- Title: /home/travis/build/AliceO2Group/AliceO2/Detectors/TOF/simulation/src/DigitizerTask.cxx Pages: 1 -->
<svg width="1696pt" height="502pt"
 viewBox="0.00 0.00 1696.00 502.00" xmlns="http://www.w3.org/2000/svg" xmlns:xlink="http://www.w3.org/1999/xlink">
<g id="graph0" class="graph" transform="scale(1 1) rotate(0) translate(4 498)">
<title>/home/travis/build/AliceO2Group/AliceO2/Detectors/TOF/simulation/src/DigitizerTask.cxx</title>
<!-- Node1 -->
<g id="node1" class="node"><title>Node1</title>
<polygon fill="#bfbfbf" stroke="black" points="982,-441 982,-493 1114,-493 1114,-441 982,-441"/>
<text text-anchor="start" x="990" y="-481" font-family="Helvetica,sans-Serif" font-size="10.00">/home/travis/build</text>
<text text-anchor="start" x="990" y="-470" font-family="Helvetica,sans-Serif" font-size="10.00">/AliceO2Group/AliceO2</text>
<text text-anchor="start" x="990" y="-459" font-family="Helvetica,sans-Serif" font-size="10.00">/Detectors/TOF/simulation</text>
<text text-anchor="middle" x="1048" y="-448" font-family="Helvetica,sans-Serif" font-size="10.00">/src/DigitizerTask.cxx</text>
</g>
<!-- Node2 -->
<g id="node2" class="node"><title>Node2</title>
<g id="a_node2"><a xlink:href="../../d8/dc6/TOF_2simulation_2include_2TOFSimulation_2DigitizerTask_8h.html" target="_top" xlink:title="TOFSimulation/DigitizerTask.h">
<polygon fill="none" stroke="black" points="419.5,-384.5 419.5,-403.5 570.5,-403.5 570.5,-384.5 419.5,-384.5"/>
<text text-anchor="middle" x="495" y="-391.5" font-family="Helvetica,sans-Serif" font-size="10.00">TOFSimulation/DigitizerTask.h</text>
</a>
</g>
</g>
<!-- Node1&#45;&gt;Node2 -->
<g id="edge1" class="edge"><title>Node1&#45;&gt;Node2</title>
<path fill="none" stroke="midnightblue" d="M981.845,-457.506C878.703,-444.264 680.132,-418.769 571.169,-404.779"/>
<polygon fill="midnightblue" stroke="midnightblue" points="571.596,-401.306 561.232,-403.504 570.704,-408.249 571.596,-401.306"/>
</g>
<!-- Node15 -->
<g id="node15" class="node"><title>Node15</title>
<polygon fill="none" stroke="#bfbfbf" points="1253,-136.5 1253,-155.5 1353,-155.5 1353,-136.5 1253,-136.5"/>
<text text-anchor="middle" x="1303" y="-143.5" font-family="Helvetica,sans-Serif" font-size="10.00">FairRootManager.h</text>
</g>
<!-- Node1&#45;&gt;Node15 -->
<g id="edge59" class="edge"><title>Node1&#45;&gt;Node15</title>
<path fill="none" stroke="midnightblue" d="M1034.25,-440.547C1022,-415.47 1006,-375.692 1006,-339 1006,-339 1006,-339 1006,-275 1006,-232.607 1018.42,-216.522 1053,-192 1060.74,-186.514 1170.98,-168.079 1242.46,-156.576"/>
<polygon fill="midnightblue" stroke="midnightblue" points="1243.39,-159.972 1252.71,-154.932 1242.28,-153.06 1243.39,-159.972"/>
</g>
<!-- Node42 -->
<g id="node42" class="node"><title>Node42</title>
<g id="a_node42"><a xlink:href="../../d9/d52/Common_2MathUtils_2include_2MathUtils_2Utils_8h.html" target="_top" xlink:title="MathUtils/Utils.h">
<polygon fill="none" stroke="black" points="1046,-384.5 1046,-403.5 1136,-403.5 1136,-384.5 1046,-384.5"/>
<text text-anchor="middle" x="1091" y="-391.5" font-family="Helvetica,sans-Serif" font-size="10.00">MathUtils/Utils.h</text>
</a>
</g>
</g>
<!-- Node1&#45;&gt;Node42 -->
<g id="edge54" class="edge"><title>Node1&#45;&gt;Node42</title>
<path fill="none" stroke="midnightblue" d="M1063.28,-440.768C1068.96,-431.385 1075.28,-420.955 1080.45,-412.425"/>
<polygon fill="midnightblue" stroke="midnightblue" points="1083.51,-414.124 1085.7,-403.757 1077.52,-410.498 1083.51,-414.124"/>
</g>
<!-- Node46 -->
<g id="node46" class="node"><title>Node46</title>
<polygon fill="none" stroke="#bfbfbf" points="1154.5,-384.5 1154.5,-403.5 1225.5,-403.5 1225.5,-384.5 1154.5,-384.5"/>
<text text-anchor="middle" x="1190" y="-391.5" font-family="Helvetica,sans-Serif" font-size="10.00">FairLogger.h</text>
</g>
<!-- Node1&#45;&gt;Node46 -->
<g id="edge58" class="edge"><title>Node1&#45;&gt;Node46</title>
<path fill="none" stroke="midnightblue" d="M1098.06,-440.968C1120.23,-429.885 1145.39,-417.306 1163.78,-408.112"/>
<polygon fill="midnightblue" stroke="midnightblue" points="1165.34,-411.242 1172.72,-403.639 1162.21,-404.981 1165.34,-411.242"/>
</g>
<!-- Node3 -->
<g id="node3" class="node"><title>Node3</title>
<polygon fill="none" stroke="#bfbfbf" points="-0.5,-328.5 -0.5,-347.5 62.5,-347.5 62.5,-328.5 -0.5,-328.5"/>
<text text-anchor="middle" x="31" y="-335.5" font-family="Helvetica,sans-Serif" font-size="10.00">FairTask.h</text>
</g>
<!-- Node2&#45;&gt;Node3 -->
<g id="edge2" class="edge"><title>Node2&#45;&gt;Node3</title>
<path fill="none" stroke="midnightblue" d="M419.235,-386.817C335.301,-379.508 196.075,-366.024 77,-348 75.5417,-347.779 74.0593,-347.545 72.5635,-347.299"/>
<polygon fill="midnightblue" stroke="midnightblue" points="73.0655,-343.834 62.6115,-345.556 71.8575,-350.729 73.0655,-343.834"/>
</g>
<!-- Node4 -->
<g id="node4" class="node"><title>Node4</title>
<polygon fill="none" stroke="#bfbfbf" points="270,-74.5 270,-93.5 326,-93.5 326,-74.5 270,-74.5"/>
<text text-anchor="middle" x="298" y="-81.5" font-family="Helvetica,sans-Serif" font-size="10.00">Rtypes.h</text>
</g>
<!-- Node2&#45;&gt;Node4 -->
<g id="edge3" class="edge"><title>Node2&#45;&gt;Node4</title>
<path fill="none" stroke="midnightblue" d="M419.485,-386.805C302.552,-375.103 91,-344.591 91,-277 91,-277 91,-277 91,-207 91,-129.673 199.535,-100.364 259.424,-90.0773"/>
<polygon fill="midnightblue" stroke="midnightblue" points="260.338,-93.475 269.652,-88.4238 259.221,-86.5647 260.338,-93.475"/>
</g>
<!-- Node5 -->
<g id="node5" class="node"><title>Node5</title>
<g id="a_node5"><a xlink:href="../../df/d9c/TOF_2base_2include_2TOFBase_2Digit_8h.html" target="_top" xlink:title="TOFBase/Digit.h">
<polygon fill="none" stroke="black" points="289,-266.5 289,-285.5 379,-285.5 379,-266.5 289,-266.5"/>
<text text-anchor="middle" x="334" y="-273.5" font-family="Helvetica,sans-Serif" font-size="10.00">TOFBase/Digit.h</text>
</a>
</g>
</g>
<!-- Node2&#45;&gt;Node5 -->
<g id="edge4" class="edge"><title>Node2&#45;&gt;Node5</title>
<path fill="none" stroke="midnightblue" d="M483.161,-384.47C455.83,-364.778 388.08,-315.964 354.103,-291.484"/>
<polygon fill="midnightblue" stroke="midnightblue" points="356.016,-288.548 345.856,-285.542 351.924,-294.228 356.016,-288.548"/>
</g>
<!-- Node9 -->
<g id="node9" class="node"><title>Node9</title>
<g id="a_node9"><a xlink:href="../../d5/d3c/TOF_2simulation_2include_2TOFSimulation_2Detector_8h.html" target="_top" xlink:title="TOFSimulation/Detector.h">
<polygon fill="none" stroke="black" points="522.5,-266.5 522.5,-285.5 653.5,-285.5 653.5,-266.5 522.5,-266.5"/>
<text text-anchor="middle" x="588" y="-273.5" font-family="Helvetica,sans-Serif" font-size="10.00">TOFSimulation/Detector.h</text>
</a>
</g>
</g>
<!-- Node2&#45;&gt;Node9 -->
<g id="edge10" class="edge"><title>Node2&#45;&gt;Node9</title>
<path fill="none" stroke="midnightblue" d="M495.703,-384.193C497.15,-370.879 501.465,-345.342 514,-328 525.657,-311.873 544.064,-299.157 559.603,-290.456"/>
<polygon fill="midnightblue" stroke="midnightblue" points="561.63,-293.343 568.822,-285.563 558.348,-287.16 561.63,-293.343"/>
</g>
<!-- Node34 -->
<g id="node34" class="node"><title>Node34</title>
<g id="a_node34"><a xlink:href="../../d0/d85/TOF_2simulation_2include_2TOFSimulation_2Digitizer_8h.html" target="_top" xlink:title="TOFSimulation/Digitizer.h">
<polygon fill="none" stroke="black" points="523.5,-328.5 523.5,-347.5 652.5,-347.5 652.5,-328.5 523.5,-328.5"/>
<text text-anchor="middle" x="588" y="-335.5" font-family="Helvetica,sans-Serif" font-size="10.00">TOFSimulation/Digitizer.h</text>
</a>
</g>
</g>
<!-- Node2&#45;&gt;Node34 -->
<g id="edge40" class="edge"><title>Node2&#45;&gt;Node34</title>
<path fill="none" stroke="midnightblue" d="M509.942,-384.324C524.585,-375.822 547.134,-362.729 564.238,-352.797"/>
<polygon fill="midnightblue" stroke="midnightblue" points="566.205,-355.703 573.095,-347.655 562.69,-349.649 566.205,-355.703"/>
</g>
<!-- Node35 -->
<g id="node35" class="node"><title>Node35</title>
<g id="a_node35"><a xlink:href="../../db/d14/MCTruthContainer_8h.html" target="_top" xlink:title="Definition of a container to keep Monte Carlo truth external to simulation objects. ">
<polygon fill="none" stroke="black" points="1046,-261 1046,-291 1160,-291 1160,-261 1046,-261"/>
<text text-anchor="start" x="1054" y="-279" font-family="Helvetica,sans-Serif" font-size="10.00">SimulationDataFormat</text>
<text text-anchor="middle" x="1103" y="-268" font-family="Helvetica,sans-Serif" font-size="10.00">/MCTruthContainer.h</text>
</a>
</g>
</g>
<!-- Node2&#45;&gt;Node35 -->
<g id="edge53" class="edge"><title>Node2&#45;&gt;Node35</title>
<path fill="none" stroke="midnightblue" d="M539.708,-384.47C645.309,-364.323 910.689,-313.691 1035.78,-289.825"/>
<polygon fill="midnightblue" stroke="midnightblue" points="1036.46,-293.258 1045.63,-287.946 1035.15,-286.382 1036.46,-293.258"/>
</g>
<!-- Node5&#45;&gt;Node4 -->
<g id="edge8" class="edge"><title>Node5&#45;&gt;Node4</title>
<path fill="none" stroke="midnightblue" d="M304.394,-266.454C260.538,-251.975 180.048,-217.974 148,-156 124.228,-110.03 207.665,-93.6154 259.566,-87.9128"/>
<polygon fill="midnightblue" stroke="midnightblue" points="260.2,-91.3667 269.798,-86.8805 259.497,-84.402 260.2,-91.3667"/>
</g>
<!-- Node6 -->
<g id="node6" class="node"><title>Node6</title>
<g id="a_node6"><a xlink:href="../../df/d5d/common_2include_2CommonDataFormat_2TimeStamp_8h.html" target="_top" xlink:title="CommonDataFormat/TimeStamp.h">
<polygon fill="none" stroke="black" points="157,-136.5 157,-155.5 327,-155.5 327,-136.5 157,-136.5"/>
<text text-anchor="middle" x="242" y="-143.5" font-family="Helvetica,sans-Serif" font-size="10.00">CommonDataFormat/TimeStamp.h</text>
</a>
</g>
</g>
<!-- Node5&#45;&gt;Node6 -->
<g id="edge5" class="edge"><title>Node5&#45;&gt;Node6</title>
<path fill="none" stroke="midnightblue" d="M314.557,-266.347C297.845,-257.911 274.384,-243.503 261,-224 249.099,-206.659 244.636,-182.598 242.971,-166.01"/>
<polygon fill="midnightblue" stroke="midnightblue" points="246.451,-165.603 242.209,-155.895 239.47,-166.129 246.451,-165.603"/>
</g>
<!-- Node7 -->
<g id="node7" class="node"><title>Node7</title>
<polygon fill="none" stroke="#bfbfbf" points="270.5,-198.5 270.5,-217.5 315.5,-217.5 315.5,-198.5 270.5,-198.5"/>
<text text-anchor="middle" x="293" y="-205.5" font-family="Helvetica,sans-Serif" font-size="10.00">iosfwd</text>
</g>
<!-- Node5&#45;&gt;Node7 -->
<g id="edge7" class="edge"><title>Node5&#45;&gt;Node7</title>
<path fill="none" stroke="midnightblue" d="M328.64,-266.372C322.413,-256.348 311.975,-239.546 304,-226.708"/>
<polygon fill="midnightblue" stroke="midnightblue" points="306.742,-224.489 298.492,-217.841 300.796,-228.182 306.742,-224.489"/>
</g>
<!-- Node8 -->
<g id="node8" class="node"><title>Node8</title>
<polygon fill="none" stroke="#bfbfbf" points="333.5,-193 333.5,-223 428.5,-223 428.5,-193 333.5,-193"/>
<text text-anchor="start" x="341.5" y="-211" font-family="Helvetica,sans-Serif" font-size="10.00">boost/serialization</text>
<text text-anchor="middle" x="381" y="-200" font-family="Helvetica,sans-Serif" font-size="10.00">/base_object.hpp</text>
</g>
<!-- Node5&#45;&gt;Node8 -->
<g id="edge9" class="edge"><title>Node5&#45;&gt;Node8</title>
<path fill="none" stroke="midnightblue" d="M340.144,-266.372C346.432,-257.543 356.463,-243.456 365.013,-231.45"/>
<polygon fill="midnightblue" stroke="midnightblue" points="367.951,-233.357 370.901,-223.181 362.249,-229.297 367.951,-233.357"/>
</g>
<!-- Node6&#45;&gt;Node4 -->
<g id="edge6" class="edge"><title>Node6&#45;&gt;Node4</title>
<path fill="none" stroke="midnightblue" d="M250.023,-136.403C258.59,-127.225 272.361,-112.47 282.957,-101.117"/>
<polygon fill="midnightblue" stroke="midnightblue" points="285.727,-103.279 289.991,-93.5806 280.61,-98.503 285.727,-103.279"/>
</g>
<!-- Node10 -->
<g id="node10" class="node"><title>Node10</title>
<g id="a_node10"><a xlink:href="../../d1/d3a/Base_2include_2DetectorsBase_2Detector_8h.html" target="_top" xlink:title="DetectorsBase/Detector.h">
<polygon fill="none" stroke="black" points="846.5,-198.5 846.5,-217.5 977.5,-217.5 977.5,-198.5 846.5,-198.5"/>
<text text-anchor="middle" x="912" y="-205.5" font-family="Helvetica,sans-Serif" font-size="10.00">DetectorsBase/Detector.h</text>
</a>
</g>
</g>
<!-- Node9&#45;&gt;Node10 -->
<g id="edge11" class="edge"><title>Node9&#45;&gt;Node10</title>
<path fill="none" stroke="midnightblue" d="M630.025,-266.439C689.023,-254.421 796.319,-232.565 860.186,-219.555"/>
<polygon fill="midnightblue" stroke="midnightblue" points="860.949,-222.971 870.049,-217.546 859.552,-216.112 860.949,-222.971"/>
</g>
<!-- Node21 -->
<g id="node21" class="node"><title>Node21</title>
<g id="a_node21"><a xlink:href="../../d4/d54/Geo_8h.html" target="_top" xlink:title="TOFBase/Geo.h">
<polygon fill="none" stroke="black" points="447,-198.5 447,-217.5 535,-217.5 535,-198.5 447,-198.5"/>
<text text-anchor="middle" x="491" y="-205.5" font-family="Helvetica,sans-Serif" font-size="10.00">TOFBase/Geo.h</text>
</a>
</g>
</g>
<!-- Node9&#45;&gt;Node21 -->
<g id="edge25" class="edge"><title>Node9&#45;&gt;Node21</title>
<path fill="none" stroke="midnightblue" d="M575.319,-266.372C559.271,-255.452 531.4,-236.489 512.118,-223.369"/>
<polygon fill="midnightblue" stroke="midnightblue" points="513.921,-220.362 503.684,-217.63 509.983,-226.15 513.921,-220.362"/>
</g>
<!-- Node22 -->
<g id="node22" class="node"><title>Node22</title>
<g id="a_node22"><a xlink:href="../../d4/d25/BaseHits_8h.html" target="_top" xlink:title="SimulationDataFormat\l/BaseHits.h">
<polygon fill="none" stroke="black" points="553,-193 553,-223 667,-223 667,-193 553,-193"/>
<text text-anchor="start" x="561" y="-211" font-family="Helvetica,sans-Serif" font-size="10.00">SimulationDataFormat</text>
<text text-anchor="middle" x="610" y="-200" font-family="Helvetica,sans-Serif" font-size="10.00">/BaseHits.h</text>
</a>
</g>
</g>
<!-- Node9&#45;&gt;Node22 -->
<g id="edge27" class="edge"><title>Node9&#45;&gt;Node22</title>
<path fill="none" stroke="midnightblue" d="M590.876,-266.372C593.705,-257.886 598.153,-244.542 602.047,-232.858"/>
<polygon fill="midnightblue" stroke="midnightblue" points="605.431,-233.775 605.273,-223.181 598.79,-231.561 605.431,-233.775"/>
</g>
<!-- Node10&#45;&gt;Node4 -->
<g id="edge20" class="edge"><title>Node10&#45;&gt;Node4</title>
<path fill="none" stroke="midnightblue" d="M855.926,-198.461C840.419,-196.223 823.572,-193.905 808,-192 649.27,-172.581 602.597,-203.817 450,-156 432.534,-150.527 430.395,-144.137 414,-136 385.549,-121.881 352.294,-107.466 328.703,-97.5801"/>
<polygon fill="midnightblue" stroke="midnightblue" points="329.803,-94.247 319.226,-93.6345 327.113,-100.709 329.803,-94.247"/>
</g>
<!-- Node11 -->
<g id="node11" class="node"><title>Node11</title>
<polygon fill="none" stroke="#bfbfbf" points="344.5,-74.5 344.5,-93.5 379.5,-93.5 379.5,-74.5 344.5,-74.5"/>
<text text-anchor="middle" x="362" y="-81.5" font-family="Helvetica,sans-Serif" font-size="10.00">map</text>
</g>
<!-- Node10&#45;&gt;Node11 -->
<g id="edge12" class="edge"><title>Node10&#45;&gt;Node11</title>
<path fill="none" stroke="midnightblue" d="M850.107,-198.465C800.897,-190.587 730.799,-176.906 672,-156 653.646,-149.474 651.552,-141.94 633,-136 528.184,-102.439 491.955,-136.141 388,-100 386.585,-99.508 385.16,-98.9373 383.744,-98.3119"/>
<polygon fill="midnightblue" stroke="midnightblue" points="385.251,-95.1505 374.764,-93.6423 382.022,-101.361 385.251,-95.1505"/>
</g>
<!-- Node12 -->
<g id="node12" class="node"><title>Node12</title>
<polygon fill="none" stroke="#bfbfbf" points="824,-136.5 824,-155.5 868,-155.5 868,-136.5 824,-136.5"/>
<text text-anchor="middle" x="846" y="-143.5" font-family="Helvetica,sans-Serif" font-size="10.00">vector</text>
</g>
<!-- Node10&#45;&gt;Node12 -->
<g id="edge13" class="edge"><title>Node10&#45;&gt;Node12</title>
<path fill="none" stroke="midnightblue" d="M902.544,-198.403C892.252,-189.047 875.584,-173.895 863.006,-162.46"/>
<polygon fill="midnightblue" stroke="midnightblue" points="865.192,-159.718 855.439,-155.581 860.484,-164.897 865.192,-159.718"/>
</g>
<!-- Node13 -->
<g id="node13" class="node"><title>Node13</title>
<polygon fill="none" stroke="#bfbfbf" points="886,-136.5 886,-155.5 938,-155.5 938,-136.5 886,-136.5"/>
<text text-anchor="middle" x="912" y="-143.5" font-family="Helvetica,sans-Serif" font-size="10.00">memory</text>
</g>
<!-- Node10&#45;&gt;Node13 -->
<g id="edge14" class="edge"><title>Node10&#45;&gt;Node13</title>
<path fill="none" stroke="midnightblue" d="M912,-198.403C912,-189.938 912,-176.728 912,-165.82"/>
<polygon fill="midnightblue" stroke="midnightblue" points="915.5,-165.581 912,-155.581 908.5,-165.581 915.5,-165.581"/>
</g>
<!-- Node14 -->
<g id="node14" class="node"><title>Node14</title>
<polygon fill="none" stroke="#bfbfbf" points="956.5,-136.5 956.5,-155.5 1035.5,-155.5 1035.5,-136.5 956.5,-136.5"/>
<text text-anchor="middle" x="996" y="-143.5" font-family="Helvetica,sans-Serif" font-size="10.00">FairDetector.h</text>
</g>
<!-- Node10&#45;&gt;Node14 -->
<g id="edge15" class="edge"><title>Node10&#45;&gt;Node14</title>
<path fill="none" stroke="midnightblue" d="M924.035,-198.403C937.508,-188.78 959.566,-173.024 975.715,-161.489"/>
<polygon fill="midnightblue" stroke="midnightblue" points="977.884,-164.241 983.987,-155.581 973.815,-158.545 977.884,-164.241"/>
</g>
<!-- Node10&#45;&gt;Node15 -->
<g id="edge16" class="edge"><title>Node10&#45;&gt;Node15</title>
<path fill="none" stroke="midnightblue" d="M955.536,-198.486C967.349,-196.272 980.15,-193.96 992,-192 1103.19,-173.611 1131.5,-172.359 1243,-156 1243.1,-155.985 1243.2,-155.97 1243.3,-155.956"/>
<polygon fill="midnightblue" stroke="midnightblue" points="1243.53,-159.46 1252.91,-154.538 1242.51,-152.535 1243.53,-159.46"/>
</g>
<!-- Node16 -->
<g id="node16" class="node"><title>Node16</title>
<g id="a_node16"><a xlink:href="../../d0/d9a/MaterialManager_8h.html" target="_top" xlink:title="DetectorsBase/MaterialManager.h">
<polygon fill="none" stroke="black" points="459.5,-136.5 459.5,-155.5 624.5,-155.5 624.5,-136.5 459.5,-136.5"/>
<text text-anchor="middle" x="542" y="-143.5" font-family="Helvetica,sans-Serif" font-size="10.00">DetectorsBase/MaterialManager.h</text>
</a>
</g>
</g>
<!-- Node10&#45;&gt;Node16 -->
<g id="edge17" class="edge"><title>Node10&#45;&gt;Node16</title>
<path fill="none" stroke="midnightblue" d="M859.381,-198.467C792.254,-187.582 676.297,-168.778 604.672,-157.163"/>
<polygon fill="midnightblue" stroke="midnightblue" points="604.869,-153.649 594.438,-155.503 603.748,-160.559 604.869,-153.649"/>
</g>
<!-- Node17 -->
<g id="node17" class="node"><title>Node17</title>
<polygon fill="none" stroke="#bfbfbf" points="1053.5,-136.5 1053.5,-155.5 1106.5,-155.5 1106.5,-136.5 1053.5,-136.5"/>
<text text-anchor="middle" x="1080" y="-143.5" font-family="Helvetica,sans-Serif" font-size="10.00">cxxabi.h</text>
</g>
<!-- Node10&#45;&gt;Node17 -->
<g id="edge21" class="edge"><title>Node10&#45;&gt;Node17</title>
<path fill="none" stroke="midnightblue" d="M936.07,-198.403C965.013,-188.067 1013.76,-170.656 1046.4,-158.999"/>
<polygon fill="midnightblue" stroke="midnightblue" points="1047.73,-162.24 1055.97,-155.581 1045.38,-155.648 1047.73,-162.24"/>
</g>
<!-- Node18 -->
<g id="node18" class="node"><title>Node18</title>
<polygon fill="none" stroke="#bfbfbf" points="1124.5,-136.5 1124.5,-155.5 1175.5,-155.5 1175.5,-136.5 1124.5,-136.5"/>
<text text-anchor="middle" x="1150" y="-143.5" font-family="Helvetica,sans-Serif" font-size="10.00">typeinfo</text>
</g>
<!-- Node10&#45;&gt;Node18 -->
<g id="edge22" class="edge"><title>Node10&#45;&gt;Node18</title>
<path fill="none" stroke="midnightblue" d="M946.137,-198.485C984.517,-188.898 1048.97,-172.758 1114.32,-156.162"/>
<polygon fill="midnightblue" stroke="midnightblue" points="1115.56,-159.458 1124.39,-153.603 1113.84,-152.674 1115.56,-159.458"/>
</g>
<!-- Node19 -->
<g id="node19" class="node"><title>Node19</title>
<polygon fill="none" stroke="#bfbfbf" points="1371,-136.5 1371,-155.5 1433,-155.5 1433,-136.5 1371,-136.5"/>
<text text-anchor="middle" x="1402" y="-143.5" font-family="Helvetica,sans-Serif" font-size="10.00">type_traits</text>
</g>
<!-- Node10&#45;&gt;Node19 -->
<g id="edge23" class="edge"><title>Node10&#45;&gt;Node19</title>
<path fill="none" stroke="midnightblue" d="M977.201,-198.494C994.367,-196.314 1012.87,-194.017 1030,-192 1174.09,-175.031 1213.82,-180.085 1360.35,-156.112"/>
<polygon fill="midnightblue" stroke="midnightblue" points="1361.33,-159.498 1370.62,-154.413 1360.19,-152.592 1361.33,-159.498"/>
</g>
<!-- Node20 -->
<g id="node20" class="node"><title>Node20</title>
<polygon fill="none" stroke="#bfbfbf" points="1193.5,-136.5 1193.5,-155.5 1234.5,-155.5 1234.5,-136.5 1193.5,-136.5"/>
<text text-anchor="middle" x="1214" y="-143.5" font-family="Helvetica,sans-Serif" font-size="10.00">string</text>
</g>
<!-- Node10&#45;&gt;Node20 -->
<g id="edge24" class="edge"><title>Node10&#45;&gt;Node20</title>
<path fill="none" stroke="midnightblue" d="M957.492,-198.472C1024.89,-185.837 1146.61,-163.018 1183.22,-155.657"/>
<polygon fill="midnightblue" stroke="midnightblue" points="1184.37,-158.99 1193.42,-153.487 1182.91,-152.143 1184.37,-158.99"/>
</g>
<!-- Node16&#45;&gt;Node4 -->
<g id="edge18" class="edge"><title>Node16&#45;&gt;Node4</title>
<path fill="none" stroke="midnightblue" d="M491.182,-136.464C448.89,-128.764 387.356,-116.173 335,-100 332.359,-99.1842 329.643,-98.2587 326.94,-97.2773"/>
<polygon fill="midnightblue" stroke="midnightblue" points="327.949,-93.9152 317.36,-93.5752 325.426,-100.445 327.949,-93.9152"/>
</g>
<!-- Node16&#45;&gt;Node11 -->
<g id="edge19" class="edge"><title>Node16&#45;&gt;Node11</title>
<path fill="none" stroke="midnightblue" d="M503.462,-136.456C471.765,-128.791 426.037,-116.252 388,-100 386.814,-99.4932 385.614,-98.9443 384.415,-98.366"/>
<polygon fill="midnightblue" stroke="midnightblue" points="385.916,-95.2001 375.447,-93.5733 382.617,-101.374 385.916,-95.2001"/>
</g>
<!-- Node21&#45;&gt;Node4 -->
<g id="edge26" class="edge"><title>Node21&#45;&gt;Node4</title>
<path fill="none" stroke="midnightblue" d="M466.794,-198.353C443.373,-189.45 407.356,-174.316 379,-156 354.12,-139.929 329.02,-116.566 313.496,-101.086"/>
<polygon fill="midnightblue" stroke="midnightblue" points="315.816,-98.4535 306.303,-93.7894 310.831,-103.368 315.816,-98.4535"/>
</g>
<!-- Node23 -->
<g id="node23" class="node"><title>Node23</title>
<g id="a_node23"><a xlink:href="../../dd/d76/Cartesian3D_8h.html" target="_top" xlink:title="MathUtils/Cartesian3D.h">
<polygon fill="none" stroke="black" points="681.5,-136.5 681.5,-155.5 806.5,-155.5 806.5,-136.5 681.5,-136.5"/>
<text text-anchor="middle" x="744" y="-143.5" font-family="Helvetica,sans-Serif" font-size="10.00">MathUtils/Cartesian3D.h</text>
</a>
</g>
</g>
<!-- Node22&#45;&gt;Node23 -->
<g id="edge28" class="edge"><title>Node22&#45;&gt;Node23</title>
<path fill="none" stroke="midnightblue" d="M641.417,-192.933C663.823,-182.9 693.707,-169.519 715.438,-159.789"/>
<polygon fill="midnightblue" stroke="midnightblue" points="717.097,-162.881 724.793,-155.6 714.236,-156.492 717.097,-162.881"/>
</g>
<!-- Node23&#45;&gt;Node4 -->
<g id="edge34" class="edge"><title>Node23&#45;&gt;Node4</title>
<path fill="none" stroke="midnightblue" d="M681.344,-139.065C575.059,-128.854 367.726,-108.265 335,-100 331.94,-99.2272 328.798,-98.2549 325.7,-97.1783"/>
<polygon fill="midnightblue" stroke="midnightblue" points="326.699,-93.8128 316.109,-93.5014 324.193,-100.349 326.699,-93.8128"/>
</g>
<!-- Node24 -->
<g id="node24" class="node"><title>Node24</title>
<polygon fill="none" stroke="#bfbfbf" points="397.5,-69 397.5,-99 548.5,-99 548.5,-69 397.5,-69"/>
<text text-anchor="start" x="405.5" y="-87" font-family="Helvetica,sans-Serif" font-size="10.00">Math/GenVector/Displacement</text>
<text text-anchor="middle" x="473" y="-76" font-family="Helvetica,sans-Serif" font-size="10.00">Vector3D.h</text>
</g>
<!-- Node23&#45;&gt;Node24 -->
<g id="edge29" class="edge"><title>Node23&#45;&gt;Node24</title>
<path fill="none" stroke="midnightblue" d="M705.46,-136.467C664.224,-127.337 597.83,-112.638 546.534,-101.281"/>
<polygon fill="midnightblue" stroke="midnightblue" points="547.009,-97.801 536.489,-99.0565 545.496,-104.636 547.009,-97.801"/>
</g>
<!-- Node25 -->
<g id="node25" class="node"><title>Node25</title>
<polygon fill="none" stroke="#bfbfbf" points="567,-74.5 567,-93.5 743,-93.5 743,-74.5 567,-74.5"/>
<text text-anchor="middle" x="655" y="-81.5" font-family="Helvetica,sans-Serif" font-size="10.00">Math/GenVector/PositionVector3D.h</text>
</g>
<!-- Node23&#45;&gt;Node25 -->
<g id="edge30" class="edge"><title>Node23&#45;&gt;Node25</title>
<path fill="none" stroke="midnightblue" d="M731.248,-136.403C716.973,-126.78 693.603,-111.024 676.492,-99.4891"/>
<polygon fill="midnightblue" stroke="midnightblue" points="677.976,-96.2684 667.728,-93.5806 674.063,-102.073 677.976,-96.2684"/>
</g>
<!-- Node26 -->
<g id="node26" class="node"><title>Node26</title>
<polygon fill="none" stroke="#bfbfbf" points="760.5,-74.5 760.5,-93.5 909.5,-93.5 909.5,-74.5 760.5,-74.5"/>
<text text-anchor="middle" x="835" y="-81.5" font-family="Helvetica,sans-Serif" font-size="10.00">Math/GenVector/Rotation3D.h</text>
</g>
<!-- Node23&#45;&gt;Node26 -->
<g id="edge31" class="edge"><title>Node23&#45;&gt;Node26</title>
<path fill="none" stroke="midnightblue" d="M757.038,-136.403C771.769,-126.691 795.973,-110.732 813.509,-99.1697"/>
<polygon fill="midnightblue" stroke="midnightblue" points="815.564,-102.007 821.986,-93.5806 811.711,-96.1632 815.564,-102.007"/>
</g>
<!-- Node27 -->
<g id="node27" class="node"><title>Node27</title>
<polygon fill="none" stroke="#bfbfbf" points="928,-74.5 928,-93.5 1084,-93.5 1084,-74.5 928,-74.5"/>
<text text-anchor="middle" x="1006" y="-81.5" font-family="Helvetica,sans-Serif" font-size="10.00">Math/GenVector/Transform3D.h</text>
</g>
<!-- Node23&#45;&gt;Node27 -->
<g id="edge32" class="edge"><title>Node23&#45;&gt;Node27</title>
<path fill="none" stroke="midnightblue" d="M781.26,-136.467C828.014,-125.76 908.221,-107.392 959.102,-95.74"/>
<polygon fill="midnightblue" stroke="midnightblue" points="959.902,-99.1474 968.869,-93.5034 958.34,-92.3241 959.902,-99.1474"/>
</g>
<!-- Node28 -->
<g id="node28" class="node"><title>Node28</title>
<polygon fill="none" stroke="#bfbfbf" points="1102,-74.5 1102,-93.5 1262,-93.5 1262,-74.5 1102,-74.5"/>
<text text-anchor="middle" x="1182" y="-81.5" font-family="Helvetica,sans-Serif" font-size="10.00">Math/GenVector/Translation3D.h</text>
</g>
<!-- Node23&#45;&gt;Node28 -->
<g id="edge33" class="edge"><title>Node23&#45;&gt;Node28</title>
<path fill="none" stroke="midnightblue" d="M806.588,-137.064C899.348,-125.281 1065.39,-104.105 1093,-100 1102.88,-98.5309 1113.36,-96.8633 1123.53,-95.1872"/>
<polygon fill="midnightblue" stroke="midnightblue" points="1124.27,-98.6122 1133.55,-93.5152 1123.11,-91.7075 1124.27,-98.6122"/>
</g>
<!-- Node29 -->
<g id="node29" class="node"><title>Node29</title>
<polygon fill="none" stroke="#bfbfbf" points="1280,-74.5 1280,-93.5 1356,-93.5 1356,-74.5 1280,-74.5"/>
<text text-anchor="middle" x="1318" y="-81.5" font-family="Helvetica,sans-Serif" font-size="10.00">TGeoMatrix.h</text>
</g>
<!-- Node23&#45;&gt;Node29 -->
<g id="edge35" class="edge"><title>Node23&#45;&gt;Node29</title>
<path fill="none" stroke="midnightblue" d="M806.701,-136.889C809.505,-136.577 812.281,-136.28 815,-136 1017.23,-115.211 1071.51,-139.164 1271,-100 1275.57,-99.1033 1280.31,-97.9114 1284.96,-96.5899"/>
<polygon fill="midnightblue" stroke="midnightblue" points="1286.32,-99.8344 1294.85,-93.5546 1284.26,-93.1424 1286.32,-99.8344"/>
</g>
<!-- Node30 -->
<g id="node30" class="node"><title>Node30</title>
<polygon fill="none" stroke="#bfbfbf" points="1374,-74.5 1374,-93.5 1428,-93.5 1428,-74.5 1374,-74.5"/>
<text text-anchor="middle" x="1401" y="-81.5" font-family="Helvetica,sans-Serif" font-size="10.00">iostream</text>
</g>
<!-- Node23&#45;&gt;Node30 -->
<g id="edge36" class="edge"><title>Node23&#45;&gt;Node30</title>
<path fill="none" stroke="midnightblue" d="M806.697,-136.843C809.501,-136.544 812.279,-136.261 815,-136 1058.85,-112.586 1126.49,-155.865 1365,-100 1368.07,-99.282 1371.21,-98.3299 1374.29,-97.2525"/>
<polygon fill="midnightblue" stroke="midnightblue" points="1375.78,-100.429 1383.81,-93.5168 1373.22,-93.913 1375.78,-100.429"/>
</g>
<!-- Node31 -->
<g id="node31" class="node"><title>Node31</title>
<g id="a_node31"><a xlink:href="../../d2/dd0/Cartesian2D_8h.html" target="_top" xlink:title="MathUtils/Cartesian2D.h">
<polygon fill="none" stroke="black" points="1446.5,-74.5 1446.5,-93.5 1571.5,-93.5 1571.5,-74.5 1446.5,-74.5"/>
<text text-anchor="middle" x="1509" y="-81.5" font-family="Helvetica,sans-Serif" font-size="10.00">MathUtils/Cartesian2D.h</text>
</a>
</g>
</g>
<!-- Node23&#45;&gt;Node31 -->
<g id="edge37" class="edge"><title>Node23&#45;&gt;Node31</title>
<path fill="none" stroke="midnightblue" d="M806.694,-136.817C809.5,-136.525 812.278,-136.251 815,-136 1090.74,-110.574 1162.49,-136.337 1437,-100 1445.55,-98.868 1454.6,-97.2887 1463.3,-95.5771"/>
<polygon fill="midnightblue" stroke="midnightblue" points="1464.2,-98.9659 1473.29,-93.5259 1462.79,-92.1089 1464.2,-98.9659"/>
</g>
<!-- Node32 -->
<g id="node32" class="node"><title>Node32</title>
<polygon fill="none" stroke="#bfbfbf" points="1342.5,-1 1342.5,-31 1493.5,-31 1493.5,-1 1342.5,-1"/>
<text text-anchor="start" x="1350.5" y="-19" font-family="Helvetica,sans-Serif" font-size="10.00">Math/GenVector/Displacement</text>
<text text-anchor="middle" x="1418" y="-8" font-family="Helvetica,sans-Serif" font-size="10.00">Vector2D.h</text>
</g>
<!-- Node31&#45;&gt;Node32 -->
<g id="edge38" class="edge"><title>Node31&#45;&gt;Node32</title>
<path fill="none" stroke="midnightblue" d="M1497.1,-74.3717C1484.22,-65.0286 1463.22,-49.7966 1446.09,-37.375"/>
<polygon fill="midnightblue" stroke="midnightblue" points="1447.7,-34.2194 1437.55,-31.1815 1443.59,-39.8859 1447.7,-34.2194"/>
</g>
<!-- Node33 -->
<g id="node33" class="node"><title>Node33</title>
<polygon fill="none" stroke="#bfbfbf" points="1512,-6.5 1512,-25.5 1688,-25.5 1688,-6.5 1512,-6.5"/>
<text text-anchor="middle" x="1600" y="-13.5" font-family="Helvetica,sans-Serif" font-size="10.00">Math/GenVector/PositionVector2D.h</text>
</g>
<!-- Node31&#45;&gt;Node33 -->
<g id="edge39" class="edge"><title>Node31&#45;&gt;Node33</title>
<path fill="none" stroke="midnightblue" d="M1520.9,-74.3717C1535.88,-63.5015 1561.86,-44.6602 1579.94,-31.5474"/>
<polygon fill="midnightblue" stroke="midnightblue" points="1582.06,-34.3349 1588.1,-25.6305 1577.95,-28.6684 1582.06,-34.3349"/>
</g>
<!-- Node34&#45;&gt;Node5 -->
<g id="edge42" class="edge"><title>Node34&#45;&gt;Node5</title>
<path fill="none" stroke="midnightblue" d="M551.878,-328.467C506.646,-317.783 429.118,-299.469 379.775,-287.813"/>
<polygon fill="midnightblue" stroke="midnightblue" points="380.534,-284.396 369.998,-285.503 378.925,-291.209 380.534,-284.396"/>
</g>
<!-- Node34&#45;&gt;Node9 -->
<g id="edge43" class="edge"><title>Node34&#45;&gt;Node9</title>
<path fill="none" stroke="midnightblue" d="M588,-328.403C588,-319.938 588,-306.728 588,-295.82"/>
<polygon fill="midnightblue" stroke="midnightblue" points="591.5,-295.581 588,-285.581 584.5,-295.581 591.5,-295.581"/>
</g>
<!-- Node34&#45;&gt;Node21 -->
<g id="edge41" class="edge"><title>Node34&#45;&gt;Node21</title>
<path fill="none" stroke="midnightblue" d="M564.337,-328.429C547.617,-321.194 525.959,-309.234 513,-292 498.822,-273.145 493.766,-245.884 491.972,-227.815"/>
<polygon fill="midnightblue" stroke="midnightblue" points="495.45,-227.39 491.212,-217.679 488.469,-227.913 495.45,-227.39"/>
</g>
<!-- Node34&#45;&gt;Node35 -->
<g id="edge44" class="edge"><title>Node34&#45;&gt;Node35</title>
<path fill="none" stroke="midnightblue" d="M652.704,-329.462C750.778,-318.036 936.159,-296.438 1035.73,-284.837"/>
<polygon fill="midnightblue" stroke="midnightblue" points="1036.15,-288.312 1045.68,-283.678 1035.34,-281.359 1036.15,-288.312"/>
</g>
<!-- Node40 -->
<g id="node40" class="node"><title>Node40</title>
<g id="a_node40"><a xlink:href="../../df/d71/MCLabel_8h.html" target="_top" xlink:title="TOFSimulation/MCLabel.h">
<polygon fill="none" stroke="black" points="675,-266.5 675,-285.5 807,-285.5 807,-266.5 675,-266.5"/>
<text text-anchor="middle" x="741" y="-273.5" font-family="Helvetica,sans-Serif" font-size="10.00">TOFSimulation/MCLabel.h</text>
</a>
</g>
</g>
<!-- Node34&#45;&gt;Node40 -->
<g id="edge50" class="edge"><title>Node34&#45;&gt;Node40</title>
<path fill="none" stroke="midnightblue" d="M609.921,-328.403C636.052,-318.156 679.912,-300.956 709.63,-289.302"/>
<polygon fill="midnightblue" stroke="midnightblue" points="711.088,-292.49 719.119,-285.581 708.532,-285.973 711.088,-292.49"/>
</g>
<!-- Node35&#45;&gt;Node19 -->
<g id="edge49" class="edge"><title>Node35&#45;&gt;Node19</title>
<path fill="none" stroke="midnightblue" d="M1087.01,-260.704C1069.08,-242.976 1044.75,-212.584 1063,-192 1105.5,-144.08 1280.1,-165.314 1360.39,-155.847"/>
<polygon fill="midnightblue" stroke="midnightblue" points="1361.22,-159.265 1370.62,-154.377 1360.22,-152.336 1361.22,-159.265"/>
</g>
<!-- Node36 -->
<g id="node36" class="node"><title>Node36</title>
<polygon fill="none" stroke="#bfbfbf" points="1072,-198.5 1072,-217.5 1134,-217.5 1134,-198.5 1072,-198.5"/>
<text text-anchor="middle" x="1103" y="-205.5" font-family="Helvetica,sans-Serif" font-size="10.00">TNamed.h</text>
</g>
<!-- Node35&#45;&gt;Node36 -->
<g id="edge45" class="edge"><title>Node35&#45;&gt;Node36</title>
<path fill="none" stroke="midnightblue" d="M1103,-260.679C1103,-251.101 1103,-238.394 1103,-227.977"/>
<polygon fill="midnightblue" stroke="midnightblue" points="1106.5,-227.828 1103,-217.828 1099.5,-227.828 1106.5,-227.828"/>
</g>
<!-- Node37 -->
<g id="node37" class="node"><title>Node37</title>
<polygon fill="none" stroke="#bfbfbf" points="1152.5,-198.5 1152.5,-217.5 1201.5,-217.5 1201.5,-198.5 1152.5,-198.5"/>
<text text-anchor="middle" x="1177" y="-205.5" font-family="Helvetica,sans-Serif" font-size="10.00">cassert</text>
</g>
<!-- Node35&#45;&gt;Node37 -->
<g id="edge46" class="edge"><title>Node35&#45;&gt;Node37</title>
<path fill="none" stroke="midnightblue" d="M1119.06,-260.679C1130.94,-250.082 1147.11,-235.655 1159.36,-224.736"/>
<polygon fill="midnightblue" stroke="midnightblue" points="1161.97,-227.097 1167.1,-217.828 1157.31,-221.872 1161.97,-227.097"/>
</g>
<!-- Node38 -->
<g id="node38" class="node"><title>Node38</title>
<polygon fill="none" stroke="#bfbfbf" points="1219.5,-198.5 1219.5,-217.5 1278.5,-217.5 1278.5,-198.5 1219.5,-198.5"/>
<text text-anchor="middle" x="1249" y="-205.5" font-family="Helvetica,sans-Serif" font-size="10.00">stdexcept</text>
</g>
<!-- Node35&#45;&gt;Node38 -->
<g id="edge47" class="edge"><title>Node35&#45;&gt;Node38</title>
<path fill="none" stroke="midnightblue" d="M1134.32,-260.841C1159.91,-249.272 1195.79,-233.055 1220.56,-221.855"/>
<polygon fill="midnightblue" stroke="midnightblue" points="1222.12,-224.99 1229.79,-217.682 1219.24,-218.612 1222.12,-224.99"/>
</g>
<!-- Node39 -->
<g id="node39" class="node"><title>Node39</title>
<polygon fill="none" stroke="#bfbfbf" points="1296.5,-198.5 1296.5,-217.5 1341.5,-217.5 1341.5,-198.5 1296.5,-198.5"/>
<text text-anchor="middle" x="1319" y="-205.5" font-family="Helvetica,sans-Serif" font-size="10.00">gsl/gsl</text>
</g>
<!-- Node35&#45;&gt;Node39 -->
<g id="edge48" class="edge"><title>Node35&#45;&gt;Node39</title>
<path fill="none" stroke="midnightblue" d="M1160.15,-261.793C1196.88,-252.664 1245.34,-239.413 1287,-224 1288.86,-223.313 1290.75,-222.562 1292.65,-221.772"/>
<polygon fill="midnightblue" stroke="midnightblue" points="1294.24,-224.896 1301.95,-217.637 1291.39,-218.499 1294.24,-224.896"/>
</g>
<!-- Node41 -->
<g id="node41" class="node"><title>Node41</title>
<g id="a_node41"><a xlink:href="../../d7/dcd/MCCompLabel_8h.html" target="_top" xlink:title="SimulationDataFormat\l/MCCompLabel.h">
<polygon fill="none" stroke="black" points="685,-193 685,-223 799,-223 799,-193 685,-193"/>
<text text-anchor="start" x="693" y="-211" font-family="Helvetica,sans-Serif" font-size="10.00">SimulationDataFormat</text>
<text text-anchor="middle" x="742" y="-200" font-family="Helvetica,sans-Serif" font-size="10.00">/MCCompLabel.h</text>
</a>
</g>
</g>
<!-- Node40&#45;&gt;Node41 -->
<g id="edge51" class="edge"><title>Node40&#45;&gt;Node41</title>
<path fill="none" stroke="midnightblue" d="M741.131,-266.372C741.258,-257.971 741.457,-244.811 741.633,-233.213"/>
<polygon fill="midnightblue" stroke="midnightblue" points="745.133,-233.233 741.785,-223.181 738.134,-233.127 745.133,-233.233"/>
</g>
<!-- Node41&#45;&gt;Node4 -->
<g id="edge52" class="edge"><title>Node41&#45;&gt;Node4</title>
<path fill="none" stroke="midnightblue" d="M684.824,-193.691C681.845,-193.096 678.89,-192.528 676,-192 561.676,-171.103 526.641,-194.541 417,-156 406.775,-152.406 351.976,-118.688 320.426,-99.039"/>
<polygon fill="midnightblue" stroke="midnightblue" points="322.164,-95.9982 311.827,-93.6739 318.458,-101.937 322.164,-95.9982"/>
</g>
<!-- Node43 -->
<g id="node43" class="node"><title>Node43</title>
<polygon fill="none" stroke="#bfbfbf" points="1072,-328.5 1072,-347.5 1110,-347.5 1110,-328.5 1072,-328.5"/>
<text text-anchor="middle" x="1091" y="-335.5" font-family="Helvetica,sans-Serif" font-size="10.00">array</text>
</g>
<!-- Node42&#45;&gt;Node43 -->
<g id="edge55" class="edge"><title>Node42&#45;&gt;Node43</title>
<path fill="none" stroke="midnightblue" d="M1091,-384.083C1091,-377.006 1091,-366.861 1091,-357.986"/>
<polygon fill="midnightblue" stroke="midnightblue" points="1094.5,-357.751 1091,-347.751 1087.5,-357.751 1094.5,-357.751"/>
</g>
<!-- Node44 -->
<g id="node44" class="node"><title>Node44</title>
<polygon fill="none" stroke="#bfbfbf" points="1128,-328.5 1128,-347.5 1172,-347.5 1172,-328.5 1128,-328.5"/>
<text text-anchor="middle" x="1150" y="-335.5" font-family="Helvetica,sans-Serif" font-size="10.00">cmath</text>
</g>
<!-- Node42&#45;&gt;Node44 -->
<g id="edge56" class="edge"><title>Node42&#45;&gt;Node44</title>
<path fill="none" stroke="midnightblue" d="M1100.48,-384.324C1109.2,-376.341 1122.34,-364.313 1132.9,-354.653"/>
<polygon fill="midnightblue" stroke="midnightblue" points="1135.33,-357.167 1140.35,-347.834 1130.61,-352.004 1135.33,-357.167"/>
</g>
<!-- Node45 -->
<g id="node45" class="node"><title>Node45</title>
<g id="a_node45"><a xlink:href="../../d6/d84/MathConstants_8h.html" target="_top" xlink:title="useful math constants ">
<polygon fill="none" stroke="black" points="1190.5,-328.5 1190.5,-347.5 1369.5,-347.5 1369.5,-328.5 1190.5,-328.5"/>
<text text-anchor="middle" x="1280" y="-335.5" font-family="Helvetica,sans-Serif" font-size="10.00">CommonConstants/MathConstants.h</text>
</a>
</g>
</g>
<!-- Node42&#45;&gt;Node45 -->
<g id="edge57" class="edge"><title>Node42&#45;&gt;Node45</title>
<path fill="none" stroke="midnightblue" d="M1120.95,-384.444C1153.16,-375.241 1204.53,-360.562 1240.14,-350.388"/>
<polygon fill="midnightblue" stroke="midnightblue" points="1241.54,-353.629 1250.19,-347.516 1239.62,-346.898 1241.54,-353.629"/>
</g>
</g>
</svg>
