<?xml version="1.0" encoding="UTF-8" standalone="no"?>
<!DOCTYPE svg PUBLIC "-//W3C//DTD SVG 1.1//EN"
 "http://www.w3.org/Graphics/SVG/1.1/DTD/svg11.dtd">
<!-- Generated by graphviz version 2.36.0 (20140111.2315)
 -->
<!-- Title: /home/travis/build/AliceO2Group/AliceO2/Detectors/ITSMFT/ITS/reconstruction/include/ITSReconstruction/CA/Cluster.h Pages: 1 -->
<svg width="1458pt" height="596pt"
 viewBox="0.00 0.00 1458.06 596.00" xmlns="http://www.w3.org/2000/svg" xmlns:xlink="http://www.w3.org/1999/xlink">
<g id="graph0" class="graph" transform="scale(1 1) rotate(0) translate(4 592)">
<title>/home/travis/build/AliceO2Group/AliceO2/Detectors/ITSMFT/ITS/reconstruction/include/ITSReconstruction/CA/Cluster.h</title>
<!-- Node1 -->
<g id="node1" class="node"><title>Node1</title>
<polygon fill="#bfbfbf" stroke="black" points="799.564,-524.5 799.564,-587.5 960.564,-587.5 960.564,-524.5 799.564,-524.5"/>
<text text-anchor="start" x="807.564" y="-575.5" font-family="Helvetica,sans-Serif" font-size="10.00">/home/travis/build</text>
<text text-anchor="start" x="807.564" y="-564.5" font-family="Helvetica,sans-Serif" font-size="10.00">/AliceO2Group/AliceO2</text>
<text text-anchor="start" x="807.564" y="-553.5" font-family="Helvetica,sans-Serif" font-size="10.00">/Detectors/ITSMFT/ITS</text>
<text text-anchor="start" x="807.564" y="-542.5" font-family="Helvetica,sans-Serif" font-size="10.00">/reconstruction/include</text>
<text text-anchor="middle" x="880.064" y="-531.5" font-family="Helvetica,sans-Serif" font-size="10.00">/ITSReconstruction/CA/Cluster.h</text>
</g>
<!-- Node2 -->
<g id="node2" class="node"><title>Node2</title>
<g id="a_node2"><a xlink:href="../../da/d7f/gpu_2gpu_2PrimaryVertexContext_8h.html" target="_top" xlink:title="/home/travis/build\l/AliceO2Group/AliceO2\l/Detectors/ITSMFT/ITS\l/reconstruction/include\l/ITSReconstruction/CA/gpu\l/gpu/PrimaryVertexContext.h">
<polygon fill="none" stroke="black" points="670.564,-313 670.564,-387 813.564,-387 813.564,-313 670.564,-313"/>
<text text-anchor="start" x="678.564" y="-375" font-family="Helvetica,sans-Serif" font-size="10.00">/home/travis/build</text>
<text text-anchor="start" x="678.564" y="-364" font-family="Helvetica,sans-Serif" font-size="10.00">/AliceO2Group/AliceO2</text>
<text text-anchor="start" x="678.564" y="-353" font-family="Helvetica,sans-Serif" font-size="10.00">/Detectors/ITSMFT/ITS</text>
<text text-anchor="start" x="678.564" y="-342" font-family="Helvetica,sans-Serif" font-size="10.00">/reconstruction/include</text>
<text text-anchor="start" x="678.564" y="-331" font-family="Helvetica,sans-Serif" font-size="10.00">/ITSReconstruction/CA/gpu</text>
<text text-anchor="middle" x="742.064" y="-320" font-family="Helvetica,sans-Serif" font-size="10.00">/gpu/PrimaryVertexContext.h</text>
</a>
</g>
</g>
<!-- Node1&#45;&gt;Node2 -->
<g id="edge1" class="edge"><title>Node1&#45;&gt;Node2</title>
<path fill="none" stroke="midnightblue" d="M818.275,-518.257C807.072,-509.452 796.337,-499.284 788.064,-488 766.034,-457.953 754.083,-416.666 747.932,-387.289"/>
<polygon fill="midnightblue" stroke="midnightblue" points="816.388,-521.218 826.486,-524.425 820.593,-515.621 816.388,-521.218"/>
</g>
<!-- Node3 -->
<g id="node3" class="node"><title>Node3</title>
<g id="a_node3"><a xlink:href="../../db/dbf/gpu_2PrimaryVertexContext_8h.html" target="_top" xlink:title="/home/travis/build\l/AliceO2Group/AliceO2\l/Detectors/ITSMFT/ITS\l/reconstruction/include\l/ITSReconstruction/CA/gpu\l/PrimaryVertexContext.h">
<polygon fill="none" stroke="black" points="1046.56,-313 1046.56,-387 1183.56,-387 1183.56,-313 1046.56,-313"/>
<text text-anchor="start" x="1054.56" y="-375" font-family="Helvetica,sans-Serif" font-size="10.00">/home/travis/build</text>
<text text-anchor="start" x="1054.56" y="-364" font-family="Helvetica,sans-Serif" font-size="10.00">/AliceO2Group/AliceO2</text>
<text text-anchor="start" x="1054.56" y="-353" font-family="Helvetica,sans-Serif" font-size="10.00">/Detectors/ITSMFT/ITS</text>
<text text-anchor="start" x="1054.56" y="-342" font-family="Helvetica,sans-Serif" font-size="10.00">/reconstruction/include</text>
<text text-anchor="start" x="1054.56" y="-331" font-family="Helvetica,sans-Serif" font-size="10.00">/ITSReconstruction/CA/gpu</text>
<text text-anchor="middle" x="1115.06" y="-320" font-family="Helvetica,sans-Serif" font-size="10.00">/PrimaryVertexContext.h</text>
</a>
</g>
</g>
<!-- Node1&#45;&gt;Node3 -->
<g id="edge2" class="edge"><title>Node1&#45;&gt;Node3</title>
<path fill="none" stroke="midnightblue" d="M932.323,-518.263C945.232,-508.718 958.853,-498.234 971.064,-488 1009.67,-455.638 1051.08,-415.629 1079.54,-387.221"/>
<polygon fill="midnightblue" stroke="midnightblue" points="929.963,-515.653 923.966,-524.388 934.101,-521.3 929.963,-515.653"/>
</g>
<!-- Node4 -->
<g id="node4" class="node"><title>Node4</title>
<g id="a_node4"><a xlink:href="../../dc/dca/Layer_8h.html" target="_top" xlink:title="/home/travis/build\l/AliceO2Group/AliceO2\l/Detectors/ITSMFT/ITS\l/reconstruction/include\l/ITSReconstruction/CA/Layer.h">
<polygon fill="none" stroke="black" points="460.064,-424.5 460.064,-487.5 614.064,-487.5 614.064,-424.5 460.064,-424.5"/>
<text text-anchor="start" x="468.064" y="-475.5" font-family="Helvetica,sans-Serif" font-size="10.00">/home/travis/build</text>
<text text-anchor="start" x="468.064" y="-464.5" font-family="Helvetica,sans-Serif" font-size="10.00">/AliceO2Group/AliceO2</text>
<text text-anchor="start" x="468.064" y="-453.5" font-family="Helvetica,sans-Serif" font-size="10.00">/Detectors/ITSMFT/ITS</text>
<text text-anchor="start" x="468.064" y="-442.5" font-family="Helvetica,sans-Serif" font-size="10.00">/reconstruction/include</text>
<text text-anchor="middle" x="537.064" y="-431.5" font-family="Helvetica,sans-Serif" font-size="10.00">/ITSReconstruction/CA/Layer.h</text>
</a>
</g>
</g>
<!-- Node1&#45;&gt;Node4 -->
<g id="edge3" class="edge"><title>Node1&#45;&gt;Node4</title>
<path fill="none" stroke="midnightblue" d="M789.59,-532.545C741.406,-520.183 681.264,-504.113 628.064,-488 623.591,-486.645 619.008,-485.216 614.393,-483.745"/>
<polygon fill="midnightblue" stroke="midnightblue" points="788.817,-535.96 799.372,-535.046 790.551,-529.178 788.817,-535.96"/>
</g>
<!-- Node15 -->
<g id="node15" class="node"><title>Node15</title>
<g id="a_node15"><a xlink:href="../../da/d5d/Vertexer_8cxx.html" target="_top" xlink:title="/home/travis/build\l/AliceO2Group/AliceO2\l/Detectors/ITSMFT/ITS\l/reconstruction/src/CA\l/vertexer/Vertexer.cxx">
<polygon fill="none" stroke="black" points="492.064,-206.5 492.064,-269.5 612.064,-269.5 612.064,-206.5 492.064,-206.5"/>
<text text-anchor="start" x="500.064" y="-257.5" font-family="Helvetica,sans-Serif" font-size="10.00">/home/travis/build</text>
<text text-anchor="start" x="500.064" y="-246.5" font-family="Helvetica,sans-Serif" font-size="10.00">/AliceO2Group/AliceO2</text>
<text text-anchor="start" x="500.064" y="-235.5" font-family="Helvetica,sans-Serif" font-size="10.00">/Detectors/ITSMFT/ITS</text>
<text text-anchor="start" x="500.064" y="-224.5" font-family="Helvetica,sans-Serif" font-size="10.00">/reconstruction/src/CA</text>
<text text-anchor="middle" x="552.064" y="-213.5" font-family="Helvetica,sans-Serif" font-size="10.00">/vertexer/Vertexer.cxx</text>
</a>
</g>
</g>
<!-- Node1&#45;&gt;Node15 -->
<g id="edge33" class="edge"><title>Node1&#45;&gt;Node15</title>
<path fill="none" stroke="midnightblue" d="M803.916,-519.764C786.84,-510.453 769.287,-499.698 754.064,-488 671.524,-424.575 601.785,-320.947 570.188,-269.693"/>
<polygon fill="midnightblue" stroke="midnightblue" points="802.318,-522.879 812.788,-524.499 805.614,-516.703 802.318,-522.879"/>
</g>
<!-- Node17 -->
<g id="node17" class="node"><title>Node17</title>
<g id="a_node17"><a xlink:href="../../d1/dbd/TrackingUtils_8h.html" target="_top" xlink:title="/home/travis/build\l/AliceO2Group/AliceO2\l/Detectors/ITSMFT/ITS\l/reconstruction/include\l/ITSReconstruction/CA/TrackingUtils.h">
<polygon fill="none" stroke="black" points="1124.06,-424.5 1124.06,-487.5 1312.06,-487.5 1312.06,-424.5 1124.06,-424.5"/>
<text text-anchor="start" x="1132.06" y="-475.5" font-family="Helvetica,sans-Serif" font-size="10.00">/home/travis/build</text>
<text text-anchor="start" x="1132.06" y="-464.5" font-family="Helvetica,sans-Serif" font-size="10.00">/AliceO2Group/AliceO2</text>
<text text-anchor="start" x="1132.06" y="-453.5" font-family="Helvetica,sans-Serif" font-size="10.00">/Detectors/ITSMFT/ITS</text>
<text text-anchor="start" x="1132.06" y="-442.5" font-family="Helvetica,sans-Serif" font-size="10.00">/reconstruction/include</text>
<text text-anchor="middle" x="1218.06" y="-431.5" font-family="Helvetica,sans-Serif" font-size="10.00">/ITSReconstruction/CA/TrackingUtils.h</text>
</a>
</g>
</g>
<!-- Node1&#45;&gt;Node17 -->
<g id="edge23" class="edge"><title>Node1&#45;&gt;Node17</title>
<path fill="none" stroke="midnightblue" d="M970.236,-528.855C1017.66,-515.106 1075.75,-498.263 1123.77,-484.341"/>
<polygon fill="midnightblue" stroke="midnightblue" points="969.223,-525.505 960.594,-531.651 971.173,-532.228 969.223,-525.505"/>
</g>
<!-- Node19 -->
<g id="node19" class="node"><title>Node19</title>
<g id="a_node19"><a xlink:href="../../da/dc0/Tracklet_8h.html" target="_top" xlink:title="/home/travis/build\l/AliceO2Group/AliceO2\l/Detectors/ITSMFT/ITS\l/reconstruction/include\l/ITSReconstruction/CA/Tracklet.h">
<polygon fill="none" stroke="black" points="797.564,-424.5 797.564,-487.5 962.564,-487.5 962.564,-424.5 797.564,-424.5"/>
<text text-anchor="start" x="805.564" y="-475.5" font-family="Helvetica,sans-Serif" font-size="10.00">/home/travis/build</text>
<text text-anchor="start" x="805.564" y="-464.5" font-family="Helvetica,sans-Serif" font-size="10.00">/AliceO2Group/AliceO2</text>
<text text-anchor="start" x="805.564" y="-453.5" font-family="Helvetica,sans-Serif" font-size="10.00">/Detectors/ITSMFT/ITS</text>
<text text-anchor="start" x="805.564" y="-442.5" font-family="Helvetica,sans-Serif" font-size="10.00">/reconstruction/include</text>
<text text-anchor="middle" x="880.064" y="-431.5" font-family="Helvetica,sans-Serif" font-size="10.00">/ITSReconstruction/CA/Tracklet.h</text>
</a>
</g>
</g>
<!-- Node1&#45;&gt;Node19 -->
<g id="edge26" class="edge"><title>Node1&#45;&gt;Node19</title>
<path fill="none" stroke="midnightblue" d="M880.064,-514.099C880.064,-505.238 880.064,-496.015 880.064,-487.63"/>
<polygon fill="midnightblue" stroke="midnightblue" points="876.564,-514.261 880.064,-524.261 883.564,-514.261 876.564,-514.261"/>
</g>
<!-- Node21 -->
<g id="node21" class="node"><title>Node21</title>
<g id="a_node21"><a xlink:href="../../d6/db6/Detectors_2ITSMFT_2ITS_2reconstruction_2src_2CA_2Cluster_8cxx.html" target="_top" xlink:title="/home/travis/build\l/AliceO2Group/AliceO2\l/Detectors/ITSMFT/ITS\l/reconstruction/src/CA\l/Cluster.cxx">
<polygon fill="none" stroke="black" points="1330.06,-424.5 1330.06,-487.5 1450.06,-487.5 1450.06,-424.5 1330.06,-424.5"/>
<text text-anchor="start" x="1338.06" y="-475.5" font-family="Helvetica,sans-Serif" font-size="10.00">/home/travis/build</text>
<text text-anchor="start" x="1338.06" y="-464.5" font-family="Helvetica,sans-Serif" font-size="10.00">/AliceO2Group/AliceO2</text>
<text text-anchor="start" x="1338.06" y="-453.5" font-family="Helvetica,sans-Serif" font-size="10.00">/Detectors/ITSMFT/ITS</text>
<text text-anchor="start" x="1338.06" y="-442.5" font-family="Helvetica,sans-Serif" font-size="10.00">/reconstruction/src/CA</text>
<text text-anchor="middle" x="1390.06" y="-431.5" font-family="Helvetica,sans-Serif" font-size="10.00">/Cluster.cxx</text>
</a>
</g>
</g>
<!-- Node1&#45;&gt;Node21 -->
<g id="edge32" class="edge"><title>Node1&#45;&gt;Node21</title>
<path fill="none" stroke="midnightblue" d="M970.954,-548.438C1061.23,-540.242 1202.86,-522.824 1321.06,-488 1323.96,-487.146 1326.89,-486.196 1329.83,-485.173"/>
<polygon fill="midnightblue" stroke="midnightblue" points="970.401,-544.973 960.75,-549.345 971.02,-551.946 970.401,-544.973"/>
</g>
<!-- Node5 -->
<g id="node5" class="node"><title>Node5</title>
<g id="a_node5"><a xlink:href="../../d6/d8d/Event_8h.html" target="_top" xlink:title="/home/travis/build\l/AliceO2Group/AliceO2\l/Detectors/ITSMFT/ITS\l/reconstruction/include\l/ITSReconstruction/CA/Event.h">
<polygon fill="none" stroke="black" points="237.564,-318.5 237.564,-381.5 392.564,-381.5 392.564,-318.5 237.564,-318.5"/>
<text text-anchor="start" x="245.564" y="-369.5" font-family="Helvetica,sans-Serif" font-size="10.00">/home/travis/build</text>
<text text-anchor="start" x="245.564" y="-358.5" font-family="Helvetica,sans-Serif" font-size="10.00">/AliceO2Group/AliceO2</text>
<text text-anchor="start" x="245.564" y="-347.5" font-family="Helvetica,sans-Serif" font-size="10.00">/Detectors/ITSMFT/ITS</text>
<text text-anchor="start" x="245.564" y="-336.5" font-family="Helvetica,sans-Serif" font-size="10.00">/reconstruction/include</text>
<text text-anchor="middle" x="315.064" y="-325.5" font-family="Helvetica,sans-Serif" font-size="10.00">/ITSReconstruction/CA/Event.h</text>
</a>
</g>
</g>
<!-- Node4&#45;&gt;Node5 -->
<g id="edge4" class="edge"><title>Node4&#45;&gt;Node5</title>
<path fill="none" stroke="midnightblue" d="M462.651,-420.14C435.935,-407.624 406.035,-393.617 380.17,-381.5"/>
<polygon fill="midnightblue" stroke="midnightblue" points="461.416,-423.426 471.956,-424.499 464.386,-417.088 461.416,-423.426"/>
</g>
<!-- Node12 -->
<g id="node12" class="node"><title>Node12</title>
<g id="a_node12"><a xlink:href="../../de/d79/Tracker_8cxx.html" target="_top" xlink:title="/home/travis/build\l/AliceO2Group/AliceO2\l/Detectors/ITSMFT/ITS\l/reconstruction/src/CA\l/Tracker.cxx">
<polygon fill="none" stroke="black" points="801.064,-0.5 801.064,-63.5 921.064,-63.5 921.064,-0.5 801.064,-0.5"/>
<text text-anchor="start" x="809.064" y="-51.5" font-family="Helvetica,sans-Serif" font-size="10.00">/home/travis/build</text>
<text text-anchor="start" x="809.064" y="-40.5" font-family="Helvetica,sans-Serif" font-size="10.00">/AliceO2Group/AliceO2</text>
<text text-anchor="start" x="809.064" y="-29.5" font-family="Helvetica,sans-Serif" font-size="10.00">/Detectors/ITSMFT/ITS</text>
<text text-anchor="start" x="809.064" y="-18.5" font-family="Helvetica,sans-Serif" font-size="10.00">/reconstruction/src/CA</text>
<text text-anchor="middle" x="861.064" y="-7.5" font-family="Helvetica,sans-Serif" font-size="10.00">/Tracker.cxx</text>
</a>
</g>
</g>
<!-- Node4&#45;&gt;Node12 -->
<g id="edge21" class="edge"><title>Node4&#45;&gt;Node12</title>
<path fill="none" stroke="midnightblue" d="M560.621,-415.987C582.526,-383.147 618.182,-337.562 661.064,-312 724.418,-274.234 772.593,-329.784 823.064,-276 851.406,-245.797 858.615,-121.82 860.444,-63.5408"/>
<polygon fill="midnightblue" stroke="midnightblue" points="557.624,-414.176 555.083,-424.462 563.483,-418.005 557.624,-414.176"/>
</g>
<!-- Node4&#45;&gt;Node15 -->
<g id="edge22" class="edge"><title>Node4&#45;&gt;Node15</title>
<path fill="none" stroke="midnightblue" d="M539.921,-413.86C542.844,-371.759 547.32,-307.312 549.943,-269.541"/>
<polygon fill="midnightblue" stroke="midnightblue" points="536.414,-413.834 539.213,-424.052 543.397,-414.319 536.414,-413.834"/>
</g>
<!-- Node16 -->
<g id="node16" class="node"><title>Node16</title>
<g id="a_node16"><a xlink:href="../../d3/d2f/Layer_8cxx.html" target="_top" xlink:title="/home/travis/build\l/AliceO2Group/AliceO2\l/Detectors/ITSMFT/ITS\l/reconstruction/src/CA\l/Layer.cxx">
<polygon fill="none" stroke="black" points="411.064,-318.5 411.064,-381.5 531.064,-381.5 531.064,-318.5 411.064,-318.5"/>
<text text-anchor="start" x="419.064" y="-369.5" font-family="Helvetica,sans-Serif" font-size="10.00">/home/travis/build</text>
<text text-anchor="start" x="419.064" y="-358.5" font-family="Helvetica,sans-Serif" font-size="10.00">/AliceO2Group/AliceO2</text>
<text text-anchor="start" x="419.064" y="-347.5" font-family="Helvetica,sans-Serif" font-size="10.00">/Detectors/ITSMFT/ITS</text>
<text text-anchor="start" x="419.064" y="-336.5" font-family="Helvetica,sans-Serif" font-size="10.00">/reconstruction/src/CA</text>
<text text-anchor="middle" x="471.064" y="-325.5" font-family="Helvetica,sans-Serif" font-size="10.00">/Layer.cxx</text>
</a>
</g>
</g>
<!-- Node4&#45;&gt;Node16 -->
<g id="edge20" class="edge"><title>Node4&#45;&gt;Node16</title>
<path fill="none" stroke="midnightblue" d="M512.061,-415.602C504.957,-404.408 497.327,-392.384 490.598,-381.781"/>
<polygon fill="midnightblue" stroke="midnightblue" points="509.305,-417.791 517.618,-424.359 515.215,-414.04 509.305,-417.791"/>
</g>
<!-- Node6 -->
<g id="node6" class="node"><title>Node6</title>
<g id="a_node6"><a xlink:href="../../d7/dba/IOUtils_8h.html" target="_top" xlink:title="/home/travis/build\l/AliceO2Group/AliceO2\l/Detectors/ITSMFT/ITS\l/reconstruction/include\l/ITSReconstruction/CA/IOUtils.h">
<polygon fill="none" stroke="black" points="98.5637,-206.5 98.5637,-269.5 259.564,-269.5 259.564,-206.5 98.5637,-206.5"/>
<text text-anchor="start" x="106.564" y="-257.5" font-family="Helvetica,sans-Serif" font-size="10.00">/home/travis/build</text>
<text text-anchor="start" x="106.564" y="-246.5" font-family="Helvetica,sans-Serif" font-size="10.00">/AliceO2Group/AliceO2</text>
<text text-anchor="start" x="106.564" y="-235.5" font-family="Helvetica,sans-Serif" font-size="10.00">/Detectors/ITSMFT/ITS</text>
<text text-anchor="start" x="106.564" y="-224.5" font-family="Helvetica,sans-Serif" font-size="10.00">/reconstruction/include</text>
<text text-anchor="middle" x="179.064" y="-213.5" font-family="Helvetica,sans-Serif" font-size="10.00">/ITSReconstruction/CA/IOUtils.h</text>
</a>
</g>
</g>
<!-- Node5&#45;&gt;Node6 -->
<g id="edge5" class="edge"><title>Node5&#45;&gt;Node6</title>
<path fill="none" stroke="midnightblue" d="M269.084,-311.81C252.216,-298.167 233.322,-282.886 217.216,-269.858"/>
<polygon fill="midnightblue" stroke="midnightblue" points="267.204,-314.791 277.18,-318.359 271.606,-309.349 267.204,-314.791"/>
</g>
<!-- Node8 -->
<g id="node8" class="node"><title>Node8</title>
<g id="a_node8"><a xlink:href="../../d6/db2/run__trac__ca__its_8C.html" target="_top" xlink:title="/home/travis/build\l/AliceO2Group/AliceO2\l/macro/run_trac_ca_its.C">
<polygon fill="none" stroke="black" points="263.564,-11.5 263.564,-52.5 390.564,-52.5 390.564,-11.5 263.564,-11.5"/>
<text text-anchor="start" x="271.564" y="-40.5" font-family="Helvetica,sans-Serif" font-size="10.00">/home/travis/build</text>
<text text-anchor="start" x="271.564" y="-29.5" font-family="Helvetica,sans-Serif" font-size="10.00">/AliceO2Group/AliceO2</text>
<text text-anchor="middle" x="327.064" y="-18.5" font-family="Helvetica,sans-Serif" font-size="10.00">/macro/run_trac_ca_its.C</text>
</a>
</g>
</g>
<!-- Node5&#45;&gt;Node8 -->
<g id="edge18" class="edge"><title>Node5&#45;&gt;Node8</title>
<path fill="none" stroke="midnightblue" d="M227.361,-341.34C176.37,-332.734 113.92,-314.514 71.0637,-276 10.8447,-221.882 -26.6304,-163.128 24.0637,-100 53.4957,-63.3489 183.588,-45.5331 263.437,-37.9041"/>
<polygon fill="midnightblue" stroke="midnightblue" points="226.971,-344.822 237.397,-342.937 228.071,-337.909 226.971,-344.822"/>
</g>
<!-- Node9 -->
<g id="node9" class="node"><title>Node9</title>
<g id="a_node9"><a xlink:href="../../d4/da9/run__vert__ca__its_8C.html" target="_top" xlink:title="/home/travis/build\l/AliceO2Group/AliceO2\l/macro/run_vert_ca_its.C">
<polygon fill="none" stroke="black" points="33.5637,-111.5 33.5637,-152.5 160.564,-152.5 160.564,-111.5 33.5637,-111.5"/>
<text text-anchor="start" x="41.5637" y="-140.5" font-family="Helvetica,sans-Serif" font-size="10.00">/home/travis/build</text>
<text text-anchor="start" x="41.5637" y="-129.5" font-family="Helvetica,sans-Serif" font-size="10.00">/AliceO2Group/AliceO2</text>
<text text-anchor="middle" x="97.0637" y="-118.5" font-family="Helvetica,sans-Serif" font-size="10.00">/macro/run_vert_ca_its.C</text>
</a>
</g>
</g>
<!-- Node5&#45;&gt;Node9 -->
<g id="edge19" class="edge"><title>Node5&#45;&gt;Node9</title>
<path fill="none" stroke="midnightblue" d="M227.417,-344.818C178.223,-337.431 120.561,-319.273 89.0637,-276 62.432,-239.411 77.7107,-182.57 88.7689,-152.766"/>
<polygon fill="midnightblue" stroke="midnightblue" points="227.069,-348.303 237.453,-346.196 228.022,-341.368 227.069,-348.303"/>
</g>
<!-- Node10 -->
<g id="node10" class="node"><title>Node10</title>
<g id="a_node10"><a xlink:href="../../d3/da9/PrimaryVertexContext_8h.html" target="_top" xlink:title="/home/travis/build\l/AliceO2Group/AliceO2\l/Detectors/ITSMFT/ITS\l/reconstruction/include\l/ITSReconstruction/CA/PrimaryVertex\lContext.h">
<polygon fill="none" stroke="black" points="630.064,-201 630.064,-275 814.064,-275 814.064,-201 630.064,-201"/>
<text text-anchor="start" x="638.064" y="-263" font-family="Helvetica,sans-Serif" font-size="10.00">/home/travis/build</text>
<text text-anchor="start" x="638.064" y="-252" font-family="Helvetica,sans-Serif" font-size="10.00">/AliceO2Group/AliceO2</text>
<text text-anchor="start" x="638.064" y="-241" font-family="Helvetica,sans-Serif" font-size="10.00">/Detectors/ITSMFT/ITS</text>
<text text-anchor="start" x="638.064" y="-230" font-family="Helvetica,sans-Serif" font-size="10.00">/reconstruction/include</text>
<text text-anchor="start" x="638.064" y="-219" font-family="Helvetica,sans-Serif" font-size="10.00">/ITSReconstruction/CA/PrimaryVertex</text>
<text text-anchor="middle" x="722.064" y="-208" font-family="Helvetica,sans-Serif" font-size="10.00">Context.h</text>
</a>
</g>
</g>
<!-- Node5&#45;&gt;Node10 -->
<g id="edge9" class="edge"><title>Node5&#45;&gt;Node10</title>
<path fill="none" stroke="midnightblue" d="M392.517,-314.978C395.721,-313.915 398.911,-312.916 402.064,-312 496.362,-284.589 525.058,-300.849 620.064,-276 623.344,-275.142 626.667,-274.222 630.011,-273.252"/>
<polygon fill="midnightblue" stroke="midnightblue" points="391.177,-311.739 382.891,-318.342 393.486,-318.347 391.177,-311.739"/>
</g>
<!-- Node11 -->
<g id="node11" class="node"><title>Node11</title>
<g id="a_node11"><a xlink:href="../../d2/d0e/Tracker_8h.html" target="_top" xlink:title="/home/travis/build\l/AliceO2Group/AliceO2\l/Detectors/ITSMFT/ITS\l/reconstruction/include\l/ITSReconstruction/CA/Tracker.h">
<polygon fill="none" stroke="black" points="574.564,-100.5 574.564,-163.5 737.564,-163.5 737.564,-100.5 574.564,-100.5"/>
<text text-anchor="start" x="582.564" y="-151.5" font-family="Helvetica,sans-Serif" font-size="10.00">/home/travis/build</text>
<text text-anchor="start" x="582.564" y="-140.5" font-family="Helvetica,sans-Serif" font-size="10.00">/AliceO2Group/AliceO2</text>
<text text-anchor="start" x="582.564" y="-129.5" font-family="Helvetica,sans-Serif" font-size="10.00">/Detectors/ITSMFT/ITS</text>
<text text-anchor="start" x="582.564" y="-118.5" font-family="Helvetica,sans-Serif" font-size="10.00">/reconstruction/include</text>
<text text-anchor="middle" x="656.064" y="-107.5" font-family="Helvetica,sans-Serif" font-size="10.00">/ITSReconstruction/CA/Tracker.h</text>
</a>
</g>
</g>
<!-- Node5&#45;&gt;Node11 -->
<g id="edge14" class="edge"><title>Node5&#45;&gt;Node11</title>
<path fill="none" stroke="midnightblue" d="M395.329,-313.17C412.795,-302.887 430.178,-290.465 444.064,-276 470.356,-248.612 454.851,-225.405 483.064,-200 508.674,-176.938 543.098,-161.45 574.494,-151.233"/>
<polygon fill="midnightblue" stroke="midnightblue" points="393.173,-310.369 386.206,-318.352 396.63,-316.456 393.173,-310.369"/>
</g>
<!-- Node13 -->
<g id="node13" class="node"><title>Node13</title>
<g id="a_node13"><a xlink:href="../../d9/d29/PrimaryVertexContext_8cxx.html" target="_top" xlink:title="/home/travis/build\l/AliceO2Group/AliceO2\l/Detectors/ITSMFT/ITS\l/reconstruction/src/CA\l/PrimaryVertexContext.cxx">
<polygon fill="none" stroke="black" points="388.564,-100.5 388.564,-163.5 523.564,-163.5 523.564,-100.5 388.564,-100.5"/>
<text text-anchor="start" x="396.564" y="-151.5" font-family="Helvetica,sans-Serif" font-size="10.00">/home/travis/build</text>
<text text-anchor="start" x="396.564" y="-140.5" font-family="Helvetica,sans-Serif" font-size="10.00">/AliceO2Group/AliceO2</text>
<text text-anchor="start" x="396.564" y="-129.5" font-family="Helvetica,sans-Serif" font-size="10.00">/Detectors/ITSMFT/ITS</text>
<text text-anchor="start" x="396.564" y="-118.5" font-family="Helvetica,sans-Serif" font-size="10.00">/reconstruction/src/CA</text>
<text text-anchor="middle" x="456.064" y="-107.5" font-family="Helvetica,sans-Serif" font-size="10.00">/PrimaryVertexContext.cxx</text>
</a>
</g>
</g>
<!-- Node5&#45;&gt;Node13 -->
<g id="edge16" class="edge"><title>Node5&#45;&gt;Node13</title>
<path fill="none" stroke="midnightblue" d="M300.714,-308.41C292.096,-276.408 286.371,-231.993 307.064,-200 325.163,-172.017 358.037,-155.606 388.31,-146.041"/>
<polygon fill="midnightblue" stroke="midnightblue" points="297.443,-309.699 303.584,-318.333 304.168,-307.754 297.443,-309.699"/>
</g>
<!-- Node14 -->
<g id="node14" class="node"><title>Node14</title>
<g id="a_node14"><a xlink:href="../../d7/d14/Event_8cxx.html" target="_top" xlink:title="/home/travis/build\l/AliceO2Group/AliceO2\l/Detectors/ITSMFT/ITS\l/reconstruction/src/CA\l/Event.cxx">
<polygon fill="none" stroke="black" points="316.064,-206.5 316.064,-269.5 436.064,-269.5 436.064,-206.5 316.064,-206.5"/>
<text text-anchor="start" x="324.064" y="-257.5" font-family="Helvetica,sans-Serif" font-size="10.00">/home/travis/build</text>
<text text-anchor="start" x="324.064" y="-246.5" font-family="Helvetica,sans-Serif" font-size="10.00">/AliceO2Group/AliceO2</text>
<text text-anchor="start" x="324.064" y="-235.5" font-family="Helvetica,sans-Serif" font-size="10.00">/Detectors/ITSMFT/ITS</text>
<text text-anchor="start" x="324.064" y="-224.5" font-family="Helvetica,sans-Serif" font-size="10.00">/reconstruction/src/CA</text>
<text text-anchor="middle" x="376.064" y="-213.5" font-family="Helvetica,sans-Serif" font-size="10.00">/Event.cxx</text>
</a>
</g>
</g>
<!-- Node5&#45;&gt;Node14 -->
<g id="edge15" class="edge"><title>Node5&#45;&gt;Node14</title>
<path fill="none" stroke="midnightblue" d="M336.933,-309.564C344.173,-296.507 352.121,-282.175 358.951,-269.858"/>
<polygon fill="midnightblue" stroke="midnightblue" points="333.844,-307.916 332.056,-318.359 339.966,-311.311 333.844,-307.916"/>
</g>
<!-- Node5&#45;&gt;Node15 -->
<g id="edge17" class="edge"><title>Node5&#45;&gt;Node15</title>
<path fill="none" stroke="midnightblue" d="M394.459,-314.255C421.138,-302.364 450.991,-288.823 478.064,-276 482.607,-273.848 487.291,-271.593 491.993,-269.303"/>
<polygon fill="midnightblue" stroke="midnightblue" points="392.879,-311.127 385.164,-318.388 395.724,-317.523 392.879,-311.127"/>
</g>
<!-- Node7 -->
<g id="node7" class="node"><title>Node7</title>
<g id="a_node7"><a xlink:href="../../d5/d1a/IOUtils_8cxx.html" target="_top" xlink:title="/home/travis/build\l/AliceO2Group/AliceO2\l/Detectors/ITSMFT/ITS\l/reconstruction/src/CA\l/IOUtils.cxx">
<polygon fill="none" stroke="black" points="179.064,-100.5 179.064,-163.5 299.064,-163.5 299.064,-100.5 179.064,-100.5"/>
<text text-anchor="start" x="187.064" y="-151.5" font-family="Helvetica,sans-Serif" font-size="10.00">/home/travis/build</text>
<text text-anchor="start" x="187.064" y="-140.5" font-family="Helvetica,sans-Serif" font-size="10.00">/AliceO2Group/AliceO2</text>
<text text-anchor="start" x="187.064" y="-129.5" font-family="Helvetica,sans-Serif" font-size="10.00">/Detectors/ITSMFT/ITS</text>
<text text-anchor="start" x="187.064" y="-118.5" font-family="Helvetica,sans-Serif" font-size="10.00">/reconstruction/src/CA</text>
<text text-anchor="middle" x="239.064" y="-107.5" font-family="Helvetica,sans-Serif" font-size="10.00">/IOUtils.cxx</text>
</a>
</g>
</g>
<!-- Node6&#45;&gt;Node7 -->
<g id="edge6" class="edge"><title>Node6&#45;&gt;Node7</title>
<path fill="none" stroke="midnightblue" d="M201.793,-197.602C208.252,-186.408 215.188,-174.384 221.305,-163.781"/>
<polygon fill="midnightblue" stroke="midnightblue" points="198.707,-195.948 196.741,-206.359 204.77,-199.446 198.707,-195.948"/>
</g>
<!-- Node6&#45;&gt;Node8 -->
<g id="edge7" class="edge"><title>Node6&#45;&gt;Node8</title>
<path fill="none" stroke="midnightblue" d="M266.955,-201.132C282.403,-191.209 296.796,-178.944 307.064,-164 330.254,-130.247 330.865,-80.0988 329.084,-52.6729"/>
<polygon fill="midnightblue" stroke="midnightblue" points="265.009,-198.219 258.284,-206.407 268.647,-204.2 265.009,-198.219"/>
</g>
<!-- Node6&#45;&gt;Node9 -->
<g id="edge8" class="edge"><title>Node6&#45;&gt;Node9</title>
<path fill="none" stroke="midnightblue" d="M148.629,-198.399C136.341,-182.816 122.695,-165.509 112.529,-152.615"/>
<polygon fill="midnightblue" stroke="midnightblue" points="145.964,-200.673 154.904,-206.359 151.461,-196.339 145.964,-200.673"/>
</g>
<!-- Node10&#45;&gt;Node11 -->
<g id="edge10" class="edge"><title>Node10&#45;&gt;Node11</title>
<path fill="none" stroke="midnightblue" d="M693.664,-192.249C687.582,-182.666 681.288,-172.748 675.629,-163.831"/>
<polygon fill="midnightblue" stroke="midnightblue" points="690.852,-194.35 699.165,-200.918 696.762,-190.599 690.852,-194.35"/>
</g>
<!-- Node10&#45;&gt;Node13 -->
<g id="edge13" class="edge"><title>Node10&#45;&gt;Node13</title>
<path fill="none" stroke="midnightblue" d="M620.301,-197.213C588.023,-184.593 553.143,-170.956 523.864,-159.508"/>
<polygon fill="midnightblue" stroke="midnightblue" points="619.188,-200.536 629.776,-200.918 621.737,-194.017 619.188,-200.536"/>
</g>
<!-- Node11&#45;&gt;Node8 -->
<g id="edge12" class="edge"><title>Node11&#45;&gt;Node8</title>
<path fill="none" stroke="midnightblue" d="M564.515,-103.73C509.24,-87.2653 440.185,-66.6956 390.817,-51.9902"/>
<polygon fill="midnightblue" stroke="midnightblue" points="563.732,-107.149 574.315,-106.649 565.73,-100.44 563.732,-107.149"/>
</g>
<!-- Node11&#45;&gt;Node12 -->
<g id="edge11" class="edge"><title>Node11&#45;&gt;Node12</title>
<path fill="none" stroke="midnightblue" d="M729.314,-95.9826C752.823,-84.7441 778.573,-72.4346 801.022,-61.7029"/>
<polygon fill="midnightblue" stroke="midnightblue" points="727.596,-92.9245 720.084,-100.395 730.615,-99.24 727.596,-92.9245"/>
</g>
<!-- Node17&#45;&gt;Node12 -->
<g id="edge24" class="edge"><title>Node17&#45;&gt;Node12</title>
<path fill="none" stroke="midnightblue" d="M1302.06,-418.592C1313.27,-410.172 1323.23,-400.054 1330.06,-388 1346.73,-358.618 1346.76,-341.362 1330.06,-312 1241.2,-155.729 1026.4,-77.8369 921.181,-47.9872"/>
<polygon fill="midnightblue" stroke="midnightblue" points="1299.91,-415.829 1293.71,-424.426 1303.92,-421.568 1299.91,-415.829"/>
</g>
<!-- Node18 -->
<g id="node18" class="node"><title>Node18</title>
<g id="a_node18"><a xlink:href="../../dc/dad/TrackingUtils_8cxx.html" target="_top" xlink:title="/home/travis/build\l/AliceO2Group/AliceO2\l/Detectors/ITSMFT/ITS\l/reconstruction/src/CA\l/TrackingUtils.cxx">
<polygon fill="none" stroke="black" points="1202.06,-318.5 1202.06,-381.5 1322.06,-381.5 1322.06,-318.5 1202.06,-318.5"/>
<text text-anchor="start" x="1210.06" y="-369.5" font-family="Helvetica,sans-Serif" font-size="10.00">/home/travis/build</text>
<text text-anchor="start" x="1210.06" y="-358.5" font-family="Helvetica,sans-Serif" font-size="10.00">/AliceO2Group/AliceO2</text>
<text text-anchor="start" x="1210.06" y="-347.5" font-family="Helvetica,sans-Serif" font-size="10.00">/Detectors/ITSMFT/ITS</text>
<text text-anchor="start" x="1210.06" y="-336.5" font-family="Helvetica,sans-Serif" font-size="10.00">/reconstruction/src/CA</text>
<text text-anchor="middle" x="1262.06" y="-325.5" font-family="Helvetica,sans-Serif" font-size="10.00">/TrackingUtils.cxx</text>
</a>
</g>
</g>
<!-- Node17&#45;&gt;Node18 -->
<g id="edge25" class="edge"><title>Node17&#45;&gt;Node18</title>
<path fill="none" stroke="midnightblue" d="M1235.01,-414.936C1239.67,-403.932 1244.64,-392.174 1249.04,-381.781"/>
<polygon fill="midnightblue" stroke="midnightblue" points="1231.7,-413.786 1231.03,-424.359 1238.15,-416.513 1231.7,-413.786"/>
</g>
<!-- Node19&#45;&gt;Node2 -->
<g id="edge27" class="edge"><title>Node19&#45;&gt;Node2</title>
<path fill="none" stroke="midnightblue" d="M831.27,-418.228C817.942,-408.184 803.512,-397.309 790.22,-387.292"/>
<polygon fill="midnightblue" stroke="midnightblue" points="829.313,-421.136 839.406,-424.359 833.526,-415.545 829.313,-421.136"/>
</g>
<!-- Node19&#45;&gt;Node3 -->
<g id="edge28" class="edge"><title>Node19&#45;&gt;Node3</title>
<path fill="none" stroke="midnightblue" d="M961.922,-420.432C985.886,-410.153 1012.09,-398.761 1036.06,-388 1039.38,-386.512 1042.77,-384.977 1046.19,-383.419"/>
<polygon fill="midnightblue" stroke="midnightblue" points="960.322,-417.31 952.507,-424.463 963.077,-423.745 960.322,-417.31"/>
</g>
<!-- Node19&#45;&gt;Node10 -->
<g id="edge29" class="edge"><title>Node19&#45;&gt;Node10</title>
<path fill="none" stroke="midnightblue" d="M870.14,-414.425C861.228,-383.971 845.834,-342.453 822.064,-312 811.218,-298.106 797.061,-285.623 782.826,-275.072"/>
<polygon fill="midnightblue" stroke="midnightblue" points="866.84,-415.619 872.917,-424.297 873.579,-413.723 866.84,-415.619"/>
</g>
<!-- Node19&#45;&gt;Node12 -->
<g id="edge30" class="edge"><title>Node19&#45;&gt;Node12</title>
<path fill="none" stroke="midnightblue" d="M878.222,-414.096C874.425,-329.759 865.801,-138.21 862.44,-63.5741"/>
<polygon fill="midnightblue" stroke="midnightblue" points="874.736,-414.478 878.682,-424.311 881.729,-414.164 874.736,-414.478"/>
</g>
<!-- Node20 -->
<g id="node20" class="node"><title>Node20</title>
<g id="a_node20"><a xlink:href="../../d2/d07/Tracklet_8cxx.html" target="_top" xlink:title="/home/travis/build\l/AliceO2Group/AliceO2\l/Detectors/ITSMFT/ITS\l/reconstruction/src/CA\l/Tracklet.cxx">
<polygon fill="none" stroke="black" points="908.064,-318.5 908.064,-381.5 1028.06,-381.5 1028.06,-318.5 908.064,-318.5"/>
<text text-anchor="start" x="916.064" y="-369.5" font-family="Helvetica,sans-Serif" font-size="10.00">/home/travis/build</text>
<text text-anchor="start" x="916.064" y="-358.5" font-family="Helvetica,sans-Serif" font-size="10.00">/AliceO2Group/AliceO2</text>
<text text-anchor="start" x="916.064" y="-347.5" font-family="Helvetica,sans-Serif" font-size="10.00">/Detectors/ITSMFT/ITS</text>
<text text-anchor="start" x="916.064" y="-336.5" font-family="Helvetica,sans-Serif" font-size="10.00">/reconstruction/src/CA</text>
<text text-anchor="middle" x="968.064" y="-325.5" font-family="Helvetica,sans-Serif" font-size="10.00">/Tracklet.cxx</text>
</a>
</g>
</g>
<!-- Node19&#45;&gt;Node20 -->
<g id="edge31" class="edge"><title>Node19&#45;&gt;Node20</title>
<path fill="none" stroke="midnightblue" d="M912.558,-416.597C922.267,-405.123 932.78,-392.699 942.018,-381.781"/>
<polygon fill="midnightblue" stroke="midnightblue" points="909.778,-414.464 905.991,-424.359 915.122,-418.986 909.778,-414.464"/>
</g>
</g>
</svg>
