<?xml version="1.0" encoding="UTF-8" standalone="no"?>
<!DOCTYPE svg PUBLIC "-//W3C//DTD SVG 1.1//EN"
 "http://www.w3.org/Graphics/SVG/1.1/DTD/svg11.dtd">
<!-- Generated by graphviz version 2.36.0 (20140111.2315)
 -->
<!-- Title: o2::ITS::CA::Vertexer Pages: 1 -->
<svg width="1718pt" height="502pt"
 viewBox="0.00 0.00 1718.00 502.00" xmlns="http://www.w3.org/2000/svg" xmlns:xlink="http://www.w3.org/1999/xlink">
<g id="graph0" class="graph" transform="scale(1 1) rotate(0) translate(4 498)">
<title>o2::ITS::CA::Vertexer</title>
<!-- Node1 -->
<g id="node1" class="node"><title>Node1</title>
<polygon fill="#bfbfbf" stroke="black" points="860,-0.5 860,-189.5 972,-189.5 972,-0.5 860,-0.5"/>
<text text-anchor="middle" x="916" y="-177.5" font-family="Helvetica,sans-Serif" font-size="10.00">o2::ITS::CA::Vertexer</text>
<polyline fill="none" stroke="black" points="860,-170.5 972,-170.5 "/>
<text text-anchor="middle" x="916" y="-158.5" font-family="Helvetica,sans-Serif" font-size="10.00"> </text>
<polyline fill="none" stroke="black" points="860,-151.5 972,-151.5 "/>
<text text-anchor="start" x="868" y="-139.5" font-family="Helvetica,sans-Serif" font-size="10.00">+ Vertexer()</text>
<text text-anchor="start" x="868" y="-128.5" font-family="Helvetica,sans-Serif" font-size="10.00">+ ~Vertexer()</text>
<text text-anchor="start" x="868" y="-117.5" font-family="Helvetica,sans-Serif" font-size="10.00">+ Vertexer()</text>
<text text-anchor="start" x="868" y="-106.5" font-family="Helvetica,sans-Serif" font-size="10.00">+ operator=()</text>
<text text-anchor="start" x="868" y="-95.5" font-family="Helvetica,sans-Serif" font-size="10.00">+ initialise()</text>
<text text-anchor="start" x="868" y="-84.5" font-family="Helvetica,sans-Serif" font-size="10.00">+ computeTriplets()</text>
<text text-anchor="start" x="868" y="-73.5" font-family="Helvetica,sans-Serif" font-size="10.00">+ checkTriplets()</text>
<text text-anchor="start" x="868" y="-62.5" font-family="Helvetica,sans-Serif" font-size="10.00">+ findTracklets()</text>
<text text-anchor="start" x="868" y="-51.5" font-family="Helvetica,sans-Serif" font-size="10.00">+ findVertices()</text>
<text text-anchor="start" x="868" y="-40.5" font-family="Helvetica,sans-Serif" font-size="10.00">+ getVertices()</text>
<text text-anchor="start" x="868" y="-29.5" font-family="Helvetica,sans-Serif" font-size="10.00">+ printIndexTables()</text>
<text text-anchor="start" x="868" y="-18.5" font-family="Helvetica,sans-Serif" font-size="10.00">+ printVertices()</text>
<text text-anchor="start" x="868" y="-7.5" font-family="Helvetica,sans-Serif" font-size="10.00">+ selectClusters()</text>
</g>
<!-- Node2 -->
<g id="node2" class="node"><title>Node2</title>
<polygon fill="none" stroke="#bfbfbf" points="0,-354 0,-444 168,-444 168,-354 0,-354"/>
<text text-anchor="start" x="8" y="-432" font-family="Helvetica,sans-Serif" font-size="10.00">array&lt; std::vector</text>
<text text-anchor="start" x="8" y="-421" font-family="Helvetica,sans-Serif" font-size="10.00">&lt; o2::ITS::CA::Cluster</text>
<text text-anchor="start" x="8" y="-410" font-family="Helvetica,sans-Serif" font-size="10.00"> &gt;, Constants::ITS::LayersNumber</text>
<text text-anchor="middle" x="84" y="-399" font-family="Helvetica,sans-Serif" font-size="10.00">Vertexer &gt;</text>
<polyline fill="none" stroke="#bfbfbf" points="0,-392 168,-392 "/>
<text text-anchor="middle" x="84" y="-380" font-family="Helvetica,sans-Serif" font-size="10.00"> </text>
<polyline fill="none" stroke="#bfbfbf" points="0,-373 168,-373 "/>
<text text-anchor="middle" x="84" y="-361" font-family="Helvetica,sans-Serif" font-size="10.00"> </text>
</g>
<!-- Node2&#45;&gt;Node1 -->
<g id="edge1" class="edge"><title>Node2&#45;&gt;Node1</title>
<path fill="none" stroke="#404040" d="M102.493,-353.962C123.598,-309.505 162.522,-242.614 218,-208 322.675,-142.691 693.465,-110.883 847.807,-100.238"/>
<polygon fill="none" stroke="#404040" points="847.888,-100.232 853.603,-95.835 859.861,-99.4193 854.145,-103.817 847.888,-100.232"/>
<text text-anchor="middle" x="245" y="-244.5" font-family="Helvetica,sans-Serif" font-size="10.00"> #mClusters</text>
</g>
<!-- Node3 -->
<g id="node3" class="node"><title>Node3</title>
<polygon fill="none" stroke="#bfbfbf" points="186,-365 186,-433 280,-433 280,-365 186,-365"/>
<text text-anchor="start" x="194" y="-421" font-family="Helvetica,sans-Serif" font-size="10.00">vector&lt; std::array</text>
<text text-anchor="middle" x="233" y="-410" font-family="Helvetica,sans-Serif" font-size="10.00">&lt; int, 3 &gt; &gt;</text>
<polyline fill="none" stroke="#bfbfbf" points="186,-403 280,-403 "/>
<text text-anchor="middle" x="233" y="-391" font-family="Helvetica,sans-Serif" font-size="10.00"> </text>
<polyline fill="none" stroke="#bfbfbf" points="186,-384 280,-384 "/>
<text text-anchor="middle" x="233" y="-372" font-family="Helvetica,sans-Serif" font-size="10.00"> </text>
</g>
<!-- Node3&#45;&gt;Node1 -->
<g id="edge2" class="edge"><title>Node3&#45;&gt;Node1</title>
<path fill="none" stroke="#404040" d="M241.926,-364.988C255.418,-321.75 285.312,-246.884 339,-208 419.644,-149.594 712.658,-115.148 847.382,-102.075"/>
<polygon fill="none" stroke="#404040" points="847.58,-102.056 853.171,-97.5024 859.525,-100.913 853.934,-105.466 847.58,-102.056"/>
<text text-anchor="middle" x="363.5" y="-244.5" font-family="Helvetica,sans-Serif" font-size="10.00"> #mTriplets</text>
</g>
<!-- Node4 -->
<g id="node4" class="node"><title>Node4</title>
<polygon fill="none" stroke="#bfbfbf" points="298,-348.5 298,-449.5 452,-449.5 452,-348.5 298,-348.5"/>
<text text-anchor="start" x="306" y="-437.5" font-family="Helvetica,sans-Serif" font-size="10.00">array&lt; std::array&lt;</text>
<text text-anchor="start" x="306" y="-426.5" font-family="Helvetica,sans-Serif" font-size="10.00"> int, Constants::IndexTable</text>
<text text-anchor="start" x="306" y="-415.5" font-family="Helvetica,sans-Serif" font-size="10.00">::ZBins *Constants::IndexTable</text>
<text text-anchor="start" x="306" y="-404.5" font-family="Helvetica,sans-Serif" font-size="10.00">::PhiBins+1 &gt;, Constants::ITS</text>
<text text-anchor="middle" x="375" y="-393.5" font-family="Helvetica,sans-Serif" font-size="10.00">::LayersNumberVertexer &gt;</text>
<polyline fill="none" stroke="#bfbfbf" points="298,-386.5 452,-386.5 "/>
<text text-anchor="middle" x="375" y="-374.5" font-family="Helvetica,sans-Serif" font-size="10.00"> </text>
<polyline fill="none" stroke="#bfbfbf" points="298,-367.5 452,-367.5 "/>
<text text-anchor="middle" x="375" y="-355.5" font-family="Helvetica,sans-Serif" font-size="10.00"> </text>
</g>
<!-- Node4&#45;&gt;Node1 -->
<g id="edge3" class="edge"><title>Node4&#45;&gt;Node1</title>
<path fill="none" stroke="#404040" d="M377.987,-348.333C383.286,-305.15 397.759,-244.013 437,-208 496.631,-153.274 730.544,-118.189 847.973,-103.661"/>
<polygon fill="none" stroke="#404040" points="848.078,-103.648 853.55,-98.951 859.99,-102.195 854.518,-106.892 848.078,-103.648"/>
<text text-anchor="middle" x="472" y="-244.5" font-family="Helvetica,sans-Serif" font-size="10.00"> #mIndexTables</text>
</g>
<!-- Node5 -->
<g id="node5" class="node"><title>Node5</title>
<polygon fill="none" stroke="#bfbfbf" points="470,-365 470,-433 564,-433 564,-365 470,-365"/>
<text text-anchor="start" x="478" y="-421" font-family="Helvetica,sans-Serif" font-size="10.00">vector&lt; std::pair&lt;</text>
<text text-anchor="middle" x="517" y="-410" font-family="Helvetica,sans-Serif" font-size="10.00"> int, int &gt; &gt;</text>
<polyline fill="none" stroke="#bfbfbf" points="470,-403 564,-403 "/>
<text text-anchor="middle" x="517" y="-391" font-family="Helvetica,sans-Serif" font-size="10.00"> </text>
<polyline fill="none" stroke="#bfbfbf" points="470,-384 564,-384 "/>
<text text-anchor="middle" x="517" y="-372" font-family="Helvetica,sans-Serif" font-size="10.00"> </text>
</g>
<!-- Node5&#45;&gt;Node1 -->
<g id="edge4" class="edge"><title>Node5&#45;&gt;Node1</title>
<path fill="none" stroke="#404040" d="M510.995,-364.888C505.459,-323.257 502.93,-251.933 540,-208 579.701,-160.949 750.814,-124.501 847.956,-107.142"/>
<polygon fill="none" stroke="#404040" points="848.18,-107.103 853.395,-102.122 859.998,-105.02 854.783,-110.001 848.18,-107.103"/>
<text text-anchor="middle" x="601.5" y="-250" font-family="Helvetica,sans-Serif" font-size="10.00"> #mClustersToProcessInner</text>
<text text-anchor="middle" x="601.5" y="-239" font-family="Helvetica,sans-Serif" font-size="10.00">#mClustersToProcessOuter</text>
</g>
<!-- Node6 -->
<g id="node6" class="node"><title>Node6</title>
<polygon fill="none" stroke="#bfbfbf" points="582.5,-365 582.5,-433 699.5,-433 699.5,-365 582.5,-365"/>
<text text-anchor="start" x="590.5" y="-421" font-family="Helvetica,sans-Serif" font-size="10.00">array&lt; float, Constants</text>
<text text-anchor="middle" x="641" y="-410" font-family="Helvetica,sans-Serif" font-size="10.00">::ITS::LayersNumber &gt;</text>
<polyline fill="none" stroke="#bfbfbf" points="582.5,-403 699.5,-403 "/>
<text text-anchor="middle" x="641" y="-391" font-family="Helvetica,sans-Serif" font-size="10.00"> </text>
<polyline fill="none" stroke="#bfbfbf" points="582.5,-384 699.5,-384 "/>
<text text-anchor="middle" x="641" y="-372" font-family="Helvetica,sans-Serif" font-size="10.00"> </text>
</g>
<!-- Node6&#45;&gt;Node1 -->
<g id="edge5" class="edge"><title>Node6&#45;&gt;Node1</title>
<path fill="none" stroke="#404040" d="M645.483,-364.825C652.548,-323.778 669.754,-253.728 709,-208 745.843,-165.072 803.379,-135.818 848.45,-118.004"/>
<polygon fill="none" stroke="#404040" points="848.709,-117.905 852.881,-112.022 859.915,-113.61 855.743,-119.493 848.709,-117.905"/>
<text text-anchor="middle" x="736.5" y="-244.5" font-family="Helvetica,sans-Serif" font-size="10.00"> #mITSRadii</text>
</g>
<!-- Node7 -->
<g id="node7" class="node"><title>Node7</title>
<g id="a_node7"><a xlink:href="../../d4/dc3/classfloat.html" target="_top" xlink:title="{float\n||}">
<polygon fill="none" stroke="black" points="717.5,-370.5 717.5,-427.5 752.5,-427.5 752.5,-370.5 717.5,-370.5"/>
<text text-anchor="middle" x="735" y="-415.5" font-family="Helvetica,sans-Serif" font-size="10.00">float</text>
<polyline fill="none" stroke="black" points="717.5,-408.5 752.5,-408.5 "/>
<text text-anchor="middle" x="735" y="-396.5" font-family="Helvetica,sans-Serif" font-size="10.00"> </text>
<polyline fill="none" stroke="black" points="717.5,-389.5 752.5,-389.5 "/>
<text text-anchor="middle" x="735" y="-377.5" font-family="Helvetica,sans-Serif" font-size="10.00"> </text>
</a>
</g>
</g>
<!-- Node7&#45;&gt;Node1 -->
<g id="edge6" class="edge"><title>Node7&#45;&gt;Node1</title>
<path fill="none" stroke="#404040" d="M741.315,-370.466C745.976,-351.52 752.898,-325.917 761,-304 777.339,-259.802 779.108,-246.694 806,-208 818.927,-189.4 835.054,-171.073 850.941,-154.801"/>
<polygon fill="none" stroke="#404040" points="851.253,-154.488 852.652,-147.414 859.72,-145.985 858.321,-153.059 851.253,-154.488"/>
<text text-anchor="middle" x="841" y="-277.5" font-family="Helvetica,sans-Serif" font-size="10.00"> #mZBinSize</text>
<text text-anchor="middle" x="841" y="-266.5" font-family="Helvetica,sans-Serif" font-size="10.00">#mPairCut</text>
<text text-anchor="middle" x="841" y="-255.5" font-family="Helvetica,sans-Serif" font-size="10.00">#mPhiCut</text>
<text text-anchor="middle" x="841" y="-244.5" font-family="Helvetica,sans-Serif" font-size="10.00">#mDeltaRadii21</text>
<text text-anchor="middle" x="841" y="-233.5" font-family="Helvetica,sans-Serif" font-size="10.00">#mDeltaRadii10</text>
<text text-anchor="middle" x="841" y="-222.5" font-family="Helvetica,sans-Serif" font-size="10.00">#mClusterCut</text>
<text text-anchor="middle" x="841" y="-211.5" font-family="Helvetica,sans-Serif" font-size="10.00">#mZCut</text>
</g>
<!-- Node8 -->
<g id="node8" class="node"><title>Node8</title>
<g id="a_node8"><a xlink:href="../../d3/dc2/classo2_1_1ITS_1_1CA_1_1Event.html" target="_top" xlink:title="{o2::ITS::CA::Event\n||+ Event()\l+ getEventId()\l+ getPrimaryVertex()\l+ getLayer()\l+ getPrimaryVerticesNum()\l+ addPrimaryVertex()\l+ addPrimaryReconstructedVertex()\l+ printPrimaryVertices()\l+ getTotalClusters()\l+ addClusterToLayer()\l+ addTrackingFrameInfoToLayer()\l+ addClusterLabelToLayer()\l+ clear()\l}">
<polygon fill="none" stroke="black" points="770.5,-304.5 770.5,-493.5 943.5,-493.5 943.5,-304.5 770.5,-304.5"/>
<text text-anchor="middle" x="857" y="-481.5" font-family="Helvetica,sans-Serif" font-size="10.00">o2::ITS::CA::Event</text>
<polyline fill="none" stroke="black" points="770.5,-474.5 943.5,-474.5 "/>
<text text-anchor="middle" x="857" y="-462.5" font-family="Helvetica,sans-Serif" font-size="10.00"> </text>
<polyline fill="none" stroke="black" points="770.5,-455.5 943.5,-455.5 "/>
<text text-anchor="start" x="778.5" y="-443.5" font-family="Helvetica,sans-Serif" font-size="10.00">+ Event()</text>
<text text-anchor="start" x="778.5" y="-432.5" font-family="Helvetica,sans-Serif" font-size="10.00">+ getEventId()</text>
<text text-anchor="start" x="778.5" y="-421.5" font-family="Helvetica,sans-Serif" font-size="10.00">+ getPrimaryVertex()</text>
<text text-anchor="start" x="778.5" y="-410.5" font-family="Helvetica,sans-Serif" font-size="10.00">+ getLayer()</text>
<text text-anchor="start" x="778.5" y="-399.5" font-family="Helvetica,sans-Serif" font-size="10.00">+ getPrimaryVerticesNum()</text>
<text text-anchor="start" x="778.5" y="-388.5" font-family="Helvetica,sans-Serif" font-size="10.00">+ addPrimaryVertex()</text>
<text text-anchor="start" x="778.5" y="-377.5" font-family="Helvetica,sans-Serif" font-size="10.00">+ addPrimaryReconstructedVertex()</text>
<text text-anchor="start" x="778.5" y="-366.5" font-family="Helvetica,sans-Serif" font-size="10.00">+ printPrimaryVertices()</text>
<text text-anchor="start" x="778.5" y="-355.5" font-family="Helvetica,sans-Serif" font-size="10.00">+ getTotalClusters()</text>
<text text-anchor="start" x="778.5" y="-344.5" font-family="Helvetica,sans-Serif" font-size="10.00">+ addClusterToLayer()</text>
<text text-anchor="start" x="778.5" y="-333.5" font-family="Helvetica,sans-Serif" font-size="10.00">+ addTrackingFrameInfoToLayer()</text>
<text text-anchor="start" x="778.5" y="-322.5" font-family="Helvetica,sans-Serif" font-size="10.00">+ addClusterLabelToLayer()</text>
<text text-anchor="start" x="778.5" y="-311.5" font-family="Helvetica,sans-Serif" font-size="10.00">+ clear()</text>
</a>
</g>
</g>
<!-- Node8&#45;&gt;Node1 -->
<g id="edge7" class="edge"><title>Node8&#45;&gt;Node1</title>
<path fill="none" stroke="#404040" d="M875.345,-304.101C881.686,-271.639 888.835,-235.049 895.349,-201.705"/>
<polygon fill="none" stroke="#404040" points="895.417,-201.359 892.641,-194.703 897.718,-189.582 900.493,-196.237 895.417,-201.359"/>
<text text-anchor="middle" x="915.5" y="-244.5" font-family="Helvetica,sans-Serif" font-size="10.00"> #mEvent</text>
</g>
<!-- Node9 -->
<g id="node9" class="node"><title>Node9</title>
<polygon fill="none" stroke="#bfbfbf" points="962,-365 962,-433 1056,-433 1056,-365 962,-365"/>
<text text-anchor="start" x="970" y="-421" font-family="Helvetica,sans-Serif" font-size="10.00">vector&lt; std::array</text>
<text text-anchor="middle" x="1009" y="-410" font-family="Helvetica,sans-Serif" font-size="10.00">&lt; float, 3 &gt; &gt;</text>
<polyline fill="none" stroke="#bfbfbf" points="962,-403 1056,-403 "/>
<text text-anchor="middle" x="1009" y="-391" font-family="Helvetica,sans-Serif" font-size="10.00"> </text>
<polyline fill="none" stroke="#bfbfbf" points="962,-384 1056,-384 "/>
<text text-anchor="middle" x="1009" y="-372" font-family="Helvetica,sans-Serif" font-size="10.00"> </text>
</g>
<!-- Node9&#45;&gt;Node1 -->
<g id="edge8" class="edge"><title>Node9&#45;&gt;Node1</title>
<path fill="none" stroke="#404040" d="M998.781,-364.817C986.73,-325.682 966.103,-258.7 948.455,-201.39"/>
<polygon fill="none" stroke="#404040" points="948.385,-201.164 942.796,-196.607 944.853,-189.695 950.442,-194.252 948.385,-201.164"/>
<text text-anchor="middle" x="1000.5" y="-244.5" font-family="Helvetica,sans-Serif" font-size="10.00"> #mVertices</text>
</g>
<!-- Node10 -->
<g id="node10" class="node"><title>Node10</title>
<polygon fill="none" stroke="#bfbfbf" points="1074.5,-370.5 1074.5,-427.5 1103.5,-427.5 1103.5,-370.5 1074.5,-370.5"/>
<text text-anchor="middle" x="1089" y="-415.5" font-family="Helvetica,sans-Serif" font-size="10.00">int</text>
<polyline fill="none" stroke="#bfbfbf" points="1074.5,-408.5 1103.5,-408.5 "/>
<text text-anchor="middle" x="1089" y="-396.5" font-family="Helvetica,sans-Serif" font-size="10.00"> </text>
<polyline fill="none" stroke="#bfbfbf" points="1074.5,-389.5 1103.5,-389.5 "/>
<text text-anchor="middle" x="1089" y="-377.5" font-family="Helvetica,sans-Serif" font-size="10.00"> </text>
</g>
<!-- Node10&#45;&gt;Node1 -->
<g id="edge9" class="edge"><title>Node10&#45;&gt;Node1</title>
<path fill="none" stroke="#404040" d="M1084.51,-370.445C1080.78,-351.261 1074.52,-325.387 1065,-304 1061.09,-295.217 1057.07,-294.71 1053,-286 1037.69,-253.26 1048.6,-238.99 1030,-208 1017.06,-186.431 998.982,-166.092 981.035,-148.816"/>
<polygon fill="none" stroke="#404040" points="981.013,-148.796 973.9,-147.612 972.258,-140.59 979.371,-141.775 981.013,-148.796"/>
<text text-anchor="middle" x="1102.5" y="-261" font-family="Helvetica,sans-Serif" font-size="10.00"> #mPhiSpan</text>
<text text-anchor="start" x="1053" y="-250" font-family="Helvetica,sans-Serif" font-size="10.00">#mClusterContributors</text>
<text text-anchor="middle" x="1102.5" y="-239" font-family="Helvetica,sans-Serif" font-size="10.00">Cut</text>
<text text-anchor="middle" x="1102.5" y="-228" font-family="Helvetica,sans-Serif" font-size="10.00">#mZSpan</text>
</g>
<!-- Node11 -->
<g id="node11" class="node"><title>Node11</title>
<polygon fill="none" stroke="#bfbfbf" points="1121.5,-365 1121.5,-433 1226.5,-433 1226.5,-365 1121.5,-365"/>
<text text-anchor="start" x="1129.5" y="-421" font-family="Helvetica,sans-Serif" font-size="10.00">vector&lt; o2::ITS::CA</text>
<text text-anchor="middle" x="1174" y="-410" font-family="Helvetica,sans-Serif" font-size="10.00">::Line &gt;</text>
<polyline fill="none" stroke="#bfbfbf" points="1121.5,-403 1226.5,-403 "/>
<text text-anchor="middle" x="1174" y="-391" font-family="Helvetica,sans-Serif" font-size="10.00"> </text>
<polyline fill="none" stroke="#bfbfbf" points="1121.5,-384 1226.5,-384 "/>
<text text-anchor="middle" x="1174" y="-372" font-family="Helvetica,sans-Serif" font-size="10.00"> </text>
</g>
<!-- Node11&#45;&gt;Node1 -->
<g id="edge10" class="edge"><title>Node11&#45;&gt;Node1</title>
<path fill="none" stroke="#404040" d="M1173.95,-364.923C1173.25,-317.296 1169.5,-232.433 1152,-208 1112.45,-152.78 1038.41,-123.838 983.766,-109.327"/>
<polygon fill="none" stroke="#404040" points="983.704,-109.311 976.905,-111.713 972.072,-106.361 978.872,-103.959 983.704,-109.311"/>
<text text-anchor="middle" x="1199" y="-244.5" font-family="Helvetica,sans-Serif" font-size="10.00"> #mTracklets</text>
</g>
<!-- Node12 -->
<g id="node12" class="node"><title>Node12</title>
<polygon fill="none" stroke="#bfbfbf" points="1244.5,-370.5 1244.5,-427.5 1279.5,-427.5 1279.5,-370.5 1244.5,-370.5"/>
<text text-anchor="middle" x="1262" y="-415.5" font-family="Helvetica,sans-Serif" font-size="10.00">bool</text>
<polyline fill="none" stroke="#bfbfbf" points="1244.5,-408.5 1279.5,-408.5 "/>
<text text-anchor="middle" x="1262" y="-396.5" font-family="Helvetica,sans-Serif" font-size="10.00"> </text>
<polyline fill="none" stroke="#bfbfbf" points="1244.5,-389.5 1279.5,-389.5 "/>
<text text-anchor="middle" x="1262" y="-377.5" font-family="Helvetica,sans-Serif" font-size="10.00"> </text>
</g>
<!-- Node12&#45;&gt;Node1 -->
<g id="edge11" class="edge"><title>Node12&#45;&gt;Node1</title>
<path fill="none" stroke="#404040" d="M1261.04,-370.387C1258.87,-323.779 1252.12,-232.207 1232,-208 1170.72,-134.264 1057.47,-109.047 984.502,-100.44"/>
<polygon fill="none" stroke="#404040" points="984.19,-100.406 977.792,-103.733 972.261,-99.1064 978.659,-95.7796 984.19,-100.406"/>
<text text-anchor="middle" x="1301.5" y="-250" font-family="Helvetica,sans-Serif" font-size="10.00"> #mVertexerInitialised</text>
<text text-anchor="middle" x="1301.5" y="-239" font-family="Helvetica,sans-Serif" font-size="10.00">#mTrackletsFound</text>
</g>
<!-- Node13 -->
<g id="node13" class="node"><title>Node13</title>
<polygon fill="none" stroke="#bfbfbf" points="1330,-370.5 1330,-427.5 1416,-427.5 1416,-370.5 1330,-370.5"/>
<text text-anchor="middle" x="1373" y="-415.5" font-family="Helvetica,sans-Serif" font-size="10.00">array&lt; float, 3 &gt;</text>
<polyline fill="none" stroke="#bfbfbf" points="1330,-408.5 1416,-408.5 "/>
<text text-anchor="middle" x="1373" y="-396.5" font-family="Helvetica,sans-Serif" font-size="10.00"> </text>
<polyline fill="none" stroke="#bfbfbf" points="1330,-389.5 1416,-389.5 "/>
<text text-anchor="middle" x="1373" y="-377.5" font-family="Helvetica,sans-Serif" font-size="10.00"> </text>
</g>
<!-- Node13&#45;&gt;Node1 -->
<g id="edge12" class="edge"><title>Node13&#45;&gt;Node1</title>
<path fill="none" stroke="#404040" d="M1373.51,-370.258C1373.77,-323.454 1371.57,-231.59 1351,-208 1303.21,-153.184 1094.16,-118.793 984.194,-104.161"/>
<polygon fill="none" stroke="#404040" points="984.156,-104.156 977.688,-107.343 972.258,-102.598 978.726,-99.4109 984.156,-104.156"/>
<text text-anchor="middle" x="1427" y="-244.5" font-family="Helvetica,sans-Serif" font-size="10.00"> #mAverageClustersRadii</text>
</g>
<!-- Node14 -->
<g id="node14" class="node"><title>Node14</title>
<polygon fill="none" stroke="#bfbfbf" points="1455.5,-365 1455.5,-433 1560.5,-433 1560.5,-365 1455.5,-365"/>
<text text-anchor="start" x="1463.5" y="-421" font-family="Helvetica,sans-Serif" font-size="10.00">vector&lt; o2::ITS::CA</text>
<text text-anchor="middle" x="1508" y="-410" font-family="Helvetica,sans-Serif" font-size="10.00">::ClusterLines &gt;</text>
<polyline fill="none" stroke="#bfbfbf" points="1455.5,-403 1560.5,-403 "/>
<text text-anchor="middle" x="1508" y="-391" font-family="Helvetica,sans-Serif" font-size="10.00"> </text>
<polyline fill="none" stroke="#bfbfbf" points="1455.5,-384 1560.5,-384 "/>
<text text-anchor="middle" x="1508" y="-372" font-family="Helvetica,sans-Serif" font-size="10.00"> </text>
</g>
<!-- Node14&#45;&gt;Node1 -->
<g id="edge13" class="edge"><title>Node14&#45;&gt;Node1</title>
<path fill="none" stroke="#404040" d="M1508.69,-364.715C1508.96,-316.386 1506.45,-230.131 1486,-208 1418.96,-135.46 1120.78,-108.356 984.442,-99.6273"/>
<polygon fill="none" stroke="#404040" points="984.135,-99.6082 977.898,-103.228 972.158,-98.8626 978.395,-95.2432 984.135,-99.6082"/>
<text text-anchor="middle" x="1550.5" y="-244.5" font-family="Helvetica,sans-Serif" font-size="10.00"> #mTrackletClusters</text>
</g>
<!-- Node15 -->
<g id="node15" class="node"><title>Node15</title>
<polygon fill="none" stroke="#bfbfbf" points="1580,-370.5 1580,-427.5 1660,-427.5 1660,-370.5 1580,-370.5"/>
<text text-anchor="middle" x="1620" y="-415.5" font-family="Helvetica,sans-Serif" font-size="10.00">vector&lt; bool &gt;</text>
<polyline fill="none" stroke="#bfbfbf" points="1580,-408.5 1660,-408.5 "/>
<text text-anchor="middle" x="1620" y="-396.5" font-family="Helvetica,sans-Serif" font-size="10.00"> </text>
<polyline fill="none" stroke="#bfbfbf" points="1580,-389.5 1660,-389.5 "/>
<text text-anchor="middle" x="1620" y="-377.5" font-family="Helvetica,sans-Serif" font-size="10.00"> </text>
</g>
<!-- Node15&#45;&gt;Node1 -->
<g id="edge14" class="edge"><title>Node15&#45;&gt;Node1</title>
<path fill="none" stroke="#404040" d="M1626.06,-370.174C1633.27,-328.892 1639.59,-251.617 1598,-208 1514.61,-120.548 1140.25,-101.376 984.41,-97.1767"/>
<polygon fill="none" stroke="#404040" points="984.237,-97.1723 978.137,-101.019 972.24,-96.8673 978.34,-93.0211 984.237,-97.1723"/>
<text text-anchor="middle" x="1669.5" y="-244.5" font-family="Helvetica,sans-Serif" font-size="10.00"> #mUsedTracklets</text>
</g>
</g>
</svg>
