<?xml version="1.0" encoding="UTF-8" standalone="no"?>
<!DOCTYPE svg PUBLIC "-//W3C//DTD SVG 1.1//EN"
 "http://www.w3.org/Graphics/SVG/1.1/DTD/svg11.dtd">
<!-- Generated by graphviz version 2.36.0 (20140111.2315)
 -->
<!-- Title: /home/travis/build/AliceO2Group/AliceO2/Detectors/TPC/reconstruction/include/TPCReconstruction/TPCCATracking.h Pages: 1 -->
<svg width="695pt" height="240pt"
 viewBox="0.00 0.00 695.00 240.00" xmlns="http://www.w3.org/2000/svg" xmlns:xlink="http://www.w3.org/1999/xlink">
<g id="graph0" class="graph" transform="scale(1 1) rotate(0) translate(4 236)">
<title>/home/travis/build/AliceO2Group/AliceO2/Detectors/TPC/reconstruction/include/TPCReconstruction/TPCCATracking.h</title>
<!-- Node1 -->
<g id="node1" class="node"><title>Node1</title>
<polygon fill="#bfbfbf" stroke="black" points="251,-168.5 251,-231.5 401,-231.5 401,-168.5 251,-168.5"/>
<text text-anchor="start" x="259" y="-219.5" font-family="Helvetica,sans-Serif" font-size="10.00">/home/travis/build</text>
<text text-anchor="start" x="259" y="-208.5" font-family="Helvetica,sans-Serif" font-size="10.00">/AliceO2Group/AliceO2</text>
<text text-anchor="start" x="259" y="-197.5" font-family="Helvetica,sans-Serif" font-size="10.00">/Detectors/TPC/reconstruction</text>
<text text-anchor="start" x="259" y="-186.5" font-family="Helvetica,sans-Serif" font-size="10.00">/include/TPCReconstruction</text>
<text text-anchor="middle" x="326" y="-175.5" font-family="Helvetica,sans-Serif" font-size="10.00">/TPCCATracking.h</text>
</g>
<!-- Node2 -->
<g id="node2" class="node"><title>Node2</title>
<g id="a_node2"><a xlink:href="../../d1/d27/runCATracking_8C.html" target="_top" xlink:title="/home/travis/build\l/AliceO2Group/AliceO2\l/Detectors/TPC/reconstruction\l/macro/runCATracking.C">
<polygon fill="none" stroke="black" points="-1,-79 -1,-131 149,-131 149,-79 -1,-79"/>
<text text-anchor="start" x="7" y="-119" font-family="Helvetica,sans-Serif" font-size="10.00">/home/travis/build</text>
<text text-anchor="start" x="7" y="-108" font-family="Helvetica,sans-Serif" font-size="10.00">/AliceO2Group/AliceO2</text>
<text text-anchor="start" x="7" y="-97" font-family="Helvetica,sans-Serif" font-size="10.00">/Detectors/TPC/reconstruction</text>
<text text-anchor="middle" x="74" y="-86" font-family="Helvetica,sans-Serif" font-size="10.00">/macro/runCATracking.C</text>
</a>
</g>
</g>
<!-- Node1&#45;&gt;Node2 -->
<g id="edge1" class="edge"><title>Node1&#45;&gt;Node2</title>
<path fill="none" stroke="midnightblue" d="M241.291,-167.738C208.974,-155.812 172.583,-142.382 142.015,-131.101"/>
<polygon fill="midnightblue" stroke="midnightblue" points="240.14,-171.044 250.733,-171.223 242.563,-164.477 240.14,-171.044"/>
</g>
<!-- Node4 -->
<g id="node4" class="node"><title>Node4</title>
<g id="a_node4"><a xlink:href="../../d8/ded/TPCCATracking_8cxx.html" target="_top" xlink:title="/home/travis/build\l/AliceO2Group/AliceO2\l/Detectors/TPC/reconstruction\l/src/TPCCATracking.cxx">
<polygon fill="none" stroke="black" points="167,-79 167,-131 317,-131 317,-79 167,-79"/>
<text text-anchor="start" x="175" y="-119" font-family="Helvetica,sans-Serif" font-size="10.00">/home/travis/build</text>
<text text-anchor="start" x="175" y="-108" font-family="Helvetica,sans-Serif" font-size="10.00">/AliceO2Group/AliceO2</text>
<text text-anchor="start" x="175" y="-97" font-family="Helvetica,sans-Serif" font-size="10.00">/Detectors/TPC/reconstruction</text>
<text text-anchor="middle" x="242" y="-86" font-family="Helvetica,sans-Serif" font-size="10.00">/src/TPCCATracking.cxx</text>
</a>
</g>
</g>
<!-- Node1&#45;&gt;Node4 -->
<g id="edge3" class="edge"><title>Node1&#45;&gt;Node4</title>
<path fill="none" stroke="midnightblue" d="M291.472,-160.773C282.433,-150.765 272.916,-140.229 264.671,-131.1"/>
<polygon fill="midnightblue" stroke="midnightblue" points="288.962,-163.216 298.262,-168.291 294.157,-158.524 288.962,-163.216"/>
</g>
<!-- Node5 -->
<g id="node5" class="node"><title>Node5</title>
<g id="a_node5"><a xlink:href="../../d7/d83/testTPCCATracking_8cxx.html" target="_top" xlink:title="This task tests the TPC CA Tracking library. ">
<polygon fill="none" stroke="black" points="335,-79 335,-131 485,-131 485,-79 335,-79"/>
<text text-anchor="start" x="343" y="-119" font-family="Helvetica,sans-Serif" font-size="10.00">/home/travis/build</text>
<text text-anchor="start" x="343" y="-108" font-family="Helvetica,sans-Serif" font-size="10.00">/AliceO2Group/AliceO2</text>
<text text-anchor="start" x="343" y="-97" font-family="Helvetica,sans-Serif" font-size="10.00">/Detectors/TPC/reconstruction</text>
<text text-anchor="middle" x="410" y="-86" font-family="Helvetica,sans-Serif" font-size="10.00">/test/testTPCCATracking.cxx</text>
</a>
</g>
</g>
<!-- Node1&#45;&gt;Node5 -->
<g id="edge4" class="edge"><title>Node1&#45;&gt;Node5</title>
<path fill="none" stroke="midnightblue" d="M360.528,-160.773C369.567,-150.765 379.084,-140.229 387.329,-131.1"/>
<polygon fill="midnightblue" stroke="midnightblue" points="357.843,-158.524 353.738,-168.291 363.038,-163.216 357.843,-158.524"/>
</g>
<!-- Node6 -->
<g id="node6" class="node"><title>Node6</title>
<g id="a_node6"><a xlink:href="../../d1/df0/runCATrackingClusterNative_8C.html" target="_top" xlink:title="/home/travis/build\l/AliceO2Group/AliceO2\l/macro/runCATrackingClusterNative.C">
<polygon fill="none" stroke="black" points="502.5,-84.5 502.5,-125.5 687.5,-125.5 687.5,-84.5 502.5,-84.5"/>
<text text-anchor="start" x="510.5" y="-113.5" font-family="Helvetica,sans-Serif" font-size="10.00">/home/travis/build</text>
<text text-anchor="start" x="510.5" y="-102.5" font-family="Helvetica,sans-Serif" font-size="10.00">/AliceO2Group/AliceO2</text>
<text text-anchor="middle" x="595" y="-91.5" font-family="Helvetica,sans-Serif" font-size="10.00">/macro/runCATrackingClusterNative.C</text>
</a>
</g>
</g>
<!-- Node1&#45;&gt;Node6 -->
<g id="edge5" class="edge"><title>Node1&#45;&gt;Node6</title>
<path fill="none" stroke="midnightblue" d="M410.877,-169.656C452.52,-155.259 501.544,-138.31 538.532,-125.522"/>
<polygon fill="midnightblue" stroke="midnightblue" points="409.597,-166.395 401.289,-172.971 411.884,-173.011 409.597,-166.395"/>
</g>
<!-- Node3 -->
<g id="node3" class="node"><title>Node3</title>
<g id="a_node3"><a xlink:href="../../d3/d56/runTPC_8cxx.html" target="_top" xlink:title="/home/travis/build\l/AliceO2Group/AliceO2\l/run/runTPC.cxx">
<polygon fill="none" stroke="black" points="15,-0.5 15,-41.5 133,-41.5 133,-0.5 15,-0.5"/>
<text text-anchor="start" x="23" y="-29.5" font-family="Helvetica,sans-Serif" font-size="10.00">/home/travis/build</text>
<text text-anchor="start" x="23" y="-18.5" font-family="Helvetica,sans-Serif" font-size="10.00">/AliceO2Group/AliceO2</text>
<text text-anchor="middle" x="74" y="-7.5" font-family="Helvetica,sans-Serif" font-size="10.00">/run/runTPC.cxx</text>
</a>
</g>
</g>
<!-- Node2&#45;&gt;Node3 -->
<g id="edge2" class="edge"><title>Node2&#45;&gt;Node3</title>
<path fill="none" stroke="midnightblue" d="M74,-68.7604C74,-59.4912 74,-49.8211 74,-41.6965"/>
<polygon fill="midnightblue" stroke="midnightblue" points="70.5001,-68.9517 74,-78.9517 77.5001,-68.9518 70.5001,-68.9517"/>
</g>
</g>
</svg>
