<?xml version="1.0" encoding="UTF-8" standalone="no"?>
<!DOCTYPE svg PUBLIC "-//W3C//DTD SVG 1.1//EN"
 "http://www.w3.org/Graphics/SVG/1.1/DTD/svg11.dtd">
<!-- Generated by graphviz version 2.36.0 (20140111.2315)
 -->
<!-- Title: /home/travis/build/AliceO2Group/AliceO2/Detectors/TPC/simulation/include/TPCSimulation/CommonModeContainer.h Pages: 1 -->
<svg width="1300pt" height="600pt"
 viewBox="0.00 0.00 1300.00 600.00" xmlns="http://www.w3.org/2000/svg" xmlns:xlink="http://www.w3.org/1999/xlink">
<g id="graph0" class="graph" transform="scale(1 1) rotate(0) translate(4 596)">
<title>/home/travis/build/AliceO2Group/AliceO2/Detectors/TPC/simulation/include/TPCSimulation/CommonModeContainer.h</title>
<!-- Node1 -->
<g id="node1" class="node"><title>Node1</title>
<polygon fill="#bfbfbf" stroke="black" points="555,-528.5 555,-591.5 741,-591.5 741,-528.5 555,-528.5"/>
<text text-anchor="start" x="563" y="-579.5" font-family="Helvetica,sans-Serif" font-size="10.00">/home/travis/build</text>
<text text-anchor="start" x="563" y="-568.5" font-family="Helvetica,sans-Serif" font-size="10.00">/AliceO2Group/AliceO2</text>
<text text-anchor="start" x="563" y="-557.5" font-family="Helvetica,sans-Serif" font-size="10.00">/Detectors/TPC/simulation</text>
<text text-anchor="start" x="563" y="-546.5" font-family="Helvetica,sans-Serif" font-size="10.00">/include/TPCSimulation/CommonMode</text>
<text text-anchor="middle" x="648" y="-535.5" font-family="Helvetica,sans-Serif" font-size="10.00">Container.h</text>
</g>
<!-- Node2 -->
<g id="node2" class="node"><title>Node2</title>
<g id="a_node2"><a xlink:href="../../dc/d14/ROC_8h.html" target="_top" xlink:title="TPCBase/ROC.h">
<polygon fill="none" stroke="black" points="482.5,-304.5 482.5,-323.5 575.5,-323.5 575.5,-304.5 482.5,-304.5"/>
<text text-anchor="middle" x="529" y="-311.5" font-family="Helvetica,sans-Serif" font-size="10.00">TPCBase/ROC.h</text>
</a>
</g>
</g>
<!-- Node1&#45;&gt;Node2 -->
<g id="edge1" class="edge"><title>Node1&#45;&gt;Node2</title>
<path fill="none" stroke="midnightblue" d="M554.661,-549.493C482.426,-536.68 386.887,-506.603 339,-436 320.04,-408.046 318.048,-386.494 339,-360 355.426,-339.229 422.571,-327.05 472.409,-320.712"/>
<polygon fill="midnightblue" stroke="midnightblue" points="472.94,-324.174 482.441,-319.485 472.09,-317.225 472.94,-324.174"/>
</g>
<!-- Node19 -->
<g id="node19" class="node"><title>Node19</title>
<g id="a_node19"><a xlink:href="../../d7/d2c/Mapper_8h.html" target="_top" xlink:title="TPCBase/Mapper.h">
<polygon fill="none" stroke="black" points="596.5,-472.5 596.5,-491.5 699.5,-491.5 699.5,-472.5 596.5,-472.5"/>
<text text-anchor="middle" x="648" y="-479.5" font-family="Helvetica,sans-Serif" font-size="10.00">TPCBase/Mapper.h</text>
</a>
</g>
</g>
<!-- Node1&#45;&gt;Node19 -->
<g id="edge20" class="edge"><title>Node1&#45;&gt;Node19</title>
<path fill="none" stroke="midnightblue" d="M648,-528.088C648,-519.15 648,-509.669 648,-501.719"/>
<polygon fill="midnightblue" stroke="midnightblue" points="651.5,-501.718 648,-491.718 644.5,-501.718 651.5,-501.718"/>
</g>
<!-- Node32 -->
<g id="node32" class="node"><title>Node32</title>
<polygon fill="none" stroke="#bfbfbf" points="717.5,-472.5 717.5,-491.5 760.5,-491.5 760.5,-472.5 717.5,-472.5"/>
<text text-anchor="middle" x="739" y="-479.5" font-family="Helvetica,sans-Serif" font-size="10.00">deque</text>
</g>
<!-- Node1&#45;&gt;Node32 -->
<g id="edge51" class="edge"><title>Node1&#45;&gt;Node32</title>
<path fill="none" stroke="midnightblue" d="M684.751,-528.307C697.083,-518.008 710.306,-506.964 720.61,-498.359"/>
<polygon fill="midnightblue" stroke="midnightblue" points="723.063,-500.87 728.494,-491.774 718.576,-495.498 723.063,-500.87"/>
</g>
<!-- Node3 -->
<g id="node3" class="node"><title>Node3</title>
<g id="a_node3"><a xlink:href="../../d1/d73/Defs_8h.html" target="_top" xlink:title="Common definitions for 2D coordinates. ">
<polygon fill="none" stroke="black" points="645,-192.5 645,-211.5 771,-211.5 771,-192.5 645,-192.5"/>
<text text-anchor="middle" x="708" y="-199.5" font-family="Helvetica,sans-Serif" font-size="10.00">DataFormatsTPC/Defs.h</text>
</a>
</g>
</g>
<!-- Node2&#45;&gt;Node3 -->
<g id="edge2" class="edge"><title>Node2&#45;&gt;Node3</title>
<path fill="none" stroke="midnightblue" d="M535.149,-304.231C545.184,-290.5 566.35,-263.86 590,-248 612.625,-232.827 641.085,-221.782 664.386,-214.432"/>
<polygon fill="midnightblue" stroke="midnightblue" points="665.471,-217.76 674.024,-211.507 663.439,-211.062 665.471,-217.76"/>
</g>
<!-- Node17 -->
<g id="node17" class="node"><title>Node17</title>
<g id="a_node17"><a xlink:href="../../d3/dd6/Sector_8h.html" target="_top" xlink:title="TPCBase/Sector.h">
<polygon fill="none" stroke="black" points="404.5,-248.5 404.5,-267.5 503.5,-267.5 503.5,-248.5 404.5,-248.5"/>
<text text-anchor="middle" x="454" y="-255.5" font-family="Helvetica,sans-Serif" font-size="10.00">TPCBase/Sector.h</text>
</a>
</g>
</g>
<!-- Node2&#45;&gt;Node17 -->
<g id="edge17" class="edge"><title>Node2&#45;&gt;Node17</title>
<path fill="none" stroke="midnightblue" d="M516.95,-304.324C505.537,-296.107 488.169,-283.602 474.565,-273.807"/>
<polygon fill="midnightblue" stroke="midnightblue" points="476.43,-270.837 466.269,-267.834 472.34,-276.517 476.43,-270.837"/>
</g>
<!-- Node4 -->
<g id="node4" class="node"><title>Node4</title>
<polygon fill="none" stroke="#bfbfbf" points="916,-136.5 916,-155.5 960,-155.5 960,-136.5 916,-136.5"/>
<text text-anchor="middle" x="938" y="-143.5" font-family="Helvetica,sans-Serif" font-size="10.00">cmath</text>
</g>
<!-- Node3&#45;&gt;Node4 -->
<g id="edge3" class="edge"><title>Node3&#45;&gt;Node4</title>
<path fill="none" stroke="midnightblue" d="M744.444,-192.444C789.028,-181.976 863.787,-164.424 906.163,-154.475"/>
<polygon fill="midnightblue" stroke="midnightblue" points="907.014,-157.87 915.949,-152.177 905.414,-151.056 907.014,-157.87"/>
</g>
<!-- Node5 -->
<g id="node5" class="node"><title>Node5</title>
<g id="a_node5"><a xlink:href="../../d2/dd0/Cartesian2D_8h.html" target="_top" xlink:title="MathUtils/Cartesian2D.h">
<polygon fill="none" stroke="black" points="1050.5,-74.5 1050.5,-93.5 1175.5,-93.5 1175.5,-74.5 1050.5,-74.5"/>
<text text-anchor="middle" x="1113" y="-81.5" font-family="Helvetica,sans-Serif" font-size="10.00">MathUtils/Cartesian2D.h</text>
</a>
</g>
</g>
<!-- Node3&#45;&gt;Node5 -->
<g id="edge4" class="edge"><title>Node3&#45;&gt;Node5</title>
<path fill="none" stroke="midnightblue" d="M732.331,-192.416C769.658,-179.392 843.414,-154.229 907,-136 960.659,-120.616 1022.96,-105.578 1064.88,-95.8653"/>
<polygon fill="midnightblue" stroke="midnightblue" points="1065.85,-99.2315 1074.81,-93.574 1064.28,-92.4105 1065.85,-99.2315"/>
</g>
<!-- Node8 -->
<g id="node8" class="node"><title>Node8</title>
<g id="a_node8"><a xlink:href="../../dd/d76/Cartesian3D_8h.html" target="_top" xlink:title="MathUtils/Cartesian3D.h">
<polygon fill="none" stroke="black" points="562.5,-136.5 562.5,-155.5 687.5,-155.5 687.5,-136.5 562.5,-136.5"/>
<text text-anchor="middle" x="625" y="-143.5" font-family="Helvetica,sans-Serif" font-size="10.00">MathUtils/Cartesian3D.h</text>
</a>
</g>
</g>
<!-- Node3&#45;&gt;Node8 -->
<g id="edge7" class="edge"><title>Node3&#45;&gt;Node8</title>
<path fill="none" stroke="midnightblue" d="M694.665,-192.324C681.838,-183.979 662.215,-171.212 647.06,-161.352"/>
<polygon fill="midnightblue" stroke="midnightblue" points="648.593,-158.174 638.302,-155.655 644.776,-164.042 648.593,-158.174"/>
</g>
<!-- Node6 -->
<g id="node6" class="node"><title>Node6</title>
<polygon fill="none" stroke="#bfbfbf" points="946.5,-1 946.5,-31 1097.5,-31 1097.5,-1 946.5,-1"/>
<text text-anchor="start" x="954.5" y="-19" font-family="Helvetica,sans-Serif" font-size="10.00">Math/GenVector/Displacement</text>
<text text-anchor="middle" x="1022" y="-8" font-family="Helvetica,sans-Serif" font-size="10.00">Vector2D.h</text>
</g>
<!-- Node5&#45;&gt;Node6 -->
<g id="edge5" class="edge"><title>Node5&#45;&gt;Node6</title>
<path fill="none" stroke="midnightblue" d="M1101.1,-74.3717C1088.22,-65.0286 1067.22,-49.7966 1050.09,-37.375"/>
<polygon fill="midnightblue" stroke="midnightblue" points="1051.7,-34.2194 1041.55,-31.1815 1047.59,-39.8859 1051.7,-34.2194"/>
</g>
<!-- Node7 -->
<g id="node7" class="node"><title>Node7</title>
<polygon fill="none" stroke="#bfbfbf" points="1116,-6.5 1116,-25.5 1292,-25.5 1292,-6.5 1116,-6.5"/>
<text text-anchor="middle" x="1204" y="-13.5" font-family="Helvetica,sans-Serif" font-size="10.00">Math/GenVector/PositionVector2D.h</text>
</g>
<!-- Node5&#45;&gt;Node7 -->
<g id="edge6" class="edge"><title>Node5&#45;&gt;Node7</title>
<path fill="none" stroke="midnightblue" d="M1124.9,-74.3717C1139.88,-63.5015 1165.86,-44.6602 1183.94,-31.5474"/>
<polygon fill="midnightblue" stroke="midnightblue" points="1186.06,-34.3349 1192.1,-25.6305 1181.95,-28.6684 1186.06,-34.3349"/>
</g>
<!-- Node8&#45;&gt;Node5 -->
<g id="edge16" class="edge"><title>Node8&#45;&gt;Node5</title>
<path fill="none" stroke="midnightblue" d="M687.624,-140.144C769.257,-133.376 916.326,-119.682 1041,-100 1048.89,-98.754 1057.23,-97.2209 1065.32,-95.6155"/>
<polygon fill="midnightblue" stroke="midnightblue" points="1066.29,-98.9899 1075.39,-93.5594 1064.89,-92.1315 1066.29,-98.9899"/>
</g>
<!-- Node9 -->
<g id="node9" class="node"><title>Node9</title>
<polygon fill="none" stroke="#bfbfbf" points="520.5,-69 520.5,-99 671.5,-99 671.5,-69 520.5,-69"/>
<text text-anchor="start" x="528.5" y="-87" font-family="Helvetica,sans-Serif" font-size="10.00">Math/GenVector/Displacement</text>
<text text-anchor="middle" x="596" y="-76" font-family="Helvetica,sans-Serif" font-size="10.00">Vector3D.h</text>
</g>
<!-- Node8&#45;&gt;Node9 -->
<g id="edge8" class="edge"><title>Node8&#45;&gt;Node9</title>
<path fill="none" stroke="midnightblue" d="M620.845,-136.403C617.284,-129.037 611.987,-118.077 607.198,-108.168"/>
<polygon fill="midnightblue" stroke="midnightblue" points="610.338,-106.621 602.835,-99.1408 604.035,-109.667 610.338,-106.621"/>
</g>
<!-- Node10 -->
<g id="node10" class="node"><title>Node10</title>
<polygon fill="none" stroke="#bfbfbf" points="690,-74.5 690,-93.5 866,-93.5 866,-74.5 690,-74.5"/>
<text text-anchor="middle" x="778" y="-81.5" font-family="Helvetica,sans-Serif" font-size="10.00">Math/GenVector/PositionVector3D.h</text>
</g>
<!-- Node8&#45;&gt;Node10 -->
<g id="edge9" class="edge"><title>Node8&#45;&gt;Node10</title>
<path fill="none" stroke="midnightblue" d="M646.921,-136.403C673.052,-126.156 716.912,-108.956 746.63,-97.3021"/>
<polygon fill="midnightblue" stroke="midnightblue" points="748.088,-100.49 756.119,-93.5806 745.532,-93.9731 748.088,-100.49"/>
</g>
<!-- Node11 -->
<g id="node11" class="node"><title>Node11</title>
<polygon fill="none" stroke="#bfbfbf" points="883.5,-74.5 883.5,-93.5 1032.5,-93.5 1032.5,-74.5 883.5,-74.5"/>
<text text-anchor="middle" x="958" y="-81.5" font-family="Helvetica,sans-Serif" font-size="10.00">Math/GenVector/Rotation3D.h</text>
</g>
<!-- Node8&#45;&gt;Node11 -->
<g id="edge10" class="edge"><title>Node8&#45;&gt;Node11</title>
<path fill="none" stroke="midnightblue" d="M672.357,-136.467C732.523,-125.626 836.278,-106.932 900.8,-95.3062"/>
<polygon fill="midnightblue" stroke="midnightblue" points="901.585,-98.7212 910.806,-93.5034 900.344,-91.8322 901.585,-98.7212"/>
</g>
<!-- Node12 -->
<g id="node12" class="node"><title>Node12</title>
<polygon fill="none" stroke="#bfbfbf" points="0,-74.5 0,-93.5 156,-93.5 156,-74.5 0,-74.5"/>
<text text-anchor="middle" x="78" y="-81.5" font-family="Helvetica,sans-Serif" font-size="10.00">Math/GenVector/Transform3D.h</text>
</g>
<!-- Node8&#45;&gt;Node12 -->
<g id="edge11" class="edge"><title>Node8&#45;&gt;Node12</title>
<path fill="none" stroke="midnightblue" d="M562.333,-140.332C473.647,-133.395 306.549,-119.1 165,-100 154.975,-98.6473 144.337,-96.995 134.067,-95.2876"/>
<polygon fill="midnightblue" stroke="midnightblue" points="134.402,-91.7945 123.957,-93.5709 133.23,-98.6957 134.402,-91.7945"/>
</g>
<!-- Node13 -->
<g id="node13" class="node"><title>Node13</title>
<polygon fill="none" stroke="#bfbfbf" points="174,-74.5 174,-93.5 334,-93.5 334,-74.5 174,-74.5"/>
<text text-anchor="middle" x="254" y="-81.5" font-family="Helvetica,sans-Serif" font-size="10.00">Math/GenVector/Translation3D.h</text>
</g>
<!-- Node8&#45;&gt;Node13 -->
<g id="edge12" class="edge"><title>Node8&#45;&gt;Node13</title>
<path fill="none" stroke="midnightblue" d="M570.653,-136.472C513.848,-127.524 422.134,-112.982 343,-100 333.704,-98.475 323.866,-96.8391 314.254,-95.2284"/>
<polygon fill="midnightblue" stroke="midnightblue" points="314.792,-91.7697 304.35,-93.5647 313.632,-98.673 314.792,-91.7697"/>
</g>
<!-- Node14 -->
<g id="node14" class="node"><title>Node14</title>
<polygon fill="none" stroke="#bfbfbf" points="352,-74.5 352,-93.5 408,-93.5 408,-74.5 352,-74.5"/>
<text text-anchor="middle" x="380" y="-81.5" font-family="Helvetica,sans-Serif" font-size="10.00">Rtypes.h</text>
</g>
<!-- Node8&#45;&gt;Node14 -->
<g id="edge13" class="edge"><title>Node8&#45;&gt;Node14</title>
<path fill="none" stroke="midnightblue" d="M573.935,-136.489C531.438,-128.805 469.606,-116.222 417,-100 414.359,-99.1856 411.643,-98.2609 408.939,-97.2802"/>
<polygon fill="midnightblue" stroke="midnightblue" points="409.948,-93.9179 399.359,-93.579 407.426,-100.448 409.948,-93.9179"/>
</g>
<!-- Node15 -->
<g id="node15" class="node"><title>Node15</title>
<polygon fill="none" stroke="#bfbfbf" points="426,-74.5 426,-93.5 502,-93.5 502,-74.5 426,-74.5"/>
<text text-anchor="middle" x="464" y="-81.5" font-family="Helvetica,sans-Serif" font-size="10.00">TGeoMatrix.h</text>
</g>
<!-- Node8&#45;&gt;Node15 -->
<g id="edge14" class="edge"><title>Node8&#45;&gt;Node15</title>
<path fill="none" stroke="midnightblue" d="M601.933,-136.403C574.315,-126.111 527.88,-108.806 496.604,-97.1504"/>
<polygon fill="midnightblue" stroke="midnightblue" points="497.617,-93.7931 487.025,-93.5806 495.173,-100.352 497.617,-93.7931"/>
</g>
<!-- Node16 -->
<g id="node16" class="node"><title>Node16</title>
<polygon fill="none" stroke="#bfbfbf" points="1194,-74.5 1194,-93.5 1248,-93.5 1248,-74.5 1194,-74.5"/>
<text text-anchor="middle" x="1221" y="-81.5" font-family="Helvetica,sans-Serif" font-size="10.00">iostream</text>
</g>
<!-- Node8&#45;&gt;Node16 -->
<g id="edge15" class="edge"><title>Node8&#45;&gt;Node16</title>
<path fill="none" stroke="midnightblue" d="M687.907,-142.348C813.514,-136.657 1091.28,-121.979 1184,-100 1187.07,-99.2721 1190.22,-98.3286 1193.32,-97.2693"/>
<polygon fill="midnightblue" stroke="midnightblue" points="1194.82,-100.444 1202.92,-93.6126 1192.33,-93.9026 1194.82,-100.444"/>
</g>
<!-- Node17&#45;&gt;Node3 -->
<g id="edge19" class="edge"><title>Node17&#45;&gt;Node3</title>
<path fill="none" stroke="midnightblue" d="M494.247,-248.444C538.65,-239.004 610.153,-223.802 658.088,-213.611"/>
<polygon fill="midnightblue" stroke="midnightblue" points="658.888,-217.02 667.941,-211.516 657.432,-210.173 658.888,-217.02"/>
</g>
<!-- Node18 -->
<g id="node18" class="node"><title>Node18</title>
<g id="a_node18"><a xlink:href="../../d0/dda/DataFormats_2Detectors_2TPC_2include_2DataFormatsTPC_2Constants_8h.html" target="_top" xlink:title="DataFormatsTPC/Constants.h">
<polygon fill="none" stroke="black" points="379,-192.5 379,-211.5 529,-211.5 529,-192.5 379,-192.5"/>
<text text-anchor="middle" x="454" y="-199.5" font-family="Helvetica,sans-Serif" font-size="10.00">DataFormatsTPC/Constants.h</text>
</a>
</g>
</g>
<!-- Node17&#45;&gt;Node18 -->
<g id="edge18" class="edge"><title>Node17&#45;&gt;Node18</title>
<path fill="none" stroke="midnightblue" d="M454,-248.083C454,-241.006 454,-230.861 454,-221.986"/>
<polygon fill="midnightblue" stroke="midnightblue" points="457.5,-221.751 454,-211.751 450.5,-221.751 457.5,-221.751"/>
</g>
<!-- Node19&#45;&gt;Node3 -->
<g id="edge26" class="edge"><title>Node19&#45;&gt;Node3</title>
<path fill="none" stroke="midnightblue" d="M699.687,-473.07C702.497,-472.694 705.282,-472.335 708,-472 790.649,-461.82 1016.47,-488.637 1081,-436 1104.42,-416.895 1101,-401.225 1101,-371 1101,-371 1101,-371 1101,-313 1101,-247.319 894.865,-219.078 781.175,-208.497"/>
<polygon fill="midnightblue" stroke="midnightblue" points="781.418,-205.005 771.142,-207.587 780.785,-211.976 781.418,-205.005"/>
</g>
<!-- Node19&#45;&gt;Node4 -->
<g id="edge25" class="edge"><title>Node19&#45;&gt;Node4</title>
<path fill="none" stroke="midnightblue" d="M699.685,-473.053C702.495,-472.681 705.281,-472.328 708,-472 795.509,-461.458 1029.17,-484.152 1103,-436 1130.66,-417.959 1139,-404.024 1139,-371 1139,-371 1139,-371 1139,-257 1139,-181.137 1027.45,-157.257 970.554,-150.012"/>
<polygon fill="midnightblue" stroke="midnightblue" points="970.618,-146.495 960.278,-148.809 969.804,-153.448 970.618,-146.495"/>
</g>
<!-- Node19&#45;&gt;Node17 -->
<g id="edge50" class="edge"><title>Node19&#45;&gt;Node17</title>
<path fill="none" stroke="midnightblue" d="M596.487,-481.279C517.378,-480.484 371.671,-473.774 339,-436 316.903,-410.452 325.071,-390.772 339,-360 357.213,-319.764 400.253,-289.2 428.204,-272.71"/>
<polygon fill="midnightblue" stroke="midnightblue" points="430.097,-275.659 437.047,-267.663 426.627,-269.58 430.097,-275.659"/>
</g>
<!-- Node20 -->
<g id="node20" class="node"><title>Node20</title>
<polygon fill="none" stroke="#bfbfbf" points="348.5,-416.5 348.5,-435.5 383.5,-435.5 383.5,-416.5 348.5,-416.5"/>
<text text-anchor="middle" x="366" y="-423.5" font-family="Helvetica,sans-Serif" font-size="10.00">map</text>
</g>
<!-- Node19&#45;&gt;Node20 -->
<g id="edge21" class="edge"><title>Node19&#45;&gt;Node20</title>
<path fill="none" stroke="midnightblue" d="M596.475,-473.21C545.722,-465.188 466.119,-451.672 398,-436 396.524,-435.66 395.014,-435.296 393.492,-434.915"/>
<polygon fill="midnightblue" stroke="midnightblue" points="394.091,-431.452 383.527,-432.257 392.287,-438.216 394.091,-431.452"/>
</g>
<!-- Node21 -->
<g id="node21" class="node"><title>Node21</title>
<polygon fill="none" stroke="#bfbfbf" points="877,-360.5 877,-379.5 921,-379.5 921,-360.5 877,-360.5"/>
<text text-anchor="middle" x="899" y="-367.5" font-family="Helvetica,sans-Serif" font-size="10.00">vector</text>
</g>
<!-- Node19&#45;&gt;Node21 -->
<g id="edge22" class="edge"><title>Node19&#45;&gt;Node21</title>
<path fill="none" stroke="midnightblue" d="M666.341,-472.391C702.715,-455.321 781.013,-418.6 787,-416 813.956,-404.293 844.991,-391.907 867.546,-383.1"/>
<polygon fill="midnightblue" stroke="midnightblue" points="868.909,-386.325 876.961,-379.439 866.372,-379.801 868.909,-386.325"/>
</g>
<!-- Node22 -->
<g id="node22" class="node"><title>Node22</title>
<polygon fill="none" stroke="#bfbfbf" points="440,-416.5 440,-435.5 478,-435.5 478,-416.5 440,-416.5"/>
<text text-anchor="middle" x="459" y="-423.5" font-family="Helvetica,sans-Serif" font-size="10.00">array</text>
</g>
<!-- Node19&#45;&gt;Node22 -->
<g id="edge23" class="edge"><title>Node19&#45;&gt;Node22</title>
<path fill="none" stroke="midnightblue" d="M616.126,-472.479C585.541,-464.218 537.833,-451.109 487.923,-436.199"/>
<polygon fill="midnightblue" stroke="midnightblue" points="488.833,-432.818 478.249,-433.295 486.82,-439.522 488.833,-432.818"/>
</g>
<!-- Node23 -->
<g id="node23" class="node"><title>Node23</title>
<polygon fill="none" stroke="#bfbfbf" points="496.5,-416.5 496.5,-435.5 537.5,-435.5 537.5,-416.5 496.5,-416.5"/>
<text text-anchor="middle" x="517" y="-423.5" font-family="Helvetica,sans-Serif" font-size="10.00">string</text>
</g>
<!-- Node19&#45;&gt;Node23 -->
<g id="edge24" class="edge"><title>Node19&#45;&gt;Node23</title>
<path fill="none" stroke="midnightblue" d="M627.243,-472.444C605.684,-463.557 571.737,-449.563 547.206,-439.451"/>
<polygon fill="midnightblue" stroke="midnightblue" points="548.239,-436.092 537.66,-435.516 545.572,-442.563 548.239,-436.092"/>
</g>
<!-- Node24 -->
<g id="node24" class="node"><title>Node24</title>
<g id="a_node24"><a xlink:href="../../de/d41/PadPos_8h.html" target="_top" xlink:title="TPCBase/PadPos.h">
<polygon fill="none" stroke="black" points="670.5,-304.5 670.5,-323.5 775.5,-323.5 775.5,-304.5 670.5,-304.5"/>
<text text-anchor="middle" x="723" y="-311.5" font-family="Helvetica,sans-Serif" font-size="10.00">TPCBase/PadPos.h</text>
</a>
</g>
</g>
<!-- Node19&#45;&gt;Node24 -->
<g id="edge27" class="edge"><title>Node19&#45;&gt;Node24</title>
<path fill="none" stroke="midnightblue" d="M664.448,-472.278C690.255,-457.444 738.877,-424.527 754,-380 759.871,-362.714 748.959,-344.001 738.5,-331.112"/>
<polygon fill="midnightblue" stroke="midnightblue" points="741.099,-328.767 731.873,-323.557 735.836,-333.383 741.099,-328.767"/>
</g>
<!-- Node25 -->
<g id="node25" class="node"><title>Node25</title>
<g id="a_node25"><a xlink:href="../../dd/d0b/PadSecPos_8h.html" target="_top" xlink:title="TPCBase/PadSecPos.h">
<polygon fill="none" stroke="black" points="348,-360.5 348,-379.5 470,-379.5 470,-360.5 348,-360.5"/>
<text text-anchor="middle" x="409" y="-367.5" font-family="Helvetica,sans-Serif" font-size="10.00">TPCBase/PadSecPos.h</text>
</a>
</g>
</g>
<!-- Node19&#45;&gt;Node25 -->
<g id="edge28" class="edge"><title>Node19&#45;&gt;Node25</title>
<path fill="none" stroke="midnightblue" d="M596.277,-476.185C540.073,-469.954 455.058,-457.291 431,-436 417.777,-424.297 412.491,-404.357 410.383,-389.64"/>
<polygon fill="midnightblue" stroke="midnightblue" points="413.856,-389.199 409.313,-379.628 406.896,-389.943 413.856,-389.199"/>
</g>
<!-- Node26 -->
<g id="node26" class="node"><title>Node26</title>
<g id="a_node26"><a xlink:href="../../da/d61/PadROCPos_8h.html" target="_top" xlink:title="TPCBase/PadROCPos.h">
<polygon fill="none" stroke="black" points="600,-360.5 600,-379.5 728,-379.5 728,-360.5 600,-360.5"/>
<text text-anchor="middle" x="664" y="-367.5" font-family="Helvetica,sans-Serif" font-size="10.00">TPCBase/PadROCPos.h</text>
</a>
</g>
</g>
<!-- Node19&#45;&gt;Node26 -->
<g id="edge31" class="edge"><title>Node19&#45;&gt;Node26</title>
<path fill="none" stroke="midnightblue" d="M628.119,-472.345C604.912,-460.926 571.338,-439.506 585,-416 593.736,-400.97 609.578,-390.543 624.795,-383.54"/>
<polygon fill="midnightblue" stroke="midnightblue" points="626.262,-386.72 634.119,-379.613 623.545,-380.269 626.262,-386.72"/>
</g>
<!-- Node27 -->
<g id="node27" class="node"><title>Node27</title>
<g id="a_node27"><a xlink:href="../../d3/d54/DigitPos_8h.html" target="_top" xlink:title="TPCBase/DigitPos.h">
<polygon fill="none" stroke="black" points="594,-416.5 594,-435.5 702,-435.5 702,-416.5 594,-416.5"/>
<text text-anchor="middle" x="648" y="-423.5" font-family="Helvetica,sans-Serif" font-size="10.00">TPCBase/DigitPos.h</text>
</a>
</g>
</g>
<!-- Node19&#45;&gt;Node27 -->
<g id="edge35" class="edge"><title>Node19&#45;&gt;Node27</title>
<path fill="none" stroke="midnightblue" d="M648,-472.083C648,-465.006 648,-454.861 648,-445.986"/>
<polygon fill="midnightblue" stroke="midnightblue" points="651.5,-445.751 648,-435.751 644.5,-445.751 651.5,-445.751"/>
</g>
<!-- Node29 -->
<g id="node29" class="node"><title>Node29</title>
<g id="a_node29"><a xlink:href="../../d1/d1f/FECInfo_8h.html" target="_top" xlink:title="TPCBase/FECInfo.h">
<polygon fill="none" stroke="black" points="1167.5,-248.5 1167.5,-267.5 1274.5,-267.5 1274.5,-248.5 1167.5,-248.5"/>
<text text-anchor="middle" x="1221" y="-255.5" font-family="Helvetica,sans-Serif" font-size="10.00">TPCBase/FECInfo.h</text>
</a>
</g>
</g>
<!-- Node19&#45;&gt;Node29 -->
<g id="edge43" class="edge"><title>Node19&#45;&gt;Node29</title>
<path fill="none" stroke="midnightblue" d="M699.681,-473.019C702.493,-472.657 705.279,-472.314 708,-472 757.279,-466.317 1113.28,-465.718 1153,-436 1204.36,-397.574 1216.93,-315.107 1220,-277.899"/>
<polygon fill="midnightblue" stroke="midnightblue" points="1223.5,-278.118 1220.69,-267.903 1216.51,-277.642 1223.5,-278.118"/>
</g>
<!-- Node30 -->
<g id="node30" class="node"><title>Node30</title>
<g id="a_node30"><a xlink:href="../../da/d9d/PadRegionInfo_8h.html" target="_top" xlink:title="TPCBase/PadRegionInfo.h">
<polygon fill="none" stroke="black" points="937.5,-416.5 937.5,-435.5 1072.5,-435.5 1072.5,-416.5 937.5,-416.5"/>
<text text-anchor="middle" x="1005" y="-423.5" font-family="Helvetica,sans-Serif" font-size="10.00">TPCBase/PadRegionInfo.h</text>
</a>
</g>
</g>
<!-- Node19&#45;&gt;Node30 -->
<g id="edge45" class="edge"><title>Node19&#45;&gt;Node30</title>
<path fill="none" stroke="midnightblue" d="M699.53,-473.206C762.656,-463.657 869.71,-447.464 938.857,-437.005"/>
<polygon fill="midnightblue" stroke="midnightblue" points="939.411,-440.461 948.775,-435.505 938.364,-433.54 939.411,-440.461"/>
</g>
<!-- Node31 -->
<g id="node31" class="node"><title>Node31</title>
<g id="a_node31"><a xlink:href="../../d6/d42/PartitionInfo_8h.html" target="_top" xlink:title="TPCBase/PartitionInfo.h">
<polygon fill="none" stroke="black" points="796.5,-416.5 796.5,-435.5 919.5,-435.5 919.5,-416.5 796.5,-416.5"/>
<text text-anchor="middle" x="858" y="-423.5" font-family="Helvetica,sans-Serif" font-size="10.00">TPCBase/PartitionInfo.h</text>
</a>
</g>
</g>
<!-- Node19&#45;&gt;Node31 -->
<g id="edge49" class="edge"><title>Node19&#45;&gt;Node31</title>
<path fill="none" stroke="midnightblue" d="M681.275,-472.444C717.448,-463.142 775.377,-448.246 814.981,-438.062"/>
<polygon fill="midnightblue" stroke="midnightblue" points="816.067,-441.397 824.881,-435.516 814.324,-434.617 816.067,-441.397"/>
</g>
<!-- Node25&#45;&gt;Node17 -->
<g id="edge29" class="edge"><title>Node25&#45;&gt;Node17</title>
<path fill="none" stroke="midnightblue" d="M412.531,-360.368C419.859,-342.456 436.85,-300.923 446.658,-276.948"/>
<polygon fill="midnightblue" stroke="midnightblue" points="449.938,-278.172 450.485,-267.591 443.46,-275.522 449.938,-278.172"/>
</g>
<!-- Node25&#45;&gt;Node24 -->
<g id="edge30" class="edge"><title>Node25&#45;&gt;Node24</title>
<path fill="none" stroke="midnightblue" d="M458.754,-360.444C514.335,-350.885 604.264,-335.419 663.516,-325.23"/>
<polygon fill="midnightblue" stroke="midnightblue" points="664.216,-328.661 673.479,-323.516 663.03,-321.762 664.216,-328.661"/>
</g>
<!-- Node26&#45;&gt;Node2 -->
<g id="edge33" class="edge"><title>Node26&#45;&gt;Node2</title>
<path fill="none" stroke="midnightblue" d="M642.609,-360.444C620.293,-351.517 585.097,-337.439 559.792,-327.317"/>
<polygon fill="midnightblue" stroke="midnightblue" points="560.876,-323.981 550.291,-323.516 558.276,-330.48 560.876,-323.981"/>
</g>
<!-- Node26&#45;&gt;Node3 -->
<g id="edge32" class="edge"><title>Node26&#45;&gt;Node3</title>
<path fill="none" stroke="midnightblue" d="M662.202,-360.465C659.875,-347.923 656.607,-323.854 661,-304 667.899,-272.822 685.449,-239.849 697.041,-220.365"/>
<polygon fill="midnightblue" stroke="midnightblue" points="700.098,-222.076 702.327,-211.718 694.125,-218.425 700.098,-222.076"/>
</g>
<!-- Node26&#45;&gt;Node24 -->
<g id="edge34" class="edge"><title>Node26&#45;&gt;Node24</title>
<path fill="none" stroke="midnightblue" d="M673.479,-360.324C682.201,-352.341 695.343,-340.313 705.898,-330.653"/>
<polygon fill="midnightblue" stroke="midnightblue" points="708.334,-333.167 713.348,-323.834 703.608,-328.004 708.334,-333.167"/>
</g>
<!-- Node27&#45;&gt;Node3 -->
<g id="edge36" class="edge"><title>Node27&#45;&gt;Node3</title>
<path fill="none" stroke="midnightblue" d="M683.8,-416.392C706.105,-409.551 734.221,-398.069 754,-380 774.847,-360.956 777.127,-351.386 784,-324 794.735,-281.229 753.917,-239.515 727.965,-218.012"/>
<polygon fill="midnightblue" stroke="midnightblue" points="730.143,-215.273 720.145,-211.766 725.774,-220.742 730.143,-215.273"/>
</g>
<!-- Node27&#45;&gt;Node24 -->
<g id="edge41" class="edge"><title>Node27&#45;&gt;Node24</title>
<path fill="none" stroke="midnightblue" d="M684.702,-416.349C703.834,-409.775 725.572,-398.583 737,-380 745.856,-365.599 739.997,-346.402 733.362,-332.61"/>
<polygon fill="midnightblue" stroke="midnightblue" points="736.386,-330.844 728.592,-323.668 730.21,-334.138 736.386,-330.844"/>
</g>
<!-- Node27&#45;&gt;Node25 -->
<g id="edge42" class="edge"><title>Node27&#45;&gt;Node25</title>
<path fill="none" stroke="midnightblue" d="M610.13,-416.444C568.524,-407.043 501.631,-391.929 456.531,-381.739"/>
<polygon fill="midnightblue" stroke="midnightblue" points="457.219,-378.306 446.693,-379.516 455.676,-385.134 457.219,-378.306"/>
</g>
<!-- Node28 -->
<g id="node28" class="node"><title>Node28</title>
<g id="a_node28"><a xlink:href="../../df/d26/CRU_8h.html" target="_top" xlink:title="TPCBase/CRU.h">
<polygon fill="none" stroke="black" points="488.5,-360.5 488.5,-379.5 581.5,-379.5 581.5,-360.5 488.5,-360.5"/>
<text text-anchor="middle" x="535" y="-367.5" font-family="Helvetica,sans-Serif" font-size="10.00">TPCBase/CRU.h</text>
</a>
</g>
</g>
<!-- Node27&#45;&gt;Node28 -->
<g id="edge37" class="edge"><title>Node27&#45;&gt;Node28</title>
<path fill="none" stroke="midnightblue" d="M630.095,-416.444C611.746,-407.675 582.995,-393.935 561.906,-383.858"/>
<polygon fill="midnightblue" stroke="midnightblue" points="563.353,-380.67 552.821,-379.516 560.335,-386.986 563.353,-380.67"/>
</g>
<!-- Node28&#45;&gt;Node2 -->
<g id="edge40" class="edge"><title>Node28&#45;&gt;Node2</title>
<path fill="none" stroke="midnightblue" d="M534.009,-360.083C533.214,-352.927 532.071,-342.635 531.077,-333.691"/>
<polygon fill="midnightblue" stroke="midnightblue" points="534.555,-333.303 529.972,-323.751 527.598,-334.076 534.555,-333.303"/>
</g>
<!-- Node28&#45;&gt;Node3 -->
<g id="edge38" class="edge"><title>Node28&#45;&gt;Node3</title>
<path fill="none" stroke="midnightblue" d="M544.472,-360.457C554.399,-351.467 570.412,-336.863 584,-324 623.275,-286.82 668.548,-242.178 692.021,-218.897"/>
<polygon fill="midnightblue" stroke="midnightblue" points="694.739,-221.13 699.368,-211.6 689.806,-216.163 694.739,-221.13"/>
</g>
<!-- Node28&#45;&gt;Node17 -->
<g id="edge39" class="edge"><title>Node28&#45;&gt;Node17</title>
<path fill="none" stroke="midnightblue" d="M517.542,-360.479C503.543,-352.788 484.412,-340.201 473,-324 463.373,-310.333 458.579,-291.796 456.219,-278.015"/>
<polygon fill="midnightblue" stroke="midnightblue" points="459.634,-277.174 454.756,-267.769 452.704,-278.163 459.634,-277.174"/>
</g>
<!-- Node29&#45;&gt;Node16 -->
<g id="edge44" class="edge"><title>Node29&#45;&gt;Node16</title>
<path fill="none" stroke="midnightblue" d="M1221,-248.234C1221,-221.548 1221,-140.877 1221,-103.893"/>
<polygon fill="midnightblue" stroke="midnightblue" points="1224.5,-103.544 1221,-93.5442 1217.5,-103.544 1224.5,-103.544"/>
</g>
<!-- Node30&#45;&gt;Node3 -->
<g id="edge47" class="edge"><title>Node30&#45;&gt;Node3</title>
<path fill="none" stroke="midnightblue" d="M1000.12,-416.192C992.444,-402.875 976.489,-377.335 958,-360 887.342,-293.754 784.768,-239.758 735.903,-216.026"/>
<polygon fill="midnightblue" stroke="midnightblue" points="737.126,-212.731 726.597,-211.558 734.097,-219.041 737.126,-212.731"/>
</g>
<!-- Node30&#45;&gt;Node21 -->
<g id="edge46" class="edge"><title>Node30&#45;&gt;Node21</title>
<path fill="none" stroke="midnightblue" d="M987.969,-416.324C970.97,-407.664 944.624,-394.242 925.007,-384.249"/>
<polygon fill="midnightblue" stroke="midnightblue" points="926.488,-381.075 915.988,-379.655 923.31,-387.312 926.488,-381.075"/>
</g>
<!-- Node30&#45;&gt;Node24 -->
<g id="edge48" class="edge"><title>Node30&#45;&gt;Node24</title>
<path fill="none" stroke="midnightblue" d="M997.547,-416.302C984.934,-402.174 957.918,-374.374 929,-360 884.029,-337.646 828.098,-326.327 785.868,-320.636"/>
<polygon fill="midnightblue" stroke="midnightblue" points="786.079,-317.135 775.716,-319.34 785.192,-324.079 786.079,-317.135"/>
</g>
</g>
</svg>
