<?xml version="1.0" encoding="UTF-8" standalone="no"?>
<!DOCTYPE svg PUBLIC "-//W3C//DTD SVG 1.1//EN"
 "http://www.w3.org/Graphics/SVG/1.1/DTD/svg11.dtd">
<!-- Generated by graphviz version 2.36.0 (20140111.2315)
 -->
<!-- Title: /home/travis/build/AliceO2Group/AliceO2/DataFormats/Headers/test/testDataHeader.cxx Pages: 1 -->
<svg width="509pt" height="230pt"
 viewBox="0.00 0.00 509.00 230.00" xmlns="http://www.w3.org/2000/svg" xmlns:xlink="http://www.w3.org/1999/xlink">
<g id="graph0" class="graph" transform="scale(1 1) rotate(0) translate(4 226)">
<title>/home/travis/build/AliceO2Group/AliceO2/DataFormats/Headers/test/testDataHeader.cxx</title>
<!-- Node1 -->
<g id="node1" class="node"><title>Node1</title>
<polygon fill="#bfbfbf" stroke="black" points="192,-169 192,-221 328,-221 328,-169 192,-169"/>
<text text-anchor="start" x="200" y="-209" font-family="Helvetica,sans-Serif" font-size="10.00">/home/travis/build</text>
<text text-anchor="start" x="200" y="-198" font-family="Helvetica,sans-Serif" font-size="10.00">/AliceO2Group/AliceO2</text>
<text text-anchor="start" x="200" y="-187" font-family="Helvetica,sans-Serif" font-size="10.00">/DataFormats/Headers/test</text>
<text text-anchor="middle" x="260" y="-176" font-family="Helvetica,sans-Serif" font-size="10.00">/testDataHeader.cxx</text>
</g>
<!-- Node2 -->
<g id="node2" class="node"><title>Node2</title>
<polygon fill="none" stroke="#bfbfbf" points="-0.5,-112.5 -0.5,-131.5 118.5,-131.5 118.5,-112.5 -0.5,-112.5"/>
<text text-anchor="middle" x="59" y="-119.5" font-family="Helvetica,sans-Serif" font-size="10.00">boost/test/unit_test.hpp</text>
</g>
<!-- Node1&#45;&gt;Node2 -->
<g id="edge1" class="edge"><title>Node1&#45;&gt;Node2</title>
<path fill="none" stroke="midnightblue" d="M191.951,-169.963C158.624,-158.191 119.965,-144.535 92.9543,-134.994"/>
<polygon fill="midnightblue" stroke="midnightblue" points="93.8026,-131.582 83.2078,-131.551 91.4711,-138.182 93.8026,-131.582"/>
</g>
<!-- Node3 -->
<g id="node3" class="node"><title>Node3</title>
<polygon fill="none" stroke="#bfbfbf" points="137,-112.5 137,-131.5 191,-131.5 191,-112.5 137,-112.5"/>
<text text-anchor="middle" x="164" y="-119.5" font-family="Helvetica,sans-Serif" font-size="10.00">iostream</text>
</g>
<!-- Node1&#45;&gt;Node3 -->
<g id="edge2" class="edge"><title>Node1&#45;&gt;Node3</title>
<path fill="none" stroke="midnightblue" d="M226.154,-168.968C212.08,-158.559 196.223,-146.831 184.048,-137.827"/>
<polygon fill="midnightblue" stroke="midnightblue" points="186.033,-134.942 175.911,-131.81 181.87,-140.57 186.033,-134.942"/>
</g>
<!-- Node4 -->
<g id="node4" class="node"><title>Node4</title>
<polygon fill="none" stroke="#bfbfbf" points="209,-112.5 209,-131.5 259,-131.5 259,-112.5 209,-112.5"/>
<text text-anchor="middle" x="234" y="-119.5" font-family="Helvetica,sans-Serif" font-size="10.00">iomanip</text>
</g>
<!-- Node1&#45;&gt;Node4 -->
<g id="edge3" class="edge"><title>Node1&#45;&gt;Node4</title>
<path fill="none" stroke="midnightblue" d="M250.76,-168.768C247.435,-159.688 243.751,-149.627 240.685,-141.256"/>
<polygon fill="midnightblue" stroke="midnightblue" points="243.932,-139.944 237.207,-131.757 237.359,-142.351 243.932,-139.944"/>
</g>
<!-- Node5 -->
<g id="node5" class="node"><title>Node5</title>
<g id="a_node5"><a xlink:href="../../dc/dcd/DataHeader_8h.html" target="_top" xlink:title="Headers/DataHeader.h">
<polygon fill="none" stroke="black" points="228.5,-56.5 228.5,-75.5 345.5,-75.5 345.5,-56.5 228.5,-56.5"/>
<text text-anchor="middle" x="287" y="-63.5" font-family="Helvetica,sans-Serif" font-size="10.00">Headers/DataHeader.h</text>
</a>
</g>
</g>
<!-- Node1&#45;&gt;Node5 -->
<g id="edge4" class="edge"><title>Node1&#45;&gt;Node5</title>
<path fill="none" stroke="midnightblue" d="M265.334,-168.909C270.543,-144.409 278.349,-107.69 283.032,-85.6639"/>
<polygon fill="midnightblue" stroke="midnightblue" points="286.51,-86.1371 285.166,-75.6278 279.663,-84.6814 286.51,-86.1371"/>
</g>
<!-- Node11 -->
<g id="node11" class="node"><title>Node11</title>
<g id="a_node11"><a xlink:href="../../d6/d2e/NameHeader_8h.html" target="_top" xlink:title="Headers/NameHeader.h">
<polygon fill="none" stroke="black" points="315,-112.5 315,-131.5 437,-131.5 437,-112.5 315,-112.5"/>
<text text-anchor="middle" x="376" y="-119.5" font-family="Helvetica,sans-Serif" font-size="10.00">Headers/NameHeader.h</text>
</a>
</g>
</g>
<!-- Node1&#45;&gt;Node11 -->
<g id="edge10" class="edge"><title>Node1&#45;&gt;Node11</title>
<path fill="none" stroke="midnightblue" d="M300.897,-168.968C318.507,-158.19 338.427,-145.997 353.324,-136.879"/>
<polygon fill="midnightblue" stroke="midnightblue" points="355.184,-139.845 361.886,-131.639 351.529,-133.874 355.184,-139.845"/>
</g>
<!-- Node13 -->
<g id="node13" class="node"><title>Node13</title>
<polygon fill="none" stroke="#bfbfbf" points="455,-112.5 455,-131.5 501,-131.5 501,-112.5 455,-112.5"/>
<text text-anchor="middle" x="478" y="-119.5" font-family="Helvetica,sans-Serif" font-size="10.00">chrono</text>
</g>
<!-- Node1&#45;&gt;Node13 -->
<g id="edge13" class="edge"><title>Node1&#45;&gt;Node13</title>
<path fill="none" stroke="midnightblue" d="M328.08,-171.827C367.027,-159.142 414.129,-143.802 445.015,-133.743"/>
<polygon fill="midnightblue" stroke="midnightblue" points="446.407,-136.97 454.832,-130.546 444.24,-130.314 446.407,-136.97"/>
</g>
<!-- Node6 -->
<g id="node6" class="node"><title>Node6</title>
<polygon fill="none" stroke="#bfbfbf" points="128,-0.5 128,-19.5 174,-19.5 174,-0.5 128,-0.5"/>
<text text-anchor="middle" x="151" y="-7.5" font-family="Helvetica,sans-Serif" font-size="10.00">cstdint</text>
</g>
<!-- Node5&#45;&gt;Node6 -->
<g id="edge5" class="edge"><title>Node5&#45;&gt;Node6</title>
<path fill="none" stroke="midnightblue" d="M265.45,-56.4435C242.969,-47.5171 207.512,-33.4387 182.02,-23.3168"/>
<polygon fill="midnightblue" stroke="midnightblue" points="183.035,-19.9539 172.449,-19.5164 180.451,-26.4598 183.035,-19.9539"/>
</g>
<!-- Node7 -->
<g id="node7" class="node"><title>Node7</title>
<polygon fill="none" stroke="#bfbfbf" points="192,-0.5 192,-19.5 244,-19.5 244,-0.5 192,-0.5"/>
<text text-anchor="middle" x="218" y="-7.5" font-family="Helvetica,sans-Serif" font-size="10.00">memory</text>
</g>
<!-- Node5&#45;&gt;Node7 -->
<g id="edge6" class="edge"><title>Node5&#45;&gt;Node7</title>
<path fill="none" stroke="midnightblue" d="M275.914,-56.324C265.514,-48.1849 249.739,-35.8395 237.278,-26.0874"/>
<polygon fill="midnightblue" stroke="midnightblue" points="239.32,-23.2407 229.288,-19.8339 235.006,-28.7533 239.32,-23.2407"/>
</g>
<!-- Node8 -->
<g id="node8" class="node"><title>Node8</title>
<polygon fill="none" stroke="#bfbfbf" points="262.5,-0.5 262.5,-19.5 311.5,-19.5 311.5,-0.5 262.5,-0.5"/>
<text text-anchor="middle" x="287" y="-7.5" font-family="Helvetica,sans-Serif" font-size="10.00">cassert</text>
</g>
<!-- Node5&#45;&gt;Node8 -->
<g id="edge7" class="edge"><title>Node5&#45;&gt;Node8</title>
<path fill="none" stroke="midnightblue" d="M287,-56.083C287,-49.0059 287,-38.8611 287,-29.9865"/>
<polygon fill="midnightblue" stroke="midnightblue" points="290.5,-29.751 287,-19.7511 283.5,-29.7511 290.5,-29.751"/>
</g>
<!-- Node9 -->
<g id="node9" class="node"><title>Node9</title>
<polygon fill="none" stroke="#bfbfbf" points="330,-0.5 330,-19.5 376,-19.5 376,-0.5 330,-0.5"/>
<text text-anchor="middle" x="353" y="-7.5" font-family="Helvetica,sans-Serif" font-size="10.00">cstring</text>
</g>
<!-- Node5&#45;&gt;Node9 -->
<g id="edge8" class="edge"><title>Node5&#45;&gt;Node9</title>
<path fill="none" stroke="midnightblue" d="M297.604,-56.324C307.456,-48.2631 322.351,-36.0765 334.215,-26.3695"/>
<polygon fill="midnightblue" stroke="midnightblue" points="336.68,-28.8752 342.203,-19.8339 332.247,-23.4575 336.68,-28.8752"/>
</g>
<!-- Node10 -->
<g id="node10" class="node"><title>Node10</title>
<polygon fill="none" stroke="#bfbfbf" points="394,-0.5 394,-19.5 450,-19.5 450,-0.5 394,-0.5"/>
<text text-anchor="middle" x="422" y="-7.5" font-family="Helvetica,sans-Serif" font-size="10.00">algorithm</text>
</g>
<!-- Node5&#45;&gt;Node10 -->
<g id="edge9" class="edge"><title>Node5&#45;&gt;Node10</title>
<path fill="none" stroke="midnightblue" d="M308.391,-56.4435C330.707,-47.5171 365.903,-33.4387 391.208,-23.3168"/>
<polygon fill="midnightblue" stroke="midnightblue" points="392.724,-26.4801 400.709,-19.5164 390.124,-19.9807 392.724,-26.4801"/>
</g>
<!-- Node11&#45;&gt;Node5 -->
<g id="edge12" class="edge"><title>Node11&#45;&gt;Node5</title>
<path fill="none" stroke="midnightblue" d="M361.701,-112.324C347.817,-103.9 326.508,-90.9709 310.196,-81.0741"/>
<polygon fill="midnightblue" stroke="midnightblue" points="311.629,-77.8495 301.264,-75.6545 307.998,-83.8341 311.629,-77.8495"/>
</g>
<!-- Node12 -->
<g id="node12" class="node"><title>Node12</title>
<polygon fill="none" stroke="#bfbfbf" points="363.5,-56.5 363.5,-75.5 404.5,-75.5 404.5,-56.5 363.5,-56.5"/>
<text text-anchor="middle" x="384" y="-63.5" font-family="Helvetica,sans-Serif" font-size="10.00">string</text>
</g>
<!-- Node11&#45;&gt;Node12 -->
<g id="edge11" class="edge"><title>Node11&#45;&gt;Node12</title>
<path fill="none" stroke="midnightblue" d="M377.321,-112.083C378.381,-104.927 379.906,-94.6353 381.231,-85.6911"/>
<polygon fill="midnightblue" stroke="midnightblue" points="384.7,-86.1561 382.704,-75.7511 377.776,-85.1302 384.7,-86.1561"/>
</g>
</g>
</svg>
