<?xml version="1.0" encoding="UTF-8" standalone="no"?>
<!DOCTYPE svg PUBLIC "-//W3C//DTD SVG 1.1//EN"
 "http://www.w3.org/Graphics/SVG/1.1/DTD/svg11.dtd">
<!-- Generated by graphviz version 2.36.0 (20140111.2315)
 -->
<!-- Title: /home/travis/build/AliceO2Group/AliceO2/Detectors/TPC/reconstruction/macro/convertTracks.C Pages: 1 -->
<svg width="2347pt" height="526pt"
 viewBox="0.00 0.00 2347.00 526.00" xmlns="http://www.w3.org/2000/svg" xmlns:xlink="http://www.w3.org/1999/xlink">
<g id="graph0" class="graph" transform="scale(1 1) rotate(0) translate(4 522)">
<title>/home/travis/build/AliceO2Group/AliceO2/Detectors/TPC/reconstruction/macro/convertTracks.C</title>
<!-- Node1 -->
<g id="node1" class="node"><title>Node1</title>
<polygon fill="#bfbfbf" stroke="black" points="1425,-465 1425,-517 1575,-517 1575,-465 1425,-465"/>
<text text-anchor="start" x="1433" y="-505" font-family="Helvetica,sans-Serif" font-size="10.00">/home/travis/build</text>
<text text-anchor="start" x="1433" y="-494" font-family="Helvetica,sans-Serif" font-size="10.00">/AliceO2Group/AliceO2</text>
<text text-anchor="start" x="1433" y="-483" font-family="Helvetica,sans-Serif" font-size="10.00">/Detectors/TPC/reconstruction</text>
<text text-anchor="middle" x="1500" y="-472" font-family="Helvetica,sans-Serif" font-size="10.00">/macro/convertTracks.C</text>
</g>
<!-- Node2 -->
<g id="node2" class="node"><title>Node2</title>
<polygon fill="none" stroke="#bfbfbf" points="886,-142.5 886,-161.5 930,-161.5 930,-142.5 886,-142.5"/>
<text text-anchor="middle" x="908" y="-149.5" font-family="Helvetica,sans-Serif" font-size="10.00">vector</text>
</g>
<!-- Node1&#45;&gt;Node2 -->
<g id="edge1" class="edge"><title>Node1&#45;&gt;Node2</title>
<path fill="none" stroke="midnightblue" d="M1424.78,-485.769C1220.92,-473.304 673,-432.755 673,-357 673,-357 673,-357 673,-287 673,-249.157 664.818,-230.33 692,-204 751.852,-146.023 796.792,-193.878 876,-168 878.132,-167.303 880.308,-166.5 882.472,-165.634"/>
<polygon fill="midnightblue" stroke="midnightblue" points="883.957,-168.804 891.706,-161.579 881.142,-162.395 883.957,-168.804"/>
</g>
<!-- Node3 -->
<g id="node3" class="node"><title>Node3</title>
<polygon fill="none" stroke="#bfbfbf" points="1475,-408.5 1475,-427.5 1525,-427.5 1525,-408.5 1475,-408.5"/>
<text text-anchor="middle" x="1500" y="-415.5" font-family="Helvetica,sans-Serif" font-size="10.00">fstream</text>
</g>
<!-- Node1&#45;&gt;Node3 -->
<g id="edge2" class="edge"><title>Node1&#45;&gt;Node3</title>
<path fill="none" stroke="midnightblue" d="M1500,-464.768C1500,-455.89 1500,-446.074 1500,-437.816"/>
<polygon fill="midnightblue" stroke="midnightblue" points="1503.5,-437.757 1500,-427.757 1496.5,-437.757 1503.5,-437.757"/>
</g>
<!-- Node4 -->
<g id="node4" class="node"><title>Node4</title>
<polygon fill="none" stroke="#bfbfbf" points="1397,-74.5 1397,-93.5 1451,-93.5 1451,-74.5 1397,-74.5"/>
<text text-anchor="middle" x="1424" y="-81.5" font-family="Helvetica,sans-Serif" font-size="10.00">iostream</text>
</g>
<!-- Node1&#45;&gt;Node4 -->
<g id="edge3" class="edge"><title>Node1&#45;&gt;Node4</title>
<path fill="none" stroke="midnightblue" d="M1424.83,-481.535C1353.05,-472.02 1251.57,-454.37 1222,-428 1178.46,-389.179 1191.63,-360.948 1179,-304 1169.36,-260.503 1148.15,-241.634 1172,-204 1178.51,-193.723 1330.41,-126.112 1395.17,-97.6228"/>
<polygon fill="midnightblue" stroke="midnightblue" points="1396.68,-100.784 1404.42,-93.5577 1393.86,-94.3753 1396.68,-100.784"/>
</g>
<!-- Node5 -->
<g id="node5" class="node"><title>Node5</title>
<polygon fill="none" stroke="#bfbfbf" points="1543,-408.5 1543,-427.5 1599,-427.5 1599,-408.5 1543,-408.5"/>
<text text-anchor="middle" x="1571" y="-415.5" font-family="Helvetica,sans-Serif" font-size="10.00">TChain.h</text>
</g>
<!-- Node1&#45;&gt;Node5 -->
<g id="edge4" class="edge"><title>Node1&#45;&gt;Node5</title>
<path fill="none" stroke="midnightblue" d="M1525.23,-464.768C1535.12,-454.881 1546.17,-443.831 1554.93,-435.066"/>
<polygon fill="midnightblue" stroke="midnightblue" points="1557.65,-437.303 1562.24,-427.757 1552.7,-432.353 1557.65,-437.303"/>
</g>
<!-- Node6 -->
<g id="node6" class="node"><title>Node6</title>
<polygon fill="none" stroke="#bfbfbf" points="1617.5,-408.5 1617.5,-427.5 1702.5,-427.5 1702.5,-408.5 1617.5,-408.5"/>
<text text-anchor="middle" x="1660" y="-415.5" font-family="Helvetica,sans-Serif" font-size="10.00">TClonesArray.h</text>
</g>
<!-- Node1&#45;&gt;Node6 -->
<g id="edge5" class="edge"><title>Node1&#45;&gt;Node6</title>
<path fill="none" stroke="midnightblue" d="M1556.41,-464.968C1581.73,-453.732 1610.51,-440.96 1631.3,-431.735"/>
<polygon fill="midnightblue" stroke="midnightblue" points="1632.81,-434.894 1640.53,-427.639 1629.97,-428.496 1632.81,-434.894"/>
</g>
<!-- Node7 -->
<g id="node7" class="node"><title>Node7</title>
<polygon fill="none" stroke="#bfbfbf" points="1720.5,-408.5 1720.5,-427.5 1767.5,-427.5 1767.5,-408.5 1720.5,-408.5"/>
<text text-anchor="middle" x="1744" y="-415.5" font-family="Helvetica,sans-Serif" font-size="10.00">TFile.h</text>
</g>
<!-- Node1&#45;&gt;Node7 -->
<g id="edge6" class="edge"><title>Node1&#45;&gt;Node7</title>
<path fill="none" stroke="midnightblue" d="M1575.2,-468.118C1620.57,-454.916 1676.12,-438.752 1710.79,-428.663"/>
<polygon fill="midnightblue" stroke="midnightblue" points="1711.8,-432.016 1720.42,-425.861 1709.84,-425.295 1711.8,-432.016"/>
</g>
<!-- Node8 -->
<g id="node8" class="node"><title>Node8</title>
<polygon fill="none" stroke="#bfbfbf" points="1785.5,-408.5 1785.5,-427.5 1844.5,-427.5 1844.5,-408.5 1785.5,-408.5"/>
<text text-anchor="middle" x="1815" y="-415.5" font-family="Helvetica,sans-Serif" font-size="10.00">TROOT.h</text>
</g>
<!-- Node1&#45;&gt;Node8 -->
<g id="edge7" class="edge"><title>Node1&#45;&gt;Node8</title>
<path fill="none" stroke="midnightblue" d="M1575.29,-473.211C1628.41,-461.337 1701.52,-444.937 1775.26,-428.159"/>
<polygon fill="midnightblue" stroke="midnightblue" points="1776.22,-431.53 1785.19,-425.897 1774.67,-424.705 1776.22,-431.53"/>
</g>
<!-- Node9 -->
<g id="node9" class="node"><title>Node9</title>
<polygon fill="none" stroke="#bfbfbf" points="1863,-408.5 1863,-427.5 1913,-427.5 1913,-408.5 1863,-408.5"/>
<text text-anchor="middle" x="1888" y="-415.5" font-family="Helvetica,sans-Serif" font-size="10.00">TTree.h</text>
</g>
<!-- Node1&#45;&gt;Node9 -->
<g id="edge8" class="edge"><title>Node1&#45;&gt;Node9</title>
<path fill="none" stroke="midnightblue" d="M1575.05,-478.556C1646.73,-467.215 1757.67,-448.597 1853,-428 1853.1,-427.978 1853.2,-427.957 1853.3,-427.935"/>
<polygon fill="midnightblue" stroke="midnightblue" points="1853.87,-431.396 1862.82,-425.724 1852.29,-424.577 1853.87,-431.396"/>
</g>
<!-- Node10 -->
<g id="node10" class="node"><title>Node10</title>
<g id="a_node10"><a xlink:href="../../d7/d8b/DataFormats_2Reconstruction_2include_2ReconstructionDataFormats_2Track_8h.html" target="_top" xlink:title="ReconstructionDataFormats\l/Track.h">
<polygon fill="none" stroke="black" points="1656,-341 1656,-371 1796,-371 1796,-341 1656,-341"/>
<text text-anchor="start" x="1664" y="-359" font-family="Helvetica,sans-Serif" font-size="10.00">ReconstructionDataFormats</text>
<text text-anchor="middle" x="1726" y="-348" font-family="Helvetica,sans-Serif" font-size="10.00">/Track.h</text>
</a>
</g>
</g>
<!-- Node1&#45;&gt;Node10 -->
<g id="edge9" class="edge"><title>Node1&#45;&gt;Node10</title>
<path fill="none" stroke="midnightblue" d="M1458.05,-464.726C1436.24,-448.437 1417.14,-426.854 1433,-408 1459.72,-376.232 1568.45,-364.251 1645.64,-359.733"/>
<polygon fill="midnightblue" stroke="midnightblue" points="1646.04,-363.217 1655.83,-359.169 1645.65,-356.227 1646.04,-363.217"/>
</g>
<!-- Node42 -->
<g id="node42" class="node"><title>Node42</title>
<g id="a_node42"><a xlink:href="../../dc/ddf/DataFormats_2Detectors_2TPC_2include_2DataFormatsTPC_2Cluster_8h.html" target="_top" xlink:title="DataFormatsTPC/Cluster.h">
<polygon fill="none" stroke="black" points="2109.5,-346.5 2109.5,-365.5 2246.5,-365.5 2246.5,-346.5 2109.5,-346.5"/>
<text text-anchor="middle" x="2178" y="-353.5" font-family="Helvetica,sans-Serif" font-size="10.00">DataFormatsTPC/Cluster.h</text>
</a>
</g>
</g>
<!-- Node1&#45;&gt;Node42 -->
<g id="edge57" class="edge"><title>Node1&#45;&gt;Node42</title>
<path fill="none" stroke="midnightblue" d="M1476.62,-464.853C1463.01,-447.165 1451.19,-423.905 1466,-408 1487.32,-385.102 1918.11,-366.592 2099.05,-359.798"/>
<polygon fill="midnightblue" stroke="midnightblue" points="2099.44,-363.286 2109.3,-359.415 2099.18,-356.291 2099.44,-363.286"/>
</g>
<!-- Node45 -->
<g id="node45" class="node"><title>Node45</title>
<g id="a_node45"><a xlink:href="../../d5/dc9/TrackTPC_8h.html" target="_top" xlink:title="DataFormatsTPC/TrackTPC.h">
<polygon fill="none" stroke="black" points="1231,-408.5 1231,-427.5 1381,-427.5 1381,-408.5 1231,-408.5"/>
<text text-anchor="middle" x="1306" y="-415.5" font-family="Helvetica,sans-Serif" font-size="10.00">DataFormatsTPC/TrackTPC.h</text>
</a>
</g>
</g>
<!-- Node1&#45;&gt;Node45 -->
<g id="edge62" class="edge"><title>Node1&#45;&gt;Node45</title>
<path fill="none" stroke="midnightblue" d="M1431.6,-464.968C1400.21,-453.478 1364.42,-440.381 1339.1,-431.114"/>
<polygon fill="midnightblue" stroke="midnightblue" points="1340.2,-427.789 1329.6,-427.639 1337.79,-434.363 1340.2,-427.789"/>
</g>
<!-- Node10&#45;&gt;Node4 -->
<g id="edge16" class="edge"><title>Node10&#45;&gt;Node4</title>
<path fill="none" stroke="midnightblue" d="M1668.62,-340.939C1613.03,-324.531 1529.86,-292.203 1479,-236 1444.14,-197.479 1430.89,-135.105 1426.26,-103.959"/>
<polygon fill="midnightblue" stroke="midnightblue" points="1429.68,-103.112 1424.88,-93.6663 1422.74,-104.043 1429.68,-103.112"/>
</g>
<!-- Node11 -->
<g id="node11" class="node"><title>Node11</title>
<polygon fill="none" stroke="#bfbfbf" points="1924,-74.5 1924,-93.5 1980,-93.5 1980,-74.5 1924,-74.5"/>
<text text-anchor="middle" x="1952" y="-81.5" font-family="Helvetica,sans-Serif" font-size="10.00">Rtypes.h</text>
</g>
<!-- Node10&#45;&gt;Node11 -->
<g id="edge10" class="edge"><title>Node10&#45;&gt;Node11</title>
<path fill="none" stroke="midnightblue" d="M1735.12,-340.935C1746.08,-324.213 1765.23,-295.601 1783,-272 1830.1,-209.445 1840.78,-192.491 1895,-136 1907.28,-123.203 1922.27,-109.876 1933.79,-100.055"/>
<polygon fill="midnightblue" stroke="midnightblue" points="1936.08,-102.699 1941.48,-93.5817 1931.57,-97.3441 1936.08,-102.699"/>
</g>
<!-- Node12 -->
<g id="node12" class="node"><title>Node12</title>
<polygon fill="none" stroke="#bfbfbf" points="1792,-278.5 1792,-297.5 1848,-297.5 1848,-278.5 1792,-278.5"/>
<text text-anchor="middle" x="1820" y="-285.5" font-family="Helvetica,sans-Serif" font-size="10.00">algorithm</text>
</g>
<!-- Node10&#45;&gt;Node12 -->
<g id="edge11" class="edge"><title>Node10&#45;&gt;Node12</title>
<path fill="none" stroke="midnightblue" d="M1746.4,-340.679C1762.01,-329.713 1783.48,-314.645 1799.19,-303.609"/>
<polygon fill="midnightblue" stroke="midnightblue" points="1801.52,-306.249 1807.7,-297.638 1797.5,-300.52 1801.52,-306.249"/>
</g>
<!-- Node13 -->
<g id="node13" class="node"><title>Node13</title>
<polygon fill="none" stroke="#bfbfbf" points="1840,-6.5 1840,-25.5 1878,-25.5 1878,-6.5 1840,-6.5"/>
<text text-anchor="middle" x="1859" y="-13.5" font-family="Helvetica,sans-Serif" font-size="10.00">array</text>
</g>
<!-- Node10&#45;&gt;Node13 -->
<g id="edge12" class="edge"><title>Node10&#45;&gt;Node13</title>
<path fill="none" stroke="midnightblue" d="M1796.27,-354.017C1887.9,-351.247 2041.31,-341.032 2082,-304 2110.06,-278.462 2102,-258.945 2102,-221 2102,-221 2102,-221 2102,-151 2102,-54.4509 1953.08,-26.9465 1888.4,-19.5538"/>
<polygon fill="midnightblue" stroke="midnightblue" points="1888.38,-16.0321 1878.07,-18.4633 1887.65,-22.9935 1888.38,-16.0321"/>
</g>
<!-- Node14 -->
<g id="node14" class="node"><title>Node14</title>
<polygon fill="none" stroke="#bfbfbf" points="1866.5,-278.5 1866.5,-297.5 1907.5,-297.5 1907.5,-278.5 1866.5,-278.5"/>
<text text-anchor="middle" x="1887" y="-285.5" font-family="Helvetica,sans-Serif" font-size="10.00">cfloat</text>
</g>
<!-- Node10&#45;&gt;Node14 -->
<g id="edge13" class="edge"><title>Node10&#45;&gt;Node14</title>
<path fill="none" stroke="midnightblue" d="M1764.14,-340.92C1790.22,-331.078 1825.46,-317.357 1856,-304 1857.4,-303.386 1858.84,-302.745 1860.28,-302.088"/>
<polygon fill="midnightblue" stroke="midnightblue" points="1862.17,-305.068 1869.73,-297.646 1859.19,-298.733 1862.17,-305.068"/>
</g>
<!-- Node15 -->
<g id="node15" class="node"><title>Node15</title>
<polygon fill="none" stroke="#bfbfbf" points="370,-6.5 370,-25.5 414,-25.5 414,-6.5 370,-6.5"/>
<text text-anchor="middle" x="392" y="-13.5" font-family="Helvetica,sans-Serif" font-size="10.00">cmath</text>
</g>
<!-- Node10&#45;&gt;Node15 -->
<g id="edge14" class="edge"><title>Node10&#45;&gt;Node15</title>
<path fill="none" stroke="midnightblue" d="M1655.77,-354.501C1519.32,-352.635 1223.64,-343.955 1131,-304 1069.72,-277.573 1069.45,-247.681 1019,-204 1016.78,-202.077 940.725,-137.099 938,-136 829.133,-92.1017 500.25,-176.246 411,-100 392.679,-84.3483 389.986,-54.9767 390.447,-35.7034"/>
<polygon fill="midnightblue" stroke="midnightblue" points="393.943,-35.8773 390.989,-25.7026 386.953,-35.4986 393.943,-35.8773"/>
</g>
<!-- Node16 -->
<g id="node16" class="node"><title>Node16</title>
<polygon fill="none" stroke="#bfbfbf" points="1926,-278.5 1926,-297.5 1972,-297.5 1972,-278.5 1926,-278.5"/>
<text text-anchor="middle" x="1949" y="-285.5" font-family="Helvetica,sans-Serif" font-size="10.00">cstring</text>
</g>
<!-- Node10&#45;&gt;Node16 -->
<g id="edge15" class="edge"><title>Node10&#45;&gt;Node16</title>
<path fill="none" stroke="midnightblue" d="M1788.4,-340.993C1825.86,-331.91 1874.21,-318.992 1916,-304 1917.91,-303.315 1919.86,-302.564 1921.82,-301.775"/>
<polygon fill="midnightblue" stroke="midnightblue" points="1923.61,-304.813 1931.41,-297.641 1920.84,-298.385 1923.61,-304.813"/>
</g>
<!-- Node17 -->
<g id="node17" class="node"><title>Node17</title>
<polygon fill="none" stroke="#bfbfbf" points="1990.5,-278.5 1990.5,-297.5 2073.5,-297.5 2073.5,-278.5 1990.5,-278.5"/>
<text text-anchor="middle" x="2032" y="-285.5" font-family="Helvetica,sans-Serif" font-size="10.00">Math/SMatrix.h</text>
</g>
<!-- Node10&#45;&gt;Node17 -->
<g id="edge17" class="edge"><title>Node10&#45;&gt;Node17</title>
<path fill="none" stroke="midnightblue" d="M1796.18,-342.697C1847.61,-333.261 1918.97,-319.292 1981,-304 1985.46,-302.902 1990.1,-301.664 1994.7,-300.383"/>
<polygon fill="midnightblue" stroke="midnightblue" points="1995.95,-303.667 2004.59,-297.545 1994.02,-296.938 1995.95,-303.667"/>
</g>
<!-- Node18 -->
<g id="node18" class="node"><title>Node18</title>
<polygon fill="none" stroke="#bfbfbf" points="1188.5,-278.5 1188.5,-297.5 1273.5,-297.5 1273.5,-278.5 1188.5,-278.5"/>
<text text-anchor="middle" x="1231" y="-285.5" font-family="Helvetica,sans-Serif" font-size="10.00">Math/SVector.h</text>
</g>
<!-- Node10&#45;&gt;Node18 -->
<g id="edge18" class="edge"><title>Node10&#45;&gt;Node18</title>
<path fill="none" stroke="midnightblue" d="M1655.62,-350.524C1567.76,-344.107 1413.18,-330.082 1283,-304 1277.89,-302.976 1272.56,-301.693 1267.33,-300.309"/>
<polygon fill="midnightblue" stroke="midnightblue" points="1268.08,-296.885 1257.51,-297.568 1266.2,-303.628 1268.08,-296.885"/>
</g>
<!-- Node19 -->
<g id="node19" class="node"><title>Node19</title>
<g id="a_node19"><a xlink:href="../../d6/d84/MathConstants_8h.html" target="_top" xlink:title="useful math constants ">
<polygon fill="none" stroke="black" points="2010.5,-6.5 2010.5,-25.5 2189.5,-25.5 2189.5,-6.5 2010.5,-6.5"/>
<text text-anchor="middle" x="2100" y="-13.5" font-family="Helvetica,sans-Serif" font-size="10.00">CommonConstants/MathConstants.h</text>
</a>
</g>
</g>
<!-- Node10&#45;&gt;Node19 -->
<g id="edge19" class="edge"><title>Node10&#45;&gt;Node19</title>
<path fill="none" stroke="midnightblue" d="M1796.05,-355.222C1893.59,-353.978 2063.19,-345.67 2106,-304 2180.68,-231.304 2129.35,-85.858 2108.04,-35.0315"/>
<polygon fill="midnightblue" stroke="midnightblue" points="2111.18,-33.4772 2104.01,-25.682 2104.76,-36.2504 2111.18,-33.4772"/>
</g>
<!-- Node20 -->
<g id="node20" class="node"><title>Node20</title>
<g id="a_node20"><a xlink:href="../../dd/d76/Cartesian3D_8h.html" target="_top" xlink:title="MathUtils/Cartesian3D.h">
<polygon fill="none" stroke="black" points="986.5,-142.5 986.5,-161.5 1111.5,-161.5 1111.5,-142.5 986.5,-142.5"/>
<text text-anchor="middle" x="1049" y="-149.5" font-family="Helvetica,sans-Serif" font-size="10.00">MathUtils/Cartesian3D.h</text>
</a>
</g>
</g>
<!-- Node10&#45;&gt;Node20 -->
<g id="edge20" class="edge"><title>Node10&#45;&gt;Node20</title>
<path fill="none" stroke="midnightblue" d="M1655.96,-354.566C1527.82,-352.779 1261.27,-344.183 1179,-304 1119,-274.696 1075.57,-203.732 1057.84,-170.594"/>
<polygon fill="midnightblue" stroke="midnightblue" points="1060.89,-168.871 1053.17,-161.613 1054.67,-172.1 1060.89,-168.871"/>
</g>
<!-- Node30 -->
<g id="node30" class="node"><title>Node30</title>
<g id="a_node30"><a xlink:href="../../d9/d52/Common_2MathUtils_2include_2MathUtils_2Utils_8h.html" target="_top" xlink:title="MathUtils/Utils.h">
<polygon fill="none" stroke="black" points="1778,-74.5 1778,-93.5 1868,-93.5 1868,-74.5 1778,-74.5"/>
<text text-anchor="middle" x="1823" y="-81.5" font-family="Helvetica,sans-Serif" font-size="10.00">MathUtils/Utils.h</text>
</a>
</g>
</g>
<!-- Node10&#45;&gt;Node30 -->
<g id="edge32" class="edge"><title>Node10&#45;&gt;Node30</title>
<path fill="none" stroke="midnightblue" d="M1729.69,-340.78C1734.1,-324.153 1741.91,-295.866 1750,-272 1771.3,-209.158 1801.3,-136.355 1815.27,-103.167"/>
<polygon fill="midnightblue" stroke="midnightblue" points="1818.54,-104.421 1819.21,-93.8472 1812.09,-101.693 1818.54,-104.421"/>
</g>
<!-- Node31 -->
<g id="node31" class="node"><title>Node31</title>
<g id="a_node31"><a xlink:href="../../d4/de2/BaseCluster_8h.html" target="_top" xlink:title="ReconstructionDataFormats\l/BaseCluster.h">
<polygon fill="none" stroke="black" points="1292,-273 1292,-303 1432,-303 1432,-273 1292,-273"/>
<text text-anchor="start" x="1300" y="-291" font-family="Helvetica,sans-Serif" font-size="10.00">ReconstructionDataFormats</text>
<text text-anchor="middle" x="1362" y="-280" font-family="Helvetica,sans-Serif" font-size="10.00">/BaseCluster.h</text>
</a>
</g>
</g>
<!-- Node10&#45;&gt;Node31 -->
<g id="edge36" class="edge"><title>Node10&#45;&gt;Node31</title>
<path fill="none" stroke="midnightblue" d="M1655.82,-342.275C1594.73,-331.199 1506.21,-315.148 1442.31,-303.562"/>
<polygon fill="midnightblue" stroke="midnightblue" points="1442.74,-300.083 1432.28,-301.743 1441.49,-306.971 1442.74,-300.083"/>
</g>
<!-- Node20&#45;&gt;Node4 -->
<g id="edge28" class="edge"><title>Node20&#45;&gt;Node4</title>
<path fill="none" stroke="midnightblue" d="M1090.48,-142.478C1101.96,-140.24 1114.45,-137.918 1126,-136 1241.95,-116.755 1274.59,-130.86 1388,-100 1390.82,-99.2334 1393.71,-98.2993 1396.57,-97.2761"/>
<polygon fill="midnightblue" stroke="midnightblue" points="1397.98,-100.481 1406.01,-93.567 1395.42,-93.9659 1397.98,-100.481"/>
</g>
<!-- Node20&#45;&gt;Node11 -->
<g id="edge26" class="edge"><title>Node20&#45;&gt;Node11</title>
<path fill="none" stroke="midnightblue" d="M1111.6,-150.044C1250.11,-147.294 1592.79,-136.999 1877,-100 1889.02,-98.4355 1902,-96.0801 1913.73,-93.6965"/>
<polygon fill="midnightblue" stroke="midnightblue" points="1914.59,-97.0919 1923.66,-91.6137 1913.15,-90.2409 1914.59,-97.0919"/>
</g>
<!-- Node21 -->
<g id="node21" class="node"><title>Node21</title>
<polygon fill="none" stroke="#bfbfbf" points="420.5,-69 420.5,-99 571.5,-99 571.5,-69 420.5,-69"/>
<text text-anchor="start" x="428.5" y="-87" font-family="Helvetica,sans-Serif" font-size="10.00">Math/GenVector/Displacement</text>
<text text-anchor="middle" x="496" y="-76" font-family="Helvetica,sans-Serif" font-size="10.00">Vector3D.h</text>
</g>
<!-- Node20&#45;&gt;Node21 -->
<g id="edge21" class="edge"><title>Node20&#45;&gt;Node21</title>
<path fill="none" stroke="midnightblue" d="M1009.16,-142.448C997.253,-140.105 984.134,-137.736 972,-136 802.452,-111.743 755.69,-122.755 581.944,-100.049"/>
<polygon fill="midnightblue" stroke="midnightblue" points="582.325,-96.5689 571.951,-98.7245 581.405,-103.508 582.325,-96.5689"/>
</g>
<!-- Node22 -->
<g id="node22" class="node"><title>Node22</title>
<polygon fill="none" stroke="#bfbfbf" points="590,-74.5 590,-93.5 766,-93.5 766,-74.5 590,-74.5"/>
<text text-anchor="middle" x="678" y="-81.5" font-family="Helvetica,sans-Serif" font-size="10.00">Math/GenVector/PositionVector3D.h</text>
</g>
<!-- Node20&#45;&gt;Node22 -->
<g id="edge22" class="edge"><title>Node20&#45;&gt;Node22</title>
<path fill="none" stroke="midnightblue" d="M1005.86,-142.434C994.831,-140.288 982.983,-138.022 972,-136 891.57,-121.192 798.535,-105.253 739.027,-95.2088"/>
<polygon fill="midnightblue" stroke="midnightblue" points="739.488,-91.7371 729.045,-93.5263 738.324,-98.6398 739.488,-91.7371"/>
</g>
<!-- Node23 -->
<g id="node23" class="node"><title>Node23</title>
<polygon fill="none" stroke="#bfbfbf" points="783.5,-74.5 783.5,-93.5 932.5,-93.5 932.5,-74.5 783.5,-74.5"/>
<text text-anchor="middle" x="858" y="-81.5" font-family="Helvetica,sans-Serif" font-size="10.00">Math/GenVector/Rotation3D.h</text>
</g>
<!-- Node20&#45;&gt;Node23 -->
<g id="edge23" class="edge"><title>Node20&#45;&gt;Node23</title>
<path fill="none" stroke="midnightblue" d="M1024.03,-142.372C990.335,-130.728 930.173,-109.939 892.267,-96.8411"/>
<polygon fill="midnightblue" stroke="midnightblue" points="893.268,-93.4839 882.673,-93.5259 890.982,-100.1 893.268,-93.4839"/>
</g>
<!-- Node24 -->
<g id="node24" class="node"><title>Node24</title>
<polygon fill="none" stroke="#bfbfbf" points="951,-74.5 951,-93.5 1107,-93.5 1107,-74.5 951,-74.5"/>
<text text-anchor="middle" x="1029" y="-81.5" font-family="Helvetica,sans-Serif" font-size="10.00">Math/GenVector/Transform3D.h</text>
</g>
<!-- Node20&#45;&gt;Node24 -->
<g id="edge24" class="edge"><title>Node20&#45;&gt;Node24</title>
<path fill="none" stroke="midnightblue" d="M1046.39,-142.372C1043.41,-132.544 1038.46,-116.202 1034.6,-103.467"/>
<polygon fill="midnightblue" stroke="midnightblue" points="1037.93,-102.396 1031.68,-93.8411 1031.23,-104.426 1037.93,-102.396"/>
</g>
<!-- Node25 -->
<g id="node25" class="node"><title>Node25</title>
<polygon fill="none" stroke="#bfbfbf" points="1125,-74.5 1125,-93.5 1285,-93.5 1285,-74.5 1125,-74.5"/>
<text text-anchor="middle" x="1205" y="-81.5" font-family="Helvetica,sans-Serif" font-size="10.00">Math/GenVector/Translation3D.h</text>
</g>
<!-- Node20&#45;&gt;Node25 -->
<g id="edge25" class="edge"><title>Node20&#45;&gt;Node25</title>
<path fill="none" stroke="midnightblue" d="M1069.39,-142.372C1096.37,-130.958 1144.12,-110.756 1175.16,-97.6252"/>
<polygon fill="midnightblue" stroke="midnightblue" points="1176.75,-100.75 1184.6,-93.6305 1174.03,-94.3035 1176.75,-100.75"/>
</g>
<!-- Node26 -->
<g id="node26" class="node"><title>Node26</title>
<polygon fill="none" stroke="#bfbfbf" points="1303,-74.5 1303,-93.5 1379,-93.5 1379,-74.5 1303,-74.5"/>
<text text-anchor="middle" x="1341" y="-81.5" font-family="Helvetica,sans-Serif" font-size="10.00">TGeoMatrix.h</text>
</g>
<!-- Node20&#45;&gt;Node26 -->
<g id="edge27" class="edge"><title>Node20&#45;&gt;Node26</title>
<path fill="none" stroke="midnightblue" d="M1092.71,-142.469C1152.47,-130.706 1256.55,-109.845 1294,-100 1297.9,-98.9758 1301.95,-97.8216 1305.96,-96.6198"/>
<polygon fill="midnightblue" stroke="midnightblue" points="1307.26,-99.8835 1315.77,-93.5812 1305.19,-93.1969 1307.26,-99.8835"/>
</g>
<!-- Node27 -->
<g id="node27" class="node"><title>Node27</title>
<g id="a_node27"><a xlink:href="../../d2/dd0/Cartesian2D_8h.html" target="_top" xlink:title="MathUtils/Cartesian2D.h">
<polygon fill="none" stroke="black" points="200.5,-74.5 200.5,-93.5 325.5,-93.5 325.5,-74.5 200.5,-74.5"/>
<text text-anchor="middle" x="263" y="-81.5" font-family="Helvetica,sans-Serif" font-size="10.00">MathUtils/Cartesian2D.h</text>
</a>
</g>
</g>
<!-- Node20&#45;&gt;Node27 -->
<g id="edge29" class="edge"><title>Node20&#45;&gt;Node27</title>
<path fill="none" stroke="midnightblue" d="M991.475,-142.49C974.3,-140.148 955.412,-137.769 938,-136 704.435,-112.267 644.928,-119.839 411,-100 386.456,-97.9185 359.658,-95.306 335.692,-92.847"/>
<polygon fill="midnightblue" stroke="midnightblue" points="335.916,-89.3516 325.609,-91.8045 335.196,-96.3145 335.916,-89.3516"/>
</g>
<!-- Node28 -->
<g id="node28" class="node"><title>Node28</title>
<polygon fill="none" stroke="#bfbfbf" points="194.5,-1 194.5,-31 345.5,-31 345.5,-1 194.5,-1"/>
<text text-anchor="start" x="202.5" y="-19" font-family="Helvetica,sans-Serif" font-size="10.00">Math/GenVector/Displacement</text>
<text text-anchor="middle" x="270" y="-8" font-family="Helvetica,sans-Serif" font-size="10.00">Vector2D.h</text>
</g>
<!-- Node27&#45;&gt;Node28 -->
<g id="edge30" class="edge"><title>Node27&#45;&gt;Node28</title>
<path fill="none" stroke="midnightblue" d="M263.915,-74.3717C264.806,-65.9715 266.202,-52.811 267.432,-41.2126"/>
<polygon fill="midnightblue" stroke="midnightblue" points="270.922,-41.4949 268.496,-31.1815 263.961,-40.7565 270.922,-41.4949"/>
</g>
<!-- Node29 -->
<g id="node29" class="node"><title>Node29</title>
<polygon fill="none" stroke="#bfbfbf" points="0,-6.5 0,-25.5 176,-25.5 176,-6.5 0,-6.5"/>
<text text-anchor="middle" x="88" y="-13.5" font-family="Helvetica,sans-Serif" font-size="10.00">Math/GenVector/PositionVector2D.h</text>
</g>
<!-- Node27&#45;&gt;Node29 -->
<g id="edge31" class="edge"><title>Node27&#45;&gt;Node29</title>
<path fill="none" stroke="midnightblue" d="M240.122,-74.3717C209.512,-62.8274 155.064,-42.2926 120.288,-29.1772"/>
<polygon fill="midnightblue" stroke="midnightblue" points="121.198,-25.7799 110.606,-25.5259 118.728,-32.3296 121.198,-25.7799"/>
</g>
<!-- Node30&#45;&gt;Node13 -->
<g id="edge33" class="edge"><title>Node30&#45;&gt;Node13</title>
<path fill="none" stroke="midnightblue" d="M1827.71,-74.3717C1833.17,-64.3478 1842.34,-47.5455 1849.34,-34.7076"/>
<polygon fill="midnightblue" stroke="midnightblue" points="1852.46,-36.2961 1854.18,-25.8411 1846.32,-32.9441 1852.46,-36.2961"/>
</g>
<!-- Node30&#45;&gt;Node15 -->
<g id="edge34" class="edge"><title>Node30&#45;&gt;Node15</title>
<path fill="none" stroke="midnightblue" d="M1777.73,-74.5647C1762.61,-72.0492 1745.62,-69.5519 1730,-68 1210.95,-16.4424 573.869,-16.0845 424.43,-16.7824"/>
<polygon fill="midnightblue" stroke="midnightblue" points="424.118,-13.2838 414.137,-16.836 424.155,-20.2838 424.118,-13.2838"/>
</g>
<!-- Node30&#45;&gt;Node19 -->
<g id="edge35" class="edge"><title>Node30&#45;&gt;Node19</title>
<path fill="none" stroke="midnightblue" d="M1858.93,-74.4393C1908.95,-62.5201 1999.59,-40.9237 2054.35,-27.8777"/>
<polygon fill="midnightblue" stroke="midnightblue" points="2055.22,-31.2681 2064.13,-25.5455 2053.6,-24.4587 2055.22,-31.2681"/>
</g>
<!-- Node31&#45;&gt;Node4 -->
<g id="edge41" class="edge"><title>Node31&#45;&gt;Node4</title>
<path fill="none" stroke="midnightblue" d="M1351.77,-272.883C1341.1,-256.352 1326.97,-228.156 1335,-204 1349.15,-161.454 1385.11,-121.83 1406.74,-100.769"/>
<polygon fill="midnightblue" stroke="midnightblue" points="1409.41,-103.061 1414.25,-93.6394 1404.59,-97.9835 1409.41,-103.061"/>
</g>
<!-- Node31&#45;&gt;Node20 -->
<g id="edge56" class="edge"><title>Node31&#45;&gt;Node20</title>
<path fill="none" stroke="midnightblue" d="M1291.94,-274.022C1255.21,-265.786 1210.07,-253.362 1172,-236 1131.68,-217.61 1090.01,-186.457 1067.01,-167.998"/>
<polygon fill="midnightblue" stroke="midnightblue" points="1069.11,-165.198 1059.15,-161.598 1064.69,-170.626 1069.11,-165.198"/>
</g>
<!-- Node32 -->
<g id="node32" class="node"><title>Node32</title>
<polygon fill="none" stroke="#bfbfbf" points="1228.5,-210.5 1228.5,-229.5 1287.5,-229.5 1287.5,-210.5 1228.5,-210.5"/>
<text text-anchor="middle" x="1258" y="-217.5" font-family="Helvetica,sans-Serif" font-size="10.00">TObject.h</text>
</g>
<!-- Node31&#45;&gt;Node32 -->
<g id="edge37" class="edge"><title>Node31&#45;&gt;Node32</title>
<path fill="none" stroke="midnightblue" d="M1339.69,-272.841C1322.1,-261.681 1297.71,-246.198 1280.16,-235.063"/>
<polygon fill="midnightblue" stroke="midnightblue" points="1282,-232.085 1271.68,-229.682 1278.25,-237.995 1282,-232.085"/>
</g>
<!-- Node33 -->
<g id="node33" class="node"><title>Node33</title>
<polygon fill="none" stroke="#bfbfbf" points="1533.5,-74.5 1533.5,-93.5 1574.5,-93.5 1574.5,-74.5 1533.5,-74.5"/>
<text text-anchor="middle" x="1554" y="-81.5" font-family="Helvetica,sans-Serif" font-size="10.00">bitset</text>
</g>
<!-- Node31&#45;&gt;Node33 -->
<g id="edge38" class="edge"><title>Node31&#45;&gt;Node33</title>
<path fill="none" stroke="midnightblue" d="M1373.59,-272.794C1381.86,-262.608 1393.2,-248.53 1403,-236 1437.38,-192.02 1438.5,-174.42 1479,-136 1494.23,-121.551 1513.94,-108.319 1529.33,-98.9556"/>
<polygon fill="midnightblue" stroke="midnightblue" points="1531.46,-101.761 1538.28,-93.649 1527.89,-95.7401 1531.46,-101.761"/>
</g>
<!-- Node34 -->
<g id="node34" class="node"><title>Node34</title>
<polygon fill="none" stroke="#bfbfbf" points="1344,-210.5 1344,-229.5 1394,-229.5 1394,-210.5 1344,-210.5"/>
<text text-anchor="middle" x="1369" y="-217.5" font-family="Helvetica,sans-Serif" font-size="10.00">iomanip</text>
</g>
<!-- Node31&#45;&gt;Node34 -->
<g id="edge39" class="edge"><title>Node31&#45;&gt;Node34</title>
<path fill="none" stroke="midnightblue" d="M1363.52,-272.679C1364.53,-263.101 1365.88,-250.394 1366.99,-239.977"/>
<polygon fill="midnightblue" stroke="midnightblue" points="1370.49,-240.142 1368.06,-229.828 1363.53,-239.403 1370.49,-240.142"/>
</g>
<!-- Node35 -->
<g id="node35" class="node"><title>Node35</title>
<polygon fill="none" stroke="#bfbfbf" points="1181.5,-210.5 1181.5,-229.5 1210.5,-229.5 1210.5,-210.5 1181.5,-210.5"/>
<text text-anchor="middle" x="1196" y="-217.5" font-family="Helvetica,sans-Serif" font-size="10.00">ios</text>
</g>
<!-- Node31&#45;&gt;Node35 -->
<g id="edge40" class="edge"><title>Node31&#45;&gt;Node35</title>
<path fill="none" stroke="midnightblue" d="M1313.83,-272.949C1285.54,-263.934 1249.46,-251.102 1219,-236 1218.33,-235.667 1217.65,-235.317 1216.97,-234.955"/>
<polygon fill="midnightblue" stroke="midnightblue" points="1218.72,-231.922 1208.34,-229.806 1215.13,-237.934 1218.72,-231.922"/>
</g>
<!-- Node36 -->
<g id="node36" class="node"><title>Node36</title>
<g id="a_node36"><a xlink:href="../../d4/d20/DetMatrixCache_8h.html" target="_top" xlink:title="DetectorsCommonDataFormats\l/DetMatrixCache.h">
<polygon fill="none" stroke="black" points="1488,-205 1488,-235 1644,-235 1644,-205 1488,-205"/>
<text text-anchor="start" x="1496" y="-223" font-family="Helvetica,sans-Serif" font-size="10.00">DetectorsCommonDataFormats</text>
<text text-anchor="middle" x="1566" y="-212" font-family="Helvetica,sans-Serif" font-size="10.00">/DetMatrixCache.h</text>
</a>
</g>
</g>
<!-- Node31&#45;&gt;Node36 -->
<g id="edge42" class="edge"><title>Node31&#45;&gt;Node36</title>
<path fill="none" stroke="midnightblue" d="M1405.51,-272.922C1436.93,-262.757 1479.53,-248.975 1512.95,-238.164"/>
<polygon fill="midnightblue" stroke="midnightblue" points="1514.12,-241.464 1522.55,-235.056 1511.96,-234.804 1514.12,-241.464"/>
</g>
<!-- Node36&#45;&gt;Node2 -->
<g id="edge45" class="edge"><title>Node36&#45;&gt;Node2</title>
<path fill="none" stroke="midnightblue" d="M1487.66,-211.672C1460.82,-209.192 1430.6,-206.436 1403,-204 1213.73,-187.294 1164.9,-196.241 977,-168 964.934,-166.186 951.82,-163.516 940.297,-160.928"/>
<polygon fill="midnightblue" stroke="midnightblue" points="940.77,-157.445 930.238,-158.603 939.193,-164.265 940.77,-157.445"/>
</g>
<!-- Node36&#45;&gt;Node11 -->
<g id="edge55" class="edge"><title>Node36&#45;&gt;Node11</title>
<path fill="none" stroke="midnightblue" d="M1644.25,-210.75C1694.24,-203.598 1759.64,-190.688 1814,-168 1837.66,-158.124 1840.17,-149.44 1862,-136 1883.75,-122.612 1909.11,-108.36 1927.35,-98.3355"/>
<polygon fill="midnightblue" stroke="midnightblue" points="1929.09,-101.373 1936.19,-93.5057 1925.74,-95.2307 1929.09,-101.373"/>
</g>
<!-- Node36&#45;&gt;Node13 -->
<g id="edge44" class="edge"><title>Node36&#45;&gt;Node13</title>
<path fill="none" stroke="midnightblue" d="M1625.12,-204.957C1659.97,-195.945 1704.61,-183.113 1743,-168 1750.77,-164.942 1872.63,-107.114 1877,-100 1889.43,-79.7498 1879.08,-52.1031 1869.7,-34.3973"/>
<polygon fill="midnightblue" stroke="midnightblue" points="1872.73,-32.6498 1864.74,-25.6936 1866.65,-36.115 1872.73,-32.6498"/>
</g>
<!-- Node36&#45;&gt;Node20 -->
<g id="edge54" class="edge"><title>Node36&#45;&gt;Node20</title>
<path fill="none" stroke="midnightblue" d="M1487.76,-209.012C1388.38,-196.326 1218.23,-174.604 1121.62,-162.27"/>
<polygon fill="midnightblue" stroke="midnightblue" points="1122.01,-158.792 1111.64,-160.997 1121.12,-165.735 1122.01,-158.792"/>
</g>
<!-- Node37 -->
<g id="node37" class="node"><title>Node37</title>
<polygon fill="none" stroke="#bfbfbf" points="1488.5,-142.5 1488.5,-161.5 1559.5,-161.5 1559.5,-142.5 1488.5,-142.5"/>
<text text-anchor="middle" x="1524" y="-149.5" font-family="Helvetica,sans-Serif" font-size="10.00">FairLogger.h</text>
</g>
<!-- Node36&#45;&gt;Node37 -->
<g id="edge43" class="edge"><title>Node36&#45;&gt;Node37</title>
<path fill="none" stroke="midnightblue" d="M1556.89,-204.679C1550.47,-194.592 1541.84,-181.033 1535.03,-170.335"/>
<polygon fill="midnightblue" stroke="midnightblue" points="1537.94,-168.386 1529.62,-161.828 1532.03,-172.144 1537.94,-168.386"/>
</g>
<!-- Node38 -->
<g id="node38" class="node"><title>Node38</title>
<g id="a_node38"><a xlink:href="../../d6/d31/DetID_8h.html" target="_top" xlink:title="DetectorsCommonDataFormats\l/DetID.h">
<polygon fill="none" stroke="black" points="1578,-137 1578,-167 1734,-167 1734,-137 1578,-137"/>
<text text-anchor="start" x="1586" y="-155" font-family="Helvetica,sans-Serif" font-size="10.00">DetectorsCommonDataFormats</text>
<text text-anchor="middle" x="1656" y="-144" font-family="Helvetica,sans-Serif" font-size="10.00">/DetID.h</text>
</a>
</g>
</g>
<!-- Node36&#45;&gt;Node38 -->
<g id="edge46" class="edge"><title>Node36&#45;&gt;Node38</title>
<path fill="none" stroke="midnightblue" d="M1585.53,-204.679C1598.12,-195.449 1614.67,-183.311 1628.57,-173.118"/>
<polygon fill="midnightblue" stroke="midnightblue" points="1630.82,-175.802 1636.82,-167.066 1626.68,-170.158 1630.82,-175.802"/>
</g>
<!-- Node38&#45;&gt;Node11 -->
<g id="edge47" class="edge"><title>Node38&#45;&gt;Node11</title>
<path fill="none" stroke="midnightblue" d="M1719.14,-136.922C1778.26,-123.739 1864.68,-104.47 1913.91,-93.492"/>
<polygon fill="midnightblue" stroke="midnightblue" points="1914.83,-96.8729 1923.83,-91.2804 1913.31,-90.0406 1914.83,-96.8729"/>
</g>
<!-- Node38&#45;&gt;Node13 -->
<g id="edge48" class="edge"><title>Node38&#45;&gt;Node13</title>
<path fill="none" stroke="midnightblue" d="M1677.38,-136.953C1692.35,-126.958 1712.67,-113.044 1730,-100 1747.91,-86.5153 1750.51,-80.6848 1769,-68 1789.68,-53.8104 1814.58,-39.9247 1832.94,-30.2342"/>
<polygon fill="midnightblue" stroke="midnightblue" points="1834.64,-33.2956 1841.89,-25.5697 1831.41,-27.0881 1834.64,-33.2956"/>
</g>
<!-- Node38&#45;&gt;Node30 -->
<g id="edge53" class="edge"><title>Node38&#45;&gt;Node30</title>
<path fill="none" stroke="midnightblue" d="M1691.83,-136.841C1721.49,-125.118 1763.22,-108.624 1791.6,-97.4113"/>
<polygon fill="midnightblue" stroke="midnightblue" points="1793.02,-100.612 1801.03,-93.6819 1790.45,-94.1024 1793.02,-100.612"/>
</g>
<!-- Node38&#45;&gt;Node33 -->
<g id="edge49" class="edge"><title>Node38&#45;&gt;Node33</title>
<path fill="none" stroke="midnightblue" d="M1634.12,-136.841C1617.03,-125.784 1593.38,-110.481 1576.21,-99.3701"/>
<polygon fill="midnightblue" stroke="midnightblue" points="1577.71,-96.1759 1567.42,-93.6819 1573.91,-102.053 1577.71,-96.1759"/>
</g>
<!-- Node39 -->
<g id="node39" class="node"><title>Node39</title>
<polygon fill="none" stroke="#bfbfbf" points="1592.5,-74.5 1592.5,-93.5 1641.5,-93.5 1641.5,-74.5 1592.5,-74.5"/>
<text text-anchor="middle" x="1617" y="-81.5" font-family="Helvetica,sans-Serif" font-size="10.00">cassert</text>
</g>
<!-- Node38&#45;&gt;Node39 -->
<g id="edge50" class="edge"><title>Node38&#45;&gt;Node39</title>
<path fill="none" stroke="midnightblue" d="M1647.54,-136.679C1641.64,-126.694 1633.73,-113.307 1627.44,-102.66"/>
<polygon fill="midnightblue" stroke="midnightblue" points="1630.32,-100.657 1622.22,-93.8283 1624.29,-104.218 1630.32,-100.657"/>
</g>
<!-- Node40 -->
<g id="node40" class="node"><title>Node40</title>
<polygon fill="none" stroke="#bfbfbf" points="1469,-74.5 1469,-93.5 1515,-93.5 1515,-74.5 1469,-74.5"/>
<text text-anchor="middle" x="1492" y="-81.5" font-family="Helvetica,sans-Serif" font-size="10.00">cstdint</text>
</g>
<!-- Node38&#45;&gt;Node40 -->
<g id="edge51" class="edge"><title>Node38&#45;&gt;Node40</title>
<path fill="none" stroke="midnightblue" d="M1617.59,-136.967C1591.1,-127.092 1555.18,-113.312 1524,-100 1522.41,-99.3209 1520.78,-98.6095 1519.14,-97.8812"/>
<polygon fill="midnightblue" stroke="midnightblue" points="1520.39,-94.6035 1509.84,-93.631 1517.48,-100.97 1520.39,-94.6035"/>
</g>
<!-- Node41 -->
<g id="node41" class="node"><title>Node41</title>
<polygon fill="none" stroke="#bfbfbf" points="1660,-74.5 1660,-93.5 1722,-93.5 1722,-74.5 1660,-74.5"/>
<text text-anchor="middle" x="1691" y="-81.5" font-family="Helvetica,sans-Serif" font-size="10.00">type_traits</text>
</g>
<!-- Node38&#45;&gt;Node41 -->
<g id="edge52" class="edge"><title>Node38&#45;&gt;Node41</title>
<path fill="none" stroke="midnightblue" d="M1663.59,-136.679C1668.84,-126.796 1675.84,-113.579 1681.46,-102.986"/>
<polygon fill="midnightblue" stroke="midnightblue" points="1684.73,-104.303 1686.32,-93.8283 1678.54,-101.023 1684.73,-104.303"/>
</g>
<!-- Node42&#45;&gt;Node11 -->
<g id="edge58" class="edge"><title>Node42&#45;&gt;Node11</title>
<path fill="none" stroke="midnightblue" d="M2176.64,-346.098C2171.21,-313.412 2148.09,-198.659 2083,-136 2057.55,-111.503 2019.01,-98.4044 1990.31,-91.6455"/>
<polygon fill="midnightblue" stroke="midnightblue" points="1990.74,-88.1572 1980.23,-89.4329 1989.24,-94.9946 1990.74,-88.1572"/>
</g>
<!-- Node43 -->
<g id="node43" class="node"><title>Node43</title>
<g id="a_node43"><a xlink:href="../../df/d5d/common_2include_2CommonDataFormat_2TimeStamp_8h.html" target="_top" xlink:title="CommonDataFormat/TimeStamp.h">
<polygon fill="none" stroke="black" points="1904,-142.5 1904,-161.5 2074,-161.5 2074,-142.5 1904,-142.5"/>
<text text-anchor="middle" x="1989" y="-149.5" font-family="Helvetica,sans-Serif" font-size="10.00">CommonDataFormat/TimeStamp.h</text>
</a>
</g>
</g>
<!-- Node42&#45;&gt;Node43 -->
<g id="edge59" class="edge"><title>Node42&#45;&gt;Node43</title>
<path fill="none" stroke="midnightblue" d="M2169.88,-346.32C2140.93,-315.376 2042.46,-210.136 2004.29,-169.343"/>
<polygon fill="midnightblue" stroke="midnightblue" points="2006.69,-166.786 1997.3,-161.875 2001.58,-171.568 2006.69,-166.786"/>
</g>
<!-- Node44 -->
<g id="node44" class="node"><title>Node44</title>
<polygon fill="none" stroke="#bfbfbf" points="2244.5,-273 2244.5,-303 2339.5,-303 2339.5,-273 2244.5,-273"/>
<text text-anchor="start" x="2252.5" y="-291" font-family="Helvetica,sans-Serif" font-size="10.00">boost/serialization</text>
<text text-anchor="middle" x="2292" y="-280" font-family="Helvetica,sans-Serif" font-size="10.00">/base_object.hpp</text>
</g>
<!-- Node42&#45;&gt;Node44 -->
<g id="edge61" class="edge"><title>Node42&#45;&gt;Node44</title>
<path fill="none" stroke="midnightblue" d="M2192.9,-346.372C2209.49,-336.771 2236.81,-320.954 2258.57,-308.356"/>
<polygon fill="midnightblue" stroke="midnightblue" points="2260.6,-311.221 2267.5,-303.181 2257.1,-305.163 2260.6,-311.221"/>
</g>
<!-- Node43&#45;&gt;Node11 -->
<g id="edge60" class="edge"><title>Node43&#45;&gt;Node11</title>
<path fill="none" stroke="midnightblue" d="M1984.16,-142.372C1978.54,-132.348 1969.12,-115.546 1961.93,-102.708"/>
<polygon fill="midnightblue" stroke="midnightblue" points="1964.9,-100.852 1956.96,-93.8411 1958.79,-104.275 1964.9,-100.852"/>
</g>
<!-- Node45&#45;&gt;Node10 -->
<g id="edge63" class="edge"><title>Node45&#45;&gt;Node10</title>
<path fill="none" stroke="midnightblue" d="M1365.73,-408.467C1439.14,-397.98 1563.99,-380.144 1645.73,-368.467"/>
<polygon fill="midnightblue" stroke="midnightblue" points="1646.57,-371.882 1655.98,-367.003 1645.58,-364.953 1646.57,-371.882"/>
</g>
<!-- Node45&#45;&gt;Node42 -->
<g id="edge72" class="edge"><title>Node45&#45;&gt;Node42</title>
<path fill="none" stroke="midnightblue" d="M1381.21,-411.64C1398.24,-410.435 1416.24,-409.167 1433,-408 1675.8,-391.087 1963.14,-371.553 2099.12,-362.337"/>
<polygon fill="midnightblue" stroke="midnightblue" points="2099.7,-365.807 2109.44,-361.638 2099.22,-358.823 2099.7,-365.807"/>
</g>
<!-- Node46 -->
<g id="node46" class="node"><title>Node46</title>
<g id="a_node46"><a xlink:href="../../de/dcd/ClusterNative_8h.html" target="_top" xlink:title="Class of a TPC cluster in TPC&#45;native coordinates (row, time) ">
<polygon fill="none" stroke="black" points="845.5,-210.5 845.5,-229.5 1010.5,-229.5 1010.5,-210.5 845.5,-210.5"/>
<text text-anchor="middle" x="928" y="-217.5" font-family="Helvetica,sans-Serif" font-size="10.00">DataFormatsTPC/ClusterNative.h</text>
</a>
</g>
</g>
<!-- Node45&#45;&gt;Node46 -->
<g id="edge64" class="edge"><title>Node45&#45;&gt;Node46</title>
<path fill="none" stroke="midnightblue" d="M1275.79,-408.419C1222.64,-392.562 1109.98,-355.525 1025,-304 993.445,-284.867 961.904,-255.512 943.707,-237.325"/>
<polygon fill="midnightblue" stroke="midnightblue" points="945.842,-234.505 936.333,-229.832 940.853,-239.415 945.842,-234.505"/>
</g>
<!-- Node48 -->
<g id="node48" class="node"><title>Node48</title>
<g id="a_node48"><a xlink:href="../../d1/d73/Defs_8h.html" target="_top" xlink:title="Common definitions for 2D coordinates. ">
<polygon fill="none" stroke="black" points="701,-210.5 701,-229.5 827,-229.5 827,-210.5 701,-210.5"/>
<text text-anchor="middle" x="764" y="-217.5" font-family="Helvetica,sans-Serif" font-size="10.00">DataFormatsTPC/Defs.h</text>
</a>
</g>
</g>
<!-- Node45&#45;&gt;Node48 -->
<g id="edge68" class="edge"><title>Node45&#45;&gt;Node48</title>
<path fill="none" stroke="midnightblue" d="M1246.55,-408.468C1202.39,-401.223 1141.05,-389.232 1089,-372 971.678,-333.159 840.753,-263.682 787.969,-234.497"/>
<polygon fill="midnightblue" stroke="midnightblue" points="789.484,-231.334 779.044,-229.532 786.082,-237.452 789.484,-231.334"/>
</g>
<!-- Node46&#45;&gt;Node2 -->
<g id="edge66" class="edge"><title>Node46&#45;&gt;Node2</title>
<path fill="none" stroke="midnightblue" d="M925.385,-210.372C922.407,-200.544 917.455,-184.202 913.596,-171.467"/>
<polygon fill="midnightblue" stroke="midnightblue" points="916.929,-170.396 910.679,-161.841 910.23,-172.426 916.929,-170.396"/>
</g>
<!-- Node46&#45;&gt;Node40 -->
<g id="edge65" class="edge"><title>Node46&#45;&gt;Node40</title>
<path fill="none" stroke="midnightblue" d="M985.027,-210.447C1083.64,-194.736 1291.62,-157.522 1460,-100 1461.92,-99.3454 1463.87,-98.6104 1465.82,-97.8264"/>
<polygon fill="midnightblue" stroke="midnightblue" points="1467.6,-100.87 1475.35,-93.646 1464.78,-94.4597 1467.6,-100.87"/>
</g>
<!-- Node47 -->
<g id="node47" class="node"><title>Node47</title>
<g id="a_node47"><a xlink:href="../../d0/dda/DataFormats_2Detectors_2TPC_2include_2DataFormatsTPC_2Constants_8h.html" target="_top" xlink:title="DataFormatsTPC/Constants.h">
<polygon fill="none" stroke="black" points="718,-142.5 718,-161.5 868,-161.5 868,-142.5 718,-142.5"/>
<text text-anchor="middle" x="793" y="-149.5" font-family="Helvetica,sans-Serif" font-size="10.00">DataFormatsTPC/Constants.h</text>
</a>
</g>
</g>
<!-- Node46&#45;&gt;Node47 -->
<g id="edge67" class="edge"><title>Node46&#45;&gt;Node47</title>
<path fill="none" stroke="midnightblue" d="M910.351,-210.372C887.308,-199.106 846.753,-179.279 819.878,-166.14"/>
<polygon fill="midnightblue" stroke="midnightblue" points="821.174,-162.878 810.653,-161.63 818.1,-169.167 821.174,-162.878"/>
</g>
<!-- Node48&#45;&gt;Node15 -->
<g id="edge69" class="edge"><title>Node48&#45;&gt;Node15</title>
<path fill="none" stroke="midnightblue" d="M710.808,-210.497C614.602,-193.915 417.929,-154.093 378,-100 363.941,-80.9534 373.282,-52.7752 382.037,-34.6498"/>
<polygon fill="midnightblue" stroke="midnightblue" points="385.165,-36.2209 386.688,-25.7362 378.959,-32.9824 385.165,-36.2209"/>
</g>
<!-- Node48&#45;&gt;Node20 -->
<g id="edge71" class="edge"><title>Node48&#45;&gt;Node20</title>
<path fill="none" stroke="midnightblue" d="M800.967,-210.439C852.436,-198.52 945.693,-176.924 1002.03,-163.878"/>
<polygon fill="midnightblue" stroke="midnightblue" points="1003.15,-167.211 1012.1,-161.546 1001.57,-160.392 1003.15,-167.211"/>
</g>
<!-- Node48&#45;&gt;Node27 -->
<g id="edge70" class="edge"><title>Node48&#45;&gt;Node27</title>
<path fill="none" stroke="midnightblue" d="M700.837,-216.705C598.478,-212.112 401.6,-199.391 340,-168 310.502,-152.968 286.487,-121.785 273.51,-102.212"/>
<polygon fill="midnightblue" stroke="midnightblue" points="276.38,-100.205 268.05,-93.6582 270.48,-103.971 276.38,-100.205"/>
</g>
</g>
</svg>
