<?xml version="1.0" encoding="UTF-8" standalone="no"?>
<!DOCTYPE svg PUBLIC "-//W3C//DTD SVG 1.1//EN"
 "http://www.w3.org/Graphics/SVG/1.1/DTD/svg11.dtd">
<!-- Generated by graphviz version 2.36.0 (20140111.2315)
 -->
<!-- Title: /home/travis/build/AliceO2Group/AliceO2/Detectors/TPC/simulation/src/PadResponse.cxx Pages: 1 -->
<!--zoomable 646 -->
<svg id="main" version="1.1" xmlns="http://www.w3.org/2000/svg" xmlns:xlink="http://www.w3.org/1999/xlink" xml:space="preserve" onload="init(evt)">
<style type="text/css"><![CDATA[
.edge:hover path { stroke: red; }
.edge:hover polygon { stroke: red; fill: red; }
]]></style>
<script type="text/javascript"><![CDATA[
var edges = document.getElementsByTagName('g');
if (edges && edges.length) {
  for (var i=0;i<edges.length;i++) {
    if (edges[i].id.substr(0,4)=='edge') {
      edges[i].setAttribute('class','edge');
    }
  }
}
]]></script>
        <defs>
                <circle id="rim" cx="0" cy="0" r="7"/>
                <circle id="rim2" cx="0" cy="0" r="3.5"/>
                <g id="zoomPlus">
                        <use xlink:href="#rim" fill="#404040">
                                <set attributeName="fill" to="#808080" begin="zoomplus.mouseover" end="zoomplus.mouseout"/>
                        </use>
                        <path d="M-4,0h8M0,-4v8" fill="none" stroke="white" stroke-width="1.5" pointer-events="none"/>
                </g>
                <g id="zoomMin">
                        <use xlink:href="#rim" fill="#404040">
                                <set attributeName="fill" to="#808080" begin="zoomminus.mouseover" end="zoomminus.mouseout"/>
                        </use>
                        <path d="M-4,0h8" fill="none" stroke="white" stroke-width="1.5" pointer-events="none"/>
                </g>
                <g id="dirArrow">
                        <path fill="none" stroke="white" stroke-width="1.5" d="M0,-3.0v7 M-2.5,-0.5L0,-3.0L2.5,-0.5"/>
                </g>
               <g id="resetDef">
                       <use xlink:href="#rim2" fill="#404040">
                               <set attributeName="fill" to="#808080" begin="reset.mouseover" end="reset.mouseout"/>
                       </use>
               </g>
        </defs>

<script type="text/javascript">
var viewWidth = 1487;
var viewHeight = 646;
var sectionId = 'dynsection-0';
</script>
<script xlink:href="../../svgpan.js"/>
<svg id="graph" class="graph">
<g id="viewport">
<title>/home/travis/build/AliceO2Group/AliceO2/Detectors/TPC/simulation/src/PadResponse.cxx</title>
<!-- Node1 -->
<g id="node1" class="node"><title>Node1</title>
<polygon fill="#bfbfbf" stroke="black" points="1154.5,-585 1154.5,-637 1287.5,-637 1287.5,-585 1154.5,-585"/>
<text text-anchor="start" x="1162.5" y="-625" font-family="Helvetica,sans-Serif" font-size="10.00">/home/travis/build</text>
<text text-anchor="start" x="1162.5" y="-614" font-family="Helvetica,sans-Serif" font-size="10.00">/AliceO2Group/AliceO2</text>
<text text-anchor="start" x="1162.5" y="-603" font-family="Helvetica,sans-Serif" font-size="10.00">/Detectors/TPC/simulation</text>
<text text-anchor="middle" x="1221" y="-592" font-family="Helvetica,sans-Serif" font-size="10.00">/src/PadResponse.cxx</text>
</g>
<!-- Node2 -->
<g id="node2" class="node"><title>Node2</title>
<g id="a_node2"><a xlink:href="../../d7/d0f/PadResponse_8h.html" target="_top" xlink:title="Definition of the Pad Response. ">
<polygon fill="none" stroke="black" points="856.5,-528.5 856.5,-547.5 1011.5,-547.5 1011.5,-528.5 856.5,-528.5"/>
<text text-anchor="middle" x="934" y="-535.5" font-family="Helvetica,sans-Serif" font-size="10.00">TPCSimulation/PadResponse.h</text>
</a>
</g>
</g>
<!-- Node1&#45;&gt;Node2 -->
<g id="edge1" class="edge"><title>Node1&#45;&gt;Node2</title>
<path fill="none" stroke="midnightblue" d="M1154.44,-593.533C1100.29,-580.137 1025.39,-561.608 978.33,-549.967"/>
<polygon fill="midnightblue" stroke="midnightblue" points="978.989,-546.524 968.441,-547.52 977.307,-553.319 978.989,-546.524"/>
</g>
<!-- Node4 -->
<g id="node4" class="node"><title>Node4</title>
<g id="a_node4"><a xlink:href="../../d7/d2c/Mapper_8h.html" target="_top" xlink:title="TPCBase/Mapper.h">
<polygon fill="none" stroke="black" points="882.5,-472.5 882.5,-491.5 985.5,-491.5 985.5,-472.5 882.5,-472.5"/>
<text text-anchor="middle" x="934" y="-479.5" font-family="Helvetica,sans-Serif" font-size="10.00">TPCBase/Mapper.h</text>
</a>
</g>
</g>
<!-- Node1&#45;&gt;Node4 -->
<g id="edge52" class="edge"><title>Node1&#45;&gt;Node4</title>
<path fill="none" stroke="midnightblue" d="M1164.3,-584.909C1103.6,-558.049 1009.71,-516.502 962.772,-495.732"/>
<polygon fill="midnightblue" stroke="midnightblue" points="964.059,-492.474 953.498,-491.628 961.226,-498.875 964.059,-492.474"/>
</g>
<!-- Node8 -->
<g id="node8" class="node"><title>Node8</title>
<polygon fill="none" stroke="#bfbfbf" points="1178.5,-416.5 1178.5,-435.5 1219.5,-435.5 1219.5,-416.5 1178.5,-416.5"/>
<text text-anchor="middle" x="1199" y="-423.5" font-family="Helvetica,sans-Serif" font-size="10.00">string</text>
</g>
<!-- Node1&#45;&gt;Node8 -->
<g id="edge55" class="edge"><title>Node1&#45;&gt;Node8</title>
<path fill="none" stroke="midnightblue" d="M1217.99,-584.938C1213.52,-547.811 1205.25,-479.02 1201.27,-445.851"/>
<polygon fill="midnightblue" stroke="midnightblue" points="1204.72,-445.226 1200.05,-435.715 1197.77,-446.061 1204.72,-445.226"/>
</g>
<!-- Node9 -->
<g id="node9" class="node"><title>Node9</title>
<polygon fill="none" stroke="#bfbfbf" points="331,-136.5 331,-155.5 375,-155.5 375,-136.5 331,-136.5"/>
<text text-anchor="middle" x="353" y="-143.5" font-family="Helvetica,sans-Serif" font-size="10.00">cmath</text>
</g>
<!-- Node1&#45;&gt;Node9 -->
<g id="edge57" class="edge"><title>Node1&#45;&gt;Node9</title>
<path fill="none" stroke="midnightblue" d="M1154.38,-607.671C945.15,-599.48 315,-567.775 315,-483 315,-483 315,-483 315,-257 315,-222.813 331.6,-185.764 342.857,-164.571"/>
<polygon fill="midnightblue" stroke="midnightblue" points="345.947,-166.215 347.716,-155.769 339.819,-162.832 345.947,-166.215"/>
</g>
<!-- Node22 -->
<g id="node22" class="node"><title>Node22</title>
<polygon fill="none" stroke="#bfbfbf" points="1194,-74.5 1194,-93.5 1248,-93.5 1248,-74.5 1194,-74.5"/>
<text text-anchor="middle" x="1221" y="-81.5" font-family="Helvetica,sans-Serif" font-size="10.00">iostream</text>
</g>
<!-- Node1&#45;&gt;Node22 -->
<g id="edge54" class="edge"><title>Node1&#45;&gt;Node22</title>
<path fill="none" stroke="midnightblue" d="M1225.7,-584.986C1233.44,-541.599 1248,-449.503 1248,-371 1248,-371 1248,-371 1248,-201 1248,-165.639 1235.95,-125.756 1227.95,-103.173"/>
<polygon fill="midnightblue" stroke="midnightblue" points="1231.16,-101.749 1224.42,-93.5717 1224.59,-104.165 1231.16,-101.749"/>
</g>
<!-- Node34 -->
<g id="node34" class="node"><title>Node34</title>
<polygon fill="none" stroke="#bfbfbf" points="1269,-528.5 1269,-547.5 1319,-547.5 1319,-528.5 1269,-528.5"/>
<text text-anchor="middle" x="1294" y="-535.5" font-family="Helvetica,sans-Serif" font-size="10.00">fstream</text>
</g>
<!-- Node1&#45;&gt;Node34 -->
<g id="edge53" class="edge"><title>Node1&#45;&gt;Node34</title>
<path fill="none" stroke="midnightblue" d="M1246.94,-584.768C1257.21,-574.78 1268.7,-563.605 1277.76,-554.798"/>
<polygon fill="midnightblue" stroke="midnightblue" points="1280.27,-557.238 1285,-547.757 1275.39,-552.22 1280.27,-557.238"/>
</g>
<!-- Node35 -->
<g id="node35" class="node"><title>Node35</title>
<polygon fill="none" stroke="#bfbfbf" points="1337,-528.5 1337,-547.5 1389,-547.5 1389,-528.5 1337,-528.5"/>
<text text-anchor="middle" x="1363" y="-535.5" font-family="Helvetica,sans-Serif" font-size="10.00">sstream</text>
</g>
<!-- Node1&#45;&gt;Node35 -->
<g id="edge56" class="edge"><title>Node1&#45;&gt;Node35</title>
<path fill="none" stroke="midnightblue" d="M1271.06,-584.968C1293.23,-573.885 1318.39,-561.306 1336.78,-552.112"/>
<polygon fill="midnightblue" stroke="midnightblue" points="1338.34,-555.242 1345.72,-547.639 1335.21,-548.981 1338.34,-555.242"/>
</g>
<!-- Node36 -->
<g id="node36" class="node"><title>Node36</title>
<polygon fill="none" stroke="#bfbfbf" points="1407.5,-528.5 1407.5,-547.5 1478.5,-547.5 1478.5,-528.5 1407.5,-528.5"/>
<text text-anchor="middle" x="1443" y="-535.5" font-family="Helvetica,sans-Serif" font-size="10.00">FairLogger.h</text>
</g>
<!-- Node1&#45;&gt;Node36 -->
<g id="edge58" class="edge"><title>Node1&#45;&gt;Node36</title>
<path fill="none" stroke="midnightblue" d="M1287.61,-588.698C1326.56,-576.24 1374.25,-560.989 1406.44,-550.693"/>
<polygon fill="midnightblue" stroke="midnightblue" points="1407.86,-553.914 1416.31,-547.534 1405.72,-547.247 1407.86,-553.914"/>
</g>
<!-- Node3 -->
<g id="node3" class="node"><title>Node3</title>
<polygon fill="none" stroke="#bfbfbf" points="794,-472.5 794,-491.5 864,-491.5 864,-472.5 794,-472.5"/>
<text text-anchor="middle" x="829" y="-479.5" font-family="Helvetica,sans-Serif" font-size="10.00">TGraph2D.h</text>
</g>
<!-- Node2&#45;&gt;Node3 -->
<g id="edge2" class="edge"><title>Node2&#45;&gt;Node3</title>
<path fill="none" stroke="midnightblue" d="M917.13,-528.324C900.291,-519.664 874.193,-506.242 854.762,-496.249"/>
<polygon fill="midnightblue" stroke="midnightblue" points="856.322,-493.116 845.828,-491.655 853.12,-499.341 856.322,-493.116"/>
</g>
<!-- Node2&#45;&gt;Node4 -->
<g id="edge3" class="edge"><title>Node2&#45;&gt;Node4</title>
<path fill="none" stroke="midnightblue" d="M934,-528.083C934,-521.006 934,-510.861 934,-501.986"/>
<polygon fill="midnightblue" stroke="midnightblue" points="937.5,-501.751 934,-491.751 930.5,-501.751 937.5,-501.751"/>
</g>
<!-- Node5 -->
<g id="node5" class="node"><title>Node5</title>
<polygon fill="none" stroke="#bfbfbf" points="972.5,-416.5 972.5,-435.5 1007.5,-435.5 1007.5,-416.5 972.5,-416.5"/>
<text text-anchor="middle" x="990" y="-423.5" font-family="Helvetica,sans-Serif" font-size="10.00">map</text>
</g>
<!-- Node4&#45;&gt;Node5 -->
<g id="edge4" class="edge"><title>Node4&#45;&gt;Node5</title>
<path fill="none" stroke="midnightblue" d="M942.997,-472.324C951.194,-464.42 963.506,-452.548 973.472,-442.938"/>
<polygon fill="midnightblue" stroke="midnightblue" points="976.07,-445.295 980.839,-435.834 971.211,-440.256 976.07,-445.295"/>
</g>
<!-- Node6 -->
<g id="node6" class="node"><title>Node6</title>
<polygon fill="none" stroke="#bfbfbf" points="433,-360.5 433,-379.5 477,-379.5 477,-360.5 433,-360.5"/>
<text text-anchor="middle" x="455" y="-367.5" font-family="Helvetica,sans-Serif" font-size="10.00">vector</text>
</g>
<!-- Node4&#45;&gt;Node6 -->
<g id="edge5" class="edge"><title>Node4&#45;&gt;Node6</title>
<path fill="none" stroke="midnightblue" d="M882.445,-473.164C879.252,-472.75 876.084,-472.358 873,-472 825.924,-466.539 480.065,-470.896 448,-436 436.63,-423.626 440.753,-403.822 446.252,-389.322"/>
<polygon fill="midnightblue" stroke="midnightblue" points="449.575,-390.454 450.297,-379.883 443.141,-387.696 449.575,-390.454"/>
</g>
<!-- Node7 -->
<g id="node7" class="node"><title>Node7</title>
<polygon fill="none" stroke="#bfbfbf" points="775,-416.5 775,-435.5 813,-435.5 813,-416.5 775,-416.5"/>
<text text-anchor="middle" x="794" y="-423.5" font-family="Helvetica,sans-Serif" font-size="10.00">array</text>
</g>
<!-- Node4&#45;&gt;Node7 -->
<g id="edge6" class="edge"><title>Node4&#45;&gt;Node7</title>
<path fill="none" stroke="midnightblue" d="M911.817,-472.444C887.751,-463.161 849.242,-448.308 822.844,-438.125"/>
<polygon fill="midnightblue" stroke="midnightblue" points="823.964,-434.806 813.374,-434.473 821.445,-441.337 823.964,-434.806"/>
</g>
<!-- Node4&#45;&gt;Node8 -->
<g id="edge7" class="edge"><title>Node4&#45;&gt;Node8</title>
<path fill="none" stroke="midnightblue" d="M982.188,-472.42C1028.84,-463.913 1101.5,-450.138 1164,-436 1165.45,-435.671 1166.94,-435.326 1168.44,-434.97"/>
<polygon fill="midnightblue" stroke="midnightblue" points="1169.45,-438.325 1178.32,-432.531 1167.77,-431.529 1169.45,-438.325"/>
</g>
<!-- Node4&#45;&gt;Node9 -->
<g id="edge8" class="edge"><title>Node4&#45;&gt;Node9</title>
<path fill="none" stroke="midnightblue" d="M882.448,-473.136C879.254,-472.729 876.085,-472.346 873,-472 769.342,-460.381 497.209,-484.759 405,-436 372.295,-418.706 353,-407.996 353,-371 353,-371 353,-371 353,-257 353,-224.948 353,-187.643 353,-165.749"/>
<polygon fill="midnightblue" stroke="midnightblue" points="356.5,-165.558 353,-155.558 349.5,-165.558 356.5,-165.558"/>
</g>
<!-- Node10 -->
<g id="node10" class="node"><title>Node10</title>
<g id="a_node10"><a xlink:href="../../d1/d73/Defs_8h.html" target="_top" xlink:title="Common definitions for 2D coordinates. ">
<polygon fill="none" stroke="black" points="679,-192.5 679,-211.5 805,-211.5 805,-192.5 679,-192.5"/>
<text text-anchor="middle" x="742" y="-199.5" font-family="Helvetica,sans-Serif" font-size="10.00">DataFormatsTPC/Defs.h</text>
</a>
</g>
</g>
<!-- Node4&#45;&gt;Node10 -->
<g id="edge9" class="edge"><title>Node4&#45;&gt;Node10</title>
<path fill="none" stroke="midnightblue" d="M882.446,-473.156C879.252,-472.744 876.084,-472.354 873,-472 776.417,-460.899 521.433,-484.192 437,-436 406.263,-418.456 391,-406.391 391,-371 391,-371 391,-371 391,-313 391,-255.292 565.943,-224.241 668.815,-210.97"/>
<polygon fill="midnightblue" stroke="midnightblue" points="669.36,-214.429 678.843,-209.703 668.483,-207.484 669.36,-214.429"/>
</g>
<!-- Node23 -->
<g id="node23" class="node"><title>Node23</title>
<g id="a_node23"><a xlink:href="../../de/d41/PadPos_8h.html" target="_top" xlink:title="TPCBase/PadPos.h">
<polygon fill="none" stroke="black" points="549.5,-304.5 549.5,-323.5 654.5,-323.5 654.5,-304.5 549.5,-304.5"/>
<text text-anchor="middle" x="602" y="-311.5" font-family="Helvetica,sans-Serif" font-size="10.00">TPCBase/PadPos.h</text>
</a>
</g>
</g>
<!-- Node4&#45;&gt;Node23 -->
<g id="edge24" class="edge"><title>Node4&#45;&gt;Node23</title>
<path fill="none" stroke="midnightblue" d="M882.362,-473.27C798.328,-460.667 641.148,-436.985 640,-436 609.881,-410.154 603.337,-360.718 602.101,-333.724"/>
<polygon fill="midnightblue" stroke="midnightblue" points="605.598,-333.571 601.843,-323.664 598.601,-333.75 605.598,-333.571"/>
</g>
<!-- Node24 -->
<g id="node24" class="node"><title>Node24</title>
<g id="a_node24"><a xlink:href="../../dd/d0b/PadSecPos_8h.html" target="_top" xlink:title="TPCBase/PadSecPos.h">
<polygon fill="none" stroke="black" points="704,-360.5 704,-379.5 826,-379.5 826,-360.5 704,-360.5"/>
<text text-anchor="middle" x="765" y="-367.5" font-family="Helvetica,sans-Serif" font-size="10.00">TPCBase/PadSecPos.h</text>
</a>
</g>
</g>
<!-- Node4&#45;&gt;Node24 -->
<g id="edge25" class="edge"><title>Node4&#45;&gt;Node24</title>
<path fill="none" stroke="midnightblue" d="M960.898,-472.436C991.886,-461.191 1036.11,-440.034 1016,-416 1010.08,-408.926 905.489,-391.991 833.208,-381.032"/>
<polygon fill="midnightblue" stroke="midnightblue" points="833.647,-377.558 823.237,-379.527 832.602,-384.48 833.647,-377.558"/>
</g>
<!-- Node25 -->
<g id="node25" class="node"><title>Node25</title>
<g id="a_node25"><a xlink:href="../../d3/dd6/Sector_8h.html" target="_top" xlink:title="TPCBase/Sector.h">
<polygon fill="none" stroke="black" points="907.5,-248.5 907.5,-267.5 1006.5,-267.5 1006.5,-248.5 907.5,-248.5"/>
<text text-anchor="middle" x="957" y="-255.5" font-family="Helvetica,sans-Serif" font-size="10.00">TPCBase/Sector.h</text>
</a>
</g>
</g>
<!-- Node4&#45;&gt;Node25 -->
<g id="edge51" class="edge"><title>Node4&#45;&gt;Node25</title>
<path fill="none" stroke="midnightblue" d="M985.79,-473.677C1012.75,-467.544 1044.65,-456.35 1067,-436 1087.15,-417.65 1086.32,-406.658 1092,-380 1103.53,-325.911 1035.63,-289.069 991.909,-271.279"/>
<polygon fill="midnightblue" stroke="midnightblue" points="993.036,-267.962 982.448,-267.571 990.481,-274.479 993.036,-267.962"/>
</g>
<!-- Node27 -->
<g id="node27" class="node"><title>Node27</title>
<g id="a_node27"><a xlink:href="../../da/d61/PadROCPos_8h.html" target="_top" xlink:title="TPCBase/PadROCPos.h">
<polygon fill="none" stroke="black" points="844,-360.5 844,-379.5 972,-379.5 972,-360.5 844,-360.5"/>
<text text-anchor="middle" x="908" y="-367.5" font-family="Helvetica,sans-Serif" font-size="10.00">TPCBase/PadROCPos.h</text>
</a>
</g>
</g>
<!-- Node4&#45;&gt;Node27 -->
<g id="edge30" class="edge"><title>Node4&#45;&gt;Node27</title>
<path fill="none" stroke="midnightblue" d="M982.232,-472.476C1022.93,-463.066 1071.41,-445.244 1050,-416 1039.5,-401.661 999.35,-389.749 964.41,-381.79"/>
<polygon fill="midnightblue" stroke="midnightblue" points="964.767,-378.285 954.248,-379.55 963.26,-385.12 964.767,-378.285"/>
</g>
<!-- Node29 -->
<g id="node29" class="node"><title>Node29</title>
<g id="a_node29"><a xlink:href="../../d3/d54/DigitPos_8h.html" target="_top" xlink:title="TPCBase/DigitPos.h">
<polygon fill="none" stroke="black" points="649,-416.5 649,-435.5 757,-435.5 757,-416.5 649,-416.5"/>
<text text-anchor="middle" x="703" y="-423.5" font-family="Helvetica,sans-Serif" font-size="10.00">TPCBase/DigitPos.h</text>
</a>
</g>
</g>
<!-- Node4&#45;&gt;Node29 -->
<g id="edge36" class="edge"><title>Node4&#45;&gt;Node29</title>
<path fill="none" stroke="midnightblue" d="M897.397,-472.444C857.269,-463.063 792.802,-447.993 749.215,-437.804"/>
<polygon fill="midnightblue" stroke="midnightblue" points="749.966,-434.385 739.431,-435.516 748.372,-441.201 749.966,-434.385"/>
</g>
<!-- Node31 -->
<g id="node31" class="node"><title>Node31</title>
<g id="a_node31"><a xlink:href="../../d1/d1f/FECInfo_8h.html" target="_top" xlink:title="TPCBase/FECInfo.h">
<polygon fill="none" stroke="black" points="1104.5,-248.5 1104.5,-267.5 1211.5,-267.5 1211.5,-248.5 1104.5,-248.5"/>
<text text-anchor="middle" x="1158" y="-255.5" font-family="Helvetica,sans-Serif" font-size="10.00">TPCBase/FECInfo.h</text>
</a>
</g>
</g>
<!-- Node4&#45;&gt;Node31 -->
<g id="edge44" class="edge"><title>Node4&#45;&gt;Node31</title>
<path fill="none" stroke="midnightblue" d="M985.707,-477.56C1018.89,-472.812 1060.88,-461.719 1089,-436 1136,-393.017 1151.35,-314.17 1156.06,-278.02"/>
<polygon fill="midnightblue" stroke="midnightblue" points="1159.56,-278.221 1157.24,-267.883 1152.61,-277.411 1159.56,-278.221"/>
</g>
<!-- Node32 -->
<g id="node32" class="node"><title>Node32</title>
<g id="a_node32"><a xlink:href="../../da/d9d/PadRegionInfo_8h.html" target="_top" xlink:title="TPCBase/PadRegionInfo.h">
<polygon fill="none" stroke="black" points="457.5,-416.5 457.5,-435.5 592.5,-435.5 592.5,-416.5 457.5,-416.5"/>
<text text-anchor="middle" x="525" y="-423.5" font-family="Helvetica,sans-Serif" font-size="10.00">TPCBase/PadRegionInfo.h</text>
</a>
</g>
</g>
<!-- Node4&#45;&gt;Node32 -->
<g id="edge46" class="edge"><title>Node4&#45;&gt;Node32</title>
<path fill="none" stroke="midnightblue" d="M882.425,-473.324C879.236,-472.87 876.075,-472.426 873,-472 780.256,-459.163 673.442,-445.52 602.879,-436.666"/>
<polygon fill="midnightblue" stroke="midnightblue" points="603.095,-433.166 592.738,-435.395 602.225,-440.111 603.095,-433.166"/>
</g>
<!-- Node33 -->
<g id="node33" class="node"><title>Node33</title>
<g id="a_node33"><a xlink:href="../../d6/d42/PartitionInfo_8h.html" target="_top" xlink:title="TPCBase/PartitionInfo.h">
<polygon fill="none" stroke="black" points="831.5,-416.5 831.5,-435.5 954.5,-435.5 954.5,-416.5 831.5,-416.5"/>
<text text-anchor="middle" x="893" y="-423.5" font-family="Helvetica,sans-Serif" font-size="10.00">TPCBase/PartitionInfo.h</text>
</a>
</g>
</g>
<!-- Node4&#45;&gt;Node33 -->
<g id="edge50" class="edge"><title>Node4&#45;&gt;Node33</title>
<path fill="none" stroke="midnightblue" d="M927.23,-472.083C921.438,-464.455 912.942,-453.264 905.862,-443.941"/>
<polygon fill="midnightblue" stroke="midnightblue" points="908.479,-441.599 899.644,-435.751 902.904,-445.832 908.479,-441.599"/>
</g>
<!-- Node10&#45;&gt;Node9 -->
<g id="edge10" class="edge"><title>Node10&#45;&gt;Node9</title>
<path fill="none" stroke="midnightblue" d="M680.362,-192.444C596.549,-180.809 449.688,-160.422 385.064,-151.451"/>
<polygon fill="midnightblue" stroke="midnightblue" points="385.447,-147.971 375.061,-150.062 384.485,-154.904 385.447,-147.971"/>
</g>
<!-- Node11 -->
<g id="node11" class="node"><title>Node11</title>
<g id="a_node11"><a xlink:href="../../d2/dd0/Cartesian2D_8h.html" target="_top" xlink:title="MathUtils/Cartesian2D.h">
<polygon fill="none" stroke="black" points="1050.5,-74.5 1050.5,-93.5 1175.5,-93.5 1175.5,-74.5 1050.5,-74.5"/>
<text text-anchor="middle" x="1113" y="-81.5" font-family="Helvetica,sans-Serif" font-size="10.00">MathUtils/Cartesian2D.h</text>
</a>
</g>
</g>
<!-- Node10&#45;&gt;Node11 -->
<g id="edge11" class="edge"><title>Node10&#45;&gt;Node11</title>
<path fill="none" stroke="midnightblue" d="M769.281,-192.47C834.808,-171.982 1001.16,-119.97 1075.78,-96.6379"/>
<polygon fill="midnightblue" stroke="midnightblue" points="1077.18,-99.8671 1085.68,-93.5423 1075.09,-93.186 1077.18,-99.8671"/>
</g>
<!-- Node14 -->
<g id="node14" class="node"><title>Node14</title>
<g id="a_node14"><a xlink:href="../../dd/d76/Cartesian3D_8h.html" target="_top" xlink:title="MathUtils/Cartesian3D.h">
<polygon fill="none" stroke="black" points="606.5,-136.5 606.5,-155.5 731.5,-155.5 731.5,-136.5 606.5,-136.5"/>
<text text-anchor="middle" x="669" y="-143.5" font-family="Helvetica,sans-Serif" font-size="10.00">MathUtils/Cartesian3D.h</text>
</a>
</g>
</g>
<!-- Node10&#45;&gt;Node14 -->
<g id="edge14" class="edge"><title>Node10&#45;&gt;Node14</title>
<path fill="none" stroke="midnightblue" d="M730.271,-192.324C719.163,-184.107 702.258,-171.602 689.017,-161.807"/>
<polygon fill="midnightblue" stroke="midnightblue" points="691.063,-158.967 680.942,-155.834 686.9,-164.595 691.063,-158.967"/>
</g>
<!-- Node12 -->
<g id="node12" class="node"><title>Node12</title>
<polygon fill="none" stroke="#bfbfbf" points="946.5,-1 946.5,-31 1097.5,-31 1097.5,-1 946.5,-1"/>
<text text-anchor="start" x="954.5" y="-19" font-family="Helvetica,sans-Serif" font-size="10.00">Math/GenVector/Displacement</text>
<text text-anchor="middle" x="1022" y="-8" font-family="Helvetica,sans-Serif" font-size="10.00">Vector2D.h</text>
</g>
<!-- Node11&#45;&gt;Node12 -->
<g id="edge12" class="edge"><title>Node11&#45;&gt;Node12</title>
<path fill="none" stroke="midnightblue" d="M1101.1,-74.3717C1088.22,-65.0286 1067.22,-49.7966 1050.09,-37.375"/>
<polygon fill="midnightblue" stroke="midnightblue" points="1051.7,-34.2194 1041.55,-31.1815 1047.59,-39.8859 1051.7,-34.2194"/>
</g>
<!-- Node13 -->
<g id="node13" class="node"><title>Node13</title>
<polygon fill="none" stroke="#bfbfbf" points="1116,-6.5 1116,-25.5 1292,-25.5 1292,-6.5 1116,-6.5"/>
<text text-anchor="middle" x="1204" y="-13.5" font-family="Helvetica,sans-Serif" font-size="10.00">Math/GenVector/PositionVector2D.h</text>
</g>
<!-- Node11&#45;&gt;Node13 -->
<g id="edge13" class="edge"><title>Node11&#45;&gt;Node13</title>
<path fill="none" stroke="midnightblue" d="M1124.9,-74.3717C1139.88,-63.5015 1165.86,-44.6602 1183.94,-31.5474"/>
<polygon fill="midnightblue" stroke="midnightblue" points="1186.06,-34.3349 1192.1,-25.6305 1181.95,-28.6684 1186.06,-34.3349"/>
</g>
<!-- Node14&#45;&gt;Node11 -->
<g id="edge23" class="edge"><title>Node14&#45;&gt;Node11</title>
<path fill="none" stroke="midnightblue" d="M731.759,-139.053C805.897,-131.647 932.835,-117.776 1041,-100 1048.8,-98.7188 1057.03,-97.1806 1065.03,-95.5846"/>
<polygon fill="midnightblue" stroke="midnightblue" points="1065.9,-98.9793 1075,-93.547 1064.5,-92.1212 1065.9,-98.9793"/>
</g>
<!-- Node15 -->
<g id="node15" class="node"><title>Node15</title>
<polygon fill="none" stroke="#bfbfbf" points="520.5,-69 520.5,-99 671.5,-99 671.5,-69 520.5,-69"/>
<text text-anchor="start" x="528.5" y="-87" font-family="Helvetica,sans-Serif" font-size="10.00">Math/GenVector/Displacement</text>
<text text-anchor="middle" x="596" y="-76" font-family="Helvetica,sans-Serif" font-size="10.00">Vector3D.h</text>
</g>
<!-- Node14&#45;&gt;Node15 -->
<g id="edge15" class="edge"><title>Node14&#45;&gt;Node15</title>
<path fill="none" stroke="midnightblue" d="M658.541,-136.403C648.839,-128.429 634.015,-116.245 621.234,-105.74"/>
<polygon fill="midnightblue" stroke="midnightblue" points="623.152,-102.787 613.205,-99.1408 618.708,-108.194 623.152,-102.787"/>
</g>
<!-- Node16 -->
<g id="node16" class="node"><title>Node16</title>
<polygon fill="none" stroke="#bfbfbf" points="690,-74.5 690,-93.5 866,-93.5 866,-74.5 690,-74.5"/>
<text text-anchor="middle" x="778" y="-81.5" font-family="Helvetica,sans-Serif" font-size="10.00">Math/GenVector/PositionVector3D.h</text>
</g>
<!-- Node14&#45;&gt;Node16 -->
<g id="edge16" class="edge"><title>Node14&#45;&gt;Node16</title>
<path fill="none" stroke="midnightblue" d="M684.617,-136.403C702.586,-126.512 732.321,-110.144 753.406,-98.5378"/>
<polygon fill="midnightblue" stroke="midnightblue" points="755.339,-101.469 762.412,-93.5806 751.964,-95.3367 755.339,-101.469"/>
</g>
<!-- Node17 -->
<g id="node17" class="node"><title>Node17</title>
<polygon fill="none" stroke="#bfbfbf" points="883.5,-74.5 883.5,-93.5 1032.5,-93.5 1032.5,-74.5 883.5,-74.5"/>
<text text-anchor="middle" x="958" y="-81.5" font-family="Helvetica,sans-Serif" font-size="10.00">Math/GenVector/Rotation3D.h</text>
</g>
<!-- Node14&#45;&gt;Node17 -->
<g id="edge17" class="edge"><title>Node14&#45;&gt;Node17</title>
<path fill="none" stroke="midnightblue" d="M710.1,-136.467C761.886,-125.716 850.882,-107.239 906.969,-95.5947"/>
<polygon fill="midnightblue" stroke="midnightblue" points="907.962,-98.9632 917.042,-93.5034 906.539,-92.1093 907.962,-98.9632"/>
</g>
<!-- Node18 -->
<g id="node18" class="node"><title>Node18</title>
<polygon fill="none" stroke="#bfbfbf" points="0,-74.5 0,-93.5 156,-93.5 156,-74.5 0,-74.5"/>
<text text-anchor="middle" x="78" y="-81.5" font-family="Helvetica,sans-Serif" font-size="10.00">Math/GenVector/Transform3D.h</text>
</g>
<!-- Node14&#45;&gt;Node18 -->
<g id="edge18" class="edge"><title>Node14&#45;&gt;Node18</title>
<path fill="none" stroke="midnightblue" d="M606.355,-141.059C510.876,-134.679 323.319,-120.681 165,-100 154.75,-98.661 143.862,-96.9864 133.384,-95.246"/>
<polygon fill="midnightblue" stroke="midnightblue" points="133.942,-91.7908 123.497,-93.566 132.77,-98.6919 133.942,-91.7908"/>
</g>
<!-- Node19 -->
<g id="node19" class="node"><title>Node19</title>
<polygon fill="none" stroke="#bfbfbf" points="174,-74.5 174,-93.5 334,-93.5 334,-74.5 174,-74.5"/>
<text text-anchor="middle" x="254" y="-81.5" font-family="Helvetica,sans-Serif" font-size="10.00">Math/GenVector/Translation3D.h</text>
</g>
<!-- Node14&#45;&gt;Node19 -->
<g id="edge19" class="edge"><title>Node14&#45;&gt;Node19</title>
<path fill="none" stroke="midnightblue" d="M606.423,-136.925C540.734,-128.317 434.489,-114.021 343,-100 333.242,-98.5046 322.897,-96.8368 312.845,-95.172"/>
<polygon fill="midnightblue" stroke="midnightblue" points="313.362,-91.71 302.922,-93.5147 312.209,-98.6144 313.362,-91.71"/>
</g>
<!-- Node20 -->
<g id="node20" class="node"><title>Node20</title>
<polygon fill="none" stroke="#bfbfbf" points="352,-74.5 352,-93.5 408,-93.5 408,-74.5 352,-74.5"/>
<text text-anchor="middle" x="380" y="-81.5" font-family="Helvetica,sans-Serif" font-size="10.00">Rtypes.h</text>
</g>
<!-- Node14&#45;&gt;Node20 -->
<g id="edge20" class="edge"><title>Node14&#45;&gt;Node20</title>
<path fill="none" stroke="midnightblue" d="M606.294,-137.503C554.798,-130.468 480.302,-118.267 417,-100 414.19,-99.1893 411.302,-98.2384 408.437,-97.2155"/>
<polygon fill="midnightblue" stroke="midnightblue" points="409.526,-93.8843 398.936,-93.56 407.012,-100.417 409.526,-93.8843"/>
</g>
<!-- Node21 -->
<g id="node21" class="node"><title>Node21</title>
<polygon fill="none" stroke="#bfbfbf" points="426,-74.5 426,-93.5 502,-93.5 502,-74.5 426,-74.5"/>
<text text-anchor="middle" x="464" y="-81.5" font-family="Helvetica,sans-Serif" font-size="10.00">TGeoMatrix.h</text>
</g>
<!-- Node14&#45;&gt;Node21 -->
<g id="edge21" class="edge"><title>Node14&#45;&gt;Node21</title>
<path fill="none" stroke="midnightblue" d="M638.035,-136.491C606.119,-127.648 554.96,-113.271 511,-100 507.428,-98.9216 503.711,-97.7759 500.001,-96.617"/>
<polygon fill="midnightblue" stroke="midnightblue" points="500.894,-93.2286 490.304,-93.5557 498.786,-99.9039 500.894,-93.2286"/>
</g>
<!-- Node14&#45;&gt;Node22 -->
<g id="edge22" class="edge"><title>Node14&#45;&gt;Node22</title>
<path fill="none" stroke="midnightblue" d="M731.794,-145.484C829.764,-144.911 1024.32,-138.428 1184,-100 1187.07,-99.2616 1190.22,-98.3114 1193.32,-97.248"/>
<polygon fill="midnightblue" stroke="midnightblue" points="1194.82,-100.422 1202.91,-93.5866 1192.32,-93.8816 1194.82,-100.422"/>
</g>
<!-- Node24&#45;&gt;Node23 -->
<g id="edge29" class="edge"><title>Node24&#45;&gt;Node23</title>
<path fill="none" stroke="midnightblue" d="M739.172,-360.444C711.751,-351.359 668.223,-336.939 637.568,-326.783"/>
<polygon fill="midnightblue" stroke="midnightblue" points="638.3,-323.339 627.707,-323.516 636.099,-329.984 638.3,-323.339"/>
</g>
<!-- Node24&#45;&gt;Node25 -->
<g id="edge26" class="edge"><title>Node24&#45;&gt;Node25</title>
<path fill="none" stroke="midnightblue" d="M780.066,-360.368C813.294,-341.332 893.09,-295.615 933.174,-272.65"/>
<polygon fill="midnightblue" stroke="midnightblue" points="935.067,-275.599 942.004,-267.591 931.587,-269.526 935.067,-275.599"/>
</g>
<!-- Node25&#45;&gt;Node10 -->
<g id="edge28" class="edge"><title>Node25&#45;&gt;Node10</title>
<path fill="none" stroke="midnightblue" d="M922.933,-248.444C885.82,-239.122 826.339,-224.183 785.785,-213.997"/>
<polygon fill="midnightblue" stroke="midnightblue" points="786.459,-210.558 775.908,-211.516 784.754,-217.347 786.459,-210.558"/>
</g>
<!-- Node26 -->
<g id="node26" class="node"><title>Node26</title>
<g id="a_node26"><a xlink:href="../../d0/dda/DataFormats_2Detectors_2TPC_2include_2DataFormatsTPC_2Constants_8h.html" target="_top" xlink:title="DataFormatsTPC/Constants.h">
<polygon fill="none" stroke="black" points="882,-192.5 882,-211.5 1032,-211.5 1032,-192.5 882,-192.5"/>
<text text-anchor="middle" x="957" y="-199.5" font-family="Helvetica,sans-Serif" font-size="10.00">DataFormatsTPC/Constants.h</text>
</a>
</g>
</g>
<!-- Node25&#45;&gt;Node26 -->
<g id="edge27" class="edge"><title>Node25&#45;&gt;Node26</title>
<path fill="none" stroke="midnightblue" d="M957,-248.083C957,-241.006 957,-230.861 957,-221.986"/>
<polygon fill="midnightblue" stroke="midnightblue" points="960.5,-221.751 957,-211.751 953.5,-221.751 960.5,-221.751"/>
</g>
<!-- Node27&#45;&gt;Node10 -->
<g id="edge31" class="edge"><title>Node27&#45;&gt;Node10</title>
<path fill="none" stroke="midnightblue" d="M886.715,-360.391C869.334,-352.647 844.817,-340.034 827,-324 792.785,-293.21 764.802,-246.195 751.105,-220.786"/>
<polygon fill="midnightblue" stroke="midnightblue" points="754.032,-218.833 746.278,-211.613 747.837,-222.092 754.032,-218.833"/>
</g>
<!-- Node27&#45;&gt;Node23 -->
<g id="edge35" class="edge"><title>Node27&#45;&gt;Node23</title>
<path fill="none" stroke="midnightblue" d="M859.513,-360.444C805.461,-350.905 718.072,-335.483 660.327,-325.293"/>
<polygon fill="midnightblue" stroke="midnightblue" points="660.716,-321.808 650.26,-323.516 659.499,-328.701 660.716,-321.808"/>
</g>
<!-- Node28 -->
<g id="node28" class="node"><title>Node28</title>
<g id="a_node28"><a xlink:href="../../dc/d14/ROC_8h.html" target="_top" xlink:title="TPCBase/ROC.h">
<polygon fill="none" stroke="black" points="890.5,-304.5 890.5,-323.5 983.5,-323.5 983.5,-304.5 890.5,-304.5"/>
<text text-anchor="middle" x="937" y="-311.5" font-family="Helvetica,sans-Serif" font-size="10.00">TPCBase/ROC.h</text>
</a>
</g>
</g>
<!-- Node27&#45;&gt;Node28 -->
<g id="edge32" class="edge"><title>Node27&#45;&gt;Node28</title>
<path fill="none" stroke="midnightblue" d="M912.789,-360.083C916.758,-352.691 922.525,-341.953 927.435,-332.811"/>
<polygon fill="midnightblue" stroke="midnightblue" points="930.653,-334.217 932.3,-323.751 924.486,-330.905 930.653,-334.217"/>
</g>
<!-- Node28&#45;&gt;Node10 -->
<g id="edge33" class="edge"><title>Node28&#45;&gt;Node10</title>
<path fill="none" stroke="midnightblue" d="M928.055,-304.44C913.635,-290.997 883.931,-264.743 855,-248 831.119,-234.18 802.178,-222.744 779.563,-214.859"/>
<polygon fill="midnightblue" stroke="midnightblue" points="780.571,-211.505 769.976,-211.596 778.315,-218.132 780.571,-211.505"/>
</g>
<!-- Node28&#45;&gt;Node25 -->
<g id="edge34" class="edge"><title>Node28&#45;&gt;Node25</title>
<path fill="none" stroke="midnightblue" d="M940.303,-304.083C942.982,-296.849 946.849,-286.409 950.186,-277.397"/>
<polygon fill="midnightblue" stroke="midnightblue" points="953.568,-278.344 953.759,-267.751 947.004,-275.913 953.568,-278.344"/>
</g>
<!-- Node29&#45;&gt;Node10 -->
<g id="edge37" class="edge"><title>Node29&#45;&gt;Node10</title>
<path fill="none" stroke="midnightblue" d="M700.408,-416.151C697.08,-403.627 692.067,-380.025 695,-360 702.569,-308.327 723.446,-250.042 734.656,-221.19"/>
<polygon fill="midnightblue" stroke="midnightblue" points="738.007,-222.235 738.432,-211.649 731.498,-219.66 738.007,-222.235"/>
</g>
<!-- Node29&#45;&gt;Node23 -->
<g id="edge42" class="edge"><title>Node29&#45;&gt;Node23</title>
<path fill="none" stroke="midnightblue" d="M695.075,-416.368C678.186,-397.974 638.425,-354.671 616.739,-331.052"/>
<polygon fill="midnightblue" stroke="midnightblue" points="619.23,-328.59 609.888,-323.591 614.074,-333.325 619.23,-328.59"/>
</g>
<!-- Node29&#45;&gt;Node24 -->
<g id="edge43" class="edge"><title>Node29&#45;&gt;Node24</title>
<path fill="none" stroke="midnightblue" d="M712.961,-416.324C722.127,-408.341 735.937,-396.313 747.028,-386.653"/>
<polygon fill="midnightblue" stroke="midnightblue" points="749.615,-389.041 754.857,-379.834 745.018,-383.762 749.615,-389.041"/>
</g>
<!-- Node30 -->
<g id="node30" class="node"><title>Node30</title>
<g id="a_node30"><a xlink:href="../../df/d26/CRU_8h.html" target="_top" xlink:title="TPCBase/CRU.h">
<polygon fill="none" stroke="black" points="990.5,-360.5 990.5,-379.5 1083.5,-379.5 1083.5,-360.5 990.5,-360.5"/>
<text text-anchor="middle" x="1037" y="-367.5" font-family="Helvetica,sans-Serif" font-size="10.00">TPCBase/CRU.h</text>
</a>
</g>
</g>
<!-- Node29&#45;&gt;Node30 -->
<g id="edge38" class="edge"><title>Node29&#45;&gt;Node30</title>
<path fill="none" stroke="midnightblue" d="M755.923,-416.444C817.083,-406.556 917.343,-390.346 980.128,-380.195"/>
<polygon fill="midnightblue" stroke="midnightblue" points="980.939,-383.609 990.252,-378.558 979.822,-376.699 980.939,-383.609"/>
</g>
<!-- Node30&#45;&gt;Node10 -->
<g id="edge39" class="edge"><title>Node30&#45;&gt;Node10</title>
<path fill="none" stroke="midnightblue" d="M990.246,-361.06C958.136,-354.307 915.288,-342.667 881,-324 853.915,-309.254 788.803,-248.104 758.292,-218.798"/>
<polygon fill="midnightblue" stroke="midnightblue" points="760.621,-216.182 750.993,-211.76 755.762,-221.221 760.621,-216.182"/>
</g>
<!-- Node30&#45;&gt;Node25 -->
<g id="edge40" class="edge"><title>Node30&#45;&gt;Node25</title>
<path fill="none" stroke="midnightblue" d="M1031.32,-360.481C1022.93,-347.959 1006.62,-323.915 992,-304 984.958,-294.408 976.81,-283.899 970.148,-275.451"/>
<polygon fill="midnightblue" stroke="midnightblue" points="972.811,-273.176 963.853,-267.518 967.328,-277.527 972.811,-273.176"/>
</g>
<!-- Node30&#45;&gt;Node28 -->
<g id="edge41" class="edge"><title>Node30&#45;&gt;Node28</title>
<path fill="none" stroke="midnightblue" d="M1020.93,-360.324C1005.04,-351.743 980.493,-338.486 962.042,-328.522"/>
<polygon fill="midnightblue" stroke="midnightblue" points="963.489,-325.326 953.027,-323.655 960.163,-331.486 963.489,-325.326"/>
</g>
<!-- Node31&#45;&gt;Node22 -->
<g id="edge45" class="edge"><title>Node31&#45;&gt;Node22</title>
<path fill="none" stroke="midnightblue" d="M1161.21,-248.234C1171.07,-221.317 1201.05,-139.476 1214.43,-102.942"/>
<polygon fill="midnightblue" stroke="midnightblue" points="1217.72,-104.138 1217.87,-93.5442 1211.14,-101.73 1217.72,-104.138"/>
</g>
<!-- Node32&#45;&gt;Node6 -->
<g id="edge47" class="edge"><title>Node32&#45;&gt;Node6</title>
<path fill="none" stroke="midnightblue" d="M513.753,-416.324C503.203,-408.185 487.199,-395.839 474.558,-386.087"/>
<polygon fill="midnightblue" stroke="midnightblue" points="476.507,-383.171 466.451,-379.834 472.231,-388.713 476.507,-383.171"/>
</g>
<!-- Node32&#45;&gt;Node10 -->
<g id="edge48" class="edge"><title>Node32&#45;&gt;Node10</title>
<path fill="none" stroke="midnightblue" d="M523.52,-416.416C520.35,-395.162 515.077,-339.264 540,-304 575.493,-253.78 643.319,-227.185 690.536,-214.117"/>
<polygon fill="midnightblue" stroke="midnightblue" points="691.513,-217.479 700.28,-211.53 689.716,-210.713 691.513,-217.479"/>
</g>
<!-- Node32&#45;&gt;Node23 -->
<g id="edge49" class="edge"><title>Node32&#45;&gt;Node23</title>
<path fill="none" stroke="midnightblue" d="M531.042,-416.368C543.749,-398.215 573.439,-355.802 590.107,-331.99"/>
<polygon fill="midnightblue" stroke="midnightblue" points="593.119,-333.791 595.986,-323.591 587.384,-329.777 593.119,-333.791"/>
</g>
</g>
</svg>
        <g id="navigator" transform="translate(0 0)" fill="#404254">
                <rect fill="#f2f5e9" fill-opacity="0.5" stroke="#606060" stroke-width=".5" x="0" y="0" width="60" height="60"/>
                <use id="zoomplus" xlink:href="#zoomPlus" x="17" y="9" onmousedown="handleZoom(evt,'in')"/>
                <use id="zoomminus" xlink:href="#zoomMin" x="42" y="9" onmousedown="handleZoom(evt,'out')"/>
                <use id="reset" xlink:href="#resetDef" x="30" y="36" onmousedown="handleReset()"/>
                <g id="arrowUp" xlink:href="#dirArrow" transform="translate(30 24)" onmousedown="handlePan(0,-1)">
                  <use xlink:href="#rim" fill="#404040">
                        <set attributeName="fill" to="#808080" begin="arrowUp.mouseover" end="arrowUp.mouseout"/>
                  </use>
                  <path fill="none" stroke="white" stroke-width="1.5" d="M0,-3.0v7 M-2.5,-0.5L0,-3.0L2.5,-0.5"/>
                </g>
                <g id="arrowRight" xlink:href="#dirArrow" transform="rotate(90) translate(36 -43)" onmousedown="handlePan(1,0)">
                  <use xlink:href="#rim" fill="#404040">
                        <set attributeName="fill" to="#808080" begin="arrowRight.mouseover" end="arrowRight.mouseout"/>
                  </use>
                  <path fill="none" stroke="white" stroke-width="1.5" d="M0,-3.0v7 M-2.5,-0.5L0,-3.0L2.5,-0.5"/>
                </g>
                <g id="arrowDown" xlink:href="#dirArrow" transform="rotate(180) translate(-30 -48)" onmousedown="handlePan(0,1)">
                  <use xlink:href="#rim" fill="#404040">
                        <set attributeName="fill" to="#808080" begin="arrowDown.mouseover" end="arrowDown.mouseout"/>
                  </use>
                  <path fill="none" stroke="white" stroke-width="1.5" d="M0,-3.0v7 M-2.5,-0.5L0,-3.0L2.5,-0.5"/>
                </g>
                <g id="arrowLeft" xlink:href="#dirArrow" transform="rotate(270) translate(-36 17)" onmousedown="handlePan(-1,0)">
                  <use xlink:href="#rim" fill="#404040">
                        <set attributeName="fill" to="#808080" begin="arrowLeft.mouseover" end="arrowLeft.mouseout"/>
                  </use>
                  <path fill="none" stroke="white" stroke-width="1.5" d="M0,-3.0v7 M-2.5,-0.5L0,-3.0L2.5,-0.5"/>
                </g>
        </g>
        <svg viewBox="0 0 15 15" width="100%" height="30px" preserveAspectRatio="xMaxYMin meet">
         <g id="arrow_out" transform="scale(0.3 0.3)">
          <a xlink:href="PadResponse_8cxx__incl_org.svg" target="_base">
           <rect id="button" ry="5" rx="5" y="6" x="6" height="38" width="38"
                fill="#f2f5e9" fill-opacity="0.5" stroke="#606060" stroke-width="1.0"/>
           <path id="arrow"
             d="M 11.500037,31.436501 C 11.940474,20.09759 22.043105,11.32322 32.158766,21.979434 L 37.068811,17.246167 C 37.068811,17.246167 37.088388,32 37.088388,32 L 22.160133,31.978069 C 22.160133,31.978069 26.997745,27.140456 26.997745,27.140456 C 18.528582,18.264221 13.291696,25.230495 11.500037,31.436501 z"
             style="fill:#404040;"/>
          </a>
         </g>
        </svg>
</svg>
