<?xml version="1.0" encoding="UTF-8" standalone="no"?>
<!DOCTYPE svg PUBLIC "-//W3C//DTD SVG 1.1//EN"
 "http://www.w3.org/Graphics/SVG/1.1/DTD/svg11.dtd">
<!-- Generated by graphviz version 2.36.0 (20140111.2315)
 -->
<!-- Title: /home/travis/build/AliceO2Group/AliceO2/Common/MathUtils/include/MathUtils/Cartesian3D.h Pages: 1 -->
<svg width="1372pt" height="198pt"
 viewBox="0.00 0.00 1372.00 198.00" xmlns="http://www.w3.org/2000/svg" xmlns:xlink="http://www.w3.org/1999/xlink">
<g id="graph0" class="graph" transform="scale(1 1) rotate(0) translate(4 194)">
<title>/home/travis/build/AliceO2Group/AliceO2/Common/MathUtils/include/MathUtils/Cartesian3D.h</title>
<!-- Node1 -->
<g id="node1" class="node"><title>Node1</title>
<polygon fill="#bfbfbf" stroke="black" points="715,-137 715,-189 853,-189 853,-137 715,-137"/>
<text text-anchor="start" x="723" y="-177" font-family="Helvetica,sans-Serif" font-size="10.00">/home/travis/build</text>
<text text-anchor="start" x="723" y="-166" font-family="Helvetica,sans-Serif" font-size="10.00">/AliceO2Group/AliceO2</text>
<text text-anchor="start" x="723" y="-155" font-family="Helvetica,sans-Serif" font-size="10.00">/Common/MathUtils/include</text>
<text text-anchor="middle" x="784" y="-144" font-family="Helvetica,sans-Serif" font-size="10.00">/MathUtils/Cartesian3D.h</text>
</g>
<!-- Node2 -->
<g id="node2" class="node"><title>Node2</title>
<polygon fill="none" stroke="#bfbfbf" points="-0.5,-69 -0.5,-99 150.5,-99 150.5,-69 -0.5,-69"/>
<text text-anchor="start" x="7.5" y="-87" font-family="Helvetica,sans-Serif" font-size="10.00">Math/GenVector/Displacement</text>
<text text-anchor="middle" x="75" y="-76" font-family="Helvetica,sans-Serif" font-size="10.00">Vector3D.h</text>
</g>
<!-- Node1&#45;&gt;Node2 -->
<g id="edge1" class="edge"><title>Node1&#45;&gt;Node2</title>
<path fill="none" stroke="midnightblue" d="M714.544,-156.825C600.968,-147.982 368.253,-128.274 161.111,-100.089"/>
<polygon fill="midnightblue" stroke="midnightblue" points="161.338,-96.5872 150.955,-98.6972 160.387,-103.522 161.338,-96.5872"/>
</g>
<!-- Node3 -->
<g id="node3" class="node"><title>Node3</title>
<polygon fill="none" stroke="#bfbfbf" points="169,-74.5 169,-93.5 345,-93.5 345,-74.5 169,-74.5"/>
<text text-anchor="middle" x="257" y="-81.5" font-family="Helvetica,sans-Serif" font-size="10.00">Math/GenVector/PositionVector3D.h</text>
</g>
<!-- Node1&#45;&gt;Node3 -->
<g id="edge2" class="edge"><title>Node1&#45;&gt;Node3</title>
<path fill="none" stroke="midnightblue" d="M714.707,-152.231C629.695,-140.195 481.187,-119.003 354,-100 343.419,-98.4191 332.194,-96.7115 321.278,-95.0344"/>
<polygon fill="midnightblue" stroke="midnightblue" points="321.782,-91.5709 311.366,-93.5073 320.716,-98.4893 321.782,-91.5709"/>
</g>
<!-- Node4 -->
<g id="node4" class="node"><title>Node4</title>
<polygon fill="none" stroke="#bfbfbf" points="362.5,-74.5 362.5,-93.5 511.5,-93.5 511.5,-74.5 362.5,-74.5"/>
<text text-anchor="middle" x="437" y="-81.5" font-family="Helvetica,sans-Serif" font-size="10.00">Math/GenVector/Rotation3D.h</text>
</g>
<!-- Node1&#45;&gt;Node4 -->
<g id="edge3" class="edge"><title>Node1&#45;&gt;Node4</title>
<path fill="none" stroke="midnightblue" d="M714.613,-146.603C646.745,-131.543 545.15,-108.999 485.521,-95.7669"/>
<polygon fill="midnightblue" stroke="midnightblue" points="486.129,-92.3168 475.608,-93.5673 484.613,-99.1506 486.129,-92.3168"/>
</g>
<!-- Node5 -->
<g id="node5" class="node"><title>Node5</title>
<polygon fill="none" stroke="#bfbfbf" points="530,-74.5 530,-93.5 686,-93.5 686,-74.5 530,-74.5"/>
<text text-anchor="middle" x="608" y="-81.5" font-family="Helvetica,sans-Serif" font-size="10.00">Math/GenVector/Transform3D.h</text>
</g>
<!-- Node1&#45;&gt;Node5 -->
<g id="edge4" class="edge"><title>Node1&#45;&gt;Node5</title>
<path fill="none" stroke="midnightblue" d="M726.371,-136.787C696.413,-123.681 661.102,-108.232 636.892,-97.6403"/>
<polygon fill="midnightblue" stroke="midnightblue" points="638.125,-94.3594 627.56,-93.5577 635.319,-100.773 638.125,-94.3594"/>
</g>
<!-- Node6 -->
<g id="node6" class="node"><title>Node6</title>
<polygon fill="none" stroke="#bfbfbf" points="704,-74.5 704,-93.5 864,-93.5 864,-74.5 704,-74.5"/>
<text text-anchor="middle" x="784" y="-81.5" font-family="Helvetica,sans-Serif" font-size="10.00">Math/GenVector/Translation3D.h</text>
</g>
<!-- Node1&#45;&gt;Node6 -->
<g id="edge5" class="edge"><title>Node1&#45;&gt;Node6</title>
<path fill="none" stroke="midnightblue" d="M784,-136.787C784,-126.069 784,-113.785 784,-103.871"/>
<polygon fill="midnightblue" stroke="midnightblue" points="787.5,-103.558 784,-93.5577 780.5,-103.558 787.5,-103.558"/>
</g>
<!-- Node7 -->
<g id="node7" class="node"><title>Node7</title>
<polygon fill="none" stroke="#bfbfbf" points="882,-74.5 882,-93.5 938,-93.5 938,-74.5 882,-74.5"/>
<text text-anchor="middle" x="910" y="-81.5" font-family="Helvetica,sans-Serif" font-size="10.00">Rtypes.h</text>
</g>
<!-- Node1&#45;&gt;Node7 -->
<g id="edge6" class="edge"><title>Node1&#45;&gt;Node7</title>
<path fill="none" stroke="midnightblue" d="M825.257,-136.787C845.847,-124.205 869.967,-109.464 887.199,-98.9342"/>
<polygon fill="midnightblue" stroke="midnightblue" points="889.289,-101.759 895.996,-93.5577 885.639,-95.7858 889.289,-101.759"/>
</g>
<!-- Node8 -->
<g id="node8" class="node"><title>Node8</title>
<polygon fill="none" stroke="#bfbfbf" points="956,-74.5 956,-93.5 1032,-93.5 1032,-74.5 956,-74.5"/>
<text text-anchor="middle" x="994" y="-81.5" font-family="Helvetica,sans-Serif" font-size="10.00">TGeoMatrix.h</text>
</g>
<!-- Node1&#45;&gt;Node8 -->
<g id="edge7" class="edge"><title>Node1&#45;&gt;Node8</title>
<path fill="none" stroke="midnightblue" d="M852.471,-136.894C888.874,-123.546 931.969,-107.745 960.961,-97.1145"/>
<polygon fill="midnightblue" stroke="midnightblue" points="962.409,-100.311 970.593,-93.5826 959.999,-93.7392 962.409,-100.311"/>
</g>
<!-- Node9 -->
<g id="node9" class="node"><title>Node9</title>
<polygon fill="none" stroke="#bfbfbf" points="1050,-74.5 1050,-93.5 1104,-93.5 1104,-74.5 1050,-74.5"/>
<text text-anchor="middle" x="1077" y="-81.5" font-family="Helvetica,sans-Serif" font-size="10.00">iostream</text>
</g>
<!-- Node1&#45;&gt;Node9 -->
<g id="edge8" class="edge"><title>Node1&#45;&gt;Node9</title>
<path fill="none" stroke="midnightblue" d="M853.001,-148.453C905.221,-137.457 978.392,-120.453 1041,-100 1043.57,-99.1616 1046.21,-98.2204 1048.84,-97.2289"/>
<polygon fill="midnightblue" stroke="midnightblue" points="1050.16,-100.467 1058.15,-93.5106 1047.57,-93.9658 1050.16,-100.467"/>
</g>
<!-- Node10 -->
<g id="node10" class="node"><title>Node10</title>
<g id="a_node10"><a xlink:href="../../d2/dd0/Cartesian2D_8h.html" target="_top" xlink:title="MathUtils/Cartesian2D.h">
<polygon fill="none" stroke="black" points="1122.5,-74.5 1122.5,-93.5 1247.5,-93.5 1247.5,-74.5 1122.5,-74.5"/>
<text text-anchor="middle" x="1185" y="-81.5" font-family="Helvetica,sans-Serif" font-size="10.00">MathUtils/Cartesian2D.h</text>
</a>
</g>
</g>
<!-- Node1&#45;&gt;Node10 -->
<g id="edge9" class="edge"><title>Node1&#45;&gt;Node10</title>
<path fill="none" stroke="midnightblue" d="M853.075,-149.38C919.699,-137.114 1023.35,-117.785 1113,-100 1120.06,-98.5994 1127.5,-97.0882 1134.82,-95.5831"/>
<polygon fill="midnightblue" stroke="midnightblue" points="1135.58,-98.9995 1144.66,-93.5454 1134.16,-92.1448 1135.58,-98.9995"/>
</g>
<!-- Node11 -->
<g id="node11" class="node"><title>Node11</title>
<polygon fill="none" stroke="#bfbfbf" points="1018.5,-1 1018.5,-31 1169.5,-31 1169.5,-1 1018.5,-1"/>
<text text-anchor="start" x="1026.5" y="-19" font-family="Helvetica,sans-Serif" font-size="10.00">Math/GenVector/Displacement</text>
<text text-anchor="middle" x="1094" y="-8" font-family="Helvetica,sans-Serif" font-size="10.00">Vector2D.h</text>
</g>
<!-- Node10&#45;&gt;Node11 -->
<g id="edge10" class="edge"><title>Node10&#45;&gt;Node11</title>
<path fill="none" stroke="midnightblue" d="M1173.1,-74.3717C1160.22,-65.0286 1139.22,-49.7966 1122.09,-37.375"/>
<polygon fill="midnightblue" stroke="midnightblue" points="1123.7,-34.2194 1113.55,-31.1815 1119.59,-39.8859 1123.7,-34.2194"/>
</g>
<!-- Node12 -->
<g id="node12" class="node"><title>Node12</title>
<polygon fill="none" stroke="#bfbfbf" points="1188,-6.5 1188,-25.5 1364,-25.5 1364,-6.5 1188,-6.5"/>
<text text-anchor="middle" x="1276" y="-13.5" font-family="Helvetica,sans-Serif" font-size="10.00">Math/GenVector/PositionVector2D.h</text>
</g>
<!-- Node10&#45;&gt;Node12 -->
<g id="edge11" class="edge"><title>Node10&#45;&gt;Node12</title>
<path fill="none" stroke="midnightblue" d="M1196.9,-74.3717C1211.88,-63.5015 1237.86,-44.6602 1255.94,-31.5474"/>
<polygon fill="midnightblue" stroke="midnightblue" points="1258.06,-34.3349 1264.1,-25.6305 1253.95,-28.6684 1258.06,-34.3349"/>
</g>
</g>
</svg>
