<?xml version="1.0" encoding="UTF-8" standalone="no"?>
<!DOCTYPE svg PUBLIC "-//W3C//DTD SVG 1.1//EN"
 "http://www.w3.org/Graphics/SVG/1.1/DTD/svg11.dtd">
<!-- Generated by graphviz version 2.36.0 (20140111.2315)
 -->
<!-- Title: /home/travis/build/AliceO2Group/AliceO2/Common/MathUtils/test/testCartesian3D.cxx Pages: 1 -->
<svg width="1256pt" height="254pt"
 viewBox="0.00 0.00 1256.00 254.00" xmlns="http://www.w3.org/2000/svg" xmlns:xlink="http://www.w3.org/1999/xlink">
<g id="graph0" class="graph" transform="scale(1 1) rotate(0) translate(4 250)">
<title>/home/travis/build/AliceO2Group/AliceO2/Common/MathUtils/test/testCartesian3D.cxx</title>
<!-- Node1 -->
<g id="node1" class="node"><title>Node1</title>
<polygon fill="#bfbfbf" stroke="black" points="234,-193 234,-245 358,-245 358,-193 234,-193"/>
<text text-anchor="start" x="242" y="-233" font-family="Helvetica,sans-Serif" font-size="10.00">/home/travis/build</text>
<text text-anchor="start" x="242" y="-222" font-family="Helvetica,sans-Serif" font-size="10.00">/AliceO2Group/AliceO2</text>
<text text-anchor="start" x="242" y="-211" font-family="Helvetica,sans-Serif" font-size="10.00">/Common/MathUtils/test</text>
<text text-anchor="middle" x="296" y="-200" font-family="Helvetica,sans-Serif" font-size="10.00">/testCartesian3D.cxx</text>
</g>
<!-- Node2 -->
<g id="node2" class="node"><title>Node2</title>
<polygon fill="none" stroke="#bfbfbf" points="0,-74.5 0,-93.5 76,-93.5 76,-74.5 0,-74.5"/>
<text text-anchor="middle" x="38" y="-81.5" font-family="Helvetica,sans-Serif" font-size="10.00">TGeoMatrix.h</text>
</g>
<!-- Node1&#45;&gt;Node2 -->
<g id="edge1" class="edge"><title>Node1&#45;&gt;Node2</title>
<path fill="none" stroke="midnightblue" d="M247.472,-192.984C192.918,-164.861 106.395,-120.258 63.6426,-98.2188"/>
<polygon fill="midnightblue" stroke="midnightblue" points="65.2184,-95.0936 54.7262,-93.6224 62.011,-101.315 65.2184,-95.0936"/>
</g>
<!-- Node3 -->
<g id="node3" class="node"><title>Node3</title>
<polygon fill="none" stroke="#bfbfbf" points="465.5,-136.5 465.5,-155.5 584.5,-155.5 584.5,-136.5 465.5,-136.5"/>
<text text-anchor="middle" x="525" y="-143.5" font-family="Helvetica,sans-Serif" font-size="10.00">boost/test/unit_test.hpp</text>
</g>
<!-- Node1&#45;&gt;Node3 -->
<g id="edge2" class="edge"><title>Node1&#45;&gt;Node3</title>
<path fill="none" stroke="midnightblue" d="M358.273,-198.693C399.62,-185.873 452.53,-169.469 487.532,-158.617"/>
<polygon fill="midnightblue" stroke="midnightblue" points="488.83,-161.879 497.345,-155.574 486.757,-155.193 488.83,-161.879"/>
</g>
<!-- Node4 -->
<g id="node4" class="node"><title>Node4</title>
<polygon fill="none" stroke="#bfbfbf" points="94,-74.5 94,-93.5 148,-93.5 148,-74.5 94,-74.5"/>
<text text-anchor="middle" x="121" y="-81.5" font-family="Helvetica,sans-Serif" font-size="10.00">iostream</text>
</g>
<!-- Node1&#45;&gt;Node4 -->
<g id="edge3" class="edge"><title>Node1&#45;&gt;Node4</title>
<path fill="none" stroke="midnightblue" d="M263.084,-192.984C227.013,-165.57 170.337,-122.496 140.642,-99.9281"/>
<polygon fill="midnightblue" stroke="midnightblue" points="142.425,-96.8867 132.345,-93.6224 138.189,-102.46 142.425,-96.8867"/>
</g>
<!-- Node5 -->
<g id="node5" class="node"><title>Node5</title>
<g id="a_node5"><a xlink:href="../../dd/d76/Cartesian3D_8h.html" target="_top" xlink:title="MathUtils/Cartesian3D.h">
<polygon fill="none" stroke="black" points="322.5,-136.5 322.5,-155.5 447.5,-155.5 447.5,-136.5 322.5,-136.5"/>
<text text-anchor="middle" x="385" y="-143.5" font-family="Helvetica,sans-Serif" font-size="10.00">MathUtils/Cartesian3D.h</text>
</a>
</g>
</g>
<!-- Node1&#45;&gt;Node5 -->
<g id="edge4" class="edge"><title>Node1&#45;&gt;Node5</title>
<path fill="none" stroke="midnightblue" d="M327.378,-192.968C340.299,-182.66 354.842,-171.059 366.084,-162.09"/>
<polygon fill="midnightblue" stroke="midnightblue" points="368.322,-164.782 373.957,-155.81 363.957,-159.31 368.322,-164.782"/>
</g>
<!-- Node5&#45;&gt;Node2 -->
<g id="edge11" class="edge"><title>Node5&#45;&gt;Node2</title>
<path fill="none" stroke="midnightblue" d="M322.398,-138.567C261.324,-131.598 166.042,-118.882 85,-100 80.777,-99.0161 76.3862,-97.8347 72.0591,-96.5724"/>
<polygon fill="midnightblue" stroke="midnightblue" points="72.7743,-93.1306 62.1872,-93.5352 70.7159,-99.8211 72.7743,-93.1306"/>
</g>
<!-- Node5&#45;&gt;Node4 -->
<g id="edge12" class="edge"><title>Node5&#45;&gt;Node4</title>
<path fill="none" stroke="midnightblue" d="M325.937,-136.442C279.68,-128.988 214.009,-116.74 158,-100 155.352,-99.2085 152.631,-98.2997 149.924,-97.3292"/>
<polygon fill="midnightblue" stroke="midnightblue" points="150.929,-93.9658 140.339,-93.6444 148.417,-100.5 150.929,-93.9658"/>
</g>
<!-- Node6 -->
<g id="node6" class="node"><title>Node6</title>
<polygon fill="none" stroke="#bfbfbf" points="309.5,-69 309.5,-99 460.5,-99 460.5,-69 309.5,-69"/>
<text text-anchor="start" x="317.5" y="-87" font-family="Helvetica,sans-Serif" font-size="10.00">Math/GenVector/Displacement</text>
<text text-anchor="middle" x="385" y="-76" font-family="Helvetica,sans-Serif" font-size="10.00">Vector3D.h</text>
</g>
<!-- Node5&#45;&gt;Node6 -->
<g id="edge5" class="edge"><title>Node5&#45;&gt;Node6</title>
<path fill="none" stroke="midnightblue" d="M385,-136.403C385,-129.341 385,-118.975 385,-109.399"/>
<polygon fill="midnightblue" stroke="midnightblue" points="388.5,-109.141 385,-99.1408 381.5,-109.141 388.5,-109.141"/>
</g>
<!-- Node7 -->
<g id="node7" class="node"><title>Node7</title>
<polygon fill="none" stroke="#bfbfbf" points="479,-74.5 479,-93.5 655,-93.5 655,-74.5 479,-74.5"/>
<text text-anchor="middle" x="567" y="-81.5" font-family="Helvetica,sans-Serif" font-size="10.00">Math/GenVector/PositionVector3D.h</text>
</g>
<!-- Node5&#45;&gt;Node7 -->
<g id="edge6" class="edge"><title>Node5&#45;&gt;Node7</title>
<path fill="none" stroke="midnightblue" d="M411.076,-136.403C442.566,-126.022 495.698,-108.506 531.058,-96.849"/>
<polygon fill="midnightblue" stroke="midnightblue" points="532.571,-100.036 540.972,-93.5806 530.379,-93.3876 532.571,-100.036"/>
</g>
<!-- Node8 -->
<g id="node8" class="node"><title>Node8</title>
<polygon fill="none" stroke="#bfbfbf" points="672.5,-74.5 672.5,-93.5 821.5,-93.5 821.5,-74.5 672.5,-74.5"/>
<text text-anchor="middle" x="747" y="-81.5" font-family="Helvetica,sans-Serif" font-size="10.00">Math/GenVector/Rotation3D.h</text>
</g>
<!-- Node5&#45;&gt;Node8 -->
<g id="edge7" class="edge"><title>Node5&#45;&gt;Node8</title>
<path fill="none" stroke="midnightblue" d="M439.378,-136.465C495.451,-127.602 585.4,-113.208 663,-100 671.701,-98.519 680.901,-96.915 689.898,-95.3253"/>
<polygon fill="midnightblue" stroke="midnightblue" points="690.697,-98.7383 699.931,-93.544 689.473,-91.8461 690.697,-98.7383"/>
</g>
<!-- Node9 -->
<g id="node9" class="node"><title>Node9</title>
<polygon fill="none" stroke="#bfbfbf" points="840,-74.5 840,-93.5 996,-93.5 996,-74.5 840,-74.5"/>
<text text-anchor="middle" x="918" y="-81.5" font-family="Helvetica,sans-Serif" font-size="10.00">Math/GenVector/Transform3D.h</text>
</g>
<!-- Node5&#45;&gt;Node9 -->
<g id="edge8" class="edge"><title>Node5&#45;&gt;Node9</title>
<path fill="none" stroke="midnightblue" d="M447.816,-137.042C450.921,-136.682 453.995,-136.333 457,-136 622.536,-117.669 664.912,-122.007 830,-100 840.245,-98.6343 851.124,-96.9623 861.611,-95.2361"/>
<polygon fill="midnightblue" stroke="midnightblue" points="862.231,-98.6812 871.513,-93.5728 861.071,-91.7779 862.231,-98.6812"/>
</g>
<!-- Node10 -->
<g id="node10" class="node"><title>Node10</title>
<polygon fill="none" stroke="#bfbfbf" points="1014,-74.5 1014,-93.5 1174,-93.5 1174,-74.5 1014,-74.5"/>
<text text-anchor="middle" x="1094" y="-81.5" font-family="Helvetica,sans-Serif" font-size="10.00">Math/GenVector/Translation3D.h</text>
</g>
<!-- Node5&#45;&gt;Node10 -->
<g id="edge9" class="edge"><title>Node5&#45;&gt;Node10</title>
<path fill="none" stroke="midnightblue" d="M447.805,-136.929C450.912,-136.599 453.99,-136.287 457,-136 699.98,-112.853 762.568,-128.319 1005,-100 1015.96,-98.7194 1027.63,-97.008 1038.79,-95.1997"/>
<polygon fill="midnightblue" stroke="midnightblue" points="1039.56,-98.6185 1048.85,-93.5214 1038.41,-91.7139 1039.56,-98.6185"/>
</g>
<!-- Node11 -->
<g id="node11" class="node"><title>Node11</title>
<polygon fill="none" stroke="#bfbfbf" points="1192,-74.5 1192,-93.5 1248,-93.5 1248,-74.5 1192,-74.5"/>
<text text-anchor="middle" x="1220" y="-81.5" font-family="Helvetica,sans-Serif" font-size="10.00">Rtypes.h</text>
</g>
<!-- Node5&#45;&gt;Node11 -->
<g id="edge10" class="edge"><title>Node5&#45;&gt;Node11</title>
<path fill="none" stroke="midnightblue" d="M447.799,-136.869C450.908,-136.555 453.988,-136.263 457,-136 778.843,-107.945 867.538,-169.667 1183,-100 1186.25,-99.2825 1189.58,-98.3068 1192.85,-97.1948"/>
<polygon fill="midnightblue" stroke="midnightblue" points="1194.23,-100.413 1202.32,-93.5723 1191.73,-93.8751 1194.23,-100.413"/>
</g>
<!-- Node12 -->
<g id="node12" class="node"><title>Node12</title>
<g id="a_node12"><a xlink:href="../../d2/dd0/Cartesian2D_8h.html" target="_top" xlink:title="MathUtils/Cartesian2D.h">
<polygon fill="none" stroke="black" points="166.5,-74.5 166.5,-93.5 291.5,-93.5 291.5,-74.5 166.5,-74.5"/>
<text text-anchor="middle" x="229" y="-81.5" font-family="Helvetica,sans-Serif" font-size="10.00">MathUtils/Cartesian2D.h</text>
</a>
</g>
</g>
<!-- Node5&#45;&gt;Node12 -->
<g id="edge13" class="edge"><title>Node5&#45;&gt;Node12</title>
<path fill="none" stroke="midnightblue" d="M362.649,-136.403C336.005,-126.156 291.286,-108.956 260.986,-97.3021"/>
<polygon fill="midnightblue" stroke="midnightblue" points="261.899,-93.9037 251.31,-93.5806 259.387,-100.437 261.899,-93.9037"/>
</g>
<!-- Node13 -->
<g id="node13" class="node"><title>Node13</title>
<polygon fill="none" stroke="#bfbfbf" points="62.5,-1 62.5,-31 213.5,-31 213.5,-1 62.5,-1"/>
<text text-anchor="start" x="70.5" y="-19" font-family="Helvetica,sans-Serif" font-size="10.00">Math/GenVector/Displacement</text>
<text text-anchor="middle" x="138" y="-8" font-family="Helvetica,sans-Serif" font-size="10.00">Vector2D.h</text>
</g>
<!-- Node12&#45;&gt;Node13 -->
<g id="edge14" class="edge"><title>Node12&#45;&gt;Node13</title>
<path fill="none" stroke="midnightblue" d="M217.103,-74.3717C204.221,-65.0286 183.22,-49.7966 166.093,-37.375"/>
<polygon fill="midnightblue" stroke="midnightblue" points="167.703,-34.2194 157.553,-31.1815 163.593,-39.8859 167.703,-34.2194"/>
</g>
<!-- Node14 -->
<g id="node14" class="node"><title>Node14</title>
<polygon fill="none" stroke="#bfbfbf" points="232,-6.5 232,-25.5 408,-25.5 408,-6.5 232,-6.5"/>
<text text-anchor="middle" x="320" y="-13.5" font-family="Helvetica,sans-Serif" font-size="10.00">Math/GenVector/PositionVector2D.h</text>
</g>
<!-- Node12&#45;&gt;Node14 -->
<g id="edge15" class="edge"><title>Node12&#45;&gt;Node14</title>
<path fill="none" stroke="midnightblue" d="M240.897,-74.3717C255.884,-63.5015 281.862,-44.6602 299.942,-31.5474"/>
<polygon fill="midnightblue" stroke="midnightblue" points="302.06,-34.3349 308.1,-25.6305 297.95,-28.6684 302.06,-34.3349"/>
</g>
</g>
</svg>
