<?xml version="1.0" encoding="UTF-8" standalone="no"?>
<!DOCTYPE svg PUBLIC "-//W3C//DTD SVG 1.1//EN"
 "http://www.w3.org/Graphics/SVG/1.1/DTD/svg11.dtd">
<!-- Generated by graphviz version 2.36.0 (20140111.2315)
 -->
<!-- Title: o2::TPC::ClusterNativeAccessFullTPC Pages: 1 -->
<!--zoomable 674 -->
<svg id="main" version="1.1" xmlns="http://www.w3.org/2000/svg" xmlns:xlink="http://www.w3.org/1999/xlink" xml:space="preserve" onload="init(evt)">
<style type="text/css"><![CDATA[
.edge:hover path { stroke: red; }
.edge:hover polygon { stroke: red; fill: red; }
]]></style>
<script type="text/javascript"><![CDATA[
var edges = document.getElementsByTagName('g');
if (edges && edges.length) {
  for (var i=0;i<edges.length;i++) {
    if (edges[i].id.substr(0,4)=='edge') {
      edges[i].setAttribute('class','edge');
    }
  }
}
]]></script>
        <defs>
                <circle id="rim" cx="0" cy="0" r="7"/>
                <circle id="rim2" cx="0" cy="0" r="3.5"/>
                <g id="zoomPlus">
                        <use xlink:href="#rim" fill="#404040">
                                <set attributeName="fill" to="#808080" begin="zoomplus.mouseover" end="zoomplus.mouseout"/>
                        </use>
                        <path d="M-4,0h8M0,-4v8" fill="none" stroke="white" stroke-width="1.5" pointer-events="none"/>
                </g>
                <g id="zoomMin">
                        <use xlink:href="#rim" fill="#404040">
                                <set attributeName="fill" to="#808080" begin="zoomminus.mouseover" end="zoomminus.mouseout"/>
                        </use>
                        <path d="M-4,0h8" fill="none" stroke="white" stroke-width="1.5" pointer-events="none"/>
                </g>
                <g id="dirArrow">
                        <path fill="none" stroke="white" stroke-width="1.5" d="M0,-3.0v7 M-2.5,-0.5L0,-3.0L2.5,-0.5"/>
                </g>
               <g id="resetDef">
                       <use xlink:href="#rim2" fill="#404040">
                               <set attributeName="fill" to="#808080" begin="reset.mouseover" end="reset.mouseout"/>
                       </use>
               </g>
        </defs>

<script type="text/javascript">
var viewWidth = 587;
var viewHeight = 674;
var sectionId = 'dynsection-0';
</script>
<script xlink:href="../../svgpan.js"/>
<svg id="graph" class="graph">
<g id="viewport">
<title>o2::TPC::ClusterNativeAccessFullTPC</title>
<!-- Node1 -->
<g id="node1" class="node"><title>Node1</title>
<polygon fill="#bfbfbf" stroke="black" points="249,-1 249,-69 401,-69 401,-1 249,-1"/>
<text text-anchor="start" x="257" y="-57" font-family="Helvetica,sans-Serif" font-size="10.00">o2::TPC::ClusterNativeAccess</text>
<text text-anchor="middle" x="325" y="-46" font-family="Helvetica,sans-Serif" font-size="10.00">FullTPC</text>
<polyline fill="none" stroke="black" points="249,-39 401,-39 "/>
<text text-anchor="middle" x="325" y="-27" font-family="Helvetica,sans-Serif" font-size="10.00"> </text>
<polyline fill="none" stroke="black" points="249,-20 401,-20 "/>
<text text-anchor="middle" x="325" y="-8" font-family="Helvetica,sans-Serif" font-size="10.00"> </text>
</g>
<!-- Node2 -->
<g id="node2" class="node"><title>Node2</title>
<g id="a_node2"><a xlink:href="../../d9/d08/structo2_1_1TPC_1_1ClusterNative.html" target="_top" xlink:title="{o2::TPC::ClusterNative\n||+ getFlags()\l+ getTimePacked()\l+ setTimePackedFlags()\l+ setTimePacked()\l+ setFlags()\l+ getTime()\l+ setTime()\l+ setTimeFlags()\l+ getPad()\l+ setPad()\l+ getSigmaTime()\l+ setSigmaTime()\l+ getSigmaPad()\l+ setSigmaPad()\l}">
<polygon fill="none" stroke="black" points="155,-135 155,-335 279,-335 279,-135 155,-135"/>
<text text-anchor="middle" x="217" y="-323" font-family="Helvetica,sans-Serif" font-size="10.00">o2::TPC::ClusterNative</text>
<polyline fill="none" stroke="black" points="155,-316 279,-316 "/>
<text text-anchor="middle" x="217" y="-304" font-family="Helvetica,sans-Serif" font-size="10.00"> </text>
<polyline fill="none" stroke="black" points="155,-297 279,-297 "/>
<text text-anchor="start" x="163" y="-285" font-family="Helvetica,sans-Serif" font-size="10.00">+ getFlags()</text>
<text text-anchor="start" x="163" y="-274" font-family="Helvetica,sans-Serif" font-size="10.00">+ getTimePacked()</text>
<text text-anchor="start" x="163" y="-263" font-family="Helvetica,sans-Serif" font-size="10.00">+ setTimePackedFlags()</text>
<text text-anchor="start" x="163" y="-252" font-family="Helvetica,sans-Serif" font-size="10.00">+ setTimePacked()</text>
<text text-anchor="start" x="163" y="-241" font-family="Helvetica,sans-Serif" font-size="10.00">+ setFlags()</text>
<text text-anchor="start" x="163" y="-230" font-family="Helvetica,sans-Serif" font-size="10.00">+ getTime()</text>
<text text-anchor="start" x="163" y="-219" font-family="Helvetica,sans-Serif" font-size="10.00">+ setTime()</text>
<text text-anchor="start" x="163" y="-208" font-family="Helvetica,sans-Serif" font-size="10.00">+ setTimeFlags()</text>
<text text-anchor="start" x="163" y="-197" font-family="Helvetica,sans-Serif" font-size="10.00">+ getPad()</text>
<text text-anchor="start" x="163" y="-186" font-family="Helvetica,sans-Serif" font-size="10.00">+ setPad()</text>
<text text-anchor="start" x="163" y="-175" font-family="Helvetica,sans-Serif" font-size="10.00">+ getSigmaTime()</text>
<text text-anchor="start" x="163" y="-164" font-family="Helvetica,sans-Serif" font-size="10.00">+ setSigmaTime()</text>
<text text-anchor="start" x="163" y="-153" font-family="Helvetica,sans-Serif" font-size="10.00">+ getSigmaPad()</text>
<text text-anchor="start" x="163" y="-142" font-family="Helvetica,sans-Serif" font-size="10.00">+ setSigmaPad()</text>
</a>
</g>
</g>
<!-- Node2&#45;&gt;Node1 -->
<g id="edge1" class="edge"><title>Node2&#45;&gt;Node1</title>
<path fill="none" stroke="#404040" d="M252.059,-134.995C259.37,-118.791 267.717,-102.557 277,-88 278.984,-84.8891 281.163,-81.7924 283.464,-78.7495"/>
<polygon fill="none" stroke="#404040" points="283.591,-78.5917 284.255,-71.4111 291.139,-69.2621 290.475,-76.4427 283.591,-78.5917"/>
<text text-anchor="middle" x="299" y="-91.5" font-family="Helvetica,sans-Serif" font-size="10.00"> +clusters</text>
</g>
<!-- Node3 -->
<g id="node3" class="node"><title>Node3</title>
<polygon fill="none" stroke="#bfbfbf" points="-0.5,-520.5 -0.5,-577.5 50.5,-577.5 50.5,-520.5 -0.5,-520.5"/>
<text text-anchor="middle" x="25" y="-565.5" font-family="Helvetica,sans-Serif" font-size="10.00">uint16_t</text>
<polyline fill="none" stroke="#bfbfbf" points="-0.5,-558.5 50.5,-558.5 "/>
<text text-anchor="middle" x="25" y="-546.5" font-family="Helvetica,sans-Serif" font-size="10.00"> </text>
<polyline fill="none" stroke="#bfbfbf" points="-0.5,-539.5 50.5,-539.5 "/>
<text text-anchor="middle" x="25" y="-527.5" font-family="Helvetica,sans-Serif" font-size="10.00"> </text>
</g>
<!-- Node3&#45;&gt;Node2 -->
<g id="edge2" class="edge"><title>Node3&#45;&gt;Node2</title>
<path fill="none" stroke="#404040" d="M23.2503,-520.391C22.1804,-483.6 24.7617,-417.614 52,-370 73.8371,-331.827 111.099,-300.156 144.693,-277.206"/>
<polygon fill="none" stroke="#404040" points="144.988,-277.01 147.769,-270.357 154.98,-270.366 152.199,-277.019 144.988,-277.01"/>
<text text-anchor="middle" x="79.5" y="-400.5" font-family="Helvetica,sans-Serif" font-size="10.00"> +qTot</text>
<text text-anchor="middle" x="79.5" y="-389.5" font-family="Helvetica,sans-Serif" font-size="10.00">+padPacked</text>
<text text-anchor="middle" x="79.5" y="-378.5" font-family="Helvetica,sans-Serif" font-size="10.00">+qMax</text>
</g>
<!-- Node4 -->
<g id="node4" class="node"><title>Node4</title>
<polygon fill="none" stroke="#bfbfbf" points="80,-520.5 80,-577.5 126,-577.5 126,-520.5 80,-520.5"/>
<text text-anchor="middle" x="103" y="-565.5" font-family="Helvetica,sans-Serif" font-size="10.00">uint8_t</text>
<polyline fill="none" stroke="#bfbfbf" points="80,-558.5 126,-558.5 "/>
<text text-anchor="middle" x="103" y="-546.5" font-family="Helvetica,sans-Serif" font-size="10.00"> </text>
<polyline fill="none" stroke="#bfbfbf" points="80,-539.5 126,-539.5 "/>
<text text-anchor="middle" x="103" y="-527.5" font-family="Helvetica,sans-Serif" font-size="10.00"> </text>
</g>
<!-- Node4&#45;&gt;Node2 -->
<g id="edge3" class="edge"><title>Node4&#45;&gt;Node2</title>
<path fill="none" stroke="#404040" d="M101.712,-520.48C100.969,-484.635 102.873,-420.581 122,-370 128.537,-352.714 137.851,-335.593 148.119,-319.661"/>
<polygon fill="none" stroke="#404040" points="148.324,-319.355 148.327,-312.143 154.985,-309.373 154.981,-316.584 148.324,-319.355"/>
<text text-anchor="middle" x="167.5" y="-395" font-family="Helvetica,sans-Serif" font-size="10.00"> +sigmaTimePacked</text>
<text text-anchor="middle" x="167.5" y="-384" font-family="Helvetica,sans-Serif" font-size="10.00">+sigmaPadPacked</text>
</g>
<!-- Node5 -->
<g id="node5" class="node"><title>Node5</title>
<polygon fill="none" stroke="#bfbfbf" points="191.5,-520.5 191.5,-577.5 242.5,-577.5 242.5,-520.5 191.5,-520.5"/>
<text text-anchor="middle" x="217" y="-565.5" font-family="Helvetica,sans-Serif" font-size="10.00">uint32_t</text>
<polyline fill="none" stroke="#bfbfbf" points="191.5,-558.5 242.5,-558.5 "/>
<text text-anchor="middle" x="217" y="-546.5" font-family="Helvetica,sans-Serif" font-size="10.00"> </text>
<polyline fill="none" stroke="#bfbfbf" points="191.5,-539.5 242.5,-539.5 "/>
<text text-anchor="middle" x="217" y="-527.5" font-family="Helvetica,sans-Serif" font-size="10.00"> </text>
</g>
<!-- Node5&#45;&gt;Node2 -->
<g id="edge4" class="edge"><title>Node5&#45;&gt;Node2</title>
<path fill="none" stroke="#404040" d="M217,-520.312C217,-481.723 217,-409.524 217,-347.542"/>
<polygon fill="none" stroke="#404040" points="217,-347.295 213,-341.295 217,-335.295 221,-341.295 217,-347.295"/>
<text text-anchor="middle" x="259.5" y="-389.5" font-family="Helvetica,sans-Serif" font-size="10.00"> +timeFlagsPacked</text>
</g>
<!-- Node6 -->
<g id="node6" class="node"><title>Node6</title>
<polygon fill="none" stroke="#bfbfbf" points="310.5,-520.5 310.5,-577.5 339.5,-577.5 339.5,-520.5 310.5,-520.5"/>
<text text-anchor="middle" x="325" y="-565.5" font-family="Helvetica,sans-Serif" font-size="10.00">int</text>
<polyline fill="none" stroke="#bfbfbf" points="310.5,-558.5 339.5,-558.5 "/>
<text text-anchor="middle" x="325" y="-546.5" font-family="Helvetica,sans-Serif" font-size="10.00"> </text>
<polyline fill="none" stroke="#bfbfbf" points="310.5,-539.5 339.5,-539.5 "/>
<text text-anchor="middle" x="325" y="-527.5" font-family="Helvetica,sans-Serif" font-size="10.00"> </text>
</g>
<!-- Node6&#45;&gt;Node2 -->
<g id="edge5" class="edge"><title>Node6&#45;&gt;Node2</title>
<path fill="none" stroke="#404040" d="M326.304,-520.213C326.962,-484.08 324.54,-419.714 303,-370 298.86,-360.445 294.068,-360.463 288,-352 286.346,-349.693 284.691,-347.346 283.038,-344.97"/>
<polygon fill="none" stroke="#404040" points="283.032,-344.961 276.345,-342.26 276.267,-335.05 282.953,-337.75 283.032,-344.961"/>
<text text-anchor="middle" x="373" y="-406" font-family="Helvetica,sans-Serif" font-size="10.00"> +scaleTimePacked</text>
<text text-anchor="middle" x="373" y="-395" font-family="Helvetica,sans-Serif" font-size="10.00">+scaleSigmaPadPacked</text>
<text text-anchor="middle" x="373" y="-384" font-family="Helvetica,sans-Serif" font-size="10.00">+scaleSigmaTimePacked</text>
<text text-anchor="middle" x="373" y="-373" font-family="Helvetica,sans-Serif" font-size="10.00">+scalePadPacked</text>
</g>
<!-- Node7 -->
<g id="node7" class="node"><title>Node7</title>
<polygon fill="none" stroke="#bfbfbf" points="297,-206.5 297,-263.5 353,-263.5 353,-206.5 297,-206.5"/>
<text text-anchor="middle" x="325" y="-251.5" font-family="Helvetica,sans-Serif" font-size="10.00">unsigned</text>
<polyline fill="none" stroke="#bfbfbf" points="297,-244.5 353,-244.5 "/>
<text text-anchor="middle" x="325" y="-232.5" font-family="Helvetica,sans-Serif" font-size="10.00"> </text>
<polyline fill="none" stroke="#bfbfbf" points="297,-225.5 353,-225.5 "/>
<text text-anchor="middle" x="325" y="-213.5" font-family="Helvetica,sans-Serif" font-size="10.00"> </text>
</g>
<!-- Node7&#45;&gt;Node1 -->
<g id="edge6" class="edge"><title>Node7&#45;&gt;Node1</title>
<path fill="none" stroke="#404040" d="M325,-206.469C325,-174.131 325,-120.008 325,-81.4231"/>
<polygon fill="none" stroke="#404040" points="325,-81.2384 321,-75.2384 325,-69.2384 329,-75.2384 325,-81.2384"/>
<text text-anchor="middle" x="351" y="-91.5" font-family="Helvetica,sans-Serif" font-size="10.00"> +nClusters</text>
</g>
<!-- Node8 -->
<g id="node8" class="node"><title>Node8</title>
<g id="a_node8"><a xlink:href="../../dc/daa/classo2_1_1dataformats_1_1MCTruthContainer.html" target="_top" xlink:title="{o2::dataformats::MCTruth\lContainer\&lt; o2::o2::MCCompLabel \&gt;\n||+ MCTruthContainer()\l+ MCTruthContainer()\l+ ~MCTruthContainer()\l+ operator=()\l+ getMCTruthHeader()\l+ getElement()\l+ getIndexedSize()\l+ getNElements()\l+ getLabels()\l+ getLabels()\l+ clear()\l+ addElement()\l+ addElements()\l+ addElements()\l+ addElementRandomAccess()\l+ ClassDefNV()\l}">
<polygon fill="none" stroke="black" points="371.5,-118.5 371.5,-351.5 546.5,-351.5 546.5,-118.5 371.5,-118.5"/>
<text text-anchor="start" x="379.5" y="-339.5" font-family="Helvetica,sans-Serif" font-size="10.00">o2::dataformats::MCTruth</text>
<text text-anchor="middle" x="459" y="-328.5" font-family="Helvetica,sans-Serif" font-size="10.00">Container&lt; o2::o2::MCCompLabel &gt;</text>
<polyline fill="none" stroke="black" points="371.5,-321.5 546.5,-321.5 "/>
<text text-anchor="middle" x="459" y="-309.5" font-family="Helvetica,sans-Serif" font-size="10.00"> </text>
<polyline fill="none" stroke="black" points="371.5,-302.5 546.5,-302.5 "/>
<text text-anchor="start" x="379.5" y="-290.5" font-family="Helvetica,sans-Serif" font-size="10.00">+ MCTruthContainer()</text>
<text text-anchor="start" x="379.5" y="-279.5" font-family="Helvetica,sans-Serif" font-size="10.00">+ MCTruthContainer()</text>
<text text-anchor="start" x="379.5" y="-268.5" font-family="Helvetica,sans-Serif" font-size="10.00">+ ~MCTruthContainer()</text>
<text text-anchor="start" x="379.5" y="-257.5" font-family="Helvetica,sans-Serif" font-size="10.00">+ operator=()</text>
<text text-anchor="start" x="379.5" y="-246.5" font-family="Helvetica,sans-Serif" font-size="10.00">+ getMCTruthHeader()</text>
<text text-anchor="start" x="379.5" y="-235.5" font-family="Helvetica,sans-Serif" font-size="10.00">+ getElement()</text>
<text text-anchor="start" x="379.5" y="-224.5" font-family="Helvetica,sans-Serif" font-size="10.00">+ getIndexedSize()</text>
<text text-anchor="start" x="379.5" y="-213.5" font-family="Helvetica,sans-Serif" font-size="10.00">+ getNElements()</text>
<text text-anchor="start" x="379.5" y="-202.5" font-family="Helvetica,sans-Serif" font-size="10.00">+ getLabels()</text>
<text text-anchor="start" x="379.5" y="-191.5" font-family="Helvetica,sans-Serif" font-size="10.00">+ getLabels()</text>
<text text-anchor="start" x="379.5" y="-180.5" font-family="Helvetica,sans-Serif" font-size="10.00">+ clear()</text>
<text text-anchor="start" x="379.5" y="-169.5" font-family="Helvetica,sans-Serif" font-size="10.00">+ addElement()</text>
<text text-anchor="start" x="379.5" y="-158.5" font-family="Helvetica,sans-Serif" font-size="10.00">+ addElements()</text>
<text text-anchor="start" x="379.5" y="-147.5" font-family="Helvetica,sans-Serif" font-size="10.00">+ addElements()</text>
<text text-anchor="start" x="379.5" y="-136.5" font-family="Helvetica,sans-Serif" font-size="10.00">+ addElementRandomAccess()</text>
<text text-anchor="start" x="379.5" y="-125.5" font-family="Helvetica,sans-Serif" font-size="10.00">+ ClassDefNV()</text>
</a>
</g>
</g>
<!-- Node8&#45;&gt;Node1 -->
<g id="edge7" class="edge"><title>Node8&#45;&gt;Node1</title>
<path fill="none" stroke="#404040" d="M401.817,-118.163C395.249,-107.668 388.28,-97.4468 381,-88 378.411,-84.6404 375.596,-81.3089 372.65,-78.051"/>
<polygon fill="none" stroke="#404040" points="372.383,-77.7719 365.345,-76.2023 364.087,-69.1018 371.125,-70.6714 372.383,-77.7719"/>
<text text-anchor="middle" x="430" y="-91.5" font-family="Helvetica,sans-Serif" font-size="10.00"> +clustersMCTruth</text>
</g>
<!-- Node9 -->
<g id="node9" class="node"><title>Node9</title>
<g id="a_node9"><a xlink:href="../../dc/daa/classo2_1_1dataformats_1_1MCTruthContainer.html" target="_top" xlink:title="{o2::dataformats::MCTruth\lContainer\&lt; T \&gt;\n||+ MCTruthContainer()\l+ ~MCTruthContainer()\l+ MCTruthContainer()\l+ operator=()\l+ getMCTruthHeader()\l+ getElement()\l+ getIndexedSize()\l+ getNElements()\l+ getLabels()\l+ getLabels()\l+ clear()\l+ addElement()\l+ addElements()\l+ addElements()\l+ addElementRandomAccess()\l+ ClassDefNV()\l}">
<polygon fill="none" stroke="black" points="383.5,-432.5 383.5,-665.5 536.5,-665.5 536.5,-432.5 383.5,-432.5"/>
<text text-anchor="start" x="391.5" y="-653.5" font-family="Helvetica,sans-Serif" font-size="10.00">o2::dataformats::MCTruth</text>
<text text-anchor="middle" x="460" y="-642.5" font-family="Helvetica,sans-Serif" font-size="10.00">Container&lt; T &gt;</text>
<polyline fill="none" stroke="black" points="383.5,-635.5 536.5,-635.5 "/>
<text text-anchor="middle" x="460" y="-623.5" font-family="Helvetica,sans-Serif" font-size="10.00"> </text>
<polyline fill="none" stroke="black" points="383.5,-616.5 536.5,-616.5 "/>
<text text-anchor="start" x="391.5" y="-604.5" font-family="Helvetica,sans-Serif" font-size="10.00">+ MCTruthContainer()</text>
<text text-anchor="start" x="391.5" y="-593.5" font-family="Helvetica,sans-Serif" font-size="10.00">+ ~MCTruthContainer()</text>
<text text-anchor="start" x="391.5" y="-582.5" font-family="Helvetica,sans-Serif" font-size="10.00">+ MCTruthContainer()</text>
<text text-anchor="start" x="391.5" y="-571.5" font-family="Helvetica,sans-Serif" font-size="10.00">+ operator=()</text>
<text text-anchor="start" x="391.5" y="-560.5" font-family="Helvetica,sans-Serif" font-size="10.00">+ getMCTruthHeader()</text>
<text text-anchor="start" x="391.5" y="-549.5" font-family="Helvetica,sans-Serif" font-size="10.00">+ getElement()</text>
<text text-anchor="start" x="391.5" y="-538.5" font-family="Helvetica,sans-Serif" font-size="10.00">+ getIndexedSize()</text>
<text text-anchor="start" x="391.5" y="-527.5" font-family="Helvetica,sans-Serif" font-size="10.00">+ getNElements()</text>
<text text-anchor="start" x="391.5" y="-516.5" font-family="Helvetica,sans-Serif" font-size="10.00">+ getLabels()</text>
<text text-anchor="start" x="391.5" y="-505.5" font-family="Helvetica,sans-Serif" font-size="10.00">+ getLabels()</text>
<text text-anchor="start" x="391.5" y="-494.5" font-family="Helvetica,sans-Serif" font-size="10.00">+ clear()</text>
<text text-anchor="start" x="391.5" y="-483.5" font-family="Helvetica,sans-Serif" font-size="10.00">+ addElement()</text>
<text text-anchor="start" x="391.5" y="-472.5" font-family="Helvetica,sans-Serif" font-size="10.00">+ addElements()</text>
<text text-anchor="start" x="391.5" y="-461.5" font-family="Helvetica,sans-Serif" font-size="10.00">+ addElements()</text>
<text text-anchor="start" x="391.5" y="-450.5" font-family="Helvetica,sans-Serif" font-size="10.00">+ addElementRandomAccess()</text>
<text text-anchor="start" x="391.5" y="-439.5" font-family="Helvetica,sans-Serif" font-size="10.00">+ ClassDefNV()</text>
</a>
</g>
</g>
<!-- Node9&#45;&gt;Node8 -->
<g id="edge8" class="edge"><title>Node9&#45;&gt;Node8</title>
<path fill="none" stroke="orange" d="M459.596,-421.997C459.522,-398.713 459.444,-374.502 459.37,-351.547"/>
<polygon fill="orange" stroke="orange" points="456.097,-422.277 459.629,-432.266 463.097,-422.255 456.097,-422.277"/>
<text text-anchor="middle" x="519" y="-389.5" font-family="Helvetica,sans-Serif" font-size="10.00"> &lt; o2::o2::MCCompLabel &gt;</text>
</g>
</g>
</svg>
        <g id="navigator" transform="translate(0 0)" fill="#404254">
                <rect fill="#f2f5e9" fill-opacity="0.5" stroke="#606060" stroke-width=".5" x="0" y="0" width="60" height="60"/>
                <use id="zoomplus" xlink:href="#zoomPlus" x="17" y="9" onmousedown="handleZoom(evt,'in')"/>
                <use id="zoomminus" xlink:href="#zoomMin" x="42" y="9" onmousedown="handleZoom(evt,'out')"/>
                <use id="reset" xlink:href="#resetDef" x="30" y="36" onmousedown="handleReset()"/>
                <g id="arrowUp" xlink:href="#dirArrow" transform="translate(30 24)" onmousedown="handlePan(0,-1)">
                  <use xlink:href="#rim" fill="#404040">
                        <set attributeName="fill" to="#808080" begin="arrowUp.mouseover" end="arrowUp.mouseout"/>
                  </use>
                  <path fill="none" stroke="white" stroke-width="1.5" d="M0,-3.0v7 M-2.5,-0.5L0,-3.0L2.5,-0.5"/>
                </g>
                <g id="arrowRight" xlink:href="#dirArrow" transform="rotate(90) translate(36 -43)" onmousedown="handlePan(1,0)">
                  <use xlink:href="#rim" fill="#404040">
                        <set attributeName="fill" to="#808080" begin="arrowRight.mouseover" end="arrowRight.mouseout"/>
                  </use>
                  <path fill="none" stroke="white" stroke-width="1.5" d="M0,-3.0v7 M-2.5,-0.5L0,-3.0L2.5,-0.5"/>
                </g>
                <g id="arrowDown" xlink:href="#dirArrow" transform="rotate(180) translate(-30 -48)" onmousedown="handlePan(0,1)">
                  <use xlink:href="#rim" fill="#404040">
                        <set attributeName="fill" to="#808080" begin="arrowDown.mouseover" end="arrowDown.mouseout"/>
                  </use>
                  <path fill="none" stroke="white" stroke-width="1.5" d="M0,-3.0v7 M-2.5,-0.5L0,-3.0L2.5,-0.5"/>
                </g>
                <g id="arrowLeft" xlink:href="#dirArrow" transform="rotate(270) translate(-36 17)" onmousedown="handlePan(-1,0)">
                  <use xlink:href="#rim" fill="#404040">
                        <set attributeName="fill" to="#808080" begin="arrowLeft.mouseover" end="arrowLeft.mouseout"/>
                  </use>
                  <path fill="none" stroke="white" stroke-width="1.5" d="M0,-3.0v7 M-2.5,-0.5L0,-3.0L2.5,-0.5"/>
                </g>
        </g>
        <svg viewBox="0 0 15 15" width="100%" height="30px" preserveAspectRatio="xMaxYMin meet">
         <g id="arrow_out" transform="scale(0.3 0.3)">
          <a xlink:href="structo2_1_1TPC_1_1ClusterNativeAccessFullTPC__coll__graph_org.svg" target="_base">
           <rect id="button" ry="5" rx="5" y="6" x="6" height="38" width="38"
                fill="#f2f5e9" fill-opacity="0.5" stroke="#606060" stroke-width="1.0"/>
           <path id="arrow"
             d="M 11.500037,31.436501 C 11.940474,20.09759 22.043105,11.32322 32.158766,21.979434 L 37.068811,17.246167 C 37.068811,17.246167 37.088388,32 37.088388,32 L 22.160133,31.978069 C 22.160133,31.978069 26.997745,27.140456 26.997745,27.140456 C 18.528582,18.264221 13.291696,25.230495 11.500037,31.436501 z"
             style="fill:#404040;"/>
          </a>
         </g>
        </svg>
</svg>
