<?xml version="1.0" encoding="UTF-8" standalone="no"?>
<!DOCTYPE svg PUBLIC "-//W3C//DTD SVG 1.1//EN"
 "http://www.w3.org/Graphics/SVG/1.1/DTD/svg11.dtd">
<!-- Generated by graphviz version 2.36.0 (20140111.2315)
 -->
<!-- Title: /home/travis/build/AliceO2Group/AliceO2/DataFormats/Detectors/Common/include/DetectorsCommonDataFormats/DetMatrixCache.h Pages: 1 -->
<svg width="1815pt" height="276pt"
 viewBox="0.00 0.00 1815.00 276.00" xmlns="http://www.w3.org/2000/svg" xmlns:xlink="http://www.w3.org/1999/xlink">
<g id="graph0" class="graph" transform="scale(1 1) rotate(0) translate(4 272)">
<title>/home/travis/build/AliceO2Group/AliceO2/DataFormats/Detectors/Common/include/DetectorsCommonDataFormats/DetMatrixCache.h</title>
<!-- Node1 -->
<g id="node1" class="node"><title>Node1</title>
<polygon fill="#bfbfbf" stroke="black" points="912.5,-204.5 912.5,-267.5 1091.5,-267.5 1091.5,-204.5 912.5,-204.5"/>
<text text-anchor="start" x="920.5" y="-255.5" font-family="Helvetica,sans-Serif" font-size="10.00">/home/travis/build</text>
<text text-anchor="start" x="920.5" y="-244.5" font-family="Helvetica,sans-Serif" font-size="10.00">/AliceO2Group/AliceO2</text>
<text text-anchor="start" x="920.5" y="-233.5" font-family="Helvetica,sans-Serif" font-size="10.00">/DataFormats/Detectors</text>
<text text-anchor="start" x="920.5" y="-222.5" font-family="Helvetica,sans-Serif" font-size="10.00">/Common/include/DetectorsCommon</text>
<text text-anchor="middle" x="1002" y="-211.5" font-family="Helvetica,sans-Serif" font-size="10.00">DataFormats/DetMatrixCache.h</text>
</g>
<!-- Node2 -->
<g id="node2" class="node"><title>Node2</title>
<polygon fill="none" stroke="#bfbfbf" points="157.5,-142.5 157.5,-161.5 228.5,-161.5 228.5,-142.5 157.5,-142.5"/>
<text text-anchor="middle" x="193" y="-149.5" font-family="Helvetica,sans-Serif" font-size="10.00">FairLogger.h</text>
</g>
<!-- Node1&#45;&gt;Node2 -->
<g id="edge1" class="edge"><title>Node1&#45;&gt;Node2</title>
<path fill="none" stroke="midnightblue" d="M912.381,-232.976C769.556,-228.436 482.032,-213.909 243,-168 237.956,-167.031 232.695,-165.756 227.56,-164.358"/>
<polygon fill="midnightblue" stroke="midnightblue" points="228.511,-160.99 217.931,-161.566 226.561,-167.713 228.511,-160.99"/>
</g>
<!-- Node3 -->
<g id="node3" class="node"><title>Node3</title>
<polygon fill="none" stroke="#bfbfbf" points="1345,-6.5 1345,-25.5 1383,-25.5 1383,-6.5 1345,-6.5"/>
<text text-anchor="middle" x="1364" y="-13.5" font-family="Helvetica,sans-Serif" font-size="10.00">array</text>
</g>
<!-- Node1&#45;&gt;Node3 -->
<g id="edge2" class="edge"><title>Node1&#45;&gt;Node3</title>
<path fill="none" stroke="midnightblue" d="M912.248,-228.882C698.758,-212.698 185.04,-163.323 276,-68 313.603,-28.593 1165.1,-18.8065 1334.75,-17.2452"/>
<polygon fill="midnightblue" stroke="midnightblue" points="1334.96,-20.7436 1344.93,-17.154 1334.9,-13.7439 1334.96,-20.7436"/>
</g>
<!-- Node4 -->
<g id="node4" class="node"><title>Node4</title>
<polygon fill="none" stroke="#bfbfbf" points="1587,-142.5 1587,-161.5 1631,-161.5 1631,-142.5 1587,-142.5"/>
<text text-anchor="middle" x="1609" y="-149.5" font-family="Helvetica,sans-Serif" font-size="10.00">vector</text>
</g>
<!-- Node1&#45;&gt;Node4 -->
<g id="edge3" class="edge"><title>Node1&#45;&gt;Node4</title>
<path fill="none" stroke="midnightblue" d="M1091.65,-233.787C1206.52,-230.159 1410.77,-216.672 1578,-168 1580.19,-167.362 1582.42,-166.58 1584.62,-165.713"/>
<polygon fill="midnightblue" stroke="midnightblue" points="1586.26,-168.816 1593.95,-161.531 1583.4,-162.428 1586.26,-168.816"/>
</g>
<!-- Node5 -->
<g id="node5" class="node"><title>Node5</title>
<g id="a_node5"><a xlink:href="../../d6/d31/DetID_8h.html" target="_top" xlink:title="DetectorsCommonDataFormats\l/DetID.h">
<polygon fill="none" stroke="black" points="1413,-137 1413,-167 1569,-167 1569,-137 1413,-137"/>
<text text-anchor="start" x="1421" y="-155" font-family="Helvetica,sans-Serif" font-size="10.00">DetectorsCommonDataFormats</text>
<text text-anchor="middle" x="1491" y="-144" font-family="Helvetica,sans-Serif" font-size="10.00">/DetID.h</text>
</a>
</g>
</g>
<!-- Node1&#45;&gt;Node5 -->
<g id="edge4" class="edge"><title>Node1&#45;&gt;Node5</title>
<path fill="none" stroke="midnightblue" d="M1091.69,-219.96C1180.23,-205.113 1314.79,-182.549 1402.8,-167.789"/>
<polygon fill="midnightblue" stroke="midnightblue" points="1403.48,-171.224 1412.77,-166.119 1402.33,-164.321 1403.48,-171.224"/>
</g>
<!-- Node6 -->
<g id="node6" class="node"><title>Node6</title>
<polygon fill="none" stroke="#bfbfbf" points="1334,-74.5 1334,-93.5 1390,-93.5 1390,-74.5 1334,-74.5"/>
<text text-anchor="middle" x="1362" y="-81.5" font-family="Helvetica,sans-Serif" font-size="10.00">Rtypes.h</text>
</g>
<!-- Node1&#45;&gt;Node6 -->
<g id="edge27" class="edge"><title>Node1&#45;&gt;Node6</title>
<path fill="none" stroke="midnightblue" d="M1075.29,-204.464C1154.22,-171.576 1276,-120.833 1331.98,-97.5084"/>
<polygon fill="midnightblue" stroke="midnightblue" points="1333.44,-100.69 1341.33,-93.6134 1330.75,-94.2289 1333.44,-100.69"/>
</g>
<!-- Node14 -->
<g id="node14" class="node"><title>Node14</title>
<g id="a_node14"><a xlink:href="../../dd/d76/Cartesian3D_8h.html" target="_top" xlink:title="MathUtils/Cartesian3D.h">
<polygon fill="none" stroke="black" points="817.5,-142.5 817.5,-161.5 942.5,-161.5 942.5,-142.5 817.5,-142.5"/>
<text text-anchor="middle" x="880" y="-149.5" font-family="Helvetica,sans-Serif" font-size="10.00">MathUtils/Cartesian3D.h</text>
</a>
</g>
</g>
<!-- Node1&#45;&gt;Node14 -->
<g id="edge15" class="edge"><title>Node1&#45;&gt;Node14</title>
<path fill="none" stroke="midnightblue" d="M956.572,-204.466C937.721,-191.796 916.744,-177.697 901.52,-167.464"/>
<polygon fill="midnightblue" stroke="midnightblue" points="903.106,-164.313 892.854,-161.64 899.201,-170.123 903.106,-164.313"/>
</g>
<!-- Node5&#45;&gt;Node3 -->
<g id="edge6" class="edge"><title>Node5&#45;&gt;Node3</title>
<path fill="none" stroke="midnightblue" d="M1475.03,-136.644C1464.08,-126.624 1449.36,-112.804 1437,-100 1415.66,-77.8945 1392.47,-50.9772 1378.08,-33.9114"/>
<polygon fill="midnightblue" stroke="midnightblue" points="1380.52,-31.3771 1371.41,-25.9628 1375.16,-35.8745 1380.52,-31.3771"/>
</g>
<!-- Node5&#45;&gt;Node6 -->
<g id="edge5" class="edge"><title>Node5&#45;&gt;Node6</title>
<path fill="none" stroke="midnightblue" d="M1463.33,-136.841C1441.01,-125.425 1409.86,-109.485 1388,-98.3033"/>
<polygon fill="midnightblue" stroke="midnightblue" points="1389.47,-95.1208 1378.97,-93.6819 1386.28,-101.353 1389.47,-95.1208"/>
</g>
<!-- Node7 -->
<g id="node7" class="node"><title>Node7</title>
<polygon fill="none" stroke="#bfbfbf" points="1554.5,-74.5 1554.5,-93.5 1595.5,-93.5 1595.5,-74.5 1554.5,-74.5"/>
<text text-anchor="middle" x="1575" y="-81.5" font-family="Helvetica,sans-Serif" font-size="10.00">bitset</text>
</g>
<!-- Node5&#45;&gt;Node7 -->
<g id="edge7" class="edge"><title>Node5&#45;&gt;Node7</title>
<path fill="none" stroke="midnightblue" d="M1509.23,-136.679C1522.97,-125.879 1541.78,-111.098 1555.77,-100.11"/>
<polygon fill="midnightblue" stroke="midnightblue" points="1558.06,-102.759 1563.76,-93.8283 1553.74,-97.2544 1558.06,-102.759"/>
</g>
<!-- Node8 -->
<g id="node8" class="node"><title>Node8</title>
<polygon fill="none" stroke="#bfbfbf" points="1613.5,-74.5 1613.5,-93.5 1662.5,-93.5 1662.5,-74.5 1613.5,-74.5"/>
<text text-anchor="middle" x="1638" y="-81.5" font-family="Helvetica,sans-Serif" font-size="10.00">cassert</text>
</g>
<!-- Node5&#45;&gt;Node8 -->
<g id="edge8" class="edge"><title>Node5&#45;&gt;Node8</title>
<path fill="none" stroke="midnightblue" d="M1522.54,-136.841C1548.3,-125.272 1584.42,-109.055 1609.37,-97.8547"/>
<polygon fill="midnightblue" stroke="midnightblue" points="1610.97,-100.971 1618.66,-93.6819 1608.11,-94.5849 1610.97,-100.971"/>
</g>
<!-- Node9 -->
<g id="node9" class="node"><title>Node9</title>
<polygon fill="none" stroke="#bfbfbf" points="1681,-74.5 1681,-93.5 1727,-93.5 1727,-74.5 1681,-74.5"/>
<text text-anchor="middle" x="1704" y="-81.5" font-family="Helvetica,sans-Serif" font-size="10.00">cstdint</text>
</g>
<!-- Node5&#45;&gt;Node9 -->
<g id="edge9" class="edge"><title>Node5&#45;&gt;Node9</title>
<path fill="none" stroke="midnightblue" d="M1548.86,-136.976C1584.5,-127.755 1630.9,-114.7 1671,-100 1672.91,-99.3015 1674.85,-98.5409 1676.81,-97.745"/>
<polygon fill="midnightblue" stroke="midnightblue" points="1678.61,-100.78 1686.39,-93.5946 1675.83,-94.3557 1678.61,-100.78"/>
</g>
<!-- Node10 -->
<g id="node10" class="node"><title>Node10</title>
<polygon fill="none" stroke="#bfbfbf" points="1745,-74.5 1745,-93.5 1807,-93.5 1807,-74.5 1745,-74.5"/>
<text text-anchor="middle" x="1776" y="-81.5" font-family="Helvetica,sans-Serif" font-size="10.00">type_traits</text>
</g>
<!-- Node5&#45;&gt;Node10 -->
<g id="edge10" class="edge"><title>Node5&#45;&gt;Node10</title>
<path fill="none" stroke="midnightblue" d="M1564.64,-136.964C1624.65,-125.285 1704.44,-109.143 1736,-100 1739.13,-99.0919 1742.37,-98.0528 1745.59,-96.9546"/>
<polygon fill="midnightblue" stroke="midnightblue" points="1746.81,-100.236 1755.03,-93.5546 1744.44,-93.6496 1746.81,-100.236"/>
</g>
<!-- Node11 -->
<g id="node11" class="node"><title>Node11</title>
<g id="a_node11"><a xlink:href="../../d9/d52/Common_2MathUtils_2include_2MathUtils_2Utils_8h.html" target="_top" xlink:title="MathUtils/Utils.h">
<polygon fill="none" stroke="black" points="1446,-74.5 1446,-93.5 1536,-93.5 1536,-74.5 1446,-74.5"/>
<text text-anchor="middle" x="1491" y="-81.5" font-family="Helvetica,sans-Serif" font-size="10.00">MathUtils/Utils.h</text>
</a>
</g>
</g>
<!-- Node5&#45;&gt;Node11 -->
<g id="edge11" class="edge"><title>Node5&#45;&gt;Node11</title>
<path fill="none" stroke="midnightblue" d="M1491,-136.679C1491,-127.101 1491,-114.394 1491,-103.977"/>
<polygon fill="midnightblue" stroke="midnightblue" points="1494.5,-103.828 1491,-93.8283 1487.5,-103.828 1494.5,-103.828"/>
</g>
<!-- Node11&#45;&gt;Node3 -->
<g id="edge12" class="edge"><title>Node11&#45;&gt;Node3</title>
<path fill="none" stroke="midnightblue" d="M1474.14,-74.4194C1454.4,-64.35 1420.75,-47.1072 1392,-32 1391.02,-31.487 1390.03,-30.9626 1389.02,-30.4318"/>
<polygon fill="midnightblue" stroke="midnightblue" points="1390.44,-27.2202 1379.97,-25.6114 1387.15,-33.3995 1390.44,-27.2202"/>
</g>
<!-- Node12 -->
<g id="node12" class="node"><title>Node12</title>
<polygon fill="none" stroke="#bfbfbf" points="1599,-6.5 1599,-25.5 1643,-25.5 1643,-6.5 1599,-6.5"/>
<text text-anchor="middle" x="1621" y="-13.5" font-family="Helvetica,sans-Serif" font-size="10.00">cmath</text>
</g>
<!-- Node11&#45;&gt;Node12 -->
<g id="edge13" class="edge"><title>Node11&#45;&gt;Node12</title>
<path fill="none" stroke="midnightblue" d="M1508,-74.3717C1530.09,-63.1557 1568.9,-43.4532 1594.78,-30.3136"/>
<polygon fill="midnightblue" stroke="midnightblue" points="1596.67,-33.2783 1604,-25.6305 1593.5,-27.0366 1596.67,-33.2783"/>
</g>
<!-- Node13 -->
<g id="node13" class="node"><title>Node13</title>
<g id="a_node13"><a xlink:href="../../d6/d84/MathConstants_8h.html" target="_top" xlink:title="useful math constants ">
<polygon fill="none" stroke="black" points="1401.5,-6.5 1401.5,-25.5 1580.5,-25.5 1580.5,-6.5 1401.5,-6.5"/>
<text text-anchor="middle" x="1491" y="-13.5" font-family="Helvetica,sans-Serif" font-size="10.00">CommonConstants/MathConstants.h</text>
</a>
</g>
</g>
<!-- Node11&#45;&gt;Node13 -->
<g id="edge14" class="edge"><title>Node11&#45;&gt;Node13</title>
<path fill="none" stroke="midnightblue" d="M1491,-74.3717C1491,-64.6426 1491,-48.528 1491,-35.8504"/>
<polygon fill="midnightblue" stroke="midnightblue" points="1494.5,-35.8411 1491,-25.8411 1487.5,-35.8412 1494.5,-35.8411"/>
</g>
<!-- Node14&#45;&gt;Node6 -->
<g id="edge21" class="edge"><title>Node14&#45;&gt;Node6</title>
<path fill="none" stroke="midnightblue" d="M942.52,-145.939C1047.38,-137.098 1254.17,-118.058 1325,-100 1327.99,-99.2369 1331.07,-98.285 1334.1,-97.2331"/>
<polygon fill="midnightblue" stroke="midnightblue" points="1335.41,-100.477 1343.51,-93.641 1332.92,-93.9372 1335.41,-100.477"/>
</g>
<!-- Node15 -->
<g id="node15" class="node"><title>Node15</title>
<polygon fill="none" stroke="#bfbfbf" points="357.5,-69 357.5,-99 508.5,-99 508.5,-69 357.5,-69"/>
<text text-anchor="start" x="365.5" y="-87" font-family="Helvetica,sans-Serif" font-size="10.00">Math/GenVector/Displacement</text>
<text text-anchor="middle" x="433" y="-76" font-family="Helvetica,sans-Serif" font-size="10.00">Vector3D.h</text>
</g>
<!-- Node14&#45;&gt;Node15 -->
<g id="edge16" class="edge"><title>Node14&#45;&gt;Node15</title>
<path fill="none" stroke="midnightblue" d="M817.444,-142.858C747.319,-133.579 629.966,-117.601 518.588,-100.06"/>
<polygon fill="midnightblue" stroke="midnightblue" points="518.945,-96.5729 508.521,-98.4674 517.851,-103.487 518.945,-96.5729"/>
</g>
<!-- Node16 -->
<g id="node16" class="node"><title>Node16</title>
<polygon fill="none" stroke="#bfbfbf" points="527,-74.5 527,-93.5 703,-93.5 703,-74.5 527,-74.5"/>
<text text-anchor="middle" x="615" y="-81.5" font-family="Helvetica,sans-Serif" font-size="10.00">Math/GenVector/PositionVector3D.h</text>
</g>
<!-- Node14&#45;&gt;Node16 -->
<g id="edge17" class="edge"><title>Node14&#45;&gt;Node16</title>
<path fill="none" stroke="midnightblue" d="M845.628,-142.439C797.969,-130.57 711.776,-109.103 659.329,-96.0406"/>
<polygon fill="midnightblue" stroke="midnightblue" points="659.861,-92.5661 649.312,-93.5455 658.169,-99.3586 659.861,-92.5661"/>
</g>
<!-- Node17 -->
<g id="node17" class="node"><title>Node17</title>
<polygon fill="none" stroke="#bfbfbf" points="720.5,-74.5 720.5,-93.5 869.5,-93.5 869.5,-74.5 720.5,-74.5"/>
<text text-anchor="middle" x="795" y="-81.5" font-family="Helvetica,sans-Serif" font-size="10.00">Math/GenVector/Rotation3D.h</text>
</g>
<!-- Node14&#45;&gt;Node17 -->
<g id="edge18" class="edge"><title>Node14&#45;&gt;Node17</title>
<path fill="none" stroke="midnightblue" d="M868.888,-142.372C855.016,-131.6 831.063,-113.002 814.198,-99.9065"/>
<polygon fill="midnightblue" stroke="midnightblue" points="816.16,-96.999 806.115,-93.6305 811.867,-102.528 816.16,-96.999"/>
</g>
<!-- Node18 -->
<g id="node18" class="node"><title>Node18</title>
<polygon fill="none" stroke="#bfbfbf" points="888,-74.5 888,-93.5 1044,-93.5 1044,-74.5 888,-74.5"/>
<text text-anchor="middle" x="966" y="-81.5" font-family="Helvetica,sans-Serif" font-size="10.00">Math/GenVector/Transform3D.h</text>
</g>
<!-- Node14&#45;&gt;Node18 -->
<g id="edge19" class="edge"><title>Node14&#45;&gt;Node18</title>
<path fill="none" stroke="midnightblue" d="M891.243,-142.372C905.278,-131.6 929.512,-113.002 946.576,-99.9065"/>
<polygon fill="midnightblue" stroke="midnightblue" points="948.952,-102.495 954.754,-93.6305 944.69,-96.9421 948.952,-102.495"/>
</g>
<!-- Node19 -->
<g id="node19" class="node"><title>Node19</title>
<polygon fill="none" stroke="#bfbfbf" points="1062,-74.5 1062,-93.5 1222,-93.5 1222,-74.5 1062,-74.5"/>
<text text-anchor="middle" x="1142" y="-81.5" font-family="Helvetica,sans-Serif" font-size="10.00">Math/GenVector/Translation3D.h</text>
</g>
<!-- Node14&#45;&gt;Node19 -->
<g id="edge20" class="edge"><title>Node14&#45;&gt;Node19</title>
<path fill="none" stroke="midnightblue" d="M913.983,-142.439C961.103,-130.57 1046.32,-109.103 1098.17,-96.0406"/>
<polygon fill="midnightblue" stroke="midnightblue" points="1099.23,-99.3823 1108.08,-93.5455 1097.52,-92.5944 1099.23,-99.3823"/>
</g>
<!-- Node20 -->
<g id="node20" class="node"><title>Node20</title>
<polygon fill="none" stroke="#bfbfbf" points="1240,-74.5 1240,-93.5 1316,-93.5 1316,-74.5 1240,-74.5"/>
<text text-anchor="middle" x="1278" y="-81.5" font-family="Helvetica,sans-Serif" font-size="10.00">TGeoMatrix.h</text>
</g>
<!-- Node14&#45;&gt;Node20 -->
<g id="edge22" class="edge"><title>Node14&#45;&gt;Node20</title>
<path fill="none" stroke="midnightblue" d="M942.711,-145.037C1013.38,-137.592 1131.39,-122.966 1231,-100 1235.23,-99.0258 1239.62,-97.8503 1243.95,-96.5912"/>
<polygon fill="midnightblue" stroke="midnightblue" points="1245.29,-99.8404 1253.82,-93.557 1243.23,-93.1492 1245.29,-99.8404"/>
</g>
<!-- Node21 -->
<g id="node21" class="node"><title>Node21</title>
<polygon fill="none" stroke="#bfbfbf" points="285,-74.5 285,-93.5 339,-93.5 339,-74.5 285,-74.5"/>
<text text-anchor="middle" x="312" y="-81.5" font-family="Helvetica,sans-Serif" font-size="10.00">iostream</text>
</g>
<!-- Node14&#45;&gt;Node21 -->
<g id="edge23" class="edge"><title>Node14&#45;&gt;Node21</title>
<path fill="none" stroke="midnightblue" d="M817.137,-151.006C716.542,-149.679 513.843,-141.497 348,-100 345.009,-99.2517 341.944,-98.2951 338.924,-97.2279"/>
<polygon fill="midnightblue" stroke="midnightblue" points="340.173,-93.9582 329.586,-93.562 337.615,-100.474 340.173,-93.9582"/>
</g>
<!-- Node22 -->
<g id="node22" class="node"><title>Node22</title>
<g id="a_node22"><a xlink:href="../../d2/dd0/Cartesian2D_8h.html" target="_top" xlink:title="MathUtils/Cartesian2D.h">
<polygon fill="none" stroke="black" points="103.5,-74.5 103.5,-93.5 228.5,-93.5 228.5,-74.5 103.5,-74.5"/>
<text text-anchor="middle" x="166" y="-81.5" font-family="Helvetica,sans-Serif" font-size="10.00">MathUtils/Cartesian2D.h</text>
</a>
</g>
</g>
<!-- Node14&#45;&gt;Node22 -->
<g id="edge24" class="edge"><title>Node14&#45;&gt;Node22</title>
<path fill="none" stroke="midnightblue" d="M817.292,-146.77C707.453,-139.123 473.17,-121.753 276,-100 262.642,-98.5263 248.4,-96.7425 234.747,-94.927"/>
<polygon fill="midnightblue" stroke="midnightblue" points="234.824,-91.4058 224.446,-93.5371 233.888,-98.3429 234.824,-91.4058"/>
</g>
<!-- Node23 -->
<g id="node23" class="node"><title>Node23</title>
<polygon fill="none" stroke="#bfbfbf" points="-0.5,-1 -0.5,-31 150.5,-31 150.5,-1 -0.5,-1"/>
<text text-anchor="start" x="7.5" y="-19" font-family="Helvetica,sans-Serif" font-size="10.00">Math/GenVector/Displacement</text>
<text text-anchor="middle" x="75" y="-8" font-family="Helvetica,sans-Serif" font-size="10.00">Vector2D.h</text>
</g>
<!-- Node22&#45;&gt;Node23 -->
<g id="edge25" class="edge"><title>Node22&#45;&gt;Node23</title>
<path fill="none" stroke="midnightblue" d="M154.103,-74.3717C141.221,-65.0286 120.22,-49.7966 103.093,-37.375"/>
<polygon fill="midnightblue" stroke="midnightblue" points="104.703,-34.2194 94.5532,-31.1815 100.593,-39.8859 104.703,-34.2194"/>
</g>
<!-- Node24 -->
<g id="node24" class="node"><title>Node24</title>
<polygon fill="none" stroke="#bfbfbf" points="169,-6.5 169,-25.5 345,-25.5 345,-6.5 169,-6.5"/>
<text text-anchor="middle" x="257" y="-13.5" font-family="Helvetica,sans-Serif" font-size="10.00">Math/GenVector/PositionVector2D.h</text>
</g>
<!-- Node22&#45;&gt;Node24 -->
<g id="edge26" class="edge"><title>Node22&#45;&gt;Node24</title>
<path fill="none" stroke="midnightblue" d="M177.897,-74.3717C192.884,-63.5015 218.862,-44.6602 236.942,-31.5474"/>
<polygon fill="midnightblue" stroke="midnightblue" points="239.06,-34.3349 245.1,-25.6305 234.95,-28.6684 239.06,-34.3349"/>
</g>
</g>
</svg>
