<?xml version="1.0" encoding="UTF-8" standalone="no"?>
<!DOCTYPE svg PUBLIC "-//W3C//DTD SVG 1.1//EN"
 "http://www.w3.org/Graphics/SVG/1.1/DTD/svg11.dtd">
<!-- Generated by graphviz version 2.36.0 (20140111.2315)
 -->
<!-- Title: /home/travis/build/AliceO2Group/AliceO2/macro/run_digi_tof.C Pages: 1 -->
<svg width="2578pt" height="490pt"
 viewBox="0.00 0.00 2578.00 490.00" xmlns="http://www.w3.org/2000/svg" xmlns:xlink="http://www.w3.org/1999/xlink">
<g id="graph0" class="graph" transform="scale(1 1) rotate(0) translate(4 486)">
<title>/home/travis/build/AliceO2Group/AliceO2/macro/run_digi_tof.C</title>
<!-- Node1 -->
<g id="node1" class="node"><title>Node1</title>
<polygon fill="#bfbfbf" stroke="black" points="335,-440.5 335,-481.5 453,-481.5 453,-440.5 335,-440.5"/>
<text text-anchor="start" x="343" y="-469.5" font-family="Helvetica,sans-Serif" font-size="10.00">/home/travis/build</text>
<text text-anchor="start" x="343" y="-458.5" font-family="Helvetica,sans-Serif" font-size="10.00">/AliceO2Group/AliceO2</text>
<text text-anchor="middle" x="394" y="-447.5" font-family="Helvetica,sans-Serif" font-size="10.00">/macro/run_digi_tof.C</text>
</g>
<!-- Node2 -->
<g id="node2" class="node"><title>Node2</title>
<polygon fill="none" stroke="#bfbfbf" points="0,-384.5 0,-403.5 52,-403.5 52,-384.5 0,-384.5"/>
<text text-anchor="middle" x="26" y="-391.5" font-family="Helvetica,sans-Serif" font-size="10.00">sstream</text>
</g>
<!-- Node1&#45;&gt;Node2 -->
<g id="edge1" class="edge"><title>Node1&#45;&gt;Node2</title>
<path fill="none" stroke="midnightblue" d="M334.764,-451.594C270.104,-442.071 163.352,-425.329 62.3824,-404.153"/>
<polygon fill="midnightblue" stroke="midnightblue" points="62.8246,-400.669 52.3167,-402.023 61.3754,-407.518 62.8246,-400.669"/>
</g>
<!-- Node3 -->
<g id="node3" class="node"><title>Node3</title>
<polygon fill="none" stroke="#bfbfbf" points="70.5,-384.5 70.5,-403.5 147.5,-403.5 147.5,-384.5 70.5,-384.5"/>
<text text-anchor="middle" x="109" y="-391.5" font-family="Helvetica,sans-Serif" font-size="10.00">TStopwatch.h</text>
</g>
<!-- Node1&#45;&gt;Node3 -->
<g id="edge2" class="edge"><title>Node1&#45;&gt;Node3</title>
<path fill="none" stroke="midnightblue" d="M334.948,-446.532C282.129,-434.486 205.693,-417.053 156.672,-405.873"/>
<polygon fill="midnightblue" stroke="midnightblue" points="157.174,-402.397 146.646,-403.586 155.617,-409.222 157.174,-402.397"/>
</g>
<!-- Node4 -->
<g id="node4" class="node"><title>Node4</title>
<polygon fill="none" stroke="#bfbfbf" points="165.5,-384.5 165.5,-403.5 236.5,-403.5 236.5,-384.5 165.5,-384.5"/>
<text text-anchor="middle" x="201" y="-391.5" font-family="Helvetica,sans-Serif" font-size="10.00">FairLogger.h</text>
</g>
<!-- Node1&#45;&gt;Node4 -->
<g id="edge3" class="edge"><title>Node1&#45;&gt;Node4</title>
<path fill="none" stroke="midnightblue" d="M336.094,-440.498C303.559,-429.541 264.017,-416.223 236.144,-406.836"/>
<polygon fill="midnightblue" stroke="midnightblue" points="237.032,-403.442 226.438,-403.567 234.797,-410.076 237.032,-403.442"/>
</g>
<!-- Node5 -->
<g id="node5" class="node"><title>Node5</title>
<polygon fill="none" stroke="#bfbfbf" points="254.5,-384.5 254.5,-403.5 331.5,-403.5 331.5,-384.5 254.5,-384.5"/>
<text text-anchor="middle" x="293" y="-391.5" font-family="Helvetica,sans-Serif" font-size="10.00">FairRunAna.h</text>
</g>
<!-- Node1&#45;&gt;Node5 -->
<g id="edge4" class="edge"><title>Node1&#45;&gt;Node5</title>
<path fill="none" stroke="midnightblue" d="M363.697,-440.498C348.063,-430.436 329.336,-418.385 315.086,-409.214"/>
<polygon fill="midnightblue" stroke="midnightblue" points="316.748,-406.121 306.445,-403.652 312.96,-412.008 316.748,-406.121"/>
</g>
<!-- Node6 -->
<g id="node6" class="node"><title>Node6</title>
<polygon fill="none" stroke="#bfbfbf" points="350,-384.5 350,-403.5 438,-403.5 438,-384.5 350,-384.5"/>
<text text-anchor="middle" x="394" y="-391.5" font-family="Helvetica,sans-Serif" font-size="10.00">FairFileSource.h</text>
</g>
<!-- Node1&#45;&gt;Node6 -->
<g id="edge5" class="edge"><title>Node1&#45;&gt;Node6</title>
<path fill="none" stroke="midnightblue" d="M394,-440.498C394,-432.065 394,-422.235 394,-413.874"/>
<polygon fill="midnightblue" stroke="midnightblue" points="397.5,-413.652 394,-403.652 390.5,-413.653 397.5,-413.652"/>
</g>
<!-- Node7 -->
<g id="node7" class="node"><title>Node7</title>
<polygon fill="none" stroke="#bfbfbf" points="456.5,-384.5 456.5,-403.5 547.5,-403.5 547.5,-384.5 456.5,-384.5"/>
<text text-anchor="middle" x="502" y="-391.5" font-family="Helvetica,sans-Serif" font-size="10.00">FairRuntimeDb.h</text>
</g>
<!-- Node1&#45;&gt;Node7 -->
<g id="edge6" class="edge"><title>Node1&#45;&gt;Node7</title>
<path fill="none" stroke="midnightblue" d="M426.404,-440.498C443.28,-430.34 463.527,-418.155 478.818,-408.952"/>
<polygon fill="midnightblue" stroke="midnightblue" points="480.86,-411.808 487.624,-403.652 477.251,-405.81 480.86,-411.808"/>
</g>
<!-- Node8 -->
<g id="node8" class="node"><title>Node8</title>
<polygon fill="none" stroke="#bfbfbf" points="565.5,-384.5 565.5,-403.5 666.5,-403.5 666.5,-384.5 565.5,-384.5"/>
<text text-anchor="middle" x="616" y="-391.5" font-family="Helvetica,sans-Serif" font-size="10.00">FairParRootFileIo.h</text>
</g>
<!-- Node1&#45;&gt;Node8 -->
<g id="edge7" class="edge"><title>Node1&#45;&gt;Node8</title>
<path fill="none" stroke="midnightblue" d="M453.2,-442.667C492.481,-431.166 542.917,-416.398 577.169,-406.369"/>
<polygon fill="midnightblue" stroke="midnightblue" points="578.2,-409.715 586.813,-403.546 576.233,-402.997 578.2,-409.715"/>
</g>
<!-- Node9 -->
<g id="node9" class="node"><title>Node9</title>
<polygon fill="none" stroke="#bfbfbf" points="685,-384.5 685,-403.5 777,-403.5 777,-384.5 685,-384.5"/>
<text text-anchor="middle" x="731" y="-391.5" font-family="Helvetica,sans-Serif" font-size="10.00">FairSystemInfo.h</text>
</g>
<!-- Node1&#45;&gt;Node9 -->
<g id="edge8" class="edge"><title>Node1&#45;&gt;Node9</title>
<path fill="none" stroke="midnightblue" d="M453.087,-448.603C516.298,-436.411 615.702,-417.239 676.918,-405.431"/>
<polygon fill="midnightblue" stroke="midnightblue" points="677.618,-408.861 686.774,-403.53 676.292,-401.987 677.618,-408.861"/>
</g>
<!-- Node10 -->
<g id="node10" class="node"><title>Node10</title>
<g id="a_node10"><a xlink:href="../../d8/dc6/TOF_2simulation_2include_2TOFSimulation_2DigitizerTask_8h.html" target="_top" xlink:title="TOFSimulation/DigitizerTask.h">
<polygon fill="none" stroke="black" points="795.5,-384.5 795.5,-403.5 946.5,-403.5 946.5,-384.5 795.5,-384.5"/>
<text text-anchor="middle" x="871" y="-391.5" font-family="Helvetica,sans-Serif" font-size="10.00">TOFSimulation/DigitizerTask.h</text>
</a>
</g>
</g>
<!-- Node1&#45;&gt;Node10 -->
<g id="edge9" class="edge"><title>Node1&#45;&gt;Node10</title>
<path fill="none" stroke="midnightblue" d="M453.448,-451.899C540.917,-439.98 704.106,-417.742 798.491,-404.881"/>
<polygon fill="midnightblue" stroke="midnightblue" points="799.092,-408.331 808.528,-403.513 798.147,-401.395 799.092,-408.331"/>
</g>
<!-- Node11 -->
<g id="node11" class="node"><title>Node11</title>
<polygon fill="none" stroke="#bfbfbf" points="639.5,-328.5 639.5,-347.5 702.5,-347.5 702.5,-328.5 639.5,-328.5"/>
<text text-anchor="middle" x="671" y="-335.5" font-family="Helvetica,sans-Serif" font-size="10.00">FairTask.h</text>
</g>
<!-- Node10&#45;&gt;Node11 -->
<g id="edge10" class="edge"><title>Node10&#45;&gt;Node11</title>
<path fill="none" stroke="midnightblue" d="M839.309,-384.444C804.932,-375.162 749.923,-360.309 712.211,-350.127"/>
<polygon fill="midnightblue" stroke="midnightblue" points="713.109,-346.744 702.542,-347.516 711.284,-353.502 713.109,-346.744"/>
</g>
<!-- Node12 -->
<g id="node12" class="node"><title>Node12</title>
<polygon fill="none" stroke="#bfbfbf" points="837,-74.5 837,-93.5 893,-93.5 893,-74.5 837,-74.5"/>
<text text-anchor="middle" x="865" y="-81.5" font-family="Helvetica,sans-Serif" font-size="10.00">Rtypes.h</text>
</g>
<!-- Node10&#45;&gt;Node12 -->
<g id="edge11" class="edge"><title>Node10&#45;&gt;Node12</title>
<path fill="none" stroke="midnightblue" d="M877.89,-384.319C884.269,-375.684 893.308,-361.77 897,-348 914.956,-281.032 907.039,-260.603 897,-192 892.314,-159.979 880.136,-124.229 872.227,-103.224"/>
<polygon fill="midnightblue" stroke="midnightblue" points="875.41,-101.749 868.543,-93.6812 868.88,-104.271 875.41,-101.749"/>
</g>
<!-- Node13 -->
<g id="node13" class="node"><title>Node13</title>
<g id="a_node13"><a xlink:href="../../df/d9c/TOF_2base_2include_2TOFBase_2Digit_8h.html" target="_top" xlink:title="TOFBase/Digit.h">
<polygon fill="none" stroke="black" points="567,-266.5 567,-285.5 657,-285.5 657,-266.5 567,-266.5"/>
<text text-anchor="middle" x="612" y="-273.5" font-family="Helvetica,sans-Serif" font-size="10.00">TOFBase/Digit.h</text>
</a>
</g>
</g>
<!-- Node10&#45;&gt;Node13 -->
<g id="edge12" class="edge"><title>Node10&#45;&gt;Node13</title>
<path fill="none" stroke="midnightblue" d="M845.152,-384.39C820.409,-375.913 782.192,-362.207 750,-348 748.58,-347.373 677.623,-310.821 638.029,-290.416"/>
<polygon fill="midnightblue" stroke="midnightblue" points="639.193,-287.078 628.7,-285.608 635.986,-293.301 639.193,-287.078"/>
</g>
<!-- Node17 -->
<g id="node17" class="node"><title>Node17</title>
<g id="a_node17"><a xlink:href="../../d5/d3c/TOF_2simulation_2include_2TOFSimulation_2Detector_8h.html" target="_top" xlink:title="TOFSimulation/Detector.h">
<polygon fill="none" stroke="black" points="945.5,-266.5 945.5,-285.5 1076.5,-285.5 1076.5,-266.5 945.5,-266.5"/>
<text text-anchor="middle" x="1011" y="-273.5" font-family="Helvetica,sans-Serif" font-size="10.00">TOFSimulation/Detector.h</text>
</a>
</g>
</g>
<!-- Node10&#45;&gt;Node17 -->
<g id="edge18" class="edge"><title>Node10&#45;&gt;Node17</title>
<path fill="none" stroke="midnightblue" d="M883.176,-384.32C895.459,-375.46 914.862,-361.176 931,-348 953.539,-329.598 978.457,-307.125 994.398,-292.457"/>
<polygon fill="midnightblue" stroke="midnightblue" points="996.89,-294.92 1001.86,-285.562 992.138,-289.781 996.89,-294.92"/>
</g>
<!-- Node42 -->
<g id="node42" class="node"><title>Node42</title>
<g id="a_node42"><a xlink:href="../../d0/d85/TOF_2simulation_2include_2TOFSimulation_2Digitizer_8h.html" target="_top" xlink:title="TOFSimulation/Digitizer.h">
<polygon fill="none" stroke="black" points="759.5,-328.5 759.5,-347.5 888.5,-347.5 888.5,-328.5 759.5,-328.5"/>
<text text-anchor="middle" x="824" y="-335.5" font-family="Helvetica,sans-Serif" font-size="10.00">TOFSimulation/Digitizer.h</text>
</a>
</g>
</g>
<!-- Node10&#45;&gt;Node42 -->
<g id="edge48" class="edge"><title>Node10&#45;&gt;Node42</title>
<path fill="none" stroke="midnightblue" d="M863.239,-384.083C856.463,-376.298 846.457,-364.801 838.245,-355.367"/>
<polygon fill="midnightblue" stroke="midnightblue" points="840.822,-352.996 831.617,-347.751 835.542,-357.592 840.822,-352.996"/>
</g>
<!-- Node43 -->
<g id="node43" class="node"><title>Node43</title>
<g id="a_node43"><a xlink:href="../../db/d14/MCTruthContainer_8h.html" target="_top" xlink:title="Definition of a container to keep Monte Carlo truth external to simulation objects. ">
<polygon fill="none" stroke="black" points="1457,-261 1457,-291 1571,-291 1571,-261 1457,-261"/>
<text text-anchor="start" x="1465" y="-279" font-family="Helvetica,sans-Serif" font-size="10.00">SimulationDataFormat</text>
<text text-anchor="middle" x="1514" y="-268" font-family="Helvetica,sans-Serif" font-size="10.00">/MCTruthContainer.h</text>
</a>
</g>
</g>
<!-- Node10&#45;&gt;Node43 -->
<g id="edge61" class="edge"><title>Node10&#45;&gt;Node43</title>
<path fill="none" stroke="midnightblue" d="M918.281,-384.47C1031.06,-364.124 1316.17,-312.689 1446.78,-289.127"/>
<polygon fill="midnightblue" stroke="midnightblue" points="1447.45,-292.563 1456.67,-287.343 1446.2,-285.674 1447.45,-292.563"/>
</g>
<!-- Node13&#45;&gt;Node12 -->
<g id="edge16" class="edge"><title>Node13&#45;&gt;Node12</title>
<path fill="none" stroke="midnightblue" d="M607.605,-266.268C596.243,-242.324 568.95,-174.834 601,-136 629.205,-101.825 760.761,-90.2902 826.871,-86.6106"/>
<polygon fill="midnightblue" stroke="midnightblue" points="827.091,-90.104 836.894,-86.0852 826.724,-83.1136 827.091,-90.104"/>
</g>
<!-- Node14 -->
<g id="node14" class="node"><title>Node14</title>
<g id="a_node14"><a xlink:href="../../df/d5d/common_2include_2CommonDataFormat_2TimeStamp_8h.html" target="_top" xlink:title="CommonDataFormat/TimeStamp.h">
<polygon fill="none" stroke="black" points="610,-136.5 610,-155.5 780,-155.5 780,-136.5 610,-136.5"/>
<text text-anchor="middle" x="695" y="-143.5" font-family="Helvetica,sans-Serif" font-size="10.00">CommonDataFormat/TimeStamp.h</text>
</a>
</g>
</g>
<!-- Node13&#45;&gt;Node14 -->
<g id="edge13" class="edge"><title>Node13&#45;&gt;Node14</title>
<path fill="none" stroke="midnightblue" d="M616.661,-266.037C624.827,-250.552 642.519,-217.957 660,-192 666.565,-182.251 674.571,-171.864 681.268,-163.528"/>
<polygon fill="midnightblue" stroke="midnightblue" points="684.047,-165.658 687.658,-155.697 678.624,-161.232 684.047,-165.658"/>
</g>
<!-- Node15 -->
<g id="node15" class="node"><title>Node15</title>
<polygon fill="none" stroke="#bfbfbf" points="395.5,-198.5 395.5,-217.5 440.5,-217.5 440.5,-198.5 395.5,-198.5"/>
<text text-anchor="middle" x="418" y="-205.5" font-family="Helvetica,sans-Serif" font-size="10.00">iosfwd</text>
</g>
<!-- Node13&#45;&gt;Node15 -->
<g id="edge15" class="edge"><title>Node13&#45;&gt;Node15</title>
<path fill="none" stroke="midnightblue" d="M579.966,-266.488C546.743,-257.31 493.525,-241.626 449,-224 447.357,-223.349 445.679,-222.649 443.998,-221.919"/>
<polygon fill="midnightblue" stroke="midnightblue" points="445.077,-218.563 434.53,-217.555 442.147,-224.92 445.077,-218.563"/>
</g>
<!-- Node16 -->
<g id="node16" class="node"><title>Node16</title>
<polygon fill="none" stroke="#bfbfbf" points="458.5,-193 458.5,-223 553.5,-223 553.5,-193 458.5,-193"/>
<text text-anchor="start" x="466.5" y="-211" font-family="Helvetica,sans-Serif" font-size="10.00">boost/serialization</text>
<text text-anchor="middle" x="506" y="-200" font-family="Helvetica,sans-Serif" font-size="10.00">/base_object.hpp</text>
</g>
<!-- Node13&#45;&gt;Node16 -->
<g id="edge17" class="edge"><title>Node13&#45;&gt;Node16</title>
<path fill="none" stroke="midnightblue" d="M598.142,-266.372C582.793,-256.814 557.546,-241.095 537.358,-228.525"/>
<polygon fill="midnightblue" stroke="midnightblue" points="539.115,-225.496 528.776,-223.181 535.415,-231.438 539.115,-225.496"/>
</g>
<!-- Node14&#45;&gt;Node12 -->
<g id="edge14" class="edge"><title>Node14&#45;&gt;Node12</title>
<path fill="none" stroke="midnightblue" d="M719.357,-136.403C748.644,-126.067 797.974,-108.656 831.002,-96.9994"/>
<polygon fill="midnightblue" stroke="midnightblue" points="832.423,-100.209 840.688,-93.5806 830.094,-93.6084 832.423,-100.209"/>
</g>
<!-- Node18 -->
<g id="node18" class="node"><title>Node18</title>
<g id="a_node18"><a xlink:href="../../d1/d3a/Base_2include_2DetectorsBase_2Detector_8h.html" target="_top" xlink:title="DetectorsBase/Detector.h">
<polygon fill="none" stroke="black" points="1164.5,-198.5 1164.5,-217.5 1295.5,-217.5 1295.5,-198.5 1164.5,-198.5"/>
<text text-anchor="middle" x="1230" y="-205.5" font-family="Helvetica,sans-Serif" font-size="10.00">DetectorsBase/Detector.h</text>
</a>
</g>
</g>
<!-- Node17&#45;&gt;Node18 -->
<g id="edge19" class="edge"><title>Node17&#45;&gt;Node18</title>
<path fill="none" stroke="midnightblue" d="M1039.63,-266.372C1078.68,-254.604 1148.72,-233.496 1192.09,-220.426"/>
<polygon fill="midnightblue" stroke="midnightblue" points="1193.14,-223.763 1201.71,-217.526 1191.12,-217.06 1193.14,-223.763"/>
</g>
<!-- Node29 -->
<g id="node29" class="node"><title>Node29</title>
<g id="a_node29"><a xlink:href="../../d4/d54/Geo_8h.html" target="_top" xlink:title="TOFBase/Geo.h">
<polygon fill="none" stroke="black" points="801,-198.5 801,-217.5 889,-217.5 889,-198.5 801,-198.5"/>
<text text-anchor="middle" x="845" y="-205.5" font-family="Helvetica,sans-Serif" font-size="10.00">TOFBase/Geo.h</text>
</a>
</g>
</g>
<!-- Node17&#45;&gt;Node29 -->
<g id="edge33" class="edge"><title>Node17&#45;&gt;Node29</title>
<path fill="none" stroke="midnightblue" d="M989.298,-266.372C960.388,-254.877 909.058,-234.469 876.053,-221.346"/>
<polygon fill="midnightblue" stroke="midnightblue" points="877.029,-217.968 866.444,-217.526 874.443,-224.473 877.029,-217.968"/>
</g>
<!-- Node30 -->
<g id="node30" class="node"><title>Node30</title>
<g id="a_node30"><a xlink:href="../../d4/d25/BaseHits_8h.html" target="_top" xlink:title="SimulationDataFormat\l/BaseHits.h">
<polygon fill="none" stroke="black" points="1314,-193 1314,-223 1428,-223 1428,-193 1314,-193"/>
<text text-anchor="start" x="1322" y="-211" font-family="Helvetica,sans-Serif" font-size="10.00">SimulationDataFormat</text>
<text text-anchor="middle" x="1371" y="-200" font-family="Helvetica,sans-Serif" font-size="10.00">/BaseHits.h</text>
</a>
</g>
</g>
<!-- Node17&#45;&gt;Node30 -->
<g id="edge35" class="edge"><title>Node17&#45;&gt;Node30</title>
<path fill="none" stroke="midnightblue" d="M1064.61,-266.46C1121.4,-257.236 1213.91,-241.706 1303.84,-223.975"/>
<polygon fill="midnightblue" stroke="midnightblue" points="1304.53,-227.406 1313.66,-222.028 1303.17,-220.54 1304.53,-227.406"/>
</g>
<!-- Node18&#45;&gt;Node12 -->
<g id="edge28" class="edge"><title>Node18&#45;&gt;Node12</title>
<path fill="none" stroke="midnightblue" d="M1164.42,-205.969C1103.58,-202.638 1012,-191.444 941,-156 915.101,-143.071 891.836,-118.492 878.062,-101.924"/>
<polygon fill="midnightblue" stroke="midnightblue" points="880.421,-99.2723 871.429,-93.6686 874.964,-103.656 880.421,-99.2723"/>
</g>
<!-- Node19 -->
<g id="node19" class="node"><title>Node19</title>
<polygon fill="none" stroke="#bfbfbf" points="1342.5,-74.5 1342.5,-93.5 1377.5,-93.5 1377.5,-74.5 1342.5,-74.5"/>
<text text-anchor="middle" x="1360" y="-81.5" font-family="Helvetica,sans-Serif" font-size="10.00">map</text>
</g>
<!-- Node18&#45;&gt;Node19 -->
<g id="edge20" class="edge"><title>Node18&#45;&gt;Node19</title>
<path fill="none" stroke="midnightblue" d="M1272.09,-198.475C1340.99,-184.475 1470.41,-157.956 1472,-156 1512.33,-106.287 1451.61,-131.521 1387,-100 1385.86,-99.4446 1384.7,-98.8639 1383.54,-98.2674"/>
<polygon fill="midnightblue" stroke="midnightblue" points="1385.17,-95.1725 1374.7,-93.5404 1381.87,-101.344 1385.17,-95.1725"/>
</g>
<!-- Node20 -->
<g id="node20" class="node"><title>Node20</title>
<polygon fill="none" stroke="#bfbfbf" points="950,-136.5 950,-155.5 994,-155.5 994,-136.5 950,-136.5"/>
<text text-anchor="middle" x="972" y="-143.5" font-family="Helvetica,sans-Serif" font-size="10.00">vector</text>
</g>
<!-- Node18&#45;&gt;Node20 -->
<g id="edge21" class="edge"><title>Node18&#45;&gt;Node20</title>
<path fill="none" stroke="midnightblue" d="M1188.39,-198.456C1144.78,-189.321 1074.06,-174.007 1004.16,-156.185"/>
<polygon fill="midnightblue" stroke="midnightblue" points="1004.86,-152.751 994.306,-153.654 1003.12,-159.531 1004.86,-152.751"/>
</g>
<!-- Node21 -->
<g id="node21" class="node"><title>Node21</title>
<polygon fill="none" stroke="#bfbfbf" points="1012,-136.5 1012,-155.5 1064,-155.5 1064,-136.5 1012,-136.5"/>
<text text-anchor="middle" x="1038" y="-143.5" font-family="Helvetica,sans-Serif" font-size="10.00">memory</text>
</g>
<!-- Node18&#45;&gt;Node21 -->
<g id="edge22" class="edge"><title>Node18&#45;&gt;Node21</title>
<path fill="none" stroke="midnightblue" d="M1202.49,-198.403C1168.75,-187.859 1111.45,-169.954 1074.17,-158.304"/>
<polygon fill="midnightblue" stroke="midnightblue" points="1074.81,-154.838 1064.23,-155.195 1072.73,-161.519 1074.81,-154.838"/>
</g>
<!-- Node22 -->
<g id="node22" class="node"><title>Node22</title>
<polygon fill="none" stroke="#bfbfbf" points="1082.5,-136.5 1082.5,-155.5 1161.5,-155.5 1161.5,-136.5 1082.5,-136.5"/>
<text text-anchor="middle" x="1122" y="-143.5" font-family="Helvetica,sans-Serif" font-size="10.00">FairDetector.h</text>
</g>
<!-- Node18&#45;&gt;Node22 -->
<g id="edge23" class="edge"><title>Node18&#45;&gt;Node22</title>
<path fill="none" stroke="midnightblue" d="M1214.53,-198.403C1196.72,-188.512 1167.26,-172.144 1146.37,-160.538"/>
<polygon fill="midnightblue" stroke="midnightblue" points="1147.89,-157.378 1137.45,-155.581 1144.49,-163.497 1147.89,-157.378"/>
</g>
<!-- Node23 -->
<g id="node23" class="node"><title>Node23</title>
<polygon fill="none" stroke="#bfbfbf" points="1180,-136.5 1180,-155.5 1280,-155.5 1280,-136.5 1180,-136.5"/>
<text text-anchor="middle" x="1230" y="-143.5" font-family="Helvetica,sans-Serif" font-size="10.00">FairRootManager.h</text>
</g>
<!-- Node18&#45;&gt;Node23 -->
<g id="edge24" class="edge"><title>Node18&#45;&gt;Node23</title>
<path fill="none" stroke="midnightblue" d="M1230,-198.403C1230,-189.938 1230,-176.728 1230,-165.82"/>
<polygon fill="midnightblue" stroke="midnightblue" points="1233.5,-165.581 1230,-155.581 1226.5,-165.581 1233.5,-165.581"/>
</g>
<!-- Node24 -->
<g id="node24" class="node"><title>Node24</title>
<g id="a_node24"><a xlink:href="../../d0/d9a/MaterialManager_8h.html" target="_top" xlink:title="DetectorsBase/MaterialManager.h">
<polygon fill="none" stroke="black" points="1298.5,-136.5 1298.5,-155.5 1463.5,-155.5 1463.5,-136.5 1298.5,-136.5"/>
<text text-anchor="middle" x="1381" y="-143.5" font-family="Helvetica,sans-Serif" font-size="10.00">DetectorsBase/MaterialManager.h</text>
</a>
</g>
</g>
<!-- Node18&#45;&gt;Node24 -->
<g id="edge25" class="edge"><title>Node18&#45;&gt;Node24</title>
<path fill="none" stroke="midnightblue" d="M1251.63,-198.403C1277.42,-188.156 1320.71,-170.956 1350.04,-159.302"/>
<polygon fill="midnightblue" stroke="midnightblue" points="1351.4,-162.526 1359.41,-155.581 1348.82,-156.021 1351.4,-162.526"/>
</g>
<!-- Node25 -->
<g id="node25" class="node"><title>Node25</title>
<polygon fill="none" stroke="#bfbfbf" points="1520.5,-136.5 1520.5,-155.5 1573.5,-155.5 1573.5,-136.5 1520.5,-136.5"/>
<text text-anchor="middle" x="1547" y="-143.5" font-family="Helvetica,sans-Serif" font-size="10.00">cxxabi.h</text>
</g>
<!-- Node18&#45;&gt;Node25 -->
<g id="edge29" class="edge"><title>Node18&#45;&gt;Node25</title>
<path fill="none" stroke="midnightblue" d="M1272.02,-198.441C1282.76,-196.295 1294.3,-194.028 1305,-192 1394.17,-175.1 1416.99,-173.733 1506,-156 1507.29,-155.744 1508.59,-155.479 1509.92,-155.208"/>
<polygon fill="midnightblue" stroke="midnightblue" points="1511.06,-158.543 1520.13,-153.056 1509.62,-151.694 1511.06,-158.543"/>
</g>
<!-- Node26 -->
<g id="node26" class="node"><title>Node26</title>
<polygon fill="none" stroke="#bfbfbf" points="1591.5,-136.5 1591.5,-155.5 1642.5,-155.5 1642.5,-136.5 1591.5,-136.5"/>
<text text-anchor="middle" x="1617" y="-143.5" font-family="Helvetica,sans-Serif" font-size="10.00">typeinfo</text>
</g>
<!-- Node18&#45;&gt;Node26 -->
<g id="edge30" class="edge"><title>Node18&#45;&gt;Node26</title>
<path fill="none" stroke="midnightblue" d="M1270,-198.476C1281.29,-196.212 1293.6,-193.878 1305,-192 1424.26,-172.347 1458.32,-179.117 1581.28,-155.903"/>
<polygon fill="midnightblue" stroke="midnightblue" points="1582.31,-159.271 1591.47,-153.95 1580.99,-152.396 1582.31,-159.271"/>
</g>
<!-- Node27 -->
<g id="node27" class="node"><title>Node27</title>
<polygon fill="none" stroke="#bfbfbf" points="1862,-136.5 1862,-155.5 1924,-155.5 1924,-136.5 1862,-136.5"/>
<text text-anchor="middle" x="1893" y="-143.5" font-family="Helvetica,sans-Serif" font-size="10.00">type_traits</text>
</g>
<!-- Node18&#45;&gt;Node27 -->
<g id="edge31" class="edge"><title>Node18&#45;&gt;Node27</title>
<path fill="none" stroke="midnightblue" d="M1267.61,-198.47C1279.51,-196.042 1292.76,-193.619 1305,-192 1543.67,-160.434 1609.63,-190.062 1851.48,-155.994"/>
<polygon fill="midnightblue" stroke="midnightblue" points="1852.24,-159.421 1861.64,-154.54 1851.25,-152.492 1852.24,-159.421"/>
</g>
<!-- Node28 -->
<g id="node28" class="node"><title>Node28</title>
<polygon fill="none" stroke="#bfbfbf" points="1660.5,-136.5 1660.5,-155.5 1701.5,-155.5 1701.5,-136.5 1660.5,-136.5"/>
<text text-anchor="middle" x="1681" y="-143.5" font-family="Helvetica,sans-Serif" font-size="10.00">string</text>
</g>
<!-- Node18&#45;&gt;Node28 -->
<g id="edge32" class="edge"><title>Node18&#45;&gt;Node28</title>
<path fill="none" stroke="midnightblue" d="M1269.19,-198.441C1280.69,-196.125 1293.32,-193.772 1305,-192 1454.58,-169.312 1497.56,-185.612 1650.25,-155.747"/>
<polygon fill="midnightblue" stroke="midnightblue" points="1651.35,-159.098 1660.47,-153.712 1649.98,-152.233 1651.35,-159.098"/>
</g>
<!-- Node24&#45;&gt;Node12 -->
<g id="edge26" class="edge"><title>Node24&#45;&gt;Node12</title>
<path fill="none" stroke="midnightblue" d="M1307.89,-136.499C1196.6,-123.558 988.602,-99.3724 903.148,-89.4358"/>
<polygon fill="midnightblue" stroke="midnightblue" points="903.448,-85.9472 893.111,-88.2687 902.639,-92.9004 903.448,-85.9472"/>
</g>
<!-- Node24&#45;&gt;Node19 -->
<g id="edge27" class="edge"><title>Node24&#45;&gt;Node19</title>
<path fill="none" stroke="midnightblue" d="M1377.99,-136.403C1374.97,-127.76 1370.21,-114.17 1366.35,-103.134"/>
<polygon fill="midnightblue" stroke="midnightblue" points="1369.61,-101.863 1363,-93.5806 1363,-104.175 1369.61,-101.863"/>
</g>
<!-- Node29&#45;&gt;Node12 -->
<g id="edge34" class="edge"><title>Node29&#45;&gt;Node12</title>
<path fill="none" stroke="midnightblue" d="M846.438,-198.226C849.667,-178.53 857.551,-130.437 861.934,-103.7"/>
<polygon fill="midnightblue" stroke="midnightblue" points="865.411,-104.129 863.575,-93.6944 858.503,-102.996 865.411,-104.129"/>
</g>
<!-- Node31 -->
<g id="node31" class="node"><title>Node31</title>
<g id="a_node31"><a xlink:href="../../dd/d76/Cartesian3D_8h.html" target="_top" xlink:title="MathUtils/Cartesian3D.h">
<polygon fill="none" stroke="black" points="1719.5,-136.5 1719.5,-155.5 1844.5,-155.5 1844.5,-136.5 1719.5,-136.5"/>
<text text-anchor="middle" x="1782" y="-143.5" font-family="Helvetica,sans-Serif" font-size="10.00">MathUtils/Cartesian3D.h</text>
</a>
</g>
</g>
<!-- Node30&#45;&gt;Node31 -->
<g id="edge36" class="edge"><title>Node30&#45;&gt;Node31</title>
<path fill="none" stroke="midnightblue" d="M1428.28,-194.505C1432.91,-193.615 1437.53,-192.767 1442,-192 1467.67,-187.597 1617.03,-168.197 1709.04,-156.353"/>
<polygon fill="midnightblue" stroke="midnightblue" points="1709.67,-159.802 1719.14,-155.054 1708.78,-152.859 1709.67,-159.802"/>
</g>
<!-- Node31&#45;&gt;Node12 -->
<g id="edge42" class="edge"><title>Node31&#45;&gt;Node12</title>
<path fill="none" stroke="midnightblue" d="M1719.2,-136.909C1716.09,-136.584 1713.01,-136.279 1710,-136 1399.25,-107.231 1022.65,-91.0992 903.233,-86.4338"/>
<polygon fill="midnightblue" stroke="midnightblue" points="903.26,-82.9323 893.132,-86.0426 902.989,-89.9271 903.26,-82.9323"/>
</g>
<!-- Node32 -->
<g id="node32" class="node"><title>Node32</title>
<polygon fill="none" stroke="#bfbfbf" points="1883.5,-69 1883.5,-99 2034.5,-99 2034.5,-69 1883.5,-69"/>
<text text-anchor="start" x="1891.5" y="-87" font-family="Helvetica,sans-Serif" font-size="10.00">Math/GenVector/Displacement</text>
<text text-anchor="middle" x="1959" y="-76" font-family="Helvetica,sans-Serif" font-size="10.00">Vector3D.h</text>
</g>
<!-- Node31&#45;&gt;Node32 -->
<g id="edge37" class="edge"><title>Node31&#45;&gt;Node32</title>
<path fill="none" stroke="midnightblue" d="M1807.36,-136.403C1833.55,-127.526 1875.13,-113.432 1908.13,-102.245"/>
<polygon fill="midnightblue" stroke="midnightblue" points="1909.28,-105.551 1917.63,-99.0253 1907.03,-98.921 1909.28,-105.551"/>
</g>
<!-- Node33 -->
<g id="node33" class="node"><title>Node33</title>
<polygon fill="none" stroke="#bfbfbf" points="2053,-74.5 2053,-93.5 2229,-93.5 2229,-74.5 2053,-74.5"/>
<text text-anchor="middle" x="2141" y="-81.5" font-family="Helvetica,sans-Serif" font-size="10.00">Math/GenVector/PositionVector3D.h</text>
</g>
<!-- Node31&#45;&gt;Node33 -->
<g id="edge38" class="edge"><title>Node31&#45;&gt;Node33</title>
<path fill="none" stroke="midnightblue" d="M1833.05,-136.467C1898.19,-125.582 2010.7,-106.778 2080.19,-95.1631"/>
<polygon fill="midnightblue" stroke="midnightblue" points="2080.84,-98.604 2090.12,-93.5034 2079.68,-91.6998 2080.84,-98.604"/>
</g>
<!-- Node34 -->
<g id="node34" class="node"><title>Node34</title>
<polygon fill="none" stroke="#bfbfbf" points="2246.5,-74.5 2246.5,-93.5 2395.5,-93.5 2395.5,-74.5 2246.5,-74.5"/>
<text text-anchor="middle" x="2321" y="-81.5" font-family="Helvetica,sans-Serif" font-size="10.00">Math/GenVector/Rotation3D.h</text>
</g>
<!-- Node31&#45;&gt;Node34 -->
<g id="edge39" class="edge"><title>Node31&#45;&gt;Node34</title>
<path fill="none" stroke="midnightblue" d="M1844.71,-136.939C1847.51,-136.614 1850.28,-136.299 1853,-136 2023.38,-117.219 2067.15,-123.087 2237,-100 2246.8,-98.6682 2257.2,-97.0111 2267.22,-95.2889"/>
<polygon fill="midnightblue" stroke="midnightblue" points="2267.84,-98.7344 2277.08,-93.5547 2266.62,-91.8402 2267.84,-98.7344"/>
</g>
<!-- Node35 -->
<g id="node35" class="node"><title>Node35</title>
<polygon fill="none" stroke="#bfbfbf" points="2414,-74.5 2414,-93.5 2570,-93.5 2570,-74.5 2414,-74.5"/>
<text text-anchor="middle" x="2492" y="-81.5" font-family="Helvetica,sans-Serif" font-size="10.00">Math/GenVector/Transform3D.h</text>
</g>
<!-- Node31&#45;&gt;Node35 -->
<g id="edge40" class="edge"><title>Node31&#45;&gt;Node35</title>
<path fill="none" stroke="midnightblue" d="M1844.7,-136.842C1847.5,-136.544 1850.28,-136.261 1853,-136 2097.29,-112.558 2160.27,-128.657 2404,-100 2414.84,-98.7253 2426.38,-97.0164 2437.41,-95.2089"/>
<polygon fill="midnightblue" stroke="midnightblue" points="2438.08,-98.6448 2447.36,-93.5308 2436.92,-91.7423 2438.08,-98.6448"/>
</g>
<!-- Node36 -->
<g id="node36" class="node"><title>Node36</title>
<polygon fill="none" stroke="#bfbfbf" points="1396,-74.5 1396,-93.5 1556,-93.5 1556,-74.5 1396,-74.5"/>
<text text-anchor="middle" x="1476" y="-81.5" font-family="Helvetica,sans-Serif" font-size="10.00">Math/GenVector/Translation3D.h</text>
</g>
<!-- Node31&#45;&gt;Node36 -->
<g id="edge41" class="edge"><title>Node31&#45;&gt;Node36</title>
<path fill="none" stroke="midnightblue" d="M1738.48,-136.467C1683.42,-125.671 1588.64,-107.086 1529.3,-95.4501"/>
<polygon fill="midnightblue" stroke="midnightblue" points="1529.85,-91.993 1519.37,-93.5034 1528.51,-98.8622 1529.85,-91.993"/>
</g>
<!-- Node37 -->
<g id="node37" class="node"><title>Node37</title>
<polygon fill="none" stroke="#bfbfbf" points="1574,-74.5 1574,-93.5 1650,-93.5 1650,-74.5 1574,-74.5"/>
<text text-anchor="middle" x="1612" y="-81.5" font-family="Helvetica,sans-Serif" font-size="10.00">TGeoMatrix.h</text>
</g>
<!-- Node31&#45;&gt;Node37 -->
<g id="edge43" class="edge"><title>Node31&#45;&gt;Node37</title>
<path fill="none" stroke="midnightblue" d="M1757.64,-136.403C1728.36,-126.067 1679.03,-108.656 1646,-96.9994"/>
<polygon fill="midnightblue" stroke="midnightblue" points="1646.91,-93.6084 1636.31,-93.5806 1644.58,-100.209 1646.91,-93.6084"/>
</g>
<!-- Node38 -->
<g id="node38" class="node"><title>Node38</title>
<polygon fill="none" stroke="#bfbfbf" points="1668,-74.5 1668,-93.5 1722,-93.5 1722,-74.5 1668,-74.5"/>
<text text-anchor="middle" x="1695" y="-81.5" font-family="Helvetica,sans-Serif" font-size="10.00">iostream</text>
</g>
<!-- Node31&#45;&gt;Node38 -->
<g id="edge44" class="edge"><title>Node31&#45;&gt;Node38</title>
<path fill="none" stroke="midnightblue" d="M1769.54,-136.403C1755.58,-126.78 1732.74,-111.024 1716.01,-99.4891"/>
<polygon fill="midnightblue" stroke="midnightblue" points="1717.66,-96.3767 1707.44,-93.5806 1713.69,-102.139 1717.66,-96.3767"/>
</g>
<!-- Node39 -->
<g id="node39" class="node"><title>Node39</title>
<g id="a_node39"><a xlink:href="../../d2/dd0/Cartesian2D_8h.html" target="_top" xlink:title="MathUtils/Cartesian2D.h">
<polygon fill="none" stroke="black" points="1740.5,-74.5 1740.5,-93.5 1865.5,-93.5 1865.5,-74.5 1740.5,-74.5"/>
<text text-anchor="middle" x="1803" y="-81.5" font-family="Helvetica,sans-Serif" font-size="10.00">MathUtils/Cartesian2D.h</text>
</a>
</g>
</g>
<!-- Node31&#45;&gt;Node39 -->
<g id="edge45" class="edge"><title>Node31&#45;&gt;Node39</title>
<path fill="none" stroke="midnightblue" d="M1785.01,-136.403C1788.03,-127.76 1792.79,-114.17 1796.65,-103.134"/>
<polygon fill="midnightblue" stroke="midnightblue" points="1800,-104.175 1800,-93.5806 1793.39,-101.863 1800,-104.175"/>
</g>
<!-- Node40 -->
<g id="node40" class="node"><title>Node40</title>
<polygon fill="none" stroke="#bfbfbf" points="1636.5,-1 1636.5,-31 1787.5,-31 1787.5,-1 1636.5,-1"/>
<text text-anchor="start" x="1644.5" y="-19" font-family="Helvetica,sans-Serif" font-size="10.00">Math/GenVector/Displacement</text>
<text text-anchor="middle" x="1712" y="-8" font-family="Helvetica,sans-Serif" font-size="10.00">Vector2D.h</text>
</g>
<!-- Node39&#45;&gt;Node40 -->
<g id="edge46" class="edge"><title>Node39&#45;&gt;Node40</title>
<path fill="none" stroke="midnightblue" d="M1791.1,-74.3717C1778.22,-65.0286 1757.22,-49.7966 1740.09,-37.375"/>
<polygon fill="midnightblue" stroke="midnightblue" points="1741.7,-34.2194 1731.55,-31.1815 1737.59,-39.8859 1741.7,-34.2194"/>
</g>
<!-- Node41 -->
<g id="node41" class="node"><title>Node41</title>
<polygon fill="none" stroke="#bfbfbf" points="1806,-6.5 1806,-25.5 1982,-25.5 1982,-6.5 1806,-6.5"/>
<text text-anchor="middle" x="1894" y="-13.5" font-family="Helvetica,sans-Serif" font-size="10.00">Math/GenVector/PositionVector2D.h</text>
</g>
<!-- Node39&#45;&gt;Node41 -->
<g id="edge47" class="edge"><title>Node39&#45;&gt;Node41</title>
<path fill="none" stroke="midnightblue" d="M1814.9,-74.3717C1829.88,-63.5015 1855.86,-44.6602 1873.94,-31.5474"/>
<polygon fill="midnightblue" stroke="midnightblue" points="1876.06,-34.3349 1882.1,-25.6305 1871.95,-28.6684 1876.06,-34.3349"/>
</g>
<!-- Node42&#45;&gt;Node13 -->
<g id="edge50" class="edge"><title>Node42&#45;&gt;Node13</title>
<path fill="none" stroke="midnightblue" d="M793.626,-328.403C756.394,-317.866 693.19,-299.978 652.024,-288.328"/>
<polygon fill="midnightblue" stroke="midnightblue" points="652.893,-284.936 642.318,-285.581 650.987,-291.672 652.893,-284.936"/>
</g>
<!-- Node42&#45;&gt;Node17 -->
<g id="edge51" class="edge"><title>Node42&#45;&gt;Node17</title>
<path fill="none" stroke="midnightblue" d="M850.793,-328.403C883.286,-317.978 938.208,-300.356 974.538,-288.699"/>
<polygon fill="midnightblue" stroke="midnightblue" points="975.805,-291.968 984.257,-285.581 973.666,-285.303 975.805,-291.968"/>
</g>
<!-- Node42&#45;&gt;Node29 -->
<g id="edge49" class="edge"><title>Node42&#45;&gt;Node29</title>
<path fill="none" stroke="midnightblue" d="M825.443,-328.202C828.832,-307.551 837.354,-255.606 841.949,-227.594"/>
<polygon fill="midnightblue" stroke="midnightblue" points="845.437,-227.957 843.602,-217.522 838.529,-226.824 845.437,-227.957"/>
</g>
<!-- Node42&#45;&gt;Node43 -->
<g id="edge52" class="edge"><title>Node42&#45;&gt;Node43</title>
<path fill="none" stroke="midnightblue" d="M888.603,-331.382C1019.21,-320.025 1313.5,-294.435 1446.49,-282.87"/>
<polygon fill="midnightblue" stroke="midnightblue" points="1446.89,-286.349 1456.55,-281.996 1446.29,-279.375 1446.89,-286.349"/>
</g>
<!-- Node48 -->
<g id="node48" class="node"><title>Node48</title>
<g id="a_node48"><a xlink:href="../../df/d71/MCLabel_8h.html" target="_top" xlink:title="TOFSimulation/MCLabel.h">
<polygon fill="none" stroke="black" points="678,-266.5 678,-285.5 810,-285.5 810,-266.5 678,-266.5"/>
<text text-anchor="middle" x="744" y="-273.5" font-family="Helvetica,sans-Serif" font-size="10.00">TOFSimulation/MCLabel.h</text>
</a>
</g>
</g>
<!-- Node42&#45;&gt;Node48 -->
<g id="edge58" class="edge"><title>Node42&#45;&gt;Node48</title>
<path fill="none" stroke="midnightblue" d="M812.538,-328.403C799.825,-318.869 779.087,-303.315 763.747,-291.811"/>
<polygon fill="midnightblue" stroke="midnightblue" points="765.541,-288.781 755.441,-285.581 761.341,-294.381 765.541,-288.781"/>
</g>
<!-- Node43&#45;&gt;Node27 -->
<g id="edge57" class="edge"><title>Node43&#45;&gt;Node27</title>
<path fill="none" stroke="midnightblue" d="M1498.79,-260.881C1481.4,-243.06 1457.56,-212.287 1476,-192 1502.81,-162.505 1779.83,-162.537 1851.63,-155.669"/>
<polygon fill="midnightblue" stroke="midnightblue" points="1852.13,-159.134 1861.63,-154.451 1851.28,-152.185 1852.13,-159.134"/>
</g>
<!-- Node44 -->
<g id="node44" class="node"><title>Node44</title>
<polygon fill="none" stroke="#bfbfbf" points="1625,-198.5 1625,-217.5 1687,-217.5 1687,-198.5 1625,-198.5"/>
<text text-anchor="middle" x="1656" y="-205.5" font-family="Helvetica,sans-Serif" font-size="10.00">TNamed.h</text>
</g>
<!-- Node43&#45;&gt;Node44 -->
<g id="edge53" class="edge"><title>Node43&#45;&gt;Node44</title>
<path fill="none" stroke="midnightblue" d="M1544.46,-260.841C1569.24,-249.323 1603.94,-233.199 1628.02,-222.004"/>
<polygon fill="midnightblue" stroke="midnightblue" points="1629.73,-225.071 1637.32,-217.682 1626.78,-218.723 1629.73,-225.071"/>
</g>
<!-- Node45 -->
<g id="node45" class="node"><title>Node45</title>
<polygon fill="none" stroke="#bfbfbf" points="1705.5,-198.5 1705.5,-217.5 1754.5,-217.5 1754.5,-198.5 1705.5,-198.5"/>
<text text-anchor="middle" x="1730" y="-205.5" font-family="Helvetica,sans-Serif" font-size="10.00">cassert</text>
</g>
<!-- Node43&#45;&gt;Node45 -->
<g id="edge54" class="edge"><title>Node43&#45;&gt;Node45</title>
<path fill="none" stroke="midnightblue" d="M1571.25,-260.91C1607.16,-251.572 1654.22,-238.416 1695,-224 1697.26,-223.201 1699.58,-222.327 1701.91,-221.415"/>
<polygon fill="midnightblue" stroke="midnightblue" points="1703.37,-224.596 1711.29,-217.552 1700.71,-218.124 1703.37,-224.596"/>
</g>
<!-- Node46 -->
<g id="node46" class="node"><title>Node46</title>
<polygon fill="none" stroke="#bfbfbf" points="1484.5,-198.5 1484.5,-217.5 1543.5,-217.5 1543.5,-198.5 1484.5,-198.5"/>
<text text-anchor="middle" x="1514" y="-205.5" font-family="Helvetica,sans-Serif" font-size="10.00">stdexcept</text>
</g>
<!-- Node43&#45;&gt;Node46 -->
<g id="edge55" class="edge"><title>Node43&#45;&gt;Node46</title>
<path fill="none" stroke="midnightblue" d="M1514,-260.679C1514,-251.101 1514,-238.394 1514,-227.977"/>
<polygon fill="midnightblue" stroke="midnightblue" points="1517.5,-227.828 1514,-217.828 1510.5,-227.828 1517.5,-227.828"/>
</g>
<!-- Node47 -->
<g id="node47" class="node"><title>Node47</title>
<polygon fill="none" stroke="#bfbfbf" points="1561.5,-198.5 1561.5,-217.5 1606.5,-217.5 1606.5,-198.5 1561.5,-198.5"/>
<text text-anchor="middle" x="1584" y="-205.5" font-family="Helvetica,sans-Serif" font-size="10.00">gsl/gsl</text>
</g>
<!-- Node43&#45;&gt;Node47 -->
<g id="edge56" class="edge"><title>Node43&#45;&gt;Node47</title>
<path fill="none" stroke="midnightblue" d="M1529.19,-260.679C1540.43,-250.082 1555.73,-235.655 1567.31,-224.736"/>
<polygon fill="midnightblue" stroke="midnightblue" points="1569.76,-227.235 1574.64,-217.828 1564.96,-222.142 1569.76,-227.235"/>
</g>
<!-- Node49 -->
<g id="node49" class="node"><title>Node49</title>
<g id="a_node49"><a xlink:href="../../d7/dcd/MCCompLabel_8h.html" target="_top" xlink:title="SimulationDataFormat\l/MCCompLabel.h">
<polygon fill="none" stroke="black" points="669,-193 669,-223 783,-223 783,-193 669,-193"/>
<text text-anchor="start" x="677" y="-211" font-family="Helvetica,sans-Serif" font-size="10.00">SimulationDataFormat</text>
<text text-anchor="middle" x="726" y="-200" font-family="Helvetica,sans-Serif" font-size="10.00">/MCCompLabel.h</text>
</a>
</g>
</g>
<!-- Node48&#45;&gt;Node49 -->
<g id="edge59" class="edge"><title>Node48&#45;&gt;Node49</title>
<path fill="none" stroke="midnightblue" d="M741.647,-266.372C739.332,-257.886 735.693,-244.542 732.507,-232.858"/>
<polygon fill="midnightblue" stroke="midnightblue" points="735.876,-231.908 729.868,-223.181 729.122,-233.75 735.876,-231.908"/>
</g>
<!-- Node49&#45;&gt;Node12 -->
<g id="edge60" class="edge"><title>Node49&#45;&gt;Node12</title>
<path fill="none" stroke="midnightblue" d="M744.202,-192.824C756.937,-182.771 774.242,-168.838 789,-156 810.15,-137.601 833.598,-115.406 848.779,-100.786"/>
<polygon fill="midnightblue" stroke="midnightblue" points="851.541,-102.983 856.295,-93.5148 846.674,-97.9521 851.541,-102.983"/>
</g>
</g>
</svg>
