<?xml version="1.0" encoding="UTF-8" standalone="no"?>
<!DOCTYPE svg PUBLIC "-//W3C//DTD SVG 1.1//EN"
 "http://www.w3.org/Graphics/SVG/1.1/DTD/svg11.dtd">
<!-- Generated by graphviz version 2.36.0 (20140111.2315)
 -->
<!-- Title: /home/travis/build/AliceO2Group/AliceO2/Detectors/Passive/src/Pipe.cxx Pages: 1 -->
<svg width="1647pt" height="230pt"
 viewBox="0.00 0.00 1647.00 230.00" xmlns="http://www.w3.org/2000/svg" xmlns:xlink="http://www.w3.org/1999/xlink">
<g id="graph0" class="graph" transform="scale(1 1) rotate(0) translate(4 226)">
<title>/home/travis/build/AliceO2Group/AliceO2/Detectors/Passive/src/Pipe.cxx</title>
<!-- Node1 -->
<g id="node1" class="node"><title>Node1</title>
<polygon fill="#bfbfbf" stroke="black" points="932,-169 932,-221 1050,-221 1050,-169 932,-169"/>
<text text-anchor="start" x="940" y="-209" font-family="Helvetica,sans-Serif" font-size="10.00">/home/travis/build</text>
<text text-anchor="start" x="940" y="-198" font-family="Helvetica,sans-Serif" font-size="10.00">/AliceO2Group/AliceO2</text>
<text text-anchor="start" x="940" y="-187" font-family="Helvetica,sans-Serif" font-size="10.00">/Detectors/Passive/src</text>
<text text-anchor="middle" x="991" y="-176" font-family="Helvetica,sans-Serif" font-size="10.00">/Pipe.cxx</text>
</g>
<!-- Node2 -->
<g id="node2" class="node"><title>Node2</title>
<g id="a_node2"><a xlink:href="../../d4/d5f/Pipe_8h.html" target="_top" xlink:title="DetectorsPassive/Pipe.h">
<polygon fill="none" stroke="black" points="38.5,-112.5 38.5,-131.5 163.5,-131.5 163.5,-112.5 38.5,-112.5"/>
<text text-anchor="middle" x="101" y="-119.5" font-family="Helvetica,sans-Serif" font-size="10.00">DetectorsPassive/Pipe.h</text>
</a>
</g>
</g>
<!-- Node1&#45;&gt;Node2 -->
<g id="edge1" class="edge"><title>Node1&#45;&gt;Node2</title>
<path fill="none" stroke="midnightblue" d="M931.915,-189.287C774.593,-176.736 345.817,-142.53 173.817,-128.809"/>
<polygon fill="midnightblue" stroke="midnightblue" points="173.848,-125.3 163.602,-127.994 173.292,-132.278 173.848,-125.3"/>
</g>
<!-- Node5 -->
<g id="node5" class="node"><title>Node5</title>
<g id="a_node5"><a xlink:href="../../d1/d3a/Base_2include_2DetectorsBase_2Detector_8h.html" target="_top" xlink:title="DetectorsBase/Detector.h">
<polygon fill="none" stroke="black" points="399.5,-112.5 399.5,-131.5 530.5,-131.5 530.5,-112.5 399.5,-112.5"/>
<text text-anchor="middle" x="465" y="-119.5" font-family="Helvetica,sans-Serif" font-size="10.00">DetectorsBase/Detector.h</text>
</a>
</g>
</g>
<!-- Node1&#45;&gt;Node5 -->
<g id="edge4" class="edge"><title>Node1&#45;&gt;Node5</title>
<path fill="none" stroke="midnightblue" d="M931.938,-186.028C835.318,-172.986 643.712,-147.123 538.469,-132.917"/>
<polygon fill="midnightblue" stroke="midnightblue" points="538.628,-129.407 528.25,-131.538 537.692,-136.344 538.628,-129.407"/>
</g>
<!-- Node11 -->
<g id="node11" class="node"><title>Node11</title>
<g id="a_node11"><a xlink:href="../../d0/d9a/MaterialManager_8h.html" target="_top" xlink:title="DetectorsBase/MaterialManager.h">
<polygon fill="none" stroke="black" points="835.5,-56.5 835.5,-75.5 1000.5,-75.5 1000.5,-56.5 835.5,-56.5"/>
<text text-anchor="middle" x="918" y="-63.5" font-family="Helvetica,sans-Serif" font-size="10.00">DetectorsBase/MaterialManager.h</text>
</a>
</g>
</g>
<!-- Node1&#45;&gt;Node11 -->
<g id="edge18" class="edge"><title>Node1&#45;&gt;Node11</title>
<path fill="none" stroke="midnightblue" d="M931.764,-194.17C828.672,-193.066 622.945,-184.195 578,-132 572.2,-125.264 572.141,-118.685 578,-112 586.161,-102.688 727.3,-86.4748 825.139,-76.2627"/>
<polygon fill="midnightblue" stroke="midnightblue" points="825.771,-79.716 835.356,-75.2016 825.047,-72.7534 825.771,-79.716"/>
</g>
<!-- Node16 -->
<g id="node16" class="node"><title>Node16</title>
<polygon fill="none" stroke="#bfbfbf" points="587,-112.5 587,-131.5 711,-131.5 711,-112.5 587,-112.5"/>
<text text-anchor="middle" x="649" y="-119.5" font-family="Helvetica,sans-Serif" font-size="10.00">TGeoCompositeShape.h</text>
</g>
<!-- Node1&#45;&gt;Node16 -->
<g id="edge19" class="edge"><title>Node1&#45;&gt;Node16</title>
<path fill="none" stroke="midnightblue" d="M931.819,-181.714C866.442,-168.141 762.233,-146.508 700.228,-133.635"/>
<polygon fill="midnightblue" stroke="midnightblue" points="700.782,-130.175 690.279,-131.57 699.359,-137.029 700.782,-130.175"/>
</g>
<!-- Node17 -->
<g id="node17" class="node"><title>Node17</title>
<polygon fill="none" stroke="#bfbfbf" points="729,-112.5 729,-131.5 801,-131.5 801,-112.5 729,-112.5"/>
<text text-anchor="middle" x="765" y="-119.5" font-family="Helvetica,sans-Serif" font-size="10.00">TGeoCone.h</text>
</g>
<!-- Node1&#45;&gt;Node17 -->
<g id="edge20" class="edge"><title>Node1&#45;&gt;Node17</title>
<path fill="none" stroke="midnightblue" d="M931.916,-175.438C890.849,-162.537 837.373,-145.737 802.155,-134.673"/>
<polygon fill="midnightblue" stroke="midnightblue" points="802.878,-131.231 792.289,-131.573 800.78,-137.909 802.878,-131.231"/>
</g>
<!-- Node18 -->
<g id="node18" class="node"><title>Node18</title>
<polygon fill="none" stroke="#bfbfbf" points="819.5,-112.5 819.5,-131.5 890.5,-131.5 890.5,-112.5 819.5,-112.5"/>
<text text-anchor="middle" x="855" y="-119.5" font-family="Helvetica,sans-Serif" font-size="10.00">TGeoPcon.h</text>
</g>
<!-- Node1&#45;&gt;Node18 -->
<g id="edge21" class="edge"><title>Node1&#45;&gt;Node18</title>
<path fill="none" stroke="midnightblue" d="M943.051,-168.968C922.016,-157.986 898.169,-145.537 880.603,-136.366"/>
<polygon fill="midnightblue" stroke="midnightblue" points="882.032,-133.164 871.548,-131.639 878.793,-139.369 882.032,-133.164"/>
</g>
<!-- Node19 -->
<g id="node19" class="node"><title>Node19</title>
<polygon fill="none" stroke="#bfbfbf" points="909,-112.5 909,-131.5 983,-131.5 983,-112.5 909,-112.5"/>
<text text-anchor="middle" x="946" y="-119.5" font-family="Helvetica,sans-Serif" font-size="10.00">TGeoTorus.h</text>
</g>
<!-- Node1&#45;&gt;Node19 -->
<g id="edge22" class="edge"><title>Node1&#45;&gt;Node19</title>
<path fill="none" stroke="midnightblue" d="M975.008,-168.768C969.061,-159.385 962.451,-148.955 957.044,-140.425"/>
<polygon fill="midnightblue" stroke="midnightblue" points="959.86,-138.33 951.55,-131.757 953.947,-142.077 959.86,-138.33"/>
</g>
<!-- Node20 -->
<g id="node20" class="node"><title>Node20</title>
<polygon fill="none" stroke="#bfbfbf" points="1001.5,-112.5 1001.5,-131.5 1072.5,-131.5 1072.5,-112.5 1001.5,-112.5"/>
<text text-anchor="middle" x="1037" y="-119.5" font-family="Helvetica,sans-Serif" font-size="10.00">TGeoTube.h</text>
</g>
<!-- Node1&#45;&gt;Node20 -->
<g id="edge23" class="edge"><title>Node1&#45;&gt;Node20</title>
<path fill="none" stroke="midnightblue" d="M1007.35,-168.768C1013.49,-159.284 1020.33,-148.731 1025.89,-140.15"/>
<polygon fill="midnightblue" stroke="midnightblue" points="1028.83,-142.053 1031.33,-131.757 1022.95,-138.247 1028.83,-142.053"/>
</g>
<!-- Node21 -->
<g id="node21" class="node"><title>Node21</title>
<polygon fill="none" stroke="#bfbfbf" points="1091,-112.5 1091,-131.5 1165,-131.5 1165,-112.5 1091,-112.5"/>
<text text-anchor="middle" x="1128" y="-119.5" font-family="Helvetica,sans-Serif" font-size="10.00">TVirtualMC.h</text>
</g>
<!-- Node1&#45;&gt;Node21 -->
<g id="edge24" class="edge"><title>Node1&#45;&gt;Node21</title>
<path fill="none" stroke="midnightblue" d="M1039.3,-168.968C1060.49,-157.986 1084.51,-145.537 1102.21,-136.366"/>
<polygon fill="midnightblue" stroke="midnightblue" points="1104.06,-139.348 1111.33,-131.639 1100.84,-133.133 1104.06,-139.348"/>
</g>
<!-- Node22 -->
<g id="node22" class="node"><title>Node22</title>
<polygon fill="none" stroke="#bfbfbf" points="1183,-112.5 1183,-131.5 1269,-131.5 1269,-112.5 1183,-112.5"/>
<text text-anchor="middle" x="1226" y="-119.5" font-family="Helvetica,sans-Serif" font-size="10.00">TGeoManager.h</text>
</g>
<!-- Node1&#45;&gt;Node22 -->
<g id="edge25" class="edge"><title>Node1&#45;&gt;Node22</title>
<path fill="none" stroke="midnightblue" d="M1050.3,-176.084C1093.43,-163.054 1150.55,-145.796 1187.78,-134.549"/>
<polygon fill="midnightblue" stroke="midnightblue" points="1189.16,-137.787 1197.72,-131.544 1187.13,-131.086 1189.16,-137.787"/>
</g>
<!-- Node23 -->
<g id="node23" class="node"><title>Node23</title>
<polygon fill="none" stroke="#bfbfbf" points="1287.5,-112.5 1287.5,-131.5 1370.5,-131.5 1370.5,-112.5 1287.5,-112.5"/>
<text text-anchor="middle" x="1329" y="-119.5" font-family="Helvetica,sans-Serif" font-size="10.00">TGeoMaterial.h</text>
</g>
<!-- Node1&#45;&gt;Node23 -->
<g id="edge26" class="edge"><title>Node1&#45;&gt;Node23</title>
<path fill="none" stroke="midnightblue" d="M1050.26,-181.551C1115.01,-167.951 1217.61,-146.399 1278.61,-133.584"/>
<polygon fill="midnightblue" stroke="midnightblue" points="1279.34,-137.009 1288.4,-131.528 1277.9,-130.159 1279.34,-137.009"/>
</g>
<!-- Node24 -->
<g id="node24" class="node"><title>Node24</title>
<polygon fill="none" stroke="#bfbfbf" points="1388.5,-112.5 1388.5,-131.5 1471.5,-131.5 1471.5,-112.5 1388.5,-112.5"/>
<text text-anchor="middle" x="1430" y="-119.5" font-family="Helvetica,sans-Serif" font-size="10.00">TGeoMedium.h</text>
</g>
<!-- Node1&#45;&gt;Node24 -->
<g id="edge27" class="edge"><title>Node1&#45;&gt;Node24</title>
<path fill="none" stroke="midnightblue" d="M1050.21,-184.844C1124.34,-173.314 1255.48,-152.69 1378.3,-132.095"/>
<polygon fill="midnightblue" stroke="midnightblue" points="1378.98,-135.531 1388.26,-130.423 1377.82,-128.627 1378.98,-135.531"/>
</g>
<!-- Node25 -->
<g id="node25" class="node"><title>Node25</title>
<polygon fill="none" stroke="#bfbfbf" points="1490,-112.5 1490,-131.5 1572,-131.5 1572,-112.5 1490,-112.5"/>
<text text-anchor="middle" x="1531" y="-119.5" font-family="Helvetica,sans-Serif" font-size="10.00">TGeoVolume.h</text>
</g>
<!-- Node1&#45;&gt;Node25 -->
<g id="edge28" class="edge"><title>Node1&#45;&gt;Node25</title>
<path fill="none" stroke="midnightblue" d="M1050.22,-187.432C1140.43,-177.218 1317.91,-156.312 1479.69,-131.975"/>
<polygon fill="midnightblue" stroke="midnightblue" points="1480.47,-135.397 1489.83,-130.442 1479.42,-128.476 1480.47,-135.397"/>
</g>
<!-- Node26 -->
<g id="node26" class="node"><title>Node26</title>
<polygon fill="none" stroke="#bfbfbf" points="1590.5,-112.5 1590.5,-131.5 1639.5,-131.5 1639.5,-112.5 1590.5,-112.5"/>
<text text-anchor="middle" x="1615" y="-119.5" font-family="Helvetica,sans-Serif" font-size="10.00">cassert</text>
</g>
<!-- Node1&#45;&gt;Node26 -->
<g id="edge29" class="edge"><title>Node1&#45;&gt;Node26</title>
<path fill="none" stroke="midnightblue" d="M1050.05,-190.814C1154.99,-184.496 1380.87,-167.931 1580.15,-131.875"/>
<polygon fill="midnightblue" stroke="midnightblue" points="1581.01,-135.275 1590.22,-130.032 1579.75,-128.39 1581.01,-135.275"/>
</g>
<!-- Node3 -->
<g id="node3" class="node"><title>Node3</title>
<polygon fill="none" stroke="#bfbfbf" points="-0.5,-56.5 -0.5,-75.5 72.5,-75.5 72.5,-56.5 -0.5,-56.5"/>
<text text-anchor="middle" x="36" y="-63.5" font-family="Helvetica,sans-Serif" font-size="10.00">FairModule.h</text>
</g>
<!-- Node2&#45;&gt;Node3 -->
<g id="edge2" class="edge"><title>Node2&#45;&gt;Node3</title>
<path fill="none" stroke="midnightblue" d="M90.5566,-112.324C80.8538,-104.263 66.1847,-92.0765 54.5003,-82.3695"/>
<polygon fill="midnightblue" stroke="midnightblue" points="56.5619,-79.532 46.6334,-75.8339 52.0887,-84.9163 56.5619,-79.532"/>
</g>
<!-- Node4 -->
<g id="node4" class="node"><title>Node4</title>
<polygon fill="none" stroke="#bfbfbf" points="111,-0.5 111,-19.5 167,-19.5 167,-0.5 111,-0.5"/>
<text text-anchor="middle" x="139" y="-7.5" font-family="Helvetica,sans-Serif" font-size="10.00">Rtypes.h</text>
</g>
<!-- Node2&#45;&gt;Node4 -->
<g id="edge3" class="edge"><title>Node2&#45;&gt;Node4</title>
<path fill="none" stroke="midnightblue" d="M103.982,-112.368C110.142,-94.5366 124.389,-53.2953 132.688,-29.2717"/>
<polygon fill="midnightblue" stroke="midnightblue" points="136.075,-30.1862 136.032,-19.5914 129.459,-27.9005 136.075,-30.1862"/>
</g>
<!-- Node5&#45;&gt;Node4 -->
<g id="edge13" class="edge"><title>Node5&#45;&gt;Node4</title>
<path fill="none" stroke="midnightblue" d="M399.166,-119.48C319.89,-116.297 193.002,-106.451 158,-76 144.853,-64.5624 140.56,-44.5799 139.277,-29.7813"/>
<polygon fill="midnightblue" stroke="midnightblue" points="142.768,-29.5199 138.784,-19.7025 135.776,-29.8614 142.768,-29.5199"/>
</g>
<!-- Node6 -->
<g id="node6" class="node"><title>Node6</title>
<polygon fill="none" stroke="#bfbfbf" points="844.5,-0.5 844.5,-19.5 879.5,-19.5 879.5,-0.5 844.5,-0.5"/>
<text text-anchor="middle" x="862" y="-7.5" font-family="Helvetica,sans-Serif" font-size="10.00">map</text>
</g>
<!-- Node5&#45;&gt;Node6 -->
<g id="edge5" class="edge"><title>Node5&#45;&gt;Node6</title>
<path fill="none" stroke="midnightblue" d="M530.83,-113.824C618.214,-103.988 764.196,-86.3614 787,-76 811.619,-64.8142 834.239,-42.9151 848.059,-27.6418"/>
<polygon fill="midnightblue" stroke="midnightblue" points="850.839,-29.7796 854.789,-19.9483 845.57,-25.1711 850.839,-29.7796"/>
</g>
<!-- Node7 -->
<g id="node7" class="node"><title>Node7</title>
<polygon fill="none" stroke="#bfbfbf" points="377,-56.5 377,-75.5 421,-75.5 421,-56.5 377,-56.5"/>
<text text-anchor="middle" x="399" y="-63.5" font-family="Helvetica,sans-Serif" font-size="10.00">vector</text>
</g>
<!-- Node5&#45;&gt;Node7 -->
<g id="edge6" class="edge"><title>Node5&#45;&gt;Node7</title>
<path fill="none" stroke="midnightblue" d="M454.396,-112.324C444.544,-104.263 429.649,-92.0765 417.785,-82.3695"/>
<polygon fill="midnightblue" stroke="midnightblue" points="419.753,-79.4575 409.797,-75.8339 415.32,-84.8752 419.753,-79.4575"/>
</g>
<!-- Node8 -->
<g id="node8" class="node"><title>Node8</title>
<polygon fill="none" stroke="#bfbfbf" points="439,-56.5 439,-75.5 491,-75.5 491,-56.5 439,-56.5"/>
<text text-anchor="middle" x="465" y="-63.5" font-family="Helvetica,sans-Serif" font-size="10.00">memory</text>
</g>
<!-- Node5&#45;&gt;Node8 -->
<g id="edge7" class="edge"><title>Node5&#45;&gt;Node8</title>
<path fill="none" stroke="midnightblue" d="M465,-112.083C465,-105.006 465,-94.8611 465,-85.9865"/>
<polygon fill="midnightblue" stroke="midnightblue" points="468.5,-85.751 465,-75.7511 461.5,-85.7511 468.5,-85.751"/>
</g>
<!-- Node9 -->
<g id="node9" class="node"><title>Node9</title>
<polygon fill="none" stroke="#bfbfbf" points="509.5,-56.5 509.5,-75.5 588.5,-75.5 588.5,-56.5 509.5,-56.5"/>
<text text-anchor="middle" x="549" y="-63.5" font-family="Helvetica,sans-Serif" font-size="10.00">FairDetector.h</text>
</g>
<!-- Node5&#45;&gt;Node9 -->
<g id="edge8" class="edge"><title>Node5&#45;&gt;Node9</title>
<path fill="none" stroke="midnightblue" d="M478.496,-112.324C491.6,-103.9 511.712,-90.9709 527.107,-81.0741"/>
<polygon fill="midnightblue" stroke="midnightblue" points="529.018,-84.0063 535.537,-75.6545 525.233,-78.118 529.018,-84.0063"/>
</g>
<!-- Node10 -->
<g id="node10" class="node"><title>Node10</title>
<polygon fill="none" stroke="#bfbfbf" points="607,-56.5 607,-75.5 707,-75.5 707,-56.5 607,-56.5"/>
<text text-anchor="middle" x="657" y="-63.5" font-family="Helvetica,sans-Serif" font-size="10.00">FairRootManager.h</text>
</g>
<!-- Node5&#45;&gt;Node10 -->
<g id="edge9" class="edge"><title>Node5&#45;&gt;Node10</title>
<path fill="none" stroke="midnightblue" d="M495.423,-112.444C528.285,-103.201 580.785,-88.4356 616.974,-78.2572"/>
<polygon fill="midnightblue" stroke="midnightblue" points="618.04,-81.5932 626.719,-75.5164 616.145,-74.8547 618.04,-81.5932"/>
</g>
<!-- Node5&#45;&gt;Node11 -->
<g id="edge10" class="edge"><title>Node5&#45;&gt;Node11</title>
<path fill="none" stroke="midnightblue" d="M530.87,-113.148C611.714,-103.511 748.809,-87.1685 836.289,-76.7403"/>
<polygon fill="midnightblue" stroke="midnightblue" points="836.925,-80.1894 846.441,-75.5303 836.097,-73.2386 836.925,-80.1894"/>
</g>
<!-- Node12 -->
<g id="node12" class="node"><title>Node12</title>
<polygon fill="none" stroke="#bfbfbf" points="725.5,-56.5 725.5,-75.5 778.5,-75.5 778.5,-56.5 725.5,-56.5"/>
<text text-anchor="middle" x="752" y="-63.5" font-family="Helvetica,sans-Serif" font-size="10.00">cxxabi.h</text>
</g>
<!-- Node5&#45;&gt;Node12 -->
<g id="edge14" class="edge"><title>Node5&#45;&gt;Node12</title>
<path fill="none" stroke="midnightblue" d="M518.576,-112.472C567.345,-104.467 641.541,-91.6813 715.371,-76.0133"/>
<polygon fill="midnightblue" stroke="midnightblue" points="716.265,-79.4013 725.31,-73.8857 714.799,-72.5564 716.265,-79.4013"/>
</g>
<!-- Node13 -->
<g id="node13" class="node"><title>Node13</title>
<polygon fill="none" stroke="#bfbfbf" points="167.5,-56.5 167.5,-75.5 218.5,-75.5 218.5,-56.5 167.5,-56.5"/>
<text text-anchor="middle" x="193" y="-63.5" font-family="Helvetica,sans-Serif" font-size="10.00">typeinfo</text>
</g>
<!-- Node5&#45;&gt;Node13 -->
<g id="edge15" class="edge"><title>Node5&#45;&gt;Node13</title>
<path fill="none" stroke="midnightblue" d="M414.874,-112.444C368.934,-104.386 298.822,-91.5462 228.492,-75.9892"/>
<polygon fill="midnightblue" stroke="midnightblue" points="229.091,-72.537 218.569,-73.7763 227.567,-79.3691 229.091,-72.537"/>
</g>
<!-- Node14 -->
<g id="node14" class="node"><title>Node14</title>
<polygon fill="none" stroke="#bfbfbf" points="237,-56.5 237,-75.5 299,-75.5 299,-56.5 237,-56.5"/>
<text text-anchor="middle" x="268" y="-63.5" font-family="Helvetica,sans-Serif" font-size="10.00">type_traits</text>
</g>
<!-- Node5&#45;&gt;Node14 -->
<g id="edge16" class="edge"><title>Node5&#45;&gt;Node14</title>
<path fill="none" stroke="midnightblue" d="M433.785,-112.444C400.067,-103.201 346.2,-88.4356 309.068,-78.2572"/>
<polygon fill="midnightblue" stroke="midnightblue" points="309.639,-74.7846 299.069,-75.5164 307.788,-81.5356 309.639,-74.7846"/>
</g>
<!-- Node15 -->
<g id="node15" class="node"><title>Node15</title>
<polygon fill="none" stroke="#bfbfbf" points="317.5,-56.5 317.5,-75.5 358.5,-75.5 358.5,-56.5 317.5,-56.5"/>
<text text-anchor="middle" x="338" y="-63.5" font-family="Helvetica,sans-Serif" font-size="10.00">string</text>
</g>
<!-- Node5&#45;&gt;Node15 -->
<g id="edge17" class="edge"><title>Node5&#45;&gt;Node15</title>
<path fill="none" stroke="midnightblue" d="M444.876,-112.444C423.976,-103.557 391.065,-89.5632 367.284,-79.4514"/>
<polygon fill="midnightblue" stroke="midnightblue" points="368.602,-76.2085 358.029,-75.5164 365.862,-82.6504 368.602,-76.2085"/>
</g>
<!-- Node11&#45;&gt;Node4 -->
<g id="edge11" class="edge"><title>Node11&#45;&gt;Node4</title>
<path fill="none" stroke="midnightblue" d="M835.371,-59.2722C668.697,-47.7184 297.857,-22.0119 177.516,-13.6699"/>
<polygon fill="midnightblue" stroke="midnightblue" points="177.535,-10.1629 167.317,-12.9629 177.051,-17.1461 177.535,-10.1629"/>
</g>
<!-- Node11&#45;&gt;Node6 -->
<g id="edge12" class="edge"><title>Node11&#45;&gt;Node6</title>
<path fill="none" stroke="midnightblue" d="M909.003,-56.324C900.806,-48.4196 888.494,-36.5482 878.528,-26.9377"/>
<polygon fill="midnightblue" stroke="midnightblue" points="880.789,-24.2558 871.161,-19.8339 875.93,-29.2947 880.789,-24.2558"/>
</g>
</g>
</svg>
