<?xml version="1.0" encoding="UTF-8" standalone="no"?>
<!DOCTYPE svg PUBLIC "-//W3C//DTD SVG 1.1//EN"
 "http://www.w3.org/Graphics/SVG/1.1/DTD/svg11.dtd">
<!-- Generated by graphviz version 2.36.0 (20140111.2315)
 -->
<!-- Title: /home/travis/build/AliceO2Group/AliceO2/Detectors/MUON/MID/Clustering/src/ClusterizerDevice.cxx Pages: 1 -->
<!--zoomable 366 -->
<svg id="main" version="1.1" xmlns="http://www.w3.org/2000/svg" xmlns:xlink="http://www.w3.org/1999/xlink" xml:space="preserve" onload="init(evt)">
<style type="text/css"><![CDATA[
.edge:hover path { stroke: red; }
.edge:hover polygon { stroke: red; fill: red; }
]]></style>
<script type="text/javascript"><![CDATA[
var edges = document.getElementsByTagName('g');
if (edges && edges.length) {
  for (var i=0;i<edges.length;i++) {
    if (edges[i].id.substr(0,4)=='edge') {
      edges[i].setAttribute('class','edge');
    }
  }
}
]]></script>
        <defs>
                <circle id="rim" cx="0" cy="0" r="7"/>
                <circle id="rim2" cx="0" cy="0" r="3.5"/>
                <g id="zoomPlus">
                        <use xlink:href="#rim" fill="#404040">
                                <set attributeName="fill" to="#808080" begin="zoomplus.mouseover" end="zoomplus.mouseout"/>
                        </use>
                        <path d="M-4,0h8M0,-4v8" fill="none" stroke="white" stroke-width="1.5" pointer-events="none"/>
                </g>
                <g id="zoomMin">
                        <use xlink:href="#rim" fill="#404040">
                                <set attributeName="fill" to="#808080" begin="zoomminus.mouseover" end="zoomminus.mouseout"/>
                        </use>
                        <path d="M-4,0h8" fill="none" stroke="white" stroke-width="1.5" pointer-events="none"/>
                </g>
                <g id="dirArrow">
                        <path fill="none" stroke="white" stroke-width="1.5" d="M0,-3.0v7 M-2.5,-0.5L0,-3.0L2.5,-0.5"/>
                </g>
               <g id="resetDef">
                       <use xlink:href="#rim2" fill="#404040">
                               <set attributeName="fill" to="#808080" begin="reset.mouseover" end="reset.mouseout"/>
                       </use>
               </g>
        </defs>

<script type="text/javascript">
var viewWidth = 1128;
var viewHeight = 366;
var sectionId = 'dynsection-0';
</script>
<script xlink:href="../../svgpan.js"/>
<svg id="graph" class="graph">
<g id="viewport">
<title>/home/travis/build/AliceO2Group/AliceO2/Detectors/MUON/MID/Clustering/src/ClusterizerDevice.cxx</title>
<!-- Node1 -->
<g id="node1" class="node"><title>Node1</title>
<polygon fill="#bfbfbf" stroke="black" points="429.5,-305 429.5,-357 594.5,-357 594.5,-305 429.5,-305"/>
<text text-anchor="start" x="437.5" y="-345" font-family="Helvetica,sans-Serif" font-size="10.00">/home/travis/build</text>
<text text-anchor="start" x="437.5" y="-334" font-family="Helvetica,sans-Serif" font-size="10.00">/AliceO2Group/AliceO2</text>
<text text-anchor="start" x="437.5" y="-323" font-family="Helvetica,sans-Serif" font-size="10.00">/Detectors/MUON/MID/Clustering</text>
<text text-anchor="middle" x="512" y="-312" font-family="Helvetica,sans-Serif" font-size="10.00">/src/ClusterizerDevice.cxx</text>
</g>
<!-- Node2 -->
<g id="node2" class="node"><title>Node2</title>
<g id="a_node2"><a xlink:href="../../d8/de7/ClusterizerDevice_8h.html" target="_top" xlink:title="Cluster reconstruction device for MID. ">
<polygon fill="none" stroke="black" points="142.5,-248.5 142.5,-267.5 245.5,-267.5 245.5,-248.5 142.5,-248.5"/>
<text text-anchor="middle" x="194" y="-255.5" font-family="Helvetica,sans-Serif" font-size="10.00">ClusterizerDevice.h</text>
</a>
</g>
</g>
<!-- Node1&#45;&gt;Node2 -->
<g id="edge1" class="edge"><title>Node1&#45;&gt;Node2</title>
<path fill="none" stroke="midnightblue" d="M429.279,-311.531C369.71,-298.231 291.42,-280.751 241.891,-269.693"/>
<polygon fill="midnightblue" stroke="midnightblue" points="242.602,-266.265 232.079,-267.502 241.076,-273.097 242.602,-266.265"/>
</g>
<!-- Node6 -->
<g id="node6" class="node"><title>Node6</title>
<polygon fill="none" stroke="#bfbfbf" points="233,-62.5 233,-81.5 277,-81.5 277,-62.5 233,-62.5"/>
<text text-anchor="middle" x="255" y="-69.5" font-family="Helvetica,sans-Serif" font-size="10.00">vector</text>
</g>
<!-- Node1&#45;&gt;Node6 -->
<g id="edge18" class="edge"><title>Node1&#45;&gt;Node6</title>
<path fill="none" stroke="midnightblue" d="M477.069,-304.731C432.366,-271.286 354.125,-208.934 299,-144 284.969,-127.473 272.32,-106.035 264.224,-91.0587"/>
<polygon fill="midnightblue" stroke="midnightblue" points="267.14,-89.0825 259.386,-81.8624 260.945,-92.342 267.14,-89.0825"/>
</g>
<!-- Node13 -->
<g id="node13" class="node"><title>Node13</title>
<g id="a_node13"><a xlink:href="../../dd/df3/StripPattern_8h.html" target="_top" xlink:title="Strip pattern (aka digits) ">
<polygon fill="none" stroke="black" points="506.5,-124.5 506.5,-143.5 661.5,-143.5 661.5,-124.5 506.5,-124.5"/>
<text text-anchor="middle" x="584" y="-131.5" font-family="Helvetica,sans-Serif" font-size="10.00">DataFormatsMID/StripPattern.h</text>
</a>
</g>
</g>
<!-- Node1&#45;&gt;Node13 -->
<g id="edge25" class="edge"><title>Node1&#45;&gt;Node13</title>
<path fill="none" stroke="midnightblue" d="M504.987,-304.803C497.75,-273.422 490.286,-219.177 512,-180 520.089,-165.405 535.103,-154.918 549.336,-147.761"/>
<polygon fill="midnightblue" stroke="midnightblue" points="550.886,-150.9 558.496,-143.528 547.95,-144.546 550.886,-150.9"/>
</g>
<!-- Node14 -->
<g id="node14" class="node"><title>Node14</title>
<polygon fill="none" stroke="#bfbfbf" points="559,-248.5 559,-267.5 645,-267.5 645,-248.5 559,-248.5"/>
<text text-anchor="middle" x="602" y="-255.5" font-family="Helvetica,sans-Serif" font-size="10.00">FairMQLogger.h</text>
</g>
<!-- Node1&#45;&gt;Node14 -->
<g id="edge19" class="edge"><title>Node1&#45;&gt;Node14</title>
<path fill="none" stroke="midnightblue" d="M543.731,-304.968C556.797,-294.66 571.503,-283.059 582.872,-274.09"/>
<polygon fill="midnightblue" stroke="midnightblue" points="585.15,-276.751 590.833,-267.81 580.814,-271.255 585.15,-276.751"/>
</g>
<!-- Node15 -->
<g id="node15" class="node"><title>Node15</title>
<g id="a_node15"><a xlink:href="../../dd/d26/Serializer_8h.html" target="_top" xlink:title="Templated boost serializer/deserializer for MID vectors. ">
<polygon fill="none" stroke="black" points="772,-248.5 772,-267.5 882,-267.5 882,-248.5 772,-248.5"/>
<text text-anchor="middle" x="827" y="-255.5" font-family="Helvetica,sans-Serif" font-size="10.00">MIDBase/Serializer.h</text>
</a>
</g>
</g>
<!-- Node1&#45;&gt;Node15 -->
<g id="edge20" class="edge"><title>Node1&#45;&gt;Node15</title>
<path fill="none" stroke="midnightblue" d="M594.763,-311.346C653.474,-298.112 730.224,-280.813 779.081,-269.801"/>
<polygon fill="midnightblue" stroke="midnightblue" points="780.082,-273.163 789.067,-267.55 778.542,-266.334 780.082,-273.163"/>
</g>
<!-- Node20 -->
<g id="node20" class="node"><title>Node20</title>
<g id="a_node20"><a xlink:href="../../d0/dc4/LegacyUtility_8h.html" target="_top" xlink:title="Utility for MID detection element IDs. ">
<polygon fill="none" stroke="black" points="521,-186.5 521,-205.5 647,-205.5 647,-186.5 521,-186.5"/>
<text text-anchor="middle" x="584" y="-193.5" font-family="Helvetica,sans-Serif" font-size="10.00">MIDBase/LegacyUtility.h</text>
</a>
</g>
</g>
<!-- Node1&#45;&gt;Node20 -->
<g id="edge26" class="edge"><title>Node1&#45;&gt;Node20</title>
<path fill="none" stroke="midnightblue" d="M522.5,-304.743C529.64,-288.27 539.641,-266.476 550,-248 556.546,-236.323 564.869,-223.808 571.641,-214.097"/>
<polygon fill="midnightblue" stroke="midnightblue" points="574.62,-215.946 577.551,-205.765 568.911,-211.897 574.62,-215.946"/>
</g>
<!-- Node3 -->
<g id="node3" class="node"><title>Node3</title>
<polygon fill="none" stroke="#bfbfbf" points="68,-186.5 68,-205.5 156,-205.5 156,-186.5 68,-186.5"/>
<text text-anchor="middle" x="112" y="-193.5" font-family="Helvetica,sans-Serif" font-size="10.00">FairMQDevice.h</text>
</g>
<!-- Node2&#45;&gt;Node3 -->
<g id="edge2" class="edge"><title>Node2&#45;&gt;Node3</title>
<path fill="none" stroke="midnightblue" d="M182.251,-248.403C169.099,-238.78 147.566,-223.024 131.802,-211.489"/>
<polygon fill="midnightblue" stroke="midnightblue" points="133.864,-208.661 123.727,-205.581 129.73,-214.31 133.864,-208.661"/>
</g>
<!-- Node4 -->
<g id="node4" class="node"><title>Node4</title>
<g id="a_node4"><a xlink:href="../../d5/d53/Clusterizer_8h.html" target="_top" xlink:title="Cluster reconstruction algorithm for MID. ">
<polygon fill="none" stroke="black" points="174,-186.5 174,-205.5 246,-205.5 246,-186.5 174,-186.5"/>
<text text-anchor="middle" x="210" y="-193.5" font-family="Helvetica,sans-Serif" font-size="10.00">Clusterizer.h</text>
</a>
</g>
</g>
<!-- Node2&#45;&gt;Node4 -->
<g id="edge3" class="edge"><title>Node2&#45;&gt;Node4</title>
<path fill="none" stroke="midnightblue" d="M196.292,-248.403C198.574,-239.849 202.147,-226.45 205.073,-215.476"/>
<polygon fill="midnightblue" stroke="midnightblue" points="208.517,-216.145 207.712,-205.581 201.753,-214.341 208.517,-216.145"/>
</g>
<!-- Node5 -->
<g id="node5" class="node"><title>Node5</title>
<polygon fill="none" stroke="#bfbfbf" points="124.5,-124.5 124.5,-143.5 207.5,-143.5 207.5,-124.5 124.5,-124.5"/>
<text text-anchor="middle" x="166" y="-131.5" font-family="Helvetica,sans-Serif" font-size="10.00">unordered_map</text>
</g>
<!-- Node4&#45;&gt;Node5 -->
<g id="edge4" class="edge"><title>Node4&#45;&gt;Node5</title>
<path fill="none" stroke="midnightblue" d="M203.696,-186.403C197.096,-177.403 186.563,-163.041 178.307,-151.782"/>
<polygon fill="midnightblue" stroke="midnightblue" points="181.029,-149.575 172.292,-143.581 175.384,-153.714 181.029,-149.575"/>
</g>
<!-- Node4&#45;&gt;Node6 -->
<g id="edge5" class="edge"><title>Node4&#45;&gt;Node6</title>
<path fill="none" stroke="midnightblue" d="M213.236,-186.226C220.534,-166.442 238.399,-118.007 248.234,-91.3436"/>
<polygon fill="midnightblue" stroke="midnightblue" points="251.616,-92.2878 251.793,-81.6944 245.049,-89.8653 251.616,-92.2878"/>
</g>
<!-- Node7 -->
<g id="node7" class="node"><title>Node7</title>
<g id="a_node7"><a xlink:href="../../d4/d73/MID_2Base_2include_2MIDBase_2Mapping_8h.html" target="_top" xlink:title="Mapping for MID. ">
<polygon fill="none" stroke="black" points="0,-124.5 0,-143.5 106,-143.5 106,-124.5 0,-124.5"/>
<text text-anchor="middle" x="53" y="-131.5" font-family="Helvetica,sans-Serif" font-size="10.00">MIDBase/Mapping.h</text>
</a>
</g>
</g>
<!-- Node4&#45;&gt;Node7 -->
<g id="edge6" class="edge"><title>Node4&#45;&gt;Node7</title>
<path fill="none" stroke="midnightblue" d="M187.506,-186.403C160.691,-176.156 115.685,-158.956 85.1906,-147.302"/>
<polygon fill="midnightblue" stroke="midnightblue" points="86.0431,-143.881 75.4525,-143.581 83.5442,-150.42 86.0431,-143.881"/>
</g>
<!-- Node10 -->
<g id="node10" class="node"><title>Node10</title>
<g id="a_node10"><a xlink:href="../../d6/d31/Cluster2D_8h.html" target="_top" xlink:title="Reconstructed cluster per RPC. ">
<polygon fill="none" stroke="black" points="340,-124.5 340,-143.5 488,-143.5 488,-124.5 340,-124.5"/>
<text text-anchor="middle" x="414" y="-131.5" font-family="Helvetica,sans-Serif" font-size="10.00">DataFormatsMID/Cluster2D.h</text>
</a>
</g>
</g>
<!-- Node4&#45;&gt;Node10 -->
<g id="edge11" class="edge"><title>Node4&#45;&gt;Node10</title>
<path fill="none" stroke="midnightblue" d="M239.228,-186.403C274.903,-175.911 335.36,-158.129 374.982,-146.476"/>
<polygon fill="midnightblue" stroke="midnightblue" points="376.22,-149.76 384.826,-143.581 374.245,-143.045 376.22,-149.76"/>
</g>
<!-- Node4&#45;&gt;Node13 -->
<g id="edge14" class="edge"><title>Node4&#45;&gt;Node13</title>
<path fill="none" stroke="midnightblue" d="M246.201,-189.192C309.623,-179.018 441.571,-157.85 520.479,-145.191"/>
<polygon fill="midnightblue" stroke="midnightblue" points="521.456,-148.579 530.775,-143.539 520.347,-141.667 521.456,-148.579"/>
</g>
<!-- Node7&#45;&gt;Node6 -->
<g id="edge8" class="edge"><title>Node7&#45;&gt;Node6</title>
<path fill="none" stroke="midnightblue" d="M81.9417,-124.403C119.395,-113.279 184.433,-93.9606 223.221,-82.4392"/>
<polygon fill="midnightblue" stroke="midnightblue" points="224.363,-85.7512 232.953,-79.5487 222.37,-79.041 224.363,-85.7512"/>
</g>
<!-- Node8 -->
<g id="node8" class="node"><title>Node8</title>
<polygon fill="none" stroke="#bfbfbf" points="114,-0.5 114,-19.5 152,-19.5 152,-0.5 114,-0.5"/>
<text text-anchor="middle" x="133" y="-7.5" font-family="Helvetica,sans-Serif" font-size="10.00">array</text>
</g>
<!-- Node7&#45;&gt;Node8 -->
<g id="edge7" class="edge"><title>Node7&#45;&gt;Node8</title>
<path fill="none" stroke="midnightblue" d="M53.2676,-124.145C54.1186,-108.965 57.629,-77.5302 72,-56 80.6166,-43.0908 94.2405,-32.5253 106.429,-24.8838"/>
<polygon fill="midnightblue" stroke="midnightblue" points="108.525,-27.7116 115.364,-19.6199 104.971,-21.6806 108.525,-27.7116"/>
</g>
<!-- Node9 -->
<g id="node9" class="node"><title>Node9</title>
<g id="a_node9"><a xlink:href="../../d7/d0a/MpArea_8h.html" target="_top" xlink:title="Mapping area for MID. ">
<polygon fill="none" stroke="black" points="81.5,-62.5 81.5,-81.5 184.5,-81.5 184.5,-62.5 81.5,-62.5"/>
<text text-anchor="middle" x="133" y="-69.5" font-family="Helvetica,sans-Serif" font-size="10.00">MIDBase/MpArea.h</text>
</a>
</g>
</g>
<!-- Node7&#45;&gt;Node9 -->
<g id="edge9" class="edge"><title>Node7&#45;&gt;Node9</title>
<path fill="none" stroke="midnightblue" d="M64.462,-124.403C77.175,-114.869 97.9128,-99.3154 113.253,-87.8106"/>
<polygon fill="midnightblue" stroke="midnightblue" points="115.659,-90.3806 121.559,-81.5806 111.459,-84.7806 115.659,-90.3806"/>
</g>
<!-- Node9&#45;&gt;Node8 -->
<g id="edge10" class="edge"><title>Node9&#45;&gt;Node8</title>
<path fill="none" stroke="midnightblue" d="M133,-62.4035C133,-53.9381 133,-40.7283 133,-29.8199"/>
<polygon fill="midnightblue" stroke="midnightblue" points="136.5,-29.5806 133,-19.5806 129.5,-29.5806 136.5,-29.5806"/>
</g>
<!-- Node11 -->
<g id="node11" class="node"><title>Node11</title>
<polygon fill="none" stroke="#bfbfbf" points="377.5,-57 377.5,-87 472.5,-87 472.5,-57 377.5,-57"/>
<text text-anchor="start" x="385.5" y="-75" font-family="Helvetica,sans-Serif" font-size="10.00">boost/serialization</text>
<text text-anchor="middle" x="425" y="-64" font-family="Helvetica,sans-Serif" font-size="10.00">/access.hpp</text>
</g>
<!-- Node10&#45;&gt;Node11 -->
<g id="edge12" class="edge"><title>Node10&#45;&gt;Node11</title>
<path fill="none" stroke="midnightblue" d="M415.576,-124.403C416.885,-117.265 418.812,-106.752 420.583,-97.0903"/>
<polygon fill="midnightblue" stroke="midnightblue" points="424.047,-97.6081 422.408,-87.1408 417.162,-96.3457 424.047,-97.6081"/>
</g>
<!-- Node12 -->
<g id="node12" class="node"><title>Node12</title>
<polygon fill="none" stroke="#bfbfbf" points="561,-62.5 561,-81.5 607,-81.5 607,-62.5 561,-62.5"/>
<text text-anchor="middle" x="584" y="-69.5" font-family="Helvetica,sans-Serif" font-size="10.00">cstdint</text>
</g>
<!-- Node10&#45;&gt;Node12 -->
<g id="edge13" class="edge"><title>Node10&#45;&gt;Node12</title>
<path fill="none" stroke="midnightblue" d="M438.357,-124.403C467.977,-113.949 518.097,-96.2598 551.121,-84.6042"/>
<polygon fill="midnightblue" stroke="midnightblue" points="552.515,-87.8241 560.78,-81.1954 550.185,-81.2232 552.515,-87.8241"/>
</g>
<!-- Node13&#45;&gt;Node8 -->
<g id="edge17" class="edge"><title>Node13&#45;&gt;Node8</title>
<path fill="none" stroke="midnightblue" d="M575.611,-124.248C559.196,-107.735 520.931,-72.1937 481,-56 423.275,-32.5904 235.703,-17.8654 162.574,-12.8885"/>
<polygon fill="midnightblue" stroke="midnightblue" points="162.46,-9.37317 152.249,-12.1992 161.994,-16.3576 162.46,-9.37317"/>
</g>
<!-- Node13&#45;&gt;Node11 -->
<g id="edge15" class="edge"><title>Node13&#45;&gt;Node11</title>
<path fill="none" stroke="midnightblue" d="M561.219,-124.403C537.998,-115.641 501.305,-101.794 471.849,-90.6789"/>
<polygon fill="midnightblue" stroke="midnightblue" points="472.759,-87.2813 462.167,-87.0253 470.287,-93.8306 472.759,-87.2813"/>
</g>
<!-- Node13&#45;&gt;Node12 -->
<g id="edge16" class="edge"><title>Node13&#45;&gt;Node12</title>
<path fill="none" stroke="midnightblue" d="M584,-124.403C584,-115.938 584,-102.728 584,-91.8199"/>
<polygon fill="midnightblue" stroke="midnightblue" points="587.5,-91.5806 584,-81.5806 580.5,-91.5806 587.5,-91.5806"/>
</g>
<!-- Node16 -->
<g id="node16" class="node"><title>Node16</title>
<polygon fill="none" stroke="#bfbfbf" points="778.5,-186.5 778.5,-205.5 875.5,-205.5 875.5,-186.5 778.5,-186.5"/>
<text text-anchor="middle" x="827" y="-193.5" font-family="Helvetica,sans-Serif" font-size="10.00">FairMQMessage.h</text>
</g>
<!-- Node15&#45;&gt;Node16 -->
<g id="edge21" class="edge"><title>Node15&#45;&gt;Node16</title>
<path fill="none" stroke="midnightblue" d="M827,-248.403C827,-239.938 827,-226.728 827,-215.82"/>
<polygon fill="midnightblue" stroke="midnightblue" points="830.5,-215.581 827,-205.581 823.5,-215.581 830.5,-215.581"/>
</g>
<!-- Node17 -->
<g id="node17" class="node"><title>Node17</title>
<polygon fill="none" stroke="#bfbfbf" points="894,-181 894,-211 998,-211 998,-181 894,-181"/>
<text text-anchor="start" x="902" y="-199" font-family="Helvetica,sans-Serif" font-size="10.00">boost/archive/binary</text>
<text text-anchor="middle" x="946" y="-188" font-family="Helvetica,sans-Serif" font-size="10.00">_iarchive.hpp</text>
</g>
<!-- Node15&#45;&gt;Node17 -->
<g id="edge22" class="edge"><title>Node15&#45;&gt;Node17</title>
<path fill="none" stroke="midnightblue" d="M844.05,-248.403C860.92,-239.898 887.29,-226.602 908.984,-215.663"/>
<polygon fill="midnightblue" stroke="midnightblue" points="910.601,-218.768 917.954,-211.141 907.449,-212.518 910.601,-218.768"/>
</g>
<!-- Node18 -->
<g id="node18" class="node"><title>Node18</title>
<polygon fill="none" stroke="#bfbfbf" points="1016,-181 1016,-211 1120,-211 1120,-181 1016,-181"/>
<text text-anchor="start" x="1024" y="-199" font-family="Helvetica,sans-Serif" font-size="10.00">boost/archive/binary</text>
<text text-anchor="middle" x="1068" y="-188" font-family="Helvetica,sans-Serif" font-size="10.00">_oarchive.hpp</text>
</g>
<!-- Node15&#45;&gt;Node18 -->
<g id="edge23" class="edge"><title>Node15&#45;&gt;Node18</title>
<path fill="none" stroke="midnightblue" d="M861.273,-248.467C898.805,-239.123 959.772,-223.945 1005.79,-212.487"/>
<polygon fill="midnightblue" stroke="midnightblue" points="1006.81,-215.841 1015.67,-210.029 1005.12,-209.048 1006.81,-215.841"/>
</g>
<!-- Node19 -->
<g id="node19" class="node"><title>Node19</title>
<polygon fill="none" stroke="#bfbfbf" points="665.5,-181 665.5,-211 760.5,-211 760.5,-181 665.5,-181"/>
<text text-anchor="start" x="673.5" y="-199" font-family="Helvetica,sans-Serif" font-size="10.00">boost/serialization</text>
<text text-anchor="middle" x="713" y="-188" font-family="Helvetica,sans-Serif" font-size="10.00">/vector.hpp</text>
</g>
<!-- Node15&#45;&gt;Node19 -->
<g id="edge24" class="edge"><title>Node15&#45;&gt;Node19</title>
<path fill="none" stroke="midnightblue" d="M810.667,-248.403C794.578,-239.936 769.469,-226.72 748.739,-215.81"/>
<polygon fill="midnightblue" stroke="midnightblue" points="750.347,-212.701 739.868,-211.141 747.087,-218.896 750.347,-212.701"/>
</g>
<!-- Node20&#45;&gt;Node6 -->
<g id="edge29" class="edge"><title>Node20&#45;&gt;Node6</title>
<path fill="none" stroke="midnightblue" d="M520.798,-191.848C467.609,-187.013 390.865,-174.799 331,-144 305.26,-130.758 281.954,-106.258 268.128,-89.7927"/>
<polygon fill="midnightblue" stroke="midnightblue" points="270.489,-87.1485 261.467,-81.5946 265.057,-91.5628 270.489,-87.1485"/>
</g>
<!-- Node20&#45;&gt;Node12 -->
<g id="edge27" class="edge"><title>Node20&#45;&gt;Node12</title>
<path fill="none" stroke="midnightblue" d="M623.596,-186.47C662.097,-177.279 716.545,-161.584 729,-144 734.138,-136.746 734.138,-131.254 729,-124 703.769,-88.3793 651.58,-77.4574 617.185,-74.2139"/>
<polygon fill="midnightblue" stroke="midnightblue" points="617.372,-70.718 607.132,-73.435 616.832,-77.6971 617.372,-70.718"/>
</g>
<!-- Node20&#45;&gt;Node13 -->
<g id="edge30" class="edge"><title>Node20&#45;&gt;Node13</title>
<path fill="none" stroke="midnightblue" d="M584,-186.403C584,-177.938 584,-164.728 584,-153.82"/>
<polygon fill="midnightblue" stroke="midnightblue" points="587.5,-153.581 584,-143.581 580.5,-153.581 587.5,-153.581"/>
</g>
<!-- Node21 -->
<g id="node21" class="node"><title>Node21</title>
<polygon fill="none" stroke="#bfbfbf" points="679.5,-124.5 679.5,-143.5 720.5,-143.5 720.5,-124.5 679.5,-124.5"/>
<text text-anchor="middle" x="700" y="-131.5" font-family="Helvetica,sans-Serif" font-size="10.00">string</text>
</g>
<!-- Node20&#45;&gt;Node21 -->
<g id="edge28" class="edge"><title>Node20&#45;&gt;Node21</title>
<path fill="none" stroke="midnightblue" d="M600.62,-186.403C619.915,-176.423 651.959,-159.849 674.431,-148.225"/>
<polygon fill="midnightblue" stroke="midnightblue" points="676.137,-151.284 683.411,-143.581 672.921,-145.066 676.137,-151.284"/>
</g>
</g>
</svg>
        <g id="navigator" transform="translate(0 0)" fill="#404254">
                <rect fill="#f2f5e9" fill-opacity="0.5" stroke="#606060" stroke-width=".5" x="0" y="0" width="60" height="60"/>
                <use id="zoomplus" xlink:href="#zoomPlus" x="17" y="9" onmousedown="handleZoom(evt,'in')"/>
                <use id="zoomminus" xlink:href="#zoomMin" x="42" y="9" onmousedown="handleZoom(evt,'out')"/>
                <use id="reset" xlink:href="#resetDef" x="30" y="36" onmousedown="handleReset()"/>
                <g id="arrowUp" xlink:href="#dirArrow" transform="translate(30 24)" onmousedown="handlePan(0,-1)">
                  <use xlink:href="#rim" fill="#404040">
                        <set attributeName="fill" to="#808080" begin="arrowUp.mouseover" end="arrowUp.mouseout"/>
                  </use>
                  <path fill="none" stroke="white" stroke-width="1.5" d="M0,-3.0v7 M-2.5,-0.5L0,-3.0L2.5,-0.5"/>
                </g>
                <g id="arrowRight" xlink:href="#dirArrow" transform="rotate(90) translate(36 -43)" onmousedown="handlePan(1,0)">
                  <use xlink:href="#rim" fill="#404040">
                        <set attributeName="fill" to="#808080" begin="arrowRight.mouseover" end="arrowRight.mouseout"/>
                  </use>
                  <path fill="none" stroke="white" stroke-width="1.5" d="M0,-3.0v7 M-2.5,-0.5L0,-3.0L2.5,-0.5"/>
                </g>
                <g id="arrowDown" xlink:href="#dirArrow" transform="rotate(180) translate(-30 -48)" onmousedown="handlePan(0,1)">
                  <use xlink:href="#rim" fill="#404040">
                        <set attributeName="fill" to="#808080" begin="arrowDown.mouseover" end="arrowDown.mouseout"/>
                  </use>
                  <path fill="none" stroke="white" stroke-width="1.5" d="M0,-3.0v7 M-2.5,-0.5L0,-3.0L2.5,-0.5"/>
                </g>
                <g id="arrowLeft" xlink:href="#dirArrow" transform="rotate(270) translate(-36 17)" onmousedown="handlePan(-1,0)">
                  <use xlink:href="#rim" fill="#404040">
                        <set attributeName="fill" to="#808080" begin="arrowLeft.mouseover" end="arrowLeft.mouseout"/>
                  </use>
                  <path fill="none" stroke="white" stroke-width="1.5" d="M0,-3.0v7 M-2.5,-0.5L0,-3.0L2.5,-0.5"/>
                </g>
        </g>
        <svg viewBox="0 0 15 15" width="100%" height="30px" preserveAspectRatio="xMaxYMin meet">
         <g id="arrow_out" transform="scale(0.3 0.3)">
          <a xlink:href="ClusterizerDevice_8cxx__incl_org.svg" target="_base">
           <rect id="button" ry="5" rx="5" y="6" x="6" height="38" width="38"
                fill="#f2f5e9" fill-opacity="0.5" stroke="#606060" stroke-width="1.0"/>
           <path id="arrow"
             d="M 11.500037,31.436501 C 11.940474,20.09759 22.043105,11.32322 32.158766,21.979434 L 37.068811,17.246167 C 37.068811,17.246167 37.088388,32 37.088388,32 L 22.160133,31.978069 C 22.160133,31.978069 26.997745,27.140456 26.997745,27.140456 C 18.528582,18.264221 13.291696,25.230495 11.500037,31.436501 z"
             style="fill:#404040;"/>
          </a>
         </g>
        </svg>
</svg>
