<?xml version="1.0" encoding="UTF-8" standalone="no"?>
<!DOCTYPE svg PUBLIC "-//W3C//DTD SVG 1.1//EN"
 "http://www.w3.org/Graphics/SVG/1.1/DTD/svg11.dtd">
<!-- Generated by graphviz version 2.36.0 (20140111.2315)
 -->
<!-- Title: /home/travis/build/AliceO2Group/AliceO2/Detectors/Passive/src/Dipole.cxx Pages: 1 -->
<svg width="1818pt" height="230pt"
 viewBox="0.00 0.00 1818.00 230.00" xmlns="http://www.w3.org/2000/svg" xmlns:xlink="http://www.w3.org/1999/xlink">
<g id="graph0" class="graph" transform="scale(1 1) rotate(0) translate(4 226)">
<title>/home/travis/build/AliceO2Group/AliceO2/Detectors/Passive/src/Dipole.cxx</title>
<!-- Node1 -->
<g id="node1" class="node"><title>Node1</title>
<polygon fill="#bfbfbf" stroke="black" points="1043,-169 1043,-221 1161,-221 1161,-169 1043,-169"/>
<text text-anchor="start" x="1051" y="-209" font-family="Helvetica,sans-Serif" font-size="10.00">/home/travis/build</text>
<text text-anchor="start" x="1051" y="-198" font-family="Helvetica,sans-Serif" font-size="10.00">/AliceO2Group/AliceO2</text>
<text text-anchor="start" x="1051" y="-187" font-family="Helvetica,sans-Serif" font-size="10.00">/Detectors/Passive/src</text>
<text text-anchor="middle" x="1102" y="-176" font-family="Helvetica,sans-Serif" font-size="10.00">/Dipole.cxx</text>
</g>
<!-- Node2 -->
<g id="node2" class="node"><title>Node2</title>
<g id="a_node2"><a xlink:href="../../d1/d3a/Base_2include_2DetectorsBase_2Detector_8h.html" target="_top" xlink:title="DetectorsBase/Detector.h">
<polygon fill="none" stroke="black" points="399.5,-112.5 399.5,-131.5 530.5,-131.5 530.5,-112.5 399.5,-112.5"/>
<text text-anchor="middle" x="465" y="-119.5" font-family="Helvetica,sans-Serif" font-size="10.00">DetectorsBase/Detector.h</text>
</a>
</g>
</g>
<!-- Node1&#45;&gt;Node2 -->
<g id="edge1" class="edge"><title>Node1&#45;&gt;Node2</title>
<path fill="none" stroke="midnightblue" d="M1042.64,-187.416C940.824,-176.117 726.303,-152.289 545,-132 543.711,-131.856 542.41,-131.71 541.1,-131.563"/>
<polygon fill="midnightblue" stroke="midnightblue" points="541.248,-128.058 530.92,-130.422 540.468,-135.015 541.248,-128.058"/>
</g>
<!-- Node8 -->
<g id="node8" class="node"><title>Node8</title>
<g id="a_node8"><a xlink:href="../../d0/d9a/MaterialManager_8h.html" target="_top" xlink:title="DetectorsBase/MaterialManager.h">
<polygon fill="none" stroke="black" points="835.5,-56.5 835.5,-75.5 1000.5,-75.5 1000.5,-56.5 835.5,-56.5"/>
<text text-anchor="middle" x="918" y="-63.5" font-family="Helvetica,sans-Serif" font-size="10.00">DetectorsBase/MaterialManager.h</text>
</a>
</g>
</g>
<!-- Node1&#45;&gt;Node8 -->
<g id="edge15" class="edge"><title>Node1&#45;&gt;Node8</title>
<path fill="none" stroke="midnightblue" d="M1042.72,-191.328C912.254,-184.841 609.403,-166.22 579,-132 573.096,-125.355 573.143,-118.686 579,-112 587.124,-102.727 727.452,-86.5397 824.986,-76.3165"/>
<polygon fill="midnightblue" stroke="midnightblue" points="825.59,-79.7727 835.173,-75.2541 824.864,-72.8104 825.59,-79.7727"/>
</g>
<!-- Node14 -->
<g id="node14" class="node"><title>Node14</title>
<g id="a_node14"><a xlink:href="../../d8/d70/Dipole_8h.html" target="_top" xlink:title="DetectorsPassive/Dipole.h">
<polygon fill="none" stroke="black" points="34,-112.5 34,-131.5 168,-131.5 168,-112.5 34,-112.5"/>
<text text-anchor="middle" x="101" y="-119.5" font-family="Helvetica,sans-Serif" font-size="10.00">DetectorsPassive/Dipole.h</text>
</a>
</g>
</g>
<!-- Node1&#45;&gt;Node14 -->
<g id="edge16" class="edge"><title>Node1&#45;&gt;Node14</title>
<path fill="none" stroke="midnightblue" d="M1042.75,-189.798C870.694,-177.594 371.049,-142.154 178.2,-128.476"/>
<polygon fill="midnightblue" stroke="midnightblue" points="178.369,-124.979 168.147,-127.763 177.874,-131.961 178.369,-124.979"/>
</g>
<!-- Node16 -->
<g id="node16" class="node"><title>Node16</title>
<polygon fill="none" stroke="#bfbfbf" points="587.5,-112.5 587.5,-131.5 656.5,-131.5 656.5,-112.5 587.5,-112.5"/>
<text text-anchor="middle" x="622" y="-119.5" font-family="Helvetica,sans-Serif" font-size="10.00">TGeoArb8.h</text>
</g>
<!-- Node1&#45;&gt;Node16 -->
<g id="edge19" class="edge"><title>Node1&#45;&gt;Node16</title>
<path fill="none" stroke="midnightblue" d="M1042.94,-186.753C960.916,-176.435 807.68,-156.235 666.679,-132.023"/>
<polygon fill="midnightblue" stroke="midnightblue" points="667,-128.526 656.55,-130.273 665.808,-135.424 667,-128.526"/>
</g>
<!-- Node17 -->
<g id="node17" class="node"><title>Node17</title>
<polygon fill="none" stroke="#bfbfbf" points="675,-112.5 675,-131.5 799,-131.5 799,-112.5 675,-112.5"/>
<text text-anchor="middle" x="737" y="-119.5" font-family="Helvetica,sans-Serif" font-size="10.00">TGeoCompositeShape.h</text>
</g>
<!-- Node1&#45;&gt;Node17 -->
<g id="edge20" class="edge"><title>Node1&#45;&gt;Node17</title>
<path fill="none" stroke="midnightblue" d="M1042.95,-182.514C973.191,-168.944 858.127,-146.562 790.759,-133.457"/>
<polygon fill="midnightblue" stroke="midnightblue" points="791.258,-129.989 780.774,-131.515 789.921,-136.86 791.258,-129.989"/>
</g>
<!-- Node18 -->
<g id="node18" class="node"><title>Node18</title>
<polygon fill="none" stroke="#bfbfbf" points="817,-112.5 817,-131.5 889,-131.5 889,-112.5 817,-112.5"/>
<text text-anchor="middle" x="853" y="-119.5" font-family="Helvetica,sans-Serif" font-size="10.00">TGeoCone.h</text>
</g>
<!-- Node1&#45;&gt;Node18 -->
<g id="edge21" class="edge"><title>Node1&#45;&gt;Node18</title>
<path fill="none" stroke="midnightblue" d="M1042.99,-177.174C996.588,-163.943 933.218,-145.873 892.694,-134.318"/>
<polygon fill="midnightblue" stroke="midnightblue" points="893.484,-130.904 882.908,-131.528 891.565,-137.636 893.484,-130.904"/>
</g>
<!-- Node19 -->
<g id="node19" class="node"><title>Node19</title>
<polygon fill="none" stroke="#bfbfbf" points="907,-112.5 907,-131.5 993,-131.5 993,-112.5 907,-112.5"/>
<text text-anchor="middle" x="950" y="-119.5" font-family="Helvetica,sans-Serif" font-size="10.00">TGeoManager.h</text>
</g>
<!-- Node1&#45;&gt;Node19 -->
<g id="edge22" class="edge"><title>Node1&#45;&gt;Node19</title>
<path fill="none" stroke="midnightblue" d="M1048.41,-168.968C1024.57,-157.834 997.507,-145.191 977.801,-135.986"/>
<polygon fill="midnightblue" stroke="midnightblue" points="979.036,-132.7 968.495,-131.639 976.074,-139.042 979.036,-132.7"/>
</g>
<!-- Node20 -->
<g id="node20" class="node"><title>Node20</title>
<polygon fill="none" stroke="#bfbfbf" points="1011.5,-112.5 1011.5,-131.5 1094.5,-131.5 1094.5,-112.5 1011.5,-112.5"/>
<text text-anchor="middle" x="1053" y="-119.5" font-family="Helvetica,sans-Serif" font-size="10.00">TGeoMaterial.h</text>
</g>
<!-- Node1&#45;&gt;Node20 -->
<g id="edge23" class="edge"><title>Node1&#45;&gt;Node20</title>
<path fill="none" stroke="midnightblue" d="M1084.59,-168.768C1078.04,-159.284 1070.76,-148.731 1064.84,-140.15"/>
<polygon fill="midnightblue" stroke="midnightblue" points="1067.6,-137.999 1059.04,-131.757 1061.84,-141.975 1067.6,-137.999"/>
</g>
<!-- Node21 -->
<g id="node21" class="node"><title>Node21</title>
<polygon fill="none" stroke="#bfbfbf" points="1113,-112.5 1113,-131.5 1189,-131.5 1189,-112.5 1113,-112.5"/>
<text text-anchor="middle" x="1151" y="-119.5" font-family="Helvetica,sans-Serif" font-size="10.00">TGeoMatrix.h</text>
</g>
<!-- Node1&#45;&gt;Node21 -->
<g id="edge24" class="edge"><title>Node1&#45;&gt;Node21</title>
<path fill="none" stroke="midnightblue" d="M1119.41,-168.768C1125.96,-159.284 1133.24,-148.731 1139.16,-140.15"/>
<polygon fill="midnightblue" stroke="midnightblue" points="1142.16,-141.975 1144.96,-131.757 1136.4,-137.999 1142.16,-141.975"/>
</g>
<!-- Node22 -->
<g id="node22" class="node"><title>Node22</title>
<polygon fill="none" stroke="#bfbfbf" points="1207.5,-112.5 1207.5,-131.5 1290.5,-131.5 1290.5,-112.5 1207.5,-112.5"/>
<text text-anchor="middle" x="1249" y="-119.5" font-family="Helvetica,sans-Serif" font-size="10.00">TGeoMedium.h</text>
</g>
<!-- Node1&#45;&gt;Node22 -->
<g id="edge25" class="edge"><title>Node1&#45;&gt;Node22</title>
<path fill="none" stroke="midnightblue" d="M1153.83,-168.968C1176.77,-157.885 1202.82,-145.306 1221.85,-136.112"/>
<polygon fill="midnightblue" stroke="midnightblue" points="1223.63,-139.14 1231.11,-131.639 1220.59,-132.837 1223.63,-139.14"/>
</g>
<!-- Node23 -->
<g id="node23" class="node"><title>Node23</title>
<polygon fill="none" stroke="#bfbfbf" points="1308.5,-112.5 1308.5,-131.5 1379.5,-131.5 1379.5,-112.5 1308.5,-112.5"/>
<text text-anchor="middle" x="1344" y="-119.5" font-family="Helvetica,sans-Serif" font-size="10.00">TGeoPcon.h</text>
</g>
<!-- Node1&#45;&gt;Node23 -->
<g id="edge26" class="edge"><title>Node1&#45;&gt;Node23</title>
<path fill="none" stroke="midnightblue" d="M1161.2,-176.631C1205.9,-163.517 1265.98,-145.889 1304.85,-134.486"/>
<polygon fill="midnightblue" stroke="midnightblue" points="1306.13,-137.759 1314.74,-131.585 1304.16,-131.042 1306.13,-137.759"/>
</g>
<!-- Node24 -->
<g id="node24" class="node"><title>Node24</title>
<polygon fill="none" stroke="#bfbfbf" points="1397.5,-112.5 1397.5,-131.5 1468.5,-131.5 1468.5,-112.5 1397.5,-112.5"/>
<text text-anchor="middle" x="1433" y="-119.5" font-family="Helvetica,sans-Serif" font-size="10.00">TGeoPgon.h</text>
</g>
<!-- Node1&#45;&gt;Node24 -->
<g id="edge27" class="edge"><title>Node1&#45;&gt;Node24</title>
<path fill="none" stroke="midnightblue" d="M1161.18,-181.307C1225.91,-167.422 1328.27,-145.466 1387.17,-132.831"/>
<polygon fill="midnightblue" stroke="midnightblue" points="1388.25,-136.179 1397.29,-130.66 1386.78,-129.335 1388.25,-136.179"/>
</g>
<!-- Node25 -->
<g id="node25" class="node"><title>Node25</title>
<polygon fill="none" stroke="#bfbfbf" points="1486.5,-112.5 1486.5,-131.5 1557.5,-131.5 1557.5,-112.5 1486.5,-112.5"/>
<text text-anchor="middle" x="1522" y="-119.5" font-family="Helvetica,sans-Serif" font-size="10.00">TGeoTube.h</text>
</g>
<!-- Node1&#45;&gt;Node25 -->
<g id="edge28" class="edge"><title>Node1&#45;&gt;Node25</title>
<path fill="none" stroke="midnightblue" d="M1161.21,-184.839C1233.18,-173.563 1358.58,-153.467 1476.25,-132.087"/>
<polygon fill="midnightblue" stroke="midnightblue" points="1476.95,-135.518 1486.16,-130.281 1475.69,-128.631 1476.95,-135.518"/>
</g>
<!-- Node26 -->
<g id="node26" class="node"><title>Node26</title>
<polygon fill="none" stroke="#bfbfbf" points="1576,-112.5 1576,-131.5 1658,-131.5 1658,-112.5 1576,-112.5"/>
<text text-anchor="middle" x="1617" y="-119.5" font-family="Helvetica,sans-Serif" font-size="10.00">TGeoVolume.h</text>
</g>
<!-- Node1&#45;&gt;Node26 -->
<g id="edge29" class="edge"><title>Node1&#45;&gt;Node26</title>
<path fill="none" stroke="midnightblue" d="M1161.08,-186.91C1247.45,-176.365 1413.5,-155.422 1565.82,-131.966"/>
<polygon fill="midnightblue" stroke="midnightblue" points="1566.48,-135.405 1575.83,-130.418 1565.41,-128.488 1566.48,-135.405"/>
</g>
<!-- Node27 -->
<g id="node27" class="node"><title>Node27</title>
<polygon fill="none" stroke="#bfbfbf" points="1676.5,-112.5 1676.5,-131.5 1743.5,-131.5 1743.5,-112.5 1676.5,-112.5"/>
<text text-anchor="middle" x="1710" y="-119.5" font-family="Helvetica,sans-Serif" font-size="10.00">TGeoXtru.h</text>
</g>
<!-- Node1&#45;&gt;Node27 -->
<g id="edge30" class="edge"><title>Node1&#45;&gt;Node27</title>
<path fill="none" stroke="midnightblue" d="M1161.22,-189.405C1262.62,-181.122 1476.09,-161.867 1666.35,-131.955"/>
<polygon fill="midnightblue" stroke="midnightblue" points="1666.93,-135.408 1676.26,-130.385 1665.83,-128.494 1666.93,-135.408"/>
</g>
<!-- Node28 -->
<g id="node28" class="node"><title>Node28</title>
<polygon fill="none" stroke="#bfbfbf" points="1761.5,-112.5 1761.5,-131.5 1810.5,-131.5 1810.5,-112.5 1761.5,-112.5"/>
<text text-anchor="middle" x="1786" y="-119.5" font-family="Helvetica,sans-Serif" font-size="10.00">cassert</text>
</g>
<!-- Node1&#45;&gt;Node28 -->
<g id="edge31" class="edge"><title>Node1&#45;&gt;Node28</title>
<path fill="none" stroke="midnightblue" d="M1161.15,-191.601C1274.2,-186.312 1528.75,-171.015 1751.32,-131.824"/>
<polygon fill="midnightblue" stroke="midnightblue" points="1751.99,-135.259 1761.22,-130.06 1750.76,-128.368 1751.99,-135.259"/>
</g>
<!-- Node3 -->
<g id="node3" class="node"><title>Node3</title>
<polygon fill="none" stroke="#bfbfbf" points="844.5,-0.5 844.5,-19.5 879.5,-19.5 879.5,-0.5 844.5,-0.5"/>
<text text-anchor="middle" x="862" y="-7.5" font-family="Helvetica,sans-Serif" font-size="10.00">map</text>
</g>
<!-- Node2&#45;&gt;Node3 -->
<g id="edge2" class="edge"><title>Node2&#45;&gt;Node3</title>
<path fill="none" stroke="midnightblue" d="M530.83,-113.824C618.214,-103.988 764.196,-86.3614 787,-76 811.619,-64.8142 834.239,-42.9151 848.059,-27.6418"/>
<polygon fill="midnightblue" stroke="midnightblue" points="850.839,-29.7796 854.789,-19.9483 845.57,-25.1711 850.839,-29.7796"/>
</g>
<!-- Node4 -->
<g id="node4" class="node"><title>Node4</title>
<polygon fill="none" stroke="#bfbfbf" points="377,-56.5 377,-75.5 421,-75.5 421,-56.5 377,-56.5"/>
<text text-anchor="middle" x="399" y="-63.5" font-family="Helvetica,sans-Serif" font-size="10.00">vector</text>
</g>
<!-- Node2&#45;&gt;Node4 -->
<g id="edge3" class="edge"><title>Node2&#45;&gt;Node4</title>
<path fill="none" stroke="midnightblue" d="M454.396,-112.324C444.544,-104.263 429.649,-92.0765 417.785,-82.3695"/>
<polygon fill="midnightblue" stroke="midnightblue" points="419.753,-79.4575 409.797,-75.8339 415.32,-84.8752 419.753,-79.4575"/>
</g>
<!-- Node5 -->
<g id="node5" class="node"><title>Node5</title>
<polygon fill="none" stroke="#bfbfbf" points="439,-56.5 439,-75.5 491,-75.5 491,-56.5 439,-56.5"/>
<text text-anchor="middle" x="465" y="-63.5" font-family="Helvetica,sans-Serif" font-size="10.00">memory</text>
</g>
<!-- Node2&#45;&gt;Node5 -->
<g id="edge4" class="edge"><title>Node2&#45;&gt;Node5</title>
<path fill="none" stroke="midnightblue" d="M465,-112.083C465,-105.006 465,-94.8611 465,-85.9865"/>
<polygon fill="midnightblue" stroke="midnightblue" points="468.5,-85.751 465,-75.7511 461.5,-85.7511 468.5,-85.751"/>
</g>
<!-- Node6 -->
<g id="node6" class="node"><title>Node6</title>
<polygon fill="none" stroke="#bfbfbf" points="509.5,-56.5 509.5,-75.5 588.5,-75.5 588.5,-56.5 509.5,-56.5"/>
<text text-anchor="middle" x="549" y="-63.5" font-family="Helvetica,sans-Serif" font-size="10.00">FairDetector.h</text>
</g>
<!-- Node2&#45;&gt;Node6 -->
<g id="edge5" class="edge"><title>Node2&#45;&gt;Node6</title>
<path fill="none" stroke="midnightblue" d="M478.496,-112.324C491.6,-103.9 511.712,-90.9709 527.107,-81.0741"/>
<polygon fill="midnightblue" stroke="midnightblue" points="529.018,-84.0063 535.537,-75.6545 525.233,-78.118 529.018,-84.0063"/>
</g>
<!-- Node7 -->
<g id="node7" class="node"><title>Node7</title>
<polygon fill="none" stroke="#bfbfbf" points="607,-56.5 607,-75.5 707,-75.5 707,-56.5 607,-56.5"/>
<text text-anchor="middle" x="657" y="-63.5" font-family="Helvetica,sans-Serif" font-size="10.00">FairRootManager.h</text>
</g>
<!-- Node2&#45;&gt;Node7 -->
<g id="edge6" class="edge"><title>Node2&#45;&gt;Node7</title>
<path fill="none" stroke="midnightblue" d="M495.423,-112.444C528.285,-103.201 580.785,-88.4356 616.974,-78.2572"/>
<polygon fill="midnightblue" stroke="midnightblue" points="618.04,-81.5932 626.719,-75.5164 616.145,-74.8547 618.04,-81.5932"/>
</g>
<!-- Node2&#45;&gt;Node8 -->
<g id="edge7" class="edge"><title>Node2&#45;&gt;Node8</title>
<path fill="none" stroke="midnightblue" d="M530.87,-113.148C611.714,-103.511 748.809,-87.1685 836.289,-76.7403"/>
<polygon fill="midnightblue" stroke="midnightblue" points="836.925,-80.1894 846.441,-75.5303 836.097,-73.2386 836.925,-80.1894"/>
</g>
<!-- Node9 -->
<g id="node9" class="node"><title>Node9</title>
<polygon fill="none" stroke="#bfbfbf" points="111,-0.5 111,-19.5 167,-19.5 167,-0.5 111,-0.5"/>
<text text-anchor="middle" x="139" y="-7.5" font-family="Helvetica,sans-Serif" font-size="10.00">Rtypes.h</text>
</g>
<!-- Node2&#45;&gt;Node9 -->
<g id="edge10" class="edge"><title>Node2&#45;&gt;Node9</title>
<path fill="none" stroke="midnightblue" d="M399.166,-119.48C319.89,-116.297 193.002,-106.451 158,-76 144.853,-64.5624 140.56,-44.5799 139.277,-29.7813"/>
<polygon fill="midnightblue" stroke="midnightblue" points="142.768,-29.5199 138.784,-19.7025 135.776,-29.8614 142.768,-29.5199"/>
</g>
<!-- Node10 -->
<g id="node10" class="node"><title>Node10</title>
<polygon fill="none" stroke="#bfbfbf" points="725.5,-56.5 725.5,-75.5 778.5,-75.5 778.5,-56.5 725.5,-56.5"/>
<text text-anchor="middle" x="752" y="-63.5" font-family="Helvetica,sans-Serif" font-size="10.00">cxxabi.h</text>
</g>
<!-- Node2&#45;&gt;Node10 -->
<g id="edge11" class="edge"><title>Node2&#45;&gt;Node10</title>
<path fill="none" stroke="midnightblue" d="M518.576,-112.472C567.345,-104.467 641.541,-91.6813 715.371,-76.0133"/>
<polygon fill="midnightblue" stroke="midnightblue" points="716.265,-79.4013 725.31,-73.8857 714.799,-72.5564 716.265,-79.4013"/>
</g>
<!-- Node11 -->
<g id="node11" class="node"><title>Node11</title>
<polygon fill="none" stroke="#bfbfbf" points="167.5,-56.5 167.5,-75.5 218.5,-75.5 218.5,-56.5 167.5,-56.5"/>
<text text-anchor="middle" x="193" y="-63.5" font-family="Helvetica,sans-Serif" font-size="10.00">typeinfo</text>
</g>
<!-- Node2&#45;&gt;Node11 -->
<g id="edge12" class="edge"><title>Node2&#45;&gt;Node11</title>
<path fill="none" stroke="midnightblue" d="M414.874,-112.444C368.934,-104.386 298.822,-91.5462 228.492,-75.9892"/>
<polygon fill="midnightblue" stroke="midnightblue" points="229.091,-72.537 218.569,-73.7763 227.567,-79.3691 229.091,-72.537"/>
</g>
<!-- Node12 -->
<g id="node12" class="node"><title>Node12</title>
<polygon fill="none" stroke="#bfbfbf" points="237,-56.5 237,-75.5 299,-75.5 299,-56.5 237,-56.5"/>
<text text-anchor="middle" x="268" y="-63.5" font-family="Helvetica,sans-Serif" font-size="10.00">type_traits</text>
</g>
<!-- Node2&#45;&gt;Node12 -->
<g id="edge13" class="edge"><title>Node2&#45;&gt;Node12</title>
<path fill="none" stroke="midnightblue" d="M433.785,-112.444C400.067,-103.201 346.2,-88.4356 309.068,-78.2572"/>
<polygon fill="midnightblue" stroke="midnightblue" points="309.639,-74.7846 299.069,-75.5164 307.788,-81.5356 309.639,-74.7846"/>
</g>
<!-- Node13 -->
<g id="node13" class="node"><title>Node13</title>
<polygon fill="none" stroke="#bfbfbf" points="317.5,-56.5 317.5,-75.5 358.5,-75.5 358.5,-56.5 317.5,-56.5"/>
<text text-anchor="middle" x="338" y="-63.5" font-family="Helvetica,sans-Serif" font-size="10.00">string</text>
</g>
<!-- Node2&#45;&gt;Node13 -->
<g id="edge14" class="edge"><title>Node2&#45;&gt;Node13</title>
<path fill="none" stroke="midnightblue" d="M444.876,-112.444C423.976,-103.557 391.065,-89.5632 367.284,-79.4514"/>
<polygon fill="midnightblue" stroke="midnightblue" points="368.602,-76.2085 358.029,-75.5164 365.862,-82.6504 368.602,-76.2085"/>
</g>
<!-- Node8&#45;&gt;Node3 -->
<g id="edge9" class="edge"><title>Node8&#45;&gt;Node3</title>
<path fill="none" stroke="midnightblue" d="M909.003,-56.324C900.806,-48.4196 888.494,-36.5482 878.528,-26.9377"/>
<polygon fill="midnightblue" stroke="midnightblue" points="880.789,-24.2558 871.161,-19.8339 875.93,-29.2947 880.789,-24.2558"/>
</g>
<!-- Node8&#45;&gt;Node9 -->
<g id="edge8" class="edge"><title>Node8&#45;&gt;Node9</title>
<path fill="none" stroke="midnightblue" d="M835.371,-59.2722C668.697,-47.7184 297.857,-22.0119 177.516,-13.6699"/>
<polygon fill="midnightblue" stroke="midnightblue" points="177.535,-10.1629 167.317,-12.9629 177.051,-17.1461 177.535,-10.1629"/>
</g>
<!-- Node14&#45;&gt;Node9 -->
<g id="edge18" class="edge"><title>Node14&#45;&gt;Node9</title>
<path fill="none" stroke="midnightblue" d="M103.982,-112.368C110.142,-94.5366 124.389,-53.2953 132.688,-29.2717"/>
<polygon fill="midnightblue" stroke="midnightblue" points="136.075,-30.1862 136.032,-19.5914 129.459,-27.9005 136.075,-30.1862"/>
</g>
<!-- Node15 -->
<g id="node15" class="node"><title>Node15</title>
<polygon fill="none" stroke="#bfbfbf" points="-0.5,-56.5 -0.5,-75.5 72.5,-75.5 72.5,-56.5 -0.5,-56.5"/>
<text text-anchor="middle" x="36" y="-63.5" font-family="Helvetica,sans-Serif" font-size="10.00">FairModule.h</text>
</g>
<!-- Node14&#45;&gt;Node15 -->
<g id="edge17" class="edge"><title>Node14&#45;&gt;Node15</title>
<path fill="none" stroke="midnightblue" d="M90.5566,-112.324C80.8538,-104.263 66.1847,-92.0765 54.5003,-82.3695"/>
<polygon fill="midnightblue" stroke="midnightblue" points="56.5619,-79.532 46.6334,-75.8339 52.0887,-84.9163 56.5619,-79.532"/>
</g>
</g>
</svg>
