<?xml version="1.0" encoding="UTF-8" standalone="no"?>
<!DOCTYPE svg PUBLIC "-//W3C//DTD SVG 1.1//EN"
 "http://www.w3.org/Graphics/SVG/1.1/DTD/svg11.dtd">
<!-- Generated by graphviz version 2.36.0 (20140111.2315)
 -->
<!-- Title: /home/travis/build/AliceO2Group/AliceO2/DataFormats/Detectors/ITSMFT/common/src/ClusterTopology.cxx Pages: 1 -->
<!--zoomable 526 -->
<svg id="main" version="1.1" xmlns="http://www.w3.org/2000/svg" xmlns:xlink="http://www.w3.org/1999/xlink" xml:space="preserve" onload="init(evt)">
<style type="text/css"><![CDATA[
.edge:hover path { stroke: red; }
.edge:hover polygon { stroke: red; fill: red; }
]]></style>
<script type="text/javascript"><![CDATA[
var edges = document.getElementsByTagName('g');
if (edges && edges.length) {
  for (var i=0;i<edges.length;i++) {
    if (edges[i].id.substr(0,4)=='edge') {
      edges[i].setAttribute('class','edge');
    }
  }
}
]]></script>
        <defs>
                <circle id="rim" cx="0" cy="0" r="7"/>
                <circle id="rim2" cx="0" cy="0" r="3.5"/>
                <g id="zoomPlus">
                        <use xlink:href="#rim" fill="#404040">
                                <set attributeName="fill" to="#808080" begin="zoomplus.mouseover" end="zoomplus.mouseout"/>
                        </use>
                        <path d="M-4,0h8M0,-4v8" fill="none" stroke="white" stroke-width="1.5" pointer-events="none"/>
                </g>
                <g id="zoomMin">
                        <use xlink:href="#rim" fill="#404040">
                                <set attributeName="fill" to="#808080" begin="zoomminus.mouseover" end="zoomminus.mouseout"/>
                        </use>
                        <path d="M-4,0h8" fill="none" stroke="white" stroke-width="1.5" pointer-events="none"/>
                </g>
                <g id="dirArrow">
                        <path fill="none" stroke="white" stroke-width="1.5" d="M0,-3.0v7 M-2.5,-0.5L0,-3.0L2.5,-0.5"/>
                </g>
               <g id="resetDef">
                       <use xlink:href="#rim2" fill="#404040">
                               <set attributeName="fill" to="#808080" begin="reset.mouseover" end="reset.mouseout"/>
                       </use>
               </g>
        </defs>

<script type="text/javascript">
var viewWidth = 1773;
var viewHeight = 526;
var sectionId = 'dynsection-0';
</script>
<script xlink:href="../../svgpan.js"/>
<svg id="graph" class="graph">
<g id="viewport">
<title>/home/travis/build/AliceO2Group/AliceO2/DataFormats/Detectors/ITSMFT/common/src/ClusterTopology.cxx</title>
<!-- Node1 -->
<g id="node1" class="node"><title>Node1</title>
<polygon fill="#bfbfbf" stroke="black" points="398.036,-465 398.036,-517 604.036,-517 604.036,-465 398.036,-465"/>
<text text-anchor="start" x="406.036" y="-505" font-family="Helvetica,sans-Serif" font-size="10.00">/home/travis/build</text>
<text text-anchor="start" x="406.036" y="-494" font-family="Helvetica,sans-Serif" font-size="10.00">/AliceO2Group/AliceO2</text>
<text text-anchor="start" x="406.036" y="-483" font-family="Helvetica,sans-Serif" font-size="10.00">/DataFormats/Detectors</text>
<text text-anchor="middle" x="501.036" y="-472" font-family="Helvetica,sans-Serif" font-size="10.00">/ITSMFT/common/src/ClusterTopology.cxx</text>
</g>
<!-- Node2 -->
<g id="node2" class="node"><title>Node2</title>
<g id="a_node2"><a xlink:href="../../d8/ddb/ClusterTopology_8h.html" target="_top" xlink:title="Definition of the ClusterTopology class. ">
<polygon fill="none" stroke="black" points="429.036,-397 429.036,-427 573.036,-427 573.036,-397 429.036,-397"/>
<text text-anchor="start" x="437.036" y="-415" font-family="Helvetica,sans-Serif" font-size="10.00">DataFormatsITSMFT/Cluster</text>
<text text-anchor="middle" x="501.036" y="-404" font-family="Helvetica,sans-Serif" font-size="10.00">Topology.h</text>
</a>
</g>
</g>
<!-- Node1&#45;&gt;Node2 -->
<g id="edge1" class="edge"><title>Node1&#45;&gt;Node2</title>
<path fill="none" stroke="midnightblue" d="M501.036,-464.787C501.036,-456.029 501.036,-446.225 501.036,-437.523"/>
<polygon fill="midnightblue" stroke="midnightblue" points="504.536,-437.252 501.036,-427.252 497.536,-437.252 504.536,-437.252"/>
</g>
<!-- Node3 -->
<g id="node3" class="node"><title>Node3</title>
<polygon fill="none" stroke="#bfbfbf" points="485.036,-74.5 485.036,-93.5 541.036,-93.5 541.036,-74.5 485.036,-74.5"/>
<text text-anchor="middle" x="513.036" y="-81.5" font-family="Helvetica,sans-Serif" font-size="10.00">Rtypes.h</text>
</g>
<!-- Node2&#45;&gt;Node3 -->
<g id="edge2" class="edge"><title>Node2&#45;&gt;Node3</title>
<path fill="none" stroke="midnightblue" d="M456.078,-396.889C410.623,-379.484 347.036,-345.11 347.036,-289 347.036,-289 347.036,-289 347.036,-219 347.036,-183.137 442.03,-124.851 488.297,-98.5892"/>
<polygon fill="midnightblue" stroke="midnightblue" points="490.113,-101.583 497.119,-93.6353 486.686,-95.48 490.113,-101.583"/>
</g>
<!-- Node4 -->
<g id="node4" class="node"><title>Node4</title>
<polygon fill="none" stroke="#bfbfbf" points="99.0356,-6.5 99.0356,-25.5 137.036,-25.5 137.036,-6.5 99.0356,-6.5"/>
<text text-anchor="middle" x="118.036" y="-13.5" font-family="Helvetica,sans-Serif" font-size="10.00">array</text>
</g>
<!-- Node2&#45;&gt;Node4 -->
<g id="edge3" class="edge"><title>Node2&#45;&gt;Node4</title>
<path fill="none" stroke="midnightblue" d="M428.865,-408.332C290.4,-401.239 1.03558,-376.007 1.03558,-289 1.03558,-289 1.03558,-289 1.03558,-151 1.03558,-113.157 -3.10673,-97.9422 20.0356,-68 37.2252,-45.7596 66.8512,-32.2692 89.0408,-24.7993"/>
<polygon fill="midnightblue" stroke="midnightblue" points="90.1515,-28.1191 98.6414,-21.781 88.052,-21.4413 90.1515,-28.1191"/>
</g>
<!-- Node5 -->
<g id="node5" class="node"><title>Node5</title>
<polygon fill="none" stroke="#bfbfbf" points="1680.04,-74.5 1680.04,-93.5 1734.04,-93.5 1734.04,-74.5 1680.04,-74.5"/>
<text text-anchor="middle" x="1707.04" y="-81.5" font-family="Helvetica,sans-Serif" font-size="10.00">iostream</text>
</g>
<!-- Node2&#45;&gt;Node5 -->
<g id="edge4" class="edge"><title>Node2&#45;&gt;Node5</title>
<path fill="none" stroke="midnightblue" d="M573.123,-408.88C788.121,-401.609 1410.04,-373.291 1410.04,-289 1410.04,-289 1410.04,-289 1410.04,-219 1410.04,-211.725 1601.9,-129.577 1677.21,-97.6157"/>
<polygon fill="midnightblue" stroke="midnightblue" points="1678.78,-100.752 1686.62,-93.6254 1676.05,-94.307 1678.78,-100.752"/>
</g>
<!-- Node6 -->
<g id="node6" class="node"><title>Node6</title>
<polygon fill="none" stroke="#bfbfbf" points="595.536,-340.5 595.536,-359.5 636.536,-359.5 636.536,-340.5 595.536,-340.5"/>
<text text-anchor="middle" x="616.036" y="-347.5" font-family="Helvetica,sans-Serif" font-size="10.00">string</text>
</g>
<!-- Node2&#45;&gt;Node6 -->
<g id="edge5" class="edge"><title>Node2&#45;&gt;Node6</title>
<path fill="none" stroke="midnightblue" d="M527.998,-396.933C546.88,-387.081 571.952,-374 590.509,-364.318"/>
<polygon fill="midnightblue" stroke="midnightblue" points="592.305,-367.329 599.552,-359.6 589.067,-361.123 592.305,-367.329"/>
</g>
<!-- Node7 -->
<g id="node7" class="node"><title>Node7</title>
<g id="a_node7"><a xlink:href="../../d1/d62/DataFormats_2Detectors_2ITSMFT_2common_2include_2DataFormatsITSMFT_2Cluster_8h.html" target="_top" xlink:title="DataFormatsITSMFT/Cluster.h">
<polygon fill="none" stroke="black" points="425.036,-340.5 425.036,-359.5 577.036,-359.5 577.036,-340.5 425.036,-340.5"/>
<text text-anchor="middle" x="501.036" y="-347.5" font-family="Helvetica,sans-Serif" font-size="10.00">DataFormatsITSMFT/Cluster.h</text>
</a>
</g>
</g>
<!-- Node2&#45;&gt;Node7 -->
<g id="edge6" class="edge"><title>Node2&#45;&gt;Node7</title>
<path fill="none" stroke="midnightblue" d="M501.036,-396.781C501.036,-388.781 501.036,-378.689 501.036,-370.017"/>
<polygon fill="midnightblue" stroke="midnightblue" points="504.536,-369.73 501.036,-359.731 497.536,-369.731 504.536,-369.73"/>
</g>
<!-- Node8 -->
<g id="node8" class="node"><title>Node8</title>
<g id="a_node8"><a xlink:href="../../d4/de2/BaseCluster_8h.html" target="_top" xlink:title="ReconstructionDataFormats\l/BaseCluster.h">
<polygon fill="none" stroke="black" points="481.036,-273 481.036,-303 621.036,-303 621.036,-273 481.036,-273"/>
<text text-anchor="start" x="489.036" y="-291" font-family="Helvetica,sans-Serif" font-size="10.00">ReconstructionDataFormats</text>
<text text-anchor="middle" x="551.036" y="-280" font-family="Helvetica,sans-Serif" font-size="10.00">/BaseCluster.h</text>
</a>
</g>
</g>
<!-- Node7&#45;&gt;Node8 -->
<g id="edge7" class="edge"><title>Node7&#45;&gt;Node8</title>
<path fill="none" stroke="midnightblue" d="M508.199,-340.403C514.591,-332.733 524.23,-321.167 532.746,-310.948"/>
<polygon fill="midnightblue" stroke="midnightblue" points="535.538,-313.064 539.252,-303.141 530.161,-308.582 535.538,-313.064"/>
</g>
<!-- Node8&#45;&gt;Node5 -->
<g id="edge12" class="edge"><title>Node8&#45;&gt;Node5</title>
<path fill="none" stroke="midnightblue" d="M621.239,-273.322C765.846,-245.397 1107.57,-180.699 1396.04,-136 1517.41,-117.192 1551.27,-131.326 1670.04,-100 1673.02,-99.2122 1676.09,-98.2442 1679.12,-97.1825"/>
<polygon fill="midnightblue" stroke="midnightblue" points="1680.44,-100.424 1688.53,-93.5782 1677.94,-93.8876 1680.44,-100.424"/>
</g>
<!-- Node9 -->
<g id="node9" class="node"><title>Node9</title>
<polygon fill="none" stroke="#bfbfbf" points="1026.54,-210.5 1026.54,-229.5 1085.54,-229.5 1085.54,-210.5 1026.54,-210.5"/>
<text text-anchor="middle" x="1056.04" y="-217.5" font-family="Helvetica,sans-Serif" font-size="10.00">TObject.h</text>
</g>
<!-- Node8&#45;&gt;Node9 -->
<g id="edge8" class="edge"><title>Node8&#45;&gt;Node9</title>
<path fill="none" stroke="midnightblue" d="M621.324,-283.996C712.399,-279.021 875.676,-266.402 1012.04,-236 1016,-235.116 1020.1,-234.001 1024.14,-232.778"/>
<polygon fill="midnightblue" stroke="midnightblue" points="1025.5,-236.017 1033.92,-229.591 1023.33,-229.362 1025.5,-236.017"/>
</g>
<!-- Node10 -->
<g id="node10" class="node"><title>Node10</title>
<polygon fill="none" stroke="#bfbfbf" points="29.5356,-74.5 29.5356,-93.5 70.5356,-93.5 70.5356,-74.5 29.5356,-74.5"/>
<text text-anchor="middle" x="50.0356" y="-81.5" font-family="Helvetica,sans-Serif" font-size="10.00">bitset</text>
</g>
<!-- Node8&#45;&gt;Node10 -->
<g id="edge9" class="edge"><title>Node8&#45;&gt;Node10</title>
<path fill="none" stroke="midnightblue" d="M480.677,-279.163C392.531,-266.785 239.428,-236.638 127.036,-168 99.0687,-150.921 74.8712,-120.885 61.3947,-102.012"/>
<polygon fill="midnightblue" stroke="midnightblue" points="64.2425,-99.9768 55.6707,-93.7498 58.4884,-103.963 64.2425,-99.9768"/>
</g>
<!-- Node11 -->
<g id="node11" class="node"><title>Node11</title>
<polygon fill="none" stroke="#bfbfbf" points="413.036,-210.5 413.036,-229.5 463.036,-229.5 463.036,-210.5 413.036,-210.5"/>
<text text-anchor="middle" x="438.036" y="-217.5" font-family="Helvetica,sans-Serif" font-size="10.00">iomanip</text>
</g>
<!-- Node8&#45;&gt;Node11 -->
<g id="edge10" class="edge"><title>Node8&#45;&gt;Node11</title>
<path fill="none" stroke="midnightblue" d="M526.794,-272.841C507.512,-261.579 480.69,-245.913 461.59,-234.757"/>
<polygon fill="midnightblue" stroke="midnightblue" points="463.3,-231.703 452.9,-229.682 459.77,-237.748 463.3,-231.703"/>
</g>
<!-- Node12 -->
<g id="node12" class="node"><title>Node12</title>
<polygon fill="none" stroke="#bfbfbf" points="481.536,-210.5 481.536,-229.5 510.536,-229.5 510.536,-210.5 481.536,-210.5"/>
<text text-anchor="middle" x="496.036" y="-217.5" font-family="Helvetica,sans-Serif" font-size="10.00">ios</text>
</g>
<!-- Node8&#45;&gt;Node12 -->
<g id="edge11" class="edge"><title>Node8&#45;&gt;Node12</title>
<path fill="none" stroke="midnightblue" d="M539.101,-272.679C530.526,-262.388 518.939,-248.484 509.944,-237.69"/>
<polygon fill="midnightblue" stroke="midnightblue" points="512.483,-235.27 503.392,-229.828 507.106,-239.751 512.483,-235.27"/>
</g>
<!-- Node13 -->
<g id="node13" class="node"><title>Node13</title>
<g id="a_node13"><a xlink:href="../../d4/d20/DetMatrixCache_8h.html" target="_top" xlink:title="DetectorsCommonDataFormats\l/DetMatrixCache.h">
<polygon fill="none" stroke="black" points="529.036,-205 529.036,-235 685.036,-235 685.036,-205 529.036,-205"/>
<text text-anchor="start" x="537.036" y="-223" font-family="Helvetica,sans-Serif" font-size="10.00">DetectorsCommonDataFormats</text>
<text text-anchor="middle" x="607.036" y="-212" font-family="Helvetica,sans-Serif" font-size="10.00">/DetMatrixCache.h</text>
</a>
</g>
</g>
<!-- Node8&#45;&gt;Node13 -->
<g id="edge13" class="edge"><title>Node8&#45;&gt;Node13</title>
<path fill="none" stroke="midnightblue" d="M563.187,-272.679C570.525,-264.03 580.029,-252.829 588.312,-243.067"/>
<polygon fill="midnightblue" stroke="midnightblue" points="591.107,-245.183 594.908,-235.293 585.77,-240.654 591.107,-245.183"/>
</g>
<!-- Node23 -->
<g id="node23" class="node"><title>Node23</title>
<g id="a_node23"><a xlink:href="../../dd/d76/Cartesian3D_8h.html" target="_top" xlink:title="MathUtils/Cartesian3D.h">
<polygon fill="none" stroke="black" points="844.536,-142.5 844.536,-161.5 969.536,-161.5 969.536,-142.5 844.536,-142.5"/>
<text text-anchor="middle" x="907.036" y="-149.5" font-family="Helvetica,sans-Serif" font-size="10.00">MathUtils/Cartesian3D.h</text>
</a>
</g>
</g>
<!-- Node8&#45;&gt;Node23 -->
<g id="edge41" class="edge"><title>Node8&#45;&gt;Node23</title>
<path fill="none" stroke="midnightblue" d="M591.522,-272.912C620.218,-262.841 659.585,-248.852 694.036,-236 759.132,-211.715 834.806,-181.829 876.148,-165.36"/>
<polygon fill="midnightblue" stroke="midnightblue" points="877.657,-168.527 885.649,-161.571 875.063,-162.025 877.657,-168.527"/>
</g>
<!-- Node13&#45;&gt;Node3 -->
<g id="edge40" class="edge"><title>Node13&#45;&gt;Node3</title>
<path fill="none" stroke="midnightblue" d="M589.681,-204.608C578.821,-195.006 565.043,-181.674 555.036,-168 539.95,-147.387 527.472,-120.56 520.139,-103.068"/>
<polygon fill="midnightblue" stroke="midnightblue" points="523.267,-101.468 516.26,-93.5212 516.782,-104.103 523.267,-101.468"/>
</g>
<!-- Node13&#45;&gt;Node4 -->
<g id="edge15" class="edge"><title>Node13&#45;&gt;Node4</title>
<path fill="none" stroke="midnightblue" d="M528.869,-205.382C525.55,-204.897 522.261,-204.433 519.036,-204 438.257,-193.146 217.508,-219.129 154.036,-168 114.234,-135.939 113.646,-68.5157 116.015,-35.7155"/>
<polygon fill="midnightblue" stroke="midnightblue" points="119.509,-35.9454 116.917,-25.6724 112.537,-35.3192 119.509,-35.9454"/>
</g>
<!-- Node14 -->
<g id="node14" class="node"><title>Node14</title>
<polygon fill="none" stroke="#bfbfbf" points="564.536,-142.5 564.536,-161.5 635.536,-161.5 635.536,-142.5 564.536,-142.5"/>
<text text-anchor="middle" x="600.036" y="-149.5" font-family="Helvetica,sans-Serif" font-size="10.00">FairLogger.h</text>
</g>
<!-- Node13&#45;&gt;Node14 -->
<g id="edge14" class="edge"><title>Node13&#45;&gt;Node14</title>
<path fill="none" stroke="midnightblue" d="M605.517,-204.679C604.501,-195.101 603.153,-182.394 602.048,-171.977"/>
<polygon fill="midnightblue" stroke="midnightblue" points="605.507,-171.403 600.972,-161.828 598.546,-172.142 605.507,-171.403"/>
</g>
<!-- Node15 -->
<g id="node15" class="node"><title>Node15</title>
<polygon fill="none" stroke="#bfbfbf" points="654.036,-142.5 654.036,-161.5 698.036,-161.5 698.036,-142.5 654.036,-142.5"/>
<text text-anchor="middle" x="676.036" y="-149.5" font-family="Helvetica,sans-Serif" font-size="10.00">vector</text>
</g>
<!-- Node13&#45;&gt;Node15 -->
<g id="edge16" class="edge"><title>Node13&#45;&gt;Node15</title>
<path fill="none" stroke="midnightblue" d="M622.008,-204.679C632.979,-194.184 647.88,-179.932 659.254,-169.052"/>
<polygon fill="midnightblue" stroke="midnightblue" points="661.999,-171.27 666.806,-161.828 657.16,-166.211 661.999,-171.27"/>
</g>
<!-- Node16 -->
<g id="node16" class="node"><title>Node16</title>
<g id="a_node16"><a xlink:href="../../d6/d31/DetID_8h.html" target="_top" xlink:title="DetectorsCommonDataFormats\l/DetID.h">
<polygon fill="none" stroke="black" points="163.036,-137 163.036,-167 319.036,-167 319.036,-137 163.036,-137"/>
<text text-anchor="start" x="171.036" y="-155" font-family="Helvetica,sans-Serif" font-size="10.00">DetectorsCommonDataFormats</text>
<text text-anchor="middle" x="241.036" y="-144" font-family="Helvetica,sans-Serif" font-size="10.00">/DetID.h</text>
</a>
</g>
</g>
<!-- Node13&#45;&gt;Node16 -->
<g id="edge17" class="edge"><title>Node13&#45;&gt;Node16</title>
<path fill="none" stroke="midnightblue" d="M528.968,-204.922C470.301,-194.343 389.903,-179.845 328.971,-168.857"/>
<polygon fill="midnightblue" stroke="midnightblue" points="329.445,-165.386 318.983,-167.056 328.203,-172.275 329.445,-165.386"/>
</g>
<!-- Node13&#45;&gt;Node23 -->
<g id="edge28" class="edge"><title>Node13&#45;&gt;Node23</title>
<path fill="none" stroke="midnightblue" d="M671.025,-204.922C727.167,-192.571 807.589,-174.878 858.553,-163.666"/>
<polygon fill="midnightblue" stroke="midnightblue" points="859.322,-167.081 868.337,-161.514 857.818,-160.244 859.322,-167.081"/>
</g>
<!-- Node16&#45;&gt;Node3 -->
<g id="edge18" class="edge"><title>Node16&#45;&gt;Node3</title>
<path fill="none" stroke="midnightblue" d="M319.165,-137.528C365.307,-128.712 424.577,-115.886 476.036,-100 478.676,-99.1847 481.392,-98.2595 484.096,-97.2783"/>
<polygon fill="midnightblue" stroke="midnightblue" points="485.61,-100.446 493.676,-93.5766 483.087,-93.9161 485.61,-100.446"/>
</g>
<!-- Node16&#45;&gt;Node4 -->
<g id="edge19" class="edge"><title>Node16&#45;&gt;Node4</title>
<path fill="none" stroke="midnightblue" d="M207.893,-136.99C190.651,-128.366 170.264,-115.904 156.036,-100 139.155,-81.1318 128.545,-53.4914 122.952,-35.3742"/>
<polygon fill="midnightblue" stroke="midnightblue" points="126.302,-34.3562 120.169,-25.7168 119.575,-36.295 126.302,-34.3562"/>
</g>
<!-- Node16&#45;&gt;Node10 -->
<g id="edge20" class="edge"><title>Node16&#45;&gt;Node10</title>
<path fill="none" stroke="midnightblue" d="M200.061,-136.841C164.157,-124.435 112.79,-106.685 80.4397,-95.5061"/>
<polygon fill="midnightblue" stroke="midnightblue" points="81.2429,-92.0807 70.6482,-92.1227 78.9567,-98.6968 81.2429,-92.0807"/>
</g>
<!-- Node17 -->
<g id="node17" class="node"><title>Node17</title>
<polygon fill="none" stroke="#bfbfbf" points="245.536,-74.5 245.536,-93.5 294.536,-93.5 294.536,-74.5 245.536,-74.5"/>
<text text-anchor="middle" x="270.036" y="-81.5" font-family="Helvetica,sans-Serif" font-size="10.00">cassert</text>
</g>
<!-- Node16&#45;&gt;Node17 -->
<g id="edge21" class="edge"><title>Node16&#45;&gt;Node17</title>
<path fill="none" stroke="midnightblue" d="M247.328,-136.679C251.671,-126.796 257.478,-113.579 262.132,-102.986"/>
<polygon fill="midnightblue" stroke="midnightblue" points="265.338,-104.391 266.156,-93.8283 258.929,-101.576 265.338,-104.391"/>
</g>
<!-- Node18 -->
<g id="node18" class="node"><title>Node18</title>
<polygon fill="none" stroke="#bfbfbf" points="313.036,-74.5 313.036,-93.5 359.036,-93.5 359.036,-74.5 313.036,-74.5"/>
<text text-anchor="middle" x="336.036" y="-81.5" font-family="Helvetica,sans-Serif" font-size="10.00">cstdint</text>
</g>
<!-- Node16&#45;&gt;Node18 -->
<g id="edge22" class="edge"><title>Node16&#45;&gt;Node18</title>
<path fill="none" stroke="midnightblue" d="M261.649,-136.679C277.433,-125.713 299.122,-110.645 315.008,-99.6085"/>
<polygon fill="midnightblue" stroke="midnightblue" points="317.387,-102.218 323.602,-93.6379 313.393,-96.4691 317.387,-102.218"/>
</g>
<!-- Node19 -->
<g id="node19" class="node"><title>Node19</title>
<polygon fill="none" stroke="#bfbfbf" points="165.036,-74.5 165.036,-93.5 227.036,-93.5 227.036,-74.5 165.036,-74.5"/>
<text text-anchor="middle" x="196.036" y="-81.5" font-family="Helvetica,sans-Serif" font-size="10.00">type_traits</text>
</g>
<!-- Node16&#45;&gt;Node19 -->
<g id="edge23" class="edge"><title>Node16&#45;&gt;Node19</title>
<path fill="none" stroke="midnightblue" d="M231.271,-136.679C224.394,-126.592 215.149,-113.033 207.855,-102.335"/>
<polygon fill="midnightblue" stroke="midnightblue" points="210.58,-100.119 202.055,-93.8283 204.796,-104.062 210.58,-100.119"/>
</g>
<!-- Node20 -->
<g id="node20" class="node"><title>Node20</title>
<g id="a_node20"><a xlink:href="../../d9/d52/Common_2MathUtils_2include_2MathUtils_2Utils_8h.html" target="_top" xlink:title="MathUtils/Utils.h">
<polygon fill="none" stroke="black" points="377.036,-74.5 377.036,-93.5 467.036,-93.5 467.036,-74.5 377.036,-74.5"/>
<text text-anchor="middle" x="422.036" y="-81.5" font-family="Helvetica,sans-Serif" font-size="10.00">MathUtils/Utils.h</text>
</a>
</g>
</g>
<!-- Node16&#45;&gt;Node20 -->
<g id="edge24" class="edge"><title>Node16&#45;&gt;Node20</title>
<path fill="none" stroke="midnightblue" d="M279.865,-136.841C312.389,-124.982 358.304,-108.239 389.067,-97.0216"/>
<polygon fill="midnightblue" stroke="midnightblue" points="390.291,-100.301 398.487,-93.5868 387.893,-93.7244 390.291,-100.301"/>
</g>
<!-- Node20&#45;&gt;Node4 -->
<g id="edge25" class="edge"><title>Node20&#45;&gt;Node4</title>
<path fill="none" stroke="midnightblue" d="M392.705,-74.4523C384.731,-72.2381 376.077,-69.9345 368.036,-68 288.724,-48.9192 194.15,-30.899 147.314,-22.2874"/>
<polygon fill="midnightblue" stroke="midnightblue" points="147.735,-18.8063 137.268,-20.4502 146.475,-25.6921 147.735,-18.8063"/>
</g>
<!-- Node21 -->
<g id="node21" class="node"><title>Node21</title>
<polygon fill="none" stroke="#bfbfbf" points="335.036,-6.5 335.036,-25.5 379.036,-25.5 379.036,-6.5 335.036,-6.5"/>
<text text-anchor="middle" x="357.036" y="-13.5" font-family="Helvetica,sans-Serif" font-size="10.00">cmath</text>
</g>
<!-- Node20&#45;&gt;Node21 -->
<g id="edge26" class="edge"><title>Node20&#45;&gt;Node21</title>
<path fill="none" stroke="midnightblue" d="M413.538,-74.3717C403.279,-63.9547 385.81,-46.2173 373.006,-33.2162"/>
<polygon fill="midnightblue" stroke="midnightblue" points="375.253,-30.5101 365.743,-25.8411 370.266,-35.4219 375.253,-30.5101"/>
</g>
<!-- Node22 -->
<g id="node22" class="node"><title>Node22</title>
<g id="a_node22"><a xlink:href="../../d6/d84/MathConstants_8h.html" target="_top" xlink:title="useful math constants ">
<polygon fill="none" stroke="black" points="397.536,-6.5 397.536,-25.5 576.536,-25.5 576.536,-6.5 397.536,-6.5"/>
<text text-anchor="middle" x="487.036" y="-13.5" font-family="Helvetica,sans-Serif" font-size="10.00">CommonConstants/MathConstants.h</text>
</a>
</g>
</g>
<!-- Node20&#45;&gt;Node22 -->
<g id="edge27" class="edge"><title>Node20&#45;&gt;Node22</title>
<path fill="none" stroke="midnightblue" d="M430.533,-74.3717C440.792,-63.9547 458.261,-46.2173 471.065,-33.2162"/>
<polygon fill="midnightblue" stroke="midnightblue" points="473.805,-35.4219 478.328,-25.8411 468.818,-30.5101 473.805,-35.4219"/>
</g>
<!-- Node23&#45;&gt;Node3 -->
<g id="edge34" class="edge"><title>Node23&#45;&gt;Node3</title>
<path fill="none" stroke="midnightblue" d="M844.517,-146.696C772.51,-140.681 651.133,-127.276 550.036,-100 547.053,-99.1954 543.988,-98.2164 540.96,-97.1481"/>
<polygon fill="midnightblue" stroke="midnightblue" points="542.144,-93.8539 531.554,-93.5355 539.634,-100.388 542.144,-93.8539"/>
</g>
<!-- Node23&#45;&gt;Node5 -->
<g id="edge36" class="edge"><title>Node23&#45;&gt;Node5</title>
<path fill="none" stroke="midnightblue" d="M945.25,-142.46C957.572,-140.001 971.329,-137.563 984.036,-136 1287.06,-98.7196 1372.01,-166.268 1670.04,-100 1673.28,-99.2779 1676.61,-98.2992 1679.88,-97.1855"/>
<polygon fill="midnightblue" stroke="midnightblue" points="1681.27,-100.404 1689.35,-93.5614 1678.76,-93.8659 1681.27,-100.404"/>
</g>
<!-- Node24 -->
<g id="node24" class="node"><title>Node24</title>
<polygon fill="none" stroke="#bfbfbf" points="559.536,-69 559.536,-99 710.536,-99 710.536,-69 559.536,-69"/>
<text text-anchor="start" x="567.536" y="-87" font-family="Helvetica,sans-Serif" font-size="10.00">Math/GenVector/Displacement</text>
<text text-anchor="middle" x="635.036" y="-76" font-family="Helvetica,sans-Serif" font-size="10.00">Vector3D.h</text>
</g>
<!-- Node23&#45;&gt;Node24 -->
<g id="edge29" class="edge"><title>Node23&#45;&gt;Node24</title>
<path fill="none" stroke="midnightblue" d="M871.755,-142.439C829.061,-132.08 756.24,-114.41 702.613,-101.397"/>
<polygon fill="midnightblue" stroke="midnightblue" points="703.378,-97.9816 692.835,-99.0247 701.727,-104.784 703.378,-97.9816"/>
</g>
<!-- Node25 -->
<g id="node25" class="node"><title>Node25</title>
<polygon fill="none" stroke="#bfbfbf" points="729.036,-74.5 729.036,-93.5 905.036,-93.5 905.036,-74.5 729.036,-74.5"/>
<text text-anchor="middle" x="817.036" y="-81.5" font-family="Helvetica,sans-Serif" font-size="10.00">Math/GenVector/PositionVector3D.h</text>
</g>
<!-- Node23&#45;&gt;Node25 -->
<g id="edge30" class="edge"><title>Node23&#45;&gt;Node25</title>
<path fill="none" stroke="midnightblue" d="M895.27,-142.372C880.447,-131.502 854.754,-112.66 836.873,-99.5474"/>
<polygon fill="midnightblue" stroke="midnightblue" points="838.938,-96.7217 828.804,-93.6305 834.799,-102.367 838.938,-96.7217"/>
</g>
<!-- Node26 -->
<g id="node26" class="node"><title>Node26</title>
<polygon fill="none" stroke="#bfbfbf" points="922.536,-74.5 922.536,-93.5 1071.54,-93.5 1071.54,-74.5 922.536,-74.5"/>
<text text-anchor="middle" x="997.036" y="-81.5" font-family="Helvetica,sans-Serif" font-size="10.00">Math/GenVector/Rotation3D.h</text>
</g>
<!-- Node23&#45;&gt;Node26 -->
<g id="edge31" class="edge"><title>Node23&#45;&gt;Node26</title>
<path fill="none" stroke="midnightblue" d="M918.802,-142.372C933.624,-131.502 959.317,-112.66 977.198,-99.5474"/>
<polygon fill="midnightblue" stroke="midnightblue" points="979.272,-102.367 985.267,-93.6305 975.133,-96.7217 979.272,-102.367"/>
</g>
<!-- Node27 -->
<g id="node27" class="node"><title>Node27</title>
<polygon fill="none" stroke="#bfbfbf" points="1090.04,-74.5 1090.04,-93.5 1246.04,-93.5 1246.04,-74.5 1090.04,-74.5"/>
<text text-anchor="middle" x="1168.04" y="-81.5" font-family="Helvetica,sans-Serif" font-size="10.00">Math/GenVector/Transform3D.h</text>
</g>
<!-- Node23&#45;&gt;Node27 -->
<g id="edge32" class="edge"><title>Node23&#45;&gt;Node27</title>
<path fill="none" stroke="midnightblue" d="M940.889,-142.439C987.829,-130.57 1072.72,-109.103 1124.38,-96.0406"/>
<polygon fill="midnightblue" stroke="midnightblue" points="1125.41,-99.3904 1134.24,-93.5455 1123.69,-92.604 1125.41,-99.3904"/>
</g>
<!-- Node28 -->
<g id="node28" class="node"><title>Node28</title>
<polygon fill="none" stroke="#bfbfbf" points="1264.04,-74.5 1264.04,-93.5 1424.04,-93.5 1424.04,-74.5 1264.04,-74.5"/>
<text text-anchor="middle" x="1344.04" y="-81.5" font-family="Helvetica,sans-Serif" font-size="10.00">Math/GenVector/Translation3D.h</text>
</g>
<!-- Node23&#45;&gt;Node28 -->
<g id="edge33" class="edge"><title>Node23&#45;&gt;Node28</title>
<path fill="none" stroke="midnightblue" d="M948.513,-142.444C959.994,-140.205 972.477,-137.892 984.036,-136 1103.94,-116.375 1134.89,-118.099 1255.04,-100 1264.8,-98.5295 1275.14,-96.8743 1285.2,-95.2144"/>
<polygon fill="midnightblue" stroke="midnightblue" points="1285.83,-98.657 1295.12,-93.5596 1284.68,-91.7524 1285.83,-98.657"/>
</g>
<!-- Node29 -->
<g id="node29" class="node"><title>Node29</title>
<polygon fill="none" stroke="#bfbfbf" points="1442.04,-74.5 1442.04,-93.5 1518.04,-93.5 1518.04,-74.5 1442.04,-74.5"/>
<text text-anchor="middle" x="1480.04" y="-81.5" font-family="Helvetica,sans-Serif" font-size="10.00">TGeoMatrix.h</text>
</g>
<!-- Node23&#45;&gt;Node29 -->
<g id="edge35" class="edge"><title>Node23&#45;&gt;Node29</title>
<path fill="none" stroke="midnightblue" d="M946.461,-142.436C958.478,-140.065 971.757,-137.683 984.036,-136 1182.38,-108.817 1236.61,-138.687 1433.04,-100 1437.6,-99.1005 1442.35,-97.907 1446.99,-96.5847"/>
<polygon fill="midnightblue" stroke="midnightblue" points="1448.35,-99.8291 1456.88,-93.5488 1446.3,-93.1372 1448.35,-99.8291"/>
</g>
<!-- Node30 -->
<g id="node30" class="node"><title>Node30</title>
<g id="a_node30"><a xlink:href="../../d2/dd0/Cartesian2D_8h.html" target="_top" xlink:title="MathUtils/Cartesian2D.h">
<polygon fill="none" stroke="black" points="1536.54,-74.5 1536.54,-93.5 1661.54,-93.5 1661.54,-74.5 1536.54,-74.5"/>
<text text-anchor="middle" x="1599.04" y="-81.5" font-family="Helvetica,sans-Serif" font-size="10.00">MathUtils/Cartesian2D.h</text>
</a>
</g>
</g>
<!-- Node23&#45;&gt;Node30 -->
<g id="edge37" class="edge"><title>Node23&#45;&gt;Node30</title>
<path fill="none" stroke="midnightblue" d="M945.657,-142.487C957.879,-140.059 971.475,-137.633 984.036,-136 1223.88,-104.815 1287.4,-132.744 1527.04,-100 1535.49,-98.8445 1544.44,-97.2698 1553.05,-95.5735"/>
<polygon fill="midnightblue" stroke="midnightblue" points="1553.85,-98.9814 1562.95,-93.5443 1552.45,-92.124 1553.85,-98.9814"/>
</g>
<!-- Node31 -->
<g id="node31" class="node"><title>Node31</title>
<polygon fill="none" stroke="#bfbfbf" points="1614.54,-1 1614.54,-31 1765.54,-31 1765.54,-1 1614.54,-1"/>
<text text-anchor="start" x="1622.54" y="-19" font-family="Helvetica,sans-Serif" font-size="10.00">Math/GenVector/Displacement</text>
<text text-anchor="middle" x="1690.04" y="-8" font-family="Helvetica,sans-Serif" font-size="10.00">Vector2D.h</text>
</g>
<!-- Node30&#45;&gt;Node31 -->
<g id="edge38" class="edge"><title>Node30&#45;&gt;Node31</title>
<path fill="none" stroke="midnightblue" d="M1610.93,-74.3717C1623.81,-65.0286 1644.82,-49.7966 1661.94,-37.375"/>
<polygon fill="midnightblue" stroke="midnightblue" points="1664.44,-39.8859 1670.48,-31.1815 1660.33,-34.2194 1664.44,-39.8859"/>
</g>
<!-- Node32 -->
<g id="node32" class="node"><title>Node32</title>
<polygon fill="none" stroke="#bfbfbf" points="1420.04,-6.5 1420.04,-25.5 1596.04,-25.5 1596.04,-6.5 1420.04,-6.5"/>
<text text-anchor="middle" x="1508.04" y="-13.5" font-family="Helvetica,sans-Serif" font-size="10.00">Math/GenVector/PositionVector2D.h</text>
</g>
<!-- Node30&#45;&gt;Node32 -->
<g id="edge39" class="edge"><title>Node30&#45;&gt;Node32</title>
<path fill="none" stroke="midnightblue" d="M1587.14,-74.3717C1572.15,-63.5015 1546.17,-44.6602 1528.09,-31.5474"/>
<polygon fill="midnightblue" stroke="midnightblue" points="1530.09,-28.6684 1519.94,-25.6305 1525.98,-34.3349 1530.09,-28.6684"/>
</g>
</g>
</svg>
        <g id="navigator" transform="translate(0 0)" fill="#404254">
                <rect fill="#f2f5e9" fill-opacity="0.5" stroke="#606060" stroke-width=".5" x="0" y="0" width="60" height="60"/>
                <use id="zoomplus" xlink:href="#zoomPlus" x="17" y="9" onmousedown="handleZoom(evt,'in')"/>
                <use id="zoomminus" xlink:href="#zoomMin" x="42" y="9" onmousedown="handleZoom(evt,'out')"/>
                <use id="reset" xlink:href="#resetDef" x="30" y="36" onmousedown="handleReset()"/>
                <g id="arrowUp" xlink:href="#dirArrow" transform="translate(30 24)" onmousedown="handlePan(0,-1)">
                  <use xlink:href="#rim" fill="#404040">
                        <set attributeName="fill" to="#808080" begin="arrowUp.mouseover" end="arrowUp.mouseout"/>
                  </use>
                  <path fill="none" stroke="white" stroke-width="1.5" d="M0,-3.0v7 M-2.5,-0.5L0,-3.0L2.5,-0.5"/>
                </g>
                <g id="arrowRight" xlink:href="#dirArrow" transform="rotate(90) translate(36 -43)" onmousedown="handlePan(1,0)">
                  <use xlink:href="#rim" fill="#404040">
                        <set attributeName="fill" to="#808080" begin="arrowRight.mouseover" end="arrowRight.mouseout"/>
                  </use>
                  <path fill="none" stroke="white" stroke-width="1.5" d="M0,-3.0v7 M-2.5,-0.5L0,-3.0L2.5,-0.5"/>
                </g>
                <g id="arrowDown" xlink:href="#dirArrow" transform="rotate(180) translate(-30 -48)" onmousedown="handlePan(0,1)">
                  <use xlink:href="#rim" fill="#404040">
                        <set attributeName="fill" to="#808080" begin="arrowDown.mouseover" end="arrowDown.mouseout"/>
                  </use>
                  <path fill="none" stroke="white" stroke-width="1.5" d="M0,-3.0v7 M-2.5,-0.5L0,-3.0L2.5,-0.5"/>
                </g>
                <g id="arrowLeft" xlink:href="#dirArrow" transform="rotate(270) translate(-36 17)" onmousedown="handlePan(-1,0)">
                  <use xlink:href="#rim" fill="#404040">
                        <set attributeName="fill" to="#808080" begin="arrowLeft.mouseover" end="arrowLeft.mouseout"/>
                  </use>
                  <path fill="none" stroke="white" stroke-width="1.5" d="M0,-3.0v7 M-2.5,-0.5L0,-3.0L2.5,-0.5"/>
                </g>
        </g>
        <svg viewBox="0 0 15 15" width="100%" height="30px" preserveAspectRatio="xMaxYMin meet">
         <g id="arrow_out" transform="scale(0.3 0.3)">
          <a xlink:href="ClusterTopology_8cxx__incl_org.svg" target="_base">
           <rect id="button" ry="5" rx="5" y="6" x="6" height="38" width="38"
                fill="#f2f5e9" fill-opacity="0.5" stroke="#606060" stroke-width="1.0"/>
           <path id="arrow"
             d="M 11.500037,31.436501 C 11.940474,20.09759 22.043105,11.32322 32.158766,21.979434 L 37.068811,17.246167 C 37.068811,17.246167 37.088388,32 37.088388,32 L 22.160133,31.978069 C 22.160133,31.978069 26.997745,27.140456 26.997745,27.140456 C 18.528582,18.264221 13.291696,25.230495 11.500037,31.436501 z"
             style="fill:#404040;"/>
          </a>
         </g>
        </svg>
</svg>
