<?xml version="1.0" encoding="UTF-8" standalone="no"?>
<!DOCTYPE svg PUBLIC "-//W3C//DTD SVG 1.1//EN"
 "http://www.w3.org/Graphics/SVG/1.1/DTD/svg11.dtd">
<!-- Generated by graphviz version 2.36.0 (20140111.2315)
 -->
<!-- Title: /home/travis/build/AliceO2Group/AliceO2/Detectors/PHOS/testsimulation/drawPHOSgeometry.C Pages: 1 -->
<!--zoomable 434 -->
<svg id="main" version="1.1" xmlns="http://www.w3.org/2000/svg" xmlns:xlink="http://www.w3.org/1999/xlink" xml:space="preserve" onload="init(evt)">
<style type="text/css"><![CDATA[
.edge:hover path { stroke: red; }
.edge:hover polygon { stroke: red; fill: red; }
]]></style>
<script type="text/javascript"><![CDATA[
var edges = document.getElementsByTagName('g');
if (edges && edges.length) {
  for (var i=0;i<edges.length;i++) {
    if (edges[i].id.substr(0,4)=='edge') {
      edges[i].setAttribute('class','edge');
    }
  }
}
]]></script>
        <defs>
                <circle id="rim" cx="0" cy="0" r="7"/>
                <circle id="rim2" cx="0" cy="0" r="3.5"/>
                <g id="zoomPlus">
                        <use xlink:href="#rim" fill="#404040">
                                <set attributeName="fill" to="#808080" begin="zoomplus.mouseover" end="zoomplus.mouseout"/>
                        </use>
                        <path d="M-4,0h8M0,-4v8" fill="none" stroke="white" stroke-width="1.5" pointer-events="none"/>
                </g>
                <g id="zoomMin">
                        <use xlink:href="#rim" fill="#404040">
                                <set attributeName="fill" to="#808080" begin="zoomminus.mouseover" end="zoomminus.mouseout"/>
                        </use>
                        <path d="M-4,0h8" fill="none" stroke="white" stroke-width="1.5" pointer-events="none"/>
                </g>
                <g id="dirArrow">
                        <path fill="none" stroke="white" stroke-width="1.5" d="M0,-3.0v7 M-2.5,-0.5L0,-3.0L2.5,-0.5"/>
                </g>
               <g id="resetDef">
                       <use xlink:href="#rim2" fill="#404040">
                               <set attributeName="fill" to="#808080" begin="reset.mouseover" end="reset.mouseout"/>
                       </use>
               </g>
        </defs>

<script type="text/javascript">
var viewWidth = 2129;
var viewHeight = 434;
var sectionId = 'dynsection-0';
</script>
<script xlink:href="../../svgpan.js"/>
<svg id="graph" class="graph">
<g id="viewport">
<title>/home/travis/build/AliceO2Group/AliceO2/Detectors/PHOS/testsimulation/drawPHOSgeometry.C</title>
<!-- Node1 -->
<g id="node1" class="node"><title>Node1</title>
<polygon fill="#bfbfbf" stroke="black" points="1543,-373 1543,-425 1701,-425 1701,-373 1543,-373"/>
<text text-anchor="start" x="1551" y="-413" font-family="Helvetica,sans-Serif" font-size="10.00">/home/travis/build</text>
<text text-anchor="start" x="1551" y="-402" font-family="Helvetica,sans-Serif" font-size="10.00">/AliceO2Group/AliceO2</text>
<text text-anchor="start" x="1551" y="-391" font-family="Helvetica,sans-Serif" font-size="10.00">/Detectors/PHOS/testsimulation</text>
<text text-anchor="middle" x="1622" y="-380" font-family="Helvetica,sans-Serif" font-size="10.00">/drawPHOSgeometry.C</text>
</g>
<!-- Node2 -->
<g id="node2" class="node"><title>Node2</title>
<g id="a_node2"><a xlink:href="../../d9/d6d/Cave_8h.html" target="_top" xlink:title="DetectorsPassive/Cave.h">
<polygon fill="none" stroke="black" points="-0.5,-260.5 -0.5,-279.5 128.5,-279.5 128.5,-260.5 -0.5,-260.5"/>
<text text-anchor="middle" x="64" y="-267.5" font-family="Helvetica,sans-Serif" font-size="10.00">DetectorsPassive/Cave.h</text>
</a>
</g>
</g>
<!-- Node1&#45;&gt;Node2 -->
<g id="edge1" class="edge"><title>Node1&#45;&gt;Node2</title>
<path fill="none" stroke="midnightblue" d="M1542.95,-392.639C1321.67,-377.426 677.248,-331.729 143,-280 141.686,-279.873 140.36,-279.743 139.025,-279.61"/>
<polygon fill="midnightblue" stroke="midnightblue" points="138.956,-276.084 128.651,-278.545 138.241,-283.048 138.956,-276.084"/>
</g>
<!-- Node7 -->
<g id="node7" class="node"><title>Node7</title>
<g id="a_node7"><a xlink:href="../../d2/d69/FrameStructure_8h.html" target="_top" xlink:title="DetectorsPassive/FrameStructure.h">
<polygon fill="none" stroke="black" points="1292.5,-316.5 1292.5,-335.5 1465.5,-335.5 1465.5,-316.5 1292.5,-316.5"/>
<text text-anchor="middle" x="1379" y="-323.5" font-family="Helvetica,sans-Serif" font-size="10.00">DetectorsPassive/FrameStructure.h</text>
</a>
</g>
</g>
<!-- Node1&#45;&gt;Node7 -->
<g id="edge6" class="edge"><title>Node1&#45;&gt;Node7</title>
<path fill="none" stroke="midnightblue" d="M1542.77,-374.85C1500.97,-362.638 1451.55,-348.198 1418.02,-338.399"/>
<polygon fill="midnightblue" stroke="midnightblue" points="1418.72,-334.96 1408.14,-335.515 1416.76,-341.679 1418.72,-334.96"/>
</g>
<!-- Node9 -->
<g id="node9" class="node"><title>Node9</title>
<polygon fill="none" stroke="#bfbfbf" points="1483.5,-316.5 1483.5,-335.5 1560.5,-335.5 1560.5,-316.5 1483.5,-316.5"/>
<text text-anchor="middle" x="1522" y="-323.5" font-family="Helvetica,sans-Serif" font-size="10.00">FairRunSim.h</text>
</g>
<!-- Node1&#45;&gt;Node9 -->
<g id="edge8" class="edge"><title>Node1&#45;&gt;Node9</title>
<path fill="none" stroke="midnightblue" d="M1586.74,-372.968C1572.08,-362.559 1555.57,-350.831 1542.88,-341.827"/>
<polygon fill="midnightblue" stroke="midnightblue" points="1544.59,-338.745 1534.41,-335.81 1540.54,-344.453 1544.59,-338.745"/>
</g>
<!-- Node10 -->
<g id="node10" class="node"><title>Node10</title>
<polygon fill="none" stroke="#bfbfbf" points="1579,-316.5 1579,-335.5 1665,-335.5 1665,-316.5 1579,-316.5"/>
<text text-anchor="middle" x="1622" y="-323.5" font-family="Helvetica,sans-Serif" font-size="10.00">TGeoManager.h</text>
</g>
<!-- Node1&#45;&gt;Node10 -->
<g id="edge9" class="edge"><title>Node1&#45;&gt;Node10</title>
<path fill="none" stroke="midnightblue" d="M1622,-372.768C1622,-363.89 1622,-354.074 1622,-345.816"/>
<polygon fill="midnightblue" stroke="midnightblue" points="1625.5,-345.757 1622,-335.757 1618.5,-345.757 1625.5,-345.757"/>
</g>
<!-- Node11 -->
<g id="node11" class="node"><title>Node11</title>
<g id="a_node11"><a xlink:href="../../d4/dd8/PHOS_2simulation_2include_2PHOSSimulation_2Detector_8h.html" target="_top" xlink:title="PHOSSimulation/Detector.h">
<polygon fill="none" stroke="black" points="952,-316.5 952,-335.5 1092,-335.5 1092,-316.5 952,-316.5"/>
<text text-anchor="middle" x="1022" y="-323.5" font-family="Helvetica,sans-Serif" font-size="10.00">PHOSSimulation/Detector.h</text>
</a>
</g>
</g>
<!-- Node1&#45;&gt;Node11 -->
<g id="edge10" class="edge"><title>Node1&#45;&gt;Node11</title>
<path fill="none" stroke="midnightblue" d="M1542.94,-388.645C1428.5,-375.102 1217.79,-350.169 1102.53,-336.529"/>
<polygon fill="midnightblue" stroke="midnightblue" points="1102.7,-333.025 1092.36,-335.326 1101.88,-339.977 1102.7,-333.025"/>
</g>
<!-- Node28 -->
<g id="node28" class="node"><title>Node28</title>
<polygon fill="none" stroke="#bfbfbf" points="1608,-74.5 1608,-93.5 1662,-93.5 1662,-74.5 1608,-74.5"/>
<text text-anchor="middle" x="1635" y="-81.5" font-family="Helvetica,sans-Serif" font-size="10.00">iostream</text>
</g>
<!-- Node1&#45;&gt;Node28 -->
<g id="edge49" class="edge"><title>Node1&#45;&gt;Node28</title>
<path fill="none" stroke="midnightblue" d="M1542.99,-393.019C1455.06,-385.885 1320.38,-369.702 1283,-336 1260.65,-315.847 1264,-301.098 1264,-271 1264,-271 1264,-271 1264,-207 1264,-51.1241 1451.45,-153.097 1598,-100 1600.39,-99.1323 1602.86,-98.2046 1605.34,-97.252"/>
<polygon fill="midnightblue" stroke="midnightblue" points="1606.74,-100.462 1614.75,-93.529 1604.16,-93.953 1606.74,-100.462"/>
</g>
<!-- Node35 -->
<g id="node35" class="node"><title>Node35</title>
<polygon fill="none" stroke="#bfbfbf" points="1683.5,-316.5 1683.5,-335.5 1742.5,-335.5 1742.5,-316.5 1683.5,-316.5"/>
<text text-anchor="middle" x="1713" y="-323.5" font-family="Helvetica,sans-Serif" font-size="10.00">TROOT.h</text>
</g>
<!-- Node1&#45;&gt;Node35 -->
<g id="edge44" class="edge"><title>Node1&#45;&gt;Node35</title>
<path fill="none" stroke="midnightblue" d="M1654.08,-372.968C1667.29,-362.66 1682.16,-351.059 1693.66,-342.09"/>
<polygon fill="midnightblue" stroke="midnightblue" points="1695.98,-344.72 1701.71,-335.81 1691.67,-339.202 1695.98,-344.72"/>
</g>
<!-- Node36 -->
<g id="node36" class="node"><title>Node36</title>
<polygon fill="none" stroke="#bfbfbf" points="1761,-316.5 1761,-335.5 1817,-335.5 1817,-316.5 1761,-316.5"/>
<text text-anchor="middle" x="1789" y="-323.5" font-family="Helvetica,sans-Serif" font-size="10.00">TString.h</text>
</g>
<!-- Node1&#45;&gt;Node36 -->
<g id="edge45" class="edge"><title>Node1&#45;&gt;Node36</title>
<path fill="none" stroke="midnightblue" d="M1680.88,-372.968C1707.43,-361.681 1737.62,-348.844 1759.34,-339.61"/>
<polygon fill="midnightblue" stroke="midnightblue" points="1760.85,-342.773 1768.68,-335.639 1758.11,-336.331 1760.85,-342.773"/>
</g>
<!-- Node37 -->
<g id="node37" class="node"><title>Node37</title>
<polygon fill="none" stroke="#bfbfbf" points="1835.5,-316.5 1835.5,-335.5 1900.5,-335.5 1900.5,-316.5 1835.5,-316.5"/>
<text text-anchor="middle" x="1868" y="-323.5" font-family="Helvetica,sans-Serif" font-size="10.00">TSystem.h</text>
</g>
<!-- Node1&#45;&gt;Node37 -->
<g id="edge46" class="edge"><title>Node1&#45;&gt;Node37</title>
<path fill="none" stroke="midnightblue" d="M1701.19,-375.144C1743.89,-362.821 1794.69,-348.159 1828.92,-338.28"/>
<polygon fill="midnightblue" stroke="midnightblue" points="1829.91,-341.637 1838.54,-335.501 1827.97,-334.912 1829.91,-341.637"/>
</g>
<!-- Node38 -->
<g id="node38" class="node"><title>Node38</title>
<polygon fill="none" stroke="#bfbfbf" points="1919,-316.5 1919,-335.5 2053,-335.5 2053,-316.5 1919,-316.5"/>
<text text-anchor="middle" x="1986" y="-323.5" font-family="Helvetica,sans-Serif" font-size="10.00">boost/program_options.hpp</text>
</g>
<!-- Node1&#45;&gt;Node38 -->
<g id="edge47" class="edge"><title>Node1&#45;&gt;Node38</title>
<path fill="none" stroke="midnightblue" d="M1701.43,-382.506C1771.33,-368.872 1871.21,-349.39 1932.16,-337.502"/>
<polygon fill="midnightblue" stroke="midnightblue" points="1933.19,-340.868 1942.33,-335.518 1931.85,-333.997 1933.19,-340.868"/>
</g>
<!-- Node39 -->
<g id="node39" class="node"><title>Node39</title>
<polygon fill="none" stroke="#bfbfbf" points="2071,-316.5 2071,-335.5 2121,-335.5 2121,-316.5 2071,-316.5"/>
<text text-anchor="middle" x="2096" y="-323.5" font-family="Helvetica,sans-Serif" font-size="10.00">iomanip</text>
</g>
<!-- Node1&#45;&gt;Node39 -->
<g id="edge48" class="edge"><title>Node1&#45;&gt;Node39</title>
<path fill="none" stroke="midnightblue" d="M1701.17,-389.714C1787.47,-380.033 1929.7,-362.185 2060.99,-336.001"/>
<polygon fill="midnightblue" stroke="midnightblue" points="2061.72,-339.426 2070.83,-334.02 2060.33,-332.564 2061.72,-339.426"/>
</g>
<!-- Node3 -->
<g id="node3" class="node"><title>Node3</title>
<polygon fill="none" stroke="#bfbfbf" points="157.5,-198.5 157.5,-217.5 236.5,-217.5 236.5,-198.5 157.5,-198.5"/>
<text text-anchor="middle" x="197" y="-205.5" font-family="Helvetica,sans-Serif" font-size="10.00">FairDetector.h</text>
</g>
<!-- Node2&#45;&gt;Node3 -->
<g id="edge2" class="edge"><title>Node2&#45;&gt;Node3</title>
<path fill="none" stroke="midnightblue" d="M83.0557,-260.403C105.475,-250.29 142.905,-233.404 168.713,-221.761"/>
<polygon fill="midnightblue" stroke="midnightblue" points="170.304,-224.883 177.98,-217.581 167.425,-218.502 170.304,-224.883"/>
</g>
<!-- Node4 -->
<g id="node4" class="node"><title>Node4</title>
<polygon fill="none" stroke="#bfbfbf" points="414,-74.5 414,-93.5 470,-93.5 470,-74.5 414,-74.5"/>
<text text-anchor="middle" x="442" y="-81.5" font-family="Helvetica,sans-Serif" font-size="10.00">Rtypes.h</text>
</g>
<!-- Node2&#45;&gt;Node4 -->
<g id="edge3" class="edge"><title>Node2&#45;&gt;Node4</title>
<path fill="none" stroke="midnightblue" d="M66.0995,-260.405C72.8124,-233.634 94.5156,-152.554 115,-136 158.802,-100.603 327.262,-89.5115 403.784,-86.2575"/>
<polygon fill="midnightblue" stroke="midnightblue" points="404.098,-89.7478 413.949,-85.8486 403.816,-82.7534 404.098,-89.7478"/>
</g>
<!-- Node5 -->
<g id="node5" class="node"><title>Node5</title>
<polygon fill="none" stroke="#bfbfbf" points="3.5,-198.5 3.5,-217.5 62.5,-217.5 62.5,-198.5 3.5,-198.5"/>
<text text-anchor="middle" x="33" y="-205.5" font-family="Helvetica,sans-Serif" font-size="10.00">functional</text>
</g>
<!-- Node2&#45;&gt;Node5 -->
<g id="edge4" class="edge"><title>Node2&#45;&gt;Node5</title>
<path fill="none" stroke="midnightblue" d="M59.5585,-260.403C55.0466,-251.671 47.9261,-237.889 42.1934,-226.794"/>
<polygon fill="midnightblue" stroke="midnightblue" points="45.1331,-224.858 37.4333,-217.581 38.9141,-228.071 45.1331,-224.858"/>
</g>
<!-- Node6 -->
<g id="node6" class="node"><title>Node6</title>
<polygon fill="none" stroke="#bfbfbf" points="254,-198.5 254,-217.5 298,-217.5 298,-198.5 254,-198.5"/>
<text text-anchor="middle" x="276" y="-205.5" font-family="Helvetica,sans-Serif" font-size="10.00">vector</text>
</g>
<!-- Node2&#45;&gt;Node6 -->
<g id="edge5" class="edge"><title>Node2&#45;&gt;Node6</title>
<path fill="none" stroke="midnightblue" d="M109.401,-260.436C146.482,-252.798 199.936,-240.305 245,-224 246.855,-223.329 248.747,-222.581 250.636,-221.788"/>
<polygon fill="midnightblue" stroke="midnightblue" points="252.212,-224.917 259.863,-217.588 249.312,-218.546 252.212,-224.917"/>
</g>
<!-- Node8 -->
<g id="node8" class="node"><title>Node8</title>
<polygon fill="none" stroke="#bfbfbf" points="1342.5,-260.5 1342.5,-279.5 1415.5,-279.5 1415.5,-260.5 1342.5,-260.5"/>
<text text-anchor="middle" x="1379" y="-267.5" font-family="Helvetica,sans-Serif" font-size="10.00">FairModule.h</text>
</g>
<!-- Node7&#45;&gt;Node8 -->
<g id="edge7" class="edge"><title>Node7&#45;&gt;Node8</title>
<path fill="none" stroke="midnightblue" d="M1379,-316.083C1379,-309.006 1379,-298.861 1379,-289.986"/>
<polygon fill="midnightblue" stroke="midnightblue" points="1382.5,-289.751 1379,-279.751 1375.5,-289.751 1382.5,-289.751"/>
</g>
<!-- Node11&#45;&gt;Node4 -->
<g id="edge41" class="edge"><title>Node11&#45;&gt;Node4</title>
<path fill="none" stroke="midnightblue" d="M951.668,-322.392C752.961,-314.276 198.467,-286.197 148,-224 74.8809,-133.885 308.709,-98.87 403.72,-88.5684"/>
<polygon fill="midnightblue" stroke="midnightblue" points="404.215,-92.0357 413.796,-87.5124 403.486,-85.0738 404.215,-92.0357"/>
</g>
<!-- Node11&#45;&gt;Node6 -->
<g id="edge43" class="edge"><title>Node11&#45;&gt;Node6</title>
<path fill="none" stroke="midnightblue" d="M951.655,-322.545C853.619,-318.26 670.641,-307.124 517,-280 421.876,-263.207 397.551,-257.633 307,-224 305.15,-223.313 303.263,-222.554 301.377,-221.753"/>
<polygon fill="midnightblue" stroke="midnightblue" points="302.706,-218.512 292.157,-217.534 299.794,-224.877 302.706,-218.512"/>
</g>
<!-- Node12 -->
<g id="node12" class="node"><title>Node12</title>
<g id="a_node12"><a xlink:href="../../d1/d3a/Base_2include_2DetectorsBase_2Detector_8h.html" target="_top" xlink:title="DetectorsBase/Detector.h">
<polygon fill="none" stroke="black" points="526.5,-260.5 526.5,-279.5 657.5,-279.5 657.5,-260.5 526.5,-260.5"/>
<text text-anchor="middle" x="592" y="-267.5" font-family="Helvetica,sans-Serif" font-size="10.00">DetectorsBase/Detector.h</text>
</a>
</g>
</g>
<!-- Node11&#45;&gt;Node12 -->
<g id="edge11" class="edge"><title>Node11&#45;&gt;Node12</title>
<path fill="none" stroke="midnightblue" d="M953.865,-316.444C875.97,-306.661 748.807,-290.692 667.83,-280.523"/>
<polygon fill="midnightblue" stroke="midnightblue" points="668.059,-277.024 657.701,-279.251 667.187,-283.97 668.059,-277.024"/>
</g>
<!-- Node13 -->
<g id="node13" class="node"><title>Node13</title>
<polygon fill="none" stroke="#bfbfbf" points="989.5,-136.5 989.5,-155.5 1024.5,-155.5 1024.5,-136.5 989.5,-136.5"/>
<text text-anchor="middle" x="1007" y="-143.5" font-family="Helvetica,sans-Serif" font-size="10.00">map</text>
</g>
<!-- Node11&#45;&gt;Node13 -->
<g id="edge42" class="edge"><title>Node11&#45;&gt;Node13</title>
<path fill="none" stroke="midnightblue" d="M1025.86,-316.249C1029.56,-307.333 1034.89,-293.006 1037,-280 1043.76,-238.313 1026.53,-190.131 1015.46,-164.756"/>
<polygon fill="midnightblue" stroke="midnightblue" points="1018.64,-163.296 1011.31,-155.643 1012.27,-166.194 1018.64,-163.296"/>
</g>
<!-- Node21 -->
<g id="node21" class="node"><title>Node21</title>
<g id="a_node21"><a xlink:href="../../dd/d76/Cartesian3D_8h.html" target="_top" xlink:title="MathUtils/Cartesian3D.h">
<polygon fill="none" stroke="black" points="1042.5,-136.5 1042.5,-155.5 1167.5,-155.5 1167.5,-136.5 1042.5,-136.5"/>
<text text-anchor="middle" x="1105" y="-143.5" font-family="Helvetica,sans-Serif" font-size="10.00">MathUtils/Cartesian3D.h</text>
</a>
</g>
</g>
<!-- Node11&#45;&gt;Node21 -->
<g id="edge25" class="edge"><title>Node11&#45;&gt;Node21</title>
<path fill="none" stroke="midnightblue" d="M1028.55,-316.373C1035.04,-307.553 1045.01,-293.3 1052,-280 1072.63,-240.72 1090.26,-191.555 1099.04,-165.388"/>
<polygon fill="midnightblue" stroke="midnightblue" points="1102.44,-166.27 1102.25,-155.677 1095.79,-164.076 1102.44,-166.27"/>
</g>
<!-- Node32 -->
<g id="node32" class="node"><title>Node32</title>
<g id="a_node32"><a xlink:href="../../d1/def/PHOS_2base_2include_2PHOSBase_2Hit_8h.html" target="_top" xlink:title="PHOSBase/Hit.h">
<polygon fill="none" stroke="black" points="1128,-260.5 1128,-279.5 1220,-279.5 1220,-260.5 1128,-260.5"/>
<text text-anchor="middle" x="1174" y="-267.5" font-family="Helvetica,sans-Serif" font-size="10.00">PHOSBase/Hit.h</text>
</a>
</g>
</g>
<!-- Node11&#45;&gt;Node32 -->
<g id="edge37" class="edge"><title>Node11&#45;&gt;Node32</title>
<path fill="none" stroke="midnightblue" d="M1046.08,-316.444C1071.54,-307.399 1111.89,-293.064 1140.46,-282.916"/>
<polygon fill="midnightblue" stroke="midnightblue" points="1141.78,-286.162 1150.03,-279.516 1139.43,-279.566 1141.78,-286.162"/>
</g>
<!-- Node34 -->
<g id="node34" class="node"><title>Node34</title>
<polygon fill="none" stroke="#bfbfbf" points="948,-260.5 948,-279.5 1028,-279.5 1028,-260.5 948,-260.5"/>
<text text-anchor="middle" x="988" y="-267.5" font-family="Helvetica,sans-Serif" font-size="10.00">RStringView.h</text>
</g>
<!-- Node11&#45;&gt;Node34 -->
<g id="edge40" class="edge"><title>Node11&#45;&gt;Node34</title>
<path fill="none" stroke="midnightblue" d="M1016.39,-316.083C1011.63,-308.534 1004.68,-297.495 998.848,-288.23"/>
<polygon fill="midnightblue" stroke="midnightblue" points="1001.8,-286.349 993.51,-279.751 995.876,-290.078 1001.8,-286.349"/>
</g>
<!-- Node12&#45;&gt;Node3 -->
<g id="edge15" class="edge"><title>Node12&#45;&gt;Node3</title>
<path fill="none" stroke="midnightblue" d="M526.182,-263.898C455.95,-257.657 341.719,-245.215 245,-224 240.563,-223.027 235.946,-221.829 231.407,-220.539"/>
<polygon fill="midnightblue" stroke="midnightblue" points="232.276,-217.146 221.692,-217.618 230.26,-223.85 232.276,-217.146"/>
</g>
<!-- Node12&#45;&gt;Node4 -->
<g id="edge20" class="edge"><title>Node12&#45;&gt;Node4</title>
<path fill="none" stroke="midnightblue" d="M584.893,-260.385C577.433,-251.336 565.371,-236.685 555,-224 518.921,-179.871 476.582,-127.682 455.44,-101.593"/>
<polygon fill="midnightblue" stroke="midnightblue" points="458.137,-99.3622 449.122,-93.7957 452.698,-103.769 458.137,-99.3622"/>
</g>
<!-- Node12&#45;&gt;Node6 -->
<g id="edge13" class="edge"><title>Node12&#45;&gt;Node6</title>
<path fill="none" stroke="midnightblue" d="M526.235,-264.136C467.651,-258.513 380.135,-246.915 307,-224 304.868,-223.332 302.697,-222.539 300.545,-221.672"/>
<polygon fill="midnightblue" stroke="midnightblue" points="301.959,-218.471 291.404,-217.556 299.085,-224.853 301.959,-218.471"/>
</g>
<!-- Node12&#45;&gt;Node13 -->
<g id="edge12" class="edge"><title>Node12&#45;&gt;Node13</title>
<path fill="none" stroke="midnightblue" d="M657.716,-266.135C766.483,-260.752 974.361,-247.498 998,-224 1013.03,-209.056 1012.98,-183.354 1010.71,-165.789"/>
<polygon fill="midnightblue" stroke="midnightblue" points="1014.11,-164.914 1009.03,-155.615 1007.2,-166.051 1014.11,-164.914"/>
</g>
<!-- Node14 -->
<g id="node14" class="node"><title>Node14</title>
<polygon fill="none" stroke="#bfbfbf" points="748,-198.5 748,-217.5 800,-217.5 800,-198.5 748,-198.5"/>
<text text-anchor="middle" x="774" y="-205.5" font-family="Helvetica,sans-Serif" font-size="10.00">memory</text>
</g>
<!-- Node12&#45;&gt;Node14 -->
<g id="edge14" class="edge"><title>Node12&#45;&gt;Node14</title>
<path fill="none" stroke="midnightblue" d="M622.762,-260.448C652.505,-251.962 698.713,-238.202 738,-224 740.256,-223.184 742.578,-222.307 744.904,-221.401"/>
<polygon fill="midnightblue" stroke="midnightblue" points="746.365,-224.585 754.328,-217.596 743.745,-218.094 746.365,-224.585"/>
</g>
<!-- Node15 -->
<g id="node15" class="node"><title>Node15</title>
<polygon fill="none" stroke="#bfbfbf" points="818,-198.5 818,-217.5 918,-217.5 918,-198.5 818,-198.5"/>
<text text-anchor="middle" x="868" y="-205.5" font-family="Helvetica,sans-Serif" font-size="10.00">FairRootManager.h</text>
</g>
<!-- Node12&#45;&gt;Node15 -->
<g id="edge16" class="edge"><title>Node12&#45;&gt;Node15</title>
<path fill="none" stroke="midnightblue" d="M636.18,-260.437C680.117,-251.78 749.39,-237.751 809,-224 814.407,-222.753 820.077,-221.386 825.676,-220.002"/>
<polygon fill="midnightblue" stroke="midnightblue" points="826.755,-223.34 835.603,-217.512 825.052,-216.55 826.755,-223.34"/>
</g>
<!-- Node16 -->
<g id="node16" class="node"><title>Node16</title>
<g id="a_node16"><a xlink:href="../../d0/d9a/MaterialManager_8h.html" target="_top" xlink:title="DetectorsBase/MaterialManager.h">
<polygon fill="none" stroke="black" points="564.5,-198.5 564.5,-217.5 729.5,-217.5 729.5,-198.5 564.5,-198.5"/>
<text text-anchor="middle" x="647" y="-205.5" font-family="Helvetica,sans-Serif" font-size="10.00">DetectorsBase/MaterialManager.h</text>
</a>
</g>
</g>
<!-- Node12&#45;&gt;Node16 -->
<g id="edge17" class="edge"><title>Node12&#45;&gt;Node16</title>
<path fill="none" stroke="midnightblue" d="M599.88,-260.403C608.294,-251.225 621.819,-236.47 632.226,-225.117"/>
<polygon fill="midnightblue" stroke="midnightblue" points="634.957,-227.317 639.134,-217.581 629.797,-222.587 634.957,-227.317"/>
</g>
<!-- Node17 -->
<g id="node17" class="node"><title>Node17</title>
<polygon fill="none" stroke="#bfbfbf" points="936.5,-198.5 936.5,-217.5 989.5,-217.5 989.5,-198.5 936.5,-198.5"/>
<text text-anchor="middle" x="963" y="-205.5" font-family="Helvetica,sans-Serif" font-size="10.00">cxxabi.h</text>
</g>
<!-- Node12&#45;&gt;Node17 -->
<g id="edge21" class="edge"><title>Node12&#45;&gt;Node17</title>
<path fill="none" stroke="midnightblue" d="M657.529,-265.27C725.796,-260.213 835.374,-248.783 927,-224 929.819,-223.238 932.709,-222.306 935.568,-221.285"/>
<polygon fill="midnightblue" stroke="midnightblue" points="936.98,-224.49 945.01,-217.578 934.422,-217.975 936.98,-224.49"/>
</g>
<!-- Node18 -->
<g id="node18" class="node"><title>Node18</title>
<polygon fill="none" stroke="#bfbfbf" points="316.5,-198.5 316.5,-217.5 367.5,-217.5 367.5,-198.5 316.5,-198.5"/>
<text text-anchor="middle" x="342" y="-205.5" font-family="Helvetica,sans-Serif" font-size="10.00">typeinfo</text>
</g>
<!-- Node12&#45;&gt;Node18 -->
<g id="edge22" class="edge"><title>Node12&#45;&gt;Node18</title>
<path fill="none" stroke="midnightblue" d="M536.437,-260.494C492.561,-253.033 430.098,-240.752 377,-224 374.573,-223.234 372.084,-222.36 369.607,-221.426"/>
<polygon fill="midnightblue" stroke="midnightblue" points="370.85,-218.153 360.268,-217.64 368.22,-224.641 370.85,-218.153"/>
</g>
<!-- Node19 -->
<g id="node19" class="node"><title>Node19</title>
<polygon fill="none" stroke="#bfbfbf" points="386,-198.5 386,-217.5 448,-217.5 448,-198.5 386,-198.5"/>
<text text-anchor="middle" x="417" y="-205.5" font-family="Helvetica,sans-Serif" font-size="10.00">type_traits</text>
</g>
<!-- Node12&#45;&gt;Node19 -->
<g id="edge23" class="edge"><title>Node12&#45;&gt;Node19</title>
<path fill="none" stroke="midnightblue" d="M565.516,-260.492C538.224,-251.651 494.495,-237.274 457,-224 454.402,-223.08 451.716,-222.112 449.021,-221.127"/>
<polygon fill="midnightblue" stroke="midnightblue" points="449.965,-217.745 439.372,-217.556 447.535,-224.309 449.965,-217.745"/>
</g>
<!-- Node20 -->
<g id="node20" class="node"><title>Node20</title>
<polygon fill="none" stroke="#bfbfbf" points="466.5,-198.5 466.5,-217.5 507.5,-217.5 507.5,-198.5 466.5,-198.5"/>
<text text-anchor="middle" x="487" y="-205.5" font-family="Helvetica,sans-Serif" font-size="10.00">string</text>
</g>
<!-- Node12&#45;&gt;Node20 -->
<g id="edge24" class="edge"><title>Node12&#45;&gt;Node20</title>
<path fill="none" stroke="midnightblue" d="M576.956,-260.403C559.725,-250.557 531.26,-234.291 510.966,-222.695"/>
<polygon fill="midnightblue" stroke="midnightblue" points="512.435,-219.503 502.016,-217.581 508.962,-225.581 512.435,-219.503"/>
</g>
<!-- Node16&#45;&gt;Node4 -->
<g id="edge18" class="edge"><title>Node16&#45;&gt;Node4</title>
<path fill="none" stroke="midnightblue" d="M636.692,-198.428C619.451,-184.331 583.363,-155.841 550,-136 535.873,-127.599 497.826,-110.045 470.902,-97.8959"/>
<polygon fill="midnightblue" stroke="midnightblue" points="472.107,-94.6 461.551,-93.6914 469.236,-100.984 472.107,-94.6"/>
</g>
<!-- Node16&#45;&gt;Node13 -->
<g id="edge19" class="edge"><title>Node16&#45;&gt;Node13</title>
<path fill="none" stroke="midnightblue" d="M698.197,-198.467C775.476,-185.587 919.271,-161.622 979.425,-151.596"/>
<polygon fill="midnightblue" stroke="midnightblue" points="980.034,-155.043 989.323,-149.946 978.884,-148.138 980.034,-155.043"/>
</g>
<!-- Node21&#45;&gt;Node4 -->
<g id="edge31" class="edge"><title>Node21&#45;&gt;Node4</title>
<path fill="none" stroke="midnightblue" d="M1042.2,-136.926C1039.09,-136.597 1036.01,-136.285 1033,-136 786.919,-112.66 718.688,-156.3 478,-100 474.934,-99.2829 471.795,-98.3314 468.709,-97.2543"/>
<polygon fill="midnightblue" stroke="midnightblue" points="469.78,-93.9148 459.192,-93.519 467.222,-100.431 469.78,-93.9148"/>
</g>
<!-- Node22 -->
<g id="node22" class="node"><title>Node22</title>
<polygon fill="none" stroke="#bfbfbf" points="1244.5,-69 1244.5,-99 1395.5,-99 1395.5,-69 1244.5,-69"/>
<text text-anchor="start" x="1252.5" y="-87" font-family="Helvetica,sans-Serif" font-size="10.00">Math/GenVector/Displacement</text>
<text text-anchor="middle" x="1320" y="-76" font-family="Helvetica,sans-Serif" font-size="10.00">Vector3D.h</text>
</g>
<!-- Node21&#45;&gt;Node22 -->
<g id="edge26" class="edge"><title>Node21&#45;&gt;Node22</title>
<path fill="none" stroke="midnightblue" d="M1135.8,-136.403C1168.09,-127.393 1219.64,-113.007 1260,-101.743"/>
<polygon fill="midnightblue" stroke="midnightblue" points="1261.05,-105.085 1269.74,-99.0253 1259.17,-98.3422 1261.05,-105.085"/>
</g>
<!-- Node23 -->
<g id="node23" class="node"><title>Node23</title>
<polygon fill="none" stroke="#bfbfbf" points="1414,-74.5 1414,-93.5 1590,-93.5 1590,-74.5 1414,-74.5"/>
<text text-anchor="middle" x="1502" y="-81.5" font-family="Helvetica,sans-Serif" font-size="10.00">Math/GenVector/PositionVector3D.h</text>
</g>
<!-- Node21&#45;&gt;Node23 -->
<g id="edge27" class="edge"><title>Node21&#45;&gt;Node23</title>
<path fill="none" stroke="midnightblue" d="M1161.77,-136.499C1221.92,-127.482 1319.66,-112.801 1404,-100 1414.55,-98.3982 1425.74,-96.6922 1436.65,-95.0265"/>
<polygon fill="midnightblue" stroke="midnightblue" points="1437.19,-98.4837 1446.55,-93.5122 1436.13,-91.5641 1437.19,-98.4837"/>
</g>
<!-- Node24 -->
<g id="node24" class="node"><title>Node24</title>
<polygon fill="none" stroke="#bfbfbf" points="487.5,-74.5 487.5,-93.5 636.5,-93.5 636.5,-74.5 487.5,-74.5"/>
<text text-anchor="middle" x="562" y="-81.5" font-family="Helvetica,sans-Serif" font-size="10.00">Math/GenVector/Rotation3D.h</text>
</g>
<!-- Node21&#45;&gt;Node24 -->
<g id="edge28" class="edge"><title>Node21&#45;&gt;Node24</title>
<path fill="none" stroke="midnightblue" d="M1042.19,-137.03C1039.08,-136.673 1036.01,-136.328 1033,-136 861.274,-117.285 817.177,-123.204 646,-100 636.201,-98.6717 625.802,-97.0164 615.78,-95.2947"/>
<polygon fill="midnightblue" stroke="midnightblue" points="616.377,-91.846 605.922,-93.5607 615.164,-98.7402 616.377,-91.846"/>
</g>
<!-- Node25 -->
<g id="node25" class="node"><title>Node25</title>
<polygon fill="none" stroke="#bfbfbf" points="655,-74.5 655,-93.5 811,-93.5 811,-74.5 655,-74.5"/>
<text text-anchor="middle" x="733" y="-81.5" font-family="Helvetica,sans-Serif" font-size="10.00">Math/GenVector/Transform3D.h</text>
</g>
<!-- Node21&#45;&gt;Node25 -->
<g id="edge29" class="edge"><title>Node21&#45;&gt;Node25</title>
<path fill="none" stroke="midnightblue" d="M1049.53,-136.479C992.067,-127.596 899.694,-113.161 820,-100 810.894,-98.4961 801.257,-96.8698 791.845,-95.2618"/>
<polygon fill="midnightblue" stroke="midnightblue" points="792.202,-91.772 781.754,-93.5308 791.018,-98.6712 792.202,-91.772"/>
</g>
<!-- Node26 -->
<g id="node26" class="node"><title>Node26</title>
<polygon fill="none" stroke="#bfbfbf" points="829,-74.5 829,-93.5 989,-93.5 989,-74.5 829,-74.5"/>
<text text-anchor="middle" x="909" y="-81.5" font-family="Helvetica,sans-Serif" font-size="10.00">Math/GenVector/Translation3D.h</text>
</g>
<!-- Node21&#45;&gt;Node26 -->
<g id="edge30" class="edge"><title>Node21&#45;&gt;Node26</title>
<path fill="none" stroke="midnightblue" d="M1076.92,-136.403C1042.71,-125.933 984.803,-108.205 946.73,-96.5501"/>
<polygon fill="midnightblue" stroke="midnightblue" points="947.616,-93.1611 937.03,-93.5806 945.567,-99.8545 947.616,-93.1611"/>
</g>
<!-- Node27 -->
<g id="node27" class="node"><title>Node27</title>
<polygon fill="none" stroke="#bfbfbf" points="1007,-74.5 1007,-93.5 1083,-93.5 1083,-74.5 1007,-74.5"/>
<text text-anchor="middle" x="1045" y="-81.5" font-family="Helvetica,sans-Serif" font-size="10.00">TGeoMatrix.h</text>
</g>
<!-- Node21&#45;&gt;Node27 -->
<g id="edge32" class="edge"><title>Node21&#45;&gt;Node27</title>
<path fill="none" stroke="midnightblue" d="M1096.4,-136.403C1087.14,-127.136 1072.18,-112.183 1060.79,-100.788"/>
<polygon fill="midnightblue" stroke="midnightblue" points="1063.13,-98.1768 1053.58,-93.5806 1058.18,-103.127 1063.13,-98.1768"/>
</g>
<!-- Node21&#45;&gt;Node28 -->
<g id="edge33" class="edge"><title>Node21&#45;&gt;Node28</title>
<path fill="none" stroke="midnightblue" d="M1167.75,-140.308C1291.19,-130.926 1557.18,-109.907 1598,-100 1601.07,-99.2557 1604.21,-98.3016 1607.31,-97.236"/>
<polygon fill="midnightblue" stroke="midnightblue" points="1608.82,-100.409 1616.91,-93.5719 1606.32,-93.8697 1608.82,-100.409"/>
</g>
<!-- Node29 -->
<g id="node29" class="node"><title>Node29</title>
<g id="a_node29"><a xlink:href="../../d2/dd0/Cartesian2D_8h.html" target="_top" xlink:title="MathUtils/Cartesian2D.h">
<polygon fill="none" stroke="black" points="1101.5,-74.5 1101.5,-93.5 1226.5,-93.5 1226.5,-74.5 1101.5,-74.5"/>
<text text-anchor="middle" x="1164" y="-81.5" font-family="Helvetica,sans-Serif" font-size="10.00">MathUtils/Cartesian2D.h</text>
</a>
</g>
</g>
<!-- Node21&#45;&gt;Node29 -->
<g id="edge34" class="edge"><title>Node21&#45;&gt;Node29</title>
<path fill="none" stroke="midnightblue" d="M1113.45,-136.403C1122.57,-127.136 1137.27,-112.183 1148.48,-100.788"/>
<polygon fill="midnightblue" stroke="midnightblue" points="1151.05,-103.165 1155.56,-93.5806 1146.06,-98.2569 1151.05,-103.165"/>
</g>
<!-- Node30 -->
<g id="node30" class="node"><title>Node30</title>
<polygon fill="none" stroke="#bfbfbf" points="997.5,-1 997.5,-31 1148.5,-31 1148.5,-1 997.5,-1"/>
<text text-anchor="start" x="1005.5" y="-19" font-family="Helvetica,sans-Serif" font-size="10.00">Math/GenVector/Displacement</text>
<text text-anchor="middle" x="1073" y="-8" font-family="Helvetica,sans-Serif" font-size="10.00">Vector2D.h</text>
</g>
<!-- Node29&#45;&gt;Node30 -->
<g id="edge35" class="edge"><title>Node29&#45;&gt;Node30</title>
<path fill="none" stroke="midnightblue" d="M1152.1,-74.3717C1139.22,-65.0286 1118.22,-49.7966 1101.09,-37.375"/>
<polygon fill="midnightblue" stroke="midnightblue" points="1102.7,-34.2194 1092.55,-31.1815 1098.59,-39.8859 1102.7,-34.2194"/>
</g>
<!-- Node31 -->
<g id="node31" class="node"><title>Node31</title>
<polygon fill="none" stroke="#bfbfbf" points="1167,-6.5 1167,-25.5 1343,-25.5 1343,-6.5 1167,-6.5"/>
<text text-anchor="middle" x="1255" y="-13.5" font-family="Helvetica,sans-Serif" font-size="10.00">Math/GenVector/PositionVector2D.h</text>
</g>
<!-- Node29&#45;&gt;Node31 -->
<g id="edge36" class="edge"><title>Node29&#45;&gt;Node31</title>
<path fill="none" stroke="midnightblue" d="M1175.9,-74.3717C1190.88,-63.5015 1216.86,-44.6602 1234.94,-31.5474"/>
<polygon fill="midnightblue" stroke="midnightblue" points="1237.06,-34.3349 1243.1,-25.6305 1232.95,-28.6684 1237.06,-34.3349"/>
</g>
<!-- Node33 -->
<g id="node33" class="node"><title>Node33</title>
<g id="a_node33"><a xlink:href="../../d4/d25/BaseHits_8h.html" target="_top" xlink:title="SimulationDataFormat\l/BaseHits.h">
<polygon fill="none" stroke="black" points="1122,-193 1122,-223 1236,-223 1236,-193 1122,-193"/>
<text text-anchor="start" x="1130" y="-211" font-family="Helvetica,sans-Serif" font-size="10.00">SimulationDataFormat</text>
<text text-anchor="middle" x="1179" y="-200" font-family="Helvetica,sans-Serif" font-size="10.00">/BaseHits.h</text>
</a>
</g>
</g>
<!-- Node32&#45;&gt;Node33 -->
<g id="edge38" class="edge"><title>Node32&#45;&gt;Node33</title>
<path fill="none" stroke="midnightblue" d="M1174.72,-260.403C1175.3,-253.341 1176.17,-242.975 1176.97,-233.399"/>
<polygon fill="midnightblue" stroke="midnightblue" points="1180.48,-233.397 1177.82,-223.141 1173.5,-232.816 1180.48,-233.397"/>
</g>
<!-- Node33&#45;&gt;Node21 -->
<g id="edge39" class="edge"><title>Node33&#45;&gt;Node21</title>
<path fill="none" stroke="midnightblue" d="M1161.46,-192.781C1150.04,-183.523 1135.17,-171.462 1123.55,-162.044"/>
<polygon fill="midnightblue" stroke="midnightblue" points="1125.74,-159.31 1115.77,-155.731 1121.33,-164.747 1125.74,-159.31"/>
</g>
</g>
</svg>
        <g id="navigator" transform="translate(0 0)" fill="#404254">
                <rect fill="#f2f5e9" fill-opacity="0.5" stroke="#606060" stroke-width=".5" x="0" y="0" width="60" height="60"/>
                <use id="zoomplus" xlink:href="#zoomPlus" x="17" y="9" onmousedown="handleZoom(evt,'in')"/>
                <use id="zoomminus" xlink:href="#zoomMin" x="42" y="9" onmousedown="handleZoom(evt,'out')"/>
                <use id="reset" xlink:href="#resetDef" x="30" y="36" onmousedown="handleReset()"/>
                <g id="arrowUp" xlink:href="#dirArrow" transform="translate(30 24)" onmousedown="handlePan(0,-1)">
                  <use xlink:href="#rim" fill="#404040">
                        <set attributeName="fill" to="#808080" begin="arrowUp.mouseover" end="arrowUp.mouseout"/>
                  </use>
                  <path fill="none" stroke="white" stroke-width="1.5" d="M0,-3.0v7 M-2.5,-0.5L0,-3.0L2.5,-0.5"/>
                </g>
                <g id="arrowRight" xlink:href="#dirArrow" transform="rotate(90) translate(36 -43)" onmousedown="handlePan(1,0)">
                  <use xlink:href="#rim" fill="#404040">
                        <set attributeName="fill" to="#808080" begin="arrowRight.mouseover" end="arrowRight.mouseout"/>
                  </use>
                  <path fill="none" stroke="white" stroke-width="1.5" d="M0,-3.0v7 M-2.5,-0.5L0,-3.0L2.5,-0.5"/>
                </g>
                <g id="arrowDown" xlink:href="#dirArrow" transform="rotate(180) translate(-30 -48)" onmousedown="handlePan(0,1)">
                  <use xlink:href="#rim" fill="#404040">
                        <set attributeName="fill" to="#808080" begin="arrowDown.mouseover" end="arrowDown.mouseout"/>
                  </use>
                  <path fill="none" stroke="white" stroke-width="1.5" d="M0,-3.0v7 M-2.5,-0.5L0,-3.0L2.5,-0.5"/>
                </g>
                <g id="arrowLeft" xlink:href="#dirArrow" transform="rotate(270) translate(-36 17)" onmousedown="handlePan(-1,0)">
                  <use xlink:href="#rim" fill="#404040">
                        <set attributeName="fill" to="#808080" begin="arrowLeft.mouseover" end="arrowLeft.mouseout"/>
                  </use>
                  <path fill="none" stroke="white" stroke-width="1.5" d="M0,-3.0v7 M-2.5,-0.5L0,-3.0L2.5,-0.5"/>
                </g>
        </g>
        <svg viewBox="0 0 15 15" width="100%" height="30px" preserveAspectRatio="xMaxYMin meet">
         <g id="arrow_out" transform="scale(0.3 0.3)">
          <a xlink:href="drawPHOSgeometry_8C__incl_org.svg" target="_base">
           <rect id="button" ry="5" rx="5" y="6" x="6" height="38" width="38"
                fill="#f2f5e9" fill-opacity="0.5" stroke="#606060" stroke-width="1.0"/>
           <path id="arrow"
             d="M 11.500037,31.436501 C 11.940474,20.09759 22.043105,11.32322 32.158766,21.979434 L 37.068811,17.246167 C 37.068811,17.246167 37.088388,32 37.088388,32 L 22.160133,31.978069 C 22.160133,31.978069 26.997745,27.140456 26.997745,27.140456 C 18.528582,18.264221 13.291696,25.230495 11.500037,31.436501 z"
             style="fill:#404040;"/>
          </a>
         </g>
        </svg>
</svg>
