<?xml version="1.0" encoding="UTF-8" standalone="no"?>
<!DOCTYPE svg PUBLIC "-//W3C//DTD SVG 1.1//EN"
 "http://www.w3.org/Graphics/SVG/1.1/DTD/svg11.dtd">
<!-- Generated by graphviz version 2.36.0 (20140111.2315)
 -->
<!-- Title: o2::TPC::ClusterHardwareContainer Pages: 1 -->
<svg width="427pt" height="466pt"
 viewBox="0.00 0.00 427.00 466.00" xmlns="http://www.w3.org/2000/svg" xmlns:xlink="http://www.w3.org/1999/xlink">
<g id="graph0" class="graph" transform="scale(1 1) rotate(0) translate(4 462)">
<title>o2::TPC::ClusterHardwareContainer</title>
<!-- Node1 -->
<g id="node1" class="node"><title>Node1</title>
<polygon fill="#bfbfbf" stroke="black" points="79.5,-1 79.5,-69 212.5,-69 212.5,-1 79.5,-1"/>
<text text-anchor="start" x="87.5" y="-57" font-family="Helvetica,sans-Serif" font-size="10.00">o2::TPC::ClusterHardware</text>
<text text-anchor="middle" x="146" y="-46" font-family="Helvetica,sans-Serif" font-size="10.00">Container</text>
<polyline fill="none" stroke="black" points="79.5,-39 212.5,-39 "/>
<text text-anchor="middle" x="146" y="-27" font-family="Helvetica,sans-Serif" font-size="10.00"> </text>
<polyline fill="none" stroke="black" points="79.5,-20 212.5,-20 "/>
<text text-anchor="middle" x="146" y="-8" font-family="Helvetica,sans-Serif" font-size="10.00"> </text>
</g>
<!-- Node2 -->
<g id="node2" class="node"><title>Node2</title>
<polygon fill="none" stroke="#bfbfbf" points="-0.5,-189.5 -0.5,-246.5 50.5,-246.5 50.5,-189.5 -0.5,-189.5"/>
<text text-anchor="middle" x="25" y="-234.5" font-family="Helvetica,sans-Serif" font-size="10.00">uint64_t</text>
<polyline fill="none" stroke="#bfbfbf" points="-0.5,-227.5 50.5,-227.5 "/>
<text text-anchor="middle" x="25" y="-215.5" font-family="Helvetica,sans-Serif" font-size="10.00"> </text>
<polyline fill="none" stroke="#bfbfbf" points="-0.5,-208.5 50.5,-208.5 "/>
<text text-anchor="middle" x="25" y="-196.5" font-family="Helvetica,sans-Serif" font-size="10.00"> </text>
</g>
<!-- Node2&#45;&gt;Node1 -->
<g id="edge1" class="edge"><title>Node2&#45;&gt;Node1</title>
<path fill="none" stroke="#404040" d="M24.3494,-189.397C25.0514,-161.289 30.0531,-117.73 52,-88 56.8373,-81.4472 62.7598,-75.6169 69.2565,-70.4532"/>
<polygon fill="none" stroke="#404040" points="69.3824,-70.3627 71.9194,-63.6126 79.1261,-63.3582 76.5891,-70.1083 69.3824,-70.3627"/>
<text text-anchor="middle" x="68.5" y="-96.5" font-family="Helvetica,sans-Serif" font-size="10.00"> +mDH</text>
</g>
<!-- Node3 -->
<g id="node3" class="node"><title>Node3</title>
<polygon fill="none" stroke="#bfbfbf" points="68.5,-189.5 68.5,-246.5 119.5,-246.5 119.5,-189.5 68.5,-189.5"/>
<text text-anchor="middle" x="94" y="-234.5" font-family="Helvetica,sans-Serif" font-size="10.00">uint16_t</text>
<polyline fill="none" stroke="#bfbfbf" points="68.5,-227.5 119.5,-227.5 "/>
<text text-anchor="middle" x="94" y="-215.5" font-family="Helvetica,sans-Serif" font-size="10.00"> </text>
<polyline fill="none" stroke="#bfbfbf" points="68.5,-208.5 119.5,-208.5 "/>
<text text-anchor="middle" x="94" y="-196.5" font-family="Helvetica,sans-Serif" font-size="10.00"> </text>
</g>
<!-- Node3&#45;&gt;Node1 -->
<g id="edge2" class="edge"><title>Node3&#45;&gt;Node1</title>
<path fill="none" stroke="#404040" d="M88.4271,-189.395C84.2934,-162.442 81.4474,-120.81 95,-88 96.2688,-84.9285 97.8145,-81.9395 99.567,-79.0486"/>
<polygon fill="none" stroke="#404040" points="99.7342,-78.8137 99.9543,-71.6059 106.692,-69.0369 106.472,-76.2447 99.7342,-78.8137"/>
<text text-anchor="middle" x="139.5" y="-102" font-family="Helvetica,sans-Serif" font-size="10.00"> +numberOfClusters</text>
<text text-anchor="middle" x="139.5" y="-91" font-family="Helvetica,sans-Serif" font-size="10.00">+CRU</text>
</g>
<!-- Node4 -->
<g id="node4" class="node"><title>Node4</title>
<polygon fill="none" stroke="#bfbfbf" points="219.5,-400.5 219.5,-457.5 270.5,-457.5 270.5,-400.5 219.5,-400.5"/>
<text text-anchor="middle" x="245" y="-445.5" font-family="Helvetica,sans-Serif" font-size="10.00">uint32_t</text>
<polyline fill="none" stroke="#bfbfbf" points="219.5,-438.5 270.5,-438.5 "/>
<text text-anchor="middle" x="245" y="-426.5" font-family="Helvetica,sans-Serif" font-size="10.00"> </text>
<polyline fill="none" stroke="#bfbfbf" points="219.5,-419.5 270.5,-419.5 "/>
<text text-anchor="middle" x="245" y="-407.5" font-family="Helvetica,sans-Serif" font-size="10.00"> </text>
</g>
<!-- Node4&#45;&gt;Node1 -->
<g id="edge3" class="edge"><title>Node4&#45;&gt;Node1</title>
<path fill="none" stroke="#404040" d="M234.463,-400.301C225.742,-376.249 213.731,-340.304 207,-308 186.947,-211.756 219.333,-179.742 184,-88 182.91,-85.1697 181.624,-82.3554 180.197,-79.5854"/>
<polygon fill="none" stroke="#404040" points="180.167,-79.5352 173.683,-76.3807 174.1,-69.1817 180.585,-72.3362 180.167,-79.5352"/>
<text text-anchor="middle" x="242" y="-215.5" font-family="Helvetica,sans-Serif" font-size="10.00"> +timeBinOffset</text>
</g>
<!-- Node5 -->
<g id="node5" class="node"><title>Node5</title>
<g id="a_node5"><a xlink:href="../../db/d62/structo2_1_1TPC_1_1ClusterHardware.html" target="_top" xlink:title="{o2::TPC::ClusterHardware\n||+ getQTotFloat()\l+ getQTot()\l+ getQMax()\l+ getRow()\l+ getFlags()\l+ getPadPre()\l+ getPad()\l+ getTimeLocalPre()\l+ getTimeLocal()\l+ getSigmaPad2()\l+ getSigmaTime2()\l+ setCluster()\l}">
<polygon fill="none" stroke="black" points="286.5,-129 286.5,-307 419.5,-307 419.5,-129 286.5,-129"/>
<text text-anchor="middle" x="353" y="-295" font-family="Helvetica,sans-Serif" font-size="10.00">o2::TPC::ClusterHardware</text>
<polyline fill="none" stroke="black" points="286.5,-288 419.5,-288 "/>
<text text-anchor="middle" x="353" y="-276" font-family="Helvetica,sans-Serif" font-size="10.00"> </text>
<polyline fill="none" stroke="black" points="286.5,-269 419.5,-269 "/>
<text text-anchor="start" x="294.5" y="-257" font-family="Helvetica,sans-Serif" font-size="10.00">+ getQTotFloat()</text>
<text text-anchor="start" x="294.5" y="-246" font-family="Helvetica,sans-Serif" font-size="10.00">+ getQTot()</text>
<text text-anchor="start" x="294.5" y="-235" font-family="Helvetica,sans-Serif" font-size="10.00">+ getQMax()</text>
<text text-anchor="start" x="294.5" y="-224" font-family="Helvetica,sans-Serif" font-size="10.00">+ getRow()</text>
<text text-anchor="start" x="294.5" y="-213" font-family="Helvetica,sans-Serif" font-size="10.00">+ getFlags()</text>
<text text-anchor="start" x="294.5" y="-202" font-family="Helvetica,sans-Serif" font-size="10.00">+ getPadPre()</text>
<text text-anchor="start" x="294.5" y="-191" font-family="Helvetica,sans-Serif" font-size="10.00">+ getPad()</text>
<text text-anchor="start" x="294.5" y="-180" font-family="Helvetica,sans-Serif" font-size="10.00">+ getTimeLocalPre()</text>
<text text-anchor="start" x="294.5" y="-169" font-family="Helvetica,sans-Serif" font-size="10.00">+ getTimeLocal()</text>
<text text-anchor="start" x="294.5" y="-158" font-family="Helvetica,sans-Serif" font-size="10.00">+ getSigmaPad2()</text>
<text text-anchor="start" x="294.5" y="-147" font-family="Helvetica,sans-Serif" font-size="10.00">+ getSigmaTime2()</text>
<text text-anchor="start" x="294.5" y="-136" font-family="Helvetica,sans-Serif" font-size="10.00">+ setCluster()</text>
</a>
</g>
</g>
<!-- Node4&#45;&gt;Node5 -->
<g id="edge5" class="edge"><title>Node4&#45;&gt;Node5</title>
<path fill="none" stroke="#404040" d="M259.342,-400.246C270.329,-378.984 286.198,-348.275 301.76,-318.158"/>
<polygon fill="none" stroke="#404040" points="301.961,-317.769 301.162,-310.602 307.47,-307.108 308.269,-314.275 301.961,-317.769"/>
<text text-anchor="middle" x="314" y="-373.5" font-family="Helvetica,sans-Serif" font-size="10.00"> +word0</text>
<text text-anchor="middle" x="314" y="-362.5" font-family="Helvetica,sans-Serif" font-size="10.00">+word1</text>
<text text-anchor="middle" x="314" y="-351.5" font-family="Helvetica,sans-Serif" font-size="10.00">+word2</text>
<text text-anchor="middle" x="314" y="-340.5" font-family="Helvetica,sans-Serif" font-size="10.00">+word3</text>
<text text-anchor="middle" x="314" y="-329.5" font-family="Helvetica,sans-Serif" font-size="10.00">+word4</text>
</g>
<!-- Node5&#45;&gt;Node1 -->
<g id="edge4" class="edge"><title>Node5&#45;&gt;Node1</title>
<path fill="none" stroke="#404040" d="M286.445,-141.626C281.66,-136.91 276.82,-132.327 272,-128 251.642,-109.725 227.735,-91.5487 206.247,-76.2389"/>
<polygon fill="none" stroke="#404040" points="206.054,-76.1028 198.845,-75.9172 196.244,-69.1916 203.453,-69.3772 206.054,-76.1028"/>
<text text-anchor="middle" x="272" y="-96.5" font-family="Helvetica,sans-Serif" font-size="10.00"> +clusters</text>
</g>
</g>
</svg>
