<?xml version="1.0" encoding="UTF-8" standalone="no"?>
<!DOCTYPE svg PUBLIC "-//W3C//DTD SVG 1.1//EN"
 "http://www.w3.org/Graphics/SVG/1.1/DTD/svg11.dtd">
<!-- Generated by graphviz version 2.36.0 (20140111.2315)
 -->
<!-- Title: /home/travis/build/AliceO2Group/AliceO2/Common/Field/src/MagFieldParam.cxx Pages: 1 -->
<svg width="1794pt" height="410pt"
 viewBox="0.00 0.00 1793.86 410.00" xmlns="http://www.w3.org/2000/svg" xmlns:xlink="http://www.w3.org/1999/xlink">
<g id="graph0" class="graph" transform="scale(1 1) rotate(0) translate(4 406)">
<title>/home/travis/build/AliceO2Group/AliceO2/Common/Field/src/MagFieldParam.cxx</title>
<!-- Node1 -->
<g id="node1" class="node"><title>Node1</title>
<polygon fill="#bfbfbf" stroke="black" points="459.858,-360.5 459.858,-401.5 649.858,-401.5 649.858,-360.5 459.858,-360.5"/>
<text text-anchor="start" x="467.858" y="-389.5" font-family="Helvetica,sans-Serif" font-size="10.00">/home/travis/build</text>
<text text-anchor="start" x="467.858" y="-378.5" font-family="Helvetica,sans-Serif" font-size="10.00">/AliceO2Group/AliceO2</text>
<text text-anchor="middle" x="554.858" y="-367.5" font-family="Helvetica,sans-Serif" font-size="10.00">/Common/Field/src/MagFieldParam.cxx</text>
</g>
<!-- Node2 -->
<g id="node2" class="node"><title>Node2</title>
<g id="a_node2"><a xlink:href="../../d3/d91/MagFieldParam_8h.html" target="_top" xlink:title="Definition of the MagFieldParam: container for ALICE mag. field parameters. ">
<polygon fill="none" stroke="black" points="113.358,-248.5 113.358,-267.5 230.358,-267.5 230.358,-248.5 113.358,-248.5"/>
<text text-anchor="middle" x="171.858" y="-255.5" font-family="Helvetica,sans-Serif" font-size="10.00">Field/MagFieldParam.h</text>
</a>
</g>
</g>
<!-- Node1&#45;&gt;Node2 -->
<g id="edge1" class="edge"><title>Node1&#45;&gt;Node2</title>
<path fill="none" stroke="midnightblue" d="M491.508,-360.431C456.999,-349.736 413.558,-336.216 374.858,-324 316.462,-305.568 248.741,-283.806 208.15,-270.72"/>
<polygon fill="midnightblue" stroke="midnightblue" points="209.028,-267.326 198.437,-267.588 206.88,-273.988 209.028,-267.326"/>
</g>
<!-- Node5 -->
<g id="node5" class="node"><title>Node5</title>
<g id="a_node5"><a xlink:href="../../db/d4b/MagneticField_8h.html" target="_top" xlink:title="Definition of the MagF class. ">
<polygon fill="none" stroke="black" points="383.858,-304.5 383.858,-323.5 493.858,-323.5 493.858,-304.5 383.858,-304.5"/>
<text text-anchor="middle" x="438.858" y="-311.5" font-family="Helvetica,sans-Serif" font-size="10.00">Field/MagneticField.h</text>
</a>
</g>
</g>
<!-- Node1&#45;&gt;Node5 -->
<g id="edge4" class="edge"><title>Node1&#45;&gt;Node5</title>
<path fill="none" stroke="midnightblue" d="M520.054,-360.498C501.756,-350.245 479.77,-337.925 463.294,-328.693"/>
<polygon fill="midnightblue" stroke="midnightblue" points="464.734,-325.488 454.299,-323.652 461.312,-331.594 464.734,-325.488"/>
</g>
<!-- Node30 -->
<g id="node30" class="node"><title>Node30</title>
<polygon fill="none" stroke="#bfbfbf" points="511.858,-304.5 511.858,-323.5 597.858,-323.5 597.858,-304.5 511.858,-304.5"/>
<text text-anchor="middle" x="554.858" y="-311.5" font-family="Helvetica,sans-Serif" font-size="10.00">FairParamList.h</text>
</g>
<!-- Node1&#45;&gt;Node30 -->
<g id="edge42" class="edge"><title>Node1&#45;&gt;Node30</title>
<path fill="none" stroke="midnightblue" d="M554.858,-360.498C554.858,-352.065 554.858,-342.235 554.858,-333.874"/>
<polygon fill="midnightblue" stroke="midnightblue" points="558.358,-333.652 554.858,-323.652 551.358,-333.653 558.358,-333.652"/>
</g>
<!-- Node31 -->
<g id="node31" class="node"><title>Node31</title>
<polygon fill="none" stroke="#bfbfbf" points="616.358,-304.5 616.358,-323.5 675.358,-323.5 675.358,-304.5 616.358,-304.5"/>
<text text-anchor="middle" x="645.858" y="-311.5" font-family="Helvetica,sans-Serif" font-size="10.00">FairRun.h</text>
</g>
<!-- Node1&#45;&gt;Node31 -->
<g id="edge43" class="edge"><title>Node1&#45;&gt;Node31</title>
<path fill="none" stroke="midnightblue" d="M582.161,-360.498C596.113,-350.532 612.798,-338.614 625.591,-329.476"/>
<polygon fill="midnightblue" stroke="midnightblue" points="627.641,-332.313 633.744,-323.652 623.573,-326.617 627.641,-332.313"/>
</g>
<!-- Node32 -->
<g id="node32" class="node"><title>Node32</title>
<polygon fill="none" stroke="#bfbfbf" points="693.358,-304.5 693.358,-323.5 784.358,-323.5 784.358,-304.5 693.358,-304.5"/>
<text text-anchor="middle" x="738.858" y="-311.5" font-family="Helvetica,sans-Serif" font-size="10.00">FairRuntimeDb.h</text>
</g>
<!-- Node1&#45;&gt;Node32 -->
<g id="edge44" class="edge"><title>Node1&#45;&gt;Node32</title>
<path fill="none" stroke="midnightblue" d="M610.064,-360.498C640.852,-349.622 678.221,-336.421 704.76,-327.045"/>
<polygon fill="midnightblue" stroke="midnightblue" points="706.102,-330.284 714.365,-323.652 703.77,-323.683 706.102,-330.284"/>
</g>
<!-- Node3 -->
<g id="node3" class="node"><title>Node3</title>
<polygon fill="none" stroke="#bfbfbf" points="17.3579,-192.5 17.3579,-211.5 122.358,-211.5 122.358,-192.5 17.3579,-192.5"/>
<text text-anchor="middle" x="69.8579" y="-199.5" font-family="Helvetica,sans-Serif" font-size="10.00">FairParGenericSet.h</text>
</g>
<!-- Node2&#45;&gt;Node3 -->
<g id="edge2" class="edge"><title>Node2&#45;&gt;Node3</title>
<path fill="none" stroke="midnightblue" d="M155.47,-248.324C139.187,-239.703 113.99,-226.364 95.1417,-216.386"/>
<polygon fill="midnightblue" stroke="midnightblue" points="96.6808,-213.24 86.2053,-211.655 93.4056,-219.427 96.6808,-213.24"/>
</g>
<!-- Node4 -->
<g id="node4" class="node"><title>Node4</title>
<polygon fill="none" stroke="#bfbfbf" points="91.8579,-136.5 91.8579,-155.5 147.858,-155.5 147.858,-136.5 91.8579,-136.5"/>
<text text-anchor="middle" x="119.858" y="-143.5" font-family="Helvetica,sans-Serif" font-size="10.00">TString.h</text>
</g>
<!-- Node2&#45;&gt;Node4 -->
<g id="edge3" class="edge"><title>Node2&#45;&gt;Node4</title>
<path fill="none" stroke="midnightblue" d="M167.778,-248.368C159.31,-230.456 139.676,-188.923 128.343,-164.948"/>
<polygon fill="midnightblue" stroke="midnightblue" points="131.357,-163.136 123.919,-155.591 125.029,-166.128 131.357,-163.136"/>
</g>
<!-- Node5&#45;&gt;Node2 -->
<g id="edge6" class="edge"><title>Node5&#45;&gt;Node2</title>
<path fill="none" stroke="midnightblue" d="M396.551,-304.444C349.778,-294.984 274.398,-279.738 224.008,-269.547"/>
<polygon fill="midnightblue" stroke="midnightblue" points="224.462,-266.068 213.967,-267.516 223.075,-272.929 224.462,-266.068"/>
</g>
<!-- Node6 -->
<g id="node6" class="node"><title>Node6</title>
<polygon fill="none" stroke="#bfbfbf" points="270.858,-248.5 270.858,-267.5 332.858,-267.5 332.858,-248.5 270.858,-248.5"/>
<text text-anchor="middle" x="301.858" y="-255.5" font-family="Helvetica,sans-Serif" font-size="10.00">FairField.h</text>
</g>
<!-- Node5&#45;&gt;Node6 -->
<g id="edge5" class="edge"><title>Node5&#45;&gt;Node6</title>
<path fill="none" stroke="midnightblue" d="M417.15,-304.444C394.503,-295.517 358.786,-281.439 333.106,-271.317"/>
<polygon fill="midnightblue" stroke="midnightblue" points="334.051,-267.927 323.464,-267.516 331.484,-274.44 334.051,-267.927"/>
</g>
<!-- Node7 -->
<g id="node7" class="node"><title>Node7</title>
<g id="a_node7"><a xlink:href="../../dd/dfb/MagneticWrapperChebyshev_8h.html" target="_top" xlink:title="Field/MagneticWrapperChebyshev.h">
<polygon fill="none" stroke="black" points="351.358,-248.5 351.358,-267.5 526.358,-267.5 526.358,-248.5 351.358,-248.5"/>
<text text-anchor="middle" x="438.858" y="-255.5" font-family="Helvetica,sans-Serif" font-size="10.00">Field/MagneticWrapperChebyshev.h</text>
</a>
</g>
</g>
<!-- Node5&#45;&gt;Node7 -->
<g id="edge7" class="edge"><title>Node5&#45;&gt;Node7</title>
<path fill="none" stroke="midnightblue" d="M438.858,-304.083C438.858,-297.006 438.858,-286.861 438.858,-277.986"/>
<polygon fill="midnightblue" stroke="midnightblue" points="442.358,-277.751 438.858,-267.751 435.358,-277.751 442.358,-277.751"/>
</g>
<!-- Node9 -->
<g id="node9" class="node"><title>Node9</title>
<polygon fill="none" stroke="#bfbfbf" points="207.858,-74.5 207.858,-93.5 269.858,-93.5 269.858,-74.5 207.858,-74.5"/>
<text text-anchor="middle" x="238.858" y="-81.5" font-family="Helvetica,sans-Serif" font-size="10.00">TNamed.h</text>
</g>
<!-- Node5&#45;&gt;Node9 -->
<g id="edge40" class="edge"><title>Node5&#45;&gt;Node9</title>
<path fill="none" stroke="midnightblue" d="M383.679,-312.18C316.009,-309.695 198.625,-300.545 103.858,-268 57.1407,-251.956 32.4598,-254.833 7.85792,-212 -36.5348,-134.711 120.312,-101.516 197.899,-90.0575"/>
<polygon fill="midnightblue" stroke="midnightblue" points="198.437,-93.5163 207.845,-88.6435 197.451,-86.586 198.437,-93.5163"/>
</g>
<!-- Node14 -->
<g id="node14" class="node"><title>Node14</title>
<polygon fill="none" stroke="#bfbfbf" points="538.858,-74.5 538.858,-93.5 594.858,-93.5 594.858,-74.5 538.858,-74.5"/>
<text text-anchor="middle" x="566.858" y="-81.5" font-family="Helvetica,sans-Serif" font-size="10.00">Rtypes.h</text>
</g>
<!-- Node5&#45;&gt;Node14 -->
<g id="edge39" class="edge"><title>Node5&#45;&gt;Node14</title>
<path fill="none" stroke="midnightblue" d="M472.643,-304.364C493.123,-297.554 518.391,-286.116 534.858,-268 576.09,-222.638 579.622,-197.116 574.858,-136 574.017,-125.211 572.189,-113.253 570.493,-103.629"/>
<polygon fill="midnightblue" stroke="midnightblue" points="573.9,-102.805 568.629,-93.6146 567.018,-104.086 573.9,-102.805"/>
</g>
<!-- Node15 -->
<g id="node15" class="node"><title>Node15</title>
<g id="a_node15"><a xlink:href="../../da/df4/MagFieldFast_8h.html" target="_top" xlink:title="Definition of the fast magnetic field parametrization MagFieldFast. ">
<polygon fill="none" stroke="black" points="729.858,-192.5 729.858,-211.5 837.858,-211.5 837.858,-192.5 729.858,-192.5"/>
<text text-anchor="middle" x="783.858" y="-199.5" font-family="Helvetica,sans-Serif" font-size="10.00">Field/MagFieldFast.h</text>
</a>
</g>
</g>
<!-- Node5&#45;&gt;Node15 -->
<g id="edge23" class="edge"><title>Node5&#45;&gt;Node15</title>
<path fill="none" stroke="midnightblue" d="M494.014,-305.232C497.006,-304.815 499.968,-304.402 502.858,-304 561.067,-295.908 720.346,-306.374 764.858,-268 778.056,-256.622 782.341,-236.63 783.609,-221.813"/>
<polygon fill="midnightblue" stroke="midnightblue" points="787.11,-221.874 784.088,-211.719 780.118,-221.542 787.11,-221.874"/>
</g>
<!-- Node28 -->
<g id="node28" class="node"><title>Node28</title>
<polygon fill="none" stroke="#bfbfbf" points="620.358,-248.5 620.358,-267.5 685.358,-267.5 685.358,-248.5 620.358,-248.5"/>
<text text-anchor="middle" x="652.858" y="-255.5" font-family="Helvetica,sans-Serif" font-size="10.00">TSystem.h</text>
</g>
<!-- Node5&#45;&gt;Node28 -->
<g id="edge38" class="edge"><title>Node5&#45;&gt;Node28</title>
<path fill="none" stroke="midnightblue" d="M472.767,-304.444C510.033,-295.04 569.958,-279.919 610.34,-269.729"/>
<polygon fill="midnightblue" stroke="midnightblue" points="611.321,-273.091 620.16,-267.251 609.608,-266.304 611.321,-273.091"/>
</g>
<!-- Node29 -->
<g id="node29" class="node"><title>Node29</title>
<polygon fill="none" stroke="#bfbfbf" points="703.858,-248.5 703.858,-267.5 755.858,-267.5 755.858,-248.5 703.858,-248.5"/>
<text text-anchor="middle" x="729.858" y="-255.5" font-family="Helvetica,sans-Serif" font-size="10.00">memory</text>
</g>
<!-- Node5&#45;&gt;Node29 -->
<g id="edge41" class="edge"><title>Node5&#45;&gt;Node29</title>
<path fill="none" stroke="midnightblue" d="M493.791,-304.452C543.354,-296.48 618.47,-283.759 693.463,-267.949"/>
<polygon fill="midnightblue" stroke="midnightblue" points="694.509,-271.305 703.561,-265.801 693.052,-264.458 694.509,-271.305"/>
</g>
<!-- Node8 -->
<g id="node8" class="node"><title>Node8</title>
<polygon fill="none" stroke="#bfbfbf" points="467.358,-192.5 467.358,-211.5 520.358,-211.5 520.358,-192.5 467.358,-192.5"/>
<text text-anchor="middle" x="493.858" y="-199.5" font-family="Helvetica,sans-Serif" font-size="10.00">TMath.h</text>
</g>
<!-- Node7&#45;&gt;Node8 -->
<g id="edge8" class="edge"><title>Node7&#45;&gt;Node8</title>
<path fill="none" stroke="midnightblue" d="M447.94,-248.083C456.029,-240.141 468.053,-228.335 477.768,-218.797"/>
<polygon fill="midnightblue" stroke="midnightblue" points="480.261,-221.254 484.945,-211.751 475.357,-216.26 480.261,-221.254"/>
</g>
<!-- Node7&#45;&gt;Node9 -->
<g id="edge9" class="edge"><title>Node7&#45;&gt;Node9</title>
<path fill="none" stroke="midnightblue" d="M355.471,-248.418C320.178,-242.086 279.717,-231.091 246.858,-212 211.469,-191.44 180.596,-174.362 194.858,-136 199.951,-122.299 210.561,-109.818 220.086,-100.633"/>
<polygon fill="midnightblue" stroke="midnightblue" points="222.632,-103.049 227.687,-93.738 217.928,-97.8647 222.632,-103.049"/>
</g>
<!-- Node10 -->
<g id="node10" class="node"><title>Node10</title>
<polygon fill="none" stroke="#bfbfbf" points="204.358,-136.5 204.358,-155.5 273.358,-155.5 273.358,-136.5 204.358,-136.5"/>
<text text-anchor="middle" x="238.858" y="-143.5" font-family="Helvetica,sans-Serif" font-size="10.00">TObjArray.h</text>
</g>
<!-- Node7&#45;&gt;Node10 -->
<g id="edge10" class="edge"><title>Node7&#45;&gt;Node10</title>
<path fill="none" stroke="midnightblue" d="M384.417,-248.432C340.282,-240.508 282.601,-227.615 264.858,-212 251.334,-200.099 244.755,-180.19 241.612,-165.535"/>
<polygon fill="midnightblue" stroke="midnightblue" points="245.035,-164.795 239.82,-155.572 238.146,-166.034 245.035,-164.795"/>
</g>
<!-- Node11 -->
<g id="node11" class="node"><title>Node11</title>
<g id="a_node11"><a xlink:href="../../d8/d64/Chebyshev3D_8h.html" target="_top" xlink:title="MathUtils/Chebyshev3D.h">
<polygon fill="none" stroke="black" points="273.858,-192.5 273.858,-211.5 405.858,-211.5 405.858,-192.5 273.858,-192.5"/>
<text text-anchor="middle" x="339.858" y="-199.5" font-family="Helvetica,sans-Serif" font-size="10.00">MathUtils/Chebyshev3D.h</text>
</a>
</g>
</g>
<!-- Node7&#45;&gt;Node11 -->
<g id="edge11" class="edge"><title>Node7&#45;&gt;Node11</title>
<path fill="none" stroke="midnightblue" d="M422.952,-248.324C407.22,-239.743 382.916,-226.486 364.649,-216.522"/>
<polygon fill="midnightblue" stroke="midnightblue" points="366.179,-213.37 355.725,-211.655 362.827,-219.516 366.179,-213.37"/>
</g>
<!-- Node13 -->
<g id="node13" class="node"><title>Node13</title>
<g id="a_node13"><a xlink:href="../../d4/d08/Chebyshev3DCalc_8h.html" target="_top" xlink:title="MathUtils/Chebyshev3DCalc.h">
<polygon fill="none" stroke="black" points="367.858,-136.5 367.858,-155.5 519.858,-155.5 519.858,-136.5 367.858,-136.5"/>
<text text-anchor="middle" x="443.858" y="-143.5" font-family="Helvetica,sans-Serif" font-size="10.00">MathUtils/Chebyshev3DCalc.h</text>
</a>
</g>
</g>
<!-- Node7&#45;&gt;Node13 -->
<g id="edge21" class="edge"><title>Node7&#45;&gt;Node13</title>
<path fill="none" stroke="midnightblue" d="M439.25,-248.368C440.057,-230.617 441.919,-189.666 443.013,-165.597"/>
<polygon fill="midnightblue" stroke="midnightblue" points="446.51,-165.74 443.467,-155.591 439.517,-165.422 446.51,-165.74"/>
</g>
<!-- Node7&#45;&gt;Node14 -->
<g id="edge22" class="edge"><title>Node7&#45;&gt;Node14</title>
<path fill="none" stroke="midnightblue" d="M468.139,-248.391C487.582,-241.361 512.453,-229.665 528.858,-212 557.087,-181.603 564.403,-131.049 566.26,-103.794"/>
<polygon fill="midnightblue" stroke="midnightblue" points="569.763,-103.828 566.767,-93.6659 562.772,-103.478 569.763,-103.828"/>
</g>
<!-- Node11&#45;&gt;Node4 -->
<g id="edge20" class="edge"><title>Node11&#45;&gt;Node4</title>
<path fill="none" stroke="midnightblue" d="M304.998,-192.444C264.9,-182.601 199.284,-166.496 157.893,-156.336"/>
<polygon fill="midnightblue" stroke="midnightblue" points="158.469,-152.873 147.923,-153.889 156.8,-159.672 158.469,-152.873"/>
</g>
<!-- Node11&#45;&gt;Node9 -->
<g id="edge12" class="edge"><title>Node11&#45;&gt;Node9</title>
<path fill="none" stroke="midnightblue" d="M332.267,-192.281C315.441,-172.957 274.791,-126.269 253.082,-101.336"/>
<polygon fill="midnightblue" stroke="midnightblue" points="255.469,-98.7483 246.263,-93.5048 250.19,-103.345 255.469,-98.7483"/>
</g>
<!-- Node11&#45;&gt;Node10 -->
<g id="edge13" class="edge"><title>Node11&#45;&gt;Node10</title>
<path fill="none" stroke="midnightblue" d="M323.631,-192.324C307.507,-183.703 282.558,-170.364 263.894,-160.386"/>
<polygon fill="midnightblue" stroke="midnightblue" points="265.514,-157.283 255.045,-155.655 262.213,-163.456 265.514,-157.283"/>
</g>
<!-- Node12 -->
<g id="node12" class="node"><title>Node12</title>
<polygon fill="none" stroke="#bfbfbf" points="370.358,-74.5 370.358,-93.5 413.358,-93.5 413.358,-74.5 370.358,-74.5"/>
<text text-anchor="middle" x="391.858" y="-81.5" font-family="Helvetica,sans-Serif" font-size="10.00">cstdio</text>
</g>
<!-- Node11&#45;&gt;Node12 -->
<g id="edge14" class="edge"><title>Node11&#45;&gt;Node12</title>
<path fill="none" stroke="midnightblue" d="M341.558,-192.303C344.234,-179.56 350.048,-155.242 358.858,-136 364.38,-123.937 372.444,-111.415 379.218,-101.797"/>
<polygon fill="midnightblue" stroke="midnightblue" points="382.145,-103.723 385.192,-93.5761 376.482,-99.6083 382.145,-103.723"/>
</g>
<!-- Node11&#45;&gt;Node13 -->
<g id="edge15" class="edge"><title>Node11&#45;&gt;Node13</title>
<path fill="none" stroke="midnightblue" d="M356.567,-192.324C373.17,-183.703 398.86,-170.364 418.078,-160.386"/>
<polygon fill="midnightblue" stroke="midnightblue" points="419.928,-163.369 427.19,-155.655 416.702,-157.156 419.928,-163.369"/>
</g>
<!-- Node11&#45;&gt;Node14 -->
<g id="edge19" class="edge"><title>Node11&#45;&gt;Node14</title>
<path fill="none" stroke="midnightblue" d="M406.003,-198.582C445.188,-194.122 493.858,-182.971 528.858,-156 545.774,-142.965 556.032,-120.207 561.555,-103.971"/>
<polygon fill="midnightblue" stroke="midnightblue" points="565.036,-104.559 564.646,-93.9713 558.349,-102.492 565.036,-104.559"/>
</g>
<!-- Node13&#45;&gt;Node9 -->
<g id="edge16" class="edge"><title>Node13&#45;&gt;Node9</title>
<path fill="none" stroke="midnightblue" d="M414.486,-136.403C378.561,-125.889 317.626,-108.054 277.813,-96.4016"/>
<polygon fill="midnightblue" stroke="midnightblue" points="278.755,-93.0306 268.175,-93.5806 276.789,-99.7487 278.755,-93.0306"/>
</g>
<!-- Node13&#45;&gt;Node12 -->
<g id="edge17" class="edge"><title>Node13&#45;&gt;Node12</title>
<path fill="none" stroke="midnightblue" d="M436.408,-136.403C428.53,-127.314 415.913,-112.756 406.114,-101.449"/>
<polygon fill="midnightblue" stroke="midnightblue" points="408.489,-98.8452 399.294,-93.5806 403.199,-103.43 408.489,-98.8452"/>
</g>
<!-- Node13&#45;&gt;Node14 -->
<g id="edge18" class="edge"><title>Node13&#45;&gt;Node14</title>
<path fill="none" stroke="midnightblue" d="M461.481,-136.403C482.032,-126.379 516.222,-109.701 540.065,-98.0699"/>
<polygon fill="midnightblue" stroke="midnightblue" points="541.815,-101.111 549.268,-93.5806 538.746,-94.8192 541.815,-101.111"/>
</g>
<!-- Node15&#45;&gt;Node14 -->
<g id="edge24" class="edge"><title>Node15&#45;&gt;Node14</title>
<path fill="none" stroke="midnightblue" d="M767.901,-192.47C730.515,-172.485 637.016,-122.504 591.937,-98.4066"/>
<polygon fill="midnightblue" stroke="midnightblue" points="593.307,-95.17 582.838,-93.5423 590.007,-101.343 593.307,-95.17"/>
</g>
<!-- Node16 -->
<g id="node16" class="node"><title>Node16</title>
<polygon fill="none" stroke="#bfbfbf" points="763.358,-136.5 763.358,-155.5 804.358,-155.5 804.358,-136.5 763.358,-136.5"/>
<text text-anchor="middle" x="783.858" y="-143.5" font-family="Helvetica,sans-Serif" font-size="10.00">string</text>
</g>
<!-- Node15&#45;&gt;Node16 -->
<g id="edge25" class="edge"><title>Node15&#45;&gt;Node16</title>
<path fill="none" stroke="midnightblue" d="M783.858,-192.083C783.858,-185.006 783.858,-174.861 783.858,-165.986"/>
<polygon fill="midnightblue" stroke="midnightblue" points="787.358,-165.751 783.858,-155.751 780.358,-165.751 787.358,-165.751"/>
</g>
<!-- Node17 -->
<g id="node17" class="node"><title>Node17</title>
<g id="a_node17"><a xlink:href="../../dd/d76/Cartesian3D_8h.html" target="_top" xlink:title="MathUtils/Cartesian3D.h">
<polygon fill="none" stroke="black" points="982.358,-136.5 982.358,-155.5 1107.36,-155.5 1107.36,-136.5 982.358,-136.5"/>
<text text-anchor="middle" x="1044.86" y="-143.5" font-family="Helvetica,sans-Serif" font-size="10.00">MathUtils/Cartesian3D.h</text>
</a>
</g>
</g>
<!-- Node15&#45;&gt;Node17 -->
<g id="edge26" class="edge"><title>Node15&#45;&gt;Node17</title>
<path fill="none" stroke="midnightblue" d="M825.214,-192.444C870.936,-182.984 944.622,-167.738 993.88,-157.547"/>
<polygon fill="midnightblue" stroke="midnightblue" points="994.612,-160.97 1003.7,-155.516 993.193,-154.115 994.612,-160.97"/>
</g>
<!-- Node17&#45;&gt;Node14 -->
<g id="edge32" class="edge"><title>Node17&#45;&gt;Node14</title>
<path fill="none" stroke="midnightblue" d="M982.191,-144.159C895.816,-141.75 735.875,-132.786 603.858,-100 600.795,-99.2393 597.651,-98.2747 594.552,-97.2028"/>
<polygon fill="midnightblue" stroke="midnightblue" points="595.549,-93.837 584.959,-93.5314 593.047,-100.375 595.549,-93.837"/>
</g>
<!-- Node18 -->
<g id="node18" class="node"><title>Node18</title>
<polygon fill="none" stroke="#bfbfbf" points="1274.36,-69 1274.36,-99 1425.36,-99 1425.36,-69 1274.36,-69"/>
<text text-anchor="start" x="1282.36" y="-87" font-family="Helvetica,sans-Serif" font-size="10.00">Math/GenVector/Displacement</text>
<text text-anchor="middle" x="1349.86" y="-76" font-family="Helvetica,sans-Serif" font-size="10.00">Vector3D.h</text>
</g>
<!-- Node17&#45;&gt;Node18 -->
<g id="edge27" class="edge"><title>Node17&#45;&gt;Node18</title>
<path fill="none" stroke="midnightblue" d="M1088.23,-136.467C1135.03,-127.261 1210.61,-112.392 1268.54,-100.997"/>
<polygon fill="midnightblue" stroke="midnightblue" points="1269.27,-104.421 1278.4,-99.0565 1267.92,-97.5526 1269.27,-104.421"/>
</g>
<!-- Node19 -->
<g id="node19" class="node"><title>Node19</title>
<polygon fill="none" stroke="#bfbfbf" points="1443.86,-74.5 1443.86,-93.5 1619.86,-93.5 1619.86,-74.5 1443.86,-74.5"/>
<text text-anchor="middle" x="1531.86" y="-81.5" font-family="Helvetica,sans-Serif" font-size="10.00">Math/GenVector/PositionVector3D.h</text>
</g>
<!-- Node17&#45;&gt;Node19 -->
<g id="edge28" class="edge"><title>Node17&#45;&gt;Node19</title>
<path fill="none" stroke="midnightblue" d="M1107.6,-138.458C1184.57,-130.269 1318.98,-115.432 1433.86,-100 1445.07,-98.4936 1456.99,-96.7716 1468.51,-95.0442"/>
<polygon fill="midnightblue" stroke="midnightblue" points="1469.14,-98.4886 1478.5,-93.53 1468.09,-91.5676 1469.14,-98.4886"/>
</g>
<!-- Node20 -->
<g id="node20" class="node"><title>Node20</title>
<polygon fill="none" stroke="#bfbfbf" points="1637.36,-74.5 1637.36,-93.5 1786.36,-93.5 1786.36,-74.5 1637.36,-74.5"/>
<text text-anchor="middle" x="1711.86" y="-81.5" font-family="Helvetica,sans-Serif" font-size="10.00">Math/GenVector/Rotation3D.h</text>
</g>
<!-- Node17&#45;&gt;Node20 -->
<g id="edge29" class="edge"><title>Node17&#45;&gt;Node20</title>
<path fill="none" stroke="midnightblue" d="M1107.62,-142.211C1214.67,-136.994 1439.3,-124.052 1627.86,-100 1637.89,-98.7207 1648.54,-97.0574 1658.77,-95.3057"/>
<polygon fill="midnightblue" stroke="midnightblue" points="1659.58,-98.7172 1668.82,-93.5356 1658.36,-91.8233 1659.58,-98.7172"/>
</g>
<!-- Node21 -->
<g id="node21" class="node"><title>Node21</title>
<polygon fill="none" stroke="#bfbfbf" points="612.858,-74.5 612.858,-93.5 768.858,-93.5 768.858,-74.5 612.858,-74.5"/>
<text text-anchor="middle" x="690.858" y="-81.5" font-family="Helvetica,sans-Serif" font-size="10.00">Math/GenVector/Transform3D.h</text>
</g>
<!-- Node17&#45;&gt;Node21 -->
<g id="edge30" class="edge"><title>Node17&#45;&gt;Node21</title>
<path fill="none" stroke="midnightblue" d="M993.663,-136.43C939.908,-127.419 852.928,-112.798 777.858,-100 768.87,-98.4678 759.362,-96.8378 750.061,-95.2382"/>
<polygon fill="midnightblue" stroke="midnightblue" points="750.532,-91.7679 740.083,-93.5204 749.344,-98.6664 750.532,-91.7679"/>
</g>
<!-- Node22 -->
<g id="node22" class="node"><title>Node22</title>
<polygon fill="none" stroke="#bfbfbf" points="786.858,-74.5 786.858,-93.5 946.858,-93.5 946.858,-74.5 786.858,-74.5"/>
<text text-anchor="middle" x="866.858" y="-81.5" font-family="Helvetica,sans-Serif" font-size="10.00">Math/GenVector/Translation3D.h</text>
</g>
<!-- Node17&#45;&gt;Node22 -->
<g id="edge31" class="edge"><title>Node17&#45;&gt;Node22</title>
<path fill="none" stroke="midnightblue" d="M1019.35,-136.403C988.557,-126.022 936.593,-108.506 902.01,-96.849"/>
<polygon fill="midnightblue" stroke="midnightblue" points="902.908,-93.4582 892.314,-93.5806 900.672,-100.092 902.908,-93.4582"/>
</g>
<!-- Node23 -->
<g id="node23" class="node"><title>Node23</title>
<polygon fill="none" stroke="#bfbfbf" points="964.858,-74.5 964.858,-93.5 1040.86,-93.5 1040.86,-74.5 964.858,-74.5"/>
<text text-anchor="middle" x="1002.86" y="-81.5" font-family="Helvetica,sans-Serif" font-size="10.00">TGeoMatrix.h</text>
</g>
<!-- Node17&#45;&gt;Node23 -->
<g id="edge33" class="edge"><title>Node17&#45;&gt;Node23</title>
<path fill="none" stroke="midnightblue" d="M1038.84,-136.403C1032.54,-127.403 1022.49,-113.041 1014.61,-101.782"/>
<polygon fill="midnightblue" stroke="midnightblue" points="1017.47,-99.7658 1008.86,-93.5806 1011.73,-103.78 1017.47,-99.7658"/>
</g>
<!-- Node24 -->
<g id="node24" class="node"><title>Node24</title>
<polygon fill="none" stroke="#bfbfbf" points="1058.86,-74.5 1058.86,-93.5 1112.86,-93.5 1112.86,-74.5 1058.86,-74.5"/>
<text text-anchor="middle" x="1085.86" y="-81.5" font-family="Helvetica,sans-Serif" font-size="10.00">iostream</text>
</g>
<!-- Node17&#45;&gt;Node24 -->
<g id="edge34" class="edge"><title>Node17&#45;&gt;Node24</title>
<path fill="none" stroke="midnightblue" d="M1050.73,-136.403C1056.82,-127.493 1066.5,-113.325 1074.16,-102.118"/>
<polygon fill="midnightblue" stroke="midnightblue" points="1077.24,-103.812 1079.99,-93.5806 1071.46,-99.8624 1077.24,-103.812"/>
</g>
<!-- Node25 -->
<g id="node25" class="node"><title>Node25</title>
<g id="a_node25"><a xlink:href="../../d2/dd0/Cartesian2D_8h.html" target="_top" xlink:title="MathUtils/Cartesian2D.h">
<polygon fill="none" stroke="black" points="1131.36,-74.5 1131.36,-93.5 1256.36,-93.5 1256.36,-74.5 1131.36,-74.5"/>
<text text-anchor="middle" x="1193.86" y="-81.5" font-family="Helvetica,sans-Serif" font-size="10.00">MathUtils/Cartesian2D.h</text>
</a>
</g>
</g>
<!-- Node17&#45;&gt;Node25 -->
<g id="edge35" class="edge"><title>Node17&#45;&gt;Node25</title>
<path fill="none" stroke="midnightblue" d="M1066.21,-136.403C1091.54,-126.2 1134,-109.105 1162.93,-97.4544"/>
<polygon fill="midnightblue" stroke="midnightblue" points="1164.58,-100.563 1172.55,-93.5806 1161.97,-94.0694 1164.58,-100.563"/>
</g>
<!-- Node26 -->
<g id="node26" class="node"><title>Node26</title>
<polygon fill="none" stroke="#bfbfbf" points="1027.36,-1 1027.36,-31 1178.36,-31 1178.36,-1 1027.36,-1"/>
<text text-anchor="start" x="1035.36" y="-19" font-family="Helvetica,sans-Serif" font-size="10.00">Math/GenVector/Displacement</text>
<text text-anchor="middle" x="1102.86" y="-8" font-family="Helvetica,sans-Serif" font-size="10.00">Vector2D.h</text>
</g>
<!-- Node25&#45;&gt;Node26 -->
<g id="edge36" class="edge"><title>Node25&#45;&gt;Node26</title>
<path fill="none" stroke="midnightblue" d="M1181.96,-74.3717C1169.08,-65.0286 1148.08,-49.7966 1130.95,-37.375"/>
<polygon fill="midnightblue" stroke="midnightblue" points="1132.56,-34.2194 1122.41,-31.1815 1128.45,-39.8859 1132.56,-34.2194"/>
</g>
<!-- Node27 -->
<g id="node27" class="node"><title>Node27</title>
<polygon fill="none" stroke="#bfbfbf" points="1196.86,-6.5 1196.86,-25.5 1372.86,-25.5 1372.86,-6.5 1196.86,-6.5"/>
<text text-anchor="middle" x="1284.86" y="-13.5" font-family="Helvetica,sans-Serif" font-size="10.00">Math/GenVector/PositionVector2D.h</text>
</g>
<!-- Node25&#45;&gt;Node27 -->
<g id="edge37" class="edge"><title>Node25&#45;&gt;Node27</title>
<path fill="none" stroke="midnightblue" d="M1205.75,-74.3717C1220.74,-63.5015 1246.72,-44.6602 1264.8,-31.5474"/>
<polygon fill="midnightblue" stroke="midnightblue" points="1266.92,-34.3349 1272.96,-25.6305 1262.81,-28.6684 1266.92,-34.3349"/>
</g>
</g>
</svg>
