<?xml version="1.0" encoding="UTF-8" standalone="no"?>
<!DOCTYPE svg PUBLIC "-//W3C//DTD SVG 1.1//EN"
 "http://www.w3.org/Graphics/SVG/1.1/DTD/svg11.dtd">
<!-- Generated by graphviz version 2.36.0 (20140111.2315)
 -->
<!-- Title: /home/travis/build/AliceO2Group/AliceO2/Detectors/ITSMFT/common/base/include/ITSMFTBase/Digit.h Pages: 1 -->
<svg width="324pt" height="196pt"
 viewBox="0.00 0.00 324.00 196.00" xmlns="http://www.w3.org/2000/svg" xmlns:xlink="http://www.w3.org/1999/xlink">
<g id="graph0" class="graph" transform="scale(1 1) rotate(0) translate(4 192)">
<title>/home/travis/build/AliceO2Group/AliceO2/Detectors/ITSMFT/common/base/include/ITSMFTBase/Digit.h</title>
<!-- Node1 -->
<g id="node1" class="node"><title>Node1</title>
<polygon fill="#bfbfbf" stroke="black" points="0,-124.5 0,-187.5 142,-187.5 142,-124.5 0,-124.5"/>
<text text-anchor="start" x="8" y="-175.5" font-family="Helvetica,sans-Serif" font-size="10.00">/home/travis/build</text>
<text text-anchor="start" x="8" y="-164.5" font-family="Helvetica,sans-Serif" font-size="10.00">/AliceO2Group/AliceO2</text>
<text text-anchor="start" x="8" y="-153.5" font-family="Helvetica,sans-Serif" font-size="10.00">/Detectors/ITSMFT/common</text>
<text text-anchor="start" x="8" y="-142.5" font-family="Helvetica,sans-Serif" font-size="10.00">/base/include/ITSMFTBase</text>
<text text-anchor="middle" x="71" y="-131.5" font-family="Helvetica,sans-Serif" font-size="10.00">/Digit.h</text>
</g>
<!-- Node2 -->
<g id="node2" class="node"><title>Node2</title>
<polygon fill="none" stroke="#bfbfbf" points="43,-0.5 43,-19.5 99,-19.5 99,-0.5 43,-0.5"/>
<text text-anchor="middle" x="71" y="-7.5" font-family="Helvetica,sans-Serif" font-size="10.00">Rtypes.h</text>
</g>
<!-- Node1&#45;&gt;Node2 -->
<g id="edge1" class="edge"><title>Node1&#45;&gt;Node2</title>
<path fill="none" stroke="midnightblue" d="M30.7656,-124.172C20.3841,-113.915 10.5724,-101.597 5,-88 -0.393174,-74.84 -1.64547,-68.5742 5,-56 12.4237,-41.9533 26.4206,-31.4667 39.6207,-24.167"/>
<polygon fill="midnightblue" stroke="midnightblue" points="41.223,-27.2788 48.5415,-19.6178 38.0429,-21.0428 41.223,-27.2788"/>
</g>
<!-- Node3 -->
<g id="node3" class="node"><title>Node3</title>
<g id="a_node3"><a xlink:href="../../d7/dcd/MCCompLabel_8h.html" target="_top" xlink:title="SimulationDataFormat\l/MCCompLabel.h">
<polygon fill="none" stroke="black" points="14,-57 14,-87 128,-87 128,-57 14,-57"/>
<text text-anchor="start" x="22" y="-75" font-family="Helvetica,sans-Serif" font-size="10.00">SimulationDataFormat</text>
<text text-anchor="middle" x="71" y="-64" font-family="Helvetica,sans-Serif" font-size="10.00">/MCCompLabel.h</text>
</a>
</g>
</g>
<!-- Node1&#45;&gt;Node3 -->
<g id="edge2" class="edge"><title>Node1&#45;&gt;Node3</title>
<path fill="none" stroke="midnightblue" d="M71,-124.466C71,-115.502 71,-105.822 71,-97.3017"/>
<polygon fill="midnightblue" stroke="midnightblue" points="74.5001,-97.2716 71,-87.2716 67.5001,-97.2716 74.5001,-97.2716"/>
</g>
<!-- Node4 -->
<g id="node4" class="node"><title>Node4</title>
<g id="a_node4"><a xlink:href="../../df/d5d/common_2include_2CommonDataFormat_2TimeStamp_8h.html" target="_top" xlink:title="CommonDataFormat/TimeStamp.h">
<polygon fill="none" stroke="black" points="146,-62.5 146,-81.5 316,-81.5 316,-62.5 146,-62.5"/>
<text text-anchor="middle" x="231" y="-69.5" font-family="Helvetica,sans-Serif" font-size="10.00">CommonDataFormat/TimeStamp.h</text>
</a>
</g>
</g>
<!-- Node1&#45;&gt;Node4 -->
<g id="edge4" class="edge"><title>Node1&#45;&gt;Node4</title>
<path fill="none" stroke="midnightblue" d="M130.578,-124.466C156.233,-111.318 184.891,-96.631 205.005,-86.3226"/>
<polygon fill="midnightblue" stroke="midnightblue" points="206.839,-89.3155 214.142,-81.6398 203.646,-83.086 206.839,-89.3155"/>
</g>
<!-- Node3&#45;&gt;Node2 -->
<g id="edge3" class="edge"><title>Node3&#45;&gt;Node2</title>
<path fill="none" stroke="midnightblue" d="M71,-56.7808C71,-48.7812 71,-38.6887 71,-30.0168"/>
<polygon fill="midnightblue" stroke="midnightblue" points="74.5001,-29.7305 71,-19.7305 67.5001,-29.7306 74.5001,-29.7305"/>
</g>
<!-- Node4&#45;&gt;Node2 -->
<g id="edge5" class="edge"><title>Node4&#45;&gt;Node2</title>
<path fill="none" stroke="midnightblue" d="M208.076,-62.4035C180.63,-52.1113 134.484,-34.8064 103.401,-23.1504"/>
<polygon fill="midnightblue" stroke="midnightblue" points="104.474,-19.8147 93.8816,-19.5806 102.016,-26.369 104.474,-19.8147"/>
</g>
</g>
</svg>
