<?xml version="1.0" encoding="UTF-8" standalone="no"?>
<!DOCTYPE svg PUBLIC "-//W3C//DTD SVG 1.1//EN"
 "http://www.w3.org/Graphics/SVG/1.1/DTD/svg11.dtd">
<!-- Generated by graphviz version 2.36.0 (20140111.2315)
 -->
<!-- Title: /home/travis/build/AliceO2Group/AliceO2/Utilities/DataFlow/src/FakeTimeframeBuilder.cxx Pages: 1 -->
<svg width="692pt" height="286pt"
 viewBox="0.00 0.00 692.00 286.00" xmlns="http://www.w3.org/2000/svg" xmlns:xlink="http://www.w3.org/1999/xlink">
<g id="graph0" class="graph" transform="scale(1 1) rotate(0) translate(4 282)">
<title>/home/travis/build/AliceO2Group/AliceO2/Utilities/DataFlow/src/FakeTimeframeBuilder.cxx</title>
<!-- Node1 -->
<g id="node1" class="node"><title>Node1</title>
<polygon fill="#bfbfbf" stroke="black" points="470.5,-225 470.5,-277 607.5,-277 607.5,-225 470.5,-225"/>
<text text-anchor="start" x="478.5" y="-265" font-family="Helvetica,sans-Serif" font-size="10.00">/home/travis/build</text>
<text text-anchor="start" x="478.5" y="-254" font-family="Helvetica,sans-Serif" font-size="10.00">/AliceO2Group/AliceO2</text>
<text text-anchor="start" x="478.5" y="-243" font-family="Helvetica,sans-Serif" font-size="10.00">/Utilities/DataFlow/src</text>
<text text-anchor="middle" x="539" y="-232" font-family="Helvetica,sans-Serif" font-size="10.00">/FakeTimeframeBuilder.cxx</text>
</g>
<!-- Node2 -->
<g id="node2" class="node"><title>Node2</title>
<g id="a_node2"><a xlink:href="../../dd/d1a/FakeTimeframeBuilder_8h.html" target="_top" xlink:title="DataFlow/FakeTimeframeBuilder.h">
<polygon fill="none" stroke="black" points="343,-168.5 343,-187.5 511,-187.5 511,-168.5 343,-168.5"/>
<text text-anchor="middle" x="427" y="-175.5" font-family="Helvetica,sans-Serif" font-size="10.00">DataFlow/FakeTimeframeBuilder.h</text>
</a>
</g>
</g>
<!-- Node1&#45;&gt;Node2 -->
<g id="edge1" class="edge"><title>Node1&#45;&gt;Node2</title>
<path fill="none" stroke="midnightblue" d="M499.513,-224.968C482.671,-214.291 463.64,-202.227 449.302,-193.138"/>
<polygon fill="midnightblue" stroke="midnightblue" points="450.947,-190.037 440.628,-187.639 447.2,-195.949 450.947,-190.037"/>
</g>
<!-- Node3 -->
<g id="node3" class="node"><title>Node3</title>
<g id="a_node3"><a xlink:href="../../dc/dcd/DataHeader_8h.html" target="_top" xlink:title="Headers/DataHeader.h">
<polygon fill="none" stroke="black" points="266.5,-56.5 266.5,-75.5 383.5,-75.5 383.5,-56.5 266.5,-56.5"/>
<text text-anchor="middle" x="325" y="-63.5" font-family="Helvetica,sans-Serif" font-size="10.00">Headers/DataHeader.h</text>
</a>
</g>
</g>
<!-- Node1&#45;&gt;Node3 -->
<g id="edge19" class="edge"><title>Node1&#45;&gt;Node3</title>
<path fill="none" stroke="midnightblue" d="M470.431,-248.312C424.398,-243.247 366.44,-228.473 334,-188 310.588,-158.791 315.343,-111.83 320.441,-85.8357"/>
<polygon fill="midnightblue" stroke="midnightblue" points="323.918,-86.3157 322.636,-75.7987 317.08,-84.8197 323.918,-86.3157"/>
</g>
<!-- Node7 -->
<g id="node7" class="node"><title>Node7</title>
<polygon fill="none" stroke="#bfbfbf" points="528,-0.5 528,-19.5 574,-19.5 574,-0.5 528,-0.5"/>
<text text-anchor="middle" x="551" y="-7.5" font-family="Helvetica,sans-Serif" font-size="10.00">cstring</text>
</g>
<!-- Node1&#45;&gt;Node7 -->
<g id="edge23" class="edge"><title>Node1&#45;&gt;Node7</title>
<path fill="none" stroke="midnightblue" d="M554.443,-224.89C567.697,-201.742 585.769,-165.933 593,-132 601.146,-93.7707 578.303,-50.992 563.187,-27.936"/>
<polygon fill="midnightblue" stroke="midnightblue" points="566.015,-25.8709 557.481,-19.5929 560.237,-29.8228 566.015,-25.8709"/>
</g>
<!-- Node9 -->
<g id="node9" class="node"><title>Node9</title>
<polygon fill="none" stroke="#bfbfbf" points="458,-112.5 458,-131.5 502,-131.5 502,-112.5 458,-112.5"/>
<text text-anchor="middle" x="480" y="-119.5" font-family="Helvetica,sans-Serif" font-size="10.00">vector</text>
</g>
<!-- Node1&#45;&gt;Node9 -->
<g id="edge21" class="edge"><title>Node1&#45;&gt;Node9</title>
<path fill="none" stroke="midnightblue" d="M536.024,-224.88C533.291,-208.067 528.211,-185.837 519,-168 513.45,-157.253 504.827,-146.929 497.099,-138.888"/>
<polygon fill="midnightblue" stroke="midnightblue" points="499.384,-136.225 489.816,-131.675 494.459,-141.199 499.384,-136.225"/>
</g>
<!-- Node10 -->
<g id="node10" class="node"><title>Node10</title>
<polygon fill="none" stroke="#bfbfbf" points="525.5,-112.5 525.5,-131.5 584.5,-131.5 584.5,-112.5 525.5,-112.5"/>
<text text-anchor="middle" x="555" y="-119.5" font-family="Helvetica,sans-Serif" font-size="10.00">functional</text>
</g>
<!-- Node1&#45;&gt;Node10 -->
<g id="edge22" class="edge"><title>Node1&#45;&gt;Node10</title>
<path fill="none" stroke="midnightblue" d="M545.827,-224.856C548.567,-213.66 551.442,-200.26 553,-188 554.96,-172.581 555.39,-154.947 555.369,-141.941"/>
<polygon fill="midnightblue" stroke="midnightblue" points="558.868,-141.835 555.262,-131.873 551.869,-141.91 558.868,-141.835"/>
</g>
<!-- Node11 -->
<g id="node11" class="node"><title>Node11</title>
<g id="a_node11"><a xlink:href="../../de/dfa/TimeFrame_8h.html" target="_top" xlink:title="TimeFrame/TimeFrame.h">
<polygon fill="none" stroke="black" points="145.5,-168.5 145.5,-187.5 272.5,-187.5 272.5,-168.5 145.5,-168.5"/>
<text text-anchor="middle" x="209" y="-175.5" font-family="Helvetica,sans-Serif" font-size="10.00">TimeFrame/TimeFrame.h</text>
</a>
</g>
</g>
<!-- Node1&#45;&gt;Node11 -->
<g id="edge11" class="edge"><title>Node1&#45;&gt;Node11</title>
<path fill="none" stroke="midnightblue" d="M470.223,-235.202C407.095,-221.62 315.082,-201.824 258.788,-189.712"/>
<polygon fill="midnightblue" stroke="midnightblue" points="259.22,-186.225 248.708,-187.543 257.748,-193.068 259.22,-186.225"/>
</g>
<!-- Node17 -->
<g id="node17" class="node"><title>Node17</title>
<polygon fill="none" stroke="#bfbfbf" points="643.5,-168.5 643.5,-187.5 684.5,-187.5 684.5,-168.5 643.5,-168.5"/>
<text text-anchor="middle" x="664" y="-175.5" font-family="Helvetica,sans-Serif" font-size="10.00">string</text>
</g>
<!-- Node1&#45;&gt;Node17 -->
<g id="edge20" class="edge"><title>Node1&#45;&gt;Node17</title>
<path fill="none" stroke="midnightblue" d="M583.07,-224.968C602.225,-214.088 623.917,-201.767 640.018,-192.622"/>
<polygon fill="midnightblue" stroke="midnightblue" points="641.824,-195.621 648.791,-187.639 638.367,-189.534 641.824,-195.621"/>
</g>
<!-- Node2&#45;&gt;Node3 -->
<g id="edge2" class="edge"><title>Node2&#45;&gt;Node3</title>
<path fill="none" stroke="midnightblue" d="M418.996,-168.368C401.94,-149.974 361.786,-106.671 339.884,-83.0519"/>
<polygon fill="midnightblue" stroke="midnightblue" points="342.332,-80.5443 332.967,-75.5914 337.2,-85.3039 342.332,-80.5443"/>
</g>
<!-- Node5 -->
<g id="node5" class="node"><title>Node5</title>
<polygon fill="none" stroke="#bfbfbf" points="391,-0.5 391,-19.5 443,-19.5 443,-0.5 391,-0.5"/>
<text text-anchor="middle" x="417" y="-7.5" font-family="Helvetica,sans-Serif" font-size="10.00">memory</text>
</g>
<!-- Node2&#45;&gt;Node5 -->
<g id="edge9" class="edge"><title>Node2&#45;&gt;Node5</title>
<path fill="none" stroke="midnightblue" d="M426.462,-168.075C424.888,-141.945 420.266,-65.2106 418.119,-29.577"/>
<polygon fill="midnightblue" stroke="midnightblue" points="421.611,-29.3395 417.516,-19.5681 414.624,-29.7605 421.611,-29.3395"/>
</g>
<!-- Node2&#45;&gt;Node9 -->
<g id="edge8" class="edge"><title>Node2&#45;&gt;Node9</title>
<path fill="none" stroke="midnightblue" d="M435.752,-168.083C443.47,-160.22 454.905,-148.569 464.217,-139.081"/>
<polygon fill="midnightblue" stroke="midnightblue" points="466.904,-141.34 471.411,-131.751 461.908,-136.436 466.904,-141.34"/>
</g>
<!-- Node2&#45;&gt;Node10 -->
<g id="edge10" class="edge"><title>Node2&#45;&gt;Node10</title>
<path fill="none" stroke="midnightblue" d="M447.282,-168.444C468.347,-159.557 501.517,-145.563 525.486,-135.451"/>
<polygon fill="midnightblue" stroke="midnightblue" points="526.96,-138.628 534.813,-131.516 524.239,-132.179 526.96,-138.628"/>
</g>
<!-- Node4 -->
<g id="node4" class="node"><title>Node4</title>
<polygon fill="none" stroke="#bfbfbf" points="240,-0.5 240,-19.5 286,-19.5 286,-0.5 240,-0.5"/>
<text text-anchor="middle" x="263" y="-7.5" font-family="Helvetica,sans-Serif" font-size="10.00">cstdint</text>
</g>
<!-- Node3&#45;&gt;Node4 -->
<g id="edge3" class="edge"><title>Node3&#45;&gt;Node4</title>
<path fill="none" stroke="midnightblue" d="M315.039,-56.324C305.873,-48.3414 292.063,-36.3128 280.972,-26.6529"/>
<polygon fill="midnightblue" stroke="midnightblue" points="282.982,-23.7624 273.143,-19.8339 278.385,-29.041 282.982,-23.7624"/>
</g>
<!-- Node3&#45;&gt;Node5 -->
<g id="edge4" class="edge"><title>Node3&#45;&gt;Node5</title>
<path fill="none" stroke="midnightblue" d="M339.781,-56.324C354.267,-47.8215 376.573,-34.7288 393.493,-24.7975"/>
<polygon fill="midnightblue" stroke="midnightblue" points="395.403,-27.735 402.255,-19.6545 391.859,-21.6981 395.403,-27.735"/>
</g>
<!-- Node6 -->
<g id="node6" class="node"><title>Node6</title>
<polygon fill="none" stroke="#bfbfbf" points="93.5,-0.5 93.5,-19.5 142.5,-19.5 142.5,-0.5 93.5,-0.5"/>
<text text-anchor="middle" x="118" y="-7.5" font-family="Helvetica,sans-Serif" font-size="10.00">cassert</text>
</g>
<!-- Node3&#45;&gt;Node6 -->
<g id="edge5" class="edge"><title>Node3&#45;&gt;Node6</title>
<path fill="none" stroke="midnightblue" d="M292.2,-56.4435C254.003,-46.4791 191.197,-30.095 152.349,-19.9607"/>
<polygon fill="midnightblue" stroke="midnightblue" points="153.103,-16.5402 142.543,-17.4026 151.336,-23.3136 153.103,-16.5402"/>
</g>
<!-- Node3&#45;&gt;Node7 -->
<g id="edge6" class="edge"><title>Node3&#45;&gt;Node7</title>
<path fill="none" stroke="midnightblue" d="M360.81,-56.4435C403.953,-46.1351 475.85,-28.9561 517.795,-18.934"/>
<polygon fill="midnightblue" stroke="midnightblue" points="518.865,-22.277 527.777,-16.5488 517.238,-15.4686 518.865,-22.277"/>
</g>
<!-- Node8 -->
<g id="node8" class="node"><title>Node8</title>
<polygon fill="none" stroke="#bfbfbf" points="304,-0.5 304,-19.5 360,-19.5 360,-0.5 304,-0.5"/>
<text text-anchor="middle" x="332" y="-7.5" font-family="Helvetica,sans-Serif" font-size="10.00">algorithm</text>
</g>
<!-- Node3&#45;&gt;Node8 -->
<g id="edge7" class="edge"><title>Node3&#45;&gt;Node8</title>
<path fill="none" stroke="midnightblue" d="M326.156,-56.083C327.084,-48.9272 328.418,-38.6353 329.577,-29.6911"/>
<polygon fill="midnightblue" stroke="midnightblue" points="333.051,-30.1181 330.866,-19.7511 326.109,-29.2181 333.051,-30.1181"/>
</g>
<!-- Node12 -->
<g id="node12" class="node"><title>Node12</title>
<polygon fill="none" stroke="#bfbfbf" points="133,-112.5 133,-131.5 213,-131.5 213,-112.5 133,-112.5"/>
<text text-anchor="middle" x="173" y="-119.5" font-family="Helvetica,sans-Serif" font-size="10.00">FairMQParts.h</text>
</g>
<!-- Node11&#45;&gt;Node12 -->
<g id="edge12" class="edge"><title>Node11&#45;&gt;Node12</title>
<path fill="none" stroke="midnightblue" d="M203.055,-168.083C198.023,-160.534 190.663,-149.495 184.487,-140.23"/>
<polygon fill="midnightblue" stroke="midnightblue" points="187.293,-138.13 178.834,-131.751 181.469,-142.013 187.293,-138.13"/>
</g>
<!-- Node13 -->
<g id="node13" class="node"><title>Node13</title>
<polygon fill="none" stroke="#bfbfbf" points="231.5,-112.5 231.5,-131.5 290.5,-131.5 290.5,-112.5 231.5,-112.5"/>
<text text-anchor="middle" x="261" y="-119.5" font-family="Helvetica,sans-Serif" font-size="10.00">TObject.h</text>
</g>
<!-- Node11&#45;&gt;Node13 -->
<g id="edge13" class="edge"><title>Node11&#45;&gt;Node13</title>
<path fill="none" stroke="midnightblue" d="M217.587,-168.083C225.159,-160.22 236.378,-148.569 245.514,-139.081"/>
<polygon fill="midnightblue" stroke="midnightblue" points="248.158,-141.382 252.573,-131.751 243.115,-136.527 248.158,-141.382"/>
</g>
<!-- Node14 -->
<g id="node14" class="node"><title>Node14</title>
<g id="a_node14"><a xlink:href="../../d6/d90/Headers_2include_2Headers_2TimeStamp_8h.html" target="_top" xlink:title="Headers/TimeStamp.h">
<polygon fill="none" stroke="black" points="-0.5,-112.5 -0.5,-131.5 114.5,-131.5 114.5,-112.5 -0.5,-112.5"/>
<text text-anchor="middle" x="57" y="-119.5" font-family="Helvetica,sans-Serif" font-size="10.00">Headers/TimeStamp.h</text>
</a>
</g>
</g>
<!-- Node11&#45;&gt;Node14 -->
<g id="edge14" class="edge"><title>Node11&#45;&gt;Node14</title>
<path fill="none" stroke="midnightblue" d="M184.915,-168.444C159.455,-159.399 119.106,-145.064 90.5409,-134.916"/>
<polygon fill="midnightblue" stroke="midnightblue" points="91.5669,-131.566 80.9722,-131.516 89.2235,-138.162 91.5669,-131.566"/>
</g>
<!-- Node14&#45;&gt;Node3 -->
<g id="edge15" class="edge"><title>Node14&#45;&gt;Node3</title>
<path fill="none" stroke="midnightblue" d="M99.4654,-112.444C146.413,-102.984 222.076,-87.7384 272.654,-77.5472"/>
<polygon fill="midnightblue" stroke="midnightblue" points="273.622,-80.9228 282.733,-75.5164 272.239,-74.0607 273.622,-80.9228"/>
</g>
<!-- Node14&#45;&gt;Node6 -->
<g id="edge17" class="edge"><title>Node14&#45;&gt;Node6</title>
<path fill="none" stroke="midnightblue" d="M53.354,-112.409C48.4242,-99.3759 41.299,-74.2017 51,-56 58.5502,-41.8339 72.7606,-31.3348 86.1581,-24.0576"/>
<polygon fill="midnightblue" stroke="midnightblue" points="87.8339,-27.1329 95.2116,-19.5289 84.7023,-20.8724 87.8339,-27.1329"/>
</g>
<!-- Node15 -->
<g id="node15" class="node"><title>Node15</title>
<polygon fill="none" stroke="#bfbfbf" points="60,-56.5 60,-75.5 106,-75.5 106,-56.5 60,-56.5"/>
<text text-anchor="middle" x="83" y="-63.5" font-family="Helvetica,sans-Serif" font-size="10.00">chrono</text>
</g>
<!-- Node14&#45;&gt;Node15 -->
<g id="edge16" class="edge"><title>Node14&#45;&gt;Node15</title>
<path fill="none" stroke="midnightblue" d="M61.2934,-112.083C64.8523,-104.691 70.0225,-93.9533 74.4243,-84.8111"/>
<polygon fill="midnightblue" stroke="midnightblue" points="77.6018,-86.2795 78.7865,-75.7511 71.2948,-83.2427 77.6018,-86.2795"/>
</g>
<!-- Node16 -->
<g id="node16" class="node"><title>Node16</title>
<polygon fill="none" stroke="#bfbfbf" points="124,-56.5 124,-75.5 186,-75.5 186,-56.5 124,-56.5"/>
<text text-anchor="middle" x="155" y="-63.5" font-family="Helvetica,sans-Serif" font-size="10.00">type_traits</text>
</g>
<!-- Node14&#45;&gt;Node16 -->
<g id="edge18" class="edge"><title>Node14&#45;&gt;Node16</title>
<path fill="none" stroke="midnightblue" d="M72.7454,-112.324C88.3187,-103.743 112.377,-90.486 130.459,-80.5224"/>
<polygon fill="midnightblue" stroke="midnightblue" points="132.224,-83.546 139.294,-75.6545 128.846,-77.4152 132.224,-83.546"/>
</g>
</g>
</svg>
