<?xml version="1.0" encoding="UTF-8" standalone="no"?>
<!DOCTYPE svg PUBLIC "-//W3C//DTD SVG 1.1//EN"
 "http://www.w3.org/Graphics/SVG/1.1/DTD/svg11.dtd">
<!-- Generated by graphviz version 2.36.0 (20140111.2315)
 -->
<!-- Title: o2::mid::Constants Pages: 1 -->
<svg width="381pt" height="414pt"
 viewBox="0.00 0.00 381.00 414.00" xmlns="http://www.w3.org/2000/svg" xmlns:xlink="http://www.w3.org/1999/xlink">
<g id="graph0" class="graph" transform="scale(1 1) rotate(0) translate(4 410)">
<title>o2::mid::Constants</title>
<!-- Node1 -->
<g id="node1" class="node"><title>Node1</title>
<polygon fill="#bfbfbf" stroke="black" points="88.5,-0.5 88.5,-211.5 213.5,-211.5 213.5,-0.5 88.5,-0.5"/>
<text text-anchor="middle" x="151" y="-199.5" font-family="Helvetica,sans-Serif" font-size="10.00">o2::mid::Constants</text>
<polyline fill="none" stroke="black" points="88.5,-192.5 213.5,-192.5 "/>
<text text-anchor="middle" x="151" y="-180.5" font-family="Helvetica,sans-Serif" font-size="10.00"> </text>
<polyline fill="none" stroke="black" points="88.5,-173.5 213.5,-173.5 "/>
<text text-anchor="start" x="96.5" y="-161.5" font-family="Helvetica,sans-Serif" font-size="10.00">+ Constants()</text>
<text text-anchor="start" x="96.5" y="-150.5" font-family="Helvetica,sans-Serif" font-size="10.00">+ ~Constants()</text>
<text text-anchor="start" x="96.5" y="-139.5" font-family="Helvetica,sans-Serif" font-size="10.00">+ Constants()</text>
<text text-anchor="start" x="96.5" y="-128.5" font-family="Helvetica,sans-Serif" font-size="10.00">+ operator=()</text>
<text text-anchor="start" x="96.5" y="-117.5" font-family="Helvetica,sans-Serif" font-size="10.00">+ Constants()</text>
<text text-anchor="start" x="96.5" y="-106.5" font-family="Helvetica,sans-Serif" font-size="10.00">+ operator=()</text>
<text text-anchor="start" x="96.5" y="-95.5" font-family="Helvetica,sans-Serif" font-size="10.00">+ isShortRPC()</text>
<text text-anchor="start" x="96.5" y="-84.5" font-family="Helvetica,sans-Serif" font-size="10.00">+ getLocalBoardHeight()</text>
<text text-anchor="start" x="96.5" y="-73.5" font-family="Helvetica,sans-Serif" font-size="10.00">+ getLocalBoardWidth()</text>
<text text-anchor="start" x="96.5" y="-62.5" font-family="Helvetica,sans-Serif" font-size="10.00">+ getRPCCenterPosX()</text>
<text text-anchor="start" x="96.5" y="-51.5" font-family="Helvetica,sans-Serif" font-size="10.00">+ getRPCHalfWidth()</text>
<text text-anchor="start" x="96.5" y="-40.5" font-family="Helvetica,sans-Serif" font-size="10.00">+ getRPCHalfHeight()</text>
<text text-anchor="start" x="96.5" y="-29.5" font-family="Helvetica,sans-Serif" font-size="10.00">+ getStripUnitPitchSize()</text>
<text text-anchor="start" x="96.5" y="-18.5" font-family="Helvetica,sans-Serif" font-size="10.00">+ getChamber()</text>
<text text-anchor="start" x="96.5" y="-7.5" font-family="Helvetica,sans-Serif" font-size="10.00">+ getDEId()</text>
</g>
<!-- Node2 -->
<g id="node2" class="node"><title>Node2</title>
<g id="a_node2"><a xlink:href="../../df/de6/classdouble.html" target="_top" xlink:title="{double\n||}">
<polygon fill="none" stroke="black" points="-0.5,-348.5 -0.5,-405.5 44.5,-405.5 44.5,-348.5 -0.5,-348.5"/>
<text text-anchor="middle" x="22" y="-393.5" font-family="Helvetica,sans-Serif" font-size="10.00">double</text>
<polyline fill="none" stroke="black" points="-0.5,-386.5 44.5,-386.5 "/>
<text text-anchor="middle" x="22" y="-374.5" font-family="Helvetica,sans-Serif" font-size="10.00"> </text>
<polyline fill="none" stroke="black" points="-0.5,-367.5 44.5,-367.5 "/>
<text text-anchor="middle" x="22" y="-355.5" font-family="Helvetica,sans-Serif" font-size="10.00"> </text>
</a>
</g>
</g>
<!-- Node2&#45;&gt;Node1 -->
<g id="edge1" class="edge"><title>Node2&#45;&gt;Node1</title>
<path fill="none" stroke="#404040" d="M20.8375,-348.306C20.6201,-317.912 23.436,-268.344 41,-230 50.6007,-209.04 65.035,-189.104 80.3154,-171.618"/>
<polygon fill="none" stroke="#404040" points="80.3206,-171.613 81.3723,-164.479 88.3621,-162.706 87.3104,-169.84 80.3206,-171.613"/>
<text text-anchor="middle" x="94" y="-321.5" font-family="Helvetica,sans-Serif" font-size="10.00"> +mRPCShortHalfWidth</text>
<text text-anchor="middle" x="94" y="-310.5" font-family="Helvetica,sans-Serif" font-size="10.00">+mRPCCenterPos</text>
<text text-anchor="middle" x="94" y="-299.5" font-family="Helvetica,sans-Serif" font-size="10.00">+mRPCHalfWidth</text>
<text text-anchor="middle" x="94" y="-288.5" font-family="Helvetica,sans-Serif" font-size="10.00">+mBeamAngle</text>
<text text-anchor="middle" x="94" y="-277.5" font-family="Helvetica,sans-Serif" font-size="10.00">+mRPCShortCenterPos</text>
<text text-anchor="middle" x="94" y="-266.5" font-family="Helvetica,sans-Serif" font-size="10.00">+mStripUnitPitchSize</text>
<text text-anchor="middle" x="94" y="-255.5" font-family="Helvetica,sans-Serif" font-size="10.00">+mLocalBoardWidth</text>
<text text-anchor="middle" x="94" y="-244.5" font-family="Helvetica,sans-Serif" font-size="10.00">+mRPCZShift</text>
<text text-anchor="middle" x="94" y="-233.5" font-family="Helvetica,sans-Serif" font-size="10.00">+mLocalBoardHeight</text>
</g>
<!-- Node3 -->
<g id="node3" class="node"><title>Node3</title>
<polygon fill="none" stroke="#bfbfbf" points="89.5,-348.5 89.5,-405.5 212.5,-405.5 212.5,-348.5 89.5,-348.5"/>
<text text-anchor="middle" x="151" y="-393.5" font-family="Helvetica,sans-Serif" font-size="10.00">array&lt; const double, 4 &gt;</text>
<polyline fill="none" stroke="#bfbfbf" points="89.5,-386.5 212.5,-386.5 "/>
<text text-anchor="middle" x="151" y="-374.5" font-family="Helvetica,sans-Serif" font-size="10.00"> </text>
<polyline fill="none" stroke="#bfbfbf" points="89.5,-367.5 212.5,-367.5 "/>
<text text-anchor="middle" x="151" y="-355.5" font-family="Helvetica,sans-Serif" font-size="10.00"> </text>
</g>
<!-- Node3&#45;&gt;Node1 -->
<g id="edge2" class="edge"><title>Node3&#45;&gt;Node1</title>
<path fill="none" stroke="#404040" d="M151,-348.476C151,-318.914 151,-269.949 151,-223.81"/>
<polygon fill="none" stroke="#404040" points="151,-223.524 147,-217.524 151,-211.524 155,-217.524 151,-223.524"/>
<text text-anchor="middle" x="198.5" y="-283" font-family="Helvetica,sans-Serif" font-size="10.00"> +mDefaultChamberZ</text>
<text text-anchor="middle" x="198.5" y="-272" font-family="Helvetica,sans-Serif" font-size="10.00">+mScaleFactors</text>
</g>
<!-- Node4 -->
<g id="node4" class="node"><title>Node4</title>
<polygon fill="none" stroke="#bfbfbf" points="254.5,-348.5 254.5,-405.5 283.5,-405.5 283.5,-348.5 254.5,-348.5"/>
<text text-anchor="middle" x="269" y="-393.5" font-family="Helvetica,sans-Serif" font-size="10.00">int</text>
<polyline fill="none" stroke="#bfbfbf" points="254.5,-386.5 283.5,-386.5 "/>
<text text-anchor="middle" x="269" y="-374.5" font-family="Helvetica,sans-Serif" font-size="10.00"> </text>
<polyline fill="none" stroke="#bfbfbf" points="254.5,-367.5 283.5,-367.5 "/>
<text text-anchor="middle" x="269" y="-355.5" font-family="Helvetica,sans-Serif" font-size="10.00"> </text>
</g>
<!-- Node4&#45;&gt;Node1 -->
<g id="edge3" class="edge"><title>Node4&#45;&gt;Node1</title>
<path fill="none" stroke="#404040" d="M268.971,-348.499C268.019,-318.274 263.71,-268.854 247,-230 240.218,-214.229 230.91,-198.729 220.743,-184.331"/>
<polygon fill="none" stroke="#404040" points="220.673,-184.235 213.902,-181.755 213.588,-174.55 220.359,-177.031 220.673,-184.235"/>
<text text-anchor="middle" x="320" y="-294" font-family="Helvetica,sans-Serif" font-size="10.00"> +mNChambers</text>
<text text-anchor="middle" x="320" y="-283" font-family="Helvetica,sans-Serif" font-size="10.00">+mNDetectionElements</text>
<text text-anchor="middle" x="320" y="-272" font-family="Helvetica,sans-Serif" font-size="10.00">+mNStripsBP</text>
<text text-anchor="middle" x="320" y="-261" font-family="Helvetica,sans-Serif" font-size="10.00">+mNLocalBoards</text>
</g>
</g>
</svg>
