<?xml version="1.0" encoding="UTF-8" standalone="no"?>
<!DOCTYPE svg PUBLIC "-//W3C//DTD SVG 1.1//EN"
 "http://www.w3.org/Graphics/SVG/1.1/DTD/svg11.dtd">
<!-- Generated by graphviz version 2.36.0 (20140111.2315)
 -->
<!-- Title: /home/travis/build/AliceO2Group/AliceO2/Detectors/ITSMFT/common/simulation/include/ITSMFTSimulation/Hit.h Pages: 1 -->
<svg width="1413pt" height="334pt"
 viewBox="0.00 0.00 1413.00 334.00" xmlns="http://www.w3.org/2000/svg" xmlns:xlink="http://www.w3.org/1999/xlink">
<g id="graph0" class="graph" transform="scale(1 1) rotate(0) translate(4 330)">
<title>/home/travis/build/AliceO2Group/AliceO2/Detectors/ITSMFT/common/simulation/include/ITSMFTSimulation/Hit.h</title>
<!-- Node1 -->
<g id="node1" class="node"><title>Node1</title>
<polygon fill="#bfbfbf" stroke="black" points="1160,-273 1160,-325 1366,-325 1366,-273 1160,-273"/>
<text text-anchor="start" x="1168" y="-313" font-family="Helvetica,sans-Serif" font-size="10.00">/home/travis/build</text>
<text text-anchor="start" x="1168" y="-302" font-family="Helvetica,sans-Serif" font-size="10.00">/AliceO2Group/AliceO2</text>
<text text-anchor="start" x="1168" y="-291" font-family="Helvetica,sans-Serif" font-size="10.00">/Detectors/ITSMFT/common</text>
<text text-anchor="middle" x="1263" y="-280" font-family="Helvetica,sans-Serif" font-size="10.00">/simulation/include/ITSMFTSimulation/Hit.h</text>
</g>
<!-- Node2 -->
<g id="node2" class="node"><title>Node2</title>
<g id="a_node2"><a xlink:href="../../d4/d25/BaseHits_8h.html" target="_top" xlink:title="SimulationDataFormat\l/BaseHits.h">
<polygon fill="none" stroke="black" points="941,-205 941,-235 1055,-235 1055,-205 941,-205"/>
<text text-anchor="start" x="949" y="-223" font-family="Helvetica,sans-Serif" font-size="10.00">SimulationDataFormat</text>
<text text-anchor="middle" x="998" y="-212" font-family="Helvetica,sans-Serif" font-size="10.00">/BaseHits.h</text>
</a>
</g>
</g>
<!-- Node1&#45;&gt;Node2 -->
<g id="edge1" class="edge"><title>Node1&#45;&gt;Node2</title>
<path fill="none" stroke="midnightblue" d="M1176.6,-272.894C1137.11,-261.421 1091.39,-248.135 1056.09,-237.879"/>
<polygon fill="midnightblue" stroke="midnightblue" points="1057,-234.499 1046.42,-235.07 1055.05,-241.221 1057,-234.499"/>
</g>
<!-- Node9 -->
<g id="node9" class="node"><title>Node9</title>
<polygon fill="none" stroke="#bfbfbf" points="1295,-74.5 1295,-93.5 1351,-93.5 1351,-74.5 1295,-74.5"/>
<text text-anchor="middle" x="1323" y="-81.5" font-family="Helvetica,sans-Serif" font-size="10.00">Rtypes.h</text>
</g>
<!-- Node1&#45;&gt;Node9 -->
<g id="edge16" class="edge"><title>Node1&#45;&gt;Node9</title>
<path fill="none" stroke="midnightblue" d="M1261.74,-272.771C1261.02,-239.951 1262.95,-181.442 1282,-136 1287.5,-122.872 1297.44,-110.378 1306.15,-101.042"/>
<polygon fill="midnightblue" stroke="midnightblue" points="1308.84,-103.3 1313.35,-93.7135 1303.85,-98.394 1308.84,-103.3"/>
</g>
<!-- Node11 -->
<g id="node11" class="node"><title>Node11</title>
<polygon fill="none" stroke="#bfbfbf" points="1223,-74.5 1223,-93.5 1277,-93.5 1277,-74.5 1223,-74.5"/>
<text text-anchor="middle" x="1250" y="-81.5" font-family="Helvetica,sans-Serif" font-size="10.00">iostream</text>
</g>
<!-- Node1&#45;&gt;Node11 -->
<g id="edge18" class="edge"><title>Node1&#45;&gt;Node11</title>
<path fill="none" stroke="midnightblue" d="M1255.99,-272.877C1253.22,-261.686 1250.37,-248.283 1249,-236 1244.07,-191.829 1248.56,-180.442 1249,-136 1249.1,-125.307 1249.33,-113.355 1249.55,-103.71"/>
<polygon fill="midnightblue" stroke="midnightblue" points="1253.05,-103.741 1249.78,-93.6621 1246.05,-103.578 1253.05,-103.741"/>
</g>
<!-- Node15 -->
<g id="node15" class="node"><title>Node15</title>
<g id="a_node15"><a xlink:href="../../d7/dcd/MCCompLabel_8h.html" target="_top" xlink:title="SimulationDataFormat\l/MCCompLabel.h">
<polygon fill="none" stroke="black" points="1291,-137 1291,-167 1405,-167 1405,-137 1291,-137"/>
<text text-anchor="start" x="1299" y="-155" font-family="Helvetica,sans-Serif" font-size="10.00">SimulationDataFormat</text>
<text text-anchor="middle" x="1348" y="-144" font-family="Helvetica,sans-Serif" font-size="10.00">/MCCompLabel.h</text>
</a>
</g>
</g>
<!-- Node1&#45;&gt;Node15 -->
<g id="edge14" class="edge"><title>Node1&#45;&gt;Node15</title>
<path fill="none" stroke="midnightblue" d="M1277.81,-272.743C1293.82,-245.427 1319.12,-202.262 1334.58,-175.901"/>
<polygon fill="midnightblue" stroke="midnightblue" points="1337.75,-177.407 1339.79,-167.01 1331.71,-173.867 1337.75,-177.407"/>
</g>
<!-- Node16 -->
<g id="node16" class="node"><title>Node16</title>
<polygon fill="none" stroke="#bfbfbf" points="1329.5,-210.5 1329.5,-229.5 1394.5,-229.5 1394.5,-210.5 1329.5,-210.5"/>
<text text-anchor="middle" x="1362" y="-217.5" font-family="Helvetica,sans-Serif" font-size="10.00">TVector3.h</text>
</g>
<!-- Node1&#45;&gt;Node16 -->
<g id="edge17" class="edge"><title>Node1&#45;&gt;Node16</title>
<path fill="none" stroke="midnightblue" d="M1295.42,-272.787C1311.14,-260.554 1329.5,-246.282 1342.94,-235.821"/>
<polygon fill="midnightblue" stroke="midnightblue" points="1345.25,-238.46 1351,-229.558 1340.95,-232.934 1345.25,-238.46"/>
</g>
<!-- Node3 -->
<g id="node3" class="node"><title>Node3</title>
<g id="a_node3"><a xlink:href="../../dd/d76/Cartesian3D_8h.html" target="_top" xlink:title="MathUtils/Cartesian3D.h">
<polygon fill="none" stroke="black" points="863.5,-142.5 863.5,-161.5 988.5,-161.5 988.5,-142.5 863.5,-142.5"/>
<text text-anchor="middle" x="926" y="-149.5" font-family="Helvetica,sans-Serif" font-size="10.00">MathUtils/Cartesian3D.h</text>
</a>
</g>
</g>
<!-- Node2&#45;&gt;Node3 -->
<g id="edge2" class="edge"><title>Node2&#45;&gt;Node3</title>
<path fill="none" stroke="midnightblue" d="M982.377,-204.679C970.817,-194.082 955.078,-179.655 943.167,-168.736"/>
<polygon fill="midnightblue" stroke="midnightblue" points="945.367,-166.006 935.631,-161.828 940.637,-171.166 945.367,-166.006"/>
</g>
<!-- Node4 -->
<g id="node4" class="node"><title>Node4</title>
<polygon fill="none" stroke="#bfbfbf" points="246.5,-69 246.5,-99 397.5,-99 397.5,-69 246.5,-69"/>
<text text-anchor="start" x="254.5" y="-87" font-family="Helvetica,sans-Serif" font-size="10.00">Math/GenVector/Displacement</text>
<text text-anchor="middle" x="322" y="-76" font-family="Helvetica,sans-Serif" font-size="10.00">Vector3D.h</text>
</g>
<!-- Node3&#45;&gt;Node4 -->
<g id="edge3" class="edge"><title>Node3&#45;&gt;Node4</title>
<path fill="none" stroke="midnightblue" d="M863.104,-146.386C767.204,-139.004 578.479,-123.12 408.113,-100.086"/>
<polygon fill="midnightblue" stroke="midnightblue" points="408.336,-96.5844 397.955,-98.7013 407.39,-103.52 408.336,-96.5844"/>
</g>
<!-- Node5 -->
<g id="node5" class="node"><title>Node5</title>
<polygon fill="none" stroke="#bfbfbf" points="416,-74.5 416,-93.5 592,-93.5 592,-74.5 416,-74.5"/>
<text text-anchor="middle" x="504" y="-81.5" font-family="Helvetica,sans-Serif" font-size="10.00">Math/GenVector/PositionVector3D.h</text>
</g>
<!-- Node3&#45;&gt;Node5 -->
<g id="edge4" class="edge"><title>Node3&#45;&gt;Node5</title>
<path fill="none" stroke="midnightblue" d="M871.263,-142.439C793.551,-130.285 651.499,-108.069 568.684,-95.1164"/>
<polygon fill="midnightblue" stroke="midnightblue" points="569.06,-91.6328 558.64,-93.5455 567.979,-98.5488 569.06,-91.6328"/>
</g>
<!-- Node6 -->
<g id="node6" class="node"><title>Node6</title>
<polygon fill="none" stroke="#bfbfbf" points="609.5,-74.5 609.5,-93.5 758.5,-93.5 758.5,-74.5 609.5,-74.5"/>
<text text-anchor="middle" x="684" y="-81.5" font-family="Helvetica,sans-Serif" font-size="10.00">Math/GenVector/Rotation3D.h</text>
</g>
<!-- Node3&#45;&gt;Node6 -->
<g id="edge5" class="edge"><title>Node3&#45;&gt;Node6</title>
<path fill="none" stroke="midnightblue" d="M894.363,-142.372C850.944,-130.53 772.84,-109.229 724.99,-96.179"/>
<polygon fill="midnightblue" stroke="midnightblue" points="725.83,-92.7805 715.262,-93.5259 723.988,-99.5338 725.83,-92.7805"/>
</g>
<!-- Node7 -->
<g id="node7" class="node"><title>Node7</title>
<polygon fill="none" stroke="#bfbfbf" points="777,-74.5 777,-93.5 933,-93.5 933,-74.5 777,-74.5"/>
<text text-anchor="middle" x="855" y="-81.5" font-family="Helvetica,sans-Serif" font-size="10.00">Math/GenVector/Transform3D.h</text>
</g>
<!-- Node3&#45;&gt;Node7 -->
<g id="edge6" class="edge"><title>Node3&#45;&gt;Node7</title>
<path fill="none" stroke="midnightblue" d="M916.718,-142.372C905.406,-131.856 886.07,-113.882 872.05,-100.85"/>
<polygon fill="midnightblue" stroke="midnightblue" points="874.218,-98.0861 864.511,-93.8411 869.452,-103.213 874.218,-98.0861"/>
</g>
<!-- Node8 -->
<g id="node8" class="node"><title>Node8</title>
<polygon fill="none" stroke="#bfbfbf" points="951,-74.5 951,-93.5 1111,-93.5 1111,-74.5 951,-74.5"/>
<text text-anchor="middle" x="1031" y="-81.5" font-family="Helvetica,sans-Serif" font-size="10.00">Math/GenVector/Translation3D.h</text>
</g>
<!-- Node3&#45;&gt;Node8 -->
<g id="edge7" class="edge"><title>Node3&#45;&gt;Node8</title>
<path fill="none" stroke="midnightblue" d="M939.727,-142.372C957.256,-131.353 987.815,-112.145 1008.7,-99.0142"/>
<polygon fill="midnightblue" stroke="midnightblue" points="1010.67,-101.915 1017.27,-93.6305 1006.94,-95.989 1010.67,-101.915"/>
</g>
<!-- Node3&#45;&gt;Node9 -->
<g id="edge8" class="edge"><title>Node3&#45;&gt;Node9</title>
<path fill="none" stroke="midnightblue" d="M988.719,-146.782C1061.29,-140.835 1183.9,-127.483 1286,-100 1288.98,-99.1971 1292.05,-98.2193 1295.08,-97.1517"/>
<polygon fill="midnightblue" stroke="midnightblue" points="1296.4,-100.392 1304.48,-93.5399 1293.89,-93.8574 1296.4,-100.392"/>
</g>
<!-- Node10 -->
<g id="node10" class="node"><title>Node10</title>
<polygon fill="none" stroke="#bfbfbf" points="1129,-74.5 1129,-93.5 1205,-93.5 1205,-74.5 1129,-74.5"/>
<text text-anchor="middle" x="1167" y="-81.5" font-family="Helvetica,sans-Serif" font-size="10.00">TGeoMatrix.h</text>
</g>
<!-- Node3&#45;&gt;Node10 -->
<g id="edge9" class="edge"><title>Node3&#45;&gt;Node10</title>
<path fill="none" stroke="midnightblue" d="M960.844,-142.419C999.79,-132.694 1064.66,-116.094 1120,-100 1123.58,-98.9581 1127.31,-97.8364 1131.02,-96.6924"/>
<polygon fill="midnightblue" stroke="midnightblue" points="1132.23,-99.9818 1140.72,-93.6508 1130.14,-93.3023 1132.23,-99.9818"/>
</g>
<!-- Node3&#45;&gt;Node11 -->
<g id="edge10" class="edge"><title>Node3&#45;&gt;Node11</title>
<path fill="none" stroke="midnightblue" d="M988.706,-143.93C1047.67,-136.34 1137.98,-122.274 1214,-100 1216.65,-99.2236 1219.37,-98.3139 1222.07,-97.3331"/>
<polygon fill="midnightblue" stroke="midnightblue" points="1223.57,-100.501 1231.6,-93.5803 1221.01,-93.9884 1223.57,-100.501"/>
</g>
<!-- Node12 -->
<g id="node12" class="node"><title>Node12</title>
<g id="a_node12"><a xlink:href="../../d2/dd0/Cartesian2D_8h.html" target="_top" xlink:title="MathUtils/Cartesian2D.h">
<polygon fill="none" stroke="black" points="103.5,-74.5 103.5,-93.5 228.5,-93.5 228.5,-74.5 103.5,-74.5"/>
<text text-anchor="middle" x="166" y="-81.5" font-family="Helvetica,sans-Serif" font-size="10.00">MathUtils/Cartesian2D.h</text>
</a>
</g>
</g>
<!-- Node3&#45;&gt;Node12 -->
<g id="edge11" class="edge"><title>Node3&#45;&gt;Node12</title>
<path fill="none" stroke="midnightblue" d="M863.469,-149.183C742.13,-145.037 466.492,-132.585 237,-100 228.842,-98.8416 220.217,-97.296 211.898,-95.6366"/>
<polygon fill="midnightblue" stroke="midnightblue" points="212.455,-92.1778 201.953,-93.5745 211.034,-99.032 212.455,-92.1778"/>
</g>
<!-- Node13 -->
<g id="node13" class="node"><title>Node13</title>
<polygon fill="none" stroke="#bfbfbf" points="-0.5,-1 -0.5,-31 150.5,-31 150.5,-1 -0.5,-1"/>
<text text-anchor="start" x="7.5" y="-19" font-family="Helvetica,sans-Serif" font-size="10.00">Math/GenVector/Displacement</text>
<text text-anchor="middle" x="75" y="-8" font-family="Helvetica,sans-Serif" font-size="10.00">Vector2D.h</text>
</g>
<!-- Node12&#45;&gt;Node13 -->
<g id="edge12" class="edge"><title>Node12&#45;&gt;Node13</title>
<path fill="none" stroke="midnightblue" d="M154.103,-74.3717C141.221,-65.0286 120.22,-49.7966 103.093,-37.375"/>
<polygon fill="midnightblue" stroke="midnightblue" points="104.703,-34.2194 94.5532,-31.1815 100.593,-39.8859 104.703,-34.2194"/>
</g>
<!-- Node14 -->
<g id="node14" class="node"><title>Node14</title>
<polygon fill="none" stroke="#bfbfbf" points="169,-6.5 169,-25.5 345,-25.5 345,-6.5 169,-6.5"/>
<text text-anchor="middle" x="257" y="-13.5" font-family="Helvetica,sans-Serif" font-size="10.00">Math/GenVector/PositionVector2D.h</text>
</g>
<!-- Node12&#45;&gt;Node14 -->
<g id="edge13" class="edge"><title>Node12&#45;&gt;Node14</title>
<path fill="none" stroke="midnightblue" d="M177.897,-74.3717C192.884,-63.5015 218.862,-44.6602 236.942,-31.5474"/>
<polygon fill="midnightblue" stroke="midnightblue" points="239.06,-34.3349 245.1,-25.6305 234.95,-28.6684 239.06,-34.3349"/>
</g>
<!-- Node15&#45;&gt;Node9 -->
<g id="edge15" class="edge"><title>Node15&#45;&gt;Node9</title>
<path fill="none" stroke="midnightblue" d="M1342.58,-136.679C1338.87,-126.898 1333.93,-113.852 1329.94,-103.315"/>
<polygon fill="midnightblue" stroke="midnightblue" points="1333.16,-101.94 1326.34,-93.8283 1326.61,-104.42 1333.16,-101.94"/>
</g>
</g>
</svg>
