<?xml version="1.0" encoding="UTF-8" standalone="no"?>
<!DOCTYPE svg PUBLIC "-//W3C//DTD SVG 1.1//EN"
 "http://www.w3.org/Graphics/SVG/1.1/DTD/svg11.dtd">
<!-- Generated by graphviz version 2.36.0 (20140111.2315)
 -->
<!-- Title: /home/travis/build/AliceO2Group/AliceO2/Detectors/MUON/MCH/Contour/include/MCHContour/Interval.h Pages: 1 -->
<!--zoomable 612 -->
<svg id="main" version="1.1" xmlns="http://www.w3.org/2000/svg" xmlns:xlink="http://www.w3.org/1999/xlink" xml:space="preserve" onload="init(evt)">
<style type="text/css"><![CDATA[
.edge:hover path { stroke: red; }
.edge:hover polygon { stroke: red; fill: red; }
]]></style>
<script type="text/javascript"><![CDATA[
var edges = document.getElementsByTagName('g');
if (edges && edges.length) {
  for (var i=0;i<edges.length;i++) {
    if (edges[i].id.substr(0,4)=='edge') {
      edges[i].setAttribute('class','edge');
    }
  }
}
]]></script>
        <defs>
                <circle id="rim" cx="0" cy="0" r="7"/>
                <circle id="rim2" cx="0" cy="0" r="3.5"/>
                <g id="zoomPlus">
                        <use xlink:href="#rim" fill="#404040">
                                <set attributeName="fill" to="#808080" begin="zoomplus.mouseover" end="zoomplus.mouseout"/>
                        </use>
                        <path d="M-4,0h8M0,-4v8" fill="none" stroke="white" stroke-width="1.5" pointer-events="none"/>
                </g>
                <g id="zoomMin">
                        <use xlink:href="#rim" fill="#404040">
                                <set attributeName="fill" to="#808080" begin="zoomminus.mouseover" end="zoomminus.mouseout"/>
                        </use>
                        <path d="M-4,0h8" fill="none" stroke="white" stroke-width="1.5" pointer-events="none"/>
                </g>
                <g id="dirArrow">
                        <path fill="none" stroke="white" stroke-width="1.5" d="M0,-3.0v7 M-2.5,-0.5L0,-3.0L2.5,-0.5"/>
                </g>
               <g id="resetDef">
                       <use xlink:href="#rim2" fill="#404040">
                               <set attributeName="fill" to="#808080" begin="reset.mouseover" end="reset.mouseout"/>
                       </use>
               </g>
        </defs>

<script type="text/javascript">
var viewWidth = 915;
var viewHeight = 612;
var sectionId = 'dynsection-1';
</script>
<script xlink:href="../../svgpan.js"/>
<svg id="graph" class="graph">
<g id="viewport">
<title>/home/travis/build/AliceO2Group/AliceO2/Detectors/MUON/MCH/Contour/include/MCHContour/Interval.h</title>
<!-- Node1 -->
<g id="node1" class="node"><title>Node1</title>
<polygon fill="#bfbfbf" stroke="black" points="569,-551 569,-603 729,-603 729,-551 569,-551"/>
<text text-anchor="start" x="577" y="-591" font-family="Helvetica,sans-Serif" font-size="10.00">/home/travis/build</text>
<text text-anchor="start" x="577" y="-580" font-family="Helvetica,sans-Serif" font-size="10.00">/AliceO2Group/AliceO2</text>
<text text-anchor="start" x="577" y="-569" font-family="Helvetica,sans-Serif" font-size="10.00">/Detectors/MUON/MCH/Contour</text>
<text text-anchor="middle" x="649" y="-558" font-family="Helvetica,sans-Serif" font-size="10.00">/include/MCHContour/Interval.h</text>
</g>
<!-- Node2 -->
<g id="node2" class="node"><title>Node2</title>
<g id="a_node2"><a xlink:href="../../d5/de0/Edge_8h.html" target="_top" xlink:title="/home/travis/build\l/AliceO2Group/AliceO2\l/Detectors/MUON/MCH/Contour\l/include/MCHContour/Edge.h">
<polygon fill="none" stroke="black" points="569,-461 569,-513 729,-513 729,-461 569,-461"/>
<text text-anchor="start" x="577" y="-501" font-family="Helvetica,sans-Serif" font-size="10.00">/home/travis/build</text>
<text text-anchor="start" x="577" y="-490" font-family="Helvetica,sans-Serif" font-size="10.00">/AliceO2Group/AliceO2</text>
<text text-anchor="start" x="577" y="-479" font-family="Helvetica,sans-Serif" font-size="10.00">/Detectors/MUON/MCH/Contour</text>
<text text-anchor="middle" x="649" y="-468" font-family="Helvetica,sans-Serif" font-size="10.00">/include/MCHContour/Edge.h</text>
</a>
</g>
</g>
<!-- Node1&#45;&gt;Node2 -->
<g id="edge1" class="edge"><title>Node1&#45;&gt;Node2</title>
<path fill="none" stroke="midnightblue" d="M649,-540.489C649,-531.309 649,-521.616 649,-513.092"/>
<polygon fill="midnightblue" stroke="midnightblue" points="645.5,-540.547 649,-550.547 652.5,-540.547 645.5,-540.547"/>
</g>
<!-- Node13 -->
<g id="node13" class="node"><title>Node13</title>
<g id="a_node13"><a xlink:href="../../dc/ded/SegmentTree_8h.html" target="_top" xlink:title="/home/travis/build\l/AliceO2Group/AliceO2\l/Detectors/MUON/MCH/Contour\l/include/MCHContour/SegmentTree.h">
<polygon fill="none" stroke="black" points="369.5,-461 369.5,-513 550.5,-513 550.5,-461 369.5,-461"/>
<text text-anchor="start" x="377.5" y="-501" font-family="Helvetica,sans-Serif" font-size="10.00">/home/travis/build</text>
<text text-anchor="start" x="377.5" y="-490" font-family="Helvetica,sans-Serif" font-size="10.00">/AliceO2Group/AliceO2</text>
<text text-anchor="start" x="377.5" y="-479" font-family="Helvetica,sans-Serif" font-size="10.00">/Detectors/MUON/MCH/Contour</text>
<text text-anchor="middle" x="460" y="-468" font-family="Helvetica,sans-Serif" font-size="10.00">/include/MCHContour/SegmentTree.h</text>
</a>
</g>
</g>
<!-- Node1&#45;&gt;Node13 -->
<g id="edge15" class="edge"><title>Node1&#45;&gt;Node13</title>
<path fill="none" stroke="midnightblue" d="M585.972,-546.654C562.645,-535.792 536.429,-523.586 513.978,-513.133"/>
<polygon fill="midnightblue" stroke="midnightblue" points="584.55,-549.852 595.093,-550.901 587.505,-543.507 584.55,-549.852"/>
</g>
<!-- Node15 -->
<g id="node15" class="node"><title>Node15</title>
<g id="a_node15"><a xlink:href="../../d7/dba/Interval_8cxx.html" target="_top" xlink:title="/home/travis/build\l/AliceO2Group/AliceO2\l/Detectors/MUON/MCH/Contour\l/test/Interval.cxx">
<polygon fill="none" stroke="black" points="747,-461 747,-513 907,-513 907,-461 747,-461"/>
<text text-anchor="start" x="755" y="-501" font-family="Helvetica,sans-Serif" font-size="10.00">/home/travis/build</text>
<text text-anchor="start" x="755" y="-490" font-family="Helvetica,sans-Serif" font-size="10.00">/AliceO2Group/AliceO2</text>
<text text-anchor="start" x="755" y="-479" font-family="Helvetica,sans-Serif" font-size="10.00">/Detectors/MUON/MCH/Contour</text>
<text text-anchor="middle" x="827" y="-468" font-family="Helvetica,sans-Serif" font-size="10.00">/test/Interval.cxx</text>
</a>
</g>
</g>
<!-- Node1&#45;&gt;Node15 -->
<g id="edge18" class="edge"><title>Node1&#45;&gt;Node15</title>
<path fill="none" stroke="midnightblue" d="M709.178,-546.249C730.986,-535.468 755.382,-523.407 776.293,-513.069"/>
<polygon fill="midnightblue" stroke="midnightblue" points="707.421,-543.213 700.008,-550.783 710.523,-549.488 707.421,-543.213"/>
</g>
<!-- Node3 -->
<g id="node3" class="node"><title>Node3</title>
<g id="a_node3"><a xlink:href="../../dc/d15/ContourCreator_8inl.html" target="_top" xlink:title="/home/travis/build\l/AliceO2Group/AliceO2\l/Detectors/MUON/MCH/Contour\l/include/MCHContour/ContourCreator.inl">
<polygon fill="none" stroke="black" points="458,-371 458,-423 652,-423 652,-371 458,-371"/>
<text text-anchor="start" x="466" y="-411" font-family="Helvetica,sans-Serif" font-size="10.00">/home/travis/build</text>
<text text-anchor="start" x="466" y="-400" font-family="Helvetica,sans-Serif" font-size="10.00">/AliceO2Group/AliceO2</text>
<text text-anchor="start" x="466" y="-389" font-family="Helvetica,sans-Serif" font-size="10.00">/Detectors/MUON/MCH/Contour</text>
<text text-anchor="middle" x="555" y="-378" font-family="Helvetica,sans-Serif" font-size="10.00">/include/MCHContour/ContourCreator.inl</text>
</a>
</g>
</g>
<!-- Node2&#45;&gt;Node3 -->
<g id="edge2" class="edge"><title>Node2&#45;&gt;Node3</title>
<path fill="none" stroke="midnightblue" d="M614.453,-453.658C603.727,-443.617 592.069,-432.703 581.941,-423.221"/>
<polygon fill="midnightblue" stroke="midnightblue" points="612.371,-456.504 622.063,-460.783 617.155,-451.393 612.371,-456.504"/>
</g>
<!-- Node12 -->
<g id="node12" class="node"><title>Node12</title>
<g id="a_node12"><a xlink:href="../../d6/d3f/Edge_8cxx.html" target="_top" xlink:title="/home/travis/build\l/AliceO2Group/AliceO2\l/Detectors/MUON/MCH/Contour\l/test/Edge.cxx">
<polygon fill="none" stroke="black" points="670,-371 670,-423 830,-423 830,-371 670,-371"/>
<text text-anchor="start" x="678" y="-411" font-family="Helvetica,sans-Serif" font-size="10.00">/home/travis/build</text>
<text text-anchor="start" x="678" y="-400" font-family="Helvetica,sans-Serif" font-size="10.00">/AliceO2Group/AliceO2</text>
<text text-anchor="start" x="678" y="-389" font-family="Helvetica,sans-Serif" font-size="10.00">/Detectors/MUON/MCH/Contour</text>
<text text-anchor="middle" x="750" y="-378" font-family="Helvetica,sans-Serif" font-size="10.00">/test/Edge.cxx</text>
</a>
</g>
</g>
<!-- Node2&#45;&gt;Node12 -->
<g id="edge14" class="edge"><title>Node2&#45;&gt;Node12</title>
<path fill="none" stroke="midnightblue" d="M685.784,-453.951C697.401,-443.829 710.065,-432.795 721.053,-423.221"/>
<polygon fill="midnightblue" stroke="midnightblue" points="683.183,-451.575 677.943,-460.783 687.781,-456.852 683.183,-451.575"/>
</g>
<!-- Node4 -->
<g id="node4" class="node"><title>Node4</title>
<g id="a_node4"><a xlink:href="../../d4/d84/ContourCreator_8h.html" target="_top" xlink:title="/home/travis/build\l/AliceO2Group/AliceO2\l/Detectors/MUON/MCH/Contour\l/include/MCHContour/ContourCreator.h">
<polygon fill="none" stroke="black" points="460.5,-281 460.5,-333 649.5,-333 649.5,-281 460.5,-281"/>
<text text-anchor="start" x="468.5" y="-321" font-family="Helvetica,sans-Serif" font-size="10.00">/home/travis/build</text>
<text text-anchor="start" x="468.5" y="-310" font-family="Helvetica,sans-Serif" font-size="10.00">/AliceO2Group/AliceO2</text>
<text text-anchor="start" x="468.5" y="-299" font-family="Helvetica,sans-Serif" font-size="10.00">/Detectors/MUON/MCH/Contour</text>
<text text-anchor="middle" x="555" y="-288" font-family="Helvetica,sans-Serif" font-size="10.00">/include/MCHContour/ContourCreator.h</text>
</a>
</g>
</g>
<!-- Node3&#45;&gt;Node4 -->
<g id="edge3" class="edge"><title>Node3&#45;&gt;Node4</title>
<path fill="none" stroke="midnightblue" d="M555,-360.489C555,-351.309 555,-341.616 555,-333.092"/>
<polygon fill="midnightblue" stroke="midnightblue" points="551.5,-360.547 555,-370.547 558.5,-360.547 551.5,-360.547"/>
</g>
<!-- Node5 -->
<g id="node5" class="node"><title>Node5</title>
<g id="a_node5"><a xlink:href="../../de/d51/SVGWriter_8h.html" target="_top" xlink:title="/home/travis/build\l/AliceO2Group/AliceO2\l/Detectors/MUON/MCH/Contour\l/include/MCHContour/SVGWriter.h">
<polygon fill="none" stroke="black" points="287,-191 287,-243 457,-243 457,-191 287,-191"/>
<text text-anchor="start" x="295" y="-231" font-family="Helvetica,sans-Serif" font-size="10.00">/home/travis/build</text>
<text text-anchor="start" x="295" y="-220" font-family="Helvetica,sans-Serif" font-size="10.00">/AliceO2Group/AliceO2</text>
<text text-anchor="start" x="295" y="-209" font-family="Helvetica,sans-Serif" font-size="10.00">/Detectors/MUON/MCH/Contour</text>
<text text-anchor="middle" x="372" y="-198" font-family="Helvetica,sans-Serif" font-size="10.00">/include/MCHContour/SVGWriter.h</text>
</a>
</g>
</g>
<!-- Node4&#45;&gt;Node5 -->
<g id="edge4" class="edge"><title>Node4&#45;&gt;Node5</title>
<path fill="none" stroke="midnightblue" d="M493.432,-276.394C470.935,-265.576 445.726,-253.453 424.132,-243.069"/>
<polygon fill="midnightblue" stroke="midnightblue" points="492.031,-279.603 502.56,-280.783 495.064,-273.295 492.031,-279.603"/>
</g>
<!-- Node10 -->
<g id="node10" class="node"><title>Node10</title>
<g id="a_node10"><a xlink:href="../../d3/d4a/ContourCreator_8cxx.html" target="_top" xlink:title="/home/travis/build\l/AliceO2Group/AliceO2\l/Detectors/MUON/MCH/Contour\l/test/ContourCreator.cxx">
<polygon fill="none" stroke="black" points="475,-191 475,-243 635,-243 635,-191 475,-191"/>
<text text-anchor="start" x="483" y="-231" font-family="Helvetica,sans-Serif" font-size="10.00">/home/travis/build</text>
<text text-anchor="start" x="483" y="-220" font-family="Helvetica,sans-Serif" font-size="10.00">/AliceO2Group/AliceO2</text>
<text text-anchor="start" x="483" y="-209" font-family="Helvetica,sans-Serif" font-size="10.00">/Detectors/MUON/MCH/Contour</text>
<text text-anchor="middle" x="555" y="-198" font-family="Helvetica,sans-Serif" font-size="10.00">/test/ContourCreator.cxx</text>
</a>
</g>
</g>
<!-- Node4&#45;&gt;Node10 -->
<g id="edge12" class="edge"><title>Node4&#45;&gt;Node10</title>
<path fill="none" stroke="midnightblue" d="M555,-270.489C555,-261.309 555,-251.616 555,-243.092"/>
<polygon fill="midnightblue" stroke="midnightblue" points="551.5,-270.547 555,-280.547 558.5,-270.547 551.5,-270.547"/>
</g>
<!-- Node11 -->
<g id="node11" class="node"><title>Node11</title>
<g id="a_node11"><a xlink:href="../../de/de2/SegmentationContours_8cxx.html" target="_top" xlink:title="/home/travis/build\l/AliceO2Group/AliceO2\l/Detectors/MUON/MCH/Mapping\l/SegContour/src/SegmentationContours.cxx">
<polygon fill="none" stroke="black" points="653.5,-191 653.5,-243 862.5,-243 862.5,-191 653.5,-191"/>
<text text-anchor="start" x="661.5" y="-231" font-family="Helvetica,sans-Serif" font-size="10.00">/home/travis/build</text>
<text text-anchor="start" x="661.5" y="-220" font-family="Helvetica,sans-Serif" font-size="10.00">/AliceO2Group/AliceO2</text>
<text text-anchor="start" x="661.5" y="-209" font-family="Helvetica,sans-Serif" font-size="10.00">/Detectors/MUON/MCH/Mapping</text>
<text text-anchor="middle" x="758" y="-198" font-family="Helvetica,sans-Serif" font-size="10.00">/SegContour/src/SegmentationContours.cxx</text>
</a>
</g>
</g>
<!-- Node4&#45;&gt;Node11 -->
<g id="edge13" class="edge"><title>Node4&#45;&gt;Node11</title>
<path fill="none" stroke="midnightblue" d="M622.365,-276.798C647.503,-265.9 675.802,-253.632 700.023,-243.133"/>
<polygon fill="midnightblue" stroke="midnightblue" points="620.683,-273.712 612.9,-280.901 623.467,-280.134 620.683,-273.712"/>
</g>
<!-- Node6 -->
<g id="node6" class="node"><title>Node6</title>
<g id="a_node6"><a xlink:href="../../d5/d3f/SegmentationSVGWriter_8h.html" target="_top" xlink:title="/home/travis/build\l/AliceO2Group/AliceO2\l/Detectors/MUON/MCH/Mapping\l/SegContour/include/MCHMappingSegContour\l/SegmentationSVGWriter.h">
<polygon fill="none" stroke="black" points="193,-90.5 193,-153.5 413,-153.5 413,-90.5 193,-90.5"/>
<text text-anchor="start" x="201" y="-141.5" font-family="Helvetica,sans-Serif" font-size="10.00">/home/travis/build</text>
<text text-anchor="start" x="201" y="-130.5" font-family="Helvetica,sans-Serif" font-size="10.00">/AliceO2Group/AliceO2</text>
<text text-anchor="start" x="201" y="-119.5" font-family="Helvetica,sans-Serif" font-size="10.00">/Detectors/MUON/MCH/Mapping</text>
<text text-anchor="start" x="201" y="-108.5" font-family="Helvetica,sans-Serif" font-size="10.00">/SegContour/include/MCHMappingSegContour</text>
<text text-anchor="middle" x="303" y="-97.5" font-family="Helvetica,sans-Serif" font-size="10.00">/SegmentationSVGWriter.h</text>
</a>
</g>
</g>
<!-- Node5&#45;&gt;Node6 -->
<g id="edge5" class="edge"><title>Node5&#45;&gt;Node6</title>
<path fill="none" stroke="midnightblue" d="M347.183,-182.551C340.192,-173.129 332.624,-162.929 325.76,-153.677"/>
<polygon fill="midnightblue" stroke="midnightblue" points="344.376,-184.642 353.145,-190.587 349.998,-180.471 344.376,-184.642"/>
</g>
<!-- Node7 -->
<g id="node7" class="node"><title>Node7</title>
<g id="a_node7"><a xlink:href="../../de/d56/SegmentationSVGWriter_8cxx.html" target="_top" xlink:title="/home/travis/build\l/AliceO2Group/AliceO2\l/Detectors/MUON/MCH/Mapping\l/SegContour/src/SegmentationSVGWriter.cxx">
<polygon fill="none" stroke="black" points="-0.5,-1 -0.5,-53 216.5,-53 216.5,-1 -0.5,-1"/>
<text text-anchor="start" x="7.5" y="-41" font-family="Helvetica,sans-Serif" font-size="10.00">/home/travis/build</text>
<text text-anchor="start" x="7.5" y="-30" font-family="Helvetica,sans-Serif" font-size="10.00">/AliceO2Group/AliceO2</text>
<text text-anchor="start" x="7.5" y="-19" font-family="Helvetica,sans-Serif" font-size="10.00">/Detectors/MUON/MCH/Mapping</text>
<text text-anchor="middle" x="108" y="-8" font-family="Helvetica,sans-Serif" font-size="10.00">/SegContour/src/SegmentationSVGWriter.cxx</text>
</a>
</g>
</g>
<!-- Node5&#45;&gt;Node7 -->
<g id="edge9" class="edge"><title>Node5&#45;&gt;Node7</title>
<path fill="none" stroke="midnightblue" d="M276.84,-198.65C244.903,-189.362 210.662,-175.267 184,-154 150.548,-127.318 128.335,-81.6104 116.975,-53.1971"/>
<polygon fill="midnightblue" stroke="midnightblue" points="276.095,-202.076 286.667,-201.381 277.97,-195.332 276.095,-202.076"/>
</g>
<!-- Node8 -->
<g id="node8" class="node"><title>Node8</title>
<g id="a_node8"><a xlink:href="../../d2/d0f/SVGSegmentation_8cxx.html" target="_top" xlink:title="/home/travis/build\l/AliceO2Group/AliceO2\l/Detectors/MUON/MCH/Mapping\l/SegContour/src/SVGSegmentation.cxx">
<polygon fill="none" stroke="black" points="234.5,-1 234.5,-53 425.5,-53 425.5,-1 234.5,-1"/>
<text text-anchor="start" x="242.5" y="-41" font-family="Helvetica,sans-Serif" font-size="10.00">/home/travis/build</text>
<text text-anchor="start" x="242.5" y="-30" font-family="Helvetica,sans-Serif" font-size="10.00">/AliceO2Group/AliceO2</text>
<text text-anchor="start" x="242.5" y="-19" font-family="Helvetica,sans-Serif" font-size="10.00">/Detectors/MUON/MCH/Mapping</text>
<text text-anchor="middle" x="330" y="-8" font-family="Helvetica,sans-Serif" font-size="10.00">/SegContour/src/SVGSegmentation.cxx</text>
</a>
</g>
</g>
<!-- Node5&#45;&gt;Node8 -->
<g id="edge10" class="edge"><title>Node5&#45;&gt;Node8</title>
<path fill="none" stroke="midnightblue" d="M405.488,-182.78C412.24,-174.102 418.372,-164.277 422,-154 431.468,-127.178 435.359,-115.112 422,-90 413.859,-74.6961 400.071,-62.4898 385.613,-53.0946"/>
<polygon fill="midnightblue" stroke="midnightblue" points="402.585,-180.797 398.886,-190.726 407.969,-185.271 402.585,-180.797"/>
</g>
<!-- Node9 -->
<g id="node9" class="node"><title>Node9</title>
<g id="a_node9"><a xlink:href="../../d5/d2d/MUON_2MCH_2Mapping_2test_2src_2Segmentation_8cxx.html" target="_top" xlink:title="/home/travis/build\l/AliceO2Group/AliceO2\l/Detectors/MUON/MCH/Mapping\l/test/src/Segmentation.cxx">
<polygon fill="none" stroke="black" points="444,-1 444,-53 606,-53 606,-1 444,-1"/>
<text text-anchor="start" x="452" y="-41" font-family="Helvetica,sans-Serif" font-size="10.00">/home/travis/build</text>
<text text-anchor="start" x="452" y="-30" font-family="Helvetica,sans-Serif" font-size="10.00">/AliceO2Group/AliceO2</text>
<text text-anchor="start" x="452" y="-19" font-family="Helvetica,sans-Serif" font-size="10.00">/Detectors/MUON/MCH/Mapping</text>
<text text-anchor="middle" x="525" y="-8" font-family="Helvetica,sans-Serif" font-size="10.00">/test/src/Segmentation.cxx</text>
</a>
</g>
</g>
<!-- Node5&#45;&gt;Node9 -->
<g id="edge11" class="edge"><title>Node5&#45;&gt;Node9</title>
<path fill="none" stroke="midnightblue" d="M410.858,-184.165C421.16,-174.921 431.93,-164.48 441,-154 468.871,-121.795 495.106,-79.8928 510.614,-53.4626"/>
<polygon fill="midnightblue" stroke="midnightblue" points="408.306,-181.748 403.107,-190.981 412.928,-187.005 408.306,-181.748"/>
</g>
<!-- Node6&#45;&gt;Node7 -->
<g id="edge6" class="edge"><title>Node6&#45;&gt;Node7</title>
<path fill="none" stroke="midnightblue" d="M229.814,-86.0959C206.759,-75.1006 181.767,-63.1813 160.455,-53.0171"/>
<polygon fill="midnightblue" stroke="midnightblue" points="228.347,-89.2738 238.88,-90.4195 231.36,-82.9556 228.347,-89.2738"/>
</g>
<!-- Node6&#45;&gt;Node8 -->
<g id="edge7" class="edge"><title>Node6&#45;&gt;Node8</title>
<path fill="none" stroke="midnightblue" d="M314.784,-80.409C317.481,-71.1208 320.27,-61.5129 322.713,-53.1001"/>
<polygon fill="midnightblue" stroke="midnightblue" points="311.343,-79.7113 311.916,-90.2906 318.065,-81.663 311.343,-79.7113"/>
</g>
<!-- Node6&#45;&gt;Node9 -->
<g id="edge8" class="edge"><title>Node6&#45;&gt;Node9</title>
<path fill="none" stroke="midnightblue" d="M385.275,-86.5333C411.81,-75.4174 440.697,-63.3162 465.282,-53.0171"/>
<polygon fill="midnightblue" stroke="midnightblue" points="383.87,-83.3274 375.999,-90.4195 386.574,-89.7838 383.87,-83.3274"/>
</g>
<!-- Node13&#45;&gt;Node3 -->
<g id="edge16" class="edge"><title>Node13&#45;&gt;Node3</title>
<path fill="none" stroke="midnightblue" d="M494.599,-453.951C505.525,-443.829 517.437,-432.795 527.773,-423.221"/>
<polygon fill="midnightblue" stroke="midnightblue" points="492.181,-451.419 487.223,-460.783 496.938,-456.555 492.181,-451.419"/>
</g>
<!-- Node14 -->
<g id="node14" class="node"><title>Node14</title>
<g id="a_node14"><a xlink:href="../../df/d83/SegmentTree_8cxx.html" target="_top" xlink:title="/home/travis/build\l/AliceO2Group/AliceO2\l/Detectors/MUON/MCH/Contour\l/test/SegmentTree.cxx">
<polygon fill="none" stroke="black" points="280,-371 280,-423 440,-423 440,-371 280,-371"/>
<text text-anchor="start" x="288" y="-411" font-family="Helvetica,sans-Serif" font-size="10.00">/home/travis/build</text>
<text text-anchor="start" x="288" y="-400" font-family="Helvetica,sans-Serif" font-size="10.00">/AliceO2Group/AliceO2</text>
<text text-anchor="start" x="288" y="-389" font-family="Helvetica,sans-Serif" font-size="10.00">/Detectors/MUON/MCH/Contour</text>
<text text-anchor="middle" x="360" y="-378" font-family="Helvetica,sans-Serif" font-size="10.00">/test/SegmentTree.cxx</text>
</a>
</g>
</g>
<!-- Node13&#45;&gt;Node14 -->
<g id="edge17" class="edge"><title>Node13&#45;&gt;Node14</title>
<path fill="none" stroke="midnightblue" d="M423.58,-453.951C412.079,-443.829 399.54,-432.795 388.66,-423.221"/>
<polygon fill="midnightblue" stroke="midnightblue" points="421.525,-456.804 431.344,-460.783 426.149,-451.549 421.525,-456.804"/>
</g>
</g>
</svg>
        <g id="navigator" transform="translate(0 0)" fill="#404254">
                <rect fill="#f2f5e9" fill-opacity="0.5" stroke="#606060" stroke-width=".5" x="0" y="0" width="60" height="60"/>
                <use id="zoomplus" xlink:href="#zoomPlus" x="17" y="9" onmousedown="handleZoom(evt,'in')"/>
                <use id="zoomminus" xlink:href="#zoomMin" x="42" y="9" onmousedown="handleZoom(evt,'out')"/>
                <use id="reset" xlink:href="#resetDef" x="30" y="36" onmousedown="handleReset()"/>
                <g id="arrowUp" xlink:href="#dirArrow" transform="translate(30 24)" onmousedown="handlePan(0,-1)">
                  <use xlink:href="#rim" fill="#404040">
                        <set attributeName="fill" to="#808080" begin="arrowUp.mouseover" end="arrowUp.mouseout"/>
                  </use>
                  <path fill="none" stroke="white" stroke-width="1.5" d="M0,-3.0v7 M-2.5,-0.5L0,-3.0L2.5,-0.5"/>
                </g>
                <g id="arrowRight" xlink:href="#dirArrow" transform="rotate(90) translate(36 -43)" onmousedown="handlePan(1,0)">
                  <use xlink:href="#rim" fill="#404040">
                        <set attributeName="fill" to="#808080" begin="arrowRight.mouseover" end="arrowRight.mouseout"/>
                  </use>
                  <path fill="none" stroke="white" stroke-width="1.5" d="M0,-3.0v7 M-2.5,-0.5L0,-3.0L2.5,-0.5"/>
                </g>
                <g id="arrowDown" xlink:href="#dirArrow" transform="rotate(180) translate(-30 -48)" onmousedown="handlePan(0,1)">
                  <use xlink:href="#rim" fill="#404040">
                        <set attributeName="fill" to="#808080" begin="arrowDown.mouseover" end="arrowDown.mouseout"/>
                  </use>
                  <path fill="none" stroke="white" stroke-width="1.5" d="M0,-3.0v7 M-2.5,-0.5L0,-3.0L2.5,-0.5"/>
                </g>
                <g id="arrowLeft" xlink:href="#dirArrow" transform="rotate(270) translate(-36 17)" onmousedown="handlePan(-1,0)">
                  <use xlink:href="#rim" fill="#404040">
                        <set attributeName="fill" to="#808080" begin="arrowLeft.mouseover" end="arrowLeft.mouseout"/>
                  </use>
                  <path fill="none" stroke="white" stroke-width="1.5" d="M0,-3.0v7 M-2.5,-0.5L0,-3.0L2.5,-0.5"/>
                </g>
        </g>
        <svg viewBox="0 0 15 15" width="100%" height="30px" preserveAspectRatio="xMaxYMin meet">
         <g id="arrow_out" transform="scale(0.3 0.3)">
          <a xlink:href="Interval_8h__dep__incl_org.svg" target="_base">
           <rect id="button" ry="5" rx="5" y="6" x="6" height="38" width="38"
                fill="#f2f5e9" fill-opacity="0.5" stroke="#606060" stroke-width="1.0"/>
           <path id="arrow"
             d="M 11.500037,31.436501 C 11.940474,20.09759 22.043105,11.32322 32.158766,21.979434 L 37.068811,17.246167 C 37.068811,17.246167 37.088388,32 37.088388,32 L 22.160133,31.978069 C 22.160133,31.978069 26.997745,27.140456 26.997745,27.140456 C 18.528582,18.264221 13.291696,25.230495 11.500037,31.436501 z"
             style="fill:#404040;"/>
          </a>
         </g>
        </svg>
</svg>
