<?xml version="1.0" encoding="UTF-8" standalone="no"?>
<!DOCTYPE svg PUBLIC "-//W3C//DTD SVG 1.1//EN"
 "http://www.w3.org/Graphics/SVG/1.1/DTD/svg11.dtd">
<!-- Generated by graphviz version 2.36.0 (20140111.2315)
 -->
<!-- Title: o2::dataformats::TimeStamp&lt; T &gt; Pages: 1 -->
<!--zoomable 698 -->
<svg id="main" version="1.1" xmlns="http://www.w3.org/2000/svg" xmlns:xlink="http://www.w3.org/1999/xlink" xml:space="preserve" onload="init(evt)">
<style type="text/css"><![CDATA[
.edge:hover path { stroke: red; }
.edge:hover polygon { stroke: red; fill: red; }
]]></style>
<script type="text/javascript"><![CDATA[
var edges = document.getElementsByTagName('g');
if (edges && edges.length) {
  for (var i=0;i<edges.length;i++) {
    if (edges[i].id.substr(0,4)=='edge') {
      edges[i].setAttribute('class','edge');
    }
  }
}
]]></script>
        <defs>
                <circle id="rim" cx="0" cy="0" r="7"/>
                <circle id="rim2" cx="0" cy="0" r="3.5"/>
                <g id="zoomPlus">
                        <use xlink:href="#rim" fill="#404040">
                                <set attributeName="fill" to="#808080" begin="zoomplus.mouseover" end="zoomplus.mouseout"/>
                        </use>
                        <path d="M-4,0h8M0,-4v8" fill="none" stroke="white" stroke-width="1.5" pointer-events="none"/>
                </g>
                <g id="zoomMin">
                        <use xlink:href="#rim" fill="#404040">
                                <set attributeName="fill" to="#808080" begin="zoomminus.mouseover" end="zoomminus.mouseout"/>
                        </use>
                        <path d="M-4,0h8" fill="none" stroke="white" stroke-width="1.5" pointer-events="none"/>
                </g>
                <g id="dirArrow">
                        <path fill="none" stroke="white" stroke-width="1.5" d="M0,-3.0v7 M-2.5,-0.5L0,-3.0L2.5,-0.5"/>
                </g>
               <g id="resetDef">
                       <use xlink:href="#rim2" fill="#404040">
                               <set attributeName="fill" to="#808080" begin="reset.mouseover" end="reset.mouseout"/>
                       </use>
               </g>
        </defs>

<script type="text/javascript">
var viewWidth = 686;
var viewHeight = 698;
var sectionId = 'dynsection-0';
</script>
<script xlink:href="../../svgpan.js"/>
<svg id="graph" class="graph">
<g id="viewport">
<title>o2::dataformats::TimeStamp&lt; T &gt;</title>
<!-- Node1 -->
<g id="node1" class="node"><title>Node1</title>
<polygon fill="#bfbfbf" stroke="black" points="239.5,-588.5 239.5,-689.5 404.5,-689.5 404.5,-588.5 239.5,-588.5"/>
<text text-anchor="middle" x="322" y="-677.5" font-family="Helvetica,sans-Serif" font-size="10.00">o2::dataformats::TimeStamp&lt; T &gt;</text>
<polyline fill="none" stroke="black" points="239.5,-670.5 404.5,-670.5 "/>
<text text-anchor="middle" x="322" y="-658.5" font-family="Helvetica,sans-Serif" font-size="10.00"> </text>
<polyline fill="none" stroke="black" points="239.5,-651.5 404.5,-651.5 "/>
<text text-anchor="start" x="247.5" y="-639.5" font-family="Helvetica,sans-Serif" font-size="10.00">+ TimeStamp()</text>
<text text-anchor="start" x="247.5" y="-628.5" font-family="Helvetica,sans-Serif" font-size="10.00">+ TimeStamp()</text>
<text text-anchor="start" x="247.5" y="-617.5" font-family="Helvetica,sans-Serif" font-size="10.00">+ getTimeStamp()</text>
<text text-anchor="start" x="247.5" y="-606.5" font-family="Helvetica,sans-Serif" font-size="10.00">+ setTimeStamp()</text>
<text text-anchor="start" x="247.5" y="-595.5" font-family="Helvetica,sans-Serif" font-size="10.00">+ operator==()</text>
</g>
<!-- Node2 -->
<g id="node2" class="node"><title>Node2</title>
<g id="a_node2"><a xlink:href="../../d3/dbf/classo2_1_1dataformats_1_1TimeStampWithError.html" target="_top" xlink:title="{o2::dataformats::TimeStamp\lWithError\&lt; T \&gt;\n||+ TimeStampWithError()\l+ TimeStampWithError()\l+ getTimeStampError()\l+ setTimeStampError()\l}">
<polygon fill="none" stroke="black" points="-0.5,-399.5 -0.5,-500.5 140.5,-500.5 140.5,-399.5 -0.5,-399.5"/>
<text text-anchor="start" x="7.5" y="-488.5" font-family="Helvetica,sans-Serif" font-size="10.00">o2::dataformats::TimeStamp</text>
<text text-anchor="middle" x="70" y="-477.5" font-family="Helvetica,sans-Serif" font-size="10.00">WithError&lt; T &gt;</text>
<polyline fill="none" stroke="black" points="-0.5,-470.5 140.5,-470.5 "/>
<text text-anchor="middle" x="70" y="-458.5" font-family="Helvetica,sans-Serif" font-size="10.00"> </text>
<polyline fill="none" stroke="black" points="-0.5,-451.5 140.5,-451.5 "/>
<text text-anchor="start" x="7.5" y="-439.5" font-family="Helvetica,sans-Serif" font-size="10.00">+ TimeStampWithError()</text>
<text text-anchor="start" x="7.5" y="-428.5" font-family="Helvetica,sans-Serif" font-size="10.00">+ TimeStampWithError()</text>
<text text-anchor="start" x="7.5" y="-417.5" font-family="Helvetica,sans-Serif" font-size="10.00">+ getTimeStampError()</text>
<text text-anchor="start" x="7.5" y="-406.5" font-family="Helvetica,sans-Serif" font-size="10.00">+ setTimeStampError()</text>
</a>
</g>
</g>
<!-- Node1&#45;&gt;Node2 -->
<g id="edge1" class="edge"><title>Node1&#45;&gt;Node2</title>
<path fill="none" stroke="midnightblue" d="M230.405,-593.482C203.003,-578.261 173.702,-559.98 149,-540 134.864,-528.566 121.112,-514.476 109.15,-500.908"/>
<polygon fill="none" stroke="midnightblue" points="228.774,-596.58 239.226,-598.315 232.138,-590.441 228.774,-596.58"/>
</g>
<!-- Node5 -->
<g id="node5" class="node"><title>Node5</title>
<g id="a_node5"><a xlink:href="../../dd/def/classo2_1_1TPC_1_1Digit.html" target="_top" xlink:title="{o2::TPC::Digit\&lt; int \&gt;\n|# mCharge\l# mCRU\l# mRow\l# mPad\l|+ Digit()\l+ Digit()\l+ ~Digit()\l+ getCharge()\l+ getChargeFloat()\l+ getCRU()\l+ getRow()\l+ getPad()\l# ClassDefNV()\l}">
<polygon fill="none" stroke="black" points="318,-361 318,-539 426,-539 426,-361 318,-361"/>
<text text-anchor="middle" x="372" y="-527" font-family="Helvetica,sans-Serif" font-size="10.00">o2::TPC::Digit&lt; int &gt;</text>
<polyline fill="none" stroke="black" points="318,-520 426,-520 "/>
<text text-anchor="start" x="326" y="-508" font-family="Helvetica,sans-Serif" font-size="10.00"># mCharge</text>
<text text-anchor="start" x="326" y="-497" font-family="Helvetica,sans-Serif" font-size="10.00"># mCRU</text>
<text text-anchor="start" x="326" y="-486" font-family="Helvetica,sans-Serif" font-size="10.00"># mRow</text>
<text text-anchor="start" x="326" y="-475" font-family="Helvetica,sans-Serif" font-size="10.00"># mPad</text>
<polyline fill="none" stroke="black" points="318,-468 426,-468 "/>
<text text-anchor="start" x="326" y="-456" font-family="Helvetica,sans-Serif" font-size="10.00">+ Digit()</text>
<text text-anchor="start" x="326" y="-445" font-family="Helvetica,sans-Serif" font-size="10.00">+ Digit()</text>
<text text-anchor="start" x="326" y="-434" font-family="Helvetica,sans-Serif" font-size="10.00">+ ~Digit()</text>
<text text-anchor="start" x="326" y="-423" font-family="Helvetica,sans-Serif" font-size="10.00">+ getCharge()</text>
<text text-anchor="start" x="326" y="-412" font-family="Helvetica,sans-Serif" font-size="10.00">+ getChargeFloat()</text>
<text text-anchor="start" x="326" y="-401" font-family="Helvetica,sans-Serif" font-size="10.00">+ getCRU()</text>
<text text-anchor="start" x="326" y="-390" font-family="Helvetica,sans-Serif" font-size="10.00">+ getRow()</text>
<text text-anchor="start" x="326" y="-379" font-family="Helvetica,sans-Serif" font-size="10.00">+ getPad()</text>
<text text-anchor="start" x="326" y="-368" font-family="Helvetica,sans-Serif" font-size="10.00"># ClassDefNV()</text>
</a>
</g>
</g>
<!-- Node1&#45;&gt;Node5 -->
<g id="edge4" class="edge"><title>Node1&#45;&gt;Node5</title>
<path fill="none" stroke="midnightblue" d="M337.896,-578.548C341.248,-566.011 344.853,-552.529 348.42,-539.191"/>
<polygon fill="none" stroke="midnightblue" points="334.47,-577.814 335.268,-588.378 341.232,-579.622 334.47,-577.814"/>
</g>
<!-- Node6 -->
<g id="node6" class="node"><title>Node6</title>
<g id="a_node6"><a xlink:href="../../d0/d94/classo2_1_1dataformats_1_1TimeStamp.html" target="_top" xlink:title="{o2::dataformats::TimeStamp\l\&lt; double \&gt;\n||+ TimeStamp()\l+ TimeStamp()\l+ getTimeStamp()\l+ setTimeStamp()\l+ operator==()\l}">
<polygon fill="none" stroke="black" points="444.5,-394 444.5,-506 585.5,-506 585.5,-394 444.5,-394"/>
<text text-anchor="start" x="452.5" y="-494" font-family="Helvetica,sans-Serif" font-size="10.00">o2::dataformats::TimeStamp</text>
<text text-anchor="middle" x="515" y="-483" font-family="Helvetica,sans-Serif" font-size="10.00">&lt; double &gt;</text>
<polyline fill="none" stroke="black" points="444.5,-476 585.5,-476 "/>
<text text-anchor="middle" x="515" y="-464" font-family="Helvetica,sans-Serif" font-size="10.00"> </text>
<polyline fill="none" stroke="black" points="444.5,-457 585.5,-457 "/>
<text text-anchor="start" x="452.5" y="-445" font-family="Helvetica,sans-Serif" font-size="10.00">+ TimeStamp()</text>
<text text-anchor="start" x="452.5" y="-434" font-family="Helvetica,sans-Serif" font-size="10.00">+ TimeStamp()</text>
<text text-anchor="start" x="452.5" y="-423" font-family="Helvetica,sans-Serif" font-size="10.00">+ getTimeStamp()</text>
<text text-anchor="start" x="452.5" y="-412" font-family="Helvetica,sans-Serif" font-size="10.00">+ setTimeStamp()</text>
<text text-anchor="start" x="452.5" y="-401" font-family="Helvetica,sans-Serif" font-size="10.00">+ operator==()</text>
</a>
</g>
</g>
<!-- Node1&#45;&gt;Node6 -->
<g id="edge5" class="edge"><title>Node1&#45;&gt;Node6</title>
<path fill="none" stroke="orange" d="M389.773,-581.63C404.978,-568.327 420.803,-553.947 435,-540 445.819,-529.371 456.973,-517.567 467.391,-506.123"/>
<polygon fill="orange" stroke="orange" points="387.143,-579.279 381.891,-588.481 391.734,-584.563 387.143,-579.279"/>
<text text-anchor="middle" x="440" y="-561.5" font-family="Helvetica,sans-Serif" font-size="10.00"> &lt; double &gt;</text>
</g>
<!-- Node10 -->
<g id="node10" class="node"><title>Node10</title>
<g id="a_node10"><a xlink:href="../../d0/d94/classo2_1_1dataformats_1_1TimeStamp.html" target="_top" xlink:title="{o2::dataformats::TimeStamp\l\&lt; float \&gt;\n||+ TimeStamp()\l+ TimeStamp()\l+ getTimeStamp()\l+ setTimeStamp()\l+ operator==()\l}">
<polygon fill="none" stroke="black" points="158.5,-394 158.5,-506 299.5,-506 299.5,-394 158.5,-394"/>
<text text-anchor="start" x="166.5" y="-494" font-family="Helvetica,sans-Serif" font-size="10.00">o2::dataformats::TimeStamp</text>
<text text-anchor="middle" x="229" y="-483" font-family="Helvetica,sans-Serif" font-size="10.00">&lt; float &gt;</text>
<polyline fill="none" stroke="black" points="158.5,-476 299.5,-476 "/>
<text text-anchor="middle" x="229" y="-464" font-family="Helvetica,sans-Serif" font-size="10.00"> </text>
<polyline fill="none" stroke="black" points="158.5,-457 299.5,-457 "/>
<text text-anchor="start" x="166.5" y="-445" font-family="Helvetica,sans-Serif" font-size="10.00">+ TimeStamp()</text>
<text text-anchor="start" x="166.5" y="-434" font-family="Helvetica,sans-Serif" font-size="10.00">+ TimeStamp()</text>
<text text-anchor="start" x="166.5" y="-423" font-family="Helvetica,sans-Serif" font-size="10.00">+ getTimeStamp()</text>
<text text-anchor="start" x="166.5" y="-412" font-family="Helvetica,sans-Serif" font-size="10.00">+ setTimeStamp()</text>
<text text-anchor="start" x="166.5" y="-401" font-family="Helvetica,sans-Serif" font-size="10.00">+ operator==()</text>
</a>
</g>
</g>
<!-- Node1&#45;&gt;Node10 -->
<g id="edge9" class="edge"><title>Node1&#45;&gt;Node10</title>
<path fill="none" stroke="orange" d="M292.79,-579.265C281.164,-555.89 267.858,-529.134 256.417,-506.128"/>
<polygon fill="orange" stroke="orange" points="289.735,-580.983 297.322,-588.378 296.003,-577.866 289.735,-580.983"/>
<text text-anchor="middle" x="307" y="-561.5" font-family="Helvetica,sans-Serif" font-size="10.00"> &lt; float &gt;</text>
</g>
<!-- Node3 -->
<g id="node3" class="node"><title>Node3</title>
<g id="a_node3"><a xlink:href="../../de/dd5/classo2_1_1TPC_1_1Cluster.html" target="_top" xlink:title="Cluster class for the TPC. ">
<polygon fill="none" stroke="black" points="9,-50.5 9,-261.5 131,-261.5 131,-50.5 9,-50.5"/>
<text text-anchor="start" x="17" y="-249.5" font-family="Helvetica,sans-Serif" font-size="10.00">o2::TPC::Cluster&lt; float,</text>
<text text-anchor="middle" x="70" y="-238.5" font-family="Helvetica,sans-Serif" font-size="10.00"> float &gt;</text>
<polyline fill="none" stroke="black" points="9,-231.5 131,-231.5 "/>
<text text-anchor="middle" x="70" y="-219.5" font-family="Helvetica,sans-Serif" font-size="10.00"> </text>
<polyline fill="none" stroke="black" points="9,-212.5 131,-212.5 "/>
<text text-anchor="start" x="17" y="-200.5" font-family="Helvetica,sans-Serif" font-size="10.00">+ Cluster()</text>
<text text-anchor="start" x="17" y="-189.5" font-family="Helvetica,sans-Serif" font-size="10.00">+ Cluster()</text>
<text text-anchor="start" x="17" y="-178.5" font-family="Helvetica,sans-Serif" font-size="10.00">+ ~Cluster()</text>
<text text-anchor="start" x="17" y="-167.5" font-family="Helvetica,sans-Serif" font-size="10.00">+ Cluster()</text>
<text text-anchor="start" x="17" y="-156.5" font-family="Helvetica,sans-Serif" font-size="10.00">+ setParameters()</text>
<text text-anchor="start" x="17" y="-145.5" font-family="Helvetica,sans-Serif" font-size="10.00">+ getCRU()</text>
<text text-anchor="start" x="17" y="-134.5" font-family="Helvetica,sans-Serif" font-size="10.00">+ getRow()</text>
<text text-anchor="start" x="17" y="-123.5" font-family="Helvetica,sans-Serif" font-size="10.00">+ getQ()</text>
<text text-anchor="start" x="17" y="-112.5" font-family="Helvetica,sans-Serif" font-size="10.00">+ getQmax()</text>
<text text-anchor="start" x="17" y="-101.5" font-family="Helvetica,sans-Serif" font-size="10.00">+ getPadMean()</text>
<text text-anchor="start" x="17" y="-90.5" font-family="Helvetica,sans-Serif" font-size="10.00">+ getTimeMean()</text>
<text text-anchor="start" x="17" y="-79.5" font-family="Helvetica,sans-Serif" font-size="10.00">+ getPadSigma()</text>
<text text-anchor="start" x="17" y="-68.5" font-family="Helvetica,sans-Serif" font-size="10.00">+ getTimeSigma()</text>
<text text-anchor="start" x="17" y="-57.5" font-family="Helvetica,sans-Serif" font-size="10.00"># print()</text>
</a>
</g>
</g>
<!-- Node2&#45;&gt;Node3 -->
<g id="edge2" class="edge"><title>Node2&#45;&gt;Node3</title>
<path fill="none" stroke="midnightblue" d="M70,-389.425C70,-352.705 70,-304.588 70,-261.666"/>
<polygon fill="none" stroke="midnightblue" points="66.5001,-389.466 70,-399.466 73.5001,-389.466 66.5001,-389.466"/>
</g>
<!-- Node4 -->
<g id="node4" class="node"><title>Node4</title>
<g id="a_node4"><a xlink:href="../../d3/dbf/classo2_1_1dataformats_1_1TimeStampWithError.html" target="_top" xlink:title="{o2::dataformats::TimeStamp\lWithError\&lt; float, float \&gt;\n||+ TimeStampWithError()\l+ TimeStampWithError()\l+ getTimeStampError()\l+ setTimeStampError()\l}">
<polygon fill="none" stroke="black" points="152.5,-105.5 152.5,-206.5 293.5,-206.5 293.5,-105.5 152.5,-105.5"/>
<text text-anchor="start" x="160.5" y="-194.5" font-family="Helvetica,sans-Serif" font-size="10.00">o2::dataformats::TimeStamp</text>
<text text-anchor="middle" x="223" y="-183.5" font-family="Helvetica,sans-Serif" font-size="10.00">WithError&lt; float, float &gt;</text>
<polyline fill="none" stroke="black" points="152.5,-176.5 293.5,-176.5 "/>
<text text-anchor="middle" x="223" y="-164.5" font-family="Helvetica,sans-Serif" font-size="10.00"> </text>
<polyline fill="none" stroke="black" points="152.5,-157.5 293.5,-157.5 "/>
<text text-anchor="start" x="160.5" y="-145.5" font-family="Helvetica,sans-Serif" font-size="10.00">+ TimeStampWithError()</text>
<text text-anchor="start" x="160.5" y="-134.5" font-family="Helvetica,sans-Serif" font-size="10.00">+ TimeStampWithError()</text>
<text text-anchor="start" x="160.5" y="-123.5" font-family="Helvetica,sans-Serif" font-size="10.00">+ getTimeStampError()</text>
<text text-anchor="start" x="160.5" y="-112.5" font-family="Helvetica,sans-Serif" font-size="10.00">+ setTimeStampError()</text>
</a>
</g>
</g>
<!-- Node2&#45;&gt;Node4 -->
<g id="edge3" class="edge"><title>Node2&#45;&gt;Node4</title>
<path fill="none" stroke="orange" d="M100.713,-390.384C128.923,-336.546 170.275,-257.625 196.918,-206.777"/>
<polygon fill="orange" stroke="orange" points="97.4954,-388.984 95.9544,-399.466 103.696,-392.233 97.4954,-388.984"/>
<text text-anchor="middle" x="161.5" y="-333.5" font-family="Helvetica,sans-Serif" font-size="10.00"> &lt; float, float &gt;</text>
</g>
<!-- Node7 -->
<g id="node7" class="node"><title>Node7</title>
<g id="a_node7"><a xlink:href="../../d5/d5a/classo2_1_1EMCAL_1_1Digit.html" target="_top" xlink:title="EMCAL digit implementation. ">
<polygon fill="none" stroke="black" points="340,-67 340,-245 434,-245 434,-67 340,-67"/>
<text text-anchor="middle" x="387" y="-233" font-family="Helvetica,sans-Serif" font-size="10.00">o2::EMCAL::Digit</text>
<polyline fill="none" stroke="black" points="340,-226 434,-226 "/>
<text text-anchor="middle" x="387" y="-214" font-family="Helvetica,sans-Serif" font-size="10.00"> </text>
<polyline fill="none" stroke="black" points="340,-207 434,-207 "/>
<text text-anchor="start" x="348" y="-195" font-family="Helvetica,sans-Serif" font-size="10.00">+ Digit()</text>
<text text-anchor="start" x="348" y="-184" font-family="Helvetica,sans-Serif" font-size="10.00">+ Digit()</text>
<text text-anchor="start" x="348" y="-173" font-family="Helvetica,sans-Serif" font-size="10.00">+ ~Digit()</text>
<text text-anchor="start" x="348" y="-162" font-family="Helvetica,sans-Serif" font-size="10.00">+ operator&lt;()</text>
<text text-anchor="start" x="348" y="-151" font-family="Helvetica,sans-Serif" font-size="10.00">+ operator&gt;()</text>
<text text-anchor="start" x="348" y="-140" font-family="Helvetica,sans-Serif" font-size="10.00">+ canAdd()</text>
<text text-anchor="start" x="348" y="-129" font-family="Helvetica,sans-Serif" font-size="10.00">+ operator+=()</text>
<text text-anchor="start" x="348" y="-118" font-family="Helvetica,sans-Serif" font-size="10.00">+ GetTower()</text>
<text text-anchor="start" x="348" y="-107" font-family="Helvetica,sans-Serif" font-size="10.00">+ SetTower()</text>
<text text-anchor="start" x="348" y="-96" font-family="Helvetica,sans-Serif" font-size="10.00">+ GetAmplitude()</text>
<text text-anchor="start" x="348" y="-85" font-family="Helvetica,sans-Serif" font-size="10.00">+ SetAmplitude()</text>
<text text-anchor="start" x="348" y="-74" font-family="Helvetica,sans-Serif" font-size="10.00">+ PrintStream()</text>
</a>
</g>
</g>
<!-- Node6&#45;&gt;Node7 -->
<g id="edge6" class="edge"><title>Node6&#45;&gt;Node7</title>
<path fill="none" stroke="midnightblue" d="M479.038,-384.996C466.898,-362.277 453.719,-336.309 443,-312 433.592,-290.663 424.498,-267.202 416.473,-245.132"/>
<polygon fill="none" stroke="midnightblue" points="475.988,-386.714 483.81,-393.861 482.152,-383.396 475.988,-386.714"/>
</g>
<!-- Node8 -->
<g id="node8" class="node"><title>Node8</title>
<g id="a_node8"><a xlink:href="../../d0/dd8/classo2_1_1ITSMFT_1_1Digit.html" target="_top" xlink:title="Digit class for the ITS. ">
<polygon fill="none" stroke="black" points="452.5,-1 452.5,-311 577.5,-311 577.5,-1 452.5,-1"/>
<text text-anchor="middle" x="515" y="-299" font-family="Helvetica,sans-Serif" font-size="10.00">o2::ITSMFT::Digit</text>
<polyline fill="none" stroke="black" points="452.5,-292 577.5,-292 "/>
<text text-anchor="start" x="460.5" y="-280" font-family="Helvetica,sans-Serif" font-size="10.00">+ maxLabels</text>
<polyline fill="none" stroke="black" points="452.5,-273 577.5,-273 "/>
<text text-anchor="start" x="460.5" y="-261" font-family="Helvetica,sans-Serif" font-size="10.00">+ Digit()</text>
<text text-anchor="start" x="460.5" y="-250" font-family="Helvetica,sans-Serif" font-size="10.00">+ Digit()</text>
<text text-anchor="start" x="460.5" y="-239" font-family="Helvetica,sans-Serif" font-size="10.00">+ ~Digit()</text>
<text text-anchor="start" x="460.5" y="-228" font-family="Helvetica,sans-Serif" font-size="10.00">+ operator+()</text>
<text text-anchor="start" x="460.5" y="-217" font-family="Helvetica,sans-Serif" font-size="10.00">+ operator+=()</text>
<text text-anchor="start" x="460.5" y="-206" font-family="Helvetica,sans-Serif" font-size="10.00">+ getChipIndex()</text>
<text text-anchor="start" x="460.5" y="-195" font-family="Helvetica,sans-Serif" font-size="10.00">+ getColumn()</text>
<text text-anchor="start" x="460.5" y="-184" font-family="Helvetica,sans-Serif" font-size="10.00">+ getRow()</text>
<text text-anchor="start" x="460.5" y="-173" font-family="Helvetica,sans-Serif" font-size="10.00">+ getCharge()</text>
<text text-anchor="start" x="460.5" y="-162" font-family="Helvetica,sans-Serif" font-size="10.00">+ getLabel()</text>
<text text-anchor="start" x="460.5" y="-151" font-family="Helvetica,sans-Serif" font-size="10.00">+ setLabel()</text>
<text text-anchor="start" x="460.5" y="-140" font-family="Helvetica,sans-Serif" font-size="10.00">+ setLabel()</text>
<text text-anchor="start" x="460.5" y="-129" font-family="Helvetica,sans-Serif" font-size="10.00">+ setChipIndex()</text>
<text text-anchor="start" x="460.5" y="-118" font-family="Helvetica,sans-Serif" font-size="10.00">+ setPixelIndex()</text>
<text text-anchor="start" x="460.5" y="-107" font-family="Helvetica,sans-Serif" font-size="10.00">+ setCharge()</text>
<text text-anchor="start" x="460.5" y="-96" font-family="Helvetica,sans-Serif" font-size="10.00">+ addCharge()</text>
<text text-anchor="start" x="460.5" y="-85" font-family="Helvetica,sans-Serif" font-size="10.00">+ getROFrame()</text>
<text text-anchor="start" x="460.5" y="-74" font-family="Helvetica,sans-Serif" font-size="10.00">+ getNOverflowFrames()</text>
<text text-anchor="start" x="460.5" y="-63" font-family="Helvetica,sans-Serif" font-size="10.00">+ setROFrame()</text>
<text text-anchor="start" x="460.5" y="-52" font-family="Helvetica,sans-Serif" font-size="10.00">+ setNOverflowFrames()</text>
<text text-anchor="start" x="460.5" y="-41" font-family="Helvetica,sans-Serif" font-size="10.00">+ operator&lt;()</text>
<text text-anchor="start" x="460.5" y="-30" font-family="Helvetica,sans-Serif" font-size="10.00">+ print()</text>
<text text-anchor="start" x="460.5" y="-19" font-family="Helvetica,sans-Serif" font-size="10.00">+ getOrderingKey()</text>
<text text-anchor="start" x="460.5" y="-8" font-family="Helvetica,sans-Serif" font-size="10.00">+ key2ROFrame()</text>
</a>
</g>
</g>
<!-- Node6&#45;&gt;Node8 -->
<g id="edge7" class="edge"><title>Node6&#45;&gt;Node8</title>
<path fill="none" stroke="midnightblue" d="M515,-383.682C515,-361.948 515,-336.737 515,-311.19"/>
<polygon fill="none" stroke="midnightblue" points="511.5,-383.734 515,-393.734 518.5,-383.734 511.5,-383.734"/>
</g>
<!-- Node9 -->
<g id="node9" class="node"><title>Node9</title>
<g id="a_node9"><a xlink:href="../../d8/db4/classo2_1_1tof_1_1Digit.html" target="_top" xlink:title="TOF digit implementation. ">
<polygon fill="none" stroke="black" points="596,-67 596,-245 678,-245 678,-67 596,-67"/>
<text text-anchor="middle" x="637" y="-233" font-family="Helvetica,sans-Serif" font-size="10.00">o2::tof::Digit</text>
<polyline fill="none" stroke="black" points="596,-226 678,-226 "/>
<text text-anchor="middle" x="637" y="-214" font-family="Helvetica,sans-Serif" font-size="10.00"> </text>
<polyline fill="none" stroke="black" points="596,-207 678,-207 "/>
<text text-anchor="start" x="604" y="-195" font-family="Helvetica,sans-Serif" font-size="10.00">+ Digit()</text>
<text text-anchor="start" x="604" y="-184" font-family="Helvetica,sans-Serif" font-size="10.00">+ Digit()</text>
<text text-anchor="start" x="604" y="-173" font-family="Helvetica,sans-Serif" font-size="10.00">+ ~Digit()</text>
<text text-anchor="start" x="604" y="-162" font-family="Helvetica,sans-Serif" font-size="10.00">+ getChannel()</text>
<text text-anchor="start" x="604" y="-151" font-family="Helvetica,sans-Serif" font-size="10.00">+ setChannel()</text>
<text text-anchor="start" x="604" y="-140" font-family="Helvetica,sans-Serif" font-size="10.00">+ getTDC()</text>
<text text-anchor="start" x="604" y="-129" font-family="Helvetica,sans-Serif" font-size="10.00">+ setTDC()</text>
<text text-anchor="start" x="604" y="-118" font-family="Helvetica,sans-Serif" font-size="10.00">+ getTOT()</text>
<text text-anchor="start" x="604" y="-107" font-family="Helvetica,sans-Serif" font-size="10.00">+ setTOT()</text>
<text text-anchor="start" x="604" y="-96" font-family="Helvetica,sans-Serif" font-size="10.00">+ getBC()</text>
<text text-anchor="start" x="604" y="-85" font-family="Helvetica,sans-Serif" font-size="10.00">+ setBC()</text>
<text text-anchor="start" x="604" y="-74" font-family="Helvetica,sans-Serif" font-size="10.00">+ printStream()</text>
</a>
</g>
</g>
<!-- Node6&#45;&gt;Node9 -->
<g id="edge8" class="edge"><title>Node6&#45;&gt;Node9</title>
<path fill="none" stroke="midnightblue" d="M550.805,-385.119C562.807,-362.41 575.734,-336.417 586,-312 594.949,-290.717 603.368,-267.275 610.689,-245.207"/>
<polygon fill="none" stroke="midnightblue" points="547.699,-383.506 546.083,-393.977 553.876,-386.799 547.699,-383.506"/>
</g>
<!-- Node10&#45;&gt;Node4 -->
<g id="edge10" class="edge"><title>Node10&#45;&gt;Node4</title>
<path fill="none" stroke="midnightblue" d="M227.657,-383.655C226.557,-330.103 225.023,-255.454 224.021,-206.688"/>
<polygon fill="none" stroke="midnightblue" points="224.16,-383.808 227.864,-393.734 231.158,-383.664 224.16,-383.808"/>
</g>
</g>
</svg>
        <g id="navigator" transform="translate(0 0)" fill="#404254">
                <rect fill="#f2f5e9" fill-opacity="0.5" stroke="#606060" stroke-width=".5" x="0" y="0" width="60" height="60"/>
                <use id="zoomplus" xlink:href="#zoomPlus" x="17" y="9" onmousedown="handleZoom(evt,'in')"/>
                <use id="zoomminus" xlink:href="#zoomMin" x="42" y="9" onmousedown="handleZoom(evt,'out')"/>
                <use id="reset" xlink:href="#resetDef" x="30" y="36" onmousedown="handleReset()"/>
                <g id="arrowUp" xlink:href="#dirArrow" transform="translate(30 24)" onmousedown="handlePan(0,-1)">
                  <use xlink:href="#rim" fill="#404040">
                        <set attributeName="fill" to="#808080" begin="arrowUp.mouseover" end="arrowUp.mouseout"/>
                  </use>
                  <path fill="none" stroke="white" stroke-width="1.5" d="M0,-3.0v7 M-2.5,-0.5L0,-3.0L2.5,-0.5"/>
                </g>
                <g id="arrowRight" xlink:href="#dirArrow" transform="rotate(90) translate(36 -43)" onmousedown="handlePan(1,0)">
                  <use xlink:href="#rim" fill="#404040">
                        <set attributeName="fill" to="#808080" begin="arrowRight.mouseover" end="arrowRight.mouseout"/>
                  </use>
                  <path fill="none" stroke="white" stroke-width="1.5" d="M0,-3.0v7 M-2.5,-0.5L0,-3.0L2.5,-0.5"/>
                </g>
                <g id="arrowDown" xlink:href="#dirArrow" transform="rotate(180) translate(-30 -48)" onmousedown="handlePan(0,1)">
                  <use xlink:href="#rim" fill="#404040">
                        <set attributeName="fill" to="#808080" begin="arrowDown.mouseover" end="arrowDown.mouseout"/>
                  </use>
                  <path fill="none" stroke="white" stroke-width="1.5" d="M0,-3.0v7 M-2.5,-0.5L0,-3.0L2.5,-0.5"/>
                </g>
                <g id="arrowLeft" xlink:href="#dirArrow" transform="rotate(270) translate(-36 17)" onmousedown="handlePan(-1,0)">
                  <use xlink:href="#rim" fill="#404040">
                        <set attributeName="fill" to="#808080" begin="arrowLeft.mouseover" end="arrowLeft.mouseout"/>
                  </use>
                  <path fill="none" stroke="white" stroke-width="1.5" d="M0,-3.0v7 M-2.5,-0.5L0,-3.0L2.5,-0.5"/>
                </g>
        </g>
        <svg viewBox="0 0 15 15" width="100%" height="30px" preserveAspectRatio="xMaxYMin meet">
         <g id="arrow_out" transform="scale(0.3 0.3)">
          <a xlink:href="classo2_1_1dataformats_1_1TimeStamp__inherit__graph_org.svg" target="_base">
           <rect id="button" ry="5" rx="5" y="6" x="6" height="38" width="38"
                fill="#f2f5e9" fill-opacity="0.5" stroke="#606060" stroke-width="1.0"/>
           <path id="arrow"
             d="M 11.500037,31.436501 C 11.940474,20.09759 22.043105,11.32322 32.158766,21.979434 L 37.068811,17.246167 C 37.068811,17.246167 37.088388,32 37.088388,32 L 22.160133,31.978069 C 22.160133,31.978069 26.997745,27.140456 26.997745,27.140456 C 18.528582,18.264221 13.291696,25.230495 11.500037,31.436501 z"
             style="fill:#404040;"/>
          </a>
         </g>
        </svg>
</svg>
