<?xml version="1.0" encoding="UTF-8" standalone="no"?>
<!DOCTYPE svg PUBLIC "-//W3C//DTD SVG 1.1//EN"
 "http://www.w3.org/Graphics/SVG/1.1/DTD/svg11.dtd">
<!-- Generated by graphviz version 2.36.0 (20140111.2315)
 -->
<!-- Title: /home/travis/build/AliceO2Group/AliceO2/Detectors/ITSMFT/ITS/reconstruction/include/ITSReconstruction/CA/TrackingUtils.h Pages: 1 -->
<svg width="482pt" height="400pt"
 viewBox="0.00 0.00 482.43 400.00" xmlns="http://www.w3.org/2000/svg" xmlns:xlink="http://www.w3.org/1999/xlink">
<g id="graph0" class="graph" transform="scale(1 1) rotate(0) translate(4 396)">
<title>/home/travis/build/AliceO2Group/AliceO2/Detectors/ITSMFT/ITS/reconstruction/include/ITSReconstruction/CA/TrackingUtils.h</title>
<!-- Node1 -->
<g id="node1" class="node"><title>Node1</title>
<polygon fill="#bfbfbf" stroke="black" points="286.429,-328.5 286.429,-391.5 474.429,-391.5 474.429,-328.5 286.429,-328.5"/>
<text text-anchor="start" x="294.429" y="-379.5" font-family="Helvetica,sans-Serif" font-size="10.00">/home/travis/build</text>
<text text-anchor="start" x="294.429" y="-368.5" font-family="Helvetica,sans-Serif" font-size="10.00">/AliceO2Group/AliceO2</text>
<text text-anchor="start" x="294.429" y="-357.5" font-family="Helvetica,sans-Serif" font-size="10.00">/Detectors/ITSMFT/ITS</text>
<text text-anchor="start" x="294.429" y="-346.5" font-family="Helvetica,sans-Serif" font-size="10.00">/reconstruction/include</text>
<text text-anchor="middle" x="380.429" y="-335.5" font-family="Helvetica,sans-Serif" font-size="10.00">/ITSReconstruction/CA/TrackingUtils.h</text>
</g>
<!-- Node2 -->
<g id="node2" class="node"><title>Node2</title>
<g id="a_node2"><a xlink:href="../../d6/d7c/Detectors_2ITSMFT_2ITS_2reconstruction_2include_2ITSReconstruction_2CA_2Cluster_8h.html" target="_top" xlink:title="ITSReconstruction/CA\l/Cluster.h">
<polygon fill="none" stroke="black" points="229.429,-261 229.429,-291 345.429,-291 345.429,-261 229.429,-261"/>
<text text-anchor="start" x="237.429" y="-279" font-family="Helvetica,sans-Serif" font-size="10.00">ITSReconstruction/CA</text>
<text text-anchor="middle" x="287.429" y="-268" font-family="Helvetica,sans-Serif" font-size="10.00">/Cluster.h</text>
</a>
</g>
</g>
<!-- Node1&#45;&gt;Node2 -->
<g id="edge1" class="edge"><title>Node1&#45;&gt;Node2</title>
<path fill="none" stroke="midnightblue" d="M345.8,-328.466C334.277,-318.306 321.712,-307.227 311.201,-297.96"/>
<polygon fill="midnightblue" stroke="midnightblue" points="313.431,-295.26 303.615,-291.272 308.801,-300.51 313.431,-295.26"/>
</g>
<!-- Node4 -->
<g id="node4" class="node"><title>Node4</title>
<g id="a_node4"><a xlink:href="../../df/d3d/Definitions_8h.html" target="_top" xlink:title="ITSReconstruction/CA\l/Definitions.h">
<polygon fill="none" stroke="black" points="339.429,-57 339.429,-87 455.429,-87 455.429,-57 339.429,-57"/>
<text text-anchor="start" x="347.429" y="-75" font-family="Helvetica,sans-Serif" font-size="10.00">ITSReconstruction/CA</text>
<text text-anchor="middle" x="397.429" y="-64" font-family="Helvetica,sans-Serif" font-size="10.00">/Definitions.h</text>
</a>
</g>
</g>
<!-- Node1&#45;&gt;Node4 -->
<g id="edge17" class="edge"><title>Node1&#45;&gt;Node4</title>
<path fill="none" stroke="midnightblue" d="M391.548,-328.495C406.456,-283.593 429.607,-197.116 416.429,-124 414.767,-114.777 411.541,-105.045 408.212,-96.5824"/>
<polygon fill="midnightblue" stroke="midnightblue" points="411.433,-95.2128 404.344,-87.3385 404.975,-97.9146 411.433,-95.2128"/>
</g>
<!-- Node3 -->
<g id="node3" class="node"><title>Node3</title>
<polygon fill="none" stroke="#bfbfbf" points="103.429,-0.5 103.429,-19.5 141.429,-19.5 141.429,-0.5 103.429,-0.5"/>
<text text-anchor="middle" x="122.429" y="-7.5" font-family="Helvetica,sans-Serif" font-size="10.00">array</text>
</g>
<!-- Node2&#45;&gt;Node3 -->
<g id="edge2" class="edge"><title>Node2&#45;&gt;Node3</title>
<path fill="none" stroke="midnightblue" d="M229.179,-269.952C164.346,-263.184 65.0421,-249.024 37.4293,-224 -17.9137,-173.846 -7.14153,-112.737 41.4293,-56 55.2468,-39.8592 76.3675,-28.3952 93.5775,-21.0786"/>
<polygon fill="midnightblue" stroke="midnightblue" points="95.1852,-24.2054 103.174,-17.2459 92.5889,-17.7046 95.1852,-24.2054"/>
</g>
<!-- Node2&#45;&gt;Node4 -->
<g id="edge3" class="edge"><title>Node2&#45;&gt;Node4</title>
<path fill="none" stroke="midnightblue" d="M310.089,-260.721C338.422,-241.212 384.964,-203.199 399.429,-156 405.284,-136.895 404.212,-114.141 401.997,-97.2936"/>
<polygon fill="midnightblue" stroke="midnightblue" points="405.42,-96.5235 400.438,-87.1728 398.501,-97.5891 405.42,-96.5235"/>
</g>
<!-- Node5 -->
<g id="node5" class="node"><title>Node5</title>
<g id="a_node5"><a xlink:href="../../dc/d3e/MathUtils_8h.html" target="_top" xlink:title="ITSReconstruction/CA\l/MathUtils.h">
<polygon fill="none" stroke="black" points="46.4293,-193 46.4293,-223 162.429,-223 162.429,-193 46.4293,-193"/>
<text text-anchor="start" x="54.4293" y="-211" font-family="Helvetica,sans-Serif" font-size="10.00">ITSReconstruction/CA</text>
<text text-anchor="middle" x="104.429" y="-200" font-family="Helvetica,sans-Serif" font-size="10.00">/MathUtils.h</text>
</a>
</g>
</g>
<!-- Node2&#45;&gt;Node5 -->
<g id="edge5" class="edge"><title>Node2&#45;&gt;Node5</title>
<path fill="none" stroke="midnightblue" d="M248.171,-260.841C220.336,-250.802 182.801,-237.265 153.067,-226.542"/>
<polygon fill="midnightblue" stroke="midnightblue" points="153.902,-223.122 143.308,-223.022 151.527,-229.707 153.902,-223.122"/>
</g>
<!-- Node9 -->
<g id="node9" class="node"><title>Node9</title>
<g id="a_node9"><a xlink:href="../../d2/d0c/IndexTableUtils_8h.html" target="_top" xlink:title="ITSReconstruction/CA\l/IndexTableUtils.h">
<polygon fill="none" stroke="black" points="229.429,-193 229.429,-223 345.429,-223 345.429,-193 229.429,-193"/>
<text text-anchor="start" x="237.429" y="-211" font-family="Helvetica,sans-Serif" font-size="10.00">ITSReconstruction/CA</text>
<text text-anchor="middle" x="287.429" y="-200" font-family="Helvetica,sans-Serif" font-size="10.00">/IndexTableUtils.h</text>
</a>
</g>
</g>
<!-- Node2&#45;&gt;Node9 -->
<g id="edge11" class="edge"><title>Node2&#45;&gt;Node9</title>
<path fill="none" stroke="midnightblue" d="M287.429,-260.679C287.429,-252.722 287.429,-242.605 287.429,-233.436"/>
<polygon fill="midnightblue" stroke="midnightblue" points="290.929,-233.293 287.429,-223.293 283.929,-233.293 290.929,-233.293"/>
</g>
<!-- Node4&#45;&gt;Node3 -->
<g id="edge4" class="edge"><title>Node4&#45;&gt;Node3</title>
<path fill="none" stroke="midnightblue" d="M339.109,-58.2755C281.454,-45.6963 195.624,-26.9698 151.277,-17.294"/>
<polygon fill="midnightblue" stroke="midnightblue" points="151.963,-13.8614 141.446,-15.1492 150.471,-20.7005 151.963,-13.8614"/>
</g>
<!-- Node5&#45;&gt;Node3 -->
<g id="edge6" class="edge"><title>Node5&#45;&gt;Node3</title>
<path fill="none" stroke="midnightblue" d="M67.0639,-192.955C50.9039,-184.795 33.6168,-172.753 24.4293,-156 17.5905,-143.53 19.4563,-137.324 24.4293,-124 40.0372,-82.181 78.8679,-45.5754 102.699,-26.0359"/>
<polygon fill="midnightblue" stroke="midnightblue" points="105.094,-28.6029 110.729,-19.6312 100.729,-23.1303 105.094,-28.6029"/>
</g>
<!-- Node6 -->
<g id="node6" class="node"><title>Node6</title>
<polygon fill="none" stroke="#bfbfbf" points="33.4293,-130.5 33.4293,-149.5 77.4293,-149.5 77.4293,-130.5 33.4293,-130.5"/>
<text text-anchor="middle" x="55.4293" y="-137.5" font-family="Helvetica,sans-Serif" font-size="10.00">cmath</text>
</g>
<!-- Node5&#45;&gt;Node6 -->
<g id="edge7" class="edge"><title>Node5&#45;&gt;Node6</title>
<path fill="none" stroke="midnightblue" d="M93.7971,-192.679C86.2325,-182.49 76.0381,-168.759 68.0589,-158.011"/>
<polygon fill="midnightblue" stroke="midnightblue" points="70.7549,-155.771 61.9837,-149.828 65.1345,-159.944 70.7549,-155.771"/>
</g>
<!-- Node7 -->
<g id="node7" class="node"><title>Node7</title>
<g id="a_node7"><a xlink:href="../../d5/d20/Detectors_2ITSMFT_2ITS_2reconstruction_2include_2ITSReconstruction_2CA_2Constants_8h.html" target="_top" xlink:title="ITSReconstruction/CA\l/Constants.h">
<polygon fill="none" stroke="black" points="95.4293,-125 95.4293,-155 211.429,-155 211.429,-125 95.4293,-125"/>
<text text-anchor="start" x="103.429" y="-143" font-family="Helvetica,sans-Serif" font-size="10.00">ITSReconstruction/CA</text>
<text text-anchor="middle" x="153.429" y="-132" font-family="Helvetica,sans-Serif" font-size="10.00">/Constants.h</text>
</a>
</g>
</g>
<!-- Node5&#45;&gt;Node7 -->
<g id="edge8" class="edge"><title>Node5&#45;&gt;Node7</title>
<path fill="none" stroke="midnightblue" d="M115.062,-192.679C121.418,-184.117 129.632,-173.053 136.828,-163.36"/>
<polygon fill="midnightblue" stroke="midnightblue" points="139.667,-165.409 142.818,-155.293 134.047,-161.236 139.667,-165.409"/>
</g>
<!-- Node7&#45;&gt;Node4 -->
<g id="edge10" class="edge"><title>Node7&#45;&gt;Node4</title>
<path fill="none" stroke="midnightblue" d="M205.474,-124.922C243.618,-114.605 295.541,-100.56 335.767,-89.6791"/>
<polygon fill="midnightblue" stroke="midnightblue" points="336.725,-93.0458 345.464,-87.0561 334.897,-86.2886 336.725,-93.0458"/>
</g>
<!-- Node8 -->
<g id="node8" class="node"><title>Node8</title>
<polygon fill="none" stroke="#bfbfbf" points="130.929,-62.5 130.929,-81.5 175.929,-81.5 175.929,-62.5 130.929,-62.5"/>
<text text-anchor="middle" x="153.429" y="-69.5" font-family="Helvetica,sans-Serif" font-size="10.00">climits</text>
</g>
<!-- Node7&#45;&gt;Node8 -->
<g id="edge9" class="edge"><title>Node7&#45;&gt;Node8</title>
<path fill="none" stroke="midnightblue" d="M153.429,-124.679C153.429,-115.101 153.429,-102.394 153.429,-91.9766"/>
<polygon fill="midnightblue" stroke="midnightblue" points="156.929,-91.8283 153.429,-81.8283 149.929,-91.8283 156.929,-91.8283"/>
</g>
<!-- Node9&#45;&gt;Node3 -->
<g id="edge12" class="edge"><title>Node9&#45;&gt;Node3</title>
<path fill="none" stroke="midnightblue" d="M278.595,-192.747C257.98,-159.715 206.759,-78.9918 184.429,-56 172.872,-44.0998 157.859,-33.1135 145.501,-24.9754"/>
<polygon fill="midnightblue" stroke="midnightblue" points="147.37,-22.0164 137.059,-19.5807 143.601,-27.9148 147.37,-22.0164"/>
</g>
<!-- Node9&#45;&gt;Node4 -->
<g id="edge16" class="edge"><title>Node9&#45;&gt;Node4</title>
<path fill="none" stroke="midnightblue" d="M327.489,-192.851C345.236,-184.668 364.891,-172.637 377.429,-156 390.21,-139.042 394.95,-115.07 396.645,-97.2453"/>
<polygon fill="midnightblue" stroke="midnightblue" points="400.151,-97.2776 397.353,-87.0592 393.168,-96.7927 400.151,-97.2776"/>
</g>
<!-- Node9&#45;&gt;Node7 -->
<g id="edge15" class="edge"><title>Node9&#45;&gt;Node7</title>
<path fill="none" stroke="midnightblue" d="M258.683,-192.841C238.988,-183.141 212.662,-170.174 191.266,-159.636"/>
<polygon fill="midnightblue" stroke="midnightblue" points="192.646,-156.414 182.128,-155.135 189.553,-162.694 192.646,-156.414"/>
</g>
<!-- Node10 -->
<g id="node10" class="node"><title>Node10</title>
<polygon fill="none" stroke="#bfbfbf" points="267.429,-130.5 267.429,-149.5 307.429,-149.5 307.429,-130.5 267.429,-130.5"/>
<text text-anchor="middle" x="287.429" y="-137.5" font-family="Helvetica,sans-Serif" font-size="10.00">utility</text>
</g>
<!-- Node9&#45;&gt;Node10 -->
<g id="edge13" class="edge"><title>Node9&#45;&gt;Node10</title>
<path fill="none" stroke="midnightblue" d="M287.429,-192.679C287.429,-183.101 287.429,-170.394 287.429,-159.977"/>
<polygon fill="midnightblue" stroke="midnightblue" points="290.929,-159.828 287.429,-149.828 283.929,-159.828 290.929,-159.828"/>
</g>
<!-- Node11 -->
<g id="node11" class="node"><title>Node11</title>
<polygon fill="none" stroke="#bfbfbf" points="325.429,-130.5 325.429,-149.5 369.429,-149.5 369.429,-130.5 325.429,-130.5"/>
<text text-anchor="middle" x="347.429" y="-137.5" font-family="Helvetica,sans-Serif" font-size="10.00">vector</text>
</g>
<!-- Node9&#45;&gt;Node11 -->
<g id="edge14" class="edge"><title>Node9&#45;&gt;Node11</title>
<path fill="none" stroke="midnightblue" d="M300.448,-192.679C309.896,-182.286 322.695,-168.208 332.548,-157.37"/>
<polygon fill="midnightblue" stroke="midnightblue" points="335.267,-159.582 339.404,-149.828 330.087,-154.873 335.267,-159.582"/>
</g>
</g>
</svg>
