<?xml version="1.0" encoding="UTF-8" standalone="no"?>
<!DOCTYPE svg PUBLIC "-//W3C//DTD SVG 1.1//EN"
 "http://www.w3.org/Graphics/SVG/1.1/DTD/svg11.dtd">
<!-- Generated by graphviz version 2.36.0 (20140111.2315)
 -->
<!-- Title: o2::framework::DataSamplingConfig::QcTaskConfiguration Pages: 1 -->
<!--zoomable 238 -->
<svg id="main" version="1.1" xmlns="http://www.w3.org/2000/svg" xmlns:xlink="http://www.w3.org/1999/xlink" xml:space="preserve" onload="init(evt)">
<style type="text/css"><![CDATA[
.edge:hover path { stroke: red; }
.edge:hover polygon { stroke: red; fill: red; }
]]></style>
<script type="text/javascript"><![CDATA[
var edges = document.getElementsByTagName('g');
if (edges && edges.length) {
  for (var i=0;i<edges.length;i++) {
    if (edges[i].id.substr(0,4)=='edge') {
      edges[i].setAttribute('class','edge');
    }
  }
}
]]></script>
        <defs>
                <circle id="rim" cx="0" cy="0" r="7"/>
                <circle id="rim2" cx="0" cy="0" r="3.5"/>
                <g id="zoomPlus">
                        <use xlink:href="#rim" fill="#404040">
                                <set attributeName="fill" to="#808080" begin="zoomplus.mouseover" end="zoomplus.mouseout"/>
                        </use>
                        <path d="M-4,0h8M0,-4v8" fill="none" stroke="white" stroke-width="1.5" pointer-events="none"/>
                </g>
                <g id="zoomMin">
                        <use xlink:href="#rim" fill="#404040">
                                <set attributeName="fill" to="#808080" begin="zoomminus.mouseover" end="zoomminus.mouseout"/>
                        </use>
                        <path d="M-4,0h8" fill="none" stroke="white" stroke-width="1.5" pointer-events="none"/>
                </g>
                <g id="dirArrow">
                        <path fill="none" stroke="white" stroke-width="1.5" d="M0,-3.0v7 M-2.5,-0.5L0,-3.0L2.5,-0.5"/>
                </g>
               <g id="resetDef">
                       <use xlink:href="#rim2" fill="#404040">
                               <set attributeName="fill" to="#808080" begin="reset.mouseover" end="reset.mouseout"/>
                       </use>
               </g>
        </defs>

<script type="text/javascript">
var viewWidth = 581;
var viewHeight = 238;
var sectionId = 'dynsection-0';
</script>
<script xlink:href="../../svgpan.js"/>
<svg id="graph" class="graph">
<g id="viewport">
<title>o2::framework::DataSamplingConfig::QcTaskConfiguration</title>
<!-- Node1 -->
<g id="node1" class="node"><title>Node1</title>
<polygon fill="#bfbfbf" stroke="black" points="176,-1 176,-69 322,-69 322,-1 176,-1"/>
<text text-anchor="start" x="184" y="-57" font-family="Helvetica,sans-Serif" font-size="10.00">o2::framework::DataSampling</text>
<text text-anchor="middle" x="249" y="-46" font-family="Helvetica,sans-Serif" font-size="10.00">Config::QcTaskConfiguration</text>
<polyline fill="none" stroke="black" points="176,-39 322,-39 "/>
<text text-anchor="middle" x="249" y="-27" font-family="Helvetica,sans-Serif" font-size="10.00"> </text>
<polyline fill="none" stroke="black" points="176,-20 322,-20 "/>
<text text-anchor="middle" x="249" y="-8" font-family="Helvetica,sans-Serif" font-size="10.00"> </text>
</g>
<!-- Node2 -->
<g id="node2" class="node"><title>Node2</title>
<g id="a_node2"><a xlink:href="../../df/de6/classdouble.html" target="_top" xlink:title="{double\n||}">
<polygon fill="none" stroke="black" points="-0.5,-161.5 -0.5,-218.5 44.5,-218.5 44.5,-161.5 -0.5,-161.5"/>
<text text-anchor="middle" x="22" y="-206.5" font-family="Helvetica,sans-Serif" font-size="10.00">double</text>
<polyline fill="none" stroke="black" points="-0.5,-199.5 44.5,-199.5 "/>
<text text-anchor="middle" x="22" y="-187.5" font-family="Helvetica,sans-Serif" font-size="10.00"> </text>
<polyline fill="none" stroke="black" points="-0.5,-180.5 44.5,-180.5 "/>
<text text-anchor="middle" x="22" y="-168.5" font-family="Helvetica,sans-Serif" font-size="10.00"> </text>
</a>
</g>
</g>
<!-- Node2&#45;&gt;Node1 -->
<g id="edge1" class="edge"><title>Node2&#45;&gt;Node1</title>
<path fill="none" stroke="#404040" d="M23.0401,-161.216C25.3891,-138.494 32.3034,-107.102 52,-88 81.6218,-59.2727 125.153,-45.9288 163.767,-39.9136"/>
<polygon fill="none" stroke="#404040" points="163.953,-39.8879 169.347,-35.102 175.839,-38.2404 170.445,-43.0263 163.953,-39.8879"/>
<text text-anchor="middle" x="111" y="-107.5" font-family="Helvetica,sans-Serif" font-size="10.00"> +fractionOfDataToSample</text>
</g>
<!-- Node3 -->
<g id="node3" class="node"><title>Node3</title>
<polygon fill="none" stroke="#bfbfbf" points="129.5,-161.5 129.5,-218.5 180.5,-218.5 180.5,-161.5 129.5,-161.5"/>
<text text-anchor="middle" x="155" y="-206.5" font-family="Helvetica,sans-Serif" font-size="10.00">uint64_t</text>
<polyline fill="none" stroke="#bfbfbf" points="129.5,-199.5 180.5,-199.5 "/>
<text text-anchor="middle" x="155" y="-187.5" font-family="Helvetica,sans-Serif" font-size="10.00"> </text>
<polyline fill="none" stroke="#bfbfbf" points="129.5,-180.5 180.5,-180.5 "/>
<text text-anchor="middle" x="155" y="-168.5" font-family="Helvetica,sans-Serif" font-size="10.00"> </text>
</g>
<!-- Node3&#45;&gt;Node1 -->
<g id="edge2" class="edge"><title>Node3&#45;&gt;Node1</title>
<path fill="none" stroke="#404040" d="M162.826,-161.359C169.602,-140.172 180.727,-110.797 196,-88 198.188,-84.7336 200.607,-81.5075 203.171,-78.3583"/>
<polygon fill="none" stroke="#404040" points="203.305,-78.2056 204.249,-71.0566 211.212,-69.1785 210.267,-76.3276 203.305,-78.2056"/>
<text text-anchor="middle" x="220" y="-107.5" font-family="Helvetica,sans-Serif" font-size="10.00"> +subSpec</text>
</g>
<!-- Node4 -->
<g id="node4" class="node"><title>Node4</title>
<polygon fill="none" stroke="#bfbfbf" points="198.5,-150.5 198.5,-229.5 313.5,-229.5 313.5,-150.5 198.5,-150.5"/>
<text text-anchor="start" x="206.5" y="-217.5" font-family="Helvetica,sans-Serif" font-size="10.00">vector&lt; o2::framework</text>
<text text-anchor="start" x="206.5" y="-206.5" font-family="Helvetica,sans-Serif" font-size="10.00">::DataSamplingConfig</text>
<text text-anchor="middle" x="256" y="-195.5" font-family="Helvetica,sans-Serif" font-size="10.00">::FairMqInput &gt;</text>
<polyline fill="none" stroke="#bfbfbf" points="198.5,-188.5 313.5,-188.5 "/>
<text text-anchor="middle" x="256" y="-176.5" font-family="Helvetica,sans-Serif" font-size="10.00"> </text>
<polyline fill="none" stroke="#bfbfbf" points="198.5,-169.5 313.5,-169.5 "/>
<text text-anchor="middle" x="256" y="-157.5" font-family="Helvetica,sans-Serif" font-size="10.00"> </text>
</g>
<!-- Node4&#45;&gt;Node1 -->
<g id="edge3" class="edge"><title>Node4&#45;&gt;Node1</title>
<path fill="none" stroke="#404040" d="M251.439,-150.407C250.856,-144.258 250.344,-137.96 250,-132 249.053,-115.588 248.687,-97.5715 248.595,-81.6237"/>
<polygon fill="none" stroke="#404040" points="248.595,-81.3475 244.585,-75.3543 248.575,-69.3475 252.585,-75.3407 248.595,-81.3475"/>
<text text-anchor="middle" x="296" y="-107.5" font-family="Helvetica,sans-Serif" font-size="10.00"> +desiredFairMqData</text>
</g>
<!-- Node5 -->
<g id="node5" class="node"><title>Node5</title>
<polygon fill="none" stroke="#bfbfbf" points="349.5,-161.5 349.5,-218.5 378.5,-218.5 378.5,-161.5 349.5,-161.5"/>
<text text-anchor="middle" x="364" y="-206.5" font-family="Helvetica,sans-Serif" font-size="10.00">int</text>
<polyline fill="none" stroke="#bfbfbf" points="349.5,-199.5 378.5,-199.5 "/>
<text text-anchor="middle" x="364" y="-187.5" font-family="Helvetica,sans-Serif" font-size="10.00"> </text>
<polyline fill="none" stroke="#bfbfbf" points="349.5,-180.5 378.5,-180.5 "/>
<text text-anchor="middle" x="364" y="-168.5" font-family="Helvetica,sans-Serif" font-size="10.00"> </text>
</g>
<!-- Node5&#45;&gt;Node1 -->
<g id="edge4" class="edge"><title>Node5&#45;&gt;Node1</title>
<path fill="none" stroke="#404040" d="M363.973,-161.189C362.629,-139.352 357.706,-109.196 342,-88 338.903,-83.8199 335.363,-79.9306 331.516,-76.3187"/>
<polygon fill="none" stroke="#404040" points="331.246,-76.0924 324.078,-75.307 322.046,-68.3881 329.214,-69.1735 331.246,-76.0924"/>
<text text-anchor="middle" x="409.5" y="-124" font-family="Helvetica,sans-Serif" font-size="10.00"> +dispatcherType</text>
<text text-anchor="middle" x="409.5" y="-113" font-family="Helvetica,sans-Serif" font-size="10.00">+name</text>
<text text-anchor="start" x="360" y="-102" font-family="Helvetica,sans-Serif" font-size="10.00">+fairMqOutputChannel</text>
<text text-anchor="middle" x="409.5" y="-91" font-family="Helvetica,sans-Serif" font-size="10.00">Config</text>
</g>
<!-- Node6 -->
<g id="node6" class="node"><title>Node6</title>
<polygon fill="none" stroke="#bfbfbf" points="428.5,-156 428.5,-224 543.5,-224 543.5,-156 428.5,-156"/>
<text text-anchor="start" x="436.5" y="-212" font-family="Helvetica,sans-Serif" font-size="10.00">vector&lt; o2::framework</text>
<text text-anchor="middle" x="486" y="-201" font-family="Helvetica,sans-Serif" font-size="10.00">::InputSpec &gt;</text>
<polyline fill="none" stroke="#bfbfbf" points="428.5,-194 543.5,-194 "/>
<text text-anchor="middle" x="486" y="-182" font-family="Helvetica,sans-Serif" font-size="10.00"> </text>
<polyline fill="none" stroke="#bfbfbf" points="428.5,-175 543.5,-175 "/>
<text text-anchor="middle" x="486" y="-163" font-family="Helvetica,sans-Serif" font-size="10.00"> </text>
</g>
<!-- Node6&#45;&gt;Node1 -->
<g id="edge5" class="edge"><title>Node6&#45;&gt;Node1</title>
<path fill="none" stroke="#404040" d="M486.949,-155.672C485.744,-133.644 480.421,-105.675 463,-88 444.761,-69.4952 385.569,-55.9822 334.05,-47.3764"/>
<polygon fill="none" stroke="#404040" points="334.02,-47.3715 327.458,-50.3617 322.174,-45.4547 328.736,-42.4645 334.02,-47.3715"/>
<text text-anchor="middle" x="528" y="-107.5" font-family="Helvetica,sans-Serif" font-size="10.00"> +desiredDataSpecs</text>
</g>
</g>
</svg>
        <g id="navigator" transform="translate(0 0)" fill="#404254">
                <rect fill="#f2f5e9" fill-opacity="0.5" stroke="#606060" stroke-width=".5" x="0" y="0" width="60" height="60"/>
                <use id="zoomplus" xlink:href="#zoomPlus" x="17" y="9" onmousedown="handleZoom(evt,'in')"/>
                <use id="zoomminus" xlink:href="#zoomMin" x="42" y="9" onmousedown="handleZoom(evt,'out')"/>
                <use id="reset" xlink:href="#resetDef" x="30" y="36" onmousedown="handleReset()"/>
                <g id="arrowUp" xlink:href="#dirArrow" transform="translate(30 24)" onmousedown="handlePan(0,-1)">
                  <use xlink:href="#rim" fill="#404040">
                        <set attributeName="fill" to="#808080" begin="arrowUp.mouseover" end="arrowUp.mouseout"/>
                  </use>
                  <path fill="none" stroke="white" stroke-width="1.5" d="M0,-3.0v7 M-2.5,-0.5L0,-3.0L2.5,-0.5"/>
                </g>
                <g id="arrowRight" xlink:href="#dirArrow" transform="rotate(90) translate(36 -43)" onmousedown="handlePan(1,0)">
                  <use xlink:href="#rim" fill="#404040">
                        <set attributeName="fill" to="#808080" begin="arrowRight.mouseover" end="arrowRight.mouseout"/>
                  </use>
                  <path fill="none" stroke="white" stroke-width="1.5" d="M0,-3.0v7 M-2.5,-0.5L0,-3.0L2.5,-0.5"/>
                </g>
                <g id="arrowDown" xlink:href="#dirArrow" transform="rotate(180) translate(-30 -48)" onmousedown="handlePan(0,1)">
                  <use xlink:href="#rim" fill="#404040">
                        <set attributeName="fill" to="#808080" begin="arrowDown.mouseover" end="arrowDown.mouseout"/>
                  </use>
                  <path fill="none" stroke="white" stroke-width="1.5" d="M0,-3.0v7 M-2.5,-0.5L0,-3.0L2.5,-0.5"/>
                </g>
                <g id="arrowLeft" xlink:href="#dirArrow" transform="rotate(270) translate(-36 17)" onmousedown="handlePan(-1,0)">
                  <use xlink:href="#rim" fill="#404040">
                        <set attributeName="fill" to="#808080" begin="arrowLeft.mouseover" end="arrowLeft.mouseout"/>
                  </use>
                  <path fill="none" stroke="white" stroke-width="1.5" d="M0,-3.0v7 M-2.5,-0.5L0,-3.0L2.5,-0.5"/>
                </g>
        </g>
        <svg viewBox="0 0 15 15" width="100%" height="30px" preserveAspectRatio="xMaxYMin meet">
         <g id="arrow_out" transform="scale(0.3 0.3)">
          <a xlink:href="structo2_1_1framework_1_1DataSamplingConfig_1_1QcTaskConfiguration__coll__graph_org.svg" target="_base">
           <rect id="button" ry="5" rx="5" y="6" x="6" height="38" width="38"
                fill="#f2f5e9" fill-opacity="0.5" stroke="#606060" stroke-width="1.0"/>
           <path id="arrow"
             d="M 11.500037,31.436501 C 11.940474,20.09759 22.043105,11.32322 32.158766,21.979434 L 37.068811,17.246167 C 37.068811,17.246167 37.088388,32 37.088388,32 L 22.160133,31.978069 C 22.160133,31.978069 26.997745,27.140456 26.997745,27.140456 C 18.528582,18.264221 13.291696,25.230495 11.500037,31.436501 z"
             style="fill:#404040;"/>
          </a>
         </g>
        </svg>
</svg>
