<?xml version="1.0" encoding="UTF-8" standalone="no"?>
<!DOCTYPE svg PUBLIC "-//W3C//DTD SVG 1.1//EN"
 "http://www.w3.org/Graphics/SVG/1.1/DTD/svg11.dtd">
<!-- Generated by graphviz version 2.36.0 (20140111.2315)
 -->
<!-- Title: /home/travis/build/AliceO2Group/AliceO2/DataFormats/TimeFrame/include/TimeFrame/TimeFrame.h Pages: 1 -->
<svg width="445pt" height="230pt"
 viewBox="0.00 0.00 445.00 230.00" xmlns="http://www.w3.org/2000/svg" xmlns:xlink="http://www.w3.org/1999/xlink">
<g id="graph0" class="graph" transform="scale(1 1) rotate(0) translate(4 226)">
<title>/home/travis/build/AliceO2Group/AliceO2/DataFormats/TimeFrame/include/TimeFrame/TimeFrame.h</title>
<!-- Node1 -->
<g id="node1" class="node"><title>Node1</title>
<polygon fill="#bfbfbf" stroke="black" points="122,-169 122,-221 286,-221 286,-169 122,-169"/>
<text text-anchor="start" x="130" y="-209" font-family="Helvetica,sans-Serif" font-size="10.00">/home/travis/build</text>
<text text-anchor="start" x="130" y="-198" font-family="Helvetica,sans-Serif" font-size="10.00">/AliceO2Group/AliceO2</text>
<text text-anchor="start" x="130" y="-187" font-family="Helvetica,sans-Serif" font-size="10.00">/DataFormats/TimeFrame</text>
<text text-anchor="middle" x="204" y="-176" font-family="Helvetica,sans-Serif" font-size="10.00">/include/TimeFrame/TimeFrame.h</text>
</g>
<!-- Node2 -->
<g id="node2" class="node"><title>Node2</title>
<polygon fill="none" stroke="#bfbfbf" points="76,-112.5 76,-131.5 156,-131.5 156,-112.5 76,-112.5"/>
<text text-anchor="middle" x="116" y="-119.5" font-family="Helvetica,sans-Serif" font-size="10.00">FairMQParts.h</text>
</g>
<!-- Node1&#45;&gt;Node2 -->
<g id="edge1" class="edge"><title>Node1&#45;&gt;Node2</title>
<path fill="none" stroke="midnightblue" d="M172.727,-168.768C160.097,-158.578 145.936,-147.153 134.923,-138.267"/>
<polygon fill="midnightblue" stroke="midnightblue" points="136.834,-135.312 126.854,-131.757 132.439,-140.76 136.834,-135.312"/>
</g>
<!-- Node3 -->
<g id="node3" class="node"><title>Node3</title>
<polygon fill="none" stroke="#bfbfbf" points="174.5,-112.5 174.5,-131.5 233.5,-131.5 233.5,-112.5 174.5,-112.5"/>
<text text-anchor="middle" x="204" y="-119.5" font-family="Helvetica,sans-Serif" font-size="10.00">TObject.h</text>
</g>
<!-- Node1&#45;&gt;Node3 -->
<g id="edge2" class="edge"><title>Node1&#45;&gt;Node3</title>
<path fill="none" stroke="midnightblue" d="M204,-168.768C204,-159.89 204,-150.074 204,-141.816"/>
<polygon fill="midnightblue" stroke="midnightblue" points="207.5,-141.757 204,-131.757 200.5,-141.757 207.5,-141.757"/>
</g>
<!-- Node4 -->
<g id="node4" class="node"><title>Node4</title>
<g id="a_node4"><a xlink:href="../../d6/d90/Headers_2include_2Headers_2TimeStamp_8h.html" target="_top" xlink:title="Headers/TimeStamp.h">
<polygon fill="none" stroke="black" points="251.5,-112.5 251.5,-131.5 366.5,-131.5 366.5,-112.5 251.5,-112.5"/>
<text text-anchor="middle" x="309" y="-119.5" font-family="Helvetica,sans-Serif" font-size="10.00">Headers/TimeStamp.h</text>
</a>
</g>
</g>
<!-- Node1&#45;&gt;Node4 -->
<g id="edge3" class="edge"><title>Node1&#45;&gt;Node4</title>
<path fill="none" stroke="midnightblue" d="M241.019,-168.968C256.658,-158.393 274.31,-146.457 287.707,-137.398"/>
<polygon fill="midnightblue" stroke="midnightblue" points="289.901,-140.14 296.224,-131.639 285.98,-134.341 289.901,-140.14"/>
</g>
<!-- Node5 -->
<g id="node5" class="node"><title>Node5</title>
<g id="a_node5"><a xlink:href="../../dc/dcd/DataHeader_8h.html" target="_top" xlink:title="Headers/DataHeader.h">
<polygon fill="none" stroke="black" points="111.5,-56.5 111.5,-75.5 228.5,-75.5 228.5,-56.5 111.5,-56.5"/>
<text text-anchor="middle" x="170" y="-63.5" font-family="Helvetica,sans-Serif" font-size="10.00">Headers/DataHeader.h</text>
</a>
</g>
</g>
<!-- Node4&#45;&gt;Node5 -->
<g id="edge4" class="edge"><title>Node4&#45;&gt;Node5</title>
<path fill="none" stroke="midnightblue" d="M286.975,-112.444C263.896,-103.478 227.438,-89.314 201.359,-79.1827"/>
<polygon fill="midnightblue" stroke="midnightblue" points="202.511,-75.8753 191.922,-75.5164 199.976,-82.4002 202.511,-75.8753"/>
</g>
<!-- Node8 -->
<g id="node8" class="node"><title>Node8</title>
<polygon fill="none" stroke="#bfbfbf" points="272.5,-0.5 272.5,-19.5 321.5,-19.5 321.5,-0.5 272.5,-0.5"/>
<text text-anchor="middle" x="297" y="-7.5" font-family="Helvetica,sans-Serif" font-size="10.00">cassert</text>
</g>
<!-- Node4&#45;&gt;Node8 -->
<g id="edge11" class="edge"><title>Node4&#45;&gt;Node8</title>
<path fill="none" stroke="midnightblue" d="M307.459,-112.4C305.888,-103.364 303.477,-88.7231 302,-76 300.204,-60.5221 298.893,-42.8931 298.066,-29.903"/>
<polygon fill="midnightblue" stroke="midnightblue" points="301.555,-29.6247 297.463,-19.8522 294.568,-30.0439 301.555,-29.6247"/>
</g>
<!-- Node11 -->
<g id="node11" class="node"><title>Node11</title>
<polygon fill="none" stroke="#bfbfbf" points="311,-56.5 311,-75.5 357,-75.5 357,-56.5 311,-56.5"/>
<text text-anchor="middle" x="334" y="-63.5" font-family="Helvetica,sans-Serif" font-size="10.00">chrono</text>
</g>
<!-- Node4&#45;&gt;Node11 -->
<g id="edge10" class="edge"><title>Node4&#45;&gt;Node11</title>
<path fill="none" stroke="midnightblue" d="M313.128,-112.083C316.514,-104.77 321.416,-94.1814 325.619,-85.1034"/>
<polygon fill="midnightblue" stroke="midnightblue" points="328.923,-86.2962 329.949,-75.7511 322.571,-83.3553 328.923,-86.2962"/>
</g>
<!-- Node12 -->
<g id="node12" class="node"><title>Node12</title>
<polygon fill="none" stroke="#bfbfbf" points="375,-56.5 375,-75.5 437,-75.5 437,-56.5 375,-56.5"/>
<text text-anchor="middle" x="406" y="-63.5" font-family="Helvetica,sans-Serif" font-size="10.00">type_traits</text>
</g>
<!-- Node4&#45;&gt;Node12 -->
<g id="edge12" class="edge"><title>Node4&#45;&gt;Node12</title>
<path fill="none" stroke="midnightblue" d="M324.585,-112.324C339.999,-103.743 363.812,-90.486 381.71,-80.5224"/>
<polygon fill="midnightblue" stroke="midnightblue" points="383.419,-83.5767 390.454,-75.6545 380.014,-77.4606 383.419,-83.5767"/>
</g>
<!-- Node6 -->
<g id="node6" class="node"><title>Node6</title>
<polygon fill="none" stroke="#bfbfbf" points="0,-0.5 0,-19.5 46,-19.5 46,-0.5 0,-0.5"/>
<text text-anchor="middle" x="23" y="-7.5" font-family="Helvetica,sans-Serif" font-size="10.00">cstdint</text>
</g>
<!-- Node5&#45;&gt;Node6 -->
<g id="edge5" class="edge"><title>Node5&#45;&gt;Node6</title>
<path fill="none" stroke="midnightblue" d="M146.707,-56.4435C122.193,-47.4381 83.4038,-33.1891 55.8001,-23.049"/>
<polygon fill="midnightblue" stroke="midnightblue" points="56.7772,-19.6793 46.1836,-19.5164 54.3634,-26.25 56.7772,-19.6793"/>
</g>
<!-- Node7 -->
<g id="node7" class="node"><title>Node7</title>
<polygon fill="none" stroke="#bfbfbf" points="64,-0.5 64,-19.5 116,-19.5 116,-0.5 64,-0.5"/>
<text text-anchor="middle" x="90" y="-7.5" font-family="Helvetica,sans-Serif" font-size="10.00">memory</text>
</g>
<!-- Node5&#45;&gt;Node7 -->
<g id="edge6" class="edge"><title>Node5&#45;&gt;Node7</title>
<path fill="none" stroke="midnightblue" d="M157.147,-56.324C144.784,-47.979 125.87,-35.2122 111.263,-25.3524"/>
<polygon fill="midnightblue" stroke="midnightblue" points="113.068,-22.3483 102.821,-19.6545 109.152,-28.1503 113.068,-22.3483"/>
</g>
<!-- Node5&#45;&gt;Node8 -->
<g id="edge7" class="edge"><title>Node5&#45;&gt;Node8</title>
<path fill="none" stroke="midnightblue" d="M190.124,-56.4435C211.024,-47.5566 243.935,-33.5632 267.716,-23.4514"/>
<polygon fill="midnightblue" stroke="midnightblue" points="269.138,-26.6504 276.971,-19.5164 266.398,-20.2085 269.138,-26.6504"/>
</g>
<!-- Node9 -->
<g id="node9" class="node"><title>Node9</title>
<polygon fill="none" stroke="#bfbfbf" points="134,-0.5 134,-19.5 180,-19.5 180,-0.5 134,-0.5"/>
<text text-anchor="middle" x="157" y="-7.5" font-family="Helvetica,sans-Serif" font-size="10.00">cstring</text>
</g>
<!-- Node5&#45;&gt;Node9 -->
<g id="edge8" class="edge"><title>Node5&#45;&gt;Node9</title>
<path fill="none" stroke="midnightblue" d="M167.853,-56.083C166.131,-48.9272 163.653,-38.6353 161.5,-29.6911"/>
<polygon fill="midnightblue" stroke="midnightblue" points="164.85,-28.6541 159.107,-19.7511 158.045,-30.2925 164.85,-28.6541"/>
</g>
<!-- Node10 -->
<g id="node10" class="node"><title>Node10</title>
<polygon fill="none" stroke="#bfbfbf" points="198,-0.5 198,-19.5 254,-19.5 254,-0.5 198,-0.5"/>
<text text-anchor="middle" x="226" y="-7.5" font-family="Helvetica,sans-Serif" font-size="10.00">algorithm</text>
</g>
<!-- Node5&#45;&gt;Node10 -->
<g id="edge9" class="edge"><title>Node5&#45;&gt;Node10</title>
<path fill="none" stroke="midnightblue" d="M178.997,-56.324C187.194,-48.4196 199.506,-36.5482 209.472,-26.9377"/>
<polygon fill="midnightblue" stroke="midnightblue" points="212.07,-29.2947 216.839,-19.8339 207.211,-24.2558 212.07,-29.2947"/>
</g>
</g>
</svg>
