<?xml version="1.0" encoding="UTF-8" standalone="no"?>
<!DOCTYPE svg PUBLIC "-//W3C//DTD SVG 1.1//EN"
 "http://www.w3.org/Graphics/SVG/1.1/DTD/svg11.dtd">
<!-- Generated by graphviz version 2.36.0 (20140111.2315)
 -->
<!-- Title: /home/travis/build/AliceO2Group/AliceO2/Detectors/TPC/reconstruction/include/TPCReconstruction/HardwareClusterDecoder.h Pages: 1 -->
<svg width="1301pt" height="668pt"
 viewBox="0.00 0.00 1301.00 668.00" xmlns="http://www.w3.org/2000/svg" xmlns:xlink="http://www.w3.org/1999/xlink">
<g id="graph0" class="graph" transform="scale(1 1) rotate(0) translate(4 664)">
<title>/home/travis/build/AliceO2Group/AliceO2/Detectors/TPC/reconstruction/include/TPCReconstruction/HardwareClusterDecoder.h</title>
<!-- Node1 -->
<g id="node1" class="node"><title>Node1</title>
<polygon fill="#bfbfbf" stroke="black" points="170,-596.5 170,-659.5 320,-659.5 320,-596.5 170,-596.5"/>
<text text-anchor="start" x="178" y="-647.5" font-family="Helvetica,sans-Serif" font-size="10.00">/home/travis/build</text>
<text text-anchor="start" x="178" y="-636.5" font-family="Helvetica,sans-Serif" font-size="10.00">/AliceO2Group/AliceO2</text>
<text text-anchor="start" x="178" y="-625.5" font-family="Helvetica,sans-Serif" font-size="10.00">/Detectors/TPC/reconstruction</text>
<text text-anchor="start" x="178" y="-614.5" font-family="Helvetica,sans-Serif" font-size="10.00">/include/TPCReconstruction</text>
<text text-anchor="middle" x="245" y="-603.5" font-family="Helvetica,sans-Serif" font-size="10.00">/HardwareClusterDecoder.h</text>
</g>
<!-- Node2 -->
<g id="node2" class="node"><title>Node2</title>
<polygon fill="none" stroke="#bfbfbf" points="261,-360.5 261,-379.5 305,-379.5 305,-360.5 261,-360.5"/>
<text text-anchor="middle" x="283" y="-367.5" font-family="Helvetica,sans-Serif" font-size="10.00">vector</text>
</g>
<!-- Node1&#45;&gt;Node2 -->
<g id="edge1" class="edge"><title>Node1&#45;&gt;Node2</title>
<path fill="none" stroke="midnightblue" d="M249.546,-596.375C257.503,-542.77 273.725,-433.483 280.22,-389.727"/>
<polygon fill="midnightblue" stroke="midnightblue" points="283.709,-390.058 281.716,-379.653 276.785,-389.03 283.709,-390.058"/>
</g>
<!-- Node3 -->
<g id="node3" class="node"><title>Node3</title>
<g id="a_node3"><a xlink:href="../../db/d19/DigitalCurrentClusterIntegrator_8h.html" target="_top" xlink:title="TPCReconstruction/Digital\lCurrentClusterIntegrator.h">
<polygon fill="none" stroke="black" points="273,-529 273,-559 407,-559 407,-529 273,-529"/>
<text text-anchor="start" x="281" y="-547" font-family="Helvetica,sans-Serif" font-size="10.00">TPCReconstruction/Digital</text>
<text text-anchor="middle" x="340" y="-536" font-family="Helvetica,sans-Serif" font-size="10.00">CurrentClusterIntegrator.h</text>
</a>
</g>
</g>
<!-- Node1&#45;&gt;Node3 -->
<g id="edge2" class="edge"><title>Node1&#45;&gt;Node3</title>
<path fill="none" stroke="midnightblue" d="M280.374,-596.466C292.229,-586.234 305.164,-575.069 315.947,-565.762"/>
<polygon fill="midnightblue" stroke="midnightblue" points="318.436,-568.236 323.72,-559.053 313.863,-562.937 318.436,-568.236"/>
</g>
<!-- Node5 -->
<g id="node5" class="node"><title>Node5</title>
<g id="a_node5"><a xlink:href="../../de/dcd/ClusterNative_8h.html" target="_top" xlink:title="Class of a TPC cluster in TPC&#45;native coordinates (row, time) ">
<polygon fill="none" stroke="black" points="-0.5,-472.5 -0.5,-491.5 164.5,-491.5 164.5,-472.5 -0.5,-472.5"/>
<text text-anchor="middle" x="82" y="-479.5" font-family="Helvetica,sans-Serif" font-size="10.00">DataFormatsTPC/ClusterNative.h</text>
</a>
</g>
</g>
<!-- Node1&#45;&gt;Node5 -->
<g id="edge59" class="edge"><title>Node1&#45;&gt;Node5</title>
<path fill="none" stroke="midnightblue" d="M210.432,-596.461C176.364,-566.365 125.701,-521.607 99.3444,-498.323"/>
<polygon fill="midnightblue" stroke="midnightblue" points="101.505,-495.561 91.6932,-491.563 96.8703,-500.807 101.505,-495.561"/>
</g>
<!-- Node3&#45;&gt;Node2 -->
<g id="edge3" class="edge"><title>Node3&#45;&gt;Node2</title>
<path fill="none" stroke="midnightblue" d="M327.804,-528.789C320.092,-519.054 310.561,-505.504 305,-492 290.822,-457.572 285.751,-413.902 283.959,-389.556"/>
<polygon fill="midnightblue" stroke="midnightblue" points="287.451,-389.318 283.331,-379.557 280.465,-389.757 287.451,-389.318"/>
</g>
<!-- Node4 -->
<g id="node4" class="node"><title>Node4</title>
<polygon fill="none" stroke="#bfbfbf" points="314,-472.5 314,-491.5 366,-491.5 366,-472.5 314,-472.5"/>
<text text-anchor="middle" x="340" y="-479.5" font-family="Helvetica,sans-Serif" font-size="10.00">memory</text>
</g>
<!-- Node3&#45;&gt;Node4 -->
<g id="edge4" class="edge"><title>Node3&#45;&gt;Node4</title>
<path fill="none" stroke="midnightblue" d="M340,-528.781C340,-520.781 340,-510.689 340,-502.017"/>
<polygon fill="midnightblue" stroke="midnightblue" points="343.5,-501.73 340,-491.731 336.5,-501.731 343.5,-501.73"/>
</g>
<!-- Node3&#45;&gt;Node5 -->
<g id="edge5" class="edge"><title>Node3&#45;&gt;Node5</title>
<path fill="none" stroke="midnightblue" d="M279.51,-528.933C233.319,-518.19 170.617,-503.609 128.356,-493.78"/>
<polygon fill="midnightblue" stroke="midnightblue" points="129.137,-490.369 118.605,-491.513 127.552,-497.187 129.137,-490.369"/>
</g>
<!-- Node7 -->
<g id="node7" class="node"><title>Node7</title>
<g id="a_node7"><a xlink:href="../../d0/dda/DataFormats_2Detectors_2TPC_2include_2DataFormatsTPC_2Constants_8h.html" target="_top" xlink:title="DataFormatsTPC/Constants.h">
<polygon fill="none" stroke="black" points="94,-192.5 94,-211.5 244,-211.5 244,-192.5 94,-192.5"/>
<text text-anchor="middle" x="169" y="-199.5" font-family="Helvetica,sans-Serif" font-size="10.00">DataFormatsTPC/Constants.h</text>
</a>
</g>
</g>
<!-- Node3&#45;&gt;Node7 -->
<g id="edge9" class="edge"><title>Node3&#45;&gt;Node7</title>
<path fill="none" stroke="midnightblue" d="M308.237,-528.823C258.785,-504.331 169,-449.109 169,-371 169,-371 169,-371 169,-313 169,-280.948 169,-243.643 169,-221.749"/>
<polygon fill="midnightblue" stroke="midnightblue" points="172.5,-221.558 169,-211.558 165.5,-221.558 172.5,-221.558"/>
</g>
<!-- Node8 -->
<g id="node8" class="node"><title>Node8</title>
<g id="a_node8"><a xlink:href="../../d7/d2c/Mapper_8h.html" target="_top" xlink:title="TPCBase/Mapper.h">
<polygon fill="none" stroke="black" points="716.5,-472.5 716.5,-491.5 819.5,-491.5 819.5,-472.5 716.5,-472.5"/>
<text text-anchor="middle" x="768" y="-479.5" font-family="Helvetica,sans-Serif" font-size="10.00">TPCBase/Mapper.h</text>
</a>
</g>
</g>
<!-- Node3&#45;&gt;Node8 -->
<g id="edge10" class="edge"><title>Node3&#45;&gt;Node8</title>
<path fill="none" stroke="midnightblue" d="M407.346,-533.559C489.354,-522.063 626.725,-502.805 706.158,-491.669"/>
<polygon fill="midnightblue" stroke="midnightblue" points="707.079,-495.075 716.496,-490.22 706.107,-488.142 707.079,-495.075"/>
</g>
<!-- Node5&#45;&gt;Node2 -->
<g id="edge7" class="edge"><title>Node5&#45;&gt;Node2</title>
<path fill="none" stroke="midnightblue" d="M97.7721,-472.368C132.631,-453.292 216.447,-407.422 258.322,-384.505"/>
<polygon fill="midnightblue" stroke="midnightblue" points="260.209,-387.463 267.301,-379.591 256.849,-381.322 260.209,-387.463"/>
</g>
<!-- Node6 -->
<g id="node6" class="node"><title>Node6</title>
<polygon fill="none" stroke="#bfbfbf" points="95,-416.5 95,-435.5 141,-435.5 141,-416.5 95,-416.5"/>
<text text-anchor="middle" x="118" y="-423.5" font-family="Helvetica,sans-Serif" font-size="10.00">cstdint</text>
</g>
<!-- Node5&#45;&gt;Node6 -->
<g id="edge6" class="edge"><title>Node5&#45;&gt;Node6</title>
<path fill="none" stroke="midnightblue" d="M87.9447,-472.083C92.9773,-464.534 100.337,-453.495 106.513,-444.23"/>
<polygon fill="midnightblue" stroke="midnightblue" points="109.531,-446.013 112.166,-435.751 103.707,-442.13 109.531,-446.013"/>
</g>
<!-- Node5&#45;&gt;Node7 -->
<g id="edge8" class="edge"><title>Node5&#45;&gt;Node7</title>
<path fill="none" stroke="midnightblue" d="M80.039,-472.496C75.9731,-454.095 67,-409.162 67,-371 67,-371 67,-371 67,-313 67,-268.392 112.66,-234.234 142.881,-216.511"/>
<polygon fill="midnightblue" stroke="midnightblue" points="144.702,-219.503 151.697,-211.545 141.267,-213.404 144.702,-219.503"/>
</g>
<!-- Node8&#45;&gt;Node2 -->
<g id="edge12" class="edge"><title>Node8&#45;&gt;Node2</title>
<path fill="none" stroke="midnightblue" d="M716.135,-479.907C617.97,-477.12 409.104,-467.561 345,-436 323.217,-425.276 304.998,-403.555 294.065,-388.179"/>
<polygon fill="midnightblue" stroke="midnightblue" points="296.742,-385.892 288.232,-379.581 290.949,-389.821 296.742,-385.892"/>
</g>
<!-- Node9 -->
<g id="node9" class="node"><title>Node9</title>
<polygon fill="none" stroke="#bfbfbf" points="960.5,-416.5 960.5,-435.5 995.5,-435.5 995.5,-416.5 960.5,-416.5"/>
<text text-anchor="middle" x="978" y="-423.5" font-family="Helvetica,sans-Serif" font-size="10.00">map</text>
</g>
<!-- Node8&#45;&gt;Node9 -->
<g id="edge11" class="edge"><title>Node8&#45;&gt;Node9</title>
<path fill="none" stroke="midnightblue" d="M802.861,-472.477C838.798,-463.623 896.418,-449.237 946,-436 947.464,-435.609 948.964,-435.204 950.477,-434.791"/>
<polygon fill="midnightblue" stroke="midnightblue" points="951.716,-438.08 960.418,-432.036 949.846,-431.334 951.716,-438.08"/>
</g>
<!-- Node10 -->
<g id="node10" class="node"><title>Node10</title>
<polygon fill="none" stroke="#bfbfbf" points="1014,-416.5 1014,-435.5 1052,-435.5 1052,-416.5 1014,-416.5"/>
<text text-anchor="middle" x="1033" y="-423.5" font-family="Helvetica,sans-Serif" font-size="10.00">array</text>
</g>
<!-- Node8&#45;&gt;Node10 -->
<g id="edge13" class="edge"><title>Node8&#45;&gt;Node10</title>
<path fill="none" stroke="midnightblue" d="M819.927,-472.827C867.99,-464.854 941.274,-451.661 1004,-436 1004.1,-435.975 1004.2,-435.95 1004.3,-435.925"/>
<polygon fill="midnightblue" stroke="midnightblue" points="1005.04,-439.352 1013.74,-433.308 1003.17,-432.606 1005.04,-439.352"/>
</g>
<!-- Node11 -->
<g id="node11" class="node"><title>Node11</title>
<polygon fill="none" stroke="#bfbfbf" points="1070.5,-416.5 1070.5,-435.5 1111.5,-435.5 1111.5,-416.5 1070.5,-416.5"/>
<text text-anchor="middle" x="1091" y="-423.5" font-family="Helvetica,sans-Serif" font-size="10.00">string</text>
</g>
<!-- Node8&#45;&gt;Node11 -->
<g id="edge14" class="edge"><title>Node8&#45;&gt;Node11</title>
<path fill="none" stroke="midnightblue" d="M819.747,-475.261C876.544,-468.471 970.516,-455.792 1060.61,-435.793"/>
<polygon fill="midnightblue" stroke="midnightblue" points="1061.46,-439.19 1070.44,-433.578 1059.92,-432.362 1061.46,-439.19"/>
</g>
<!-- Node12 -->
<g id="node12" class="node"><title>Node12</title>
<polygon fill="none" stroke="#bfbfbf" points="489,-136.5 489,-155.5 533,-155.5 533,-136.5 489,-136.5"/>
<text text-anchor="middle" x="511" y="-143.5" font-family="Helvetica,sans-Serif" font-size="10.00">cmath</text>
</g>
<!-- Node8&#45;&gt;Node12 -->
<g id="edge15" class="edge"><title>Node8&#45;&gt;Node12</title>
<path fill="none" stroke="midnightblue" d="M716.306,-480.141C627.466,-477.784 450.405,-468.967 399,-436 370.447,-417.688 359,-404.921 359,-371 359,-371 359,-371 359,-257 359,-198.222 434.518,-167.653 479.095,-154.729"/>
<polygon fill="midnightblue" stroke="midnightblue" points="480.188,-158.058 488.898,-152.025 478.327,-151.31 480.188,-158.058"/>
</g>
<!-- Node13 -->
<g id="node13" class="node"><title>Node13</title>
<g id="a_node13"><a xlink:href="../../d1/d73/Defs_8h.html" target="_top" xlink:title="Common definitions for 2D coordinates. ">
<polygon fill="none" stroke="black" points="844,-192.5 844,-211.5 970,-211.5 970,-192.5 844,-192.5"/>
<text text-anchor="middle" x="907" y="-199.5" font-family="Helvetica,sans-Serif" font-size="10.00">DataFormatsTPC/Defs.h</text>
</a>
</g>
</g>
<!-- Node8&#45;&gt;Node13 -->
<g id="edge16" class="edge"><title>Node8&#45;&gt;Node13</title>
<path fill="none" stroke="midnightblue" d="M819.591,-481.06C906.178,-480.1 1075.64,-473.345 1120,-436 1143.12,-416.535 1140,-401.225 1140,-371 1140,-371 1140,-371 1140,-313 1140,-241.306 1048.67,-216.267 980.374,-207.566"/>
<polygon fill="midnightblue" stroke="midnightblue" points="980.394,-204.044 970.053,-206.351 979.575,-210.996 980.394,-204.044"/>
</g>
<!-- Node26 -->
<g id="node26" class="node"><title>Node26</title>
<g id="a_node26"><a xlink:href="../../de/d41/PadPos_8h.html" target="_top" xlink:title="TPCBase/PadPos.h">
<polygon fill="none" stroke="black" points="707.5,-304.5 707.5,-323.5 812.5,-323.5 812.5,-304.5 707.5,-304.5"/>
<text text-anchor="middle" x="760" y="-311.5" font-family="Helvetica,sans-Serif" font-size="10.00">TPCBase/PadPos.h</text>
</a>
</g>
</g>
<!-- Node8&#45;&gt;Node26 -->
<g id="edge31" class="edge"><title>Node8&#45;&gt;Node26</title>
<path fill="none" stroke="midnightblue" d="M767.57,-472.075C766.311,-445.945 762.613,-369.211 760.895,-333.577"/>
<polygon fill="midnightblue" stroke="midnightblue" points="764.39,-333.388 760.413,-323.568 757.398,-333.725 764.39,-333.388"/>
</g>
<!-- Node27 -->
<g id="node27" class="node"><title>Node27</title>
<g id="a_node27"><a xlink:href="../../dd/d0b/PadSecPos_8h.html" target="_top" xlink:title="TPCBase/PadSecPos.h">
<polygon fill="none" stroke="black" points="618,-360.5 618,-379.5 740,-379.5 740,-360.5 618,-360.5"/>
<text text-anchor="middle" x="679" y="-367.5" font-family="Helvetica,sans-Serif" font-size="10.00">TPCBase/PadSecPos.h</text>
</a>
</g>
</g>
<!-- Node8&#45;&gt;Node27 -->
<g id="edge32" class="edge"><title>Node8&#45;&gt;Node27</title>
<path fill="none" stroke="midnightblue" d="M761.016,-472.368C746.264,-454.135 711.708,-411.426 692.492,-387.675"/>
<polygon fill="midnightblue" stroke="midnightblue" points="694.962,-385.164 685.951,-379.591 689.52,-389.567 694.962,-385.164"/>
</g>
<!-- Node28 -->
<g id="node28" class="node"><title>Node28</title>
<g id="a_node28"><a xlink:href="../../d3/dd6/Sector_8h.html" target="_top" xlink:title="TPCBase/Sector.h">
<polygon fill="none" stroke="black" points="690.5,-248.5 690.5,-267.5 789.5,-267.5 789.5,-248.5 690.5,-248.5"/>
<text text-anchor="middle" x="740" y="-255.5" font-family="Helvetica,sans-Serif" font-size="10.00">TPCBase/Sector.h</text>
</a>
</g>
</g>
<!-- Node8&#45;&gt;Node28 -->
<g id="edge58" class="edge"><title>Node8&#45;&gt;Node28</title>
<path fill="none" stroke="midnightblue" d="M716.3,-478.108C623.28,-472.374 435.514,-458.168 416,-436 333.264,-342.013 565.473,-288.398 680.136,-268.27"/>
<polygon fill="midnightblue" stroke="midnightblue" points="680.924,-271.686 690.185,-266.539 679.736,-264.787 680.924,-271.686"/>
</g>
<!-- Node29 -->
<g id="node29" class="node"><title>Node29</title>
<g id="a_node29"><a xlink:href="../../da/d61/PadROCPos_8h.html" target="_top" xlink:title="TPCBase/PadROCPos.h">
<polygon fill="none" stroke="black" points="946,-360.5 946,-379.5 1074,-379.5 1074,-360.5 946,-360.5"/>
<text text-anchor="middle" x="1010" y="-367.5" font-family="Helvetica,sans-Serif" font-size="10.00">TPCBase/PadROCPos.h</text>
</a>
</g>
</g>
<!-- Node8&#45;&gt;Node29 -->
<g id="edge37" class="edge"><title>Node8&#45;&gt;Node29</title>
<path fill="none" stroke="midnightblue" d="M805.767,-472.48C835.707,-464.976 878.157,-452.645 913,-436 942.055,-422.12 972.399,-400.44 991.246,-385.983"/>
<polygon fill="midnightblue" stroke="midnightblue" points="993.549,-388.625 999.284,-379.717 989.245,-383.104 993.549,-388.625"/>
</g>
<!-- Node31 -->
<g id="node31" class="node"><title>Node31</title>
<g id="a_node31"><a xlink:href="../../d3/d54/DigitPos_8h.html" target="_top" xlink:title="TPCBase/DigitPos.h">
<polygon fill="none" stroke="black" points="796,-416.5 796,-435.5 904,-435.5 904,-416.5 796,-416.5"/>
<text text-anchor="middle" x="850" y="-423.5" font-family="Helvetica,sans-Serif" font-size="10.00">TPCBase/DigitPos.h</text>
</a>
</g>
</g>
<!-- Node8&#45;&gt;Node31 -->
<g id="edge43" class="edge"><title>Node8&#45;&gt;Node31</title>
<path fill="none" stroke="midnightblue" d="M781.175,-472.324C793.847,-463.979 813.233,-451.212 828.206,-441.352"/>
<polygon fill="midnightblue" stroke="midnightblue" points="830.431,-444.078 836.858,-435.655 826.581,-438.231 830.431,-444.078"/>
</g>
<!-- Node33 -->
<g id="node33" class="node"><title>Node33</title>
<g id="a_node33"><a xlink:href="../../d1/d1f/FECInfo_8h.html" target="_top" xlink:title="TPCBase/FECInfo.h">
<polygon fill="none" stroke="black" points="1168.5,-248.5 1168.5,-267.5 1275.5,-267.5 1275.5,-248.5 1168.5,-248.5"/>
<text text-anchor="middle" x="1222" y="-255.5" font-family="Helvetica,sans-Serif" font-size="10.00">TPCBase/FECInfo.h</text>
</a>
</g>
</g>
<!-- Node8&#45;&gt;Node33 -->
<g id="edge51" class="edge"><title>Node8&#45;&gt;Node33</title>
<path fill="none" stroke="midnightblue" d="M819.808,-481.412C912.786,-481.126 1103.03,-475.557 1154,-436 1204.45,-396.843 1217.49,-315.383 1220.84,-278.225"/>
<polygon fill="midnightblue" stroke="midnightblue" points="1224.37,-278.062 1221.63,-267.827 1217.39,-277.535 1224.37,-278.062"/>
</g>
<!-- Node34 -->
<g id="node34" class="node"><title>Node34</title>
<g id="a_node34"><a xlink:href="../../da/d9d/PadRegionInfo_8h.html" target="_top" xlink:title="TPCBase/PadRegionInfo.h">
<polygon fill="none" stroke="black" points="566.5,-416.5 566.5,-435.5 701.5,-435.5 701.5,-416.5 566.5,-416.5"/>
<text text-anchor="middle" x="634" y="-423.5" font-family="Helvetica,sans-Serif" font-size="10.00">TPCBase/PadRegionInfo.h</text>
</a>
</g>
</g>
<!-- Node8&#45;&gt;Node34 -->
<g id="edge53" class="edge"><title>Node8&#45;&gt;Node34</title>
<path fill="none" stroke="midnightblue" d="M746.767,-472.444C724.616,-463.517 689.681,-449.439 664.564,-439.317"/>
<polygon fill="midnightblue" stroke="midnightblue" points="665.717,-436.008 655.133,-435.516 663.1,-442.501 665.717,-436.008"/>
</g>
<!-- Node35 -->
<g id="node35" class="node"><title>Node35</title>
<g id="a_node35"><a xlink:href="../../d6/d42/PartitionInfo_8h.html" target="_top" xlink:title="TPCBase/PartitionInfo.h">
<polygon fill="none" stroke="black" points="425.5,-416.5 425.5,-435.5 548.5,-435.5 548.5,-416.5 425.5,-416.5"/>
<text text-anchor="middle" x="487" y="-423.5" font-family="Helvetica,sans-Serif" font-size="10.00">TPCBase/PartitionInfo.h</text>
</a>
</g>
</g>
<!-- Node8&#45;&gt;Node35 -->
<g id="edge57" class="edge"><title>Node8&#45;&gt;Node35</title>
<path fill="none" stroke="midnightblue" d="M723.475,-472.444C674.044,-462.944 594.254,-447.611 541.222,-437.42"/>
<polygon fill="midnightblue" stroke="midnightblue" points="541.798,-433.967 531.317,-435.516 540.477,-440.841 541.798,-433.967"/>
</g>
<!-- Node13&#45;&gt;Node12 -->
<g id="edge17" class="edge"><title>Node13&#45;&gt;Node12</title>
<path fill="none" stroke="midnightblue" d="M844.253,-192.444C758.725,-180.781 608.704,-160.323 543.165,-151.386"/>
<polygon fill="midnightblue" stroke="midnightblue" points="543.411,-147.887 533.03,-150.004 542.466,-154.823 543.411,-147.887"/>
</g>
<!-- Node14 -->
<g id="node14" class="node"><title>Node14</title>
<g id="a_node14"><a xlink:href="../../d2/dd0/Cartesian2D_8h.html" target="_top" xlink:title="MathUtils/Cartesian2D.h">
<polygon fill="none" stroke="black" points="1051.5,-74.5 1051.5,-93.5 1176.5,-93.5 1176.5,-74.5 1051.5,-74.5"/>
<text text-anchor="middle" x="1114" y="-81.5" font-family="Helvetica,sans-Serif" font-size="10.00">MathUtils/Cartesian2D.h</text>
</a>
</g>
</g>
<!-- Node13&#45;&gt;Node14 -->
<g id="edge18" class="edge"><title>Node13&#45;&gt;Node14</title>
<path fill="none" stroke="midnightblue" d="M922.221,-192.47C957.81,-172.527 1046.7,-122.713 1089.81,-98.5584"/>
<polygon fill="midnightblue" stroke="midnightblue" points="1091.74,-101.484 1098.76,-93.5423 1088.32,-95.3776 1091.74,-101.484"/>
</g>
<!-- Node17 -->
<g id="node17" class="node"><title>Node17</title>
<g id="a_node17"><a xlink:href="../../dd/d76/Cartesian3D_8h.html" target="_top" xlink:title="MathUtils/Cartesian3D.h">
<polygon fill="none" stroke="black" points="635.5,-136.5 635.5,-155.5 760.5,-155.5 760.5,-136.5 635.5,-136.5"/>
<text text-anchor="middle" x="698" y="-143.5" font-family="Helvetica,sans-Serif" font-size="10.00">MathUtils/Cartesian3D.h</text>
</a>
</g>
</g>
<!-- Node13&#45;&gt;Node17 -->
<g id="edge21" class="edge"><title>Node13&#45;&gt;Node17</title>
<path fill="none" stroke="midnightblue" d="M873.883,-192.444C837.882,-183.142 780.23,-168.246 740.814,-158.062"/>
<polygon fill="midnightblue" stroke="midnightblue" points="741.519,-154.629 730.962,-155.516 739.768,-161.407 741.519,-154.629"/>
</g>
<!-- Node15 -->
<g id="node15" class="node"><title>Node15</title>
<polygon fill="none" stroke="#bfbfbf" points="947.5,-1 947.5,-31 1098.5,-31 1098.5,-1 947.5,-1"/>
<text text-anchor="start" x="955.5" y="-19" font-family="Helvetica,sans-Serif" font-size="10.00">Math/GenVector/Displacement</text>
<text text-anchor="middle" x="1023" y="-8" font-family="Helvetica,sans-Serif" font-size="10.00">Vector2D.h</text>
</g>
<!-- Node14&#45;&gt;Node15 -->
<g id="edge19" class="edge"><title>Node14&#45;&gt;Node15</title>
<path fill="none" stroke="midnightblue" d="M1102.1,-74.3717C1089.22,-65.0286 1068.22,-49.7966 1051.09,-37.375"/>
<polygon fill="midnightblue" stroke="midnightblue" points="1052.7,-34.2194 1042.55,-31.1815 1048.59,-39.8859 1052.7,-34.2194"/>
</g>
<!-- Node16 -->
<g id="node16" class="node"><title>Node16</title>
<polygon fill="none" stroke="#bfbfbf" points="1117,-6.5 1117,-25.5 1293,-25.5 1293,-6.5 1117,-6.5"/>
<text text-anchor="middle" x="1205" y="-13.5" font-family="Helvetica,sans-Serif" font-size="10.00">Math/GenVector/PositionVector2D.h</text>
</g>
<!-- Node14&#45;&gt;Node16 -->
<g id="edge20" class="edge"><title>Node14&#45;&gt;Node16</title>
<path fill="none" stroke="midnightblue" d="M1125.9,-74.3717C1140.88,-63.5015 1166.86,-44.6602 1184.94,-31.5474"/>
<polygon fill="midnightblue" stroke="midnightblue" points="1187.06,-34.3349 1193.1,-25.6305 1182.95,-28.6684 1187.06,-34.3349"/>
</g>
<!-- Node17&#45;&gt;Node14 -->
<g id="edge30" class="edge"><title>Node17&#45;&gt;Node14</title>
<path fill="none" stroke="midnightblue" d="M760.669,-138.238C829.78,-130.447 944.162,-116.567 1042,-100 1049.7,-98.696 1057.83,-97.1587 1065.75,-95.5741"/>
<polygon fill="midnightblue" stroke="midnightblue" points="1066.52,-98.9893 1075.61,-93.5556 1065.12,-92.1314 1066.52,-98.9893"/>
</g>
<!-- Node18 -->
<g id="node18" class="node"><title>Node18</title>
<polygon fill="none" stroke="#bfbfbf" points="688.5,-69 688.5,-99 839.5,-99 839.5,-69 688.5,-69"/>
<text text-anchor="start" x="696.5" y="-87" font-family="Helvetica,sans-Serif" font-size="10.00">Math/GenVector/Displacement</text>
<text text-anchor="middle" x="764" y="-76" font-family="Helvetica,sans-Serif" font-size="10.00">Vector3D.h</text>
</g>
<!-- Node17&#45;&gt;Node18 -->
<g id="edge22" class="edge"><title>Node17&#45;&gt;Node18</title>
<path fill="none" stroke="midnightblue" d="M707.456,-136.403C716.144,-128.505 729.376,-116.477 740.855,-106.041"/>
<polygon fill="midnightblue" stroke="midnightblue" points="743.4,-108.457 748.445,-99.1408 738.691,-103.278 743.4,-108.457"/>
</g>
<!-- Node19 -->
<g id="node19" class="node"><title>Node19</title>
<polygon fill="none" stroke="#bfbfbf" points="858,-74.5 858,-93.5 1034,-93.5 1034,-74.5 858,-74.5"/>
<text text-anchor="middle" x="946" y="-81.5" font-family="Helvetica,sans-Serif" font-size="10.00">Math/GenVector/PositionVector3D.h</text>
</g>
<!-- Node17&#45;&gt;Node19 -->
<g id="edge23" class="edge"><title>Node17&#45;&gt;Node19</title>
<path fill="none" stroke="midnightblue" d="M733.269,-136.467C777.34,-125.805 852.813,-107.545 901.004,-95.886"/>
<polygon fill="midnightblue" stroke="midnightblue" points="901.956,-99.2568 910.853,-93.5034 900.31,-92.4531 901.956,-99.2568"/>
</g>
<!-- Node20 -->
<g id="node20" class="node"><title>Node20</title>
<polygon fill="none" stroke="#bfbfbf" points="0.5,-74.5 0.5,-93.5 149.5,-93.5 149.5,-74.5 0.5,-74.5"/>
<text text-anchor="middle" x="75" y="-81.5" font-family="Helvetica,sans-Serif" font-size="10.00">Math/GenVector/Rotation3D.h</text>
</g>
<!-- Node17&#45;&gt;Node20 -->
<g id="edge24" class="edge"><title>Node17&#45;&gt;Node20</title>
<path fill="none" stroke="midnightblue" d="M635.142,-141.662C534.37,-135.883 330.554,-122.429 159,-100 149.085,-98.7037 138.559,-97.0482 128.433,-95.3129"/>
<polygon fill="midnightblue" stroke="midnightblue" points="128.933,-91.8473 118.478,-93.5615 127.72,-98.7414 128.933,-91.8473"/>
</g>
<!-- Node21 -->
<g id="node21" class="node"><title>Node21</title>
<polygon fill="none" stroke="#bfbfbf" points="168,-74.5 168,-93.5 324,-93.5 324,-74.5 168,-74.5"/>
<text text-anchor="middle" x="246" y="-81.5" font-family="Helvetica,sans-Serif" font-size="10.00">Math/GenVector/Transform3D.h</text>
</g>
<!-- Node17&#45;&gt;Node21 -->
<g id="edge25" class="edge"><title>Node17&#45;&gt;Node21</title>
<path fill="none" stroke="midnightblue" d="M635.227,-138.189C562.406,-130.073 438.796,-115.633 333,-100 323.22,-98.5549 312.846,-96.8858 302.797,-95.1973"/>
<polygon fill="midnightblue" stroke="midnightblue" points="303.337,-91.7389 292.891,-93.5099 302.161,-98.6395 303.337,-91.7389"/>
</g>
<!-- Node22 -->
<g id="node22" class="node"><title>Node22</title>
<polygon fill="none" stroke="#bfbfbf" points="342,-74.5 342,-93.5 502,-93.5 502,-74.5 342,-74.5"/>
<text text-anchor="middle" x="422" y="-81.5" font-family="Helvetica,sans-Serif" font-size="10.00">Math/GenVector/Translation3D.h</text>
</g>
<!-- Node17&#45;&gt;Node22 -->
<g id="edge26" class="edge"><title>Node17&#45;&gt;Node22</title>
<path fill="none" stroke="midnightblue" d="M658.749,-136.467C609.394,-125.738 524.652,-107.316 471.07,-95.6673"/>
<polygon fill="midnightblue" stroke="midnightblue" points="471.631,-92.2076 461.116,-93.5034 470.144,-99.0479 471.631,-92.2076"/>
</g>
<!-- Node23 -->
<g id="node23" class="node"><title>Node23</title>
<polygon fill="none" stroke="#bfbfbf" points="520,-74.5 520,-93.5 576,-93.5 576,-74.5 520,-74.5"/>
<text text-anchor="middle" x="548" y="-81.5" font-family="Helvetica,sans-Serif" font-size="10.00">Rtypes.h</text>
</g>
<!-- Node17&#45;&gt;Node23 -->
<g id="edge27" class="edge"><title>Node17&#45;&gt;Node23</title>
<path fill="none" stroke="midnightblue" d="M676.321,-136.413C653.562,-127.387 616.742,-112.754 585,-100 582.91,-99.1601 580.754,-98.2917 578.583,-97.4156"/>
<polygon fill="midnightblue" stroke="midnightblue" points="579.705,-94.0943 569.123,-93.5894 577.081,-100.584 579.705,-94.0943"/>
</g>
<!-- Node24 -->
<g id="node24" class="node"><title>Node24</title>
<polygon fill="none" stroke="#bfbfbf" points="594,-74.5 594,-93.5 670,-93.5 670,-74.5 594,-74.5"/>
<text text-anchor="middle" x="632" y="-81.5" font-family="Helvetica,sans-Serif" font-size="10.00">TGeoMatrix.h</text>
</g>
<!-- Node17&#45;&gt;Node24 -->
<g id="edge28" class="edge"><title>Node17&#45;&gt;Node24</title>
<path fill="none" stroke="midnightblue" d="M688.544,-136.403C678.252,-127.047 661.584,-111.895 649.006,-100.46"/>
<polygon fill="midnightblue" stroke="midnightblue" points="651.192,-97.7176 641.439,-93.5806 646.484,-102.897 651.192,-97.7176"/>
</g>
<!-- Node25 -->
<g id="node25" class="node"><title>Node25</title>
<polygon fill="none" stroke="#bfbfbf" points="1195,-74.5 1195,-93.5 1249,-93.5 1249,-74.5 1195,-74.5"/>
<text text-anchor="middle" x="1222" y="-81.5" font-family="Helvetica,sans-Serif" font-size="10.00">iostream</text>
</g>
<!-- Node17&#45;&gt;Node25 -->
<g id="edge29" class="edge"><title>Node17&#45;&gt;Node25</title>
<path fill="none" stroke="midnightblue" d="M760.844,-145.025C854.556,-143.761 1035.88,-136.279 1185,-100 1188.07,-99.254 1191.21,-98.2988 1194.31,-97.2325"/>
<polygon fill="midnightblue" stroke="midnightblue" points="1195.82,-100.406 1203.91,-93.5677 1193.32,-93.8663 1195.82,-100.406"/>
</g>
<!-- Node27&#45;&gt;Node26 -->
<g id="edge36" class="edge"><title>Node27&#45;&gt;Node26</title>
<path fill="none" stroke="midnightblue" d="M692.014,-360.324C704.532,-351.979 723.682,-339.212 738.471,-329.352"/>
<polygon fill="midnightblue" stroke="midnightblue" points="740.639,-332.114 747.018,-323.655 736.756,-326.289 740.639,-332.114"/>
</g>
<!-- Node27&#45;&gt;Node28 -->
<g id="edge33" class="edge"><title>Node27&#45;&gt;Node28</title>
<path fill="none" stroke="midnightblue" d="M680.261,-360.078C682.389,-347.054 687.528,-322.39 698,-304 704.252,-293.022 713.686,-282.586 722.03,-274.534"/>
<polygon fill="midnightblue" stroke="midnightblue" points="724.571,-276.952 729.557,-267.603 719.83,-271.802 724.571,-276.952"/>
</g>
<!-- Node28&#45;&gt;Node7 -->
<g id="edge34" class="edge"><title>Node28&#45;&gt;Node7</title>
<path fill="none" stroke="midnightblue" d="M690.326,-252.302C592.811,-243.08 375.325,-222.512 254.342,-211.071"/>
<polygon fill="midnightblue" stroke="midnightblue" points="254.657,-207.585 244.372,-210.128 253.998,-214.554 254.657,-207.585"/>
</g>
<!-- Node28&#45;&gt;Node13 -->
<g id="edge35" class="edge"><title>Node28&#45;&gt;Node13</title>
<path fill="none" stroke="midnightblue" d="M766.462,-248.444C794.678,-239.32 839.54,-224.813 870.968,-214.651"/>
<polygon fill="midnightblue" stroke="midnightblue" points="872.224,-217.923 880.662,-211.516 870.07,-211.263 872.224,-217.923"/>
</g>
<!-- Node29&#45;&gt;Node13 -->
<g id="edge38" class="edge"><title>Node29&#45;&gt;Node13</title>
<path fill="none" stroke="midnightblue" d="M1011.89,-360.157C1014.22,-347.231 1016.96,-322.689 1009,-304 992.728,-265.818 954.457,-234.568 929.698,-217.392"/>
<polygon fill="midnightblue" stroke="midnightblue" points="931.505,-214.389 921.254,-211.713 927.599,-220.198 931.505,-214.389"/>
</g>
<!-- Node29&#45;&gt;Node26 -->
<g id="edge42" class="edge"><title>Node29&#45;&gt;Node26</title>
<path fill="none" stroke="midnightblue" d="M970.387,-360.444C926.775,-351.023 856.6,-335.866 809.422,-325.675"/>
<polygon fill="midnightblue" stroke="midnightblue" points="809.941,-322.207 799.428,-323.516 808.464,-329.049 809.941,-322.207"/>
</g>
<!-- Node30 -->
<g id="node30" class="node"><title>Node30</title>
<g id="a_node30"><a xlink:href="../../dc/d14/ROC_8h.html" target="_top" xlink:title="TPCBase/ROC.h">
<polygon fill="none" stroke="black" points="907.5,-304.5 907.5,-323.5 1000.5,-323.5 1000.5,-304.5 907.5,-304.5"/>
<text text-anchor="middle" x="954" y="-311.5" font-family="Helvetica,sans-Serif" font-size="10.00">TPCBase/ROC.h</text>
</a>
</g>
</g>
<!-- Node29&#45;&gt;Node30 -->
<g id="edge39" class="edge"><title>Node29&#45;&gt;Node30</title>
<path fill="none" stroke="midnightblue" d="M1001,-360.324C992.806,-352.42 980.494,-340.548 970.528,-330.938"/>
<polygon fill="midnightblue" stroke="midnightblue" points="972.789,-328.256 963.161,-323.834 967.93,-333.295 972.789,-328.256"/>
</g>
<!-- Node30&#45;&gt;Node13 -->
<g id="edge40" class="edge"><title>Node30&#45;&gt;Node13</title>
<path fill="none" stroke="midnightblue" d="M950.312,-304.368C942.659,-286.456 924.913,-244.923 914.669,-220.948"/>
<polygon fill="midnightblue" stroke="midnightblue" points="917.819,-219.412 910.671,-211.591 911.382,-222.162 917.819,-219.412"/>
</g>
<!-- Node30&#45;&gt;Node28 -->
<g id="edge41" class="edge"><title>Node30&#45;&gt;Node28</title>
<path fill="none" stroke="midnightblue" d="M920.091,-304.444C883.151,-295.122 823.946,-280.183 783.582,-269.997"/>
<polygon fill="midnightblue" stroke="midnightblue" points="784.303,-266.57 773.75,-267.516 782.59,-273.357 784.303,-266.57"/>
</g>
<!-- Node31&#45;&gt;Node13 -->
<g id="edge44" class="edge"><title>Node31&#45;&gt;Node13</title>
<path fill="none" stroke="midnightblue" d="M904.019,-418.21C969.239,-409.462 1071.66,-393.742 1083,-380 1137.84,-313.559 1001.38,-243.572 937.652,-215.612"/>
<polygon fill="midnightblue" stroke="midnightblue" points="939.017,-212.389 928.449,-211.644 936.246,-218.817 939.017,-212.389"/>
</g>
<!-- Node31&#45;&gt;Node26 -->
<g id="edge49" class="edge"><title>Node31&#45;&gt;Node26</title>
<path fill="none" stroke="midnightblue" d="M842.938,-416.368C827.954,-398.055 792.767,-355.049 773.387,-331.362"/>
<polygon fill="midnightblue" stroke="midnightblue" points="776.071,-329.115 767.029,-323.591 770.653,-333.547 776.071,-329.115"/>
</g>
<!-- Node31&#45;&gt;Node27 -->
<g id="edge50" class="edge"><title>Node31&#45;&gt;Node27</title>
<path fill="none" stroke="midnightblue" d="M822.905,-416.444C794.012,-407.32 748.075,-392.813 715.895,-382.651"/>
<polygon fill="midnightblue" stroke="midnightblue" points="716.559,-379.19 705.969,-379.516 714.451,-385.865 716.559,-379.19"/>
</g>
<!-- Node32 -->
<g id="node32" class="node"><title>Node32</title>
<g id="a_node32"><a xlink:href="../../df/d26/CRU_8h.html" target="_top" xlink:title="TPCBase/CRU.h">
<polygon fill="none" stroke="black" points="834.5,-360.5 834.5,-379.5 927.5,-379.5 927.5,-360.5 834.5,-360.5"/>
<text text-anchor="middle" x="881" y="-367.5" font-family="Helvetica,sans-Serif" font-size="10.00">TPCBase/CRU.h</text>
</a>
</g>
</g>
<!-- Node31&#45;&gt;Node32 -->
<g id="edge45" class="edge"><title>Node31&#45;&gt;Node32</title>
<path fill="none" stroke="midnightblue" d="M855.119,-416.083C859.408,-408.613 865.658,-397.724 870.942,-388.52"/>
<polygon fill="midnightblue" stroke="midnightblue" points="874.033,-390.166 875.976,-379.751 867.962,-386.681 874.033,-390.166"/>
</g>
<!-- Node32&#45;&gt;Node13 -->
<g id="edge46" class="edge"><title>Node32&#45;&gt;Node13</title>
<path fill="none" stroke="midnightblue" d="M882.398,-360.075C886.49,-333.945 898.509,-257.211 904.09,-221.577"/>
<polygon fill="midnightblue" stroke="midnightblue" points="907.568,-221.989 905.658,-211.568 900.653,-220.906 907.568,-221.989"/>
</g>
<!-- Node32&#45;&gt;Node28 -->
<g id="edge47" class="edge"><title>Node32&#45;&gt;Node28</title>
<path fill="none" stroke="midnightblue" d="M874.366,-360.176C864.029,-346.84 842.973,-321.274 821,-304 804.825,-291.284 784.594,-280.042 768.398,-271.975"/>
<polygon fill="midnightblue" stroke="midnightblue" points="769.914,-268.82 759.389,-267.605 766.858,-275.118 769.914,-268.82"/>
</g>
<!-- Node32&#45;&gt;Node30 -->
<g id="edge48" class="edge"><title>Node32&#45;&gt;Node30</title>
<path fill="none" stroke="midnightblue" d="M892.729,-360.324C903.837,-352.107 920.742,-339.602 933.983,-329.807"/>
<polygon fill="midnightblue" stroke="midnightblue" points="936.1,-332.595 942.058,-323.834 931.937,-326.967 936.1,-332.595"/>
</g>
<!-- Node33&#45;&gt;Node25 -->
<g id="edge52" class="edge"><title>Node33&#45;&gt;Node25</title>
<path fill="none" stroke="midnightblue" d="M1222,-248.234C1222,-221.548 1222,-140.877 1222,-103.893"/>
<polygon fill="midnightblue" stroke="midnightblue" points="1225.5,-103.544 1222,-93.5442 1218.5,-103.544 1225.5,-103.544"/>
</g>
<!-- Node34&#45;&gt;Node2 -->
<g id="edge54" class="edge"><title>Node34&#45;&gt;Node2</title>
<path fill="none" stroke="midnightblue" d="M578.383,-416.444C504.164,-405.025 375.151,-385.177 315.26,-375.963"/>
<polygon fill="midnightblue" stroke="midnightblue" points="315.663,-372.484 305.247,-374.423 314.598,-379.403 315.663,-372.484"/>
</g>
<!-- Node34&#45;&gt;Node13 -->
<g id="edge55" class="edge"><title>Node34&#45;&gt;Node13</title>
<path fill="none" stroke="midnightblue" d="M624.355,-416.139C612.349,-403.98 594.202,-381.212 601,-360 619.668,-301.746 629.617,-281.193 681,-248 726.396,-218.675 786.813,-207.769 833.757,-204.008"/>
<polygon fill="midnightblue" stroke="midnightblue" points="834.135,-207.49 843.862,-203.291 833.639,-200.507 834.135,-207.49"/>
</g>
<!-- Node34&#45;&gt;Node26 -->
<g id="edge56" class="edge"><title>Node34&#45;&gt;Node26</title>
<path fill="none" stroke="midnightblue" d="M625.644,-416.269C614.033,-403.053 595.848,-377.642 609,-360 629.284,-332.789 665.376,-321.384 697.187,-316.855"/>
<polygon fill="midnightblue" stroke="midnightblue" points="697.838,-320.302 707.34,-315.615 696.989,-313.354 697.838,-320.302"/>
</g>
</g>
</svg>
