<?xml version="1.0" encoding="UTF-8" standalone="no"?>
<!DOCTYPE svg PUBLIC "-//W3C//DTD SVG 1.1//EN"
 "http://www.w3.org/Graphics/SVG/1.1/DTD/svg11.dtd">
<!-- Generated by graphviz version 2.36.0 (20140111.2315)
 -->
<!-- Title: /home/travis/build/AliceO2Group/AliceO2/Detectors/Passive/src/Magnet.cxx Pages: 1 -->
<!--zoomable 230 -->
<svg id="main" version="1.1" xmlns="http://www.w3.org/2000/svg" xmlns:xlink="http://www.w3.org/1999/xlink" xml:space="preserve" onload="init(evt)">
<style type="text/css"><![CDATA[
.edge:hover path { stroke: red; }
.edge:hover polygon { stroke: red; fill: red; }
]]></style>
<script type="text/javascript"><![CDATA[
var edges = document.getElementsByTagName('g');
if (edges && edges.length) {
  for (var i=0;i<edges.length;i++) {
    if (edges[i].id.substr(0,4)=='edge') {
      edges[i].setAttribute('class','edge');
    }
  }
}
]]></script>
        <defs>
                <circle id="rim" cx="0" cy="0" r="7"/>
                <circle id="rim2" cx="0" cy="0" r="3.5"/>
                <g id="zoomPlus">
                        <use xlink:href="#rim" fill="#404040">
                                <set attributeName="fill" to="#808080" begin="zoomplus.mouseover" end="zoomplus.mouseout"/>
                        </use>
                        <path d="M-4,0h8M0,-4v8" fill="none" stroke="white" stroke-width="1.5" pointer-events="none"/>
                </g>
                <g id="zoomMin">
                        <use xlink:href="#rim" fill="#404040">
                                <set attributeName="fill" to="#808080" begin="zoomminus.mouseover" end="zoomminus.mouseout"/>
                        </use>
                        <path d="M-4,0h8" fill="none" stroke="white" stroke-width="1.5" pointer-events="none"/>
                </g>
                <g id="dirArrow">
                        <path fill="none" stroke="white" stroke-width="1.5" d="M0,-3.0v7 M-2.5,-0.5L0,-3.0L2.5,-0.5"/>
                </g>
               <g id="resetDef">
                       <use xlink:href="#rim2" fill="#404040">
                               <set attributeName="fill" to="#808080" begin="reset.mouseover" end="reset.mouseout"/>
                       </use>
               </g>
        </defs>

<script type="text/javascript">
var viewWidth = 1360;
var viewHeight = 230;
var sectionId = 'dynsection-0';
</script>
<script xlink:href="../../svgpan.js"/>
<svg id="graph" class="graph">
<g id="viewport">
<title>/home/travis/build/AliceO2Group/AliceO2/Detectors/Passive/src/Magnet.cxx</title>
<!-- Node1 -->
<g id="node1" class="node"><title>Node1</title>
<polygon fill="#bfbfbf" stroke="black" points="812,-169 812,-221 930,-221 930,-169 812,-169"/>
<text text-anchor="start" x="820" y="-209" font-family="Helvetica,sans-Serif" font-size="10.00">/home/travis/build</text>
<text text-anchor="start" x="820" y="-198" font-family="Helvetica,sans-Serif" font-size="10.00">/AliceO2Group/AliceO2</text>
<text text-anchor="start" x="820" y="-187" font-family="Helvetica,sans-Serif" font-size="10.00">/Detectors/Passive/src</text>
<text text-anchor="middle" x="871" y="-176" font-family="Helvetica,sans-Serif" font-size="10.00">/Magnet.cxx</text>
</g>
<!-- Node2 -->
<g id="node2" class="node"><title>Node2</title>
<g id="a_node2"><a xlink:href="../../d1/d3a/Base_2include_2DetectorsBase_2Detector_8h.html" target="_top" xlink:title="DetectorsBase/Detector.h">
<polygon fill="none" stroke="black" points="399.5,-112.5 399.5,-131.5 530.5,-131.5 530.5,-112.5 399.5,-112.5"/>
<text text-anchor="middle" x="465" y="-119.5" font-family="Helvetica,sans-Serif" font-size="10.00">DetectorsBase/Detector.h</text>
</a>
</g>
</g>
<!-- Node1&#45;&gt;Node2 -->
<g id="edge1" class="edge"><title>Node1&#45;&gt;Node2</title>
<path fill="none" stroke="midnightblue" d="M811.964,-183.676C734.824,-170.186 600.542,-146.703 523.612,-133.25"/>
<polygon fill="midnightblue" stroke="midnightblue" points="524.06,-129.775 513.607,-131.5 522.854,-136.671 524.06,-129.775"/>
</g>
<!-- Node8 -->
<g id="node8" class="node"><title>Node8</title>
<g id="a_node8"><a xlink:href="../../d0/d9a/MaterialManager_8h.html" target="_top" xlink:title="DetectorsBase/MaterialManager.h">
<polygon fill="none" stroke="black" points="835.5,-56.5 835.5,-75.5 1000.5,-75.5 1000.5,-56.5 835.5,-56.5"/>
<text text-anchor="middle" x="918" y="-63.5" font-family="Helvetica,sans-Serif" font-size="10.00">DetectorsBase/MaterialManager.h</text>
</a>
</g>
</g>
<!-- Node1&#45;&gt;Node8 -->
<g id="edge15" class="edge"><title>Node1&#45;&gt;Node8</title>
<path fill="none" stroke="midnightblue" d="M811.812,-190.061C734.858,-183.566 606.852,-167.596 578,-132 572.403,-125.095 572.141,-118.685 578,-112 586.161,-102.688 727.3,-86.4748 825.139,-76.2627"/>
<polygon fill="midnightblue" stroke="midnightblue" points="825.771,-79.716 835.356,-75.2016 825.047,-72.7534 825.771,-79.716"/>
</g>
<!-- Node14 -->
<g id="node14" class="node"><title>Node14</title>
<g id="a_node14"><a xlink:href="../../dd/db0/Magnet_8h.html" target="_top" xlink:title="DetectorsPassive/Magnet.h">
<polygon fill="none" stroke="black" points="32,-112.5 32,-131.5 170,-131.5 170,-112.5 32,-112.5"/>
<text text-anchor="middle" x="101" y="-119.5" font-family="Helvetica,sans-Serif" font-size="10.00">DetectorsPassive/Magnet.h</text>
</a>
</g>
</g>
<!-- Node1&#45;&gt;Node14 -->
<g id="edge16" class="edge"><title>Node1&#45;&gt;Node14</title>
<path fill="none" stroke="midnightblue" d="M811.858,-188.547C674.847,-175.913 335.595,-144.631 180.574,-130.337"/>
<polygon fill="midnightblue" stroke="midnightblue" points="180.464,-126.812 170.185,-129.379 179.822,-133.783 180.464,-126.812"/>
</g>
<!-- Node16 -->
<g id="node16" class="node"><title>Node16</title>
<polygon fill="none" stroke="#bfbfbf" points="587,-112.5 587,-131.5 711,-131.5 711,-112.5 587,-112.5"/>
<text text-anchor="middle" x="649" y="-119.5" font-family="Helvetica,sans-Serif" font-size="10.00">TGeoCompositeShape.h</text>
</g>
<!-- Node1&#45;&gt;Node16 -->
<g id="edge19" class="edge"><title>Node1&#45;&gt;Node16</title>
<path fill="none" stroke="midnightblue" d="M811.8,-175.067C771.584,-162.205 719.675,-145.603 685.412,-134.645"/>
<polygon fill="midnightblue" stroke="midnightblue" points="686.4,-131.287 675.809,-131.574 684.268,-137.954 686.4,-131.287"/>
</g>
<!-- Node17 -->
<g id="node17" class="node"><title>Node17</title>
<polygon fill="none" stroke="#bfbfbf" points="729,-112.5 729,-131.5 815,-131.5 815,-112.5 729,-112.5"/>
<text text-anchor="middle" x="772" y="-119.5" font-family="Helvetica,sans-Serif" font-size="10.00">TGeoManager.h</text>
</g>
<!-- Node1&#45;&gt;Node17 -->
<g id="edge20" class="edge"><title>Node1&#45;&gt;Node17</title>
<path fill="none" stroke="midnightblue" d="M836.096,-168.968C821.582,-158.559 805.23,-146.831 792.674,-137.827"/>
<polygon fill="midnightblue" stroke="midnightblue" points="794.45,-134.793 784.284,-131.81 790.37,-140.482 794.45,-134.793"/>
</g>
<!-- Node18 -->
<g id="node18" class="node"><title>Node18</title>
<polygon fill="none" stroke="#bfbfbf" points="833,-112.5 833,-131.5 909,-131.5 909,-112.5 833,-112.5"/>
<text text-anchor="middle" x="871" y="-119.5" font-family="Helvetica,sans-Serif" font-size="10.00">TGeoMatrix.h</text>
</g>
<!-- Node1&#45;&gt;Node18 -->
<g id="edge21" class="edge"><title>Node1&#45;&gt;Node18</title>
<path fill="none" stroke="midnightblue" d="M871,-168.768C871,-159.89 871,-150.074 871,-141.816"/>
<polygon fill="midnightblue" stroke="midnightblue" points="874.5,-141.757 871,-131.757 867.5,-141.757 874.5,-141.757"/>
</g>
<!-- Node19 -->
<g id="node19" class="node"><title>Node19</title>
<polygon fill="none" stroke="#bfbfbf" points="927.5,-112.5 927.5,-131.5 1010.5,-131.5 1010.5,-112.5 927.5,-112.5"/>
<text text-anchor="middle" x="969" y="-119.5" font-family="Helvetica,sans-Serif" font-size="10.00">TGeoMedium.h</text>
</g>
<!-- Node1&#45;&gt;Node19 -->
<g id="edge22" class="edge"><title>Node1&#45;&gt;Node19</title>
<path fill="none" stroke="midnightblue" d="M905.551,-168.968C919.919,-158.559 936.106,-146.831 948.535,-137.827"/>
<polygon fill="midnightblue" stroke="midnightblue" points="950.796,-140.511 956.84,-131.81 946.689,-134.842 950.796,-140.511"/>
</g>
<!-- Node20 -->
<g id="node20" class="node"><title>Node20</title>
<polygon fill="none" stroke="#bfbfbf" points="1028.5,-112.5 1028.5,-131.5 1099.5,-131.5 1099.5,-112.5 1028.5,-112.5"/>
<text text-anchor="middle" x="1064" y="-119.5" font-family="Helvetica,sans-Serif" font-size="10.00">TGeoPgon.h</text>
</g>
<!-- Node1&#45;&gt;Node20 -->
<g id="edge23" class="edge"><title>Node1&#45;&gt;Node20</title>
<path fill="none" stroke="midnightblue" d="M930.218,-172.215C963.377,-160.017 1003.48,-145.265 1031.08,-135.112"/>
<polygon fill="midnightblue" stroke="midnightblue" points="1032.46,-138.33 1040.64,-131.593 1030.05,-131.761 1032.46,-138.33"/>
</g>
<!-- Node21 -->
<g id="node21" class="node"><title>Node21</title>
<polygon fill="none" stroke="#bfbfbf" points="1118,-112.5 1118,-131.5 1200,-131.5 1200,-112.5 1118,-112.5"/>
<text text-anchor="middle" x="1159" y="-119.5" font-family="Helvetica,sans-Serif" font-size="10.00">TGeoVolume.h</text>
</g>
<!-- Node1&#45;&gt;Node21 -->
<g id="edge24" class="edge"><title>Node1&#45;&gt;Node21</title>
<path fill="none" stroke="midnightblue" d="M930.325,-179.375C985.013,-165.893 1064.97,-146.18 1114.41,-133.994"/>
<polygon fill="midnightblue" stroke="midnightblue" points="1115.3,-137.378 1124.17,-131.586 1113.62,-130.582 1115.3,-137.378"/>
</g>
<!-- Node22 -->
<g id="node22" class="node"><title>Node22</title>
<polygon fill="none" stroke="#bfbfbf" points="1218.5,-112.5 1218.5,-131.5 1285.5,-131.5 1285.5,-112.5 1218.5,-112.5"/>
<text text-anchor="middle" x="1252" y="-119.5" font-family="Helvetica,sans-Serif" font-size="10.00">TGeoXtru.h</text>
</g>
<!-- Node1&#45;&gt;Node22 -->
<g id="edge25" class="edge"><title>Node1&#45;&gt;Node22</title>
<path fill="none" stroke="midnightblue" d="M930.006,-183.636C995.417,-172.043 1104.31,-152.439 1208.18,-132.122"/>
<polygon fill="midnightblue" stroke="midnightblue" points="1209.08,-135.513 1218.22,-130.154 1207.73,-128.644 1209.08,-135.513"/>
</g>
<!-- Node23 -->
<g id="node23" class="node"><title>Node23</title>
<polygon fill="none" stroke="#bfbfbf" points="1303.5,-112.5 1303.5,-131.5 1352.5,-131.5 1352.5,-112.5 1303.5,-112.5"/>
<text text-anchor="middle" x="1328" y="-119.5" font-family="Helvetica,sans-Serif" font-size="10.00">cassert</text>
</g>
<!-- Node1&#45;&gt;Node23 -->
<g id="edge26" class="edge"><title>Node1&#45;&gt;Node23</title>
<path fill="none" stroke="midnightblue" d="M930.217,-187.467C1010.35,-178.151 1157.88,-159.325 1293.07,-131.982"/>
<polygon fill="midnightblue" stroke="midnightblue" points="1294.1,-135.344 1303.19,-129.913 1292.7,-128.486 1294.1,-135.344"/>
</g>
<!-- Node3 -->
<g id="node3" class="node"><title>Node3</title>
<polygon fill="none" stroke="#bfbfbf" points="844.5,-0.5 844.5,-19.5 879.5,-19.5 879.5,-0.5 844.5,-0.5"/>
<text text-anchor="middle" x="862" y="-7.5" font-family="Helvetica,sans-Serif" font-size="10.00">map</text>
</g>
<!-- Node2&#45;&gt;Node3 -->
<g id="edge2" class="edge"><title>Node2&#45;&gt;Node3</title>
<path fill="none" stroke="midnightblue" d="M530.83,-113.824C618.214,-103.988 764.196,-86.3614 787,-76 811.619,-64.8142 834.239,-42.9151 848.059,-27.6418"/>
<polygon fill="midnightblue" stroke="midnightblue" points="850.839,-29.7796 854.789,-19.9483 845.57,-25.1711 850.839,-29.7796"/>
</g>
<!-- Node4 -->
<g id="node4" class="node"><title>Node4</title>
<polygon fill="none" stroke="#bfbfbf" points="377,-56.5 377,-75.5 421,-75.5 421,-56.5 377,-56.5"/>
<text text-anchor="middle" x="399" y="-63.5" font-family="Helvetica,sans-Serif" font-size="10.00">vector</text>
</g>
<!-- Node2&#45;&gt;Node4 -->
<g id="edge3" class="edge"><title>Node2&#45;&gt;Node4</title>
<path fill="none" stroke="midnightblue" d="M454.396,-112.324C444.544,-104.263 429.649,-92.0765 417.785,-82.3695"/>
<polygon fill="midnightblue" stroke="midnightblue" points="419.753,-79.4575 409.797,-75.8339 415.32,-84.8752 419.753,-79.4575"/>
</g>
<!-- Node5 -->
<g id="node5" class="node"><title>Node5</title>
<polygon fill="none" stroke="#bfbfbf" points="439,-56.5 439,-75.5 491,-75.5 491,-56.5 439,-56.5"/>
<text text-anchor="middle" x="465" y="-63.5" font-family="Helvetica,sans-Serif" font-size="10.00">memory</text>
</g>
<!-- Node2&#45;&gt;Node5 -->
<g id="edge4" class="edge"><title>Node2&#45;&gt;Node5</title>
<path fill="none" stroke="midnightblue" d="M465,-112.083C465,-105.006 465,-94.8611 465,-85.9865"/>
<polygon fill="midnightblue" stroke="midnightblue" points="468.5,-85.751 465,-75.7511 461.5,-85.7511 468.5,-85.751"/>
</g>
<!-- Node6 -->
<g id="node6" class="node"><title>Node6</title>
<polygon fill="none" stroke="#bfbfbf" points="509.5,-56.5 509.5,-75.5 588.5,-75.5 588.5,-56.5 509.5,-56.5"/>
<text text-anchor="middle" x="549" y="-63.5" font-family="Helvetica,sans-Serif" font-size="10.00">FairDetector.h</text>
</g>
<!-- Node2&#45;&gt;Node6 -->
<g id="edge5" class="edge"><title>Node2&#45;&gt;Node6</title>
<path fill="none" stroke="midnightblue" d="M478.496,-112.324C491.6,-103.9 511.712,-90.9709 527.107,-81.0741"/>
<polygon fill="midnightblue" stroke="midnightblue" points="529.018,-84.0063 535.537,-75.6545 525.233,-78.118 529.018,-84.0063"/>
</g>
<!-- Node7 -->
<g id="node7" class="node"><title>Node7</title>
<polygon fill="none" stroke="#bfbfbf" points="607,-56.5 607,-75.5 707,-75.5 707,-56.5 607,-56.5"/>
<text text-anchor="middle" x="657" y="-63.5" font-family="Helvetica,sans-Serif" font-size="10.00">FairRootManager.h</text>
</g>
<!-- Node2&#45;&gt;Node7 -->
<g id="edge6" class="edge"><title>Node2&#45;&gt;Node7</title>
<path fill="none" stroke="midnightblue" d="M495.423,-112.444C528.285,-103.201 580.785,-88.4356 616.974,-78.2572"/>
<polygon fill="midnightblue" stroke="midnightblue" points="618.04,-81.5932 626.719,-75.5164 616.145,-74.8547 618.04,-81.5932"/>
</g>
<!-- Node2&#45;&gt;Node8 -->
<g id="edge7" class="edge"><title>Node2&#45;&gt;Node8</title>
<path fill="none" stroke="midnightblue" d="M530.87,-113.148C611.714,-103.511 748.809,-87.1685 836.289,-76.7403"/>
<polygon fill="midnightblue" stroke="midnightblue" points="836.925,-80.1894 846.441,-75.5303 836.097,-73.2386 836.925,-80.1894"/>
</g>
<!-- Node9 -->
<g id="node9" class="node"><title>Node9</title>
<polygon fill="none" stroke="#bfbfbf" points="111,-0.5 111,-19.5 167,-19.5 167,-0.5 111,-0.5"/>
<text text-anchor="middle" x="139" y="-7.5" font-family="Helvetica,sans-Serif" font-size="10.00">Rtypes.h</text>
</g>
<!-- Node2&#45;&gt;Node9 -->
<g id="edge10" class="edge"><title>Node2&#45;&gt;Node9</title>
<path fill="none" stroke="midnightblue" d="M399.166,-119.48C319.89,-116.297 193.002,-106.451 158,-76 144.853,-64.5624 140.56,-44.5799 139.277,-29.7813"/>
<polygon fill="midnightblue" stroke="midnightblue" points="142.768,-29.5199 138.784,-19.7025 135.776,-29.8614 142.768,-29.5199"/>
</g>
<!-- Node10 -->
<g id="node10" class="node"><title>Node10</title>
<polygon fill="none" stroke="#bfbfbf" points="725.5,-56.5 725.5,-75.5 778.5,-75.5 778.5,-56.5 725.5,-56.5"/>
<text text-anchor="middle" x="752" y="-63.5" font-family="Helvetica,sans-Serif" font-size="10.00">cxxabi.h</text>
</g>
<!-- Node2&#45;&gt;Node10 -->
<g id="edge11" class="edge"><title>Node2&#45;&gt;Node10</title>
<path fill="none" stroke="midnightblue" d="M518.576,-112.472C567.345,-104.467 641.541,-91.6813 715.371,-76.0133"/>
<polygon fill="midnightblue" stroke="midnightblue" points="716.265,-79.4013 725.31,-73.8857 714.799,-72.5564 716.265,-79.4013"/>
</g>
<!-- Node11 -->
<g id="node11" class="node"><title>Node11</title>
<polygon fill="none" stroke="#bfbfbf" points="167.5,-56.5 167.5,-75.5 218.5,-75.5 218.5,-56.5 167.5,-56.5"/>
<text text-anchor="middle" x="193" y="-63.5" font-family="Helvetica,sans-Serif" font-size="10.00">typeinfo</text>
</g>
<!-- Node2&#45;&gt;Node11 -->
<g id="edge12" class="edge"><title>Node2&#45;&gt;Node11</title>
<path fill="none" stroke="midnightblue" d="M414.874,-112.444C368.934,-104.386 298.822,-91.5462 228.492,-75.9892"/>
<polygon fill="midnightblue" stroke="midnightblue" points="229.091,-72.537 218.569,-73.7763 227.567,-79.3691 229.091,-72.537"/>
</g>
<!-- Node12 -->
<g id="node12" class="node"><title>Node12</title>
<polygon fill="none" stroke="#bfbfbf" points="237,-56.5 237,-75.5 299,-75.5 299,-56.5 237,-56.5"/>
<text text-anchor="middle" x="268" y="-63.5" font-family="Helvetica,sans-Serif" font-size="10.00">type_traits</text>
</g>
<!-- Node2&#45;&gt;Node12 -->
<g id="edge13" class="edge"><title>Node2&#45;&gt;Node12</title>
<path fill="none" stroke="midnightblue" d="M433.785,-112.444C400.067,-103.201 346.2,-88.4356 309.068,-78.2572"/>
<polygon fill="midnightblue" stroke="midnightblue" points="309.639,-74.7846 299.069,-75.5164 307.788,-81.5356 309.639,-74.7846"/>
</g>
<!-- Node13 -->
<g id="node13" class="node"><title>Node13</title>
<polygon fill="none" stroke="#bfbfbf" points="317.5,-56.5 317.5,-75.5 358.5,-75.5 358.5,-56.5 317.5,-56.5"/>
<text text-anchor="middle" x="338" y="-63.5" font-family="Helvetica,sans-Serif" font-size="10.00">string</text>
</g>
<!-- Node2&#45;&gt;Node13 -->
<g id="edge14" class="edge"><title>Node2&#45;&gt;Node13</title>
<path fill="none" stroke="midnightblue" d="M444.876,-112.444C423.976,-103.557 391.065,-89.5632 367.284,-79.4514"/>
<polygon fill="midnightblue" stroke="midnightblue" points="368.602,-76.2085 358.029,-75.5164 365.862,-82.6504 368.602,-76.2085"/>
</g>
<!-- Node8&#45;&gt;Node3 -->
<g id="edge9" class="edge"><title>Node8&#45;&gt;Node3</title>
<path fill="none" stroke="midnightblue" d="M909.003,-56.324C900.806,-48.4196 888.494,-36.5482 878.528,-26.9377"/>
<polygon fill="midnightblue" stroke="midnightblue" points="880.789,-24.2558 871.161,-19.8339 875.93,-29.2947 880.789,-24.2558"/>
</g>
<!-- Node8&#45;&gt;Node9 -->
<g id="edge8" class="edge"><title>Node8&#45;&gt;Node9</title>
<path fill="none" stroke="midnightblue" d="M835.371,-59.2722C668.697,-47.7184 297.857,-22.0119 177.516,-13.6699"/>
<polygon fill="midnightblue" stroke="midnightblue" points="177.535,-10.1629 167.317,-12.9629 177.051,-17.1461 177.535,-10.1629"/>
</g>
<!-- Node14&#45;&gt;Node9 -->
<g id="edge18" class="edge"><title>Node14&#45;&gt;Node9</title>
<path fill="none" stroke="midnightblue" d="M103.982,-112.368C110.142,-94.5366 124.389,-53.2953 132.688,-29.2717"/>
<polygon fill="midnightblue" stroke="midnightblue" points="136.075,-30.1862 136.032,-19.5914 129.459,-27.9005 136.075,-30.1862"/>
</g>
<!-- Node15 -->
<g id="node15" class="node"><title>Node15</title>
<polygon fill="none" stroke="#bfbfbf" points="-0.5,-56.5 -0.5,-75.5 72.5,-75.5 72.5,-56.5 -0.5,-56.5"/>
<text text-anchor="middle" x="36" y="-63.5" font-family="Helvetica,sans-Serif" font-size="10.00">FairModule.h</text>
</g>
<!-- Node14&#45;&gt;Node15 -->
<g id="edge17" class="edge"><title>Node14&#45;&gt;Node15</title>
<path fill="none" stroke="midnightblue" d="M90.5566,-112.324C80.8538,-104.263 66.1847,-92.0765 54.5003,-82.3695"/>
<polygon fill="midnightblue" stroke="midnightblue" points="56.5619,-79.532 46.6334,-75.8339 52.0887,-84.9163 56.5619,-79.532"/>
</g>
</g>
</svg>
        <g id="navigator" transform="translate(0 0)" fill="#404254">
                <rect fill="#f2f5e9" fill-opacity="0.5" stroke="#606060" stroke-width=".5" x="0" y="0" width="60" height="60"/>
                <use id="zoomplus" xlink:href="#zoomPlus" x="17" y="9" onmousedown="handleZoom(evt,'in')"/>
                <use id="zoomminus" xlink:href="#zoomMin" x="42" y="9" onmousedown="handleZoom(evt,'out')"/>
                <use id="reset" xlink:href="#resetDef" x="30" y="36" onmousedown="handleReset()"/>
                <g id="arrowUp" xlink:href="#dirArrow" transform="translate(30 24)" onmousedown="handlePan(0,-1)">
                  <use xlink:href="#rim" fill="#404040">
                        <set attributeName="fill" to="#808080" begin="arrowUp.mouseover" end="arrowUp.mouseout"/>
                  </use>
                  <path fill="none" stroke="white" stroke-width="1.5" d="M0,-3.0v7 M-2.5,-0.5L0,-3.0L2.5,-0.5"/>
                </g>
                <g id="arrowRight" xlink:href="#dirArrow" transform="rotate(90) translate(36 -43)" onmousedown="handlePan(1,0)">
                  <use xlink:href="#rim" fill="#404040">
                        <set attributeName="fill" to="#808080" begin="arrowRight.mouseover" end="arrowRight.mouseout"/>
                  </use>
                  <path fill="none" stroke="white" stroke-width="1.5" d="M0,-3.0v7 M-2.5,-0.5L0,-3.0L2.5,-0.5"/>
                </g>
                <g id="arrowDown" xlink:href="#dirArrow" transform="rotate(180) translate(-30 -48)" onmousedown="handlePan(0,1)">
                  <use xlink:href="#rim" fill="#404040">
                        <set attributeName="fill" to="#808080" begin="arrowDown.mouseover" end="arrowDown.mouseout"/>
                  </use>
                  <path fill="none" stroke="white" stroke-width="1.5" d="M0,-3.0v7 M-2.5,-0.5L0,-3.0L2.5,-0.5"/>
                </g>
                <g id="arrowLeft" xlink:href="#dirArrow" transform="rotate(270) translate(-36 17)" onmousedown="handlePan(-1,0)">
                  <use xlink:href="#rim" fill="#404040">
                        <set attributeName="fill" to="#808080" begin="arrowLeft.mouseover" end="arrowLeft.mouseout"/>
                  </use>
                  <path fill="none" stroke="white" stroke-width="1.5" d="M0,-3.0v7 M-2.5,-0.5L0,-3.0L2.5,-0.5"/>
                </g>
        </g>
        <svg viewBox="0 0 15 15" width="100%" height="30px" preserveAspectRatio="xMaxYMin meet">
         <g id="arrow_out" transform="scale(0.3 0.3)">
          <a xlink:href="Magnet_8cxx__incl_org.svg" target="_base">
           <rect id="button" ry="5" rx="5" y="6" x="6" height="38" width="38"
                fill="#f2f5e9" fill-opacity="0.5" stroke="#606060" stroke-width="1.0"/>
           <path id="arrow"
             d="M 11.500037,31.436501 C 11.940474,20.09759 22.043105,11.32322 32.158766,21.979434 L 37.068811,17.246167 C 37.068811,17.246167 37.088388,32 37.088388,32 L 22.160133,31.978069 C 22.160133,31.978069 26.997745,27.140456 26.997745,27.140456 C 18.528582,18.264221 13.291696,25.230495 11.500037,31.436501 z"
             style="fill:#404040;"/>
          </a>
         </g>
        </svg>
</svg>
