<?xml version="1.0" encoding="UTF-8" standalone="no"?>
<!DOCTYPE svg PUBLIC "-//W3C//DTD SVG 1.1//EN"
 "http://www.w3.org/Graphics/SVG/1.1/DTD/svg11.dtd">
<!-- Generated by graphviz version 2.36.0 (20140111.2315)
 -->
<!-- Title: /home/travis/build/AliceO2Group/AliceO2/Detectors/ITSMFT/common/simulation/src/Hit.cxx Pages: 1 -->
<svg width="1256pt" height="390pt"
 viewBox="0.00 0.00 1256.00 390.00" xmlns="http://www.w3.org/2000/svg" xmlns:xlink="http://www.w3.org/1999/xlink">
<g id="graph0" class="graph" transform="scale(1 1) rotate(0) translate(4 386)">
<title>/home/travis/build/AliceO2Group/AliceO2/Detectors/ITSMFT/common/simulation/src/Hit.cxx</title>
<!-- Node1 -->
<g id="node1" class="node"><title>Node1</title>
<polygon fill="#bfbfbf" stroke="black" points="897,-329 897,-381 1039,-381 1039,-329 897,-329"/>
<text text-anchor="start" x="905" y="-369" font-family="Helvetica,sans-Serif" font-size="10.00">/home/travis/build</text>
<text text-anchor="start" x="905" y="-358" font-family="Helvetica,sans-Serif" font-size="10.00">/AliceO2Group/AliceO2</text>
<text text-anchor="start" x="905" y="-347" font-family="Helvetica,sans-Serif" font-size="10.00">/Detectors/ITSMFT/common</text>
<text text-anchor="middle" x="968" y="-336" font-family="Helvetica,sans-Serif" font-size="10.00">/simulation/src/Hit.cxx</text>
</g>
<!-- Node2 -->
<g id="node2" class="node"><title>Node2</title>
<g id="a_node2"><a xlink:href="../../d0/dae/ITSMFT_2common_2simulation_2include_2ITSMFTSimulation_2Hit_8h.html" target="_top" xlink:title="ITSMFTSimulation/Hit.h">
<polygon fill="none" stroke="black" points="682,-272.5 682,-291.5 804,-291.5 804,-272.5 682,-272.5"/>
<text text-anchor="middle" x="743" y="-279.5" font-family="Helvetica,sans-Serif" font-size="10.00">ITSMFTSimulation/Hit.h</text>
</a>
</g>
</g>
<!-- Node1&#45;&gt;Node2 -->
<g id="edge1" class="edge"><title>Node1&#45;&gt;Node2</title>
<path fill="none" stroke="midnightblue" d="M896.809,-331.535C857.891,-319.254 811.313,-304.557 779.687,-294.577"/>
<polygon fill="midnightblue" stroke="midnightblue" points="780.562,-291.183 769.973,-291.511 778.456,-297.858 780.562,-291.183"/>
</g>
<!-- Node12 -->
<g id="node12" class="node"><title>Node12</title>
<polygon fill="none" stroke="#bfbfbf" points="1194,-74.5 1194,-93.5 1248,-93.5 1248,-74.5 1194,-74.5"/>
<text text-anchor="middle" x="1221" y="-81.5" font-family="Helvetica,sans-Serif" font-size="10.00">iostream</text>
</g>
<!-- Node1&#45;&gt;Node12 -->
<g id="edge20" class="edge"><title>Node1&#45;&gt;Node12</title>
<path fill="none" stroke="midnightblue" d="M991.802,-328.693C1043.22,-274.025 1163.44,-146.203 1205.85,-101.103"/>
<polygon fill="midnightblue" stroke="midnightblue" points="1208.53,-103.363 1212.84,-93.6809 1203.43,-98.5674 1208.53,-103.363"/>
</g>
<!-- Node3 -->
<g id="node3" class="node"><title>Node3</title>
<g id="a_node3"><a xlink:href="../../d4/d25/BaseHits_8h.html" target="_top" xlink:title="SimulationDataFormat\l/BaseHits.h">
<polygon fill="none" stroke="black" points="632,-205 632,-235 746,-235 746,-205 632,-205"/>
<text text-anchor="start" x="640" y="-223" font-family="Helvetica,sans-Serif" font-size="10.00">SimulationDataFormat</text>
<text text-anchor="middle" x="689" y="-212" font-family="Helvetica,sans-Serif" font-size="10.00">/BaseHits.h</text>
</a>
</g>
</g>
<!-- Node2&#45;&gt;Node3 -->
<g id="edge2" class="edge"><title>Node2&#45;&gt;Node3</title>
<path fill="none" stroke="midnightblue" d="M735.263,-272.403C728.291,-264.657 717.744,-252.938 708.48,-242.645"/>
<polygon fill="midnightblue" stroke="midnightblue" points="711.018,-240.232 701.727,-235.141 705.815,-244.915 711.018,-240.232"/>
</g>
<!-- Node10 -->
<g id="node10" class="node"><title>Node10</title>
<polygon fill="none" stroke="#bfbfbf" points="0,-74.5 0,-93.5 56,-93.5 56,-74.5 0,-74.5"/>
<text text-anchor="middle" x="28" y="-81.5" font-family="Helvetica,sans-Serif" font-size="10.00">Rtypes.h</text>
</g>
<!-- Node2&#45;&gt;Node10 -->
<g id="edge17" class="edge"><title>Node2&#45;&gt;Node10</title>
<path fill="none" stroke="midnightblue" d="M703.65,-272.497C664.17,-263.83 601.685,-249.744 548,-236 331.954,-180.689 275.994,-172.227 65,-100 62.4445,-99.1252 59.8097,-98.1692 57.1788,-97.1769"/>
<polygon fill="midnightblue" stroke="midnightblue" points="58.4052,-93.8984 47.8177,-93.5049 55.849,-100.415 58.4052,-93.8984"/>
</g>
<!-- Node2&#45;&gt;Node12 -->
<g id="edge19" class="edge"><title>Node2&#45;&gt;Node12</title>
<path fill="none" stroke="midnightblue" d="M763.846,-272.452C839.707,-241.346 1101.28,-134.09 1190.73,-97.4124"/>
<polygon fill="midnightblue" stroke="midnightblue" points="1192.12,-100.625 1200.04,-93.5929 1189.46,-94.1485 1192.12,-100.625"/>
</g>
<!-- Node16 -->
<g id="node16" class="node"><title>Node16</title>
<g id="a_node16"><a xlink:href="../../d7/dcd/MCCompLabel_8h.html" target="_top" xlink:title="SimulationDataFormat\l/MCCompLabel.h">
<polygon fill="none" stroke="black" points="385,-137 385,-167 499,-167 499,-137 385,-137"/>
<text text-anchor="start" x="393" y="-155" font-family="Helvetica,sans-Serif" font-size="10.00">SimulationDataFormat</text>
<text text-anchor="middle" x="442" y="-144" font-family="Helvetica,sans-Serif" font-size="10.00">/MCCompLabel.h</text>
</a>
</g>
</g>
<!-- Node2&#45;&gt;Node16 -->
<g id="edge15" class="edge"><title>Node2&#45;&gt;Node16</title>
<path fill="none" stroke="midnightblue" d="M718.439,-272.369C694.043,-263.66 655.662,-249.593 623,-236 573.046,-215.211 516.519,-188.818 480.127,-171.444"/>
<polygon fill="midnightblue" stroke="midnightblue" points="481.404,-168.174 470.873,-167.012 478.381,-174.488 481.404,-168.174"/>
</g>
<!-- Node17 -->
<g id="node17" class="node"><title>Node17</title>
<polygon fill="none" stroke="#bfbfbf" points="764.5,-210.5 764.5,-229.5 829.5,-229.5 829.5,-210.5 764.5,-210.5"/>
<text text-anchor="middle" x="797" y="-217.5" font-family="Helvetica,sans-Serif" font-size="10.00">TVector3.h</text>
</g>
<!-- Node2&#45;&gt;Node17 -->
<g id="edge18" class="edge"><title>Node2&#45;&gt;Node17</title>
<path fill="none" stroke="midnightblue" d="M750.737,-272.403C758.997,-263.225 772.277,-248.47 782.494,-237.117"/>
<polygon fill="midnightblue" stroke="midnightblue" points="785.189,-239.355 789.277,-229.581 779.986,-234.672 785.189,-239.355"/>
</g>
<!-- Node4 -->
<g id="node4" class="node"><title>Node4</title>
<g id="a_node4"><a xlink:href="../../dd/d76/Cartesian3D_8h.html" target="_top" xlink:title="MathUtils/Cartesian3D.h">
<polygon fill="none" stroke="black" points="626.5,-142.5 626.5,-161.5 751.5,-161.5 751.5,-142.5 626.5,-142.5"/>
<text text-anchor="middle" x="689" y="-149.5" font-family="Helvetica,sans-Serif" font-size="10.00">MathUtils/Cartesian3D.h</text>
</a>
</g>
</g>
<!-- Node3&#45;&gt;Node4 -->
<g id="edge3" class="edge"><title>Node3&#45;&gt;Node4</title>
<path fill="none" stroke="midnightblue" d="M689,-204.679C689,-195.101 689,-182.394 689,-171.977"/>
<polygon fill="midnightblue" stroke="midnightblue" points="692.5,-171.828 689,-161.828 685.5,-171.828 692.5,-171.828"/>
</g>
<!-- Node5 -->
<g id="node5" class="node"><title>Node5</title>
<polygon fill="none" stroke="#bfbfbf" points="1024.5,-69 1024.5,-99 1175.5,-99 1175.5,-69 1024.5,-69"/>
<text text-anchor="start" x="1032.5" y="-87" font-family="Helvetica,sans-Serif" font-size="10.00">Math/GenVector/Displacement</text>
<text text-anchor="middle" x="1100" y="-76" font-family="Helvetica,sans-Serif" font-size="10.00">Vector3D.h</text>
</g>
<!-- Node4&#45;&gt;Node5 -->
<g id="edge4" class="edge"><title>Node4&#45;&gt;Node5</title>
<path fill="none" stroke="midnightblue" d="M745.592,-142.489C808.557,-132.942 913.589,-116.79 1014.41,-100.079"/>
<polygon fill="midnightblue" stroke="midnightblue" points="1015.18,-103.5 1024.47,-98.4077 1014.03,-96.5943 1015.18,-103.5"/>
</g>
<!-- Node6 -->
<g id="node6" class="node"><title>Node6</title>
<polygon fill="none" stroke="#bfbfbf" points="74,-74.5 74,-93.5 250,-93.5 250,-74.5 74,-74.5"/>
<text text-anchor="middle" x="162" y="-81.5" font-family="Helvetica,sans-Serif" font-size="10.00">Math/GenVector/PositionVector3D.h</text>
</g>
<!-- Node4&#45;&gt;Node6 -->
<g id="edge5" class="edge"><title>Node4&#45;&gt;Node6</title>
<path fill="none" stroke="midnightblue" d="M626.245,-144.261C542.425,-135.098 389.348,-117.803 259,-100 247.9,-98.484 236.104,-96.7574 224.702,-95.0284"/>
<polygon fill="midnightblue" stroke="midnightblue" points="225.225,-91.5677 214.81,-93.5135 224.165,-98.4871 225.225,-91.5677"/>
</g>
<!-- Node7 -->
<g id="node7" class="node"><title>Node7</title>
<polygon fill="none" stroke="#bfbfbf" points="267.5,-74.5 267.5,-93.5 416.5,-93.5 416.5,-74.5 267.5,-74.5"/>
<text text-anchor="middle" x="342" y="-81.5" font-family="Helvetica,sans-Serif" font-size="10.00">Math/GenVector/Rotation3D.h</text>
</g>
<!-- Node4&#45;&gt;Node7 -->
<g id="edge6" class="edge"><title>Node4&#45;&gt;Node7</title>
<path fill="none" stroke="midnightblue" d="M643.992,-142.439C580.676,-130.396 465.419,-108.475 397.07,-95.4745"/>
<polygon fill="midnightblue" stroke="midnightblue" points="397.407,-91.9758 386.929,-93.5455 396.099,-98.8525 397.407,-91.9758"/>
</g>
<!-- Node8 -->
<g id="node8" class="node"><title>Node8</title>
<polygon fill="none" stroke="#bfbfbf" points="435,-74.5 435,-93.5 591,-93.5 591,-74.5 435,-74.5"/>
<text text-anchor="middle" x="513" y="-81.5" font-family="Helvetica,sans-Serif" font-size="10.00">Math/GenVector/Transform3D.h</text>
</g>
<!-- Node4&#45;&gt;Node8 -->
<g id="edge7" class="edge"><title>Node4&#45;&gt;Node8</title>
<path fill="none" stroke="midnightblue" d="M665.991,-142.372C635.206,-130.827 580.447,-110.293 545.472,-97.1772"/>
<polygon fill="midnightblue" stroke="midnightblue" points="546.328,-93.76 535.736,-93.5259 543.87,-100.314 546.328,-93.76"/>
</g>
<!-- Node9 -->
<g id="node9" class="node"><title>Node9</title>
<polygon fill="none" stroke="#bfbfbf" points="609,-74.5 609,-93.5 769,-93.5 769,-74.5 609,-74.5"/>
<text text-anchor="middle" x="689" y="-81.5" font-family="Helvetica,sans-Serif" font-size="10.00">Math/GenVector/Translation3D.h</text>
</g>
<!-- Node4&#45;&gt;Node9 -->
<g id="edge8" class="edge"><title>Node4&#45;&gt;Node9</title>
<path fill="none" stroke="midnightblue" d="M689,-142.372C689,-132.643 689,-116.528 689,-103.85"/>
<polygon fill="midnightblue" stroke="midnightblue" points="692.5,-103.841 689,-93.8411 685.5,-103.841 692.5,-103.841"/>
</g>
<!-- Node4&#45;&gt;Node10 -->
<g id="edge9" class="edge"><title>Node4&#45;&gt;Node10</title>
<path fill="none" stroke="midnightblue" d="M626.178,-145.769C591.357,-142.876 547.282,-139.224 508,-136 311.124,-119.843 257.195,-145.634 65,-100 61.9294,-99.2709 58.7807,-98.3267 55.6787,-97.2669"/>
<polygon fill="midnightblue" stroke="midnightblue" points="56.6729,-93.9003 46.082,-93.6097 54.1801,-100.441 56.6729,-93.9003"/>
</g>
<!-- Node11 -->
<g id="node11" class="node"><title>Node11</title>
<polygon fill="none" stroke="#bfbfbf" points="787,-74.5 787,-93.5 863,-93.5 863,-74.5 787,-74.5"/>
<text text-anchor="middle" x="825" y="-81.5" font-family="Helvetica,sans-Serif" font-size="10.00">TGeoMatrix.h</text>
</g>
<!-- Node4&#45;&gt;Node11 -->
<g id="edge10" class="edge"><title>Node4&#45;&gt;Node11</title>
<path fill="none" stroke="midnightblue" d="M706.78,-142.372C729.993,-131.106 770.849,-111.279 797.923,-98.1403"/>
<polygon fill="midnightblue" stroke="midnightblue" points="799.748,-101.145 807.216,-93.6305 796.691,-94.8477 799.748,-101.145"/>
</g>
<!-- Node4&#45;&gt;Node12 -->
<g id="edge11" class="edge"><title>Node4&#45;&gt;Node12</title>
<path fill="none" stroke="midnightblue" d="M751.706,-150.177C846.621,-147.676 1031.84,-137.868 1184,-100 1187.06,-99.2378 1190.21,-98.2723 1193.31,-97.1998"/>
<polygon fill="midnightblue" stroke="midnightblue" points="1194.81,-100.371 1202.9,-93.5277 1192.31,-93.834 1194.81,-100.371"/>
</g>
<!-- Node13 -->
<g id="node13" class="node"><title>Node13</title>
<g id="a_node13"><a xlink:href="../../d2/dd0/Cartesian2D_8h.html" target="_top" xlink:title="MathUtils/Cartesian2D.h">
<polygon fill="none" stroke="black" points="881.5,-74.5 881.5,-93.5 1006.5,-93.5 1006.5,-74.5 881.5,-74.5"/>
<text text-anchor="middle" x="944" y="-81.5" font-family="Helvetica,sans-Serif" font-size="10.00">MathUtils/Cartesian2D.h</text>
</a>
</g>
</g>
<!-- Node4&#45;&gt;Node13 -->
<g id="edge12" class="edge"><title>Node4&#45;&gt;Node13</title>
<path fill="none" stroke="midnightblue" d="M722.075,-142.439C767.84,-130.594 850.53,-109.192 901.027,-96.1223"/>
<polygon fill="midnightblue" stroke="midnightblue" points="902.179,-99.4396 910.983,-93.5455 900.425,-92.6629 902.179,-99.4396"/>
</g>
<!-- Node14 -->
<g id="node14" class="node"><title>Node14</title>
<polygon fill="none" stroke="#bfbfbf" points="777.5,-1 777.5,-31 928.5,-31 928.5,-1 777.5,-1"/>
<text text-anchor="start" x="785.5" y="-19" font-family="Helvetica,sans-Serif" font-size="10.00">Math/GenVector/Displacement</text>
<text text-anchor="middle" x="853" y="-8" font-family="Helvetica,sans-Serif" font-size="10.00">Vector2D.h</text>
</g>
<!-- Node13&#45;&gt;Node14 -->
<g id="edge13" class="edge"><title>Node13&#45;&gt;Node14</title>
<path fill="none" stroke="midnightblue" d="M932.103,-74.3717C919.221,-65.0286 898.22,-49.7966 881.093,-37.375"/>
<polygon fill="midnightblue" stroke="midnightblue" points="882.703,-34.2194 872.553,-31.1815 878.593,-39.8859 882.703,-34.2194"/>
</g>
<!-- Node15 -->
<g id="node15" class="node"><title>Node15</title>
<polygon fill="none" stroke="#bfbfbf" points="947,-6.5 947,-25.5 1123,-25.5 1123,-6.5 947,-6.5"/>
<text text-anchor="middle" x="1035" y="-13.5" font-family="Helvetica,sans-Serif" font-size="10.00">Math/GenVector/PositionVector2D.h</text>
</g>
<!-- Node13&#45;&gt;Node15 -->
<g id="edge14" class="edge"><title>Node13&#45;&gt;Node15</title>
<path fill="none" stroke="midnightblue" d="M955.897,-74.3717C970.884,-63.5015 996.862,-44.6602 1014.94,-31.5474"/>
<polygon fill="midnightblue" stroke="midnightblue" points="1017.06,-34.3349 1023.1,-25.6305 1012.95,-28.6684 1017.06,-34.3349"/>
</g>
<!-- Node16&#45;&gt;Node10 -->
<g id="edge16" class="edge"><title>Node16&#45;&gt;Node10</title>
<path fill="none" stroke="midnightblue" d="M384.925,-147.742C310.316,-142.474 176.066,-129.523 65,-100 62.0149,-99.2065 58.9478,-98.2347 55.9179,-97.1708"/>
<polygon fill="midnightblue" stroke="midnightblue" points="57.1014,-93.8762 46.5112,-93.5637 54.5951,-100.412 57.1014,-93.8762"/>
</g>
</g>
</svg>
