<?xml version="1.0" encoding="UTF-8" standalone="no"?>
<!DOCTYPE svg PUBLIC "-//W3C//DTD SVG 1.1//EN"
 "http://www.w3.org/Graphics/SVG/1.1/DTD/svg11.dtd">
<!-- Generated by graphviz version 2.36.0 (20140111.2315)
 -->
<!-- Title: o2::ITS::GeometryTGeo Pages: 1 -->
<!--zoomable 2252 -->
<svg id="main" version="1.1" xmlns="http://www.w3.org/2000/svg" xmlns:xlink="http://www.w3.org/1999/xlink" xml:space="preserve" onload="init(evt)">
<style type="text/css"><![CDATA[
.edge:hover path { stroke: red; }
.edge:hover polygon { stroke: red; fill: red; }
]]></style>
<script type="text/javascript"><![CDATA[
var edges = document.getElementsByTagName('g');
if (edges && edges.length) {
  for (var i=0;i<edges.length;i++) {
    if (edges[i].id.substr(0,4)=='edge') {
      edges[i].setAttribute('class','edge');
    }
  }
}
]]></script>
        <defs>
                <circle id="rim" cx="0" cy="0" r="7"/>
                <circle id="rim2" cx="0" cy="0" r="3.5"/>
                <g id="zoomPlus">
                        <use xlink:href="#rim" fill="#404040">
                                <set attributeName="fill" to="#808080" begin="zoomplus.mouseover" end="zoomplus.mouseout"/>
                        </use>
                        <path d="M-4,0h8M0,-4v8" fill="none" stroke="white" stroke-width="1.5" pointer-events="none"/>
                </g>
                <g id="zoomMin">
                        <use xlink:href="#rim" fill="#404040">
                                <set attributeName="fill" to="#808080" begin="zoomminus.mouseover" end="zoomminus.mouseout"/>
                        </use>
                        <path d="M-4,0h8" fill="none" stroke="white" stroke-width="1.5" pointer-events="none"/>
                </g>
                <g id="dirArrow">
                        <path fill="none" stroke="white" stroke-width="1.5" d="M0,-3.0v7 M-2.5,-0.5L0,-3.0L2.5,-0.5"/>
                </g>
               <g id="resetDef">
                       <use xlink:href="#rim2" fill="#404040">
                               <set attributeName="fill" to="#808080" begin="reset.mouseover" end="reset.mouseout"/>
                       </use>
               </g>
        </defs>

<script type="text/javascript">
var viewWidth = 833;
var viewHeight = 2252;
var sectionId = 'dynsection-1';
</script>
<script xlink:href="../../svgpan.js"/>
<svg id="graph" class="graph">
<g id="viewport">
<title>o2::ITS::GeometryTGeo</title>
<!-- Node1 -->
<g id="node1" class="node"><title>Node1</title>
<polygon fill="#bfbfbf" stroke="black" points="247,-0.5 247,-1025.5 429,-1025.5 429,-0.5 247,-0.5"/>
<text text-anchor="middle" x="338" y="-1013.5" font-family="Helvetica,sans-Serif" font-size="10.00">o2::ITS::GeometryTGeo</text>
<polyline fill="none" stroke="black" points="247,-1006.5 429,-1006.5 "/>
<text text-anchor="middle" x="338" y="-994.5" font-family="Helvetica,sans-Serif" font-size="10.00"> </text>
<polyline fill="none" stroke="black" points="247,-987.5 429,-987.5 "/>
<text text-anchor="start" x="255" y="-975.5" font-family="Helvetica,sans-Serif" font-size="10.00">+ GeometryTGeo()</text>
<text text-anchor="start" x="255" y="-964.5" font-family="Helvetica,sans-Serif" font-size="10.00">+ ~GeometryTGeo()</text>
<text text-anchor="start" x="255" y="-953.5" font-family="Helvetica,sans-Serif" font-size="10.00">+ GeometryTGeo()</text>
<text text-anchor="start" x="255" y="-942.5" font-family="Helvetica,sans-Serif" font-size="10.00">+ operator=()</text>
<text text-anchor="start" x="255" y="-931.5" font-family="Helvetica,sans-Serif" font-size="10.00">+ fillMatrixCache()</text>
<text text-anchor="start" x="255" y="-920.5" font-family="Helvetica,sans-Serif" font-size="10.00">+ fillTrackingFramesCache()</text>
<text text-anchor="start" x="255" y="-909.5" font-family="Helvetica,sans-Serif" font-size="10.00">+ Build()</text>
<text text-anchor="start" x="255" y="-898.5" font-family="Helvetica,sans-Serif" font-size="10.00">+ getNumberOfChipRowsPerModule()</text>
<text text-anchor="start" x="255" y="-887.5" font-family="Helvetica,sans-Serif" font-size="10.00">+ getNumberOfChipColsPerModule()</text>
<text text-anchor="start" x="255" y="-876.5" font-family="Helvetica,sans-Serif" font-size="10.00">+ getNumberOfChipsPerModule()</text>
<text text-anchor="start" x="255" y="-865.5" font-family="Helvetica,sans-Serif" font-size="10.00">+ getNumberOfChipsPerHalfStave()</text>
<text text-anchor="start" x="255" y="-854.5" font-family="Helvetica,sans-Serif" font-size="10.00">+ getNumberOfChipsPerStave()</text>
<text text-anchor="start" x="255" y="-843.5" font-family="Helvetica,sans-Serif" font-size="10.00">+ getNumberOfChipsPerLayer()</text>
<text text-anchor="start" x="255" y="-832.5" font-family="Helvetica,sans-Serif" font-size="10.00">+ getNumberOfModules()</text>
<text text-anchor="start" x="255" y="-821.5" font-family="Helvetica,sans-Serif" font-size="10.00">+ getNumberOfHalfStaves()</text>
<text text-anchor="start" x="255" y="-810.5" font-family="Helvetica,sans-Serif" font-size="10.00">+ getNumberOfStaves()</text>
<text text-anchor="start" x="255" y="-799.5" font-family="Helvetica,sans-Serif" font-size="10.00">+ getNumberOfLayers()</text>
<text text-anchor="start" x="255" y="-788.5" font-family="Helvetica,sans-Serif" font-size="10.00">+ getChipIndex()</text>
<text text-anchor="start" x="255" y="-777.5" font-family="Helvetica,sans-Serif" font-size="10.00">+ getChipIndex()</text>
<text text-anchor="start" x="255" y="-766.5" font-family="Helvetica,sans-Serif" font-size="10.00">+ getChipIndex()</text>
<text text-anchor="start" x="255" y="-755.5" font-family="Helvetica,sans-Serif" font-size="10.00">+ getChipIndex()</text>
<text text-anchor="start" x="255" y="-744.5" font-family="Helvetica,sans-Serif" font-size="10.00">+ getChipId()</text>
<text text-anchor="start" x="255" y="-733.5" font-family="Helvetica,sans-Serif" font-size="10.00">+ getLayer()</text>
<text text-anchor="start" x="255" y="-722.5" font-family="Helvetica,sans-Serif" font-size="10.00">+ getStave()</text>
<text text-anchor="start" x="255" y="-711.5" font-family="Helvetica,sans-Serif" font-size="10.00">+ getHalfStave()</text>
<text text-anchor="start" x="255" y="-700.5" font-family="Helvetica,sans-Serif" font-size="10.00">+ getModule()</text>
<text text-anchor="start" x="255" y="-689.5" font-family="Helvetica,sans-Serif" font-size="10.00">+ getChipIdInLayer()</text>
<text text-anchor="start" x="255" y="-678.5" font-family="Helvetica,sans-Serif" font-size="10.00">+ getChipIdInStave()</text>
<text text-anchor="start" x="255" y="-667.5" font-family="Helvetica,sans-Serif" font-size="10.00">+ getChipIdInHalfStave()</text>
<text text-anchor="start" x="255" y="-656.5" font-family="Helvetica,sans-Serif" font-size="10.00">+ getChipIdInModule()</text>
<text text-anchor="start" x="255" y="-645.5" font-family="Helvetica,sans-Serif" font-size="10.00">+ getLastChipIndex()</text>
<text text-anchor="start" x="255" y="-634.5" font-family="Helvetica,sans-Serif" font-size="10.00">+ getFirstChipIndex()</text>
<text text-anchor="start" x="255" y="-623.5" font-family="Helvetica,sans-Serif" font-size="10.00">+ getSymbolicName()</text>
<text text-anchor="start" x="255" y="-612.5" font-family="Helvetica,sans-Serif" font-size="10.00">+ getSymbolicName()</text>
<text text-anchor="start" x="255" y="-601.5" font-family="Helvetica,sans-Serif" font-size="10.00">+ getMatrix()</text>
<text text-anchor="start" x="255" y="-590.5" font-family="Helvetica,sans-Serif" font-size="10.00">+ getMatrix()</text>
<text text-anchor="start" x="255" y="-579.5" font-family="Helvetica,sans-Serif" font-size="10.00">+ getOriginalMatrix()</text>
<text text-anchor="start" x="255" y="-568.5" font-family="Helvetica,sans-Serif" font-size="10.00">+ getOriginalMatrix()</text>
<text text-anchor="start" x="255" y="-557.5" font-family="Helvetica,sans-Serif" font-size="10.00">+ getMatrixT2L()</text>
<text text-anchor="start" x="255" y="-546.5" font-family="Helvetica,sans-Serif" font-size="10.00">+ getMatrixSensor()</text>
<text text-anchor="start" x="255" y="-535.5" font-family="Helvetica,sans-Serif" font-size="10.00">+ getMatrixSensor()</text>
<text text-anchor="start" x="255" y="-524.5" font-family="Helvetica,sans-Serif" font-size="10.00">+ getMatrixT2GRot()</text>
<text text-anchor="start" x="255" y="-513.5" font-family="Helvetica,sans-Serif" font-size="10.00">+ isTrackingFrameCached()</text>
<text text-anchor="start" x="255" y="-502.5" font-family="Helvetica,sans-Serif" font-size="10.00">+ getSensorXAlphaRefPlane()</text>
<text text-anchor="start" x="255" y="-491.5" font-family="Helvetica,sans-Serif" font-size="10.00">+ getSensorRefX()</text>
<text text-anchor="start" x="255" y="-480.5" font-family="Helvetica,sans-Serif" font-size="10.00">+ getSensorRefAlpha()</text>
<text text-anchor="start" x="255" y="-469.5" font-family="Helvetica,sans-Serif" font-size="10.00">+ localToGlobal()</text>
<text text-anchor="start" x="255" y="-458.5" font-family="Helvetica,sans-Serif" font-size="10.00">+ localToGlobal()</text>
<text text-anchor="start" x="255" y="-447.5" font-family="Helvetica,sans-Serif" font-size="10.00">+ globalToLocal()</text>
<text text-anchor="start" x="255" y="-436.5" font-family="Helvetica,sans-Serif" font-size="10.00">+ globalToLocal()</text>
<text text-anchor="start" x="255" y="-425.5" font-family="Helvetica,sans-Serif" font-size="10.00">+ localToGlobalVector()</text>
<text text-anchor="start" x="255" y="-414.5" font-family="Helvetica,sans-Serif" font-size="10.00">+ globalToLocalVector()</text>
<text text-anchor="start" x="255" y="-403.5" font-family="Helvetica,sans-Serif" font-size="10.00">+ Print()</text>
<text text-anchor="start" x="255" y="-392.5" font-family="Helvetica,sans-Serif" font-size="10.00">+ Instance()</text>
<text text-anchor="start" x="255" y="-381.5" font-family="Helvetica,sans-Serif" font-size="10.00">+ adopt()</text>
<text text-anchor="start" x="255" y="-370.5" font-family="Helvetica,sans-Serif" font-size="10.00">+ getITSVolPattern()</text>
<text text-anchor="start" x="255" y="-359.5" font-family="Helvetica,sans-Serif" font-size="10.00">+ getITSLayerPattern()</text>
<text text-anchor="start" x="255" y="-348.5" font-family="Helvetica,sans-Serif" font-size="10.00">+ getITSWrapVolPattern()</text>
<text text-anchor="start" x="255" y="-337.5" font-family="Helvetica,sans-Serif" font-size="10.00">+ getITSStavePattern()</text>
<text text-anchor="start" x="255" y="-326.5" font-family="Helvetica,sans-Serif" font-size="10.00">+ getITSHalfStavePattern()</text>
<text text-anchor="start" x="255" y="-315.5" font-family="Helvetica,sans-Serif" font-size="10.00">+ getITSModulePattern()</text>
<text text-anchor="start" x="255" y="-304.5" font-family="Helvetica,sans-Serif" font-size="10.00">+ getITSChipPattern()</text>
<text text-anchor="start" x="255" y="-293.5" font-family="Helvetica,sans-Serif" font-size="10.00">+ getITSSensorPattern()</text>
<text text-anchor="start" x="255" y="-282.5" font-family="Helvetica,sans-Serif" font-size="10.00">+ setITSVolPattern()</text>
<text text-anchor="start" x="255" y="-271.5" font-family="Helvetica,sans-Serif" font-size="10.00">+ setITSLayerPattern()</text>
<text text-anchor="start" x="255" y="-260.5" font-family="Helvetica,sans-Serif" font-size="10.00">+ setITSWrapVolPattern()</text>
<text text-anchor="start" x="255" y="-249.5" font-family="Helvetica,sans-Serif" font-size="10.00">+ setITSStavePattern()</text>
<text text-anchor="start" x="255" y="-238.5" font-family="Helvetica,sans-Serif" font-size="10.00">+ setITSHalfStavePattern()</text>
<text text-anchor="start" x="255" y="-227.5" font-family="Helvetica,sans-Serif" font-size="10.00">+ setITSModulePattern()</text>
<text text-anchor="start" x="255" y="-216.5" font-family="Helvetica,sans-Serif" font-size="10.00">+ setITSChipPattern()</text>
<text text-anchor="start" x="255" y="-205.5" font-family="Helvetica,sans-Serif" font-size="10.00">+ setITSSensorPattern()</text>
<text text-anchor="start" x="255" y="-194.5" font-family="Helvetica,sans-Serif" font-size="10.00">+ composeSymNameITS()</text>
<text text-anchor="start" x="255" y="-183.5" font-family="Helvetica,sans-Serif" font-size="10.00">+ composeSymNameLayer()</text>
<text text-anchor="start" x="255" y="-172.5" font-family="Helvetica,sans-Serif" font-size="10.00">+ composeSymNameStave()</text>
<text text-anchor="start" x="255" y="-161.5" font-family="Helvetica,sans-Serif" font-size="10.00">+ composeSymNameHalfStave()</text>
<text text-anchor="start" x="255" y="-150.5" font-family="Helvetica,sans-Serif" font-size="10.00">+ composeSymNameModule()</text>
<text text-anchor="start" x="255" y="-139.5" font-family="Helvetica,sans-Serif" font-size="10.00">+ composeSymNameChip()</text>
<text text-anchor="start" x="255" y="-128.5" font-family="Helvetica,sans-Serif" font-size="10.00"># extractMatrixSensor()</text>
<text text-anchor="start" x="255" y="-117.5" font-family="Helvetica,sans-Serif" font-size="10.00"># createT2LMatrix()</text>
<text text-anchor="start" x="255" y="-106.5" font-family="Helvetica,sans-Serif" font-size="10.00"># extractSensorXAlpha()</text>
<text text-anchor="start" x="255" y="-95.5" font-family="Helvetica,sans-Serif" font-size="10.00"># getLayer()</text>
<text text-anchor="start" x="255" y="-84.5" font-family="Helvetica,sans-Serif" font-size="10.00"># extractNumberOfChipsPerModule()</text>
<text text-anchor="start" x="255" y="-73.5" font-family="Helvetica,sans-Serif" font-size="10.00"># extractNumberOfStaves()</text>
<text text-anchor="start" x="255" y="-62.5" font-family="Helvetica,sans-Serif" font-size="10.00"># extractNumberOfHalfStaves()</text>
<text text-anchor="start" x="255" y="-51.5" font-family="Helvetica,sans-Serif" font-size="10.00"># extractNumberOfModules()</text>
<text text-anchor="start" x="255" y="-40.5" font-family="Helvetica,sans-Serif" font-size="10.00"># extractLayerChipType()</text>
<text text-anchor="start" x="255" y="-29.5" font-family="Helvetica,sans-Serif" font-size="10.00"># extractNumberOfLayers()</text>
<text text-anchor="start" x="255" y="-18.5" font-family="Helvetica,sans-Serif" font-size="10.00"># extractVolumeCopy()</text>
<text text-anchor="start" x="255" y="-7.5" font-family="Helvetica,sans-Serif" font-size="10.00"># getPNEntry()</text>
</g>
<!-- Node2 -->
<g id="node2" class="node"><title>Node2</title>
<g id="a_node2"><a xlink:href="../../d7/d98/classo2_1_1ITSMFT_1_1GeometryTGeo.html" target="_top" xlink:title="{o2::ITSMFT::GeometryTGeo\n||+ GeometryTGeo()\l+ GeometryTGeo()\l+ operator=()\l+ GeometryTGeo()\l+ ~GeometryTGeo()\l+ getNumberOfChips()\l+ Build()\l# ClassDefOverride()\l}">
<polygon fill="none" stroke="black" points="55,-1163 55,-1297 197,-1297 197,-1163 55,-1163"/>
<text text-anchor="middle" x="126" y="-1285" font-family="Helvetica,sans-Serif" font-size="10.00">o2::ITSMFT::GeometryTGeo</text>
<polyline fill="none" stroke="black" points="55,-1278 197,-1278 "/>
<text text-anchor="middle" x="126" y="-1266" font-family="Helvetica,sans-Serif" font-size="10.00"> </text>
<polyline fill="none" stroke="black" points="55,-1259 197,-1259 "/>
<text text-anchor="start" x="63" y="-1247" font-family="Helvetica,sans-Serif" font-size="10.00">+ GeometryTGeo()</text>
<text text-anchor="start" x="63" y="-1236" font-family="Helvetica,sans-Serif" font-size="10.00">+ GeometryTGeo()</text>
<text text-anchor="start" x="63" y="-1225" font-family="Helvetica,sans-Serif" font-size="10.00">+ operator=()</text>
<text text-anchor="start" x="63" y="-1214" font-family="Helvetica,sans-Serif" font-size="10.00">+ GeometryTGeo()</text>
<text text-anchor="start" x="63" y="-1203" font-family="Helvetica,sans-Serif" font-size="10.00">+ ~GeometryTGeo()</text>
<text text-anchor="start" x="63" y="-1192" font-family="Helvetica,sans-Serif" font-size="10.00">+ getNumberOfChips()</text>
<text text-anchor="start" x="63" y="-1181" font-family="Helvetica,sans-Serif" font-size="10.00">+ Build()</text>
<text text-anchor="start" x="63" y="-1170" font-family="Helvetica,sans-Serif" font-size="10.00"># ClassDefOverride()</text>
</a>
</g>
</g>
<!-- Node2&#45;&gt;Node1 -->
<g id="edge1" class="edge"><title>Node2&#45;&gt;Node1</title>
<path fill="none" stroke="midnightblue" d="M148.605,-1152.76C172.212,-1073.14 210.778,-943.076 246.968,-821.02"/>
<polygon fill="none" stroke="midnightblue" points="145.146,-1152.11 145.659,-1162.7 151.858,-1154.1 145.146,-1152.11"/>
</g>
<!-- Node3 -->
<g id="node3" class="node"><title>Node3</title>
<g id="a_node3"><a xlink:href="../../df/d06/classo2_1_1detectors_1_1DetMatrixCache.html" target="_top" xlink:title="{o2::detectors::DetMatrix\lCache\n||+ DetMatrixCache()\l+ DetMatrixCache()\l+ ~DetMatrixCache()\l+ DetMatrixCache()\l+ operator=()\l+ getDetID()\l+ getName()\l+ getCacheT2L()\l+ getCacheT2G()\l+ getCacheL2G()\l+ getCacheT2GRot()\l+ getMatrixT2L()\l+ getMatrixT2G()\l+ getMatrixL2G()\l+ getMatrixT2GRot()\l+ isBuilt()\l+ getSize()\l+ fillMatrixCache()\l+ setSize()\l+ getCacheT2L()\l+ getCacheT2G()\l+ getCacheL2G()\l+ getCacheT2GRot()\l+ ClassDef()\l}">
<polygon fill="none" stroke="black" points="93,-1336.5 93,-1657.5 215,-1657.5 215,-1336.5 93,-1336.5"/>
<text text-anchor="start" x="101" y="-1645.5" font-family="Helvetica,sans-Serif" font-size="10.00">o2::detectors::DetMatrix</text>
<text text-anchor="middle" x="154" y="-1634.5" font-family="Helvetica,sans-Serif" font-size="10.00">Cache</text>
<polyline fill="none" stroke="black" points="93,-1627.5 215,-1627.5 "/>
<text text-anchor="middle" x="154" y="-1615.5" font-family="Helvetica,sans-Serif" font-size="10.00"> </text>
<polyline fill="none" stroke="black" points="93,-1608.5 215,-1608.5 "/>
<text text-anchor="start" x="101" y="-1596.5" font-family="Helvetica,sans-Serif" font-size="10.00">+ DetMatrixCache()</text>
<text text-anchor="start" x="101" y="-1585.5" font-family="Helvetica,sans-Serif" font-size="10.00">+ DetMatrixCache()</text>
<text text-anchor="start" x="101" y="-1574.5" font-family="Helvetica,sans-Serif" font-size="10.00">+ ~DetMatrixCache()</text>
<text text-anchor="start" x="101" y="-1563.5" font-family="Helvetica,sans-Serif" font-size="10.00">+ DetMatrixCache()</text>
<text text-anchor="start" x="101" y="-1552.5" font-family="Helvetica,sans-Serif" font-size="10.00">+ operator=()</text>
<text text-anchor="start" x="101" y="-1541.5" font-family="Helvetica,sans-Serif" font-size="10.00">+ getDetID()</text>
<text text-anchor="start" x="101" y="-1530.5" font-family="Helvetica,sans-Serif" font-size="10.00">+ getName()</text>
<text text-anchor="start" x="101" y="-1519.5" font-family="Helvetica,sans-Serif" font-size="10.00">+ getCacheT2L()</text>
<text text-anchor="start" x="101" y="-1508.5" font-family="Helvetica,sans-Serif" font-size="10.00">+ getCacheT2G()</text>
<text text-anchor="start" x="101" y="-1497.5" font-family="Helvetica,sans-Serif" font-size="10.00">+ getCacheL2G()</text>
<text text-anchor="start" x="101" y="-1486.5" font-family="Helvetica,sans-Serif" font-size="10.00">+ getCacheT2GRot()</text>
<text text-anchor="start" x="101" y="-1475.5" font-family="Helvetica,sans-Serif" font-size="10.00">+ getMatrixT2L()</text>
<text text-anchor="start" x="101" y="-1464.5" font-family="Helvetica,sans-Serif" font-size="10.00">+ getMatrixT2G()</text>
<text text-anchor="start" x="101" y="-1453.5" font-family="Helvetica,sans-Serif" font-size="10.00">+ getMatrixL2G()</text>
<text text-anchor="start" x="101" y="-1442.5" font-family="Helvetica,sans-Serif" font-size="10.00">+ getMatrixT2GRot()</text>
<text text-anchor="start" x="101" y="-1431.5" font-family="Helvetica,sans-Serif" font-size="10.00">+ isBuilt()</text>
<text text-anchor="start" x="101" y="-1420.5" font-family="Helvetica,sans-Serif" font-size="10.00">+ getSize()</text>
<text text-anchor="start" x="101" y="-1409.5" font-family="Helvetica,sans-Serif" font-size="10.00">+ fillMatrixCache()</text>
<text text-anchor="start" x="101" y="-1398.5" font-family="Helvetica,sans-Serif" font-size="10.00">+ setSize()</text>
<text text-anchor="start" x="101" y="-1387.5" font-family="Helvetica,sans-Serif" font-size="10.00">+ getCacheT2L()</text>
<text text-anchor="start" x="101" y="-1376.5" font-family="Helvetica,sans-Serif" font-size="10.00">+ getCacheT2G()</text>
<text text-anchor="start" x="101" y="-1365.5" font-family="Helvetica,sans-Serif" font-size="10.00">+ getCacheL2G()</text>
<text text-anchor="start" x="101" y="-1354.5" font-family="Helvetica,sans-Serif" font-size="10.00">+ getCacheT2GRot()</text>
<text text-anchor="start" x="101" y="-1343.5" font-family="Helvetica,sans-Serif" font-size="10.00">+ ClassDef()</text>
</a>
</g>
</g>
<!-- Node3&#45;&gt;Node2 -->
<g id="edge2" class="edge"><title>Node3&#45;&gt;Node2</title>
<path fill="none" stroke="midnightblue" d="M136.07,-1326.31C135.003,-1316.21 133.969,-1306.43 132.997,-1297.22"/>
<polygon fill="none" stroke="midnightblue" points="132.615,-1326.92 137.147,-1336.5 139.577,-1326.18 132.615,-1326.92"/>
</g>
<!-- Node4 -->
<g id="node4" class="node"><title>Node4</title>
<g id="a_node4"><a xlink:href="../../d6/dd5/classo2_1_1detectors_1_1DetID.html" target="_top" xlink:title="Static class with identifiers, bitmasks and names for ALICE detectors. ">
<polygon fill="none" stroke="black" points="101,-1728.5 101,-1939.5 207,-1939.5 207,-1728.5 101,-1728.5"/>
<text text-anchor="middle" x="154" y="-1927.5" font-family="Helvetica,sans-Serif" font-size="10.00">o2::detectors::DetID</text>
<polyline fill="none" stroke="black" points="101,-1920.5 207,-1920.5 "/>
<text text-anchor="start" x="109" y="-1908.5" font-family="Helvetica,sans-Serif" font-size="10.00">+ TOF</text>
<text text-anchor="start" x="109" y="-1897.5" font-family="Helvetica,sans-Serif" font-size="10.00">+ PHS</text>
<text text-anchor="start" x="109" y="-1886.5" font-family="Helvetica,sans-Serif" font-size="10.00">+ EMC</text>
<text text-anchor="start" x="109" y="-1875.5" font-family="Helvetica,sans-Serif" font-size="10.00">+ HMP</text>
<text text-anchor="start" x="109" y="-1864.5" font-family="Helvetica,sans-Serif" font-size="10.00">+ MFT</text>
<text text-anchor="start" x="109" y="-1853.5" font-family="Helvetica,sans-Serif" font-size="10.00">+ Last</text>
<polyline fill="none" stroke="black" points="101,-1846.5 207,-1846.5 "/>
<text text-anchor="start" x="109" y="-1834.5" font-family="Helvetica,sans-Serif" font-size="10.00">+ DetID()</text>
<text text-anchor="start" x="109" y="-1823.5" font-family="Helvetica,sans-Serif" font-size="10.00">+ DetID()</text>
<text text-anchor="start" x="109" y="-1812.5" font-family="Helvetica,sans-Serif" font-size="10.00">+ getID()</text>
<text text-anchor="start" x="109" y="-1801.5" font-family="Helvetica,sans-Serif" font-size="10.00">+ getMask()</text>
<text text-anchor="start" x="109" y="-1790.5" font-family="Helvetica,sans-Serif" font-size="10.00">+ getName()</text>
<text text-anchor="start" x="109" y="-1779.5" font-family="Helvetica,sans-Serif" font-size="10.00">+ operator int()</text>
<text text-anchor="start" x="109" y="-1768.5" font-family="Helvetica,sans-Serif" font-size="10.00">+ DetID()</text>
<text text-anchor="start" x="109" y="-1757.5" font-family="Helvetica,sans-Serif" font-size="10.00">+ getNDetectors()</text>
<text text-anchor="start" x="109" y="-1746.5" font-family="Helvetica,sans-Serif" font-size="10.00">+ getName()</text>
<text text-anchor="start" x="109" y="-1735.5" font-family="Helvetica,sans-Serif" font-size="10.00">+ getMask()</text>
</a>
</g>
</g>
<!-- Node4&#45;&gt;Node3 -->
<g id="edge3" class="edge"><title>Node4&#45;&gt;Node3</title>
<path fill="none" stroke="#404040" d="M154,-1728.38C154,-1709.69 154,-1689.78 154,-1669.79"/>
<polygon fill="none" stroke="#404040" points="154,-1669.68 150,-1663.68 154,-1657.68 158,-1663.68 154,-1669.68"/>
<text text-anchor="middle" x="176" y="-1690.5" font-family="Helvetica,sans-Serif" font-size="10.00"> +mDetID</text>
</g>
<!-- Node5 -->
<g id="node5" class="node"><title>Node5</title>
<polygon fill="none" stroke="#bfbfbf" points="110,-2142.5 110,-2199.5 210,-2199.5 210,-2142.5 110,-2142.5"/>
<text text-anchor="middle" x="160" y="-2187.5" font-family="Helvetica,sans-Serif" font-size="10.00">static constexpr ID</text>
<polyline fill="none" stroke="#bfbfbf" points="110,-2180.5 210,-2180.5 "/>
<text text-anchor="middle" x="160" y="-2168.5" font-family="Helvetica,sans-Serif" font-size="10.00"> </text>
<polyline fill="none" stroke="#bfbfbf" points="110,-2161.5 210,-2161.5 "/>
<text text-anchor="middle" x="160" y="-2149.5" font-family="Helvetica,sans-Serif" font-size="10.00"> </text>
</g>
<!-- Node5&#45;&gt;Node4 -->
<g id="edge4" class="edge"><title>Node5&#45;&gt;Node4</title>
<path fill="none" stroke="#404040" d="M159.504,-2142.3C158.761,-2100.82 157.316,-2020.13 156.093,-1951.85"/>
<polygon fill="none" stroke="#404040" points="156.09,-1951.69 151.983,-1945.76 155.875,-1939.69 159.982,-1945.62 156.09,-1951.69"/>
<text text-anchor="middle" x="174.5" y="-2071.5" font-family="Helvetica,sans-Serif" font-size="10.00"> +ACO</text>
<text text-anchor="middle" x="174.5" y="-2060.5" font-family="Helvetica,sans-Serif" font-size="10.00">+First</text>
<text text-anchor="middle" x="174.5" y="-2049.5" font-family="Helvetica,sans-Serif" font-size="10.00">+FIT</text>
<text text-anchor="middle" x="174.5" y="-2038.5" font-family="Helvetica,sans-Serif" font-size="10.00">+MCH</text>
<text text-anchor="middle" x="174.5" y="-2027.5" font-family="Helvetica,sans-Serif" font-size="10.00">+TRD</text>
<text text-anchor="middle" x="174.5" y="-2016.5" font-family="Helvetica,sans-Serif" font-size="10.00">+TPC</text>
<text text-anchor="middle" x="174.5" y="-2005.5" font-family="Helvetica,sans-Serif" font-size="10.00">+ZDC</text>
<text text-anchor="middle" x="174.5" y="-1994.5" font-family="Helvetica,sans-Serif" font-size="10.00">+MID</text>
<text text-anchor="middle" x="174.5" y="-1983.5" font-family="Helvetica,sans-Serif" font-size="10.00">+ITS</text>
<text text-anchor="middle" x="174.5" y="-1972.5" font-family="Helvetica,sans-Serif" font-size="10.00">+CPV</text>
<text text-anchor="middle" x="174.5" y="-1961.5" font-family="Helvetica,sans-Serif" font-size="10.00">...</text>
</g>
<!-- Node6 -->
<g id="node6" class="node"><title>Node6</title>
<polygon fill="none" stroke="#bfbfbf" points="31.5,-2142.5 31.5,-2199.5 60.5,-2199.5 60.5,-2142.5 31.5,-2142.5"/>
<text text-anchor="middle" x="46" y="-2187.5" font-family="Helvetica,sans-Serif" font-size="10.00">int</text>
<polyline fill="none" stroke="#bfbfbf" points="31.5,-2180.5 60.5,-2180.5 "/>
<text text-anchor="middle" x="46" y="-2168.5" font-family="Helvetica,sans-Serif" font-size="10.00"> </text>
<polyline fill="none" stroke="#bfbfbf" points="31.5,-2161.5 60.5,-2161.5 "/>
<text text-anchor="middle" x="46" y="-2149.5" font-family="Helvetica,sans-Serif" font-size="10.00"> </text>
</g>
<!-- Node6&#45;&gt;Node1 -->
<g id="edge14" class="edge"><title>Node6&#45;&gt;Node1</title>
<path fill="none" stroke="#404040" d="M39.6039,-2142.38C26.9644,-2085.31 0,-1950.06 0,-1835 0,-1835 0,-1835 0,-1229 0,-1002.96 139.783,-771.949 239.564,-635.844"/>
<polygon fill="none" stroke="#404040" points="239.849,-635.459 240.196,-628.256 246.978,-625.806 246.631,-633.009 239.849,-635.459"/>
<text text-anchor="middle" x="35" y="-1494.5" font-family="Helvetica,sans-Serif" font-size="10.00"> #MAXLAYERS</text>
</g>
<!-- Node6&#45;&gt;Node3 -->
<g id="edge8" class="edge"><title>Node6&#45;&gt;Node3</title>
<path fill="none" stroke="#404040" d="M42.9358,-2142.42C35.9163,-2072.24 21.7163,-1881.58 55,-1728 62.3096,-1694.27 74.6066,-1659.34 88.0947,-1627.2"/>
<polygon fill="none" stroke="#404040" points="88.1862,-1626.99 86.8704,-1619.9 92.909,-1615.95 94.2248,-1623.05 88.1862,-1626.99"/>
<text text-anchor="middle" x="73.5" y="-1831.5" font-family="Helvetica,sans-Serif" font-size="10.00"> +mSize</text>
</g>
<!-- Node6&#45;&gt;Node4 -->
<g id="edge5" class="edge"><title>Node6&#45;&gt;Node4</title>
<path fill="none" stroke="#404040" d="M50.3856,-2142.35C57.3342,-2101.35 72.4411,-2022.35 95,-1958 95.8264,-1955.64 96.6849,-1953.27 97.5714,-1950.89"/>
<polygon fill="none" stroke="#404040" points="97.5725,-1950.89 96.0111,-1943.85 101.909,-1939.7 103.47,-1946.74 97.5725,-1950.89"/>
<text text-anchor="middle" x="124" y="-2016.5" font-family="Helvetica,sans-Serif" font-size="10.00"> +nDetectors</text>
</g>
<!-- Node7 -->
<g id="node7" class="node"><title>Node7</title>
<g id="a_node7"><a xlink:href="../../d4/daa/classo2_1_1detectors_1_1MatrixCache.html" target="_top" xlink:title="{o2::detectors::MatrixCache\l\&lt; o2::Transform3D \&gt;\n||+ MatrixCache()\l+ MatrixCache()\l+ ~MatrixCache()\l+ operator=()\l+ setSize()\l+ getSize()\l+ setMatrix()\l+ getMatrix()\l+ isFilled()\l}">
<polygon fill="none" stroke="black" points="225.5,-1756 225.5,-1912 360.5,-1912 360.5,-1756 225.5,-1756"/>
<text text-anchor="start" x="233.5" y="-1900" font-family="Helvetica,sans-Serif" font-size="10.00">o2::detectors::MatrixCache</text>
<text text-anchor="middle" x="293" y="-1889" font-family="Helvetica,sans-Serif" font-size="10.00">&lt; o2::Transform3D &gt;</text>
<polyline fill="none" stroke="black" points="225.5,-1882 360.5,-1882 "/>
<text text-anchor="middle" x="293" y="-1870" font-family="Helvetica,sans-Serif" font-size="10.00"> </text>
<polyline fill="none" stroke="black" points="225.5,-1863 360.5,-1863 "/>
<text text-anchor="start" x="233.5" y="-1851" font-family="Helvetica,sans-Serif" font-size="10.00">+ MatrixCache()</text>
<text text-anchor="start" x="233.5" y="-1840" font-family="Helvetica,sans-Serif" font-size="10.00">+ MatrixCache()</text>
<text text-anchor="start" x="233.5" y="-1829" font-family="Helvetica,sans-Serif" font-size="10.00">+ ~MatrixCache()</text>
<text text-anchor="start" x="233.5" y="-1818" font-family="Helvetica,sans-Serif" font-size="10.00">+ operator=()</text>
<text text-anchor="start" x="233.5" y="-1807" font-family="Helvetica,sans-Serif" font-size="10.00">+ setSize()</text>
<text text-anchor="start" x="233.5" y="-1796" font-family="Helvetica,sans-Serif" font-size="10.00">+ getSize()</text>
<text text-anchor="start" x="233.5" y="-1785" font-family="Helvetica,sans-Serif" font-size="10.00">+ setMatrix()</text>
<text text-anchor="start" x="233.5" y="-1774" font-family="Helvetica,sans-Serif" font-size="10.00">+ getMatrix()</text>
<text text-anchor="start" x="233.5" y="-1763" font-family="Helvetica,sans-Serif" font-size="10.00">+ isFilled()</text>
</a>
</g>
</g>
<!-- Node7&#45;&gt;Node3 -->
<g id="edge6" class="edge"><title>Node7&#45;&gt;Node3</title>
<path fill="none" stroke="#404040" d="M260.936,-1755.72C248.601,-1726 234.023,-1690.86 219.665,-1656.26"/>
<polygon fill="none" stroke="#404040" points="219.613,-1656.13 213.619,-1652.12 215.014,-1645.05 221.008,-1649.06 219.613,-1656.13"/>
<text text-anchor="middle" x="259.5" y="-1701.5" font-family="Helvetica,sans-Serif" font-size="10.00"> +mT2G</text>
<text text-anchor="middle" x="259.5" y="-1690.5" font-family="Helvetica,sans-Serif" font-size="10.00">+mT2L</text>
<text text-anchor="middle" x="259.5" y="-1679.5" font-family="Helvetica,sans-Serif" font-size="10.00">+mL2G</text>
</g>
<!-- Node8 -->
<g id="node8" class="node"><title>Node8</title>
<g id="a_node8"><a xlink:href="../../d4/daa/classo2_1_1detectors_1_1MatrixCache.html" target="_top" xlink:title="MatrixCache is a vector of cached transform matrices (per sensor) for specific Transformation type...">
<polygon fill="none" stroke="black" points="291.5,-2098.5 291.5,-2243.5 450.5,-2243.5 450.5,-2098.5 291.5,-2098.5"/>
<text text-anchor="middle" x="371" y="-2231.5" font-family="Helvetica,sans-Serif" font-size="10.00">o2::detectors::MatrixCache&lt; T &gt;</text>
<polyline fill="none" stroke="black" points="291.5,-2224.5 450.5,-2224.5 "/>
<text text-anchor="middle" x="371" y="-2212.5" font-family="Helvetica,sans-Serif" font-size="10.00"> </text>
<polyline fill="none" stroke="black" points="291.5,-2205.5 450.5,-2205.5 "/>
<text text-anchor="start" x="299.5" y="-2193.5" font-family="Helvetica,sans-Serif" font-size="10.00">+ MatrixCache()</text>
<text text-anchor="start" x="299.5" y="-2182.5" font-family="Helvetica,sans-Serif" font-size="10.00">+ ~MatrixCache()</text>
<text text-anchor="start" x="299.5" y="-2171.5" font-family="Helvetica,sans-Serif" font-size="10.00">+ MatrixCache()</text>
<text text-anchor="start" x="299.5" y="-2160.5" font-family="Helvetica,sans-Serif" font-size="10.00">+ operator=()</text>
<text text-anchor="start" x="299.5" y="-2149.5" font-family="Helvetica,sans-Serif" font-size="10.00">+ setSize()</text>
<text text-anchor="start" x="299.5" y="-2138.5" font-family="Helvetica,sans-Serif" font-size="10.00">+ getSize()</text>
<text text-anchor="start" x="299.5" y="-2127.5" font-family="Helvetica,sans-Serif" font-size="10.00">+ setMatrix()</text>
<text text-anchor="start" x="299.5" y="-2116.5" font-family="Helvetica,sans-Serif" font-size="10.00">+ getMatrix()</text>
<text text-anchor="start" x="299.5" y="-2105.5" font-family="Helvetica,sans-Serif" font-size="10.00">+ isFilled()</text>
</a>
</g>
</g>
<!-- Node8&#45;&gt;Node7 -->
<g id="edge7" class="edge"><title>Node8&#45;&gt;Node7</title>
<path fill="none" stroke="orange" d="M303.853,-2089.32C302.43,-2086.24 301.138,-2083.13 300,-2080 280.506,-2026.3 279.532,-1961.55 283.016,-1912.1"/>
<polygon fill="orange" stroke="orange" points="300.832,-2091.1 308.485,-2098.42 307.071,-2087.92 300.832,-2091.1"/>
<text text-anchor="middle" x="347.5" y="-2016.5" font-family="Helvetica,sans-Serif" font-size="10.00"> &lt; o2::Transform3D &gt;</text>
</g>
<!-- Node9 -->
<g id="node9" class="node"><title>Node9</title>
<g id="a_node9"><a xlink:href="../../d4/daa/classo2_1_1detectors_1_1MatrixCache.html" target="_top" xlink:title="{o2::detectors::MatrixCache\l\&lt; o2::Rotation2D \&gt;\n||+ MatrixCache()\l+ MatrixCache()\l+ ~MatrixCache()\l+ operator=()\l+ setSize()\l+ getSize()\l+ setMatrix()\l+ getMatrix()\l+ isFilled()\l}">
<polygon fill="none" stroke="black" points="378.5,-1756 378.5,-1912 513.5,-1912 513.5,-1756 378.5,-1756"/>
<text text-anchor="start" x="386.5" y="-1900" font-family="Helvetica,sans-Serif" font-size="10.00">o2::detectors::MatrixCache</text>
<text text-anchor="middle" x="446" y="-1889" font-family="Helvetica,sans-Serif" font-size="10.00">&lt; o2::Rotation2D &gt;</text>
<polyline fill="none" stroke="black" points="378.5,-1882 513.5,-1882 "/>
<text text-anchor="middle" x="446" y="-1870" font-family="Helvetica,sans-Serif" font-size="10.00"> </text>
<polyline fill="none" stroke="black" points="378.5,-1863 513.5,-1863 "/>
<text text-anchor="start" x="386.5" y="-1851" font-family="Helvetica,sans-Serif" font-size="10.00">+ MatrixCache()</text>
<text text-anchor="start" x="386.5" y="-1840" font-family="Helvetica,sans-Serif" font-size="10.00">+ MatrixCache()</text>
<text text-anchor="start" x="386.5" y="-1829" font-family="Helvetica,sans-Serif" font-size="10.00">+ ~MatrixCache()</text>
<text text-anchor="start" x="386.5" y="-1818" font-family="Helvetica,sans-Serif" font-size="10.00">+ operator=()</text>
<text text-anchor="start" x="386.5" y="-1807" font-family="Helvetica,sans-Serif" font-size="10.00">+ setSize()</text>
<text text-anchor="start" x="386.5" y="-1796" font-family="Helvetica,sans-Serif" font-size="10.00">+ getSize()</text>
<text text-anchor="start" x="386.5" y="-1785" font-family="Helvetica,sans-Serif" font-size="10.00">+ setMatrix()</text>
<text text-anchor="start" x="386.5" y="-1774" font-family="Helvetica,sans-Serif" font-size="10.00">+ getMatrix()</text>
<text text-anchor="start" x="386.5" y="-1763" font-family="Helvetica,sans-Serif" font-size="10.00">+ isFilled()</text>
</a>
</g>
</g>
<!-- Node8&#45;&gt;Node9 -->
<g id="edge10" class="edge"><title>Node8&#45;&gt;Node9</title>
<path fill="none" stroke="orange" d="M396.772,-2088.59C397.546,-2085.7 398.291,-2082.83 399,-2080 412.951,-2024.34 425.052,-1960.66 433.48,-1912.18"/>
<polygon fill="orange" stroke="orange" points="393.328,-2087.91 394.044,-2098.48 400.076,-2089.77 393.328,-2087.91"/>
<text text-anchor="middle" x="469" y="-2016.5" font-family="Helvetica,sans-Serif" font-size="10.00"> &lt; o2::Rotation2D &gt;</text>
</g>
<!-- Node9&#45;&gt;Node3 -->
<g id="edge9" class="edge"><title>Node9&#45;&gt;Node3</title>
<path fill="none" stroke="#404040" d="M391.106,-1755.92C383.841,-1746.38 376.358,-1736.88 369,-1728 322.884,-1672.38 267.068,-1612.87 223.866,-1568.33"/>
<polygon fill="none" stroke="#404040" points="223.766,-1568.22 216.716,-1566.71 215.4,-1559.62 222.451,-1561.13 223.766,-1568.22"/>
<text text-anchor="middle" x="379" y="-1690.5" font-family="Helvetica,sans-Serif" font-size="10.00"> +mT2GRot</text>
</g>
<!-- Node10 -->
<g id="node10" class="node"><title>Node10</title>
<polygon fill="none" stroke="#bfbfbf" points="215.5,-1201.5 215.5,-1258.5 256.5,-1258.5 256.5,-1201.5 215.5,-1201.5"/>
<text text-anchor="middle" x="236" y="-1246.5" font-family="Helvetica,sans-Serif" font-size="10.00">string</text>
<polyline fill="none" stroke="#bfbfbf" points="215.5,-1239.5 256.5,-1239.5 "/>
<text text-anchor="middle" x="236" y="-1227.5" font-family="Helvetica,sans-Serif" font-size="10.00"> </text>
<polyline fill="none" stroke="#bfbfbf" points="215.5,-1220.5 256.5,-1220.5 "/>
<text text-anchor="middle" x="236" y="-1208.5" font-family="Helvetica,sans-Serif" font-size="10.00"> </text>
</g>
<!-- Node10&#45;&gt;Node1 -->
<g id="edge11" class="edge"><title>Node10&#45;&gt;Node1</title>
<path fill="none" stroke="#404040" d="M232.047,-1201.35C227.464,-1165.12 221.235,-1099.65 227,-1044 231.348,-1002.03 237.584,-958.482 244.911,-915.203"/>
<polygon fill="none" stroke="#404040" points="244.923,-915.134 241.996,-908.544 246.954,-903.307 249.88,-909.897 244.923,-915.134"/>
<text text-anchor="middle" x="280.5" y="-1130" font-family="Helvetica,sans-Serif" font-size="10.00"> #sHalfStaveName</text>
<text text-anchor="middle" x="280.5" y="-1119" font-family="Helvetica,sans-Serif" font-size="10.00">#sVolumeName</text>
<text text-anchor="middle" x="280.5" y="-1108" font-family="Helvetica,sans-Serif" font-size="10.00">#sLayerName</text>
<text text-anchor="middle" x="280.5" y="-1097" font-family="Helvetica,sans-Serif" font-size="10.00">#sChipName</text>
<text text-anchor="middle" x="280.5" y="-1086" font-family="Helvetica,sans-Serif" font-size="10.00">#sModuleName</text>
<text text-anchor="middle" x="280.5" y="-1075" font-family="Helvetica,sans-Serif" font-size="10.00">#sWrapperVolumeName</text>
<text text-anchor="middle" x="280.5" y="-1064" font-family="Helvetica,sans-Serif" font-size="10.00">#sSensorName</text>
<text text-anchor="middle" x="280.5" y="-1053" font-family="Helvetica,sans-Serif" font-size="10.00">#sStaveName</text>
</g>
<!-- Node11 -->
<g id="node11" class="node"><title>Node11</title>
<polygon fill="none" stroke="#bfbfbf" points="302,-1201.5 302,-1258.5 374,-1258.5 374,-1201.5 302,-1201.5"/>
<text text-anchor="middle" x="338" y="-1246.5" font-family="Helvetica,sans-Serif" font-size="10.00">vector&lt; int &gt;</text>
<polyline fill="none" stroke="#bfbfbf" points="302,-1239.5 374,-1239.5 "/>
<text text-anchor="middle" x="338" y="-1227.5" font-family="Helvetica,sans-Serif" font-size="10.00"> </text>
<polyline fill="none" stroke="#bfbfbf" points="302,-1220.5 374,-1220.5 "/>
<text text-anchor="middle" x="338" y="-1208.5" font-family="Helvetica,sans-Serif" font-size="10.00"> </text>
</g>
<!-- Node11&#45;&gt;Node1 -->
<g id="edge12" class="edge"><title>Node11&#45;&gt;Node1</title>
<path fill="none" stroke="#404040" d="M338,-1201.41C338,-1168.48 338,-1108.87 338,-1038.03"/>
<polygon fill="none" stroke="#404040" points="338,-1037.62 334,-1031.62 338,-1025.62 342,-1031.62 338,-1037.62"/>
<text text-anchor="middle" x="413.5" y="-1135.5" font-family="Helvetica,sans-Serif" font-size="10.00"> #mNumberOfChipsPerStave</text>
<text text-anchor="middle" x="413.5" y="-1124.5" font-family="Helvetica,sans-Serif" font-size="10.00">#mNumberOfStaves</text>
<text text-anchor="middle" x="413.5" y="-1113.5" font-family="Helvetica,sans-Serif" font-size="10.00">#mNumberOfHalfStaves</text>
<text text-anchor="middle" x="413.5" y="-1102.5" font-family="Helvetica,sans-Serif" font-size="10.00">#mNumberOfChipsPerLayer</text>
<text text-anchor="middle" x="413.5" y="-1091.5" font-family="Helvetica,sans-Serif" font-size="10.00">#mNumberOfChipRowsPerModule</text>
<text text-anchor="middle" x="413.5" y="-1080.5" font-family="Helvetica,sans-Serif" font-size="10.00">#mNumberOfModules</text>
<text text-anchor="middle" x="413.5" y="-1069.5" font-family="Helvetica,sans-Serif" font-size="10.00">#mNumberOfChipsPerHalfStave</text>
<text text-anchor="middle" x="413.5" y="-1058.5" font-family="Helvetica,sans-Serif" font-size="10.00">#mLastChipIndex</text>
<text text-anchor="middle" x="413.5" y="-1047.5" font-family="Helvetica,sans-Serif" font-size="10.00">#mNumberOfChipsPerModule</text>
</g>
<!-- Node12 -->
<g id="node12" class="node"><title>Node12</title>
<polygon fill="none" stroke="#bfbfbf" points="436.5,-1201.5 436.5,-1258.5 579.5,-1258.5 579.5,-1201.5 436.5,-1201.5"/>
<text text-anchor="middle" x="508" y="-1246.5" font-family="Helvetica,sans-Serif" font-size="10.00">array&lt; char, MAXLAYERS &gt;</text>
<polyline fill="none" stroke="#bfbfbf" points="436.5,-1239.5 579.5,-1239.5 "/>
<text text-anchor="middle" x="508" y="-1227.5" font-family="Helvetica,sans-Serif" font-size="10.00"> </text>
<polyline fill="none" stroke="#bfbfbf" points="436.5,-1220.5 579.5,-1220.5 "/>
<text text-anchor="middle" x="508" y="-1208.5" font-family="Helvetica,sans-Serif" font-size="10.00"> </text>
</g>
<!-- Node12&#45;&gt;Node1 -->
<g id="edge13" class="edge"><title>Node12&#45;&gt;Node1</title>
<path fill="none" stroke="#404040" d="M506.875,-1201.19C505.043,-1164.8 500.502,-1099.16 490,-1044 475.206,-966.297 454.125,-883.536 432.358,-807.078"/>
<polygon fill="none" stroke="#404040" points="432.305,-806.891 426.807,-802.224 429.001,-795.354 434.498,-800.021 432.305,-806.891"/>
<text text-anchor="middle" x="547.5" y="-1091.5" font-family="Helvetica,sans-Serif" font-size="10.00"> #mLayerToWrapper</text>
</g>
<!-- Node13 -->
<g id="node13" class="node"><title>Node13</title>
<polygon fill="none" stroke="#bfbfbf" points="598,-1201.5 598,-1258.5 678,-1258.5 678,-1201.5 598,-1201.5"/>
<text text-anchor="middle" x="638" y="-1246.5" font-family="Helvetica,sans-Serif" font-size="10.00">vector&lt; float &gt;</text>
<polyline fill="none" stroke="#bfbfbf" points="598,-1239.5 678,-1239.5 "/>
<text text-anchor="middle" x="638" y="-1227.5" font-family="Helvetica,sans-Serif" font-size="10.00"> </text>
<polyline fill="none" stroke="#bfbfbf" points="598,-1220.5 678,-1220.5 "/>
<text text-anchor="middle" x="638" y="-1208.5" font-family="Helvetica,sans-Serif" font-size="10.00"> </text>
</g>
<!-- Node13&#45;&gt;Node1 -->
<g id="edge15" class="edge"><title>Node13&#45;&gt;Node1</title>
<path fill="none" stroke="#404040" d="M633.789,-1201.49C627.726,-1164.86 615.12,-1098.37 596,-1044 552.638,-920.687 488.319,-788.486 434.75,-686.964"/>
<polygon fill="none" stroke="#404040" points="434.72,-686.907 428.377,-683.477 429.104,-676.302 435.447,-679.733 434.72,-686.907"/>
<text text-anchor="middle" x="664.5" y="-1097" font-family="Helvetica,sans-Serif" font-size="10.00"> #mCacheRefX</text>
<text text-anchor="middle" x="664.5" y="-1086" font-family="Helvetica,sans-Serif" font-size="10.00">#mCacheRefAlpha</text>
</g>
<!-- Node14 -->
<g id="node14" class="node"><title>Node14</title>
<polygon fill="none" stroke="#bfbfbf" points="721,-1201.5 721,-1258.5 757,-1258.5 757,-1201.5 721,-1201.5"/>
<text text-anchor="middle" x="739" y="-1246.5" font-family="Helvetica,sans-Serif" font-size="10.00">Int_t</text>
<polyline fill="none" stroke="#bfbfbf" points="721,-1239.5 757,-1239.5 "/>
<text text-anchor="middle" x="739" y="-1227.5" font-family="Helvetica,sans-Serif" font-size="10.00"> </text>
<polyline fill="none" stroke="#bfbfbf" points="721,-1220.5 757,-1220.5 "/>
<text text-anchor="middle" x="739" y="-1208.5" font-family="Helvetica,sans-Serif" font-size="10.00"> </text>
</g>
<!-- Node14&#45;&gt;Node1 -->
<g id="edge16" class="edge"><title>Node14&#45;&gt;Node1</title>
<path fill="none" stroke="#404040" d="M738.537,-1201.32C737.063,-1164.22 731.361,-1096.91 710,-1044 645.208,-883.527 523.82,-724.397 437.333,-623.025"/>
<polygon fill="none" stroke="#404040" points="437.149,-622.811 430.207,-620.86 429.338,-613.701 436.28,-615.652 437.149,-622.811"/>
<text text-anchor="middle" x="779.5" y="-1091.5" font-family="Helvetica,sans-Serif" font-size="10.00"> #mNumberOfLayers</text>
</g>
</g>
</svg>
        <g id="navigator" transform="translate(0 0)" fill="#404254">
                <rect fill="#f2f5e9" fill-opacity="0.5" stroke="#606060" stroke-width=".5" x="0" y="0" width="60" height="60"/>
                <use id="zoomplus" xlink:href="#zoomPlus" x="17" y="9" onmousedown="handleZoom(evt,'in')"/>
                <use id="zoomminus" xlink:href="#zoomMin" x="42" y="9" onmousedown="handleZoom(evt,'out')"/>
                <use id="reset" xlink:href="#resetDef" x="30" y="36" onmousedown="handleReset()"/>
                <g id="arrowUp" xlink:href="#dirArrow" transform="translate(30 24)" onmousedown="handlePan(0,-1)">
                  <use xlink:href="#rim" fill="#404040">
                        <set attributeName="fill" to="#808080" begin="arrowUp.mouseover" end="arrowUp.mouseout"/>
                  </use>
                  <path fill="none" stroke="white" stroke-width="1.5" d="M0,-3.0v7 M-2.5,-0.5L0,-3.0L2.5,-0.5"/>
                </g>
                <g id="arrowRight" xlink:href="#dirArrow" transform="rotate(90) translate(36 -43)" onmousedown="handlePan(1,0)">
                  <use xlink:href="#rim" fill="#404040">
                        <set attributeName="fill" to="#808080" begin="arrowRight.mouseover" end="arrowRight.mouseout"/>
                  </use>
                  <path fill="none" stroke="white" stroke-width="1.5" d="M0,-3.0v7 M-2.5,-0.5L0,-3.0L2.5,-0.5"/>
                </g>
                <g id="arrowDown" xlink:href="#dirArrow" transform="rotate(180) translate(-30 -48)" onmousedown="handlePan(0,1)">
                  <use xlink:href="#rim" fill="#404040">
                        <set attributeName="fill" to="#808080" begin="arrowDown.mouseover" end="arrowDown.mouseout"/>
                  </use>
                  <path fill="none" stroke="white" stroke-width="1.5" d="M0,-3.0v7 M-2.5,-0.5L0,-3.0L2.5,-0.5"/>
                </g>
                <g id="arrowLeft" xlink:href="#dirArrow" transform="rotate(270) translate(-36 17)" onmousedown="handlePan(-1,0)">
                  <use xlink:href="#rim" fill="#404040">
                        <set attributeName="fill" to="#808080" begin="arrowLeft.mouseover" end="arrowLeft.mouseout"/>
                  </use>
                  <path fill="none" stroke="white" stroke-width="1.5" d="M0,-3.0v7 M-2.5,-0.5L0,-3.0L2.5,-0.5"/>
                </g>
        </g>
        <svg viewBox="0 0 15 15" width="100%" height="30px" preserveAspectRatio="xMaxYMin meet">
         <g id="arrow_out" transform="scale(0.3 0.3)">
          <a xlink:href="classo2_1_1ITS_1_1GeometryTGeo__coll__graph_org.svg" target="_base">
           <rect id="button" ry="5" rx="5" y="6" x="6" height="38" width="38"
                fill="#f2f5e9" fill-opacity="0.5" stroke="#606060" stroke-width="1.0"/>
           <path id="arrow"
             d="M 11.500037,31.436501 C 11.940474,20.09759 22.043105,11.32322 32.158766,21.979434 L 37.068811,17.246167 C 37.068811,17.246167 37.088388,32 37.088388,32 L 22.160133,31.978069 C 22.160133,31.978069 26.997745,27.140456 26.997745,27.140456 C 18.528582,18.264221 13.291696,25.230495 11.500037,31.436501 z"
             style="fill:#404040;"/>
          </a>
         </g>
        </svg>
</svg>
