<?xml version="1.0" encoding="UTF-8" standalone="no"?>
<!DOCTYPE svg PUBLIC "-//W3C//DTD SVG 1.1//EN"
 "http://www.w3.org/Graphics/SVG/1.1/DTD/svg11.dtd">
<!-- Generated by graphviz version 2.36.0 (20140111.2315)
 -->
<!-- Title: /home/travis/build/AliceO2Group/AliceO2/DataFormats/Detectors/ITSMFT/ITS/src/TrackITS.cxx Pages: 1 -->
<!--zoomable 526 -->
<svg id="main" version="1.1" xmlns="http://www.w3.org/2000/svg" xmlns:xlink="http://www.w3.org/1999/xlink" xml:space="preserve" onload="init(evt)">
<style type="text/css"><![CDATA[
.edge:hover path { stroke: red; }
.edge:hover polygon { stroke: red; fill: red; }
]]></style>
<script type="text/javascript"><![CDATA[
var edges = document.getElementsByTagName('g');
if (edges && edges.length) {
  for (var i=0;i<edges.length;i++) {
    if (edges[i].id.substr(0,4)=='edge') {
      edges[i].setAttribute('class','edge');
    }
  }
}
]]></script>
        <defs>
                <circle id="rim" cx="0" cy="0" r="7"/>
                <circle id="rim2" cx="0" cy="0" r="3.5"/>
                <g id="zoomPlus">
                        <use xlink:href="#rim" fill="#404040">
                                <set attributeName="fill" to="#808080" begin="zoomplus.mouseover" end="zoomplus.mouseout"/>
                        </use>
                        <path d="M-4,0h8M0,-4v8" fill="none" stroke="white" stroke-width="1.5" pointer-events="none"/>
                </g>
                <g id="zoomMin">
                        <use xlink:href="#rim" fill="#404040">
                                <set attributeName="fill" to="#808080" begin="zoomminus.mouseover" end="zoomminus.mouseout"/>
                        </use>
                        <path d="M-4,0h8" fill="none" stroke="white" stroke-width="1.5" pointer-events="none"/>
                </g>
                <g id="dirArrow">
                        <path fill="none" stroke="white" stroke-width="1.5" d="M0,-3.0v7 M-2.5,-0.5L0,-3.0L2.5,-0.5"/>
                </g>
               <g id="resetDef">
                       <use xlink:href="#rim2" fill="#404040">
                               <set attributeName="fill" to="#808080" begin="reset.mouseover" end="reset.mouseout"/>
                       </use>
               </g>
        </defs>

<script type="text/javascript">
var viewWidth = 2041;
var viewHeight = 526;
var sectionId = 'dynsection-0';
</script>
<script xlink:href="../../svgpan.js"/>
<svg id="graph" class="graph">
<g id="viewport">
<title>/home/travis/build/AliceO2Group/AliceO2/DataFormats/Detectors/ITSMFT/ITS/src/TrackITS.cxx</title>
<!-- Node1 -->
<g id="node1" class="node"><title>Node1</title>
<polygon fill="#bfbfbf" stroke="black" points="54.5,-465 54.5,-517 207.5,-517 207.5,-465 54.5,-465"/>
<text text-anchor="start" x="62.5" y="-505" font-family="Helvetica,sans-Serif" font-size="10.00">/home/travis/build</text>
<text text-anchor="start" x="62.5" y="-494" font-family="Helvetica,sans-Serif" font-size="10.00">/AliceO2Group/AliceO2</text>
<text text-anchor="start" x="62.5" y="-483" font-family="Helvetica,sans-Serif" font-size="10.00">/DataFormats/Detectors</text>
<text text-anchor="middle" x="131" y="-472" font-family="Helvetica,sans-Serif" font-size="10.00">/ITSMFT/ITS/src/TrackITS.cxx</text>
</g>
<!-- Node2 -->
<g id="node2" class="node"><title>Node2</title>
<polygon fill="none" stroke="#bfbfbf" points="-0.5,-408.5 -0.5,-427.5 52.5,-427.5 52.5,-408.5 -0.5,-408.5"/>
<text text-anchor="middle" x="26" y="-415.5" font-family="Helvetica,sans-Serif" font-size="10.00">TMath.h</text>
</g>
<!-- Node1&#45;&gt;Node2 -->
<g id="edge1" class="edge"><title>Node1&#45;&gt;Node2</title>
<path fill="none" stroke="midnightblue" d="M93.9809,-464.968C78.3419,-454.393 60.69,-442.457 47.2935,-433.398"/>
<polygon fill="midnightblue" stroke="midnightblue" points="49.0203,-430.341 38.7758,-427.639 45.0992,-436.14 49.0203,-430.341"/>
</g>
<!-- Node3 -->
<g id="node3" class="node"><title>Node3</title>
<g id="a_node3"><a xlink:href="../../d6/d84/MathConstants_8h.html" target="_top" xlink:title="useful math constants ">
<polygon fill="none" stroke="black" points="10.5,-6.5 10.5,-25.5 189.5,-25.5 189.5,-6.5 10.5,-6.5"/>
<text text-anchor="middle" x="100" y="-13.5" font-family="Helvetica,sans-Serif" font-size="10.00">CommonConstants/MathConstants.h</text>
</a>
</g>
</g>
<!-- Node1&#45;&gt;Node3 -->
<g id="edge2" class="edge"><title>Node1&#45;&gt;Node3</title>
<path fill="none" stroke="midnightblue" d="M115.18,-464.569C100.531,-438.555 81,-396.469 81,-357 81,-357 81,-357 81,-151 81,-109.451 90.0656,-61.3655 95.6726,-35.5985"/>
<polygon fill="midnightblue" stroke="midnightblue" points="99.115,-36.2433 97.8941,-25.719 92.2855,-34.7076 99.115,-36.2433"/>
</g>
<!-- Node4 -->
<g id="node4" class="node"><title>Node4</title>
<g id="a_node4"><a xlink:href="../../d1/d62/DataFormats_2Detectors_2ITSMFT_2common_2include_2DataFormatsITSMFT_2Cluster_8h.html" target="_top" xlink:title="DataFormatsITSMFT/Cluster.h">
<polygon fill="none" stroke="black" points="682,-346.5 682,-365.5 834,-365.5 834,-346.5 682,-346.5"/>
<text text-anchor="middle" x="758" y="-353.5" font-family="Helvetica,sans-Serif" font-size="10.00">DataFormatsITSMFT/Cluster.h</text>
</a>
</g>
</g>
<!-- Node1&#45;&gt;Node4 -->
<g id="edge3" class="edge"><title>Node1&#45;&gt;Node4</title>
<path fill="none" stroke="midnightblue" d="M207.569,-473.758C337.771,-446.139 598.804,-390.769 708.085,-367.588"/>
<polygon fill="midnightblue" stroke="midnightblue" points="708.811,-371.012 717.867,-365.513 707.358,-364.164 708.811,-371.012"/>
</g>
<!-- Node32 -->
<g id="node32" class="node"><title>Node32</title>
<g id="a_node32"><a xlink:href="../../d1/d71/TrackITS_8h.html" target="_top" xlink:title="Definition of the ITS track. ">
<polygon fill="none" stroke="black" points="110.5,-408.5 110.5,-427.5 251.5,-427.5 251.5,-408.5 110.5,-408.5"/>
<text text-anchor="middle" x="181" y="-415.5" font-family="Helvetica,sans-Serif" font-size="10.00">DataFormatsITS/TrackITS.h</text>
</a>
</g>
</g>
<!-- Node1&#45;&gt;Node32 -->
<g id="edge39" class="edge"><title>Node1&#45;&gt;Node32</title>
<path fill="none" stroke="midnightblue" d="M148.769,-464.768C155.448,-455.284 162.88,-444.731 168.923,-436.15"/>
<polygon fill="midnightblue" stroke="midnightblue" points="171.937,-437.948 174.833,-427.757 166.214,-433.918 171.937,-437.948"/>
</g>
<!-- Node5 -->
<g id="node5" class="node"><title>Node5</title>
<g id="a_node5"><a xlink:href="../../d4/de2/BaseCluster_8h.html" target="_top" xlink:title="ReconstructionDataFormats\l/BaseCluster.h">
<polygon fill="none" stroke="black" points="802,-273 802,-303 942,-303 942,-273 802,-273"/>
<text text-anchor="start" x="810" y="-291" font-family="Helvetica,sans-Serif" font-size="10.00">ReconstructionDataFormats</text>
<text text-anchor="middle" x="872" y="-280" font-family="Helvetica,sans-Serif" font-size="10.00">/BaseCluster.h</text>
</a>
</g>
</g>
<!-- Node4&#45;&gt;Node5 -->
<g id="edge4" class="edge"><title>Node4&#45;&gt;Node5</title>
<path fill="none" stroke="midnightblue" d="M772.904,-346.372C789.486,-336.771 816.807,-320.954 838.567,-308.356"/>
<polygon fill="midnightblue" stroke="midnightblue" points="840.604,-311.221 847.505,-303.181 837.097,-305.163 840.604,-311.221"/>
</g>
<!-- Node6 -->
<g id="node6" class="node"><title>Node6</title>
<polygon fill="none" stroke="#bfbfbf" points="956.5,-210.5 956.5,-229.5 1015.5,-229.5 1015.5,-210.5 956.5,-210.5"/>
<text text-anchor="middle" x="986" y="-217.5" font-family="Helvetica,sans-Serif" font-size="10.00">TObject.h</text>
</g>
<!-- Node5&#45;&gt;Node6 -->
<g id="edge5" class="edge"><title>Node5&#45;&gt;Node6</title>
<path fill="none" stroke="midnightblue" d="M896.456,-272.841C915.909,-261.579 942.968,-245.913 962.238,-234.757"/>
<polygon fill="midnightblue" stroke="midnightblue" points="964.103,-237.721 971.004,-229.682 960.596,-231.663 964.103,-237.721"/>
</g>
<!-- Node7 -->
<g id="node7" class="node"><title>Node7</title>
<polygon fill="none" stroke="#bfbfbf" points="331.5,-74.5 331.5,-93.5 372.5,-93.5 372.5,-74.5 331.5,-74.5"/>
<text text-anchor="middle" x="352" y="-81.5" font-family="Helvetica,sans-Serif" font-size="10.00">bitset</text>
</g>
<!-- Node5&#45;&gt;Node7 -->
<g id="edge6" class="edge"><title>Node5&#45;&gt;Node7</title>
<path fill="none" stroke="midnightblue" d="M801.887,-279.87C678.402,-265.826 429.706,-230.399 372,-168 355.832,-150.517 352.08,-122.289 351.528,-103.688"/>
<polygon fill="midnightblue" stroke="midnightblue" points="355.028,-103.528 351.516,-93.5321 348.028,-103.536 355.028,-103.528"/>
</g>
<!-- Node8 -->
<g id="node8" class="node"><title>Node8</title>
<polygon fill="none" stroke="#bfbfbf" points="802,-210.5 802,-229.5 852,-229.5 852,-210.5 802,-210.5"/>
<text text-anchor="middle" x="827" y="-217.5" font-family="Helvetica,sans-Serif" font-size="10.00">iomanip</text>
</g>
<!-- Node5&#45;&gt;Node8 -->
<g id="edge7" class="edge"><title>Node5&#45;&gt;Node8</title>
<path fill="none" stroke="midnightblue" d="M862.236,-272.679C855.358,-262.592 846.113,-249.033 838.819,-238.335"/>
<polygon fill="midnightblue" stroke="midnightblue" points="841.545,-236.119 833.019,-229.828 835.761,-240.062 841.545,-236.119"/>
</g>
<!-- Node9 -->
<g id="node9" class="node"><title>Node9</title>
<polygon fill="none" stroke="#bfbfbf" points="870.5,-210.5 870.5,-229.5 899.5,-229.5 899.5,-210.5 870.5,-210.5"/>
<text text-anchor="middle" x="885" y="-217.5" font-family="Helvetica,sans-Serif" font-size="10.00">ios</text>
</g>
<!-- Node5&#45;&gt;Node9 -->
<g id="edge8" class="edge"><title>Node5&#45;&gt;Node9</title>
<path fill="none" stroke="midnightblue" d="M874.821,-272.679C876.727,-262.999 879.264,-250.123 881.328,-239.645"/>
<polygon fill="midnightblue" stroke="midnightblue" points="884.762,-240.316 883.261,-229.828 877.894,-238.963 884.762,-240.316"/>
</g>
<!-- Node10 -->
<g id="node10" class="node"><title>Node10</title>
<polygon fill="none" stroke="#bfbfbf" points="756,-74.5 756,-93.5 810,-93.5 810,-74.5 756,-74.5"/>
<text text-anchor="middle" x="783" y="-81.5" font-family="Helvetica,sans-Serif" font-size="10.00">iostream</text>
</g>
<!-- Node5&#45;&gt;Node10 -->
<g id="edge9" class="edge"><title>Node5&#45;&gt;Node10</title>
<path fill="none" stroke="midnightblue" d="M885.523,-272.917C899.644,-256.419 918.397,-228.253 908,-204 887.458,-156.082 837.093,-118.328 806.936,-99.0574"/>
<polygon fill="midnightblue" stroke="midnightblue" points="808.622,-95.9845 798.281,-93.6797 804.928,-101.93 808.622,-95.9845"/>
</g>
<!-- Node11 -->
<g id="node11" class="node"><title>Node11</title>
<g id="a_node11"><a xlink:href="../../d4/d20/DetMatrixCache_8h.html" target="_top" xlink:title="DetectorsCommonDataFormats\l/DetMatrixCache.h">
<polygon fill="none" stroke="black" points="590,-205 590,-235 746,-235 746,-205 590,-205"/>
<text text-anchor="start" x="598" y="-223" font-family="Helvetica,sans-Serif" font-size="10.00">DetectorsCommonDataFormats</text>
<text text-anchor="middle" x="668" y="-212" font-family="Helvetica,sans-Serif" font-size="10.00">/DetMatrixCache.h</text>
</a>
</g>
</g>
<!-- Node5&#45;&gt;Node11 -->
<g id="edge10" class="edge"><title>Node5&#45;&gt;Node11</title>
<path fill="none" stroke="midnightblue" d="M828.487,-272.922C797.069,-262.757 754.468,-248.975 721.053,-238.164"/>
<polygon fill="midnightblue" stroke="midnightblue" points="722.038,-234.804 711.446,-235.056 719.883,-241.464 722.038,-234.804"/>
</g>
<!-- Node22 -->
<g id="node22" class="node"><title>Node22</title>
<g id="a_node22"><a xlink:href="../../dd/d76/Cartesian3D_8h.html" target="_top" xlink:title="MathUtils/Cartesian3D.h">
<polygon fill="none" stroke="black" points="1019.5,-142.5 1019.5,-161.5 1144.5,-161.5 1144.5,-142.5 1019.5,-142.5"/>
<text text-anchor="middle" x="1082" y="-149.5" font-family="Helvetica,sans-Serif" font-size="10.00">MathUtils/Cartesian3D.h</text>
</a>
</g>
</g>
<!-- Node5&#45;&gt;Node22 -->
<g id="edge38" class="edge"><title>Node5&#45;&gt;Node22</title>
<path fill="none" stroke="midnightblue" d="M942.299,-273.413C969.685,-265.678 1000.15,-253.841 1024,-236 1047.04,-218.763 1064.33,-189.635 1073.8,-170.87"/>
<polygon fill="midnightblue" stroke="midnightblue" points="1077.06,-172.18 1078.25,-161.652 1070.75,-169.139 1077.06,-172.18"/>
</g>
<!-- Node12 -->
<g id="node12" class="node"><title>Node12</title>
<polygon fill="none" stroke="#bfbfbf" points="631.5,-142.5 631.5,-161.5 702.5,-161.5 702.5,-142.5 631.5,-142.5"/>
<text text-anchor="middle" x="667" y="-149.5" font-family="Helvetica,sans-Serif" font-size="10.00">FairLogger.h</text>
</g>
<!-- Node11&#45;&gt;Node12 -->
<g id="edge11" class="edge"><title>Node11&#45;&gt;Node12</title>
<path fill="none" stroke="midnightblue" d="M667.783,-204.679C667.638,-195.101 667.445,-182.394 667.288,-171.977"/>
<polygon fill="midnightblue" stroke="midnightblue" points="670.785,-171.774 667.134,-161.828 663.786,-171.88 670.785,-171.774"/>
</g>
<!-- Node13 -->
<g id="node13" class="node"><title>Node13</title>
<polygon fill="none" stroke="#bfbfbf" points="439,-6.5 439,-25.5 477,-25.5 477,-6.5 439,-6.5"/>
<text text-anchor="middle" x="458" y="-13.5" font-family="Helvetica,sans-Serif" font-size="10.00">array</text>
</g>
<!-- Node11&#45;&gt;Node13 -->
<g id="edge12" class="edge"><title>Node11&#45;&gt;Node13</title>
<path fill="none" stroke="midnightblue" d="M684.8,-204.802C694.486,-195.47 705.754,-182.359 711,-168 718.443,-147.625 711.628,-75.4424 705,-68 676.42,-35.9089 546.461,-23.0466 487.385,-18.792"/>
<polygon fill="midnightblue" stroke="midnightblue" points="487.436,-15.2874 477.22,-18.0951 486.957,-22.271 487.436,-15.2874"/>
</g>
<!-- Node14 -->
<g id="node14" class="node"><title>Node14</title>
<polygon fill="none" stroke="#bfbfbf" points="185,-142.5 185,-161.5 229,-161.5 229,-142.5 185,-142.5"/>
<text text-anchor="middle" x="207" y="-149.5" font-family="Helvetica,sans-Serif" font-size="10.00">vector</text>
</g>
<!-- Node11&#45;&gt;Node14 -->
<g id="edge13" class="edge"><title>Node11&#45;&gt;Node14</title>
<path fill="none" stroke="midnightblue" d="M589.798,-207.804C487.174,-193.112 311.648,-167.982 239.462,-157.648"/>
<polygon fill="midnightblue" stroke="midnightblue" points="239.582,-154.129 229.186,-156.176 238.589,-161.058 239.582,-154.129"/>
</g>
<!-- Node15 -->
<g id="node15" class="node"><title>Node15</title>
<g id="a_node15"><a xlink:href="../../d6/d31/DetID_8h.html" target="_top" xlink:title="DetectorsCommonDataFormats\l/DetID.h">
<polygon fill="none" stroke="black" points="381,-137 381,-167 537,-167 537,-137 381,-137"/>
<text text-anchor="start" x="389" y="-155" font-family="Helvetica,sans-Serif" font-size="10.00">DetectorsCommonDataFormats</text>
<text text-anchor="middle" x="459" y="-144" font-family="Helvetica,sans-Serif" font-size="10.00">/DetID.h</text>
</a>
</g>
</g>
<!-- Node11&#45;&gt;Node15 -->
<g id="edge14" class="edge"><title>Node11&#45;&gt;Node15</title>
<path fill="none" stroke="midnightblue" d="M623.421,-204.922C591.232,-194.757 547.587,-180.975 513.354,-170.164"/>
<polygon fill="midnightblue" stroke="midnightblue" points="514.101,-166.73 503.511,-167.056 511.993,-173.405 514.101,-166.73"/>
</g>
<!-- Node16 -->
<g id="node16" class="node"><title>Node16</title>
<polygon fill="none" stroke="#bfbfbf" points="641,-74.5 641,-93.5 697,-93.5 697,-74.5 641,-74.5"/>
<text text-anchor="middle" x="669" y="-81.5" font-family="Helvetica,sans-Serif" font-size="10.00">Rtypes.h</text>
</g>
<!-- Node11&#45;&gt;Node16 -->
<g id="edge37" class="edge"><title>Node11&#45;&gt;Node16</title>
<path fill="none" stroke="midnightblue" d="M650.434,-204.957C640.304,-195.683 628.513,-182.579 623,-168 617.97,-154.697 617.898,-149.275 623,-136 628.401,-121.949 639.662,-109.353 649.69,-100.194"/>
<polygon fill="midnightblue" stroke="midnightblue" points="652.032,-102.797 657.333,-93.624 647.468,-97.4891 652.032,-102.797"/>
</g>
<!-- Node11&#45;&gt;Node22 -->
<g id="edge25" class="edge"><title>Node11&#45;&gt;Node22</title>
<path fill="none" stroke="midnightblue" d="M746.357,-206.508C825.278,-193.927 945.532,-174.756 1018.64,-163.101"/>
<polygon fill="midnightblue" stroke="midnightblue" points="1019.31,-166.539 1028.63,-161.508 1018.21,-159.626 1019.31,-166.539"/>
</g>
<!-- Node15&#45;&gt;Node7 -->
<g id="edge17" class="edge"><title>Node15&#45;&gt;Node7</title>
<path fill="none" stroke="midnightblue" d="M436.046,-136.841C417.953,-125.681 392.851,-110.198 374.798,-99.0625"/>
<polygon fill="midnightblue" stroke="midnightblue" points="376.424,-95.9529 366.075,-93.6819 372.749,-101.911 376.424,-95.9529"/>
</g>
<!-- Node15&#45;&gt;Node13 -->
<g id="edge16" class="edge"><title>Node15&#45;&gt;Node13</title>
<path fill="none" stroke="midnightblue" d="M522.72,-136.936C567.643,-123.852 616.028,-101.316 593,-68 569.322,-33.7439 519.483,-22.4716 487.434,-18.7784"/>
<polygon fill="midnightblue" stroke="midnightblue" points="487.603,-15.2784 477.311,-17.7942 486.925,-22.2455 487.603,-15.2784"/>
</g>
<!-- Node15&#45;&gt;Node16 -->
<g id="edge15" class="edge"><title>Node15&#45;&gt;Node16</title>
<path fill="none" stroke="midnightblue" d="M507.352,-136.995C541.027,-127.077 586.912,-113.235 627,-100 629.92,-99.0359 632.945,-98.0099 635.973,-96.9643"/>
<polygon fill="midnightblue" stroke="midnightblue" points="637.247,-100.226 645.523,-93.6103 634.928,-93.6217 637.247,-100.226"/>
</g>
<!-- Node17 -->
<g id="node17" class="node"><title>Node17</title>
<polygon fill="none" stroke="#bfbfbf" points="535.5,-74.5 535.5,-93.5 584.5,-93.5 584.5,-74.5 535.5,-74.5"/>
<text text-anchor="middle" x="560" y="-81.5" font-family="Helvetica,sans-Serif" font-size="10.00">cassert</text>
</g>
<!-- Node15&#45;&gt;Node17 -->
<g id="edge18" class="edge"><title>Node15&#45;&gt;Node17</title>
<path fill="none" stroke="midnightblue" d="M480.915,-136.679C497.853,-125.611 521.187,-110.363 538.116,-99.3002"/>
<polygon fill="midnightblue" stroke="midnightblue" points="540.325,-102.038 546.781,-93.6379 536.496,-96.1783 540.325,-102.038"/>
</g>
<!-- Node18 -->
<g id="node18" class="node"><title>Node18</title>
<polygon fill="none" stroke="#bfbfbf" points="391,-74.5 391,-93.5 437,-93.5 437,-74.5 391,-74.5"/>
<text text-anchor="middle" x="414" y="-81.5" font-family="Helvetica,sans-Serif" font-size="10.00">cstdint</text>
</g>
<!-- Node15&#45;&gt;Node18 -->
<g id="edge19" class="edge"><title>Node15&#45;&gt;Node18</title>
<path fill="none" stroke="midnightblue" d="M449.236,-136.679C442.358,-126.592 433.113,-113.033 425.819,-102.335"/>
<polygon fill="midnightblue" stroke="midnightblue" points="428.545,-100.119 420.019,-93.8283 422.761,-104.062 428.545,-100.119"/>
</g>
<!-- Node19 -->
<g id="node19" class="node"><title>Node19</title>
<polygon fill="none" stroke="#bfbfbf" points="455,-74.5 455,-93.5 517,-93.5 517,-74.5 455,-74.5"/>
<text text-anchor="middle" x="486" y="-81.5" font-family="Helvetica,sans-Serif" font-size="10.00">type_traits</text>
</g>
<!-- Node15&#45;&gt;Node19 -->
<g id="edge20" class="edge"><title>Node15&#45;&gt;Node19</title>
<path fill="none" stroke="midnightblue" d="M464.859,-136.679C468.86,-126.898 474.197,-113.852 478.508,-103.315"/>
<polygon fill="midnightblue" stroke="midnightblue" points="481.841,-104.409 482.388,-93.8283 475.363,-101.759 481.841,-104.409"/>
</g>
<!-- Node20 -->
<g id="node20" class="node"><title>Node20</title>
<g id="a_node20"><a xlink:href="../../d9/d52/Common_2MathUtils_2include_2MathUtils_2Utils_8h.html" target="_top" xlink:title="MathUtils/Utils.h">
<polygon fill="none" stroke="black" points="185,-74.5 185,-93.5 275,-93.5 275,-74.5 185,-74.5"/>
<text text-anchor="middle" x="230" y="-81.5" font-family="Helvetica,sans-Serif" font-size="10.00">MathUtils/Utils.h</text>
</a>
</g>
</g>
<!-- Node15&#45;&gt;Node20 -->
<g id="edge21" class="edge"><title>Node15&#45;&gt;Node20</title>
<path fill="none" stroke="midnightblue" d="M410.155,-136.922C368.192,-124.828 308.461,-107.613 269.469,-96.3753"/>
<polygon fill="midnightblue" stroke="midnightblue" points="270.118,-92.9201 259.54,-93.5138 268.18,-99.6463 270.118,-92.9201"/>
</g>
<!-- Node20&#45;&gt;Node3 -->
<g id="edge24" class="edge"><title>Node20&#45;&gt;Node3</title>
<path fill="none" stroke="midnightblue" d="M213.005,-74.3717C190.913,-63.1557 152.105,-43.4532 126.224,-30.3136"/>
<polygon fill="midnightblue" stroke="midnightblue" points="127.501,-27.0366 116.999,-25.6305 124.332,-33.2783 127.501,-27.0366"/>
</g>
<!-- Node20&#45;&gt;Node13 -->
<g id="edge22" class="edge"><title>Node20&#45;&gt;Node13</title>
<path fill="none" stroke="midnightblue" d="M259.807,-74.3717C303.836,-61.6264 385.722,-37.9227 429.178,-25.3432"/>
<polygon fill="midnightblue" stroke="midnightblue" points="430.217,-28.6863 438.849,-22.5437 428.27,-21.9623 430.217,-28.6863"/>
</g>
<!-- Node21 -->
<g id="node21" class="node"><title>Node21</title>
<polygon fill="none" stroke="#bfbfbf" points="208,-6.5 208,-25.5 252,-25.5 252,-6.5 208,-6.5"/>
<text text-anchor="middle" x="230" y="-13.5" font-family="Helvetica,sans-Serif" font-size="10.00">cmath</text>
</g>
<!-- Node20&#45;&gt;Node21 -->
<g id="edge23" class="edge"><title>Node20&#45;&gt;Node21</title>
<path fill="none" stroke="midnightblue" d="M230,-74.3717C230,-64.6426 230,-48.528 230,-35.8504"/>
<polygon fill="midnightblue" stroke="midnightblue" points="233.5,-35.8411 230,-25.8411 226.5,-35.8412 233.5,-35.8411"/>
</g>
<!-- Node22&#45;&gt;Node10 -->
<g id="edge33" class="edge"><title>Node22&#45;&gt;Node10</title>
<path fill="none" stroke="midnightblue" d="M1019.49,-142.542C965.655,-134.392 886.234,-120.295 819,-100 816.357,-99.202 813.642,-98.2777 810.945,-97.2874"/>
<polygon fill="midnightblue" stroke="midnightblue" points="812.008,-93.9438 801.421,-93.5204 809.433,-100.453 812.008,-93.9438"/>
</g>
<!-- Node22&#45;&gt;Node16 -->
<g id="edge31" class="edge"><title>Node22&#45;&gt;Node16</title>
<path fill="none" stroke="midnightblue" d="M1021.37,-142.493C954.175,-132.898 842.661,-116.473 747,-100 733.918,-97.7472 719.645,-95.0676 706.927,-92.6007"/>
<polygon fill="midnightblue" stroke="midnightblue" points="707.599,-89.1659 697.112,-90.6802 706.254,-96.0356 707.599,-89.1659"/>
</g>
<!-- Node23 -->
<g id="node23" class="node"><title>Node23</title>
<polygon fill="none" stroke="#bfbfbf" points="1274.5,-69 1274.5,-99 1425.5,-99 1425.5,-69 1274.5,-69"/>
<text text-anchor="start" x="1282.5" y="-87" font-family="Helvetica,sans-Serif" font-size="10.00">Math/GenVector/Displacement</text>
<text text-anchor="middle" x="1350" y="-76" font-family="Helvetica,sans-Serif" font-size="10.00">Vector3D.h</text>
</g>
<!-- Node22&#45;&gt;Node23 -->
<g id="edge26" class="edge"><title>Node22&#45;&gt;Node23</title>
<path fill="none" stroke="midnightblue" d="M1116.76,-142.439C1158.74,-132.101 1230.28,-114.483 1283.09,-101.478"/>
<polygon fill="midnightblue" stroke="midnightblue" points="1284.18,-104.815 1293.05,-99.0247 1282.5,-98.0176 1284.18,-104.815"/>
</g>
<!-- Node24 -->
<g id="node24" class="node"><title>Node24</title>
<polygon fill="none" stroke="#bfbfbf" points="1444,-74.5 1444,-93.5 1620,-93.5 1620,-74.5 1444,-74.5"/>
<text text-anchor="middle" x="1532" y="-81.5" font-family="Helvetica,sans-Serif" font-size="10.00">Math/GenVector/PositionVector3D.h</text>
</g>
<!-- Node22&#45;&gt;Node24 -->
<g id="edge27" class="edge"><title>Node22&#45;&gt;Node24</title>
<path fill="none" stroke="midnightblue" d="M1141.81,-142.483C1211.86,-132.473 1331.39,-115.285 1434,-100 1444.62,-98.4175 1455.89,-96.7153 1466.85,-95.0457"/>
<polygon fill="midnightblue" stroke="midnightblue" points="1467.46,-98.4946 1476.81,-93.526 1466.4,-91.5747 1467.46,-98.4946"/>
</g>
<!-- Node25 -->
<g id="node25" class="node"><title>Node25</title>
<polygon fill="none" stroke="#bfbfbf" points="1637.5,-74.5 1637.5,-93.5 1786.5,-93.5 1786.5,-74.5 1637.5,-74.5"/>
<text text-anchor="middle" x="1712" y="-81.5" font-family="Helvetica,sans-Serif" font-size="10.00">Math/GenVector/Rotation3D.h</text>
</g>
<!-- Node22&#45;&gt;Node25 -->
<g id="edge28" class="edge"><title>Node22&#45;&gt;Node25</title>
<path fill="none" stroke="midnightblue" d="M1144.84,-146.846C1246.61,-139.732 1453.71,-123.66 1628,-100 1637.8,-98.6699 1648.2,-97.0136 1658.22,-95.2917"/>
<polygon fill="midnightblue" stroke="midnightblue" points="1658.84,-98.7371 1668.08,-93.5575 1657.62,-91.843 1658.84,-98.7371"/>
</g>
<!-- Node26 -->
<g id="node26" class="node"><title>Node26</title>
<polygon fill="none" stroke="#bfbfbf" points="828,-74.5 828,-93.5 984,-93.5 984,-74.5 828,-74.5"/>
<text text-anchor="middle" x="906" y="-81.5" font-family="Helvetica,sans-Serif" font-size="10.00">Math/GenVector/Transform3D.h</text>
</g>
<!-- Node22&#45;&gt;Node26 -->
<g id="edge29" class="edge"><title>Node22&#45;&gt;Node26</title>
<path fill="none" stroke="midnightblue" d="M1058.99,-142.372C1028.21,-130.827 973.447,-110.293 938.472,-97.1772"/>
<polygon fill="midnightblue" stroke="midnightblue" points="939.328,-93.76 928.736,-93.5259 936.87,-100.314 939.328,-93.76"/>
</g>
<!-- Node27 -->
<g id="node27" class="node"><title>Node27</title>
<polygon fill="none" stroke="#bfbfbf" points="1002,-74.5 1002,-93.5 1162,-93.5 1162,-74.5 1002,-74.5"/>
<text text-anchor="middle" x="1082" y="-81.5" font-family="Helvetica,sans-Serif" font-size="10.00">Math/GenVector/Translation3D.h</text>
</g>
<!-- Node22&#45;&gt;Node27 -->
<g id="edge30" class="edge"><title>Node22&#45;&gt;Node27</title>
<path fill="none" stroke="midnightblue" d="M1082,-142.372C1082,-132.643 1082,-116.528 1082,-103.85"/>
<polygon fill="midnightblue" stroke="midnightblue" points="1085.5,-103.841 1082,-93.8411 1078.5,-103.841 1085.5,-103.841"/>
</g>
<!-- Node28 -->
<g id="node28" class="node"><title>Node28</title>
<polygon fill="none" stroke="#bfbfbf" points="1180,-74.5 1180,-93.5 1256,-93.5 1256,-74.5 1180,-74.5"/>
<text text-anchor="middle" x="1218" y="-81.5" font-family="Helvetica,sans-Serif" font-size="10.00">TGeoMatrix.h</text>
</g>
<!-- Node22&#45;&gt;Node28 -->
<g id="edge32" class="edge"><title>Node22&#45;&gt;Node28</title>
<path fill="none" stroke="midnightblue" d="M1099.78,-142.372C1122.99,-131.106 1163.85,-111.279 1190.92,-98.1403"/>
<polygon fill="midnightblue" stroke="midnightblue" points="1192.75,-101.145 1200.22,-93.6305 1189.69,-94.8477 1192.75,-101.145"/>
</g>
<!-- Node29 -->
<g id="node29" class="node"><title>Node29</title>
<g id="a_node29"><a xlink:href="../../d2/dd0/Cartesian2D_8h.html" target="_top" xlink:title="MathUtils/Cartesian2D.h">
<polygon fill="none" stroke="black" points="1804.5,-74.5 1804.5,-93.5 1929.5,-93.5 1929.5,-74.5 1804.5,-74.5"/>
<text text-anchor="middle" x="1867" y="-81.5" font-family="Helvetica,sans-Serif" font-size="10.00">MathUtils/Cartesian2D.h</text>
</a>
</g>
</g>
<!-- Node22&#45;&gt;Node29 -->
<g id="edge34" class="edge"><title>Node22&#45;&gt;Node29</title>
<path fill="none" stroke="midnightblue" d="M1144.76,-149.335C1269.3,-145.408 1556.24,-133.257 1795,-100 1803.45,-98.8225 1812.4,-97.2373 1821.01,-95.5375"/>
<polygon fill="midnightblue" stroke="midnightblue" points="1821.81,-98.9452 1830.91,-93.5071 1820.41,-92.088 1821.81,-98.9452"/>
</g>
<!-- Node30 -->
<g id="node30" class="node"><title>Node30</title>
<polygon fill="none" stroke="#bfbfbf" points="1882.5,-1 1882.5,-31 2033.5,-31 2033.5,-1 1882.5,-1"/>
<text text-anchor="start" x="1890.5" y="-19" font-family="Helvetica,sans-Serif" font-size="10.00">Math/GenVector/Displacement</text>
<text text-anchor="middle" x="1958" y="-8" font-family="Helvetica,sans-Serif" font-size="10.00">Vector2D.h</text>
</g>
<!-- Node29&#45;&gt;Node30 -->
<g id="edge35" class="edge"><title>Node29&#45;&gt;Node30</title>
<path fill="none" stroke="midnightblue" d="M1878.9,-74.3717C1891.78,-65.0286 1912.78,-49.7966 1929.91,-37.375"/>
<polygon fill="midnightblue" stroke="midnightblue" points="1932.41,-39.8859 1938.45,-31.1815 1928.3,-34.2194 1932.41,-39.8859"/>
</g>
<!-- Node31 -->
<g id="node31" class="node"><title>Node31</title>
<polygon fill="none" stroke="#bfbfbf" points="1688,-6.5 1688,-25.5 1864,-25.5 1864,-6.5 1688,-6.5"/>
<text text-anchor="middle" x="1776" y="-13.5" font-family="Helvetica,sans-Serif" font-size="10.00">Math/GenVector/PositionVector2D.h</text>
</g>
<!-- Node29&#45;&gt;Node31 -->
<g id="edge36" class="edge"><title>Node29&#45;&gt;Node31</title>
<path fill="none" stroke="midnightblue" d="M1855.1,-74.3717C1840.12,-63.5015 1814.14,-44.6602 1796.06,-31.5474"/>
<polygon fill="midnightblue" stroke="midnightblue" points="1798.05,-28.6684 1787.9,-25.6305 1793.94,-34.3349 1798.05,-28.6684"/>
</g>
<!-- Node32&#45;&gt;Node14 -->
<g id="edge40" class="edge"><title>Node32&#45;&gt;Node14</title>
<path fill="none" stroke="midnightblue" d="M181.865,-408.216C185.551,-370.786 199.995,-224.126 205.155,-171.732"/>
<polygon fill="midnightblue" stroke="midnightblue" points="208.661,-171.845 206.158,-161.55 201.695,-171.159 208.661,-171.845"/>
</g>
<!-- Node33 -->
<g id="node33" class="node"><title>Node33</title>
<g id="a_node33"><a xlink:href="../../d7/d8b/DataFormats_2Reconstruction_2include_2ReconstructionDataFormats_2Track_8h.html" target="_top" xlink:title="ReconstructionDataFormats\l/Track.h">
<polygon fill="none" stroke="black" points="379,-341 379,-371 519,-371 519,-341 379,-341"/>
<text text-anchor="start" x="387" y="-359" font-family="Helvetica,sans-Serif" font-size="10.00">ReconstructionDataFormats</text>
<text text-anchor="middle" x="449" y="-348" font-family="Helvetica,sans-Serif" font-size="10.00">/Track.h</text>
</a>
</g>
</g>
<!-- Node32&#45;&gt;Node33 -->
<g id="edge41" class="edge"><title>Node32&#45;&gt;Node33</title>
<path fill="none" stroke="midnightblue" d="M219.113,-408.467C259.893,-399.337 325.552,-384.638 376.28,-373.281"/>
<polygon fill="midnightblue" stroke="midnightblue" points="377.22,-376.657 386.214,-371.057 375.691,-369.826 377.22,-376.657"/>
</g>
<!-- Node33&#45;&gt;Node3 -->
<g id="edge51" class="edge"><title>Node33&#45;&gt;Node3</title>
<path fill="none" stroke="midnightblue" d="M378.83,-347.461C332.789,-340.549 272.22,-327.64 223,-304 169.692,-278.397 119,-280.138 119,-221 119,-221 119,-221 119,-151 119,-109.451 109.934,-61.3655 104.327,-35.5985"/>
<polygon fill="midnightblue" stroke="midnightblue" points="107.715,-34.7076 102.106,-25.719 100.885,-36.2433 107.715,-34.7076"/>
</g>
<!-- Node33&#45;&gt;Node5 -->
<g id="edge54" class="edge"><title>Node33&#45;&gt;Node5</title>
<path fill="none" stroke="midnightblue" d="M519.208,-345.01C587.826,-335.112 695.211,-319.262 788,-304 789.274,-303.79 790.56,-303.578 791.853,-303.362"/>
<polygon fill="midnightblue" stroke="midnightblue" points="792.621,-306.782 801.898,-301.666 791.455,-299.88 792.621,-306.782"/>
</g>
<!-- Node33&#45;&gt;Node10 -->
<g id="edge48" class="edge"><title>Node33&#45;&gt;Node10</title>
<path fill="none" stroke="midnightblue" d="M519.01,-350.58C592.558,-344.552 701.822,-331.223 733,-304 791.932,-252.543 789.206,-147.252 785.268,-104.095"/>
<polygon fill="midnightblue" stroke="midnightblue" points="788.721,-103.464 784.2,-93.8815 781.759,-104.191 788.721,-103.464"/>
</g>
<!-- Node33&#45;&gt;Node13 -->
<g id="edge44" class="edge"><title>Node33&#45;&gt;Node13</title>
<path fill="none" stroke="midnightblue" d="M378.761,-345.185C354.115,-337.99 328.887,-325.537 314,-304 305.913,-292.301 313.687,-286.219 314,-272 316,-181.267 269.764,-141.501 323,-68 347.427,-34.2741 397.043,-22.8435 428.843,-18.9741"/>
<polygon fill="midnightblue" stroke="midnightblue" points="429.297,-22.4458 438.882,-17.9304 428.573,-15.4833 429.297,-22.4458"/>
</g>
<!-- Node33&#45;&gt;Node16 -->
<g id="edge42" class="edge"><title>Node33&#45;&gt;Node16</title>
<path fill="none" stroke="midnightblue" d="M519.079,-351.457C589.634,-346.248 691.45,-333.684 716,-304 725.064,-293.04 724.665,-283.278 716,-272 678.168,-222.758 618.832,-285.242 581,-236 545.554,-189.863 612.579,-128.125 648.455,-100.041"/>
<polygon fill="midnightblue" stroke="midnightblue" points="650.996,-102.505 656.824,-93.6567 646.75,-96.9397 650.996,-102.505"/>
</g>
<!-- Node33&#45;&gt;Node20 -->
<g id="edge53" class="edge"><title>Node33&#45;&gt;Node20</title>
<path fill="none" stroke="midnightblue" d="M378.723,-349.797C344.795,-343.684 306.102,-330.814 281,-304 267.139,-289.194 242.175,-154.112 233.267,-103.783"/>
<polygon fill="midnightblue" stroke="midnightblue" points="236.667,-102.906 231.491,-93.6621 229.772,-104.117 236.667,-102.906"/>
</g>
<!-- Node33&#45;&gt;Node21 -->
<g id="edge46" class="edge"><title>Node33&#45;&gt;Node21</title>
<path fill="none" stroke="midnightblue" d="M378.719,-347.562C342.044,-340.865 298.059,-328.147 265,-304 206.667,-261.392 196.638,-237.226 176,-168 163.302,-125.408 158.407,-108.814 176,-68 182.449,-53.0394 195.684,-40.4242 207.437,-31.4831"/>
<polygon fill="midnightblue" stroke="midnightblue" points="209.512,-34.3019 215.614,-25.6409 205.443,-28.6061 209.512,-34.3019"/>
</g>
<!-- Node33&#45;&gt;Node22 -->
<g id="edge52" class="edge"><title>Node33&#45;&gt;Node22</title>
<path fill="none" stroke="midnightblue" d="M519.019,-349.789C647.484,-339.948 911.353,-318.333 951,-304 1001.89,-285.602 1018.71,-278.666 1052,-236 1066.99,-216.792 1074.93,-189.426 1078.8,-171.446"/>
<polygon fill="midnightblue" stroke="midnightblue" points="1082.23,-172.104 1080.71,-161.62 1075.36,-170.769 1082.23,-172.104"/>
</g>
<!-- Node34 -->
<g id="node34" class="node"><title>Node34</title>
<polygon fill="none" stroke="#bfbfbf" points="323,-278.5 323,-297.5 379,-297.5 379,-278.5 323,-278.5"/>
<text text-anchor="middle" x="351" y="-285.5" font-family="Helvetica,sans-Serif" font-size="10.00">algorithm</text>
</g>
<!-- Node33&#45;&gt;Node34 -->
<g id="edge43" class="edge"><title>Node33&#45;&gt;Node34</title>
<path fill="none" stroke="midnightblue" d="M427.735,-340.679C411.301,-329.611 388.66,-314.363 372.234,-303.3"/>
<polygon fill="midnightblue" stroke="midnightblue" points="374.075,-300.321 363.826,-297.638 370.165,-306.127 374.075,-300.321"/>
</g>
<!-- Node35 -->
<g id="node35" class="node"><title>Node35</title>
<polygon fill="none" stroke="#bfbfbf" points="397.5,-278.5 397.5,-297.5 438.5,-297.5 438.5,-278.5 397.5,-278.5"/>
<text text-anchor="middle" x="418" y="-285.5" font-family="Helvetica,sans-Serif" font-size="10.00">cfloat</text>
</g>
<!-- Node33&#45;&gt;Node35 -->
<g id="edge45" class="edge"><title>Node33&#45;&gt;Node35</title>
<path fill="none" stroke="midnightblue" d="M442.273,-340.679C437.631,-330.796 431.424,-317.579 426.448,-306.986"/>
<polygon fill="midnightblue" stroke="midnightblue" points="429.566,-305.392 422.147,-297.828 423.23,-308.368 429.566,-305.392"/>
</g>
<!-- Node36 -->
<g id="node36" class="node"><title>Node36</title>
<polygon fill="none" stroke="#bfbfbf" points="457,-278.5 457,-297.5 503,-297.5 503,-278.5 457,-278.5"/>
<text text-anchor="middle" x="480" y="-285.5" font-family="Helvetica,sans-Serif" font-size="10.00">cstring</text>
</g>
<!-- Node33&#45;&gt;Node36 -->
<g id="edge47" class="edge"><title>Node33&#45;&gt;Node36</title>
<path fill="none" stroke="midnightblue" d="M455.727,-340.679C460.369,-330.796 466.576,-317.579 471.552,-306.986"/>
<polygon fill="midnightblue" stroke="midnightblue" points="474.77,-308.368 475.853,-297.828 468.434,-305.392 474.77,-308.368"/>
</g>
<!-- Node37 -->
<g id="node37" class="node"><title>Node37</title>
<polygon fill="none" stroke="#bfbfbf" points="521.5,-278.5 521.5,-297.5 604.5,-297.5 604.5,-278.5 521.5,-278.5"/>
<text text-anchor="middle" x="563" y="-285.5" font-family="Helvetica,sans-Serif" font-size="10.00">Math/SMatrix.h</text>
</g>
<!-- Node33&#45;&gt;Node37 -->
<g id="edge49" class="edge"><title>Node33&#45;&gt;Node37</title>
<path fill="none" stroke="midnightblue" d="M473.456,-340.841C492.909,-329.579 519.968,-313.913 539.238,-302.757"/>
<polygon fill="midnightblue" stroke="midnightblue" points="541.103,-305.721 548.004,-297.682 537.596,-299.663 541.103,-305.721"/>
</g>
<!-- Node38 -->
<g id="node38" class="node"><title>Node38</title>
<polygon fill="none" stroke="#bfbfbf" points="622.5,-278.5 622.5,-297.5 707.5,-297.5 707.5,-278.5 622.5,-278.5"/>
<text text-anchor="middle" x="665" y="-285.5" font-family="Helvetica,sans-Serif" font-size="10.00">Math/SVector.h</text>
</g>
<!-- Node33&#45;&gt;Node38 -->
<g id="edge50" class="edge"><title>Node33&#45;&gt;Node38</title>
<path fill="none" stroke="midnightblue" d="M495.072,-340.922C534.484,-328.88 590.514,-311.76 627.301,-300.519"/>
<polygon fill="midnightblue" stroke="midnightblue" points="628.596,-303.783 637.137,-297.514 626.55,-297.089 628.596,-303.783"/>
</g>
</g>
</svg>
        <g id="navigator" transform="translate(0 0)" fill="#404254">
                <rect fill="#f2f5e9" fill-opacity="0.5" stroke="#606060" stroke-width=".5" x="0" y="0" width="60" height="60"/>
                <use id="zoomplus" xlink:href="#zoomPlus" x="17" y="9" onmousedown="handleZoom(evt,'in')"/>
                <use id="zoomminus" xlink:href="#zoomMin" x="42" y="9" onmousedown="handleZoom(evt,'out')"/>
                <use id="reset" xlink:href="#resetDef" x="30" y="36" onmousedown="handleReset()"/>
                <g id="arrowUp" xlink:href="#dirArrow" transform="translate(30 24)" onmousedown="handlePan(0,-1)">
                  <use xlink:href="#rim" fill="#404040">
                        <set attributeName="fill" to="#808080" begin="arrowUp.mouseover" end="arrowUp.mouseout"/>
                  </use>
                  <path fill="none" stroke="white" stroke-width="1.5" d="M0,-3.0v7 M-2.5,-0.5L0,-3.0L2.5,-0.5"/>
                </g>
                <g id="arrowRight" xlink:href="#dirArrow" transform="rotate(90) translate(36 -43)" onmousedown="handlePan(1,0)">
                  <use xlink:href="#rim" fill="#404040">
                        <set attributeName="fill" to="#808080" begin="arrowRight.mouseover" end="arrowRight.mouseout"/>
                  </use>
                  <path fill="none" stroke="white" stroke-width="1.5" d="M0,-3.0v7 M-2.5,-0.5L0,-3.0L2.5,-0.5"/>
                </g>
                <g id="arrowDown" xlink:href="#dirArrow" transform="rotate(180) translate(-30 -48)" onmousedown="handlePan(0,1)">
                  <use xlink:href="#rim" fill="#404040">
                        <set attributeName="fill" to="#808080" begin="arrowDown.mouseover" end="arrowDown.mouseout"/>
                  </use>
                  <path fill="none" stroke="white" stroke-width="1.5" d="M0,-3.0v7 M-2.5,-0.5L0,-3.0L2.5,-0.5"/>
                </g>
                <g id="arrowLeft" xlink:href="#dirArrow" transform="rotate(270) translate(-36 17)" onmousedown="handlePan(-1,0)">
                  <use xlink:href="#rim" fill="#404040">
                        <set attributeName="fill" to="#808080" begin="arrowLeft.mouseover" end="arrowLeft.mouseout"/>
                  </use>
                  <path fill="none" stroke="white" stroke-width="1.5" d="M0,-3.0v7 M-2.5,-0.5L0,-3.0L2.5,-0.5"/>
                </g>
        </g>
        <svg viewBox="0 0 15 15" width="100%" height="30px" preserveAspectRatio="xMaxYMin meet">
         <g id="arrow_out" transform="scale(0.3 0.3)">
          <a xlink:href="TrackITS_8cxx__incl_org.svg" target="_base">
           <rect id="button" ry="5" rx="5" y="6" x="6" height="38" width="38"
                fill="#f2f5e9" fill-opacity="0.5" stroke="#606060" stroke-width="1.0"/>
           <path id="arrow"
             d="M 11.500037,31.436501 C 11.940474,20.09759 22.043105,11.32322 32.158766,21.979434 L 37.068811,17.246167 C 37.068811,17.246167 37.088388,32 37.088388,32 L 22.160133,31.978069 C 22.160133,31.978069 26.997745,27.140456 26.997745,27.140456 C 18.528582,18.264221 13.291696,25.230495 11.500037,31.436501 z"
             style="fill:#404040;"/>
          </a>
         </g>
        </svg>
</svg>
