<?xml version="1.0" encoding="UTF-8" standalone="no"?>
<!DOCTYPE svg PUBLIC "-//W3C//DTD SVG 1.1//EN"
 "http://www.w3.org/Graphics/SVG/1.1/DTD/svg11.dtd">
<!-- Generated by graphviz version 2.36.0 (20140111.2315)
 -->
<!-- Title: /home/travis/build/AliceO2Group/AliceO2/Detectors/ITSMFT/ITS/reconstruction/include/ITSReconstruction/CA/Road.h Pages: 1 -->
<svg width="249pt" height="264pt"
 viewBox="0.00 0.00 249.00 264.00" xmlns="http://www.w3.org/2000/svg" xmlns:xlink="http://www.w3.org/1999/xlink">
<g id="graph0" class="graph" transform="scale(1 1) rotate(0) translate(4 260)">
<title>/home/travis/build/AliceO2Group/AliceO2/Detectors/ITSMFT/ITS/reconstruction/include/ITSReconstruction/CA/Road.h</title>
<!-- Node1 -->
<g id="node1" class="node"><title>Node1</title>
<polygon fill="#bfbfbf" stroke="black" points="-0.5,-192.5 -0.5,-255.5 152.5,-255.5 152.5,-192.5 -0.5,-192.5"/>
<text text-anchor="start" x="7.5" y="-243.5" font-family="Helvetica,sans-Serif" font-size="10.00">/home/travis/build</text>
<text text-anchor="start" x="7.5" y="-232.5" font-family="Helvetica,sans-Serif" font-size="10.00">/AliceO2Group/AliceO2</text>
<text text-anchor="start" x="7.5" y="-221.5" font-family="Helvetica,sans-Serif" font-size="10.00">/Detectors/ITSMFT/ITS</text>
<text text-anchor="start" x="7.5" y="-210.5" font-family="Helvetica,sans-Serif" font-size="10.00">/reconstruction/include</text>
<text text-anchor="middle" x="76" y="-199.5" font-family="Helvetica,sans-Serif" font-size="10.00">/ITSReconstruction/CA/Road.h</text>
</g>
<!-- Node2 -->
<g id="node2" class="node"><title>Node2</title>
<polygon fill="none" stroke="#bfbfbf" points="89,-0.5 89,-19.5 127,-19.5 127,-0.5 89,-0.5"/>
<text text-anchor="middle" x="108" y="-7.5" font-family="Helvetica,sans-Serif" font-size="10.00">array</text>
</g>
<!-- Node1&#45;&gt;Node2 -->
<g id="edge1" class="edge"><title>Node1&#45;&gt;Node2</title>
<path fill="none" stroke="midnightblue" d="M61.6487,-192.476C47.5131,-157.738 30.8581,-100.111 52,-56 58.2527,-42.9542 70.3358,-32.4921 81.6821,-24.9506"/>
<polygon fill="midnightblue" stroke="midnightblue" points="83.8094,-27.7515 90.4983,-19.5351 80.1455,-21.7869 83.8094,-27.7515"/>
</g>
<!-- Node3 -->
<g id="node3" class="node"><title>Node3</title>
<g id="a_node3"><a xlink:href="../../d5/d20/Detectors_2ITSMFT_2ITS_2reconstruction_2include_2ITSReconstruction_2CA_2Constants_8h.html" target="_top" xlink:title="ITSReconstruction/CA\l/Constants.h">
<polygon fill="none" stroke="black" points="61,-125 61,-155 177,-155 177,-125 61,-125"/>
<text text-anchor="start" x="69" y="-143" font-family="Helvetica,sans-Serif" font-size="10.00">ITSReconstruction/CA</text>
<text text-anchor="middle" x="119" y="-132" font-family="Helvetica,sans-Serif" font-size="10.00">/Constants.h</text>
</a>
</g>
</g>
<!-- Node1&#45;&gt;Node3 -->
<g id="edge2" class="edge"><title>Node1&#45;&gt;Node3</title>
<path fill="none" stroke="midnightblue" d="M92.0116,-192.466C96.9215,-183.103 102.241,-172.96 106.848,-164.173"/>
<polygon fill="midnightblue" stroke="midnightblue" points="109.972,-165.753 111.516,-155.272 103.772,-162.502 109.972,-165.753"/>
</g>
<!-- Node4 -->
<g id="node4" class="node"><title>Node4</title>
<polygon fill="none" stroke="#bfbfbf" points="61.5,-62.5 61.5,-81.5 106.5,-81.5 106.5,-62.5 61.5,-62.5"/>
<text text-anchor="middle" x="84" y="-69.5" font-family="Helvetica,sans-Serif" font-size="10.00">climits</text>
</g>
<!-- Node3&#45;&gt;Node4 -->
<g id="edge3" class="edge"><title>Node3&#45;&gt;Node4</title>
<path fill="none" stroke="midnightblue" d="M111.406,-124.679C106.164,-114.796 99.1558,-101.579 93.5382,-90.9864"/>
<polygon fill="midnightblue" stroke="midnightblue" points="96.4589,-89.0232 88.6817,-81.8283 90.2746,-92.3027 96.4589,-89.0232"/>
</g>
<!-- Node5 -->
<g id="node5" class="node"><title>Node5</title>
<g id="a_node5"><a xlink:href="../../df/d3d/Definitions_8h.html" target="_top" xlink:title="ITSReconstruction/CA\l/Definitions.h">
<polygon fill="none" stroke="black" points="125,-57 125,-87 241,-87 241,-57 125,-57"/>
<text text-anchor="start" x="133" y="-75" font-family="Helvetica,sans-Serif" font-size="10.00">ITSReconstruction/CA</text>
<text text-anchor="middle" x="183" y="-64" font-family="Helvetica,sans-Serif" font-size="10.00">/Definitions.h</text>
</a>
</g>
</g>
<!-- Node3&#45;&gt;Node5 -->
<g id="edge4" class="edge"><title>Node3&#45;&gt;Node5</title>
<path fill="none" stroke="midnightblue" d="M132.887,-124.679C141.441,-115.857 152.571,-104.38 162.168,-94.4831"/>
<polygon fill="midnightblue" stroke="midnightblue" points="164.691,-96.9086 169.14,-87.2931 159.666,-92.0356 164.691,-96.9086"/>
</g>
<!-- Node5&#45;&gt;Node2 -->
<g id="edge5" class="edge"><title>Node5&#45;&gt;Node2</title>
<path fill="none" stroke="midnightblue" d="M165.226,-56.7808C153.654,-47.5228 138.577,-35.4618 126.804,-26.0435"/>
<polygon fill="midnightblue" stroke="midnightblue" points="128.908,-23.2445 118.913,-19.7305 124.535,-28.7106 128.908,-23.2445"/>
</g>
</g>
</svg>
