<?xml version="1.0" encoding="UTF-8" standalone="no"?>
<!DOCTYPE svg PUBLIC "-//W3C//DTD SVG 1.1//EN"
 "http://www.w3.org/Graphics/SVG/1.1/DTD/svg11.dtd">
<!-- Generated by graphviz version 2.36.0 (20140111.2315)
 -->
<!-- Title: /home/travis/build/AliceO2Group/AliceO2/Detectors/ITSMFT/common/reconstruction/include/ITSMFTReconstruction/PixelReader.h Pages: 1 -->
<svg width="331pt" height="252pt"
 viewBox="0.00 0.00 330.79 252.00" xmlns="http://www.w3.org/2000/svg" xmlns:xlink="http://www.w3.org/1999/xlink">
<g id="graph0" class="graph" transform="scale(1 1) rotate(0) translate(4 248)">
<title>/home/travis/build/AliceO2Group/AliceO2/Detectors/ITSMFT/common/reconstruction/include/ITSMFTReconstruction/PixelReader.h</title>
<!-- Node1 -->
<g id="node1" class="node"><title>Node1</title>
<polygon fill="#bfbfbf" stroke="black" points="12.7862,-180.5 12.7862,-243.5 198.786,-243.5 198.786,-180.5 12.7862,-180.5"/>
<text text-anchor="start" x="20.7862" y="-231.5" font-family="Helvetica,sans-Serif" font-size="10.00">/home/travis/build</text>
<text text-anchor="start" x="20.7862" y="-220.5" font-family="Helvetica,sans-Serif" font-size="10.00">/AliceO2Group/AliceO2</text>
<text text-anchor="start" x="20.7862" y="-209.5" font-family="Helvetica,sans-Serif" font-size="10.00">/Detectors/ITSMFT/common</text>
<text text-anchor="start" x="20.7862" y="-198.5" font-family="Helvetica,sans-Serif" font-size="10.00">/reconstruction/include</text>
<text text-anchor="middle" x="105.786" y="-187.5" font-family="Helvetica,sans-Serif" font-size="10.00">/ITSMFTReconstruction/PixelReader.h</text>
</g>
<!-- Node2 -->
<g id="node2" class="node"><title>Node2</title>
<polygon fill="none" stroke="#bfbfbf" points="20.7862,-0.5 20.7862,-19.5 76.7862,-19.5 76.7862,-0.5 20.7862,-0.5"/>
<text text-anchor="middle" x="48.7862" y="-7.5" font-family="Helvetica,sans-Serif" font-size="10.00">Rtypes.h</text>
</g>
<!-- Node1&#45;&gt;Node2 -->
<g id="edge1" class="edge"><title>Node1&#45;&gt;Node2</title>
<path fill="none" stroke="midnightblue" d="M68.581,-180.462C44.4135,-157.891 15.3348,-124.791 3.78617,-88 -0.473301,-74.4306 -1.65644,-69.1396 3.78617,-56 8.70662,-44.121 18.4528,-33.7428 27.6205,-25.9557"/>
<polygon fill="midnightblue" stroke="midnightblue" points="30.0391,-28.5058 35.7221,-19.5641 25.7034,-23.0101 30.0391,-28.5058"/>
</g>
<!-- Node3 -->
<g id="node3" class="node"><title>Node3</title>
<g id="a_node3"><a xlink:href="../../d0/d06/ITSMFT_2common_2base_2include_2ITSMFTBase_2Digit_8h.html" target="_top" xlink:title="ITSMFTBase/Digit.h">
<polygon fill="none" stroke="black" points="52.2862,-124.5 52.2862,-143.5 159.286,-143.5 159.286,-124.5 52.2862,-124.5"/>
<text text-anchor="middle" x="105.786" y="-131.5" font-family="Helvetica,sans-Serif" font-size="10.00">ITSMFTBase/Digit.h</text>
</a>
</g>
</g>
<!-- Node1&#45;&gt;Node3 -->
<g id="edge2" class="edge"><title>Node1&#45;&gt;Node3</title>
<path fill="none" stroke="midnightblue" d="M105.786,-180.088C105.786,-171.15 105.786,-161.669 105.786,-153.719"/>
<polygon fill="midnightblue" stroke="midnightblue" points="109.286,-153.718 105.786,-143.718 102.286,-153.718 109.286,-153.718"/>
</g>
<!-- Node4 -->
<g id="node4" class="node"><title>Node4</title>
<g id="a_node4"><a xlink:href="../../d7/dcd/MCCompLabel_8h.html" target="_top" xlink:title="SimulationDataFormat\l/MCCompLabel.h">
<polygon fill="none" stroke="black" points="208.786,-57 208.786,-87 322.786,-87 322.786,-57 208.786,-57"/>
<text text-anchor="start" x="216.786" y="-75" font-family="Helvetica,sans-Serif" font-size="10.00">SimulationDataFormat</text>
<text text-anchor="middle" x="265.786" y="-64" font-family="Helvetica,sans-Serif" font-size="10.00">/MCCompLabel.h</text>
</a>
</g>
</g>
<!-- Node1&#45;&gt;Node4 -->
<g id="edge8" class="edge"><title>Node1&#45;&gt;Node4</title>
<path fill="none" stroke="midnightblue" d="M141.295,-180.373C171.832,-154.035 215.05,-116.76 241.703,-93.7716"/>
<polygon fill="midnightblue" stroke="midnightblue" points="244.124,-96.3056 249.411,-87.1239 239.552,-91.0048 244.124,-96.3056"/>
</g>
<!-- Node3&#45;&gt;Node2 -->
<g id="edge3" class="edge"><title>Node3&#45;&gt;Node2</title>
<path fill="none" stroke="midnightblue" d="M65.6387,-124.429C45.8114,-117.953 23.6481,-106.83 11.7862,-88 -0.735041,-68.1238 16.4017,-43.3668 31.29,-27.3775"/>
<polygon fill="midnightblue" stroke="midnightblue" points="34.1556,-29.4575 38.7017,-19.8875 29.18,-24.5338 34.1556,-29.4575"/>
</g>
<!-- Node3&#45;&gt;Node4 -->
<g id="edge4" class="edge"><title>Node3&#45;&gt;Node4</title>
<path fill="none" stroke="midnightblue" d="M128.71,-124.403C152.078,-115.641 189.002,-101.794 218.643,-90.6789"/>
<polygon fill="midnightblue" stroke="midnightblue" points="220.251,-93.8138 228.385,-87.0253 217.793,-87.2595 220.251,-93.8138"/>
</g>
<!-- Node5 -->
<g id="node5" class="node"><title>Node5</title>
<g id="a_node5"><a xlink:href="../../df/d5d/common_2include_2CommonDataFormat_2TimeStamp_8h.html" target="_top" xlink:title="CommonDataFormat/TimeStamp.h">
<polygon fill="none" stroke="black" points="20.7862,-62.5 20.7862,-81.5 190.786,-81.5 190.786,-62.5 20.7862,-62.5"/>
<text text-anchor="middle" x="105.786" y="-69.5" font-family="Helvetica,sans-Serif" font-size="10.00">CommonDataFormat/TimeStamp.h</text>
</a>
</g>
</g>
<!-- Node3&#45;&gt;Node5 -->
<g id="edge6" class="edge"><title>Node3&#45;&gt;Node5</title>
<path fill="none" stroke="midnightblue" d="M105.786,-124.403C105.786,-115.938 105.786,-102.728 105.786,-91.8199"/>
<polygon fill="midnightblue" stroke="midnightblue" points="109.286,-91.5806 105.786,-81.5806 102.286,-91.5806 109.286,-91.5806"/>
</g>
<!-- Node4&#45;&gt;Node2 -->
<g id="edge5" class="edge"><title>Node4&#45;&gt;Node2</title>
<path fill="none" stroke="midnightblue" d="M214.909,-56.9327C175.688,-46.088 122.314,-31.3303 86.7632,-21.5006"/>
<polygon fill="midnightblue" stroke="midnightblue" points="87.3582,-18.0338 76.787,-18.7422 85.4926,-24.7807 87.3582,-18.0338"/>
</g>
<!-- Node5&#45;&gt;Node2 -->
<g id="edge7" class="edge"><title>Node5&#45;&gt;Node2</title>
<path fill="none" stroke="midnightblue" d="M97.6195,-62.4035C88.9001,-53.2252 74.8826,-38.4699 64.0976,-27.1173"/>
<polygon fill="midnightblue" stroke="midnightblue" points="66.3628,-24.42 56.9377,-19.5806 61.2878,-29.2412 66.3628,-24.42"/>
</g>
</g>
</svg>
