<?xml version="1.0" encoding="UTF-8" standalone="no"?>
<!DOCTYPE svg PUBLIC "-//W3C//DTD SVG 1.1//EN"
 "http://www.w3.org/Graphics/SVG/1.1/DTD/svg11.dtd">
<!-- Generated by graphviz version 2.36.0 (20140111.2315)
 -->
<!-- Title: /home/travis/build/AliceO2Group/AliceO2/Detectors/ITSMFT/ITS/reconstruction/src/CA/IndexTableUtils.cxx Pages: 1 -->
<svg width="301pt" height="332pt"
 viewBox="0.00 0.00 300.87 332.00" xmlns="http://www.w3.org/2000/svg" xmlns:xlink="http://www.w3.org/1999/xlink">
<g id="graph0" class="graph" transform="scale(1 1) rotate(0) translate(4 328)">
<title>/home/travis/build/AliceO2Group/AliceO2/Detectors/ITSMFT/ITS/reconstruction/src/CA/IndexTableUtils.cxx</title>
<!-- Node1 -->
<g id="node1" class="node"><title>Node1</title>
<polygon fill="#bfbfbf" stroke="black" points="33.8657,-260.5 33.8657,-323.5 153.866,-323.5 153.866,-260.5 33.8657,-260.5"/>
<text text-anchor="start" x="41.8657" y="-311.5" font-family="Helvetica,sans-Serif" font-size="10.00">/home/travis/build</text>
<text text-anchor="start" x="41.8657" y="-300.5" font-family="Helvetica,sans-Serif" font-size="10.00">/AliceO2Group/AliceO2</text>
<text text-anchor="start" x="41.8657" y="-289.5" font-family="Helvetica,sans-Serif" font-size="10.00">/Detectors/ITSMFT/ITS</text>
<text text-anchor="start" x="41.8657" y="-278.5" font-family="Helvetica,sans-Serif" font-size="10.00">/reconstruction/src/CA</text>
<text text-anchor="middle" x="93.8657" y="-267.5" font-family="Helvetica,sans-Serif" font-size="10.00">/IndexTableUtils.cxx</text>
</g>
<!-- Node2 -->
<g id="node2" class="node"><title>Node2</title>
<g id="a_node2"><a xlink:href="../../d2/d0c/IndexTableUtils_8h.html" target="_top" xlink:title="ITSReconstruction/CA\l/IndexTableUtils.h">
<polygon fill="none" stroke="black" points="35.8657,-193 35.8657,-223 151.866,-223 151.866,-193 35.8657,-193"/>
<text text-anchor="start" x="43.8657" y="-211" font-family="Helvetica,sans-Serif" font-size="10.00">ITSReconstruction/CA</text>
<text text-anchor="middle" x="93.8657" y="-200" font-family="Helvetica,sans-Serif" font-size="10.00">/IndexTableUtils.h</text>
</a>
</g>
</g>
<!-- Node1&#45;&gt;Node2 -->
<g id="edge1" class="edge"><title>Node1&#45;&gt;Node2</title>
<path fill="none" stroke="midnightblue" d="M93.8657,-260.466C93.8657,-251.502 93.8657,-241.822 93.8657,-233.302"/>
<polygon fill="midnightblue" stroke="midnightblue" points="97.3658,-233.272 93.8657,-223.272 90.3658,-233.272 97.3658,-233.272"/>
</g>
<!-- Node3 -->
<g id="node3" class="node"><title>Node3</title>
<polygon fill="none" stroke="#bfbfbf" points="90.8657,-0.5 90.8657,-19.5 128.866,-19.5 128.866,-0.5 90.8657,-0.5"/>
<text text-anchor="middle" x="109.866" y="-7.5" font-family="Helvetica,sans-Serif" font-size="10.00">array</text>
</g>
<!-- Node2&#45;&gt;Node3 -->
<g id="edge2" class="edge"><title>Node2&#45;&gt;Node3</title>
<path fill="none" stroke="midnightblue" d="M50.0919,-192.911C32.8258,-184.963 14.7772,-173.103 4.86572,-156 -2.26536,-143.695 -0.335003,-137.237 4.86572,-124 21.6849,-81.1908 63.1971,-44.961 88.699,-25.751"/>
<polygon fill="midnightblue" stroke="midnightblue" points="90.9848,-28.4153 96.9849,-19.6831 86.849,-22.7677 90.9848,-28.4153"/>
</g>
<!-- Node4 -->
<g id="node4" class="node"><title>Node4</title>
<polygon fill="none" stroke="#bfbfbf" points="13.8657,-130.5 13.8657,-149.5 53.8657,-149.5 53.8657,-130.5 13.8657,-130.5"/>
<text text-anchor="middle" x="33.8657" y="-137.5" font-family="Helvetica,sans-Serif" font-size="10.00">utility</text>
</g>
<!-- Node2&#45;&gt;Node4 -->
<g id="edge3" class="edge"><title>Node2&#45;&gt;Node4</title>
<path fill="none" stroke="midnightblue" d="M80.8466,-192.679C71.3987,-182.286 58.6004,-168.208 48.7475,-157.37"/>
<polygon fill="midnightblue" stroke="midnightblue" points="51.208,-154.873 41.8914,-149.828 46.0284,-159.582 51.208,-154.873"/>
</g>
<!-- Node5 -->
<g id="node5" class="node"><title>Node5</title>
<polygon fill="none" stroke="#bfbfbf" points="71.8657,-130.5 71.8657,-149.5 115.866,-149.5 115.866,-130.5 71.8657,-130.5"/>
<text text-anchor="middle" x="93.8657" y="-137.5" font-family="Helvetica,sans-Serif" font-size="10.00">vector</text>
</g>
<!-- Node2&#45;&gt;Node5 -->
<g id="edge4" class="edge"><title>Node2&#45;&gt;Node5</title>
<path fill="none" stroke="midnightblue" d="M93.8657,-192.679C93.8657,-183.101 93.8657,-170.394 93.8657,-159.977"/>
<polygon fill="midnightblue" stroke="midnightblue" points="97.3658,-159.828 93.8657,-149.828 90.3658,-159.828 97.3658,-159.828"/>
</g>
<!-- Node6 -->
<g id="node6" class="node"><title>Node6</title>
<g id="a_node6"><a xlink:href="../../d5/d20/Detectors_2ITSMFT_2ITS_2reconstruction_2include_2ITSReconstruction_2CA_2Constants_8h.html" target="_top" xlink:title="ITSReconstruction/CA\l/Constants.h">
<polygon fill="none" stroke="black" points="133.866,-125 133.866,-155 249.866,-155 249.866,-125 133.866,-125"/>
<text text-anchor="start" x="141.866" y="-143" font-family="Helvetica,sans-Serif" font-size="10.00">ITSReconstruction/CA</text>
<text text-anchor="middle" x="191.866" y="-132" font-family="Helvetica,sans-Serif" font-size="10.00">/Constants.h</text>
</a>
</g>
</g>
<!-- Node2&#45;&gt;Node6 -->
<g id="edge5" class="edge"><title>Node2&#45;&gt;Node6</title>
<path fill="none" stroke="midnightblue" d="M115.13,-192.679C128.965,-183.361 147.199,-171.082 162.421,-160.83"/>
<polygon fill="midnightblue" stroke="midnightblue" points="164.64,-163.555 170.979,-155.066 160.73,-157.749 164.64,-163.555"/>
</g>
<!-- Node8 -->
<g id="node8" class="node"><title>Node8</title>
<g id="a_node8"><a xlink:href="../../df/d3d/Definitions_8h.html" target="_top" xlink:title="ITSReconstruction/CA\l/Definitions.h">
<polygon fill="none" stroke="black" points="176.866,-57 176.866,-87 292.866,-87 292.866,-57 176.866,-57"/>
<text text-anchor="start" x="184.866" y="-75" font-family="Helvetica,sans-Serif" font-size="10.00">ITSReconstruction/CA</text>
<text text-anchor="middle" x="234.866" y="-64" font-family="Helvetica,sans-Serif" font-size="10.00">/Definitions.h</text>
</a>
</g>
</g>
<!-- Node2&#45;&gt;Node8 -->
<g id="edge9" class="edge"><title>Node2&#45;&gt;Node8</title>
<path fill="none" stroke="midnightblue" d="M151.935,-205.461C188.711,-201.098 233.735,-188.775 257.866,-156 270.851,-138.364 261.448,-113.738 251.025,-95.8948"/>
<polygon fill="midnightblue" stroke="midnightblue" points="253.88,-93.8589 245.595,-87.2549 247.953,-97.584 253.88,-93.8589"/>
</g>
<!-- Node7 -->
<g id="node7" class="node"><title>Node7</title>
<polygon fill="none" stroke="#bfbfbf" points="113.366,-62.5 113.366,-81.5 158.366,-81.5 158.366,-62.5 113.366,-62.5"/>
<text text-anchor="middle" x="135.866" y="-69.5" font-family="Helvetica,sans-Serif" font-size="10.00">climits</text>
</g>
<!-- Node6&#45;&gt;Node7 -->
<g id="edge6" class="edge"><title>Node6&#45;&gt;Node7</title>
<path fill="none" stroke="midnightblue" d="M179.715,-124.679C170.983,-114.388 159.185,-100.484 150.027,-89.6897"/>
<polygon fill="midnightblue" stroke="midnightblue" points="152.495,-87.189 143.356,-81.8283 147.157,-91.7178 152.495,-87.189"/>
</g>
<!-- Node6&#45;&gt;Node8 -->
<g id="edge7" class="edge"><title>Node6&#45;&gt;Node8</title>
<path fill="none" stroke="midnightblue" d="M201.196,-124.679C206.662,-116.29 213.692,-105.499 219.914,-95.9495"/>
<polygon fill="midnightblue" stroke="midnightblue" points="223.027,-97.5823 225.554,-87.2931 217.162,-93.7611 223.027,-97.5823"/>
</g>
<!-- Node8&#45;&gt;Node3 -->
<g id="edge8" class="edge"><title>Node8&#45;&gt;Node3</title>
<path fill="none" stroke="midnightblue" d="M205.559,-56.9327C184.846,-46.9907 157.283,-33.7601 137.059,-24.0526"/>
<polygon fill="midnightblue" stroke="midnightblue" points="138.312,-20.7721 127.782,-19.6 135.283,-27.0827 138.312,-20.7721"/>
</g>
</g>
</svg>
