<?xml version="1.0" encoding="UTF-8" standalone="no"?>
<!DOCTYPE svg PUBLIC "-//W3C//DTD SVG 1.1//EN"
 "http://www.w3.org/Graphics/SVG/1.1/DTD/svg11.dtd">
<!-- Generated by graphviz version 2.36.0 (20140111.2315)
 -->
<!-- Title: /home/travis/build/AliceO2Group/AliceO2/Detectors/PHOS/simulation/include/PHOSSimulation/Detector.h Pages: 1 -->
<!--zoomable 378 -->
<svg id="main" version="1.1" xmlns="http://www.w3.org/2000/svg" xmlns:xlink="http://www.w3.org/1999/xlink" xml:space="preserve" onload="init(evt)">
<style type="text/css"><![CDATA[
.edge:hover path { stroke: red; }
.edge:hover polygon { stroke: red; fill: red; }
]]></style>
<script type="text/javascript"><![CDATA[
var edges = document.getElementsByTagName('g');
if (edges && edges.length) {
  for (var i=0;i<edges.length;i++) {
    if (edges[i].id.substr(0,4)=='edge') {
      edges[i].setAttribute('class','edge');
    }
  }
}
]]></script>
        <defs>
                <circle id="rim" cx="0" cy="0" r="7"/>
                <circle id="rim2" cx="0" cy="0" r="3.5"/>
                <g id="zoomPlus">
                        <use xlink:href="#rim" fill="#404040">
                                <set attributeName="fill" to="#808080" begin="zoomplus.mouseover" end="zoomplus.mouseout"/>
                        </use>
                        <path d="M-4,0h8M0,-4v8" fill="none" stroke="white" stroke-width="1.5" pointer-events="none"/>
                </g>
                <g id="zoomMin">
                        <use xlink:href="#rim" fill="#404040">
                                <set attributeName="fill" to="#808080" begin="zoomminus.mouseover" end="zoomminus.mouseout"/>
                        </use>
                        <path d="M-4,0h8" fill="none" stroke="white" stroke-width="1.5" pointer-events="none"/>
                </g>
                <g id="dirArrow">
                        <path fill="none" stroke="white" stroke-width="1.5" d="M0,-3.0v7 M-2.5,-0.5L0,-3.0L2.5,-0.5"/>
                </g>
               <g id="resetDef">
                       <use xlink:href="#rim2" fill="#404040">
                               <set attributeName="fill" to="#808080" begin="reset.mouseover" end="reset.mouseout"/>
                       </use>
               </g>
        </defs>

<script type="text/javascript">
var viewWidth = 1566;
var viewHeight = 378;
var sectionId = 'dynsection-0';
</script>
<script xlink:href="../../svgpan.js"/>
<svg id="graph" class="graph">
<g id="viewport">
<title>/home/travis/build/AliceO2Group/AliceO2/Detectors/PHOS/simulation/include/PHOSSimulation/Detector.h</title>
<!-- Node1 -->
<g id="node1" class="node"><title>Node1</title>
<polygon fill="#bfbfbf" stroke="black" points="835.107,-317 835.107,-369 1011.11,-369 1011.11,-317 835.107,-317"/>
<text text-anchor="start" x="843.107" y="-357" font-family="Helvetica,sans-Serif" font-size="10.00">/home/travis/build</text>
<text text-anchor="start" x="843.107" y="-346" font-family="Helvetica,sans-Serif" font-size="10.00">/AliceO2Group/AliceO2</text>
<text text-anchor="start" x="843.107" y="-335" font-family="Helvetica,sans-Serif" font-size="10.00">/Detectors/PHOS/simulation</text>
<text text-anchor="middle" x="923.107" y="-324" font-family="Helvetica,sans-Serif" font-size="10.00">/include/PHOSSimulation/Detector.h</text>
</g>
<!-- Node2 -->
<g id="node2" class="node"><title>Node2</title>
<g id="a_node2"><a xlink:href="../../d1/d3a/Base_2include_2DetectorsBase_2Detector_8h.html" target="_top" xlink:title="DetectorsBase/Detector.h">
<polygon fill="none" stroke="black" points="345.607,-260.5 345.607,-279.5 476.607,-279.5 476.607,-260.5 345.607,-260.5"/>
<text text-anchor="middle" x="411.107" y="-267.5" font-family="Helvetica,sans-Serif" font-size="10.00">DetectorsBase/Detector.h</text>
</a>
</g>
</g>
<!-- Node1&#45;&gt;Node2 -->
<g id="edge1" class="edge"><title>Node1&#45;&gt;Node2</title>
<path fill="none" stroke="midnightblue" d="M835.091,-329.795C735.467,-315.98 575.077,-293.738 482.768,-280.937"/>
<polygon fill="midnightblue" stroke="midnightblue" points="483.066,-277.445 472.68,-279.538 482.104,-284.379 483.066,-277.445"/>
</g>
<!-- Node3 -->
<g id="node3" class="node"><title>Node3</title>
<polygon fill="none" stroke="#bfbfbf" points="805.607,-136.5 805.607,-155.5 840.607,-155.5 840.607,-136.5 805.607,-136.5"/>
<text text-anchor="middle" x="823.107" y="-143.5" font-family="Helvetica,sans-Serif" font-size="10.00">map</text>
</g>
<!-- Node1&#45;&gt;Node3 -->
<g id="edge32" class="edge"><title>Node1&#45;&gt;Node3</title>
<path fill="none" stroke="midnightblue" d="M926.203,-316.787C928.771,-284.901 928.6,-229.628 903.107,-192 890.663,-173.633 868.094,-161.935 850.093,-155.083"/>
<polygon fill="midnightblue" stroke="midnightblue" points="851.25,-151.78 840.656,-151.764 848.928,-158.384 851.25,-151.78"/>
</g>
<!-- Node4 -->
<g id="node4" class="node"><title>Node4</title>
<polygon fill="none" stroke="#bfbfbf" points="851.107,-198.5 851.107,-217.5 895.107,-217.5 895.107,-198.5 851.107,-198.5"/>
<text text-anchor="middle" x="873.107" y="-205.5" font-family="Helvetica,sans-Serif" font-size="10.00">vector</text>
</g>
<!-- Node1&#45;&gt;Node4 -->
<g id="edge33" class="edge"><title>Node1&#45;&gt;Node4</title>
<path fill="none" stroke="midnightblue" d="M913.702,-316.984C903.885,-290.87 888.726,-250.546 879.976,-227.273"/>
<polygon fill="midnightblue" stroke="midnightblue" points="883.143,-225.751 876.348,-217.622 876.591,-228.214 883.143,-225.751"/>
</g>
<!-- Node9 -->
<g id="node9" class="node"><title>Node9</title>
<polygon fill="none" stroke="#bfbfbf" points="295.107,-74.5 295.107,-93.5 351.107,-93.5 351.107,-74.5 295.107,-74.5"/>
<text text-anchor="middle" x="323.107" y="-81.5" font-family="Helvetica,sans-Serif" font-size="10.00">Rtypes.h</text>
</g>
<!-- Node1&#45;&gt;Node9 -->
<g id="edge31" class="edge"><title>Node1&#45;&gt;Node9</title>
<path fill="none" stroke="midnightblue" d="M834.8,-337.195C616.908,-324.422 67.467,-286.285 15.1068,-224 -63.0206,-131.063 186.472,-97.5472 284.927,-88.1169"/>
<polygon fill="midnightblue" stroke="midnightblue" points="285.429,-91.5855 295.065,-87.1802 284.785,-84.6152 285.429,-91.5855"/>
</g>
<!-- Node14 -->
<g id="node14" class="node"><title>Node14</title>
<g id="a_node14"><a xlink:href="../../dd/d76/Cartesian3D_8h.html" target="_top" xlink:title="MathUtils/Cartesian3D.h">
<polygon fill="none" stroke="black" points="945.607,-136.5 945.607,-155.5 1070.61,-155.5 1070.61,-136.5 945.607,-136.5"/>
<text text-anchor="middle" x="1008.11" y="-143.5" font-family="Helvetica,sans-Serif" font-size="10.00">MathUtils/Cartesian3D.h</text>
</a>
</g>
</g>
<!-- Node1&#45;&gt;Node14 -->
<g id="edge15" class="edge"><title>Node1&#45;&gt;Node14</title>
<path fill="none" stroke="midnightblue" d="M1007.04,-316.917C1025.99,-307.88 1044.5,-295.852 1058.11,-280 1084,-249.835 1092.68,-227.146 1074.11,-192 1066.68,-177.953 1052.69,-167.467 1039.49,-160.167"/>
<polygon fill="midnightblue" stroke="midnightblue" points="1041.06,-157.043 1030.57,-155.618 1037.88,-163.279 1041.06,-157.043"/>
</g>
<!-- Node25 -->
<g id="node25" class="node"><title>Node25</title>
<g id="a_node25"><a xlink:href="../../d1/def/PHOS_2base_2include_2PHOSBase_2Hit_8h.html" target="_top" xlink:title="PHOSBase/Hit.h">
<polygon fill="none" stroke="black" points="957.107,-260.5 957.107,-279.5 1049.11,-279.5 1049.11,-260.5 957.107,-260.5"/>
<text text-anchor="middle" x="1003.11" y="-267.5" font-family="Helvetica,sans-Serif" font-size="10.00">PHOSBase/Hit.h</text>
</a>
</g>
</g>
<!-- Node1&#45;&gt;Node25 -->
<g id="edge27" class="edge"><title>Node1&#45;&gt;Node25</title>
<path fill="none" stroke="midnightblue" d="M951.537,-316.768C962.905,-306.679 975.637,-295.379 985.606,-286.532"/>
<polygon fill="midnightblue" stroke="midnightblue" points="988.084,-289.013 993.24,-279.757 983.437,-283.777 988.084,-289.013"/>
</g>
<!-- Node27 -->
<g id="node27" class="node"><title>Node27</title>
<polygon fill="none" stroke="#bfbfbf" points="1121.11,-260.5 1121.11,-279.5 1201.11,-279.5 1201.11,-260.5 1121.11,-260.5"/>
<text text-anchor="middle" x="1161.11" y="-267.5" font-family="Helvetica,sans-Serif" font-size="10.00">RStringView.h</text>
</g>
<!-- Node1&#45;&gt;Node27 -->
<g id="edge30" class="edge"><title>Node1&#45;&gt;Node27</title>
<path fill="none" stroke="midnightblue" d="M1007.02,-316.968C1046.51,-305.188 1091.66,-291.718 1122.83,-282.419"/>
<polygon fill="midnightblue" stroke="midnightblue" points="1123.85,-285.767 1132.43,-279.554 1121.85,-279.059 1123.85,-285.767"/>
</g>
<!-- Node2&#45;&gt;Node3 -->
<g id="edge2" class="edge"><title>Node2&#45;&gt;Node3</title>
<path fill="none" stroke="midnightblue" d="M476.765,-265.483C581.969,-259.259 779,-244.952 803.107,-224 819.604,-209.662 823.348,-183.627 823.802,-165.835"/>
<polygon fill="midnightblue" stroke="midnightblue" points="827.301,-165.746 823.735,-155.77 820.301,-165.793 827.301,-165.746"/>
</g>
<!-- Node2&#45;&gt;Node4 -->
<g id="edge3" class="edge"><title>Node2&#45;&gt;Node4</title>
<path fill="none" stroke="midnightblue" d="M476.732,-267.927C561.291,-265.219 712.267,-255.879 837.107,-224 840.094,-223.237 843.157,-222.271 846.175,-221.199"/>
<polygon fill="midnightblue" stroke="midnightblue" points="847.487,-224.444 855.512,-217.526 844.925,-217.929 847.487,-224.444"/>
</g>
<!-- Node5 -->
<g id="node5" class="node"><title>Node5</title>
<polygon fill="none" stroke="#bfbfbf" points="343.107,-198.5 343.107,-217.5 395.107,-217.5 395.107,-198.5 343.107,-198.5"/>
<text text-anchor="middle" x="369.107" y="-205.5" font-family="Helvetica,sans-Serif" font-size="10.00">memory</text>
</g>
<!-- Node2&#45;&gt;Node5 -->
<g id="edge4" class="edge"><title>Node2&#45;&gt;Node5</title>
<path fill="none" stroke="midnightblue" d="M405.089,-260.403C398.789,-251.403 388.735,-237.041 380.854,-225.782"/>
<polygon fill="midnightblue" stroke="midnightblue" points="383.715,-223.766 375.113,-217.581 377.981,-227.78 383.715,-223.766"/>
</g>
<!-- Node6 -->
<g id="node6" class="node"><title>Node6</title>
<polygon fill="none" stroke="#bfbfbf" points="413.607,-198.5 413.607,-217.5 492.607,-217.5 492.607,-198.5 413.607,-198.5"/>
<text text-anchor="middle" x="453.107" y="-205.5" font-family="Helvetica,sans-Serif" font-size="10.00">FairDetector.h</text>
</g>
<!-- Node2&#45;&gt;Node6 -->
<g id="edge5" class="edge"><title>Node2&#45;&gt;Node6</title>
<path fill="none" stroke="midnightblue" d="M417.124,-260.403C423.424,-251.403 433.478,-237.041 441.359,-225.782"/>
<polygon fill="midnightblue" stroke="midnightblue" points="444.233,-227.78 447.1,-217.581 438.498,-223.766 444.233,-227.78"/>
</g>
<!-- Node7 -->
<g id="node7" class="node"><title>Node7</title>
<polygon fill="none" stroke="#bfbfbf" points="511.107,-198.5 511.107,-217.5 611.107,-217.5 611.107,-198.5 511.107,-198.5"/>
<text text-anchor="middle" x="561.107" y="-205.5" font-family="Helvetica,sans-Serif" font-size="10.00">FairRootManager.h</text>
</g>
<!-- Node2&#45;&gt;Node7 -->
<g id="edge6" class="edge"><title>Node2&#45;&gt;Node7</title>
<path fill="none" stroke="midnightblue" d="M432.598,-260.403C458.217,-250.156 501.217,-232.956 530.352,-221.302"/>
<polygon fill="midnightblue" stroke="midnightblue" points="531.67,-224.544 539.655,-217.581 529.071,-218.045 531.67,-224.544"/>
</g>
<!-- Node8 -->
<g id="node8" class="node"><title>Node8</title>
<g id="a_node8"><a xlink:href="../../d0/d9a/MaterialManager_8h.html" target="_top" xlink:title="DetectorsBase/MaterialManager.h">
<polygon fill="none" stroke="black" points="629.607,-198.5 629.607,-217.5 794.607,-217.5 794.607,-198.5 629.607,-198.5"/>
<text text-anchor="middle" x="712.107" y="-205.5" font-family="Helvetica,sans-Serif" font-size="10.00">DetectorsBase/MaterialManager.h</text>
</a>
</g>
</g>
<!-- Node2&#45;&gt;Node8 -->
<g id="edge7" class="edge"><title>Node2&#45;&gt;Node8</title>
<path fill="none" stroke="midnightblue" d="M453.913,-260.467C507.962,-249.693 600.926,-231.162 659.32,-219.522"/>
<polygon fill="midnightblue" stroke="midnightblue" points="660.325,-222.891 669.448,-217.503 658.957,-216.026 660.325,-222.891"/>
</g>
<!-- Node2&#45;&gt;Node9 -->
<g id="edge10" class="edge"><title>Node2&#45;&gt;Node9</title>
<path fill="none" stroke="midnightblue" d="M383.59,-260.364C366.332,-253.422 345.3,-241.836 334.107,-224 310.696,-186.696 315.005,-132.211 319.457,-103.805"/>
<polygon fill="midnightblue" stroke="midnightblue" points="322.956,-104.117 321.234,-93.663 316.061,-102.909 322.956,-104.117"/>
</g>
<!-- Node10 -->
<g id="node10" class="node"><title>Node10</title>
<polygon fill="none" stroke="#bfbfbf" points="24.6068,-198.5 24.6068,-217.5 77.6068,-217.5 77.6068,-198.5 24.6068,-198.5"/>
<text text-anchor="middle" x="51.1068" y="-205.5" font-family="Helvetica,sans-Serif" font-size="10.00">cxxabi.h</text>
</g>
<!-- Node2&#45;&gt;Node10 -->
<g id="edge11" class="edge"><title>Node2&#45;&gt;Node10</title>
<path fill="none" stroke="midnightblue" d="M345.318,-265.063C278.915,-259.892 173.914,-248.418 86.1068,-224 83.4517,-223.262 80.7331,-222.366 78.0423,-221.384"/>
<polygon fill="midnightblue" stroke="midnightblue" points="79.1641,-218.063 68.5805,-217.574 76.5497,-224.556 79.1641,-218.063"/>
</g>
<!-- Node11 -->
<g id="node11" class="node"><title>Node11</title>
<polygon fill="none" stroke="#bfbfbf" points="95.6068,-198.5 95.6068,-217.5 146.607,-217.5 146.607,-198.5 95.6068,-198.5"/>
<text text-anchor="middle" x="121.107" y="-205.5" font-family="Helvetica,sans-Serif" font-size="10.00">typeinfo</text>
</g>
<!-- Node2&#45;&gt;Node11 -->
<g id="edge12" class="edge"><title>Node2&#45;&gt;Node11</title>
<path fill="none" stroke="midnightblue" d="M345.43,-261.638C293.354,-254.795 219.112,-242.787 156.107,-224 153.612,-223.256 151.057,-222.386 148.519,-221.447"/>
<polygon fill="midnightblue" stroke="midnightblue" points="149.562,-218.093 138.979,-217.597 146.942,-224.585 149.562,-218.093"/>
</g>
<!-- Node12 -->
<g id="node12" class="node"><title>Node12</title>
<polygon fill="none" stroke="#bfbfbf" points="165.107,-198.5 165.107,-217.5 227.107,-217.5 227.107,-198.5 165.107,-198.5"/>
<text text-anchor="middle" x="196.107" y="-205.5" font-family="Helvetica,sans-Serif" font-size="10.00">type_traits</text>
</g>
<!-- Node2&#45;&gt;Node12 -->
<g id="edge13" class="edge"><title>Node2&#45;&gt;Node12</title>
<path fill="none" stroke="midnightblue" d="M373.226,-260.497C337.556,-252.2 282.783,-238.706 236.107,-224 233.16,-223.072 230.113,-222.048 227.077,-220.985"/>
<polygon fill="midnightblue" stroke="midnightblue" points="228.143,-217.649 217.549,-217.523 225.753,-224.228 228.143,-217.649"/>
</g>
<!-- Node13 -->
<g id="node13" class="node"><title>Node13</title>
<polygon fill="none" stroke="#bfbfbf" points="245.607,-198.5 245.607,-217.5 286.607,-217.5 286.607,-198.5 245.607,-198.5"/>
<text text-anchor="middle" x="266.107" y="-205.5" font-family="Helvetica,sans-Serif" font-size="10.00">string</text>
</g>
<!-- Node2&#45;&gt;Node13 -->
<g id="edge14" class="edge"><title>Node2&#45;&gt;Node13</title>
<path fill="none" stroke="midnightblue" d="M389.976,-260.477C367.798,-251.503 331.938,-236.912 301.107,-224 299.278,-223.234 297.396,-222.441 295.5,-221.639"/>
<polygon fill="midnightblue" stroke="midnightblue" points="296.644,-218.322 286.072,-217.624 293.901,-224.762 296.644,-218.322"/>
</g>
<!-- Node8&#45;&gt;Node3 -->
<g id="edge9" class="edge"><title>Node8&#45;&gt;Node3</title>
<path fill="none" stroke="midnightblue" d="M728.01,-198.403C746.391,-188.468 776.863,-171.997 798.352,-160.381"/>
<polygon fill="midnightblue" stroke="midnightblue" points="800.1,-163.415 807.233,-155.581 796.771,-157.257 800.1,-163.415"/>
</g>
<!-- Node8&#45;&gt;Node9 -->
<g id="edge8" class="edge"><title>Node8&#45;&gt;Node9</title>
<path fill="none" stroke="midnightblue" d="M684.753,-198.421C616.398,-176.983 438.056,-121.051 360.279,-96.6582"/>
<polygon fill="midnightblue" stroke="midnightblue" points="361.019,-93.2223 350.43,-93.5693 358.925,-99.9015 361.019,-93.2223"/>
</g>
<!-- Node14&#45;&gt;Node9 -->
<g id="edge21" class="edge"><title>Node14&#45;&gt;Node9</title>
<path fill="none" stroke="midnightblue" d="M945.402,-141.268C796.726,-132.313 431.128,-109.64 376.107,-100 370.573,-99.0304 364.788,-97.7159 359.158,-96.2658"/>
<polygon fill="midnightblue" stroke="midnightblue" points="359.85,-92.8263 349.28,-93.5543 357.997,-99.5766 359.85,-92.8263"/>
</g>
<!-- Node15 -->
<g id="node15" class="node"><title>Node15</title>
<polygon fill="none" stroke="#bfbfbf" points="1407.61,-69 1407.61,-99 1558.61,-99 1558.61,-69 1407.61,-69"/>
<text text-anchor="start" x="1415.61" y="-87" font-family="Helvetica,sans-Serif" font-size="10.00">Math/GenVector/Displacement</text>
<text text-anchor="middle" x="1483.11" y="-76" font-family="Helvetica,sans-Serif" font-size="10.00">Vector3D.h</text>
</g>
<!-- Node14&#45;&gt;Node15 -->
<g id="edge16" class="edge"><title>Node14&#45;&gt;Node15</title>
<path fill="none" stroke="midnightblue" d="M1070.74,-138.939C1145.79,-131.413 1275.6,-117.573 1397.35,-100.052"/>
<polygon fill="midnightblue" stroke="midnightblue" points="1398.21,-103.465 1407.6,-98.5661 1397.2,-96.5378 1398.21,-103.465"/>
</g>
<!-- Node16 -->
<g id="node16" class="node"><title>Node16</title>
<polygon fill="none" stroke="#bfbfbf" points="385.107,-74.5 385.107,-93.5 561.107,-93.5 561.107,-74.5 385.107,-74.5"/>
<text text-anchor="middle" x="473.107" y="-81.5" font-family="Helvetica,sans-Serif" font-size="10.00">Math/GenVector/PositionVector3D.h</text>
</g>
<!-- Node14&#45;&gt;Node16 -->
<g id="edge17" class="edge"><title>Node14&#45;&gt;Node16</title>
<path fill="none" stroke="midnightblue" d="M945.466,-139.628C860.183,-132.075 702.836,-117.289 569.107,-100 557.85,-98.5446 545.878,-96.818 534.345,-95.0632"/>
<polygon fill="midnightblue" stroke="midnightblue" points="534.768,-91.5873 524.351,-93.5201 533.7,-98.5053 534.768,-91.5873"/>
</g>
<!-- Node17 -->
<g id="node17" class="node"><title>Node17</title>
<polygon fill="none" stroke="#bfbfbf" points="578.607,-74.5 578.607,-93.5 727.607,-93.5 727.607,-74.5 578.607,-74.5"/>
<text text-anchor="middle" x="653.107" y="-81.5" font-family="Helvetica,sans-Serif" font-size="10.00">Math/GenVector/Rotation3D.h</text>
</g>
<!-- Node14&#45;&gt;Node17 -->
<g id="edge18" class="edge"><title>Node14&#45;&gt;Node17</title>
<path fill="none" stroke="midnightblue" d="M955.616,-136.478C901,-127.565 813.012,-113.079 737.107,-100 728.409,-98.5013 719.21,-96.8878 710.214,-95.294"/>
<polygon fill="midnightblue" stroke="midnightblue" points="710.64,-91.8149 700.182,-93.5102 709.415,-98.7068 710.64,-91.8149"/>
</g>
<!-- Node18 -->
<g id="node18" class="node"><title>Node18</title>
<polygon fill="none" stroke="#bfbfbf" points="746.107,-74.5 746.107,-93.5 902.107,-93.5 902.107,-74.5 746.107,-74.5"/>
<text text-anchor="middle" x="824.107" y="-81.5" font-family="Helvetica,sans-Serif" font-size="10.00">Math/GenVector/Transform3D.h</text>
</g>
<!-- Node14&#45;&gt;Node18 -->
<g id="edge19" class="edge"><title>Node14&#45;&gt;Node18</title>
<path fill="none" stroke="midnightblue" d="M981.744,-136.403C949.772,-125.978 895.731,-108.356 859.984,-96.6992"/>
<polygon fill="midnightblue" stroke="midnightblue" points="861.013,-93.3533 850.421,-93.5806 858.843,-100.008 861.013,-93.3533"/>
</g>
<!-- Node19 -->
<g id="node19" class="node"><title>Node19</title>
<polygon fill="none" stroke="#bfbfbf" points="920.107,-74.5 920.107,-93.5 1080.11,-93.5 1080.11,-74.5 920.107,-74.5"/>
<text text-anchor="middle" x="1000.11" y="-81.5" font-family="Helvetica,sans-Serif" font-size="10.00">Math/GenVector/Translation3D.h</text>
</g>
<!-- Node14&#45;&gt;Node19 -->
<g id="edge20" class="edge"><title>Node14&#45;&gt;Node19</title>
<path fill="none" stroke="midnightblue" d="M1006.96,-136.403C1005.83,-127.938 1004.07,-114.728 1002.62,-103.82"/>
<polygon fill="midnightblue" stroke="midnightblue" points="1006.04,-103.03 1001.25,-93.5806 999.103,-103.955 1006.04,-103.03"/>
</g>
<!-- Node20 -->
<g id="node20" class="node"><title>Node20</title>
<polygon fill="none" stroke="#bfbfbf" points="1098.11,-74.5 1098.11,-93.5 1174.11,-93.5 1174.11,-74.5 1098.11,-74.5"/>
<text text-anchor="middle" x="1136.11" y="-81.5" font-family="Helvetica,sans-Serif" font-size="10.00">TGeoMatrix.h</text>
</g>
<!-- Node14&#45;&gt;Node20 -->
<g id="edge22" class="edge"><title>Node14&#45;&gt;Node20</title>
<path fill="none" stroke="midnightblue" d="M1026.45,-136.403C1047.93,-126.334 1083.73,-109.552 1108.55,-97.9151"/>
<polygon fill="midnightblue" stroke="midnightblue" points="1110.23,-100.994 1117.8,-93.5806 1107.26,-94.6559 1110.23,-100.994"/>
</g>
<!-- Node21 -->
<g id="node21" class="node"><title>Node21</title>
<polygon fill="none" stroke="#bfbfbf" points="1192.11,-74.5 1192.11,-93.5 1246.11,-93.5 1246.11,-74.5 1192.11,-74.5"/>
<text text-anchor="middle" x="1219.11" y="-81.5" font-family="Helvetica,sans-Serif" font-size="10.00">iostream</text>
</g>
<!-- Node14&#45;&gt;Node21 -->
<g id="edge23" class="edge"><title>Node14&#45;&gt;Node21</title>
<path fill="none" stroke="midnightblue" d="M1047.85,-136.491C1083.63,-128.427 1137.45,-115.296 1183.11,-100 1185.52,-99.1908 1188.01,-98.2954 1190.48,-97.3567"/>
<polygon fill="midnightblue" stroke="midnightblue" points="1191.88,-100.569 1199.87,-93.612 1189.28,-94.0671 1191.88,-100.569"/>
</g>
<!-- Node22 -->
<g id="node22" class="node"><title>Node22</title>
<g id="a_node22"><a xlink:href="../../d2/dd0/Cartesian2D_8h.html" target="_top" xlink:title="MathUtils/Cartesian2D.h">
<polygon fill="none" stroke="black" points="1264.61,-74.5 1264.61,-93.5 1389.61,-93.5 1389.61,-74.5 1264.61,-74.5"/>
<text text-anchor="middle" x="1327.11" y="-81.5" font-family="Helvetica,sans-Serif" font-size="10.00">MathUtils/Cartesian2D.h</text>
</a>
</g>
</g>
<!-- Node14&#45;&gt;Node22 -->
<g id="edge24" class="edge"><title>Node14&#45;&gt;Node22</title>
<path fill="none" stroke="midnightblue" d="M1056.92,-136.482C1106.79,-127.689 1186.44,-113.405 1255.11,-100 1262.26,-98.6039 1269.8,-97.085 1277.2,-95.5673"/>
<polygon fill="midnightblue" stroke="midnightblue" points="1278.07,-98.9613 1287.15,-93.5101 1276.65,-92.1061 1278.07,-98.9613"/>
</g>
<!-- Node23 -->
<g id="node23" class="node"><title>Node23</title>
<polygon fill="none" stroke="#bfbfbf" points="1160.61,-1 1160.61,-31 1311.61,-31 1311.61,-1 1160.61,-1"/>
<text text-anchor="start" x="1168.61" y="-19" font-family="Helvetica,sans-Serif" font-size="10.00">Math/GenVector/Displacement</text>
<text text-anchor="middle" x="1236.11" y="-8" font-family="Helvetica,sans-Serif" font-size="10.00">Vector2D.h</text>
</g>
<!-- Node22&#45;&gt;Node23 -->
<g id="edge25" class="edge"><title>Node22&#45;&gt;Node23</title>
<path fill="none" stroke="midnightblue" d="M1315.21,-74.3717C1302.33,-65.0286 1281.33,-49.7966 1264.2,-37.375"/>
<polygon fill="midnightblue" stroke="midnightblue" points="1265.81,-34.2194 1255.66,-31.1815 1261.7,-39.8859 1265.81,-34.2194"/>
</g>
<!-- Node24 -->
<g id="node24" class="node"><title>Node24</title>
<polygon fill="none" stroke="#bfbfbf" points="1330.11,-6.5 1330.11,-25.5 1506.11,-25.5 1506.11,-6.5 1330.11,-6.5"/>
<text text-anchor="middle" x="1418.11" y="-13.5" font-family="Helvetica,sans-Serif" font-size="10.00">Math/GenVector/PositionVector2D.h</text>
</g>
<!-- Node22&#45;&gt;Node24 -->
<g id="edge26" class="edge"><title>Node22&#45;&gt;Node24</title>
<path fill="none" stroke="midnightblue" d="M1339,-74.3717C1353.99,-63.5015 1379.97,-44.6602 1398.05,-31.5474"/>
<polygon fill="midnightblue" stroke="midnightblue" points="1400.17,-34.3349 1406.21,-25.6305 1396.06,-28.6684 1400.17,-34.3349"/>
</g>
<!-- Node26 -->
<g id="node26" class="node"><title>Node26</title>
<g id="a_node26"><a xlink:href="../../d4/d25/BaseHits_8h.html" target="_top" xlink:title="SimulationDataFormat\l/BaseHits.h">
<polygon fill="none" stroke="black" points="951.107,-193 951.107,-223 1065.11,-223 1065.11,-193 951.107,-193"/>
<text text-anchor="start" x="959.107" y="-211" font-family="Helvetica,sans-Serif" font-size="10.00">SimulationDataFormat</text>
<text text-anchor="middle" x="1008.11" y="-200" font-family="Helvetica,sans-Serif" font-size="10.00">/BaseHits.h</text>
</a>
</g>
</g>
<!-- Node25&#45;&gt;Node26 -->
<g id="edge28" class="edge"><title>Node25&#45;&gt;Node26</title>
<path fill="none" stroke="midnightblue" d="M1003.82,-260.403C1004.41,-253.341 1005.28,-242.975 1006.07,-233.399"/>
<polygon fill="midnightblue" stroke="midnightblue" points="1009.59,-233.397 1006.93,-223.141 1002.61,-232.816 1009.59,-233.397"/>
</g>
<!-- Node26&#45;&gt;Node14 -->
<g id="edge29" class="edge"><title>Node26&#45;&gt;Node14</title>
<path fill="none" stroke="midnightblue" d="M1008.11,-192.781C1008.11,-184.781 1008.11,-174.689 1008.11,-166.017"/>
<polygon fill="midnightblue" stroke="midnightblue" points="1011.61,-165.73 1008.11,-155.731 1004.61,-165.731 1011.61,-165.73"/>
</g>
</g>
</svg>
        <g id="navigator" transform="translate(0 0)" fill="#404254">
                <rect fill="#f2f5e9" fill-opacity="0.5" stroke="#606060" stroke-width=".5" x="0" y="0" width="60" height="60"/>
                <use id="zoomplus" xlink:href="#zoomPlus" x="17" y="9" onmousedown="handleZoom(evt,'in')"/>
                <use id="zoomminus" xlink:href="#zoomMin" x="42" y="9" onmousedown="handleZoom(evt,'out')"/>
                <use id="reset" xlink:href="#resetDef" x="30" y="36" onmousedown="handleReset()"/>
                <g id="arrowUp" xlink:href="#dirArrow" transform="translate(30 24)" onmousedown="handlePan(0,-1)">
                  <use xlink:href="#rim" fill="#404040">
                        <set attributeName="fill" to="#808080" begin="arrowUp.mouseover" end="arrowUp.mouseout"/>
                  </use>
                  <path fill="none" stroke="white" stroke-width="1.5" d="M0,-3.0v7 M-2.5,-0.5L0,-3.0L2.5,-0.5"/>
                </g>
                <g id="arrowRight" xlink:href="#dirArrow" transform="rotate(90) translate(36 -43)" onmousedown="handlePan(1,0)">
                  <use xlink:href="#rim" fill="#404040">
                        <set attributeName="fill" to="#808080" begin="arrowRight.mouseover" end="arrowRight.mouseout"/>
                  </use>
                  <path fill="none" stroke="white" stroke-width="1.5" d="M0,-3.0v7 M-2.5,-0.5L0,-3.0L2.5,-0.5"/>
                </g>
                <g id="arrowDown" xlink:href="#dirArrow" transform="rotate(180) translate(-30 -48)" onmousedown="handlePan(0,1)">
                  <use xlink:href="#rim" fill="#404040">
                        <set attributeName="fill" to="#808080" begin="arrowDown.mouseover" end="arrowDown.mouseout"/>
                  </use>
                  <path fill="none" stroke="white" stroke-width="1.5" d="M0,-3.0v7 M-2.5,-0.5L0,-3.0L2.5,-0.5"/>
                </g>
                <g id="arrowLeft" xlink:href="#dirArrow" transform="rotate(270) translate(-36 17)" onmousedown="handlePan(-1,0)">
                  <use xlink:href="#rim" fill="#404040">
                        <set attributeName="fill" to="#808080" begin="arrowLeft.mouseover" end="arrowLeft.mouseout"/>
                  </use>
                  <path fill="none" stroke="white" stroke-width="1.5" d="M0,-3.0v7 M-2.5,-0.5L0,-3.0L2.5,-0.5"/>
                </g>
        </g>
        <svg viewBox="0 0 15 15" width="100%" height="30px" preserveAspectRatio="xMaxYMin meet">
         <g id="arrow_out" transform="scale(0.3 0.3)">
          <a xlink:href="PHOS_2simulation_2include_2PHOSSimulation_2Detector_8h__incl_org.svg" target="_base">
           <rect id="button" ry="5" rx="5" y="6" x="6" height="38" width="38"
                fill="#f2f5e9" fill-opacity="0.5" stroke="#606060" stroke-width="1.0"/>
           <path id="arrow"
             d="M 11.500037,31.436501 C 11.940474,20.09759 22.043105,11.32322 32.158766,21.979434 L 37.068811,17.246167 C 37.068811,17.246167 37.088388,32 37.088388,32 L 22.160133,31.978069 C 22.160133,31.978069 26.997745,27.140456 26.997745,27.140456 C 18.528582,18.264221 13.291696,25.230495 11.500037,31.436501 z"
             style="fill:#404040;"/>
          </a>
         </g>
        </svg>
</svg>
