<?xml version="1.0" encoding="UTF-8" standalone="no"?>
<!DOCTYPE svg PUBLIC "-//W3C//DTD SVG 1.1//EN"
 "http://www.w3.org/Graphics/SVG/1.1/DTD/svg11.dtd">
<!-- Generated by graphviz version 2.36.0 (20140111.2315)
 -->
<!-- Title: /home/travis/build/AliceO2Group/AliceO2/Detectors/TOF/simulation/src/Digitizer.cxx Pages: 1 -->
<!--zoomable 458 -->
<svg id="main" version="1.1" xmlns="http://www.w3.org/2000/svg" xmlns:xlink="http://www.w3.org/1999/xlink" xml:space="preserve" onload="init(evt)">
<style type="text/css"><![CDATA[
.edge:hover path { stroke: red; }
.edge:hover polygon { stroke: red; fill: red; }
]]></style>
<script type="text/javascript"><![CDATA[
var edges = document.getElementsByTagName('g');
if (edges && edges.length) {
  for (var i=0;i<edges.length;i++) {
    if (edges[i].id.substr(0,4)=='edge') {
      edges[i].setAttribute('class','edge');
    }
  }
}
]]></script>
        <defs>
                <circle id="rim" cx="0" cy="0" r="7"/>
                <circle id="rim2" cx="0" cy="0" r="3.5"/>
                <g id="zoomPlus">
                        <use xlink:href="#rim" fill="#404040">
                                <set attributeName="fill" to="#808080" begin="zoomplus.mouseover" end="zoomplus.mouseout"/>
                        </use>
                        <path d="M-4,0h8M0,-4v8" fill="none" stroke="white" stroke-width="1.5" pointer-events="none"/>
                </g>
                <g id="zoomMin">
                        <use xlink:href="#rim" fill="#404040">
                                <set attributeName="fill" to="#808080" begin="zoomminus.mouseover" end="zoomminus.mouseout"/>
                        </use>
                        <path d="M-4,0h8" fill="none" stroke="white" stroke-width="1.5" pointer-events="none"/>
                </g>
                <g id="dirArrow">
                        <path fill="none" stroke="white" stroke-width="1.5" d="M0,-3.0v7 M-2.5,-0.5L0,-3.0L2.5,-0.5"/>
                </g>
               <g id="resetDef">
                       <use xlink:href="#rim2" fill="#404040">
                               <set attributeName="fill" to="#808080" begin="reset.mouseover" end="reset.mouseout"/>
                       </use>
               </g>
        </defs>

<script type="text/javascript">
var viewWidth = 2676;
var viewHeight = 458;
var sectionId = 'dynsection-0';
</script>
<script xlink:href="../../svgpan.js"/>
<svg id="graph" class="graph">
<g id="viewport">
<title>/home/travis/build/AliceO2Group/AliceO2/Detectors/TOF/simulation/src/Digitizer.cxx</title>
<!-- Node1 -->
<g id="node1" class="node"><title>Node1</title>
<polygon fill="#bfbfbf" stroke="black" points="2188,-397 2188,-449 2320,-449 2320,-397 2188,-397"/>
<text text-anchor="start" x="2196" y="-437" font-family="Helvetica,sans-Serif" font-size="10.00">/home/travis/build</text>
<text text-anchor="start" x="2196" y="-426" font-family="Helvetica,sans-Serif" font-size="10.00">/AliceO2Group/AliceO2</text>
<text text-anchor="start" x="2196" y="-415" font-family="Helvetica,sans-Serif" font-size="10.00">/Detectors/TOF/simulation</text>
<text text-anchor="middle" x="2254" y="-404" font-family="Helvetica,sans-Serif" font-size="10.00">/src/Digitizer.cxx</text>
</g>
<!-- Node2 -->
<g id="node2" class="node"><title>Node2</title>
<g id="a_node2"><a xlink:href="../../d0/d85/TOF_2simulation_2include_2TOFSimulation_2Digitizer_8h.html" target="_top" xlink:title="TOFSimulation/Digitizer.h">
<polygon fill="none" stroke="black" points="1380.5,-340.5 1380.5,-359.5 1509.5,-359.5 1509.5,-340.5 1380.5,-340.5"/>
<text text-anchor="middle" x="1445" y="-347.5" font-family="Helvetica,sans-Serif" font-size="10.00">TOFSimulation/Digitizer.h</text>
</a>
</g>
</g>
<!-- Node1&#45;&gt;Node2 -->
<g id="edge1" class="edge"><title>Node1&#45;&gt;Node2</title>
<path fill="none" stroke="midnightblue" d="M2187.8,-416.19C2038.52,-403.089 1676.53,-371.32 1519.61,-357.548"/>
<polygon fill="midnightblue" stroke="midnightblue" points="1519.85,-354.055 1509.58,-356.667 1519.23,-361.028 1519.85,-354.055"/>
</g>
<!-- Node35 -->
<g id="node35" class="node"><title>Node35</title>
<polygon fill="none" stroke="#bfbfbf" points="1984.5,-210.5 1984.5,-229.5 2033.5,-229.5 2033.5,-210.5 1984.5,-210.5"/>
<text text-anchor="middle" x="2009" y="-217.5" font-family="Helvetica,sans-Serif" font-size="10.00">cassert</text>
</g>
<!-- Node1&#45;&gt;Node35 -->
<g id="edge57" class="edge"><title>Node1&#45;&gt;Node35</title>
<path fill="none" stroke="midnightblue" d="M2187.93,-414.842C2121.44,-406.115 2025.59,-388.847 2003,-360 1975.53,-324.924 1990.76,-268.24 2001.42,-239.29"/>
<polygon fill="midnightblue" stroke="midnightblue" points="2004.8,-240.244 2005.18,-229.656 1998.28,-237.697 2004.8,-240.244"/>
</g>
<!-- Node40 -->
<g id="node40" class="node"><title>Node40</title>
<polygon fill="none" stroke="#bfbfbf" points="2012.5,-340.5 2012.5,-359.5 2077.5,-359.5 2077.5,-340.5 2012.5,-340.5"/>
<text text-anchor="middle" x="2045" y="-347.5" font-family="Helvetica,sans-Serif" font-size="10.00">TCanvas.h</text>
</g>
<!-- Node1&#45;&gt;Node40 -->
<g id="edge48" class="edge"><title>Node1&#45;&gt;Node40</title>
<path fill="none" stroke="midnightblue" d="M2187.87,-399.535C2152.03,-387.361 2109.2,-372.811 2079.84,-362.837"/>
<polygon fill="midnightblue" stroke="midnightblue" points="2080.65,-359.414 2070.05,-359.511 2078.4,-366.042 2080.65,-359.414"/>
</g>
<!-- Node41 -->
<g id="node41" class="node"><title>Node41</title>
<polygon fill="none" stroke="#bfbfbf" points="2095.5,-340.5 2095.5,-359.5 2142.5,-359.5 2142.5,-340.5 2095.5,-340.5"/>
<text text-anchor="middle" x="2119" y="-347.5" font-family="Helvetica,sans-Serif" font-size="10.00">TFile.h</text>
</g>
<!-- Node1&#45;&gt;Node41 -->
<g id="edge49" class="edge"><title>Node1&#45;&gt;Node41</title>
<path fill="none" stroke="midnightblue" d="M2206.4,-396.968C2185.52,-385.986 2161.85,-373.537 2144.41,-364.366"/>
<polygon fill="midnightblue" stroke="midnightblue" points="2145.91,-361.196 2135.43,-359.639 2142.65,-367.391 2145.91,-361.196"/>
</g>
<!-- Node42 -->
<g id="node42" class="node"><title>Node42</title>
<polygon fill="none" stroke="#bfbfbf" points="2161,-340.5 2161,-359.5 2211,-359.5 2211,-340.5 2161,-340.5"/>
<text text-anchor="middle" x="2186" y="-347.5" font-family="Helvetica,sans-Serif" font-size="10.00">TH1F.h</text>
</g>
<!-- Node1&#45;&gt;Node42 -->
<g id="edge50" class="edge"><title>Node1&#45;&gt;Node42</title>
<path fill="none" stroke="midnightblue" d="M2229.83,-396.768C2220.36,-386.881 2209.78,-375.831 2201.39,-367.066"/>
<polygon fill="midnightblue" stroke="midnightblue" points="2203.83,-364.558 2194.39,-359.757 2198.78,-369.4 2203.83,-364.558"/>
</g>
<!-- Node43 -->
<g id="node43" class="node"><title>Node43</title>
<polygon fill="none" stroke="#bfbfbf" points="2229,-340.5 2229,-359.5 2279,-359.5 2279,-340.5 2229,-340.5"/>
<text text-anchor="middle" x="2254" y="-347.5" font-family="Helvetica,sans-Serif" font-size="10.00">TH2F.h</text>
</g>
<!-- Node1&#45;&gt;Node43 -->
<g id="edge51" class="edge"><title>Node1&#45;&gt;Node43</title>
<path fill="none" stroke="midnightblue" d="M2254,-396.768C2254,-387.89 2254,-378.074 2254,-369.816"/>
<polygon fill="midnightblue" stroke="midnightblue" points="2257.5,-369.757 2254,-359.757 2250.5,-369.757 2257.5,-369.757"/>
</g>
<!-- Node44 -->
<g id="node44" class="node"><title>Node44</title>
<polygon fill="none" stroke="#bfbfbf" points="2297,-340.5 2297,-359.5 2347,-359.5 2347,-340.5 2297,-340.5"/>
<text text-anchor="middle" x="2322" y="-347.5" font-family="Helvetica,sans-Serif" font-size="10.00">TLeaf.h</text>
</g>
<!-- Node1&#45;&gt;Node44 -->
<g id="edge52" class="edge"><title>Node1&#45;&gt;Node44</title>
<path fill="none" stroke="midnightblue" d="M2278.17,-396.768C2287.64,-386.881 2298.22,-375.831 2306.61,-367.066"/>
<polygon fill="midnightblue" stroke="midnightblue" points="2309.22,-369.4 2313.61,-359.757 2304.17,-364.558 2309.22,-369.4"/>
</g>
<!-- Node45 -->
<g id="node45" class="node"><title>Node45</title>
<polygon fill="none" stroke="#bfbfbf" points="2365.5,-340.5 2365.5,-359.5 2418.5,-359.5 2418.5,-340.5 2365.5,-340.5"/>
<text text-anchor="middle" x="2392" y="-347.5" font-family="Helvetica,sans-Serif" font-size="10.00">TMath.h</text>
</g>
<!-- Node1&#45;&gt;Node45 -->
<g id="edge53" class="edge"><title>Node1&#45;&gt;Node45</title>
<path fill="none" stroke="midnightblue" d="M2302.65,-396.968C2324,-385.986 2348.2,-373.537 2366.02,-364.366"/>
<polygon fill="midnightblue" stroke="midnightblue" points="2367.92,-367.326 2375.21,-359.639 2364.72,-361.102 2367.92,-367.326"/>
</g>
<!-- Node46 -->
<g id="node46" class="node"><title>Node46</title>
<polygon fill="none" stroke="#bfbfbf" points="2436.5,-340.5 2436.5,-359.5 2507.5,-359.5 2507.5,-340.5 2436.5,-340.5"/>
<text text-anchor="middle" x="2472" y="-347.5" font-family="Helvetica,sans-Serif" font-size="10.00">TProfile2D.h</text>
</g>
<!-- Node1&#45;&gt;Node46 -->
<g id="edge54" class="edge"><title>Node1&#45;&gt;Node46</title>
<path fill="none" stroke="midnightblue" d="M2320.3,-400.408C2358.39,-388.002 2404.75,-372.904 2436.11,-362.688"/>
<polygon fill="midnightblue" stroke="midnightblue" points="2437.32,-365.977 2445.74,-359.552 2435.15,-359.321 2437.32,-365.977"/>
</g>
<!-- Node47 -->
<g id="node47" class="node"><title>Node47</title>
<polygon fill="none" stroke="#bfbfbf" points="2526,-340.5 2526,-359.5 2594,-359.5 2594,-340.5 2526,-340.5"/>
<text text-anchor="middle" x="2560" y="-347.5" font-family="Helvetica,sans-Serif" font-size="10.00">TRandom.h</text>
</g>
<!-- Node1&#45;&gt;Node47 -->
<g id="edge55" class="edge"><title>Node1&#45;&gt;Node47</title>
<path fill="none" stroke="midnightblue" d="M2320.02,-406.681C2379.32,-392.923 2464.72,-373.109 2516.04,-361.2"/>
<polygon fill="midnightblue" stroke="midnightblue" points="2516.88,-364.598 2525.83,-358.928 2515.3,-357.779 2516.88,-364.598"/>
</g>
<!-- Node48 -->
<g id="node48" class="node"><title>Node48</title>
<polygon fill="none" stroke="#bfbfbf" points="2612,-340.5 2612,-359.5 2668,-359.5 2668,-340.5 2612,-340.5"/>
<text text-anchor="middle" x="2640" y="-347.5" font-family="Helvetica,sans-Serif" font-size="10.00">algorithm</text>
</g>
<!-- Node1&#45;&gt;Node48 -->
<g id="edge56" class="edge"><title>Node1&#45;&gt;Node48</title>
<path fill="none" stroke="midnightblue" d="M2320.17,-411.516C2388.34,-400.427 2497.88,-381.814 2601.73,-360.167"/>
<polygon fill="midnightblue" stroke="midnightblue" points="2602.69,-363.541 2611.76,-358.063 2601.25,-356.69 2602.69,-363.541"/>
</g>
<!-- Node3 -->
<g id="node3" class="node"><title>Node3</title>
<g id="a_node3"><a xlink:href="../../d4/d54/Geo_8h.html" target="_top" xlink:title="TOFBase/Geo.h">
<polygon fill="none" stroke="black" points="1354,-210.5 1354,-229.5 1442,-229.5 1442,-210.5 1354,-210.5"/>
<text text-anchor="middle" x="1398" y="-217.5" font-family="Helvetica,sans-Serif" font-size="10.00">TOFBase/Geo.h</text>
</a>
</g>
</g>
<!-- Node2&#45;&gt;Node3 -->
<g id="edge2" class="edge"><title>Node2&#45;&gt;Node3</title>
<path fill="none" stroke="midnightblue" d="M1452.7,-340.109C1464.45,-325.404 1484.25,-295.326 1472,-272 1463.02,-254.911 1445.44,-242.428 1429.66,-234.09"/>
<polygon fill="midnightblue" stroke="midnightblue" points="1431.18,-230.936 1420.66,-229.657 1428.09,-237.215 1431.18,-230.936"/>
</g>
<!-- Node5 -->
<g id="node5" class="node"><title>Node5</title>
<g id="a_node5"><a xlink:href="../../df/d9c/TOF_2base_2include_2TOFBase_2Digit_8h.html" target="_top" xlink:title="TOFBase/Digit.h">
<polygon fill="none" stroke="black" points="1052,-210.5 1052,-229.5 1142,-229.5 1142,-210.5 1052,-210.5"/>
<text text-anchor="middle" x="1097" y="-217.5" font-family="Helvetica,sans-Serif" font-size="10.00">TOFBase/Digit.h</text>
</a>
</g>
</g>
<!-- Node2&#45;&gt;Node5 -->
<g id="edge4" class="edge"><title>Node2&#45;&gt;Node5</title>
<path fill="none" stroke="midnightblue" d="M1380.42,-343.213C1311.61,-336.191 1207.87,-322.902 1173,-304 1144.07,-288.319 1120.31,-257.341 1107.44,-237.985"/>
<polygon fill="midnightblue" stroke="midnightblue" points="1110.36,-236.063 1102.02,-229.534 1104.47,-239.841 1110.36,-236.063"/>
</g>
<!-- Node9 -->
<g id="node9" class="node"><title>Node9</title>
<g id="a_node9"><a xlink:href="../../d5/d3c/TOF_2simulation_2include_2TOFSimulation_2Detector_8h.html" target="_top" xlink:title="TOFSimulation/Detector.h">
<polygon fill="none" stroke="black" points="1332.5,-278.5 1332.5,-297.5 1463.5,-297.5 1463.5,-278.5 1332.5,-278.5"/>
<text text-anchor="middle" x="1398" y="-285.5" font-family="Helvetica,sans-Serif" font-size="10.00">TOFSimulation/Detector.h</text>
</a>
</g>
</g>
<!-- Node2&#45;&gt;Node9 -->
<g id="edge10" class="edge"><title>Node2&#45;&gt;Node9</title>
<path fill="none" stroke="midnightblue" d="M1438.27,-340.403C1431.22,-331.403 1419.97,-317.041 1411.15,-305.782"/>
<polygon fill="midnightblue" stroke="midnightblue" points="1413.64,-303.295 1404.72,-297.581 1408.13,-307.611 1413.64,-303.295"/>
</g>
<!-- Node33 -->
<g id="node33" class="node"><title>Node33</title>
<g id="a_node33"><a xlink:href="../../db/d14/MCTruthContainer_8h.html" target="_top" xlink:title="Definition of a container to keep Monte Carlo truth external to simulation objects. ">
<polygon fill="none" stroke="black" points="1793,-273 1793,-303 1907,-303 1907,-273 1793,-273"/>
<text text-anchor="start" x="1801" y="-291" font-family="Helvetica,sans-Serif" font-size="10.00">SimulationDataFormat</text>
<text text-anchor="middle" x="1850" y="-280" font-family="Helvetica,sans-Serif" font-size="10.00">/MCTruthContainer.h</text>
</a>
</g>
</g>
<!-- Node2&#45;&gt;Node33 -->
<g id="edge39" class="edge"><title>Node2&#45;&gt;Node33</title>
<path fill="none" stroke="midnightblue" d="M1502.6,-340.467C1576.48,-329.522 1704.4,-310.57 1782.69,-298.971"/>
<polygon fill="midnightblue" stroke="midnightblue" points="1783.55,-302.383 1792.93,-297.455 1782.52,-295.458 1783.55,-302.383"/>
</g>
<!-- Node38 -->
<g id="node38" class="node"><title>Node38</title>
<g id="a_node38"><a xlink:href="../../df/d71/MCLabel_8h.html" target="_top" xlink:title="TOFSimulation/MCLabel.h">
<polygon fill="none" stroke="black" points="1182,-278.5 1182,-297.5 1314,-297.5 1314,-278.5 1182,-278.5"/>
<text text-anchor="middle" x="1248" y="-285.5" font-family="Helvetica,sans-Serif" font-size="10.00">TOFSimulation/MCLabel.h</text>
</a>
</g>
</g>
<!-- Node2&#45;&gt;Node38 -->
<g id="edge45" class="edge"><title>Node2&#45;&gt;Node38</title>
<path fill="none" stroke="midnightblue" d="M1416.77,-340.403C1382.4,-329.933 1324.19,-312.205 1285.92,-300.55"/>
<polygon fill="midnightblue" stroke="midnightblue" points="1286.76,-297.146 1276.17,-297.581 1284.72,-303.842 1286.76,-297.146"/>
</g>
<!-- Node4 -->
<g id="node4" class="node"><title>Node4</title>
<polygon fill="none" stroke="#bfbfbf" points="1220,-74.5 1220,-93.5 1276,-93.5 1276,-74.5 1220,-74.5"/>
<text text-anchor="middle" x="1248" y="-81.5" font-family="Helvetica,sans-Serif" font-size="10.00">Rtypes.h</text>
</g>
<!-- Node3&#45;&gt;Node4 -->
<g id="edge3" class="edge"><title>Node3&#45;&gt;Node4</title>
<path fill="none" stroke="midnightblue" d="M1375.88,-210.389C1355.8,-201.804 1326.17,-187.147 1305,-168 1284,-149.003 1266.75,-120.812 1256.92,-102.67"/>
<polygon fill="midnightblue" stroke="midnightblue" points="1259.98,-100.979 1252.24,-93.7473 1253.78,-104.229 1259.98,-100.979"/>
</g>
<!-- Node5&#45;&gt;Node4 -->
<g id="edge8" class="edge"><title>Node5&#45;&gt;Node4</title>
<path fill="none" stroke="midnightblue" d="M1119.36,-210.441C1139.67,-201.891 1169.61,-187.257 1191,-168 1212.04,-149.051 1229.28,-120.847 1239.1,-102.689"/>
<polygon fill="midnightblue" stroke="midnightblue" points="1242.24,-104.241 1243.77,-93.7578 1236.04,-100.998 1242.24,-104.241"/>
</g>
<!-- Node6 -->
<g id="node6" class="node"><title>Node6</title>
<g id="a_node6"><a xlink:href="../../df/d5d/common_2include_2CommonDataFormat_2TimeStamp_8h.html" target="_top" xlink:title="CommonDataFormat/TimeStamp.h">
<polygon fill="none" stroke="black" points="1012,-142.5 1012,-161.5 1182,-161.5 1182,-142.5 1012,-142.5"/>
<text text-anchor="middle" x="1097" y="-149.5" font-family="Helvetica,sans-Serif" font-size="10.00">CommonDataFormat/TimeStamp.h</text>
</a>
</g>
</g>
<!-- Node5&#45;&gt;Node6 -->
<g id="edge5" class="edge"><title>Node5&#45;&gt;Node6</title>
<path fill="none" stroke="midnightblue" d="M1097,-210.372C1097,-200.643 1097,-184.528 1097,-171.85"/>
<polygon fill="midnightblue" stroke="midnightblue" points="1100.5,-171.841 1097,-161.841 1093.5,-171.841 1100.5,-171.841"/>
</g>
<!-- Node7 -->
<g id="node7" class="node"><title>Node7</title>
<polygon fill="none" stroke="#bfbfbf" points="835.5,-142.5 835.5,-161.5 880.5,-161.5 880.5,-142.5 835.5,-142.5"/>
<text text-anchor="middle" x="858" y="-149.5" font-family="Helvetica,sans-Serif" font-size="10.00">iosfwd</text>
</g>
<!-- Node5&#45;&gt;Node7 -->
<g id="edge7" class="edge"><title>Node5&#45;&gt;Node7</title>
<path fill="none" stroke="midnightblue" d="M1051.97,-210.808C1009.29,-202.381 943.748,-187.709 889,-168 887.144,-167.332 885.251,-166.586 883.362,-165.795"/>
<polygon fill="midnightblue" stroke="midnightblue" points="884.685,-162.552 874.133,-161.599 881.787,-168.924 884.685,-162.552"/>
</g>
<!-- Node8 -->
<g id="node8" class="node"><title>Node8</title>
<polygon fill="none" stroke="#bfbfbf" points="898.5,-137 898.5,-167 993.5,-167 993.5,-137 898.5,-137"/>
<text text-anchor="start" x="906.5" y="-155" font-family="Helvetica,sans-Serif" font-size="10.00">boost/serialization</text>
<text text-anchor="middle" x="946" y="-144" font-family="Helvetica,sans-Serif" font-size="10.00">/base_object.hpp</text>
</g>
<!-- Node5&#45;&gt;Node8 -->
<g id="edge9" class="edge"><title>Node5&#45;&gt;Node8</title>
<path fill="none" stroke="midnightblue" d="M1077.26,-210.372C1054.54,-200.44 1016.59,-183.854 987.325,-171.063"/>
<polygon fill="midnightblue" stroke="midnightblue" points="988.724,-167.854 978.159,-167.056 985.92,-174.268 988.724,-167.854"/>
</g>
<!-- Node6&#45;&gt;Node4 -->
<g id="edge6" class="edge"><title>Node6&#45;&gt;Node4</title>
<path fill="none" stroke="midnightblue" d="M1116.74,-142.372C1142.74,-131.007 1188.67,-110.931 1218.72,-97.7961"/>
<polygon fill="midnightblue" stroke="midnightblue" points="1220.49,-100.843 1228.25,-93.6305 1217.69,-94.4285 1220.49,-100.843"/>
</g>
<!-- Node9&#45;&gt;Node3 -->
<g id="edge25" class="edge"><title>Node9&#45;&gt;Node3</title>
<path fill="none" stroke="midnightblue" d="M1398,-278.372C1398,-268.643 1398,-252.528 1398,-239.85"/>
<polygon fill="midnightblue" stroke="midnightblue" points="1401.5,-239.841 1398,-229.841 1394.5,-239.841 1401.5,-239.841"/>
</g>
<!-- Node10 -->
<g id="node10" class="node"><title>Node10</title>
<g id="a_node10"><a xlink:href="../../d1/d3a/Base_2include_2DetectorsBase_2Detector_8h.html" target="_top" xlink:title="DetectorsBase/Detector.h">
<polygon fill="none" stroke="black" points="1576.5,-210.5 1576.5,-229.5 1707.5,-229.5 1707.5,-210.5 1576.5,-210.5"/>
<text text-anchor="middle" x="1642" y="-217.5" font-family="Helvetica,sans-Serif" font-size="10.00">DetectorsBase/Detector.h</text>
</a>
</g>
</g>
<!-- Node9&#45;&gt;Node10 -->
<g id="edge11" class="edge"><title>Node9&#45;&gt;Node10</title>
<path fill="none" stroke="midnightblue" d="M1429.9,-278.372C1473.68,-266.53 1552.43,-245.229 1600.67,-232.179"/>
<polygon fill="midnightblue" stroke="midnightblue" points="1601.74,-235.516 1610.48,-229.526 1599.91,-228.758 1601.74,-235.516"/>
</g>
<!-- Node21 -->
<g id="node21" class="node"><title>Node21</title>
<g id="a_node21"><a xlink:href="../../d4/d25/BaseHits_8h.html" target="_top" xlink:title="SimulationDataFormat\l/BaseHits.h">
<polygon fill="none" stroke="black" points="809,-205 809,-235 923,-235 923,-205 809,-205"/>
<text text-anchor="start" x="817" y="-223" font-family="Helvetica,sans-Serif" font-size="10.00">SimulationDataFormat</text>
<text text-anchor="middle" x="866" y="-212" font-family="Helvetica,sans-Serif" font-size="10.00">/BaseHits.h</text>
</a>
</g>
</g>
<!-- Node9&#45;&gt;Node21 -->
<g id="edge26" class="edge"><title>Node9&#45;&gt;Node21</title>
<path fill="none" stroke="midnightblue" d="M1358.8,-278.497C1347.3,-276.182 1334.68,-273.816 1323,-272 1185.14,-250.562 1022.52,-234.626 933.202,-226.671"/>
<polygon fill="midnightblue" stroke="midnightblue" points="933.476,-223.182 923.207,-225.787 932.86,-230.155 933.476,-223.182"/>
</g>
<!-- Node10&#45;&gt;Node4 -->
<g id="edge20" class="edge"><title>Node10&#45;&gt;Node4</title>
<path fill="none" stroke="midnightblue" d="M1642.79,-210.409C1643.82,-193.394 1643.44,-155.381 1622,-136 1573.23,-91.9198 1371.19,-85.6076 1286.07,-84.9391"/>
<polygon fill="midnightblue" stroke="midnightblue" points="1286.07,-81.4392 1276.05,-84.8826 1286.03,-88.4391 1286.07,-81.4392"/>
</g>
<!-- Node11 -->
<g id="node11" class="node"><title>Node11</title>
<polygon fill="none" stroke="#bfbfbf" points="2019.5,-74.5 2019.5,-93.5 2054.5,-93.5 2054.5,-74.5 2019.5,-74.5"/>
<text text-anchor="middle" x="2037" y="-81.5" font-family="Helvetica,sans-Serif" font-size="10.00">map</text>
</g>
<!-- Node10&#45;&gt;Node11 -->
<g id="edge12" class="edge"><title>Node10&#45;&gt;Node11</title>
<path fill="none" stroke="midnightblue" d="M1680.28,-210.486C1691.73,-208.144 1704.34,-205.766 1716,-204 1794.84,-192.065 2019.52,-227.142 2073,-168 2090.54,-148.602 2070.04,-119.327 2053.56,-101.228"/>
<polygon fill="midnightblue" stroke="midnightblue" points="2055.86,-98.5763 2046.42,-93.7747 2050.81,-103.418 2055.86,-98.5763"/>
</g>
<!-- Node12 -->
<g id="node12" class="node"><title>Node12</title>
<polygon fill="none" stroke="#bfbfbf" points="1670,-142.5 1670,-161.5 1714,-161.5 1714,-142.5 1670,-142.5"/>
<text text-anchor="middle" x="1692" y="-149.5" font-family="Helvetica,sans-Serif" font-size="10.00">vector</text>
</g>
<!-- Node10&#45;&gt;Node12 -->
<g id="edge13" class="edge"><title>Node10&#45;&gt;Node12</title>
<path fill="none" stroke="midnightblue" d="M1648.54,-210.372C1656.28,-200.151 1669.36,-182.884 1679.15,-169.957"/>
<polygon fill="midnightblue" stroke="midnightblue" points="1682.05,-171.926 1685.3,-161.841 1676.47,-167.699 1682.05,-171.926"/>
</g>
<!-- Node13 -->
<g id="node13" class="node"><title>Node13</title>
<polygon fill="none" stroke="#bfbfbf" points="1732,-142.5 1732,-161.5 1784,-161.5 1784,-142.5 1732,-142.5"/>
<text text-anchor="middle" x="1758" y="-149.5" font-family="Helvetica,sans-Serif" font-size="10.00">memory</text>
</g>
<!-- Node10&#45;&gt;Node13 -->
<g id="edge14" class="edge"><title>Node10&#45;&gt;Node13</title>
<path fill="none" stroke="midnightblue" d="M1657.16,-210.372C1676.7,-199.254 1710.9,-179.8 1733.99,-166.662"/>
<polygon fill="midnightblue" stroke="midnightblue" points="1735.87,-169.618 1742.83,-161.63 1732.41,-163.534 1735.87,-169.618"/>
</g>
<!-- Node14 -->
<g id="node14" class="node"><title>Node14</title>
<polygon fill="none" stroke="#bfbfbf" points="1802.5,-142.5 1802.5,-161.5 1881.5,-161.5 1881.5,-142.5 1802.5,-142.5"/>
<text text-anchor="middle" x="1842" y="-149.5" font-family="Helvetica,sans-Serif" font-size="10.00">FairDetector.h</text>
</g>
<!-- Node10&#45;&gt;Node14 -->
<g id="edge15" class="edge"><title>Node10&#45;&gt;Node14</title>
<path fill="none" stroke="midnightblue" d="M1668.15,-210.372C1703.58,-198.679 1766.96,-177.762 1806.62,-164.674"/>
<polygon fill="midnightblue" stroke="midnightblue" points="1807.76,-167.983 1816.16,-161.526 1805.57,-161.336 1807.76,-167.983"/>
</g>
<!-- Node15 -->
<g id="node15" class="node"><title>Node15</title>
<polygon fill="none" stroke="#bfbfbf" points="1314,-142.5 1314,-161.5 1414,-161.5 1414,-142.5 1314,-142.5"/>
<text text-anchor="middle" x="1364" y="-149.5" font-family="Helvetica,sans-Serif" font-size="10.00">FairRootManager.h</text>
</g>
<!-- Node10&#45;&gt;Node15 -->
<g id="edge16" class="edge"><title>Node10&#45;&gt;Node15</title>
<path fill="none" stroke="midnightblue" d="M1604.36,-210.476C1560.68,-200.531 1486.53,-183.472 1423,-168 1417.74,-166.718 1412.22,-165.349 1406.75,-163.978"/>
<polygon fill="midnightblue" stroke="midnightblue" points="1407.6,-160.582 1397.05,-161.527 1405.89,-167.369 1407.6,-160.582"/>
</g>
<!-- Node16 -->
<g id="node16" class="node"><title>Node16</title>
<g id="a_node16"><a xlink:href="../../d0/d9a/MaterialManager_8h.html" target="_top" xlink:title="DetectorsBase/MaterialManager.h">
<polygon fill="none" stroke="black" points="1899.5,-142.5 1899.5,-161.5 2064.5,-161.5 2064.5,-142.5 1899.5,-142.5"/>
<text text-anchor="middle" x="1982" y="-149.5" font-family="Helvetica,sans-Serif" font-size="10.00">DetectorsBase/MaterialManager.h</text>
</a>
</g>
</g>
<!-- Node10&#45;&gt;Node16 -->
<g id="edge17" class="edge"><title>Node10&#45;&gt;Node16</title>
<path fill="none" stroke="midnightblue" d="M1683.86,-210.435C1694.35,-208.31 1705.58,-206.054 1716,-204 1788.81,-189.641 1872.95,-173.602 1926.77,-163.413"/>
<polygon fill="midnightblue" stroke="midnightblue" points="1927.61,-166.816 1936.79,-161.518 1926.31,-159.938 1927.61,-166.816"/>
</g>
<!-- Node17 -->
<g id="node17" class="node"><title>Node17</title>
<polygon fill="none" stroke="#bfbfbf" points="1432.5,-142.5 1432.5,-161.5 1485.5,-161.5 1485.5,-142.5 1432.5,-142.5"/>
<text text-anchor="middle" x="1459" y="-149.5" font-family="Helvetica,sans-Serif" font-size="10.00">cxxabi.h</text>
</g>
<!-- Node10&#45;&gt;Node17 -->
<g id="edge21" class="edge"><title>Node10&#45;&gt;Node17</title>
<path fill="none" stroke="midnightblue" d="M1615.32,-210.458C1585.52,-200.766 1535.96,-184.197 1494,-168 1491.9,-167.188 1489.73,-166.325 1487.56,-165.441"/>
<polygon fill="midnightblue" stroke="midnightblue" points="1488.73,-162.137 1478.15,-161.507 1486.03,-168.595 1488.73,-162.137"/>
</g>
<!-- Node18 -->
<g id="node18" class="node"><title>Node18</title>
<polygon fill="none" stroke="#bfbfbf" points="1503.5,-142.5 1503.5,-161.5 1554.5,-161.5 1554.5,-142.5 1503.5,-142.5"/>
<text text-anchor="middle" x="1529" y="-149.5" font-family="Helvetica,sans-Serif" font-size="10.00">typeinfo</text>
</g>
<!-- Node10&#45;&gt;Node18 -->
<g id="edge22" class="edge"><title>Node10&#45;&gt;Node18</title>
<path fill="none" stroke="midnightblue" d="M1627.23,-210.372C1608.28,-199.304 1575.18,-179.972 1552.69,-166.838"/>
<polygon fill="midnightblue" stroke="midnightblue" points="1554.18,-163.652 1543.78,-161.63 1550.65,-169.696 1554.18,-163.652"/>
</g>
<!-- Node19 -->
<g id="node19" class="node"><title>Node19</title>
<polygon fill="none" stroke="#bfbfbf" points="2121,-142.5 2121,-161.5 2183,-161.5 2183,-142.5 2121,-142.5"/>
<text text-anchor="middle" x="2152" y="-149.5" font-family="Helvetica,sans-Serif" font-size="10.00">type_traits</text>
</g>
<!-- Node10&#45;&gt;Node19 -->
<g id="edge23" class="edge"><title>Node10&#45;&gt;Node19</title>
<path fill="none" stroke="midnightblue" d="M1679.89,-210.5C1691.44,-208.131 1704.2,-205.734 1716,-204 1888.66,-178.628 1936.2,-203.829 2107,-168 2111.26,-167.106 2115.68,-165.941 2120.01,-164.656"/>
<polygon fill="midnightblue" stroke="midnightblue" points="2121.39,-167.891 2129.85,-161.509 2119.26,-161.224 2121.39,-167.891"/>
</g>
<!-- Node20 -->
<g id="node20" class="node"><title>Node20</title>
<polygon fill="none" stroke="#bfbfbf" points="1572.5,-142.5 1572.5,-161.5 1613.5,-161.5 1613.5,-142.5 1572.5,-142.5"/>
<text text-anchor="middle" x="1593" y="-149.5" font-family="Helvetica,sans-Serif" font-size="10.00">string</text>
</g>
<!-- Node10&#45;&gt;Node20 -->
<g id="edge24" class="edge"><title>Node10&#45;&gt;Node20</title>
<path fill="none" stroke="midnightblue" d="M1635.59,-210.372C1628.01,-200.151 1615.19,-182.884 1605.59,-169.957"/>
<polygon fill="midnightblue" stroke="midnightblue" points="1608.34,-167.784 1599.56,-161.841 1602.71,-171.957 1608.34,-167.784"/>
</g>
<!-- Node16&#45;&gt;Node4 -->
<g id="edge18" class="edge"><title>Node16&#45;&gt;Node4</title>
<path fill="none" stroke="midnightblue" d="M1934.36,-142.466C1920.12,-140.124 1904.46,-137.75 1890,-136 1661.88,-108.39 1386.28,-92.2424 1286.45,-86.9469"/>
<polygon fill="midnightblue" stroke="midnightblue" points="1286.41,-83.4405 1276.24,-86.4112 1286.05,-90.4308 1286.41,-83.4405"/>
</g>
<!-- Node16&#45;&gt;Node11 -->
<g id="edge19" class="edge"><title>Node16&#45;&gt;Node11</title>
<path fill="none" stroke="midnightblue" d="M1989.19,-142.372C1997.79,-132.053 2012.37,-114.551 2023.18,-101.585"/>
<polygon fill="midnightblue" stroke="midnightblue" points="2025.92,-103.764 2029.63,-93.8411 2020.54,-99.2827 2025.92,-103.764"/>
</g>
<!-- Node22 -->
<g id="node22" class="node"><title>Node22</title>
<g id="a_node22"><a xlink:href="../../dd/d76/Cartesian3D_8h.html" target="_top" xlink:title="MathUtils/Cartesian3D.h">
<polygon fill="none" stroke="black" points="692.5,-142.5 692.5,-161.5 817.5,-161.5 817.5,-142.5 692.5,-142.5"/>
<text text-anchor="middle" x="755" y="-149.5" font-family="Helvetica,sans-Serif" font-size="10.00">MathUtils/Cartesian3D.h</text>
</a>
</g>
</g>
<!-- Node21&#45;&gt;Node22 -->
<g id="edge27" class="edge"><title>Node21&#45;&gt;Node22</title>
<path fill="none" stroke="midnightblue" d="M842.188,-204.841C823.332,-193.63 797.139,-178.056 778.393,-166.91"/>
<polygon fill="midnightblue" stroke="midnightblue" points="779.986,-163.784 769.601,-161.682 776.408,-169.801 779.986,-163.784"/>
</g>
<!-- Node22&#45;&gt;Node4 -->
<g id="edge33" class="edge"><title>Node22&#45;&gt;Node4</title>
<path fill="none" stroke="midnightblue" d="M791.712,-142.459C802.695,-140.117 814.796,-137.745 826,-136 983.135,-111.529 1025.06,-125.67 1182,-100 1191.1,-98.5116 1200.82,-96.5264 1209.93,-94.4887"/>
<polygon fill="midnightblue" stroke="midnightblue" points="1210.93,-97.8499 1219.89,-92.1895 1209.36,-91.0293 1210.93,-97.8499"/>
</g>
<!-- Node23 -->
<g id="node23" class="node"><title>Node23</title>
<polygon fill="none" stroke="#bfbfbf" points="-0.5,-69 -0.5,-99 150.5,-99 150.5,-69 -0.5,-69"/>
<text text-anchor="start" x="7.5" y="-87" font-family="Helvetica,sans-Serif" font-size="10.00">Math/GenVector/Displacement</text>
<text text-anchor="middle" x="75" y="-76" font-family="Helvetica,sans-Serif" font-size="10.00">Vector3D.h</text>
</g>
<!-- Node22&#45;&gt;Node23 -->
<g id="edge28" class="edge"><title>Node22&#45;&gt;Node23</title>
<path fill="none" stroke="midnightblue" d="M692.268,-147.468C585.365,-141.046 360.879,-125.802 161.047,-100.061"/>
<polygon fill="midnightblue" stroke="midnightblue" points="161.316,-96.5667 150.948,-98.7484 160.414,-103.508 161.316,-96.5667"/>
</g>
<!-- Node24 -->
<g id="node24" class="node"><title>Node24</title>
<polygon fill="none" stroke="#bfbfbf" points="169,-74.5 169,-93.5 345,-93.5 345,-74.5 169,-74.5"/>
<text text-anchor="middle" x="257" y="-81.5" font-family="Helvetica,sans-Serif" font-size="10.00">Math/GenVector/PositionVector3D.h</text>
</g>
<!-- Node22&#45;&gt;Node24 -->
<g id="edge29" class="edge"><title>Node22&#45;&gt;Node24</title>
<path fill="none" stroke="midnightblue" d="M692.257,-143.607C613.094,-134.15 472.81,-116.956 353,-100 342.258,-98.4797 330.855,-96.7766 319.8,-95.0785"/>
<polygon fill="midnightblue" stroke="midnightblue" points="320.193,-91.5977 309.775,-93.5258 319.121,-98.5152 320.193,-91.5977"/>
</g>
<!-- Node25 -->
<g id="node25" class="node"><title>Node25</title>
<polygon fill="none" stroke="#bfbfbf" points="362.5,-74.5 362.5,-93.5 511.5,-93.5 511.5,-74.5 362.5,-74.5"/>
<text text-anchor="middle" x="437" y="-81.5" font-family="Helvetica,sans-Serif" font-size="10.00">Math/GenVector/Rotation3D.h</text>
</g>
<!-- Node22&#45;&gt;Node25 -->
<g id="edge30" class="edge"><title>Node22&#45;&gt;Node25</title>
<path fill="none" stroke="midnightblue" d="M713.753,-142.439C655.967,-130.446 550.971,-108.654 488.242,-95.6351"/>
<polygon fill="midnightblue" stroke="midnightblue" points="488.676,-92.1508 478.174,-93.5455 487.254,-99.0047 488.676,-92.1508"/>
</g>
<!-- Node26 -->
<g id="node26" class="node"><title>Node26</title>
<polygon fill="none" stroke="#bfbfbf" points="530,-74.5 530,-93.5 686,-93.5 686,-74.5 530,-74.5"/>
<text text-anchor="middle" x="608" y="-81.5" font-family="Helvetica,sans-Serif" font-size="10.00">Math/GenVector/Transform3D.h</text>
</g>
<!-- Node22&#45;&gt;Node26 -->
<g id="edge31" class="edge"><title>Node22&#45;&gt;Node26</title>
<path fill="none" stroke="midnightblue" d="M735.782,-142.372C710.471,-131.007 665.755,-110.931 636.5,-97.7961"/>
<polygon fill="midnightblue" stroke="midnightblue" points="637.779,-94.5335 627.222,-93.6305 634.912,-100.919 637.779,-94.5335"/>
</g>
<!-- Node27 -->
<g id="node27" class="node"><title>Node27</title>
<polygon fill="none" stroke="#bfbfbf" points="704,-74.5 704,-93.5 864,-93.5 864,-74.5 704,-74.5"/>
<text text-anchor="middle" x="784" y="-81.5" font-family="Helvetica,sans-Serif" font-size="10.00">Math/GenVector/Translation3D.h</text>
</g>
<!-- Node22&#45;&gt;Node27 -->
<g id="edge32" class="edge"><title>Node22&#45;&gt;Node27</title>
<path fill="none" stroke="midnightblue" d="M758.791,-142.372C763.152,-132.446 770.434,-115.874 776.053,-103.086"/>
<polygon fill="midnightblue" stroke="midnightblue" points="779.297,-104.404 780.115,-93.8411 772.888,-101.588 779.297,-104.404"/>
</g>
<!-- Node28 -->
<g id="node28" class="node"><title>Node28</title>
<polygon fill="none" stroke="#bfbfbf" points="882,-74.5 882,-93.5 958,-93.5 958,-74.5 882,-74.5"/>
<text text-anchor="middle" x="920" y="-81.5" font-family="Helvetica,sans-Serif" font-size="10.00">TGeoMatrix.h</text>
</g>
<!-- Node22&#45;&gt;Node28 -->
<g id="edge34" class="edge"><title>Node22&#45;&gt;Node28</title>
<path fill="none" stroke="midnightblue" d="M776.571,-142.372C805.308,-130.877 856.328,-110.469 889.134,-97.3465"/>
<polygon fill="midnightblue" stroke="midnightblue" points="890.7,-100.49 898.685,-93.5259 888.101,-93.9902 890.7,-100.49"/>
</g>
<!-- Node29 -->
<g id="node29" class="node"><title>Node29</title>
<polygon fill="none" stroke="#bfbfbf" points="976,-74.5 976,-93.5 1030,-93.5 1030,-74.5 976,-74.5"/>
<text text-anchor="middle" x="1003" y="-81.5" font-family="Helvetica,sans-Serif" font-size="10.00">iostream</text>
</g>
<!-- Node22&#45;&gt;Node29 -->
<g id="edge35" class="edge"><title>Node22&#45;&gt;Node29</title>
<path fill="none" stroke="midnightblue" d="M793.567,-142.495C845.494,-130.91 935.061,-110.423 967,-100 969.567,-99.1624 972.207,-98.2218 974.836,-97.2307"/>
<polygon fill="midnightblue" stroke="midnightblue" points="976.164,-100.469 984.155,-93.513 973.57,-93.9675 976.164,-100.469"/>
</g>
<!-- Node30 -->
<g id="node30" class="node"><title>Node30</title>
<g id="a_node30"><a xlink:href="../../d2/dd0/Cartesian2D_8h.html" target="_top" xlink:title="MathUtils/Cartesian2D.h">
<polygon fill="none" stroke="black" points="1048.5,-74.5 1048.5,-93.5 1173.5,-93.5 1173.5,-74.5 1048.5,-74.5"/>
<text text-anchor="middle" x="1111" y="-81.5" font-family="Helvetica,sans-Serif" font-size="10.00">MathUtils/Cartesian2D.h</text>
</a>
</g>
</g>
<!-- Node22&#45;&gt;Node30 -->
<g id="edge36" class="edge"><title>Node22&#45;&gt;Node30</title>
<path fill="none" stroke="midnightblue" d="M794.004,-142.461C804.385,-140.27 815.603,-137.976 826,-136 920.321,-118.073 944.654,-117.794 1039,-100 1046.33,-98.6179 1054.06,-97.0856 1061.63,-95.5437"/>
<polygon fill="midnightblue" stroke="midnightblue" points="1062.35,-98.9683 1071.44,-93.5229 1060.94,-92.1123 1062.35,-98.9683"/>
</g>
<!-- Node31 -->
<g id="node31" class="node"><title>Node31</title>
<polygon fill="none" stroke="#bfbfbf" points="944.5,-1 944.5,-31 1095.5,-31 1095.5,-1 944.5,-1"/>
<text text-anchor="start" x="952.5" y="-19" font-family="Helvetica,sans-Serif" font-size="10.00">Math/GenVector/Displacement</text>
<text text-anchor="middle" x="1020" y="-8" font-family="Helvetica,sans-Serif" font-size="10.00">Vector2D.h</text>
</g>
<!-- Node30&#45;&gt;Node31 -->
<g id="edge37" class="edge"><title>Node30&#45;&gt;Node31</title>
<path fill="none" stroke="midnightblue" d="M1099.1,-74.3717C1086.22,-65.0286 1065.22,-49.7966 1048.09,-37.375"/>
<polygon fill="midnightblue" stroke="midnightblue" points="1049.7,-34.2194 1039.55,-31.1815 1045.59,-39.8859 1049.7,-34.2194"/>
</g>
<!-- Node32 -->
<g id="node32" class="node"><title>Node32</title>
<polygon fill="none" stroke="#bfbfbf" points="1114,-6.5 1114,-25.5 1290,-25.5 1290,-6.5 1114,-6.5"/>
<text text-anchor="middle" x="1202" y="-13.5" font-family="Helvetica,sans-Serif" font-size="10.00">Math/GenVector/PositionVector2D.h</text>
</g>
<!-- Node30&#45;&gt;Node32 -->
<g id="edge38" class="edge"><title>Node30&#45;&gt;Node32</title>
<path fill="none" stroke="midnightblue" d="M1122.9,-74.3717C1137.88,-63.5015 1163.86,-44.6602 1181.94,-31.5474"/>
<polygon fill="midnightblue" stroke="midnightblue" points="1184.06,-34.3349 1190.1,-25.6305 1179.95,-28.6684 1184.06,-34.3349"/>
</g>
<!-- Node33&#45;&gt;Node19 -->
<g id="edge44" class="edge"><title>Node33&#45;&gt;Node19</title>
<path fill="none" stroke="midnightblue" d="M1853.47,-272.989C1858.93,-254.098 1871.41,-220.883 1895,-204 1972.72,-148.385 2014.28,-191.179 2107,-168 2110.84,-167.039 2114.83,-165.909 2118.78,-164.708"/>
<polygon fill="midnightblue" stroke="midnightblue" points="2119.93,-168.016 2128.38,-161.63 2117.79,-161.35 2119.93,-168.016"/>
</g>
<!-- Node34 -->
<g id="node34" class="node"><title>Node34</title>
<polygon fill="none" stroke="#bfbfbf" points="1904,-210.5 1904,-229.5 1966,-229.5 1966,-210.5 1904,-210.5"/>
<text text-anchor="middle" x="1935" y="-217.5" font-family="Helvetica,sans-Serif" font-size="10.00">TNamed.h</text>
</g>
<!-- Node33&#45;&gt;Node34 -->
<g id="edge40" class="edge"><title>Node33&#45;&gt;Node34</title>
<path fill="none" stroke="midnightblue" d="M1868.44,-272.679C1882.35,-261.879 1901.39,-247.098 1915.54,-236.11"/>
<polygon fill="midnightblue" stroke="midnightblue" points="1917.88,-238.726 1923.63,-229.828 1913.59,-233.197 1917.88,-238.726"/>
</g>
<!-- Node33&#45;&gt;Node35 -->
<g id="edge41" class="edge"><title>Node33&#45;&gt;Node35</title>
<path fill="none" stroke="midnightblue" d="M1884.53,-272.956C1909.44,-262.787 1943.85,-248.662 1974,-236 1975.83,-235.232 1977.71,-234.438 1979.6,-233.635"/>
<polygon fill="midnightblue" stroke="midnightblue" points="1981.2,-236.758 1989.03,-229.618 1978.46,-230.318 1981.2,-236.758"/>
</g>
<!-- Node36 -->
<g id="node36" class="node"><title>Node36</title>
<polygon fill="none" stroke="#bfbfbf" points="1725.5,-210.5 1725.5,-229.5 1784.5,-229.5 1784.5,-210.5 1725.5,-210.5"/>
<text text-anchor="middle" x="1755" y="-217.5" font-family="Helvetica,sans-Serif" font-size="10.00">stdexcept</text>
</g>
<!-- Node33&#45;&gt;Node36 -->
<g id="edge42" class="edge"><title>Node33&#45;&gt;Node36</title>
<path fill="none" stroke="midnightblue" d="M1829.39,-272.679C1813.6,-261.713 1791.91,-246.645 1776.03,-235.609"/>
<polygon fill="midnightblue" stroke="midnightblue" points="1777.64,-232.469 1767.43,-229.638 1773.65,-238.218 1777.64,-232.469"/>
</g>
<!-- Node37 -->
<g id="node37" class="node"><title>Node37</title>
<polygon fill="none" stroke="#bfbfbf" points="1802.5,-210.5 1802.5,-229.5 1847.5,-229.5 1847.5,-210.5 1802.5,-210.5"/>
<text text-anchor="middle" x="1825" y="-217.5" font-family="Helvetica,sans-Serif" font-size="10.00">gsl/gsl</text>
</g>
<!-- Node33&#45;&gt;Node37 -->
<g id="edge43" class="edge"><title>Node33&#45;&gt;Node37</title>
<path fill="none" stroke="midnightblue" d="M1844.58,-272.679C1840.87,-262.898 1835.93,-249.852 1831.94,-239.315"/>
<polygon fill="midnightblue" stroke="midnightblue" points="1835.16,-237.94 1828.34,-229.828 1828.61,-240.42 1835.16,-237.94"/>
</g>
<!-- Node39 -->
<g id="node39" class="node"><title>Node39</title>
<g id="a_node39"><a xlink:href="../../d7/dcd/MCCompLabel_8h.html" target="_top" xlink:title="SimulationDataFormat\l/MCCompLabel.h">
<polygon fill="none" stroke="black" points="1191,-205 1191,-235 1305,-235 1305,-205 1191,-205"/>
<text text-anchor="start" x="1199" y="-223" font-family="Helvetica,sans-Serif" font-size="10.00">SimulationDataFormat</text>
<text text-anchor="middle" x="1248" y="-212" font-family="Helvetica,sans-Serif" font-size="10.00">/MCCompLabel.h</text>
</a>
</g>
</g>
<!-- Node38&#45;&gt;Node39 -->
<g id="edge46" class="edge"><title>Node38&#45;&gt;Node39</title>
<path fill="none" stroke="midnightblue" d="M1248,-278.372C1248,-269.971 1248,-256.811 1248,-245.213"/>
<polygon fill="midnightblue" stroke="midnightblue" points="1251.5,-245.181 1248,-235.181 1244.5,-245.181 1251.5,-245.181"/>
</g>
<!-- Node39&#45;&gt;Node4 -->
<g id="edge47" class="edge"><title>Node39&#45;&gt;Node4</title>
<path fill="none" stroke="midnightblue" d="M1248,-204.66C1248,-180.32 1248,-130.933 1248,-103.837"/>
<polygon fill="midnightblue" stroke="midnightblue" points="1251.5,-103.727 1248,-93.7275 1244.5,-103.728 1251.5,-103.727"/>
</g>
</g>
</svg>
        <g id="navigator" transform="translate(0 0)" fill="#404254">
                <rect fill="#f2f5e9" fill-opacity="0.5" stroke="#606060" stroke-width=".5" x="0" y="0" width="60" height="60"/>
                <use id="zoomplus" xlink:href="#zoomPlus" x="17" y="9" onmousedown="handleZoom(evt,'in')"/>
                <use id="zoomminus" xlink:href="#zoomMin" x="42" y="9" onmousedown="handleZoom(evt,'out')"/>
                <use id="reset" xlink:href="#resetDef" x="30" y="36" onmousedown="handleReset()"/>
                <g id="arrowUp" xlink:href="#dirArrow" transform="translate(30 24)" onmousedown="handlePan(0,-1)">
                  <use xlink:href="#rim" fill="#404040">
                        <set attributeName="fill" to="#808080" begin="arrowUp.mouseover" end="arrowUp.mouseout"/>
                  </use>
                  <path fill="none" stroke="white" stroke-width="1.5" d="M0,-3.0v7 M-2.5,-0.5L0,-3.0L2.5,-0.5"/>
                </g>
                <g id="arrowRight" xlink:href="#dirArrow" transform="rotate(90) translate(36 -43)" onmousedown="handlePan(1,0)">
                  <use xlink:href="#rim" fill="#404040">
                        <set attributeName="fill" to="#808080" begin="arrowRight.mouseover" end="arrowRight.mouseout"/>
                  </use>
                  <path fill="none" stroke="white" stroke-width="1.5" d="M0,-3.0v7 M-2.5,-0.5L0,-3.0L2.5,-0.5"/>
                </g>
                <g id="arrowDown" xlink:href="#dirArrow" transform="rotate(180) translate(-30 -48)" onmousedown="handlePan(0,1)">
                  <use xlink:href="#rim" fill="#404040">
                        <set attributeName="fill" to="#808080" begin="arrowDown.mouseover" end="arrowDown.mouseout"/>
                  </use>
                  <path fill="none" stroke="white" stroke-width="1.5" d="M0,-3.0v7 M-2.5,-0.5L0,-3.0L2.5,-0.5"/>
                </g>
                <g id="arrowLeft" xlink:href="#dirArrow" transform="rotate(270) translate(-36 17)" onmousedown="handlePan(-1,0)">
                  <use xlink:href="#rim" fill="#404040">
                        <set attributeName="fill" to="#808080" begin="arrowLeft.mouseover" end="arrowLeft.mouseout"/>
                  </use>
                  <path fill="none" stroke="white" stroke-width="1.5" d="M0,-3.0v7 M-2.5,-0.5L0,-3.0L2.5,-0.5"/>
                </g>
        </g>
        <svg viewBox="0 0 15 15" width="100%" height="30px" preserveAspectRatio="xMaxYMin meet">
         <g id="arrow_out" transform="scale(0.3 0.3)">
          <a xlink:href="TOF_2simulation_2src_2Digitizer_8cxx__incl_org.svg" target="_base">
           <rect id="button" ry="5" rx="5" y="6" x="6" height="38" width="38"
                fill="#f2f5e9" fill-opacity="0.5" stroke="#606060" stroke-width="1.0"/>
           <path id="arrow"
             d="M 11.500037,31.436501 C 11.940474,20.09759 22.043105,11.32322 32.158766,21.979434 L 37.068811,17.246167 C 37.068811,17.246167 37.088388,32 37.088388,32 L 22.160133,31.978069 C 22.160133,31.978069 26.997745,27.140456 26.997745,27.140456 C 18.528582,18.264221 13.291696,25.230495 11.500037,31.436501 z"
             style="fill:#404040;"/>
          </a>
         </g>
        </svg>
</svg>
