<?xml version="1.0" encoding="UTF-8" standalone="no"?>
<!DOCTYPE svg PUBLIC "-//W3C//DTD SVG 1.1//EN"
 "http://www.w3.org/Graphics/SVG/1.1/DTD/svg11.dtd">
<!-- Generated by graphviz version 2.36.0 (20140111.2315)
 -->
<!-- Title: /home/travis/build/AliceO2Group/AliceO2/Detectors/ITSMFT/ITS/reconstruction/src/CA/Event.cxx Pages: 1 -->
<!--zoomable 536 -->
<svg id="main" version="1.1" xmlns="http://www.w3.org/2000/svg" xmlns:xlink="http://www.w3.org/1999/xlink" xml:space="preserve" onload="init(evt)">
<style type="text/css"><![CDATA[
.edge:hover path { stroke: red; }
.edge:hover polygon { stroke: red; fill: red; }
]]></style>
<script type="text/javascript"><![CDATA[
var edges = document.getElementsByTagName('g');
if (edges && edges.length) {
  for (var i=0;i<edges.length;i++) {
    if (edges[i].id.substr(0,4)=='edge') {
      edges[i].setAttribute('class','edge');
    }
  }
}
]]></script>
        <defs>
                <circle id="rim" cx="0" cy="0" r="7"/>
                <circle id="rim2" cx="0" cy="0" r="3.5"/>
                <g id="zoomPlus">
                        <use xlink:href="#rim" fill="#404040">
                                <set attributeName="fill" to="#808080" begin="zoomplus.mouseover" end="zoomplus.mouseout"/>
                        </use>
                        <path d="M-4,0h8M0,-4v8" fill="none" stroke="white" stroke-width="1.5" pointer-events="none"/>
                </g>
                <g id="zoomMin">
                        <use xlink:href="#rim" fill="#404040">
                                <set attributeName="fill" to="#808080" begin="zoomminus.mouseover" end="zoomminus.mouseout"/>
                        </use>
                        <path d="M-4,0h8" fill="none" stroke="white" stroke-width="1.5" pointer-events="none"/>
                </g>
                <g id="dirArrow">
                        <path fill="none" stroke="white" stroke-width="1.5" d="M0,-3.0v7 M-2.5,-0.5L0,-3.0L2.5,-0.5"/>
                </g>
               <g id="resetDef">
                       <use xlink:href="#rim2" fill="#404040">
                               <set attributeName="fill" to="#808080" begin="reset.mouseover" end="reset.mouseout"/>
                       </use>
               </g>
        </defs>

<script type="text/javascript">
var viewWidth = 1028;
var viewHeight = 536;
var sectionId = 'dynsection-0';
</script>
<script xlink:href="../../svgpan.js"/>
<svg id="graph" class="graph">
<g id="viewport">
<title>/home/travis/build/AliceO2Group/AliceO2/Detectors/ITSMFT/ITS/reconstruction/src/CA/Event.cxx</title>
<!-- Node1 -->
<g id="node1" class="node"><title>Node1</title>
<polygon fill="#bfbfbf" stroke="black" points="548.664,-464.5 548.664,-527.5 668.664,-527.5 668.664,-464.5 548.664,-464.5"/>
<text text-anchor="start" x="556.664" y="-515.5" font-family="Helvetica,sans-Serif" font-size="10.00">/home/travis/build</text>
<text text-anchor="start" x="556.664" y="-504.5" font-family="Helvetica,sans-Serif" font-size="10.00">/AliceO2Group/AliceO2</text>
<text text-anchor="start" x="556.664" y="-493.5" font-family="Helvetica,sans-Serif" font-size="10.00">/Detectors/ITSMFT/ITS</text>
<text text-anchor="start" x="556.664" y="-482.5" font-family="Helvetica,sans-Serif" font-size="10.00">/reconstruction/src/CA</text>
<text text-anchor="middle" x="608.664" y="-471.5" font-family="Helvetica,sans-Serif" font-size="10.00">/Event.cxx</text>
</g>
<!-- Node2 -->
<g id="node2" class="node"><title>Node2</title>
<g id="a_node2"><a xlink:href="../../d6/d8d/Event_8h.html" target="_top" xlink:title="ITSReconstruction/CA\l/Event.h">
<polygon fill="none" stroke="black" points="499.664,-397 499.664,-427 615.664,-427 615.664,-397 499.664,-397"/>
<text text-anchor="start" x="507.664" y="-415" font-family="Helvetica,sans-Serif" font-size="10.00">ITSReconstruction/CA</text>
<text text-anchor="middle" x="557.664" y="-404" font-family="Helvetica,sans-Serif" font-size="10.00">/Event.h</text>
</a>
</g>
</g>
<!-- Node1&#45;&gt;Node2 -->
<g id="edge1" class="edge"><title>Node1&#45;&gt;Node2</title>
<path fill="none" stroke="midnightblue" d="M589.674,-464.466C583.788,-455.004 577.407,-444.744 571.902,-435.893"/>
<polygon fill="midnightblue" stroke="midnightblue" points="574.794,-433.915 566.54,-427.272 568.85,-437.612 574.794,-433.915"/>
</g>
<!-- Node22 -->
<g id="node22" class="node"><title>Node22</title>
<polygon fill="none" stroke="#bfbfbf" points="633.664,-402.5 633.664,-421.5 687.664,-421.5 687.664,-402.5 633.664,-402.5"/>
<text text-anchor="middle" x="660.664" y="-409.5" font-family="Helvetica,sans-Serif" font-size="10.00">iostream</text>
</g>
<!-- Node1&#45;&gt;Node22 -->
<g id="edge37" class="edge"><title>Node1&#45;&gt;Node22</title>
<path fill="none" stroke="midnightblue" d="M628.027,-464.466C635.379,-452.872 643.491,-440.081 649.788,-430.151"/>
<polygon fill="midnightblue" stroke="midnightblue" points="652.786,-431.959 655.185,-421.64 646.874,-428.21 652.786,-431.959"/>
</g>
<!-- Node3 -->
<g id="node3" class="node"><title>Node3</title>
<polygon fill="none" stroke="#bfbfbf" points="117.664,-0.5 117.664,-19.5 155.664,-19.5 155.664,-0.5 117.664,-0.5"/>
<text text-anchor="middle" x="136.664" y="-7.5" font-family="Helvetica,sans-Serif" font-size="10.00">array</text>
</g>
<!-- Node2&#45;&gt;Node3 -->
<g id="edge2" class="edge"><title>Node2&#45;&gt;Node3</title>
<path fill="none" stroke="midnightblue" d="M574.26,-396.783C598.74,-374.13 641.664,-327.246 641.664,-277 641.664,-277 641.664,-277 641.664,-139 641.664,-40.1894 273.79,-16.8053 166.004,-12.0745"/>
<polygon fill="midnightblue" stroke="midnightblue" points="165.981,-8.57061 155.844,-11.6508 165.69,-15.5645 165.981,-8.57061"/>
</g>
<!-- Node4 -->
<g id="node4" class="node"><title>Node4</title>
<polygon fill="none" stroke="#bfbfbf" points="350.664,-130.5 350.664,-149.5 394.664,-149.5 394.664,-130.5 350.664,-130.5"/>
<text text-anchor="middle" x="372.664" y="-137.5" font-family="Helvetica,sans-Serif" font-size="10.00">vector</text>
</g>
<!-- Node2&#45;&gt;Node4 -->
<g id="edge3" class="edge"><title>Node2&#45;&gt;Node4</title>
<path fill="none" stroke="midnightblue" d="M499.498,-403.3C449.467,-395.342 382.866,-381.095 366.664,-360 320.302,-299.634 350.09,-199.822 365.304,-159.121"/>
<polygon fill="midnightblue" stroke="midnightblue" points="368.606,-160.285 368.968,-149.697 362.082,-157.748 368.606,-160.285"/>
</g>
<!-- Node5 -->
<g id="node5" class="node"><title>Node5</title>
<polygon fill="none" stroke="#bfbfbf" points="413.664,-130.5 413.664,-149.5 453.664,-149.5 453.664,-130.5 413.664,-130.5"/>
<text text-anchor="middle" x="433.664" y="-137.5" font-family="Helvetica,sans-Serif" font-size="10.00">utility</text>
</g>
<!-- Node2&#45;&gt;Node5 -->
<g id="edge4" class="edge"><title>Node2&#45;&gt;Node5</title>
<path fill="none" stroke="midnightblue" d="M548.682,-396.719C535.083,-374.75 508.921,-331.098 490.664,-292 468.903,-245.398 449.044,-187.996 439.547,-159.239"/>
<polygon fill="midnightblue" stroke="midnightblue" points="442.864,-158.121 436.432,-149.702 436.21,-160.295 442.864,-158.121"/>
</g>
<!-- Node6 -->
<g id="node6" class="node"><title>Node6</title>
<polygon fill="none" stroke="#bfbfbf" points="670.164,-266.5 670.164,-285.5 719.164,-285.5 719.164,-266.5 670.164,-266.5"/>
<text text-anchor="middle" x="694.664" y="-273.5" font-family="Helvetica,sans-Serif" font-size="10.00">cassert</text>
</g>
<!-- Node2&#45;&gt;Node6 -->
<g id="edge5" class="edge"><title>Node2&#45;&gt;Node6</title>
<path fill="none" stroke="midnightblue" d="M598.241,-396.96C617.568,-388.641 639.856,-376.463 655.664,-360 673.28,-341.654 684.097,-313.884 689.741,-295.596"/>
<polygon fill="midnightblue" stroke="midnightblue" points="693.148,-296.412 692.54,-285.834 686.419,-294.482 693.148,-296.412"/>
</g>
<!-- Node7 -->
<g id="node7" class="node"><title>Node7</title>
<polygon fill="none" stroke="#bfbfbf" points="737.164,-266.5 737.164,-285.5 782.164,-285.5 782.164,-266.5 737.164,-266.5"/>
<text text-anchor="middle" x="759.664" y="-273.5" font-family="Helvetica,sans-Serif" font-size="10.00">gsl/gsl</text>
</g>
<!-- Node2&#45;&gt;Node7 -->
<g id="edge6" class="edge"><title>Node2&#45;&gt;Node7</title>
<path fill="none" stroke="midnightblue" d="M604.078,-396.932C628.15,-388.393 657.317,-376.026 680.664,-360 707.726,-341.424 732.722,-312.313 747.072,-293.965"/>
<polygon fill="midnightblue" stroke="midnightblue" points="749.933,-295.986 753.225,-285.916 744.371,-291.735 749.933,-295.986"/>
</g>
<!-- Node8 -->
<g id="node8" class="node"><title>Node8</title>
<g id="a_node8"><a xlink:href="../../d5/d20/Detectors_2ITSMFT_2ITS_2reconstruction_2include_2ITSReconstruction_2CA_2Constants_8h.html" target="_top" xlink:title="ITSReconstruction/CA\l/Constants.h">
<polygon fill="none" stroke="black" points="140.664,-125 140.664,-155 256.664,-155 256.664,-125 140.664,-125"/>
<text text-anchor="start" x="148.664" y="-143" font-family="Helvetica,sans-Serif" font-size="10.00">ITSReconstruction/CA</text>
<text text-anchor="middle" x="198.664" y="-132" font-family="Helvetica,sans-Serif" font-size="10.00">/Constants.h</text>
</a>
</g>
</g>
<!-- Node2&#45;&gt;Node8 -->
<g id="edge7" class="edge"><title>Node2&#45;&gt;Node8</title>
<path fill="none" stroke="midnightblue" d="M499.641,-405.275C455.51,-399.012 394.442,-386.132 346.664,-360 269.995,-318.067 241.852,-303.08 204.664,-224 196.09,-205.768 195.077,-182.77 195.932,-165.608"/>
<polygon fill="midnightblue" stroke="midnightblue" points="199.448,-165.515 196.702,-155.283 192.468,-164.994 199.448,-165.515"/>
</g>
<!-- Node11 -->
<g id="node11" class="node"><title>Node11</title>
<g id="a_node11"><a xlink:href="../../dc/dca/Layer_8h.html" target="_top" xlink:title="ITSReconstruction/CA\l/Layer.h">
<polygon fill="none" stroke="black" points="375.664,-329 375.664,-359 491.664,-359 491.664,-329 375.664,-329"/>
<text text-anchor="start" x="383.664" y="-347" font-family="Helvetica,sans-Serif" font-size="10.00">ITSReconstruction/CA</text>
<text text-anchor="middle" x="433.664" y="-336" font-family="Helvetica,sans-Serif" font-size="10.00">/Layer.h</text>
</a>
</g>
</g>
<!-- Node2&#45;&gt;Node11 -->
<g id="edge11" class="edge"><title>Node2&#45;&gt;Node11</title>
<path fill="none" stroke="midnightblue" d="M531.063,-396.841C513.002,-387.228 488.913,-374.407 469.211,-363.92"/>
<polygon fill="midnightblue" stroke="midnightblue" points="470.693,-360.744 460.221,-359.135 467.404,-366.923 470.693,-360.744"/>
</g>
<!-- Node16 -->
<g id="node16" class="node"><title>Node16</title>
<g id="a_node16"><a xlink:href="../../d7/dcd/MCCompLabel_8h.html" target="_top" xlink:title="SimulationDataFormat\l/MCCompLabel.h">
<polygon fill="none" stroke="black" points="499.664,-261 499.664,-291 613.664,-291 613.664,-261 499.664,-261"/>
<text text-anchor="start" x="507.664" y="-279" font-family="Helvetica,sans-Serif" font-size="10.00">SimulationDataFormat</text>
<text text-anchor="middle" x="556.664" y="-268" font-family="Helvetica,sans-Serif" font-size="10.00">/MCCompLabel.h</text>
</a>
</g>
</g>
<!-- Node2&#45;&gt;Node16 -->
<g id="edge30" class="edge"><title>Node2&#45;&gt;Node16</title>
<path fill="none" stroke="midnightblue" d="M557.557,-396.66C557.387,-373.891 557.054,-329.203 556.846,-301.349"/>
<polygon fill="midnightblue" stroke="midnightblue" points="560.345,-301.211 556.77,-291.237 553.345,-301.263 560.345,-301.211"/>
</g>
<!-- Node18 -->
<g id="node18" class="node"><title>Node18</title>
<g id="a_node18"><a xlink:href="../../db/d14/MCTruthContainer_8h.html" target="_top" xlink:title="Definition of a container to keep Monte Carlo truth external to simulation objects. ">
<polygon fill="none" stroke="black" points="770.664,-329 770.664,-359 884.664,-359 884.664,-329 770.664,-329"/>
<text text-anchor="start" x="778.664" y="-347" font-family="Helvetica,sans-Serif" font-size="10.00">SimulationDataFormat</text>
<text text-anchor="middle" x="827.664" y="-336" font-family="Helvetica,sans-Serif" font-size="10.00">/MCTruthContainer.h</text>
</a>
</g>
</g>
<!-- Node2&#45;&gt;Node18 -->
<g id="edge31" class="edge"><title>Node2&#45;&gt;Node18</title>
<path fill="none" stroke="midnightblue" d="M615.255,-396.922C657.874,-386.504 716.041,-372.286 760.73,-361.362"/>
<polygon fill="midnightblue" stroke="midnightblue" points="761.743,-364.717 770.626,-358.943 760.081,-357.917 761.743,-364.717"/>
</g>
<!-- Node9 -->
<g id="node9" class="node"><title>Node9</title>
<polygon fill="none" stroke="#bfbfbf" points="213.164,-62.5 213.164,-81.5 258.164,-81.5 258.164,-62.5 213.164,-62.5"/>
<text text-anchor="middle" x="235.664" y="-69.5" font-family="Helvetica,sans-Serif" font-size="10.00">climits</text>
</g>
<!-- Node8&#45;&gt;Node9 -->
<g id="edge8" class="edge"><title>Node8&#45;&gt;Node9</title>
<path fill="none" stroke="midnightblue" d="M206.693,-124.679C212.29,-114.694 219.795,-101.307 225.764,-90.6596"/>
<polygon fill="midnightblue" stroke="midnightblue" points="228.878,-92.2627 230.715,-81.8283 222.772,-88.8396 228.878,-92.2627"/>
</g>
<!-- Node10 -->
<g id="node10" class="node"><title>Node10</title>
<g id="a_node10"><a xlink:href="../../df/d3d/Definitions_8h.html" target="_top" xlink:title="ITSReconstruction/CA\l/Definitions.h">
<polygon fill="none" stroke="black" points="78.6641,-57 78.6641,-87 194.664,-87 194.664,-57 78.6641,-57"/>
<text text-anchor="start" x="86.6641" y="-75" font-family="Helvetica,sans-Serif" font-size="10.00">ITSReconstruction/CA</text>
<text text-anchor="middle" x="136.664" y="-64" font-family="Helvetica,sans-Serif" font-size="10.00">/Definitions.h</text>
</a>
</g>
</g>
<!-- Node8&#45;&gt;Node10 -->
<g id="edge9" class="edge"><title>Node8&#45;&gt;Node10</title>
<path fill="none" stroke="midnightblue" d="M185.211,-124.679C177.005,-115.944 166.354,-104.605 157.119,-94.7747"/>
<polygon fill="midnightblue" stroke="midnightblue" points="159.489,-92.1852 150.091,-87.2931 154.387,-96.978 159.489,-92.1852"/>
</g>
<!-- Node10&#45;&gt;Node3 -->
<g id="edge10" class="edge"><title>Node10&#45;&gt;Node3</title>
<path fill="none" stroke="midnightblue" d="M136.664,-56.7808C136.664,-48.7812 136.664,-38.6887 136.664,-30.0168"/>
<polygon fill="midnightblue" stroke="midnightblue" points="140.164,-29.7305 136.664,-19.7305 133.164,-29.7306 140.164,-29.7305"/>
</g>
<!-- Node11&#45;&gt;Node4 -->
<g id="edge12" class="edge"><title>Node11&#45;&gt;Node4</title>
<path fill="none" stroke="midnightblue" d="M429.375,-328.796C418.567,-293.006 390.225,-199.151 378.193,-159.309"/>
<polygon fill="midnightblue" stroke="midnightblue" points="381.502,-158.158 375.26,-149.597 374.801,-160.182 381.502,-158.158"/>
</g>
<!-- Node11&#45;&gt;Node5 -->
<g id="edge13" class="edge"><title>Node11&#45;&gt;Node5</title>
<path fill="none" stroke="midnightblue" d="M433.664,-328.796C433.664,-293.159 433.664,-199.952 433.664,-159.823"/>
<polygon fill="midnightblue" stroke="midnightblue" points="437.164,-159.597 433.664,-149.597 430.164,-159.597 437.164,-159.597"/>
</g>
<!-- Node11&#45;&gt;Node10 -->
<g id="edge27" class="edge"><title>Node11&#45;&gt;Node10</title>
<path fill="none" stroke="midnightblue" d="M375.42,-339.551C269.993,-332.739 56.197,-316.103 32.6641,-292 -19.5902,-238.48 -3.1569,-183.121 42.6641,-124 53.598,-109.892 69.5755,-99.1884 85.2668,-91.3212"/>
<polygon fill="midnightblue" stroke="midnightblue" points="86.8714,-94.4344 94.4323,-87.0126 83.8933,-88.0995 86.8714,-94.4344"/>
</g>
<!-- Node12 -->
<g id="node12" class="node"><title>Node12</title>
<g id="a_node12"><a xlink:href="../../d6/d7c/Detectors_2ITSMFT_2ITS_2reconstruction_2include_2ITSReconstruction_2CA_2Cluster_8h.html" target="_top" xlink:title="ITSReconstruction/CA\l/Cluster.h">
<polygon fill="none" stroke="black" points="41.6641,-261 41.6641,-291 157.664,-291 157.664,-261 41.6641,-261"/>
<text text-anchor="start" x="49.6641" y="-279" font-family="Helvetica,sans-Serif" font-size="10.00">ITSReconstruction/CA</text>
<text text-anchor="middle" x="99.6641" y="-268" font-family="Helvetica,sans-Serif" font-size="10.00">/Cluster.h</text>
</a>
</g>
</g>
<!-- Node11&#45;&gt;Node12 -->
<g id="edge14" class="edge"><title>Node11&#45;&gt;Node12</title>
<path fill="none" stroke="midnightblue" d="M375.486,-331.504C317.592,-320.064 228.794,-302.517 167.675,-290.439"/>
<polygon fill="midnightblue" stroke="midnightblue" points="168.224,-286.98 157.735,-288.475 166.867,-293.847 168.224,-286.98"/>
</g>
<!-- Node11&#45;&gt;Node16 -->
<g id="edge28" class="edge"><title>Node11&#45;&gt;Node16</title>
<path fill="none" stroke="midnightblue" d="M460.051,-328.841C477.966,-319.228 501.861,-306.407 521.404,-295.92"/>
<polygon fill="midnightblue" stroke="midnightblue" points="523.164,-298.948 530.321,-291.135 519.855,-292.779 523.164,-298.948"/>
</g>
<!-- Node12&#45;&gt;Node3 -->
<g id="edge15" class="edge"><title>Node12&#45;&gt;Node3</title>
<path fill="none" stroke="midnightblue" d="M66.1868,-260.938C50.8957,-252.613 34.2987,-240.437 25.6641,-224 19.0502,-211.409 24.1729,-206.144 25.6641,-192 32.1443,-130.537 17.7808,-105.591 54.6641,-56 67.8289,-38.2994 90.1116,-26.7131 108.129,-19.7361"/>
<polygon fill="midnightblue" stroke="midnightblue" points="109.389,-23.0025 117.614,-16.3247 107.02,-16.4155 109.389,-23.0025"/>
</g>
<!-- Node12&#45;&gt;Node10 -->
<g id="edge16" class="edge"><title>Node12&#45;&gt;Node10</title>
<path fill="none" stroke="midnightblue" d="M70.3194,-260.843C56.1708,-252.312 40.5831,-239.98 32.6641,-224 26.3491,-211.257 29.1571,-205.783 32.6641,-192 41.1483,-158.656 47.2566,-150.11 69.6641,-124 79.7,-112.306 92.8312,-101.595 104.807,-93.0407"/>
<polygon fill="midnightblue" stroke="midnightblue" points="107.017,-95.7681 113.262,-87.2095 103.043,-90.0056 107.017,-95.7681"/>
</g>
<!-- Node13 -->
<g id="node13" class="node"><title>Node13</title>
<g id="a_node13"><a xlink:href="../../dc/d3e/MathUtils_8h.html" target="_top" xlink:title="ITSReconstruction/CA\l/MathUtils.h">
<polygon fill="none" stroke="black" points="41.6641,-193 41.6641,-223 157.664,-223 157.664,-193 41.6641,-193"/>
<text text-anchor="start" x="49.6641" y="-211" font-family="Helvetica,sans-Serif" font-size="10.00">ITSReconstruction/CA</text>
<text text-anchor="middle" x="99.6641" y="-200" font-family="Helvetica,sans-Serif" font-size="10.00">/MathUtils.h</text>
</a>
</g>
</g>
<!-- Node12&#45;&gt;Node13 -->
<g id="edge17" class="edge"><title>Node12&#45;&gt;Node13</title>
<path fill="none" stroke="midnightblue" d="M99.6641,-260.679C99.6641,-252.722 99.6641,-242.605 99.6641,-233.436"/>
<polygon fill="midnightblue" stroke="midnightblue" points="103.164,-233.293 99.6641,-223.293 96.1642,-233.293 103.164,-233.293"/>
</g>
<!-- Node15 -->
<g id="node15" class="node"><title>Node15</title>
<g id="a_node15"><a xlink:href="../../d2/d0c/IndexTableUtils_8h.html" target="_top" xlink:title="ITSReconstruction/CA\l/IndexTableUtils.h">
<polygon fill="none" stroke="black" points="213.664,-193 213.664,-223 329.664,-223 329.664,-193 213.664,-193"/>
<text text-anchor="start" x="221.664" y="-211" font-family="Helvetica,sans-Serif" font-size="10.00">ITSReconstruction/CA</text>
<text text-anchor="middle" x="271.664" y="-200" font-family="Helvetica,sans-Serif" font-size="10.00">/IndexTableUtils.h</text>
</a>
</g>
</g>
<!-- Node12&#45;&gt;Node15 -->
<g id="edge21" class="edge"><title>Node12&#45;&gt;Node15</title>
<path fill="none" stroke="midnightblue" d="M136.562,-260.841C162.611,-250.846 197.697,-237.383 225.585,-226.682"/>
<polygon fill="midnightblue" stroke="midnightblue" points="227.04,-229.872 235.122,-223.022 224.532,-223.337 227.04,-229.872"/>
</g>
<!-- Node13&#45;&gt;Node3 -->
<g id="edge18" class="edge"><title>Node13&#45;&gt;Node3</title>
<path fill="none" stroke="midnightblue" d="M88.4882,-192.773C81.5721,-183.031 73.3348,-169.48 69.6641,-156 57.9867,-113.117 48.76,-95.2215 69.6641,-56 77.8816,-40.5819 93.9885,-29.5076 108.35,-22.2034"/>
<polygon fill="midnightblue" stroke="midnightblue" points="109.869,-25.3567 117.435,-17.9401 106.896,-19.0198 109.869,-25.3567"/>
</g>
<!-- Node13&#45;&gt;Node8 -->
<g id="edge20" class="edge"><title>Node13&#45;&gt;Node8</title>
<path fill="none" stroke="midnightblue" d="M121.146,-192.679C135.122,-183.361 153.542,-171.082 168.919,-160.83"/>
<polygon fill="midnightblue" stroke="midnightblue" points="171.186,-163.526 177.565,-155.066 167.303,-157.701 171.186,-163.526"/>
</g>
<!-- Node14 -->
<g id="node14" class="node"><title>Node14</title>
<polygon fill="none" stroke="#bfbfbf" points="78.6641,-130.5 78.6641,-149.5 122.664,-149.5 122.664,-130.5 78.6641,-130.5"/>
<text text-anchor="middle" x="100.664" y="-137.5" font-family="Helvetica,sans-Serif" font-size="10.00">cmath</text>
</g>
<!-- Node13&#45;&gt;Node14 -->
<g id="edge19" class="edge"><title>Node13&#45;&gt;Node14</title>
<path fill="none" stroke="midnightblue" d="M99.8811,-192.679C100.026,-183.101 100.219,-170.394 100.377,-159.977"/>
<polygon fill="midnightblue" stroke="midnightblue" points="103.878,-159.88 100.53,-149.828 96.8792,-159.774 103.878,-159.88"/>
</g>
<!-- Node15&#45;&gt;Node3 -->
<g id="edge22" class="edge"><title>Node15&#45;&gt;Node3</title>
<path fill="none" stroke="midnightblue" d="M276.591,-192.67C285.828,-162.876 301.816,-93.8728 266.664,-56 240.472,-27.7812 195.719,-17.2577 166.166,-13.3334"/>
<polygon fill="midnightblue" stroke="midnightblue" points="166.363,-9.83302 156.028,-12.1656 165.562,-16.787 166.363,-9.83302"/>
</g>
<!-- Node15&#45;&gt;Node4 -->
<g id="edge24" class="edge"><title>Node15&#45;&gt;Node4</title>
<path fill="none" stroke="midnightblue" d="M293.58,-192.679C310.517,-181.611 333.851,-166.363 350.781,-155.3"/>
<polygon fill="midnightblue" stroke="midnightblue" points="352.989,-158.038 359.446,-149.638 349.16,-152.178 352.989,-158.038"/>
</g>
<!-- Node15&#45;&gt;Node5 -->
<g id="edge23" class="edge"><title>Node15&#45;&gt;Node5</title>
<path fill="none" stroke="midnightblue" d="M310.11,-192.951C336.392,-183.124 371.9,-169.406 402.664,-156 404.069,-155.388 405.503,-154.748 406.946,-154.092"/>
<polygon fill="midnightblue" stroke="midnightblue" points="408.833,-157.073 416.397,-149.654 405.858,-150.737 408.833,-157.073"/>
</g>
<!-- Node15&#45;&gt;Node8 -->
<g id="edge25" class="edge"><title>Node15&#45;&gt;Node8</title>
<path fill="none" stroke="midnightblue" d="M255.824,-192.679C245.904,-183.71 232.947,-171.996 221.878,-161.988"/>
<polygon fill="midnightblue" stroke="midnightblue" points="223.987,-159.177 214.222,-155.066 219.293,-164.369 223.987,-159.177"/>
</g>
<!-- Node15&#45;&gt;Node10 -->
<g id="edge26" class="edge"><title>Node15&#45;&gt;Node10</title>
<path fill="none" stroke="midnightblue" d="M274.632,-192.821C277.521,-174.937 279.562,-144.098 264.664,-124 255.833,-112.087 225.533,-99.7505 196.63,-90.1953"/>
<polygon fill="midnightblue" stroke="midnightblue" points="197.506,-86.8005 186.914,-87.0661 195.36,-93.4634 197.506,-86.8005"/>
</g>
<!-- Node17 -->
<g id="node17" class="node"><title>Node17</title>
<polygon fill="none" stroke="#bfbfbf" points="528.664,-198.5 528.664,-217.5 584.664,-217.5 584.664,-198.5 528.664,-198.5"/>
<text text-anchor="middle" x="556.664" y="-205.5" font-family="Helvetica,sans-Serif" font-size="10.00">Rtypes.h</text>
</g>
<!-- Node16&#45;&gt;Node17 -->
<g id="edge29" class="edge"><title>Node16&#45;&gt;Node17</title>
<path fill="none" stroke="midnightblue" d="M556.664,-260.679C556.664,-251.101 556.664,-238.394 556.664,-227.977"/>
<polygon fill="midnightblue" stroke="midnightblue" points="560.164,-227.828 556.664,-217.828 553.164,-227.828 560.164,-227.828"/>
</g>
<!-- Node18&#45;&gt;Node6 -->
<g id="edge33" class="edge"><title>Node18&#45;&gt;Node6</title>
<path fill="none" stroke="midnightblue" d="M799.132,-328.841C776.024,-317.374 743.717,-301.342 721.17,-290.153"/>
<polygon fill="midnightblue" stroke="midnightblue" points="722.673,-286.992 712.159,-285.682 719.561,-293.262 722.673,-286.992"/>
</g>
<!-- Node18&#45;&gt;Node7 -->
<g id="edge35" class="edge"><title>Node18&#45;&gt;Node7</title>
<path fill="none" stroke="midnightblue" d="M812.909,-328.679C802.097,-318.184 787.412,-303.932 776.203,-293.052"/>
<polygon fill="midnightblue" stroke="midnightblue" points="778.373,-290.282 768.76,-285.828 773.498,-295.305 778.373,-290.282"/>
</g>
<!-- Node19 -->
<g id="node19" class="node"><title>Node19</title>
<polygon fill="none" stroke="#bfbfbf" points="880.664,-266.5 880.664,-285.5 942.664,-285.5 942.664,-266.5 880.664,-266.5"/>
<text text-anchor="middle" x="911.664" y="-273.5" font-family="Helvetica,sans-Serif" font-size="10.00">TNamed.h</text>
</g>
<!-- Node18&#45;&gt;Node19 -->
<g id="edge32" class="edge"><title>Node18&#45;&gt;Node19</title>
<path fill="none" stroke="midnightblue" d="M845.891,-328.679C859.637,-317.879 878.448,-303.098 892.433,-292.11"/>
<polygon fill="midnightblue" stroke="midnightblue" points="894.727,-294.759 900.428,-285.828 890.403,-289.254 894.727,-294.759"/>
</g>
<!-- Node20 -->
<g id="node20" class="node"><title>Node20</title>
<polygon fill="none" stroke="#bfbfbf" points="961.164,-266.5 961.164,-285.5 1020.16,-285.5 1020.16,-266.5 961.164,-266.5"/>
<text text-anchor="middle" x="990.664" y="-273.5" font-family="Helvetica,sans-Serif" font-size="10.00">stdexcept</text>
</g>
<!-- Node18&#45;&gt;Node20 -->
<g id="edge34" class="edge"><title>Node18&#45;&gt;Node20</title>
<path fill="none" stroke="midnightblue" d="M862.632,-328.841C891.458,-317.169 931.964,-300.768 959.649,-289.558"/>
<polygon fill="midnightblue" stroke="midnightblue" points="961.267,-292.679 969.223,-285.682 958.64,-286.191 961.267,-292.679"/>
</g>
<!-- Node21 -->
<g id="node21" class="node"><title>Node21</title>
<polygon fill="none" stroke="#bfbfbf" points="800.664,-266.5 800.664,-285.5 862.664,-285.5 862.664,-266.5 800.664,-266.5"/>
<text text-anchor="middle" x="831.664" y="-273.5" font-family="Helvetica,sans-Serif" font-size="10.00">type_traits</text>
</g>
<!-- Node18&#45;&gt;Node21 -->
<g id="edge36" class="edge"><title>Node18&#45;&gt;Node21</title>
<path fill="none" stroke="midnightblue" d="M828.532,-328.679C829.113,-319.101 829.883,-306.394 830.514,-295.977"/>
<polygon fill="midnightblue" stroke="midnightblue" points="834.018,-296.022 831.129,-285.828 827.03,-295.598 834.018,-296.022"/>
</g>
</g>
</svg>
        <g id="navigator" transform="translate(0 0)" fill="#404254">
                <rect fill="#f2f5e9" fill-opacity="0.5" stroke="#606060" stroke-width=".5" x="0" y="0" width="60" height="60"/>
                <use id="zoomplus" xlink:href="#zoomPlus" x="17" y="9" onmousedown="handleZoom(evt,'in')"/>
                <use id="zoomminus" xlink:href="#zoomMin" x="42" y="9" onmousedown="handleZoom(evt,'out')"/>
                <use id="reset" xlink:href="#resetDef" x="30" y="36" onmousedown="handleReset()"/>
                <g id="arrowUp" xlink:href="#dirArrow" transform="translate(30 24)" onmousedown="handlePan(0,-1)">
                  <use xlink:href="#rim" fill="#404040">
                        <set attributeName="fill" to="#808080" begin="arrowUp.mouseover" end="arrowUp.mouseout"/>
                  </use>
                  <path fill="none" stroke="white" stroke-width="1.5" d="M0,-3.0v7 M-2.5,-0.5L0,-3.0L2.5,-0.5"/>
                </g>
                <g id="arrowRight" xlink:href="#dirArrow" transform="rotate(90) translate(36 -43)" onmousedown="handlePan(1,0)">
                  <use xlink:href="#rim" fill="#404040">
                        <set attributeName="fill" to="#808080" begin="arrowRight.mouseover" end="arrowRight.mouseout"/>
                  </use>
                  <path fill="none" stroke="white" stroke-width="1.5" d="M0,-3.0v7 M-2.5,-0.5L0,-3.0L2.5,-0.5"/>
                </g>
                <g id="arrowDown" xlink:href="#dirArrow" transform="rotate(180) translate(-30 -48)" onmousedown="handlePan(0,1)">
                  <use xlink:href="#rim" fill="#404040">
                        <set attributeName="fill" to="#808080" begin="arrowDown.mouseover" end="arrowDown.mouseout"/>
                  </use>
                  <path fill="none" stroke="white" stroke-width="1.5" d="M0,-3.0v7 M-2.5,-0.5L0,-3.0L2.5,-0.5"/>
                </g>
                <g id="arrowLeft" xlink:href="#dirArrow" transform="rotate(270) translate(-36 17)" onmousedown="handlePan(-1,0)">
                  <use xlink:href="#rim" fill="#404040">
                        <set attributeName="fill" to="#808080" begin="arrowLeft.mouseover" end="arrowLeft.mouseout"/>
                  </use>
                  <path fill="none" stroke="white" stroke-width="1.5" d="M0,-3.0v7 M-2.5,-0.5L0,-3.0L2.5,-0.5"/>
                </g>
        </g>
        <svg viewBox="0 0 15 15" width="100%" height="30px" preserveAspectRatio="xMaxYMin meet">
         <g id="arrow_out" transform="scale(0.3 0.3)">
          <a xlink:href="Event_8cxx__incl_org.svg" target="_base">
           <rect id="button" ry="5" rx="5" y="6" x="6" height="38" width="38"
                fill="#f2f5e9" fill-opacity="0.5" stroke="#606060" stroke-width="1.0"/>
           <path id="arrow"
             d="M 11.500037,31.436501 C 11.940474,20.09759 22.043105,11.32322 32.158766,21.979434 L 37.068811,17.246167 C 37.068811,17.246167 37.088388,32 37.088388,32 L 22.160133,31.978069 C 22.160133,31.978069 26.997745,27.140456 26.997745,27.140456 C 18.528582,18.264221 13.291696,25.230495 11.500037,31.436501 z"
             style="fill:#404040;"/>
          </a>
         </g>
        </svg>
</svg>
