<?xml version="1.0" encoding="UTF-8" standalone="no"?>
<!DOCTYPE svg PUBLIC "-//W3C//DTD SVG 1.1//EN"
 "http://www.w3.org/Graphics/SVG/1.1/DTD/svg11.dtd">
<!-- Generated by graphviz version 2.36.0 (20140111.2315)
 -->
<!-- Title: /home/travis/build/AliceO2Group/AliceO2/DataFormats/TimeFrame/test/TimeFrameTest.cxx Pages: 1 -->
<svg width="678pt" height="286pt"
 viewBox="0.00 0.00 678.00 286.00" xmlns="http://www.w3.org/2000/svg" xmlns:xlink="http://www.w3.org/1999/xlink">
<g id="graph0" class="graph" transform="scale(1 1) rotate(0) translate(4 282)">
<title>/home/travis/build/AliceO2Group/AliceO2/DataFormats/TimeFrame/test/TimeFrameTest.cxx</title>
<!-- Node1 -->
<g id="node1" class="node"><title>Node1</title>
<polygon fill="#bfbfbf" stroke="black" points="266.5,-225 266.5,-277 395.5,-277 395.5,-225 266.5,-225"/>
<text text-anchor="start" x="274.5" y="-265" font-family="Helvetica,sans-Serif" font-size="10.00">/home/travis/build</text>
<text text-anchor="start" x="274.5" y="-254" font-family="Helvetica,sans-Serif" font-size="10.00">/AliceO2Group/AliceO2</text>
<text text-anchor="start" x="274.5" y="-243" font-family="Helvetica,sans-Serif" font-size="10.00">/DataFormats/TimeFrame</text>
<text text-anchor="middle" x="331" y="-232" font-family="Helvetica,sans-Serif" font-size="10.00">/test/TimeFrameTest.cxx</text>
</g>
<!-- Node2 -->
<g id="node2" class="node"><title>Node2</title>
<polygon fill="none" stroke="#bfbfbf" points="-0.5,-168.5 -0.5,-187.5 118.5,-187.5 118.5,-168.5 -0.5,-168.5"/>
<text text-anchor="middle" x="59" y="-175.5" font-family="Helvetica,sans-Serif" font-size="10.00">boost/test/unit_test.hpp</text>
</g>
<!-- Node1&#45;&gt;Node2 -->
<g id="edge1" class="edge"><title>Node1&#45;&gt;Node2</title>
<path fill="none" stroke="midnightblue" d="M266.195,-233.084C215.173,-219.766 145.532,-201.587 101.41,-190.07"/>
<polygon fill="midnightblue" stroke="midnightblue" points="102.145,-186.645 91.5847,-187.506 100.376,-193.418 102.145,-186.645"/>
</g>
<!-- Node3 -->
<g id="node3" class="node"><title>Node3</title>
<g id="a_node3"><a xlink:href="../../de/dfa/TimeFrame_8h.html" target="_top" xlink:title="TimeFrame/TimeFrame.h">
<polygon fill="none" stroke="black" points="175.5,-168.5 175.5,-187.5 302.5,-187.5 302.5,-168.5 175.5,-168.5"/>
<text text-anchor="middle" x="239" y="-175.5" font-family="Helvetica,sans-Serif" font-size="10.00">TimeFrame/TimeFrame.h</text>
</a>
</g>
</g>
<!-- Node1&#45;&gt;Node3 -->
<g id="edge2" class="edge"><title>Node1&#45;&gt;Node3</title>
<path fill="none" stroke="midnightblue" d="M298.564,-224.968C285.207,-214.66 270.175,-203.059 258.553,-194.09"/>
<polygon fill="midnightblue" stroke="midnightblue" points="260.47,-191.148 250.415,-187.81 256.193,-196.69 260.47,-191.148"/>
</g>
<!-- Node4 -->
<g id="node4" class="node"><title>Node4</title>
<polygon fill="none" stroke="#bfbfbf" points="12,-112.5 12,-131.5 92,-131.5 92,-112.5 12,-112.5"/>
<text text-anchor="middle" x="52" y="-119.5" font-family="Helvetica,sans-Serif" font-size="10.00">FairMQParts.h</text>
</g>
<!-- Node1&#45;&gt;Node4 -->
<g id="edge16" class="edge"><title>Node1&#45;&gt;Node4</title>
<path fill="none" stroke="midnightblue" d="M266.161,-228.327C235.343,-217.348 198.273,-203.147 166,-188 132.975,-172.5 96.663,-150.96 74.0961,-137"/>
<polygon fill="midnightblue" stroke="midnightblue" points="75.6524,-133.846 65.3158,-131.521 71.9466,-139.784 75.6524,-133.846"/>
</g>
<!-- Node7 -->
<g id="node7" class="node"><title>Node7</title>
<g id="a_node7"><a xlink:href="../../dc/dcd/DataHeader_8h.html" target="_top" xlink:title="Headers/DataHeader.h">
<polygon fill="none" stroke="black" points="272.5,-56.5 272.5,-75.5 389.5,-75.5 389.5,-56.5 272.5,-56.5"/>
<text text-anchor="middle" x="331" y="-63.5" font-family="Helvetica,sans-Serif" font-size="10.00">Headers/DataHeader.h</text>
</a>
</g>
</g>
<!-- Node1&#45;&gt;Node7 -->
<g id="edge18" class="edge"><title>Node1&#45;&gt;Node7</title>
<path fill="none" stroke="midnightblue" d="M331,-224.938C331,-187.811 331,-119.02 331,-85.8512"/>
<polygon fill="midnightblue" stroke="midnightblue" points="334.5,-85.7148 331,-75.7149 327.5,-85.7149 334.5,-85.7148"/>
</g>
<!-- Node15 -->
<g id="node15" class="node"><title>Node15</title>
<polygon fill="none" stroke="#bfbfbf" points="359.5,-168.5 359.5,-187.5 456.5,-187.5 456.5,-168.5 359.5,-168.5"/>
<text text-anchor="middle" x="408" y="-175.5" font-family="Helvetica,sans-Serif" font-size="10.00">FairMQMessage.h</text>
</g>
<!-- Node1&#45;&gt;Node15 -->
<g id="edge15" class="edge"><title>Node1&#45;&gt;Node15</title>
<path fill="none" stroke="midnightblue" d="M358.364,-224.768C369.196,-214.78 381.316,-203.605 390.867,-194.798"/>
<polygon fill="midnightblue" stroke="midnightblue" points="393.524,-197.109 398.503,-187.757 388.778,-191.963 393.524,-197.109"/>
</g>
<!-- Node16 -->
<g id="node16" class="node"><title>Node16</title>
<polygon fill="none" stroke="#bfbfbf" points="474.5,-168.5 474.5,-187.5 605.5,-187.5 605.5,-168.5 474.5,-168.5"/>
<text text-anchor="middle" x="540" y="-175.5" font-family="Helvetica,sans-Serif" font-size="10.00">FairMQTransportFactory.h</text>
</g>
<!-- Node1&#45;&gt;Node16 -->
<g id="edge17" class="edge"><title>Node1&#45;&gt;Node16</title>
<path fill="none" stroke="midnightblue" d="M395.698,-228.021C431.888,-215.727 475.566,-200.889 505.322,-190.781"/>
<polygon fill="midnightblue" stroke="midnightblue" points="506.505,-194.075 514.848,-187.544 504.254,-187.447 506.505,-194.075"/>
</g>
<!-- Node17 -->
<g id="node17" class="node"><title>Node17</title>
<polygon fill="none" stroke="#bfbfbf" points="623.5,-168.5 623.5,-187.5 670.5,-187.5 670.5,-168.5 623.5,-168.5"/>
<text text-anchor="middle" x="647" y="-175.5" font-family="Helvetica,sans-Serif" font-size="10.00">TFile.h</text>
</g>
<!-- Node1&#45;&gt;Node17 -->
<g id="edge19" class="edge"><title>Node1&#45;&gt;Node17</title>
<path fill="none" stroke="midnightblue" d="M395.561,-236.826C450.815,-225.33 532.69,-207.772 613.408,-188.049"/>
<polygon fill="midnightblue" stroke="midnightblue" points="614.368,-191.417 623.244,-185.633 612.698,-184.619 614.368,-191.417"/>
</g>
<!-- Node3&#45;&gt;Node4 -->
<g id="edge3" class="edge"><title>Node3&#45;&gt;Node4</title>
<path fill="none" stroke="midnightblue" d="M209.369,-168.444C177.5,-159.241 126.667,-144.562 91.436,-134.388"/>
<polygon fill="midnightblue" stroke="midnightblue" points="92.0706,-130.928 81.4921,-131.516 90.1285,-137.653 92.0706,-130.928"/>
</g>
<!-- Node5 -->
<g id="node5" class="node"><title>Node5</title>
<polygon fill="none" stroke="#bfbfbf" points="243.5,-112.5 243.5,-131.5 302.5,-131.5 302.5,-112.5 243.5,-112.5"/>
<text text-anchor="middle" x="273" y="-119.5" font-family="Helvetica,sans-Serif" font-size="10.00">TObject.h</text>
</g>
<!-- Node3&#45;&gt;Node5 -->
<g id="edge4" class="edge"><title>Node3&#45;&gt;Node5</title>
<path fill="none" stroke="midnightblue" d="M244.614,-168.083C249.367,-160.534 256.318,-149.495 262.152,-140.23"/>
<polygon fill="midnightblue" stroke="midnightblue" points="265.124,-142.078 267.49,-131.751 259.2,-138.349 265.124,-142.078"/>
</g>
<!-- Node6 -->
<g id="node6" class="node"><title>Node6</title>
<g id="a_node6"><a xlink:href="../../d6/d90/Headers_2include_2Headers_2TimeStamp_8h.html" target="_top" xlink:title="Headers/TimeStamp.h">
<polygon fill="none" stroke="black" points="110.5,-112.5 110.5,-131.5 225.5,-131.5 225.5,-112.5 110.5,-112.5"/>
<text text-anchor="middle" x="168" y="-119.5" font-family="Helvetica,sans-Serif" font-size="10.00">Headers/TimeStamp.h</text>
</a>
</g>
</g>
<!-- Node3&#45;&gt;Node6 -->
<g id="edge5" class="edge"><title>Node3&#45;&gt;Node6</title>
<path fill="none" stroke="midnightblue" d="M227.593,-168.324C216.891,-160.185 200.659,-147.839 187.837,-138.087"/>
<polygon fill="midnightblue" stroke="midnightblue" points="189.693,-135.102 179.615,-131.834 185.456,-140.673 189.693,-135.102"/>
</g>
<!-- Node6&#45;&gt;Node7 -->
<g id="edge6" class="edge"><title>Node6&#45;&gt;Node7</title>
<path fill="none" stroke="midnightblue" d="M193.828,-112.444C221.249,-103.359 264.777,-88.9388 295.432,-78.7831"/>
<polygon fill="midnightblue" stroke="midnightblue" points="296.901,-81.9837 305.293,-75.5164 294.7,-75.3389 296.901,-81.9837"/>
</g>
<!-- Node10 -->
<g id="node10" class="node"><title>Node10</title>
<polygon fill="none" stroke="#bfbfbf" points="122.5,-0.5 122.5,-19.5 171.5,-19.5 171.5,-0.5 122.5,-0.5"/>
<text text-anchor="middle" x="147" y="-7.5" font-family="Helvetica,sans-Serif" font-size="10.00">cassert</text>
</g>
<!-- Node6&#45;&gt;Node10 -->
<g id="edge13" class="edge"><title>Node6&#45;&gt;Node10</title>
<path fill="none" stroke="midnightblue" d="M153.339,-112.402C141.594,-104.585 125.969,-91.8617 119,-76 111.783,-59.5742 121.908,-40.7399 131.94,-27.5883"/>
<polygon fill="midnightblue" stroke="midnightblue" points="134.664,-29.787 138.336,-19.8489 129.268,-25.3278 134.664,-29.787"/>
</g>
<!-- Node13 -->
<g id="node13" class="node"><title>Node13</title>
<polygon fill="none" stroke="#bfbfbf" points="128,-56.5 128,-75.5 174,-75.5 174,-56.5 128,-56.5"/>
<text text-anchor="middle" x="151" y="-63.5" font-family="Helvetica,sans-Serif" font-size="10.00">chrono</text>
</g>
<!-- Node6&#45;&gt;Node13 -->
<g id="edge12" class="edge"><title>Node6&#45;&gt;Node13</title>
<path fill="none" stroke="midnightblue" d="M165.193,-112.083C162.915,-104.849 159.629,-94.4087 156.792,-85.3968"/>
<polygon fill="midnightblue" stroke="midnightblue" points="160.096,-84.2385 153.755,-75.7511 153.419,-86.3406 160.096,-84.2385"/>
</g>
<!-- Node14 -->
<g id="node14" class="node"><title>Node14</title>
<polygon fill="none" stroke="#bfbfbf" points="192,-56.5 192,-75.5 254,-75.5 254,-56.5 192,-56.5"/>
<text text-anchor="middle" x="223" y="-63.5" font-family="Helvetica,sans-Serif" font-size="10.00">type_traits</text>
</g>
<!-- Node6&#45;&gt;Node14 -->
<g id="edge14" class="edge"><title>Node6&#45;&gt;Node14</title>
<path fill="none" stroke="midnightblue" d="M177.082,-112.083C185.171,-104.141 197.195,-92.3354 206.91,-82.7973"/>
<polygon fill="midnightblue" stroke="midnightblue" points="209.403,-85.2545 214.087,-75.7511 204.499,-80.2595 209.403,-85.2545"/>
</g>
<!-- Node8 -->
<g id="node8" class="node"><title>Node8</title>
<polygon fill="none" stroke="#bfbfbf" points="411,-0.5 411,-19.5 457,-19.5 457,-0.5 411,-0.5"/>
<text text-anchor="middle" x="434" y="-7.5" font-family="Helvetica,sans-Serif" font-size="10.00">cstdint</text>
</g>
<!-- Node7&#45;&gt;Node8 -->
<g id="edge7" class="edge"><title>Node7&#45;&gt;Node8</title>
<path fill="none" stroke="midnightblue" d="M347.549,-56.324C363.992,-47.7034 389.435,-34.3643 408.468,-24.3855"/>
<polygon fill="midnightblue" stroke="midnightblue" points="410.261,-27.3977 417.492,-19.6545 407.011,-21.198 410.261,-27.3977"/>
</g>
<!-- Node9 -->
<g id="node9" class="node"><title>Node9</title>
<polygon fill="none" stroke="#bfbfbf" points="203,-0.5 203,-19.5 255,-19.5 255,-0.5 203,-0.5"/>
<text text-anchor="middle" x="229" y="-7.5" font-family="Helvetica,sans-Serif" font-size="10.00">memory</text>
</g>
<!-- Node7&#45;&gt;Node9 -->
<g id="edge8" class="edge"><title>Node7&#45;&gt;Node9</title>
<path fill="none" stroke="midnightblue" d="M314.612,-56.324C298.329,-47.7034 273.133,-34.3643 254.284,-24.3855"/>
<polygon fill="midnightblue" stroke="midnightblue" points="255.823,-21.2402 245.347,-19.6545 252.548,-27.4267 255.823,-21.2402"/>
</g>
<!-- Node7&#45;&gt;Node10 -->
<g id="edge9" class="edge"><title>Node7&#45;&gt;Node10</title>
<path fill="none" stroke="midnightblue" d="M301.845,-56.4435C269.103,-46.8346 216.02,-31.2558 181.308,-21.0686"/>
<polygon fill="midnightblue" stroke="midnightblue" points="182.183,-17.678 171.603,-18.2203 180.212,-24.3948 182.183,-17.678"/>
</g>
<!-- Node11 -->
<g id="node11" class="node"><title>Node11</title>
<polygon fill="none" stroke="#bfbfbf" points="273,-0.5 273,-19.5 319,-19.5 319,-0.5 273,-0.5"/>
<text text-anchor="middle" x="296" y="-7.5" font-family="Helvetica,sans-Serif" font-size="10.00">cstring</text>
</g>
<!-- Node7&#45;&gt;Node11 -->
<g id="edge10" class="edge"><title>Node7&#45;&gt;Node11</title>
<path fill="none" stroke="midnightblue" d="M325.22,-56.083C320.328,-48.5341 313.173,-37.4948 307.167,-28.2298"/>
<polygon fill="midnightblue" stroke="midnightblue" points="310.048,-26.239 301.672,-19.7511 304.174,-30.0463 310.048,-26.239"/>
</g>
<!-- Node12 -->
<g id="node12" class="node"><title>Node12</title>
<polygon fill="none" stroke="#bfbfbf" points="337,-0.5 337,-19.5 393,-19.5 393,-0.5 337,-0.5"/>
<text text-anchor="middle" x="365" y="-7.5" font-family="Helvetica,sans-Serif" font-size="10.00">algorithm</text>
</g>
<!-- Node7&#45;&gt;Node12 -->
<g id="edge11" class="edge"><title>Node7&#45;&gt;Node12</title>
<path fill="none" stroke="midnightblue" d="M336.614,-56.083C341.367,-48.5341 348.318,-37.4948 354.152,-28.2298"/>
<polygon fill="midnightblue" stroke="midnightblue" points="357.124,-30.0783 359.49,-19.7511 351.2,-26.3486 357.124,-30.0783"/>
</g>
</g>
</svg>
